<?xml version="1.0" encoding="UTF-8" standalone="no"?>
<!DOCTYPE svg PUBLIC "-//W3C//DTD SVG 1.1//EN"
 "http://www.w3.org/Graphics/SVG/1.1/DTD/svg11.dtd">
<!-- Generated by graphviz version 2.26.3 (20100126.1600)
 -->
<!-- Title: G Pages: 1 -->
<svg width="424pt" height="204pt"
 viewBox="0.00 0.00 424.00 204.00" xmlns="http://www.w3.org/2000/svg" xmlns:xlink="http://www.w3.org/1999/xlink">
<g id="graph1" class="graph" transform="scale(1 1) rotate(0) translate(4 200)">
<title>G</title>
<!-- Node1 -->
<g id="node1" class="node"><title>Node1</title>
<polygon fill="#bfbfbf" stroke="black" points="55,-174.5 55,-195.5 273,-195.5 273,-174.5 55,-174.5"/>
<text text-anchor="middle" x="164" y="-182.5" font-family="FreeSans.ttf" font-size="10.00">core/meanshift/abstractMeanShiftKernel.h</text>
</g>
<!-- Node2 -->
<g id="node3" class="node"><title>Node2</title>
<a xlink:href="meanShiftWindow_8h.html" target="_top" xlink:title="Add Comment Here.">
<polygon fill="none" stroke="black" points="131.5,-116.5 131.5,-137.5 316.5,-137.5 316.5,-116.5 131.5,-116.5"/>
<text text-anchor="middle" x="224" y="-124.5" font-family="FreeSans.ttf" font-size="10.00">core/meanshift/meanShiftWindow.h</text>
</a>
</g>
<!-- Node1&#45;&gt;Node2 -->
<g id="edge2" class="edge"><title>Node1&#45;&gt;Node2</title>
<path fill="none" stroke="midnightblue" d="M182.202,-167.405C192.274,-157.668 204.457,-145.891 213.065,-137.571"/>
<polygon fill="midnightblue" stroke="midnightblue" points="179.762,-164.895 175.005,-174.362 184.627,-169.928 179.762,-164.895"/>
</g>
<!-- Node3 -->
<g id="node5" class="node"><title>Node3</title>
<a xlink:href="meanShiftCalculator_8h.html" target="_top" xlink:title="Add Comment Here.">
<polygon fill="none" stroke="black" points="5.5,-58.5 5.5,-79.5 202.5,-79.5 202.5,-58.5 5.5,-58.5"/>
<text text-anchor="middle" x="104" y="-66.5" font-family="FreeSans.ttf" font-size="10.00">core/meanshift/meanShiftCalculator.h</text>
</a>
</g>
<!-- Node1&#45;&gt;Node3 -->
<g id="edge10" class="edge"><title>Node1&#45;&gt;Node3</title>
<path fill="none" stroke="midnightblue" d="M144.839,-166.956C137.097,-158.764 128.67,-148.554 123,-138 112.768,-118.955 107.668,-93.9231 105.45,-79.8409"/>
<polygon fill="midnightblue" stroke="midnightblue" points="142.42,-169.488 151.94,-174.138 147.398,-164.566 142.42,-169.488"/>
</g>
<!-- Node2&#45;&gt;Node3 -->
<g id="edge4" class="edge"><title>Node2&#45;&gt;Node3</title>
<path fill="none" stroke="midnightblue" d="M193.109,-112.069C172.094,-101.912 144.791,-88.7157 125.975,-79.6212"/>
<polygon fill="midnightblue" stroke="midnightblue" points="191.742,-115.296 202.269,-116.497 194.789,-108.994 191.742,-115.296"/>
</g>
<!-- Node5 -->
<g id="node9" class="node"><title>Node5</title>
<a xlink:href="meanShiftWindow_8cpp.html" target="_top" xlink:title="Add Comment Here.">
<polygon fill="none" stroke="black" points="220,-58.5 220,-79.5 416,-79.5 416,-58.5 220,-58.5"/>
<text text-anchor="middle" x="318" y="-66.5" font-family="FreeSans.ttf" font-size="10.00">core/meanshift/meanShiftWindow.cpp</text>
</a>
</g>
<!-- Node2&#45;&gt;Node5 -->
<g id="edge8" class="edge"><title>Node2&#45;&gt;Node5</title>
<path fill="none" stroke="midnightblue" d="M249.767,-111.101C266.031,-101.066 286.59,-88.3808 300.868,-79.5707"/>
<polygon fill="midnightblue" stroke="midnightblue" points="247.914,-108.132 241.241,-116.362 251.589,-114.089 247.914,-108.132"/>
</g>
<!-- Node4 -->
<g id="node7" class="node"><title>Node4</title>
<a xlink:href="meanShiftCalculator_8cpp.html" target="_top" xlink:title="Add Comment Here.">
<polygon fill="none" stroke="black" points="-0.5,-0.5 -0.5,-21.5 208.5,-21.5 208.5,-0.5 -0.5,-0.5"/>
<text text-anchor="middle" x="104" y="-8.5" font-family="FreeSans.ttf" font-size="10.00">core/meanshift/meanShiftCalculator.cpp</text>
</a>
</g>
<!-- Node3&#45;&gt;Node4 -->
<g id="edge6" class="edge"><title>Node3&#45;&gt;Node4</title>
<path fill="none" stroke="midnightblue" d="M104,-48.1906C104,-39.1684 104,-28.9941 104,-21.5707"/>
<polygon fill="midnightblue" stroke="midnightblue" points="100.5,-48.3619 104,-58.3619 107.5,-48.3619 100.5,-48.3619"/>
</g>
</g>
</svg>
