<?xml version="1.0" encoding="UTF-8" standalone="no"?>
<!DOCTYPE svg PUBLIC "-//W3C//DTD SVG 1.1//EN"
 "http://www.w3.org/Graphics/SVG/1.1/DTD/svg11.dtd">
<!-- Generated by graphviz version 2.26.3 (20100126.1600)
 -->
<!-- Title: G Pages: 1 -->
<!--zoomable 610 -->
<svg id="main" version="1.1" xmlns="http://www.w3.org/2000/svg" xmlns:xlink="http://www.w3.org/1999/xlink" xml:space="preserve" onload="init(evt)">
        <defs>
                <circle id="rim" cx="0" cy="0" r="7"/>
                <circle id="rim2" cx="0" cy="0" r="3.5"/>
                <g id="zoomPlus">
                        <use xlink:href="#rim" fill="#404040">
                                <set attributeName="fill" to="#808080" begin="zoomplus.mouseover" end="zoomplus.mouseout"/>
                        </use>
                        <path d="M-4,0h8M0,-4v8" fill="none" stroke="white" stroke-width="1.5" pointer-events="none"/>
                </g>
                <g id="zoomMin">
                        <use xlink:href="#rim" fill="#404040">
                                <set attributeName="fill" to="#808080" begin="zoomminus.mouseover" end="zoomminus.mouseout"/>
                        </use>
                        <path d="M-4,0h8" fill="none" stroke="white" stroke-width="1.5" pointer-events="none"/>
                </g>
                <g id="dirArrow">
                        <path fill="none" stroke="white" stroke-width="1.5" d="M0,-3.0v7 M-2.5,-0.5L0,-3.0L2.5,-0.5"/>
                </g>
               <g id="resetDef">
                       <use xlink:href="#rim2" fill="#404040">
                               <set attributeName="fill" to="#808080" begin="reset.mouseover" end="reset.mouseout"/>
                       </use>
               </g>
        </defs>

<script type="text/javascript">
var viewWidth = 1288;
var viewHeight = 610;
var sectionId = 'dynsection-0';
</script>
<script xlink:href="svgpan.js"/>
<svg id="graph" class="graph">
<g id="viewport">
<title>G</title>
<!-- Node1 -->
<g id="node1" class="node"><title>Node1</title>
<polygon fill="#bfbfbf" stroke="black" points="147,-580.5 147,-601.5 287,-601.5 287,-580.5 147,-580.5"/>
<text text-anchor="middle" x="217" y="-588.5" font-family="FreeSans.ttf" font-size="10.00">core/filters/abstractFilter.h</text>
</g>
<!-- Node2 -->
<g id="node3" class="node"><title>Node2</title>
<a xlink:href="g12Buffer_8h.html" target="_top" xlink:title="This file holds the class description for 12 bit grayscale buffer.">
<polygon fill="none" stroke="black" points="181.5,-522.5 181.5,-543.5 252.5,-543.5 252.5,-522.5 181.5,-522.5"/>
<text text-anchor="middle" x="217" y="-530.5" font-family="FreeSans.ttf" font-size="10.00">g12Buffer.h</text>
</a>
</g>
<!-- Node1&#45;&gt;Node2 -->
<g id="edge2" class="edge"><title>Node1&#45;&gt;Node2</title>
<path fill="none" stroke="midnightblue" d="M217,-580.362C217,-572.922 217,-562.743 217,-553.728"/>
<polygon fill="midnightblue" stroke="midnightblue" points="220.5,-553.571 217,-543.571 213.5,-553.571 220.5,-553.571"/>
</g>
<!-- Node3 -->
<g id="node5" class="node"><title>Node3</title>
<polygon fill="none" stroke="#bfbfbf" points="1221.5,-116.5 1221.5,-137.5 1280.5,-137.5 1280.5,-116.5 1221.5,-116.5"/>
<text text-anchor="middle" x="1251" y="-124.5" font-family="FreeSans.ttf" font-size="10.00">iostream</text>
</g>
<!-- Node2&#45;&gt;Node3 -->
<g id="edge4" class="edge"><title>Node2&#45;&gt;Node3</title>
<path fill="none" stroke="midnightblue" d="M252.639,-530.987C436.578,-520.367 1270,-469.359 1270,-417 1270,-417 1270,-417 1270,-243 1270,-209.175 1262.04,-170.523 1256.42,-147.474"/>
<polygon fill="midnightblue" stroke="midnightblue" points="1259.81,-146.616 1253.97,-137.778 1253.03,-148.331 1259.81,-146.616"/>
</g>
<!-- Node4 -->
<g id="node7" class="node"><title>Node4</title>
<a xlink:href="global_8h.html" target="_top" xlink:title="This file holds the global includes, mostly for debuging, tracing and profiling.">
<polygon fill="none" stroke="black" points="465,-58.5 465,-79.5 519,-79.5 519,-58.5 465,-58.5"/>
<text text-anchor="middle" x="492" y="-66.5" font-family="FreeSans.ttf" font-size="10.00">global.h</text>
</a>
</g>
<!-- Node2&#45;&gt;Node4 -->
<g id="edge6" class="edge"><title>Node2&#45;&gt;Node4</title>
<path fill="none" stroke="midnightblue" d="M181.167,-530.029C119.533,-522.749 0,-498.165 0,-417 0,-417 0,-417 0,-185 0,-91.6007 340.136,-73.3231 454.786,-69.8153"/>
<polygon fill="midnightblue" stroke="midnightblue" points="454.951,-73.3121 464.847,-69.5281 454.751,-66.3149 454.951,-73.3121"/>
</g>
<!-- Node6 -->
<g id="node11" class="node"><title>Node6</title>
<a xlink:href="abstractBuffer_8h.html" target="_top" xlink:title="a header for AbstractBuffer.cpp">
<polygon fill="none" stroke="black" points="532.5,-348.5 532.5,-369.5 625.5,-369.5 625.5,-348.5 532.5,-348.5"/>
<text text-anchor="middle" x="579" y="-356.5" font-family="FreeSans.ttf" font-size="10.00">abstractBuffer.h</text>
</a>
</g>
<!-- Node2&#45;&gt;Node6 -->
<g id="edge10" class="edge"><title>Node2&#45;&gt;Node6</title>
<path fill="none" stroke="midnightblue" d="M239.1,-522.377C300.949,-492.649 475.944,-408.535 547.707,-374.041"/>
<polygon fill="midnightblue" stroke="midnightblue" points="549.233,-377.191 556.729,-369.705 546.2,-370.882 549.233,-377.191"/>
</g>
<!-- Node27 -->
<g id="node70" class="node"><title>Node27</title>
<a xlink:href="abstractContiniousBuffer_8h.html" target="_top" xlink:title="a header for AbstractContiniousBuffer.c">
<polygon fill="none" stroke="black" points="27.5,-406.5 27.5,-427.5 170.5,-427.5 170.5,-406.5 27.5,-406.5"/>
<text text-anchor="middle" x="99" y="-414.5" font-family="FreeSans.ttf" font-size="10.00">abstractContiniousBuffer.h</text>
</a>
</g>
<!-- Node2&#45;&gt;Node27 -->
<g id="edge86" class="edge"><title>Node2&#45;&gt;Node27</title>
<path fill="none" stroke="midnightblue" d="M199.669,-522.452C185.936,-513.644 166.683,-500.264 152,-486 136.358,-470.804 121.502,-450.802 111.521,-436.248"/>
<polygon fill="midnightblue" stroke="midnightblue" points="114.182,-433.933 105.706,-427.576 108.368,-437.831 114.182,-433.933"/>
</g>
<!-- Node29 -->
<g id="node76" class="node"><title>Node29</title>
<a xlink:href="fixedPointDisplace_8h.html" target="_top" xlink:title="A header for fixedPointDisplace.c.">
<polygon fill="none" stroke="black" points="160.5,-464.5 160.5,-485.5 273.5,-485.5 273.5,-464.5 160.5,-464.5"/>
<text text-anchor="middle" x="217" y="-472.5" font-family="FreeSans.ttf" font-size="10.00">fixedPointDisplace.h</text>
</a>
</g>
<!-- Node2&#45;&gt;Node29 -->
<g id="edge94" class="edge"><title>Node2&#45;&gt;Node29</title>
<path fill="none" stroke="midnightblue" d="M217,-522.362C217,-514.922 217,-504.743 217,-495.728"/>
<polygon fill="midnightblue" stroke="midnightblue" points="220.5,-495.571 217,-485.571 213.5,-495.571 220.5,-495.571"/>
</g>
<!-- Node5 -->
<g id="node9" class="node"><title>Node5</title>
<polygon fill="none" stroke="#bfbfbf" points="460,-0.5 460,-21.5 524,-21.5 524,-0.5 460,-0.5"/>
<text text-anchor="middle" x="492" y="-8.5" font-family="FreeSans.ttf" font-size="10.00">inttypes.h</text>
</g>
<!-- Node4&#45;&gt;Node5 -->
<g id="edge8" class="edge"><title>Node4&#45;&gt;Node5</title>
<path fill="none" stroke="midnightblue" d="M492,-58.3619C492,-50.9219 492,-40.7427 492,-31.7276"/>
<polygon fill="midnightblue" stroke="midnightblue" points="495.5,-31.5706 492,-21.5707 488.5,-31.5707 495.5,-31.5706"/>
</g>
<!-- Node6&#45;&gt;Node4 -->
<g id="edge22" class="edge"><title>Node6&#45;&gt;Node4</title>
<path fill="none" stroke="midnightblue" d="M579.788,-348.425C582.238,-314.371 589.197,-207.811 583,-174 578.03,-146.882 578.07,-137.649 561,-116 550.865,-103.146 536.243,-92.4859 523.066,-84.5859"/>
<polygon fill="midnightblue" stroke="midnightblue" points="524.669,-81.471 514.247,-79.5645 521.205,-87.5541 524.669,-81.471"/>
</g>
<!-- Node7 -->
<g id="node13" class="node"><title>Node7</title>
<polygon fill="none" stroke="#bfbfbf" points="651.5,-58.5 651.5,-79.5 704.5,-79.5 704.5,-58.5 651.5,-58.5"/>
<text text-anchor="middle" x="678" y="-66.5" font-family="FreeSans.ttf" font-size="10.00">stdint.h</text>
</g>
<!-- Node6&#45;&gt;Node7 -->
<g id="edge12" class="edge"><title>Node6&#45;&gt;Node7</title>
<path fill="none" stroke="midnightblue" d="M582.641,-348.335C597.225,-305.615 651.569,-146.426 671.02,-89.4467"/>
<polygon fill="midnightblue" stroke="midnightblue" points="674.408,-90.3567 674.326,-79.7622 667.783,-88.0951 674.408,-90.3567"/>
</g>
<!-- Node8 -->
<g id="node15" class="node"><title>Node8</title>
<polygon fill="none" stroke="#bfbfbf" points="999.5,-58.5 999.5,-79.5 1048.5,-79.5 1048.5,-58.5 999.5,-58.5"/>
<text text-anchor="middle" x="1024" y="-66.5" font-family="FreeSans.ttf" font-size="10.00">stdio.h</text>
</g>
<!-- Node6&#45;&gt;Node8 -->
<g id="edge14" class="edge"><title>Node6&#45;&gt;Node8</title>
<path fill="none" stroke="midnightblue" d="M625.744,-354.209C688.444,-344.905 792,-318.162 792,-243 792,-243 792,-243 792,-185 792,-145.223 815.39,-137.274 849,-116 901.434,-82.81 926.155,-96.8151 989.553,-80.1724"/>
<polygon fill="midnightblue" stroke="midnightblue" points="990.502,-83.5414 999.195,-77.4853 988.623,-76.7983 990.502,-83.5414"/>
</g>
<!-- Node9 -->
<g id="node17" class="node"><title>Node9</title>
<polygon fill="none" stroke="#bfbfbf" points="742,-58.5 742,-79.5 798,-79.5 798,-58.5 742,-58.5"/>
<text text-anchor="middle" x="770" y="-66.5" font-family="FreeSans.ttf" font-size="10.00">stdarg.h</text>
</g>
<!-- Node6&#45;&gt;Node9 -->
<g id="edge16" class="edge"><title>Node6&#45;&gt;Node9</title>
<path fill="none" stroke="midnightblue" d="M625.63,-350.806C650.049,-344.223 678.614,-332.536 697,-312 718.217,-288.302 716,-274.808 716,-243 716,-243 716,-243 716,-185 716,-147.904 738.978,-109.845 754.956,-87.8642"/>
<polygon fill="midnightblue" stroke="midnightblue" points="757.857,-89.8306 761.083,-79.7389 752.268,-85.6159 757.857,-89.8306"/>
</g>
<!-- Node10 -->
<g id="node19" class="node"><title>Node10</title>
<polygon fill="none" stroke="#bfbfbf" points="855,-58.5 855,-79.5 899,-79.5 899,-58.5 855,-58.5"/>
<text text-anchor="middle" x="877" y="-66.5" font-family="FreeSans.ttf" font-size="10.00">string</text>
</g>
<!-- Node6&#45;&gt;Node10 -->
<g id="edge18" class="edge"><title>Node6&#45;&gt;Node10</title>
<path fill="none" stroke="midnightblue" d="M625.622,-352.345C654.924,-346.123 691.972,-334.281 718,-312 744.277,-289.506 754,-277.59 754,-243 754,-243 754,-243 754,-185 754,-152.531 756.32,-140.17 778,-116 795.657,-96.3148 823.323,-84.1507 844.925,-77.1435"/>
<polygon fill="midnightblue" stroke="midnightblue" points="846.112,-80.4411 854.669,-74.1929 844.083,-73.7416 846.112,-80.4411"/>
</g>
<!-- Node11 -->
<g id="node21" class="node"><title>Node11</title>
<polygon fill="none" stroke="#bfbfbf" points="625.5,-290.5 625.5,-311.5 688.5,-311.5 688.5,-290.5 625.5,-290.5"/>
<text text-anchor="middle" x="657" y="-298.5" font-family="FreeSans.ttf" font-size="10.00">functional</text>
</g>
<!-- Node6&#45;&gt;Node11 -->
<g id="edge20" class="edge"><title>Node6&#45;&gt;Node11</title>
<path fill="none" stroke="midnightblue" d="M593.306,-348.362C604.851,-339.777 621.3,-327.546 634.59,-317.664"/>
<polygon fill="midnightblue" stroke="midnightblue" points="636.848,-320.346 642.784,-311.571 632.671,-314.729 636.848,-320.346"/>
</g>
<!-- Node12 -->
<g id="node24" class="node"><title>Node12</title>
<a xlink:href="vector2d_8h.html" target="_top" xlink:title="Add Comment Here.">
<polygon fill="none" stroke="black" points="820,-290.5 820,-311.5 888,-311.5 888,-290.5 820,-290.5"/>
<text text-anchor="middle" x="854" y="-298.5" font-family="FreeSans.ttf" font-size="10.00">vector2d.h</text>
</a>
</g>
<!-- Node6&#45;&gt;Node12 -->
<g id="edge24" class="edge"><title>Node6&#45;&gt;Node12</title>
<path fill="none" stroke="midnightblue" d="M625.579,-349.655C671.509,-340.37 743.676,-325.592 806,-312 807.269,-311.723 808.556,-311.441 809.854,-311.154"/>
<polygon fill="midnightblue" stroke="midnightblue" points="810.936,-314.499 819.931,-308.901 809.409,-307.667 810.936,-314.499"/>
</g>
<!-- Node20 -->
<g id="node51" class="node"><title>Node20</title>
<a xlink:href="memoryBlock_8h.html" target="_top" xlink:title="Add Comment Here.">
<polygon fill="none" stroke="black" points="349.5,-174.5 349.5,-195.5 484.5,-195.5 484.5,-174.5 349.5,-174.5"/>
<text text-anchor="middle" x="417" y="-182.5" font-family="FreeSans.ttf" font-size="10.00">memory/memoryBlock.h</text>
</a>
</g>
<!-- Node6&#45;&gt;Node20 -->
<g id="edge62" class="edge"><title>Node6&#45;&gt;Node20</title>
<path fill="none" stroke="midnightblue" d="M569.11,-348.377C542.286,-319.567 467.907,-239.678 434.108,-203.376"/>
<polygon fill="midnightblue" stroke="midnightblue" points="436.55,-200.862 427.174,-195.928 431.427,-205.632 436.55,-200.862"/>
</g>
<!-- Node24 -->
<g id="node61" class="node"><title>Node24</title>
<a xlink:href="tbbWrapper_8h.html" target="_top" xlink:title="This is a class that provides common TBB interface.">
<polygon fill="none" stroke="black" points="376,-290.5 376,-311.5 456,-311.5 456,-290.5 376,-290.5"/>
<text text-anchor="middle" x="416" y="-298.5" font-family="FreeSans.ttf" font-size="10.00">tbbWrapper.h</text>
</a>
</g>
<!-- Node6&#45;&gt;Node24 -->
<g id="edge74" class="edge"><title>Node6&#45;&gt;Node24</title>
<path fill="none" stroke="midnightblue" d="M549.482,-348.497C523.024,-339.082 484.021,-325.204 455,-314.877"/>
<polygon fill="midnightblue" stroke="midnightblue" points="456.168,-311.578 445.573,-311.523 453.821,-318.173 456.168,-311.578"/>
</g>
<!-- Node26 -->
<g id="node65" class="node"><title>Node26</title>
<a xlink:href="mathUtils_8h.html" target="_top" xlink:title="Add Comment Here.">
<polygon fill="none" stroke="black" points="502,-174.5 502,-195.5 574,-195.5 574,-174.5 502,-174.5"/>
<text text-anchor="middle" x="538" y="-182.5" font-family="FreeSans.ttf" font-size="10.00">mathUtils.h</text>
</a>
</g>
<!-- Node6&#45;&gt;Node26 -->
<g id="edge78" class="edge"><title>Node6&#45;&gt;Node26</title>
<path fill="none" stroke="midnightblue" d="M568.945,-348.397C561.153,-339.456 550.887,-325.923 546,-312 533.445,-276.228 534.127,-231.347 535.942,-205.643"/>
<polygon fill="midnightblue" stroke="midnightblue" points="539.437,-205.841 536.782,-195.584 532.462,-205.258 539.437,-205.841"/>
</g>
<!-- Node12&#45;&gt;Node4 -->
<g id="edge30" class="edge"><title>Node12&#45;&gt;Node4</title>
<path fill="none" stroke="midnightblue" d="M841.416,-290.403C799.584,-255.309 665.058,-143.539 616,-116 588.175,-100.38 554.132,-87.8969 528.76,-79.7324"/>
<polygon fill="midnightblue" stroke="midnightblue" points="529.739,-76.3713 519.149,-76.7121 527.64,-83.0493 529.739,-76.3713"/>
</g>
<!-- Node12&#45;&gt;Node7 -->
<g id="edge28" class="edge"><title>Node12&#45;&gt;Node7</title>
<path fill="none" stroke="midnightblue" d="M846.708,-290.107C837.462,-276.391 820.924,-252.181 806,-232 766.472,-178.549 717.327,-117.347 693.037,-87.4244"/>
<polygon fill="midnightblue" stroke="midnightblue" points="695.628,-85.0641 686.603,-79.5151 690.198,-89.4813 695.628,-85.0641"/>
</g>
<!-- Node13 -->
<g id="node26" class="node"><title>Node13</title>
<polygon fill="none" stroke="#bfbfbf" points="857.5,-116.5 857.5,-137.5 908.5,-137.5 908.5,-116.5 857.5,-116.5"/>
<text text-anchor="middle" x="883" y="-124.5" font-family="FreeSans.ttf" font-size="10.00">math.h</text>
</g>
<!-- Node12&#45;&gt;Node13 -->
<g id="edge26" class="edge"><title>Node12&#45;&gt;Node13</title>
<path fill="none" stroke="midnightblue" d="M855.77,-290.377C860.451,-262.293 873.221,-185.673 879.466,-148.203"/>
<polygon fill="midnightblue" stroke="midnightblue" points="882.987,-148.367 881.179,-137.928 876.082,-147.216 882.987,-148.367"/>
</g>
<!-- Node14 -->
<g id="node30" class="node"><title>Node14</title>
<a xlink:href="fixedVector_8h.html" target="_top" xlink:title="This file holds the description of the commonly used template &#45; a vector with the fixed number of com...">
<polygon fill="none" stroke="black" points="982,-232.5 982,-253.5 1060,-253.5 1060,-232.5 982,-232.5"/>
<text text-anchor="middle" x="1021" y="-240.5" font-family="FreeSans.ttf" font-size="10.00">fixedVector.h</text>
</a>
</g>
<!-- Node12&#45;&gt;Node14 -->
<g id="edge32" class="edge"><title>Node12&#45;&gt;Node14</title>
<path fill="none" stroke="midnightblue" d="M884.242,-290.497C911.35,-281.082 951.31,-267.204 981.043,-256.877"/>
<polygon fill="midnightblue" stroke="midnightblue" points="982.403,-260.11 990.701,-253.523 980.106,-253.498 982.403,-260.11"/>
</g>
<!-- Node14&#45;&gt;Node8 -->
<g id="edge34" class="edge"><title>Node14&#45;&gt;Node8</title>
<path fill="none" stroke="midnightblue" d="M1018.05,-232.276C1015.6,-222.816 1012.33,-208.611 1011,-196 1007.04,-158.366 1014.14,-114.442 1019.32,-89.3565"/>
<polygon fill="midnightblue" stroke="midnightblue" points="1022.75,-90.0536 1021.44,-79.5392 1015.91,-88.5714 1022.75,-90.0536"/>
</g>
<!-- Node15 -->
<g id="node33" class="node"><title>Node15</title>
<a xlink:href="vectorOperations_8h.html" target="_top" xlink:title="This file holds the operations that are commonly used with continuous linear data structures such as ...">
<polygon fill="none" stroke="black" points="1020,-174.5 1020,-195.5 1128,-195.5 1128,-174.5 1020,-174.5"/>
<text text-anchor="middle" x="1074" y="-182.5" font-family="FreeSans.ttf" font-size="10.00">vectorOperations.h</text>
</a>
</g>
<!-- Node14&#45;&gt;Node15 -->
<g id="edge36" class="edge"><title>Node14&#45;&gt;Node15</title>
<path fill="none" stroke="midnightblue" d="M1030.72,-232.362C1038.19,-224.186 1048.69,-212.702 1057.47,-203.091"/>
<polygon fill="midnightblue" stroke="midnightblue" points="1060.18,-205.314 1064.34,-195.571 1055.01,-200.592 1060.18,-205.314"/>
</g>
<!-- Node15&#45;&gt;Node3 -->
<g id="edge40" class="edge"><title>Node15&#45;&gt;Node3</title>
<path fill="none" stroke="midnightblue" d="M1106.05,-174.497C1135.63,-164.805 1179.64,-150.384 1211.4,-139.977"/>
<polygon fill="midnightblue" stroke="midnightblue" points="1212.83,-143.19 1221.25,-136.75 1210.65,-136.538 1212.83,-143.19"/>
</g>
<!-- Node15&#45;&gt;Node8 -->
<g id="edge42" class="edge"><title>Node15&#45;&gt;Node8</title>
<path fill="none" stroke="midnightblue" d="M1069.39,-174.295C1061.05,-154.959 1043.36,-113.923 1032.7,-89.1767"/>
<polygon fill="midnightblue" stroke="midnightblue" points="1035.78,-87.477 1028.6,-79.6792 1029.35,-90.2479 1035.78,-87.477"/>
</g>
<!-- Node15&#45;&gt;Node13 -->
<g id="edge44" class="edge"><title>Node15&#45;&gt;Node13</title>
<path fill="none" stroke="midnightblue" d="M1038.08,-174.491C1008.27,-165.715 964.521,-152.712 918.206,-138.339"/>
<polygon fill="midnightblue" stroke="midnightblue" points="919.189,-134.979 908.601,-135.349 917.109,-141.663 919.189,-134.979"/>
</g>
<!-- Node16 -->
<g id="node35" class="node"><title>Node16</title>
<polygon fill="none" stroke="#bfbfbf" points="1110,-116.5 1110,-137.5 1152,-137.5 1152,-116.5 1110,-116.5"/>
<text text-anchor="middle" x="1131" y="-124.5" font-family="FreeSans.ttf" font-size="10.00">limits</text>
</g>
<!-- Node15&#45;&gt;Node16 -->
<g id="edge38" class="edge"><title>Node15&#45;&gt;Node16</title>
<path fill="none" stroke="midnightblue" d="M1084.45,-174.362C1092.57,-166.104 1104,-154.472 1113.5,-144.803"/>
<polygon fill="midnightblue" stroke="midnightblue" points="1116.1,-147.156 1120.61,-137.571 1111.11,-142.25 1116.1,-147.156"/>
</g>
<!-- Node17 -->
<g id="node40" class="node"><title>Node17</title>
<a xlink:href="reflection_8h.html" target="_top" xlink:title="a header for Reflection.c">
<polygon fill="none" stroke="black" points="926,-116.5 926,-137.5 996,-137.5 996,-116.5 926,-116.5"/>
<text text-anchor="middle" x="961" y="-124.5" font-family="FreeSans.ttf" font-size="10.00">reflection.h</text>
</a>
</g>
<!-- Node15&#45;&gt;Node17 -->
<g id="edge46" class="edge"><title>Node15&#45;&gt;Node17</title>
<path fill="none" stroke="midnightblue" d="M1053.54,-174.497C1035.97,-165.479 1010.42,-152.365 990.615,-142.201"/>
<polygon fill="midnightblue" stroke="midnightblue" points="992.188,-139.074 981.693,-137.621 988.991,-145.301 992.188,-139.074"/>
</g>
<!-- Node17&#45;&gt;Node4 -->
<g id="edge60" class="edge"><title>Node17&#45;&gt;Node4</title>
<path fill="none" stroke="midnightblue" d="M925.547,-117.701C922.666,-117.078 919.79,-116.501 917,-116 774.93,-90.5055 603.499,-76.6252 529.265,-71.4237"/>
<polygon fill="midnightblue" stroke="midnightblue" points="529.249,-67.9145 519.032,-70.7189 528.768,-74.8979 529.249,-67.9145"/>
</g>
<!-- Node17&#45;&gt;Node7 -->
<g id="edge56" class="edge"><title>Node17&#45;&gt;Node7</title>
<path fill="none" stroke="midnightblue" d="M925.974,-118.07C922.944,-117.35 919.921,-116.65 917,-116 835.664,-97.8889 814.744,-96.171 733,-80 727.064,-78.8257 720.769,-77.5734 714.639,-76.3501"/>
<polygon fill="midnightblue" stroke="midnightblue" points="715.064,-72.8657 704.572,-74.3376 713.692,-79.7299 715.064,-72.8657"/>
</g>
<!-- Node17&#45;&gt;Node8 -->
<g id="edge54" class="edge"><title>Node17&#45;&gt;Node8</title>
<path fill="none" stroke="midnightblue" d="M972.555,-116.362C981.613,-108.023 994.41,-96.2418 1004.97,-86.5162"/>
<polygon fill="midnightblue" stroke="midnightblue" points="1007.53,-88.9187 1012.52,-79.5707 1002.79,-83.7688 1007.53,-88.9187"/>
</g>
<!-- Node17&#45;&gt;Node9 -->
<g id="edge58" class="edge"><title>Node17&#45;&gt;Node9</title>
<path fill="none" stroke="midnightblue" d="M926.411,-116.497C892.949,-106.335 842.363,-90.974 807.842,-80.4912"/>
<polygon fill="midnightblue" stroke="midnightblue" points="808.706,-77.0958 798.12,-77.5391 806.672,-83.7938 808.706,-77.0958"/>
</g>
<!-- Node17&#45;&gt;Node10 -->
<g id="edge50" class="edge"><title>Node17&#45;&gt;Node10</title>
<path fill="none" stroke="midnightblue" d="M945.593,-116.362C933.042,-107.696 915.108,-95.3126 900.725,-85.3819"/>
<polygon fill="midnightblue" stroke="midnightblue" points="902.527,-82.3725 892.309,-79.5707 898.55,-88.1327 902.527,-82.3725"/>
</g>
<!-- Node18 -->
<g id="node42" class="node"><title>Node18</title>
<polygon fill="none" stroke="#bfbfbf" points="935.5,-58.5 935.5,-79.5 982.5,-79.5 982.5,-58.5 935.5,-58.5"/>
<text text-anchor="middle" x="959" y="-66.5" font-family="FreeSans.ttf" font-size="10.00">vector</text>
</g>
<!-- Node17&#45;&gt;Node18 -->
<g id="edge48" class="edge"><title>Node17&#45;&gt;Node18</title>
<path fill="none" stroke="midnightblue" d="M960.633,-116.362C960.377,-108.922 960.026,-98.7427 959.715,-89.7276"/>
<polygon fill="midnightblue" stroke="midnightblue" points="963.207,-89.4441 959.365,-79.5707 956.211,-89.6854 963.207,-89.4441"/>
</g>
<!-- Node19 -->
<g id="node45" class="node"><title>Node19</title>
<polygon fill="none" stroke="#bfbfbf" points="1116.5,-58.5 1116.5,-79.5 1169.5,-79.5 1169.5,-58.5 1116.5,-58.5"/>
<text text-anchor="middle" x="1143" y="-66.5" font-family="FreeSans.ttf" font-size="10.00">string.h</text>
</g>
<!-- Node17&#45;&gt;Node19 -->
<g id="edge52" class="edge"><title>Node17&#45;&gt;Node19</title>
<path fill="none" stroke="midnightblue" d="M993.959,-116.497C1025.8,-106.349 1073.91,-91.0164 1106.81,-80.5346"/>
<polygon fill="midnightblue" stroke="midnightblue" points="1108.02,-83.8197 1116.49,-77.4485 1105.9,-77.1501 1108.02,-83.8197"/>
</g>
<!-- Node20&#45;&gt;Node4 -->
<g id="edge70" class="edge"><title>Node20&#45;&gt;Node4</title>
<path fill="none" stroke="midnightblue" d="M419.735,-174.043C423.615,-159.835 431.65,-134.667 444,-116 451.267,-105.016 461.462,-94.5773 470.588,-86.34"/>
<polygon fill="midnightblue" stroke="midnightblue" points="472.972,-88.9058 478.233,-79.7095 468.385,-83.6177 472.972,-88.9058"/>
</g>
<!-- Node20&#45;&gt;Node7 -->
<g id="edge66" class="edge"><title>Node20&#45;&gt;Node7</title>
<path fill="none" stroke="midnightblue" d="M423.254,-174.267C432.806,-158.87 452.526,-130.749 477,-116 504.366,-99.5073 591.13,-83.1871 641.267,-74.801"/>
<polygon fill="midnightblue" stroke="midnightblue" points="642.078,-78.2147 651.375,-73.1347 640.939,-71.3079 642.078,-78.2147"/>
</g>
<!-- Node21 -->
<g id="node53" class="node"><title>Node21</title>
<polygon fill="none" stroke="#bfbfbf" points="263.5,-116.5 263.5,-137.5 298.5,-137.5 298.5,-116.5 263.5,-116.5"/>
<text text-anchor="middle" x="281" y="-124.5" font-family="FreeSans.ttf" font-size="10.00">new</text>
</g>
<!-- Node20&#45;&gt;Node21 -->
<g id="edge64" class="edge"><title>Node20&#45;&gt;Node21</title>
<path fill="none" stroke="midnightblue" d="M392.371,-174.497C368.556,-164.34 332.558,-148.988 307.978,-138.505"/>
<polygon fill="midnightblue" stroke="midnightblue" points="309.102,-135.18 298.53,-134.476 306.356,-141.619 309.102,-135.18"/>
</g>
<!-- Node22 -->
<g id="node56" class="node"><title>Node22</title>
<polygon fill="none" stroke="#bfbfbf" points="485.5,-116.5 485.5,-137.5 536.5,-137.5 536.5,-116.5 485.5,-116.5"/>
<text text-anchor="middle" x="511" y="-124.5" font-family="FreeSans.ttf" font-size="10.00">stdlib.h</text>
</g>
<!-- Node20&#45;&gt;Node22 -->
<g id="edge68" class="edge"><title>Node20&#45;&gt;Node22</title>
<path fill="none" stroke="midnightblue" d="M434.241,-174.362C448.552,-165.532 469.115,-152.844 485.357,-142.822"/>
<polygon fill="midnightblue" stroke="midnightblue" points="487.196,-145.8 493.868,-137.571 483.52,-139.843 487.196,-145.8"/>
</g>
<!-- Node23 -->
<g id="node59" class="node"><title>Node23</title>
<a xlink:href="atomicOps_8h.html" target="_top" xlink:title="atomicOps.h">
<polygon fill="none" stroke="black" points="315.5,-116.5 315.5,-137.5 392.5,-137.5 392.5,-116.5 315.5,-116.5"/>
<text text-anchor="middle" x="354" y="-124.5" font-family="FreeSans.ttf" font-size="10.00">atomicOps.h</text>
</a>
</g>
<!-- Node20&#45;&gt;Node23 -->
<g id="edge72" class="edge"><title>Node20&#45;&gt;Node23</title>
<path fill="none" stroke="midnightblue" d="M405.445,-174.362C396.387,-166.023 383.59,-154.242 373.026,-144.516"/>
<polygon fill="midnightblue" stroke="midnightblue" points="375.21,-141.769 365.482,-137.571 370.468,-146.919 375.21,-141.769"/>
</g>
<!-- Node25 -->
<g id="node63" class="node"><title>Node25</title>
<polygon fill="none" stroke="#bfbfbf" points="390,-232.5 390,-253.5 442,-253.5 442,-232.5 390,-232.5"/>
<text text-anchor="middle" x="416" y="-240.5" font-family="FreeSans.ttf" font-size="10.00">cstddef</text>
</g>
<!-- Node24&#45;&gt;Node25 -->
<g id="edge76" class="edge"><title>Node24&#45;&gt;Node25</title>
<path fill="none" stroke="midnightblue" d="M416,-290.362C416,-282.922 416,-272.743 416,-263.728"/>
<polygon fill="midnightblue" stroke="midnightblue" points="419.5,-263.571 416,-253.571 412.5,-263.571 419.5,-263.571"/>
</g>
<!-- Node26&#45;&gt;Node4 -->
<g id="edge82" class="edge"><title>Node26&#45;&gt;Node4</title>
<path fill="none" stroke="midnightblue" d="M542.34,-174.178C547.272,-160.117 553.594,-135.107 545,-116 539.482,-103.733 529.005,-93.3682 518.813,-85.52"/>
<polygon fill="midnightblue" stroke="midnightblue" points="520.605,-82.499 510.434,-79.5328 516.536,-88.1944 520.605,-82.499"/>
</g>
<!-- Node26&#45;&gt;Node13 -->
<g id="edge80" class="edge"><title>Node26&#45;&gt;Node13</title>
<path fill="none" stroke="midnightblue" d="M574.269,-178.903C640.777,-167.722 781.464,-144.07 847.441,-132.978"/>
<polygon fill="midnightblue" stroke="midnightblue" points="848.084,-136.419 857.365,-131.31 846.923,-129.516 848.084,-136.419"/>
</g>
<!-- Node26&#45;&gt;Node22 -->
<g id="edge84" class="edge"><title>Node26&#45;&gt;Node22</title>
<path fill="none" stroke="midnightblue" d="M533.048,-174.362C529.47,-166.677 524.532,-156.069 520.236,-146.84"/>
<polygon fill="midnightblue" stroke="midnightblue" points="523.314,-145.159 515.921,-137.571 516.968,-148.114 523.314,-145.159"/>
</g>
<!-- Node27&#45;&gt;Node4 -->
<g id="edge88" class="edge"><title>Node27&#45;&gt;Node4</title>
<path fill="none" stroke="midnightblue" d="M97.0256,-406.488C93.3889,-386.182 86,-340.111 86,-301 86,-301 86,-301 86,-185 86,-108.712 354.37,-79.7949 454.727,-71.6485"/>
<polygon fill="midnightblue" stroke="midnightblue" points="455.037,-75.135 464.731,-70.8604 454.487,-68.1566 455.037,-75.135"/>
</g>
<!-- Node27&#45;&gt;Node6 -->
<g id="edge90" class="edge"><title>Node27&#45;&gt;Node6</title>
<path fill="none" stroke="midnightblue" d="M170.602,-408.348C266.507,-396.76 434.735,-376.432 522.344,-365.846"/>
<polygon fill="midnightblue" stroke="midnightblue" points="522.854,-369.31 532.362,-364.635 522.014,-362.36 522.854,-369.31"/>
</g>
<!-- Node28 -->
<g id="node74" class="node"><title>Node28</title>
<polygon fill="none" stroke="#bfbfbf" points="114,-348.5 114,-369.5 170,-369.5 170,-348.5 114,-348.5"/>
<text text-anchor="middle" x="142" y="-356.5" font-family="FreeSans.ttf" font-size="10.00">matrix.h</text>
</g>
<!-- Node27&#45;&gt;Node28 -->
<g id="edge92" class="edge"><title>Node27&#45;&gt;Node28</title>
<path fill="none" stroke="midnightblue" d="M106.887,-406.362C112.827,-398.35 121.122,-387.161 128.159,-377.67"/>
<polygon fill="midnightblue" stroke="midnightblue" points="131.019,-379.688 134.163,-369.571 125.396,-375.519 131.019,-379.688"/>
</g>
<!-- Node29&#45;&gt;Node4 -->
<g id="edge98" class="edge"><title>Node29&#45;&gt;Node4</title>
<path fill="none" stroke="midnightblue" d="M214.031,-464.222C208.688,-443.841 198,-398.182 198,-359 198,-359 198,-359 198,-185 198,-152.531 197.255,-137.021 222,-116 256.436,-86.747 388.388,-75.0301 454.208,-70.9305"/>
<polygon fill="midnightblue" stroke="midnightblue" points="454.783,-74.4026 464.558,-70.3149 454.367,-67.4149 454.783,-74.4026"/>
</g>
<!-- Node29&#45;&gt;Node7 -->
<g id="edge96" class="edge"><title>Node29&#45;&gt;Node7</title>
<path fill="none" stroke="midnightblue" d="M219.969,-464.222C225.312,-443.841 236,-398.182 236,-359 236,-359 236,-359 236,-185 236,-153.192 230.803,-136.646 255,-116 269.643,-103.506 540.783,-80.2057 641.093,-71.9739"/>
<polygon fill="midnightblue" stroke="midnightblue" points="641.676,-75.4381 651.357,-71.1354 641.106,-68.4614 641.676,-75.4381"/>
</g>
<!-- Node29&#45;&gt;Node27 -->
<g id="edge100" class="edge"><title>Node29&#45;&gt;Node27</title>
<path fill="none" stroke="midnightblue" d="M195.631,-464.497C177.201,-455.438 150.363,-442.246 129.645,-432.063"/>
<polygon fill="midnightblue" stroke="midnightblue" points="131.127,-428.891 120.609,-427.621 128.039,-435.174 131.127,-428.891"/>
</g>
<!-- Node30 -->
<g id="node81" class="node"><title>Node30</title>
<a xlink:href="matrix33_8h.html" target="_top" xlink:title="This file holds the header for the commonly used structure &#45; a 3 by 3 matrix.">
<polygon fill="none" stroke="black" points="987,-406.5 987,-427.5 1055,-427.5 1055,-406.5 987,-406.5"/>
<text text-anchor="middle" x="1021" y="-414.5" font-family="FreeSans.ttf" font-size="10.00">matrix33.h</text>
</a>
</g>
<!-- Node29&#45;&gt;Node30 -->
<g id="edge102" class="edge"><title>Node29&#45;&gt;Node30</title>
<path fill="none" stroke="midnightblue" d="M273.536,-470.922C425.421,-459.965 840.049,-430.054 976.68,-420.197"/>
<polygon fill="midnightblue" stroke="midnightblue" points="977.06,-423.679 986.783,-419.468 976.557,-416.697 977.06,-423.679"/>
</g>
<!-- Node30&#45;&gt;Node3 -->
<g id="edge104" class="edge"><title>Node30&#45;&gt;Node3</title>
<path fill="none" stroke="midnightblue" d="M1055.18,-412.351C1102.82,-405.23 1185.84,-390.284 1208,-370 1231.95,-348.079 1232,-333.469 1232,-301 1232,-301 1232,-301 1232,-243 1232,-209.175 1239.96,-170.523 1245.58,-147.474"/>
<polygon fill="midnightblue" stroke="midnightblue" points="1248.97,-148.331 1248.03,-137.778 1242.19,-146.616 1248.97,-148.331"/>
</g>
<!-- Node30&#45;&gt;Node13 -->
<g id="edge108" class="edge"><title>Node30&#45;&gt;Node13</title>
<path fill="none" stroke="midnightblue" d="M1009.63,-406.355C990.519,-387.235 954,-344.955 954,-301 954,-301 954,-301 954,-243 954,-203.255 923.303,-165.625 902.278,-144.512"/>
<polygon fill="midnightblue" stroke="midnightblue" points="904.663,-141.949 895.044,-137.508 899.794,-146.978 904.663,-141.949"/>
</g>
<!-- Node30&#45;&gt;Node14 -->
<g id="edge118" class="edge"><title>Node30&#45;&gt;Node14</title>
<path fill="none" stroke="midnightblue" d="M1021,-406.377C1021,-378.293 1021,-301.673 1021,-264.203"/>
<polygon fill="midnightblue" stroke="midnightblue" points="1024.5,-263.928 1021,-253.928 1017.5,-263.928 1024.5,-263.928"/>
</g>
<!-- Node30&#45;&gt;Node16 -->
<g id="edge106" class="edge"><title>Node30&#45;&gt;Node16</title>
<path fill="none" stroke="midnightblue" d="M1051.3,-406.44C1091.1,-390.405 1156,-355.85 1156,-301 1156,-301 1156,-301 1156,-243 1156,-208.853 1145.52,-170.296 1138.13,-147.354"/>
<polygon fill="midnightblue" stroke="midnightblue" points="1141.4,-146.083 1134.91,-137.709 1134.76,-148.302 1141.4,-146.083"/>
</g>
<!-- Node30&#45;&gt;Node19 -->
<g id="edge110" class="edge"><title>Node30&#45;&gt;Node19</title>
<path fill="none" stroke="midnightblue" d="M1055.18,-410.225C1105.6,-398.017 1194,-367.176 1194,-301 1194,-301 1194,-301 1194,-185 1194,-148.234 1172.26,-110.034 1157.17,-87.9415"/>
<polygon fill="midnightblue" stroke="midnightblue" points="1159.83,-85.6434 1151.19,-79.5108 1154.12,-89.6926 1159.83,-85.6434"/>
</g>
<!-- Node31 -->
<g id="node87" class="node"><title>Node31</title>
<a xlink:href="vector3d_8h.html" target="_top" xlink:title="A 3 component vector.">
<polygon fill="none" stroke="black" points="858,-348.5 858,-369.5 926,-369.5 926,-348.5 858,-348.5"/>
<text text-anchor="middle" x="892" y="-356.5" font-family="FreeSans.ttf" font-size="10.00">vector3d.h</text>
</a>
</g>
<!-- Node30&#45;&gt;Node31 -->
<g id="edge112" class="edge"><title>Node30&#45;&gt;Node31</title>
<path fill="none" stroke="midnightblue" d="M997.639,-406.497C977.309,-397.356 947.622,-384.008 924.891,-373.788"/>
<polygon fill="midnightblue" stroke="midnightblue" points="926.179,-370.53 915.623,-369.621 923.308,-376.914 926.179,-370.53"/>
</g>
<!-- Node31&#45;&gt;Node12 -->
<g id="edge116" class="edge"><title>Node31&#45;&gt;Node12</title>
<path fill="none" stroke="midnightblue" d="M885.03,-348.362C879.834,-340.431 872.599,-329.389 866.422,-319.961"/>
<polygon fill="midnightblue" stroke="midnightblue" points="869.334,-318.017 860.926,-311.571 863.478,-321.853 869.334,-318.017"/>
</g>
<!-- Node31&#45;&gt;Node13 -->
<g id="edge114" class="edge"><title>Node31&#45;&gt;Node13</title>
<path fill="none" stroke="midnightblue" d="M893.478,-348.199C894.701,-338.689 896.339,-324.455 897,-312 900.158,-252.47 891.432,-182.321 886.355,-148.022"/>
<polygon fill="midnightblue" stroke="midnightblue" points="889.768,-147.188 884.796,-137.832 882.849,-148.246 889.768,-147.188"/>
</g>
</g>
</svg>
        <g id="navigator" transform="translate(0 0)" fill="#404254">
                <rect fill="#f2f5e9" fill-opacity="0.5" stroke="#606060" stroke-width=".5" x="0" y="0" width="60" height="60"/>
                <use id="zoomplus" xlink:href="#zoomPlus" x="17" y="9" onmousedown="handleZoom(evt,'in')"/>
                <use id="zoomminus" xlink:href="#zoomMin" x="42" y="9" onmousedown="handleZoom(evt,'out')"/>
                <use id="reset" xlink:href="#resetDef" x="30" y="36" onmousedown="handleReset()"/>
                <g id="arrowUp" xlink:href="#dirArrow" transform="translate(30 24)" onmousedown="handlePan(0,-1)">
                  <use xlink:href="#rim" fill="#404040">
                        <set attributeName="fill" to="#808080" begin="arrowUp.mouseover" end="arrowUp.mouseout"/>
                  </use>
                  <path fill="none" stroke="white" stroke-width="1.5" d="M0,-3.0v7 M-2.5,-0.5L0,-3.0L2.5,-0.5"/>
                </g>
                <g id="arrowRight" xlink:href="#dirArrow" transform="rotate(90) translate(36 -43)" onmousedown="handlePan(1,0)">
                  <use xlink:href="#rim" fill="#404040">
                        <set attributeName="fill" to="#808080" begin="arrowRight.mouseover" end="arrowRight.mouseout"/>
                  </use>
                  <path fill="none" stroke="white" stroke-width="1.5" d="M0,-3.0v7 M-2.5,-0.5L0,-3.0L2.5,-0.5"/>
                </g>
                <g id="arrowDown" xlink:href="#dirArrow" transform="rotate(180) translate(-30 -48)" onmousedown="handlePan(0,1)">
                  <use xlink:href="#rim" fill="#404040">
                        <set attributeName="fill" to="#808080" begin="arrowDown.mouseover" end="arrowDown.mouseout"/>
                  </use>
                  <path fill="none" stroke="white" stroke-width="1.5" d="M0,-3.0v7 M-2.5,-0.5L0,-3.0L2.5,-0.5"/>
                </g>
                <g id="arrowLeft" xlink:href="#dirArrow" transform="rotate(270) translate(-36 17)" onmousedown="handlePan(-1,0)">
                  <use xlink:href="#rim" fill="#404040">
                        <set attributeName="fill" to="#808080" begin="arrowLeft.mouseover" end="arrowLeft.mouseout"/>
                  </use>
                  <path fill="none" stroke="white" stroke-width="1.5" d="M0,-3.0v7 M-2.5,-0.5L0,-3.0L2.5,-0.5"/>
                </g>
        </g>
</svg>
