<?xml version="1.0" encoding="UTF-8" standalone="no"?>
<!DOCTYPE svg PUBLIC "-//W3C//DTD SVG 1.1//EN"
 "http://www.w3.org/Graphics/SVG/1.1/DTD/svg11.dtd">
<!-- Generated by graphviz version 2.26.3 (20100126.1600)
 -->
<!-- Title: G Pages: 1 -->
<!--zoomable 378 -->
<svg id="main" version="1.1" xmlns="http://www.w3.org/2000/svg" xmlns:xlink="http://www.w3.org/1999/xlink" xml:space="preserve" onload="init(evt)">
        <defs>
                <circle id="rim" cx="0" cy="0" r="7"/>
                <circle id="rim2" cx="0" cy="0" r="3.5"/>
                <g id="zoomPlus">
                        <use xlink:href="#rim" fill="#404040">
                                <set attributeName="fill" to="#808080" begin="zoomplus.mouseover" end="zoomplus.mouseout"/>
                        </use>
                        <path d="M-4,0h8M0,-4v8" fill="none" stroke="white" stroke-width="1.5" pointer-events="none"/>
                </g>
                <g id="zoomMin">
                        <use xlink:href="#rim" fill="#404040">
                                <set attributeName="fill" to="#808080" begin="zoomminus.mouseover" end="zoomminus.mouseout"/>
                        </use>
                        <path d="M-4,0h8" fill="none" stroke="white" stroke-width="1.5" pointer-events="none"/>
                </g>
                <g id="dirArrow">
                        <path fill="none" stroke="white" stroke-width="1.5" d="M0,-3.0v7 M-2.5,-0.5L0,-3.0L2.5,-0.5"/>
                </g>
               <g id="resetDef">
                       <use xlink:href="#rim2" fill="#404040">
                               <set attributeName="fill" to="#808080" begin="reset.mouseover" end="reset.mouseout"/>
                       </use>
               </g>
        </defs>

<script type="text/javascript">
var viewWidth = 1312;
var viewHeight = 378;
var sectionId = 'dynsection-0';
</script>
<script xlink:href="svgpan.js"/>
<svg id="graph" class="graph">
<g id="viewport">
<title>G</title>
<!-- Node1 -->
<g id="node1" class="node"><title>Node1</title>
<polygon fill="#bfbfbf" stroke="black" points="659.266,-348.5 659.266,-369.5 844.266,-369.5 844.266,-348.5 659.266,-348.5"/>
<text text-anchor="middle" x="751.766" y="-356.5" font-family="FreeSans.ttf" font-size="10.00">utils/uis/advancedImageWidget.cpp</text>
</g>
<!-- Node2 -->
<g id="node3" class="node"><title>Node2</title>
<polygon fill="none" stroke="#bfbfbf" points="295.766,-290.5 295.766,-311.5 387.766,-311.5 387.766,-290.5 295.766,-290.5"/>
<text text-anchor="middle" x="341.766" y="-298.5" font-family="FreeSans.ttf" font-size="10.00">QtCore/QDebug</text>
</g>
<!-- Node1&#45;&gt;Node2 -->
<g id="edge2" class="edge"><title>Node1&#45;&gt;Node2</title>
<path fill="none" stroke="midnightblue" d="M659.576,-348.481C590.228,-340.175 492.638,-327.655 397.977,-312.124"/>
<polygon fill="midnightblue" stroke="midnightblue" points="398.376,-308.642 387.939,-310.464 397.234,-315.549 398.376,-308.642"/>
</g>
<!-- Node3 -->
<g id="node5" class="node"><title>Node3</title>
<polygon fill="none" stroke="#bfbfbf" points="405.266,-290.5 405.266,-311.5 492.266,-311.5 492.266,-290.5 405.266,-290.5"/>
<text text-anchor="middle" x="448.766" y="-298.5" font-family="FreeSans.ttf" font-size="10.00">QtGui/QPainter</text>
</g>
<!-- Node1&#45;&gt;Node3 -->
<g id="edge4" class="edge"><title>Node1&#45;&gt;Node3</title>
<path fill="none" stroke="midnightblue" d="M693.367,-348.464C644.736,-339.599 573.396,-326.385 502.449,-312.308"/>
<polygon fill="midnightblue" stroke="midnightblue" points="502.934,-308.836 492.443,-310.317 501.568,-315.702 502.934,-308.836"/>
</g>
<!-- Node4 -->
<g id="node7" class="node"><title>Node4</title>
<polygon fill="none" stroke="#bfbfbf" points="509.266,-290.5 509.266,-311.5 608.266,-311.5 608.266,-290.5 509.266,-290.5"/>
<text text-anchor="middle" x="558.766" y="-298.5" font-family="FreeSans.ttf" font-size="10.00">QtGui/QFileDialog</text>
</g>
<!-- Node1&#45;&gt;Node4 -->
<g id="edge6" class="edge"><title>Node1&#45;&gt;Node4</title>
<path fill="none" stroke="midnightblue" d="M716.815,-348.497C685.078,-338.959 638.098,-324.841 603.605,-314.475"/>
<polygon fill="midnightblue" stroke="midnightblue" points="604.367,-311.049 593.782,-311.523 602.352,-317.753 604.367,-311.049"/>
</g>
<!-- Node5 -->
<g id="node9" class="node"><title>Node5</title>
<polygon fill="none" stroke="#bfbfbf" points="625.266,-290.5 625.266,-311.5 738.266,-311.5 738.266,-290.5 625.266,-290.5"/>
<text text-anchor="middle" x="681.766" y="-298.5" font-family="FreeSans.ttf" font-size="10.00">QtGui/QMouseEvent</text>
</g>
<!-- Node1&#45;&gt;Node5 -->
<g id="edge8" class="edge"><title>Node1&#45;&gt;Node5</title>
<path fill="none" stroke="midnightblue" d="M738.927,-348.362C728.763,-339.941 714.365,-328.011 702.562,-318.231"/>
<polygon fill="midnightblue" stroke="midnightblue" points="704.457,-315.256 694.524,-311.571 699.991,-320.646 704.457,-315.256"/>
</g>
<!-- Node6 -->
<g id="node11" class="node"><title>Node6</title>
<a xlink:href="global_8h.html" target="_top" xlink:title="This file holds the global includes, mostly for debuging, tracing and profiling.">
<polygon fill="none" stroke="black" points="878.766,-58.5 878.766,-79.5 932.766,-79.5 932.766,-58.5 878.766,-58.5"/>
<text text-anchor="middle" x="905.766" y="-66.5" font-family="FreeSans.ttf" font-size="10.00">global.h</text>
</a>
</g>
<!-- Node1&#45;&gt;Node6 -->
<g id="edge10" class="edge"><title>Node1&#45;&gt;Node6</title>
<path fill="none" stroke="midnightblue" d="M844.596,-354.549C956.486,-348.271 1137.39,-334.94 1200.77,-312 1252.58,-293.248 1303.77,-298.1 1303.77,-243 1303.77,-243 1303.77,-243 1303.77,-185 1303.77,-110.263 1041.82,-80.4437 942.948,-71.8499"/>
<polygon fill="midnightblue" stroke="midnightblue" points="943.068,-68.3477 932.809,-70.9939 942.479,-75.3229 943.068,-68.3477"/>
</g>
<!-- Node8 -->
<g id="node15" class="node"><title>Node8</title>
<a xlink:href="advancedImageWidget_8h.html" target="_top" xlink:title="advancedImageWidget.h">
<polygon fill="none" stroke="black" points="755.766,-290.5 755.766,-311.5 889.766,-311.5 889.766,-290.5 755.766,-290.5"/>
<text text-anchor="middle" x="822.766" y="-298.5" font-family="FreeSans.ttf" font-size="10.00">advancedImageWidget.h</text>
</a>
</g>
<!-- Node1&#45;&gt;Node8 -->
<g id="edge14" class="edge"><title>Node1&#45;&gt;Node8</title>
<path fill="none" stroke="midnightblue" d="M764.788,-348.362C775.197,-339.859 789.985,-327.779 802.021,-317.947"/>
<polygon fill="midnightblue" stroke="midnightblue" points="804.296,-320.608 809.826,-311.571 799.867,-315.187 804.296,-320.608"/>
</g>
<!-- Node14 -->
<g id="node28" class="node"><title>Node14</title>
<a xlink:href="saveFlowSettings_8h.html" target="_top" xlink:title="saveFlowSettings.h">
<polygon fill="none" stroke="black" points="907.766,-232.5 907.766,-253.5 1015.77,-253.5 1015.77,-232.5 907.766,-232.5"/>
<text text-anchor="middle" x="961.766" y="-240.5" font-family="FreeSans.ttf" font-size="10.00">saveFlowSettings.h</text>
</a>
</g>
<!-- Node1&#45;&gt;Node14 -->
<g id="edge96" class="edge"><title>Node1&#45;&gt;Node14</title>
<path fill="none" stroke="midnightblue" d="M807.458,-348.439C836.289,-341.239 871.135,-329.716 898.766,-312 919.199,-298.899 937.269,-277.54 948.758,-262.052"/>
<polygon fill="midnightblue" stroke="midnightblue" points="951.75,-263.886 954.73,-253.718 946.06,-259.808 951.75,-263.886"/>
</g>
<!-- Node34 -->
<g id="node83" class="node"><title>Node34</title>
<a xlink:href="mathUtils_8h.html" target="_top" xlink:title="Add Comment Here.">
<polygon fill="none" stroke="black" points="1119.77,-290.5 1119.77,-311.5 1191.77,-311.5 1191.77,-290.5 1119.77,-290.5"/>
<text text-anchor="middle" x="1155.77" y="-298.5" font-family="FreeSans.ttf" font-size="10.00">mathUtils.h</text>
</a>
</g>
<!-- Node1&#45;&gt;Node34 -->
<g id="edge98" class="edge"><title>Node1&#45;&gt;Node34</title>
<path fill="none" stroke="midnightblue" d="M824.927,-348.497C907.656,-336.62 1039.87,-317.639 1109.46,-307.648"/>
<polygon fill="midnightblue" stroke="midnightblue" points="1110.27,-311.068 1119.67,-306.182 1109.27,-304.139 1110.27,-311.068"/>
</g>
<!-- Node7 -->
<g id="node13" class="node"><title>Node7</title>
<polygon fill="none" stroke="#bfbfbf" points="873.766,-0.5 873.766,-21.5 937.766,-21.5 937.766,-0.5 873.766,-0.5"/>
<text text-anchor="middle" x="905.766" y="-8.5" font-family="FreeSans.ttf" font-size="10.00">inttypes.h</text>
</g>
<!-- Node6&#45;&gt;Node7 -->
<g id="edge12" class="edge"><title>Node6&#45;&gt;Node7</title>
<path fill="none" stroke="midnightblue" d="M905.766,-58.3619C905.766,-50.9219 905.766,-40.7427 905.766,-31.7276"/>
<polygon fill="midnightblue" stroke="midnightblue" points="909.266,-31.5706 905.766,-21.5707 902.266,-31.5707 909.266,-31.5706"/>
</g>
<!-- Node9 -->
<g id="node17" class="node"><title>Node9</title>
<polygon fill="none" stroke="#bfbfbf" points="188.266,-58.5 188.266,-79.5 235.266,-79.5 235.266,-58.5 188.266,-58.5"/>
<text text-anchor="middle" x="211.766" y="-66.5" font-family="FreeSans.ttf" font-size="10.00">vector</text>
</g>
<!-- Node8&#45;&gt;Node9 -->
<g id="edge16" class="edge"><title>Node8&#45;&gt;Node9</title>
<path fill="none" stroke="midnightblue" d="M755.659,-291.048C752.656,-290.678 749.681,-290.326 746.766,-290 584.22,-271.797 119.891,-322.955 16.7659,-196 -5.65182,-168.402 -5.50018,-143.72 16.7659,-116 61.2301,-60.644 104.468,-96.672 178.004,-80.0437"/>
<polygon fill="midnightblue" stroke="midnightblue" points="179.269,-83.3334 188.095,-77.4725 177.54,-76.5501 179.269,-83.3334"/>
</g>
<!-- Node10 -->
<g id="node19" class="node"><title>Node10</title>
<polygon fill="none" stroke="#bfbfbf" points="875.766,-174.5 875.766,-195.5 961.766,-195.5 961.766,-174.5 875.766,-174.5"/>
<text text-anchor="middle" x="918.766" y="-182.5" font-family="FreeSans.ttf" font-size="10.00">QtGui/QWidget</text>
</g>
<!-- Node8&#45;&gt;Node10 -->
<g id="edge18" class="edge"><title>Node8&#45;&gt;Node10</title>
<path fill="none" stroke="midnightblue" d="M831.625,-290.295C847.985,-270.527 883.113,-228.08 903.419,-203.544"/>
<polygon fill="midnightblue" stroke="midnightblue" points="906.249,-205.615 909.928,-195.679 900.856,-201.152 906.249,-205.615"/>
</g>
<!-- Node11 -->
<g id="node21" class="node"><title>Node11</title>
<polygon fill="none" stroke="#bfbfbf" points="665.766,-174.5 665.766,-195.5 739.766,-195.5 739.766,-174.5 665.766,-174.5"/>
<text text-anchor="middle" x="702.766" y="-182.5" font-family="FreeSans.ttf" font-size="10.00">QtGui/QtGui</text>
</g>
<!-- Node8&#45;&gt;Node11 -->
<g id="edge20" class="edge"><title>Node8&#45;&gt;Node11</title>
<path fill="none" stroke="midnightblue" d="M804.263,-290.461C789.874,-281.755 769.882,-268.509 754.766,-254 739.142,-239.004 724.602,-218.977 714.892,-204.362"/>
<polygon fill="midnightblue" stroke="midnightblue" points="717.621,-202.137 709.246,-195.648 711.746,-205.943 717.621,-202.137"/>
</g>
<!-- Node12 -->
<g id="node23" class="node"><title>Node12</title>
<a xlink:href="viAreaWidget_8h.html" target="_top" xlink:title="viAreaWidget.h">
<polygon fill="none" stroke="black" points="763.766,-232.5 763.766,-253.5 851.766,-253.5 851.766,-232.5 763.766,-232.5"/>
<text text-anchor="middle" x="807.766" y="-240.5" font-family="FreeSans.ttf" font-size="10.00">viAreaWidget.h</text>
</a>
</g>
<!-- Node8&#45;&gt;Node12 -->
<g id="edge22" class="edge"><title>Node8&#45;&gt;Node12</title>
<path fill="none" stroke="midnightblue" d="M820.015,-290.362C818.069,-282.84 815.4,-272.519 813.05,-263.431"/>
<polygon fill="midnightblue" stroke="midnightblue" points="816.392,-262.376 810.5,-253.571 809.615,-264.128 816.392,-262.376"/>
</g>
<!-- Node8&#45;&gt;Node14 -->
<g id="edge28" class="edge"><title>Node8&#45;&gt;Node14</title>
<path fill="none" stroke="midnightblue" d="M847.938,-290.497C870.039,-281.275 902.405,-267.769 926.979,-257.515"/>
<polygon fill="midnightblue" stroke="midnightblue" points="928.431,-260.702 936.312,-253.621 925.735,-254.242 928.431,-260.702"/>
</g>
<!-- Node16 -->
<g id="node33" class="node"><title>Node16</title>
<polygon fill="none" stroke="#bfbfbf" points="302.766,-232.5 302.766,-253.5 450.766,-253.5 450.766,-232.5 302.766,-232.5"/>
<text text-anchor="middle" x="376.766" y="-240.5" font-family="FreeSans.ttf" font-size="10.00">ui_advancedImageWidget.h</text>
</g>
<!-- Node8&#45;&gt;Node16 -->
<g id="edge34" class="edge"><title>Node8&#45;&gt;Node16</title>
<path fill="none" stroke="midnightblue" d="M755.639,-291.214C752.641,-290.799 749.673,-290.393 746.766,-290 622.602,-273.229 588.957,-270.574 461.158,-254.171"/>
<polygon fill="midnightblue" stroke="midnightblue" points="461.339,-250.666 450.974,-252.861 460.446,-257.609 461.339,-250.666"/>
</g>
<!-- Node17 -->
<g id="node35" class="node"><title>Node17</title>
<a xlink:href="parametersControlWidgetBase_8h.html" target="_top" xlink:title="parametersControlWidgetBase.h">
<polygon fill="none" stroke="black" points="468.266,-232.5 468.266,-253.5 641.266,-253.5 641.266,-232.5 468.266,-232.5"/>
<text text-anchor="middle" x="554.766" y="-240.5" font-family="FreeSans.ttf" font-size="10.00">parametersControlWidgetBase.h</text>
</a>
</g>
<!-- Node8&#45;&gt;Node17 -->
<g id="edge36" class="edge"><title>Node8&#45;&gt;Node17</title>
<path fill="none" stroke="midnightblue" d="M774.233,-290.497C729.029,-280.714 661.553,-266.111 613.365,-255.682"/>
<polygon fill="midnightblue" stroke="midnightblue" points="613.904,-252.218 603.39,-253.523 612.423,-259.059 613.904,-252.218"/>
</g>
<!-- Node12&#45;&gt;Node10 -->
<g id="edge24" class="edge"><title>Node12&#45;&gt;Node10</title>
<path fill="none" stroke="midnightblue" d="M827.867,-232.497C845.048,-223.519 869.996,-210.484 889.411,-200.339"/>
<polygon fill="midnightblue" stroke="midnightblue" points="891.197,-203.354 898.439,-195.621 887.955,-197.15 891.197,-203.354"/>
</g>
<!-- Node13 -->
<g id="node26" class="node"><title>Node13</title>
<polygon fill="none" stroke="#bfbfbf" points="757.266,-174.5 757.266,-195.5 858.266,-195.5 858.266,-174.5 757.266,-174.5"/>
<text text-anchor="middle" x="807.766" y="-182.5" font-family="FreeSans.ttf" font-size="10.00">ui_viAreaWidget.h</text>
</g>
<!-- Node12&#45;&gt;Node13 -->
<g id="edge26" class="edge"><title>Node12&#45;&gt;Node13</title>
<path fill="none" stroke="midnightblue" d="M807.766,-232.362C807.766,-224.922 807.766,-214.743 807.766,-205.728"/>
<polygon fill="midnightblue" stroke="midnightblue" points="811.266,-205.571 807.766,-195.571 804.266,-205.571 811.266,-205.571"/>
</g>
<!-- Node14&#45;&gt;Node10 -->
<g id="edge30" class="edge"><title>Node14&#45;&gt;Node10</title>
<path fill="none" stroke="midnightblue" d="M953.879,-232.362C947.939,-224.35 939.644,-213.161 932.607,-203.67"/>
<polygon fill="midnightblue" stroke="midnightblue" points="935.37,-201.519 926.603,-195.571 929.747,-205.688 935.37,-201.519"/>
</g>
<!-- Node15 -->
<g id="node31" class="node"><title>Node15</title>
<polygon fill="none" stroke="#bfbfbf" points="979.766,-174.5 979.766,-195.5 1101.77,-195.5 1101.77,-174.5 979.766,-174.5"/>
<text text-anchor="middle" x="1040.77" y="-182.5" font-family="FreeSans.ttf" font-size="10.00">ui_saveFlowSettings.h</text>
</g>
<!-- Node14&#45;&gt;Node15 -->
<g id="edge32" class="edge"><title>Node14&#45;&gt;Node15</title>
<path fill="none" stroke="midnightblue" d="M976.256,-232.362C987.949,-223.777 1004.61,-211.546 1018.07,-201.664"/>
<polygon fill="midnightblue" stroke="midnightblue" points="1020.38,-204.31 1026.37,-195.571 1016.24,-198.667 1020.38,-204.31"/>
</g>
<!-- Node17&#45;&gt;Node6 -->
<g id="edge40" class="edge"><title>Node17&#45;&gt;Node6</title>
<path fill="none" stroke="midnightblue" d="M568.408,-232.497C587.475,-218.119 623.501,-192.04 656.766,-174 729.11,-134.768 819.222,-100.001 868.785,-82.0005"/>
<polygon fill="midnightblue" stroke="midnightblue" points="870.212,-85.2067 878.432,-78.5229 867.838,-78.6215 870.212,-85.2067"/>
</g>
<!-- Node17&#45;&gt;Node11 -->
<g id="edge38" class="edge"><title>Node17&#45;&gt;Node11</title>
<path fill="none" stroke="midnightblue" d="M581.568,-232.497C605.204,-223.234 639.866,-209.65 666.074,-199.379"/>
<polygon fill="midnightblue" stroke="midnightblue" points="667.63,-202.529 675.663,-195.621 665.076,-196.011 667.63,-202.529"/>
</g>
<!-- Node18 -->
<g id="node39" class="node"><title>Node18</title>
<a xlink:href="reflection_8h.html" target="_top" xlink:title="a header for Reflection.c">
<polygon fill="none" stroke="black" points="341.766,-116.5 341.766,-137.5 411.766,-137.5 411.766,-116.5 341.766,-116.5"/>
<text text-anchor="middle" x="376.766" y="-124.5" font-family="FreeSans.ttf" font-size="10.00">reflection.h</text>
</a>
</g>
<!-- Node17&#45;&gt;Node18 -->
<g id="edge42" class="edge"><title>Node17&#45;&gt;Node18</title>
<path fill="none" stroke="midnightblue" d="M539.345,-232.28C519.483,-218.54 483.819,-194.093 452.766,-174 436.371,-163.391 417.724,-151.852 403.004,-142.862"/>
<polygon fill="midnightblue" stroke="midnightblue" points="404.763,-139.836 394.401,-137.625 401.123,-145.815 404.763,-139.836"/>
</g>
<!-- Node24 -->
<g id="node53" class="node"><title>Node24</title>
<a xlink:href="qSettingsSetter_8h.html" target="_top" xlink:title="visitors/qSettingsSetter.h">
<polygon fill="none" stroke="black" points="25.2659,-174.5 25.2659,-195.5 162.266,-195.5 162.266,-174.5 25.2659,-174.5"/>
<text text-anchor="middle" x="93.7659" y="-182.5" font-family="FreeSans.ttf" font-size="10.00">visitors/qSettingsSetter.h</text>
</a>
</g>
<!-- Node17&#45;&gt;Node24 -->
<g id="edge58" class="edge"><title>Node17&#45;&gt;Node24</title>
<path fill="none" stroke="midnightblue" d="M468.154,-232.903C392.642,-223.983 279.879,-210.385 172.63,-196.231"/>
<polygon fill="midnightblue" stroke="midnightblue" points="172.976,-192.746 162.603,-194.904 172.058,-199.686 172.976,-192.746"/>
</g>
<!-- Node28 -->
<g id="node63" class="node"><title>Node28</title>
<a xlink:href="xmlSetter_8h.html" target="_top" xlink:title="visitors/xmlSetter.h">
<polygon fill="none" stroke="black" points="335.266,-174.5 335.266,-195.5 444.266,-195.5 444.266,-174.5 335.266,-174.5"/>
<text text-anchor="middle" x="389.766" y="-182.5" font-family="FreeSans.ttf" font-size="10.00">visitors/xmlSetter.h</text>
</a>
</g>
<!-- Node17&#45;&gt;Node28 -->
<g id="edge70" class="edge"><title>Node17&#45;&gt;Node28</title>
<path fill="none" stroke="midnightblue" d="M524.886,-232.497C498.103,-223.082 458.621,-209.204 429.244,-198.877"/>
<polygon fill="midnightblue" stroke="midnightblue" points="430.297,-195.537 419.702,-195.523 427.976,-202.141 430.297,-195.537"/>
</g>
<!-- Node30 -->
<g id="node69" class="node"><title>Node30</title>
<a xlink:href="qSettingsGetter_8h.html" target="_top" xlink:title="visitors/qSettingsGetter.h">
<polygon fill="none" stroke="black" points="179.766,-174.5 179.766,-195.5 317.766,-195.5 317.766,-174.5 179.766,-174.5"/>
<text text-anchor="middle" x="248.766" y="-182.5" font-family="FreeSans.ttf" font-size="10.00">visitors/qSettingsGetter.h</text>
</a>
</g>
<!-- Node17&#45;&gt;Node30 -->
<g id="edge78" class="edge"><title>Node17&#45;&gt;Node30</title>
<path fill="none" stroke="midnightblue" d="M499.352,-232.497C447.306,-222.632 369.403,-207.866 314.297,-197.421"/>
<polygon fill="midnightblue" stroke="midnightblue" points="314.761,-193.947 304.284,-195.523 313.457,-200.824 314.761,-193.947"/>
</g>
<!-- Node32 -->
<g id="node75" class="node"><title>Node32</title>
<a xlink:href="xmlGetter_8h.html" target="_top" xlink:title="visitors/xmlGetter.h">
<polygon fill="none" stroke="black" points="499.766,-174.5 499.766,-195.5 609.766,-195.5 609.766,-174.5 499.766,-174.5"/>
<text text-anchor="middle" x="554.766" y="-182.5" font-family="FreeSans.ttf" font-size="10.00">visitors/xmlGetter.h</text>
</a>
</g>
<!-- Node17&#45;&gt;Node32 -->
<g id="edge86" class="edge"><title>Node17&#45;&gt;Node32</title>
<path fill="none" stroke="midnightblue" d="M554.766,-232.362C554.766,-224.922 554.766,-214.743 554.766,-205.728"/>
<polygon fill="midnightblue" stroke="midnightblue" points="558.266,-205.571 554.766,-195.571 551.266,-205.571 558.266,-205.571"/>
</g>
<!-- Node18&#45;&gt;Node6 -->
<g id="edge56" class="edge"><title>Node18&#45;&gt;Node6</title>
<path fill="none" stroke="midnightblue" d="M412.211,-117.659C415.095,-117.046 417.973,-116.482 420.766,-116 586.315,-87.4473 786.869,-74.9106 868.502,-70.7233"/>
<polygon fill="midnightblue" stroke="midnightblue" points="868.952,-74.2053 878.765,-70.2091 868.602,-67.214 868.952,-74.2053"/>
</g>
<!-- Node18&#45;&gt;Node9 -->
<g id="edge44" class="edge"><title>Node18&#45;&gt;Node9</title>
<path fill="none" stroke="midnightblue" d="M346.886,-116.497C318.1,-106.378 274.646,-91.1034 244.834,-80.624"/>
<polygon fill="midnightblue" stroke="midnightblue" points="245.883,-77.2827 235.288,-77.2683 243.561,-83.8866 245.883,-77.2827"/>
</g>
<!-- Node19 -->
<g id="node42" class="node"><title>Node19</title>
<polygon fill="none" stroke="#bfbfbf" points="252.766,-58.5 252.766,-79.5 296.766,-79.5 296.766,-58.5 252.766,-58.5"/>
<text text-anchor="middle" x="274.766" y="-66.5" font-family="FreeSans.ttf" font-size="10.00">string</text>
</g>
<!-- Node18&#45;&gt;Node19 -->
<g id="edge46" class="edge"><title>Node18&#45;&gt;Node19</title>
<path fill="none" stroke="midnightblue" d="M358.058,-116.362C342.385,-107.45 319.802,-94.6087 302.103,-84.5447"/>
<polygon fill="midnightblue" stroke="midnightblue" points="303.779,-81.4712 293.356,-79.5707 300.319,-87.5562 303.779,-81.4712"/>
</g>
<!-- Node20 -->
<g id="node44" class="node"><title>Node20</title>
<polygon fill="none" stroke="#bfbfbf" points="388.266,-58.5 388.266,-79.5 441.266,-79.5 441.266,-58.5 388.266,-58.5"/>
<text text-anchor="middle" x="414.766" y="-66.5" font-family="FreeSans.ttf" font-size="10.00">string.h</text>
</g>
<!-- Node18&#45;&gt;Node20 -->
<g id="edge48" class="edge"><title>Node18&#45;&gt;Node20</title>
<path fill="none" stroke="midnightblue" d="M383.736,-116.362C388.932,-108.431 396.167,-97.3885 402.343,-87.9606"/>
<polygon fill="midnightblue" stroke="midnightblue" points="405.288,-89.8534 407.84,-79.5707 399.432,-86.0172 405.288,-89.8534"/>
</g>
<!-- Node21 -->
<g id="node46" class="node"><title>Node21</title>
<polygon fill="none" stroke="#bfbfbf" points="458.266,-58.5 458.266,-79.5 507.266,-79.5 507.266,-58.5 458.266,-58.5"/>
<text text-anchor="middle" x="482.766" y="-66.5" font-family="FreeSans.ttf" font-size="10.00">stdio.h</text>
</g>
<!-- Node18&#45;&gt;Node21 -->
<g id="edge50" class="edge"><title>Node18&#45;&gt;Node21</title>
<path fill="none" stroke="midnightblue" d="M396.208,-116.362C412.569,-107.409 436.179,-94.4908 454.609,-84.4064"/>
<polygon fill="midnightblue" stroke="midnightblue" points="456.355,-87.4412 463.447,-79.5707 452.994,-81.3004 456.355,-87.4412"/>
</g>
<!-- Node22 -->
<g id="node48" class="node"><title>Node22</title>
<polygon fill="none" stroke="#bfbfbf" points="524.266,-58.5 524.266,-79.5 577.266,-79.5 577.266,-58.5 524.266,-58.5"/>
<text text-anchor="middle" x="550.766" y="-66.5" font-family="FreeSans.ttf" font-size="10.00">stdint.h</text>
</g>
<!-- Node18&#45;&gt;Node22 -->
<g id="edge52" class="edge"><title>Node18&#45;&gt;Node22</title>
<path fill="none" stroke="midnightblue" d="M408.276,-116.497C438.145,-106.54 482.99,-91.5918 514.371,-81.1316"/>
<polygon fill="midnightblue" stroke="midnightblue" points="515.67,-84.3879 524.05,-77.9052 513.457,-77.7472 515.67,-84.3879"/>
</g>
<!-- Node23 -->
<g id="node50" class="node"><title>Node23</title>
<polygon fill="none" stroke="#bfbfbf" points="314.766,-58.5 314.766,-79.5 370.766,-79.5 370.766,-58.5 314.766,-58.5"/>
<text text-anchor="middle" x="342.766" y="-66.5" font-family="FreeSans.ttf" font-size="10.00">stdarg.h</text>
</g>
<!-- Node18&#45;&gt;Node23 -->
<g id="edge54" class="edge"><title>Node18&#45;&gt;Node23</title>
<path fill="none" stroke="midnightblue" d="M370.53,-116.362C365.929,-108.513 359.541,-97.6159 354.052,-88.2527"/>
<polygon fill="midnightblue" stroke="midnightblue" points="357.039,-86.4276 348.963,-79.5707 351,-89.9677 357.039,-86.4276"/>
</g>
<!-- Node24&#45;&gt;Node18 -->
<g id="edge68" class="edge"><title>Node24&#45;&gt;Node18</title>
<path fill="none" stroke="midnightblue" d="M151.892,-174.424C198.122,-165.818 264.675,-152.996 331.829,-138.134"/>
<polygon fill="midnightblue" stroke="midnightblue" points="332.74,-141.517 341.74,-135.927 331.218,-134.685 332.74,-141.517"/>
</g>
<!-- Node25 -->
<g id="node55" class="node"><title>Node25</title>
<polygon fill="none" stroke="#bfbfbf" points="25.2659,-116.5 25.2659,-137.5 126.266,-137.5 126.266,-116.5 25.2659,-116.5"/>
<text text-anchor="middle" x="75.7659" y="-124.5" font-family="FreeSans.ttf" font-size="10.00">QtCore/QSettings</text>
</g>
<!-- Node24&#45;&gt;Node25 -->
<g id="edge60" class="edge"><title>Node24&#45;&gt;Node25</title>
<path fill="none" stroke="midnightblue" d="M90.4644,-174.362C88.1047,-166.758 84.8572,-156.294 82.0147,-147.135"/>
<polygon fill="midnightblue" stroke="midnightblue" points="85.3533,-146.084 79.0465,-137.571 78.6678,-148.159 85.3533,-146.084"/>
</g>
<!-- Node26 -->
<g id="node57" class="node"><title>Node26</title>
<a xlink:href="basePathVisitor_8h.html" target="_top" xlink:title="Add Comment Here.">
<polygon fill="none" stroke="black" points="225.266,-116.5 225.266,-137.5 324.266,-137.5 324.266,-116.5 225.266,-116.5"/>
<text text-anchor="middle" x="274.766" y="-124.5" font-family="FreeSans.ttf" font-size="10.00">basePathVisitor.h</text>
</a>
</g>
<!-- Node24&#45;&gt;Node26 -->
<g id="edge62" class="edge"><title>Node24&#45;&gt;Node26</title>
<path fill="none" stroke="midnightblue" d="M126.544,-174.497C156.179,-165 199.988,-150.962 232.297,-140.609"/>
<polygon fill="midnightblue" stroke="midnightblue" points="233.472,-143.908 241.927,-137.523 231.336,-137.242 233.472,-143.908"/>
</g>
<!-- Node26&#45;&gt;Node19 -->
<g id="edge66" class="edge"><title>Node26&#45;&gt;Node19</title>
<path fill="none" stroke="midnightblue" d="M274.766,-116.362C274.766,-108.922 274.766,-98.7427 274.766,-89.7276"/>
<polygon fill="midnightblue" stroke="midnightblue" points="278.266,-89.5706 274.766,-79.5707 271.266,-89.5707 278.266,-89.5706"/>
</g>
<!-- Node27 -->
<g id="node59" class="node"><title>Node27</title>
<polygon fill="none" stroke="#bfbfbf" points="124.266,-58.5 124.266,-79.5 171.266,-79.5 171.266,-58.5 124.266,-58.5"/>
<text text-anchor="middle" x="147.766" y="-66.5" font-family="FreeSans.ttf" font-size="10.00">deque</text>
</g>
<!-- Node26&#45;&gt;Node27 -->
<g id="edge64" class="edge"><title>Node26&#45;&gt;Node27</title>
<path fill="none" stroke="midnightblue" d="M251.767,-116.497C231.753,-107.356 202.525,-94.0082 180.147,-83.7883"/>
<polygon fill="midnightblue" stroke="midnightblue" points="181.573,-80.5918 171.023,-79.6212 178.665,-86.9592 181.573,-80.5918"/>
</g>
<!-- Node28&#45;&gt;Node18 -->
<g id="edge76" class="edge"><title>Node28&#45;&gt;Node18</title>
<path fill="none" stroke="midnightblue" d="M387.382,-174.362C385.696,-166.84 383.382,-156.519 381.345,-147.431"/>
<polygon fill="midnightblue" stroke="midnightblue" points="384.738,-146.563 379.135,-137.571 377.907,-148.094 384.738,-146.563"/>
</g>
<!-- Node28&#45;&gt;Node26 -->
<g id="edge74" class="edge"><title>Node28&#45;&gt;Node26</title>
<path fill="none" stroke="midnightblue" d="M368.94,-174.497C351.06,-165.479 325.058,-152.365 304.905,-142.201"/>
<polygon fill="midnightblue" stroke="midnightblue" points="306.33,-138.999 295.825,-137.621 303.178,-145.249 306.33,-138.999"/>
</g>
<!-- Node29 -->
<g id="node65" class="node"><title>Node29</title>
<polygon fill="none" stroke="#bfbfbf" points="429.266,-116.5 429.266,-137.5 518.266,-137.5 518.266,-116.5 429.266,-116.5"/>
<text text-anchor="middle" x="473.766" y="-124.5" font-family="FreeSans.ttf" font-size="10.00">QtCore/QString</text>
</g>
<!-- Node28&#45;&gt;Node29 -->
<g id="edge72" class="edge"><title>Node28&#45;&gt;Node29</title>
<path fill="none" stroke="midnightblue" d="M405.173,-174.362C417.724,-165.696 435.658,-153.313 450.04,-143.382"/>
<polygon fill="midnightblue" stroke="midnightblue" points="452.216,-146.133 458.457,-137.571 448.239,-140.372 452.216,-146.133"/>
</g>
<!-- Node30&#45;&gt;Node18 -->
<g id="edge84" class="edge"><title>Node30&#45;&gt;Node18</title>
<path fill="none" stroke="midnightblue" d="M271.946,-174.497C292.118,-165.356 321.576,-152.008 344.13,-141.788"/>
<polygon fill="midnightblue" stroke="midnightblue" points="345.662,-144.937 353.326,-137.621 342.773,-138.561 345.662,-144.937"/>
</g>
<!-- Node30&#45;&gt;Node26 -->
<g id="edge82" class="edge"><title>Node30&#45;&gt;Node26</title>
<path fill="none" stroke="midnightblue" d="M253.535,-174.362C256.98,-166.677 261.735,-156.069 265.872,-146.84"/>
<polygon fill="midnightblue" stroke="midnightblue" points="269.131,-148.127 270.027,-137.571 262.743,-145.264 269.131,-148.127"/>
</g>
<!-- Node31 -->
<g id="node71" class="node"><title>Node31</title>
<polygon fill="none" stroke="#bfbfbf" points="143.766,-116.5 143.766,-137.5 207.766,-137.5 207.766,-116.5 143.766,-116.5"/>
<text text-anchor="middle" x="175.766" y="-124.5" font-family="FreeSans.ttf" font-size="10.00">QSettings</text>
</g>
<!-- Node30&#45;&gt;Node31 -->
<g id="edge80" class="edge"><title>Node30&#45;&gt;Node31</title>
<path fill="none" stroke="midnightblue" d="M235.377,-174.362C224.675,-165.859 209.47,-153.779 197.095,-143.947"/>
<polygon fill="midnightblue" stroke="midnightblue" points="199.077,-141.051 189.07,-137.571 194.723,-146.532 199.077,-141.051"/>
</g>
<!-- Node32&#45;&gt;Node18 -->
<g id="edge92" class="edge"><title>Node32&#45;&gt;Node18</title>
<path fill="none" stroke="midnightblue" d="M522.531,-174.497C493.513,-165.041 450.675,-151.083 418.942,-140.743"/>
<polygon fill="midnightblue" stroke="midnightblue" points="419.653,-137.293 409.061,-137.523 417.484,-143.949 419.653,-137.293"/>
</g>
<!-- Node32&#45;&gt;Node26 -->
<g id="edge94" class="edge"><title>Node32&#45;&gt;Node26</title>
<path fill="none" stroke="midnightblue" d="M504.06,-174.497C456.338,-164.611 384.86,-149.805 334.418,-139.357"/>
<polygon fill="midnightblue" stroke="midnightblue" points="335.126,-135.929 324.624,-137.328 333.706,-142.783 335.126,-135.929"/>
</g>
<!-- Node32&#45;&gt;Node29 -->
<g id="edge88" class="edge"><title>Node32&#45;&gt;Node29</title>
<path fill="none" stroke="midnightblue" d="M539.909,-174.362C527.92,-165.777 510.839,-153.546 497.037,-143.664"/>
<polygon fill="midnightblue" stroke="midnightblue" points="498.697,-140.547 488.528,-137.571 494.621,-146.238 498.697,-140.547"/>
</g>
<!-- Node33 -->
<g id="node78" class="node"><title>Node33</title>
<polygon fill="none" stroke="#bfbfbf" points="535.266,-116.5 535.266,-137.5 654.266,-137.5 654.266,-116.5 535.266,-116.5"/>
<text text-anchor="middle" x="594.766" y="-124.5" font-family="FreeSans.ttf" font-size="10.00">QtXml/QDomElement</text>
</g>
<!-- Node32&#45;&gt;Node33 -->
<g id="edge90" class="edge"><title>Node32&#45;&gt;Node33</title>
<path fill="none" stroke="midnightblue" d="M562.103,-174.362C567.572,-166.431 575.188,-155.389 581.69,-145.961"/>
<polygon fill="midnightblue" stroke="midnightblue" points="584.68,-147.79 587.476,-137.571 578.917,-143.816 584.68,-147.79"/>
</g>
<!-- Node34&#45;&gt;Node6 -->
<g id="edge102" class="edge"><title>Node34&#45;&gt;Node6</title>
<path fill="none" stroke="midnightblue" d="M1154.67,-290.481C1151.71,-266.916 1141.58,-209.204 1110.77,-174 1065.47,-122.249 988.505,-92.6407 942.871,-78.7815"/>
<polygon fill="midnightblue" stroke="midnightblue" points="943.663,-75.3663 933.082,-75.9045 941.689,-82.0822 943.663,-75.3663"/>
</g>
<!-- Node35 -->
<g id="node85" class="node"><title>Node35</title>
<polygon fill="none" stroke="#bfbfbf" points="1225.27,-232.5 1225.27,-253.5 1276.27,-253.5 1276.27,-232.5 1225.27,-232.5"/>
<text text-anchor="middle" x="1250.77" y="-240.5" font-family="FreeSans.ttf" font-size="10.00">math.h</text>
</g>
<!-- Node34&#45;&gt;Node35 -->
<g id="edge100" class="edge"><title>Node34&#45;&gt;Node35</title>
<path fill="none" stroke="midnightblue" d="M1173.19,-290.362C1187.65,-281.532 1208.44,-268.844 1224.85,-258.822"/>
<polygon fill="midnightblue" stroke="midnightblue" points="1226.74,-261.769 1233.45,-253.571 1223.09,-255.794 1226.74,-261.769"/>
</g>
<!-- Node36 -->
<g id="node88" class="node"><title>Node36</title>
<polygon fill="none" stroke="#bfbfbf" points="1157.27,-232.5 1157.27,-253.5 1208.27,-253.5 1208.27,-232.5 1157.27,-232.5"/>
<text text-anchor="middle" x="1182.77" y="-240.5" font-family="FreeSans.ttf" font-size="10.00">stdlib.h</text>
</g>
<!-- Node34&#45;&gt;Node36 -->
<g id="edge104" class="edge"><title>Node34&#45;&gt;Node36</title>
<path fill="none" stroke="midnightblue" d="M1160.72,-290.362C1164.3,-282.677 1169.23,-272.069 1173.53,-262.84"/>
<polygon fill="midnightblue" stroke="midnightblue" points="1176.8,-264.114 1177.85,-253.571 1170.45,-261.159 1176.8,-264.114"/>
</g>
</g>
</svg>
        <g id="navigator" transform="translate(0 0)" fill="#404254">
                <rect fill="#f2f5e9" fill-opacity="0.5" stroke="#606060" stroke-width=".5" x="0" y="0" width="60" height="60"/>
                <use id="zoomplus" xlink:href="#zoomPlus" x="17" y="9" onmousedown="handleZoom(evt,'in')"/>
                <use id="zoomminus" xlink:href="#zoomMin" x="42" y="9" onmousedown="handleZoom(evt,'out')"/>
                <use id="reset" xlink:href="#resetDef" x="30" y="36" onmousedown="handleReset()"/>
                <g id="arrowUp" xlink:href="#dirArrow" transform="translate(30 24)" onmousedown="handlePan(0,-1)">
                  <use xlink:href="#rim" fill="#404040">
                        <set attributeName="fill" to="#808080" begin="arrowUp.mouseover" end="arrowUp.mouseout"/>
                  </use>
                  <path fill="none" stroke="white" stroke-width="1.5" d="M0,-3.0v7 M-2.5,-0.5L0,-3.0L2.5,-0.5"/>
                </g>
                <g id="arrowRight" xlink:href="#dirArrow" transform="rotate(90) translate(36 -43)" onmousedown="handlePan(1,0)">
                  <use xlink:href="#rim" fill="#404040">
                        <set attributeName="fill" to="#808080" begin="arrowRight.mouseover" end="arrowRight.mouseout"/>
                  </use>
                  <path fill="none" stroke="white" stroke-width="1.5" d="M0,-3.0v7 M-2.5,-0.5L0,-3.0L2.5,-0.5"/>
                </g>
                <g id="arrowDown" xlink:href="#dirArrow" transform="rotate(180) translate(-30 -48)" onmousedown="handlePan(0,1)">
                  <use xlink:href="#rim" fill="#404040">
                        <set attributeName="fill" to="#808080" begin="arrowDown.mouseover" end="arrowDown.mouseout"/>
                  </use>
                  <path fill="none" stroke="white" stroke-width="1.5" d="M0,-3.0v7 M-2.5,-0.5L0,-3.0L2.5,-0.5"/>
                </g>
                <g id="arrowLeft" xlink:href="#dirArrow" transform="rotate(270) translate(-36 17)" onmousedown="handlePan(-1,0)">
                  <use xlink:href="#rim" fill="#404040">
                        <set attributeName="fill" to="#808080" begin="arrowLeft.mouseover" end="arrowLeft.mouseout"/>
                  </use>
                  <path fill="none" stroke="white" stroke-width="1.5" d="M0,-3.0v7 M-2.5,-0.5L0,-3.0L2.5,-0.5"/>
                </g>
        </g>
</svg>
