<?xml version="1.0" encoding="UTF-8" standalone="no"?>
<!DOCTYPE svg PUBLIC "-//W3C//DTD SVG 1.1//EN"
 "http://www.w3.org/Graphics/SVG/1.1/DTD/svg11.dtd">
<!-- Generated by graphviz version 2.26.3 (20100126.1600)
 -->
<!-- Title: G Pages: 1 -->
<svg width="198pt" height="146pt"
 viewBox="0.00 0.00 198.00 146.00" xmlns="http://www.w3.org/2000/svg" xmlns:xlink="http://www.w3.org/1999/xlink">
<g id="graph1" class="graph" transform="scale(1 1) rotate(0) translate(4 142)">
<title>G</title>
<!-- Node1 -->
<g id="node1" class="node"><title>Node1</title>
<polygon fill="#bfbfbf" stroke="black" points="10.5,-116.5 10.5,-137.5 179.5,-137.5 179.5,-116.5 10.5,-116.5"/>
<text text-anchor="middle" x="95" y="-124.5" font-family="FreeSans.ttf" font-size="10.00">utils/filters/legacy/affinefilter.cpp</text>
</g>
<!-- Node2 -->
<g id="node3" class="node"><title>Node2</title>
<a xlink:href="affinefilter_8h.html" target="_top" xlink:title="affinefilter.h">
<polygon fill="none" stroke="black" points="59,-58.5 59,-79.5 131,-79.5 131,-58.5 59,-58.5"/>
<text text-anchor="middle" x="95" y="-66.5" font-family="FreeSans.ttf" font-size="10.00">affinefilter.h</text>
</a>
</g>
<!-- Node1&#45;&gt;Node2 -->
<g id="edge2" class="edge"><title>Node1&#45;&gt;Node2</title>
<path fill="none" stroke="midnightblue" d="M95,-116.362C95,-108.922 95,-98.7427 95,-89.7276"/>
<polygon fill="midnightblue" stroke="midnightblue" points="98.5001,-89.5706 95,-79.5707 91.5001,-89.5707 98.5001,-89.5706"/>
</g>
<!-- Node3 -->
<g id="node5" class="node"><title>Node3</title>
<polygon fill="none" stroke="#bfbfbf" points="0,-0.5 0,-21.5 86,-21.5 86,-0.5 0,-0.5"/>
<text text-anchor="middle" x="43" y="-8.5" font-family="FreeSans.ttf" font-size="10.00">QtGui/QWidget</text>
</g>
<!-- Node2&#45;&gt;Node3 -->
<g id="edge4" class="edge"><title>Node2&#45;&gt;Node3</title>
<path fill="none" stroke="midnightblue" d="M85.4624,-58.3619C78.1323,-50.1861 67.8367,-38.7025 59.2192,-29.0907"/>
<polygon fill="midnightblue" stroke="midnightblue" points="61.7586,-26.68 52.4771,-21.5707 56.5466,-31.3528 61.7586,-26.68"/>
</g>
<!-- Node4 -->
<g id="node7" class="node"><title>Node4</title>
<polygon fill="none" stroke="#bfbfbf" points="104,-0.5 104,-21.5 190,-21.5 190,-0.5 104,-0.5"/>
<text text-anchor="middle" x="147" y="-8.5" font-family="FreeSans.ttf" font-size="10.00">ui_affinefilter.h</text>
</g>
<!-- Node2&#45;&gt;Node4 -->
<g id="edge6" class="edge"><title>Node2&#45;&gt;Node4</title>
<path fill="none" stroke="midnightblue" d="M104.538,-58.3619C111.868,-50.1861 122.163,-38.7025 130.781,-29.0907"/>
<polygon fill="midnightblue" stroke="midnightblue" points="133.453,-31.3528 137.523,-21.5707 128.241,-26.68 133.453,-31.3528"/>
</g>
</g>
</svg>
