<?xml version="1.0" encoding="UTF-8" standalone="no"?>
<!DOCTYPE svg PUBLIC "-//W3C//DTD SVG 1.1//EN"
 "http://www.w3.org/Graphics/SVG/1.1/DTD/svg11.dtd">
<!-- Generated by graphviz version 2.26.3 (20100126.1600)
 -->
<!-- Title: G Pages: 1 -->
<!--zoomable 436 -->
<svg id="main" version="1.1" xmlns="http://www.w3.org/2000/svg" xmlns:xlink="http://www.w3.org/1999/xlink" xml:space="preserve" onload="init(evt)">
        <defs>
                <circle id="rim" cx="0" cy="0" r="7"/>
                <circle id="rim2" cx="0" cy="0" r="3.5"/>
                <g id="zoomPlus">
                        <use xlink:href="#rim" fill="#404040">
                                <set attributeName="fill" to="#808080" begin="zoomplus.mouseover" end="zoomplus.mouseout"/>
                        </use>
                        <path d="M-4,0h8M0,-4v8" fill="none" stroke="white" stroke-width="1.5" pointer-events="none"/>
                </g>
                <g id="zoomMin">
                        <use xlink:href="#rim" fill="#404040">
                                <set attributeName="fill" to="#808080" begin="zoomminus.mouseover" end="zoomminus.mouseout"/>
                        </use>
                        <path d="M-4,0h8" fill="none" stroke="white" stroke-width="1.5" pointer-events="none"/>
                </g>
                <g id="dirArrow">
                        <path fill="none" stroke="white" stroke-width="1.5" d="M0,-3.0v7 M-2.5,-0.5L0,-3.0L2.5,-0.5"/>
                </g>
               <g id="resetDef">
                       <use xlink:href="#rim2" fill="#404040">
                               <set attributeName="fill" to="#808080" begin="reset.mouseover" end="reset.mouseout"/>
                       </use>
               </g>
        </defs>

<script type="text/javascript">
var viewWidth = 774;
var viewHeight = 436;
var sectionId = 'dynsection-0';
</script>
<script xlink:href="svgpan.js"/>
<svg id="graph" class="graph">
<g id="viewport">
<title>G</title>
<!-- Node1 -->
<g id="node1" class="node"><title>Node1</title>
<polygon fill="#bfbfbf" stroke="black" points="534.5,-406.5 534.5,-427.5 701.5,-427.5 701.5,-406.5 534.5,-406.5"/>
<text text-anchor="middle" x="618" y="-414.5" font-family="FreeSans.ttf" font-size="10.00">core/alignment/angleFunction.h</text>
</g>
<!-- Node2 -->
<g id="node3" class="node"><title>Node2</title>
<a xlink:href="function_8h.html" target="_top" xlink:title="a header that contains generic function">
<polygon fill="none" stroke="black" points="586,-348.5 586,-369.5 650,-369.5 650,-348.5 586,-348.5"/>
<text text-anchor="middle" x="618" y="-356.5" font-family="FreeSans.ttf" font-size="10.00">function.h</text>
</a>
</g>
<!-- Node1&#45;&gt;Node2 -->
<g id="edge2" class="edge"><title>Node1&#45;&gt;Node2</title>
<path fill="none" stroke="midnightblue" d="M618,-406.362C618,-398.922 618,-388.743 618,-379.728"/>
<polygon fill="midnightblue" stroke="midnightblue" points="621.5,-379.571 618,-369.571 614.5,-379.571 621.5,-379.571"/>
</g>
<!-- Node3 -->
<g id="node5" class="node"><title>Node3</title>
<polygon fill="none" stroke="#bfbfbf" points="637.5,-58.5 637.5,-79.5 684.5,-79.5 684.5,-58.5 637.5,-58.5"/>
<text text-anchor="middle" x="661" y="-66.5" font-family="FreeSans.ttf" font-size="10.00">vector</text>
</g>
<!-- Node2&#45;&gt;Node3 -->
<g id="edge4" class="edge"><title>Node2&#45;&gt;Node3</title>
<path fill="none" stroke="midnightblue" d="M628.857,-348.255C647.116,-328.981 682,-286.471 682,-243 682,-243 682,-243 682,-185 682,-151.077 673.197,-112.454 666.99,-89.4375"/>
<polygon fill="midnightblue" stroke="midnightblue" points="670.346,-88.4443 664.281,-79.7572 663.605,-90.3304 670.346,-88.4443"/>
</g>
<!-- Node4 -->
<g id="node7" class="node"><title>Node4</title>
<a xlink:href="global_8h.html" target="_top" xlink:title="This file holds the global includes, mostly for debuging, tracing and profiling.">
<polygon fill="none" stroke="black" points="284,-58.5 284,-79.5 338,-79.5 338,-58.5 284,-58.5"/>
<text text-anchor="middle" x="311" y="-66.5" font-family="FreeSans.ttf" font-size="10.00">global.h</text>
</a>
</g>
<!-- Node2&#45;&gt;Node4 -->
<g id="edge6" class="edge"><title>Node2&#45;&gt;Node4</title>
<path fill="none" stroke="midnightblue" d="M585.754,-356.289C492.983,-347.61 232,-316.648 232,-243 232,-243 232,-243 232,-185 232,-144.024 266.092,-106.825 289.485,-86.1231"/>
<polygon fill="midnightblue" stroke="midnightblue" points="291.902,-88.6618 297.239,-79.5096 287.359,-83.3357 291.902,-88.6618"/>
</g>
<!-- Node6 -->
<g id="node11" class="node"><title>Node6</title>
<polygon fill="none" stroke="#bfbfbf" points="710,-290.5 710,-311.5 766,-311.5 766,-290.5 710,-290.5"/>
<text text-anchor="middle" x="738" y="-298.5" font-family="FreeSans.ttf" font-size="10.00">matrix.h</text>
</g>
<!-- Node2&#45;&gt;Node6 -->
<g id="edge10" class="edge"><title>Node2&#45;&gt;Node6</title>
<path fill="none" stroke="midnightblue" d="M639.731,-348.497C658.474,-339.438 685.767,-326.246 706.836,-316.063"/>
<polygon fill="midnightblue" stroke="midnightblue" points="708.545,-319.124 716.025,-311.621 705.498,-312.822 708.545,-319.124"/>
</g>
<!-- Node7 -->
<g id="node13" class="node"><title>Node7</title>
<a xlink:href="vector_8h.html" target="_top" xlink:title="a header for vector.c">
<polygon fill="none" stroke="black" points="527.5,-290.5 527.5,-311.5 582.5,-311.5 582.5,-290.5 527.5,-290.5"/>
<text text-anchor="middle" x="555" y="-298.5" font-family="FreeSans.ttf" font-size="10.00">vector.h</text>
</a>
</g>
<!-- Node2&#45;&gt;Node7 -->
<g id="edge12" class="edge"><title>Node2&#45;&gt;Node7</title>
<path fill="none" stroke="midnightblue" d="M606.445,-348.362C597.387,-340.023 584.59,-328.242 574.026,-318.516"/>
<polygon fill="midnightblue" stroke="midnightblue" points="576.21,-315.769 566.482,-311.571 571.468,-320.919 576.21,-315.769"/>
</g>
<!-- Node5 -->
<g id="node9" class="node"><title>Node5</title>
<polygon fill="none" stroke="#bfbfbf" points="279,-0.5 279,-21.5 343,-21.5 343,-0.5 279,-0.5"/>
<text text-anchor="middle" x="311" y="-8.5" font-family="FreeSans.ttf" font-size="10.00">inttypes.h</text>
</g>
<!-- Node4&#45;&gt;Node5 -->
<g id="edge8" class="edge"><title>Node4&#45;&gt;Node5</title>
<path fill="none" stroke="midnightblue" d="M311,-58.3619C311,-50.9219 311,-40.7427 311,-31.7276"/>
<polygon fill="midnightblue" stroke="midnightblue" points="314.5,-31.5706 311,-21.5707 307.5,-31.5707 314.5,-31.5706"/>
</g>
<!-- Node8 -->
<g id="node15" class="node"><title>Node8</title>
<a xlink:href="fixedArray_8h.html" target="_top" xlink:title="a header for fixedArray.c">
<polygon fill="none" stroke="black" points="447,-232.5 447,-253.5 519,-253.5 519,-232.5 447,-232.5"/>
<text text-anchor="middle" x="483" y="-240.5" font-family="FreeSans.ttf" font-size="10.00">fixedArray.h</text>
</a>
</g>
<!-- Node7&#45;&gt;Node8 -->
<g id="edge14" class="edge"><title>Node7&#45;&gt;Node8</title>
<path fill="none" stroke="midnightblue" d="M541.794,-290.362C531.239,-281.859 516.242,-269.779 504.037,-259.947"/>
<polygon fill="midnightblue" stroke="midnightblue" points="506.105,-257.118 496.122,-253.571 501.714,-262.57 506.105,-257.118"/>
</g>
<!-- Node8&#45;&gt;Node3 -->
<g id="edge16" class="edge"><title>Node8&#45;&gt;Node3</title>
<path fill="none" stroke="midnightblue" d="M498.439,-232.319C511.458,-223.117 530.407,-209.26 546,-196 574.255,-171.973 581.055,-165.448 606,-138 620.846,-121.664 636.404,-101.858 647.17,-87.6631"/>
<polygon fill="midnightblue" stroke="midnightblue" points="649.996,-89.7286 653.204,-79.6313 644.399,-85.5239 649.996,-89.7286"/>
</g>
<!-- Node8&#45;&gt;Node4 -->
<g id="edge18" class="edge"><title>Node8&#45;&gt;Node4</title>
<path fill="none" stroke="midnightblue" d="M446.851,-234.635C402.083,-222.12 327.736,-193.779 295,-138 286.099,-122.834 292.135,-103.082 299.197,-88.5986"/>
<polygon fill="midnightblue" stroke="midnightblue" points="302.418,-89.9988 304.08,-79.535 296.256,-86.679 302.418,-89.9988"/>
</g>
<!-- Node9 -->
<g id="node19" class="node"><title>Node9</title>
<a xlink:href="memoryBlock_8h.html" target="_top" xlink:title="Add Comment Here.">
<polygon fill="none" stroke="black" points="112,-116.5 112,-137.5 204,-137.5 204,-116.5 112,-116.5"/>
<text text-anchor="middle" x="158" y="-124.5" font-family="FreeSans.ttf" font-size="10.00">memoryBlock.h</text>
</a>
</g>
<!-- Node8&#45;&gt;Node9 -->
<g id="edge20" class="edge"><title>Node8&#45;&gt;Node9</title>
<path fill="none" stroke="midnightblue" d="M446.741,-236.516C408.146,-229.034 345.646,-215.241 294,-196 254.495,-181.282 211.52,-158.18 184.674,-142.816"/>
<polygon fill="midnightblue" stroke="midnightblue" points="186.292,-139.709 175.883,-137.731 182.787,-145.768 186.292,-139.709"/>
</g>
<!-- Node14 -->
<g id="node30" class="node"><title>Node14</title>
<a xlink:href="vectorOperations_8h.html" target="_top" xlink:title="This file holds the operations that are commonly used with continuous linear data structures such as ...">
<polygon fill="none" stroke="black" points="429,-174.5 429,-195.5 537,-195.5 537,-174.5 429,-174.5"/>
<text text-anchor="middle" x="483" y="-182.5" font-family="FreeSans.ttf" font-size="10.00">vectorOperations.h</text>
</a>
</g>
<!-- Node8&#45;&gt;Node14 -->
<g id="edge32" class="edge"><title>Node8&#45;&gt;Node14</title>
<path fill="none" stroke="midnightblue" d="M483,-232.362C483,-224.922 483,-214.743 483,-205.728"/>
<polygon fill="midnightblue" stroke="midnightblue" points="486.5,-205.571 483,-195.571 479.5,-205.571 486.5,-205.571"/>
</g>
<!-- Node9&#45;&gt;Node4 -->
<g id="edge28" class="edge"><title>Node9&#45;&gt;Node4</title>
<path fill="none" stroke="midnightblue" d="M185.707,-116.497C210.48,-107.106 246.968,-93.2735 274.187,-82.9554"/>
<polygon fill="midnightblue" stroke="midnightblue" points="275.646,-86.1452 283.756,-79.3277 273.165,-79.5997 275.646,-86.1452"/>
</g>
<!-- Node10 -->
<g id="node21" class="node"><title>Node10</title>
<polygon fill="none" stroke="#bfbfbf" points="-0.5,-58.5 -0.5,-79.5 34.5,-79.5 34.5,-58.5 -0.5,-58.5"/>
<text text-anchor="middle" x="17" y="-66.5" font-family="FreeSans.ttf" font-size="10.00">new</text>
</g>
<!-- Node9&#45;&gt;Node10 -->
<g id="edge22" class="edge"><title>Node9&#45;&gt;Node10</title>
<path fill="none" stroke="midnightblue" d="M131.929,-116.451C110.51,-107.761 79.1533,-94.987 44.0932,-80.4287"/>
<polygon fill="midnightblue" stroke="midnightblue" points="45.1872,-77.0931 34.6098,-76.4847 42.4991,-83.5565 45.1872,-77.0931"/>
</g>
<!-- Node11 -->
<g id="node23" class="node"><title>Node11</title>
<polygon fill="none" stroke="#bfbfbf" points="213.5,-58.5 213.5,-79.5 266.5,-79.5 266.5,-58.5 213.5,-58.5"/>
<text text-anchor="middle" x="240" y="-66.5" font-family="FreeSans.ttf" font-size="10.00">stdint.h</text>
</g>
<!-- Node9&#45;&gt;Node11 -->
<g id="edge24" class="edge"><title>Node9&#45;&gt;Node11</title>
<path fill="none" stroke="midnightblue" d="M173.04,-116.362C185.293,-107.696 202.799,-95.3126 216.839,-85.3819"/>
<polygon fill="midnightblue" stroke="midnightblue" points="218.912,-88.2028 225.055,-79.5707 214.87,-82.4879 218.912,-88.2028"/>
</g>
<!-- Node12 -->
<g id="node25" class="node"><title>Node12</title>
<polygon fill="none" stroke="#bfbfbf" points="51.5,-58.5 51.5,-79.5 102.5,-79.5 102.5,-58.5 51.5,-58.5"/>
<text text-anchor="middle" x="77" y="-66.5" font-family="FreeSans.ttf" font-size="10.00">stdlib.h</text>
</g>
<!-- Node9&#45;&gt;Node12 -->
<g id="edge26" class="edge"><title>Node9&#45;&gt;Node12</title>
<path fill="none" stroke="midnightblue" d="M143.143,-116.362C131.154,-107.777 114.073,-95.5459 100.272,-85.6636"/>
<polygon fill="midnightblue" stroke="midnightblue" points="101.931,-82.5469 91.7625,-79.5707 97.8554,-88.2383 101.931,-82.5469"/>
</g>
<!-- Node13 -->
<g id="node28" class="node"><title>Node13</title>
<a xlink:href="atomicOps_8h.html" target="_top" xlink:title="atomicOps.h">
<polygon fill="none" stroke="black" points="119.5,-58.5 119.5,-79.5 196.5,-79.5 196.5,-58.5 119.5,-58.5"/>
<text text-anchor="middle" x="158" y="-66.5" font-family="FreeSans.ttf" font-size="10.00">atomicOps.h</text>
</a>
</g>
<!-- Node9&#45;&gt;Node13 -->
<g id="edge30" class="edge"><title>Node9&#45;&gt;Node13</title>
<path fill="none" stroke="midnightblue" d="M158,-116.362C158,-108.922 158,-98.7427 158,-89.7276"/>
<polygon fill="midnightblue" stroke="midnightblue" points="161.5,-89.5706 158,-79.5707 154.5,-89.5707 161.5,-89.5706"/>
</g>
<!-- Node15 -->
<g id="node32" class="node"><title>Node15</title>
<polygon fill="none" stroke="#bfbfbf" points="536,-116.5 536,-137.5 578,-137.5 578,-116.5 536,-116.5"/>
<text text-anchor="middle" x="557" y="-124.5" font-family="FreeSans.ttf" font-size="10.00">limits</text>
</g>
<!-- Node14&#45;&gt;Node15 -->
<g id="edge34" class="edge"><title>Node14&#45;&gt;Node15</title>
<path fill="none" stroke="midnightblue" d="M496.573,-174.362C507.421,-165.859 522.834,-153.779 535.379,-143.947"/>
<polygon fill="midnightblue" stroke="midnightblue" points="537.802,-146.494 543.513,-137.571 533.484,-140.985 537.802,-146.494"/>
</g>
<!-- Node16 -->
<g id="node34" class="node"><title>Node16</title>
<polygon fill="none" stroke="#bfbfbf" points="303.5,-116.5 303.5,-137.5 362.5,-137.5 362.5,-116.5 303.5,-116.5"/>
<text text-anchor="middle" x="333" y="-124.5" font-family="FreeSans.ttf" font-size="10.00">iostream</text>
</g>
<!-- Node14&#45;&gt;Node16 -->
<g id="edge36" class="edge"><title>Node14&#45;&gt;Node16</title>
<path fill="none" stroke="midnightblue" d="M455.836,-174.497C431.7,-165.164 396.219,-151.445 369.588,-141.147"/>
<polygon fill="midnightblue" stroke="midnightblue" points="370.804,-137.865 360.215,-137.523 368.28,-144.394 370.804,-137.865"/>
</g>
<!-- Node17 -->
<g id="node36" class="node"><title>Node17</title>
<polygon fill="none" stroke="#bfbfbf" points="571.5,-58.5 571.5,-79.5 620.5,-79.5 620.5,-58.5 571.5,-58.5"/>
<text text-anchor="middle" x="596" y="-66.5" font-family="FreeSans.ttf" font-size="10.00">stdio.h</text>
</g>
<!-- Node14&#45;&gt;Node17 -->
<g id="edge38" class="edge"><title>Node14&#45;&gt;Node17</title>
<path fill="none" stroke="midnightblue" d="M530.811,-174.499C551.258,-167.548 573.488,-156.224 587,-138 597.206,-124.235 598.865,-104.541 598.316,-89.7137"/>
<polygon fill="midnightblue" stroke="midnightblue" points="601.789,-89.221 597.57,-79.5027 594.808,-89.7311 601.789,-89.221"/>
</g>
<!-- Node18 -->
<g id="node38" class="node"><title>Node18</title>
<polygon fill="none" stroke="#bfbfbf" points="379.5,-116.5 379.5,-137.5 430.5,-137.5 430.5,-116.5 379.5,-116.5"/>
<text text-anchor="middle" x="405" y="-124.5" font-family="FreeSans.ttf" font-size="10.00">math.h</text>
</g>
<!-- Node14&#45;&gt;Node18 -->
<g id="edge40" class="edge"><title>Node14&#45;&gt;Node18</title>
<path fill="none" stroke="midnightblue" d="M468.694,-174.362C457.149,-165.777 440.7,-153.546 427.41,-143.664"/>
<polygon fill="midnightblue" stroke="midnightblue" points="429.329,-140.729 419.216,-137.571 425.152,-146.346 429.329,-140.729"/>
</g>
<!-- Node19 -->
<g id="node40" class="node"><title>Node19</title>
<a xlink:href="reflection_8h.html" target="_top" xlink:title="a header for Reflection.c">
<polygon fill="none" stroke="black" points="448,-116.5 448,-137.5 518,-137.5 518,-116.5 448,-116.5"/>
<text text-anchor="middle" x="483" y="-124.5" font-family="FreeSans.ttf" font-size="10.00">reflection.h</text>
</a>
</g>
<!-- Node14&#45;&gt;Node19 -->
<g id="edge42" class="edge"><title>Node14&#45;&gt;Node19</title>
<path fill="none" stroke="midnightblue" d="M483,-174.362C483,-166.922 483,-156.743 483,-147.728"/>
<polygon fill="midnightblue" stroke="midnightblue" points="486.5,-147.571 483,-137.571 479.5,-147.571 486.5,-147.571"/>
</g>
<!-- Node19&#45;&gt;Node3 -->
<g id="edge44" class="edge"><title>Node19&#45;&gt;Node3</title>
<path fill="none" stroke="midnightblue" d="M516.403,-116.453C544.009,-107.69 584.464,-94.745 627.695,-80.4005"/>
<polygon fill="midnightblue" stroke="midnightblue" points="628.868,-83.6989 637.252,-77.2214 626.658,-77.0568 628.868,-83.6989"/>
</g>
<!-- Node19&#45;&gt;Node4 -->
<g id="edge56" class="edge"><title>Node19&#45;&gt;Node4</title>
<path fill="none" stroke="midnightblue" d="M451.852,-116.497C422.588,-106.629 378.782,-91.8568 347.806,-81.4112"/>
<polygon fill="midnightblue" stroke="midnightblue" points="348.828,-78.0624 338.234,-78.1835 346.591,-84.6954 348.828,-78.0624"/>
</g>
<!-- Node19&#45;&gt;Node11 -->
<g id="edge52" class="edge"><title>Node19&#45;&gt;Node11</title>
<path fill="none" stroke="midnightblue" d="M447.958,-118.142C444.931,-117.407 441.913,-116.684 439,-116 369.472,-99.6814 348.862,-99.2158 276.72,-80.3135"/>
<polygon fill="midnightblue" stroke="midnightblue" points="277.245,-76.8319 266.682,-77.6529 275.451,-83.5982 277.245,-76.8319"/>
</g>
<!-- Node19&#45;&gt;Node17 -->
<g id="edge50" class="edge"><title>Node19&#45;&gt;Node17</title>
<path fill="none" stroke="midnightblue" d="M503.463,-116.497C521.033,-107.479 546.582,-94.3649 566.385,-84.2006"/>
<polygon fill="midnightblue" stroke="midnightblue" points="568.009,-87.3014 575.307,-79.6212 564.812,-81.0738 568.009,-87.3014"/>
</g>
<!-- Node20 -->
<g id="node43" class="node"><title>Node20</title>
<polygon fill="none" stroke="#bfbfbf" points="510,-58.5 510,-79.5 554,-79.5 554,-58.5 510,-58.5"/>
<text text-anchor="middle" x="532" y="-66.5" font-family="FreeSans.ttf" font-size="10.00">string</text>
</g>
<!-- Node19&#45;&gt;Node20 -->
<g id="edge46" class="edge"><title>Node19&#45;&gt;Node20</title>
<path fill="none" stroke="midnightblue" d="M491.987,-116.362C498.825,-108.268 508.402,-96.9318 516.472,-87.3796"/>
<polygon fill="midnightblue" stroke="midnightblue" points="519.29,-89.4683 523.07,-79.5707 513.942,-84.9508 519.29,-89.4683"/>
</g>
<!-- Node21 -->
<g id="node45" class="node"><title>Node21</title>
<polygon fill="none" stroke="#bfbfbf" points="365.5,-58.5 365.5,-79.5 418.5,-79.5 418.5,-58.5 365.5,-58.5"/>
<text text-anchor="middle" x="392" y="-66.5" font-family="FreeSans.ttf" font-size="10.00">string.h</text>
</g>
<!-- Node19&#45;&gt;Node21 -->
<g id="edge48" class="edge"><title>Node19&#45;&gt;Node21</title>
<path fill="none" stroke="midnightblue" d="M466.309,-116.362C452.584,-107.614 432.916,-95.0786 417.263,-85.1015"/>
<polygon fill="midnightblue" stroke="midnightblue" points="418.899,-81.994 408.585,-79.5707 415.137,-87.8969 418.899,-81.994"/>
</g>
<!-- Node22 -->
<g id="node49" class="node"><title>Node22</title>
<polygon fill="none" stroke="#bfbfbf" points="436,-58.5 436,-79.5 492,-79.5 492,-58.5 436,-58.5"/>
<text text-anchor="middle" x="464" y="-66.5" font-family="FreeSans.ttf" font-size="10.00">stdarg.h</text>
</g>
<!-- Node19&#45;&gt;Node22 -->
<g id="edge54" class="edge"><title>Node19&#45;&gt;Node22</title>
<path fill="none" stroke="midnightblue" d="M479.515,-116.362C477.024,-108.758 473.596,-98.294 470.596,-89.1349"/>
<polygon fill="midnightblue" stroke="midnightblue" points="473.902,-87.9841 467.463,-79.5707 467.25,-90.1634 473.902,-87.9841"/>
</g>
</g>
</svg>
        <g id="navigator" transform="translate(0 0)" fill="#404254">
                <rect fill="#f2f5e9" fill-opacity="0.5" stroke="#606060" stroke-width=".5" x="0" y="0" width="60" height="60"/>
                <use id="zoomplus" xlink:href="#zoomPlus" x="17" y="9" onmousedown="handleZoom(evt,'in')"/>
                <use id="zoomminus" xlink:href="#zoomMin" x="42" y="9" onmousedown="handleZoom(evt,'out')"/>
                <use id="reset" xlink:href="#resetDef" x="30" y="36" onmousedown="handleReset()"/>
                <g id="arrowUp" xlink:href="#dirArrow" transform="translate(30 24)" onmousedown="handlePan(0,-1)">
                  <use xlink:href="#rim" fill="#404040">
                        <set attributeName="fill" to="#808080" begin="arrowUp.mouseover" end="arrowUp.mouseout"/>
                  </use>
                  <path fill="none" stroke="white" stroke-width="1.5" d="M0,-3.0v7 M-2.5,-0.5L0,-3.0L2.5,-0.5"/>
                </g>
                <g id="arrowRight" xlink:href="#dirArrow" transform="rotate(90) translate(36 -43)" onmousedown="handlePan(1,0)">
                  <use xlink:href="#rim" fill="#404040">
                        <set attributeName="fill" to="#808080" begin="arrowRight.mouseover" end="arrowRight.mouseout"/>
                  </use>
                  <path fill="none" stroke="white" stroke-width="1.5" d="M0,-3.0v7 M-2.5,-0.5L0,-3.0L2.5,-0.5"/>
                </g>
                <g id="arrowDown" xlink:href="#dirArrow" transform="rotate(180) translate(-30 -48)" onmousedown="handlePan(0,1)">
                  <use xlink:href="#rim" fill="#404040">
                        <set attributeName="fill" to="#808080" begin="arrowDown.mouseover" end="arrowDown.mouseout"/>
                  </use>
                  <path fill="none" stroke="white" stroke-width="1.5" d="M0,-3.0v7 M-2.5,-0.5L0,-3.0L2.5,-0.5"/>
                </g>
                <g id="arrowLeft" xlink:href="#dirArrow" transform="rotate(270) translate(-36 17)" onmousedown="handlePan(-1,0)">
                  <use xlink:href="#rim" fill="#404040">
                        <set attributeName="fill" to="#808080" begin="arrowLeft.mouseover" end="arrowLeft.mouseout"/>
                  </use>
                  <path fill="none" stroke="white" stroke-width="1.5" d="M0,-3.0v7 M-2.5,-0.5L0,-3.0L2.5,-0.5"/>
                </g>
        </g>
</svg>
