<?xml version="1.0" encoding="UTF-8" standalone="no"?>
<!DOCTYPE svg PUBLIC "-//W3C//DTD SVG 1.1//EN"
 "http://www.w3.org/Graphics/SVG/1.1/DTD/svg11.dtd">
<!-- Generated by graphviz version 2.26.3 (20100126.1600)
 -->
<!-- Title: G Pages: 1 -->
<svg width="212pt" height="88pt"
 viewBox="0.00 0.00 212.00 88.00" xmlns="http://www.w3.org/2000/svg" xmlns:xlink="http://www.w3.org/1999/xlink">
<g id="graph1" class="graph" transform="scale(1 1) rotate(0) translate(4 84)">
<title>G</title>
<!-- Node1 -->
<g id="node1" class="node"><title>Node1</title>
<polygon fill="#bfbfbf" stroke="black" points="23.5,-58.5 23.5,-79.5 172.5,-79.5 172.5,-58.5 23.5,-58.5"/>
<text text-anchor="middle" x="98" y="-66.5" font-family="FreeSans.ttf" font-size="10.00">utils/widgets/angleEditBox.h</text>
</g>
<!-- Node2 -->
<g id="node3" class="node"><title>Node2</title>
<polygon fill="none" stroke="#bfbfbf" points="0,-0.5 0,-21.5 86,-21.5 86,-0.5 0,-0.5"/>
<text text-anchor="middle" x="43" y="-8.5" font-family="FreeSans.ttf" font-size="10.00">QtGui/QWidget</text>
</g>
<!-- Node1&#45;&gt;Node2 -->
<g id="edge2" class="edge"><title>Node1&#45;&gt;Node2</title>
<path fill="none" stroke="midnightblue" d="M87.9122,-58.3619C80.1592,-50.1861 69.2696,-38.7025 60.1549,-29.0907"/>
<polygon fill="midnightblue" stroke="midnightblue" points="62.4445,-26.4186 53.0239,-21.5707 57.3651,-31.2352 62.4445,-26.4186"/>
</g>
<!-- Node3 -->
<g id="node5" class="node"><title>Node3</title>
<polygon fill="none" stroke="#bfbfbf" points="103.5,-0.5 103.5,-21.5 204.5,-21.5 204.5,-0.5 103.5,-0.5"/>
<text text-anchor="middle" x="154" y="-8.5" font-family="FreeSans.ttf" font-size="10.00">ui_angleEditBox.h</text>
</g>
<!-- Node1&#45;&gt;Node3 -->
<g id="edge4" class="edge"><title>Node1&#45;&gt;Node3</title>
<path fill="none" stroke="midnightblue" d="M108.271,-58.3619C116.244,-50.1043 127.475,-38.4725 136.811,-28.8029"/>
<polygon fill="midnightblue" stroke="midnightblue" points="139.366,-31.1958 143.794,-21.5707 134.33,-26.3336 139.366,-31.1958"/>
</g>
</g>
</svg>
