<?xml version="1.0" encoding="UTF-8" standalone="no"?>
<!DOCTYPE svg PUBLIC "-//W3C//DTD SVG 1.1//EN"
 "http://www.w3.org/Graphics/SVG/1.1/DTD/svg11.dtd">
<!-- Generated by graphviz version 2.26.3 (20100126.1600)
 -->
<!-- Title: G Pages: 1 -->
<!--zoomable 494 -->
<svg id="main" version="1.1" xmlns="http://www.w3.org/2000/svg" xmlns:xlink="http://www.w3.org/1999/xlink" xml:space="preserve" onload="init(evt)">
        <defs>
                <circle id="rim" cx="0" cy="0" r="7"/>
                <circle id="rim2" cx="0" cy="0" r="3.5"/>
                <g id="zoomPlus">
                        <use xlink:href="#rim" fill="#404040">
                                <set attributeName="fill" to="#808080" begin="zoomplus.mouseover" end="zoomplus.mouseout"/>
                        </use>
                        <path d="M-4,0h8M0,-4v8" fill="none" stroke="white" stroke-width="1.5" pointer-events="none"/>
                </g>
                <g id="zoomMin">
                        <use xlink:href="#rim" fill="#404040">
                                <set attributeName="fill" to="#808080" begin="zoomminus.mouseover" end="zoomminus.mouseout"/>
                        </use>
                        <path d="M-4,0h8" fill="none" stroke="white" stroke-width="1.5" pointer-events="none"/>
                </g>
                <g id="dirArrow">
                        <path fill="none" stroke="white" stroke-width="1.5" d="M0,-3.0v7 M-2.5,-0.5L0,-3.0L2.5,-0.5"/>
                </g>
               <g id="resetDef">
                       <use xlink:href="#rim2" fill="#404040">
                               <set attributeName="fill" to="#808080" begin="reset.mouseover" end="reset.mouseout"/>
                       </use>
               </g>
        </defs>

<script type="text/javascript">
var viewWidth = 641;
var viewHeight = 494;
var sectionId = 'dynsection-0';
</script>
<script xlink:href="svgpan.js"/>
<svg id="graph" class="graph">
<g id="viewport">
<title>G</title>
<!-- Node1 -->
<g id="node1" class="node"><title>Node1</title>
<polygon fill="#bfbfbf" stroke="black" points="326.5,-464.5 326.5,-485.5 487.5,-485.5 487.5,-464.5 326.5,-464.5"/>
<text text-anchor="middle" x="407" y="-472.5" font-family="FreeSans.ttf" font-size="10.00">utils/widgets/angleEditBox.cpp</text>
</g>
<!-- Node2 -->
<g id="node3" class="node"><title>Node2</title>
<a xlink:href="angleEditBox_8h.html" target="_top" xlink:title="angleEditBox.h">
<polygon fill="none" stroke="black" points="117,-406.5 117,-427.5 205,-427.5 205,-406.5 117,-406.5"/>
<text text-anchor="middle" x="161" y="-414.5" font-family="FreeSans.ttf" font-size="10.00">angleEditBox.h</text>
</a>
</g>
<!-- Node1&#45;&gt;Node2 -->
<g id="edge2" class="edge"><title>Node1&#45;&gt;Node2</title>
<path fill="none" stroke="midnightblue" d="M362.451,-464.497C321.09,-454.745 259.415,-440.204 215.211,-429.781"/>
<polygon fill="midnightblue" stroke="midnightblue" points="215.754,-426.314 205.217,-427.425 214.147,-433.127 215.754,-426.314"/>
</g>
<!-- Node5 -->
<g id="node9" class="node"><title>Node5</title>
<a xlink:href="qtHelper_8h.html" target="_top" xlink:title="qtHelper.h">
<polygon fill="none" stroke="black" points="374,-406.5 374,-427.5 440,-427.5 440,-406.5 374,-406.5"/>
<text text-anchor="middle" x="407" y="-414.5" font-family="FreeSans.ttf" font-size="10.00">qtHelper.h</text>
</a>
</g>
<!-- Node1&#45;&gt;Node5 -->
<g id="edge8" class="edge"><title>Node1&#45;&gt;Node5</title>
<path fill="none" stroke="midnightblue" d="M407,-464.362C407,-456.922 407,-446.743 407,-437.728"/>
<polygon fill="midnightblue" stroke="midnightblue" points="410.5,-437.571 407,-427.571 403.5,-437.571 410.5,-437.571"/>
</g>
<!-- Node24 -->
<g id="node54" class="node"><title>Node24</title>
<a xlink:href="mathUtils_8h.html" target="_top" xlink:title="Add Comment Here.">
<polygon fill="none" stroke="black" points="561,-174.5 561,-195.5 633,-195.5 633,-174.5 561,-174.5"/>
<text text-anchor="middle" x="597" y="-182.5" font-family="FreeSans.ttf" font-size="10.00">mathUtils.h</text>
</a>
</g>
<!-- Node1&#45;&gt;Node24 -->
<g id="edge60" class="edge"><title>Node1&#45;&gt;Node24</title>
<path fill="none" stroke="midnightblue" d="M476.861,-464.459C535.582,-451.17 610,-421.916 610,-359 610,-359 610,-359 610,-301 610,-267.389 604.543,-228.638 600.7,-205.516"/>
<polygon fill="midnightblue" stroke="midnightblue" points="604.124,-204.771 598.974,-195.512 597.225,-205.961 604.124,-204.771"/>
</g>
<!-- Node3 -->
<g id="node5" class="node"><title>Node3</title>
<polygon fill="none" stroke="#bfbfbf" points="118,-348.5 118,-369.5 204,-369.5 204,-348.5 118,-348.5"/>
<text text-anchor="middle" x="161" y="-356.5" font-family="FreeSans.ttf" font-size="10.00">QtGui/QWidget</text>
</g>
<!-- Node2&#45;&gt;Node3 -->
<g id="edge4" class="edge"><title>Node2&#45;&gt;Node3</title>
<path fill="none" stroke="midnightblue" d="M161,-406.362C161,-398.922 161,-388.743 161,-379.728"/>
<polygon fill="midnightblue" stroke="midnightblue" points="164.5,-379.571 161,-369.571 157.5,-379.571 164.5,-379.571"/>
</g>
<!-- Node4 -->
<g id="node7" class="node"><title>Node4</title>
<polygon fill="none" stroke="#bfbfbf" points="-0.5,-348.5 -0.5,-369.5 100.5,-369.5 100.5,-348.5 -0.5,-348.5"/>
<text text-anchor="middle" x="50" y="-356.5" font-family="FreeSans.ttf" font-size="10.00">ui_angleEditBox.h</text>
</g>
<!-- Node2&#45;&gt;Node4 -->
<g id="edge6" class="edge"><title>Node2&#45;&gt;Node4</title>
<path fill="none" stroke="midnightblue" d="M140.899,-406.497C123.718,-397.519 98.7702,-384.484 79.3551,-374.339"/>
<polygon fill="midnightblue" stroke="midnightblue" points="80.8107,-371.15 70.3268,-369.621 77.5689,-377.354 80.8107,-371.15"/>
</g>
<!-- Node6 -->
<g id="node11" class="node"><title>Node6</title>
<polygon fill="none" stroke="#bfbfbf" points="490,-348.5 490,-369.5 582,-369.5 582,-348.5 490,-348.5"/>
<text text-anchor="middle" x="536" y="-356.5" font-family="FreeSans.ttf" font-size="10.00">QtCore/QDebug</text>
</g>
<!-- Node5&#45;&gt;Node6 -->
<g id="edge10" class="edge"><title>Node5&#45;&gt;Node6</title>
<path fill="none" stroke="midnightblue" d="M430.361,-406.497C450.691,-397.356 480.378,-384.008 503.109,-373.788"/>
<polygon fill="midnightblue" stroke="midnightblue" points="504.692,-376.914 512.377,-369.621 501.821,-370.53 504.692,-376.914"/>
</g>
<!-- Node7 -->
<g id="node13" class="node"><title>Node7</title>
<polygon fill="none" stroke="#bfbfbf" points="221.5,-348.5 221.5,-369.5 348.5,-369.5 348.5,-348.5 221.5,-348.5"/>
<text text-anchor="middle" x="285" y="-356.5" font-family="FreeSans.ttf" font-size="10.00">QtGui/QDoubleSpinBox</text>
</g>
<!-- Node5&#45;&gt;Node7 -->
<g id="edge12" class="edge"><title>Node5&#45;&gt;Node7</title>
<path fill="none" stroke="midnightblue" d="M384.907,-406.497C365.766,-397.397 337.854,-384.127 316.395,-373.925"/>
<polygon fill="midnightblue" stroke="midnightblue" points="317.875,-370.754 307.341,-369.621 314.87,-377.076 317.875,-370.754"/>
</g>
<!-- Node8 -->
<g id="node15" class="node"><title>Node8</title>
<a xlink:href="vector2d_8h.html" target="_top" xlink:title="Add Comment Here.">
<polygon fill="none" stroke="black" points="371,-290.5 371,-311.5 439,-311.5 439,-290.5 371,-290.5"/>
<text text-anchor="middle" x="405" y="-298.5" font-family="FreeSans.ttf" font-size="10.00">vector2d.h</text>
</a>
</g>
<!-- Node5&#45;&gt;Node8 -->
<g id="edge14" class="edge"><title>Node5&#45;&gt;Node8</title>
<path fill="none" stroke="midnightblue" d="M403.458,-406.32C400.527,-396.889 396.596,-382.701 395,-370 392.952,-353.7 395.886,-335.29 399.095,-321.588"/>
<polygon fill="midnightblue" stroke="midnightblue" points="402.527,-322.297 401.638,-311.739 395.749,-320.547 402.527,-322.297"/>
</g>
<!-- Node23 -->
<g id="node50" class="node"><title>Node23</title>
<a xlink:href="vector3d_8h.html" target="_top" xlink:title="A 3 component vector.">
<polygon fill="none" stroke="black" points="404,-348.5 404,-369.5 472,-369.5 472,-348.5 404,-348.5"/>
<text text-anchor="middle" x="438" y="-356.5" font-family="FreeSans.ttf" font-size="10.00">vector3d.h</text>
</a>
</g>
<!-- Node5&#45;&gt;Node23 -->
<g id="edge54" class="edge"><title>Node5&#45;&gt;Node23</title>
<path fill="none" stroke="midnightblue" d="M412.686,-406.362C416.837,-398.595 422.584,-387.843 427.553,-378.546"/>
<polygon fill="midnightblue" stroke="midnightblue" points="430.723,-380.04 432.35,-369.571 424.55,-376.74 430.723,-380.04"/>
</g>
<!-- Node9 -->
<g id="node17" class="node"><title>Node9</title>
<polygon fill="none" stroke="#bfbfbf" points="475.5,-116.5 475.5,-137.5 526.5,-137.5 526.5,-116.5 475.5,-116.5"/>
<text text-anchor="middle" x="501" y="-124.5" font-family="FreeSans.ttf" font-size="10.00">math.h</text>
</g>
<!-- Node8&#45;&gt;Node9 -->
<g id="edge16" class="edge"><title>Node8&#45;&gt;Node9</title>
<path fill="none" stroke="midnightblue" d="M422.818,-290.346C435.443,-281.943 451.873,-269.138 462,-254 484.219,-220.787 494.226,-174.362 498.374,-147.819"/>
<polygon fill="midnightblue" stroke="midnightblue" points="501.862,-148.152 499.812,-137.758 494.932,-147.162 501.862,-148.152"/>
</g>
<!-- Node10 -->
<g id="node19" class="node"><title>Node10</title>
<polygon fill="none" stroke="#bfbfbf" points="4.5,-58.5 4.5,-79.5 57.5,-79.5 57.5,-58.5 4.5,-58.5"/>
<text text-anchor="middle" x="31" y="-66.5" font-family="FreeSans.ttf" font-size="10.00">stdint.h</text>
</g>
<!-- Node8&#45;&gt;Node10 -->
<g id="edge18" class="edge"><title>Node8&#45;&gt;Node10</title>
<path fill="none" stroke="midnightblue" d="M385.944,-290.443C340.68,-265.216 223.428,-198.988 129,-138 102.625,-120.966 73.2957,-100.04 53.6573,-85.7291"/>
<polygon fill="midnightblue" stroke="midnightblue" points="55.4982,-82.7392 45.3616,-79.6568 51.3635,-88.3876 55.4982,-82.7392"/>
</g>
<!-- Node11 -->
<g id="node21" class="node"><title>Node11</title>
<a xlink:href="global_8h.html" target="_top" xlink:title="This file holds the global includes, mostly for debuging, tracing and profiling.">
<polygon fill="none" stroke="black" points="421,-58.5 421,-79.5 475,-79.5 475,-58.5 421,-58.5"/>
<text text-anchor="middle" x="448" y="-66.5" font-family="FreeSans.ttf" font-size="10.00">global.h</text>
</a>
</g>
<!-- Node8&#45;&gt;Node11 -->
<g id="edge20" class="edge"><title>Node8&#45;&gt;Node11</title>
<path fill="none" stroke="midnightblue" d="M411.934,-290.278C417.536,-281.051 425.107,-267.18 429,-254 446.011,-196.414 448.333,-124.861 448.331,-90.0266"/>
<polygon fill="midnightblue" stroke="midnightblue" points="451.829,-89.6692 448.259,-79.6938 444.829,-89.718 451.829,-89.6692"/>
</g>
<!-- Node13 -->
<g id="node25" class="node"><title>Node13</title>
<a xlink:href="fixedVector_8h.html" target="_top" xlink:title="This file holds the description of the commonly used template &#45; a vector with the fixed number of com...">
<polygon fill="none" stroke="black" points="342,-232.5 342,-253.5 420,-253.5 420,-232.5 342,-232.5"/>
<text text-anchor="middle" x="381" y="-240.5" font-family="FreeSans.ttf" font-size="10.00">fixedVector.h</text>
</a>
</g>
<!-- Node8&#45;&gt;Node13 -->
<g id="edge24" class="edge"><title>Node8&#45;&gt;Node13</title>
<path fill="none" stroke="midnightblue" d="M400.598,-290.362C397.418,-282.677 393.028,-272.069 389.21,-262.84"/>
<polygon fill="midnightblue" stroke="midnightblue" points="392.432,-261.473 385.374,-253.571 385.964,-264.149 392.432,-261.473"/>
</g>
<!-- Node12 -->
<g id="node23" class="node"><title>Node12</title>
<polygon fill="none" stroke="#bfbfbf" points="416,-0.5 416,-21.5 480,-21.5 480,-0.5 416,-0.5"/>
<text text-anchor="middle" x="448" y="-8.5" font-family="FreeSans.ttf" font-size="10.00">inttypes.h</text>
</g>
<!-- Node11&#45;&gt;Node12 -->
<g id="edge22" class="edge"><title>Node11&#45;&gt;Node12</title>
<path fill="none" stroke="midnightblue" d="M448,-58.3619C448,-50.9219 448,-40.7427 448,-31.7276"/>
<polygon fill="midnightblue" stroke="midnightblue" points="451.5,-31.5706 448,-21.5707 444.5,-31.5707 451.5,-31.5706"/>
</g>
<!-- Node14 -->
<g id="node27" class="node"><title>Node14</title>
<polygon fill="none" stroke="#bfbfbf" points="344.5,-58.5 344.5,-79.5 393.5,-79.5 393.5,-58.5 344.5,-58.5"/>
<text text-anchor="middle" x="369" y="-66.5" font-family="FreeSans.ttf" font-size="10.00">stdio.h</text>
</g>
<!-- Node13&#45;&gt;Node14 -->
<g id="edge26" class="edge"><title>Node13&#45;&gt;Node14</title>
<path fill="none" stroke="midnightblue" d="M383.942,-232.314C389.551,-210.28 400.413,-158.315 391,-116 388.914,-106.622 384.748,-96.9009 380.597,-88.7504"/>
<polygon fill="midnightblue" stroke="midnightblue" points="383.536,-86.8278 375.683,-79.716 377.387,-90.1729 383.536,-86.8278"/>
</g>
<!-- Node15 -->
<g id="node29" class="node"><title>Node15</title>
<a xlink:href="vectorOperations_8h.html" target="_top" xlink:title="This file holds the operations that are commonly used with continuous linear data structures such as ...">
<polygon fill="none" stroke="black" points="252,-174.5 252,-195.5 360,-195.5 360,-174.5 252,-174.5"/>
<text text-anchor="middle" x="306" y="-182.5" font-family="FreeSans.ttf" font-size="10.00">vectorOperations.h</text>
</a>
</g>
<!-- Node13&#45;&gt;Node15 -->
<g id="edge28" class="edge"><title>Node13&#45;&gt;Node15</title>
<path fill="none" stroke="midnightblue" d="M367.244,-232.362C356.249,-223.859 340.627,-211.779 327.914,-201.947"/>
<polygon fill="midnightblue" stroke="midnightblue" points="329.721,-198.919 319.669,-195.571 325.438,-204.457 329.721,-198.919"/>
</g>
<!-- Node15&#45;&gt;Node9 -->
<g id="edge36" class="edge"><title>Node15&#45;&gt;Node9</title>
<path fill="none" stroke="midnightblue" d="M341.313,-174.497C376.475,-164.038 430.157,-148.071 465.415,-137.584"/>
<polygon fill="midnightblue" stroke="midnightblue" points="466.694,-140.855 475.282,-134.65 464.699,-134.146 466.694,-140.855"/>
</g>
<!-- Node15&#45;&gt;Node14 -->
<g id="edge34" class="edge"><title>Node15&#45;&gt;Node14</title>
<path fill="none" stroke="midnightblue" d="M288.527,-174.466C268.669,-161.12 240.748,-137.292 255,-116 259.762,-108.886 303.078,-92.3133 334.911,-80.8791"/>
<polygon fill="midnightblue" stroke="midnightblue" points="336.12,-84.1639 344.366,-77.5116 333.772,-77.5696 336.12,-84.1639"/>
</g>
<!-- Node16 -->
<g id="node31" class="node"><title>Node16</title>
<polygon fill="none" stroke="#bfbfbf" points="264,-116.5 264,-137.5 306,-137.5 306,-116.5 264,-116.5"/>
<text text-anchor="middle" x="285" y="-124.5" font-family="FreeSans.ttf" font-size="10.00">limits</text>
</g>
<!-- Node15&#45;&gt;Node16 -->
<g id="edge30" class="edge"><title>Node15&#45;&gt;Node16</title>
<path fill="none" stroke="midnightblue" d="M302.148,-174.362C299.395,-166.758 295.606,-156.294 292.29,-147.135"/>
<polygon fill="midnightblue" stroke="midnightblue" points="295.523,-145.782 288.827,-137.571 288.941,-148.165 295.523,-145.782"/>
</g>
<!-- Node17 -->
<g id="node33" class="node"><title>Node17</title>
<polygon fill="none" stroke="#bfbfbf" points="323.5,-116.5 323.5,-137.5 382.5,-137.5 382.5,-116.5 323.5,-116.5"/>
<text text-anchor="middle" x="353" y="-124.5" font-family="FreeSans.ttf" font-size="10.00">iostream</text>
</g>
<!-- Node15&#45;&gt;Node17 -->
<g id="edge32" class="edge"><title>Node15&#45;&gt;Node17</title>
<path fill="none" stroke="midnightblue" d="M314.621,-174.362C321.18,-166.268 330.366,-154.932 338.106,-145.38"/>
<polygon fill="midnightblue" stroke="midnightblue" points="340.858,-147.544 344.434,-137.571 335.419,-143.136 340.858,-147.544"/>
</g>
<!-- Node18 -->
<g id="node37" class="node"><title>Node18</title>
<a xlink:href="reflection_8h.html" target="_top" xlink:title="a header for Reflection.c">
<polygon fill="none" stroke="black" points="138,-116.5 138,-137.5 208,-137.5 208,-116.5 138,-116.5"/>
<text text-anchor="middle" x="173" y="-124.5" font-family="FreeSans.ttf" font-size="10.00">reflection.h</text>
</a>
</g>
<!-- Node15&#45;&gt;Node18 -->
<g id="edge38" class="edge"><title>Node15&#45;&gt;Node18</title>
<path fill="none" stroke="midnightblue" d="M281.915,-174.497C260.861,-165.315 230.073,-151.889 206.598,-141.652"/>
<polygon fill="midnightblue" stroke="midnightblue" points="207.921,-138.41 197.356,-137.621 205.123,-144.827 207.921,-138.41"/>
</g>
<!-- Node18&#45;&gt;Node10 -->
<g id="edge48" class="edge"><title>Node18&#45;&gt;Node10</title>
<path fill="none" stroke="midnightblue" d="M147.285,-116.497C124.707,-107.275 91.6425,-93.7695 66.5374,-83.5153"/>
<polygon fill="midnightblue" stroke="midnightblue" points="67.5847,-80.1624 57.0037,-79.6212 64.9378,-86.6427 67.5847,-80.1624"/>
</g>
<!-- Node18&#45;&gt;Node11 -->
<g id="edge52" class="edge"><title>Node18&#45;&gt;Node11</title>
<path fill="none" stroke="midnightblue" d="M208.383,-120.106C253.44,-111.243 333.655,-95.181 402,-80 404.856,-79.3657 407.807,-78.6949 410.773,-78.0101"/>
<polygon fill="midnightblue" stroke="midnightblue" points="411.854,-81.3515 420.791,-75.6602 410.256,-74.5364 411.854,-81.3515"/>
</g>
<!-- Node18&#45;&gt;Node14 -->
<g id="edge46" class="edge"><title>Node18&#45;&gt;Node14</title>
<path fill="none" stroke="midnightblue" d="M208.1,-117.328C239.126,-108.679 285.828,-95.4203 334.428,-80.4205"/>
<polygon fill="midnightblue" stroke="midnightblue" points="335.655,-83.7044 344.169,-77.3982 333.581,-77.0187 335.655,-83.7044"/>
</g>
<!-- Node19 -->
<g id="node39" class="node"><title>Node19</title>
<polygon fill="none" stroke="#bfbfbf" points="218.5,-58.5 218.5,-79.5 265.5,-79.5 265.5,-58.5 218.5,-58.5"/>
<text text-anchor="middle" x="242" y="-66.5" font-family="FreeSans.ttf" font-size="10.00">vector</text>
</g>
<!-- Node18&#45;&gt;Node19 -->
<g id="edge40" class="edge"><title>Node18&#45;&gt;Node19</title>
<path fill="none" stroke="midnightblue" d="M185.656,-116.362C195.674,-107.941 209.867,-96.0105 221.501,-86.2308"/>
<polygon fill="midnightblue" stroke="midnightblue" points="224.022,-88.6844 229.425,-79.5707 219.518,-83.326 224.022,-88.6844"/>
</g>
<!-- Node20 -->
<g id="node41" class="node"><title>Node20</title>
<polygon fill="none" stroke="#bfbfbf" points="283,-58.5 283,-79.5 327,-79.5 327,-58.5 283,-58.5"/>
<text text-anchor="middle" x="305" y="-66.5" font-family="FreeSans.ttf" font-size="10.00">string</text>
</g>
<!-- Node18&#45;&gt;Node20 -->
<g id="edge42" class="edge"><title>Node18&#45;&gt;Node20</title>
<path fill="none" stroke="midnightblue" d="M196.904,-116.497C218.322,-107.086 249.89,-93.2149 273.389,-82.8899"/>
<polygon fill="midnightblue" stroke="midnightblue" points="274.847,-86.0722 282.594,-78.8451 272.031,-79.6635 274.847,-86.0722"/>
</g>
<!-- Node21 -->
<g id="node43" class="node"><title>Node21</title>
<polygon fill="none" stroke="#bfbfbf" points="74.5,-58.5 74.5,-79.5 127.5,-79.5 127.5,-58.5 74.5,-58.5"/>
<text text-anchor="middle" x="101" y="-66.5" font-family="FreeSans.ttf" font-size="10.00">string.h</text>
</g>
<!-- Node18&#45;&gt;Node21 -->
<g id="edge44" class="edge"><title>Node18&#45;&gt;Node21</title>
<path fill="none" stroke="midnightblue" d="M159.794,-116.362C149.239,-107.859 134.242,-95.7785 122.037,-85.9466"/>
<polygon fill="midnightblue" stroke="midnightblue" points="124.105,-83.1183 114.122,-79.5707 119.714,-88.5696 124.105,-83.1183"/>
</g>
<!-- Node22 -->
<g id="node47" class="node"><title>Node22</title>
<polygon fill="none" stroke="#bfbfbf" points="145,-58.5 145,-79.5 201,-79.5 201,-58.5 145,-58.5"/>
<text text-anchor="middle" x="173" y="-66.5" font-family="FreeSans.ttf" font-size="10.00">stdarg.h</text>
</g>
<!-- Node18&#45;&gt;Node22 -->
<g id="edge50" class="edge"><title>Node18&#45;&gt;Node22</title>
<path fill="none" stroke="midnightblue" d="M173,-116.362C173,-108.922 173,-98.7427 173,-89.7276"/>
<polygon fill="midnightblue" stroke="midnightblue" points="176.5,-89.5706 173,-79.5707 169.5,-89.5707 176.5,-89.5706"/>
</g>
<!-- Node23&#45;&gt;Node8 -->
<g id="edge58" class="edge"><title>Node23&#45;&gt;Node8</title>
<path fill="none" stroke="midnightblue" d="M431.947,-348.362C427.528,-340.595 421.41,-329.843 416.121,-320.546"/>
<polygon fill="midnightblue" stroke="midnightblue" points="419.002,-318.531 411.014,-311.571 412.918,-321.993 419.002,-318.531"/>
</g>
<!-- Node23&#45;&gt;Node9 -->
<g id="edge56" class="edge"><title>Node23&#45;&gt;Node9</title>
<path fill="none" stroke="midnightblue" d="M444.138,-348.405C458.392,-323.097 493.403,-256.706 505,-196 508.056,-180.004 506.747,-161.575 504.843,-147.789"/>
<polygon fill="midnightblue" stroke="midnightblue" points="508.291,-147.188 503.26,-137.864 501.379,-148.29 508.291,-147.188"/>
</g>
<!-- Node24&#45;&gt;Node9 -->
<g id="edge62" class="edge"><title>Node24&#45;&gt;Node9</title>
<path fill="none" stroke="midnightblue" d="M579.392,-174.362C564.777,-165.532 543.776,-152.844 527.189,-142.822"/>
<polygon fill="midnightblue" stroke="midnightblue" points="528.865,-139.746 518.496,-137.571 525.246,-145.738 528.865,-139.746"/>
</g>
<!-- Node24&#45;&gt;Node11 -->
<g id="edge64" class="edge"><title>Node24&#45;&gt;Node11</title>
<path fill="none" stroke="midnightblue" d="M589.144,-174.134C578.223,-159.573 557.269,-133.536 535,-116 518.877,-103.304 498.842,-92.2167 482.063,-84.0041"/>
<polygon fill="midnightblue" stroke="midnightblue" points="483.149,-80.6448 472.615,-79.5105 480.142,-86.9663 483.149,-80.6448"/>
</g>
<!-- Node25 -->
<g id="node58" class="node"><title>Node25</title>
<polygon fill="none" stroke="#bfbfbf" points="581.5,-116.5 581.5,-137.5 632.5,-137.5 632.5,-116.5 581.5,-116.5"/>
<text text-anchor="middle" x="607" y="-124.5" font-family="FreeSans.ttf" font-size="10.00">stdlib.h</text>
</g>
<!-- Node24&#45;&gt;Node25 -->
<g id="edge66" class="edge"><title>Node24&#45;&gt;Node25</title>
<path fill="none" stroke="midnightblue" d="M598.834,-174.362C600.131,-166.84 601.911,-156.519 603.477,-147.431"/>
<polygon fill="midnightblue" stroke="midnightblue" points="606.927,-148.02 605.177,-137.571 600.029,-146.831 606.927,-148.02"/>
</g>
</g>
</svg>
        <g id="navigator" transform="translate(0 0)" fill="#404254">
                <rect fill="#f2f5e9" fill-opacity="0.5" stroke="#606060" stroke-width=".5" x="0" y="0" width="60" height="60"/>
                <use id="zoomplus" xlink:href="#zoomPlus" x="17" y="9" onmousedown="handleZoom(evt,'in')"/>
                <use id="zoomminus" xlink:href="#zoomMin" x="42" y="9" onmousedown="handleZoom(evt,'out')"/>
                <use id="reset" xlink:href="#resetDef" x="30" y="36" onmousedown="handleReset()"/>
                <g id="arrowUp" xlink:href="#dirArrow" transform="translate(30 24)" onmousedown="handlePan(0,-1)">
                  <use xlink:href="#rim" fill="#404040">
                        <set attributeName="fill" to="#808080" begin="arrowUp.mouseover" end="arrowUp.mouseout"/>
                  </use>
                  <path fill="none" stroke="white" stroke-width="1.5" d="M0,-3.0v7 M-2.5,-0.5L0,-3.0L2.5,-0.5"/>
                </g>
                <g id="arrowRight" xlink:href="#dirArrow" transform="rotate(90) translate(36 -43)" onmousedown="handlePan(1,0)">
                  <use xlink:href="#rim" fill="#404040">
                        <set attributeName="fill" to="#808080" begin="arrowRight.mouseover" end="arrowRight.mouseout"/>
                  </use>
                  <path fill="none" stroke="white" stroke-width="1.5" d="M0,-3.0v7 M-2.5,-0.5L0,-3.0L2.5,-0.5"/>
                </g>
                <g id="arrowDown" xlink:href="#dirArrow" transform="rotate(180) translate(-30 -48)" onmousedown="handlePan(0,1)">
                  <use xlink:href="#rim" fill="#404040">
                        <set attributeName="fill" to="#808080" begin="arrowDown.mouseover" end="arrowDown.mouseout"/>
                  </use>
                  <path fill="none" stroke="white" stroke-width="1.5" d="M0,-3.0v7 M-2.5,-0.5L0,-3.0L2.5,-0.5"/>
                </g>
                <g id="arrowLeft" xlink:href="#dirArrow" transform="rotate(270) translate(-36 17)" onmousedown="handlePan(-1,0)">
                  <use xlink:href="#rim" fill="#404040">
                        <set attributeName="fill" to="#808080" begin="arrowLeft.mouseover" end="arrowLeft.mouseout"/>
                  </use>
                  <path fill="none" stroke="white" stroke-width="1.5" d="M0,-3.0v7 M-2.5,-0.5L0,-3.0L2.5,-0.5"/>
                </g>
        </g>
</svg>
