<?xml version="1.0" encoding="UTF-8" standalone="no"?>
<!DOCTYPE svg PUBLIC "-//W3C//DTD SVG 1.1//EN"
 "http://www.w3.org/Graphics/SVG/1.1/DTD/svg11.dtd">
<!-- Generated by graphviz version 2.26.3 (20100126.1600)
 -->
<!-- Title: G Pages: 1 -->
<!--zoomable 436 -->
<svg id="main" version="1.1" xmlns="http://www.w3.org/2000/svg" xmlns:xlink="http://www.w3.org/1999/xlink" xml:space="preserve" onload="init(evt)">
        <defs>
                <circle id="rim" cx="0" cy="0" r="7"/>
                <circle id="rim2" cx="0" cy="0" r="3.5"/>
                <g id="zoomPlus">
                        <use xlink:href="#rim" fill="#404040">
                                <set attributeName="fill" to="#808080" begin="zoomplus.mouseover" end="zoomplus.mouseout"/>
                        </use>
                        <path d="M-4,0h8M0,-4v8" fill="none" stroke="white" stroke-width="1.5" pointer-events="none"/>
                </g>
                <g id="zoomMin">
                        <use xlink:href="#rim" fill="#404040">
                                <set attributeName="fill" to="#808080" begin="zoomminus.mouseover" end="zoomminus.mouseout"/>
                        </use>
                        <path d="M-4,0h8" fill="none" stroke="white" stroke-width="1.5" pointer-events="none"/>
                </g>
                <g id="dirArrow">
                        <path fill="none" stroke="white" stroke-width="1.5" d="M0,-3.0v7 M-2.5,-0.5L0,-3.0L2.5,-0.5"/>
                </g>
               <g id="resetDef">
                       <use xlink:href="#rim2" fill="#404040">
                               <set attributeName="fill" to="#808080" begin="reset.mouseover" end="reset.mouseout"/>
                       </use>
               </g>
        </defs>

<script type="text/javascript">
var viewWidth = 1008;
var viewHeight = 436;
var sectionId = 'dynsection-0';
</script>
<script xlink:href="svgpan.js"/>
<svg id="graph" class="graph">
<g id="viewport">
<title>G</title>
<!-- Node1 -->
<g id="node1" class="node"><title>Node1</title>
<polygon fill="#bfbfbf" stroke="black" points="197.5,-406.5 197.5,-427.5 400.5,-427.5 400.5,-406.5 197.5,-406.5"/>
<text text-anchor="middle" x="299" y="-414.5" font-family="FreeSans.ttf" font-size="10.00">core/assignment/assignmentOptimal.h</text>
</g>
<!-- Node2 -->
<g id="node3" class="node"><title>Node2</title>
<polygon fill="none" stroke="#bfbfbf" points="453.5,-58.5 453.5,-79.5 506.5,-79.5 506.5,-58.5 453.5,-58.5"/>
<text text-anchor="middle" x="480" y="-66.5" font-family="FreeSans.ttf" font-size="10.00">stdint.h</text>
</g>
<!-- Node1&#45;&gt;Node2 -->
<g id="edge2" class="edge"><title>Node1&#45;&gt;Node2</title>
<path fill="none" stroke="midnightblue" d="M304.615,-406.203C330.217,-356.981 436.069,-153.465 469.696,-88.8101"/>
<polygon fill="midnightblue" stroke="midnightblue" points="472.941,-90.1574 474.45,-79.6706 466.731,-86.9274 472.941,-90.1574"/>
</g>
<!-- Node3 -->
<g id="node5" class="node"><title>Node3</title>
<a xlink:href="global_8h.html" target="_top" xlink:title="This file holds the global includes, mostly for debuging, tracing and profiling.">
<polygon fill="none" stroke="black" points="194,-58.5 194,-79.5 248,-79.5 248,-58.5 194,-58.5"/>
<text text-anchor="middle" x="221" y="-66.5" font-family="FreeSans.ttf" font-size="10.00">global.h</text>
</a>
</g>
<!-- Node1&#45;&gt;Node3 -->
<g id="edge4" class="edge"><title>Node1&#45;&gt;Node3</title>
<path fill="none" stroke="midnightblue" d="M239.57,-406.44C152.372,-389.23 0,-351.877 0,-301 0,-301 0,-301 0,-185 0,-103.075 120.538,-78.8887 183.573,-71.8416"/>
<polygon fill="midnightblue" stroke="midnightblue" points="184.31,-75.2845 193.901,-70.7828 183.596,-68.321 184.31,-75.2845"/>
</g>
<!-- Node5 -->
<g id="node9" class="node"><title>Node5</title>
<a xlink:href="abstractBuffer_8h.html" target="_top" xlink:title="a header for AbstractBuffer.cpp">
<polygon fill="none" stroke="black" points="500.5,-348.5 500.5,-369.5 593.5,-369.5 593.5,-348.5 500.5,-348.5"/>
<text text-anchor="middle" x="547" y="-356.5" font-family="FreeSans.ttf" font-size="10.00">abstractBuffer.h</text>
</a>
</g>
<!-- Node1&#45;&gt;Node5 -->
<g id="edge8" class="edge"><title>Node1&#45;&gt;Node5</title>
<path fill="none" stroke="midnightblue" d="M343.911,-406.497C385.567,-396.755 447.66,-382.233 492.213,-371.813"/>
<polygon fill="midnightblue" stroke="midnightblue" points="493.065,-375.208 502.005,-369.523 491.471,-368.392 493.065,-375.208"/>
</g>
<!-- Node4 -->
<g id="node7" class="node"><title>Node4</title>
<polygon fill="none" stroke="#bfbfbf" points="189,-0.5 189,-21.5 253,-21.5 253,-0.5 189,-0.5"/>
<text text-anchor="middle" x="221" y="-8.5" font-family="FreeSans.ttf" font-size="10.00">inttypes.h</text>
</g>
<!-- Node3&#45;&gt;Node4 -->
<g id="edge6" class="edge"><title>Node3&#45;&gt;Node4</title>
<path fill="none" stroke="midnightblue" d="M221,-58.3619C221,-50.9219 221,-40.7427 221,-31.7276"/>
<polygon fill="midnightblue" stroke="midnightblue" points="224.5,-31.5706 221,-21.5707 217.5,-31.5707 224.5,-31.5706"/>
</g>
<!-- Node5&#45;&gt;Node2 -->
<g id="edge10" class="edge"><title>Node5&#45;&gt;Node2</title>
<path fill="none" stroke="midnightblue" d="M533.237,-348.234C523.284,-339.597 510.49,-326.543 504,-312 470.064,-235.95 474.078,-133.526 477.782,-89.9868"/>
<polygon fill="midnightblue" stroke="midnightblue" points="481.29,-90.0697 478.741,-79.7862 474.321,-89.4149 481.29,-90.0697"/>
</g>
<!-- Node5&#45;&gt;Node3 -->
<g id="edge20" class="edge"><title>Node5&#45;&gt;Node3</title>
<path fill="none" stroke="midnightblue" d="M500.365,-350.605C417.957,-333.788 244.586,-289.3 131,-196 99.6435,-170.244 63.5306,-149.103 87,-116 98.4528,-99.8461 148.297,-85.4585 183.841,-76.9814"/>
<polygon fill="midnightblue" stroke="midnightblue" points="184.948,-80.3176 193.898,-74.6478 183.366,-73.4987 184.948,-80.3176"/>
</g>
<!-- Node6 -->
<g id="node12" class="node"><title>Node6</title>
<polygon fill="none" stroke="#bfbfbf" points="880.5,-58.5 880.5,-79.5 929.5,-79.5 929.5,-58.5 880.5,-58.5"/>
<text text-anchor="middle" x="905" y="-66.5" font-family="FreeSans.ttf" font-size="10.00">stdio.h</text>
</g>
<!-- Node5&#45;&gt;Node6 -->
<g id="edge12" class="edge"><title>Node5&#45;&gt;Node6</title>
<path fill="none" stroke="midnightblue" d="M593.564,-356.249C696.153,-349.837 934.965,-332.844 965,-312 993.25,-292.395 1000,-277.386 1000,-243 1000,-243 1000,-243 1000,-185 1000,-141.546 959.605,-105.439 931.496,-85.5737"/>
<polygon fill="midnightblue" stroke="midnightblue" points="933.106,-82.4357 922.869,-79.7061 929.169,-88.224 933.106,-82.4357"/>
</g>
<!-- Node7 -->
<g id="node14" class="node"><title>Node7</title>
<polygon fill="none" stroke="#bfbfbf" points="718,-58.5 718,-79.5 774,-79.5 774,-58.5 718,-58.5"/>
<text text-anchor="middle" x="746" y="-66.5" font-family="FreeSans.ttf" font-size="10.00">stdarg.h</text>
</g>
<!-- Node5&#45;&gt;Node7 -->
<g id="edge14" class="edge"><title>Node5&#45;&gt;Node7</title>
<path fill="none" stroke="midnightblue" d="M589.021,-348.419C638.056,-334.2 719.03,-304.671 771,-254 818.636,-207.555 862.505,-173.477 829,-116 819.17,-99.1375 800.797,-87.8393 783.832,-80.5562"/>
<polygon fill="midnightblue" stroke="midnightblue" points="784.668,-77.124 774.081,-76.7203 782.105,-83.6382 784.668,-77.124"/>
</g>
<!-- Node8 -->
<g id="node16" class="node"><title>Node8</title>
<polygon fill="none" stroke="#bfbfbf" points="810,-58.5 810,-79.5 854,-79.5 854,-58.5 810,-58.5"/>
<text text-anchor="middle" x="832" y="-66.5" font-family="FreeSans.ttf" font-size="10.00">string</text>
</g>
<!-- Node5&#45;&gt;Node8 -->
<g id="edge16" class="edge"><title>Node5&#45;&gt;Node8</title>
<path fill="none" stroke="midnightblue" d="M593.642,-356.364C692.646,-350.359 916.915,-334.426 943,-312 967.12,-291.264 962,-274.808 962,-243 962,-243 962,-243 962,-185 962,-132.297 901.781,-97.6002 863.314,-80.8124"/>
<polygon fill="midnightblue" stroke="midnightblue" points="864.628,-77.5683 854.053,-76.9301 861.922,-84.0241 864.628,-77.5683"/>
</g>
<!-- Node9 -->
<g id="node18" class="node"><title>Node9</title>
<polygon fill="none" stroke="#bfbfbf" points="773.5,-290.5 773.5,-311.5 836.5,-311.5 836.5,-290.5 773.5,-290.5"/>
<text text-anchor="middle" x="805" y="-298.5" font-family="FreeSans.ttf" font-size="10.00">functional</text>
</g>
<!-- Node5&#45;&gt;Node9 -->
<g id="edge18" class="edge"><title>Node5&#45;&gt;Node9</title>
<path fill="none" stroke="midnightblue" d="M593.606,-349.033C636.804,-339.719 702.829,-325.293 760,-312 761.058,-311.754 762.129,-311.504 763.209,-311.25"/>
<polygon fill="midnightblue" stroke="midnightblue" points="764.147,-314.624 773.063,-308.901 762.524,-307.815 764.147,-314.624"/>
</g>
<!-- Node10 -->
<g id="node21" class="node"><title>Node10</title>
<a xlink:href="vector2d_8h.html" target="_top" xlink:title="Add Comment Here.">
<polygon fill="none" stroke="black" points="513,-290.5 513,-311.5 581,-311.5 581,-290.5 513,-290.5"/>
<text text-anchor="middle" x="547" y="-298.5" font-family="FreeSans.ttf" font-size="10.00">vector2d.h</text>
</a>
</g>
<!-- Node5&#45;&gt;Node10 -->
<g id="edge22" class="edge"><title>Node5&#45;&gt;Node10</title>
<path fill="none" stroke="midnightblue" d="M547,-348.362C547,-340.922 547,-330.743 547,-321.728"/>
<polygon fill="midnightblue" stroke="midnightblue" points="550.5,-321.571 547,-311.571 543.5,-321.571 550.5,-321.571"/>
</g>
<!-- Node19 -->
<g id="node49" class="node"><title>Node19</title>
<a xlink:href="memoryBlock_8h.html" target="_top" xlink:title="Add Comment Here.">
<polygon fill="none" stroke="black" points="139.5,-174.5 139.5,-195.5 274.5,-195.5 274.5,-174.5 139.5,-174.5"/>
<text text-anchor="middle" x="207" y="-182.5" font-family="FreeSans.ttf" font-size="10.00">memory/memoryBlock.h</text>
</a>
</g>
<!-- Node5&#45;&gt;Node19 -->
<g id="edge60" class="edge"><title>Node5&#45;&gt;Node19</title>
<path fill="none" stroke="midnightblue" d="M511.183,-348.455C484.167,-339.978 446.506,-327.03 415,-312 344.47,-278.354 267.444,-227.153 230.007,-201.24"/>
<polygon fill="midnightblue" stroke="midnightblue" points="231.996,-198.36 221.79,-195.517 227.996,-204.104 231.996,-198.36"/>
</g>
<!-- Node23 -->
<g id="node59" class="node"><title>Node23</title>
<a xlink:href="tbbWrapper_8h.html" target="_top" xlink:title="This is a class that provides common TBB interface.">
<polygon fill="none" stroke="black" points="854,-290.5 854,-311.5 934,-311.5 934,-290.5 854,-290.5"/>
<text text-anchor="middle" x="894" y="-298.5" font-family="FreeSans.ttf" font-size="10.00">tbbWrapper.h</text>
</a>
</g>
<!-- Node5&#45;&gt;Node23 -->
<g id="edge72" class="edge"><title>Node5&#45;&gt;Node23</title>
<path fill="none" stroke="midnightblue" d="M593.616,-352.596C650.398,-344.586 749.448,-329.937 843.922,-312.119"/>
<polygon fill="midnightblue" stroke="midnightblue" points="844.762,-315.522 853.932,-310.215 843.455,-308.645 844.762,-315.522"/>
</g>
<!-- Node25 -->
<g id="node63" class="node"><title>Node25</title>
<a xlink:href="mathUtils_8h.html" target="_top" xlink:title="Add Comment Here.">
<polygon fill="none" stroke="black" points="304,-174.5 304,-195.5 376,-195.5 376,-174.5 304,-174.5"/>
<text text-anchor="middle" x="340" y="-182.5" font-family="FreeSans.ttf" font-size="10.00">mathUtils.h</text>
</a>
</g>
<!-- Node5&#45;&gt;Node25 -->
<g id="edge76" class="edge"><title>Node5&#45;&gt;Node25</title>
<path fill="none" stroke="midnightblue" d="M506.499,-348.428C484.106,-341.036 456.879,-329.333 437,-312 405.747,-284.75 414.857,-264.415 389,-232 380.586,-221.452 369.899,-210.939 360.655,-202.54"/>
<polygon fill="midnightblue" stroke="midnightblue" points="362.802,-199.766 352.996,-195.755 358.16,-205.006 362.802,-199.766"/>
</g>
<!-- Node10&#45;&gt;Node2 -->
<g id="edge26" class="edge"><title>Node10&#45;&gt;Node2</title>
<path fill="none" stroke="midnightblue" d="M543.933,-290.145C535.858,-261.597 513.302,-182.063 494,-116 491.476,-107.363 488.65,-97.8466 486.202,-89.6493"/>
<polygon fill="midnightblue" stroke="midnightblue" points="489.479,-88.3932 483.257,-79.8177 482.774,-90.4015 489.479,-88.3932"/>
</g>
<!-- Node10&#45;&gt;Node3 -->
<g id="edge28" class="edge"><title>Node10&#45;&gt;Node3</title>
<path fill="none" stroke="midnightblue" d="M539.274,-290.053C516.377,-258.393 445.437,-165.819 365,-116 331.656,-95.3485 288.29,-82.8075 257.896,-75.9361"/>
<polygon fill="midnightblue" stroke="midnightblue" points="258.633,-72.5147 248.118,-73.8196 257.152,-79.3562 258.633,-72.5147"/>
</g>
<!-- Node11 -->
<g id="node23" class="node"><title>Node11</title>
<polygon fill="none" stroke="#bfbfbf" points="545.5,-116.5 545.5,-137.5 596.5,-137.5 596.5,-116.5 545.5,-116.5"/>
<text text-anchor="middle" x="571" y="-124.5" font-family="FreeSans.ttf" font-size="10.00">math.h</text>
</g>
<!-- Node10&#45;&gt;Node11 -->
<g id="edge24" class="edge"><title>Node10&#45;&gt;Node11</title>
<path fill="none" stroke="midnightblue" d="M548.465,-290.377C552.339,-262.293 562.907,-185.673 568.075,-148.203"/>
<polygon fill="midnightblue" stroke="midnightblue" points="571.593,-148.312 569.493,-137.928 564.659,-147.356 571.593,-148.312"/>
</g>
<!-- Node12 -->
<g id="node27" class="node"><title>Node12</title>
<a xlink:href="fixedVector_8h.html" target="_top" xlink:title="This file holds the description of the commonly used template &#45; a vector with the fixed number of com...">
<polygon fill="none" stroke="black" points="684,-232.5 684,-253.5 762,-253.5 762,-232.5 684,-232.5"/>
<text text-anchor="middle" x="723" y="-240.5" font-family="FreeSans.ttf" font-size="10.00">fixedVector.h</text>
</a>
</g>
<!-- Node10&#45;&gt;Node12 -->
<g id="edge30" class="edge"><title>Node10&#45;&gt;Node12</title>
<path fill="none" stroke="midnightblue" d="M578.872,-290.497C607.565,-281.041 649.921,-267.083 681.298,-256.743"/>
<polygon fill="midnightblue" stroke="midnightblue" points="682.666,-259.977 691.068,-253.523 680.475,-253.329 682.666,-259.977"/>
</g>
<!-- Node12&#45;&gt;Node6 -->
<g id="edge32" class="edge"><title>Node12&#45;&gt;Node6</title>
<path fill="none" stroke="midnightblue" d="M739.472,-232.455C766.005,-214.96 818.974,-177.889 856,-138 870.267,-122.63 883.857,-102.949 893.09,-88.5428"/>
<polygon fill="midnightblue" stroke="midnightblue" points="896.141,-90.2664 898.492,-79.9357 890.212,-86.5454 896.141,-90.2664"/>
</g>
<!-- Node13 -->
<g id="node30" class="node"><title>Node13</title>
<a xlink:href="vectorOperations_8h.html" target="_top" xlink:title="This file holds the operations that are commonly used with continuous linear data structures such as ...">
<polygon fill="none" stroke="black" points="669,-174.5 669,-195.5 777,-195.5 777,-174.5 669,-174.5"/>
<text text-anchor="middle" x="723" y="-182.5" font-family="FreeSans.ttf" font-size="10.00">vectorOperations.h</text>
</a>
</g>
<!-- Node12&#45;&gt;Node13 -->
<g id="edge34" class="edge"><title>Node12&#45;&gt;Node13</title>
<path fill="none" stroke="midnightblue" d="M723,-232.362C723,-224.922 723,-214.743 723,-205.728"/>
<polygon fill="midnightblue" stroke="midnightblue" points="726.5,-205.571 723,-195.571 719.5,-205.571 726.5,-205.571"/>
</g>
<!-- Node13&#45;&gt;Node6 -->
<g id="edge40" class="edge"><title>Node13&#45;&gt;Node6</title>
<path fill="none" stroke="midnightblue" d="M753.554,-174.445C775.475,-166.175 805.215,-153.49 829,-138 851.176,-123.558 873.198,-102.653 887.782,-87.6428"/>
<polygon fill="midnightblue" stroke="midnightblue" points="890.71,-89.6435 895.073,-79.9887 885.642,-84.8154 890.71,-89.6435"/>
</g>
<!-- Node13&#45;&gt;Node11 -->
<g id="edge42" class="edge"><title>Node13&#45;&gt;Node11</title>
<path fill="none" stroke="midnightblue" d="M695.474,-174.497C670.482,-164.96 633.488,-150.844 606.324,-140.479"/>
<polygon fill="midnightblue" stroke="midnightblue" points="607.392,-137.14 596.801,-136.845 604.896,-143.68 607.392,-137.14"/>
</g>
<!-- Node14 -->
<g id="node32" class="node"><title>Node14</title>
<polygon fill="none" stroke="#bfbfbf" points="702,-116.5 702,-137.5 744,-137.5 744,-116.5 702,-116.5"/>
<text text-anchor="middle" x="723" y="-124.5" font-family="FreeSans.ttf" font-size="10.00">limits</text>
</g>
<!-- Node13&#45;&gt;Node14 -->
<g id="edge36" class="edge"><title>Node13&#45;&gt;Node14</title>
<path fill="none" stroke="midnightblue" d="M723,-174.362C723,-166.922 723,-156.743 723,-147.728"/>
<polygon fill="midnightblue" stroke="midnightblue" points="726.5,-147.571 723,-137.571 719.5,-147.571 726.5,-147.571"/>
</g>
<!-- Node15 -->
<g id="node34" class="node"><title>Node15</title>
<polygon fill="none" stroke="#bfbfbf" points="761.5,-116.5 761.5,-137.5 820.5,-137.5 820.5,-116.5 761.5,-116.5"/>
<text text-anchor="middle" x="791" y="-124.5" font-family="FreeSans.ttf" font-size="10.00">iostream</text>
</g>
<!-- Node13&#45;&gt;Node15 -->
<g id="edge38" class="edge"><title>Node13&#45;&gt;Node15</title>
<path fill="none" stroke="midnightblue" d="M735.472,-174.362C745.345,-165.941 759.333,-154.011 770.798,-144.231"/>
<polygon fill="midnightblue" stroke="midnightblue" points="773.27,-146.723 778.607,-137.571 768.727,-141.397 773.27,-146.723"/>
</g>
<!-- Node16 -->
<g id="node38" class="node"><title>Node16</title>
<a xlink:href="reflection_8h.html" target="_top" xlink:title="a header for Reflection.c">
<polygon fill="none" stroke="black" points="614,-116.5 614,-137.5 684,-137.5 684,-116.5 614,-116.5"/>
<text text-anchor="middle" x="649" y="-124.5" font-family="FreeSans.ttf" font-size="10.00">reflection.h</text>
</a>
</g>
<!-- Node13&#45;&gt;Node16 -->
<g id="edge44" class="edge"><title>Node13&#45;&gt;Node16</title>
<path fill="none" stroke="midnightblue" d="M709.427,-174.362C698.579,-165.859 683.166,-153.779 670.621,-143.947"/>
<polygon fill="midnightblue" stroke="midnightblue" points="672.516,-140.985 662.487,-137.571 668.198,-146.494 672.516,-140.985"/>
</g>
<!-- Node16&#45;&gt;Node2 -->
<g id="edge54" class="edge"><title>Node16&#45;&gt;Node2</title>
<path fill="none" stroke="midnightblue" d="M618.395,-116.497C589.767,-106.671 546.972,-91.9846 516.56,-81.5471"/>
<polygon fill="midnightblue" stroke="midnightblue" points="517.354,-78.1192 506.759,-78.1835 515.081,-84.7402 517.354,-78.1192"/>
</g>
<!-- Node16&#45;&gt;Node3 -->
<g id="edge58" class="edge"><title>Node16&#45;&gt;Node3</title>
<path fill="none" stroke="midnightblue" d="M613.541,-117.737C610.66,-117.106 607.787,-116.517 605,-116 479.004,-92.6318 327.521,-77.9894 258.526,-72.0462"/>
<polygon fill="midnightblue" stroke="midnightblue" points="258.438,-68.5262 248.177,-71.1671 257.845,-75.5011 258.438,-68.5262"/>
</g>
<!-- Node16&#45;&gt;Node6 -->
<g id="edge52" class="edge"><title>Node16&#45;&gt;Node6</title>
<path fill="none" stroke="midnightblue" d="M684.037,-118.119C687.065,-117.388 690.085,-116.673 693,-116 768.253,-98.6315 787.845,-97.7886 863,-80 865.439,-79.4227 867.953,-78.8099 870.481,-78.1804"/>
<polygon fill="midnightblue" stroke="midnightblue" points="871.349,-81.5711 880.175,-75.7102 869.62,-74.7879 871.349,-81.5711"/>
</g>
<!-- Node16&#45;&gt;Node7 -->
<g id="edge56" class="edge"><title>Node16&#45;&gt;Node7</title>
<path fill="none" stroke="midnightblue" d="M666.791,-116.362C681.559,-107.532 702.778,-94.844 719.538,-84.8224"/>
<polygon fill="midnightblue" stroke="midnightblue" points="721.535,-87.7066 728.321,-79.5707 717.943,-81.6987 721.535,-87.7066"/>
</g>
<!-- Node16&#45;&gt;Node8 -->
<g id="edge48" class="edge"><title>Node16&#45;&gt;Node8</title>
<path fill="none" stroke="midnightblue" d="M682.14,-116.497C715.65,-105.876 767.084,-89.5746 800.131,-79.1004"/>
<polygon fill="midnightblue" stroke="midnightblue" points="801.282,-82.4074 809.757,-76.0497 799.167,-75.7346 801.282,-82.4074"/>
</g>
<!-- Node17 -->
<g id="node40" class="node"><title>Node17</title>
<polygon fill="none" stroke="#bfbfbf" points="639.5,-58.5 639.5,-79.5 686.5,-79.5 686.5,-58.5 639.5,-58.5"/>
<text text-anchor="middle" x="663" y="-66.5" font-family="FreeSans.ttf" font-size="10.00">vector</text>
</g>
<!-- Node16&#45;&gt;Node17 -->
<g id="edge46" class="edge"><title>Node16&#45;&gt;Node17</title>
<path fill="none" stroke="midnightblue" d="M651.568,-116.362C653.383,-108.84 655.875,-98.5187 658.068,-89.4308"/>
<polygon fill="midnightblue" stroke="midnightblue" points="661.504,-90.1127 660.448,-79.5707 654.7,-88.4702 661.504,-90.1127"/>
</g>
<!-- Node18 -->
<g id="node43" class="node"><title>Node18</title>
<polygon fill="none" stroke="#bfbfbf" points="569.5,-58.5 569.5,-79.5 622.5,-79.5 622.5,-58.5 569.5,-58.5"/>
<text text-anchor="middle" x="596" y="-66.5" font-family="FreeSans.ttf" font-size="10.00">string.h</text>
</g>
<!-- Node16&#45;&gt;Node18 -->
<g id="edge50" class="edge"><title>Node16&#45;&gt;Node18</title>
<path fill="none" stroke="midnightblue" d="M639.279,-116.362C631.808,-108.186 621.314,-96.7025 612.531,-87.0907"/>
<polygon fill="midnightblue" stroke="midnightblue" points="614.989,-84.5918 605.659,-79.5707 609.821,-89.3138 614.989,-84.5918"/>
</g>
<!-- Node19&#45;&gt;Node2 -->
<g id="edge64" class="edge"><title>Node19&#45;&gt;Node2</title>
<path fill="none" stroke="midnightblue" d="M215.026,-174.295C227.139,-158.933 251.605,-130.856 279,-116 331.711,-87.4148 401.383,-76.1181 443.328,-71.7218"/>
<polygon fill="midnightblue" stroke="midnightblue" points="443.752,-75.1971 453.367,-70.7464 443.075,-68.2299 443.752,-75.1971"/>
</g>
<!-- Node19&#45;&gt;Node3 -->
<g id="edge68" class="edge"><title>Node19&#45;&gt;Node3</title>
<path fill="none" stroke="midnightblue" d="M157.52,-174.418C118.97,-163.743 75.0719,-144.703 95,-116 105.468,-100.923 150.609,-86.6361 183.882,-77.8566"/>
<polygon fill="midnightblue" stroke="midnightblue" points="184.962,-81.193 193.776,-75.314 183.219,-74.4133 184.962,-81.193"/>
</g>
<!-- Node20 -->
<g id="node51" class="node"><title>Node20</title>
<polygon fill="none" stroke="#bfbfbf" points="103.5,-116.5 103.5,-137.5 138.5,-137.5 138.5,-116.5 103.5,-116.5"/>
<text text-anchor="middle" x="121" y="-124.5" font-family="FreeSans.ttf" font-size="10.00">new</text>
</g>
<!-- Node19&#45;&gt;Node20 -->
<g id="edge62" class="edge"><title>Node19&#45;&gt;Node20</title>
<path fill="none" stroke="midnightblue" d="M191.226,-174.362C178.376,-165.696 160.015,-153.313 145.29,-143.382"/>
<polygon fill="midnightblue" stroke="midnightblue" points="146.921,-140.26 136.674,-137.571 143.007,-146.064 146.921,-140.26"/>
</g>
<!-- Node21 -->
<g id="node54" class="node"><title>Node21</title>
<polygon fill="none" stroke="#bfbfbf" points="287.5,-116.5 287.5,-137.5 338.5,-137.5 338.5,-116.5 287.5,-116.5"/>
<text text-anchor="middle" x="313" y="-124.5" font-family="FreeSans.ttf" font-size="10.00">stdlib.h</text>
</g>
<!-- Node19&#45;&gt;Node21 -->
<g id="edge66" class="edge"><title>Node19&#45;&gt;Node21</title>
<path fill="none" stroke="midnightblue" d="M226.442,-174.362C242.804,-165.409 266.413,-152.491 284.843,-142.406"/>
<polygon fill="midnightblue" stroke="midnightblue" points="286.589,-145.441 293.681,-137.571 283.229,-139.3 286.589,-145.441"/>
</g>
<!-- Node22 -->
<g id="node57" class="node"><title>Node22</title>
<a xlink:href="atomicOps_8h.html" target="_top" xlink:title="atomicOps.h">
<polygon fill="none" stroke="black" points="155.5,-116.5 155.5,-137.5 232.5,-137.5 232.5,-116.5 155.5,-116.5"/>
<text text-anchor="middle" x="194" y="-124.5" font-family="FreeSans.ttf" font-size="10.00">atomicOps.h</text>
</a>
</g>
<!-- Node19&#45;&gt;Node22 -->
<g id="edge70" class="edge"><title>Node19&#45;&gt;Node22</title>
<path fill="none" stroke="midnightblue" d="M204.616,-174.362C202.93,-166.84 200.616,-156.519 198.579,-147.431"/>
<polygon fill="midnightblue" stroke="midnightblue" points="201.972,-146.563 196.369,-137.571 195.141,-148.094 201.972,-146.563"/>
</g>
<!-- Node24 -->
<g id="node61" class="node"><title>Node24</title>
<polygon fill="none" stroke="#bfbfbf" points="868,-232.5 868,-253.5 920,-253.5 920,-232.5 868,-232.5"/>
<text text-anchor="middle" x="894" y="-240.5" font-family="FreeSans.ttf" font-size="10.00">cstddef</text>
</g>
<!-- Node23&#45;&gt;Node24 -->
<g id="edge74" class="edge"><title>Node23&#45;&gt;Node24</title>
<path fill="none" stroke="midnightblue" d="M894,-290.362C894,-282.922 894,-272.743 894,-263.728"/>
<polygon fill="midnightblue" stroke="midnightblue" points="897.5,-263.571 894,-253.571 890.5,-263.571 897.5,-263.571"/>
</g>
<!-- Node25&#45;&gt;Node3 -->
<g id="edge80" class="edge"><title>Node25&#45;&gt;Node3</title>
<path fill="none" stroke="midnightblue" d="M345.164,-174.096C351.245,-159.493 359.086,-133.407 347,-116 336.532,-100.923 291.391,-86.6361 258.118,-77.8566"/>
<polygon fill="midnightblue" stroke="midnightblue" points="258.781,-74.4133 248.224,-75.314 257.038,-81.193 258.781,-74.4133"/>
</g>
<!-- Node25&#45;&gt;Node11 -->
<g id="edge78" class="edge"><title>Node25&#45;&gt;Node11</title>
<path fill="none" stroke="midnightblue" d="M376.094,-175.938C419.559,-165.024 492.104,-146.809 535.364,-135.948"/>
<polygon fill="midnightblue" stroke="midnightblue" points="536.327,-139.314 545.174,-133.485 534.622,-132.525 536.327,-139.314"/>
</g>
<!-- Node25&#45;&gt;Node21 -->
<g id="edge82" class="edge"><title>Node25&#45;&gt;Node21</title>
<path fill="none" stroke="midnightblue" d="M335.048,-174.362C331.47,-166.677 326.532,-156.069 322.236,-146.84"/>
<polygon fill="midnightblue" stroke="midnightblue" points="325.314,-145.159 317.921,-137.571 318.968,-148.114 325.314,-145.159"/>
</g>
</g>
</svg>
        <g id="navigator" transform="translate(0 0)" fill="#404254">
                <rect fill="#f2f5e9" fill-opacity="0.5" stroke="#606060" stroke-width=".5" x="0" y="0" width="60" height="60"/>
                <use id="zoomplus" xlink:href="#zoomPlus" x="17" y="9" onmousedown="handleZoom(evt,'in')"/>
                <use id="zoomminus" xlink:href="#zoomMin" x="42" y="9" onmousedown="handleZoom(evt,'out')"/>
                <use id="reset" xlink:href="#resetDef" x="30" y="36" onmousedown="handleReset()"/>
                <g id="arrowUp" xlink:href="#dirArrow" transform="translate(30 24)" onmousedown="handlePan(0,-1)">
                  <use xlink:href="#rim" fill="#404040">
                        <set attributeName="fill" to="#808080" begin="arrowUp.mouseover" end="arrowUp.mouseout"/>
                  </use>
                  <path fill="none" stroke="white" stroke-width="1.5" d="M0,-3.0v7 M-2.5,-0.5L0,-3.0L2.5,-0.5"/>
                </g>
                <g id="arrowRight" xlink:href="#dirArrow" transform="rotate(90) translate(36 -43)" onmousedown="handlePan(1,0)">
                  <use xlink:href="#rim" fill="#404040">
                        <set attributeName="fill" to="#808080" begin="arrowRight.mouseover" end="arrowRight.mouseout"/>
                  </use>
                  <path fill="none" stroke="white" stroke-width="1.5" d="M0,-3.0v7 M-2.5,-0.5L0,-3.0L2.5,-0.5"/>
                </g>
                <g id="arrowDown" xlink:href="#dirArrow" transform="rotate(180) translate(-30 -48)" onmousedown="handlePan(0,1)">
                  <use xlink:href="#rim" fill="#404040">
                        <set attributeName="fill" to="#808080" begin="arrowDown.mouseover" end="arrowDown.mouseout"/>
                  </use>
                  <path fill="none" stroke="white" stroke-width="1.5" d="M0,-3.0v7 M-2.5,-0.5L0,-3.0L2.5,-0.5"/>
                </g>
                <g id="arrowLeft" xlink:href="#dirArrow" transform="rotate(270) translate(-36 17)" onmousedown="handlePan(-1,0)">
                  <use xlink:href="#rim" fill="#404040">
                        <set attributeName="fill" to="#808080" begin="arrowLeft.mouseover" end="arrowLeft.mouseout"/>
                  </use>
                  <path fill="none" stroke="white" stroke-width="1.5" d="M0,-3.0v7 M-2.5,-0.5L0,-3.0L2.5,-0.5"/>
                </g>
        </g>
</svg>
