<?xml version="1.0" encoding="UTF-8" standalone="no"?>
<!DOCTYPE svg PUBLIC "-//W3C//DTD SVG 1.1//EN"
 "http://www.w3.org/Graphics/SVG/1.1/DTD/svg11.dtd">
<!-- Generated by graphviz version 2.26.3 (20100126.1600)
 -->
<!-- Title: G Pages: 1 -->
<svg width="473pt" height="262pt"
 viewBox="0.00 0.00 473.00 262.00" xmlns="http://www.w3.org/2000/svg" xmlns:xlink="http://www.w3.org/1999/xlink">
<g id="graph1" class="graph" transform="scale(1 1) rotate(0) translate(4 258)">
<title>G</title>
<!-- Node1 -->
<g id="node1" class="node"><title>Node1</title>
<polygon fill="#bfbfbf" stroke="black" points="37.5,-232.5 37.5,-253.5 294.5,-253.5 294.5,-232.5 37.5,-232.5"/>
<text text-anchor="middle" x="166" y="-240.5" font-family="FreeSans.ttf" font-size="10.00">core/xml/generated/backgroundFilterParameters.h</text>
</g>
<!-- Node2 -->
<g id="node3" class="node"><title>Node2</title>
<a xlink:href="reflection_8h.html" target="_top" xlink:title="a header for Reflection.c">
<polygon fill="none" stroke="black" points="156,-116.5 156,-137.5 226,-137.5 226,-116.5 156,-116.5"/>
<text text-anchor="middle" x="191" y="-124.5" font-family="FreeSans.ttf" font-size="10.00">reflection.h</text>
</a>
</g>
<!-- Node1&#45;&gt;Node2 -->
<g id="edge2" class="edge"><title>Node1&#45;&gt;Node2</title>
<path fill="none" stroke="midnightblue" d="M184.095,-232.386C196.182,-224.167 211.085,-211.57 218,-196 225.366,-179.412 216.411,-160.149 206.888,-146.199"/>
<polygon fill="midnightblue" stroke="midnightblue" points="209.484,-143.824 200.714,-137.88 203.863,-147.996 209.484,-143.824"/>
</g>
<!-- Node11 -->
<g id="node21" class="node"><title>Node11</title>
<a xlink:href="defaultSetter_8h.html" target="_top" xlink:title="defaultSetter.h">
<polygon fill="none" stroke="black" points="17,-174.5 17,-195.5 105,-195.5 105,-174.5 17,-174.5"/>
<text text-anchor="middle" x="61" y="-182.5" font-family="FreeSans.ttf" font-size="10.00">defaultSetter.h</text>
</a>
</g>
<!-- Node1&#45;&gt;Node11 -->
<g id="edge20" class="edge"><title>Node1&#45;&gt;Node11</title>
<path fill="none" stroke="midnightblue" d="M146.741,-232.362C130.534,-223.409 107.147,-210.491 88.8909,-200.406"/>
<polygon fill="midnightblue" stroke="midnightblue" points="90.5822,-197.342 80.1365,-195.571 87.1976,-203.47 90.5822,-197.342"/>
</g>
<!-- Node13 -->
<g id="node27" class="node"><title>Node13</title>
<a xlink:href="printerVisitor_8h.html" target="_top" xlink:title="printerVisitor.h">
<polygon fill="none" stroke="black" points="123,-174.5 123,-195.5 209,-195.5 209,-174.5 123,-174.5"/>
<text text-anchor="middle" x="166" y="-182.5" font-family="FreeSans.ttf" font-size="10.00">printerVisitor.h</text>
</a>
</g>
<!-- Node1&#45;&gt;Node13 -->
<g id="edge28" class="edge"><title>Node1&#45;&gt;Node13</title>
<path fill="none" stroke="midnightblue" d="M166,-232.362C166,-224.922 166,-214.743 166,-205.728"/>
<polygon fill="midnightblue" stroke="midnightblue" points="169.5,-205.571 166,-195.571 162.5,-205.571 169.5,-205.571"/>
</g>
<!-- Node3 -->
<g id="node5" class="node"><title>Node3</title>
<polygon fill="none" stroke="#bfbfbf" points="220.5,-58.5 220.5,-79.5 267.5,-79.5 267.5,-58.5 220.5,-58.5"/>
<text text-anchor="middle" x="244" y="-66.5" font-family="FreeSans.ttf" font-size="10.00">vector</text>
</g>
<!-- Node2&#45;&gt;Node3 -->
<g id="edge4" class="edge"><title>Node2&#45;&gt;Node3</title>
<path fill="none" stroke="midnightblue" d="M200.721,-116.362C208.192,-108.186 218.686,-96.7025 227.469,-87.0907"/>
<polygon fill="midnightblue" stroke="midnightblue" points="230.179,-89.3138 234.341,-79.5707 225.011,-84.5918 230.179,-89.3138"/>
</g>
<!-- Node4 -->
<g id="node7" class="node"><title>Node4</title>
<polygon fill="none" stroke="#bfbfbf" points="285,-58.5 285,-79.5 329,-79.5 329,-58.5 285,-58.5"/>
<text text-anchor="middle" x="307" y="-66.5" font-family="FreeSans.ttf" font-size="10.00">string</text>
</g>
<!-- Node2&#45;&gt;Node4 -->
<g id="edge6" class="edge"><title>Node2&#45;&gt;Node4</title>
<path fill="none" stroke="midnightblue" d="M212.007,-116.497C230.043,-107.479 256.27,-94.3649 276.599,-84.2006"/>
<polygon fill="midnightblue" stroke="midnightblue" points="278.379,-87.2239 285.758,-79.6212 275.248,-80.9629 278.379,-87.2239"/>
</g>
<!-- Node5 -->
<g id="node9" class="node"><title>Node5</title>
<polygon fill="none" stroke="#bfbfbf" points="346.5,-58.5 346.5,-79.5 399.5,-79.5 399.5,-58.5 346.5,-58.5"/>
<text text-anchor="middle" x="373" y="-66.5" font-family="FreeSans.ttf" font-size="10.00">string.h</text>
</g>
<!-- Node2&#45;&gt;Node5 -->
<g id="edge8" class="edge"><title>Node2&#45;&gt;Node5</title>
<path fill="none" stroke="midnightblue" d="M223.959,-116.497C255.801,-106.349 303.914,-91.0164 336.805,-80.5346"/>
<polygon fill="midnightblue" stroke="midnightblue" points="338.024,-83.8197 346.489,-77.4485 335.899,-77.1501 338.024,-83.8197"/>
</g>
<!-- Node6 -->
<g id="node11" class="node"><title>Node6</title>
<polygon fill="none" stroke="#bfbfbf" points="416.5,-58.5 416.5,-79.5 465.5,-79.5 465.5,-58.5 416.5,-58.5"/>
<text text-anchor="middle" x="441" y="-66.5" font-family="FreeSans.ttf" font-size="10.00">stdio.h</text>
</g>
<!-- Node2&#45;&gt;Node6 -->
<g id="edge10" class="edge"><title>Node2&#45;&gt;Node6</title>
<path fill="none" stroke="midnightblue" d="M226.237,-120.588C267.465,-112.818 337.922,-98.7142 406.553,-80.2185"/>
<polygon fill="midnightblue" stroke="midnightblue" points="407.496,-83.5892 416.222,-77.5797 405.653,-76.8361 407.496,-83.5892"/>
</g>
<!-- Node7 -->
<g id="node13" class="node"><title>Node7</title>
<polygon fill="none" stroke="#bfbfbf" points="76.5,-58.5 76.5,-79.5 129.5,-79.5 129.5,-58.5 76.5,-58.5"/>
<text text-anchor="middle" x="103" y="-66.5" font-family="FreeSans.ttf" font-size="10.00">stdint.h</text>
</g>
<!-- Node2&#45;&gt;Node7 -->
<g id="edge12" class="edge"><title>Node2&#45;&gt;Node7</title>
<path fill="none" stroke="midnightblue" d="M174.859,-116.362C161.586,-107.614 142.568,-95.0786 127.43,-85.1015"/>
<polygon fill="midnightblue" stroke="midnightblue" points="129.314,-82.1515 119.038,-79.5707 125.462,-87.9962 129.314,-82.1515"/>
</g>
<!-- Node8 -->
<g id="node15" class="node"><title>Node8</title>
<polygon fill="none" stroke="#bfbfbf" points="147,-58.5 147,-79.5 203,-79.5 203,-58.5 147,-58.5"/>
<text text-anchor="middle" x="175" y="-66.5" font-family="FreeSans.ttf" font-size="10.00">stdarg.h</text>
</g>
<!-- Node2&#45;&gt;Node8 -->
<g id="edge14" class="edge"><title>Node2&#45;&gt;Node8</title>
<path fill="none" stroke="midnightblue" d="M188.065,-116.362C185.99,-108.84 183.143,-98.5187 180.636,-89.4308"/>
<polygon fill="midnightblue" stroke="midnightblue" points="183.949,-88.2798 177.916,-79.5707 177.201,-90.1414 183.949,-88.2798"/>
</g>
<!-- Node9 -->
<g id="node17" class="node"><title>Node9</title>
<a xlink:href="global_8h.html" target="_top" xlink:title="This file holds the global includes, mostly for debuging, tracing and profiling.">
<polygon fill="none" stroke="black" points="5,-58.5 5,-79.5 59,-79.5 59,-58.5 5,-58.5"/>
<text text-anchor="middle" x="32" y="-66.5" font-family="FreeSans.ttf" font-size="10.00">global.h</text>
</a>
</g>
<!-- Node2&#45;&gt;Node9 -->
<g id="edge16" class="edge"><title>Node2&#45;&gt;Node9</title>
<path fill="none" stroke="midnightblue" d="M162.206,-116.497C136.029,-106.948 97.2636,-92.8069 68.8377,-82.4376"/>
<polygon fill="midnightblue" stroke="midnightblue" points="69.8458,-79.0798 59.2519,-78.9409 67.4469,-85.656 69.8458,-79.0798"/>
</g>
<!-- Node10 -->
<g id="node19" class="node"><title>Node10</title>
<polygon fill="none" stroke="#bfbfbf" points="0,-0.5 0,-21.5 64,-21.5 64,-0.5 0,-0.5"/>
<text text-anchor="middle" x="32" y="-8.5" font-family="FreeSans.ttf" font-size="10.00">inttypes.h</text>
</g>
<!-- Node9&#45;&gt;Node10 -->
<g id="edge18" class="edge"><title>Node9&#45;&gt;Node10</title>
<path fill="none" stroke="midnightblue" d="M32,-58.3619C32,-50.9219 32,-40.7427 32,-31.7276"/>
<polygon fill="midnightblue" stroke="midnightblue" points="35.5001,-31.5706 32,-21.5707 28.5001,-31.5707 35.5001,-31.5706"/>
</g>
<!-- Node11&#45;&gt;Node2 -->
<g id="edge26" class="edge"><title>Node11&#45;&gt;Node2</title>
<path fill="none" stroke="midnightblue" d="M84.542,-174.497C105.029,-165.356 134.947,-152.008 157.854,-141.788"/>
<polygon fill="midnightblue" stroke="midnightblue" points="159.488,-144.892 167.194,-137.621 156.635,-138.499 159.488,-144.892"/>
</g>
<!-- Node11&#45;&gt;Node9 -->
<g id="edge24" class="edge"><title>Node11&#45;&gt;Node9</title>
<path fill="none" stroke="midnightblue" d="M58.3237,-174.295C53.5113,-155.045 43.3222,-114.289 37.1273,-89.5091"/>
<polygon fill="midnightblue" stroke="midnightblue" points="40.4907,-88.5317 34.6698,-79.6792 33.6997,-90.2295 40.4907,-88.5317"/>
</g>
<!-- Node12 -->
<g id="node23" class="node"><title>Node12</title>
<polygon fill="none" stroke="#bfbfbf" points="74.5,-116.5 74.5,-137.5 133.5,-137.5 133.5,-116.5 74.5,-116.5"/>
<text text-anchor="middle" x="104" y="-124.5" font-family="FreeSans.ttf" font-size="10.00">iostream</text>
</g>
<!-- Node11&#45;&gt;Node12 -->
<g id="edge22" class="edge"><title>Node11&#45;&gt;Node12</title>
<path fill="none" stroke="midnightblue" d="M68.8869,-174.362C74.827,-166.35 83.1224,-155.161 90.1588,-145.67"/>
<polygon fill="midnightblue" stroke="midnightblue" points="93.0191,-147.688 96.1631,-137.571 87.3959,-143.519 93.0191,-147.688"/>
</g>
<!-- Node13&#45;&gt;Node2 -->
<g id="edge32" class="edge"><title>Node13&#45;&gt;Node2</title>
<path fill="none" stroke="midnightblue" d="M170.585,-174.362C173.898,-166.677 178.47,-156.069 182.448,-146.84"/>
<polygon fill="midnightblue" stroke="midnightblue" points="185.699,-148.139 186.444,-137.571 179.271,-145.368 185.699,-148.139"/>
</g>
<!-- Node13&#45;&gt;Node12 -->
<g id="edge30" class="edge"><title>Node13&#45;&gt;Node12</title>
<path fill="none" stroke="midnightblue" d="M154.628,-174.362C145.714,-166.023 133.121,-154.242 122.724,-144.516"/>
<polygon fill="midnightblue" stroke="midnightblue" points="124.993,-141.846 115.3,-137.571 120.211,-146.958 124.993,-141.846"/>
</g>
</g>
</svg>
