<?xml version="1.0" encoding="UTF-8" standalone="no"?>
<!DOCTYPE svg PUBLIC "-//W3C//DTD SVG 1.1//EN"
 "http://www.w3.org/Graphics/SVG/1.1/DTD/svg11.dtd">
<!-- Generated by graphviz version 2.26.3 (20100126.1600)
 -->
<!-- Title: G Pages: 1 -->
<!--zoomable 320 -->
<svg id="main" version="1.1" xmlns="http://www.w3.org/2000/svg" xmlns:xlink="http://www.w3.org/1999/xlink" xml:space="preserve" onload="init(evt)">
        <defs>
                <circle id="rim" cx="0" cy="0" r="7"/>
                <circle id="rim2" cx="0" cy="0" r="3.5"/>
                <g id="zoomPlus">
                        <use xlink:href="#rim" fill="#404040">
                                <set attributeName="fill" to="#808080" begin="zoomplus.mouseover" end="zoomplus.mouseout"/>
                        </use>
                        <path d="M-4,0h8M0,-4v8" fill="none" stroke="white" stroke-width="1.5" pointer-events="none"/>
                </g>
                <g id="zoomMin">
                        <use xlink:href="#rim" fill="#404040">
                                <set attributeName="fill" to="#808080" begin="zoomminus.mouseover" end="zoomminus.mouseout"/>
                        </use>
                        <path d="M-4,0h8" fill="none" stroke="white" stroke-width="1.5" pointer-events="none"/>
                </g>
                <g id="dirArrow">
                        <path fill="none" stroke="white" stroke-width="1.5" d="M0,-3.0v7 M-2.5,-0.5L0,-3.0L2.5,-0.5"/>
                </g>
               <g id="resetDef">
                       <use xlink:href="#rim2" fill="#404040">
                               <set attributeName="fill" to="#808080" begin="reset.mouseover" end="reset.mouseout"/>
                       </use>
               </g>
        </defs>

<script type="text/javascript">
var viewWidth = 643;
var viewHeight = 320;
var sectionId = 'dynsection-0';
</script>
<script xlink:href="svgpan.js"/>
<svg id="graph" class="graph">
<g id="viewport">
<title>G</title>
<!-- Node1 -->
<g id="node1" class="node"><title>Node1</title>
<polygon fill="#bfbfbf" stroke="black" points="87.2317,-290.5 87.2317,-311.5 397.232,-311.5 397.232,-290.5 87.2317,-290.5"/>
<text text-anchor="middle" x="242.232" y="-298.5" font-family="FreeSans.ttf" font-size="10.00">applications/base/generatedParameters/baseParameters.cpp</text>
</g>
<!-- Node2 -->
<g id="node3" class="node"><title>Node2</title>
<polygon fill="none" stroke="#bfbfbf" points="69.7317,-58.5 69.7317,-79.5 116.732,-79.5 116.732,-58.5 69.7317,-58.5"/>
<text text-anchor="middle" x="93.2317" y="-66.5" font-family="FreeSans.ttf" font-size="10.00">vector</text>
</g>
<!-- Node1&#45;&gt;Node2 -->
<g id="edge2" class="edge"><title>Node1&#45;&gt;Node2</title>
<path fill="none" stroke="midnightblue" d="M171.817,-290.458C116.629,-278.091 43.3365,-251.677 7.2317,-196 -18.769,-155.905 33.9484,-109.612 67.7947,-85.5161"/>
<polygon fill="midnightblue" stroke="midnightblue" points="70.1083,-88.1718 76.3466,-79.6082 66.1296,-82.4124 70.1083,-88.1718"/>
</g>
<!-- Node3 -->
<g id="node5" class="node"><title>Node3</title>
<polygon fill="none" stroke="#bfbfbf" points="311.732,-232.5 311.732,-253.5 366.732,-253.5 366.732,-232.5 311.732,-232.5"/>
<text text-anchor="middle" x="339.232" y="-240.5" font-family="FreeSans.ttf" font-size="10.00">stddef.h</text>
</g>
<!-- Node1&#45;&gt;Node3 -->
<g id="edge4" class="edge"><title>Node1&#45;&gt;Node3</title>
<path fill="none" stroke="midnightblue" d="M260.023,-290.362C274.79,-281.532 296.01,-268.844 312.77,-258.822"/>
<polygon fill="midnightblue" stroke="midnightblue" points="314.767,-261.707 321.553,-253.571 311.174,-255.699 314.767,-261.707"/>
</g>
<!-- Node4 -->
<g id="node7" class="node"><title>Node4</title>
<a xlink:href="baseParameters_8h.html" target="_top" xlink:title="baseParameters.h">
<polygon fill="none" stroke="black" points="190.232,-232.5 190.232,-253.5 294.232,-253.5 294.232,-232.5 190.232,-232.5"/>
<text text-anchor="middle" x="242.232" y="-240.5" font-family="FreeSans.ttf" font-size="10.00">baseParameters.h</text>
</a>
</g>
<!-- Node1&#45;&gt;Node4 -->
<g id="edge6" class="edge"><title>Node1&#45;&gt;Node4</title>
<path fill="none" stroke="midnightblue" d="M242.232,-290.362C242.232,-282.922 242.232,-272.743 242.232,-263.728"/>
<polygon fill="midnightblue" stroke="midnightblue" points="245.732,-263.571 242.232,-253.571 238.732,-263.571 245.732,-263.571"/>
</g>
<!-- Node5 -->
<g id="node9" class="node"><title>Node5</title>
<a xlink:href="reflection_8h.html" target="_top" xlink:title="a header for Reflection.c">
<polygon fill="none" stroke="black" points="370.232,-116.5 370.232,-137.5 440.232,-137.5 440.232,-116.5 370.232,-116.5"/>
<text text-anchor="middle" x="405.232" y="-124.5" font-family="FreeSans.ttf" font-size="10.00">reflection.h</text>
</a>
</g>
<!-- Node4&#45;&gt;Node5 -->
<g id="edge8" class="edge"><title>Node4&#45;&gt;Node5</title>
<path fill="none" stroke="midnightblue" d="M294.282,-233.309C356.242,-221.527 452.066,-202.418 457.232,-196 471.407,-178.392 450.873,-157.604 431.583,-143.481"/>
<polygon fill="midnightblue" stroke="midnightblue" points="433.43,-140.503 423.217,-137.682 429.441,-146.255 433.43,-140.503"/>
</g>
<!-- Node13 -->
<g id="node26" class="node"><title>Node13</title>
<a xlink:href="defaultSetter_8h.html" target="_top" xlink:title="defaultSetter.h">
<polygon fill="none" stroke="black" points="256.232,-174.5 256.232,-195.5 344.232,-195.5 344.232,-174.5 256.232,-174.5"/>
<text text-anchor="middle" x="300.232" y="-182.5" font-family="FreeSans.ttf" font-size="10.00">defaultSetter.h</text>
</a>
</g>
<!-- Node4&#45;&gt;Node13 -->
<g id="edge26" class="edge"><title>Node4&#45;&gt;Node13</title>
<path fill="none" stroke="midnightblue" d="M252.87,-232.362C261.127,-224.104 272.759,-212.472 282.429,-202.803"/>
<polygon fill="midnightblue" stroke="midnightblue" points="285.065,-205.117 289.661,-195.571 280.115,-200.167 285.065,-205.117"/>
</g>
<!-- Node15 -->
<g id="node32" class="node"><title>Node15</title>
<a xlink:href="printerVisitor_8h.html" target="_top" xlink:title="printerVisitor.h">
<polygon fill="none" stroke="black" points="362.232,-174.5 362.232,-195.5 448.232,-195.5 448.232,-174.5 362.232,-174.5"/>
<text text-anchor="middle" x="405.232" y="-182.5" font-family="FreeSans.ttf" font-size="10.00">printerVisitor.h</text>
</a>
</g>
<!-- Node4&#45;&gt;Node15 -->
<g id="edge34" class="edge"><title>Node4&#45;&gt;Node15</title>
<path fill="none" stroke="midnightblue" d="M271.75,-232.497C298.208,-223.082 337.211,-209.204 366.232,-198.877"/>
<polygon fill="midnightblue" stroke="midnightblue" points="367.41,-202.173 375.658,-195.523 365.064,-195.578 367.41,-202.173"/>
</g>
<!-- Node16 -->
<g id="node36" class="node"><title>Node16</title>
<a xlink:href="rotationPresets_8h.html" target="_top" xlink:title="rotationPresets.h">
<polygon fill="none" stroke="black" points="15.7317,-174.5 15.7317,-195.5 114.732,-195.5 114.732,-174.5 15.7317,-174.5"/>
<text text-anchor="middle" x="65.2317" y="-182.5" font-family="FreeSans.ttf" font-size="10.00">rotationPresets.h</text>
</a>
</g>
<!-- Node4&#45;&gt;Node16 -->
<g id="edge40" class="edge"><title>Node4&#45;&gt;Node16</title>
<path fill="none" stroke="midnightblue" d="M210.178,-232.497C181.323,-223.041 138.726,-209.083 107.171,-198.743"/>
<polygon fill="midnightblue" stroke="midnightblue" points="107.938,-195.311 97.3452,-195.523 105.758,-201.963 107.938,-195.311"/>
</g>
<!-- Node17 -->
<g id="node38" class="node"><title>Node17</title>
<a xlink:href="interpolationType_8h.html" target="_top" xlink:title="interpolationType.h">
<polygon fill="none" stroke="black" points="131.732,-174.5 131.732,-195.5 238.732,-195.5 238.732,-174.5 131.732,-174.5"/>
<text text-anchor="middle" x="185.232" y="-182.5" font-family="FreeSans.ttf" font-size="10.00">interpolationType.h</text>
</a>
</g>
<!-- Node4&#45;&gt;Node17 -->
<g id="edge42" class="edge"><title>Node4&#45;&gt;Node17</title>
<path fill="none" stroke="midnightblue" d="M231.777,-232.362C223.662,-224.104 212.231,-212.472 202.728,-202.803"/>
<polygon fill="midnightblue" stroke="midnightblue" points="205.126,-200.25 195.62,-195.571 200.133,-205.156 205.126,-200.25"/>
</g>
<!-- Node5&#45;&gt;Node2 -->
<g id="edge10" class="edge"><title>Node5&#45;&gt;Node2</title>
<path fill="none" stroke="midnightblue" d="M370.22,-118.008C367.186,-117.301 364.159,-116.622 361.232,-116 277.543,-98.2242 178.127,-82.0753 127.127,-74.1489"/>
<polygon fill="midnightblue" stroke="midnightblue" points="127.419,-70.6526 117.002,-72.5846 126.351,-77.5705 127.419,-70.6526"/>
</g>
<!-- Node6 -->
<g id="node12" class="node"><title>Node6</title>
<polygon fill="none" stroke="#bfbfbf" points="311.232,-58.5 311.232,-79.5 355.232,-79.5 355.232,-58.5 311.232,-58.5"/>
<text text-anchor="middle" x="333.232" y="-66.5" font-family="FreeSans.ttf" font-size="10.00">string</text>
</g>
<!-- Node5&#45;&gt;Node6 -->
<g id="edge12" class="edge"><title>Node5&#45;&gt;Node6</title>
<path fill="none" stroke="midnightblue" d="M392.026,-116.362C381.471,-107.859 366.474,-95.7785 354.269,-85.9466"/>
<polygon fill="midnightblue" stroke="midnightblue" points="356.337,-83.1183 346.354,-79.5707 351.946,-88.5696 356.337,-83.1183"/>
</g>
<!-- Node7 -->
<g id="node14" class="node"><title>Node7</title>
<polygon fill="none" stroke="#bfbfbf" points="372.732,-58.5 372.732,-79.5 425.732,-79.5 425.732,-58.5 372.732,-58.5"/>
<text text-anchor="middle" x="399.232" y="-66.5" font-family="FreeSans.ttf" font-size="10.00">string.h</text>
</g>
<!-- Node5&#45;&gt;Node7 -->
<g id="edge14" class="edge"><title>Node5&#45;&gt;Node7</title>
<path fill="none" stroke="midnightblue" d="M404.131,-116.362C403.362,-108.922 402.309,-98.7427 401.376,-89.7276"/>
<polygon fill="midnightblue" stroke="midnightblue" points="404.836,-89.1574 400.325,-79.5707 397.873,-89.8777 404.836,-89.1574"/>
</g>
<!-- Node8 -->
<g id="node16" class="node"><title>Node8</title>
<polygon fill="none" stroke="#bfbfbf" points="442.732,-58.5 442.732,-79.5 491.732,-79.5 491.732,-58.5 442.732,-58.5"/>
<text text-anchor="middle" x="467.232" y="-66.5" font-family="FreeSans.ttf" font-size="10.00">stdio.h</text>
</g>
<!-- Node5&#45;&gt;Node8 -->
<g id="edge16" class="edge"><title>Node5&#45;&gt;Node8</title>
<path fill="none" stroke="midnightblue" d="M416.603,-116.362C425.518,-108.023 438.111,-96.2418 448.507,-86.5162"/>
<polygon fill="midnightblue" stroke="midnightblue" points="451.02,-88.9582 455.932,-79.5707 446.238,-83.8463 451.02,-88.9582"/>
</g>
<!-- Node9 -->
<g id="node18" class="node"><title>Node9</title>
<polygon fill="none" stroke="#bfbfbf" points="508.732,-58.5 508.732,-79.5 561.732,-79.5 561.732,-58.5 508.732,-58.5"/>
<text text-anchor="middle" x="535.232" y="-66.5" font-family="FreeSans.ttf" font-size="10.00">stdint.h</text>
</g>
<!-- Node5&#45;&gt;Node9 -->
<g id="edge18" class="edge"><title>Node5&#45;&gt;Node9</title>
<path fill="none" stroke="midnightblue" d="M428.774,-116.497C449.261,-107.356 479.179,-94.0082 502.086,-83.7883"/>
<polygon fill="midnightblue" stroke="midnightblue" points="503.719,-86.892 511.426,-79.6212 500.867,-80.4994 503.719,-86.892"/>
</g>
<!-- Node10 -->
<g id="node20" class="node"><title>Node10</title>
<polygon fill="none" stroke="#bfbfbf" points="579.232,-58.5 579.232,-79.5 635.232,-79.5 635.232,-58.5 579.232,-58.5"/>
<text text-anchor="middle" x="607.232" y="-66.5" font-family="FreeSans.ttf" font-size="10.00">stdarg.h</text>
</g>
<!-- Node5&#45;&gt;Node10 -->
<g id="edge20" class="edge"><title>Node5&#45;&gt;Node10</title>
<path fill="none" stroke="midnightblue" d="M440.35,-117.123C471.752,-108.262 519.282,-94.7836 569.268,-80.2614"/>
<polygon fill="midnightblue" stroke="midnightblue" points="570.336,-83.5959 578.96,-77.4415 568.38,-76.8746 570.336,-83.5959"/>
</g>
<!-- Node11 -->
<g id="node22" class="node"><title>Node11</title>
<a xlink:href="global_8h.html" target="_top" xlink:title="This file holds the global includes, mostly for debuging, tracing and profiling.">
<polygon fill="none" stroke="black" points="239.232,-58.5 239.232,-79.5 293.232,-79.5 293.232,-58.5 239.232,-58.5"/>
<text text-anchor="middle" x="266.232" y="-66.5" font-family="FreeSans.ttf" font-size="10.00">global.h</text>
</a>
</g>
<!-- Node5&#45;&gt;Node11 -->
<g id="edge22" class="edge"><title>Node5&#45;&gt;Node11</title>
<path fill="none" stroke="midnightblue" d="M380.06,-116.497C357.959,-107.275 325.593,-93.7695 301.018,-83.5153"/>
<polygon fill="midnightblue" stroke="midnightblue" points="302.263,-80.2421 291.686,-79.6212 299.567,-86.7022 302.263,-80.2421"/>
</g>
<!-- Node12 -->
<g id="node24" class="node"><title>Node12</title>
<polygon fill="none" stroke="#bfbfbf" points="234.232,-0.5 234.232,-21.5 298.232,-21.5 298.232,-0.5 234.232,-0.5"/>
<text text-anchor="middle" x="266.232" y="-8.5" font-family="FreeSans.ttf" font-size="10.00">inttypes.h</text>
</g>
<!-- Node11&#45;&gt;Node12 -->
<g id="edge24" class="edge"><title>Node11&#45;&gt;Node12</title>
<path fill="none" stroke="midnightblue" d="M266.232,-58.3619C266.232,-50.9219 266.232,-40.7427 266.232,-31.7276"/>
<polygon fill="midnightblue" stroke="midnightblue" points="269.732,-31.5706 266.232,-21.5707 262.732,-31.5707 269.732,-31.5706"/>
</g>
<!-- Node13&#45;&gt;Node5 -->
<g id="edge32" class="edge"><title>Node13&#45;&gt;Node5</title>
<path fill="none" stroke="midnightblue" d="M319.49,-174.362C335.698,-165.409 359.085,-152.491 377.341,-142.406"/>
<polygon fill="midnightblue" stroke="midnightblue" points="379.034,-145.47 386.095,-137.571 375.649,-139.342 379.034,-145.47"/>
</g>
<!-- Node13&#45;&gt;Node11 -->
<g id="edge30" class="edge"><title>Node13&#45;&gt;Node11</title>
<path fill="none" stroke="midnightblue" d="M296.652,-174.211C293.533,-164.709 288.94,-150.48 285.232,-138 280.429,-121.835 275.378,-103.417 271.693,-89.6777"/>
<polygon fill="midnightblue" stroke="midnightblue" points="275.016,-88.5569 269.06,-79.7947 268.252,-90.3587 275.016,-88.5569"/>
</g>
<!-- Node14 -->
<g id="node28" class="node"><title>Node14</title>
<polygon fill="none" stroke="#bfbfbf" points="293.732,-116.5 293.732,-137.5 352.732,-137.5 352.732,-116.5 293.732,-116.5"/>
<text text-anchor="middle" x="323.232" y="-124.5" font-family="FreeSans.ttf" font-size="10.00">iostream</text>
</g>
<!-- Node13&#45;&gt;Node14 -->
<g id="edge28" class="edge"><title>Node13&#45;&gt;Node14</title>
<path fill="none" stroke="midnightblue" d="M304.45,-174.362C307.465,-166.758 311.615,-156.294 315.247,-147.135"/>
<polygon fill="midnightblue" stroke="midnightblue" points="318.607,-148.157 319.04,-137.571 312.1,-145.576 318.607,-148.157"/>
</g>
<!-- Node15&#45;&gt;Node5 -->
<g id="edge38" class="edge"><title>Node15&#45;&gt;Node5</title>
<path fill="none" stroke="midnightblue" d="M405.232,-174.362C405.232,-166.922 405.232,-156.743 405.232,-147.728"/>
<polygon fill="midnightblue" stroke="midnightblue" points="408.732,-147.571 405.232,-137.571 401.732,-147.571 408.732,-147.571"/>
</g>
<!-- Node15&#45;&gt;Node14 -->
<g id="edge36" class="edge"><title>Node15&#45;&gt;Node14</title>
<path fill="none" stroke="midnightblue" d="M390.192,-174.362C377.939,-165.696 360.432,-153.313 346.392,-143.382"/>
<polygon fill="midnightblue" stroke="midnightblue" points="348.362,-140.488 338.176,-137.571 344.319,-146.203 348.362,-140.488"/>
</g>
</g>
</svg>
        <g id="navigator" transform="translate(0 0)" fill="#404254">
                <rect fill="#f2f5e9" fill-opacity="0.5" stroke="#606060" stroke-width=".5" x="0" y="0" width="60" height="60"/>
                <use id="zoomplus" xlink:href="#zoomPlus" x="17" y="9" onmousedown="handleZoom(evt,'in')"/>
                <use id="zoomminus" xlink:href="#zoomMin" x="42" y="9" onmousedown="handleZoom(evt,'out')"/>
                <use id="reset" xlink:href="#resetDef" x="30" y="36" onmousedown="handleReset()"/>
                <g id="arrowUp" xlink:href="#dirArrow" transform="translate(30 24)" onmousedown="handlePan(0,-1)">
                  <use xlink:href="#rim" fill="#404040">
                        <set attributeName="fill" to="#808080" begin="arrowUp.mouseover" end="arrowUp.mouseout"/>
                  </use>
                  <path fill="none" stroke="white" stroke-width="1.5" d="M0,-3.0v7 M-2.5,-0.5L0,-3.0L2.5,-0.5"/>
                </g>
                <g id="arrowRight" xlink:href="#dirArrow" transform="rotate(90) translate(36 -43)" onmousedown="handlePan(1,0)">
                  <use xlink:href="#rim" fill="#404040">
                        <set attributeName="fill" to="#808080" begin="arrowRight.mouseover" end="arrowRight.mouseout"/>
                  </use>
                  <path fill="none" stroke="white" stroke-width="1.5" d="M0,-3.0v7 M-2.5,-0.5L0,-3.0L2.5,-0.5"/>
                </g>
                <g id="arrowDown" xlink:href="#dirArrow" transform="rotate(180) translate(-30 -48)" onmousedown="handlePan(0,1)">
                  <use xlink:href="#rim" fill="#404040">
                        <set attributeName="fill" to="#808080" begin="arrowDown.mouseover" end="arrowDown.mouseout"/>
                  </use>
                  <path fill="none" stroke="white" stroke-width="1.5" d="M0,-3.0v7 M-2.5,-0.5L0,-3.0L2.5,-0.5"/>
                </g>
                <g id="arrowLeft" xlink:href="#dirArrow" transform="rotate(270) translate(-36 17)" onmousedown="handlePan(-1,0)">
                  <use xlink:href="#rim" fill="#404040">
                        <set attributeName="fill" to="#808080" begin="arrowLeft.mouseover" end="arrowLeft.mouseout"/>
                  </use>
                  <path fill="none" stroke="white" stroke-width="1.5" d="M0,-3.0v7 M-2.5,-0.5L0,-3.0L2.5,-0.5"/>
                </g>
        </g>
</svg>
