<?xml version="1.0" encoding="UTF-8" standalone="no"?>
<!DOCTYPE svg PUBLIC "-//W3C//DTD SVG 1.1//EN"
 "http://www.w3.org/Graphics/SVG/1.1/DTD/svg11.dtd">
<!-- Generated by graphviz version 2.26.3 (20100126.1600)
 -->
<!-- Title: G Pages: 1 -->
<!--zoomable 320 -->
<svg id="main" version="1.1" xmlns="http://www.w3.org/2000/svg" xmlns:xlink="http://www.w3.org/1999/xlink" xml:space="preserve" onload="init(evt)">
        <defs>
                <circle id="rim" cx="0" cy="0" r="7"/>
                <circle id="rim2" cx="0" cy="0" r="3.5"/>
                <g id="zoomPlus">
                        <use xlink:href="#rim" fill="#404040">
                                <set attributeName="fill" to="#808080" begin="zoomplus.mouseover" end="zoomplus.mouseout"/>
                        </use>
                        <path d="M-4,0h8M0,-4v8" fill="none" stroke="white" stroke-width="1.5" pointer-events="none"/>
                </g>
                <g id="zoomMin">
                        <use xlink:href="#rim" fill="#404040">
                                <set attributeName="fill" to="#808080" begin="zoomminus.mouseover" end="zoomminus.mouseout"/>
                        </use>
                        <path d="M-4,0h8" fill="none" stroke="white" stroke-width="1.5" pointer-events="none"/>
                </g>
                <g id="dirArrow">
                        <path fill="none" stroke="white" stroke-width="1.5" d="M0,-3.0v7 M-2.5,-0.5L0,-3.0L2.5,-0.5"/>
                </g>
               <g id="resetDef">
                       <use xlink:href="#rim2" fill="#404040">
                               <set attributeName="fill" to="#808080" begin="reset.mouseover" end="reset.mouseout"/>
                       </use>
               </g>
        </defs>

<script type="text/javascript">
var viewWidth = 1326;
var viewHeight = 320;
var sectionId = 'dynsection-1';
</script>
<script xlink:href="svgpan.js"/>
<svg id="graph" class="graph">
<g id="viewport">
<title>G</title>
<!-- Node1 -->
<g id="node1" class="node"><title>Node1</title>
<polygon fill="#bfbfbf" stroke="black" points="596.5,-290.5 596.5,-311.5 829.5,-311.5 829.5,-290.5 596.5,-290.5"/>
<text text-anchor="middle" x="713" y="-298.5" font-family="FreeSans.ttf" font-size="10.00">core/buffers/kernels/fastkernel/baseAlgebra.h</text>
</g>
<!-- Node2 -->
<g id="node3" class="node"><title>Node2</title>
<a xlink:href="scalarAlgebra_8h.html" target="_top" xlink:title="a header for ScalarAlgebra.c">
<polygon fill="none" stroke="black" points="291.5,-232.5 291.5,-253.5 530.5,-253.5 530.5,-232.5 291.5,-232.5"/>
<text text-anchor="middle" x="411" y="-240.5" font-family="FreeSans.ttf" font-size="10.00">core/buffers/kernels/fastkernel/scalarAlgebra.h</text>
</a>
</g>
<!-- Node1&#45;&gt;Node2 -->
<g id="edge2" class="edge"><title>Node1&#45;&gt;Node2</title>
<path fill="none" stroke="midnightblue" d="M648.434,-288.6C594.078,-278.161 517.192,-263.394 465.792,-253.523"/>
<polygon fill="midnightblue" stroke="midnightblue" points="647.829,-292.048 658.31,-290.497 649.15,-285.173 647.829,-292.048"/>
</g>
<!-- Node10 -->
<g id="node20" class="node"><title>Node10</title>
<a xlink:href="operationFilter_8h.html" target="_top" xlink:title="core/filters/operationFilter.h">
<polygon fill="none" stroke="black" points="1012,-58.5 1012,-79.5 1158,-79.5 1158,-58.5 1012,-58.5"/>
<text text-anchor="middle" x="1085" y="-66.5" font-family="FreeSans.ttf" font-size="10.00">core/filters/operationFilter.h</text>
</a>
</g>
<!-- Node1&#45;&gt;Node10 -->
<g id="edge60" class="edge"><title>Node1&#45;&gt;Node10</title>
<path fill="none" stroke="midnightblue" d="M738.757,-284.937C810.024,-240.491 1008.49,-116.719 1067.95,-79.6335"/>
<polygon fill="midnightblue" stroke="midnightblue" points="736.584,-282.167 729.951,-290.429 740.288,-288.107 736.584,-282.167"/>
</g>
<!-- Node14 -->
<g id="node28" class="node"><title>Node14</title>
<a xlink:href="vectorAlgebra_8h.html" target="_top" xlink:title="a header for VectorAlgebra.c">
<polygon fill="none" stroke="black" points="593,-174.5 593,-195.5 833,-195.5 833,-174.5 593,-174.5"/>
<text text-anchor="middle" x="713" y="-182.5" font-family="FreeSans.ttf" font-size="10.00">core/buffers/kernels/fastkernel/vectorAlgebra.h</text>
</a>
</g>
<!-- Node1&#45;&gt;Node14 -->
<g id="edge58" class="edge"><title>Node1&#45;&gt;Node14</title>
<path fill="none" stroke="midnightblue" d="M713,-280.123C713,-255.298 713,-214.824 713,-195.679"/>
<polygon fill="midnightblue" stroke="midnightblue" points="709.5,-280.295 713,-290.295 716.5,-280.295 709.5,-280.295"/>
</g>
<!-- Node3 -->
<g id="node5" class="node"><title>Node3</title>
<a xlink:href="g12Buffer_8cpp.html" target="_top" xlink:title="Add Comment Here.">
<polygon fill="none" stroke="black" points="1175.5,-58.5 1175.5,-79.5 1318.5,-79.5 1318.5,-58.5 1175.5,-58.5"/>
<text text-anchor="middle" x="1247" y="-66.5" font-family="FreeSans.ttf" font-size="10.00">core/buffers/g12Buffer.cpp</text>
</a>
</g>
<!-- Node2&#45;&gt;Node3 -->
<g id="edge4" class="edge"><title>Node2&#45;&gt;Node3</title>
<path fill="none" stroke="midnightblue" d="M540.979,-235.465C627.053,-228.853 742.075,-216.906 842,-196 987.335,-165.593 1154.8,-104.372 1219.51,-79.6827"/>
<polygon fill="midnightblue" stroke="midnightblue" points="540.602,-231.983 530.894,-236.225 541.129,-238.963 540.602,-231.983"/>
</g>
<!-- Node4 -->
<g id="node7" class="node"><title>Node4</title>
<a xlink:href="fastConverter_8h.html" target="_top" xlink:title="Add Comment Here.">
<polygon fill="none" stroke="black" points="3,-174.5 3,-195.5 257,-195.5 257,-174.5 3,-174.5"/>
<text text-anchor="middle" x="130" y="-182.5" font-family="FreeSans.ttf" font-size="10.00">core/buffers/kernels/fastconverter/fastConverter.h</text>
</a>
</g>
<!-- Node2&#45;&gt;Node4 -->
<g id="edge6" class="edge"><title>Node2&#45;&gt;Node4</title>
<path fill="none" stroke="midnightblue" d="M350.293,-230.47C299.754,-220.038 228.609,-205.354 180.982,-195.523"/>
<polygon fill="midnightblue" stroke="midnightblue" points="349.612,-233.903 360.113,-232.497 351.027,-227.047 349.612,-233.903"/>
</g>
<!-- Node5 -->
<g id="node9" class="node"><title>Node5</title>
<a xlink:href="fastKernel_8h.html" target="_top" xlink:title="Add Comment Here.">
<polygon fill="none" stroke="black" points="426.5,-116.5 426.5,-137.5 647.5,-137.5 647.5,-116.5 426.5,-116.5"/>
<text text-anchor="middle" x="537" y="-124.5" font-family="FreeSans.ttf" font-size="10.00">core/buffers/kernels/fastkernel/fastKernel.h</text>
</a>
</g>
<!-- Node2&#45;&gt;Node5 -->
<g id="edge8" class="edge"><title>Node2&#45;&gt;Node5</title>
<path fill="none" stroke="midnightblue" d="M430.14,-225.379C456.634,-200.988 503.669,-157.686 525.4,-137.679"/>
<polygon fill="midnightblue" stroke="midnightblue" points="427.614,-222.947 422.628,-232.295 432.356,-228.097 427.614,-222.947"/>
</g>
<!-- Node7 -->
<g id="node14" class="node"><title>Node7</title>
<a xlink:href="spatialGradient_8cpp.html" target="_top" xlink:title="Add Comment Here.">
<polygon fill="none" stroke="black" points="157.5,-58.5 157.5,-79.5 364.5,-79.5 364.5,-58.5 157.5,-58.5"/>
<text text-anchor="middle" x="261" y="-66.5" font-family="FreeSans.ttf" font-size="10.00">core/buffers/kernels/spatialGradient.cpp</text>
</a>
</g>
<!-- Node2&#45;&gt;Node7 -->
<g id="edge52" class="edge"><title>Node2&#45;&gt;Node7</title>
<path fill="none" stroke="midnightblue" d="M384.391,-226.955C372.086,-218.705 357.833,-207.89 347,-196 319.075,-165.349 322.759,-149.982 299,-116 289.981,-103.101 278.485,-89.1815 270.511,-79.8663"/>
<polygon fill="midnightblue" stroke="midnightblue" points="382.635,-229.988 392.93,-232.488 386.441,-224.113 382.635,-229.988"/>
</g>
<!-- Node9 -->
<g id="node18" class="node"><title>Node9</title>
<a xlink:href="cannyFilter_8cpp.html" target="_top" xlink:title="Add Comment Here.">
<polygon fill="none" stroke="black" points="0,-58.5 0,-79.5 140,-79.5 140,-58.5 0,-58.5"/>
<text text-anchor="middle" x="70" y="-66.5" font-family="FreeSans.ttf" font-size="10.00">core/filters/cannyFilter.cpp</text>
</a>
</g>
<!-- Node2&#45;&gt;Node9 -->
<g id="edge54" class="edge"><title>Node2&#45;&gt;Node9</title>
<path fill="none" stroke="midnightblue" d="M380.878,-227.63C312.943,-192.965 149.197,-109.411 90.9786,-79.7046"/>
<polygon fill="midnightblue" stroke="midnightblue" points="379.684,-230.95 390.182,-232.377 382.866,-224.715 379.684,-230.95"/>
</g>
<!-- Node13 -->
<g id="node26" class="node"><title>Node13</title>
<a xlink:href="sobelFilter_8cpp.html" target="_top" xlink:title="Add Comment Here.">
<polygon fill="none" stroke="black" points="605.5,-58.5 605.5,-79.5 742.5,-79.5 742.5,-58.5 605.5,-58.5"/>
<text text-anchor="middle" x="674" y="-66.5" font-family="FreeSans.ttf" font-size="10.00">core/filters/sobelFilter.cpp</text>
</a>
</g>
<!-- Node2&#45;&gt;Node13 -->
<g id="edge56" class="edge"><title>Node2&#45;&gt;Node13</title>
<path fill="none" stroke="midnightblue" d="M405.159,-222.355C398.676,-194.569 392.229,-145.257 418,-116 424.244,-108.911 531.597,-91.0239 605.281,-79.4737"/>
<polygon fill="midnightblue" stroke="midnightblue" points="401.804,-223.361 407.668,-232.185 408.586,-221.63 401.804,-223.361"/>
</g>
<!-- Node2&#45;&gt;Node14 -->
<g id="edge28" class="edge"><title>Node2&#45;&gt;Node14</title>
<path fill="none" stroke="midnightblue" d="M475.566,-230.6C529.922,-220.161 606.808,-205.394 658.208,-195.523"/>
<polygon fill="midnightblue" stroke="midnightblue" points="474.85,-227.173 465.69,-232.497 476.171,-234.048 474.85,-227.173"/>
</g>
<!-- Node5&#45;&gt;Node3 -->
<g id="edge10" class="edge"><title>Node5&#45;&gt;Node3</title>
<path fill="none" stroke="midnightblue" d="M657.773,-118.397C826.561,-106.312 1117.93,-85.1985 1167,-80 1169.79,-79.7046 1172.63,-79.3882 1175.5,-79.0559"/>
<polygon fill="midnightblue" stroke="midnightblue" points="657.31,-114.921 647.586,-119.126 657.81,-121.903 657.31,-114.921"/>
</g>
<!-- Node6 -->
<g id="node12" class="node"><title>Node6</title>
<a xlink:href="genericFastKernel_8h.html" target="_top" xlink:title="a header for GenericFastKernel.c">
<polygon fill="none" stroke="black" points="381.5,-58.5 381.5,-79.5 588.5,-79.5 588.5,-58.5 381.5,-58.5"/>
<text text-anchor="middle" x="485" y="-66.5" font-family="FreeSans.ttf" font-size="10.00">core/buffers/kernels/genericFastKernel.h</text>
</a>
</g>
<!-- Node5&#45;&gt;Node6 -->
<g id="edge12" class="edge"><title>Node5&#45;&gt;Node6</title>
<path fill="none" stroke="midnightblue" d="M520.71,-108.83C512.083,-99.2078 501.791,-87.7282 494.477,-79.5707"/>
<polygon fill="midnightblue" stroke="midnightblue" points="518.181,-111.253 527.462,-116.362 523.393,-106.58 518.181,-111.253"/>
</g>
<!-- Node5&#45;&gt;Node7 -->
<g id="edge14" class="edge"><title>Node5&#45;&gt;Node7</title>
<path fill="none" stroke="midnightblue" d="M477.063,-114.404C427.442,-103.977 357.757,-89.333 311.075,-79.5231"/>
<polygon fill="midnightblue" stroke="midnightblue" points="476.512,-117.865 487.018,-116.497 477.952,-111.015 476.512,-117.865"/>
</g>
<!-- Node8 -->
<g id="node16" class="node"><title>Node8</title>
<a xlink:href="morphological_8cpp.html" target="_top" xlink:title="Add Comment Here.">
<polygon fill="none" stroke="black" points="759.5,-58.5 759.5,-79.5 994.5,-79.5 994.5,-58.5 759.5,-58.5"/>
<text text-anchor="middle" x="877" y="-66.5" font-family="FreeSans.ttf" font-size="10.00">core/buffers/morphological/morphological.cpp</text>
</a>
</g>
<!-- Node5&#45;&gt;Node8 -->
<g id="edge16" class="edge"><title>Node5&#45;&gt;Node8</title>
<path fill="none" stroke="midnightblue" d="M608.55,-114.794C669.807,-104.345 757.086,-89.4559 815.313,-79.5231"/>
<polygon fill="midnightblue" stroke="midnightblue" points="607.84,-111.365 598.571,-116.497 609.018,-118.265 607.84,-111.365"/>
</g>
<!-- Node5&#45;&gt;Node9 -->
<g id="edge18" class="edge"><title>Node5&#45;&gt;Node9</title>
<path fill="none" stroke="midnightblue" d="M436.045,-115.27C357.7,-106.046 246.397,-92.6788 149,-80 146.116,-79.6246 143.174,-79.2368 140.203,-78.8411"/>
<polygon fill="midnightblue" stroke="midnightblue" points="436.053,-118.795 446.393,-116.487 436.871,-111.843 436.053,-118.795"/>
</g>
<!-- Node5&#45;&gt;Node10 -->
<g id="edge20" class="edge"><title>Node5&#45;&gt;Node10</title>
<path fill="none" stroke="midnightblue" d="M657.873,-115.907C752.012,-107.001 885.927,-93.7526 1003,-80 1005.85,-79.6648 1008.76,-79.3149 1011.7,-78.9546"/>
<polygon fill="midnightblue" stroke="midnightblue" points="657.37,-112.438 647.743,-116.862 658.028,-119.407 657.37,-112.438"/>
</g>
<!-- Node5&#45;&gt;Node13 -->
<g id="edge26" class="edge"><title>Node5&#45;&gt;Node13</title>
<path fill="none" stroke="midnightblue" d="M571.299,-112.479C595.415,-102.269 627.14,-88.8386 648.912,-79.6212"/>
<polygon fill="midnightblue" stroke="midnightblue" points="569.654,-109.375 561.81,-116.497 572.383,-115.821 569.654,-109.375"/>
</g>
<!-- Node11 -->
<g id="node22" class="node"><title>Node11</title>
<a xlink:href="filtersCollection_8cpp.html" target="_top" xlink:title="core/filters/filtersCollection.cpp">
<polygon fill="none" stroke="black" points="914.5,-0.5 914.5,-21.5 1077.5,-21.5 1077.5,-0.5 914.5,-0.5"/>
<text text-anchor="middle" x="996" y="-8.5" font-family="FreeSans.ttf" font-size="10.00">core/filters/filtersCollection.cpp</text>
</a>
</g>
<!-- Node10&#45;&gt;Node11 -->
<g id="edge22" class="edge"><title>Node10&#45;&gt;Node11</title>
<path fill="none" stroke="midnightblue" d="M1060.17,-52.8215C1044.84,-42.8312 1025.61,-30.2993 1012.22,-21.5707"/>
<polygon fill="midnightblue" stroke="midnightblue" points="1058.39,-55.8344 1068.68,-58.3619 1062.21,-49.9698 1058.39,-55.8344"/>
</g>
<!-- Node12 -->
<g id="node24" class="node"><title>Node12</title>
<a xlink:href="operationFilter_8cpp.html" target="_top" xlink:title="core/filters/operationFilter.cpp">
<polygon fill="none" stroke="black" points="1095,-0.5 1095,-21.5 1253,-21.5 1253,-0.5 1095,-0.5"/>
<text text-anchor="middle" x="1174" y="-8.5" font-family="FreeSans.ttf" font-size="10.00">core/filters/operationFilter.cpp</text>
</a>
</g>
<!-- Node10&#45;&gt;Node12 -->
<g id="edge24" class="edge"><title>Node10&#45;&gt;Node12</title>
<path fill="none" stroke="midnightblue" d="M1109.83,-52.8215C1125.16,-42.8312 1144.39,-30.2993 1157.78,-21.5707"/>
<polygon fill="midnightblue" stroke="midnightblue" points="1107.79,-49.9698 1101.32,-58.3619 1111.61,-55.8344 1107.79,-49.9698"/>
</g>
<!-- Node14&#45;&gt;Node3 -->
<g id="edge30" class="edge"><title>Node14&#45;&gt;Node3</title>
<path fill="none" stroke="midnightblue" d="M789.055,-172.738C837.454,-164.348 901.287,-152.194 957,-138 988.191,-130.053 994.887,-124.247 1026,-116 1081.17,-101.377 1145.02,-88.1938 1189.86,-79.5373"/>
<polygon fill="midnightblue" stroke="midnightblue" points="788.232,-169.328 778.969,-174.47 789.418,-176.227 788.232,-169.328"/>
</g>
<!-- Node14&#45;&gt;Node8 -->
<g id="edge46" class="edge"><title>Node14&#45;&gt;Node8</title>
<path fill="none" stroke="midnightblue" d="M839.033,-172.951C883.674,-165.867 926.269,-154.865 940,-138 957.513,-116.489 923.52,-92.929 899.016,-79.6549"/>
<polygon fill="midnightblue" stroke="midnightblue" points="838.242,-169.53 828.88,-174.491 839.292,-176.451 838.242,-169.53"/>
</g>
<!-- Node14&#45;&gt;Node9 -->
<g id="edge48" class="edge"><title>Node14&#45;&gt;Node9</title>
<path fill="none" stroke="midnightblue" d="M632.178,-172.964C572.818,-163.92 490.27,-150.917 418,-138 311.591,-118.981 187.528,-93.6107 120.025,-79.5356"/>
<polygon fill="midnightblue" stroke="midnightblue" points="631.829,-176.451 642.241,-174.493 632.88,-169.531 631.829,-176.451"/>
</g>
<!-- Node14&#45;&gt;Node13 -->
<g id="edge50" class="edge"><title>Node14&#45;&gt;Node13</title>
<path fill="none" stroke="midnightblue" d="M704.414,-165.058C700.98,-156.763 697.11,-146.988 694,-138 686.985,-117.727 680.368,-93.5483 676.781,-79.8635"/>
<polygon fill="midnightblue" stroke="midnightblue" points="701.197,-166.436 708.307,-174.291 707.647,-163.717 701.197,-166.436"/>
</g>
<!-- Node15 -->
<g id="node31" class="node"><title>Node15</title>
<a xlink:href="vectorTraits_8h.html" target="_top" xlink:title="core/buffers/kernels/fastkernel/vectorTraits.h">
<polygon fill="none" stroke="black" points="703,-116.5 703,-137.5 931,-137.5 931,-116.5 703,-116.5"/>
<text text-anchor="middle" x="817" y="-124.5" font-family="FreeSans.ttf" font-size="10.00">core/buffers/kernels/fastkernel/vectorTraits.h</text>
</a>
</g>
<!-- Node14&#45;&gt;Node15 -->
<g id="edge32" class="edge"><title>Node14&#45;&gt;Node15</title>
<path fill="none" stroke="midnightblue" d="M741.01,-169.379C759.081,-159.301 782.102,-146.462 798.046,-137.571"/>
<polygon fill="midnightblue" stroke="midnightblue" points="739.104,-166.434 732.075,-174.362 742.514,-172.548 739.104,-166.434"/>
</g>
<!-- Node15&#45;&gt;Node3 -->
<g id="edge34" class="edge"><title>Node15&#45;&gt;Node3</title>
<path fill="none" stroke="midnightblue" d="M906.104,-115.113C976.845,-105.658 1078.26,-92.0587 1167,-80 1169.78,-79.6224 1172.61,-79.2367 1175.47,-78.8465"/>
<polygon fill="midnightblue" stroke="midnightblue" points="905.343,-111.684 895.895,-116.478 906.271,-118.622 905.343,-111.684"/>
</g>
<!-- Node15&#45;&gt;Node7 -->
<g id="edge36" class="edge"><title>Node15&#45;&gt;Node7</title>
<path fill="none" stroke="midnightblue" d="M706.135,-115.435C605.727,-104.961 459.058,-89.6607 361.876,-79.5231"/>
<polygon fill="midnightblue" stroke="midnightblue" points="706.003,-118.94 716.313,-116.497 706.73,-111.978 706.003,-118.94"/>
</g>
<!-- Node15&#45;&gt;Node8 -->
<g id="edge38" class="edge"><title>Node15&#45;&gt;Node8</title>
<path fill="none" stroke="midnightblue" d="M835.202,-109.405C845.274,-99.6683 857.457,-87.8914 866.065,-79.5707"/>
<polygon fill="midnightblue" stroke="midnightblue" points="832.762,-106.895 828.005,-116.362 837.627,-111.928 832.762,-106.895"/>
</g>
<!-- Node15&#45;&gt;Node9 -->
<g id="edge40" class="edge"><title>Node15&#45;&gt;Node9</title>
<path fill="none" stroke="midnightblue" d="M692.622,-118.468C506.791,-105.69 175.504,-82.7744 149,-80 146.108,-79.6973 143.159,-79.3702 140.181,-79.0247"/>
<polygon fill="midnightblue" stroke="midnightblue" points="692.512,-121.969 702.729,-119.163 692.992,-114.986 692.512,-121.969"/>
</g>
<!-- Node15&#45;&gt;Node10 -->
<g id="edge42" class="edge"><title>Node15&#45;&gt;Node10</title>
<path fill="none" stroke="midnightblue" d="M875.502,-114.339C923.664,-103.916 991.142,-89.3126 1036.38,-79.5231"/>
<polygon fill="midnightblue" stroke="midnightblue" points="874.566,-110.961 865.533,-116.497 876.047,-117.802 874.566,-110.961"/>
</g>
<!-- Node15&#45;&gt;Node13 -->
<g id="edge44" class="edge"><title>Node15&#45;&gt;Node13</title>
<path fill="none" stroke="midnightblue" d="M781.534,-112.615C756.321,-102.389 723.013,-88.8796 700.187,-79.6212"/>
<polygon fill="midnightblue" stroke="midnightblue" points="780.521,-115.981 791.104,-116.497 783.153,-109.495 780.521,-115.981"/>
</g>
</g>
</svg>
        <g id="navigator" transform="translate(0 0)" fill="#404254">
                <rect fill="#f2f5e9" fill-opacity="0.5" stroke="#606060" stroke-width=".5" x="0" y="0" width="60" height="60"/>
                <use id="zoomplus" xlink:href="#zoomPlus" x="17" y="9" onmousedown="handleZoom(evt,'in')"/>
                <use id="zoomminus" xlink:href="#zoomMin" x="42" y="9" onmousedown="handleZoom(evt,'out')"/>
                <use id="reset" xlink:href="#resetDef" x="30" y="36" onmousedown="handleReset()"/>
                <g id="arrowUp" xlink:href="#dirArrow" transform="translate(30 24)" onmousedown="handlePan(0,-1)">
                  <use xlink:href="#rim" fill="#404040">
                        <set attributeName="fill" to="#808080" begin="arrowUp.mouseover" end="arrowUp.mouseout"/>
                  </use>
                  <path fill="none" stroke="white" stroke-width="1.5" d="M0,-3.0v7 M-2.5,-0.5L0,-3.0L2.5,-0.5"/>
                </g>
                <g id="arrowRight" xlink:href="#dirArrow" transform="rotate(90) translate(36 -43)" onmousedown="handlePan(1,0)">
                  <use xlink:href="#rim" fill="#404040">
                        <set attributeName="fill" to="#808080" begin="arrowRight.mouseover" end="arrowRight.mouseout"/>
                  </use>
                  <path fill="none" stroke="white" stroke-width="1.5" d="M0,-3.0v7 M-2.5,-0.5L0,-3.0L2.5,-0.5"/>
                </g>
                <g id="arrowDown" xlink:href="#dirArrow" transform="rotate(180) translate(-30 -48)" onmousedown="handlePan(0,1)">
                  <use xlink:href="#rim" fill="#404040">
                        <set attributeName="fill" to="#808080" begin="arrowDown.mouseover" end="arrowDown.mouseout"/>
                  </use>
                  <path fill="none" stroke="white" stroke-width="1.5" d="M0,-3.0v7 M-2.5,-0.5L0,-3.0L2.5,-0.5"/>
                </g>
                <g id="arrowLeft" xlink:href="#dirArrow" transform="rotate(270) translate(-36 17)" onmousedown="handlePan(-1,0)">
                  <use xlink:href="#rim" fill="#404040">
                        <set attributeName="fill" to="#808080" begin="arrowLeft.mouseover" end="arrowLeft.mouseout"/>
                  </use>
                  <path fill="none" stroke="white" stroke-width="1.5" d="M0,-3.0v7 M-2.5,-0.5L0,-3.0L2.5,-0.5"/>
                </g>
        </g>
</svg>
