<?xml version="1.0" encoding="UTF-8" standalone="no"?>
<!DOCTYPE svg PUBLIC "-//W3C//DTD SVG 1.1//EN"
 "http://www.w3.org/Graphics/SVG/1.1/DTD/svg11.dtd">
<!-- Generated by graphviz version 2.26.3 (20100126.1600)
 -->
<!-- Title: G Pages: 1 -->
<!--zoomable 146 -->
<svg id="main" version="1.1" xmlns="http://www.w3.org/2000/svg" xmlns:xlink="http://www.w3.org/1999/xlink" xml:space="preserve" onload="init(evt)">
        <defs>
                <circle id="rim" cx="0" cy="0" r="7"/>
                <circle id="rim2" cx="0" cy="0" r="3.5"/>
                <g id="zoomPlus">
                        <use xlink:href="#rim" fill="#404040">
                                <set attributeName="fill" to="#808080" begin="zoomplus.mouseover" end="zoomplus.mouseout"/>
                        </use>
                        <path d="M-4,0h8M0,-4v8" fill="none" stroke="white" stroke-width="1.5" pointer-events="none"/>
                </g>
                <g id="zoomMin">
                        <use xlink:href="#rim" fill="#404040">
                                <set attributeName="fill" to="#808080" begin="zoomminus.mouseover" end="zoomminus.mouseout"/>
                        </use>
                        <path d="M-4,0h8" fill="none" stroke="white" stroke-width="1.5" pointer-events="none"/>
                </g>
                <g id="dirArrow">
                        <path fill="none" stroke="white" stroke-width="1.5" d="M0,-3.0v7 M-2.5,-0.5L0,-3.0L2.5,-0.5"/>
                </g>
               <g id="resetDef">
                       <use xlink:href="#rim2" fill="#404040">
                               <set attributeName="fill" to="#808080" begin="reset.mouseover" end="reset.mouseout"/>
                       </use>
               </g>
        </defs>

<script type="text/javascript">
var viewWidth = 960;
var viewHeight = 146;
var sectionId = 'dynsection-1';
</script>
<script xlink:href="svgpan.js"/>
<svg id="graph" class="graph">
<g id="viewport">
<title>G</title>
<!-- Node1 -->
<g id="node1" class="node"><title>Node1</title>
<polygon fill="#bfbfbf" stroke="black" points="257.5,-116.5 257.5,-137.5 472.5,-137.5 472.5,-116.5 257.5,-116.5"/>
<text text-anchor="middle" x="365" y="-124.5" font-family="FreeSans.ttf" font-size="10.00">core/xml/generated/binarizeParameters.h</text>
</g>
<!-- Node2 -->
<g id="node3" class="node"><title>Node2</title>
<a xlink:href="binarizeBlock_8h.html" target="_top" xlink:title="Add Comment Here.">
<polygon fill="none" stroke="black" points="92,-58.5 92,-79.5 234,-79.5 234,-58.5 92,-58.5"/>
<text text-anchor="middle" x="163" y="-66.5" font-family="FreeSans.ttf" font-size="10.00">core/filters/binarizeBlock.h</text>
</a>
</g>
<!-- Node1&#45;&gt;Node2 -->
<g id="edge2" class="edge"><title>Node1&#45;&gt;Node2</title>
<path fill="none" stroke="midnightblue" d="M318.608,-113.68C282.483,-103.307 233.03,-89.1078 199.649,-79.5231"/>
<polygon fill="midnightblue" stroke="midnightblue" points="317.842,-117.101 328.419,-116.497 319.774,-110.373 317.842,-117.101"/>
</g>
<!-- Node5 -->
<g id="node9" class="node"><title>Node5</title>
<a xlink:href="binarizeParameters_8cpp.html" target="_top" xlink:title="core/xml/generated/binarizeParameters.cpp">
<polygon fill="none" stroke="black" points="251.5,-58.5 251.5,-79.5 478.5,-79.5 478.5,-58.5 251.5,-58.5"/>
<text text-anchor="middle" x="365" y="-66.5" font-family="FreeSans.ttf" font-size="10.00">core/xml/generated/binarizeParameters.cpp</text>
</a>
</g>
<!-- Node1&#45;&gt;Node5 -->
<g id="edge8" class="edge"><title>Node1&#45;&gt;Node5</title>
<path fill="none" stroke="midnightblue" d="M365,-106.191C365,-97.1684 365,-86.9941 365,-79.5707"/>
<polygon fill="midnightblue" stroke="midnightblue" points="361.5,-106.362 365,-116.362 368.5,-106.362 361.5,-106.362"/>
</g>
<!-- Node6 -->
<g id="node11" class="node"><title>Node6</title>
<a xlink:href="binarizeParametersControlWidget_8h.html" target="_top" xlink:title="utils/filters/ui/binarizeParametersControlWidget.h">
<polygon fill="none" stroke="black" points="496,-58.5 496,-79.5 744,-79.5 744,-58.5 496,-58.5"/>
<text text-anchor="middle" x="620" y="-66.5" font-family="FreeSans.ttf" font-size="10.00">utils/filters/ui/binarizeParametersControlWidget.h</text>
</a>
</g>
<!-- Node1&#45;&gt;Node6 -->
<g id="edge10" class="edge"><title>Node1&#45;&gt;Node6</title>
<path fill="none" stroke="midnightblue" d="M420.952,-114.274C466.759,-103.855 530.785,-89.2921 573.735,-79.5231"/>
<polygon fill="midnightblue" stroke="midnightblue" points="420.153,-110.866 411.179,-116.497 421.706,-117.692 420.153,-110.866"/>
</g>
<!-- Node3 -->
<g id="node5" class="node"><title>Node3</title>
<a xlink:href="binarizeBlock_8cpp.html" target="_top" xlink:title="Add Comment Here.">
<polygon fill="none" stroke="black" points="-0.5,-0.5 -0.5,-21.5 152.5,-21.5 152.5,-0.5 -0.5,-0.5"/>
<text text-anchor="middle" x="76" y="-8.5" font-family="FreeSans.ttf" font-size="10.00">core/filters/binarizeBlock.cpp</text>
</a>
</g>
<!-- Node2&#45;&gt;Node3 -->
<g id="edge4" class="edge"><title>Node2&#45;&gt;Node3</title>
<path fill="none" stroke="midnightblue" d="M138.311,-52.5407C123.396,-42.5973 104.827,-30.2177 91.856,-21.5707"/>
<polygon fill="midnightblue" stroke="midnightblue" points="136.781,-55.727 147.043,-58.3619 140.664,-49.9027 136.781,-55.727"/>
</g>
<!-- Node4 -->
<g id="node7" class="node"><title>Node4</title>
<a xlink:href="filtersCollection_8cpp.html" target="_top" xlink:title="core/filters/filtersCollection.cpp">
<polygon fill="none" stroke="black" points="169.5,-0.5 169.5,-21.5 332.5,-21.5 332.5,-0.5 169.5,-0.5"/>
<text text-anchor="middle" x="251" y="-8.5" font-family="FreeSans.ttf" font-size="10.00">core/filters/filtersCollection.cpp</text>
</a>
</g>
<!-- Node2&#45;&gt;Node4 -->
<g id="edge6" class="edge"><title>Node2&#45;&gt;Node4</title>
<path fill="none" stroke="midnightblue" d="M187.547,-52.8215C202.704,-42.8312 221.718,-30.2993 234.962,-21.5707"/>
<polygon fill="midnightblue" stroke="midnightblue" points="185.564,-49.9364 179.141,-58.3619 189.416,-55.7811 185.564,-49.9364"/>
</g>
<!-- Node7 -->
<g id="node13" class="node"><title>Node7</title>
<a xlink:href="filterPresentationsCollection_8cpp.html" target="_top" xlink:title="utils/filters/graph/filterPresentationsCollection.cpp">
<polygon fill="none" stroke="black" points="421.5,-0.5 421.5,-21.5 674.5,-21.5 674.5,-0.5 421.5,-0.5"/>
<text text-anchor="middle" x="548" y="-8.5" font-family="FreeSans.ttf" font-size="10.00">utils/filters/graph/filterPresentationsCollection.cpp</text>
</a>
</g>
<!-- Node6&#45;&gt;Node7 -->
<g id="edge12" class="edge"><title>Node6&#45;&gt;Node7</title>
<path fill="none" stroke="midnightblue" d="M598.866,-51.9753C586.646,-42.1315 571.654,-30.0545 561.122,-21.5707"/>
<polygon fill="midnightblue" stroke="midnightblue" points="596.811,-54.8142 606.794,-58.3619 601.202,-49.3629 596.811,-54.8142"/>
</g>
<!-- Node8 -->
<g id="node15" class="node"><title>Node8</title>
<a xlink:href="binarizeParametersControlWidget_8cpp.html" target="_top" xlink:title="utils/filters/ui/binarizeParametersControlWidget.cpp">
<polygon fill="none" stroke="black" points="692,-0.5 692,-21.5 952,-21.5 952,-0.5 692,-0.5"/>
<text text-anchor="middle" x="822" y="-8.5" font-family="FreeSans.ttf" font-size="10.00">utils/filters/ui/binarizeParametersControlWidget.cpp</text>
</a>
</g>
<!-- Node6&#45;&gt;Node8 -->
<g id="edge14" class="edge"><title>Node6&#45;&gt;Node8</title>
<path fill="none" stroke="midnightblue" d="M666.392,-55.6795C702.517,-45.307 751.97,-31.1078 785.351,-21.5231"/>
<polygon fill="midnightblue" stroke="midnightblue" points="665.226,-52.3727 656.581,-58.4966 667.158,-59.1009 665.226,-52.3727"/>
</g>
</g>
</svg>
        <g id="navigator" transform="translate(0 0)" fill="#404254">
                <rect fill="#f2f5e9" fill-opacity="0.5" stroke="#606060" stroke-width=".5" x="0" y="0" width="60" height="60"/>
                <use id="zoomplus" xlink:href="#zoomPlus" x="17" y="9" onmousedown="handleZoom(evt,'in')"/>
                <use id="zoomminus" xlink:href="#zoomMin" x="42" y="9" onmousedown="handleZoom(evt,'out')"/>
                <use id="reset" xlink:href="#resetDef" x="30" y="36" onmousedown="handleReset()"/>
                <g id="arrowUp" xlink:href="#dirArrow" transform="translate(30 24)" onmousedown="handlePan(0,-1)">
                  <use xlink:href="#rim" fill="#404040">
                        <set attributeName="fill" to="#808080" begin="arrowUp.mouseover" end="arrowUp.mouseout"/>
                  </use>
                  <path fill="none" stroke="white" stroke-width="1.5" d="M0,-3.0v7 M-2.5,-0.5L0,-3.0L2.5,-0.5"/>
                </g>
                <g id="arrowRight" xlink:href="#dirArrow" transform="rotate(90) translate(36 -43)" onmousedown="handlePan(1,0)">
                  <use xlink:href="#rim" fill="#404040">
                        <set attributeName="fill" to="#808080" begin="arrowRight.mouseover" end="arrowRight.mouseout"/>
                  </use>
                  <path fill="none" stroke="white" stroke-width="1.5" d="M0,-3.0v7 M-2.5,-0.5L0,-3.0L2.5,-0.5"/>
                </g>
                <g id="arrowDown" xlink:href="#dirArrow" transform="rotate(180) translate(-30 -48)" onmousedown="handlePan(0,1)">
                  <use xlink:href="#rim" fill="#404040">
                        <set attributeName="fill" to="#808080" begin="arrowDown.mouseover" end="arrowDown.mouseout"/>
                  </use>
                  <path fill="none" stroke="white" stroke-width="1.5" d="M0,-3.0v7 M-2.5,-0.5L0,-3.0L2.5,-0.5"/>
                </g>
                <g id="arrowLeft" xlink:href="#dirArrow" transform="rotate(270) translate(-36 17)" onmousedown="handlePan(-1,0)">
                  <use xlink:href="#rim" fill="#404040">
                        <set attributeName="fill" to="#808080" begin="arrowLeft.mouseover" end="arrowLeft.mouseout"/>
                  </use>
                  <path fill="none" stroke="white" stroke-width="1.5" d="M0,-3.0v7 M-2.5,-0.5L0,-3.0L2.5,-0.5"/>
                </g>
        </g>
</svg>
