<?xml version="1.0" encoding="UTF-8" standalone="no"?>
<!DOCTYPE svg PUBLIC "-//W3C//DTD SVG 1.1//EN"
 "http://www.w3.org/Graphics/SVG/1.1/DTD/svg11.dtd">
<!-- Generated by graphviz version 2.26.3 (20100126.1600)
 -->
<!-- Title: G Pages: 1 -->
<!--zoomable 146 -->
<svg id="main" version="1.1" xmlns="http://www.w3.org/2000/svg" xmlns:xlink="http://www.w3.org/1999/xlink" xml:space="preserve" onload="init(evt)">
        <defs>
                <circle id="rim" cx="0" cy="0" r="7"/>
                <circle id="rim2" cx="0" cy="0" r="3.5"/>
                <g id="zoomPlus">
                        <use xlink:href="#rim" fill="#404040">
                                <set attributeName="fill" to="#808080" begin="zoomplus.mouseover" end="zoomplus.mouseout"/>
                        </use>
                        <path d="M-4,0h8M0,-4v8" fill="none" stroke="white" stroke-width="1.5" pointer-events="none"/>
                </g>
                <g id="zoomMin">
                        <use xlink:href="#rim" fill="#404040">
                                <set attributeName="fill" to="#808080" begin="zoomminus.mouseover" end="zoomminus.mouseout"/>
                        </use>
                        <path d="M-4,0h8" fill="none" stroke="white" stroke-width="1.5" pointer-events="none"/>
                </g>
                <g id="dirArrow">
                        <path fill="none" stroke="white" stroke-width="1.5" d="M0,-3.0v7 M-2.5,-0.5L0,-3.0L2.5,-0.5"/>
                </g>
               <g id="resetDef">
                       <use xlink:href="#rim2" fill="#404040">
                               <set attributeName="fill" to="#808080" begin="reset.mouseover" end="reset.mouseout"/>
                       </use>
               </g>
        </defs>

<script type="text/javascript">
var viewWidth = 1149;
var viewHeight = 146;
var sectionId = 'dynsection-1';
</script>
<script xlink:href="svgpan.js"/>
<svg id="graph" class="graph">
<g id="viewport">
<title>G</title>
<!-- Node1 -->
<g id="node1" class="node"><title>Node1</title>
<polygon fill="#bfbfbf" stroke="black" points="350,-116.5 350,-137.5 580,-137.5 580,-116.5 350,-116.5"/>
<text text-anchor="middle" x="465" y="-124.5" font-family="FreeSans.ttf" font-size="10.00">core/xml/generated/bitSelectorParameters.h</text>
</g>
<!-- Node2 -->
<g id="node3" class="node"><title>Node2</title>
<a xlink:href="bitSelectorFilter_8h.html" target="_top" xlink:title="Add Comment Here.">
<polygon fill="none" stroke="black" points="175,-58.5 175,-79.5 327,-79.5 327,-58.5 175,-58.5"/>
<text text-anchor="middle" x="251" y="-66.5" font-family="FreeSans.ttf" font-size="10.00">core/filters/bitSelectorFilter.h</text>
</a>
</g>
<!-- Node1&#45;&gt;Node2 -->
<g id="edge2" class="edge"><title>Node1&#45;&gt;Node2</title>
<path fill="none" stroke="midnightblue" d="M416.342,-113.812C378.029,-103.428 325.342,-89.1487 289.826,-79.5231"/>
<polygon fill="midnightblue" stroke="midnightblue" points="415.679,-117.259 426.246,-116.497 417.51,-110.503 415.679,-117.259"/>
</g>
<!-- Node6 -->
<g id="node11" class="node"><title>Node6</title>
<a xlink:href="bitSelectorParameters_8cpp.html" target="_top" xlink:title="core/xml/generated/bitSelectorParameters.cpp">
<polygon fill="none" stroke="black" points="344.5,-58.5 344.5,-79.5 585.5,-79.5 585.5,-58.5 344.5,-58.5"/>
<text text-anchor="middle" x="465" y="-66.5" font-family="FreeSans.ttf" font-size="10.00">core/xml/generated/bitSelectorParameters.cpp</text>
</a>
</g>
<!-- Node1&#45;&gt;Node6 -->
<g id="edge10" class="edge"><title>Node1&#45;&gt;Node6</title>
<path fill="none" stroke="midnightblue" d="M465,-106.191C465,-97.1684 465,-86.9941 465,-79.5707"/>
<polygon fill="midnightblue" stroke="midnightblue" points="461.5,-106.362 465,-116.362 468.5,-106.362 461.5,-106.362"/>
</g>
<!-- Node7 -->
<g id="node13" class="node"><title>Node7</title>
<a xlink:href="bitSelectorParametersControlWidget_8h.html" target="_top" xlink:title="utils/filters/ui/bitSelectorParametersControlWidget.h">
<polygon fill="none" stroke="black" points="602.5,-58.5 602.5,-79.5 865.5,-79.5 865.5,-58.5 602.5,-58.5"/>
<text text-anchor="middle" x="734" y="-66.5" font-family="FreeSans.ttf" font-size="10.00">utils/filters/ui/bitSelectorParametersControlWidget.h</text>
</a>
</g>
<!-- Node1&#45;&gt;Node7 -->
<g id="edge12" class="edge"><title>Node1&#45;&gt;Node7</title>
<path fill="none" stroke="midnightblue" d="M523.72,-114.339C572.062,-103.916 639.792,-89.3126 685.195,-79.5231"/>
<polygon fill="midnightblue" stroke="midnightblue" points="522.752,-110.967 513.714,-116.497 524.227,-117.81 522.752,-110.967"/>
</g>
<!-- Node3 -->
<g id="node5" class="node"><title>Node3</title>
<a xlink:href="bitSelectorFilter_8cpp.html" target="_top" xlink:title="Add Comment Here.">
<polygon fill="none" stroke="black" points="0,-0.5 0,-21.5 164,-21.5 164,-0.5 0,-0.5"/>
<text text-anchor="middle" x="82" y="-8.5" font-family="FreeSans.ttf" font-size="10.00">core/filters/bitSelectorFilter.cpp</text>
</a>
</g>
<!-- Node2&#45;&gt;Node3 -->
<g id="edge4" class="edge"><title>Node2&#45;&gt;Node3</title>
<path fill="none" stroke="midnightblue" d="M210.627,-55.1443C180.553,-44.8229 140.112,-30.9439 112.662,-21.5231"/>
<polygon fill="midnightblue" stroke="midnightblue" points="209.801,-58.5609 220.395,-58.4966 212.073,-51.94 209.801,-58.5609"/>
</g>
<!-- Node4 -->
<g id="node7" class="node"><title>Node4</title>
<a xlink:href="filtersCollection_8cpp.html" target="_top" xlink:title="core/filters/filtersCollection.cpp">
<polygon fill="none" stroke="black" points="181.5,-0.5 181.5,-21.5 344.5,-21.5 344.5,-0.5 181.5,-0.5"/>
<text text-anchor="middle" x="263" y="-8.5" font-family="FreeSans.ttf" font-size="10.00">core/filters/filtersCollection.cpp</text>
</a>
</g>
<!-- Node2&#45;&gt;Node4 -->
<g id="edge6" class="edge"><title>Node2&#45;&gt;Node4</title>
<path fill="none" stroke="midnightblue" d="M255.244,-48.4876C257.126,-39.3924 259.26,-29.0756 260.813,-21.5707"/>
<polygon fill="midnightblue" stroke="midnightblue" points="251.8,-47.8602 253.201,-58.3619 258.655,-49.2784 251.8,-47.8602"/>
</g>
<!-- Node5 -->
<g id="node9" class="node"><title>Node5</title>
<a xlink:href="filterSelector_8cpp.html" target="_top" xlink:title="utils/filters/filterSelector.cpp">
<polygon fill="none" stroke="black" points="407.5,-0.5 407.5,-21.5 556.5,-21.5 556.5,-0.5 407.5,-0.5"/>
<text text-anchor="middle" x="482" y="-8.5" font-family="FreeSans.ttf" font-size="10.00">utils/filters/filterSelector.cpp</text>
</a>
</g>
<!-- Node2&#45;&gt;Node5 -->
<g id="edge8" class="edge"><title>Node2&#45;&gt;Node5</title>
<path fill="none" stroke="midnightblue" d="M302.733,-56.0107C344.153,-45.6109 401.508,-31.2102 440.089,-21.5231"/>
<polygon fill="midnightblue" stroke="midnightblue" points="301.679,-52.6667 292.832,-58.4966 303.384,-59.456 301.679,-52.6667"/>
</g>
<!-- Node7&#45;&gt;Node5 -->
<g id="edge14" class="edge"><title>Node7&#45;&gt;Node5</title>
<path fill="none" stroke="midnightblue" d="M678.421,-56.2081C633.173,-45.7938 570.077,-31.2716 527.721,-21.5231"/>
<polygon fill="midnightblue" stroke="midnightblue" points="677.834,-59.6644 688.365,-58.4966 679.405,-52.8428 677.834,-59.6644"/>
</g>
<!-- Node8 -->
<g id="node16" class="node"><title>Node8</title>
<a xlink:href="filterPresentationsCollection_8cpp.html" target="_top" xlink:title="utils/filters/graph/filterPresentationsCollection.cpp">
<polygon fill="none" stroke="black" points="596.5,-0.5 596.5,-21.5 849.5,-21.5 849.5,-0.5 596.5,-0.5"/>
<text text-anchor="middle" x="723" y="-8.5" font-family="FreeSans.ttf" font-size="10.00">utils/filters/graph/filterPresentationsCollection.cpp</text>
</a>
</g>
<!-- Node7&#45;&gt;Node8 -->
<g id="edge16" class="edge"><title>Node7&#45;&gt;Node8</title>
<path fill="none" stroke="midnightblue" d="M730.11,-48.4876C728.385,-39.3924 726.428,-29.0756 725.005,-21.5707"/>
<polygon fill="midnightblue" stroke="midnightblue" points="726.68,-49.1892 731.982,-58.3619 733.558,-47.8848 726.68,-49.1892"/>
</g>
<!-- Node9 -->
<g id="node18" class="node"><title>Node9</title>
<a xlink:href="bitSelectorParametersControlWidget_8cpp.html" target="_top" xlink:title="utils/filters/ui/bitSelectorParametersControlWidget.cpp">
<polygon fill="none" stroke="black" points="867,-0.5 867,-21.5 1141,-21.5 1141,-0.5 867,-0.5"/>
<text text-anchor="middle" x="1004" y="-8.5" font-family="FreeSans.ttf" font-size="10.00">utils/filters/ui/bitSelectorParametersControlWidget.cpp</text>
</a>
</g>
<!-- Node7&#45;&gt;Node9 -->
<g id="edge18" class="edge"><title>Node7&#45;&gt;Node9</title>
<path fill="none" stroke="midnightblue" d="M792.939,-56.3391C841.46,-45.9159 909.442,-31.3126 955.013,-21.5231"/>
<polygon fill="midnightblue" stroke="midnightblue" points="791.937,-52.9744 782.895,-58.4966 793.407,-59.8183 791.937,-52.9744"/>
</g>
</g>
</svg>
        <g id="navigator" transform="translate(0 0)" fill="#404254">
                <rect fill="#f2f5e9" fill-opacity="0.5" stroke="#606060" stroke-width=".5" x="0" y="0" width="60" height="60"/>
                <use id="zoomplus" xlink:href="#zoomPlus" x="17" y="9" onmousedown="handleZoom(evt,'in')"/>
                <use id="zoomminus" xlink:href="#zoomMin" x="42" y="9" onmousedown="handleZoom(evt,'out')"/>
                <use id="reset" xlink:href="#resetDef" x="30" y="36" onmousedown="handleReset()"/>
                <g id="arrowUp" xlink:href="#dirArrow" transform="translate(30 24)" onmousedown="handlePan(0,-1)">
                  <use xlink:href="#rim" fill="#404040">
                        <set attributeName="fill" to="#808080" begin="arrowUp.mouseover" end="arrowUp.mouseout"/>
                  </use>
                  <path fill="none" stroke="white" stroke-width="1.5" d="M0,-3.0v7 M-2.5,-0.5L0,-3.0L2.5,-0.5"/>
                </g>
                <g id="arrowRight" xlink:href="#dirArrow" transform="rotate(90) translate(36 -43)" onmousedown="handlePan(1,0)">
                  <use xlink:href="#rim" fill="#404040">
                        <set attributeName="fill" to="#808080" begin="arrowRight.mouseover" end="arrowRight.mouseout"/>
                  </use>
                  <path fill="none" stroke="white" stroke-width="1.5" d="M0,-3.0v7 M-2.5,-0.5L0,-3.0L2.5,-0.5"/>
                </g>
                <g id="arrowDown" xlink:href="#dirArrow" transform="rotate(180) translate(-30 -48)" onmousedown="handlePan(0,1)">
                  <use xlink:href="#rim" fill="#404040">
                        <set attributeName="fill" to="#808080" begin="arrowDown.mouseover" end="arrowDown.mouseout"/>
                  </use>
                  <path fill="none" stroke="white" stroke-width="1.5" d="M0,-3.0v7 M-2.5,-0.5L0,-3.0L2.5,-0.5"/>
                </g>
                <g id="arrowLeft" xlink:href="#dirArrow" transform="rotate(270) translate(-36 17)" onmousedown="handlePan(-1,0)">
                  <use xlink:href="#rim" fill="#404040">
                        <set attributeName="fill" to="#808080" begin="arrowLeft.mouseover" end="arrowLeft.mouseout"/>
                  </use>
                  <path fill="none" stroke="white" stroke-width="1.5" d="M0,-3.0v7 M-2.5,-0.5L0,-3.0L2.5,-0.5"/>
                </g>
        </g>
</svg>
