<?xml version="1.0" encoding="UTF-8" standalone="no"?>
<!DOCTYPE svg PUBLIC "-//W3C//DTD SVG 1.1//EN"
 "http://www.w3.org/Graphics/SVG/1.1/DTD/svg11.dtd">
<!-- Generated by graphviz version 2.26.3 (20100126.1600)
 -->
<!-- Title: G Pages: 1 -->
<svg width="337pt" height="146pt"
 viewBox="0.00 0.00 337.00 146.00" xmlns="http://www.w3.org/2000/svg" xmlns:xlink="http://www.w3.org/1999/xlink">
<g id="graph1" class="graph" transform="scale(1 1) rotate(0) translate(4 142)">
<title>G</title>
<!-- Node1 -->
<g id="node1" class="node"><title>Node1</title>
<polygon fill="#bfbfbf" stroke="black" points="90.5,-116.5 90.5,-137.5 215.5,-137.5 215.5,-116.5 90.5,-116.5"/>
<text text-anchor="middle" x="153" y="-124.5" font-family="FreeSans.ttf" font-size="10.00">core/buffers/buffer3d.h</text>
</g>
<!-- Node2 -->
<g id="node3" class="node"><title>Node2</title>
<a xlink:href="buffer3d_8cpp.html" target="_top" xlink:title="core/buffers/buffer3d.cpp">
<polygon fill="none" stroke="black" points="-0.5,-58.5 -0.5,-79.5 136.5,-79.5 136.5,-58.5 -0.5,-58.5"/>
<text text-anchor="middle" x="68" y="-66.5" font-family="FreeSans.ttf" font-size="10.00">core/buffers/buffer3d.cpp</text>
</a>
</g>
<!-- Node1&#45;&gt;Node2 -->
<g id="edge2" class="edge"><title>Node1&#45;&gt;Node2</title>
<path fill="none" stroke="midnightblue" d="M128.879,-110.541C114.306,-100.597 96.1639,-88.2177 83.4915,-79.5707"/>
<polygon fill="midnightblue" stroke="midnightblue" points="127.177,-113.617 137.41,-116.362 131.122,-107.834 127.177,-113.617"/>
</g>
<!-- Node3 -->
<g id="node5" class="node"><title>Node3</title>
<a xlink:href="clustering3d_8h.html" target="_top" xlink:title="core/clustering3d/clustering3d.h">
<polygon fill="none" stroke="black" points="154,-58.5 154,-79.5 324,-79.5 324,-58.5 154,-58.5"/>
<text text-anchor="middle" x="239" y="-66.5" font-family="FreeSans.ttf" font-size="10.00">core/clustering3d/clustering3d.h</text>
</a>
</g>
<!-- Node1&#45;&gt;Node3 -->
<g id="edge4" class="edge"><title>Node1&#45;&gt;Node3</title>
<path fill="none" stroke="midnightblue" d="M177.405,-110.541C192.149,-100.597 210.505,-88.2177 223.326,-79.5707"/>
<polygon fill="midnightblue" stroke="midnightblue" points="175.107,-107.869 168.774,-116.362 179.021,-113.672 175.107,-107.869"/>
</g>
<!-- Node4 -->
<g id="node7" class="node"><title>Node4</title>
<a xlink:href="clustering3d_8cpp.html" target="_top" xlink:title="core/clustering3d/clustering3d.cpp">
<polygon fill="none" stroke="black" points="148.5,-0.5 148.5,-21.5 329.5,-21.5 329.5,-0.5 148.5,-0.5"/>
<text text-anchor="middle" x="239" y="-8.5" font-family="FreeSans.ttf" font-size="10.00">core/clustering3d/clustering3d.cpp</text>
</a>
</g>
<!-- Node3&#45;&gt;Node4 -->
<g id="edge6" class="edge"><title>Node3&#45;&gt;Node4</title>
<path fill="none" stroke="midnightblue" d="M239,-48.1906C239,-39.1684 239,-28.9941 239,-21.5707"/>
<polygon fill="midnightblue" stroke="midnightblue" points="235.5,-48.3619 239,-58.3619 242.5,-48.3619 235.5,-48.3619"/>
</g>
</g>
</svg>
