<?xml version="1.0" encoding="UTF-8" standalone="no"?>
<!DOCTYPE svg PUBLIC "-//W3C//DTD SVG 1.1//EN"
 "http://www.w3.org/Graphics/SVG/1.1/DTD/svg11.dtd">
<!-- Generated by graphviz version 2.26.3 (20100126.1600)
 -->
<!-- Title: G Pages: 1 -->
<!--zoomable 320 -->
<svg id="main" version="1.1" xmlns="http://www.w3.org/2000/svg" xmlns:xlink="http://www.w3.org/1999/xlink" xml:space="preserve" onload="init(evt)">
        <defs>
                <circle id="rim" cx="0" cy="0" r="7"/>
                <circle id="rim2" cx="0" cy="0" r="3.5"/>
                <g id="zoomPlus">
                        <use xlink:href="#rim" fill="#404040">
                                <set attributeName="fill" to="#808080" begin="zoomplus.mouseover" end="zoomplus.mouseout"/>
                        </use>
                        <path d="M-4,0h8M0,-4v8" fill="none" stroke="white" stroke-width="1.5" pointer-events="none"/>
                </g>
                <g id="zoomMin">
                        <use xlink:href="#rim" fill="#404040">
                                <set attributeName="fill" to="#808080" begin="zoomminus.mouseover" end="zoomminus.mouseout"/>
                        </use>
                        <path d="M-4,0h8" fill="none" stroke="white" stroke-width="1.5" pointer-events="none"/>
                </g>
                <g id="dirArrow">
                        <path fill="none" stroke="white" stroke-width="1.5" d="M0,-3.0v7 M-2.5,-0.5L0,-3.0L2.5,-0.5"/>
                </g>
               <g id="resetDef">
                       <use xlink:href="#rim2" fill="#404040">
                               <set attributeName="fill" to="#808080" begin="reset.mouseover" end="reset.mouseout"/>
                       </use>
               </g>
        </defs>

<script type="text/javascript">
var viewWidth = 644;
var viewHeight = 320;
var sectionId = 'dynsection-0';
</script>
<script xlink:href="svgpan.js"/>
<svg id="graph" class="graph">
<g id="viewport">
<title>G</title>
<!-- Node1 -->
<g id="node1" class="node"><title>Node1</title>
<polygon fill="#bfbfbf" stroke="black" points="242.5,-290.5 242.5,-311.5 395.5,-311.5 395.5,-290.5 242.5,-290.5"/>
<text text-anchor="middle" x="319" y="-298.5" font-family="FreeSans.ttf" font-size="10.00">core/stats/calculationStats.h</text>
</g>
<!-- Node1&#45;&gt;Node1 -->
<g id="edge58" class="edge"><title>Node1&#45;&gt;Node1</title>
<path fill="none" stroke="midnightblue" d="M366.882,-311.524C391.197,-313.061 413,-309.553 413,-301 413,-293.65 396.898,-290.026 376.937,-290.127"/>
<polygon fill="midnightblue" stroke="midnightblue" points="376.755,-286.631 366.882,-290.476 376.998,-293.627 376.755,-286.631"/>
</g>
<!-- Node2 -->
<g id="node3" class="node"><title>Node2</title>
<polygon fill="none" stroke="#bfbfbf" points="328,-116.5 328,-137.5 370,-137.5 370,-116.5 328,-116.5"/>
<text text-anchor="middle" x="349" y="-124.5" font-family="FreeSans.ttf" font-size="10.00">limits</text>
</g>
<!-- Node1&#45;&gt;Node2 -->
<g id="edge2" class="edge"><title>Node1&#45;&gt;Node2</title>
<path fill="none" stroke="midnightblue" d="M320.831,-290.377C325.674,-262.293 338.884,-185.673 345.344,-148.203"/>
<polygon fill="midnightblue" stroke="midnightblue" points="348.866,-148.377 347.116,-137.928 341.968,-147.188 348.866,-148.377"/>
</g>
<!-- Node3 -->
<g id="node5" class="node"><title>Node3</title>
<polygon fill="none" stroke="#bfbfbf" points="583.5,-58.5 583.5,-79.5 636.5,-79.5 636.5,-58.5 583.5,-58.5"/>
<text text-anchor="middle" x="610" y="-66.5" font-family="FreeSans.ttf" font-size="10.00">stdint.h</text>
</g>
<!-- Node1&#45;&gt;Node3 -->
<g id="edge4" class="edge"><title>Node1&#45;&gt;Node3</title>
<path fill="none" stroke="midnightblue" d="M395.777,-296.986C465.623,-291.719 561.832,-279.89 589,-254 633.939,-211.175 623.272,-128.493 615.137,-89.8523"/>
<polygon fill="midnightblue" stroke="midnightblue" points="618.479,-88.759 612.858,-79.7777 611.651,-90.3035 618.479,-88.759"/>
</g>
<!-- Node4 -->
<g id="node7" class="node"><title>Node4</title>
<polygon fill="none" stroke="#bfbfbf" points="183,-232.5 183,-253.5 221,-253.5 221,-232.5 183,-232.5"/>
<text text-anchor="middle" x="202" y="-240.5" font-family="FreeSans.ttf" font-size="10.00">map</text>
</g>
<!-- Node1&#45;&gt;Node4 -->
<g id="edge6" class="edge"><title>Node1&#45;&gt;Node4</title>
<path fill="none" stroke="midnightblue" d="M297.812,-290.497C278.853,-281.098 250.92,-267.251 230.101,-256.93"/>
<polygon fill="midnightblue" stroke="midnightblue" points="231.607,-253.771 221.093,-252.465 228.498,-260.042 231.607,-253.771"/>
</g>
<!-- Node5 -->
<g id="node9" class="node"><title>Node5</title>
<polygon fill="none" stroke="#bfbfbf" points="0,-58.5 0,-79.5 44,-79.5 44,-58.5 0,-58.5"/>
<text text-anchor="middle" x="22" y="-66.5" font-family="FreeSans.ttf" font-size="10.00">string</text>
</g>
<!-- Node1&#45;&gt;Node5 -->
<g id="edge8" class="edge"><title>Node1&#45;&gt;Node5</title>
<path fill="none" stroke="midnightblue" d="M242.284,-290.795C212.101,-284 178.421,-272.715 152,-254 90.219,-210.238 47.741,-127.411 30.5472,-89.22"/>
<polygon fill="midnightblue" stroke="midnightblue" points="33.5945,-87.4539 26.3731,-79.7013 27.1838,-90.2651 33.5945,-87.4539"/>
</g>
<!-- Node6 -->
<g id="node11" class="node"><title>Node6</title>
<a xlink:href="global_8h.html" target="_top" xlink:title="This file holds the global includes, mostly for debuging, tracing and profiling.">
<polygon fill="none" stroke="black" points="439,-58.5 439,-79.5 493,-79.5 493,-58.5 439,-58.5"/>
<text text-anchor="middle" x="466" y="-66.5" font-family="FreeSans.ttf" font-size="10.00">global.h</text>
</a>
</g>
<!-- Node1&#45;&gt;Node6 -->
<g id="edge10" class="edge"><title>Node1&#45;&gt;Node6</title>
<path fill="none" stroke="midnightblue" d="M330.043,-290.236C354.695,-265.597 414.589,-202.25 447,-138 454.683,-122.769 459.59,-104.028 462.489,-89.9238"/>
<polygon fill="midnightblue" stroke="midnightblue" points="465.991,-90.2359 464.398,-79.7616 459.112,-88.9436 465.991,-90.2359"/>
</g>
<!-- Node8 -->
<g id="node15" class="node"><title>Node8</title>
<polygon fill="none" stroke="#bfbfbf" points="61.5,-58.5 61.5,-79.5 114.5,-79.5 114.5,-58.5 61.5,-58.5"/>
<text text-anchor="middle" x="88" y="-66.5" font-family="FreeSans.ttf" font-size="10.00">string.h</text>
</g>
<!-- Node1&#45;&gt;Node8 -->
<g id="edge14" class="edge"><title>Node1&#45;&gt;Node8</title>
<path fill="none" stroke="midnightblue" d="M248.886,-290.457C222.938,-283.633 194.806,-272.417 174,-254 123.067,-208.917 100.154,-127.364 91.8842,-89.4296"/>
<polygon fill="midnightblue" stroke="midnightblue" points="95.2945,-88.6368 89.8504,-79.5477 88.4382,-90.048 95.2945,-88.6368"/>
</g>
<!-- Node9 -->
<g id="node17" class="node"><title>Node9</title>
<a xlink:href="fixedVector_8h.html" target="_top" xlink:title="This file holds the description of the commonly used template &#45; a vector with the fixed number of com...">
<polygon fill="none" stroke="black" points="239,-232.5 239,-253.5 317,-253.5 317,-232.5 239,-232.5"/>
<text text-anchor="middle" x="278" y="-240.5" font-family="FreeSans.ttf" font-size="10.00">fixedVector.h</text>
</a>
</g>
<!-- Node1&#45;&gt;Node9 -->
<g id="edge16" class="edge"><title>Node1&#45;&gt;Node9</title>
<path fill="none" stroke="midnightblue" d="M311.48,-290.362C305.874,-282.431 298.068,-271.389 291.403,-261.961"/>
<polygon fill="midnightblue" stroke="midnightblue" points="294.103,-259.716 285.472,-253.571 288.387,-263.757 294.103,-259.716"/>
</g>
<!-- Node17 -->
<g id="node40" class="node"><title>Node17</title>
<a xlink:href="preciseTimer_8h.html" target="_top" xlink:title="Add Comment Here.">
<polygon fill="none" stroke="black" points="494,-232.5 494,-253.5 580,-253.5 580,-232.5 494,-232.5"/>
<text text-anchor="middle" x="537" y="-240.5" font-family="FreeSans.ttf" font-size="10.00">preciseTimer.h</text>
</a>
</g>
<!-- Node1&#45;&gt;Node17 -->
<g id="edge46" class="edge"><title>Node1&#45;&gt;Node17</title>
<path fill="none" stroke="midnightblue" d="M358.478,-290.497C394.633,-280.877 448.304,-266.598 487.353,-256.209"/>
<polygon fill="midnightblue" stroke="midnightblue" points="488.684,-259.477 497.448,-253.523 486.884,-252.712 488.684,-259.477"/>
</g>
<!-- Node7 -->
<g id="node13" class="node"><title>Node7</title>
<polygon fill="none" stroke="#bfbfbf" points="434,-0.5 434,-21.5 498,-21.5 498,-0.5 434,-0.5"/>
<text text-anchor="middle" x="466" y="-8.5" font-family="FreeSans.ttf" font-size="10.00">inttypes.h</text>
</g>
<!-- Node6&#45;&gt;Node7 -->
<g id="edge12" class="edge"><title>Node6&#45;&gt;Node7</title>
<path fill="none" stroke="midnightblue" d="M466,-58.3619C466,-50.9219 466,-40.7427 466,-31.7276"/>
<polygon fill="midnightblue" stroke="midnightblue" points="469.5,-31.5706 466,-21.5707 462.5,-31.5707 469.5,-31.5706"/>
</g>
<!-- Node10 -->
<g id="node19" class="node"><title>Node10</title>
<polygon fill="none" stroke="#bfbfbf" points="131.5,-58.5 131.5,-79.5 180.5,-79.5 180.5,-58.5 131.5,-58.5"/>
<text text-anchor="middle" x="156" y="-66.5" font-family="FreeSans.ttf" font-size="10.00">stdio.h</text>
</g>
<!-- Node9&#45;&gt;Node10 -->
<g id="edge18" class="edge"><title>Node9&#45;&gt;Node10</title>
<path fill="none" stroke="midnightblue" d="M252.969,-232.408C220.549,-217.083 165.739,-185.282 145,-138 138.178,-122.446 142.109,-103.265 147.071,-89.0782"/>
<polygon fill="midnightblue" stroke="midnightblue" points="150.335,-90.341 150.728,-79.7534 143.818,-87.7854 150.335,-90.341"/>
</g>
<!-- Node11 -->
<g id="node21" class="node"><title>Node11</title>
<a xlink:href="vectorOperations_8h.html" target="_top" xlink:title="This file holds the operations that are commonly used with continuous linear data structures such as ...">
<polygon fill="none" stroke="black" points="217,-174.5 217,-195.5 325,-195.5 325,-174.5 217,-174.5"/>
<text text-anchor="middle" x="271" y="-182.5" font-family="FreeSans.ttf" font-size="10.00">vectorOperations.h</text>
</a>
</g>
<!-- Node9&#45;&gt;Node11 -->
<g id="edge20" class="edge"><title>Node9&#45;&gt;Node11</title>
<path fill="none" stroke="midnightblue" d="M276.716,-232.362C275.818,-224.922 274.59,-214.743 273.502,-205.728"/>
<polygon fill="midnightblue" stroke="midnightblue" points="276.949,-205.079 272.276,-195.571 269.999,-205.918 276.949,-205.079"/>
</g>
<!-- Node11&#45;&gt;Node2 -->
<g id="edge22" class="edge"><title>Node11&#45;&gt;Node2</title>
<path fill="none" stroke="midnightblue" d="M285.306,-174.362C296.851,-165.777 313.3,-153.546 326.59,-143.664"/>
<polygon fill="midnightblue" stroke="midnightblue" points="328.848,-146.346 334.784,-137.571 324.671,-140.729 328.848,-146.346"/>
</g>
<!-- Node11&#45;&gt;Node10 -->
<g id="edge26" class="edge"><title>Node11&#45;&gt;Node10</title>
<path fill="none" stroke="midnightblue" d="M216.902,-176.792C193.79,-170.312 168.963,-158.723 155,-138 145.519,-123.929 146.834,-104.309 149.902,-89.586"/>
<polygon fill="midnightblue" stroke="midnightblue" points="153.299,-90.4296 152.316,-79.8804 146.506,-88.7398 153.299,-90.4296"/>
</g>
<!-- Node12 -->
<g id="node24" class="node"><title>Node12</title>
<polygon fill="none" stroke="#bfbfbf" points="163.5,-116.5 163.5,-137.5 222.5,-137.5 222.5,-116.5 163.5,-116.5"/>
<text text-anchor="middle" x="193" y="-124.5" font-family="FreeSans.ttf" font-size="10.00">iostream</text>
</g>
<!-- Node11&#45;&gt;Node12 -->
<g id="edge24" class="edge"><title>Node11&#45;&gt;Node12</title>
<path fill="none" stroke="midnightblue" d="M256.694,-174.362C245.149,-165.777 228.7,-153.546 215.41,-143.664"/>
<polygon fill="midnightblue" stroke="midnightblue" points="217.329,-140.729 207.216,-137.571 213.152,-146.346 217.329,-140.729"/>
</g>
<!-- Node13 -->
<g id="node27" class="node"><title>Node13</title>
<polygon fill="none" stroke="#bfbfbf" points="387.5,-116.5 387.5,-137.5 438.5,-137.5 438.5,-116.5 387.5,-116.5"/>
<text text-anchor="middle" x="413" y="-124.5" font-family="FreeSans.ttf" font-size="10.00">math.h</text>
</g>
<!-- Node11&#45;&gt;Node13 -->
<g id="edge28" class="edge"><title>Node11&#45;&gt;Node13</title>
<path fill="none" stroke="midnightblue" d="M296.715,-174.497C319.434,-165.217 352.771,-151.6 377.932,-141.323"/>
<polygon fill="midnightblue" stroke="midnightblue" points="379.542,-144.447 387.476,-137.425 376.895,-137.966 379.542,-144.447"/>
</g>
<!-- Node14 -->
<g id="node29" class="node"><title>Node14</title>
<a xlink:href="reflection_8h.html" target="_top" xlink:title="a header for Reflection.c">
<polygon fill="none" stroke="black" points="240,-116.5 240,-137.5 310,-137.5 310,-116.5 240,-116.5"/>
<text text-anchor="middle" x="275" y="-124.5" font-family="FreeSans.ttf" font-size="10.00">reflection.h</text>
</a>
</g>
<!-- Node11&#45;&gt;Node14 -->
<g id="edge30" class="edge"><title>Node11&#45;&gt;Node14</title>
<path fill="none" stroke="midnightblue" d="M271.734,-174.362C272.247,-166.922 272.949,-156.743 273.571,-147.728"/>
<polygon fill="midnightblue" stroke="midnightblue" points="277.075,-147.788 274.271,-137.571 270.091,-147.306 277.075,-147.788"/>
</g>
<!-- Node14&#45;&gt;Node3 -->
<g id="edge40" class="edge"><title>Node14&#45;&gt;Node3</title>
<path fill="none" stroke="midnightblue" d="M310.003,-117.965C313.039,-117.268 316.069,-116.602 319,-116 409.892,-97.3335 518.008,-81.5318 573.356,-73.9005"/>
<polygon fill="midnightblue" stroke="midnightblue" points="573.949,-77.3522 583.381,-72.5283 572.999,-70.4169 573.949,-77.3522"/>
</g>
<!-- Node14&#45;&gt;Node5 -->
<g id="edge34" class="edge"><title>Node14&#45;&gt;Node5</title>
<path fill="none" stroke="midnightblue" d="M239.97,-118.09C236.94,-117.366 233.919,-116.66 231,-116 155.348,-98.9026 132.549,-101.321 54.083,-80.0294"/>
<polygon fill="midnightblue" stroke="midnightblue" points="54.8013,-76.5969 44.2307,-77.3124 52.9404,-83.345 54.8013,-76.5969"/>
</g>
<!-- Node14&#45;&gt;Node6 -->
<g id="edge44" class="edge"><title>Node14&#45;&gt;Node6</title>
<path fill="none" stroke="midnightblue" d="M309.589,-116.497C343.345,-106.246 394.526,-90.7041 429.063,-80.2164"/>
<polygon fill="midnightblue" stroke="midnightblue" points="430.22,-83.523 438.771,-77.2683 428.186,-76.8251 430.22,-83.523"/>
</g>
<!-- Node14&#45;&gt;Node8 -->
<g id="edge36" class="edge"><title>Node14&#45;&gt;Node8</title>
<path fill="none" stroke="midnightblue" d="M240.878,-116.498C212.109,-107.633 169.595,-94.5077 124.424,-80.4366"/>
<polygon fill="midnightblue" stroke="midnightblue" points="125.338,-77.0552 114.749,-77.4208 123.254,-83.7381 125.338,-77.0552"/>
</g>
<!-- Node14&#45;&gt;Node10 -->
<g id="edge38" class="edge"><title>Node14&#45;&gt;Node10</title>
<path fill="none" stroke="midnightblue" d="M253.45,-116.497C234.864,-107.438 207.798,-94.2462 186.905,-84.0628"/>
<polygon fill="midnightblue" stroke="midnightblue" points="188.314,-80.8563 177.792,-79.6212 185.247,-87.1487 188.314,-80.8563"/>
</g>
<!-- Node15 -->
<g id="node31" class="node"><title>Node15</title>
<polygon fill="none" stroke="#bfbfbf" points="296.5,-58.5 296.5,-79.5 343.5,-79.5 343.5,-58.5 296.5,-58.5"/>
<text text-anchor="middle" x="320" y="-66.5" font-family="FreeSans.ttf" font-size="10.00">vector</text>
</g>
<!-- Node14&#45;&gt;Node15 -->
<g id="edge32" class="edge"><title>Node14&#45;&gt;Node15</title>
<path fill="none" stroke="midnightblue" d="M283.254,-116.362C289.47,-108.35 298.151,-97.1605 305.515,-87.6696"/>
<polygon fill="midnightblue" stroke="midnightblue" points="308.434,-89.617 311.799,-79.5707 302.903,-85.326 308.434,-89.617"/>
</g>
<!-- Node16 -->
<g id="node37" class="node"><title>Node16</title>
<polygon fill="none" stroke="#bfbfbf" points="223,-58.5 223,-79.5 279,-79.5 279,-58.5 223,-58.5"/>
<text text-anchor="middle" x="251" y="-66.5" font-family="FreeSans.ttf" font-size="10.00">stdarg.h</text>
</g>
<!-- Node14&#45;&gt;Node16 -->
<g id="edge42" class="edge"><title>Node14&#45;&gt;Node16</title>
<path fill="none" stroke="midnightblue" d="M270.598,-116.362C267.418,-108.677 263.028,-98.0686 259.21,-88.8399"/>
<polygon fill="midnightblue" stroke="midnightblue" points="262.432,-87.4726 255.374,-79.5707 255.964,-90.1491 262.432,-87.4726"/>
</g>
<!-- Node17&#45;&gt;Node3 -->
<g id="edge48" class="edge"><title>Node17&#45;&gt;Node3</title>
<path fill="none" stroke="midnightblue" d="M549.479,-232.256C558.946,-223.438 571.561,-210.139 579,-196 597.135,-161.532 604.887,-116.207 608.027,-90.0688"/>
<polygon fill="midnightblue" stroke="midnightblue" points="611.539,-90.1414 609.137,-79.8227 604.58,-89.3876 611.539,-90.1414"/>
</g>
<!-- Node18 -->
<g id="node43" class="node"><title>Node18</title>
<a xlink:href="mathUtils_8h.html" target="_top" xlink:title="Add Comment Here.">
<polygon fill="none" stroke="black" points="498,-174.5 498,-195.5 570,-195.5 570,-174.5 498,-174.5"/>
<text text-anchor="middle" x="534" y="-182.5" font-family="FreeSans.ttf" font-size="10.00">mathUtils.h</text>
</a>
</g>
<!-- Node17&#45;&gt;Node18 -->
<g id="edge50" class="edge"><title>Node17&#45;&gt;Node18</title>
<path fill="none" stroke="midnightblue" d="M536.45,-232.362C536.065,-224.922 535.538,-214.743 535.072,-205.728"/>
<polygon fill="midnightblue" stroke="midnightblue" points="538.559,-205.376 534.547,-195.571 531.568,-205.738 538.559,-205.376"/>
</g>
<!-- Node18&#45;&gt;Node6 -->
<g id="edge54" class="edge"><title>Node18&#45;&gt;Node6</title>
<path fill="none" stroke="midnightblue" d="M527.725,-174.295C516.288,-154.786 491.904,-113.188 477.441,-88.5177"/>
<polygon fill="midnightblue" stroke="midnightblue" points="480.337,-86.5362 472.26,-79.6792 474.298,-90.0762 480.337,-86.5362"/>
</g>
<!-- Node18&#45;&gt;Node13 -->
<g id="edge52" class="edge"><title>Node18&#45;&gt;Node13</title>
<path fill="none" stroke="midnightblue" d="M512.088,-174.497C493.189,-165.438 465.669,-152.246 444.424,-142.063"/>
<polygon fill="midnightblue" stroke="midnightblue" points="445.689,-138.788 435.158,-137.621 442.663,-145.1 445.689,-138.788"/>
</g>
<!-- Node19 -->
<g id="node47" class="node"><title>Node19</title>
<polygon fill="none" stroke="#bfbfbf" points="531.5,-116.5 531.5,-137.5 582.5,-137.5 582.5,-116.5 531.5,-116.5"/>
<text text-anchor="middle" x="557" y="-124.5" font-family="FreeSans.ttf" font-size="10.00">stdlib.h</text>
</g>
<!-- Node18&#45;&gt;Node19 -->
<g id="edge56" class="edge"><title>Node18&#45;&gt;Node19</title>
<path fill="none" stroke="midnightblue" d="M538.219,-174.362C541.234,-166.758 545.383,-156.294 549.015,-147.135"/>
<polygon fill="midnightblue" stroke="midnightblue" points="552.375,-148.157 552.808,-137.571 545.868,-145.576 552.375,-148.157"/>
</g>
</g>
</svg>
        <g id="navigator" transform="translate(0 0)" fill="#404254">
                <rect fill="#f2f5e9" fill-opacity="0.5" stroke="#606060" stroke-width=".5" x="0" y="0" width="60" height="60"/>
                <use id="zoomplus" xlink:href="#zoomPlus" x="17" y="9" onmousedown="handleZoom(evt,'in')"/>
                <use id="zoomminus" xlink:href="#zoomMin" x="42" y="9" onmousedown="handleZoom(evt,'out')"/>
                <use id="reset" xlink:href="#resetDef" x="30" y="36" onmousedown="handleReset()"/>
                <g id="arrowUp" xlink:href="#dirArrow" transform="translate(30 24)" onmousedown="handlePan(0,-1)">
                  <use xlink:href="#rim" fill="#404040">
                        <set attributeName="fill" to="#808080" begin="arrowUp.mouseover" end="arrowUp.mouseout"/>
                  </use>
                  <path fill="none" stroke="white" stroke-width="1.5" d="M0,-3.0v7 M-2.5,-0.5L0,-3.0L2.5,-0.5"/>
                </g>
                <g id="arrowRight" xlink:href="#dirArrow" transform="rotate(90) translate(36 -43)" onmousedown="handlePan(1,0)">
                  <use xlink:href="#rim" fill="#404040">
                        <set attributeName="fill" to="#808080" begin="arrowRight.mouseover" end="arrowRight.mouseout"/>
                  </use>
                  <path fill="none" stroke="white" stroke-width="1.5" d="M0,-3.0v7 M-2.5,-0.5L0,-3.0L2.5,-0.5"/>
                </g>
                <g id="arrowDown" xlink:href="#dirArrow" transform="rotate(180) translate(-30 -48)" onmousedown="handlePan(0,1)">
                  <use xlink:href="#rim" fill="#404040">
                        <set attributeName="fill" to="#808080" begin="arrowDown.mouseover" end="arrowDown.mouseout"/>
                  </use>
                  <path fill="none" stroke="white" stroke-width="1.5" d="M0,-3.0v7 M-2.5,-0.5L0,-3.0L2.5,-0.5"/>
                </g>
                <g id="arrowLeft" xlink:href="#dirArrow" transform="rotate(270) translate(-36 17)" onmousedown="handlePan(-1,0)">
                  <use xlink:href="#rim" fill="#404040">
                        <set attributeName="fill" to="#808080" begin="arrowLeft.mouseover" end="arrowLeft.mouseout"/>
                  </use>
                  <path fill="none" stroke="white" stroke-width="1.5" d="M0,-3.0v7 M-2.5,-0.5L0,-3.0L2.5,-0.5"/>
                </g>
        </g>
</svg>
