<?xml version="1.0" encoding="UTF-8" standalone="no"?>
<!DOCTYPE svg PUBLIC "-//W3C//DTD SVG 1.1//EN"
 "http://www.w3.org/Graphics/SVG/1.1/DTD/svg11.dtd">
<!-- Generated by graphviz version 2.26.3 (20100126.1600)
 -->
<!-- Title: G Pages: 1 -->
<!--zoomable 436 -->
<svg id="main" version="1.1" xmlns="http://www.w3.org/2000/svg" xmlns:xlink="http://www.w3.org/1999/xlink" xml:space="preserve" onload="init(evt)">
        <defs>
                <circle id="rim" cx="0" cy="0" r="7"/>
                <circle id="rim2" cx="0" cy="0" r="3.5"/>
                <g id="zoomPlus">
                        <use xlink:href="#rim" fill="#404040">
                                <set attributeName="fill" to="#808080" begin="zoomplus.mouseover" end="zoomplus.mouseout"/>
                        </use>
                        <path d="M-4,0h8M0,-4v8" fill="none" stroke="white" stroke-width="1.5" pointer-events="none"/>
                </g>
                <g id="zoomMin">
                        <use xlink:href="#rim" fill="#404040">
                                <set attributeName="fill" to="#808080" begin="zoomminus.mouseover" end="zoomminus.mouseout"/>
                        </use>
                        <path d="M-4,0h8" fill="none" stroke="white" stroke-width="1.5" pointer-events="none"/>
                </g>
                <g id="dirArrow">
                        <path fill="none" stroke="white" stroke-width="1.5" d="M0,-3.0v7 M-2.5,-0.5L0,-3.0L2.5,-0.5"/>
                </g>
               <g id="resetDef">
                       <use xlink:href="#rim2" fill="#404040">
                               <set attributeName="fill" to="#808080" begin="reset.mouseover" end="reset.mouseout"/>
                       </use>
               </g>
        </defs>

<script type="text/javascript">
var viewWidth = 1115;
var viewHeight = 436;
var sectionId = 'dynsection-0';
</script>
<script xlink:href="svgpan.js"/>
<svg id="graph" class="graph">
<g id="viewport">
<title>G</title>
<!-- Node1 -->
<g id="node1" class="node"><title>Node1</title>
<polygon fill="#bfbfbf" stroke="black" points="377.5,-406.5 377.5,-427.5 628.5,-427.5 628.5,-406.5 377.5,-406.5"/>
<text text-anchor="middle" x="503" y="-414.5" font-family="FreeSans.ttf" font-size="10.00">utils/filters/ui/cannyParametersControlWidget.cpp</text>
</g>
<!-- Node2 -->
<g id="node3" class="node"><title>Node2</title>
<a xlink:href="cannyParametersControlWidget_8h.html" target="_top" xlink:title="cannyParametersControlWidget.h">
<polygon fill="none" stroke="black" points="730,-348.5 730,-369.5 906,-369.5 906,-348.5 730,-348.5"/>
<text text-anchor="middle" x="818" y="-356.5" font-family="FreeSans.ttf" font-size="10.00">cannyParametersControlWidget.h</text>
</a>
</g>
<!-- Node1&#45;&gt;Node2 -->
<g id="edge2" class="edge"><title>Node1&#45;&gt;Node2</title>
<path fill="none" stroke="midnightblue" d="M560.044,-406.497C613.732,-396.611 694.147,-381.805 750.894,-371.356"/>
<polygon fill="midnightblue" stroke="midnightblue" points="751.648,-374.776 760.849,-369.523 750.38,-367.892 751.648,-374.776"/>
</g>
<!-- Node17 -->
<g id="node37" class="node"><title>Node17</title>
<polygon fill="none" stroke="#bfbfbf" points="917,-290.5 917,-311.5 1107,-311.5 1107,-290.5 917,-290.5"/>
<text text-anchor="middle" x="1012" y="-298.5" font-family="FreeSans.ttf" font-size="10.00">ui_cannyParametersControlWidget.h</text>
</g>
<!-- Node1&#45;&gt;Node17 -->
<g id="edge96" class="edge"><title>Node1&#45;&gt;Node17</title>
<path fill="none" stroke="midnightblue" d="M628.711,-409.564C730.246,-402.285 864.287,-389.433 915,-370 945.458,-358.329 975.229,-334.822 993.583,-318.51"/>
<polygon fill="midnightblue" stroke="midnightblue" points="996.143,-320.913 1001.17,-311.589 991.427,-315.74 996.143,-320.913"/>
</g>
<!-- Node21 -->
<g id="node50" class="node"><title>Node21</title>
<a xlink:href="qSettingsSetter_8h.html" target="_top" xlink:title="visitors/qSettingsSetter.h">
<polygon fill="none" stroke="black" points="-0.5,-174.5 -0.5,-195.5 136.5,-195.5 136.5,-174.5 -0.5,-174.5"/>
<text text-anchor="middle" x="68" y="-182.5" font-family="FreeSans.ttf" font-size="10.00">visitors/qSettingsSetter.h</text>
</a>
</g>
<!-- Node1&#45;&gt;Node21 -->
<g id="edge100" class="edge"><title>Node1&#45;&gt;Node21</title>
<path fill="none" stroke="midnightblue" d="M483.179,-406.429C413.542,-369.289 179.864,-244.661 97.2435,-200.597"/>
<polygon fill="midnightblue" stroke="midnightblue" points="98.4084,-197.251 87.9378,-195.634 95.1143,-203.428 98.4084,-197.251"/>
</g>
<!-- Node27 -->
<g id="node66" class="node"><title>Node27</title>
<a xlink:href="qSettingsGetter_8h.html" target="_top" xlink:title="visitors/qSettingsGetter.h">
<polygon fill="none" stroke="black" points="154,-174.5 154,-195.5 292,-195.5 292,-174.5 154,-174.5"/>
<text text-anchor="middle" x="223" y="-182.5" font-family="FreeSans.ttf" font-size="10.00">visitors/qSettingsGetter.h</text>
</a>
</g>
<!-- Node1&#45;&gt;Node27 -->
<g id="edge98" class="edge"><title>Node1&#45;&gt;Node27</title>
<path fill="none" stroke="midnightblue" d="M490.241,-406.429C445.965,-369.742 298.657,-247.687 243.812,-202.244"/>
<polygon fill="midnightblue" stroke="midnightblue" points="245.767,-199.319 235.834,-195.634 241.301,-204.709 245.767,-199.319"/>
</g>
<!-- Node3 -->
<g id="node5" class="node"><title>Node3</title>
<polygon fill="none" stroke="#bfbfbf" points="775,-290.5 775,-311.5 861,-311.5 861,-290.5 775,-290.5"/>
<text text-anchor="middle" x="818" y="-298.5" font-family="FreeSans.ttf" font-size="10.00">QtGui/QWidget</text>
</g>
<!-- Node2&#45;&gt;Node3 -->
<g id="edge4" class="edge"><title>Node2&#45;&gt;Node3</title>
<path fill="none" stroke="midnightblue" d="M818,-348.362C818,-340.922 818,-330.743 818,-321.728"/>
<polygon fill="midnightblue" stroke="midnightblue" points="821.5,-321.571 818,-311.571 814.5,-321.571 821.5,-321.571"/>
</g>
<!-- Node4 -->
<g id="node7" class="node"><title>Node4</title>
<a xlink:href="cannyParameters_8h.html" target="_top" xlink:title="generated/cannyParameters.h">
<polygon fill="none" stroke="black" points="808,-232.5 808,-253.5 970,-253.5 970,-232.5 808,-232.5"/>
<text text-anchor="middle" x="889" y="-240.5" font-family="FreeSans.ttf" font-size="10.00">generated/cannyParameters.h</text>
</a>
</g>
<!-- Node2&#45;&gt;Node4 -->
<g id="edge6" class="edge"><title>Node2&#45;&gt;Node4</title>
<path fill="none" stroke="midnightblue" d="M833.871,-348.45C845.503,-339.924 860.807,-326.918 870,-312 879.142,-297.165 883.97,-277.875 886.467,-263.464"/>
<polygon fill="midnightblue" stroke="midnightblue" points="889.932,-263.958 887.954,-253.549 883.009,-262.919 889.932,-263.958"/>
</g>
<!-- Node2&#45;&gt;Node17 -->
<g id="edge40" class="edge"><title>Node2&#45;&gt;Node17</title>
<path fill="none" stroke="midnightblue" d="M853.132,-348.497C885.033,-338.959 932.257,-324.841 966.928,-314.475"/>
<polygon fill="midnightblue" stroke="midnightblue" points="968.224,-317.741 976.802,-311.523 966.219,-311.034 968.224,-317.741"/>
</g>
<!-- Node18 -->
<g id="node39" class="node"><title>Node18</title>
<a xlink:href="filterParametersControlWidgetBase_8h.html" target="_top" xlink:title="filterParametersControlWidgetBase.h">
<polygon fill="none" stroke="black" points="564.5,-290.5 564.5,-311.5 757.5,-311.5 757.5,-290.5 564.5,-290.5"/>
<text text-anchor="middle" x="661" y="-298.5" font-family="FreeSans.ttf" font-size="10.00">filterParametersControlWidgetBase.h</text>
</a>
</g>
<!-- Node2&#45;&gt;Node18 -->
<g id="edge42" class="edge"><title>Node2&#45;&gt;Node18</title>
<path fill="none" stroke="midnightblue" d="M789.568,-348.497C764.195,-339.123 726.843,-325.324 698.93,-315.012"/>
<polygon fill="midnightblue" stroke="midnightblue" points="700.078,-311.705 689.485,-311.523 697.652,-318.272 700.078,-311.705"/>
</g>
<!-- Node5 -->
<g id="node9" class="node"><title>Node5</title>
<a xlink:href="reflection_8h.html" target="_top" xlink:title="a header for Reflection.c">
<polygon fill="none" stroke="black" points="562,-116.5 562,-137.5 632,-137.5 632,-116.5 562,-116.5"/>
<text text-anchor="middle" x="597" y="-124.5" font-family="FreeSans.ttf" font-size="10.00">reflection.h</text>
</a>
</g>
<!-- Node4&#45;&gt;Node5 -->
<g id="edge8" class="edge"><title>Node4&#45;&gt;Node5</title>
<path fill="none" stroke="midnightblue" d="M871.021,-232.258C845.938,-217.604 798.707,-191.206 756,-174 718.537,-158.907 674.375,-146.239 642.112,-137.872"/>
<polygon fill="midnightblue" stroke="midnightblue" points="642.633,-134.393 632.078,-135.31 640.901,-141.176 642.633,-134.393"/>
</g>
<!-- Node14 -->
<g id="node27" class="node"><title>Node14</title>
<a xlink:href="defaultSetter_8h.html" target="_top" xlink:title="defaultSetter.h">
<polygon fill="none" stroke="black" points="950,-174.5 950,-195.5 1038,-195.5 1038,-174.5 950,-174.5"/>
<text text-anchor="middle" x="994" y="-182.5" font-family="FreeSans.ttf" font-size="10.00">defaultSetter.h</text>
</a>
</g>
<!-- Node4&#45;&gt;Node14 -->
<g id="edge26" class="edge"><title>Node4&#45;&gt;Node14</title>
<path fill="none" stroke="midnightblue" d="M908.259,-232.362C924.466,-223.409 947.853,-210.491 966.109,-200.406"/>
<polygon fill="midnightblue" stroke="midnightblue" points="967.802,-203.47 974.863,-195.571 964.418,-197.342 967.802,-203.47"/>
</g>
<!-- Node16 -->
<g id="node33" class="node"><title>Node16</title>
<a xlink:href="printerVisitor_8h.html" target="_top" xlink:title="printerVisitor.h">
<polygon fill="none" stroke="black" points="846,-174.5 846,-195.5 932,-195.5 932,-174.5 846,-174.5"/>
<text text-anchor="middle" x="889" y="-182.5" font-family="FreeSans.ttf" font-size="10.00">printerVisitor.h</text>
</a>
</g>
<!-- Node4&#45;&gt;Node16 -->
<g id="edge34" class="edge"><title>Node4&#45;&gt;Node16</title>
<path fill="none" stroke="midnightblue" d="M889,-232.362C889,-224.922 889,-214.743 889,-205.728"/>
<polygon fill="midnightblue" stroke="midnightblue" points="892.5,-205.571 889,-195.571 885.5,-205.571 892.5,-205.571"/>
</g>
<!-- Node6 -->
<g id="node11" class="node"><title>Node6</title>
<polygon fill="none" stroke="#bfbfbf" points="408.5,-58.5 408.5,-79.5 455.5,-79.5 455.5,-58.5 408.5,-58.5"/>
<text text-anchor="middle" x="432" y="-66.5" font-family="FreeSans.ttf" font-size="10.00">vector</text>
</g>
<!-- Node5&#45;&gt;Node6 -->
<g id="edge10" class="edge"><title>Node5&#45;&gt;Node6</title>
<path fill="none" stroke="midnightblue" d="M567.12,-116.497C538.334,-106.378 494.88,-91.1034 465.068,-80.624"/>
<polygon fill="midnightblue" stroke="midnightblue" points="466.117,-77.2827 455.522,-77.2683 463.795,-83.8866 466.117,-77.2827"/>
</g>
<!-- Node7 -->
<g id="node13" class="node"><title>Node7</title>
<polygon fill="none" stroke="#bfbfbf" points="320,-58.5 320,-79.5 364,-79.5 364,-58.5 320,-58.5"/>
<text text-anchor="middle" x="342" y="-66.5" font-family="FreeSans.ttf" font-size="10.00">string</text>
</g>
<!-- Node5&#45;&gt;Node7 -->
<g id="edge12" class="edge"><title>Node5&#45;&gt;Node7</title>
<path fill="none" stroke="midnightblue" d="M561.955,-118.152C558.929,-117.414 555.912,-116.688 553,-116 489.7,-101.04 415.4,-84.7944 374.007,-75.8604"/>
<polygon fill="midnightblue" stroke="midnightblue" points="374.732,-72.4364 364.219,-73.7519 373.258,-79.2794 374.732,-72.4364"/>
</g>
<!-- Node8 -->
<g id="node15" class="node"><title>Node8</title>
<polygon fill="none" stroke="#bfbfbf" points="472.5,-58.5 472.5,-79.5 525.5,-79.5 525.5,-58.5 472.5,-58.5"/>
<text text-anchor="middle" x="499" y="-66.5" font-family="FreeSans.ttf" font-size="10.00">string.h</text>
</g>
<!-- Node5&#45;&gt;Node8 -->
<g id="edge14" class="edge"><title>Node5&#45;&gt;Node8</title>
<path fill="none" stroke="midnightblue" d="M579.025,-116.362C564.106,-107.532 542.667,-94.844 525.734,-84.8224"/>
<polygon fill="midnightblue" stroke="midnightblue" points="527.249,-81.6519 516.861,-79.5707 523.684,-87.6759 527.249,-81.6519"/>
</g>
<!-- Node9 -->
<g id="node17" class="node"><title>Node9</title>
<polygon fill="none" stroke="#bfbfbf" points="542.5,-58.5 542.5,-79.5 591.5,-79.5 591.5,-58.5 542.5,-58.5"/>
<text text-anchor="middle" x="567" y="-66.5" font-family="FreeSans.ttf" font-size="10.00">stdio.h</text>
</g>
<!-- Node5&#45;&gt;Node9 -->
<g id="edge16" class="edge"><title>Node5&#45;&gt;Node9</title>
<path fill="none" stroke="midnightblue" d="M591.498,-116.362C587.48,-108.595 581.919,-97.8426 577.11,-88.5458"/>
<polygon fill="midnightblue" stroke="midnightblue" points="580.171,-86.8448 572.468,-79.5707 573.953,-90.0608 580.171,-86.8448"/>
</g>
<!-- Node10 -->
<g id="node19" class="node"><title>Node10</title>
<polygon fill="none" stroke="#bfbfbf" points="608.5,-58.5 608.5,-79.5 661.5,-79.5 661.5,-58.5 608.5,-58.5"/>
<text text-anchor="middle" x="635" y="-66.5" font-family="FreeSans.ttf" font-size="10.00">stdint.h</text>
</g>
<!-- Node5&#45;&gt;Node10 -->
<g id="edge18" class="edge"><title>Node5&#45;&gt;Node10</title>
<path fill="none" stroke="midnightblue" d="M603.97,-116.362C609.166,-108.431 616.401,-97.3885 622.578,-87.9606"/>
<polygon fill="midnightblue" stroke="midnightblue" points="625.522,-89.8534 628.074,-79.5707 619.666,-86.0172 625.522,-89.8534"/>
</g>
<!-- Node11 -->
<g id="node21" class="node"><title>Node11</title>
<polygon fill="none" stroke="#bfbfbf" points="679,-58.5 679,-79.5 735,-79.5 735,-58.5 679,-58.5"/>
<text text-anchor="middle" x="707" y="-66.5" font-family="FreeSans.ttf" font-size="10.00">stdarg.h</text>
</g>
<!-- Node5&#45;&gt;Node11 -->
<g id="edge20" class="edge"><title>Node5&#45;&gt;Node11</title>
<path fill="none" stroke="midnightblue" d="M616.92,-116.497C633.946,-107.519 658.669,-94.4835 677.909,-84.3387"/>
<polygon fill="midnightblue" stroke="midnightblue" points="679.643,-87.3814 686.856,-79.6212 676.378,-81.1894 679.643,-87.3814"/>
</g>
<!-- Node12 -->
<g id="node23" class="node"><title>Node12</title>
<a xlink:href="global_8h.html" target="_top" xlink:title="This file holds the global includes, mostly for debuging, tracing and profiling.">
<polygon fill="none" stroke="black" points="753,-58.5 753,-79.5 807,-79.5 807,-58.5 753,-58.5"/>
<text text-anchor="middle" x="780" y="-66.5" font-family="FreeSans.ttf" font-size="10.00">global.h</text>
</a>
</g>
<!-- Node5&#45;&gt;Node12 -->
<g id="edge22" class="edge"><title>Node5&#45;&gt;Node12</title>
<path fill="none" stroke="midnightblue" d="M630.14,-116.497C661.97,-106.408 709.971,-91.195 743.026,-80.7184"/>
<polygon fill="midnightblue" stroke="midnightblue" points="744.295,-83.9879 752.771,-77.6301 742.18,-77.315 744.295,-83.9879"/>
</g>
<!-- Node13 -->
<g id="node25" class="node"><title>Node13</title>
<polygon fill="none" stroke="#bfbfbf" points="748,-0.5 748,-21.5 812,-21.5 812,-0.5 748,-0.5"/>
<text text-anchor="middle" x="780" y="-8.5" font-family="FreeSans.ttf" font-size="10.00">inttypes.h</text>
</g>
<!-- Node12&#45;&gt;Node13 -->
<g id="edge24" class="edge"><title>Node12&#45;&gt;Node13</title>
<path fill="none" stroke="midnightblue" d="M780,-58.3619C780,-50.9219 780,-40.7427 780,-31.7276"/>
<polygon fill="midnightblue" stroke="midnightblue" points="783.5,-31.5706 780,-21.5707 776.5,-31.5707 783.5,-31.5706"/>
</g>
<!-- Node14&#45;&gt;Node5 -->
<g id="edge32" class="edge"><title>Node14&#45;&gt;Node5</title>
<path fill="none" stroke="midnightblue" d="M949.797,-175.588C946.824,-175.029 943.871,-174.493 941,-174 834.424,-155.682 708.282,-139.956 642.338,-132.185"/>
<polygon fill="midnightblue" stroke="midnightblue" points="642.622,-128.695 632.283,-131.007 641.808,-135.647 642.622,-128.695"/>
</g>
<!-- Node14&#45;&gt;Node12 -->
<g id="edge30" class="edge"><title>Node14&#45;&gt;Node12</title>
<path fill="none" stroke="midnightblue" d="M988.383,-174.439C979.772,-159.257 961.872,-131.401 939,-116 901.891,-91.0122 851.235,-79.0417 817.159,-73.4927"/>
<polygon fill="midnightblue" stroke="midnightblue" points="817.562,-70.0138 807.15,-71.9694 816.509,-76.9341 817.562,-70.0138"/>
</g>
<!-- Node15 -->
<g id="node29" class="node"><title>Node15</title>
<polygon fill="none" stroke="#bfbfbf" points="871.5,-116.5 871.5,-137.5 930.5,-137.5 930.5,-116.5 871.5,-116.5"/>
<text text-anchor="middle" x="901" y="-124.5" font-family="FreeSans.ttf" font-size="10.00">iostream</text>
</g>
<!-- Node14&#45;&gt;Node15 -->
<g id="edge28" class="edge"><title>Node14&#45;&gt;Node15</title>
<path fill="none" stroke="midnightblue" d="M976.942,-174.362C962.915,-165.614 942.816,-153.079 926.818,-143.101"/>
<polygon fill="midnightblue" stroke="midnightblue" points="928.287,-139.893 917.949,-137.571 924.582,-145.832 928.287,-139.893"/>
</g>
<!-- Node16&#45;&gt;Node5 -->
<g id="edge38" class="edge"><title>Node16&#45;&gt;Node5</title>
<path fill="none" stroke="midnightblue" d="M845.914,-176.442C791.254,-165.585 697.435,-146.949 641.916,-135.922"/>
<polygon fill="midnightblue" stroke="midnightblue" points="642.504,-132.47 632.013,-133.955 641.14,-139.336 642.504,-132.47"/>
</g>
<!-- Node16&#45;&gt;Node15 -->
<g id="edge36" class="edge"><title>Node16&#45;&gt;Node15</title>
<path fill="none" stroke="midnightblue" d="M891.201,-174.362C892.757,-166.84 894.893,-156.519 896.773,-147.431"/>
<polygon fill="midnightblue" stroke="midnightblue" points="900.214,-148.072 898.813,-137.571 893.359,-146.654 900.214,-148.072"/>
</g>
<!-- Node18&#45;&gt;Node5 -->
<g id="edge48" class="edge"><title>Node18&#45;&gt;Node5</title>
<path fill="none" stroke="midnightblue" d="M673.754,-290.199C698.991,-267.508 750.566,-213.704 723,-174 713.316,-160.052 673.961,-146.781 641.777,-137.921"/>
<polygon fill="midnightblue" stroke="midnightblue" points="642.626,-134.525 632.06,-135.317 640.813,-141.286 642.626,-134.525"/>
</g>
<!-- Node18&#45;&gt;Node12 -->
<g id="edge46" class="edge"><title>Node18&#45;&gt;Node12</title>
<path fill="none" stroke="midnightblue" d="M684.041,-290.366C698.942,-282.363 717.616,-270.03 729,-254 765.379,-202.772 775.836,-126.623 778.821,-90.071"/>
<polygon fill="midnightblue" stroke="midnightblue" points="782.342,-89.8974 779.551,-79.6768 775.359,-89.407 782.342,-89.8974"/>
</g>
<!-- Node19 -->
<g id="node41" class="node"><title>Node19</title>
<polygon fill="none" stroke="#bfbfbf" points="640,-174.5 640,-195.5 714,-195.5 714,-174.5 640,-174.5"/>
<text text-anchor="middle" x="677" y="-182.5" font-family="FreeSans.ttf" font-size="10.00">QtGui/QtGui</text>
</g>
<!-- Node18&#45;&gt;Node19 -->
<g id="edge44" class="edge"><title>Node18&#45;&gt;Node19</title>
<path fill="none" stroke="midnightblue" d="M662.477,-290.295C665.12,-271.131 670.703,-230.654 674.125,-205.843"/>
<polygon fill="midnightblue" stroke="midnightblue" points="677.628,-206.064 675.527,-195.679 670.693,-205.107 677.628,-206.064"/>
</g>
<!-- Node20 -->
<g id="node45" class="node"><title>Node20</title>
<a xlink:href="parametersControlWidgetBase_8h.html" target="_top" xlink:title="parametersControlWidgetBase.h">
<polygon fill="none" stroke="black" points="432.5,-232.5 432.5,-253.5 605.5,-253.5 605.5,-232.5 432.5,-232.5"/>
<text text-anchor="middle" x="519" y="-240.5" font-family="FreeSans.ttf" font-size="10.00">parametersControlWidgetBase.h</text>
</a>
</g>
<!-- Node18&#45;&gt;Node20 -->
<g id="edge50" class="edge"><title>Node18&#45;&gt;Node20</title>
<path fill="none" stroke="midnightblue" d="M635.285,-290.497C612.707,-281.275 579.642,-267.769 554.537,-257.515"/>
<polygon fill="midnightblue" stroke="midnightblue" points="555.585,-254.162 545.004,-253.621 552.938,-260.643 555.585,-254.162"/>
</g>
<!-- Node20&#45;&gt;Node5 -->
<g id="edge56" class="edge"><title>Node20&#45;&gt;Node5</title>
<path fill="none" stroke="midnightblue" d="M527.628,-232.415C535.139,-223.044 546.176,-208.892 555,-196 566.198,-179.639 577.837,-160.305 586.015,-146.272"/>
<polygon fill="midnightblue" stroke="midnightblue" points="589.107,-147.915 591.075,-137.505 583.045,-144.416 589.107,-147.915"/>
</g>
<!-- Node20&#45;&gt;Node12 -->
<g id="edge54" class="edge"><title>Node20&#45;&gt;Node12</title>
<path fill="none" stroke="midnightblue" d="M534.934,-232.377C578.981,-203.013 702.62,-120.587 755.504,-85.3305"/>
<polygon fill="midnightblue" stroke="midnightblue" points="757.564,-88.1638 763.943,-79.7046 753.681,-82.3395 757.564,-88.1638"/>
</g>
<!-- Node20&#45;&gt;Node19 -->
<g id="edge52" class="edge"><title>Node20&#45;&gt;Node19</title>
<path fill="none" stroke="midnightblue" d="M547.613,-232.497C573.148,-223.123 610.737,-209.324 638.829,-199.012"/>
<polygon fill="midnightblue" stroke="midnightblue" points="640.152,-202.255 648.334,-195.523 637.74,-195.684 640.152,-202.255"/>
</g>
<!-- Node20&#45;&gt;Node21 -->
<g id="edge58" class="edge"><title>Node20&#45;&gt;Node21</title>
<path fill="none" stroke="midnightblue" d="M432.415,-232.539C358.948,-223.566 250.46,-210.088 146.849,-196.235"/>
<polygon fill="midnightblue" stroke="midnightblue" points="147.215,-192.752 136.839,-194.893 146.285,-199.69 147.215,-192.752"/>
</g>
<!-- Node25 -->
<g id="node60" class="node"><title>Node25</title>
<a xlink:href="xmlSetter_8h.html" target="_top" xlink:title="visitors/xmlSetter.h">
<polygon fill="none" stroke="black" points="309.5,-174.5 309.5,-195.5 418.5,-195.5 418.5,-174.5 309.5,-174.5"/>
<text text-anchor="middle" x="364" y="-182.5" font-family="FreeSans.ttf" font-size="10.00">visitors/xmlSetter.h</text>
</a>
</g>
<!-- Node20&#45;&gt;Node25 -->
<g id="edge70" class="edge"><title>Node20&#45;&gt;Node25</title>
<path fill="none" stroke="midnightblue" d="M490.931,-232.497C465.99,-223.164 429.326,-209.445 401.808,-199.147"/>
<polygon fill="midnightblue" stroke="midnightblue" points="402.714,-195.75 392.122,-195.523 400.261,-202.306 402.714,-195.75"/>
</g>
<!-- Node20&#45;&gt;Node27 -->
<g id="edge78" class="edge"><title>Node20&#45;&gt;Node27</title>
<path fill="none" stroke="midnightblue" d="M465.397,-232.497C415.156,-222.652 340.008,-207.927 286.722,-197.486"/>
<polygon fill="midnightblue" stroke="midnightblue" points="287.19,-194.011 276.704,-195.523 285.844,-200.881 287.19,-194.011"/>
</g>
<!-- Node29 -->
<g id="node72" class="node"><title>Node29</title>
<a xlink:href="xmlGetter_8h.html" target="_top" xlink:title="visitors/xmlGetter.h">
<polygon fill="none" stroke="black" points="436,-174.5 436,-195.5 546,-195.5 546,-174.5 436,-174.5"/>
<text text-anchor="middle" x="491" y="-182.5" font-family="FreeSans.ttf" font-size="10.00">visitors/xmlGetter.h</text>
</a>
</g>
<!-- Node20&#45;&gt;Node29 -->
<g id="edge86" class="edge"><title>Node20&#45;&gt;Node29</title>
<path fill="none" stroke="midnightblue" d="M513.864,-232.362C510.154,-224.677 505.033,-214.069 500.578,-204.84"/>
<polygon fill="midnightblue" stroke="midnightblue" points="503.603,-203.055 496.103,-195.571 497.299,-206.098 503.603,-203.055"/>
</g>
<!-- Node21&#45;&gt;Node5 -->
<g id="edge68" class="edge"><title>Node21&#45;&gt;Node5</title>
<path fill="none" stroke="midnightblue" d="M136.823,-174.981C139.583,-174.638 142.317,-174.31 145,-174 322.569,-153.498 371.714,-167.636 551.501,-138.046"/>
<polygon fill="midnightblue" stroke="midnightblue" points="552.272,-141.466 561.559,-136.368 551.119,-134.561 552.272,-141.466"/>
</g>
<!-- Node22 -->
<g id="node52" class="node"><title>Node22</title>
<polygon fill="none" stroke="#bfbfbf" points="3.5,-116.5 3.5,-137.5 104.5,-137.5 104.5,-116.5 3.5,-116.5"/>
<text text-anchor="middle" x="54" y="-124.5" font-family="FreeSans.ttf" font-size="10.00">QtCore/QSettings</text>
</g>
<!-- Node21&#45;&gt;Node22 -->
<g id="edge60" class="edge"><title>Node21&#45;&gt;Node22</title>
<path fill="none" stroke="midnightblue" d="M65.4322,-174.362C63.6166,-166.84 61.1252,-156.519 58.9316,-147.431"/>
<polygon fill="midnightblue" stroke="midnightblue" points="62.3003,-146.47 56.5515,-137.571 55.4957,-148.113 62.3003,-146.47"/>
</g>
<!-- Node23 -->
<g id="node54" class="node"><title>Node23</title>
<a xlink:href="basePathVisitor_8h.html" target="_top" xlink:title="Add Comment Here.">
<polygon fill="none" stroke="black" points="203.5,-116.5 203.5,-137.5 302.5,-137.5 302.5,-116.5 203.5,-116.5"/>
<text text-anchor="middle" x="253" y="-124.5" font-family="FreeSans.ttf" font-size="10.00">basePathVisitor.h</text>
</a>
</g>
<!-- Node21&#45;&gt;Node23 -->
<g id="edge62" class="edge"><title>Node21&#45;&gt;Node23</title>
<path fill="none" stroke="midnightblue" d="M101.502,-174.497C131.793,-165 176.57,-150.962 209.593,-140.609"/>
<polygon fill="midnightblue" stroke="midnightblue" points="210.94,-143.854 219.435,-137.523 208.846,-137.175 210.94,-143.854"/>
</g>
<!-- Node23&#45;&gt;Node7 -->
<g id="edge66" class="edge"><title>Node23&#45;&gt;Node7</title>
<path fill="none" stroke="midnightblue" d="M269.324,-116.362C282.748,-107.614 301.983,-95.0786 317.293,-85.1015"/>
<polygon fill="midnightblue" stroke="midnightblue" points="319.312,-87.9628 325.78,-79.5707 315.491,-82.0982 319.312,-87.9628"/>
</g>
<!-- Node24 -->
<g id="node56" class="node"><title>Node24</title>
<polygon fill="none" stroke="#bfbfbf" points="229.5,-58.5 229.5,-79.5 276.5,-79.5 276.5,-58.5 229.5,-58.5"/>
<text text-anchor="middle" x="253" y="-66.5" font-family="FreeSans.ttf" font-size="10.00">deque</text>
</g>
<!-- Node23&#45;&gt;Node24 -->
<g id="edge64" class="edge"><title>Node23&#45;&gt;Node24</title>
<path fill="none" stroke="midnightblue" d="M253,-116.362C253,-108.922 253,-98.7427 253,-89.7276"/>
<polygon fill="midnightblue" stroke="midnightblue" points="256.5,-89.5706 253,-79.5707 249.5,-89.5707 256.5,-89.5706"/>
</g>
<!-- Node25&#45;&gt;Node5 -->
<g id="edge76" class="edge"><title>Node25&#45;&gt;Node5</title>
<path fill="none" stroke="midnightblue" d="M406.415,-174.468C442.627,-165.473 496.364,-152.117 552.224,-138.192"/>
<polygon fill="midnightblue" stroke="midnightblue" points="553.08,-141.585 561.937,-135.77 551.387,-134.793 553.08,-141.585"/>
</g>
<!-- Node25&#45;&gt;Node23 -->
<g id="edge74" class="edge"><title>Node25&#45;&gt;Node23</title>
<path fill="none" stroke="midnightblue" d="M343.899,-174.497C326.718,-165.519 301.77,-152.484 282.355,-142.339"/>
<polygon fill="midnightblue" stroke="midnightblue" points="283.811,-139.15 273.327,-137.621 280.569,-145.354 283.811,-139.15"/>
</g>
<!-- Node26 -->
<g id="node62" class="node"><title>Node26</title>
<polygon fill="none" stroke="#bfbfbf" points="319.5,-116.5 319.5,-137.5 408.5,-137.5 408.5,-116.5 319.5,-116.5"/>
<text text-anchor="middle" x="364" y="-124.5" font-family="FreeSans.ttf" font-size="10.00">QtCore/QString</text>
</g>
<!-- Node25&#45;&gt;Node26 -->
<g id="edge72" class="edge"><title>Node25&#45;&gt;Node26</title>
<path fill="none" stroke="midnightblue" d="M364,-174.362C364,-166.922 364,-156.743 364,-147.728"/>
<polygon fill="midnightblue" stroke="midnightblue" points="367.5,-147.571 364,-137.571 360.5,-147.571 367.5,-147.571"/>
</g>
<!-- Node27&#45;&gt;Node5 -->
<g id="edge84" class="edge"><title>Node27&#45;&gt;Node5</title>
<path fill="none" stroke="midnightblue" d="M292.086,-175.251C376.389,-163.344 511.878,-144.166 551.459,-137.907"/>
<polygon fill="midnightblue" stroke="midnightblue" points="552.253,-141.322 561.529,-136.203 551.085,-134.42 552.253,-141.322"/>
</g>
<!-- Node27&#45;&gt;Node23 -->
<g id="edge82" class="edge"><title>Node27&#45;&gt;Node23</title>
<path fill="none" stroke="midnightblue" d="M228.502,-174.362C232.52,-166.595 238.081,-155.843 242.89,-146.546"/>
<polygon fill="midnightblue" stroke="midnightblue" points="246.047,-148.061 247.532,-137.571 239.829,-144.845 246.047,-148.061"/>
</g>
<!-- Node28 -->
<g id="node68" class="node"><title>Node28</title>
<polygon fill="none" stroke="#bfbfbf" points="122,-116.5 122,-137.5 186,-137.5 186,-116.5 122,-116.5"/>
<text text-anchor="middle" x="154" y="-124.5" font-family="FreeSans.ttf" font-size="10.00">QSettings</text>
</g>
<!-- Node27&#45;&gt;Node28 -->
<g id="edge80" class="edge"><title>Node27&#45;&gt;Node28</title>
<path fill="none" stroke="midnightblue" d="M210.344,-174.362C200.326,-165.941 186.133,-154.011 174.499,-144.231"/>
<polygon fill="midnightblue" stroke="midnightblue" points="176.482,-141.326 166.575,-137.571 171.978,-146.684 176.482,-141.326"/>
</g>
<!-- Node29&#45;&gt;Node5 -->
<g id="edge92" class="edge"><title>Node29&#45;&gt;Node5</title>
<path fill="none" stroke="midnightblue" d="M510.442,-174.362C526.804,-165.409 550.413,-152.491 568.843,-142.406"/>
<polygon fill="midnightblue" stroke="midnightblue" points="570.589,-145.441 577.681,-137.571 567.229,-139.3 570.589,-145.441"/>
</g>
<!-- Node29&#45;&gt;Node23 -->
<g id="edge94" class="edge"><title>Node29&#45;&gt;Node23</title>
<path fill="none" stroke="midnightblue" d="M447.9,-174.497C408.092,-164.795 348.835,-150.355 306.117,-139.945"/>
<polygon fill="midnightblue" stroke="midnightblue" points="306.725,-136.49 296.181,-137.523 305.068,-143.291 306.725,-136.49"/>
</g>
<!-- Node29&#45;&gt;Node26 -->
<g id="edge88" class="edge"><title>Node29&#45;&gt;Node26</title>
<path fill="none" stroke="midnightblue" d="M468.001,-174.497C447.987,-165.356 418.759,-152.008 396.381,-141.788"/>
<polygon fill="midnightblue" stroke="midnightblue" points="397.807,-138.592 387.257,-137.621 394.899,-144.959 397.807,-138.592"/>
</g>
<!-- Node30 -->
<g id="node75" class="node"><title>Node30</title>
<polygon fill="none" stroke="#bfbfbf" points="425.5,-116.5 425.5,-137.5 544.5,-137.5 544.5,-116.5 425.5,-116.5"/>
<text text-anchor="middle" x="485" y="-124.5" font-family="FreeSans.ttf" font-size="10.00">QtXml/QDomElement</text>
</g>
<!-- Node29&#45;&gt;Node30 -->
<g id="edge90" class="edge"><title>Node29&#45;&gt;Node30</title>
<path fill="none" stroke="midnightblue" d="M489.9,-174.362C489.13,-166.922 488.077,-156.743 487.144,-147.728"/>
<polygon fill="midnightblue" stroke="midnightblue" points="490.604,-147.157 486.094,-137.571 483.641,-147.878 490.604,-147.157"/>
</g>
</g>
</svg>
        <g id="navigator" transform="translate(0 0)" fill="#404254">
                <rect fill="#f2f5e9" fill-opacity="0.5" stroke="#606060" stroke-width=".5" x="0" y="0" width="60" height="60"/>
                <use id="zoomplus" xlink:href="#zoomPlus" x="17" y="9" onmousedown="handleZoom(evt,'in')"/>
                <use id="zoomminus" xlink:href="#zoomMin" x="42" y="9" onmousedown="handleZoom(evt,'out')"/>
                <use id="reset" xlink:href="#resetDef" x="30" y="36" onmousedown="handleReset()"/>
                <g id="arrowUp" xlink:href="#dirArrow" transform="translate(30 24)" onmousedown="handlePan(0,-1)">
                  <use xlink:href="#rim" fill="#404040">
                        <set attributeName="fill" to="#808080" begin="arrowUp.mouseover" end="arrowUp.mouseout"/>
                  </use>
                  <path fill="none" stroke="white" stroke-width="1.5" d="M0,-3.0v7 M-2.5,-0.5L0,-3.0L2.5,-0.5"/>
                </g>
                <g id="arrowRight" xlink:href="#dirArrow" transform="rotate(90) translate(36 -43)" onmousedown="handlePan(1,0)">
                  <use xlink:href="#rim" fill="#404040">
                        <set attributeName="fill" to="#808080" begin="arrowRight.mouseover" end="arrowRight.mouseout"/>
                  </use>
                  <path fill="none" stroke="white" stroke-width="1.5" d="M0,-3.0v7 M-2.5,-0.5L0,-3.0L2.5,-0.5"/>
                </g>
                <g id="arrowDown" xlink:href="#dirArrow" transform="rotate(180) translate(-30 -48)" onmousedown="handlePan(0,1)">
                  <use xlink:href="#rim" fill="#404040">
                        <set attributeName="fill" to="#808080" begin="arrowDown.mouseover" end="arrowDown.mouseout"/>
                  </use>
                  <path fill="none" stroke="white" stroke-width="1.5" d="M0,-3.0v7 M-2.5,-0.5L0,-3.0L2.5,-0.5"/>
                </g>
                <g id="arrowLeft" xlink:href="#dirArrow" transform="rotate(270) translate(-36 17)" onmousedown="handlePan(-1,0)">
                  <use xlink:href="#rim" fill="#404040">
                        <set attributeName="fill" to="#808080" begin="arrowLeft.mouseover" end="arrowLeft.mouseout"/>
                  </use>
                  <path fill="none" stroke="white" stroke-width="1.5" d="M0,-3.0v7 M-2.5,-0.5L0,-3.0L2.5,-0.5"/>
                </g>
        </g>
</svg>
