<?xml version="1.0" encoding="UTF-8" standalone="no"?>
<!DOCTYPE svg PUBLIC "-//W3C//DTD SVG 1.1//EN"
 "http://www.w3.org/Graphics/SVG/1.1/DTD/svg11.dtd">
<!-- Generated by graphviz version 2.26.3 (20100126.1600)
 -->
<!-- Title: G Pages: 1 -->
<svg width="494pt" height="88pt"
 viewBox="0.00 0.00 494.00 88.00" xmlns="http://www.w3.org/2000/svg" xmlns:xlink="http://www.w3.org/1999/xlink">
<g id="graph1" class="graph" transform="scale(1 1) rotate(0) translate(4 84)">
<title>G</title>
<!-- Node1 -->
<g id="node1" class="node"><title>Node1</title>
<polygon fill="#bfbfbf" stroke="black" points="174.5,-58.5 174.5,-79.5 303.5,-79.5 303.5,-58.5 174.5,-58.5"/>
<text text-anchor="middle" x="239" y="-66.5" font-family="FreeSans.ttf" font-size="10.00">core/filters/cannyFilter.h</text>
</g>
<!-- Node2 -->
<g id="node3" class="node"><title>Node2</title>
<a xlink:href="cannyFilter_8cpp.html" target="_top" xlink:title="Add Comment Here.">
<polygon fill="none" stroke="black" points="0,-0.5 0,-21.5 140,-21.5 140,-0.5 0,-0.5"/>
<text text-anchor="middle" x="70" y="-8.5" font-family="FreeSans.ttf" font-size="10.00">core/filters/cannyFilter.cpp</text>
</a>
</g>
<!-- Node1&#45;&gt;Node2 -->
<g id="edge2" class="edge"><title>Node1&#45;&gt;Node2</title>
<path fill="none" stroke="midnightblue" d="M198.627,-55.1443C168.553,-44.8229 128.112,-30.9439 100.662,-21.5231"/>
<polygon fill="midnightblue" stroke="midnightblue" points="197.801,-58.5609 208.395,-58.4966 200.073,-51.94 197.801,-58.5609"/>
</g>
<!-- Node3 -->
<g id="node5" class="node"><title>Node3</title>
<a xlink:href="filtersCollection_8cpp.html" target="_top" xlink:title="core/filters/filtersCollection.cpp">
<polygon fill="none" stroke="black" points="157.5,-0.5 157.5,-21.5 320.5,-21.5 320.5,-0.5 157.5,-0.5"/>
<text text-anchor="middle" x="239" y="-8.5" font-family="FreeSans.ttf" font-size="10.00">core/filters/filtersCollection.cpp</text>
</a>
</g>
<!-- Node1&#45;&gt;Node3 -->
<g id="edge4" class="edge"><title>Node1&#45;&gt;Node3</title>
<path fill="none" stroke="midnightblue" d="M239,-48.1906C239,-39.1684 239,-28.9941 239,-21.5707"/>
<polygon fill="midnightblue" stroke="midnightblue" points="235.5,-48.3619 239,-58.3619 242.5,-48.3619 235.5,-48.3619"/>
</g>
<!-- Node4 -->
<g id="node7" class="node"><title>Node4</title>
<a xlink:href="filterSelector_8cpp.html" target="_top" xlink:title="utils/filters/filterSelector.cpp">
<polygon fill="none" stroke="black" points="337.5,-0.5 337.5,-21.5 486.5,-21.5 486.5,-0.5 337.5,-0.5"/>
<text text-anchor="middle" x="412" y="-8.5" font-family="FreeSans.ttf" font-size="10.00">utils/filters/filterSelector.cpp</text>
</a>
</g>
<!-- Node1&#45;&gt;Node4 -->
<g id="edge6" class="edge"><title>Node1&#45;&gt;Node4</title>
<path fill="none" stroke="midnightblue" d="M279.927,-55.2787C310.754,-44.9437 352.39,-30.9849 380.612,-21.5231"/>
<polygon fill="midnightblue" stroke="midnightblue" points="278.698,-51.9994 270.329,-58.4966 280.923,-58.6363 278.698,-51.9994"/>
</g>
</g>
</svg>
