<?xml version="1.0" encoding="UTF-8" standalone="no"?>
<!DOCTYPE svg PUBLIC "-//W3C//DTD SVG 1.1//EN"
 "http://www.w3.org/Graphics/SVG/1.1/DTD/svg11.dtd">
<!-- Generated by graphviz version 2.26.3 (20100126.1600)
 -->
<!-- Title: G Pages: 1 -->
<svg width="317pt" height="162pt"
 viewBox="0.00 0.00 317.00 162.00" xmlns="http://www.w3.org/2000/svg" xmlns:xlink="http://www.w3.org/1999/xlink">
<g id="graph1" class="graph" transform="scale(1 1) rotate(0) translate(4 158)">
<title>G</title>
<!-- Node1 -->
<g id="node1" class="node"><title>Node1</title>
<polygon fill="#bfbfbf" stroke="black" points="82.5,-0.5 82.5,-21.5 195.5,-21.5 195.5,-0.5 82.5,-0.5"/>
<text text-anchor="middle" x="139" y="-8.5" font-family="FreeSans.ttf" font-size="10.00">corecvs::PPMLoader</text>
</g>
<!-- Node2 -->
<g id="node2" class="node"><title>Node2</title>
<a xlink:href="classcorecvs_1_1BufferLoader.html" target="_top" xlink:title="corecvs::BufferLoader\&lt; G12Buffer \&gt;">
<polygon fill="none" stroke="black" points="-0.5,-72.5 -0.5,-93.5 190.5,-93.5 190.5,-72.5 -0.5,-72.5"/>
<text text-anchor="middle" x="95" y="-80.5" font-family="FreeSans.ttf" font-size="10.00">corecvs::BufferLoader&lt; G12Buffer &gt;</text>
</a>
</g>
<!-- Node2&#45;&gt;Node1 -->
<g id="edge2" class="edge"><title>Node2&#45;&gt;Node1</title>
<path fill="none" stroke="midnightblue" d="M106.727,-63.8099C114.977,-50.3106 125.711,-32.7449 132.481,-21.6674"/>
<polygon fill="midnightblue" stroke="midnightblue" points="103.72,-62.0182 101.492,-72.3762 109.693,-65.6684 103.72,-62.0182"/>
</g>
<!-- Node3 -->
<g id="node4" class="node"><title>Node3</title>
<a xlink:title="STL class.">
<polygon fill="none" stroke="#bfbfbf" points="207.5,-72.5 207.5,-93.5 272.5,-93.5 272.5,-72.5 207.5,-72.5"/>
<text text-anchor="middle" x="240" y="-80.5" font-family="FreeSans.ttf" font-size="10.00">std::string</text>
</a>
</g>
<!-- Node3&#45;&gt;Node1 -->
<g id="edge4" class="edge"><title>Node3&#45;&gt;Node1</title>
<path fill="none" stroke="#9a32cd" stroke-dasharray="5,2" d="M216.822,-66.4772C197.502,-52.7046 170.549,-33.4905 153.964,-21.6674"/>
<polygon fill="#9a32cd" stroke="#9a32cd" points="214.923,-69.4213 225.097,-72.3762 218.986,-63.7214 214.923,-69.4213"/>
<text text-anchor="middle" x="216" y="-44.5" font-family="FreeSans.ttf" font-size="10.00"> prefix1</text>
</g>
<!-- Node4 -->
<g id="node6" class="node"><title>Node4</title>
<a xlink:title="STL class.">
<polygon fill="none" stroke="#bfbfbf" points="171,-132.5 171,-153.5 309,-153.5 309,-132.5 171,-132.5"/>
<text text-anchor="middle" x="240" y="-140.5" font-family="FreeSans.ttf" font-size="10.00">std::basic_string&lt; char &gt;</text>
</a>
</g>
<!-- Node4&#45;&gt;Node3 -->
<g id="edge6" class="edge"><title>Node4&#45;&gt;Node3</title>
<path fill="none" stroke="midnightblue" d="M240,-122.231C240,-112.592 240,-101.544 240,-93.6339"/>
<polygon fill="midnightblue" stroke="midnightblue" points="236.5,-122.273 240,-132.273 243.5,-122.273 236.5,-122.273"/>
</g>
</g>
</svg>
