<?xml version="1.0" encoding="UTF-8" standalone="no"?>
<!DOCTYPE svg PUBLIC "-//W3C//DTD SVG 1.1//EN"
 "http://www.w3.org/Graphics/SVG/1.1/DTD/svg11.dtd">
<!-- Generated by graphviz version 2.26.3 (20100126.1600)
 -->
<!-- Title: G Pages: 1 -->
<!--zoomable 210 -->
<svg id="main" version="1.1" xmlns="http://www.w3.org/2000/svg" xmlns:xlink="http://www.w3.org/1999/xlink" xml:space="preserve" onload="init(evt)">
        <defs>
                <circle id="rim" cx="0" cy="0" r="7"/>
                <circle id="rim2" cx="0" cy="0" r="3.5"/>
                <g id="zoomPlus">
                        <use xlink:href="#rim" fill="#404040">
                                <set attributeName="fill" to="#808080" begin="zoomplus.mouseover" end="zoomplus.mouseout"/>
                        </use>
                        <path d="M-4,0h8M0,-4v8" fill="none" stroke="white" stroke-width="1.5" pointer-events="none"/>
                </g>
                <g id="zoomMin">
                        <use xlink:href="#rim" fill="#404040">
                                <set attributeName="fill" to="#808080" begin="zoomminus.mouseover" end="zoomminus.mouseout"/>
                        </use>
                        <path d="M-4,0h8" fill="none" stroke="white" stroke-width="1.5" pointer-events="none"/>
                </g>
                <g id="dirArrow">
                        <path fill="none" stroke="white" stroke-width="1.5" d="M0,-3.0v7 M-2.5,-0.5L0,-3.0L2.5,-0.5"/>
                </g>
               <g id="resetDef">
                       <use xlink:href="#rim2" fill="#404040">
                               <set attributeName="fill" to="#808080" begin="reset.mouseover" end="reset.mouseout"/>
                       </use>
               </g>
        </defs>

<script type="text/javascript">
var viewWidth = 1200;
var viewHeight = 210;
var sectionId = 'dynsection-9';
</script>
<script xlink:href="svgpan.js"/>
<svg id="graph" class="graph">
<g id="viewport">
<title>G</title>
<!-- Node1 -->
<g id="node1" class="node"><title>Node1</title>
<polygon fill="#bfbfbf" stroke="black" points="0,-120.5 0,-141.5 180,-141.5 180,-120.5 0,-120.5"/>
<text text-anchor="middle" x="90" y="-128.5" font-family="FreeSans.ttf" font-size="10.00">corecvs::ThickeningBlock::serialize</text>
</g>
<!-- Node2 -->
<g id="node3" class="node"><title>Node2</title>
<a xlink:href="classThickeningParameters.html#ad99ab84b8d691f48cec59b04dff310da" target="_top" xlink:title="ThickeningParameters::accept">
<polygon fill="none" stroke="black" points="235.5,-180.5 235.5,-201.5 396.5,-201.5 396.5,-180.5 235.5,-180.5"/>
<text text-anchor="middle" x="316" y="-188.5" font-family="FreeSans.ttf" font-size="10.00">ThickeningParameters::accept</text>
</a>
</g>
<!-- Node1&#45;&gt;Node2 -->
<g id="edge2" class="edge"><title>Node1&#45;&gt;Node2</title>
<path fill="none" stroke="midnightblue" d="M120.026,-141.56C145.386,-150.229 182.776,-162.432 216,-171 226.304,-173.657 237.281,-176.169 248.048,-178.458"/>
<polygon fill="midnightblue" stroke="midnightblue" points="247.349,-181.887 257.852,-180.494 248.773,-175.033 247.349,-181.887"/>
</g>
<!-- Node3 -->
<g id="node5" class="node"><title>Node3</title>
<a xlink:href="classtinyxml2_1_1XMLNode.html#add244bca368083fa29698db8dcf147ca" target="_top" xlink:title="Get the XMLDocument that owns this XMLNode.">
<polygon fill="none" stroke="black" points="225,-140.5 225,-161.5 407,-161.5 407,-140.5 225,-140.5"/>
<text text-anchor="middle" x="316" y="-148.5" font-family="FreeSans.ttf" font-size="10.00">tinyxml2::XMLNode::GetDocument</text>
</a>
</g>
<!-- Node1&#45;&gt;Node3 -->
<g id="edge4" class="edge"><title>Node1&#45;&gt;Node3</title>
<path fill="none" stroke="midnightblue" d="M180.296,-138.991C191.612,-139.992 203.245,-141.022 214.715,-142.037"/>
<polygon fill="midnightblue" stroke="midnightblue" points="214.471,-145.529 224.741,-142.924 215.088,-138.556 214.471,-145.529"/>
</g>
<!-- Node4 -->
<g id="node7" class="node"><title>Node4</title>
<a xlink:href="classtinyxml2_1_1XMLNode.html#ae3b422e98914d6002ca99bb1d2837103" target="_top" xlink:title="Add a child node as the last (right) child.">
<polygon fill="none" stroke="black" points="225,-100.5 225,-121.5 407,-121.5 407,-100.5 225,-100.5"/>
<text text-anchor="middle" x="316" y="-108.5" font-family="FreeSans.ttf" font-size="10.00">tinyxml2::XMLNode::InsertEndChild</text>
</a>
</g>
<!-- Node1&#45;&gt;Node4 -->
<g id="edge6" class="edge"><title>Node1&#45;&gt;Node4</title>
<path fill="none" stroke="midnightblue" d="M180.296,-123.009C191.612,-122.008 203.245,-120.978 214.715,-119.963"/>
<polygon fill="midnightblue" stroke="midnightblue" points="215.088,-123.444 224.741,-119.076 214.471,-116.471 215.088,-123.444"/>
</g>
<!-- Node6 -->
<g id="node11" class="node"><title>Node6</title>
<a xlink:href="classtinyxml2_1_1XMLDocument.html#a3c335a700a43d7c363a393142a23f234" target="_top" xlink:title="Create a new Element associated with this Document.">
<polygon fill="none" stroke="black" points="216.5,-60.5 216.5,-81.5 415.5,-81.5 415.5,-60.5 216.5,-60.5"/>
<text text-anchor="middle" x="316" y="-68.5" font-family="FreeSans.ttf" font-size="10.00">tinyxml2::XMLDocument::NewElement</text>
</a>
</g>
<!-- Node1&#45;&gt;Node6 -->
<g id="edge10" class="edge"><title>Node1&#45;&gt;Node6</title>
<path fill="none" stroke="midnightblue" d="M120.026,-120.44C145.386,-111.771 182.776,-99.5684 216,-91 226.304,-88.3427 237.281,-85.8307 248.048,-83.5424"/>
<polygon fill="midnightblue" stroke="midnightblue" points="248.773,-86.9667 257.852,-81.5059 247.349,-80.113 248.773,-86.9667"/>
</g>
<!-- Node5 -->
<g id="node9" class="node"><title>Node5</title>
<a xlink:href="classtinyxml2_1_1MemPool.html#ac5804dd1387b2e4de5eef710076a0db1" target="_top" xlink:title="tinyxml2::MemPool::SetTracked">
<polygon fill="none" stroke="black" points="456,-100.5 456,-121.5 622,-121.5 622,-100.5 456,-100.5"/>
<text text-anchor="middle" x="539" y="-108.5" font-family="FreeSans.ttf" font-size="10.00">tinyxml2::MemPool::SetTracked</text>
</a>
</g>
<!-- Node4&#45;&gt;Node5 -->
<g id="edge8" class="edge"><title>Node4&#45;&gt;Node5</title>
<path fill="none" stroke="midnightblue" d="M407.024,-111C419.758,-111 432.861,-111 445.638,-111"/>
<polygon fill="midnightblue" stroke="midnightblue" points="445.801,-114.5 455.801,-111 445.801,-107.5 445.801,-114.5"/>
</g>
<!-- Node7 -->
<g id="node13" class="node"><title>Node7</title>
<a xlink:href="classtinyxml2_1_1MemPoolT.html#aa9d785a48ffe6ea1be679bab13464486" target="_top" xlink:title="tinyxml2::MemPoolT::Alloc">
<polygon fill="none" stroke="black" points="469,-60.5 469,-81.5 609,-81.5 609,-60.5 469,-60.5"/>
<text text-anchor="middle" x="539" y="-68.5" font-family="FreeSans.ttf" font-size="10.00">tinyxml2::MemPoolT::Alloc</text>
</a>
</g>
<!-- Node6&#45;&gt;Node7 -->
<g id="edge12" class="edge"><title>Node6&#45;&gt;Node7</title>
<path fill="none" stroke="midnightblue" d="M415.76,-71C430.13,-71 444.764,-71 458.692,-71"/>
<polygon fill="midnightblue" stroke="midnightblue" points="458.695,-74.5001 468.695,-71 458.695,-67.5001 458.695,-74.5001"/>
</g>
<!-- Node8 -->
<g id="node15" class="node"><title>Node8</title>
<a xlink:href="classtinyxml2_1_1XMLElement.html#a97712009a530d8cb8a63bf705f02b4f1" target="_top" xlink:title="Set the name of the element.">
<polygon fill="none" stroke="black" points="452,-20.5 452,-41.5 626,-41.5 626,-20.5 452,-20.5"/>
<text text-anchor="middle" x="539" y="-28.5" font-family="FreeSans.ttf" font-size="10.00">tinyxml2::XMLElement::SetName</text>
</a>
</g>
<!-- Node6&#45;&gt;Node8 -->
<g id="edge14" class="edge"><title>Node6&#45;&gt;Node8</title>
<path fill="none" stroke="midnightblue" d="M374.591,-60.4905C403.923,-55.229 439.615,-48.8268 470.239,-43.3338"/>
<polygon fill="midnightblue" stroke="midnightblue" points="471.189,-46.7194 480.414,-41.5087 469.953,-39.8293 471.189,-46.7194"/>
</g>
<!-- Node9 -->
<g id="node17" class="node"><title>Node9</title>
<a xlink:href="classtinyxml2_1_1XMLNode.html#a09dd68cf9eae137579f6e50f36487513" target="_top" xlink:title="Set the Value of an XML node.">
<polygon fill="none" stroke="black" points="662.5,-20.5 662.5,-41.5 819.5,-41.5 819.5,-20.5 662.5,-20.5"/>
<text text-anchor="middle" x="741" y="-28.5" font-family="FreeSans.ttf" font-size="10.00">tinyxml2::XMLNode::SetValue</text>
</a>
</g>
<!-- Node8&#45;&gt;Node9 -->
<g id="edge16" class="edge"><title>Node8&#45;&gt;Node9</title>
<path fill="none" stroke="midnightblue" d="M626.132,-31C634.804,-31 643.616,-31 652.304,-31"/>
<polygon fill="midnightblue" stroke="midnightblue" points="652.431,-34.5001 662.431,-31 652.431,-27.5001 652.431,-34.5001"/>
</g>
<!-- Node10 -->
<g id="node19" class="node"><title>Node10</title>
<a xlink:href="classtinyxml2_1_1StrPair.html#a2baf6230e18333e02ab65d0897ee3941" target="_top" xlink:title="tinyxml2::StrPair::SetInternedStr">
<polygon fill="none" stroke="black" points="856.5,-40.5 856.5,-61.5 1027.5,-61.5 1027.5,-40.5 856.5,-40.5"/>
<text text-anchor="middle" x="942" y="-48.5" font-family="FreeSans.ttf" font-size="10.00">tinyxml2::StrPair::SetInternedStr</text>
</a>
</g>
<!-- Node9&#45;&gt;Node10 -->
<g id="edge18" class="edge"><title>Node9&#45;&gt;Node10</title>
<path fill="none" stroke="midnightblue" d="M819.575,-38.8185C828.375,-39.6941 837.411,-40.5931 846.394,-41.487"/>
<polygon fill="midnightblue" stroke="midnightblue" points="846.202,-44.9851 856.499,-42.4925 846.895,-38.0195 846.202,-44.9851"/>
</g>
<!-- Node12 -->
<g id="node23" class="node"><title>Node12</title>
<a xlink:href="classtinyxml2_1_1StrPair.html#a1f82ec6b5bee35ee7466d8565e43b1de" target="_top" xlink:title="tinyxml2::StrPair::SetStr">
<polygon fill="none" stroke="black" points="876.5,-0.5 876.5,-21.5 1007.5,-21.5 1007.5,-0.5 876.5,-0.5"/>
<text text-anchor="middle" x="942" y="-8.5" font-family="FreeSans.ttf" font-size="10.00">tinyxml2::StrPair::SetStr</text>
</a>
</g>
<!-- Node9&#45;&gt;Node12 -->
<g id="edge22" class="edge"><title>Node9&#45;&gt;Node12</title>
<path fill="none" stroke="midnightblue" d="M819.575,-23.1815C834.873,-21.6594 850.884,-20.0663 866.094,-18.5529"/>
<polygon fill="midnightblue" stroke="midnightblue" points="866.872,-21.9927 876.477,-17.5197 866.179,-15.0271 866.872,-21.9927"/>
</g>
<!-- Node11 -->
<g id="node21" class="node"><title>Node11</title>
<a xlink:href="classtinyxml2_1_1StrPair.html#a80c1b3bd99bf62ae85c94a29ce537125" target="_top" xlink:title="tinyxml2::StrPair::Reset">
<polygon fill="none" stroke="black" points="1064.5,-40.5 1064.5,-61.5 1191.5,-61.5 1191.5,-40.5 1064.5,-40.5"/>
<text text-anchor="middle" x="1128" y="-48.5" font-family="FreeSans.ttf" font-size="10.00">tinyxml2::StrPair::Reset</text>
</a>
</g>
<!-- Node10&#45;&gt;Node11 -->
<g id="edge20" class="edge"><title>Node10&#45;&gt;Node11</title>
<path fill="none" stroke="midnightblue" d="M1027.65,-51C1036.56,-51 1045.56,-51 1054.32,-51"/>
<polygon fill="midnightblue" stroke="midnightblue" points="1054.47,-54.5001 1064.47,-51 1054.47,-47.5001 1054.47,-54.5001"/>
</g>
</g>
</svg>
        <g id="navigator" transform="translate(0 0)" fill="#404254">
                <rect fill="#f2f5e9" fill-opacity="0.5" stroke="#606060" stroke-width=".5" x="0" y="0" width="60" height="60"/>
                <use id="zoomplus" xlink:href="#zoomPlus" x="17" y="9" onmousedown="handleZoom(evt,'in')"/>
                <use id="zoomminus" xlink:href="#zoomMin" x="42" y="9" onmousedown="handleZoom(evt,'out')"/>
                <use id="reset" xlink:href="#resetDef" x="30" y="36" onmousedown="handleReset()"/>
                <g id="arrowUp" xlink:href="#dirArrow" transform="translate(30 24)" onmousedown="handlePan(0,-1)">
                  <use xlink:href="#rim" fill="#404040">
                        <set attributeName="fill" to="#808080" begin="arrowUp.mouseover" end="arrowUp.mouseout"/>
                  </use>
                  <path fill="none" stroke="white" stroke-width="1.5" d="M0,-3.0v7 M-2.5,-0.5L0,-3.0L2.5,-0.5"/>
                </g>
                <g id="arrowRight" xlink:href="#dirArrow" transform="rotate(90) translate(36 -43)" onmousedown="handlePan(1,0)">
                  <use xlink:href="#rim" fill="#404040">
                        <set attributeName="fill" to="#808080" begin="arrowRight.mouseover" end="arrowRight.mouseout"/>
                  </use>
                  <path fill="none" stroke="white" stroke-width="1.5" d="M0,-3.0v7 M-2.5,-0.5L0,-3.0L2.5,-0.5"/>
                </g>
                <g id="arrowDown" xlink:href="#dirArrow" transform="rotate(180) translate(-30 -48)" onmousedown="handlePan(0,1)">
                  <use xlink:href="#rim" fill="#404040">
                        <set attributeName="fill" to="#808080" begin="arrowDown.mouseover" end="arrowDown.mouseout"/>
                  </use>
                  <path fill="none" stroke="white" stroke-width="1.5" d="M0,-3.0v7 M-2.5,-0.5L0,-3.0L2.5,-0.5"/>
                </g>
                <g id="arrowLeft" xlink:href="#dirArrow" transform="rotate(270) translate(-36 17)" onmousedown="handlePan(-1,0)">
                  <use xlink:href="#rim" fill="#404040">
                        <set attributeName="fill" to="#808080" begin="arrowLeft.mouseover" end="arrowLeft.mouseout"/>
                  </use>
                  <path fill="none" stroke="white" stroke-width="1.5" d="M0,-3.0v7 M-2.5,-0.5L0,-3.0L2.5,-0.5"/>
                </g>
        </g>
</svg>
