<?xml version="1.0" encoding="UTF-8" standalone="no"?>
<!DOCTYPE svg PUBLIC "-//W3C//DTD SVG 1.1//EN"
 "http://www.w3.org/Graphics/SVG/1.1/DTD/svg11.dtd">
<!-- Generated by graphviz version 2.26.3 (20100126.1600)
 -->
<!-- Title: G Pages: 1 -->
<svg width="408pt" height="70pt"
 viewBox="0.00 0.00 408.00 70.00" xmlns="http://www.w3.org/2000/svg" xmlns:xlink="http://www.w3.org/1999/xlink">
<g id="graph1" class="graph" transform="scale(1 1) rotate(0) translate(4 66)">
<title>G</title>
<!-- Node1 -->
<g id="node1" class="node"><title>Node1</title>
<polygon fill="#bfbfbf" stroke="black" points="0.5,-20.5 0.5,-41.5 249.5,-41.5 249.5,-20.5 0.5,-20.5"/>
<text text-anchor="middle" x="125" y="-28.5" font-family="FreeSans.ttf" font-size="10.00">corecvs::CFlowBufferToucherOperator::operator()</text>
</g>
<!-- Node2 -->
<g id="node3" class="node"><title>Node2</title>
<a xlink:href="classcorecvs_1_1Vector2d.html#a944721c41f044c1388d9dc42ca899bce" target="_top" xlink:title="corecvs::Vector2d::x">
<polygon fill="none" stroke="black" points="286.5,-40.5 286.5,-61.5 399.5,-61.5 399.5,-40.5 286.5,-40.5"/>
<text text-anchor="middle" x="343" y="-48.5" font-family="FreeSans.ttf" font-size="10.00">corecvs::Vector2d::x</text>
</a>
</g>
<!-- Node1&#45;&gt;Node2 -->
<g id="edge2" class="edge"><title>Node1&#45;&gt;Node2</title>
<path fill="none" stroke="midnightblue" d="M239.746,-41.5271C252.281,-42.6771 264.714,-43.8178 276.381,-44.8881"/>
<polygon fill="midnightblue" stroke="midnightblue" points="276.141,-48.3807 286.419,-45.809 276.78,-41.41 276.141,-48.3807"/>
</g>
<!-- Node3 -->
<g id="node5" class="node"><title>Node3</title>
<a xlink:href="classcorecvs_1_1Vector2d.html#ae1ea2ad4c0821001408bf963cffa8413" target="_top" xlink:title="corecvs::Vector2d::y">
<polygon fill="none" stroke="black" points="286.5,-0.5 286.5,-21.5 399.5,-21.5 399.5,-0.5 286.5,-0.5"/>
<text text-anchor="middle" x="343" y="-8.5" font-family="FreeSans.ttf" font-size="10.00">corecvs::Vector2d::y</text>
</a>
</g>
<!-- Node1&#45;&gt;Node3 -->
<g id="edge4" class="edge"><title>Node1&#45;&gt;Node3</title>
<path fill="none" stroke="midnightblue" d="M239.746,-20.4729C252.281,-19.3229 264.714,-18.1822 276.381,-17.1119"/>
<polygon fill="midnightblue" stroke="midnightblue" points="276.78,-20.59 286.419,-16.191 276.141,-13.6193 276.78,-20.59"/>
</g>
</g>
</svg>
