<?xml version="1.0" encoding="UTF-8" standalone="no"?>
<!DOCTYPE svg PUBLIC "-//W3C//DTD SVG 1.1//EN"
 "http://www.w3.org/Graphics/SVG/1.1/DTD/svg11.dtd">
<!-- Generated by graphviz version 2.26.3 (20100126.1600)
 -->
<!-- Title: G Pages: 1 -->
<svg width="150pt" height="162pt"
 viewBox="0.00 0.00 150.00 162.00" xmlns="http://www.w3.org/2000/svg" xmlns:xlink="http://www.w3.org/1999/xlink">
<g id="graph1" class="graph" transform="scale(1 1) rotate(0) translate(4 158)">
<title>G</title>
<!-- Node1 -->
<g id="node1" class="node"><title>Node1</title>
<polygon fill="#bfbfbf" stroke="black" points="13,-0.5 13,-21.5 129,-21.5 129,-0.5 13,-0.5"/>
<text text-anchor="middle" x="71" y="-8.5" font-family="FreeSans.ttf" font-size="10.00">corecvs::PropertyList</text>
</g>
<!-- Node2 -->
<g id="node2" class="node"><title>Node2</title>
<a xlink:title="STL class.">
<polygon fill="none" stroke="#bfbfbf" points="0,-60.5 0,-81.5 142,-81.5 142,-60.5 0,-60.5"/>
<text text-anchor="middle" x="71" y="-68.5" font-family="FreeSans.ttf" font-size="10.00">std::map&lt; string, string &gt;</text>
</a>
</g>
<!-- Node2&#45;&gt;Node1 -->
<g id="edge2" class="edge"><title>Node2&#45;&gt;Node1</title>
<path fill="none" stroke="midnightblue" d="M71,-50.2312C71,-40.5922 71,-29.5444 71,-21.6339"/>
<polygon fill="midnightblue" stroke="midnightblue" points="67.5001,-50.2732 71,-60.2732 74.5001,-50.2732 67.5001,-50.2732"/>
</g>
<!-- Node3 -->
<g id="node4" class="node"><title>Node3</title>
<polygon fill="none" stroke="#bfbfbf" points="32.5,-132.5 32.5,-153.5 61.5,-153.5 61.5,-132.5 32.5,-132.5"/>
<text text-anchor="middle" x="47" y="-140.5" font-family="FreeSans.ttf" font-size="10.00">K</text>
</g>
<!-- Node3&#45;&gt;Node2 -->
<g id="edge4" class="edge"><title>Node3&#45;&gt;Node2</title>
<path fill="none" stroke="#9a32cd" stroke-dasharray="5,2" d="M44.8324,-122.296C44.759,-115.057 45.4712,-106.995 48,-100 50.4905,-93.1108 55.3239,-86.6064 59.9196,-81.5104"/>
<polygon fill="#9a32cd" stroke="#9a32cd" points="41.3454,-122.624 45.4137,-132.406 48.3339,-122.222 41.3454,-122.624"/>
<text text-anchor="middle" x="60.5" y="-104.5" font-family="FreeSans.ttf" font-size="10.00"> keys</text>
</g>
<!-- Node4 -->
<g id="node6" class="node"><title>Node4</title>
<polygon fill="none" stroke="#bfbfbf" points="80.5,-132.5 80.5,-153.5 109.5,-153.5 109.5,-132.5 80.5,-132.5"/>
<text text-anchor="middle" x="95" y="-140.5" font-family="FreeSans.ttf" font-size="10.00">T</text>
</g>
<!-- Node4&#45;&gt;Node2 -->
<g id="edge6" class="edge"><title>Node4&#45;&gt;Node2</title>
<path fill="none" stroke="#9a32cd" stroke-dasharray="5,2" d="M88.2106,-122.632C83.7675,-109.303 78.1418,-92.4253 74.5558,-81.6674"/>
<polygon fill="#9a32cd" stroke="#9a32cd" points="84.976,-123.996 91.4587,-132.376 91.6168,-121.782 84.976,-123.996"/>
<text text-anchor="middle" x="109.5" y="-104.5" font-family="FreeSans.ttf" font-size="10.00"> elements</text>
</g>
</g>
</svg>
