<?xml version="1.0" encoding="UTF-8" standalone="no"?>
<!DOCTYPE svg PUBLIC "-//W3C//DTD SVG 1.1//EN"
 "http://www.w3.org/Graphics/SVG/1.1/DTD/svg11.dtd">
<!-- Generated by graphviz version 2.26.3 (20100126.1600)
 -->
<!-- Title: G Pages: 1 -->
<svg width="294pt" height="110pt"
 viewBox="0.00 0.00 294.00 110.00" xmlns="http://www.w3.org/2000/svg" xmlns:xlink="http://www.w3.org/1999/xlink">
<g id="graph1" class="graph" transform="scale(1 1) rotate(0) translate(4 106)">
<title>G</title>
<!-- Node1 -->
<g id="node1" class="node"><title>Node1</title>
<polygon fill="#bfbfbf" stroke="black" points="0,-40.5 0,-61.5 134,-61.5 134,-40.5 0,-40.5"/>
<text text-anchor="middle" x="67" y="-48.5" font-family="FreeSans.ttf" font-size="10.00">corecvs::RGBColor::luma</text>
</g>
<!-- Node2 -->
<g id="node3" class="node"><title>Node2</title>
<a xlink:href="classcorecvs_1_1RGBColor.html#a28d1778710e5ade8ab275f8ef03cdaec" target="_top" xlink:title="corecvs::RGBColor::b">
<polygon fill="none" stroke="black" points="170,-80.5 170,-101.5 286,-101.5 286,-80.5 170,-80.5"/>
<text text-anchor="middle" x="228" y="-88.5" font-family="FreeSans.ttf" font-size="10.00">corecvs::RGBColor::b</text>
</a>
</g>
<!-- Node1&#45;&gt;Node2 -->
<g id="edge2" class="edge"><title>Node1&#45;&gt;Node2</title>
<path fill="none" stroke="midnightblue" d="M109.301,-61.5095C129.649,-66.5651 154.237,-72.6739 175.745,-78.0173"/>
<polygon fill="midnightblue" stroke="midnightblue" points="175.154,-81.4768 185.702,-80.4913 176.841,-74.6833 175.154,-81.4768"/>
</g>
<!-- Node3 -->
<g id="node5" class="node"><title>Node3</title>
<a xlink:href="classcorecvs_1_1RGBColor.html#a61bb42ad3c5af64582ba22408e8bc5c4" target="_top" xlink:title="corecvs::RGBColor::g">
<polygon fill="none" stroke="black" points="170,-40.5 170,-61.5 286,-61.5 286,-40.5 170,-40.5"/>
<text text-anchor="middle" x="228" y="-48.5" font-family="FreeSans.ttf" font-size="10.00">corecvs::RGBColor::g</text>
</a>
</g>
<!-- Node1&#45;&gt;Node3 -->
<g id="edge4" class="edge"><title>Node1&#45;&gt;Node3</title>
<path fill="none" stroke="midnightblue" d="M134.346,-51C142.738,-51 151.327,-51 159.734,-51"/>
<polygon fill="midnightblue" stroke="midnightblue" points="159.872,-54.5001 169.872,-51 159.872,-47.5001 159.872,-54.5001"/>
</g>
<!-- Node4 -->
<g id="node7" class="node"><title>Node4</title>
<a xlink:href="classcorecvs_1_1RGBColor.html#a551378cc4e40775286d1200a21e3dfbc" target="_top" xlink:title="corecvs::RGBColor::r">
<polygon fill="none" stroke="black" points="171,-0.5 171,-21.5 285,-21.5 285,-0.5 171,-0.5"/>
<text text-anchor="middle" x="228" y="-8.5" font-family="FreeSans.ttf" font-size="10.00">corecvs::RGBColor::r</text>
</a>
</g>
<!-- Node1&#45;&gt;Node4 -->
<g id="edge6" class="edge"><title>Node1&#45;&gt;Node4</title>
<path fill="none" stroke="midnightblue" d="M109.301,-40.4905C129.649,-35.4349 154.237,-29.3261 175.745,-23.9827"/>
<polygon fill="midnightblue" stroke="midnightblue" points="176.841,-27.3167 185.702,-21.5087 175.154,-20.5232 176.841,-27.3167"/>
</g>
</g>
</svg>
