<?xml version="1.0" encoding="UTF-8" standalone="no"?>
<!DOCTYPE svg PUBLIC "-//W3C//DTD SVG 1.1//EN"
 "http://www.w3.org/Graphics/SVG/1.1/DTD/svg11.dtd">
<!-- Generated by graphviz version 2.26.3 (20100126.1600)
 -->
<!-- Title: G Pages: 1 -->
<svg width="396pt" height="110pt"
 viewBox="0.00 0.00 396.00 110.00" xmlns="http://www.w3.org/2000/svg" xmlns:xlink="http://www.w3.org/1999/xlink">
<g id="graph1" class="graph" transform="scale(1 1) rotate(0) translate(4 106)">
<title>G</title>
<!-- Node1 -->
<g id="node1" class="node"><title>Node1</title>
<polygon fill="#bfbfbf" stroke="black" points="0,-40.5 0,-61.5 178,-61.5 178,-40.5 0,-40.5"/>
<text text-anchor="middle" x="89" y="-48.5" font-family="FreeSans.ttf" font-size="10.00">corecvs::BinarizeBlock::operator()</text>
</g>
<!-- Node2 -->
<g id="node3" class="node"><title>Node2</title>
<a xlink:href="classcorecvs_1_1AbstractBuffer.html#a98f72526738a0c4ce8a0b72a3b5c28b9" target="_top" xlink:title="The element getter.">
<polygon fill="none" stroke="black" points="214,-80.5 214,-101.5 388,-101.5 388,-80.5 214,-80.5"/>
<text text-anchor="middle" x="301" y="-88.5" font-family="FreeSans.ttf" font-size="10.00">corecvs::AbstractBuffer::element</text>
</a>
</g>
<!-- Node1&#45;&gt;Node2 -->
<g id="edge2" class="edge"><title>Node1&#45;&gt;Node2</title>
<path fill="none" stroke="midnightblue" d="M144.701,-61.5095C172.465,-66.7481 206.223,-73.1175 235.251,-78.5945"/>
<polygon fill="midnightblue" stroke="midnightblue" points="234.828,-82.0764 245.304,-80.4913 236.126,-75.1978 234.828,-82.0764"/>
</g>
<!-- Node3 -->
<g id="node5" class="node"><title>Node3</title>
<a xlink:href="classcorecvs_1_1AbstractBuffer.html#a6be5a0969d374904dc4ff6cd576c9332" target="_top" xlink:title="Buffer size getter.">
<polygon fill="none" stroke="black" points="216,-40.5 216,-61.5 386,-61.5 386,-40.5 216,-40.5"/>
<text text-anchor="middle" x="301" y="-48.5" font-family="FreeSans.ttf" font-size="10.00">corecvs::AbstractBuffer::getSize</text>
</a>
</g>
<!-- Node1&#45;&gt;Node3 -->
<g id="edge4" class="edge"><title>Node1&#45;&gt;Node3</title>
<path fill="none" stroke="midnightblue" d="M178.293,-51C187.337,-51 196.547,-51 205.652,-51"/>
<polygon fill="midnightblue" stroke="midnightblue" points="205.871,-54.5001 215.871,-51 205.871,-47.5001 205.871,-54.5001"/>
</g>
<!-- Node4 -->
<g id="node7" class="node"><title>Node4</title>
<a xlink:href="classBinarizeParameters.html#a98683a0ee51a8a543034e928ef227092" target="_top" xlink:title="BinarizeParameters::threshold">
<polygon fill="none" stroke="black" points="220.5,-0.5 220.5,-21.5 381.5,-21.5 381.5,-0.5 220.5,-0.5"/>
<text text-anchor="middle" x="301" y="-8.5" font-family="FreeSans.ttf" font-size="10.00">BinarizeParameters::threshold</text>
</a>
</g>
<!-- Node1&#45;&gt;Node4 -->
<g id="edge6" class="edge"><title>Node1&#45;&gt;Node4</title>
<path fill="none" stroke="midnightblue" d="M144.701,-40.4905C172.465,-35.2519 206.223,-28.8825 235.251,-23.4055"/>
<polygon fill="midnightblue" stroke="midnightblue" points="236.126,-26.8022 245.304,-21.5087 234.828,-19.9236 236.126,-26.8022"/>
</g>
</g>
</svg>
