<?xml version="1.0" encoding="UTF-8" standalone="no"?>
<!DOCTYPE svg PUBLIC "-//W3C//DTD SVG 1.1//EN"
 "http://www.w3.org/Graphics/SVG/1.1/DTD/svg11.dtd">
<!-- Generated by graphviz version 2.26.3 (20100126.1600)
 -->
<!-- Title: G Pages: 1 -->
<!--zoomable 241 -->
<svg id="main" version="1.1" xmlns="http://www.w3.org/2000/svg" xmlns:xlink="http://www.w3.org/1999/xlink" xml:space="preserve" onload="init(evt)">
        <defs>
                <circle id="rim" cx="0" cy="0" r="7"/>
                <circle id="rim2" cx="0" cy="0" r="3.5"/>
                <g id="zoomPlus">
                        <use xlink:href="#rim" fill="#404040">
                                <set attributeName="fill" to="#808080" begin="zoomplus.mouseover" end="zoomplus.mouseout"/>
                        </use>
                        <path d="M-4,0h8M0,-4v8" fill="none" stroke="white" stroke-width="1.5" pointer-events="none"/>
                </g>
                <g id="zoomMin">
                        <use xlink:href="#rim" fill="#404040">
                                <set attributeName="fill" to="#808080" begin="zoomminus.mouseover" end="zoomminus.mouseout"/>
                        </use>
                        <path d="M-4,0h8" fill="none" stroke="white" stroke-width="1.5" pointer-events="none"/>
                </g>
                <g id="dirArrow">
                        <path fill="none" stroke="white" stroke-width="1.5" d="M0,-3.0v7 M-2.5,-0.5L0,-3.0L2.5,-0.5"/>
                </g>
               <g id="resetDef">
                       <use xlink:href="#rim2" fill="#404040">
                               <set attributeName="fill" to="#808080" begin="reset.mouseover" end="reset.mouseout"/>
                       </use>
               </g>
        </defs>

<script type="text/javascript">
var viewWidth = 1296;
var viewHeight = 241;
var sectionId = 'dynsection-1';
</script>
<script xlink:href="svgpan.js"/>
<svg id="graph" class="graph">
<g id="viewport">
<title>G</title>
<!-- Node1 -->
<g id="node1" class="node"><title>Node1</title>
<polygon fill="#bfbfbf" stroke="black" points="1192.5,-137.5 1192.5,-158.5 1287.5,-158.5 1287.5,-137.5 1192.5,-137.5"/>
<text text-anchor="middle" x="1240" y="-145.5" font-family="FreeSans.ttf" font-size="10.00">CloudViewDialog</text>
</g>
<!-- Node2 -->
<g id="node2" class="node"><title>Node2</title>
<a xlink:href="classViAreaWidget.html" target="_top" xlink:title="ViAreaWidget">
<polygon fill="none" stroke="black" points="957,-211.5 957,-232.5 1037,-232.5 1037,-211.5 957,-211.5"/>
<text text-anchor="middle" x="997" y="-219.5" font-family="FreeSans.ttf" font-size="10.00">ViAreaWidget</text>
</a>
</g>
<!-- Node2&#45;&gt;Node1 -->
<g id="edge2" class="edge"><title>Node2&#45;&gt;Node1</title>
<path fill="none" stroke="midnightblue" d="M1047.37,-220.049C1083.69,-217.222 1133.29,-210.393 1174,-194 1194.99,-185.549 1215.84,-169.373 1228.33,-158.633"/>
<polygon fill="midnightblue" stroke="midnightblue" points="1046.76,-216.584 1037.02,-220.775 1047.25,-223.567 1046.76,-216.584"/>
</g>
<!-- Node3 -->
<g id="node4" class="node"><title>Node3</title>
<a xlink:href="classTreeSceneController.html" target="_top" xlink:title="TreeSceneController">
<polygon fill="none" stroke="black" points="616.5,-105.5 616.5,-126.5 729.5,-126.5 729.5,-105.5 616.5,-105.5"/>
<text text-anchor="middle" x="673" y="-113.5" font-family="FreeSans.ttf" font-size="10.00">TreeSceneController</text>
</a>
</g>
<!-- Node3&#45;&gt;Node1 -->
<g id="edge4" class="edge"><title>Node3&#45;&gt;Node1</title>
<path fill="none" stroke="#9a32cd" stroke-dasharray="5,2" d="M722.027,-128.976C750.417,-135.825 786.965,-143.515 820,-147 954.333,-161.172 1114.18,-155.357 1192.27,-151.06"/>
<polygon fill="#9a32cd" stroke="#9a32cd" points="722.505,-125.49 711.958,-126.501 720.834,-132.287 722.505,-125.49"/>
<text text-anchor="middle" x="997" y="-159" font-family="FreeSans.ttf" font-size="10.00"> mSceneControllers</text>
</g>
<!-- Node3&#45;&gt;Node3 -->
<g id="edge10" class="edge"><title>Node3&#45;&gt;Node3</title>
<path fill="none" stroke="#9a32cd" stroke-dasharray="5,2" d="M639.88,-135.679C641.655,-140.975 652.695,-145 673,-145 703.941,-145 713.369,-135.653 701.282,-126.708"/>
<polygon fill="#9a32cd" stroke="#9a32cd" points="643.052,-137.171 644.718,-126.708 636.891,-133.848 643.052,-137.171"/>
<text text-anchor="middle" x="673" y="-149" font-family="FreeSans.ttf" font-size="10.00"> mParentController</text>
</g>
<!-- Node7 -->
<g id="node13" class="node"><title>Node7</title>
<polygon fill="none" stroke="#bfbfbf" points="900,-116.5 900,-137.5 1094,-137.5 1094,-116.5 900,-116.5"/>
<text text-anchor="middle" x="997" y="-124.5" font-family="FreeSans.ttf" font-size="10.00">std::vector&lt; TreeSceneController * &gt;</text>
</g>
<!-- Node3&#45;&gt;Node7 -->
<g id="edge16" class="edge"><title>Node3&#45;&gt;Node7</title>
<path fill="none" stroke="#9a32cd" stroke-dasharray="5,2" d="M739.942,-123.727C765.018,-126.265 793.78,-128.754 820,-130 847.525,-131.308 854.447,-130.359 882,-130 887.791,-129.924 893.746,-129.828 899.754,-129.715"/>
<polygon fill="#9a32cd" stroke="#9a32cd" points="740.11,-120.226 729.803,-122.678 739.39,-127.189 740.11,-120.226"/>
<text text-anchor="middle" x="851" y="-134" font-family="FreeSans.ttf" font-size="10.00"> elements</text>
</g>
<!-- Node8 -->
<g id="node16" class="node"><title>Node8</title>
<a xlink:href="classTreeSceneModel.html" target="_top" xlink:title="TreeSceneModel">
<polygon fill="none" stroke="black" points="949.5,-69.5 949.5,-90.5 1044.5,-90.5 1044.5,-69.5 949.5,-69.5"/>
<text text-anchor="middle" x="997" y="-77.5" font-family="FreeSans.ttf" font-size="10.00">TreeSceneModel</text>
</a>
</g>
<!-- Node3&#45;&gt;Node8 -->
<g id="edge20" class="edge"><title>Node3&#45;&gt;Node8</title>
<path fill="none" stroke="#9a32cd" stroke-dasharray="5,2" d="M739.681,-107.542C764.84,-104.428 793.725,-100.944 820,-98 863.741,-93.0984 913.629,-88.0764 949.268,-84.5867"/>
<polygon fill="#9a32cd" stroke="#9a32cd" points="739.003,-104.099 729.511,-108.806 739.866,-111.046 739.003,-104.099"/>
<text text-anchor="middle" x="851" y="-102" font-family="FreeSans.ttf" font-size="10.00"> mTopItem</text>
</g>
<!-- Node4 -->
<g id="node6" class="node"><title>Node4</title>
<a xlink:href="classParametersControlWidgetBase.html" target="_top" xlink:title="ParametersControlWidgetBase">
<polygon fill="none" stroke="black" points="185.5,-127.5 185.5,-148.5 348.5,-148.5 348.5,-127.5 185.5,-127.5"/>
<text text-anchor="middle" x="267" y="-135.5" font-family="FreeSans.ttf" font-size="10.00">ParametersControlWidgetBase</text>
</a>
</g>
<!-- Node4&#45;&gt;Node3 -->
<g id="edge6" class="edge"><title>Node4&#45;&gt;Node3</title>
<path fill="none" stroke="#9a32cd" stroke-dasharray="5,2" d="M359.12,-133.008C438.196,-128.723 549.653,-122.684 616.28,-119.074"/>
<polygon fill="#9a32cd" stroke="#9a32cd" points="358.468,-129.538 348.672,-133.574 358.847,-136.528 358.468,-129.538"/>
<text text-anchor="middle" x="473" y="-133" font-family="FreeSans.ttf" font-size="10.00"> mParametersWidget</text>
</g>
<!-- Node5 -->
<g id="node8" class="node"><title>Node5</title>
<a xlink:href="classSaveableWidget.html" target="_top" xlink:title="SaveableWidget">
<polygon fill="none" stroke="black" points="0.5,-127.5 0.5,-148.5 93.5,-148.5 93.5,-127.5 0.5,-127.5"/>
<text text-anchor="middle" x="47" y="-135.5" font-family="FreeSans.ttf" font-size="10.00">SaveableWidget</text>
</a>
</g>
<!-- Node5&#45;&gt;Node4 -->
<g id="edge8" class="edge"><title>Node5&#45;&gt;Node4</title>
<path fill="none" stroke="midnightblue" d="M103.967,-138C128.749,-138 158.252,-138 185.305,-138"/>
<polygon fill="midnightblue" stroke="midnightblue" points="103.656,-134.5 93.6563,-138 103.656,-141.5 103.656,-134.5"/>
</g>
<!-- Node6 -->
<g id="node11" class="node"><title>Node6</title>
<a xlink:href="classTransform3DSelector.html" target="_top" xlink:title="Transform3DSelector">
<polygon fill="none" stroke="black" points="208.5,-87.5 208.5,-108.5 325.5,-108.5 325.5,-87.5 208.5,-87.5"/>
<text text-anchor="middle" x="267" y="-95.5" font-family="FreeSans.ttf" font-size="10.00">Transform3DSelector</text>
</a>
</g>
<!-- Node6&#45;&gt;Node3 -->
<g id="edge12" class="edge"><title>Node6&#45;&gt;Node3</title>
<path fill="none" stroke="#9a32cd" stroke-dasharray="5,2" d="M335.835,-97.1123C388.059,-96.8474 461.602,-97.3489 526,-101 555.838,-102.692 588.962,-105.95 616.202,-108.999"/>
<polygon fill="#9a32cd" stroke="#9a32cd" points="335.662,-93.6132 325.684,-97.1748 335.705,-100.613 335.662,-93.6132"/>
<text text-anchor="middle" x="473" y="-105" font-family="FreeSans.ttf" font-size="10.00"> mTransform3DWidget</text>
</g>
<!-- Node7&#45;&gt;Node3 -->
<g id="edge14" class="edge"><title>Node7&#45;&gt;Node3</title>
<path fill="none" stroke="#9a32cd" stroke-dasharray="5,2" d="M889.703,-117.386C887.111,-117.246 884.54,-117.116 882,-117 830.529,-114.643 771.854,-114.593 729.803,-115.016"/>
<polygon fill="#9a32cd" stroke="#9a32cd" points="889.598,-120.886 899.787,-117.983 890.012,-113.899 889.598,-120.886"/>
<text text-anchor="middle" x="851" y="-121" font-family="FreeSans.ttf" font-size="10.00"> mChildren</text>
</g>
<!-- Node8&#45;&gt;Node1 -->
<g id="edge28" class="edge"><title>Node8&#45;&gt;Node1</title>
<path fill="none" stroke="#9a32cd" stroke-dasharray="5,2" d="M1045.19,-93.3908C1060.77,-97.7256 1078.12,-102.56 1094,-107 1130.89,-117.314 1173.01,-129.149 1202.5,-137.443"/>
<polygon fill="#9a32cd" stroke="#9a32cd" points="1045.82,-89.9316 1035.24,-90.6235 1043.94,-96.6755 1045.82,-89.9316"/>
<text text-anchor="middle" x="1143" y="-133" font-family="FreeSans.ttf" font-size="10.00"> mTreeModel</text>
</g>
<!-- Node8&#45;&gt;Node3 -->
<g id="edge18" class="edge"><title>Node8&#45;&gt;Node3</title>
<path fill="none" stroke="#9a32cd" stroke-dasharray="5,2" d="M965.19,-65.6204C929.667,-51.4393 870.518,-33.4389 820,-45 768.889,-56.6967 714.881,-88.5665 688.855,-105.345"/>
<polygon fill="#9a32cd" stroke="#9a32cd" points="963.978,-68.9064 974.557,-69.4912 966.651,-62.4371 963.978,-68.9064"/>
<text text-anchor="middle" x="851" y="-49" font-family="FreeSans.ttf" font-size="10.00"> mTreeModel</text>
</g>
<!-- Node9 -->
<g id="node19" class="node"><title>Node9</title>
<a xlink:href="classcorecvs_1_1Matrix44.html" target="_top" xlink:title="This class is mostly for representing Projectrive Transformations in 3D.">
<polygon fill="none" stroke="black" points="946.5,-15.5 946.5,-36.5 1047.5,-36.5 1047.5,-15.5 946.5,-15.5"/>
<text text-anchor="middle" x="997" y="-23.5" font-family="FreeSans.ttf" font-size="10.00">corecvs::Matrix44</text>
</a>
</g>
<!-- Node9&#45;&gt;Node1 -->
<g id="edge22" class="edge"><title>Node9&#45;&gt;Node1</title>
<path fill="none" stroke="#9a32cd" stroke-dasharray="5,2" d="M1044.64,-39.6146C1081.5,-51.2945 1133,-70.1707 1174,-95 1194.62,-107.484 1215.9,-125.724 1228.54,-137.222"/>
<polygon fill="#9a32cd" stroke="#9a32cd" points="1045.25,-36.1365 1034.66,-36.5122 1043.17,-42.8213 1045.25,-36.1365"/>
<text text-anchor="middle" x="1143" y="-99" font-family="FreeSans.ttf" font-size="10.00"> mCamera</text>
</g>
<!-- Node10 -->
<g id="node21" class="node"><title>Node10</title>
<a xlink:href="classcorecvs_1_1FixedVectorBase.html" target="_top" xlink:title="corecvs::FixedVectorBase\&lt; Matrix44, double, 16 \&gt;">
<polygon fill="none" stroke="black" points="544,-0.5 544,-21.5 802,-21.5 802,-0.5 544,-0.5"/>
<text text-anchor="middle" x="673" y="-8.5" font-family="FreeSans.ttf" font-size="10.00">corecvs::FixedVectorBase&lt; Matrix44, double, 16 &gt;</text>
</a>
</g>
<!-- Node10&#45;&gt;Node9 -->
<g id="edge24" class="edge"><title>Node10&#45;&gt;Node9</title>
<path fill="none" stroke="midnightblue" d="M812.545,-17.4604C860.068,-19.6605 910.219,-21.9824 946.212,-23.6487"/>
<polygon fill="midnightblue" stroke="midnightblue" points="812.601,-13.9594 802.45,-16.9931 812.278,-20.9519 812.601,-13.9594"/>
</g>
<!-- Node11 -->
<g id="node23" class="node"><title>Node11</title>
<a xlink:href="classcorecvs_1_1VectorOperationsBase.html" target="_top" xlink:title="corecvs::VectorOperationsBase\&lt; Matrix44, double \&gt;">
<polygon fill="none" stroke="black" points="132.5,-0.5 132.5,-21.5 401.5,-21.5 401.5,-0.5 132.5,-0.5"/>
<text text-anchor="middle" x="267" y="-8.5" font-family="FreeSans.ttf" font-size="10.00">corecvs::VectorOperationsBase&lt; Matrix44, double &gt;</text>
</a>
</g>
<!-- Node11&#45;&gt;Node10 -->
<g id="edge26" class="edge"><title>Node11&#45;&gt;Node10</title>
<path fill="none" stroke="midnightblue" d="M411.64,-11C454.8,-11 501.807,-11 543.903,-11"/>
<polygon fill="midnightblue" stroke="midnightblue" points="411.628,-7.5001 401.628,-11 411.628,-14.5001 411.628,-7.5001"/>
</g>
</g>
</svg>
        <g id="navigator" transform="translate(0 0)" fill="#404254">
                <rect fill="#f2f5e9" fill-opacity="0.5" stroke="#606060" stroke-width=".5" x="0" y="0" width="60" height="60"/>
                <use id="zoomplus" xlink:href="#zoomPlus" x="17" y="9" onmousedown="handleZoom(evt,'in')"/>
                <use id="zoomminus" xlink:href="#zoomMin" x="42" y="9" onmousedown="handleZoom(evt,'out')"/>
                <use id="reset" xlink:href="#resetDef" x="30" y="36" onmousedown="handleReset()"/>
                <g id="arrowUp" xlink:href="#dirArrow" transform="translate(30 24)" onmousedown="handlePan(0,-1)">
                  <use xlink:href="#rim" fill="#404040">
                        <set attributeName="fill" to="#808080" begin="arrowUp.mouseover" end="arrowUp.mouseout"/>
                  </use>
                  <path fill="none" stroke="white" stroke-width="1.5" d="M0,-3.0v7 M-2.5,-0.5L0,-3.0L2.5,-0.5"/>
                </g>
                <g id="arrowRight" xlink:href="#dirArrow" transform="rotate(90) translate(36 -43)" onmousedown="handlePan(1,0)">
                  <use xlink:href="#rim" fill="#404040">
                        <set attributeName="fill" to="#808080" begin="arrowRight.mouseover" end="arrowRight.mouseout"/>
                  </use>
                  <path fill="none" stroke="white" stroke-width="1.5" d="M0,-3.0v7 M-2.5,-0.5L0,-3.0L2.5,-0.5"/>
                </g>
                <g id="arrowDown" xlink:href="#dirArrow" transform="rotate(180) translate(-30 -48)" onmousedown="handlePan(0,1)">
                  <use xlink:href="#rim" fill="#404040">
                        <set attributeName="fill" to="#808080" begin="arrowDown.mouseover" end="arrowDown.mouseout"/>
                  </use>
                  <path fill="none" stroke="white" stroke-width="1.5" d="M0,-3.0v7 M-2.5,-0.5L0,-3.0L2.5,-0.5"/>
                </g>
                <g id="arrowLeft" xlink:href="#dirArrow" transform="rotate(270) translate(-36 17)" onmousedown="handlePan(-1,0)">
                  <use xlink:href="#rim" fill="#404040">
                        <set attributeName="fill" to="#808080" begin="arrowLeft.mouseover" end="arrowLeft.mouseout"/>
                  </use>
                  <path fill="none" stroke="white" stroke-width="1.5" d="M0,-3.0v7 M-2.5,-0.5L0,-3.0L2.5,-0.5"/>
                </g>
        </g>
</svg>
