<?xml version="1.0" encoding="UTF-8" standalone="no"?>
<!DOCTYPE svg PUBLIC "-//W3C//DTD SVG 1.1//EN"
 "http://www.w3.org/Graphics/SVG/1.1/DTD/svg11.dtd">
<!-- Generated by graphviz version 2.26.3 (20100126.1600)
 -->
<!-- Title: G Pages: 1 -->
<!--zoomable 281 -->
<svg id="main" version="1.1" xmlns="http://www.w3.org/2000/svg" xmlns:xlink="http://www.w3.org/1999/xlink" xml:space="preserve" onload="init(evt)">
        <defs>
                <circle id="rim" cx="0" cy="0" r="7"/>
                <circle id="rim2" cx="0" cy="0" r="3.5"/>
                <g id="zoomPlus">
                        <use xlink:href="#rim" fill="#404040">
                                <set attributeName="fill" to="#808080" begin="zoomplus.mouseover" end="zoomplus.mouseout"/>
                        </use>
                        <path d="M-4,0h8M0,-4v8" fill="none" stroke="white" stroke-width="1.5" pointer-events="none"/>
                </g>
                <g id="zoomMin">
                        <use xlink:href="#rim" fill="#404040">
                                <set attributeName="fill" to="#808080" begin="zoomminus.mouseover" end="zoomminus.mouseout"/>
                        </use>
                        <path d="M-4,0h8" fill="none" stroke="white" stroke-width="1.5" pointer-events="none"/>
                </g>
                <g id="dirArrow">
                        <path fill="none" stroke="white" stroke-width="1.5" d="M0,-3.0v7 M-2.5,-0.5L0,-3.0L2.5,-0.5"/>
                </g>
               <g id="resetDef">
                       <use xlink:href="#rim2" fill="#404040">
                               <set attributeName="fill" to="#808080" begin="reset.mouseover" end="reset.mouseout"/>
                       </use>
               </g>
        </defs>

<script type="text/javascript">
var viewWidth = 1288;
var viewHeight = 281;
var sectionId = 'dynsection-24';
</script>
<script xlink:href="svgpan.js"/>
<svg id="graph" class="graph">
<g id="viewport">
<title>G</title>
<!-- Node1 -->
<g id="node1" class="node"><title>Node1</title>
<polygon fill="#bfbfbf" stroke="black" points="0,-118.5 0,-139.5 194,-139.5 194,-118.5 0,-118.5"/>
<text text-anchor="middle" x="97" y="-126.5" font-family="FreeSans.ttf" font-size="10.00">corecvs::Matrix33::ProjectiveByPoints</text>
</g>
<!-- Node2 -->
<g id="node3" class="node"><title>Node2</title>
<a xlink:href="classcorecvs_1_1Matrix.html#a5b8b00c8bfc66549652e6c0610457254" target="_top" xlink:title="The element getter for a matrix that is used like vector (i.e has height or width of 1)...">
<polygon fill="none" stroke="black" points="925.5,-99.5 925.5,-120.5 1026.5,-120.5 1026.5,-99.5 925.5,-99.5"/>
<text text-anchor="middle" x="976" y="-107.5" font-family="FreeSans.ttf" font-size="10.00">corecvs::Matrix::a</text>
</a>
</g>
<!-- Node1&#45;&gt;Node2 -->
<g id="edge2" class="edge"><title>Node1&#45;&gt;Node2</title>
<path fill="none" stroke="midnightblue" d="M106.692,-139.734C127.004,-161.327 176.594,-209.449 230,-227 490.849,-312.723 586.442,-269.557 846,-180 885.062,-166.522 926.477,-142.262 951.793,-126.143"/>
<polygon fill="midnightblue" stroke="midnightblue" points="953.859,-128.975 960.357,-120.607 950.059,-123.096 953.859,-128.975"/>
</g>
<!-- Node4 -->
<g id="node7" class="node"><title>Node4</title>
<a xlink:href="classcorecvs_1_1AbstractBuffer.html#ad4c21551df215fd88dc991b7135068ec" target="_top" xlink:title="corecvs::AbstractBuffer::fillLineWithArgs">
<polygon fill="none" stroke="black" points="460,-158.5 460,-179.5 666,-179.5 666,-158.5 460,-158.5"/>
<text text-anchor="middle" x="563" y="-166.5" font-family="FreeSans.ttf" font-size="10.00">corecvs::AbstractBuffer::fillLineWithArgs</text>
</a>
</g>
<!-- Node1&#45;&gt;Node4 -->
<g id="edge6" class="edge"><title>Node1&#45;&gt;Node4</title>
<path fill="none" stroke="midnightblue" d="M159.102,-139.512C181.404,-142.976 206.778,-146.562 230,-149 302.854,-156.65 385.007,-161.623 449.484,-164.697"/>
<polygon fill="midnightblue" stroke="midnightblue" points="449.524,-168.202 459.677,-165.174 449.851,-161.21 449.524,-168.202"/>
</g>
<!-- Node5 -->
<g id="node9" class="node"><title>Node5</title>
<a xlink:href="classcorecvs_1_1Matrix.html#a67ff682212801703e75602acf3859d1f" target="_top" xlink:title="corecvs::Matrix::invSVD">
<polygon fill="none" stroke="black" points="498.5,-80.5 498.5,-101.5 627.5,-101.5 627.5,-80.5 498.5,-80.5"/>
<text text-anchor="middle" x="563" y="-88.5" font-family="FreeSans.ttf" font-size="10.00">corecvs::Matrix::invSVD</text>
</a>
</g>
<!-- Node1&#45;&gt;Node5 -->
<g id="edge8" class="edge"><title>Node1&#45;&gt;Node5</title>
<path fill="none" stroke="midnightblue" d="M158.76,-118.462C181.141,-114.975 206.654,-111.381 230,-109 318.479,-99.9768 420.676,-95.3013 488.269,-93.0046"/>
<polygon fill="midnightblue" stroke="midnightblue" points="488.52,-96.4984 498.398,-92.6695 488.288,-89.5022 488.52,-96.4984"/>
</g>
<!-- Node9 -->
<g id="node20" class="node"><title>Node9</title>
<a xlink:href="classcorecvs_1_1Matrix33.html#ab763ebe37015ab95724ff716c981be59" target="_top" xlink:title="Calculate the Matrix that transform given points &#160;to given images &#160;This is done almost the same way a...">
<polygon fill="none" stroke="black" points="230,-118.5 230,-139.5 424,-139.5 424,-118.5 230,-118.5"/>
<text text-anchor="middle" x="327" y="-126.5" font-family="FreeSans.ttf" font-size="10.00">corecvs::Matrix33::ProjectiveByPoints</text>
</a>
</g>
<!-- Node1&#45;&gt;Node9 -->
<g id="edge22" class="edge"><title>Node1&#45;&gt;Node9</title>
<path fill="none" stroke="midnightblue" d="M194.207,-129C202.575,-129 211.071,-129 219.513,-129"/>
<polygon fill="midnightblue" stroke="midnightblue" points="219.772,-132.5 229.772,-129 219.772,-125.5 219.772,-132.5"/>
</g>
<!-- Node10 -->
<g id="node25" class="node"><title>Node10</title>
<a xlink:href="classcorecvs_1_1Vector2d.html#a944721c41f044c1388d9dc42ca899bce" target="_top" xlink:title="corecvs::Vector2d::x">
<polygon fill="none" stroke="black" points="506.5,-40.5 506.5,-61.5 619.5,-61.5 619.5,-40.5 506.5,-40.5"/>
<text text-anchor="middle" x="563" y="-48.5" font-family="FreeSans.ttf" font-size="10.00">corecvs::Vector2d::x</text>
</a>
</g>
<!-- Node1&#45;&gt;Node10 -->
<g id="edge38" class="edge"><title>Node1&#45;&gt;Node10</title>
<path fill="none" stroke="midnightblue" d="M128.63,-118.426C155.36,-109.862 194.807,-98.0946 230,-91 321.348,-72.5853 428.62,-61.5622 496.21,-55.8855"/>
<polygon fill="midnightblue" stroke="midnightblue" points="496.619,-59.3637 506.297,-55.0533 496.043,-52.3874 496.619,-59.3637"/>
</g>
<!-- Node11 -->
<g id="node27" class="node"><title>Node11</title>
<a xlink:href="classcorecvs_1_1Vector2d.html#ae1ea2ad4c0821001408bf963cffa8413" target="_top" xlink:title="corecvs::Vector2d::y">
<polygon fill="none" stroke="black" points="506.5,-0.5 506.5,-21.5 619.5,-21.5 619.5,-0.5 506.5,-0.5"/>
<text text-anchor="middle" x="563" y="-8.5" font-family="FreeSans.ttf" font-size="10.00">corecvs::Vector2d::y</text>
</a>
</g>
<!-- Node1&#45;&gt;Node11 -->
<g id="edge40" class="edge"><title>Node1&#45;&gt;Node11</title>
<path fill="none" stroke="midnightblue" d="M112.991,-118.25C137.193,-102.535 185.078,-73.5791 230,-59 319.307,-30.016 427.756,-18.5056 496.095,-13.9527"/>
<polygon fill="midnightblue" stroke="midnightblue" points="496.536,-17.4319 506.294,-13.3052 496.092,-10.4459 496.536,-17.4319"/>
</g>
<!-- Node12 -->
<g id="node29" class="node"><title>Node12</title>
<a xlink:href="classcorecvs_1_1Matrix.html#ae23aa5c2e50e7913de6aa4c703d4efa4" target="_top" xlink:title="corecvs::Matrix::t">
<polygon fill="none" stroke="black" points="278,-196.5 278,-217.5 376,-217.5 376,-196.5 278,-196.5"/>
<text text-anchor="middle" x="327" y="-204.5" font-family="FreeSans.ttf" font-size="10.00">corecvs::Matrix::t</text>
</a>
</g>
<!-- Node1&#45;&gt;Node12 -->
<g id="edge34" class="edge"><title>Node1&#45;&gt;Node12</title>
<path fill="none" stroke="midnightblue" d="M120.691,-139.502C147.033,-150.929 191.015,-169.265 230,-182 243.302,-186.345 257.826,-190.429 271.489,-193.986"/>
<polygon fill="midnightblue" stroke="midnightblue" points="270.701,-197.397 281.256,-196.479 272.432,-190.615 270.701,-197.397"/>
</g>
<!-- Node3 -->
<g id="node5" class="node"><title>Node3</title>
<a xlink:href="classcorecvs_1_1AbstractBuffer.html#a98f72526738a0c4ce8a0b72a3b5c28b9" target="_top" xlink:title="The element getter.">
<polygon fill="none" stroke="black" points="1106,-99.5 1106,-120.5 1280,-120.5 1280,-99.5 1106,-99.5"/>
<text text-anchor="middle" x="1193" y="-107.5" font-family="FreeSans.ttf" font-size="10.00">corecvs::AbstractBuffer::element</text>
</a>
</g>
<!-- Node2&#45;&gt;Node3 -->
<g id="edge4" class="edge"><title>Node2&#45;&gt;Node3</title>
<path fill="none" stroke="midnightblue" d="M1026.6,-110C1047.2,-110 1071.74,-110 1095.57,-110"/>
<polygon fill="midnightblue" stroke="midnightblue" points="1095.72,-113.5 1105.72,-110 1095.72,-106.5 1095.72,-113.5"/>
</g>
<!-- Node5&#45;&gt;Node2 -->
<g id="edge10" class="edge"><title>Node5&#45;&gt;Node2</title>
<path fill="none" stroke="midnightblue" d="M615.936,-80.4732C672.984,-70.7072 766.323,-59.3058 846,-71 878.313,-75.7425 913.743,-86.7817 939.443,-95.9092"/>
<polygon fill="midnightblue" stroke="midnightblue" points="938.539,-99.3044 949.134,-99.4238 940.926,-92.7238 938.539,-99.3044"/>
</g>
<!-- Node6 -->
<g id="node12" class="node"><title>Node6</title>
<a xlink:href="classcorecvs_1_1Matrix.html#ab00a85b071aab144f3a2860189150e7f" target="_top" xlink:title="This method contains SVD implementation.">
<polygon fill="none" stroke="black" points="718.5,-2.5 718.5,-23.5 829.5,-23.5 829.5,-2.5 718.5,-2.5"/>
<text text-anchor="middle" x="774" y="-10.5" font-family="FreeSans.ttf" font-size="10.00">corecvs::Matrix::svd</text>
</a>
</g>
<!-- Node5&#45;&gt;Node6 -->
<g id="edge12" class="edge"><title>Node5&#45;&gt;Node6</title>
<path fill="none" stroke="midnightblue" d="M627.718,-84.066C640.832,-81.1256 654.207,-76.9442 666,-71 685.382,-61.2307 683.362,-49.1235 702,-38 709.028,-33.8057 716.863,-30.1788 724.704,-27.09"/>
<polygon fill="midnightblue" stroke="midnightblue" points="726.044,-30.3265 734.219,-23.5871 723.625,-23.7576 726.044,-30.3265"/>
</g>
<!-- Node8 -->
<g id="node17" class="node"><title>Node8</title>
<a xlink:href="classcorecvs_1_1Matrix.html#a592174ecffa431b0f6b2a47aeee2ad23" target="_top" xlink:title="corecvs::Matrix::transpose">
<polygon fill="none" stroke="black" points="702.5,-80.5 702.5,-101.5 845.5,-101.5 845.5,-80.5 702.5,-80.5"/>
<text text-anchor="middle" x="774" y="-88.5" font-family="FreeSans.ttf" font-size="10.00">corecvs::Matrix::transpose</text>
</a>
</g>
<!-- Node5&#45;&gt;Node8 -->
<g id="edge18" class="edge"><title>Node5&#45;&gt;Node8</title>
<path fill="none" stroke="midnightblue" d="M627.741,-91C648.134,-91 670.928,-91 692.339,-91"/>
<polygon fill="midnightblue" stroke="midnightblue" points="692.393,-94.5001 702.393,-91 692.393,-87.5001 692.393,-94.5001"/>
</g>
<!-- Node6&#45;&gt;Node2 -->
<g id="edge14" class="edge"><title>Node6&#45;&gt;Node2</title>
<path fill="none" stroke="midnightblue" d="M808.164,-23.5255C820.289,-27.6096 833.918,-32.6045 846,-38 883.556,-54.7712 924.752,-78.5763 950.489,-94.1506"/>
<polygon fill="midnightblue" stroke="midnightblue" points="948.877,-97.2671 959.237,-99.4879 952.523,-91.2916 948.877,-97.2671"/>
</g>
<!-- Node7 -->
<g id="node15" class="node"><title>Node7</title>
<a xlink:href="classcorecvs_1_1Vector2d.html#ab49b551bd23cad02283d6506884bef72" target="_top" xlink:title="corecvs::Vector2d::getLengthStable">
<polygon fill="none" stroke="black" points="882,-2.5 882,-23.5 1070,-23.5 1070,-2.5 882,-2.5"/>
<text text-anchor="middle" x="976" y="-10.5" font-family="FreeSans.ttf" font-size="10.00">corecvs::Vector2d::getLengthStable</text>
</a>
</g>
<!-- Node6&#45;&gt;Node7 -->
<g id="edge16" class="edge"><title>Node6&#45;&gt;Node7</title>
<path fill="none" stroke="midnightblue" d="M829.732,-13C842.826,-13 857.2,-13 871.665,-13"/>
<polygon fill="midnightblue" stroke="midnightblue" points="871.679,-16.5001 881.679,-13 871.679,-9.5001 871.679,-16.5001"/>
</g>
<!-- Node8&#45;&gt;Node2 -->
<g id="edge20" class="edge"><title>Node8&#45;&gt;Node2</title>
<path fill="none" stroke="midnightblue" d="M845.502,-97.7254C868.233,-99.8635 893.149,-102.207 915.062,-104.268"/>
<polygon fill="midnightblue" stroke="midnightblue" points="914.943,-107.772 925.227,-105.224 915.598,-100.803 914.943,-107.772"/>
</g>
<!-- Node9&#45;&gt;Node2 -->
<g id="edge24" class="edge"><title>Node9&#45;&gt;Node2</title>
<path fill="none" stroke="midnightblue" d="M424.162,-126.156C559.953,-122.18 802.479,-115.08 915.246,-111.779"/>
<polygon fill="midnightblue" stroke="midnightblue" points="915.527,-115.272 925.42,-111.481 915.322,-108.275 915.527,-115.272"/>
</g>
<!-- Node9&#45;&gt;Node4 -->
<g id="edge26" class="edge"><title>Node9&#45;&gt;Node4</title>
<path fill="none" stroke="midnightblue" d="M389.006,-139.51C420.319,-144.817 458.479,-151.285 491.075,-156.809"/>
<polygon fill="midnightblue" stroke="midnightblue" points="490.554,-160.271 500.999,-158.491 491.724,-153.369 490.554,-160.271"/>
</g>
<!-- Node9&#45;&gt;Node5 -->
<g id="edge28" class="edge"><title>Node9&#45;&gt;Node5</title>
<path fill="none" stroke="midnightblue" d="M392.426,-118.465C422.085,-113.69 457.314,-108.017 488.034,-103.071"/>
<polygon fill="midnightblue" stroke="midnightblue" points="488.948,-106.469 498.264,-101.424 487.835,-99.5578 488.948,-106.469"/>
</g>
<!-- Node9&#45;&gt;Node10 -->
<g id="edge30" class="edge"><title>Node9&#45;&gt;Node10</title>
<path fill="none" stroke="midnightblue" d="M347.647,-118.294C373.343,-105.373 418.868,-83.7917 460,-71 471.551,-67.4078 484.04,-64.3335 496.203,-61.7501"/>
<polygon fill="midnightblue" stroke="midnightblue" points="497.213,-65.1164 506.316,-59.6949 495.819,-58.2567 497.213,-65.1164"/>
</g>
<!-- Node9&#45;&gt;Node11 -->
<g id="edge32" class="edge"><title>Node9&#45;&gt;Node11</title>
<path fill="none" stroke="midnightblue" d="M337.658,-118.473C358.94,-98.1068 409.045,-53.3533 460,-31 471.386,-26.0052 484.022,-22.2521 496.432,-19.4337"/>
<polygon fill="midnightblue" stroke="midnightblue" points="497.237,-22.8412 506.309,-17.3679 495.804,-15.9895 497.237,-22.8412"/>
</g>
<!-- Node12&#45;&gt;Node2 -->
<g id="edge36" class="edge"><title>Node12&#45;&gt;Node2</title>
<path fill="none" stroke="midnightblue" d="M376.148,-207.404C442.371,-207.263 563.747,-204.589 666,-189 763.317,-174.164 874.481,-142.001 933.667,-123.617"/>
<polygon fill="midnightblue" stroke="midnightblue" points="934.905,-126.897 943.404,-120.571 932.815,-120.216 934.905,-126.897"/>
</g>
</g>
</svg>
        <g id="navigator" transform="translate(0 0)" fill="#404254">
                <rect fill="#f2f5e9" fill-opacity="0.5" stroke="#606060" stroke-width=".5" x="0" y="0" width="60" height="60"/>
                <use id="zoomplus" xlink:href="#zoomPlus" x="17" y="9" onmousedown="handleZoom(evt,'in')"/>
                <use id="zoomminus" xlink:href="#zoomMin" x="42" y="9" onmousedown="handleZoom(evt,'out')"/>
                <use id="reset" xlink:href="#resetDef" x="30" y="36" onmousedown="handleReset()"/>
                <g id="arrowUp" xlink:href="#dirArrow" transform="translate(30 24)" onmousedown="handlePan(0,-1)">
                  <use xlink:href="#rim" fill="#404040">
                        <set attributeName="fill" to="#808080" begin="arrowUp.mouseover" end="arrowUp.mouseout"/>
                  </use>
                  <path fill="none" stroke="white" stroke-width="1.5" d="M0,-3.0v7 M-2.5,-0.5L0,-3.0L2.5,-0.5"/>
                </g>
                <g id="arrowRight" xlink:href="#dirArrow" transform="rotate(90) translate(36 -43)" onmousedown="handlePan(1,0)">
                  <use xlink:href="#rim" fill="#404040">
                        <set attributeName="fill" to="#808080" begin="arrowRight.mouseover" end="arrowRight.mouseout"/>
                  </use>
                  <path fill="none" stroke="white" stroke-width="1.5" d="M0,-3.0v7 M-2.5,-0.5L0,-3.0L2.5,-0.5"/>
                </g>
                <g id="arrowDown" xlink:href="#dirArrow" transform="rotate(180) translate(-30 -48)" onmousedown="handlePan(0,1)">
                  <use xlink:href="#rim" fill="#404040">
                        <set attributeName="fill" to="#808080" begin="arrowDown.mouseover" end="arrowDown.mouseout"/>
                  </use>
                  <path fill="none" stroke="white" stroke-width="1.5" d="M0,-3.0v7 M-2.5,-0.5L0,-3.0L2.5,-0.5"/>
                </g>
                <g id="arrowLeft" xlink:href="#dirArrow" transform="rotate(270) translate(-36 17)" onmousedown="handlePan(-1,0)">
                  <use xlink:href="#rim" fill="#404040">
                        <set attributeName="fill" to="#808080" begin="arrowLeft.mouseover" end="arrowLeft.mouseout"/>
                  </use>
                  <path fill="none" stroke="white" stroke-width="1.5" d="M0,-3.0v7 M-2.5,-0.5L0,-3.0L2.5,-0.5"/>
                </g>
        </g>
</svg>
