<?xml version="1.0" encoding="UTF-8" standalone="no"?>
<!DOCTYPE svg PUBLIC "-//W3C//DTD SVG 1.1//EN"
 "http://www.w3.org/Graphics/SVG/1.1/DTD/svg11.dtd">
<!-- Generated by graphviz version 2.26.3 (20100126.1600)
 -->
<!-- Title: G Pages: 1 -->
<!--zoomable 199 -->
<svg id="main" version="1.1" xmlns="http://www.w3.org/2000/svg" xmlns:xlink="http://www.w3.org/1999/xlink" xml:space="preserve" onload="init(evt)">
        <defs>
                <circle id="rim" cx="0" cy="0" r="7"/>
                <circle id="rim2" cx="0" cy="0" r="3.5"/>
                <g id="zoomPlus">
                        <use xlink:href="#rim" fill="#404040">
                                <set attributeName="fill" to="#808080" begin="zoomplus.mouseover" end="zoomplus.mouseout"/>
                        </use>
                        <path d="M-4,0h8M0,-4v8" fill="none" stroke="white" stroke-width="1.5" pointer-events="none"/>
                </g>
                <g id="zoomMin">
                        <use xlink:href="#rim" fill="#404040">
                                <set attributeName="fill" to="#808080" begin="zoomminus.mouseover" end="zoomminus.mouseout"/>
                        </use>
                        <path d="M-4,0h8" fill="none" stroke="white" stroke-width="1.5" pointer-events="none"/>
                </g>
                <g id="dirArrow">
                        <path fill="none" stroke="white" stroke-width="1.5" d="M0,-3.0v7 M-2.5,-0.5L0,-3.0L2.5,-0.5"/>
                </g>
               <g id="resetDef">
                       <use xlink:href="#rim2" fill="#404040">
                               <set attributeName="fill" to="#808080" begin="reset.mouseover" end="reset.mouseout"/>
                       </use>
               </g>
        </defs>

<script type="text/javascript">
var viewWidth = 1422;
var viewHeight = 199;
var sectionId = 'dynsection-1';
</script>
<script xlink:href="svgpan.js"/>
<svg id="graph" class="graph">
<g id="viewport">
<title>G</title>
<!-- Node1 -->
<g id="node1" class="node"><title>Node1</title>
<polygon fill="#bfbfbf" stroke="black" points="934,-159.5 934,-180.5 1124,-180.5 1124,-159.5 934,-159.5"/>
<text text-anchor="middle" x="1029" y="-167.5" font-family="FreeSans.ttf" font-size="10.00">corecvs::BaseReflection&lt; RealThis &gt;</text>
</g>
<!-- Node2 -->
<g id="node2" class="node"><title>Node2</title>
<a xlink:href="classcorecvs_1_1BaseReflectionStatic.html" target="_top" xlink:title="corecvs::BaseReflectionStatic">
<polygon fill="none" stroke="black" points="684.5,-169.5 684.5,-190.5 841.5,-190.5 841.5,-169.5 684.5,-169.5"/>
<text text-anchor="middle" x="763" y="-177.5" font-family="FreeSans.ttf" font-size="10.00">corecvs::BaseReflectionStatic</text>
</a>
</g>
<!-- Node2&#45;&gt;Node1 -->
<g id="edge2" class="edge"><title>Node2&#45;&gt;Node1</title>
<path fill="none" stroke="midnightblue" d="M852.012,-176.654C878.203,-175.669 906.957,-174.588 933.534,-173.589"/>
<polygon fill="midnightblue" stroke="midnightblue" points="851.591,-173.167 841.729,-177.04 851.854,-180.162 851.591,-173.167"/>
</g>
<!-- Node3 -->
<g id="node4" class="node"><title>Node3</title>
<a xlink:href="classcorecvs_1_1Reflection.html" target="_top" xlink:title="corecvs::Reflection">
<polygon fill="none" stroke="black" points="710.5,-108.5 710.5,-129.5 815.5,-129.5 815.5,-108.5 710.5,-108.5"/>
<text text-anchor="middle" x="763" y="-116.5" font-family="FreeSans.ttf" font-size="10.00">corecvs::Reflection</text>
</a>
</g>
<!-- Node3&#45;&gt;Node1 -->
<g id="edge4" class="edge"><title>Node3&#45;&gt;Node1</title>
<path fill="none" stroke="#9a32cd" stroke-dasharray="5,2" d="M825.486,-130.98C870.469,-139.605 930.592,-151.132 973.809,-159.418"/>
<polygon fill="#9a32cd" stroke="#9a32cd" points="826.033,-127.522 815.553,-129.076 824.715,-134.396 826.033,-127.522"/>
<text text-anchor="middle" x="888" y="-151" font-family="FreeSans.ttf" font-size="10.00"> reflection</text>
</g>
<!-- Node8 -->
<g id="node15" class="node"><title>Node8</title>
<a xlink:href="classcorecvs_1_1EmbedSubclass.html" target="_top" xlink:title="corecvs::EmbedSubclass">
<polygon fill="none" stroke="black" points="961,-54.5 961,-75.5 1097,-75.5 1097,-54.5 961,-54.5"/>
<text text-anchor="middle" x="1029" y="-62.5" font-family="FreeSans.ttf" font-size="10.00">corecvs::EmbedSubclass</text>
</a>
</g>
<!-- Node3&#45;&gt;Node8 -->
<g id="edge18" class="edge"><title>Node3&#45;&gt;Node8</title>
<path fill="none" stroke="#9a32cd" stroke-dasharray="5,2" d="M807.231,-105.553C823.695,-100.848 842.604,-95.7979 860,-92 892.947,-84.8068 929.9,-78.6846 960.829,-74.0977"/>
<polygon fill="#9a32cd" stroke="#9a32cd" points="805.961,-102.277 797.331,-108.423 807.91,-109 805.961,-102.277"/>
<text text-anchor="middle" x="888" y="-96" font-family="FreeSans.ttf" font-size="10.00"> subclass</text>
</g>
<!-- Node4 -->
<g id="node6" class="node"><title>Node4</title>
<polygon fill="none" stroke="#bfbfbf" points="413.5,-89.5 413.5,-110.5 586.5,-110.5 586.5,-89.5 413.5,-89.5"/>
<text text-anchor="middle" x="500" y="-97.5" font-family="FreeSans.ttf" font-size="10.00">std::vector&lt; const BaseField * &gt;</text>
</g>
<!-- Node4&#45;&gt;Node3 -->
<g id="edge6" class="edge"><title>Node4&#45;&gt;Node3</title>
<path fill="none" stroke="#9a32cd" stroke-dasharray="5,2" d="M597.018,-107.009C635.382,-109.78 677.959,-112.856 710.384,-115.199"/>
<polygon fill="#9a32cd" stroke="#9a32cd" points="597.071,-103.504 586.845,-106.274 596.567,-110.486 597.071,-103.504"/>
<text text-anchor="middle" x="641" y="-115" font-family="FreeSans.ttf" font-size="10.00"> fields</text>
</g>
<!-- Node5 -->
<g id="node8" class="node"><title>Node5</title>
<a xlink:href="classcorecvs_1_1BaseField.html" target="_top" xlink:title="This class is a core class for the reflection.">
<polygon fill="none" stroke="black" points="212,-89.5 212,-110.5 316,-110.5 316,-89.5 212,-89.5"/>
<text text-anchor="middle" x="264" y="-97.5" font-family="FreeSans.ttf" font-size="10.00">corecvs::BaseField</text>
</a>
</g>
<!-- Node5&#45;&gt;Node4 -->
<g id="edge8" class="edge"><title>Node5&#45;&gt;Node4</title>
<path fill="none" stroke="#9a32cd" stroke-dasharray="5,2" d="M326.398,-100C352.994,-100 384.474,-100 413.275,-100"/>
<polygon fill="#9a32cd" stroke="#9a32cd" points="326.083,-96.5001 316.083,-100 326.083,-103.5 326.083,-96.5001"/>
<text text-anchor="middle" x="359" y="-104" font-family="FreeSans.ttf" font-size="10.00"> elements</text>
</g>
<!-- Node6 -->
<g id="node10" class="node"><title>Node6</title>
<a xlink:href="classcorecvs_1_1ReflectionNaming.html" target="_top" xlink:title="We have several styles of nameing.">
<polygon fill="none" stroke="black" points="0.5,-89.5 0.5,-110.5 143.5,-110.5 143.5,-89.5 0.5,-89.5"/>
<text text-anchor="middle" x="72" y="-97.5" font-family="FreeSans.ttf" font-size="10.00">corecvs::ReflectionNaming</text>
</a>
</g>
<!-- Node6&#45;&gt;Node3 -->
<g id="edge12" class="edge"><title>Node6&#45;&gt;Node3</title>
<path fill="none" stroke="#9a32cd" stroke-dasharray="5,2" d="M131.743,-112.381C141.809,-114.152 152.177,-115.783 162,-117 184.093,-119.738 189.752,-119.195 212,-120 391.452,-126.49 436.434,-123.889 616,-125 638.222,-125.138 643.788,-125.686 666,-125 680.419,-124.554 696.027,-123.737 710.42,-122.846"/>
<polygon fill="#9a32cd" stroke="#9a32cd" points="132.273,-108.92 121.808,-110.574 131.02,-115.807 132.273,-108.92"/>
<text text-anchor="middle" x="359" y="-128" font-family="FreeSans.ttf" font-size="10.00"> name</text>
</g>
<!-- Node6&#45;&gt;Node5 -->
<g id="edge10" class="edge"><title>Node6&#45;&gt;Node5</title>
<path fill="none" stroke="#9a32cd" stroke-dasharray="5,2" d="M153.931,-100C173.541,-100 193.952,-100 211.795,-100"/>
<polygon fill="#9a32cd" stroke="#9a32cd" points="153.767,-96.5001 143.767,-100 153.767,-103.5 153.767,-96.5001"/>
<text text-anchor="middle" x="178" y="-104" font-family="FreeSans.ttf" font-size="10.00"> name</text>
</g>
<!-- Node6&#45;&gt;Node8 -->
<g id="edge20" class="edge"><title>Node6&#45;&gt;Node8</title>
<path fill="none" stroke="#9a32cd" stroke-dasharray="5,2" d="M111.246,-86.2222C149.671,-73.9765 210.125,-58 264,-58 264,-58 264,-58 763,-58 830.331,-58 907.217,-60.269 960.952,-62.2234"/>
<polygon fill="#9a32cd" stroke="#9a32cd" points="109.916,-82.9745 101.493,-89.4016 112.086,-89.6297 109.916,-82.9745"/>
<text text-anchor="middle" x="500" y="-62" font-family="FreeSans.ttf" font-size="10.00"> name</text>
</g>
<!-- Node7 -->
<g id="node13" class="node"><title>Node7</title>
<polygon fill="none" stroke="#bfbfbf" points="1210,-87.5 1210,-108.5 1414,-108.5 1414,-87.5 1210,-87.5"/>
<text text-anchor="middle" x="1312" y="-95.5" font-family="FreeSans.ttf" font-size="10.00">std::vector&lt; const EmbedSubclass * &gt;</text>
</g>
<!-- Node7&#45;&gt;Node3 -->
<g id="edge14" class="edge"><title>Node7&#45;&gt;Node3</title>
<path fill="none" stroke="#9a32cd" stroke-dasharray="5,2" d="M1199.8,-102.292C1082.55,-106.777 903.653,-113.62 815.64,-116.986"/>
<polygon fill="#9a32cd" stroke="#9a32cd" points="1200.04,-105.785 1209.9,-101.906 1199.77,-98.7905 1200.04,-105.785"/>
<text text-anchor="middle" x="1029" y="-116" font-family="FreeSans.ttf" font-size="10.00"> embeds</text>
</g>
<!-- Node8&#45;&gt;Node7 -->
<g id="edge16" class="edge"><title>Node8&#45;&gt;Node7</title>
<path fill="none" stroke="#9a32cd" stroke-dasharray="5,2" d="M1107.44,-74.1462C1142.88,-78.2789 1184.95,-83.1854 1221.7,-87.4707"/>
<polygon fill="#9a32cd" stroke="#9a32cd" points="1107.48,-70.6282 1097.15,-72.9463 1106.67,-77.5811 1107.48,-70.6282"/>
<text text-anchor="middle" x="1167" y="-87" font-family="FreeSans.ttf" font-size="10.00"> elements</text>
</g>
<!-- Node9 -->
<g id="node19" class="node"><title>Node9</title>
<polygon fill="none" stroke="#bfbfbf" points="691,-4.5 691,-25.5 835,-25.5 835,-4.5 691,-4.5"/>
<text text-anchor="middle" x="763" y="-12.5" font-family="FreeSans.ttf" font-size="10.00">std::vector&lt; EmbedMap &gt;</text>
</g>
<!-- Node9&#45;&gt;Node8 -->
<g id="edge22" class="edge"><title>Node9&#45;&gt;Node8</title>
<path fill="none" stroke="#9a32cd" stroke-dasharray="5,2" d="M845.128,-20.7207C868.189,-23.1021 893.191,-26.4183 916,-31 944.722,-36.7695 976.616,-46.7023 999.175,-54.347"/>
<polygon fill="#9a32cd" stroke="#9a32cd" points="845.327,-17.2234 835.031,-19.7238 844.639,-24.1895 845.327,-17.2234"/>
<text text-anchor="middle" x="888" y="-35" font-family="FreeSans.ttf" font-size="10.00"> renameing</text>
</g>
<!-- Node10 -->
<g id="node21" class="node"><title>Node10</title>
<a xlink:href="structcorecvs_1_1EmbedSubclass_1_1EmbedMap.html" target="_top" xlink:title="corecvs::EmbedSubclass::EmbedMap">
<polygon fill="none" stroke="black" points="402,-0.5 402,-21.5 598,-21.5 598,-0.5 402,-0.5"/>
<text text-anchor="middle" x="500" y="-8.5" font-family="FreeSans.ttf" font-size="10.00">corecvs::EmbedSubclass::EmbedMap</text>
</a>
</g>
<!-- Node10&#45;&gt;Node9 -->
<g id="edge24" class="edge"><title>Node10&#45;&gt;Node9</title>
<path fill="none" stroke="#9a32cd" stroke-dasharray="5,2" d="M608.442,-12.6493C636.154,-13.0708 665.276,-13.5137 690.676,-13.9"/>
<polygon fill="#9a32cd" stroke="#9a32cd" points="608.358,-9.14772 598.305,-12.4951 608.251,-16.1469 608.358,-9.14772"/>
<text text-anchor="middle" x="641" y="-18" font-family="FreeSans.ttf" font-size="10.00"> elements</text>
</g>
</g>
</svg>
        <g id="navigator" transform="translate(0 0)" fill="#404254">
                <rect fill="#f2f5e9" fill-opacity="0.5" stroke="#606060" stroke-width=".5" x="0" y="0" width="60" height="60"/>
                <use id="zoomplus" xlink:href="#zoomPlus" x="17" y="9" onmousedown="handleZoom(evt,'in')"/>
                <use id="zoomminus" xlink:href="#zoomMin" x="42" y="9" onmousedown="handleZoom(evt,'out')"/>
                <use id="reset" xlink:href="#resetDef" x="30" y="36" onmousedown="handleReset()"/>
                <g id="arrowUp" xlink:href="#dirArrow" transform="translate(30 24)" onmousedown="handlePan(0,-1)">
                  <use xlink:href="#rim" fill="#404040">
                        <set attributeName="fill" to="#808080" begin="arrowUp.mouseover" end="arrowUp.mouseout"/>
                  </use>
                  <path fill="none" stroke="white" stroke-width="1.5" d="M0,-3.0v7 M-2.5,-0.5L0,-3.0L2.5,-0.5"/>
                </g>
                <g id="arrowRight" xlink:href="#dirArrow" transform="rotate(90) translate(36 -43)" onmousedown="handlePan(1,0)">
                  <use xlink:href="#rim" fill="#404040">
                        <set attributeName="fill" to="#808080" begin="arrowRight.mouseover" end="arrowRight.mouseout"/>
                  </use>
                  <path fill="none" stroke="white" stroke-width="1.5" d="M0,-3.0v7 M-2.5,-0.5L0,-3.0L2.5,-0.5"/>
                </g>
                <g id="arrowDown" xlink:href="#dirArrow" transform="rotate(180) translate(-30 -48)" onmousedown="handlePan(0,1)">
                  <use xlink:href="#rim" fill="#404040">
                        <set attributeName="fill" to="#808080" begin="arrowDown.mouseover" end="arrowDown.mouseout"/>
                  </use>
                  <path fill="none" stroke="white" stroke-width="1.5" d="M0,-3.0v7 M-2.5,-0.5L0,-3.0L2.5,-0.5"/>
                </g>
                <g id="arrowLeft" xlink:href="#dirArrow" transform="rotate(270) translate(-36 17)" onmousedown="handlePan(-1,0)">
                  <use xlink:href="#rim" fill="#404040">
                        <set attributeName="fill" to="#808080" begin="arrowLeft.mouseover" end="arrowLeft.mouseout"/>
                  </use>
                  <path fill="none" stroke="white" stroke-width="1.5" d="M0,-3.0v7 M-2.5,-0.5L0,-3.0L2.5,-0.5"/>
                </g>
        </g>
</svg>
