<?xml version="1.0" encoding="UTF-8" standalone="no"?>
<!DOCTYPE svg PUBLIC "-//W3C//DTD SVG 1.1//EN"
 "http://www.w3.org/Graphics/SVG/1.1/DTD/svg11.dtd">
<!-- Generated by graphviz version 2.26.3 (20100126.1600)
 -->
<!-- Title: G Pages: 1 -->
<svg width="316pt" height="150pt"
 viewBox="0.00 0.00 316.00 150.00" xmlns="http://www.w3.org/2000/svg" xmlns:xlink="http://www.w3.org/1999/xlink">
<g id="graph1" class="graph" transform="scale(1 1) rotate(0) translate(4 146)">
<title>G</title>
<!-- Node1 -->
<g id="node1" class="node"><title>Node1</title>
<polygon fill="#bfbfbf" stroke="black" points="0.5,-60.5 0.5,-81.5 155.5,-81.5 155.5,-60.5 0.5,-60.5"/>
<text text-anchor="middle" x="78" y="-68.5" font-family="FreeSans.ttf" font-size="10.00">corecvs::RGBColor::RGBColor</text>
</g>
<!-- Node2 -->
<g id="node3" class="node"><title>Node2</title>
<a xlink:href="classcorecvs_1_1RGBColor.html#af5a656b0c5933a1b65c5a800778260aa" target="_top" xlink:title="corecvs::RGBColor::a">
<polygon fill="none" stroke="black" points="192,-120.5 192,-141.5 308,-141.5 308,-120.5 192,-120.5"/>
<text text-anchor="middle" x="250" y="-128.5" font-family="FreeSans.ttf" font-size="10.00">corecvs::RGBColor::a</text>
</a>
</g>
<!-- Node1&#45;&gt;Node2 -->
<g id="edge2" class="edge"><title>Node1&#45;&gt;Node2</title>
<path fill="none" stroke="midnightblue" d="M107.987,-81.5715C130.969,-89.6611 163.473,-101.077 192,-111 197.671,-112.973 203.658,-115.047 209.545,-117.081"/>
<polygon fill="midnightblue" stroke="midnightblue" points="208.692,-120.489 219.287,-120.444 210.976,-113.872 208.692,-120.489"/>
</g>
<!-- Node3 -->
<g id="node5" class="node"><title>Node3</title>
<a xlink:href="classcorecvs_1_1RGBColor.html#a28d1778710e5ade8ab275f8ef03cdaec" target="_top" xlink:title="corecvs::RGBColor::b">
<polygon fill="none" stroke="black" points="192,-80.5 192,-101.5 308,-101.5 308,-80.5 192,-80.5"/>
<text text-anchor="middle" x="250" y="-88.5" font-family="FreeSans.ttf" font-size="10.00">corecvs::RGBColor::b</text>
</a>
</g>
<!-- Node1&#45;&gt;Node3 -->
<g id="edge4" class="edge"><title>Node1&#45;&gt;Node3</title>
<path fill="none" stroke="midnightblue" d="M155.697,-80.0345C164.463,-81.0539 173.346,-82.0867 181.975,-83.0902"/>
<polygon fill="midnightblue" stroke="midnightblue" points="181.63,-86.5735 191.968,-84.2521 182.439,-79.6204 181.63,-86.5735"/>
</g>
<!-- Node4 -->
<g id="node7" class="node"><title>Node4</title>
<a xlink:href="classcorecvs_1_1RGBColor.html#a61bb42ad3c5af64582ba22408e8bc5c4" target="_top" xlink:title="corecvs::RGBColor::g">
<polygon fill="none" stroke="black" points="192,-40.5 192,-61.5 308,-61.5 308,-40.5 192,-40.5"/>
<text text-anchor="middle" x="250" y="-48.5" font-family="FreeSans.ttf" font-size="10.00">corecvs::RGBColor::g</text>
</a>
</g>
<!-- Node1&#45;&gt;Node4 -->
<g id="edge6" class="edge"><title>Node1&#45;&gt;Node4</title>
<path fill="none" stroke="midnightblue" d="M155.697,-61.9655C164.463,-60.9461 173.346,-59.9133 181.975,-58.9098"/>
<polygon fill="midnightblue" stroke="midnightblue" points="182.439,-62.3796 191.968,-57.7479 181.63,-55.4265 182.439,-62.3796"/>
</g>
<!-- Node5 -->
<g id="node9" class="node"><title>Node5</title>
<a xlink:href="classcorecvs_1_1RGBColor.html#a551378cc4e40775286d1200a21e3dfbc" target="_top" xlink:title="corecvs::RGBColor::r">
<polygon fill="none" stroke="black" points="193,-0.5 193,-21.5 307,-21.5 307,-0.5 193,-0.5"/>
<text text-anchor="middle" x="250" y="-8.5" font-family="FreeSans.ttf" font-size="10.00">corecvs::RGBColor::r</text>
</a>
</g>
<!-- Node1&#45;&gt;Node5 -->
<g id="edge8" class="edge"><title>Node1&#45;&gt;Node5</title>
<path fill="none" stroke="midnightblue" d="M107.987,-60.4285C130.969,-52.3389 163.473,-40.9231 192,-31 197.671,-29.0272 203.658,-26.9534 209.545,-24.9188"/>
<polygon fill="midnightblue" stroke="midnightblue" points="210.976,-28.1276 219.287,-21.5563 208.692,-21.5107 210.976,-28.1276"/>
</g>
</g>
</svg>
