<?xml version="1.0" encoding="UTF-8" standalone="no"?>
<!DOCTYPE svg PUBLIC "-//W3C//DTD SVG 1.1//EN"
 "http://www.w3.org/Graphics/SVG/1.1/DTD/svg11.dtd">
<!-- Generated by graphviz version 2.26.3 (20100126.1600)
 -->
<!-- Title: G Pages: 1 -->
<svg width="472pt" height="70pt"
 viewBox="0.00 0.00 472.00 70.00" xmlns="http://www.w3.org/2000/svg" xmlns:xlink="http://www.w3.org/1999/xlink">
<g id="graph1" class="graph" transform="scale(1 1) rotate(0) translate(4 66)">
<title>G</title>
<!-- Node1 -->
<g id="node1" class="node"><title>Node1</title>
<polygon fill="#bfbfbf" stroke="black" points="0,-20.5 0,-41.5 156,-41.5 156,-20.5 0,-20.5"/>
<text text-anchor="middle" x="78" y="-28.5" font-family="FreeSans.ttf" font-size="10.00">FilePreciseCapture::getFrame</text>
</g>
<!-- Node2 -->
<g id="node3" class="node"><title>Node2</title>
<a xlink:href="classImageFileCaptureInterface.html#a6fb954edaf57b32485cc9c92b50fa605" target="_top" xlink:title="Aux function to get an image file name, which path name is given by additional parameters.">
<polygon fill="none" stroke="black" points="209,-40.5 209,-61.5 447,-61.5 447,-40.5 209,-40.5"/>
<text text-anchor="middle" x="328" y="-48.5" font-family="FreeSans.ttf" font-size="10.00">ImageFileCaptureInterface::getImageFileName</text>
</a>
</g>
<!-- Node1&#45;&gt;Node2 -->
<g id="edge2" class="edge"><title>Node1&#45;&gt;Node2</title>
<path fill="none" stroke="midnightblue" d="M156.073,-37.2459C169.693,-38.3354 184.181,-39.4945 198.747,-40.6598"/>
<polygon fill="midnightblue" stroke="midnightblue" points="198.587,-44.158 208.834,-41.4667 199.145,-37.1803 198.587,-44.158"/>
</g>
<!-- Node3 -->
<g id="node5" class="node"><title>Node3</title>
<a xlink:href="classImageFileCaptureInterface.html#a146d1f4013c86b627dcd2813f3d43c9f" target="_top" xlink:title="ImageFileCaptureInterface::increaseImageFileCounter">
<polygon fill="none" stroke="black" points="192,-0.5 192,-21.5 464,-21.5 464,-0.5 192,-0.5"/>
<text text-anchor="middle" x="328" y="-8.5" font-family="FreeSans.ttf" font-size="10.00">ImageFileCaptureInterface::increaseImageFileCounter</text>
</a>
</g>
<!-- Node1&#45;&gt;Node3 -->
<g id="edge4" class="edge"><title>Node1&#45;&gt;Node3</title>
<path fill="none" stroke="midnightblue" d="M156.073,-24.7541C165.844,-23.9724 176.063,-23.1549 186.437,-22.325"/>
<polygon fill="midnightblue" stroke="midnightblue" points="186.732,-25.8127 196.421,-21.5263 186.174,-18.835 186.732,-25.8127"/>
</g>
</g>
</svg>
