<?xml version="1.0" encoding="UTF-8" standalone="no"?>
<!DOCTYPE svg PUBLIC "-//W3C//DTD SVG 1.1//EN"
 "http://www.w3.org/Graphics/SVG/1.1/DTD/svg11.dtd">
<!-- Generated by graphviz version 2.26.3 (20100126.1600)
 -->
<!-- Title: G Pages: 1 -->
<!--zoomable 256 -->
<svg id="main" version="1.1" xmlns="http://www.w3.org/2000/svg" xmlns:xlink="http://www.w3.org/1999/xlink" xml:space="preserve" onload="init(evt)">
        <defs>
                <circle id="rim" cx="0" cy="0" r="7"/>
                <circle id="rim2" cx="0" cy="0" r="3.5"/>
                <g id="zoomPlus">
                        <use xlink:href="#rim" fill="#404040">
                                <set attributeName="fill" to="#808080" begin="zoomplus.mouseover" end="zoomplus.mouseout"/>
                        </use>
                        <path d="M-4,0h8M0,-4v8" fill="none" stroke="white" stroke-width="1.5" pointer-events="none"/>
                </g>
                <g id="zoomMin">
                        <use xlink:href="#rim" fill="#404040">
                                <set attributeName="fill" to="#808080" begin="zoomminus.mouseover" end="zoomminus.mouseout"/>
                        </use>
                        <path d="M-4,0h8" fill="none" stroke="white" stroke-width="1.5" pointer-events="none"/>
                </g>
                <g id="dirArrow">
                        <path fill="none" stroke="white" stroke-width="1.5" d="M0,-3.0v7 M-2.5,-0.5L0,-3.0L2.5,-0.5"/>
                </g>
               <g id="resetDef">
                       <use xlink:href="#rim2" fill="#404040">
                               <set attributeName="fill" to="#808080" begin="reset.mouseover" end="reset.mouseout"/>
                       </use>
               </g>
        </defs>

<script type="text/javascript">
var viewWidth = 1332;
var viewHeight = 256;
var sectionId = 'dynsection-28';
</script>
<script xlink:href="svgpan.js"/>
<svg id="graph" class="graph">
<g id="viewport">
<title>G</title>
<!-- Node1 -->
<g id="node1" class="node"><title>Node1</title>
<polygon fill="#bfbfbf" stroke="black" points="0,-100.5 0,-121.5 146,-121.5 146,-100.5 0,-100.5"/>
<text text-anchor="middle" x="73" y="-108.5" font-family="FreeSans.ttf" font-size="10.00">CloudViewDialog::zoomOut</text>
</g>
<!-- Node2 -->
<g id="node3" class="node"><title>Node2</title>
<a xlink:href="classCloudViewDialog.html#a3d1ced33446a9df09178854d51fe0166" target="_top" xlink:title="CloudViewDialog::zoom">
<polygon fill="none" stroke="black" points="182,-100.5 182,-121.5 310,-121.5 310,-100.5 182,-100.5"/>
<text text-anchor="middle" x="246" y="-108.5" font-family="FreeSans.ttf" font-size="10.00">CloudViewDialog::zoom</text>
</a>
</g>
<!-- Node1&#45;&gt;Node2 -->
<g id="edge2" class="edge"><title>Node1&#45;&gt;Node2</title>
<path fill="none" stroke="midnightblue" d="M146.117,-111C154.574,-111 163.207,-111 171.68,-111"/>
<polygon fill="midnightblue" stroke="midnightblue" points="171.914,-114.5 181.914,-111 171.914,-107.5 171.914,-114.5"/>
</g>
<!-- Node3 -->
<g id="node5" class="node"><title>Node3</title>
<a xlink:href="classCloudViewDialog.html#aa0e690216fa07139c8030ad79f5adab2" target="_top" xlink:title="CloudViewDialog::resetCamera">
<polygon fill="none" stroke="black" points="346,-120.5 346,-141.5 510,-141.5 510,-120.5 346,-120.5"/>
<text text-anchor="middle" x="428" y="-128.5" font-family="FreeSans.ttf" font-size="10.00">CloudViewDialog::resetCamera</text>
</a>
</g>
<!-- Node2&#45;&gt;Node3 -->
<g id="edge4" class="edge"><title>Node2&#45;&gt;Node3</title>
<path fill="none" stroke="midnightblue" d="M310.166,-118.051C318.478,-118.965 327.119,-119.914 335.773,-120.865"/>
<polygon fill="midnightblue" stroke="midnightblue" points="335.599,-124.367 345.922,-121.98 336.364,-117.409 335.599,-124.367"/>
</g>
<!-- Node15 -->
<g id="node32" class="node"><title>Node15</title>
<a xlink:href="classCloudViewDialog.html#aed3e64963933f572b2d740add6df8778" target="_top" xlink:title="CloudViewDialog::setZoom">
<polygon fill="none" stroke="black" points="355,-80.5 355,-101.5 501,-101.5 501,-80.5 355,-80.5"/>
<text text-anchor="middle" x="428" y="-88.5" font-family="FreeSans.ttf" font-size="10.00">CloudViewDialog::setZoom</text>
</a>
</g>
<!-- Node2&#45;&gt;Node15 -->
<g id="edge34" class="edge"><title>Node2&#45;&gt;Node15</title>
<path fill="none" stroke="midnightblue" d="M310.166,-103.949C321.327,-102.722 333.079,-101.431 344.665,-100.158"/>
<polygon fill="midnightblue" stroke="midnightblue" points="345.226,-103.617 354.784,-99.0457 344.461,-96.6591 345.226,-103.617"/>
</g>
<!-- Node4 -->
<g id="node7" class="node"><title>Node4</title>
<a xlink:href="classOpenGLTools.html#a990fb295ace9f68c82ab058add581835" target="_top" xlink:title="OpenGLTools::glMultMatrixMatrix44">
<polygon fill="none" stroke="black" points="760,-200.5 760,-221.5 942,-221.5 942,-200.5 760,-200.5"/>
<text text-anchor="middle" x="851" y="-208.5" font-family="FreeSans.ttf" font-size="10.00">OpenGLTools::glMultMatrixMatrix44</text>
</a>
</g>
<!-- Node3&#45;&gt;Node4 -->
<g id="edge6" class="edge"><title>Node3&#45;&gt;Node4</title>
<path fill="none" stroke="midnightblue" d="M436,-141.584C453.23,-163.386 496.334,-212.786 546,-231 634.776,-263.557 747.737,-241.101 808.203,-224.443"/>
<polygon fill="midnightblue" stroke="midnightblue" points="809.489,-227.716 818.156,-221.621 807.58,-220.981 809.489,-227.716"/>
</g>
<!-- Node8 -->
<g id="node15" class="node"><title>Node8</title>
<a xlink:href="classOpenGLTools.html#abf0b2767139d28cd65092d95306d812d" target="_top" xlink:title="Equivalent to old function gluPerspective.">
<polygon fill="none" stroke="black" points="559,-160.5 559,-181.5 711,-181.5 711,-160.5 559,-160.5"/>
<text text-anchor="middle" x="635" y="-168.5" font-family="FreeSans.ttf" font-size="10.00">OpenGLTools::gluPerspective</text>
</a>
</g>
<!-- Node3&#45;&gt;Node8 -->
<g id="edge14" class="edge"><title>Node3&#45;&gt;Node8</title>
<path fill="none" stroke="midnightblue" d="M482.387,-141.51C509.378,-146.725 542.17,-153.062 570.43,-158.523"/>
<polygon fill="midnightblue" stroke="midnightblue" points="570.135,-162.03 580.617,-160.491 571.463,-155.158 570.135,-162.03"/>
</g>
<!-- Node10 -->
<g id="node20" class="node"><title>Node10</title>
<a xlink:href="classOpenGLTools.html#a92e6202f71c554b0b85619dd8ff04b73" target="_top" xlink:title="Same as above except for looking in positive Z direction.">
<polygon fill="none" stroke="black" points="546.5,-200.5 546.5,-221.5 723.5,-221.5 723.5,-200.5 546.5,-200.5"/>
<text text-anchor="middle" x="635" y="-208.5" font-family="FreeSans.ttf" font-size="10.00">OpenGLTools::gluPerspectivePosZ</text>
</a>
</g>
<!-- Node3&#45;&gt;Node10 -->
<g id="edge20" class="edge"><title>Node3&#45;&gt;Node10</title>
<path fill="none" stroke="midnightblue" d="M445.372,-141.583C467.856,-154.862 508.593,-177.526 546,-191 553.045,-193.537 560.523,-195.82 568.035,-197.855"/>
<polygon fill="midnightblue" stroke="midnightblue" points="567.339,-201.29 577.895,-200.388 569.081,-194.51 567.339,-201.29"/>
</g>
<!-- Node11 -->
<g id="node24" class="node"><title>Node11</title>
<a xlink:href="namespacecorecvs.html#a319a0d46c2f53180fd1c9c477718d8b1" target="_top" xlink:title="Useful radian to degrees and back conversions.">
<polygon fill="none" stroke="black" points="583,-120.5 583,-141.5 687,-141.5 687,-120.5 583,-120.5"/>
<text text-anchor="middle" x="635" y="-128.5" font-family="FreeSans.ttf" font-size="10.00">corecvs::radToDeg</text>
</a>
</g>
<!-- Node3&#45;&gt;Node11 -->
<g id="edge26" class="edge"><title>Node3&#45;&gt;Node11</title>
<path fill="none" stroke="midnightblue" d="M510.109,-131C530.968,-131 553.038,-131 572.729,-131"/>
<polygon fill="midnightblue" stroke="midnightblue" points="572.79,-134.5 582.79,-131 572.79,-127.5 572.79,-134.5"/>
</g>
<!-- Node12 -->
<g id="node26" class="node"><title>Node12</title>
<a xlink:href="classcorecvs_1_1Vector3d.html#aec83d9ad04107cd9c2bb11abf33128c0" target="_top" xlink:title="Helper functions to access elements.">
<polygon fill="none" stroke="black" points="578.5,-80.5 578.5,-101.5 691.5,-101.5 691.5,-80.5 578.5,-80.5"/>
<text text-anchor="middle" x="635" y="-88.5" font-family="FreeSans.ttf" font-size="10.00">corecvs::Vector3d::x</text>
</a>
</g>
<!-- Node3&#45;&gt;Node12 -->
<g id="edge28" class="edge"><title>Node3&#45;&gt;Node12</title>
<path fill="none" stroke="midnightblue" d="M482.387,-120.49C509.378,-115.275 542.17,-108.938 570.43,-103.477"/>
<polygon fill="midnightblue" stroke="midnightblue" points="571.463,-106.842 580.617,-101.509 570.135,-99.9696 571.463,-106.842"/>
</g>
<!-- Node13 -->
<g id="node28" class="node"><title>Node13</title>
<a xlink:href="classcorecvs_1_1Vector3d.html#a940d88447f20fac800d1fa510c981275" target="_top" xlink:title="corecvs::Vector3d::y">
<polygon fill="none" stroke="black" points="578.5,-40.5 578.5,-61.5 691.5,-61.5 691.5,-40.5 578.5,-40.5"/>
<text text-anchor="middle" x="635" y="-48.5" font-family="FreeSans.ttf" font-size="10.00">corecvs::Vector3d::y</text>
</a>
</g>
<!-- Node3&#45;&gt;Node13 -->
<g id="edge30" class="edge"><title>Node3&#45;&gt;Node13</title>
<path fill="none" stroke="midnightblue" d="M489.192,-120.439C496.471,-117.933 503.585,-114.833 510,-111 530.531,-98.7317 525.358,-83.0811 546,-71 552.996,-66.9053 560.753,-63.6485 568.686,-61.0582"/>
<polygon fill="midnightblue" stroke="midnightblue" points="569.794,-64.381 578.412,-58.2176 567.831,-57.6618 569.794,-64.381"/>
</g>
<!-- Node14 -->
<g id="node30" class="node"><title>Node14</title>
<a xlink:href="classcorecvs_1_1Vector3d.html#a4587f5d4984576c5c4c2d44a4140ce3f" target="_top" xlink:title="corecvs::Vector3d::z">
<polygon fill="none" stroke="black" points="578.5,-0.5 578.5,-21.5 691.5,-21.5 691.5,-0.5 578.5,-0.5"/>
<text text-anchor="middle" x="635" y="-8.5" font-family="FreeSans.ttf" font-size="10.00">corecvs::Vector3d::z</text>
</a>
</g>
<!-- Node3&#45;&gt;Node14 -->
<g id="edge32" class="edge"><title>Node3&#45;&gt;Node14</title>
<path fill="none" stroke="midnightblue" d="M494.994,-120.315C500.392,-117.812 505.493,-114.747 510,-111 539.981,-86.0739 515.793,-55.6525 546,-31 552.614,-25.6022 560.389,-21.5909 568.542,-18.6214"/>
<polygon fill="midnightblue" stroke="midnightblue" points="569.738,-21.9147 578.241,-15.5935 567.652,-15.2327 569.738,-21.9147"/>
</g>
<!-- Node5 -->
<g id="node9" class="node"><title>Node5</title>
<a xlink:href="classcorecvs_1_1Matrix44.html#a2b2199727e0ea9264105937c9aca9a1f" target="_top" xlink:title="Returning transposed matrix.">
<polygon fill="none" stroke="black" points="978.5,-200.5 978.5,-221.5 1139.5,-221.5 1139.5,-200.5 978.5,-200.5"/>
<text text-anchor="middle" x="1059" y="-208.5" font-family="FreeSans.ttf" font-size="10.00">corecvs::Matrix44::transposed</text>
</a>
</g>
<!-- Node4&#45;&gt;Node5 -->
<g id="edge8" class="edge"><title>Node4&#45;&gt;Node5</title>
<path fill="none" stroke="midnightblue" d="M942.232,-211C950.862,-211 959.611,-211 968.237,-211"/>
<polygon fill="midnightblue" stroke="midnightblue" points="968.291,-214.5 978.291,-211 968.291,-207.5 968.291,-214.5"/>
</g>
<!-- Node6 -->
<g id="node11" class="node"><title>Node6</title>
<a xlink:href="classcorecvs_1_1Matrix44.html#acf5e18b2333c493522c2d32ae8719541" target="_top" xlink:title="corecvs::Matrix44::Matrix44">
<polygon fill="none" stroke="black" points="1176,-220.5 1176,-241.5 1324,-241.5 1324,-220.5 1176,-220.5"/>
<text text-anchor="middle" x="1250" y="-228.5" font-family="FreeSans.ttf" font-size="10.00">corecvs::Matrix44::Matrix44</text>
</a>
</g>
<!-- Node5&#45;&gt;Node6 -->
<g id="edge10" class="edge"><title>Node5&#45;&gt;Node6</title>
<path fill="none" stroke="midnightblue" d="M1139.72,-219.453C1148.36,-220.357 1157.16,-221.278 1165.83,-222.187"/>
<polygon fill="midnightblue" stroke="midnightblue" points="1165.63,-225.684 1175.94,-223.245 1166.36,-218.723 1165.63,-225.684"/>
</g>
<!-- Node7 -->
<g id="node13" class="node"><title>Node7</title>
<a xlink:href="classcorecvs_1_1Matrix44.html#ad53e6a4c5f30ed13b1bd0946f0e66a06" target="_top" xlink:title="Geting Matrix element functions block.">
<polygon fill="none" stroke="black" points="1193.5,-180.5 1193.5,-201.5 1306.5,-201.5 1306.5,-180.5 1193.5,-180.5"/>
<text text-anchor="middle" x="1250" y="-188.5" font-family="FreeSans.ttf" font-size="10.00">corecvs::Matrix44::a</text>
</a>
</g>
<!-- Node5&#45;&gt;Node7 -->
<g id="edge12" class="edge"><title>Node5&#45;&gt;Node7</title>
<path fill="none" stroke="midnightblue" d="M1139.72,-202.547C1154.23,-201.029 1169.19,-199.462 1183.24,-197.99"/>
<polygon fill="midnightblue" stroke="midnightblue" points="1183.71,-201.46 1193.29,-196.938 1182.98,-194.498 1183.71,-201.46"/>
</g>
<!-- Node8&#45;&gt;Node4 -->
<g id="edge18" class="edge"><title>Node8&#45;&gt;Node4</title>
<path fill="none" stroke="midnightblue" d="M691.751,-181.51C720.163,-186.771 754.735,-193.173 784.398,-198.666"/>
<polygon fill="midnightblue" stroke="midnightblue" points="783.783,-202.112 794.253,-200.491 785.057,-195.229 783.783,-202.112"/>
</g>
<!-- Node9 -->
<g id="node17" class="node"><title>Node9</title>
<a xlink:href="namespacecorecvs.html#a232d61cca5a815cc01f2eaa73604a48c" target="_top" xlink:title="corecvs::degToRad">
<polygon fill="none" stroke="black" points="798.5,-160.5 798.5,-181.5 903.5,-181.5 903.5,-160.5 798.5,-160.5"/>
<text text-anchor="middle" x="851" y="-168.5" font-family="FreeSans.ttf" font-size="10.00">corecvs::degToRad</text>
</a>
</g>
<!-- Node8&#45;&gt;Node9 -->
<g id="edge16" class="edge"><title>Node8&#45;&gt;Node9</title>
<path fill="none" stroke="midnightblue" d="M711.154,-171C736.341,-171 764.067,-171 788.143,-171"/>
<polygon fill="midnightblue" stroke="midnightblue" points="788.22,-174.5 798.22,-171 788.22,-167.5 788.22,-174.5"/>
</g>
<!-- Node10&#45;&gt;Node4 -->
<g id="edge24" class="edge"><title>Node10&#45;&gt;Node4</title>
<path fill="none" stroke="midnightblue" d="M723.791,-211C732.321,-211 741.017,-211 749.656,-211"/>
<polygon fill="midnightblue" stroke="midnightblue" points="749.757,-214.5 759.757,-211 749.757,-207.5 749.757,-214.5"/>
</g>
<!-- Node10&#45;&gt;Node9 -->
<g id="edge22" class="edge"><title>Node10&#45;&gt;Node9</title>
<path fill="none" stroke="midnightblue" d="M691.751,-200.49C721.399,-195 757.753,-188.268 788.238,-182.623"/>
<polygon fill="midnightblue" stroke="midnightblue" points="789.138,-186.016 798.333,-180.753 787.863,-179.133 789.138,-186.016"/>
</g>
</g>
</svg>
        <g id="navigator" transform="translate(0 0)" fill="#404254">
                <rect fill="#f2f5e9" fill-opacity="0.5" stroke="#606060" stroke-width=".5" x="0" y="0" width="60" height="60"/>
                <use id="zoomplus" xlink:href="#zoomPlus" x="17" y="9" onmousedown="handleZoom(evt,'in')"/>
                <use id="zoomminus" xlink:href="#zoomMin" x="42" y="9" onmousedown="handleZoom(evt,'out')"/>
                <use id="reset" xlink:href="#resetDef" x="30" y="36" onmousedown="handleReset()"/>
                <g id="arrowUp" xlink:href="#dirArrow" transform="translate(30 24)" onmousedown="handlePan(0,-1)">
                  <use xlink:href="#rim" fill="#404040">
                        <set attributeName="fill" to="#808080" begin="arrowUp.mouseover" end="arrowUp.mouseout"/>
                  </use>
                  <path fill="none" stroke="white" stroke-width="1.5" d="M0,-3.0v7 M-2.5,-0.5L0,-3.0L2.5,-0.5"/>
                </g>
                <g id="arrowRight" xlink:href="#dirArrow" transform="rotate(90) translate(36 -43)" onmousedown="handlePan(1,0)">
                  <use xlink:href="#rim" fill="#404040">
                        <set attributeName="fill" to="#808080" begin="arrowRight.mouseover" end="arrowRight.mouseout"/>
                  </use>
                  <path fill="none" stroke="white" stroke-width="1.5" d="M0,-3.0v7 M-2.5,-0.5L0,-3.0L2.5,-0.5"/>
                </g>
                <g id="arrowDown" xlink:href="#dirArrow" transform="rotate(180) translate(-30 -48)" onmousedown="handlePan(0,1)">
                  <use xlink:href="#rim" fill="#404040">
                        <set attributeName="fill" to="#808080" begin="arrowDown.mouseover" end="arrowDown.mouseout"/>
                  </use>
                  <path fill="none" stroke="white" stroke-width="1.5" d="M0,-3.0v7 M-2.5,-0.5L0,-3.0L2.5,-0.5"/>
                </g>
                <g id="arrowLeft" xlink:href="#dirArrow" transform="rotate(270) translate(-36 17)" onmousedown="handlePan(-1,0)">
                  <use xlink:href="#rim" fill="#404040">
                        <set attributeName="fill" to="#808080" begin="arrowLeft.mouseover" end="arrowLeft.mouseout"/>
                  </use>
                  <path fill="none" stroke="white" stroke-width="1.5" d="M0,-3.0v7 M-2.5,-0.5L0,-3.0L2.5,-0.5"/>
                </g>
        </g>
</svg>
