<?xml version="1.0" encoding="UTF-8" standalone="no"?>
<!DOCTYPE svg PUBLIC "-//W3C//DTD SVG 1.1//EN"
 "http://www.w3.org/Graphics/SVG/1.1/DTD/svg11.dtd">
<!-- Generated by graphviz version 2.26.3 (20100126.1600)
 -->
<!-- Title: G Pages: 1 -->
<!--zoomable 1171 -->
<svg id="main" version="1.1" xmlns="http://www.w3.org/2000/svg" xmlns:xlink="http://www.w3.org/1999/xlink" xml:space="preserve" onload="init(evt)">
        <defs>
                <circle id="rim" cx="0" cy="0" r="7"/>
                <circle id="rim2" cx="0" cy="0" r="3.5"/>
                <g id="zoomPlus">
                        <use xlink:href="#rim" fill="#404040">
                                <set attributeName="fill" to="#808080" begin="zoomplus.mouseover" end="zoomplus.mouseout"/>
                        </use>
                        <path d="M-4,0h8M0,-4v8" fill="none" stroke="white" stroke-width="1.5" pointer-events="none"/>
                </g>
                <g id="zoomMin">
                        <use xlink:href="#rim" fill="#404040">
                                <set attributeName="fill" to="#808080" begin="zoomminus.mouseover" end="zoomminus.mouseout"/>
                        </use>
                        <path d="M-4,0h8" fill="none" stroke="white" stroke-width="1.5" pointer-events="none"/>
                </g>
                <g id="dirArrow">
                        <path fill="none" stroke="white" stroke-width="1.5" d="M0,-3.0v7 M-2.5,-0.5L0,-3.0L2.5,-0.5"/>
                </g>
               <g id="resetDef">
                       <use xlink:href="#rim2" fill="#404040">
                               <set attributeName="fill" to="#808080" begin="reset.mouseover" end="reset.mouseout"/>
                       </use>
               </g>
        </defs>

<script type="text/javascript">
var viewWidth = 1850;
var viewHeight = 1171;
var sectionId = 'dynsection-20';
</script>
<script xlink:href="svgpan.js"/>
<svg id="graph" class="graph">
<g id="viewport">
<title>G</title>
<!-- Node1 -->
<g id="node1" class="node"><title>Node1</title>
<polygon fill="#bfbfbf" stroke="black" points="0,-299.5 0,-320.5 152,-320.5 152,-299.5 0,-299.5"/>
<text text-anchor="middle" x="76" y="-307.5" font-family="FreeSans.ttf" font-size="10.00">BaseHostDialog::initCapture</text>
</g>
<!-- Node2 -->
<g id="node3" class="node"><title>Node2</title>
<a xlink:href="classConfigManager.html#a92f4e39dff236df8bab3b6d5697420c0" target="_top" xlink:title="ConfigManager::camConfigName">
<polygon fill="none" stroke="black" points="800.5,-1140.5 800.5,-1161.5 975.5,-1161.5 975.5,-1140.5 800.5,-1140.5"/>
<text text-anchor="middle" x="888" y="-1148.5" font-family="FreeSans.ttf" font-size="10.00">ConfigManager::camConfigName</text>
</a>
</g>
<!-- Node1&#45;&gt;Node2 -->
<g id="edge2" class="edge"><title>Node1&#45;&gt;Node2</title>
<path fill="none" stroke="midnightblue" d="M76.9127,-320.903C83.0737,-392.478 120.398,-795.286 188,-895 323.09,-1094.26 631.52,-1139.11 790.007,-1148.74"/>
<polygon fill="midnightblue" stroke="midnightblue" points="790.042,-1152.24 800.226,-1149.32 790.442,-1145.26 790.042,-1152.24"/>
</g>
<!-- Node6 -->
<g id="node11" class="node"><title>Node6</title>
<a xlink:href="classBaseHostDialog.html#a34dae5e98b718534256d2728db0a7517" target="_top" xlink:title="BaseHostDialog::camerasParamsChanged">
<polygon fill="none" stroke="black" points="1048,-568.5 1048,-589.5 1268,-589.5 1268,-568.5 1048,-568.5"/>
<text text-anchor="middle" x="1158" y="-576.5" font-family="FreeSans.ttf" font-size="10.00">BaseHostDialog::camerasParamsChanged</text>
</a>
</g>
<!-- Node1&#45;&gt;Node6 -->
<g id="edge10" class="edge"><title>Node1&#45;&gt;Node6</title>
<path fill="none" stroke="midnightblue" d="M78.5895,-320.659C87.3309,-354.119 119.136,-457.539 188,-503 257.357,-548.786 793.316,-569.09 1037.49,-576.032"/>
<polygon fill="midnightblue" stroke="midnightblue" points="1037.74,-579.541 1047.83,-576.323 1037.94,-572.543 1037.74,-579.541"/>
</g>
<!-- Node12 -->
<g id="node23" class="node"><title>Node12</title>
<a xlink:href="classBaseHostDialog.html#a85d4ed7db972cc69a32a233504d3406c" target="_top" xlink:title="BaseHostDialog::captureStatusUpdated">
<polygon fill="none" stroke="black" points="783.5,-470.5 783.5,-491.5 992.5,-491.5 992.5,-470.5 783.5,-470.5"/>
<text text-anchor="middle" x="888" y="-478.5" font-family="FreeSans.ttf" font-size="10.00">BaseHostDialog::captureStatusUpdated</text>
</a>
</g>
<!-- Node1&#45;&gt;Node12 -->
<g id="edge22" class="edge"><title>Node1&#45;&gt;Node12</title>
<path fill="none" stroke="midnightblue" d="M84.1523,-320.723C100.928,-341.875 141.653,-388.68 188,-409 290.092,-453.759 602.341,-471.292 773.247,-477.671"/>
<polygon fill="midnightblue" stroke="midnightblue" points="773.167,-481.17 783.289,-478.039 773.424,-474.175 773.167,-481.17"/>
</g>
<!-- Node13 -->
<g id="node25" class="node"><title>Node13</title>
<a xlink:href="classBaseHostDialog.html#a7c08caa008fa8965093ea089dba05fee" target="_top" xlink:title="BaseHostDialog::deinitCamera">
<polygon fill="none" stroke="black" points="243,-472.5 243,-493.5 407,-493.5 407,-472.5 243,-472.5"/>
<text text-anchor="middle" x="325" y="-480.5" font-family="FreeSans.ttf" font-size="10.00">BaseHostDialog::deinitCamera</text>
</a>
</g>
<!-- Node1&#45;&gt;Node13 -->
<g id="edge24" class="edge"><title>Node1&#45;&gt;Node13</title>
<path fill="none" stroke="midnightblue" d="M80.6793,-320.75C93.396,-348.576 131.471,-423.206 188,-458 201.556,-466.343 217.2,-472.049 232.962,-475.921"/>
<polygon fill="midnightblue" stroke="midnightblue" points="232.252,-479.349 242.773,-478.103 233.771,-472.516 232.252,-479.349"/>
</g>
<!-- Node14 -->
<g id="node28" class="node"><title>Node14</title>
<a xlink:href="classBaseHostDialog.html#ad54d962cb8cdbaf3d7bab622ec67a287" target="_top" xlink:title="BaseHostDialog::emptyString">
<polygon fill="none" stroke="black" points="246,-280.5 246,-301.5 404,-301.5 404,-280.5 246,-280.5"/>
<text text-anchor="middle" x="325" y="-288.5" font-family="FreeSans.ttf" font-size="10.00">BaseHostDialog::emptyString</text>
</a>
</g>
<!-- Node1&#45;&gt;Node14 -->
<g id="edge28" class="edge"><title>Node1&#45;&gt;Node14</title>
<path fill="none" stroke="midnightblue" d="M152.061,-304.196C178.556,-302.174 208.518,-299.888 235.969,-297.794"/>
<polygon fill="midnightblue" stroke="midnightblue" points="236.254,-301.282 245.958,-297.031 235.721,-294.302 236.254,-301.282"/>
</g>
<!-- Node15 -->
<g id="node30" class="node"><title>Node15</title>
<a xlink:href="classImageCaptureInterface.html#a0c12358188ad7245399180ae60b87ea0" target="_top" xlink:title="Fabric to create particular implementation of the capturer.">
<polygon fill="none" stroke="black" points="245.5,-240.5 245.5,-261.5 404.5,-261.5 404.5,-240.5 245.5,-240.5"/>
<text text-anchor="middle" x="325" y="-248.5" font-family="FreeSans.ttf" font-size="10.00">ImageCaptureInterface::fabric</text>
</a>
</g>
<!-- Node1&#45;&gt;Node15 -->
<g id="edge30" class="edge"><title>Node1&#45;&gt;Node15</title>
<path fill="none" stroke="midnightblue" d="M101.828,-299.429C124.261,-290.632 157.801,-278.391 188,-271 203.035,-267.32 219.174,-264.226 234.911,-261.656"/>
<polygon fill="midnightblue" stroke="midnightblue" points="235.844,-265.053 245.179,-260.042 234.757,-258.138 235.844,-265.053"/>
</g>
<!-- Node16 -->
<g id="node32" class="node"><title>Node16</title>
<a xlink:href="classBaseHostDialog.html#a89b1bdae31233d871b1f7e96b203fed6" target="_top" xlink:title="This method will do the following and need to be called once!">
<polygon fill="none" stroke="black" points="268.5,-864.5 268.5,-885.5 381.5,-885.5 381.5,-864.5 268.5,-864.5"/>
<text text-anchor="middle" x="325" y="-872.5" font-family="FreeSans.ttf" font-size="10.00">BaseHostDialog::init</text>
</a>
</g>
<!-- Node1&#45;&gt;Node16 -->
<g id="edge32" class="edge"><title>Node1&#45;&gt;Node16</title>
<path fill="none" stroke="midnightblue" d="M80.3834,-320.605C95.2037,-356.403 144.922,-476.008 188,-574 234.82,-680.504 293.354,-806.989 315.725,-855.096"/>
<polygon fill="midnightblue" stroke="midnightblue" points="312.653,-856.792 320.046,-864.381 319,-853.838 312.653,-856.792"/>
</g>
<!-- Node30 -->
<g id="node65" class="node"><title>Node30</title>
<a xlink:href="classBaseHostDialog.html#aec79f621b3603c99163feb14109f01c4" target="_top" xlink:title="BaseHostDialog::stopCapture">
<polygon fill="none" stroke="black" points="1079,-359.5 1079,-380.5 1237,-380.5 1237,-359.5 1079,-359.5"/>
<text text-anchor="middle" x="1158" y="-367.5" font-family="FreeSans.ttf" font-size="10.00">BaseHostDialog::stopCapture</text>
</a>
</g>
<!-- Node1&#45;&gt;Node30 -->
<g id="edge118" class="edge"><title>Node1&#45;&gt;Node30</title>
<path fill="none" stroke="midnightblue" d="M103.586,-320.642C125.961,-328.717 158.514,-339.218 188,-344 508.787,-396.02 896.913,-384.405 1068.74,-375.52"/>
<polygon fill="midnightblue" stroke="midnightblue" points="1068.95,-379.014 1078.75,-374.993 1068.58,-372.024 1068.95,-379.014"/>
</g>
<!-- Node32 -->
<g id="node69" class="node"><title>Node32</title>
<a xlink:href="classBaseHostDialog.html#aa884ed91b29e7dce01c4601e47358c40" target="_top" xlink:title="BaseHostDialog::singleStepStatusUpdated">
<polygon fill="none" stroke="black" points="1315,-319.5 1315,-340.5 1537,-340.5 1537,-319.5 1315,-319.5"/>
<text text-anchor="middle" x="1426" y="-327.5" font-family="FreeSans.ttf" font-size="10.00">BaseHostDialog::singleStepStatusUpdated</text>
</a>
</g>
<!-- Node1&#45;&gt;Node32 -->
<g id="edge116" class="edge"><title>Node1&#45;&gt;Node32</title>
<path fill="none" stroke="midnightblue" d="M152.142,-314.614C256.35,-320.52 449.264,-330 614,-330 614,-330 614,-330 888,-330 1031.22,-330 1195.89,-330 1304.93,-330"/>
<polygon fill="midnightblue" stroke="midnightblue" points="1304.98,-333.5 1314.98,-330 1304.98,-326.5 1304.98,-333.5"/>
</g>
<!-- Node41 -->
<g id="node90" class="node"><title>Node41</title>
<a xlink:href="classImageCaptureInterface.html#ab5351441261f3a5bf5c6fee480a4bc41" target="_top" xlink:title="ImageCaptureInterface::initCapture">
<polygon fill="none" stroke="black" points="232.5,-200.5 232.5,-221.5 417.5,-221.5 417.5,-200.5 232.5,-200.5"/>
<text text-anchor="middle" x="325" y="-208.5" font-family="FreeSans.ttf" font-size="10.00">ImageCaptureInterface::initCapture</text>
</a>
</g>
<!-- Node1&#45;&gt;Node41 -->
<g id="edge98" class="edge"><title>Node1&#45;&gt;Node41</title>
<path fill="none" stroke="midnightblue" d="M87.0162,-299.47C105.96,-282.042 146.672,-247.49 188,-231 198.901,-226.651 210.628,-223.233 222.468,-220.549"/>
<polygon fill="midnightblue" stroke="midnightblue" points="223.356,-223.939 232.426,-218.464 221.921,-217.088 223.356,-223.939"/>
</g>
<!-- Node42 -->
<g id="node92" class="node"><title>Node42</title>
<a xlink:href="classCapSettingsDialog.html#a359b523bd201f7bc90306a57621f3a22" target="_top" xlink:title="CapSettingsDialog::loadFromQSettings">
<polygon fill="none" stroke="black" points="223.5,-160.5 223.5,-181.5 426.5,-181.5 426.5,-160.5 223.5,-160.5"/>
<text text-anchor="middle" x="325" y="-168.5" font-family="FreeSans.ttf" font-size="10.00">CapSettingsDialog::loadFromQSettings</text>
</a>
</g>
<!-- Node1&#45;&gt;Node42 -->
<g id="edge100" class="edge"><title>Node1&#45;&gt;Node42</title>
<path fill="none" stroke="midnightblue" d="M82.5096,-299.172C97.6251,-275.103 137.679,-217.219 188,-191 196.062,-186.799 204.732,-183.403 213.655,-180.666"/>
<polygon fill="midnightblue" stroke="midnightblue" points="214.724,-184.002 223.419,-177.947 212.847,-177.258 214.724,-184.002"/>
</g>
<!-- Node46 -->
<g id="node100" class="node"><title>Node46</title>
<a xlink:href="classBaseHostDialog.html#a11eacdcaeee28f805fd2ea2c0e7c70a7" target="_top" xlink:title="BaseHostDialog::setCaptureStats">
<polygon fill="none" stroke="black" points="236,-120.5 236,-141.5 414,-141.5 414,-120.5 236,-120.5"/>
<text text-anchor="middle" x="325" y="-128.5" font-family="FreeSans.ttf" font-size="10.00">BaseHostDialog::setCaptureStats</text>
</a>
</g>
<!-- Node1&#45;&gt;Node46 -->
<g id="edge108" class="edge"><title>Node1&#45;&gt;Node46</title>
<path fill="none" stroke="midnightblue" d="M80.0252,-299.205C91.6242,-269.754 128.164,-187.771 188,-151 199.535,-143.911 212.627,-138.973 226.032,-135.584"/>
<polygon fill="midnightblue" stroke="midnightblue" points="226.842,-138.989 235.83,-133.38 225.306,-132.159 226.842,-138.989"/>
</g>
<!-- Node48 -->
<g id="node104" class="node"><title>Node48</title>
<a xlink:href="classAbstractCalculationThread.html#a1b793a97bb171d37d3258bda7fbf404a" target="_top" xlink:title="AbstractCalculationThread::setImageCaptureInterface">
<polygon fill="none" stroke="black" points="188,-80.5 188,-101.5 462,-101.5 462,-80.5 188,-80.5"/>
<text text-anchor="middle" x="325" y="-88.5" font-family="FreeSans.ttf" font-size="10.00">AbstractCalculationThread::setImageCaptureInterface</text>
</a>
</g>
<!-- Node1&#45;&gt;Node48 -->
<g id="edge112" class="edge"><title>Node1&#45;&gt;Node48</title>
<path fill="none" stroke="midnightblue" d="M78.5256,-299.088C87.0774,-264.817 118.381,-158.789 188,-111 190.592,-109.221 193.276,-107.571 196.037,-106.043"/>
<polygon fill="midnightblue" stroke="midnightblue" points="197.683,-109.134 205.095,-101.563 194.58,-102.859 197.683,-109.134"/>
</g>
<!-- Node49 -->
<g id="node106" class="node"><title>Node49</title>
<a xlink:href="classInputSelectorWidget.html#aabf000426e1ad95d155d6bc2050e9f7c" target="_top" xlink:title="InputSelectorWidget::setInputString">
<polygon fill="none" stroke="black" points="232,-40.5 232,-61.5 418,-61.5 418,-40.5 232,-40.5"/>
<text text-anchor="middle" x="325" y="-48.5" font-family="FreeSans.ttf" font-size="10.00">InputSelectorWidget::setInputString</text>
</a>
</g>
<!-- Node1&#45;&gt;Node49 -->
<g id="edge114" class="edge"><title>Node1&#45;&gt;Node49</title>
<path fill="none" stroke="midnightblue" d="M77.4084,-299.441C83.0875,-261.392 107.985,-130.421 188,-71 198.05,-63.5368 209.68,-58.2823 221.833,-54.6469"/>
<polygon fill="midnightblue" stroke="midnightblue" points="222.885,-57.9894 231.67,-52.0672 221.109,-51.2183 222.885,-57.9894"/>
</g>
<!-- Node50 -->
<g id="node110" class="node"><title>Node50</title>
<a xlink:href="classPresentationParametersControlWidget.html#a487cac5c3f68455b48e23feb74fd5be9" target="_top" xlink:title="PresentationParametersControlWidget::ui">
<polygon fill="none" stroke="black" points="218,-0.5 218,-21.5 432,-21.5 432,-0.5 218,-0.5"/>
<text text-anchor="middle" x="325" y="-8.5" font-family="FreeSans.ttf" font-size="10.00">PresentationParametersControlWidget::ui</text>
</a>
</g>
<!-- Node1&#45;&gt;Node50 -->
<g id="edge120" class="edge"><title>Node1&#45;&gt;Node50</title>
<path fill="none" stroke="midnightblue" d="M76.6475,-299.5C79.8306,-257.733 97.5772,-102.199 188,-31 194.241,-26.0859 201.154,-22.1072 208.461,-18.9044"/>
<polygon fill="midnightblue" stroke="midnightblue" points="209.842,-22.1227 217.906,-15.2503 207.317,-15.5942 209.842,-22.1227"/>
</g>
<!-- Node3 -->
<g id="node5" class="node"><title>Node3</title>
<a xlink:href="classConfigManager.html#a312ba1a2255b5af878f5dbb7c441d1ef" target="_top" xlink:title="ConfigManager::camName">
<polygon fill="none" stroke="black" points="1085.5,-1141.5 1085.5,-1162.5 1230.5,-1162.5 1230.5,-1141.5 1085.5,-1141.5"/>
<text text-anchor="middle" x="1158" y="-1149.5" font-family="FreeSans.ttf" font-size="10.00">ConfigManager::camName</text>
</a>
</g>
<!-- Node2&#45;&gt;Node3 -->
<g id="edge4" class="edge"><title>Node2&#45;&gt;Node3</title>
<path fill="none" stroke="midnightblue" d="M975.661,-1151.32C1007.62,-1151.44 1043.63,-1151.58 1075.15,-1151.69"/>
<polygon fill="midnightblue" stroke="midnightblue" points="1075.21,-1155.19 1085.22,-1151.73 1075.23,-1148.19 1075.21,-1155.19"/>
</g>
<!-- Node4 -->
<g id="node7" class="node"><title>Node4</title>
<a xlink:href="classConfigManager.html#ae428a00b007e47c5d496539e25b05bcf" target="_top" xlink:title="ConfigManager::instance">
<polygon fill="none" stroke="black" points="1090.5,-1101.5 1090.5,-1122.5 1225.5,-1122.5 1225.5,-1101.5 1090.5,-1101.5"/>
<text text-anchor="middle" x="1158" y="-1109.5" font-family="FreeSans.ttf" font-size="10.00">ConfigManager::instance</text>
</a>
</g>
<!-- Node2&#45;&gt;Node4 -->
<g id="edge6" class="edge"><title>Node2&#45;&gt;Node4</title>
<path fill="none" stroke="midnightblue" d="M960.71,-1140.5C997.702,-1135.15 1042.69,-1128.66 1080.35,-1123.22"/>
<polygon fill="midnightblue" stroke="midnightblue" points="1080.87,-1126.68 1090.26,-1121.78 1079.87,-1119.75 1080.87,-1126.68"/>
</g>
<!-- Node5 -->
<g id="node9" class="node"><title>Node5</title>
<a xlink:href="classConfigManager.html#a7d3d7c10423d969f7544509f6fcca32f" target="_top" xlink:title="ConfigManager::ConfigManager">
<polygon fill="none" stroke="black" points="1342.5,-1101.5 1342.5,-1122.5 1509.5,-1122.5 1509.5,-1101.5 1342.5,-1101.5"/>
<text text-anchor="middle" x="1426" y="-1109.5" font-family="FreeSans.ttf" font-size="10.00">ConfigManager::ConfigManager</text>
</a>
</g>
<!-- Node4&#45;&gt;Node5 -->
<g id="edge8" class="edge"><title>Node4&#45;&gt;Node5</title>
<path fill="none" stroke="midnightblue" d="M1225.63,-1112C1257.81,-1112 1296.82,-1112 1331.83,-1112"/>
<polygon fill="midnightblue" stroke="midnightblue" points="1332.08,-1115.5 1342.08,-1112 1332.08,-1108.5 1332.08,-1115.5"/>
</g>
<!-- Node7 -->
<g id="node13" class="node"><title>Node7</title>
<a xlink:href="classBaseHostDialog.html#a948845662aec80c962ab678a65933635" target="_top" xlink:title="BaseHostDialog::camerasParametersChanged">
<polygon fill="none" stroke="black" points="1306.5,-816.5 1306.5,-837.5 1545.5,-837.5 1545.5,-816.5 1306.5,-816.5"/>
<text text-anchor="middle" x="1426" y="-824.5" font-family="FreeSans.ttf" font-size="10.00">BaseHostDialog::camerasParametersChanged</text>
</a>
</g>
<!-- Node6&#45;&gt;Node7 -->
<g id="edge12" class="edge"><title>Node6&#45;&gt;Node7</title>
<path fill="none" stroke="midnightblue" d="M1170.63,-589.544C1191.58,-607.124 1234.71,-643.688 1270,-676 1321.07,-722.769 1379.19,-780.182 1407.93,-808.873"/>
<polygon fill="midnightblue" stroke="midnightblue" points="1405.68,-811.574 1415.23,-816.17 1410.63,-806.625 1405.68,-811.574"/>
</g>
<!-- Node8 -->
<g id="node15" class="node"><title>Node8</title>
<a xlink:href="classBaseHostDialog.html#a1a861685bf1ca4f0908455ccd5708b89" target="_top" xlink:title="BaseHostDialog::getAdditionalParams">
<polygon fill="none" stroke="black" points="1327,-568.5 1327,-589.5 1525,-589.5 1525,-568.5 1327,-568.5"/>
<text text-anchor="middle" x="1426" y="-576.5" font-family="FreeSans.ttf" font-size="10.00">BaseHostDialog::getAdditionalParams</text>
</a>
</g>
<!-- Node6&#45;&gt;Node8 -->
<g id="edge14" class="edge"><title>Node6&#45;&gt;Node8</title>
<path fill="none" stroke="midnightblue" d="M1268.17,-579C1284.04,-579 1300.37,-579 1316.23,-579"/>
<polygon fill="midnightblue" stroke="midnightblue" points="1316.57,-582.5 1326.57,-579 1316.57,-575.5 1316.57,-582.5"/>
</g>
<!-- Node9 -->
<g id="node17" class="node"><title>Node9</title>
<a xlink:href="classCamerasConfigParameters.html#a94ebef3c7cf7693491aba2e149c33c6b" target="_top" xlink:title="CamerasConfigParameters::setDistortionTransform">
<polygon fill="none" stroke="black" points="1582,-608.5 1582,-629.5 1842,-629.5 1842,-608.5 1582,-608.5"/>
<text text-anchor="middle" x="1712" y="-616.5" font-family="FreeSans.ttf" font-size="10.00">CamerasConfigParameters::setDistortionTransform</text>
</a>
</g>
<!-- Node8&#45;&gt;Node9 -->
<g id="edge16" class="edge"><title>Node8&#45;&gt;Node9</title>
<path fill="none" stroke="midnightblue" d="M1501.14,-589.51C1539.74,-594.908 1586.93,-601.508 1626.87,-607.094"/>
<polygon fill="midnightblue" stroke="midnightblue" points="1626.47,-610.572 1636.86,-608.491 1627.44,-603.64 1626.47,-610.572"/>
</g>
<!-- Node10 -->
<g id="node19" class="node"><title>Node10</title>
<a xlink:href="classCamerasConfigParameters.html#a0df22efe1bdbe8d27451ac4c2935f90b" target="_top" xlink:title="CamerasConfigParameters::setInputsN">
<polygon fill="none" stroke="black" points="1610.5,-568.5 1610.5,-589.5 1813.5,-589.5 1813.5,-568.5 1610.5,-568.5"/>
<text text-anchor="middle" x="1712" y="-576.5" font-family="FreeSans.ttf" font-size="10.00">CamerasConfigParameters::setInputsN</text>
</a>
</g>
<!-- Node8&#45;&gt;Node10 -->
<g id="edge18" class="edge"><title>Node8&#45;&gt;Node10</title>
<path fill="none" stroke="midnightblue" d="M1525.23,-579C1549.33,-579 1575.27,-579 1599.93,-579"/>
<polygon fill="midnightblue" stroke="midnightblue" points="1600.04,-582.5 1610.04,-579 1600.04,-575.5 1600.04,-582.5"/>
</g>
<!-- Node11 -->
<g id="node21" class="node"><title>Node11</title>
<a xlink:href="classCamerasConfigParameters.html#a890e5fb11deace781510efc7ef7460e5" target="_top" xlink:title="CamerasConfigParameters::setRectifierData">
<polygon fill="none" stroke="black" points="1598.5,-528.5 1598.5,-549.5 1825.5,-549.5 1825.5,-528.5 1598.5,-528.5"/>
<text text-anchor="middle" x="1712" y="-536.5" font-family="FreeSans.ttf" font-size="10.00">CamerasConfigParameters::setRectifierData</text>
</a>
</g>
<!-- Node8&#45;&gt;Node11 -->
<g id="edge20" class="edge"><title>Node8&#45;&gt;Node11</title>
<path fill="none" stroke="midnightblue" d="M1501.14,-568.49C1539.74,-563.092 1586.93,-556.492 1626.87,-550.906"/>
<polygon fill="midnightblue" stroke="midnightblue" points="1627.44,-554.36 1636.86,-549.509 1626.47,-547.428 1627.44,-554.36"/>
</g>
<!-- Node13&#45;&gt;Node12 -->
<g id="edge26" class="edge"><title>Node13&#45;&gt;Node12</title>
<path fill="none" stroke="midnightblue" d="M407.166,-482.708C503.65,-482.365 664.298,-481.795 773.092,-481.408"/>
<polygon fill="midnightblue" stroke="midnightblue" points="773.139,-484.908 783.126,-481.373 773.114,-477.908 773.139,-484.908"/>
</g>
<!-- Node17 -->
<g id="node34" class="node"><title>Node17</title>
<a xlink:href="classConfigManager.html#a1d08d5d83a55f715c118a19aeb41cee8" target="_top" xlink:title="ConfigManager::configName">
<polygon fill="none" stroke="black" points="538,-904.5 538,-925.5 690,-925.5 690,-904.5 538,-904.5"/>
<text text-anchor="middle" x="614" y="-912.5" font-family="FreeSans.ttf" font-size="10.00">ConfigManager::configName</text>
</a>
</g>
<!-- Node16&#45;&gt;Node17 -->
<g id="edge34" class="edge"><title>Node16&#45;&gt;Node17</title>
<path fill="none" stroke="midnightblue" d="M381.752,-882.855C423.419,-888.622 480.751,-896.557 528.026,-903.1"/>
<polygon fill="midnightblue" stroke="midnightblue" points="527.566,-906.57 537.952,-904.474 528.526,-899.636 527.566,-906.57"/>
</g>
<!-- Node19 -->
<g id="node39" class="node"><title>Node19</title>
<a xlink:href="classBaseHostDialog.html#a574f2ef5f6b3df42653edf4fbad1d020" target="_top" xlink:title="Calculation initialization procedures.">
<polygon fill="none" stroke="black" points="533.5,-864.5 533.5,-885.5 694.5,-885.5 694.5,-864.5 533.5,-864.5"/>
<text text-anchor="middle" x="614" y="-872.5" font-family="FreeSans.ttf" font-size="10.00">BaseHostDialog::initCalculator</text>
</a>
</g>
<!-- Node16&#45;&gt;Node19 -->
<g id="edge40" class="edge"><title>Node16&#45;&gt;Node19</title>
<path fill="none" stroke="midnightblue" d="M381.752,-875C422.03,-875 476.946,-875 523.265,-875"/>
<polygon fill="midnightblue" stroke="midnightblue" points="523.314,-878.5 533.314,-875 523.314,-871.5 523.314,-878.5"/>
</g>
<!-- Node27 -->
<g id="node56" class="node"><title>Node27</title>
<a xlink:href="classBaseHostDialog.html#a06886842c5aec80eef2ee28d89d09788" target="_top" xlink:title="Initialization steps that are likely, however not mandatory to be used in specific application dialog...">
<polygon fill="none" stroke="black" points="535,-510.5 535,-531.5 693,-531.5 693,-510.5 535,-510.5"/>
<text text-anchor="middle" x="614" y="-518.5" font-family="FreeSans.ttf" font-size="10.00">BaseHostDialog::initCommon</text>
</a>
</g>
<!-- Node16&#45;&gt;Node27 -->
<g id="edge58" class="edge"><title>Node16&#45;&gt;Node27</title>
<path fill="none" stroke="midnightblue" d="M329.635,-864.415C347.086,-825.435 412.235,-687.561 498,-599 523.3,-572.875 558.729,-550.608 583.759,-536.635"/>
<polygon fill="midnightblue" stroke="midnightblue" points="585.703,-539.561 592.8,-531.694 582.346,-533.418 585.703,-539.561"/>
</g>
<!-- Node33 -->
<g id="node71" class="node"><title>Node33</title>
<a xlink:href="classBaseHostDialog.html#a4040da6d85e9dcc1fe9451c525417bfb" target="_top" xlink:title="BaseHostDialog::initGraphPresentation">
<polygon fill="none" stroke="red" points="512.5,-686.5 512.5,-707.5 715.5,-707.5 715.5,-686.5 512.5,-686.5"/>
<text text-anchor="middle" x="614" y="-694.5" font-family="FreeSans.ttf" font-size="10.00">BaseHostDialog::initGraphPresentation</text>
</a>
</g>
<!-- Node16&#45;&gt;Node33 -->
<g id="edge76" class="edge"><title>Node16&#45;&gt;Node33</title>
<path fill="none" stroke="midnightblue" d="M342.213,-864.398C391.004,-834.347 530.418,-748.48 588.312,-712.822"/>
<polygon fill="midnightblue" stroke="midnightblue" points="590.198,-715.771 596.877,-707.546 586.527,-709.81 590.198,-715.771"/>
</g>
<!-- Node37 -->
<g id="node80" class="node"><title>Node37</title>
<a xlink:href="classBaseHostDialog.html#ab1318ea9e83b667c67f5edac75bee767" target="_top" xlink:title="Creates mMemoryCalculator and connects mMemoryTimer signal to getMemoryUsage() slot.">
<polygon fill="none" stroke="red" points="498.5,-984.5 498.5,-1005.5 729.5,-1005.5 729.5,-984.5 498.5,-984.5"/>
<text text-anchor="middle" x="614" y="-992.5" font-family="FreeSans.ttf" font-size="10.00">BaseHostDialog::initMemoryUsageCalculator</text>
</a>
</g>
<!-- Node16&#45;&gt;Node37 -->
<g id="edge86" class="edge"><title>Node16&#45;&gt;Node37</title>
<path fill="none" stroke="midnightblue" d="M339.392,-885.723C367.998,-906.473 434.72,-952.085 498,-975 505.513,-977.721 513.438,-980.077 521.472,-982.116"/>
<polygon fill="midnightblue" stroke="midnightblue" points="520.769,-985.547 531.307,-984.45 522.386,-978.736 520.769,-985.547"/>
</g>
<!-- Node38 -->
<g id="node82" class="node"><title>Node38</title>
<a xlink:href="classBaseHostDialog.html#a91cb18919177cb81fa8aba6080ea7f1b" target="_top" xlink:title="Initialize widgets that should be in BaseHostDialog.">
<polygon fill="none" stroke="red" points="513.5,-944.5 513.5,-965.5 714.5,-965.5 714.5,-944.5 513.5,-944.5"/>
<text text-anchor="middle" x="614" y="-952.5" font-family="FreeSans.ttf" font-size="10.00">BaseHostDialog::initParameterWidgets</text>
</a>
</g>
<!-- Node16&#45;&gt;Node38 -->
<g id="edge88" class="edge"><title>Node16&#45;&gt;Node38</title>
<path fill="none" stroke="midnightblue" d="M350.97,-885.502C384.462,-898.697 444.745,-921.272 498,-935 508.944,-937.821 520.572,-940.357 532.079,-942.598"/>
<polygon fill="midnightblue" stroke="midnightblue" points="531.665,-946.082 542.14,-944.492 532.96,-939.203 531.665,-946.082"/>
</g>
<!-- Node39 -->
<g id="node84" class="node"><title>Node39</title>
<a xlink:href="classBaseHostDialog.html#adaf8d0780c4b3611196602733aad1b2b" target="_top" xlink:title="BaseHostDialog::loadParams">
<polygon fill="none" stroke="black" points="536.5,-1062.5 536.5,-1083.5 691.5,-1083.5 691.5,-1062.5 536.5,-1062.5"/>
<text text-anchor="middle" x="614" y="-1070.5" font-family="FreeSans.ttf" font-size="10.00">BaseHostDialog::loadParams</text>
</a>
</g>
<!-- Node16&#45;&gt;Node39 -->
<g id="edge90" class="edge"><title>Node16&#45;&gt;Node39</title>
<path fill="none" stroke="midnightblue" d="M336.483,-885.788C363.292,-910.63 432.701,-972.961 498,-1015 524.29,-1031.93 556.191,-1047.56 579.88,-1058.31"/>
<polygon fill="midnightblue" stroke="midnightblue" points="578.611,-1061.58 589.168,-1062.47 581.473,-1055.19 578.611,-1061.58"/>
</g>
<!-- Node40 -->
<g id="node87" class="node"><title>Node40</title>
<a xlink:href="classBaseHostDialog.html#acf45dad8e32ff848d0a5b8f213f3d4d7" target="_top" xlink:title="BaseHostDialog::loadTransformFromFile">
<polygon fill="none" stroke="red" points="511,-608.5 511,-629.5 717,-629.5 717,-608.5 511,-608.5"/>
<text text-anchor="middle" x="614" y="-616.5" font-family="FreeSans.ttf" font-size="10.00">BaseHostDialog::loadTransformFromFile</text>
</a>
</g>
<!-- Node16&#45;&gt;Node40 -->
<g id="edge94" class="edge"><title>Node16&#45;&gt;Node40</title>
<path fill="none" stroke="midnightblue" d="M332.094,-864.258C353.686,-832.221 421.802,-735.914 498,-677 521.797,-658.601 552.347,-643.61 576.121,-633.481"/>
<polygon fill="midnightblue" stroke="midnightblue" points="577.634,-636.642 585.527,-629.575 574.949,-630.178 577.634,-636.642"/>
</g>
<!-- Node17&#45;&gt;Node4 -->
<g id="edge36" class="edge"><title>Node17&#45;&gt;Node4</title>
<path fill="none" stroke="midnightblue" d="M690.185,-915.245C704.897,-918.617 719.1,-924.666 730,-935 782.266,-984.552 710.803,-1046.73 766,-1093 811.877,-1131.45 979.458,-1126.07 1080.06,-1118.91"/>
<polygon fill="midnightblue" stroke="midnightblue" points="1080.46,-1122.39 1090.18,-1118.17 1079.95,-1115.41 1080.46,-1122.39"/>
</g>
<!-- Node18 -->
<g id="node37" class="node"><title>Node18</title>
<a xlink:href="classConfigManager.html#a0813cd21566579f5bdc87e317eff30a5" target="_top" xlink:title="ConfigManager::name">
<polygon fill="none" stroke="black" points="827,-1062.5 827,-1083.5 949,-1083.5 949,-1062.5 827,-1062.5"/>
<text text-anchor="middle" x="888" y="-1070.5" font-family="FreeSans.ttf" font-size="10.00">ConfigManager::name</text>
</a>
</g>
<!-- Node17&#45;&gt;Node18 -->
<g id="edge38" class="edge"><title>Node17&#45;&gt;Node18</title>
<path fill="none" stroke="midnightblue" d="M690.138,-916.097C704.68,-919.445 718.828,-925.269 730,-935 769.747,-969.619 726.802,-1012.76 766,-1048 779.97,-1060.56 798.51,-1067.47 816.909,-1071.13"/>
<polygon fill="midnightblue" stroke="midnightblue" points="816.345,-1074.58 826.789,-1072.79 817.511,-1067.68 816.345,-1074.58"/>
</g>
<!-- Node19&#45;&gt;Node7 -->
<g id="edge44" class="edge"><title>Node19&#45;&gt;Node7</title>
<path fill="none" stroke="midnightblue" d="M694.759,-877.076C707.686,-880.566 720.058,-886.191 730,-895 771.676,-931.926 721.327,-981.762 766,-1015 853.004,-1079.73 903.989,-1037.84 1010,-1015 1167.7,-981.019 1337.62,-882.219 1400.63,-843.162"/>
<polygon fill="midnightblue" stroke="midnightblue" points="1402.85,-845.904 1409.47,-837.636 1399.14,-839.968 1402.85,-845.904"/>
</g>
<!-- Node20 -->
<g id="node41" class="node"><title>Node20</title>
<a xlink:href="classBaseHostDialog.html#a701b8667f5671ad33033d6ec0312c260" target="_top" xlink:title="BaseHostDialog::calculationStateChanged">
<polygon fill="none" stroke="black" points="778.5,-944.5 778.5,-965.5 997.5,-965.5 997.5,-944.5 778.5,-944.5"/>
<text text-anchor="middle" x="888" y="-952.5" font-family="FreeSans.ttf" font-size="10.00">BaseHostDialog::calculationStateChanged</text>
</a>
</g>
<!-- Node19&#45;&gt;Node20 -->
<g id="edge42" class="edge"><title>Node19&#45;&gt;Node20</title>
<path fill="none" stroke="midnightblue" d="M694.688,-881.724C706.989,-884.757 719.176,-889.025 730,-895 750.939,-906.558 745.013,-923.528 766,-935 770.029,-937.202 774.236,-939.176 778.563,-940.944"/>
<polygon fill="midnightblue" stroke="midnightblue" points="777.614,-944.324 788.208,-944.495 780.033,-937.755 777.614,-944.324"/>
</g>
<!-- Node21 -->
<g id="node44" class="node"><title>Node21</title>
<a xlink:href="classBaseHostDialog.html#a2d22427c17f7caa5226ca93abb6c41ee" target="_top" xlink:title="BaseHostDialog::connectFinishedRecalculation">
<polygon fill="none" stroke="red" points="769,-904.5 769,-925.5 1007,-925.5 1007,-904.5 769,-904.5"/>
<text text-anchor="middle" x="888" y="-912.5" font-family="FreeSans.ttf" font-size="10.00">BaseHostDialog::connectFinishedRecalculation</text>
</a>
</g>
<!-- Node19&#45;&gt;Node21 -->
<g id="edge46" class="edge"><title>Node19&#45;&gt;Node21</title>
<path fill="none" stroke="midnightblue" d="M685.99,-885.51C722.815,-890.885 767.797,-897.452 805.959,-903.023"/>
<polygon fill="midnightblue" stroke="midnightblue" points="805.615,-906.51 816.015,-904.491 806.626,-899.583 805.615,-906.51"/>
</g>
<!-- Node22 -->
<g id="node46" class="node"><title>Node22</title>
<a xlink:href="classBaseHostDialog.html#acbbd80a78a766633988f0fffb8830097" target="_top" xlink:title="In this function calculator is created and connected to parameter Widgets Normally you should overloa...">
<polygon fill="none" stroke="red" points="799,-864.5 799,-885.5 977,-885.5 977,-864.5 799,-864.5"/>
<text text-anchor="middle" x="888" y="-872.5" font-family="FreeSans.ttf" font-size="10.00">BaseHostDialog::createCalculator</text>
</a>
</g>
<!-- Node19&#45;&gt;Node22 -->
<g id="edge48" class="edge"><title>Node19&#45;&gt;Node22</title>
<path fill="none" stroke="midnightblue" d="M694.727,-875C724.085,-875 757.616,-875 788.414,-875"/>
<polygon fill="midnightblue" stroke="midnightblue" points="788.744,-878.5 798.744,-875 788.744,-871.5 788.744,-878.5"/>
</g>
<!-- Node23 -->
<g id="node48" class="node"><title>Node23</title>
<a xlink:href="classAbstractCalculationThread.html#a165e9c3a97101c8ca445c995889ac6f3" target="_top" xlink:title="AbstractCalculationThread::getFramesHolder">
<polygon fill="none" stroke="black" points="772.5,-824.5 772.5,-845.5 1003.5,-845.5 1003.5,-824.5 772.5,-824.5"/>
<text text-anchor="middle" x="888" y="-832.5" font-family="FreeSans.ttf" font-size="10.00">AbstractCalculationThread::getFramesHolder</text>
</a>
</g>
<!-- Node19&#45;&gt;Node23 -->
<g id="edge50" class="edge"><title>Node19&#45;&gt;Node23</title>
<path fill="none" stroke="midnightblue" d="M685.99,-864.49C722.815,-859.115 767.797,-852.548 805.959,-846.977"/>
<polygon fill="midnightblue" stroke="midnightblue" points="806.626,-850.417 816.015,-845.509 805.615,-843.49 806.626,-850.417"/>
</g>
<!-- Node24 -->
<g id="node50" class="node"><title>Node24</title>
<a xlink:href="classBaseHostDialog.html#ae1c73651dbeebba56135bff02928bb6e" target="_top" xlink:title="BaseHostDialog::pauseCalculator">
<polygon fill="none" stroke="black" points="800,-784.5 800,-805.5 976,-805.5 976,-784.5 800,-784.5"/>
<text text-anchor="middle" x="888" y="-792.5" font-family="FreeSans.ttf" font-size="10.00">BaseHostDialog::pauseCalculator</text>
</a>
</g>
<!-- Node19&#45;&gt;Node24 -->
<g id="edge52" class="edge"><title>Node19&#45;&gt;Node24</title>
<path fill="none" stroke="midnightblue" d="M636.4,-864.402C665.6,-850.998 718.55,-828.092 766,-815 776.376,-812.137 787.368,-809.628 798.337,-807.445"/>
<polygon fill="midnightblue" stroke="midnightblue" points="799.218,-810.84 808.386,-805.53 797.908,-803.964 799.218,-810.84"/>
</g>
<!-- Node25 -->
<g id="node52" class="node"><title>Node25</title>
<a xlink:href="classBaseHostDialog.html#a1f2b9099ae70e6c047d6fe3138edbd62" target="_top" xlink:title="BaseHostDialog::resumeCalculator">
<polygon fill="none" stroke="black" points="796,-744.5 796,-765.5 980,-765.5 980,-744.5 796,-744.5"/>
<text text-anchor="middle" x="888" y="-752.5" font-family="FreeSans.ttf" font-size="10.00">BaseHostDialog::resumeCalculator</text>
</a>
</g>
<!-- Node19&#45;&gt;Node25 -->
<g id="edge54" class="edge"><title>Node19&#45;&gt;Node25</title>
<path fill="none" stroke="midnightblue" d="M626.004,-864.488C650.463,-843.697 708.621,-797.4 766,-775 772.804,-772.344 779.955,-770.04 787.241,-768.043"/>
<polygon fill="midnightblue" stroke="midnightblue" points="788.408,-771.357 797.239,-765.504 786.685,-764.573 788.408,-771.357"/>
</g>
<!-- Node26 -->
<g id="node54" class="node"><title>Node26</title>
<a xlink:href="classBaseHostDialog.html#a8d4d63459bf702ccfe0bff2b2113769c" target="_top" xlink:title="BaseHostDialog::updatePauseCalculationAction">
<polygon fill="none" stroke="black" points="766,-984.5 766,-1005.5 1010,-1005.5 1010,-984.5 766,-984.5"/>
<text text-anchor="middle" x="888" y="-992.5" font-family="FreeSans.ttf" font-size="10.00">BaseHostDialog::updatePauseCalculationAction</text>
</a>
</g>
<!-- Node19&#45;&gt;Node26 -->
<g id="edge56" class="edge"><title>Node19&#45;&gt;Node26</title>
<path fill="none" stroke="midnightblue" d="M694.73,-878.434C707.437,-881.814 719.743,-887.05 730,-895 760.817,-918.885 735.084,-951.242 766,-975 768.085,-976.602 770.249,-978.097 772.481,-979.49"/>
<polygon fill="midnightblue" stroke="midnightblue" points="770.947,-982.641 781.399,-984.379 774.313,-976.503 770.947,-982.641"/>
</g>
<!-- Node27&#45;&gt;Node12 -->
<g id="edge60" class="edge"><title>Node27&#45;&gt;Node12</title>
<path fill="none" stroke="midnightblue" d="M685.99,-510.49C722.815,-505.115 767.797,-498.548 805.959,-492.977"/>
<polygon fill="midnightblue" stroke="midnightblue" points="806.626,-496.417 816.015,-491.509 805.615,-489.49 806.626,-496.417"/>
</g>
<!-- Node28 -->
<g id="node59" class="node"><title>Node28</title>
<a xlink:href="classBaseHostDialog.html#ab3e1ad63f828e9244919d2402b6be10f" target="_top" xlink:title="BaseHostDialog::distortionEstimationFinished">
<polygon fill="none" stroke="red" points="771.5,-510.5 771.5,-531.5 1004.5,-531.5 1004.5,-510.5 771.5,-510.5"/>
<text text-anchor="middle" x="888" y="-518.5" font-family="FreeSans.ttf" font-size="10.00">BaseHostDialog::distortionEstimationFinished</text>
</a>
</g>
<!-- Node27&#45;&gt;Node28 -->
<g id="edge62" class="edge"><title>Node27&#45;&gt;Node28</title>
<path fill="none" stroke="midnightblue" d="M693.252,-521C714.523,-521 738.068,-521 761.221,-521"/>
<polygon fill="midnightblue" stroke="midnightblue" points="761.466,-524.5 771.466,-521 761.466,-517.5 761.466,-524.5"/>
</g>
<!-- Node29 -->
<g id="node62" class="node"><title>Node29</title>
<a xlink:href="classBaseHostDialog.html#a968ecf7b53f4acb163501b623945313a" target="_top" xlink:title="BaseHostDialog::doOpenInput">
<polygon fill="none" stroke="red" points="807.5,-396.5 807.5,-417.5 968.5,-417.5 968.5,-396.5 807.5,-396.5"/>
<text text-anchor="middle" x="888" y="-404.5" font-family="FreeSans.ttf" font-size="10.00">BaseHostDialog::doOpenInput</text>
</a>
</g>
<!-- Node27&#45;&gt;Node29 -->
<g id="edge66" class="edge"><title>Node27&#45;&gt;Node29</title>
<path fill="none" stroke="midnightblue" d="M639.286,-510.479C688.403,-490.044 796.795,-444.947 852.867,-421.617"/>
<polygon fill="midnightblue" stroke="midnightblue" points="854.488,-424.734 862.377,-417.661 851.799,-418.271 854.488,-424.734"/>
</g>
<!-- Node28&#45;&gt;Node6 -->
<g id="edge64" class="edge"><title>Node28&#45;&gt;Node6</title>
<path fill="none" stroke="midnightblue" d="M940.286,-531.508C961.885,-535.903 987.166,-541.115 1010,-546 1040.38,-552.499 1074.2,-560.018 1101.83,-566.237"/>
<polygon fill="midnightblue" stroke="midnightblue" points="1101.19,-569.68 1111.72,-568.464 1102.73,-562.851 1101.19,-569.68"/>
</g>
<!-- Node29&#45;&gt;Node1 -->
<g id="edge68" class="edge"><title>Node29&#45;&gt;Node1</title>
<path fill="none" stroke="midnightblue" d="M807.285,-409.447C648.517,-413.388 301.218,-417.459 188,-382 152.132,-370.766 116.645,-344.757 95.5244,-327.273"/>
<polygon fill="midnightblue" stroke="midnightblue" points="97.5393,-324.393 87.6492,-320.593 93.0111,-329.731 97.5393,-324.393"/>
</g>
<!-- Node29&#45;&gt;Node30 -->
<g id="edge70" class="edge"><title>Node29&#45;&gt;Node30</title>
<path fill="none" stroke="midnightblue" d="M964.649,-396.496C997.853,-391.946 1036.89,-386.597 1071.16,-381.9"/>
<polygon fill="midnightblue" stroke="midnightblue" points="1071.73,-385.355 1081.16,-380.53 1070.78,-378.42 1071.73,-385.355"/>
</g>
<!-- Node31 -->
<g id="node67" class="node"><title>Node31</title>
<a xlink:href="classImageCaptureInterface.html#abc62b482b6d7878a3e08db94c3931b6c" target="_top" xlink:title="ImageCaptureInterface::pauseCapture">
<polygon fill="none" stroke="black" points="1326,-359.5 1326,-380.5 1526,-380.5 1526,-359.5 1326,-359.5"/>
<text text-anchor="middle" x="1426" y="-367.5" font-family="FreeSans.ttf" font-size="10.00">ImageCaptureInterface::pauseCapture</text>
</a>
</g>
<!-- Node30&#45;&gt;Node31 -->
<g id="edge72" class="edge"><title>Node30&#45;&gt;Node31</title>
<path fill="none" stroke="midnightblue" d="M1237.32,-370C1261.96,-370 1289.57,-370 1315.91,-370"/>
<polygon fill="midnightblue" stroke="midnightblue" points="1315.93,-373.5 1325.93,-370 1315.93,-366.5 1315.93,-373.5"/>
</g>
<!-- Node30&#45;&gt;Node32 -->
<g id="edge74" class="edge"><title>Node30&#45;&gt;Node32</title>
<path fill="none" stroke="midnightblue" d="M1228.41,-359.49C1264.28,-354.138 1308.05,-347.604 1345.28,-342.048"/>
<polygon fill="midnightblue" stroke="midnightblue" points="1346.22,-345.447 1355.59,-340.509 1345.18,-338.523 1346.22,-345.447"/>
</g>
<!-- Node34 -->
<g id="node73" class="node"><title>Node34</title>
<a xlink:href="classFilterGraphPresentation.html#ab58cc579d8c8543c3689bced9d71846a" target="_top" xlink:title="FilterGraphPresentation::graphChangedSlot">
<polygon fill="none" stroke="red" points="1046,-685.5 1046,-706.5 1270,-706.5 1270,-685.5 1046,-685.5"/>
<text text-anchor="middle" x="1158" y="-693.5" font-family="FreeSans.ttf" font-size="10.00">FilterGraphPresentation::graphChangedSlot</text>
</a>
</g>
<!-- Node33&#45;&gt;Node34 -->
<g id="edge78" class="edge"><title>Node33&#45;&gt;Node34</title>
<path fill="none" stroke="midnightblue" d="M715.736,-697.189C795.725,-697.292 909.969,-697.338 1010,-697 1018.31,-696.972 1026.88,-696.935 1035.52,-696.892"/>
<polygon fill="midnightblue" stroke="midnightblue" points="1035.69,-700.391 1045.68,-696.839 1035.66,-693.391 1035.69,-700.391"/>
</g>
<!-- Node35 -->
<g id="node75" class="node"><title>Node35</title>
<a xlink:href="classcorecvs_1_1FilterGraph.html#ab1344a22fc153d0da002cbd1428cec14" target="_top" xlink:title="corecvs::FilterGraph::loadFromFile">
<polygon fill="none" stroke="red" points="800,-626.5 800,-647.5 976,-647.5 976,-626.5 800,-626.5"/>
<text text-anchor="middle" x="888" y="-634.5" font-family="FreeSans.ttf" font-size="10.00">corecvs::FilterGraph::loadFromFile</text>
</a>
</g>
<!-- Node33&#45;&gt;Node35 -->
<g id="edge80" class="edge"><title>Node33&#45;&gt;Node35</title>
<path fill="none" stroke="midnightblue" d="M650.009,-686.492C680.663,-677.796 725.967,-665.529 766,-657 779.176,-654.193 793.225,-651.56 806.926,-649.185"/>
<polygon fill="midnightblue" stroke="midnightblue" points="807.552,-652.629 816.824,-647.502 806.379,-645.728 807.552,-652.629"/>
</g>
<!-- Node36 -->
<g id="node77" class="node"><title>Node36</title>
<a xlink:href="classFilterGraphPresentation.html#a4484e7fbb1ffd5a64f224ef844eeed83" target="_top" xlink:title="FilterGraphPresentation::restoreFromGraph">
<polygon fill="none" stroke="red" points="776.5,-666.5 776.5,-687.5 999.5,-687.5 999.5,-666.5 776.5,-666.5"/>
<text text-anchor="middle" x="888" y="-674.5" font-family="FreeSans.ttf" font-size="10.00">FilterGraphPresentation::restoreFromGraph</text>
</a>
</g>
<!-- Node33&#45;&gt;Node36 -->
<g id="edge82" class="edge"><title>Node33&#45;&gt;Node36</title>
<path fill="none" stroke="midnightblue" d="M715.638,-689.581C732.034,-688.384 749.156,-687.135 765.972,-685.907"/>
<polygon fill="midnightblue" stroke="midnightblue" points="766.676,-689.365 776.395,-685.146 766.166,-682.384 766.676,-689.365"/>
</g>
<!-- Node36&#45;&gt;Node34 -->
<g id="edge84" class="edge"><title>Node36&#45;&gt;Node34</title>
<path fill="none" stroke="midnightblue" d="M999.768,-684.865C1011.67,-685.703 1023.82,-686.558 1035.83,-687.403"/>
<polygon fill="midnightblue" stroke="midnightblue" points="1035.66,-690.899 1045.88,-688.11 1036.15,-683.917 1035.66,-690.899"/>
</g>
<!-- Node39&#45;&gt;Node2 -->
<g id="edge92" class="edge"><title>Node39&#45;&gt;Node2</title>
<path fill="none" stroke="midnightblue" d="M640.839,-1083.58C670.945,-1095.16 721.409,-1113.72 766,-1126 782.902,-1130.66 801.336,-1134.87 818.637,-1138.46"/>
<polygon fill="midnightblue" stroke="midnightblue" points="818.175,-1141.93 828.672,-1140.49 819.568,-1135.07 818.175,-1141.93"/>
</g>
<!-- Node40&#45;&gt;Node6 -->
<g id="edge96" class="edge"><title>Node40&#45;&gt;Node6</title>
<path fill="none" stroke="midnightblue" d="M717.282,-611.406C808.503,-604.698 941.565,-594.914 1037.59,-587.853"/>
<polygon fill="midnightblue" stroke="midnightblue" points="1037.93,-591.338 1047.65,-587.114 1037.42,-584.357 1037.93,-591.338"/>
</g>
<!-- Node43 -->
<g id="node94" class="node"><title>Node43</title>
<a xlink:href="classImageCaptureInterface.html#a543bfbd42a59c2d0e8a50d707ac06441" target="_top" xlink:title="Return the interface device string.">
<polygon fill="none" stroke="black" points="504,-220.5 504,-241.5 724,-241.5 724,-220.5 504,-220.5"/>
<text text-anchor="middle" x="614" y="-228.5" font-family="FreeSans.ttf" font-size="10.00">ImageCaptureInterface::getInterfaceName</text>
</a>
</g>
<!-- Node42&#45;&gt;Node43 -->
<g id="edge102" class="edge"><title>Node42&#45;&gt;Node43</title>
<path fill="none" stroke="midnightblue" d="M426.246,-181.532C438.451,-184.042 450.615,-187.151 462,-191 479.339,-196.862 480.738,-204.915 498,-211 505.827,-213.759 514.09,-216.146 522.453,-218.21"/>
<polygon fill="midnightblue" stroke="midnightblue" points="521.765,-221.643 532.297,-220.486 523.343,-214.823 521.765,-221.643"/>
</g>
<!-- Node44 -->
<g id="node96" class="node"><title>Node44</title>
<a xlink:href="classParameterEditorWidget.html#a1509907e1e432ca5e1518808458596e3" target="_top" xlink:title="ParameterEditorWidget::setValue">
<polygon fill="none" stroke="black" points="527,-180.5 527,-201.5 701,-201.5 701,-180.5 527,-180.5"/>
<text text-anchor="middle" x="614" y="-188.5" font-family="FreeSans.ttf" font-size="10.00">ParameterEditorWidget::setValue</text>
</a>
</g>
<!-- Node42&#45;&gt;Node44 -->
<g id="edge104" class="edge"><title>Node42&#45;&gt;Node44</title>
<path fill="none" stroke="midnightblue" d="M426.891,-178.051C456.11,-180.073 487.882,-182.272 516.81,-184.274"/>
<polygon fill="midnightblue" stroke="midnightblue" points="516.698,-187.775 526.915,-184.973 517.181,-180.791 516.698,-187.775"/>
</g>
<!-- Node45 -->
<g id="node98" class="node"><title>Node45</title>
<a xlink:href="classParameterEditorWidget.html#a7aa54a723078ddf993b757422c141848" target="_top" xlink:title="ParameterEditorWidget::value">
<polygon fill="none" stroke="black" points="535,-140.5 535,-161.5 693,-161.5 693,-140.5 535,-140.5"/>
<text text-anchor="middle" x="614" y="-148.5" font-family="FreeSans.ttf" font-size="10.00">ParameterEditorWidget::value</text>
</a>
</g>
<!-- Node42&#45;&gt;Node45 -->
<g id="edge106" class="edge"><title>Node42&#45;&gt;Node45</title>
<path fill="none" stroke="midnightblue" d="M426.891,-163.949C458.72,-161.746 493.578,-159.334 524.49,-157.194"/>
<polygon fill="midnightblue" stroke="midnightblue" points="525.077,-160.662 534.812,-156.48 524.594,-153.679 525.077,-160.662"/>
</g>
<!-- Node47 -->
<g id="node102" class="node"><title>Node47</title>
<a xlink:href="classStatisticsDialog.html#a92316f9baf7ebe8b8b370acb9e102f98" target="_top" xlink:title="StatisticsDialog::addCaptureStats">
<polygon fill="none" stroke="red" points="524.5,-100.5 524.5,-121.5 703.5,-121.5 703.5,-100.5 524.5,-100.5"/>
<text text-anchor="middle" x="614" y="-108.5" font-family="FreeSans.ttf" font-size="10.00">StatisticsDialog::addCaptureStats</text>
</a>
</g>
<!-- Node46&#45;&gt;Node47 -->
<g id="edge110" class="edge"><title>Node46&#45;&gt;Node47</title>
<path fill="none" stroke="midnightblue" d="M414.068,-124.836C445.781,-122.641 481.694,-120.156 514.245,-117.903"/>
<polygon fill="midnightblue" stroke="midnightblue" points="514.496,-121.395 524.231,-117.212 514.013,-114.411 514.496,-121.395"/>
</g>
</g>
</svg>
        <g id="navigator" transform="translate(0 0)" fill="#404254">
                <rect fill="#f2f5e9" fill-opacity="0.5" stroke="#606060" stroke-width=".5" x="0" y="0" width="60" height="60"/>
                <use id="zoomplus" xlink:href="#zoomPlus" x="17" y="9" onmousedown="handleZoom(evt,'in')"/>
                <use id="zoomminus" xlink:href="#zoomMin" x="42" y="9" onmousedown="handleZoom(evt,'out')"/>
                <use id="reset" xlink:href="#resetDef" x="30" y="36" onmousedown="handleReset()"/>
                <g id="arrowUp" xlink:href="#dirArrow" transform="translate(30 24)" onmousedown="handlePan(0,-1)">
                  <use xlink:href="#rim" fill="#404040">
                        <set attributeName="fill" to="#808080" begin="arrowUp.mouseover" end="arrowUp.mouseout"/>
                  </use>
                  <path fill="none" stroke="white" stroke-width="1.5" d="M0,-3.0v7 M-2.5,-0.5L0,-3.0L2.5,-0.5"/>
                </g>
                <g id="arrowRight" xlink:href="#dirArrow" transform="rotate(90) translate(36 -43)" onmousedown="handlePan(1,0)">
                  <use xlink:href="#rim" fill="#404040">
                        <set attributeName="fill" to="#808080" begin="arrowRight.mouseover" end="arrowRight.mouseout"/>
                  </use>
                  <path fill="none" stroke="white" stroke-width="1.5" d="M0,-3.0v7 M-2.5,-0.5L0,-3.0L2.5,-0.5"/>
                </g>
                <g id="arrowDown" xlink:href="#dirArrow" transform="rotate(180) translate(-30 -48)" onmousedown="handlePan(0,1)">
                  <use xlink:href="#rim" fill="#404040">
                        <set attributeName="fill" to="#808080" begin="arrowDown.mouseover" end="arrowDown.mouseout"/>
                  </use>
                  <path fill="none" stroke="white" stroke-width="1.5" d="M0,-3.0v7 M-2.5,-0.5L0,-3.0L2.5,-0.5"/>
                </g>
                <g id="arrowLeft" xlink:href="#dirArrow" transform="rotate(270) translate(-36 17)" onmousedown="handlePan(-1,0)">
                  <use xlink:href="#rim" fill="#404040">
                        <set attributeName="fill" to="#808080" begin="arrowLeft.mouseover" end="arrowLeft.mouseout"/>
                  </use>
                  <path fill="none" stroke="white" stroke-width="1.5" d="M0,-3.0v7 M-2.5,-0.5L0,-3.0L2.5,-0.5"/>
                </g>
        </g>
</svg>
