<?xml version="1.0" encoding="UTF-8" standalone="no"?>
<!DOCTYPE svg PUBLIC "-//W3C//DTD SVG 1.1//EN"
 "http://www.w3.org/Graphics/SVG/1.1/DTD/svg11.dtd">
<!-- Generated by graphviz version 2.26.3 (20100126.1600)
 -->
<!-- Title: G Pages: 1 -->
<!--zoomable 128 -->
<svg id="main" version="1.1" xmlns="http://www.w3.org/2000/svg" xmlns:xlink="http://www.w3.org/1999/xlink" xml:space="preserve" onload="init(evt)">
        <defs>
                <circle id="rim" cx="0" cy="0" r="7"/>
                <circle id="rim2" cx="0" cy="0" r="3.5"/>
                <g id="zoomPlus">
                        <use xlink:href="#rim" fill="#404040">
                                <set attributeName="fill" to="#808080" begin="zoomplus.mouseover" end="zoomplus.mouseout"/>
                        </use>
                        <path d="M-4,0h8M0,-4v8" fill="none" stroke="white" stroke-width="1.5" pointer-events="none"/>
                </g>
                <g id="zoomMin">
                        <use xlink:href="#rim" fill="#404040">
                                <set attributeName="fill" to="#808080" begin="zoomminus.mouseover" end="zoomminus.mouseout"/>
                        </use>
                        <path d="M-4,0h8" fill="none" stroke="white" stroke-width="1.5" pointer-events="none"/>
                </g>
                <g id="dirArrow">
                        <path fill="none" stroke="white" stroke-width="1.5" d="M0,-3.0v7 M-2.5,-0.5L0,-3.0L2.5,-0.5"/>
                </g>
               <g id="resetDef">
                       <use xlink:href="#rim2" fill="#404040">
                               <set attributeName="fill" to="#808080" begin="reset.mouseover" end="reset.mouseout"/>
                       </use>
               </g>
        </defs>

<script type="text/javascript">
var viewWidth = 1160;
var viewHeight = 128;
var sectionId = 'dynsection-33';
</script>
<script xlink:href="svgpan.js"/>
<svg id="graph" class="graph">
<g id="viewport">
<title>G</title>
<!-- Node1 -->
<g id="node1" class="node"><title>Node1</title>
<polygon fill="#bfbfbf" stroke="black" points="0.5,-59.5215 0.5,-80.5215 245.5,-80.5215 245.5,-59.5215 0.5,-59.5215"/>
<text text-anchor="middle" x="123" y="-67.5215" font-family="FreeSans.ttf" font-size="10.00">BaseHostDialog::showDistortionCorrectorDialog</text>
</g>
<!-- Node2 -->
<g id="node3" class="node"><title>Node2</title>
<a xlink:href="classFrames.html#a574575a77ec087df67dd270caa832edc" target="_top" xlink:title="Frames::getCurrentFrame">
<polygon fill="none" stroke="black" points="285,-79.5215 285,-100.521 425,-100.521 425,-79.5215 285,-79.5215"/>
<text text-anchor="middle" x="355" y="-87.5215" font-family="FreeSans.ttf" font-size="10.00">Frames::getCurrentFrame</text>
</a>
</g>
<!-- Node1&#45;&gt;Node2 -->
<g id="edge2" class="edge"><title>Node1&#45;&gt;Node2</title>
<path fill="none" stroke="midnightblue" d="M245.115,-80.5486C255.136,-81.4125 265.095,-82.2711 274.694,-83.0986"/>
<polygon fill="midnightblue" stroke="midnightblue" points="274.69,-86.6111 284.954,-83.983 275.291,-79.637 274.69,-86.6111"/>
</g>
<!-- Node3 -->
<g id="node5" class="node"><title>Node3</title>
<a xlink:href="classDistortionWidget.html#ab0bfc379efd826ee371401cb32653b1e" target="_top" xlink:title="DistortionWidget::setBuffer">
<polygon fill="none" stroke="black" points="282.5,-39.5215 282.5,-60.5215 427.5,-60.5215 427.5,-39.5215 282.5,-39.5215"/>
<text text-anchor="middle" x="355" y="-47.5215" font-family="FreeSans.ttf" font-size="10.00">DistortionWidget::setBuffer</text>
</a>
</g>
<!-- Node1&#45;&gt;Node3 -->
<g id="edge4" class="edge"><title>Node1&#45;&gt;Node3</title>
<path fill="none" stroke="midnightblue" d="M245.115,-59.4944C254.216,-58.7098 263.267,-57.9295 272.043,-57.1729"/>
<polygon fill="midnightblue" stroke="midnightblue" points="272.543,-60.6429 282.205,-56.2969 271.942,-53.6688 272.543,-60.6429"/>
</g>
<!-- Node4 -->
<g id="node7" class="node"><title>Node4</title>
<a xlink:href="classDistortionWidget.html#a96d7805c04ab371285384eda79f0fda7" target="_top" xlink:title="DistortionWidget::showBufferChanged">
<polygon fill="none" stroke="black" points="464.5,-39.5215 464.5,-60.5215 661.5,-60.5215 661.5,-39.5215 464.5,-39.5215"/>
<text text-anchor="middle" x="563" y="-47.5215" font-family="FreeSans.ttf" font-size="10.00">DistortionWidget::showBufferChanged</text>
</a>
</g>
<!-- Node3&#45;&gt;Node4 -->
<g id="edge6" class="edge"><title>Node3&#45;&gt;Node4</title>
<path fill="none" stroke="midnightblue" d="M427.748,-50.0215C436.345,-50.0215 445.256,-50.0215 454.214,-50.0215"/>
<polygon fill="midnightblue" stroke="midnightblue" points="454.335,-53.5216 464.335,-50.0215 454.335,-46.5216 454.335,-53.5216"/>
</g>
<!-- Node5 -->
<g id="node9" class="node"><title>Node5</title>
<a xlink:href="classcorecvs_1_1AbstractContiniousBuffer.html#a34af819499a45b5dd52fefdbddefe33d" target="_top" xlink:title="This function template is responsible for applying reverse transformation to the abstract buffer...">
<polygon fill="none" stroke="black" points="698.5,-98.5215 698.5,-119.521 1001.5,-119.521 1001.5,-98.5215 698.5,-98.5215"/>
<text text-anchor="middle" x="850" y="-106.521" font-family="FreeSans.ttf" font-size="10.00">corecvs::AbstractContiniousBuffer::doReverseDeformationBl</text>
</a>
</g>
<!-- Node4&#45;&gt;Node5 -->
<g id="edge8" class="edge"><title>Node4&#45;&gt;Node5</title>
<path fill="none" stroke="midnightblue" d="M601.208,-60.5527C628.134,-67.7506 665.107,-77.1869 698,-84.0215 720.695,-88.7371 745.446,-93.1253 768.259,-96.8673"/>
<polygon fill="midnightblue" stroke="midnightblue" points="767.816,-100.341 778.247,-98.485 768.935,-93.4311 767.816,-100.341"/>
</g>
<!-- Node6 -->
<g id="node11" class="node"><title>Node6</title>
<a xlink:href="classcorecvs_1_1RadialCorrection.html#a2f5fa4ae158f8e68bb31a9179d60c8a1" target="_top" xlink:title="corecvs::RadialCorrection::map">
<polygon fill="none" stroke="black" points="767.5,-20.5215 767.5,-41.5215 932.5,-41.5215 932.5,-20.5215 767.5,-20.5215"/>
<text text-anchor="middle" x="850" y="-28.5215" font-family="FreeSans.ttf" font-size="10.00">corecvs::RadialCorrection::map</text>
</a>
</g>
<!-- Node4&#45;&gt;Node6 -->
<g id="edge10" class="edge"><title>Node4&#45;&gt;Node6</title>
<path fill="none" stroke="midnightblue" d="M661.769,-43.4828C692.653,-41.4382 726.608,-39.1903 757.075,-37.1733"/>
<polygon fill="midnightblue" stroke="midnightblue" points="757.518,-40.6518 767.265,-36.4988 757.055,-33.6671 757.518,-40.6518"/>
</g>
<!-- Node7 -->
<g id="node13" class="node"><title>Node7</title>
<a xlink:href="classcorecvs_1_1Vector2d.html#ae1ea2ad4c0821001408bf963cffa8413" target="_top" xlink:title="corecvs::Vector2d::y">
<polygon fill="none" stroke="black" points="1038.5,-49.5215 1038.5,-70.5215 1151.5,-70.5215 1151.5,-49.5215 1038.5,-49.5215"/>
<text text-anchor="middle" x="1095" y="-57.5215" font-family="FreeSans.ttf" font-size="10.00">corecvs::Vector2d::y</text>
</a>
</g>
<!-- Node4&#45;&gt;Node7 -->
<g id="edge18" class="edge"><title>Node4&#45;&gt;Node7</title>
<path fill="none" stroke="midnightblue" d="M661.507,-51.8731C768.336,-53.8812 935.929,-57.0314 1028.31,-58.768"/>
<polygon fill="midnightblue" stroke="midnightblue" points="1028.32,-62.2686 1038.38,-58.9572 1028.45,-55.2698 1028.32,-62.2686"/>
</g>
<!-- Node8 -->
<g id="node15" class="node"><title>Node8</title>
<a xlink:href="classcorecvs_1_1Vector2d.html#a944721c41f044c1388d9dc42ca899bce" target="_top" xlink:title="corecvs::Vector2d::x">
<polygon fill="none" stroke="black" points="1038.5,-0.521499 1038.5,-21.5215 1151.5,-21.5215 1151.5,-0.521499 1038.5,-0.521499"/>
<text text-anchor="middle" x="1095" y="-8.5215" font-family="FreeSans.ttf" font-size="10.00">corecvs::Vector2d::x</text>
</a>
</g>
<!-- Node4&#45;&gt;Node8 -->
<g id="edge16" class="edge"><title>Node4&#45;&gt;Node8</title>
<path fill="none" stroke="midnightblue" d="M590.938,-39.4435C617.893,-29.8418 660.076,-16.3896 698,-11.0215 813.111,5.27244 948.884,0.0944368 1028.12,-5.33392"/>
<polygon fill="midnightblue" stroke="midnightblue" points="1028.22,-8.84975 1038.44,-6.06468 1028.71,-1.86722 1028.22,-8.84975"/>
</g>
<!-- Node6&#45;&gt;Node7 -->
<g id="edge12" class="edge"><title>Node6&#45;&gt;Node7</title>
<path fill="none" stroke="midnightblue" d="M932.604,-40.7991C963.671,-44.4764 998.581,-48.6086 1028.05,-52.0967"/>
<polygon fill="midnightblue" stroke="midnightblue" points="1027.89,-55.602 1038.23,-53.3018 1028.71,-48.6506 1027.89,-55.602"/>
</g>
<!-- Node6&#45;&gt;Node8 -->
<g id="edge14" class="edge"><title>Node6&#45;&gt;Node8</title>
<path fill="none" stroke="midnightblue" d="M932.604,-24.2783C963.671,-21.7422 998.581,-18.8925 1028.05,-16.4869"/>
<polygon fill="midnightblue" stroke="midnightblue" points="1028.55,-19.9579 1038.23,-15.6557 1027.98,-12.9811 1028.55,-19.9579"/>
</g>
</g>
</svg>
        <g id="navigator" transform="translate(0 0)" fill="#404254">
                <rect fill="#f2f5e9" fill-opacity="0.5" stroke="#606060" stroke-width=".5" x="0" y="0" width="60" height="60"/>
                <use id="zoomplus" xlink:href="#zoomPlus" x="17" y="9" onmousedown="handleZoom(evt,'in')"/>
                <use id="zoomminus" xlink:href="#zoomMin" x="42" y="9" onmousedown="handleZoom(evt,'out')"/>
                <use id="reset" xlink:href="#resetDef" x="30" y="36" onmousedown="handleReset()"/>
                <g id="arrowUp" xlink:href="#dirArrow" transform="translate(30 24)" onmousedown="handlePan(0,-1)">
                  <use xlink:href="#rim" fill="#404040">
                        <set attributeName="fill" to="#808080" begin="arrowUp.mouseover" end="arrowUp.mouseout"/>
                  </use>
                  <path fill="none" stroke="white" stroke-width="1.5" d="M0,-3.0v7 M-2.5,-0.5L0,-3.0L2.5,-0.5"/>
                </g>
                <g id="arrowRight" xlink:href="#dirArrow" transform="rotate(90) translate(36 -43)" onmousedown="handlePan(1,0)">
                  <use xlink:href="#rim" fill="#404040">
                        <set attributeName="fill" to="#808080" begin="arrowRight.mouseover" end="arrowRight.mouseout"/>
                  </use>
                  <path fill="none" stroke="white" stroke-width="1.5" d="M0,-3.0v7 M-2.5,-0.5L0,-3.0L2.5,-0.5"/>
                </g>
                <g id="arrowDown" xlink:href="#dirArrow" transform="rotate(180) translate(-30 -48)" onmousedown="handlePan(0,1)">
                  <use xlink:href="#rim" fill="#404040">
                        <set attributeName="fill" to="#808080" begin="arrowDown.mouseover" end="arrowDown.mouseout"/>
                  </use>
                  <path fill="none" stroke="white" stroke-width="1.5" d="M0,-3.0v7 M-2.5,-0.5L0,-3.0L2.5,-0.5"/>
                </g>
                <g id="arrowLeft" xlink:href="#dirArrow" transform="rotate(270) translate(-36 17)" onmousedown="handlePan(-1,0)">
                  <use xlink:href="#rim" fill="#404040">
                        <set attributeName="fill" to="#808080" begin="arrowLeft.mouseover" end="arrowLeft.mouseout"/>
                  </use>
                  <path fill="none" stroke="white" stroke-width="1.5" d="M0,-3.0v7 M-2.5,-0.5L0,-3.0L2.5,-0.5"/>
                </g>
        </g>
</svg>
