<?xml version="1.0" encoding="UTF-8" standalone="no"?>
<!DOCTYPE svg PUBLIC "-//W3C//DTD SVG 1.1//EN"
 "http://www.w3.org/Graphics/SVG/1.1/DTD/svg11.dtd">
<!-- Generated by graphviz version 2.26.3 (20100126.1600)
 -->
<!-- Title: G Pages: 1 -->
<!--zoomable 228 -->
<svg id="main" version="1.1" xmlns="http://www.w3.org/2000/svg" xmlns:xlink="http://www.w3.org/1999/xlink" xml:space="preserve" onload="init(evt)">
        <defs>
                <circle id="rim" cx="0" cy="0" r="7"/>
                <circle id="rim2" cx="0" cy="0" r="3.5"/>
                <g id="zoomPlus">
                        <use xlink:href="#rim" fill="#404040">
                                <set attributeName="fill" to="#808080" begin="zoomplus.mouseover" end="zoomplus.mouseout"/>
                        </use>
                        <path d="M-4,0h8M0,-4v8" fill="none" stroke="white" stroke-width="1.5" pointer-events="none"/>
                </g>
                <g id="zoomMin">
                        <use xlink:href="#rim" fill="#404040">
                                <set attributeName="fill" to="#808080" begin="zoomminus.mouseover" end="zoomminus.mouseout"/>
                        </use>
                        <path d="M-4,0h8" fill="none" stroke="white" stroke-width="1.5" pointer-events="none"/>
                </g>
                <g id="dirArrow">
                        <path fill="none" stroke="white" stroke-width="1.5" d="M0,-3.0v7 M-2.5,-0.5L0,-3.0L2.5,-0.5"/>
                </g>
               <g id="resetDef">
                       <use xlink:href="#rim2" fill="#404040">
                               <set attributeName="fill" to="#808080" begin="reset.mouseover" end="reset.mouseout"/>
                       </use>
               </g>
        </defs>

<script type="text/javascript">
var viewWidth = 976;
var viewHeight = 228;
var sectionId = 'dynsection-5';
</script>
<script xlink:href="svgpan.js"/>
<svg id="graph" class="graph">
<g id="viewport">
<title>G</title>
<!-- Node1 -->
<g id="node1" class="node"><title>Node1</title>
<polygon fill="#bfbfbf" stroke="black" points="0.5,-118.5 0.5,-139.5 283.5,-139.5 283.5,-118.5 0.5,-118.5"/>
<text text-anchor="middle" x="142" y="-126.5" font-family="FreeSans.ttf" font-size="10.00">DirectShowCaptureDecoupleInterface::memberCallback</text>
</g>
<!-- Node2 -->
<g id="node3" class="node"><title>Node2</title>
<a xlink:href="classImageCaptureInterface.html#ad345e61b1b9e5837ef7ef788a09f1089" target="_top" xlink:title="ImageCaptureInterface::newFrameReady">
<polygon fill="none" stroke="black" points="327,-198.5 327,-219.5 537,-219.5 537,-198.5 327,-198.5"/>
<text text-anchor="middle" x="432" y="-206.5" font-family="FreeSans.ttf" font-size="10.00">ImageCaptureInterface::newFrameReady</text>
</a>
</g>
<!-- Node1&#45;&gt;Node2 -->
<g id="edge2" class="edge"><title>Node1&#45;&gt;Node2</title>
<path fill="none" stroke="midnightblue" d="M169.066,-139.528C203.632,-152.646 265.507,-175.033 320,-189 330.877,-191.788 342.446,-194.324 353.864,-196.582"/>
<polygon fill="midnightblue" stroke="midnightblue" points="353.357,-200.049 363.837,-198.495 354.675,-193.174 353.357,-200.049"/>
</g>
<!-- Node3 -->
<g id="node5" class="node"><title>Node3</title>
<a xlink:href="classImageCaptureInterface.html#a9f388e5583e5c13086aa9a7d3b1cfb36" target="_top" xlink:title="ImageCaptureInterface::newStatisticsReady">
<polygon fill="none" stroke="black" points="320,-158.5 320,-179.5 544,-179.5 544,-158.5 320,-158.5"/>
<text text-anchor="middle" x="432" y="-166.5" font-family="FreeSans.ttf" font-size="10.00">ImageCaptureInterface::newStatisticsReady</text>
</a>
</g>
<!-- Node1&#45;&gt;Node3 -->
<g id="edge4" class="edge"><title>Node1&#45;&gt;Node3</title>
<path fill="none" stroke="midnightblue" d="M218.194,-139.51C257.335,-144.908 305.183,-151.508 345.683,-157.094"/>
<polygon fill="midnightblue" stroke="midnightblue" points="345.427,-160.592 355.812,-158.491 346.384,-153.658 345.427,-160.592"/>
</g>
<!-- Node4 -->
<g id="node7" class="node"><title>Node4</title>
<a xlink:href="namespacecorecvs.html#a508ef06ed83b093b2380fac8d964d694" target="_top" xlink:title="corecvs::roundDivUp">
<polygon fill="none" stroke="black" points="374,-118.5 374,-139.5 490,-139.5 490,-118.5 374,-118.5"/>
<text text-anchor="middle" x="432" y="-126.5" font-family="FreeSans.ttf" font-size="10.00">corecvs::roundDivUp</text>
</a>
</g>
<!-- Node1&#45;&gt;Node4 -->
<g id="edge6" class="edge"><title>Node1&#45;&gt;Node4</title>
<path fill="none" stroke="midnightblue" d="M283.602,-129C311.531,-129 339.628,-129 363.746,-129"/>
<polygon fill="midnightblue" stroke="midnightblue" points="363.826,-132.5 373.826,-129 363.826,-125.5 363.826,-132.5"/>
</g>
<!-- Node5 -->
<g id="node9" class="node"><title>Node5</title>
<a xlink:href="classcorecvs_1_1PreciseTimer.html#aeefca9626ed0efb419d7479f5d758966" target="_top" xlink:title="corecvs::PreciseTimer::usecsTo">
<polygon fill="none" stroke="black" points="591,-80.5 591,-101.5 755,-101.5 755,-80.5 591,-80.5"/>
<text text-anchor="middle" x="673" y="-88.5" font-family="FreeSans.ttf" font-size="10.00">corecvs::PreciseTimer::usecsTo</text>
</a>
</g>
<!-- Node1&#45;&gt;Node5 -->
<g id="edge8" class="edge"><title>Node1&#45;&gt;Node5</title>
<path fill="none" stroke="midnightblue" d="M226.106,-118.485C255.744,-115.062 289.316,-111.504 320,-109 408.316,-101.794 509.312,-96.9899 580.585,-94.1712"/>
<polygon fill="midnightblue" stroke="midnightblue" points="581.024,-97.6569 590.88,-93.7697 580.751,-90.6622 581.024,-97.6569"/>
</g>
<!-- Node6 -->
<g id="node11" class="node"><title>Node6</title>
<a xlink:href="classcorecvs_1_1PreciseTimer.html#af4f2392d369963a6786d28754d626d1b" target="_top" xlink:title="corecvs::PreciseTimer::usecsToNow">
<polygon fill="none" stroke="black" points="339.5,-40.5 339.5,-61.5 524.5,-61.5 524.5,-40.5 339.5,-40.5"/>
<text text-anchor="middle" x="432" y="-48.5" font-family="FreeSans.ttf" font-size="10.00">corecvs::PreciseTimer::usecsToNow</text>
</a>
</g>
<!-- Node1&#45;&gt;Node6 -->
<g id="edge10" class="edge"><title>Node1&#45;&gt;Node6</title>
<path fill="none" stroke="midnightblue" d="M174.941,-118.44C210.524,-107.21 268.98,-89.2726 320,-76 336.526,-71.7008 354.541,-67.478 371.195,-63.7624"/>
<polygon fill="midnightblue" stroke="midnightblue" points="372.352,-67.0912 381.363,-61.5183 370.844,-60.2557 372.352,-67.0912"/>
</g>
<!-- Node6&#45;&gt;Node5 -->
<g id="edge14" class="edge"><title>Node6&#45;&gt;Node5</title>
<path fill="none" stroke="midnightblue" d="M495.32,-61.5095C527.296,-66.8167 566.265,-73.2846 599.551,-78.8093"/>
<polygon fill="midnightblue" stroke="midnightblue" points="599.247,-82.3066 609.685,-80.4913 600.393,-75.4011 599.247,-82.3066"/>
</g>
<!-- Node7 -->
<g id="node13" class="node"><title>Node7</title>
<a xlink:href="classcorecvs_1_1PreciseTimer.html#ab6fc71ad27d7bb8ed8fed6b837ac3065" target="_top" xlink:title="corecvs::PreciseTimer::isCorrect">
<polygon fill="none" stroke="black" points="588,-40.5 588,-61.5 758,-61.5 758,-40.5 588,-40.5"/>
<text text-anchor="middle" x="673" y="-48.5" font-family="FreeSans.ttf" font-size="10.00">corecvs::PreciseTimer::isCorrect</text>
</a>
</g>
<!-- Node6&#45;&gt;Node7 -->
<g id="edge12" class="edge"><title>Node6&#45;&gt;Node7</title>
<path fill="none" stroke="midnightblue" d="M524.832,-51C542.124,-51 560.219,-51 577.587,-51"/>
<polygon fill="midnightblue" stroke="midnightblue" points="577.717,-54.5001 587.717,-51 577.717,-47.5001 577.717,-54.5001"/>
</g>
<!-- Node8 -->
<g id="node16" class="node"><title>Node8</title>
<a xlink:href="classcorecvs_1_1PreciseTimer.html#ab96fc33330e59dc25e1965d692dcb3f9" target="_top" xlink:title="corecvs::PreciseTimer::currentTime">
<polygon fill="none" stroke="black" points="580.5,-0.5 580.5,-21.5 765.5,-21.5 765.5,-0.5 580.5,-0.5"/>
<text text-anchor="middle" x="673" y="-8.5" font-family="FreeSans.ttf" font-size="10.00">corecvs::PreciseTimer::currentTime</text>
</a>
</g>
<!-- Node6&#45;&gt;Node8 -->
<g id="edge16" class="edge"><title>Node6&#45;&gt;Node8</title>
<path fill="none" stroke="midnightblue" d="M495.32,-40.4905C527.296,-35.1833 566.265,-28.7154 599.551,-23.1907"/>
<polygon fill="midnightblue" stroke="midnightblue" points="600.393,-26.5989 609.685,-21.5087 599.247,-19.6934 600.393,-26.5989"/>
</g>
<!-- Node9 -->
<g id="node18" class="node"><title>Node9</title>
<a xlink:href="classcorecvs_1_1PreciseTimer.html#a8426a1a35d70c5da82bf027bfb1bee69" target="_top" xlink:title="corecvs::PreciseTimer::setTime">
<polygon fill="none" stroke="black" points="802.5,-0.5 802.5,-21.5 967.5,-21.5 967.5,-0.5 802.5,-0.5"/>
<text text-anchor="middle" x="885" y="-8.5" font-family="FreeSans.ttf" font-size="10.00">corecvs::PreciseTimer::setTime</text>
</a>
</g>
<!-- Node8&#45;&gt;Node9 -->
<g id="edge18" class="edge"><title>Node8&#45;&gt;Node9</title>
<path fill="none" stroke="midnightblue" d="M765.678,-11C774.407,-11 783.258,-11 791.99,-11"/>
<polygon fill="midnightblue" stroke="midnightblue" points="792.171,-14.5001 802.171,-11 792.171,-7.5001 792.171,-14.5001"/>
</g>
</g>
</svg>
        <g id="navigator" transform="translate(0 0)" fill="#404254">
                <rect fill="#f2f5e9" fill-opacity="0.5" stroke="#606060" stroke-width=".5" x="0" y="0" width="60" height="60"/>
                <use id="zoomplus" xlink:href="#zoomPlus" x="17" y="9" onmousedown="handleZoom(evt,'in')"/>
                <use id="zoomminus" xlink:href="#zoomMin" x="42" y="9" onmousedown="handleZoom(evt,'out')"/>
                <use id="reset" xlink:href="#resetDef" x="30" y="36" onmousedown="handleReset()"/>
                <g id="arrowUp" xlink:href="#dirArrow" transform="translate(30 24)" onmousedown="handlePan(0,-1)">
                  <use xlink:href="#rim" fill="#404040">
                        <set attributeName="fill" to="#808080" begin="arrowUp.mouseover" end="arrowUp.mouseout"/>
                  </use>
                  <path fill="none" stroke="white" stroke-width="1.5" d="M0,-3.0v7 M-2.5,-0.5L0,-3.0L2.5,-0.5"/>
                </g>
                <g id="arrowRight" xlink:href="#dirArrow" transform="rotate(90) translate(36 -43)" onmousedown="handlePan(1,0)">
                  <use xlink:href="#rim" fill="#404040">
                        <set attributeName="fill" to="#808080" begin="arrowRight.mouseover" end="arrowRight.mouseout"/>
                  </use>
                  <path fill="none" stroke="white" stroke-width="1.5" d="M0,-3.0v7 M-2.5,-0.5L0,-3.0L2.5,-0.5"/>
                </g>
                <g id="arrowDown" xlink:href="#dirArrow" transform="rotate(180) translate(-30 -48)" onmousedown="handlePan(0,1)">
                  <use xlink:href="#rim" fill="#404040">
                        <set attributeName="fill" to="#808080" begin="arrowDown.mouseover" end="arrowDown.mouseout"/>
                  </use>
                  <path fill="none" stroke="white" stroke-width="1.5" d="M0,-3.0v7 M-2.5,-0.5L0,-3.0L2.5,-0.5"/>
                </g>
                <g id="arrowLeft" xlink:href="#dirArrow" transform="rotate(270) translate(-36 17)" onmousedown="handlePan(-1,0)">
                  <use xlink:href="#rim" fill="#404040">
                        <set attributeName="fill" to="#808080" begin="arrowLeft.mouseover" end="arrowLeft.mouseout"/>
                  </use>
                  <path fill="none" stroke="white" stroke-width="1.5" d="M0,-3.0v7 M-2.5,-0.5L0,-3.0L2.5,-0.5"/>
                </g>
        </g>
</svg>
