<?xml version="1.0" encoding="UTF-8" standalone="no"?>
<!DOCTYPE svg PUBLIC "-//W3C//DTD SVG 1.1//EN"
 "http://www.w3.org/Graphics/SVG/1.1/DTD/svg11.dtd">
<!-- Generated by graphviz version 2.26.3 (20100126.1600)
 -->
<!-- Title: G Pages: 1 -->
<svg width="306pt" height="110pt"
 viewBox="0.00 0.00 306.00 110.00" xmlns="http://www.w3.org/2000/svg" xmlns:xlink="http://www.w3.org/1999/xlink">
<g id="graph1" class="graph" transform="scale(1 1) rotate(0) translate(4 106)">
<title>G</title>
<!-- Node1 -->
<g id="node1" class="node"><title>Node1</title>
<polygon fill="#bfbfbf" stroke="black" points="0,-40.5 0,-61.5 146,-61.5 146,-40.5 0,-40.5"/>
<text text-anchor="middle" x="73" y="-48.5" font-family="FreeSans.ttf" font-size="10.00">corecvs::RGBColor::luma12</text>
</g>
<!-- Node2 -->
<g id="node3" class="node"><title>Node2</title>
<a xlink:href="classcorecvs_1_1RGBColor.html#a28d1778710e5ade8ab275f8ef03cdaec" target="_top" xlink:title="corecvs::RGBColor::b">
<polygon fill="none" stroke="black" points="182,-80.5 182,-101.5 298,-101.5 298,-80.5 182,-80.5"/>
<text text-anchor="middle" x="240" y="-88.5" font-family="FreeSans.ttf" font-size="10.00">corecvs::RGBColor::b</text>
</a>
</g>
<!-- Node1&#45;&gt;Node2 -->
<g id="edge2" class="edge"><title>Node1&#45;&gt;Node2</title>
<path fill="none" stroke="midnightblue" d="M116.877,-61.5095C138.08,-66.588 163.719,-72.7292 186.1,-78.0898"/>
<polygon fill="midnightblue" stroke="midnightblue" points="185.586,-81.5656 196.126,-80.4913 187.216,-74.7582 185.586,-81.5656"/>
</g>
<!-- Node3 -->
<g id="node5" class="node"><title>Node3</title>
<a xlink:href="classcorecvs_1_1RGBColor.html#a61bb42ad3c5af64582ba22408e8bc5c4" target="_top" xlink:title="corecvs::RGBColor::g">
<polygon fill="none" stroke="black" points="182,-40.5 182,-61.5 298,-61.5 298,-40.5 182,-40.5"/>
<text text-anchor="middle" x="240" y="-48.5" font-family="FreeSans.ttf" font-size="10.00">corecvs::RGBColor::g</text>
</a>
</g>
<!-- Node1&#45;&gt;Node3 -->
<g id="edge4" class="edge"><title>Node1&#45;&gt;Node3</title>
<path fill="none" stroke="midnightblue" d="M146.249,-51C154.722,-51 163.339,-51 171.742,-51"/>
<polygon fill="midnightblue" stroke="midnightblue" points="171.863,-54.5001 181.863,-51 171.863,-47.5001 171.863,-54.5001"/>
</g>
<!-- Node4 -->
<g id="node7" class="node"><title>Node4</title>
<a xlink:href="classcorecvs_1_1RGBColor.html#a551378cc4e40775286d1200a21e3dfbc" target="_top" xlink:title="corecvs::RGBColor::r">
<polygon fill="none" stroke="black" points="183,-0.5 183,-21.5 297,-21.5 297,-0.5 183,-0.5"/>
<text text-anchor="middle" x="240" y="-8.5" font-family="FreeSans.ttf" font-size="10.00">corecvs::RGBColor::r</text>
</a>
</g>
<!-- Node1&#45;&gt;Node4 -->
<g id="edge6" class="edge"><title>Node1&#45;&gt;Node4</title>
<path fill="none" stroke="midnightblue" d="M116.877,-40.4905C138.08,-35.412 163.719,-29.2708 186.1,-23.9102"/>
<polygon fill="midnightblue" stroke="midnightblue" points="187.216,-27.2418 196.126,-21.5087 185.586,-20.4344 187.216,-27.2418"/>
</g>
</g>
</svg>
