<?xml version="1.0" encoding="UTF-8" standalone="no"?>
<!DOCTYPE svg PUBLIC "-//W3C//DTD SVG 1.1//EN"
 "http://www.w3.org/Graphics/SVG/1.1/DTD/svg11.dtd">
<!-- Generated by graphviz version 2.26.3 (20100126.1600)
 -->
<!-- Title: G Pages: 1 -->
<!--zoomable 150 -->
<svg id="main" version="1.1" xmlns="http://www.w3.org/2000/svg" xmlns:xlink="http://www.w3.org/1999/xlink" xml:space="preserve" onload="init(evt)">
        <defs>
                <circle id="rim" cx="0" cy="0" r="7"/>
                <circle id="rim2" cx="0" cy="0" r="3.5"/>
                <g id="zoomPlus">
                        <use xlink:href="#rim" fill="#404040">
                                <set attributeName="fill" to="#808080" begin="zoomplus.mouseover" end="zoomplus.mouseout"/>
                        </use>
                        <path d="M-4,0h8M0,-4v8" fill="none" stroke="white" stroke-width="1.5" pointer-events="none"/>
                </g>
                <g id="zoomMin">
                        <use xlink:href="#rim" fill="#404040">
                                <set attributeName="fill" to="#808080" begin="zoomminus.mouseover" end="zoomminus.mouseout"/>
                        </use>
                        <path d="M-4,0h8" fill="none" stroke="white" stroke-width="1.5" pointer-events="none"/>
                </g>
                <g id="dirArrow">
                        <path fill="none" stroke="white" stroke-width="1.5" d="M0,-3.0v7 M-2.5,-0.5L0,-3.0L2.5,-0.5"/>
                </g>
               <g id="resetDef">
                       <use xlink:href="#rim2" fill="#404040">
                               <set attributeName="fill" to="#808080" begin="reset.mouseover" end="reset.mouseout"/>
                       </use>
               </g>
        </defs>

<script type="text/javascript">
var viewWidth = 544;
var viewHeight = 150;
var sectionId = 'dynsection-6';
</script>
<script xlink:href="svgpan.js"/>
<svg id="graph" class="graph">
<g id="viewport">
<title>G</title>
<!-- Node1 -->
<g id="node1" class="node"><title>Node1</title>
<polygon fill="#bfbfbf" stroke="black" points="0.5,-60.5 0.5,-81.5 245.5,-81.5 245.5,-60.5 0.5,-60.5"/>
<text text-anchor="middle" x="123" y="-68.5" font-family="FreeSans.ttf" font-size="10.00">CannyParametersControlWidget::setParameters</text>
</g>
<!-- Node2 -->
<g id="node3" class="node"><title>Node2</title>
<a xlink:href="classCannyParameters.html#a3b01f7d59586dc7b6bd5444ec53d3b4f" target="_top" xlink:title="CannyParameters::maximumThreshold">
<polygon fill="none" stroke="black" points="307.5,-120.5 307.5,-141.5 510.5,-141.5 510.5,-120.5 307.5,-120.5"/>
<text text-anchor="middle" x="409" y="-128.5" font-family="FreeSans.ttf" font-size="10.00">CannyParameters::maximumThreshold</text>
</a>
</g>
<!-- Node1&#45;&gt;Node2 -->
<g id="edge2" class="edge"><title>Node1&#45;&gt;Node2</title>
<path fill="none" stroke="midnightblue" d="M160.689,-81.503C192.768,-90.1965 240.166,-102.462 282,-111 295.86,-113.829 310.641,-116.483 325.037,-118.875"/>
<polygon fill="midnightblue" stroke="midnightblue" points="324.493,-122.332 334.926,-120.488 325.62,-115.424 324.493,-122.332"/>
</g>
<!-- Node3 -->
<g id="node5" class="node"><title>Node3</title>
<a xlink:href="classCannyParameters.html#a61953535eaf7aa2076c193ca9316ab8e" target="_top" xlink:title="CannyParameters::minimumThreshold">
<polygon fill="none" stroke="black" points="309,-80.5 309,-101.5 509,-101.5 509,-80.5 309,-80.5"/>
<text text-anchor="middle" x="409" y="-88.5" font-family="FreeSans.ttf" font-size="10.00">CannyParameters::minimumThreshold</text>
</a>
</g>
<!-- Node1&#45;&gt;Node3 -->
<g id="edge4" class="edge"><title>Node1&#45;&gt;Node3</title>
<path fill="none" stroke="midnightblue" d="M245.534,-79.5688C263.151,-80.8008 281.191,-82.0623 298.554,-83.2765"/>
<polygon fill="midnightblue" stroke="midnightblue" points="298.471,-86.7792 308.691,-83.9854 298.959,-79.7962 298.471,-86.7792"/>
</g>
<!-- Node4 -->
<g id="node7" class="node"><title>Node4</title>
<a xlink:href="classCannyParametersControlWidget.html#a6e319ee8d8b3182092e453d0ea55f525" target="_top" xlink:title="CannyParametersControlWidget::paramsChanged">
<polygon fill="none" stroke="black" points="282,-40.5 282,-61.5 536,-61.5 536,-40.5 282,-40.5"/>
<text text-anchor="middle" x="409" y="-48.5" font-family="FreeSans.ttf" font-size="10.00">CannyParametersControlWidget::paramsChanged</text>
</a>
</g>
<!-- Node1&#45;&gt;Node4 -->
<g id="edge6" class="edge"><title>Node1&#45;&gt;Node4</title>
<path fill="none" stroke="midnightblue" d="M245.534,-62.4312C254.143,-61.8292 262.853,-61.2201 271.535,-60.6129"/>
<polygon fill="midnightblue" stroke="midnightblue" points="271.976,-64.0907 281.708,-59.9016 271.488,-57.1078 271.976,-64.0907"/>
</g>
<!-- Node5 -->
<g id="node9" class="node"><title>Node5</title>
<a xlink:href="classCannyParameters.html#a61d10d6375d3f297b9b5395bc78e9de5" target="_top" xlink:title="CannyParameters::shouldEdgeDetect">
<polygon fill="none" stroke="black" points="311,-0.5 311,-21.5 507,-21.5 507,-0.5 311,-0.5"/>
<text text-anchor="middle" x="409" y="-8.5" font-family="FreeSans.ttf" font-size="10.00">CannyParameters::shouldEdgeDetect</text>
</a>
</g>
<!-- Node1&#45;&gt;Node5 -->
<g id="edge8" class="edge"><title>Node1&#45;&gt;Node5</title>
<path fill="none" stroke="midnightblue" d="M160.689,-60.497C192.768,-51.8035 240.166,-39.538 282,-31 295.86,-28.1713 310.641,-25.5175 325.037,-23.1252"/>
<polygon fill="midnightblue" stroke="midnightblue" points="325.62,-26.5764 334.926,-21.5119 324.493,-19.6677 325.62,-26.5764"/>
</g>
</g>
</svg>
        <g id="navigator" transform="translate(0 0)" fill="#404254">
                <rect fill="#f2f5e9" fill-opacity="0.5" stroke="#606060" stroke-width=".5" x="0" y="0" width="60" height="60"/>
                <use id="zoomplus" xlink:href="#zoomPlus" x="17" y="9" onmousedown="handleZoom(evt,'in')"/>
                <use id="zoomminus" xlink:href="#zoomMin" x="42" y="9" onmousedown="handleZoom(evt,'out')"/>
                <use id="reset" xlink:href="#resetDef" x="30" y="36" onmousedown="handleReset()"/>
                <g id="arrowUp" xlink:href="#dirArrow" transform="translate(30 24)" onmousedown="handlePan(0,-1)">
                  <use xlink:href="#rim" fill="#404040">
                        <set attributeName="fill" to="#808080" begin="arrowUp.mouseover" end="arrowUp.mouseout"/>
                  </use>
                  <path fill="none" stroke="white" stroke-width="1.5" d="M0,-3.0v7 M-2.5,-0.5L0,-3.0L2.5,-0.5"/>
                </g>
                <g id="arrowRight" xlink:href="#dirArrow" transform="rotate(90) translate(36 -43)" onmousedown="handlePan(1,0)">
                  <use xlink:href="#rim" fill="#404040">
                        <set attributeName="fill" to="#808080" begin="arrowRight.mouseover" end="arrowRight.mouseout"/>
                  </use>
                  <path fill="none" stroke="white" stroke-width="1.5" d="M0,-3.0v7 M-2.5,-0.5L0,-3.0L2.5,-0.5"/>
                </g>
                <g id="arrowDown" xlink:href="#dirArrow" transform="rotate(180) translate(-30 -48)" onmousedown="handlePan(0,1)">
                  <use xlink:href="#rim" fill="#404040">
                        <set attributeName="fill" to="#808080" begin="arrowDown.mouseover" end="arrowDown.mouseout"/>
                  </use>
                  <path fill="none" stroke="white" stroke-width="1.5" d="M0,-3.0v7 M-2.5,-0.5L0,-3.0L2.5,-0.5"/>
                </g>
                <g id="arrowLeft" xlink:href="#dirArrow" transform="rotate(270) translate(-36 17)" onmousedown="handlePan(-1,0)">
                  <use xlink:href="#rim" fill="#404040">
                        <set attributeName="fill" to="#808080" begin="arrowLeft.mouseover" end="arrowLeft.mouseout"/>
                  </use>
                  <path fill="none" stroke="white" stroke-width="1.5" d="M0,-3.0v7 M-2.5,-0.5L0,-3.0L2.5,-0.5"/>
                </g>
        </g>
</svg>
