<?xml version="1.0" encoding="UTF-8" standalone="no"?>
<!DOCTYPE svg PUBLIC "-//W3C//DTD SVG 1.1//EN"
 "http://www.w3.org/Graphics/SVG/1.1/DTD/svg11.dtd">
<!-- Generated by graphviz version 2.26.3 (20100126.1600)
 -->
<!-- Title: G Pages: 1 -->
<!--zoomable 230 -->
<svg id="main" version="1.1" xmlns="http://www.w3.org/2000/svg" xmlns:xlink="http://www.w3.org/1999/xlink" xml:space="preserve" onload="init(evt)">
        <defs>
                <circle id="rim" cx="0" cy="0" r="7"/>
                <circle id="rim2" cx="0" cy="0" r="3.5"/>
                <g id="zoomPlus">
                        <use xlink:href="#rim" fill="#404040">
                                <set attributeName="fill" to="#808080" begin="zoomplus.mouseover" end="zoomplus.mouseout"/>
                        </use>
                        <path d="M-4,0h8M0,-4v8" fill="none" stroke="white" stroke-width="1.5" pointer-events="none"/>
                </g>
                <g id="zoomMin">
                        <use xlink:href="#rim" fill="#404040">
                                <set attributeName="fill" to="#808080" begin="zoomminus.mouseover" end="zoomminus.mouseout"/>
                        </use>
                        <path d="M-4,0h8" fill="none" stroke="white" stroke-width="1.5" pointer-events="none"/>
                </g>
                <g id="dirArrow">
                        <path fill="none" stroke="white" stroke-width="1.5" d="M0,-3.0v7 M-2.5,-0.5L0,-3.0L2.5,-0.5"/>
                </g>
               <g id="resetDef">
                       <use xlink:href="#rim2" fill="#404040">
                               <set attributeName="fill" to="#808080" begin="reset.mouseover" end="reset.mouseout"/>
                       </use>
               </g>
        </defs>

<script type="text/javascript">
var viewWidth = 1022;
var viewHeight = 230;
var sectionId = 'dynsection-3';
</script>
<script xlink:href="svgpan.js"/>
<svg id="graph" class="graph">
<g id="viewport">
<title>G</title>
<!-- Node1 -->
<g id="node1" class="node"><title>Node1</title>
<polygon fill="#bfbfbf" stroke="black" points="0,-100.5 0,-121.5 354,-121.5 354,-100.5 0,-100.5"/>
<text text-anchor="middle" x="177" y="-108.5" font-family="FreeSans.ttf" font-size="10.00">ParametersMapperRecorder::setPresentationParametersControlWidget</text>
</g>
<!-- Node2 -->
<g id="node3" class="node"><title>Node2</title>
<a xlink:href="classParametersMapperRecorder.html#a362210c821614fe527580135e032704d" target="_top" xlink:title="ParametersMapperRecorder::paramsChanged">
<polygon fill="none" stroke="black" points="390,-100.5 390,-121.5 626,-121.5 626,-100.5 390,-100.5"/>
<text text-anchor="middle" x="508" y="-108.5" font-family="FreeSans.ttf" font-size="10.00">ParametersMapperRecorder::paramsChanged</text>
</a>
</g>
<!-- Node1&#45;&gt;Node2 -->
<g id="edge2" class="edge"><title>Node1&#45;&gt;Node2</title>
<path fill="none" stroke="midnightblue" d="M354.128,-111C362.652,-111 371.134,-111 379.484,-111"/>
<polygon fill="midnightblue" stroke="midnightblue" points="379.597,-114.5 389.597,-111 379.597,-107.5 379.597,-114.5"/>
</g>
<!-- Node3 -->
<g id="node5" class="node"><title>Node3</title>
<a xlink:href="classParametersMapperRecorder.html#afa77f9bcf94386bca0babfda14de9644" target="_top" xlink:title="ParametersMapperRecorder::baseParametersParamsChanged">
<polygon fill="none" stroke="black" points="681,-200.5 681,-221.5 995,-221.5 995,-200.5 681,-200.5"/>
<text text-anchor="middle" x="838" y="-208.5" font-family="FreeSans.ttf" font-size="10.00">ParametersMapperRecorder::baseParametersParamsChanged</text>
</a>
</g>
<!-- Node2&#45;&gt;Node3 -->
<g id="edge4" class="edge"><title>Node2&#45;&gt;Node3</title>
<path fill="none" stroke="midnightblue" d="M523.788,-121.719C550.779,-139.45 608.112,-174.559 662,-191 671.376,-193.861 681.145,-196.319 691.065,-198.431"/>
<polygon fill="midnightblue" stroke="midnightblue" points="690.533,-201.893 701.026,-200.429 691.91,-195.03 690.533,-201.893"/>
</g>
<!-- Node4 -->
<g id="node7" class="node"><title>Node4</title>
<a xlink:href="classPresentationParametersControlWidget.html#a01c57bfad35e1d77e5a86ba34504111a" target="_top" xlink:title="PresentationParametersControlWidget::createParameters">
<polygon fill="none" stroke="black" points="692,-160.5 692,-181.5 984,-181.5 984,-160.5 692,-160.5"/>
<text text-anchor="middle" x="838" y="-168.5" font-family="FreeSans.ttf" font-size="10.00">PresentationParametersControlWidget::createParameters</text>
</a>
</g>
<!-- Node2&#45;&gt;Node4 -->
<g id="edge6" class="edge"><title>Node2&#45;&gt;Node4</title>
<path fill="none" stroke="midnightblue" d="M542.853,-121.556C573.862,-130.585 620.583,-143.308 662,-151 678.808,-154.122 696.615,-156.831 714.195,-159.159"/>
<polygon fill="midnightblue" stroke="midnightblue" points="714.145,-162.681 724.51,-160.486 715.039,-155.739 714.145,-162.681"/>
</g>
<!-- Node5 -->
<g id="node9" class="node"><title>Node5</title>
<a xlink:href="classBaseParametersControlWidget.html#a5c0b1ba7a11bfea38673cd30bc4a590a" target="_top" xlink:title="BaseParametersControlWidget::createParameters">
<polygon fill="none" stroke="black" points="710.5,-120.5 710.5,-141.5 965.5,-141.5 965.5,-120.5 710.5,-120.5"/>
<text text-anchor="middle" x="838" y="-128.5" font-family="FreeSans.ttf" font-size="10.00">BaseParametersControlWidget::createParameters</text>
</a>
</g>
<!-- Node2&#45;&gt;Node5 -->
<g id="edge8" class="edge"><title>Node2&#45;&gt;Node5</title>
<path fill="none" stroke="midnightblue" d="M626.205,-118.164C650.181,-119.617 675.594,-121.157 700.178,-122.647"/>
<polygon fill="midnightblue" stroke="midnightblue" points="700.094,-126.148 710.287,-123.26 700.517,-119.161 700.094,-126.148"/>
</g>
<!-- Node6 -->
<g id="node11" class="node"><title>Node6</title>
<a xlink:href="classRecorderControlWidget.html#ac2b2cc0e80869e9ccc9d99e2510e7695" target="_top" xlink:title="RecorderControlWidget::createParameters">
<polygon fill="none" stroke="black" points="729,-80.5 729,-101.5 947,-101.5 947,-80.5 729,-80.5"/>
<text text-anchor="middle" x="838" y="-88.5" font-family="FreeSans.ttf" font-size="10.00">RecorderControlWidget::createParameters</text>
</a>
</g>
<!-- Node2&#45;&gt;Node6 -->
<g id="edge10" class="edge"><title>Node2&#45;&gt;Node6</title>
<path fill="none" stroke="midnightblue" d="M626.205,-103.836C656.28,-102.013 688.616,-100.054 718.743,-98.2277"/>
<polygon fill="midnightblue" stroke="midnightblue" points="719.098,-101.713 728.868,-97.614 718.675,-94.7255 719.098,-101.713"/>
</g>
<!-- Node7 -->
<g id="node13" class="node"><title>Node7</title>
<a xlink:href="classParametersMapperRecorder.html#a71be83684e2844125af3afb00a8852c5" target="_top" xlink:title="ParametersMapperRecorder::presentationParametersParamsChanged">
<polygon fill="none" stroke="black" points="662.5,-40.5 662.5,-61.5 1013.5,-61.5 1013.5,-40.5 662.5,-40.5"/>
<text text-anchor="middle" x="838" y="-48.5" font-family="FreeSans.ttf" font-size="10.00">ParametersMapperRecorder::presentationParametersParamsChanged</text>
</a>
</g>
<!-- Node2&#45;&gt;Node7 -->
<g id="edge12" class="edge"><title>Node2&#45;&gt;Node7</title>
<path fill="none" stroke="midnightblue" d="M542.853,-100.444C573.862,-91.4145 620.583,-78.6924 662,-71 678.808,-67.8783 696.615,-65.1693 714.195,-62.8409"/>
<polygon fill="midnightblue" stroke="midnightblue" points="715.039,-66.2613 724.51,-61.5138 714.145,-59.3185 715.039,-66.2613"/>
</g>
<!-- Node8 -->
<g id="node15" class="node"><title>Node8</title>
<a xlink:href="classParametersMapperRecorder.html#a50c990d0728d2d5c6dafc6926e80e30e" target="_top" xlink:title="ParametersMapperRecorder::recorderParamsChanged">
<polygon fill="none" stroke="black" points="700.5,-0.5 700.5,-21.5 975.5,-21.5 975.5,-0.5 700.5,-0.5"/>
<text text-anchor="middle" x="838" y="-8.5" font-family="FreeSans.ttf" font-size="10.00">ParametersMapperRecorder::recorderParamsChanged</text>
</a>
</g>
<!-- Node2&#45;&gt;Node8 -->
<g id="edge14" class="edge"><title>Node2&#45;&gt;Node8</title>
<path fill="none" stroke="midnightblue" d="M523.788,-100.281C550.779,-82.5496 608.112,-47.4413 662,-31 671.376,-28.1395 681.145,-25.6812 691.065,-23.5695"/>
<polygon fill="midnightblue" stroke="midnightblue" points="691.91,-26.9698 701.026,-21.5711 690.533,-20.1066 691.91,-26.9698"/>
</g>
</g>
</svg>
        <g id="navigator" transform="translate(0 0)" fill="#404254">
                <rect fill="#f2f5e9" fill-opacity="0.5" stroke="#606060" stroke-width=".5" x="0" y="0" width="60" height="60"/>
                <use id="zoomplus" xlink:href="#zoomPlus" x="17" y="9" onmousedown="handleZoom(evt,'in')"/>
                <use id="zoomminus" xlink:href="#zoomMin" x="42" y="9" onmousedown="handleZoom(evt,'out')"/>
                <use id="reset" xlink:href="#resetDef" x="30" y="36" onmousedown="handleReset()"/>
                <g id="arrowUp" xlink:href="#dirArrow" transform="translate(30 24)" onmousedown="handlePan(0,-1)">
                  <use xlink:href="#rim" fill="#404040">
                        <set attributeName="fill" to="#808080" begin="arrowUp.mouseover" end="arrowUp.mouseout"/>
                  </use>
                  <path fill="none" stroke="white" stroke-width="1.5" d="M0,-3.0v7 M-2.5,-0.5L0,-3.0L2.5,-0.5"/>
                </g>
                <g id="arrowRight" xlink:href="#dirArrow" transform="rotate(90) translate(36 -43)" onmousedown="handlePan(1,0)">
                  <use xlink:href="#rim" fill="#404040">
                        <set attributeName="fill" to="#808080" begin="arrowRight.mouseover" end="arrowRight.mouseout"/>
                  </use>
                  <path fill="none" stroke="white" stroke-width="1.5" d="M0,-3.0v7 M-2.5,-0.5L0,-3.0L2.5,-0.5"/>
                </g>
                <g id="arrowDown" xlink:href="#dirArrow" transform="rotate(180) translate(-30 -48)" onmousedown="handlePan(0,1)">
                  <use xlink:href="#rim" fill="#404040">
                        <set attributeName="fill" to="#808080" begin="arrowDown.mouseover" end="arrowDown.mouseout"/>
                  </use>
                  <path fill="none" stroke="white" stroke-width="1.5" d="M0,-3.0v7 M-2.5,-0.5L0,-3.0L2.5,-0.5"/>
                </g>
                <g id="arrowLeft" xlink:href="#dirArrow" transform="rotate(270) translate(-36 17)" onmousedown="handlePan(-1,0)">
                  <use xlink:href="#rim" fill="#404040">
                        <set attributeName="fill" to="#808080" begin="arrowLeft.mouseover" end="arrowLeft.mouseout"/>
                  </use>
                  <path fill="none" stroke="white" stroke-width="1.5" d="M0,-3.0v7 M-2.5,-0.5L0,-3.0L2.5,-0.5"/>
                </g>
        </g>
</svg>
