<?xml version="1.0" encoding="UTF-8" standalone="no"?>
<!DOCTYPE svg PUBLIC "-//W3C//DTD SVG 1.1//EN"
 "http://www.w3.org/Graphics/SVG/1.1/DTD/svg11.dtd">
<!-- Generated by graphviz version 2.26.3 (20100126.1600)
 -->
<!-- Title: G Pages: 1 -->
<!--zoomable 267 -->
<svg id="main" version="1.1" xmlns="http://www.w3.org/2000/svg" xmlns:xlink="http://www.w3.org/1999/xlink" xml:space="preserve" onload="init(evt)">
        <defs>
                <circle id="rim" cx="0" cy="0" r="7"/>
                <circle id="rim2" cx="0" cy="0" r="3.5"/>
                <g id="zoomPlus">
                        <use xlink:href="#rim" fill="#404040">
                                <set attributeName="fill" to="#808080" begin="zoomplus.mouseover" end="zoomplus.mouseout"/>
                        </use>
                        <path d="M-4,0h8M0,-4v8" fill="none" stroke="white" stroke-width="1.5" pointer-events="none"/>
                </g>
                <g id="zoomMin">
                        <use xlink:href="#rim" fill="#404040">
                                <set attributeName="fill" to="#808080" begin="zoomminus.mouseover" end="zoomminus.mouseout"/>
                        </use>
                        <path d="M-4,0h8" fill="none" stroke="white" stroke-width="1.5" pointer-events="none"/>
                </g>
                <g id="dirArrow">
                        <path fill="none" stroke="white" stroke-width="1.5" d="M0,-3.0v7 M-2.5,-0.5L0,-3.0L2.5,-0.5"/>
                </g>
               <g id="resetDef">
                       <use xlink:href="#rim2" fill="#404040">
                               <set attributeName="fill" to="#808080" begin="reset.mouseover" end="reset.mouseout"/>
                       </use>
               </g>
        </defs>

<script type="text/javascript">
var viewWidth = 894;
var viewHeight = 267;
var sectionId = 'dynsection-1';
</script>
<script xlink:href="svgpan.js"/>
<svg id="graph" class="graph">
<g id="viewport">
<title>G</title>
<!-- Node1 -->
<g id="node1" class="node"><title>Node1</title>
<polygon fill="#bfbfbf" stroke="black" points="482,-142.5 482,-163.5 604,-163.5 604,-142.5 482,-142.5"/>
<text text-anchor="middle" x="543" y="-150.5" font-family="FreeSans.ttf" font-size="10.00">UEyeCaptureInterface</text>
</g>
<!-- Node10 -->
<g id="node19" class="node"><title>Node10</title>
<a xlink:href="classUEyeCaptureInterface_1_1SpinThread.html" target="_top" xlink:title="UEyeCaptureInterface::SpinThread">
<polygon fill="none" stroke="black" points="704,-142.5 704,-163.5 886,-163.5 886,-142.5 704,-142.5"/>
<text text-anchor="middle" x="795" y="-150.5" font-family="FreeSans.ttf" font-size="10.00">UEyeCaptureInterface::SpinThread</text>
</a>
</g>
<!-- Node1&#45;&gt;Node10 -->
<g id="edge22" class="edge"><title>Node1&#45;&gt;Node10</title>
<path fill="none" stroke="#9a32cd" stroke-dasharray="5,2" d="M614.028,-153C641.821,-153 674.054,-153 703.549,-153"/>
<polygon fill="#9a32cd" stroke="#9a32cd" points="614.002,-149.5 604.002,-153 614.002,-156.5 614.002,-149.5"/>
<text text-anchor="middle" x="654" y="-157" font-family="FreeSans.ttf" font-size="10.00"> capInterface</text>
</g>
<!-- Node2 -->
<g id="node2" class="node"><title>Node2</title>
<a xlink:href="classImageCaptureInterface.html" target="_top" xlink:title="ImageCaptureInterface">
<polygon fill="none" stroke="black" points="243.5,-237.5 243.5,-258.5 370.5,-258.5 370.5,-237.5 243.5,-237.5"/>
<text text-anchor="middle" x="307" y="-245.5" font-family="FreeSans.ttf" font-size="10.00">ImageCaptureInterface</text>
</a>
</g>
<!-- Node2&#45;&gt;Node1 -->
<g id="edge2" class="edge"><title>Node2&#45;&gt;Node1</title>
<path fill="none" stroke="midnightblue" d="M371.877,-235.086C400.808,-228.108 434.862,-218.178 464,-205 488.835,-193.768 514.679,-175.238 529.782,-163.597"/>
<polygon fill="midnightblue" stroke="midnightblue" points="370.811,-231.741 361.874,-237.431 372.409,-238.556 370.811,-231.741"/>
</g>
<!-- Node3 -->
<g id="node4" class="node"><title>Node3</title>
<a xlink:href="classcorecvs_1_1PreciseTimer.html" target="_top" xlink:title="corecvs::PreciseTimer">
<polygon fill="none" stroke="black" points="246.5,-197.5 246.5,-218.5 367.5,-218.5 367.5,-197.5 246.5,-197.5"/>
<text text-anchor="middle" x="307" y="-205.5" font-family="FreeSans.ttf" font-size="10.00">corecvs::PreciseTimer</text>
</a>
</g>
<!-- Node3&#45;&gt;Node1 -->
<g id="edge4" class="edge"><title>Node3&#45;&gt;Node1</title>
<path fill="none" stroke="#9a32cd" stroke-dasharray="5,2" d="M362.129,-195.152C403.44,-185.525 459.273,-172.513 497.929,-163.504"/>
<polygon fill="#9a32cd" stroke="#9a32cd" points="361.169,-191.782 352.224,-197.461 362.757,-198.599 361.169,-191.782"/>
<text text-anchor="middle" x="427" y="-192" font-family="FreeSans.ttf" font-size="10.00"> lastFrameTime</text>
</g>
<!-- Node4 -->
<g id="node6" class="node"><title>Node4</title>
<a xlink:href="classBufferDescriptorType.html" target="_top" xlink:title="BufferDescriptorType">
<polygon fill="none" stroke="black" points="11,-130.5 11,-151.5 127,-151.5 127,-130.5 11,-130.5"/>
<text text-anchor="middle" x="69" y="-138.5" font-family="FreeSans.ttf" font-size="10.00">BufferDescriptorType</text>
</a>
</g>
<!-- Node4&#45;&gt;Node1 -->
<g id="edge6" class="edge"><title>Node4&#45;&gt;Node1</title>
<path fill="none" stroke="#9a32cd" stroke-dasharray="5,2" d="M137.205,-142.727C229.597,-145.066 393.138,-149.206 481.776,-151.45"/>
<polygon fill="#9a32cd" stroke="#9a32cd" points="137.207,-139.226 127.122,-142.471 137.03,-146.223 137.207,-139.226"/>
<text text-anchor="middle" x="307" y="-165" font-family="FreeSans.ttf" font-size="10.00"> currentRight</text>
<text text-anchor="middle" x="307" y="-152" font-family="FreeSans.ttf" font-size="10.00">currentLeft</text>
</g>
<!-- Node5 -->
<g id="node8" class="node"><title>Node5</title>
<a xlink:href="classUEyeCameraDescriptor.html" target="_top" xlink:title="UEyeCameraDescriptor">
<polygon fill="none" stroke="black" points="242.5,-86.5 242.5,-107.5 371.5,-107.5 371.5,-86.5 242.5,-86.5"/>
<text text-anchor="middle" x="307" y="-94.5" font-family="FreeSans.ttf" font-size="10.00">UEyeCameraDescriptor</text>
</a>
</g>
<!-- Node4&#45;&gt;Node5 -->
<g id="edge10" class="edge"><title>Node4&#45;&gt;Node5</title>
<path fill="none" stroke="#9a32cd" stroke-dasharray="5,2" d="M135.925,-128.627C171.881,-121.98 215.74,-113.872 250.046,-107.529"/>
<polygon fill="#9a32cd" stroke="#9a32cd" points="135.204,-125.201 126.007,-130.461 136.477,-132.085 135.204,-125.201"/>
<text text-anchor="middle" x="190" y="-128" font-family="FreeSans.ttf" font-size="10.00"> images</text>
</g>
<!-- Node5&#45;&gt;Node1 -->
<g id="edge8" class="edge"><title>Node5&#45;&gt;Node1</title>
<path fill="none" stroke="#9a32cd" stroke-dasharray="5,2" d="M382.1,-99.0426C408.406,-101.223 437.888,-105.346 464,-113 486.866,-119.702 511.004,-132.952 526.49,-142.364"/>
<polygon fill="#9a32cd" stroke="#9a32cd" points="382.04,-95.5285 371.807,-98.2734 381.519,-102.509 382.04,-95.5285"/>
<text text-anchor="middle" x="427" y="-130" font-family="FreeSans.ttf" font-size="10.00"> leftCamera</text>
<text text-anchor="middle" x="427" y="-117" font-family="FreeSans.ttf" font-size="10.00">rightCamera</text>
</g>
<!-- Node6 -->
<g id="node11" class="node"><title>Node6</title>
<a xlink:href="structsBufferProps.html" target="_top" xlink:title="sBufferProps">
<polygon fill="none" stroke="black" points="30.5,-80.5 30.5,-101.5 107.5,-101.5 107.5,-80.5 30.5,-80.5"/>
<text text-anchor="middle" x="69" y="-88.5" font-family="FreeSans.ttf" font-size="10.00">sBufferProps</text>
</a>
</g>
<!-- Node6&#45;&gt;Node5 -->
<g id="edge12" class="edge"><title>Node6&#45;&gt;Node5</title>
<path fill="none" stroke="#9a32cd" stroke-dasharray="5,2" d="M117.928,-89.4711C148.444,-88.8184 188.525,-88.5067 224,-90 229.924,-90.2494 236.079,-90.5984 242.24,-91.0088"/>
<polygon fill="#9a32cd" stroke="#9a32cd" points="117.471,-85.9807 107.556,-89.7138 117.635,-92.9788 117.471,-85.9807"/>
<text text-anchor="middle" x="190" y="-94" font-family="FreeSans.ttf" font-size="10.00"> bufferProps</text>
</g>
<!-- Node7 -->
<g id="node13" class="node"><title>Node7</title>
<a xlink:href="structsCameraProps.html" target="_top" xlink:title="sCameraProps">
<polygon fill="none" stroke="black" points="25.5,-40.5 25.5,-61.5 112.5,-61.5 112.5,-40.5 25.5,-40.5"/>
<text text-anchor="middle" x="69" y="-48.5" font-family="FreeSans.ttf" font-size="10.00">sCameraProps</text>
</a>
</g>
<!-- Node7&#45;&gt;Node5 -->
<g id="edge14" class="edge"><title>Node7&#45;&gt;Node5</title>
<path fill="none" stroke="#9a32cd" stroke-dasharray="5,2" d="M123.031,-55.6249C152.999,-58.7755 190.81,-63.7191 224,-71 242.142,-74.9797 262.011,-81.1373 277.76,-86.4612"/>
<polygon fill="#9a32cd" stroke="#9a32cd" points="123.081,-52.112 112.779,-54.5843 122.374,-59.0762 123.081,-52.112"/>
<text text-anchor="middle" x="190" y="-75" font-family="FreeSans.ttf" font-size="10.00"> cameraProps</text>
</g>
<!-- Node8 -->
<g id="node15" class="node"><title>Node8</title>
<a xlink:title="STL class.">
<polygon fill="none" stroke="#bfbfbf" points="274.5,-27.5 274.5,-48.5 339.5,-48.5 339.5,-27.5 274.5,-27.5"/>
<text text-anchor="middle" x="307" y="-35.5" font-family="FreeSans.ttf" font-size="10.00">std::string</text>
</a>
</g>
<!-- Node8&#45;&gt;Node1 -->
<g id="edge16" class="edge"><title>Node8&#45;&gt;Node1</title>
<path fill="none" stroke="#9a32cd" stroke-dasharray="5,2" d="M349.785,-44.5123C382.55,-50.7633 428.075,-62.2491 464,-82 493.248,-98.0803 520.629,-126.914 534.162,-142.429"/>
<polygon fill="#9a32cd" stroke="#9a32cd" points="350.089,-41.0102 339.624,-42.6629 348.835,-47.897 350.089,-41.0102"/>
<text text-anchor="middle" x="427" y="-86" font-family="FreeSans.ttf" font-size="10.00"> devname</text>
</g>
<!-- Node9 -->
<g id="node17" class="node"><title>Node9</title>
<a xlink:title="STL class.">
<polygon fill="none" stroke="#bfbfbf" points="0,-0.5 0,-21.5 138,-21.5 138,-0.5 0,-0.5"/>
<text text-anchor="middle" x="69" y="-8.5" font-family="FreeSans.ttf" font-size="10.00">std::basic_string&lt; char &gt;</text>
</a>
</g>
<!-- Node9&#45;&gt;Node8 -->
<g id="edge18" class="edge"><title>Node9&#45;&gt;Node8</title>
<path fill="none" stroke="midnightblue" d="M148.329,-19.9995C191.296,-24.8739 242.054,-30.6321 274.377,-34.2991"/>
<polygon fill="midnightblue" stroke="midnightblue" points="148.49,-16.4954 138.159,-18.8458 147.701,-23.4508 148.49,-16.4954"/>
</g>
<!-- Node10&#45;&gt;Node1 -->
<g id="edge20" class="edge"><title>Node10&#45;&gt;Node1</title>
<path fill="none" stroke="#9a32cd" stroke-dasharray="5,2" d="M733.889,-140.908C700.765,-135.888 659.123,-132.051 622,-136 609.584,-137.321 596.253,-139.778 584.143,-142.422"/>
<polygon fill="#9a32cd" stroke="#9a32cd" points="733.456,-144.383 743.881,-142.497 734.555,-137.47 733.456,-144.383"/>
<text text-anchor="middle" x="654" y="-140" font-family="FreeSans.ttf" font-size="10.00"> spin</text>
</g>
</g>
</svg>
        <g id="navigator" transform="translate(0 0)" fill="#404254">
                <rect fill="#f2f5e9" fill-opacity="0.5" stroke="#606060" stroke-width=".5" x="0" y="0" width="60" height="60"/>
                <use id="zoomplus" xlink:href="#zoomPlus" x="17" y="9" onmousedown="handleZoom(evt,'in')"/>
                <use id="zoomminus" xlink:href="#zoomMin" x="42" y="9" onmousedown="handleZoom(evt,'out')"/>
                <use id="reset" xlink:href="#resetDef" x="30" y="36" onmousedown="handleReset()"/>
                <g id="arrowUp" xlink:href="#dirArrow" transform="translate(30 24)" onmousedown="handlePan(0,-1)">
                  <use xlink:href="#rim" fill="#404040">
                        <set attributeName="fill" to="#808080" begin="arrowUp.mouseover" end="arrowUp.mouseout"/>
                  </use>
                  <path fill="none" stroke="white" stroke-width="1.5" d="M0,-3.0v7 M-2.5,-0.5L0,-3.0L2.5,-0.5"/>
                </g>
                <g id="arrowRight" xlink:href="#dirArrow" transform="rotate(90) translate(36 -43)" onmousedown="handlePan(1,0)">
                  <use xlink:href="#rim" fill="#404040">
                        <set attributeName="fill" to="#808080" begin="arrowRight.mouseover" end="arrowRight.mouseout"/>
                  </use>
                  <path fill="none" stroke="white" stroke-width="1.5" d="M0,-3.0v7 M-2.5,-0.5L0,-3.0L2.5,-0.5"/>
                </g>
                <g id="arrowDown" xlink:href="#dirArrow" transform="rotate(180) translate(-30 -48)" onmousedown="handlePan(0,1)">
                  <use xlink:href="#rim" fill="#404040">
                        <set attributeName="fill" to="#808080" begin="arrowDown.mouseover" end="arrowDown.mouseout"/>
                  </use>
                  <path fill="none" stroke="white" stroke-width="1.5" d="M0,-3.0v7 M-2.5,-0.5L0,-3.0L2.5,-0.5"/>
                </g>
                <g id="arrowLeft" xlink:href="#dirArrow" transform="rotate(270) translate(-36 17)" onmousedown="handlePan(-1,0)">
                  <use xlink:href="#rim" fill="#404040">
                        <set attributeName="fill" to="#808080" begin="arrowLeft.mouseover" end="arrowLeft.mouseout"/>
                  </use>
                  <path fill="none" stroke="white" stroke-width="1.5" d="M0,-3.0v7 M-2.5,-0.5L0,-3.0L2.5,-0.5"/>
                </g>
        </g>
</svg>
