<?xml version="1.0" encoding="UTF-8" standalone="no"?>
<!DOCTYPE svg PUBLIC "-//W3C//DTD SVG 1.1//EN"
 "http://www.w3.org/Graphics/SVG/1.1/DTD/svg11.dtd">
<!-- Generated by graphviz version 2.26.3 (20100126.1600)
 -->
<!-- Title: G Pages: 1 -->
<!--zoomable 745 -->
<svg id="main" version="1.1" xmlns="http://www.w3.org/2000/svg" xmlns:xlink="http://www.w3.org/1999/xlink" xml:space="preserve" onload="init(evt)">
        <defs>
                <circle id="rim" cx="0" cy="0" r="7"/>
                <circle id="rim2" cx="0" cy="0" r="3.5"/>
                <g id="zoomPlus">
                        <use xlink:href="#rim" fill="#404040">
                                <set attributeName="fill" to="#808080" begin="zoomplus.mouseover" end="zoomplus.mouseout"/>
                        </use>
                        <path d="M-4,0h8M0,-4v8" fill="none" stroke="white" stroke-width="1.5" pointer-events="none"/>
                </g>
                <g id="zoomMin">
                        <use xlink:href="#rim" fill="#404040">
                                <set attributeName="fill" to="#808080" begin="zoomminus.mouseover" end="zoomminus.mouseout"/>
                        </use>
                        <path d="M-4,0h8" fill="none" stroke="white" stroke-width="1.5" pointer-events="none"/>
                </g>
                <g id="dirArrow">
                        <path fill="none" stroke="white" stroke-width="1.5" d="M0,-3.0v7 M-2.5,-0.5L0,-3.0L2.5,-0.5"/>
                </g>
               <g id="resetDef">
                       <use xlink:href="#rim2" fill="#404040">
                               <set attributeName="fill" to="#808080" begin="reset.mouseover" end="reset.mouseout"/>
                       </use>
               </g>
        </defs>

<script type="text/javascript">
var viewWidth = 1310;
var viewHeight = 745;
var sectionId = 'dynsection-2';
</script>
<script xlink:href="svgpan.js"/>
<svg id="graph" class="graph">
<g id="viewport">
<title>G</title>
<!-- Node1 -->
<g id="node1" class="node"><title>Node1</title>
<polygon fill="#bfbfbf" stroke="black" points="0,-278.5 0,-299.5 242,-299.5 242,-278.5 0,-278.5"/>
<text text-anchor="middle" x="121" y="-286.5" font-family="FreeSans.ttf" font-size="10.00">AdvancedImageWidget::AdvancedImageWidget</text>
</g>
<!-- Node2 -->
<g id="node3" class="node"><title>Node2</title>
<a xlink:href="classViAreaWidget.html#a8e55af8a2192c79706c2ae276d1c3b27" target="_top" xlink:title="ViAreaWidget::askParentRepaint">
<polygon fill="none" stroke="black" points="307.5,-636.5 307.5,-657.5 476.5,-657.5 476.5,-636.5 307.5,-636.5"/>
<text text-anchor="middle" x="392" y="-644.5" font-family="FreeSans.ttf" font-size="10.00">ViAreaWidget::askParentRepaint</text>
</a>
</g>
<!-- Node1&#45;&gt;Node2 -->
<g id="edge2" class="edge"><title>Node1&#45;&gt;Node2</title>
<path fill="none" stroke="midnightblue" d="M122.403,-299.701C129.21,-347.012 163.302,-538.932 278,-627 283.972,-631.585 290.637,-635.257 297.666,-638.184"/>
<polygon fill="midnightblue" stroke="midnightblue" points="296.85,-641.611 307.445,-641.729 299.237,-635.03 296.85,-641.611"/>
</g>
<!-- Node3 -->
<g id="node5" class="node"><title>Node3</title>
<a xlink:href="classAdvancedImageWidget.html#aca53bcddfb9300729048ceb4dad94d2f" target="_top" xlink:title="AdvancedImageWidget::childMouseMoved">
<polygon fill="none" stroke="black" points="283.5,-596.5 283.5,-617.5 500.5,-617.5 500.5,-596.5 283.5,-596.5"/>
<text text-anchor="middle" x="392" y="-604.5" font-family="FreeSans.ttf" font-size="10.00">AdvancedImageWidget::childMouseMoved</text>
</a>
</g>
<!-- Node1&#45;&gt;Node3 -->
<g id="edge4" class="edge"><title>Node1&#45;&gt;Node3</title>
<path fill="none" stroke="midnightblue" d="M124.916,-299.513C139.543,-337.554 194.454,-469.901 278,-548 299.176,-567.796 328.266,-582.707 351.759,-592.587"/>
<polygon fill="midnightblue" stroke="midnightblue" points="350.533,-595.867 361.115,-596.384 353.165,-589.38 350.533,-595.867"/>
</g>
<!-- Node12 -->
<g id="node23" class="node"><title>Node12</title>
<a xlink:href="classAdvancedImageWidget.html#a8198ac755c9395f0cccfe9895f6d9487" target="_top" xlink:title="AdvancedImageWidget::childMousePressed">
<polygon fill="none" stroke="black" points="280,-517.5 280,-538.5 504,-538.5 504,-517.5 280,-517.5"/>
<text text-anchor="middle" x="392" y="-525.5" font-family="FreeSans.ttf" font-size="10.00">AdvancedImageWidget::childMousePressed</text>
</a>
</g>
<!-- Node1&#45;&gt;Node12 -->
<g id="edge22" class="edge"><title>Node1&#45;&gt;Node12</title>
<path fill="none" stroke="midnightblue" d="M125.137,-299.68C139.741,-335.834 192.651,-454.342 278,-508 281.208,-510.017 284.562,-511.845 288.024,-513.502"/>
<polygon fill="midnightblue" stroke="midnightblue" points="286.838,-516.801 297.409,-517.497 289.579,-510.36 286.838,-516.801"/>
</g>
<!-- Node13 -->
<g id="node25" class="node"><title>Node13</title>
<a xlink:href="classAdvancedImageWidget.html#a873269bb6fccf1c1f0e203149b702b27" target="_top" xlink:title="AdvancedImageWidget::childMouseReleased">
<polygon fill="none" stroke="black" points="278,-477.5 278,-498.5 506,-498.5 506,-477.5 278,-477.5"/>
<text text-anchor="middle" x="392" y="-485.5" font-family="FreeSans.ttf" font-size="10.00">AdvancedImageWidget::childMouseReleased</text>
</a>
</g>
<!-- Node1&#45;&gt;Node13 -->
<g id="edge24" class="edge"><title>Node1&#45;&gt;Node13</title>
<path fill="none" stroke="midnightblue" d="M131.254,-299.846C155.234,-324.809 217.537,-387.377 278,-429 303.491,-446.548 334.871,-462.419 358.251,-473.269"/>
<polygon fill="midnightblue" stroke="midnightblue" points="356.873,-476.487 367.423,-477.459 359.781,-470.12 356.873,-476.487"/>
</g>
<!-- Node17 -->
<g id="node35" class="node"><title>Node17</title>
<a xlink:href="classAdvancedImageWidget.html#a07fc679185993e412ac902f3789cfcd3" target="_top" xlink:title="AdvancedImageWidget::childRepaint">
<polygon fill="none" stroke="black" points="297.5,-398.5 297.5,-419.5 486.5,-419.5 486.5,-398.5 297.5,-398.5"/>
<text text-anchor="middle" x="392" y="-406.5" font-family="FreeSans.ttf" font-size="10.00">AdvancedImageWidget::childRepaint</text>
</a>
</g>
<!-- Node1&#45;&gt;Node17 -->
<g id="edge36" class="edge"><title>Node1&#45;&gt;Node17</title>
<path fill="none" stroke="midnightblue" d="M133.882,-299.762C159.53,-320.579 219.558,-366.305 278,-389 284.825,-391.65 292.017,-393.952 299.333,-395.949"/>
<polygon fill="midnightblue" stroke="midnightblue" points="298.81,-399.427 309.363,-398.489 300.528,-392.641 298.81,-399.427"/>
</g>
<!-- Node19 -->
<g id="node39" class="node"><title>Node19</title>
<a xlink:href="classAdvancedImageWidget.html#a6a70d29586b039c5eedbd172166316fe" target="_top" xlink:title="AdvancedImageWidget::childResized">
<polygon fill="none" stroke="black" points="297,-318.5 297,-339.5 487,-339.5 487,-318.5 297,-318.5"/>
<text text-anchor="middle" x="392" y="-326.5" font-family="FreeSans.ttf" font-size="10.00">AdvancedImageWidget::childResized</text>
</a>
</g>
<!-- Node1&#45;&gt;Node19 -->
<g id="edge40" class="edge"><title>Node1&#45;&gt;Node19</title>
<path fill="none" stroke="midnightblue" d="M192.202,-299.51C228.623,-304.885 273.113,-311.452 310.857,-317.023"/>
<polygon fill="midnightblue" stroke="midnightblue" points="310.4,-320.493 320.803,-318.491 311.422,-313.569 310.4,-320.493"/>
</g>
<!-- Node21 -->
<g id="node44" class="node"><title>Node21</title>
<a xlink:href="classAdvancedImageWidget.html#ac79f43c3a97599ff639bae891d627e1d" target="_top" xlink:title="AdvancedImageWidget::childWheelEvent">
<polygon fill="none" stroke="black" points="287.5,-358.5 287.5,-379.5 496.5,-379.5 496.5,-358.5 287.5,-358.5"/>
<text text-anchor="middle" x="392" y="-366.5" font-family="FreeSans.ttf" font-size="10.00">AdvancedImageWidget::childWheelEvent</text>
</a>
</g>
<!-- Node1&#45;&gt;Node21 -->
<g id="edge46" class="edge"><title>Node1&#45;&gt;Node21</title>
<path fill="none" stroke="midnightblue" d="M144.464,-299.595C174.748,-312.888 229.34,-335.567 278,-349 288.232,-351.825 299.096,-354.335 309.896,-356.541"/>
<polygon fill="midnightblue" stroke="midnightblue" points="309.288,-359.989 319.775,-358.482 310.637,-353.12 309.288,-359.989"/>
</g>
<!-- Node24 -->
<g id="node54" class="node"><title>Node24</title>
<a xlink:href="classSaveFlowSettings.html#a8bdddcfa219cd714b8d1406517c86277" target="_top" xlink:title="SaveFlowSettings::getUi">
<polygon fill="none" stroke="black" points="605,-81.5 605,-102.5 737,-102.5 737,-81.5 605,-81.5"/>
<text text-anchor="middle" x="671" y="-89.5" font-family="FreeSans.ttf" font-size="10.00">SaveFlowSettings::getUi</text>
</a>
</g>
<!-- Node1&#45;&gt;Node24 -->
<g id="edge60" class="edge"><title>Node1&#45;&gt;Node24</title>
<path fill="none" stroke="midnightblue" d="M124.518,-278.483C137.61,-241.277 187.473,-115.612 278,-69 396.1,-8.19128 561.401,-52.9733 634.158,-78.0648"/>
<polygon fill="midnightblue" stroke="midnightblue" points="633.201,-81.4385 643.796,-81.4616 635.528,-74.8365 633.201,-81.4385"/>
</g>
<!-- Node25 -->
<g id="node56" class="node"><title>Node25</title>
<a xlink:href="classViAreaWidget.html#abcd18e02253aa4189ababdaaab219886" target="_top" xlink:title="ViAreaWidget::notifyParentMouseMove">
<polygon fill="none" stroke="black" points="292,-238.5 292,-259.5 492,-259.5 492,-238.5 292,-238.5"/>
<text text-anchor="middle" x="392" y="-246.5" font-family="FreeSans.ttf" font-size="10.00">ViAreaWidget::notifyParentMouseMove</text>
</a>
</g>
<!-- Node1&#45;&gt;Node25 -->
<g id="edge62" class="edge"><title>Node1&#45;&gt;Node25</title>
<path fill="none" stroke="midnightblue" d="M192.202,-278.49C228.623,-273.115 273.113,-266.548 310.857,-260.977"/>
<polygon fill="midnightblue" stroke="midnightblue" points="311.422,-264.431 320.803,-259.509 310.4,-257.507 311.422,-264.431"/>
</g>
<!-- Node26 -->
<g id="node58" class="node"><title>Node26</title>
<a xlink:href="classViAreaWidget.html#ac3535248a073363bea3f58cc012bef1e" target="_top" xlink:title="ViAreaWidget::notifyParentMousePress">
<polygon fill="none" stroke="black" points="291.5,-198.5 291.5,-219.5 492.5,-219.5 492.5,-198.5 291.5,-198.5"/>
<text text-anchor="middle" x="392" y="-206.5" font-family="FreeSans.ttf" font-size="10.00">ViAreaWidget::notifyParentMousePress</text>
</a>
</g>
<!-- Node1&#45;&gt;Node26 -->
<g id="edge64" class="edge"><title>Node1&#45;&gt;Node26</title>
<path fill="none" stroke="midnightblue" d="M144.464,-278.405C174.748,-265.112 229.34,-242.433 278,-229 288.232,-226.175 299.096,-223.665 309.896,-221.459"/>
<polygon fill="midnightblue" stroke="midnightblue" points="310.637,-224.88 319.775,-219.518 309.288,-218.011 310.637,-224.88"/>
</g>
<!-- Node27 -->
<g id="node60" class="node"><title>Node27</title>
<a xlink:href="classViAreaWidget.html#a393dc91f8115bc713af7d6b8c792ee66" target="_top" xlink:title="ViAreaWidget::notifyParentMouseRelease">
<polygon fill="none" stroke="black" points="286,-158.5 286,-179.5 498,-179.5 498,-158.5 286,-158.5"/>
<text text-anchor="middle" x="392" y="-166.5" font-family="FreeSans.ttf" font-size="10.00">ViAreaWidget::notifyParentMouseRelease</text>
</a>
</g>
<!-- Node1&#45;&gt;Node27 -->
<g id="edge66" class="edge"><title>Node1&#45;&gt;Node27</title>
<path fill="none" stroke="midnightblue" d="M133.882,-278.238C159.53,-257.421 219.558,-211.695 278,-189 284.825,-186.35 292.017,-184.048 299.333,-182.051"/>
<polygon fill="midnightblue" stroke="midnightblue" points="300.528,-185.359 309.363,-179.511 298.81,-178.573 300.528,-185.359"/>
</g>
<!-- Node28 -->
<g id="node62" class="node"><title>Node28</title>
<a xlink:href="classViAreaWidget.html#a540ea784f62f0c7a17feb94895bd3714" target="_top" xlink:title="ViAreaWidget::notifyParentResize">
<polygon fill="none" stroke="black" points="305.5,-118.5 305.5,-139.5 478.5,-139.5 478.5,-118.5 305.5,-118.5"/>
<text text-anchor="middle" x="392" y="-126.5" font-family="FreeSans.ttf" font-size="10.00">ViAreaWidget::notifyParentResize</text>
</a>
</g>
<!-- Node1&#45;&gt;Node28 -->
<g id="edge68" class="edge"><title>Node1&#45;&gt;Node28</title>
<path fill="none" stroke="midnightblue" d="M129.188,-278.43C150.476,-251.775 210.618,-181.628 278,-149 283.638,-146.27 289.592,-143.909 295.704,-141.866"/>
<polygon fill="midnightblue" stroke="midnightblue" points="296.865,-145.171 305.413,-138.912 294.827,-138.474 296.865,-145.171"/>
</g>
<!-- Node29 -->
<g id="node64" class="node"><title>Node29</title>
<a xlink:href="classViAreaWidget.html#ab2431471d37bfa872936f4b0f096a719" target="_top" xlink:title="ViAreaWidget::notifyParentWheelEvent">
<polygon fill="none" stroke="black" points="292.5,-78.5 292.5,-99.5 491.5,-99.5 491.5,-78.5 292.5,-78.5"/>
<text text-anchor="middle" x="392" y="-86.5" font-family="FreeSans.ttf" font-size="10.00">ViAreaWidget::notifyParentWheelEvent</text>
</a>
</g>
<!-- Node1&#45;&gt;Node29 -->
<g id="edge70" class="edge"><title>Node1&#45;&gt;Node29</title>
<path fill="none" stroke="midnightblue" d="M126.784,-278.255C144.553,-246.394 201.794,-151.988 278,-109 281.895,-106.803 285.975,-104.836 290.178,-103.077"/>
<polygon fill="midnightblue" stroke="midnightblue" points="291.425,-106.347 299.551,-99.548 288.959,-99.7961 291.425,-106.347"/>
</g>
<!-- Node30 -->
<g id="node66" class="node"><title>Node30</title>
<a xlink:href="classAdvancedImageWidget.html#a6904ff13fbb89cbdd97ba3ace2c33961" target="_top" xlink:title="AdvancedImageWidget::startSaveFlow">
<polygon fill="none" stroke="black" points="292.5,-278.5 292.5,-299.5 491.5,-299.5 491.5,-278.5 292.5,-278.5"/>
<text text-anchor="middle" x="392" y="-286.5" font-family="FreeSans.ttf" font-size="10.00">AdvancedImageWidget::startSaveFlow</text>
</a>
</g>
<!-- Node1&#45;&gt;Node30 -->
<g id="edge72" class="edge"><title>Node1&#45;&gt;Node30</title>
<path fill="none" stroke="midnightblue" d="M242.233,-289C255.596,-289 269.148,-289 282.358,-289"/>
<polygon fill="midnightblue" stroke="midnightblue" points="282.385,-292.5 292.385,-289 282.385,-285.5 282.385,-292.5"/>
</g>
<!-- Node31 -->
<g id="node69" class="node"><title>Node31</title>
<a xlink:href="classAdvancedImageWidget.html#a9c20a1b3ebb931d906d689fbc243d48e" target="_top" xlink:title="This could be reimplemented to add additional tools.">
<polygon fill="none" stroke="black" points="279.5,-0.5 279.5,-21.5 504.5,-21.5 504.5,-0.5 279.5,-0.5"/>
<text text-anchor="middle" x="392" y="-8.5" font-family="FreeSans.ttf" font-size="10.00">AdvancedImageWidget::toolButtonReleased</text>
</a>
</g>
<!-- Node1&#45;&gt;Node31 -->
<g id="edge76" class="edge"><title>Node1&#45;&gt;Node31</title>
<path fill="none" stroke="midnightblue" d="M124.269,-278.233C136.837,-238.785 185.998,-101.078 278,-36 284.027,-31.7365 290.649,-28.1802 297.572,-25.2161"/>
<polygon fill="midnightblue" stroke="midnightblue" points="299.092,-28.3817 307.174,-21.5306 296.584,-21.8466 299.092,-28.3817"/>
</g>
<!-- Node4 -->
<g id="node7" class="node"><title>Node4</title>
<a xlink:href="classAdvancedImageWidget.html#a6e8e9e2abdc3e3852a575596b45a24a9" target="_top" xlink:title="AdvancedImageWidget::widgetToImage">
<polygon fill="none" stroke="black" points="569.5,-635.5 569.5,-656.5 772.5,-656.5 772.5,-635.5 569.5,-635.5"/>
<text text-anchor="middle" x="671" y="-643.5" font-family="FreeSans.ttf" font-size="10.00">AdvancedImageWidget::widgetToImage</text>
</a>
</g>
<!-- Node3&#45;&gt;Node4 -->
<g id="edge6" class="edge"><title>Node3&#45;&gt;Node4</title>
<path fill="none" stroke="midnightblue" d="M467.134,-617.503C503.729,-622.618 547.893,-628.791 585.745,-634.083"/>
<polygon fill="midnightblue" stroke="midnightblue" points="585.344,-637.56 595.732,-635.479 586.313,-630.628 585.344,-637.56"/>
</g>
<!-- Node7 -->
<g id="node13" class="node"><title>Node7</title>
<a xlink:href="classAdvancedImageWidget.html#aa77e18f515fc59fd569bec871d489010" target="_top" xlink:title="AdvancedImageWidget::setInfoValueLabel">
<polygon fill="none" stroke="black" points="563,-675.5 563,-696.5 779,-696.5 779,-675.5 563,-675.5"/>
<text text-anchor="middle" x="671" y="-683.5" font-family="FreeSans.ttf" font-size="10.00">AdvancedImageWidget::setInfoValueLabel</text>
</a>
</g>
<!-- Node3&#45;&gt;Node7 -->
<g id="edge12" class="edge"><title>Node3&#45;&gt;Node7</title>
<path fill="none" stroke="midnightblue" d="M483.746,-617.561C491.501,-620.093 499.033,-623.198 506,-627 526.707,-638.299 521.182,-654.907 542,-666 546.216,-668.246 550.612,-670.259 555.13,-672.06"/>
<polygon fill="midnightblue" stroke="midnightblue" points="553.963,-675.359 564.557,-675.468 556.343,-668.776 553.963,-675.359"/>
</g>
<!-- Node8 -->
<g id="node15" class="node"><title>Node8</title>
<a xlink:href="classAdvancedImageWidget.html#a09b13f3339f391764bd57dd8d06f3d4f" target="_top" xlink:title="AdvancedImageWidget::recomputeRects">
<polygon fill="none" stroke="black" points="836,-202.5 836,-223.5 1046,-223.5 1046,-202.5 836,-202.5"/>
<text text-anchor="middle" x="941" y="-210.5" font-family="FreeSans.ttf" font-size="10.00">AdvancedImageWidget::recomputeRects</text>
</a>
</g>
<!-- Node3&#45;&gt;Node8 -->
<g id="edge14" class="edge"><title>Node3&#45;&gt;Node8</title>
<path fill="none" stroke="midnightblue" d="M500.682,-616.663C606.392,-623.538 757.131,-625.826 800,-588 870.349,-525.928 802.395,-467.594 836,-380 858.457,-321.465 902.488,-261.25 925.756,-231.689"/>
<polygon fill="midnightblue" stroke="midnightblue" points="928.761,-233.535 932.263,-223.535 923.29,-229.168 928.761,-233.535"/>
</g>
<!-- Node10 -->
<g id="node19" class="node"><title>Node10</title>
<a xlink:href="classAdvancedImageWidget.html#a0660da1dfe71d556c2c97ca4759404d5" target="_top" xlink:title="AdvancedImageWidget::notifyCenterPointChanged">
<polygon fill="none" stroke="black" points="542.5,-477.5 542.5,-498.5 799.5,-498.5 799.5,-477.5 542.5,-477.5"/>
<text text-anchor="middle" x="671" y="-485.5" font-family="FreeSans.ttf" font-size="10.00">AdvancedImageWidget::notifyCenterPointChanged</text>
</a>
</g>
<!-- Node3&#45;&gt;Node10 -->
<g id="edge18" class="edge"><title>Node3&#45;&gt;Node10</title>
<path fill="none" stroke="midnightblue" d="M418.937,-596.357C443.104,-586.07 478.841,-568.982 506,-548 524.927,-533.378 520.964,-519.38 542,-508 546.033,-505.818 550.235,-503.856 554.553,-502.093"/>
<polygon fill="midnightblue" stroke="midnightblue" points="556.003,-505.288 564.173,-498.542 553.579,-498.721 556.003,-505.288"/>
</g>
<!-- Node11 -->
<g id="node21" class="node"><title>Node11</title>
<a xlink:href="classAdvancedImageWidget.html#af1b0658d7988e8862a6ad7f6ab02953f" target="_top" xlink:title="AdvancedImageWidget::pointToolMoved">
<polygon fill="none" stroke="black" points="568,-715.5 568,-736.5 774,-736.5 774,-715.5 568,-715.5"/>
<text text-anchor="middle" x="671" y="-723.5" font-family="FreeSans.ttf" font-size="10.00">AdvancedImageWidget::pointToolMoved</text>
</a>
</g>
<!-- Node3&#45;&gt;Node11 -->
<g id="edge20" class="edge"><title>Node3&#45;&gt;Node11</title>
<path fill="none" stroke="midnightblue" d="M490.522,-617.616C496.016,-620.213 501.232,-623.311 506,-627 536.519,-650.61 511.249,-682.695 542,-706 547.097,-709.863 552.638,-713.117 558.462,-715.85"/>
<polygon fill="midnightblue" stroke="midnightblue" points="557.248,-719.135 567.826,-719.728 559.926,-712.668 557.248,-719.135"/>
</g>
<!-- Node5 -->
<g id="node9" class="node"><title>Node5</title>
<a xlink:href="classAdvancedImageWidget.html#aad0a7fa94488db2084f9135d3721dfb7" target="_top" xlink:title="AdvancedImageWidget::widgetToImageF">
<polygon fill="none" stroke="black" points="837,-566.5 837,-587.5 1045,-587.5 1045,-566.5 837,-566.5"/>
<text text-anchor="middle" x="941" y="-574.5" font-family="FreeSans.ttf" font-size="10.00">AdvancedImageWidget::widgetToImageF</text>
</a>
</g>
<!-- Node4&#45;&gt;Node5 -->
<g id="edge8" class="edge"><title>Node4&#45;&gt;Node5</title>
<path fill="none" stroke="midnightblue" d="M732.661,-635.493C754.092,-631.46 778.211,-626.493 800,-621 834.437,-612.319 872.88,-600.153 900.916,-590.814"/>
<polygon fill="midnightblue" stroke="midnightblue" points="902.382,-594.014 910.747,-587.512 900.153,-587.378 902.382,-594.014"/>
</g>
<!-- Node6 -->
<g id="node11" class="node"><title>Node6</title>
<a xlink:href="namespacecorecvs.html#a807eb76b7544bcb930b1700a58a780bd" target="_top" xlink:title="Useful round* stuff.">
<polygon fill="none" stroke="black" points="896,-389.5 896,-410.5 986,-410.5 986,-389.5 896,-389.5"/>
<text text-anchor="middle" x="941" y="-397.5" font-family="FreeSans.ttf" font-size="10.00">corecvs::fround</text>
</a>
</g>
<!-- Node4&#45;&gt;Node6 -->
<g id="edge10" class="edge"><title>Node4&#45;&gt;Node6</title>
<path fill="none" stroke="midnightblue" d="M772.149,-635.406C782.081,-631.776 791.582,-627.072 800,-621 826.468,-601.907 818.916,-584.807 836,-557 867.133,-506.327 906.856,-448.65 927.37,-419.329"/>
<polygon fill="midnightblue" stroke="midnightblue" points="930.441,-421.046 933.32,-410.85 924.711,-417.025 930.441,-421.046"/>
</g>
<!-- Node9 -->
<g id="node17" class="node"><title>Node9</title>
<a xlink:href="classAdvancedImageWidget.html#ab3c658a5e253eeef3929028a1e2e3082" target="_top" xlink:title="AdvancedImageWidget::computeInputRect">
<polygon fill="none" stroke="black" points="1082.5,-202.5 1082.5,-223.5 1301.5,-223.5 1301.5,-202.5 1082.5,-202.5"/>
<text text-anchor="middle" x="1192" y="-210.5" font-family="FreeSans.ttf" font-size="10.00">AdvancedImageWidget::computeInputRect</text>
</a>
</g>
<!-- Node8&#45;&gt;Node9 -->
<g id="edge16" class="edge"><title>Node8&#45;&gt;Node9</title>
<path fill="none" stroke="midnightblue" d="M1046.36,-213C1054.94,-213 1063.65,-213 1072.32,-213"/>
<polygon fill="midnightblue" stroke="midnightblue" points="1072.48,-216.5 1082.48,-213 1072.48,-209.5 1072.48,-216.5"/>
</g>
<!-- Node13&#45;&gt;Node4 -->
<g id="edge26" class="edge"><title>Node13&#45;&gt;Node4</title>
<path fill="none" stroke="midnightblue" d="M490.543,-498.59C496.031,-501.193 501.241,-504.3 506,-508 536.782,-531.93 514.426,-560.435 542,-588 563.096,-609.09 593.219,-623.224 619.052,-632.256"/>
<polygon fill="midnightblue" stroke="midnightblue" points="618.121,-635.635 628.714,-635.471 620.331,-628.993 618.121,-635.635"/>
</g>
<!-- Node13&#45;&gt;Node10 -->
<g id="edge28" class="edge"><title>Node13&#45;&gt;Node10</title>
<path fill="none" stroke="midnightblue" d="M506.285,-488C514.83,-488 523.505,-488 532.177,-488"/>
<polygon fill="midnightblue" stroke="midnightblue" points="532.348,-491.5 542.348,-488 532.348,-484.5 532.348,-491.5"/>
</g>
<!-- Node14 -->
<g id="node29" class="node"><title>Node14</title>
<a xlink:href="classAdvancedImageWidget.html#a00fc3f1a03aa5c116f263c95462a7988" target="_top" xlink:title="AdvancedImageWidget::newAreaSelected">
<polygon fill="none" stroke="black" points="563.5,-557.5 563.5,-578.5 778.5,-578.5 778.5,-557.5 563.5,-557.5"/>
<text text-anchor="middle" x="671" y="-565.5" font-family="FreeSans.ttf" font-size="10.00">AdvancedImageWidget::newAreaSelected</text>
</a>
</g>
<!-- Node13&#45;&gt;Node14 -->
<g id="edge30" class="edge"><title>Node13&#45;&gt;Node14</title>
<path fill="none" stroke="midnightblue" d="M484.092,-498.564C491.732,-501.099 499.145,-504.203 506,-508 526.922,-519.589 520.964,-536.62 542,-548 546.033,-550.182 550.235,-552.144 554.553,-553.907"/>
<polygon fill="midnightblue" stroke="midnightblue" points="553.579,-557.279 564.173,-557.458 556.003,-550.712 553.579,-557.279"/>
</g>
<!-- Node15 -->
<g id="node31" class="node"><title>Node15</title>
<a xlink:href="classAdvancedImageWidget.html#aca8a0b41abf473a94c31776eadf0c1cc" target="_top" xlink:title="AdvancedImageWidget::newLineSelected">
<polygon fill="none" stroke="black" points="565,-517.5 565,-538.5 777,-538.5 777,-517.5 565,-517.5"/>
<text text-anchor="middle" x="671" y="-525.5" font-family="FreeSans.ttf" font-size="10.00">AdvancedImageWidget::newLineSelected</text>
</a>
</g>
<!-- Node13&#45;&gt;Node15 -->
<g id="edge32" class="edge"><title>Node13&#45;&gt;Node15</title>
<path fill="none" stroke="midnightblue" d="M465.304,-498.51C502.8,-503.885 548.603,-510.452 587.462,-516.023"/>
<polygon fill="midnightblue" stroke="midnightblue" points="587.306,-519.537 597.702,-517.491 588.3,-512.607 587.306,-519.537"/>
</g>
<!-- Node16 -->
<g id="node33" class="node"><title>Node16</title>
<a xlink:href="classAdvancedImageWidget.html#a9f5256a64d8eed61140f17ae811f719f" target="_top" xlink:title="AdvancedImageWidget::newPointSelected">
<polygon fill="none" stroke="black" points="562.5,-437.5 562.5,-458.5 779.5,-458.5 779.5,-437.5 562.5,-437.5"/>
<text text-anchor="middle" x="671" y="-445.5" font-family="FreeSans.ttf" font-size="10.00">AdvancedImageWidget::newPointSelected</text>
</a>
</g>
<!-- Node13&#45;&gt;Node16 -->
<g id="edge34" class="edge"><title>Node13&#45;&gt;Node16</title>
<path fill="none" stroke="midnightblue" d="M465.304,-477.49C502.8,-472.115 548.603,-465.548 587.462,-459.977"/>
<polygon fill="midnightblue" stroke="midnightblue" points="588.3,-463.393 597.702,-458.509 587.306,-456.463 588.3,-463.393"/>
</g>
<!-- Node18 -->
<g id="node37" class="node"><title>Node18</title>
<a xlink:href="classAdvancedImageWidget.html#aa69ecf8afc2c52de22ef54bef616c92a" target="_top" xlink:title="AdvancedImageWidget::drawResized">
<polygon fill="none" stroke="black" points="575.5,-397.5 575.5,-418.5 766.5,-418.5 766.5,-397.5 575.5,-397.5"/>
<text text-anchor="middle" x="671" y="-405.5" font-family="FreeSans.ttf" font-size="10.00">AdvancedImageWidget::drawResized</text>
</a>
</g>
<!-- Node17&#45;&gt;Node18 -->
<g id="edge38" class="edge"><title>Node17&#45;&gt;Node18</title>
<path fill="none" stroke="midnightblue" d="M486.846,-408.66C512.088,-408.57 539.512,-408.471 565.296,-408.379"/>
<polygon fill="midnightblue" stroke="midnightblue" points="565.481,-411.878 575.468,-408.342 565.456,-404.878 565.481,-411.878"/>
</g>
<!-- Node20 -->
<g id="node41" class="node"><title>Node20</title>
<a xlink:href="classAdvancedImageWidget.html#a1134ed8730a49a6f459dcf9db9af4214" target="_top" xlink:title="AdvancedImageWidget::fitToggled">
<polygon fill="none" stroke="black" points="582.5,-163.5 582.5,-184.5 759.5,-184.5 759.5,-163.5 582.5,-163.5"/>
<text text-anchor="middle" x="671" y="-171.5" font-family="FreeSans.ttf" font-size="10.00">AdvancedImageWidget::fitToggled</text>
</a>
</g>
<!-- Node19&#45;&gt;Node20 -->
<g id="edge42" class="edge"><title>Node19&#45;&gt;Node20</title>
<path fill="none" stroke="midnightblue" d="M487.209,-320.823C494.006,-317.749 500.382,-313.869 506,-309 544.873,-275.31 503.428,-233.034 542,-199 550.887,-191.159 561.48,-185.47 572.72,-181.384"/>
<polygon fill="midnightblue" stroke="midnightblue" points="573.837,-184.702 582.291,-178.317 571.7,-178.036 573.837,-184.702"/>
</g>
<!-- Node20&#45;&gt;Node8 -->
<g id="edge44" class="edge"><title>Node20&#45;&gt;Node8</title>
<path fill="none" stroke="midnightblue" d="M743.71,-184.503C778.974,-189.596 821.501,-195.739 858.028,-201.015"/>
<polygon fill="midnightblue" stroke="midnightblue" points="857.762,-204.513 868.16,-202.479 858.763,-197.585 857.762,-204.513"/>
</g>
<!-- Node21&#45;&gt;Node5 -->
<g id="edge48" class="edge"><title>Node21&#45;&gt;Node5</title>
<path fill="none" stroke="midnightblue" d="M496.59,-363.892C599.825,-360.609 749.351,-361.102 800,-388 836.379,-407.319 902.69,-513.051 929.397,-557.404"/>
<polygon fill="midnightblue" stroke="midnightblue" points="926.472,-559.332 934.609,-566.118 932.479,-555.739 926.472,-559.332"/>
</g>
<!-- Node21&#45;&gt;Node6 -->
<g id="edge54" class="edge"><title>Node21&#45;&gt;Node6</title>
<path fill="none" stroke="midnightblue" d="M463.245,-358.497C545.056,-348.296 683.048,-336.79 800,-355 837.475,-360.835 878.607,-374.9 906.723,-385.766"/>
<polygon fill="midnightblue" stroke="midnightblue" points="905.51,-389.05 916.098,-389.457 908.075,-382.537 905.51,-389.05"/>
</g>
<!-- Node21&#45;&gt;Node8 -->
<g id="edge56" class="edge"><title>Node21&#45;&gt;Node8</title>
<path fill="none" stroke="midnightblue" d="M492.433,-358.381C497.288,-355.757 501.857,-352.656 506,-349 546.795,-313.004 499.018,-265.355 542,-232 584.749,-198.826 723.645,-199.037 825.584,-204.257"/>
<polygon fill="midnightblue" stroke="midnightblue" points="825.467,-207.756 835.64,-204.795 825.841,-200.766 825.467,-207.756"/>
</g>
<!-- Node21&#45;&gt;Node10 -->
<g id="edge58" class="edge"><title>Node21&#45;&gt;Node10</title>
<path fill="none" stroke="midnightblue" d="M490.522,-379.616C496.016,-382.213 501.232,-385.311 506,-389 536.519,-412.61 511.249,-444.695 542,-468 544.134,-469.617 546.345,-471.127 548.622,-472.537"/>
<polygon fill="midnightblue" stroke="midnightblue" points="547.254,-475.778 557.709,-477.493 550.606,-469.632 547.254,-475.778"/>
</g>
<!-- Node22 -->
<g id="node47" class="node"><title>Node22</title>
<a xlink:href="classAdvancedImageWidget.html#a1a0035476869ad024fc271042e36f9e2" target="_top" xlink:title="AdvancedImageWidget::zoomIn">
<polygon fill="none" stroke="black" points="587.5,-241.5 587.5,-262.5 754.5,-262.5 754.5,-241.5 587.5,-241.5"/>
<text text-anchor="middle" x="671" y="-249.5" font-family="FreeSans.ttf" font-size="10.00">AdvancedImageWidget::zoomIn</text>
</a>
</g>
<!-- Node21&#45;&gt;Node22 -->
<g id="edge50" class="edge"><title>Node21&#45;&gt;Node22</title>
<path fill="none" stroke="midnightblue" d="M490.205,-358.458C495.81,-355.849 501.134,-352.726 506,-349 535.993,-326.03 511.781,-294.671 542,-272 552.474,-264.143 564.79,-258.813 577.584,-255.27"/>
<polygon fill="midnightblue" stroke="midnightblue" points="578.535,-258.642 587.438,-252.898 576.896,-251.836 578.535,-258.642"/>
</g>
<!-- Node23 -->
<g id="node49" class="node"><title>Node23</title>
<a xlink:href="classAdvancedImageWidget.html#afa45a302554ddb6594f87a79cbfb103b" target="_top" xlink:title="AdvancedImageWidget::zoomOut">
<polygon fill="none" stroke="black" points="583,-281.5 583,-302.5 759,-302.5 759,-281.5 583,-281.5"/>
<text text-anchor="middle" x="671" y="-289.5" font-family="FreeSans.ttf" font-size="10.00">AdvancedImageWidget::zoomOut</text>
</a>
</g>
<!-- Node21&#45;&gt;Node23 -->
<g id="edge52" class="edge"><title>Node21&#45;&gt;Node23</title>
<path fill="none" stroke="midnightblue" d="M480.677,-358.484C489.448,-355.962 498.039,-352.847 506,-349 525.275,-339.686 522.809,-326.485 542,-317 551.708,-312.202 562.251,-308.324 572.986,-305.189"/>
<polygon fill="midnightblue" stroke="midnightblue" points="574.139,-308.503 582.879,-302.514 572.312,-301.745 574.139,-308.503"/>
</g>
<!-- Node30&#45;&gt;Node24 -->
<g id="edge74" class="edge"><title>Node30&#45;&gt;Node24</title>
<path fill="none" stroke="midnightblue" d="M491.614,-278.781C496.771,-276.075 501.621,-272.845 506,-269 546.245,-233.663 506.965,-194.508 542,-154 562.195,-130.65 593.172,-115.361 619.709,-105.809"/>
<polygon fill="midnightblue" stroke="midnightblue" points="620.927,-109.092 629.257,-102.545 618.662,-102.468 620.927,-109.092"/>
</g>
</g>
</svg>
        <g id="navigator" transform="translate(0 0)" fill="#404254">
                <rect fill="#f2f5e9" fill-opacity="0.5" stroke="#606060" stroke-width=".5" x="0" y="0" width="60" height="60"/>
                <use id="zoomplus" xlink:href="#zoomPlus" x="17" y="9" onmousedown="handleZoom(evt,'in')"/>
                <use id="zoomminus" xlink:href="#zoomMin" x="42" y="9" onmousedown="handleZoom(evt,'out')"/>
                <use id="reset" xlink:href="#resetDef" x="30" y="36" onmousedown="handleReset()"/>
                <g id="arrowUp" xlink:href="#dirArrow" transform="translate(30 24)" onmousedown="handlePan(0,-1)">
                  <use xlink:href="#rim" fill="#404040">
                        <set attributeName="fill" to="#808080" begin="arrowUp.mouseover" end="arrowUp.mouseout"/>
                  </use>
                  <path fill="none" stroke="white" stroke-width="1.5" d="M0,-3.0v7 M-2.5,-0.5L0,-3.0L2.5,-0.5"/>
                </g>
                <g id="arrowRight" xlink:href="#dirArrow" transform="rotate(90) translate(36 -43)" onmousedown="handlePan(1,0)">
                  <use xlink:href="#rim" fill="#404040">
                        <set attributeName="fill" to="#808080" begin="arrowRight.mouseover" end="arrowRight.mouseout"/>
                  </use>
                  <path fill="none" stroke="white" stroke-width="1.5" d="M0,-3.0v7 M-2.5,-0.5L0,-3.0L2.5,-0.5"/>
                </g>
                <g id="arrowDown" xlink:href="#dirArrow" transform="rotate(180) translate(-30 -48)" onmousedown="handlePan(0,1)">
                  <use xlink:href="#rim" fill="#404040">
                        <set attributeName="fill" to="#808080" begin="arrowDown.mouseover" end="arrowDown.mouseout"/>
                  </use>
                  <path fill="none" stroke="white" stroke-width="1.5" d="M0,-3.0v7 M-2.5,-0.5L0,-3.0L2.5,-0.5"/>
                </g>
                <g id="arrowLeft" xlink:href="#dirArrow" transform="rotate(270) translate(-36 17)" onmousedown="handlePan(-1,0)">
                  <use xlink:href="#rim" fill="#404040">
                        <set attributeName="fill" to="#808080" begin="arrowLeft.mouseover" end="arrowLeft.mouseout"/>
                  </use>
                  <path fill="none" stroke="white" stroke-width="1.5" d="M0,-3.0v7 M-2.5,-0.5L0,-3.0L2.5,-0.5"/>
                </g>
        </g>
</svg>
