<?xml version="1.0" encoding="UTF-8" standalone="no"?>
<!DOCTYPE svg PUBLIC "-//W3C//DTD SVG 1.1//EN"
 "http://www.w3.org/Graphics/SVG/1.1/DTD/svg11.dtd">
<!-- Generated by graphviz version 2.26.3 (20100126.1600)
 -->
<!-- Title: G Pages: 1 -->
<!--zoomable 150 -->
<svg id="main" version="1.1" xmlns="http://www.w3.org/2000/svg" xmlns:xlink="http://www.w3.org/1999/xlink" xml:space="preserve" onload="init(evt)">
        <defs>
                <circle id="rim" cx="0" cy="0" r="7"/>
                <circle id="rim2" cx="0" cy="0" r="3.5"/>
                <g id="zoomPlus">
                        <use xlink:href="#rim" fill="#404040">
                                <set attributeName="fill" to="#808080" begin="zoomplus.mouseover" end="zoomplus.mouseout"/>
                        </use>
                        <path d="M-4,0h8M0,-4v8" fill="none" stroke="white" stroke-width="1.5" pointer-events="none"/>
                </g>
                <g id="zoomMin">
                        <use xlink:href="#rim" fill="#404040">
                                <set attributeName="fill" to="#808080" begin="zoomminus.mouseover" end="zoomminus.mouseout"/>
                        </use>
                        <path d="M-4,0h8" fill="none" stroke="white" stroke-width="1.5" pointer-events="none"/>
                </g>
                <g id="dirArrow">
                        <path fill="none" stroke="white" stroke-width="1.5" d="M0,-3.0v7 M-2.5,-0.5L0,-3.0L2.5,-0.5"/>
                </g>
               <g id="resetDef">
                       <use xlink:href="#rim2" fill="#404040">
                               <set attributeName="fill" to="#808080" begin="reset.mouseover" end="reset.mouseout"/>
                       </use>
               </g>
        </defs>

<script type="text/javascript">
var viewWidth = 570;
var viewHeight = 150;
var sectionId = 'dynsection-8';
</script>
<script xlink:href="svgpan.js"/>
<svg id="graph" class="graph">
<g id="viewport">
<title>G</title>
<!-- Node1 -->
<g id="node1" class="node"><title>Node1</title>
<polygon fill="#bfbfbf" stroke="black" points="0,-60.5 0,-81.5 258,-81.5 258,-60.5 0,-60.5"/>
<text text-anchor="middle" x="129" y="-68.5" font-family="FreeSans.ttf" font-size="10.00">RgbColorParametersControlWidget::setParameters</text>
</g>
<!-- Node2 -->
<g id="node3" class="node"><title>Node2</title>
<a xlink:href="classRgbColorParameters.html#ae07cc032601d2f99de4011962fef14c1" target="_top" xlink:title="RgbColorParameters::b">
<polygon fill="none" stroke="black" points="364.5,-120.5 364.5,-141.5 491.5,-141.5 491.5,-120.5 364.5,-120.5"/>
<text text-anchor="middle" x="428" y="-128.5" font-family="FreeSans.ttf" font-size="10.00">RgbColorParameters::b</text>
</a>
</g>
<!-- Node1&#45;&gt;Node2 -->
<g id="edge2" class="edge"><title>Node1&#45;&gt;Node2</title>
<path fill="none" stroke="midnightblue" d="M168.121,-81.5328C201.417,-90.2444 250.608,-102.52 294,-111 313.462,-114.803 334.637,-118.271 354.288,-121.211"/>
<polygon fill="midnightblue" stroke="midnightblue" points="354.004,-124.707 364.407,-122.699 355.023,-117.781 354.004,-124.707"/>
</g>
<!-- Node3 -->
<g id="node5" class="node"><title>Node3</title>
<a xlink:href="classRgbColorParameters.html#ac9412ba5f3027be3d598d621ef7010e0" target="_top" xlink:title="RgbColorParameters::g">
<polygon fill="none" stroke="black" points="364.5,-80.5 364.5,-101.5 491.5,-101.5 491.5,-80.5 364.5,-80.5"/>
<text text-anchor="middle" x="428" y="-88.5" font-family="FreeSans.ttf" font-size="10.00">RgbColorParameters::g</text>
</a>
</g>
<!-- Node1&#45;&gt;Node3 -->
<g id="edge4" class="edge"><title>Node1&#45;&gt;Node3</title>
<path fill="none" stroke="midnightblue" d="M258.407,-79.656C291.161,-81.8469 325.226,-84.1255 354.158,-86.0607"/>
<polygon fill="midnightblue" stroke="midnightblue" points="353.955,-89.5549 364.166,-86.7302 354.422,-82.5705 353.955,-89.5549"/>
</g>
<!-- Node4 -->
<g id="node7" class="node"><title>Node4</title>
<a xlink:href="classRgbColorParametersControlWidget.html#abefe083fe12dd60893883df31992f9c6" target="_top" xlink:title="RgbColorParametersControlWidget::paramsChanged">
<polygon fill="none" stroke="black" points="294.5,-40.5 294.5,-61.5 561.5,-61.5 561.5,-40.5 294.5,-40.5"/>
<text text-anchor="middle" x="428" y="-48.5" font-family="FreeSans.ttf" font-size="10.00">RgbColorParametersControlWidget::paramsChanged</text>
</a>
</g>
<!-- Node1&#45;&gt;Node4 -->
<g id="edge6" class="edge"><title>Node1&#45;&gt;Node4</title>
<path fill="none" stroke="midnightblue" d="M258.407,-62.344C266.915,-61.7749 275.511,-61.1999 284.083,-60.6266"/>
<polygon fill="midnightblue" stroke="midnightblue" points="284.383,-64.1144 294.128,-59.9547 283.916,-57.13 284.383,-64.1144"/>
</g>
<!-- Node5 -->
<g id="node9" class="node"><title>Node5</title>
<a xlink:href="classRgbColorParameters.html#a76f3b0cbd418e2259b7c35fde63e52dd" target="_top" xlink:title="RgbColorParameters::r">
<polygon fill="none" stroke="black" points="365.5,-0.5 365.5,-21.5 490.5,-21.5 490.5,-0.5 365.5,-0.5"/>
<text text-anchor="middle" x="428" y="-8.5" font-family="FreeSans.ttf" font-size="10.00">RgbColorParameters::r</text>
</a>
</g>
<!-- Node1&#45;&gt;Node5 -->
<g id="edge8" class="edge"><title>Node1&#45;&gt;Node5</title>
<path fill="none" stroke="midnightblue" d="M168.121,-60.4672C201.417,-51.7556 250.608,-39.4802 294,-31 313.847,-27.1213 335.477,-23.592 355.453,-20.615"/>
<polygon fill="midnightblue" stroke="midnightblue" points="356.034,-24.0675 365.42,-19.1544 355.019,-17.1415 356.034,-24.0675"/>
</g>
</g>
</svg>
        <g id="navigator" transform="translate(0 0)" fill="#404254">
                <rect fill="#f2f5e9" fill-opacity="0.5" stroke="#606060" stroke-width=".5" x="0" y="0" width="60" height="60"/>
                <use id="zoomplus" xlink:href="#zoomPlus" x="17" y="9" onmousedown="handleZoom(evt,'in')"/>
                <use id="zoomminus" xlink:href="#zoomMin" x="42" y="9" onmousedown="handleZoom(evt,'out')"/>
                <use id="reset" xlink:href="#resetDef" x="30" y="36" onmousedown="handleReset()"/>
                <g id="arrowUp" xlink:href="#dirArrow" transform="translate(30 24)" onmousedown="handlePan(0,-1)">
                  <use xlink:href="#rim" fill="#404040">
                        <set attributeName="fill" to="#808080" begin="arrowUp.mouseover" end="arrowUp.mouseout"/>
                  </use>
                  <path fill="none" stroke="white" stroke-width="1.5" d="M0,-3.0v7 M-2.5,-0.5L0,-3.0L2.5,-0.5"/>
                </g>
                <g id="arrowRight" xlink:href="#dirArrow" transform="rotate(90) translate(36 -43)" onmousedown="handlePan(1,0)">
                  <use xlink:href="#rim" fill="#404040">
                        <set attributeName="fill" to="#808080" begin="arrowRight.mouseover" end="arrowRight.mouseout"/>
                  </use>
                  <path fill="none" stroke="white" stroke-width="1.5" d="M0,-3.0v7 M-2.5,-0.5L0,-3.0L2.5,-0.5"/>
                </g>
                <g id="arrowDown" xlink:href="#dirArrow" transform="rotate(180) translate(-30 -48)" onmousedown="handlePan(0,1)">
                  <use xlink:href="#rim" fill="#404040">
                        <set attributeName="fill" to="#808080" begin="arrowDown.mouseover" end="arrowDown.mouseout"/>
                  </use>
                  <path fill="none" stroke="white" stroke-width="1.5" d="M0,-3.0v7 M-2.5,-0.5L0,-3.0L2.5,-0.5"/>
                </g>
                <g id="arrowLeft" xlink:href="#dirArrow" transform="rotate(270) translate(-36 17)" onmousedown="handlePan(-1,0)">
                  <use xlink:href="#rim" fill="#404040">
                        <set attributeName="fill" to="#808080" begin="arrowLeft.mouseover" end="arrowLeft.mouseout"/>
                  </use>
                  <path fill="none" stroke="white" stroke-width="1.5" d="M0,-3.0v7 M-2.5,-0.5L0,-3.0L2.5,-0.5"/>
                </g>
        </g>
</svg>
