<?xml version="1.0" encoding="UTF-8" standalone="no"?>
<!DOCTYPE svg PUBLIC "-//W3C//DTD SVG 1.1//EN"
 "http://www.w3.org/Graphics/SVG/1.1/DTD/svg11.dtd">
<!-- Generated by graphviz version 2.26.3 (20100126.1600)
 -->
<!-- Title: G Pages: 1 -->
<svg width="306pt" height="174pt"
 viewBox="0.00 0.00 306.00 174.00" xmlns="http://www.w3.org/2000/svg" xmlns:xlink="http://www.w3.org/1999/xlink">
<g id="graph1" class="graph" transform="scale(1 1) rotate(0) translate(4 170)">
<title>G</title>
<!-- Node1 -->
<g id="node1" class="node"><title>Node1</title>
<polygon fill="#bfbfbf" stroke="black" points="106.5,-0.5 106.5,-21.5 215.5,-21.5 215.5,-0.5 106.5,-0.5"/>
<text text-anchor="middle" x="161" y="-8.5" font-family="FreeSans.ttf" font-size="10.00">corecvs::StringField</text>
</g>
<!-- Node2 -->
<g id="node2" class="node"><title>Node2</title>
<a xlink:href="classcorecvs_1_1BaseField.html" target="_top" xlink:title="This class is a core class for the reflection.">
<polygon fill="none" stroke="black" points="33,-72.5 33,-93.5 137,-93.5 137,-72.5 33,-72.5"/>
<text text-anchor="middle" x="85" y="-80.5" font-family="FreeSans.ttf" font-size="10.00">corecvs::BaseField</text>
</a>
</g>
<!-- Node2&#45;&gt;Node1 -->
<g id="edge2" class="edge"><title>Node2&#45;&gt;Node1</title>
<path fill="none" stroke="midnightblue" d="M103.632,-65.3488C118.069,-51.6714 137.597,-33.1709 149.74,-21.6674"/>
<polygon fill="midnightblue" stroke="midnightblue" points="101.066,-62.9578 96.2141,-72.3762 105.881,-68.0395 101.066,-62.9578"/>
</g>
<!-- Node3 -->
<g id="node4" class="node"><title>Node3</title>
<a xlink:href="classcorecvs_1_1ReflectionNaming.html" target="_top" xlink:title="We have several styles of nameing.">
<polygon fill="none" stroke="black" points="-0.5,-144.5 -0.5,-165.5 142.5,-165.5 142.5,-144.5 -0.5,-144.5"/>
<text text-anchor="middle" x="71" y="-152.5" font-family="FreeSans.ttf" font-size="10.00">corecvs::ReflectionNaming</text>
</a>
</g>
<!-- Node3&#45;&gt;Node2 -->
<g id="edge4" class="edge"><title>Node3&#45;&gt;Node2</title>
<path fill="none" stroke="#9a32cd" stroke-dasharray="5,2" d="M75.0377,-134.235C77.6171,-120.969 80.8547,-104.319 82.9258,-93.6674"/>
<polygon fill="#9a32cd" stroke="#9a32cd" points="71.5389,-133.892 73.0657,-144.376 78.4102,-135.228 71.5389,-133.892"/>
<text text-anchor="middle" x="95.5" y="-116.5" font-family="FreeSans.ttf" font-size="10.00"> name</text>
</g>
<!-- Node4 -->
<g id="node6" class="node"><title>Node4</title>
<a xlink:title="STL class.">
<polygon fill="none" stroke="#bfbfbf" points="182.5,-72.5 182.5,-93.5 247.5,-93.5 247.5,-72.5 182.5,-72.5"/>
<text text-anchor="middle" x="215" y="-80.5" font-family="FreeSans.ttf" font-size="10.00">std::string</text>
</a>
</g>
<!-- Node4&#45;&gt;Node1 -->
<g id="edge6" class="edge"><title>Node4&#45;&gt;Node1</title>
<path fill="none" stroke="#9a32cd" stroke-dasharray="5,2" d="M200.899,-64.1981C190.737,-50.649 177.389,-32.8514 169.001,-21.6674"/>
<polygon fill="#9a32cd" stroke="#9a32cd" points="198.232,-66.4761 207.032,-72.3762 203.832,-62.2761 198.232,-66.4761"/>
<text text-anchor="middle" x="223.5" y="-44.5" font-family="FreeSans.ttf" font-size="10.00"> defaultValue</text>
</g>
<!-- Node5 -->
<g id="node8" class="node"><title>Node5</title>
<a xlink:title="STL class.">
<polygon fill="none" stroke="#bfbfbf" points="160,-144.5 160,-165.5 298,-165.5 298,-144.5 160,-144.5"/>
<text text-anchor="middle" x="229" y="-152.5" font-family="FreeSans.ttf" font-size="10.00">std::basic_string&lt; char &gt;</text>
</a>
</g>
<!-- Node5&#45;&gt;Node4 -->
<g id="edge8" class="edge"><title>Node5&#45;&gt;Node4</title>
<path fill="none" stroke="midnightblue" d="M224.962,-134.235C222.383,-120.969 219.145,-104.319 217.074,-93.6674"/>
<polygon fill="midnightblue" stroke="midnightblue" points="221.59,-135.228 226.934,-144.376 228.461,-133.892 221.59,-135.228"/>
</g>
</g>
</svg>
