<?xml version="1.0" encoding="UTF-8" standalone="no"?>
<!DOCTYPE svg PUBLIC "-//W3C//DTD SVG 1.1//EN"
 "http://www.w3.org/Graphics/SVG/1.1/DTD/svg11.dtd">
<!-- Generated by graphviz version 2.26.3 (20100126.1600)
 -->
<!-- Title: G Pages: 1 -->
<svg width="340pt" height="70pt"
 viewBox="0.00 0.00 340.00 70.00" xmlns="http://www.w3.org/2000/svg" xmlns:xlink="http://www.w3.org/1999/xlink">
<g id="graph1" class="graph" transform="scale(1 1) rotate(0) translate(4 66)">
<title>G</title>
<!-- Node1 -->
<g id="node1" class="node"><title>Node1</title>
<polygon fill="#bfbfbf" stroke="black" points="0.5,-20.5 0.5,-41.5 137.5,-41.5 137.5,-20.5 0.5,-20.5"/>
<text text-anchor="middle" x="69" y="-28.5" font-family="FreeSans.ttf" font-size="10.00">corecvs::Line2d::fromRay</text>
</g>
<!-- Node2 -->
<g id="node3" class="node"><title>Node2</title>
<a xlink:href="classcorecvs_1_1Vector2d.html#a8b1b9448eba22543b2d6a405736f4089" target="_top" xlink:title="corecvs::Vector2d::leftNormal">
<polygon fill="none" stroke="black" points="174,-40.5 174,-61.5 332,-61.5 332,-40.5 174,-40.5"/>
<text text-anchor="middle" x="253" y="-48.5" font-family="FreeSans.ttf" font-size="10.00">corecvs::Vector2d::leftNormal</text>
</a>
</g>
<!-- Node1&#45;&gt;Node2 -->
<g id="edge2" class="edge"><title>Node1&#45;&gt;Node2</title>
<path fill="none" stroke="midnightblue" d="M137.515,-38.4473C146.126,-39.3833 155.032,-40.3513 163.902,-41.3154"/>
<polygon fill="midnightblue" stroke="midnightblue" points="163.563,-44.7991 173.883,-42.4003 164.32,-37.8401 163.563,-44.7991"/>
</g>
<!-- Node3 -->
<g id="node5" class="node"><title>Node3</title>
<a xlink:href="classcorecvs_1_1Line2d.html#a1da80b5c651aecdf9ec9f47edea87d4b" target="_top" xlink:title="corecvs::Line2d::Line2d">
<polygon fill="none" stroke="black" points="189,-0.5 189,-21.5 317,-21.5 317,-0.5 189,-0.5"/>
<text text-anchor="middle" x="253" y="-8.5" font-family="FreeSans.ttf" font-size="10.00">corecvs::Line2d::Line2d</text>
</a>
</g>
<!-- Node1&#45;&gt;Node3 -->
<g id="edge4" class="edge"><title>Node1&#45;&gt;Node3</title>
<path fill="none" stroke="midnightblue" d="M137.515,-23.5527C150.949,-22.0925 165.1,-20.5544 178.713,-19.0747"/>
<polygon fill="midnightblue" stroke="midnightblue" points="179.434,-22.5171 188.997,-17.9569 178.677,-15.558 179.434,-22.5171"/>
</g>
</g>
</svg>
