<?xml version="1.0" encoding="UTF-8" standalone="no"?>
<!DOCTYPE svg PUBLIC "-//W3C//DTD SVG 1.1//EN"
 "http://www.w3.org/Graphics/SVG/1.1/DTD/svg11.dtd">
<!-- Generated by graphviz version 2.26.3 (20100126.1600)
 -->
<!-- Title: G Pages: 1 -->
<svg width="446pt" height="88pt"
 viewBox="0.00 0.00 446.00 88.00" xmlns="http://www.w3.org/2000/svg" xmlns:xlink="http://www.w3.org/1999/xlink">
<g id="graph1" class="graph" transform="scale(1 1) rotate(0) translate(4 84)">
<title>G</title>
<!-- Node1 -->
<g id="node1" class="node"><title>Node1</title>
<polygon fill="#bfbfbf" stroke="black" points="182,-58.5 182,-79.5 256,-79.5 256,-58.5 182,-58.5"/>
<text text-anchor="middle" x="219" y="-66.5" font-family="FreeSans.ttf" font-size="10.00">corecvs::Pin</text>
</g>
<!-- Node2 -->
<g id="node3" class="node"><title>Node2</title>
<a xlink:href="classcorecvs_1_1G12Pin.html" target="_top" xlink:title="corecvs::G12Pin">
<polygon fill="none" stroke="black" points="-0.5,-0.5 -0.5,-21.5 92.5,-21.5 92.5,-0.5 -0.5,-0.5"/>
<text text-anchor="middle" x="46" y="-8.5" font-family="FreeSans.ttf" font-size="10.00">corecvs::G12Pin</text>
</a>
</g>
<!-- Node1&#45;&gt;Node2 -->
<g id="edge2" class="edge"><title>Node1&#45;&gt;Node2</title>
<path fill="none" stroke="midnightblue" d="M178.073,-55.2787C147.246,-44.9437 105.61,-30.9849 77.3878,-21.5231"/>
<polygon fill="midnightblue" stroke="midnightblue" points="177.077,-58.6363 187.671,-58.4966 179.302,-51.9994 177.077,-58.6363"/>
</g>
<!-- Node3 -->
<g id="node5" class="node"><title>Node3</title>
<a xlink:href="classcorecvs_1_1InputPin.html" target="_top" xlink:title="corecvs::InputPin">
<polygon fill="none" stroke="black" points="110,-0.5 110,-21.5 208,-21.5 208,-0.5 110,-0.5"/>
<text text-anchor="middle" x="159" y="-8.5" font-family="FreeSans.ttf" font-size="10.00">corecvs::InputPin</text>
</a>
</g>
<!-- Node1&#45;&gt;Node3 -->
<g id="edge4" class="edge"><title>Node1&#45;&gt;Node3</title>
<path fill="none" stroke="midnightblue" d="M200.798,-51.405C190.726,-41.6683 178.543,-29.8914 169.935,-21.5707"/>
<polygon fill="midnightblue" stroke="midnightblue" points="198.373,-53.9281 207.995,-58.3619 203.238,-48.8952 198.373,-53.9281"/>
</g>
<!-- Node4 -->
<g id="node7" class="node"><title>Node4</title>
<a xlink:href="classcorecvs_1_1OutputPin.html" target="_top" xlink:title="corecvs::OutputPin">
<polygon fill="none" stroke="black" points="225.5,-0.5 225.5,-21.5 332.5,-21.5 332.5,-0.5 225.5,-0.5"/>
<text text-anchor="middle" x="279" y="-8.5" font-family="FreeSans.ttf" font-size="10.00">corecvs::OutputPin</text>
</a>
</g>
<!-- Node1&#45;&gt;Node4 -->
<g id="edge6" class="edge"><title>Node1&#45;&gt;Node4</title>
<path fill="none" stroke="midnightblue" d="M237.202,-51.405C247.274,-41.6683 259.457,-29.8914 268.065,-21.5707"/>
<polygon fill="midnightblue" stroke="midnightblue" points="234.762,-48.8952 230.005,-58.3619 239.627,-53.9281 234.762,-48.8952"/>
</g>
<!-- Node5 -->
<g id="node9" class="node"><title>Node5</title>
<a xlink:href="classcorecvs_1_1TxtPin.html" target="_top" xlink:title="corecvs::TxtPin">
<polygon fill="none" stroke="black" points="350,-0.5 350,-21.5 438,-21.5 438,-0.5 350,-0.5"/>
<text text-anchor="middle" x="394" y="-8.5" font-family="FreeSans.ttf" font-size="10.00">corecvs::TxtPin</text>
</a>
</g>
<!-- Node1&#45;&gt;Node5 -->
<g id="edge8" class="edge"><title>Node1&#45;&gt;Node5</title>
<path fill="none" stroke="midnightblue" d="M260.4,-55.2787C291.584,-44.9437 333.701,-30.9849 362.249,-21.5231"/>
<polygon fill="midnightblue" stroke="midnightblue" points="259.082,-52.0283 250.691,-58.4966 261.285,-58.6729 259.082,-52.0283"/>
</g>
</g>
</svg>
