<?xml version="1.0" encoding="UTF-8" standalone="no"?>
<!DOCTYPE svg PUBLIC "-//W3C//DTD SVG 1.1//EN"
 "http://www.w3.org/Graphics/SVG/1.1/DTD/svg11.dtd">
<!-- Generated by graphviz version 2.26.3 (20100126.1600)
 -->
<!-- Title: G Pages: 1 -->
<!--zoomable 150 -->
<svg id="main" version="1.1" xmlns="http://www.w3.org/2000/svg" xmlns:xlink="http://www.w3.org/1999/xlink" xml:space="preserve" onload="init(evt)">
        <defs>
                <circle id="rim" cx="0" cy="0" r="7"/>
                <circle id="rim2" cx="0" cy="0" r="3.5"/>
                <g id="zoomPlus">
                        <use xlink:href="#rim" fill="#404040">
                                <set attributeName="fill" to="#808080" begin="zoomplus.mouseover" end="zoomplus.mouseout"/>
                        </use>
                        <path d="M-4,0h8M0,-4v8" fill="none" stroke="white" stroke-width="1.5" pointer-events="none"/>
                </g>
                <g id="zoomMin">
                        <use xlink:href="#rim" fill="#404040">
                                <set attributeName="fill" to="#808080" begin="zoomminus.mouseover" end="zoomminus.mouseout"/>
                        </use>
                        <path d="M-4,0h8" fill="none" stroke="white" stroke-width="1.5" pointer-events="none"/>
                </g>
                <g id="dirArrow">
                        <path fill="none" stroke="white" stroke-width="1.5" d="M0,-3.0v7 M-2.5,-0.5L0,-3.0L2.5,-0.5"/>
                </g>
               <g id="resetDef">
                       <use xlink:href="#rim2" fill="#404040">
                               <set attributeName="fill" to="#808080" begin="reset.mouseover" end="reset.mouseout"/>
                       </use>
               </g>
        </defs>

<script type="text/javascript">
var viewWidth = 908;
var viewHeight = 150;
var sectionId = 'dynsection-5';
</script>
<script xlink:href="svgpan.js"/>
<svg id="graph" class="graph">
<g id="viewport">
<title>G</title>
<!-- Node1 -->
<g id="node1" class="node"><title>Node1</title>
<polygon fill="#bfbfbf" stroke="black" points="0.5,-57.5 0.5,-78.5 273.5,-78.5 273.5,-57.5 0.5,-57.5"/>
<text text-anchor="middle" x="137" y="-65.5" font-family="FreeSans.ttf" font-size="10.00">corecvs::EllipticalApproximation::getEllipseAxisSquare</text>
</g>
<!-- Node2 -->
<g id="node3" class="node"><title>Node2</title>
<a xlink:href="classcorecvs_1_1EllipticalApproximation.html#a742ab54a7a28b619a9dc7639cd8b7937" target="_top" xlink:title="corecvs::EllipticalApproximation::getPerAxisDeviationSquare">
<polygon fill="none" stroke="black" points="310,-117.5 310,-138.5 614,-138.5 614,-117.5 310,-117.5"/>
<text text-anchor="middle" x="462" y="-125.5" font-family="FreeSans.ttf" font-size="10.00">corecvs::EllipticalApproximation::getPerAxisDeviationSquare</text>
</a>
</g>
<!-- Node1&#45;&gt;Node2 -->
<g id="edge2" class="edge"><title>Node1&#45;&gt;Node2</title>
<path fill="none" stroke="midnightblue" d="M177.667,-78.5716C212.58,-87.3661 264.347,-99.7385 310,-108 326.421,-110.971 343.915,-113.687 360.972,-116.094"/>
<polygon fill="midnightblue" stroke="midnightblue" points="360.568,-119.571 370.953,-117.475 361.527,-112.637 360.568,-119.571"/>
</g>
<!-- Node5 -->
<g id="node9" class="node"><title>Node5</title>
<a xlink:href="classcorecvs_1_1EllipticalApproximation.html#ab175a05083269eb8e8348d31060cea5a" target="_top" xlink:title="this function computes ">
<polygon fill="none" stroke="black" points="361.5,-77.5 361.5,-98.5 562.5,-98.5 562.5,-77.5 361.5,-77.5"/>
<text text-anchor="middle" x="462" y="-85.5" font-family="FreeSans.ttf" font-size="10.00">corecvs::EllipticalApproximation::mu11</text>
</a>
</g>
<!-- Node1&#45;&gt;Node5 -->
<g id="edge8" class="edge"><title>Node1&#45;&gt;Node5</title>
<path fill="none" stroke="midnightblue" d="M273.887,-76.4238C299.655,-78.0095 326.304,-79.6494 351.154,-81.1787"/>
<polygon fill="midnightblue" stroke="midnightblue" points="351.12,-84.6831 361.316,-81.804 351.55,-77.6963 351.12,-84.6831"/>
</g>
<!-- Node6 -->
<g id="node12" class="node"><title>Node6</title>
<a xlink:href="classcorecvs_1_1Vector2d.html#a944721c41f044c1388d9dc42ca899bce" target="_top" xlink:title="corecvs::Vector2d::x">
<polygon fill="none" stroke="black" points="718.5,-40.5 718.5,-61.5 831.5,-61.5 831.5,-40.5 718.5,-40.5"/>
<text text-anchor="middle" x="775" y="-48.5" font-family="FreeSans.ttf" font-size="10.00">corecvs::Vector2d::x</text>
</a>
</g>
<!-- Node1&#45;&gt;Node6 -->
<g id="edge16" class="edge"><title>Node1&#45;&gt;Node6</title>
<path fill="none" stroke="midnightblue" d="M273.867,-64.3531C407.674,-60.7877 605.776,-55.5091 708.22,-52.7794"/>
<polygon fill="midnightblue" stroke="midnightblue" points="708.527,-56.2726 718.43,-52.5074 708.34,-49.2751 708.527,-56.2726"/>
</g>
<!-- Node7 -->
<g id="node14" class="node"><title>Node7</title>
<a xlink:href="classcorecvs_1_1Vector2d.html#ae1ea2ad4c0821001408bf963cffa8413" target="_top" xlink:title="corecvs::Vector2d::y">
<polygon fill="none" stroke="black" points="718.5,-0.5 718.5,-21.5 831.5,-21.5 831.5,-0.5 718.5,-0.5"/>
<text text-anchor="middle" x="775" y="-8.5" font-family="FreeSans.ttf" font-size="10.00">corecvs::Vector2d::y</text>
</a>
</g>
<!-- Node1&#45;&gt;Node7 -->
<g id="edge18" class="edge"><title>Node1&#45;&gt;Node7</title>
<path fill="none" stroke="midnightblue" d="M242.19,-57.4574C264.568,-55.2723 288.062,-53.0214 310,-51 451.787,-37.9357 618.024,-23.9593 708.335,-16.4787"/>
<polygon fill="midnightblue" stroke="midnightblue" points="708.755,-19.956 718.432,-15.6432 708.178,-12.9799 708.755,-19.956"/>
</g>
<!-- Node3 -->
<g id="node5" class="node"><title>Node3</title>
<a xlink:href="classcorecvs_1_1EllipticalApproximation.html#adb02d31a88acbeca21b8517e9ce059b0" target="_top" xlink:title="Position of input points center.">
<polygon fill="none" stroke="black" points="667.5,-80.5 667.5,-101.5 882.5,-101.5 882.5,-80.5 667.5,-80.5"/>
<text text-anchor="middle" x="775" y="-88.5" font-family="FreeSans.ttf" font-size="10.00">corecvs::EllipticalApproximation::getMean</text>
</a>
</g>
<!-- Node2&#45;&gt;Node3 -->
<g id="edge4" class="edge"><title>Node2&#45;&gt;Node3</title>
<path fill="none" stroke="midnightblue" d="M550.856,-117.496C589.844,-112.887 635.768,-107.459 675.862,-102.719"/>
<polygon fill="midnightblue" stroke="midnightblue" points="676.402,-106.18 685.922,-101.53 675.58,-99.2282 676.402,-106.18"/>
</g>
<!-- Node4 -->
<g id="node7" class="node"><title>Node4</title>
<a xlink:href="classcorecvs_1_1EllipticalApproximation.html#a1b57876ca04df6425373d909fa6dc2a2" target="_top" xlink:title="corecvs::EllipticalApproximation::getMeanSquare">
<polygon fill="none" stroke="black" points="650,-120.5 650,-141.5 900,-141.5 900,-120.5 650,-120.5"/>
<text text-anchor="middle" x="775" y="-128.5" font-family="FreeSans.ttf" font-size="10.00">corecvs::EllipticalApproximation::getMeanSquare</text>
</a>
</g>
<!-- Node2&#45;&gt;Node4 -->
<g id="edge6" class="edge"><title>Node2&#45;&gt;Node4</title>
<path fill="none" stroke="midnightblue" d="M614.374,-129.46C622.774,-129.541 631.19,-129.622 639.525,-129.702"/>
<polygon fill="midnightblue" stroke="midnightblue" points="639.613,-133.202 649.646,-129.799 639.68,-126.203 639.613,-133.202"/>
</g>
<!-- Node5&#45;&gt;Node3 -->
<g id="edge10" class="edge"><title>Node5&#45;&gt;Node3</title>
<path fill="none" stroke="midnightblue" d="M562.758,-88.9657C592.913,-89.2548 626.245,-89.5742 657.384,-89.8727"/>
<polygon fill="midnightblue" stroke="midnightblue" points="657.377,-93.3727 667.41,-89.9688 657.444,-86.373 657.377,-93.3727"/>
</g>
<!-- Node5&#45;&gt;Node6 -->
<g id="edge12" class="edge"><title>Node5&#45;&gt;Node6</title>
<path fill="none" stroke="midnightblue" d="M550.856,-77.4963C600.928,-71.5772 662.44,-64.3058 708.351,-58.8787"/>
<polygon fill="midnightblue" stroke="midnightblue" points="708.968,-62.3302 718.488,-57.6803 708.146,-55.3786 708.968,-62.3302"/>
</g>
<!-- Node5&#45;&gt;Node7 -->
<g id="edge14" class="edge"><title>Node5&#45;&gt;Node7</title>
<path fill="none" stroke="midnightblue" d="M492.266,-77.4325C529.136,-64.8847 593.501,-44.0216 650,-31 668.789,-26.6697 689.38,-22.9585 708.332,-19.9506"/>
<polygon fill="midnightblue" stroke="midnightblue" points="709.025,-23.3852 718.372,-18.3975 707.954,-16.4675 709.025,-23.3852"/>
</g>
</g>
</svg>
        <g id="navigator" transform="translate(0 0)" fill="#404254">
                <rect fill="#f2f5e9" fill-opacity="0.5" stroke="#606060" stroke-width=".5" x="0" y="0" width="60" height="60"/>
                <use id="zoomplus" xlink:href="#zoomPlus" x="17" y="9" onmousedown="handleZoom(evt,'in')"/>
                <use id="zoomminus" xlink:href="#zoomMin" x="42" y="9" onmousedown="handleZoom(evt,'out')"/>
                <use id="reset" xlink:href="#resetDef" x="30" y="36" onmousedown="handleReset()"/>
                <g id="arrowUp" xlink:href="#dirArrow" transform="translate(30 24)" onmousedown="handlePan(0,-1)">
                  <use xlink:href="#rim" fill="#404040">
                        <set attributeName="fill" to="#808080" begin="arrowUp.mouseover" end="arrowUp.mouseout"/>
                  </use>
                  <path fill="none" stroke="white" stroke-width="1.5" d="M0,-3.0v7 M-2.5,-0.5L0,-3.0L2.5,-0.5"/>
                </g>
                <g id="arrowRight" xlink:href="#dirArrow" transform="rotate(90) translate(36 -43)" onmousedown="handlePan(1,0)">
                  <use xlink:href="#rim" fill="#404040">
                        <set attributeName="fill" to="#808080" begin="arrowRight.mouseover" end="arrowRight.mouseout"/>
                  </use>
                  <path fill="none" stroke="white" stroke-width="1.5" d="M0,-3.0v7 M-2.5,-0.5L0,-3.0L2.5,-0.5"/>
                </g>
                <g id="arrowDown" xlink:href="#dirArrow" transform="rotate(180) translate(-30 -48)" onmousedown="handlePan(0,1)">
                  <use xlink:href="#rim" fill="#404040">
                        <set attributeName="fill" to="#808080" begin="arrowDown.mouseover" end="arrowDown.mouseout"/>
                  </use>
                  <path fill="none" stroke="white" stroke-width="1.5" d="M0,-3.0v7 M-2.5,-0.5L0,-3.0L2.5,-0.5"/>
                </g>
                <g id="arrowLeft" xlink:href="#dirArrow" transform="rotate(270) translate(-36 17)" onmousedown="handlePan(-1,0)">
                  <use xlink:href="#rim" fill="#404040">
                        <set attributeName="fill" to="#808080" begin="arrowLeft.mouseover" end="arrowLeft.mouseout"/>
                  </use>
                  <path fill="none" stroke="white" stroke-width="1.5" d="M0,-3.0v7 M-2.5,-0.5L0,-3.0L2.5,-0.5"/>
                </g>
        </g>
</svg>
