<?xml version="1.0" encoding="UTF-8" standalone="no"?>
<!DOCTYPE svg PUBLIC "-//W3C//DTD SVG 1.1//EN"
 "http://www.w3.org/Graphics/SVG/1.1/DTD/svg11.dtd">
<!-- Generated by graphviz version 2.26.3 (20100126.1600)
 -->
<!-- Title: G Pages: 1 -->
<svg width="406pt" height="70pt"
 viewBox="0.00 0.00 406.00 70.00" xmlns="http://www.w3.org/2000/svg" xmlns:xlink="http://www.w3.org/1999/xlink">
<g id="graph1" class="graph" transform="scale(1 1) rotate(0) translate(4 66)">
<title>G</title>
<!-- Node1 -->
<g id="node1" class="node"><title>Node1</title>
<polygon fill="#bfbfbf" stroke="black" points="0.5,-20.5 0.5,-41.5 187.5,-41.5 187.5,-20.5 0.5,-20.5"/>
<text text-anchor="middle" x="94" y="-28.5" font-family="FreeSans.ttf" font-size="10.00">corecvs::MaskFilterBlock::operator()</text>
</g>
<!-- Node2 -->
<g id="node3" class="node"><title>Node2</title>
<a xlink:href="classcorecvs_1_1AbstractBuffer.html#a98f72526738a0c4ce8a0b72a3b5c28b9" target="_top" xlink:title="The element getter.">
<polygon fill="none" stroke="black" points="224,-40.5 224,-61.5 398,-61.5 398,-40.5 224,-40.5"/>
<text text-anchor="middle" x="311" y="-48.5" font-family="FreeSans.ttf" font-size="10.00">corecvs::AbstractBuffer::element</text>
</a>
</g>
<!-- Node1&#45;&gt;Node2 -->
<g id="edge2" class="edge"><title>Node1&#45;&gt;Node2</title>
<path fill="none" stroke="midnightblue" d="M187.602,-39.6269C196.259,-40.4248 205.045,-41.2345 213.734,-42.0354"/>
<polygon fill="midnightblue" stroke="midnightblue" points="213.596,-45.5374 223.875,-42.9701 214.239,-38.567 213.596,-45.5374"/>
</g>
<!-- Node3 -->
<g id="node5" class="node"><title>Node3</title>
<a xlink:href="classcorecvs_1_1AbstractBuffer.html#a6be5a0969d374904dc4ff6cd576c9332" target="_top" xlink:title="Buffer size getter.">
<polygon fill="none" stroke="black" points="226,-0.5 226,-21.5 396,-21.5 396,-0.5 226,-0.5"/>
<text text-anchor="middle" x="311" y="-8.5" font-family="FreeSans.ttf" font-size="10.00">corecvs::AbstractBuffer::getSize</text>
</a>
</g>
<!-- Node1&#45;&gt;Node3 -->
<g id="edge4" class="edge"><title>Node1&#45;&gt;Node3</title>
<path fill="none" stroke="midnightblue" d="M187.602,-22.3731C196.953,-21.5113 206.454,-20.6356 215.82,-19.7723"/>
<polygon fill="midnightblue" stroke="midnightblue" points="216.281,-23.2448 225.918,-18.8417 215.639,-16.2743 216.281,-23.2448"/>
</g>
</g>
</svg>
