<?xml version="1.0" encoding="UTF-8" standalone="no"?>
<!DOCTYPE svg PUBLIC "-//W3C//DTD SVG 1.1//EN"
 "http://www.w3.org/Graphics/SVG/1.1/DTD/svg11.dtd">
<!-- Generated by graphviz version 2.26.3 (20100126.1600)
 -->
<!-- Title: G Pages: 1 -->
<!--zoomable 150 -->
<svg id="main" version="1.1" xmlns="http://www.w3.org/2000/svg" xmlns:xlink="http://www.w3.org/1999/xlink" xml:space="preserve" onload="init(evt)">
        <defs>
                <circle id="rim" cx="0" cy="0" r="7"/>
                <circle id="rim2" cx="0" cy="0" r="3.5"/>
                <g id="zoomPlus">
                        <use xlink:href="#rim" fill="#404040">
                                <set attributeName="fill" to="#808080" begin="zoomplus.mouseover" end="zoomplus.mouseout"/>
                        </use>
                        <path d="M-4,0h8M0,-4v8" fill="none" stroke="white" stroke-width="1.5" pointer-events="none"/>
                </g>
                <g id="zoomMin">
                        <use xlink:href="#rim" fill="#404040">
                                <set attributeName="fill" to="#808080" begin="zoomminus.mouseover" end="zoomminus.mouseout"/>
                        </use>
                        <path d="M-4,0h8" fill="none" stroke="white" stroke-width="1.5" pointer-events="none"/>
                </g>
                <g id="dirArrow">
                        <path fill="none" stroke="white" stroke-width="1.5" d="M0,-3.0v7 M-2.5,-0.5L0,-3.0L2.5,-0.5"/>
                </g>
               <g id="resetDef">
                       <use xlink:href="#rim2" fill="#404040">
                               <set attributeName="fill" to="#808080" begin="reset.mouseover" end="reset.mouseout"/>
                       </use>
               </g>
        </defs>

<script type="text/javascript">
var viewWidth = 800;
var viewHeight = 150;
var sectionId = 'dynsection-7';
</script>
<script xlink:href="svgpan.js"/>
<svg id="graph" class="graph">
<g id="viewport">
<title>G</title>
<!-- Node1 -->
<g id="node1" class="node"><title>Node1</title>
<polygon fill="#bfbfbf" stroke="black" points="0.5,-60.5 0.5,-81.5 241.5,-81.5 241.5,-60.5 0.5,-60.5"/>
<text text-anchor="middle" x="121" y="-68.5" font-family="FreeSans.ttf" font-size="10.00">corecvs::DistortionCorrectTransform::setRadius</text>
</g>
<!-- Node2 -->
<g id="node3" class="node"><title>Node2</title>
<a xlink:href="classcorecvs_1_1DistortionCorrectTransform.html#a05ee65390ac6b4bbd6c6f5916215bce3" target="_top" xlink:title="corecvs::DistortionCorrectTransform::setZ">
<polygon fill="none" stroke="black" points="278.5,-60.5 278.5,-81.5 495.5,-81.5 495.5,-60.5 278.5,-60.5"/>
<text text-anchor="middle" x="387" y="-68.5" font-family="FreeSans.ttf" font-size="10.00">corecvs::DistortionCorrectTransform::setZ</text>
</a>
</g>
<!-- Node1&#45;&gt;Node2 -->
<g id="edge2" class="edge"><title>Node1&#45;&gt;Node2</title>
<path fill="none" stroke="midnightblue" d="M241.547,-71C250.341,-71 259.207,-71 267.991,-71"/>
<polygon fill="midnightblue" stroke="midnightblue" points="268.256,-74.5001 278.256,-71 268.256,-67.5001 268.256,-74.5001"/>
</g>
<!-- Node3 -->
<g id="node5" class="node"><title>Node3</title>
<a xlink:href="classcorecvs_1_1VectorOperationsBase.html#acfcd4bcc60d1d076b00afcfeba9f9e8b" target="_top" xlink:title="Euclidean distance.">
<polygon fill="none" stroke="black" points="557,-120.5 557,-141.5 767,-141.5 767,-120.5 557,-120.5"/>
<text text-anchor="middle" x="662" y="-128.5" font-family="FreeSans.ttf" font-size="10.00">corecvs::VectorOperationsBase::l2Metric</text>
</a>
</g>
<!-- Node2&#45;&gt;Node3 -->
<g id="edge4" class="edge"><title>Node2&#45;&gt;Node3</title>
<path fill="none" stroke="midnightblue" d="M420.71,-81.5012C449.922,-90.3117 493.442,-102.745 532,-111 545.386,-113.866 559.632,-116.486 573.6,-118.819"/>
<polygon fill="midnightblue" stroke="midnightblue" points="573.274,-122.312 583.706,-120.466 574.4,-115.403 573.274,-122.312"/>
</g>
<!-- Node4 -->
<g id="node7" class="node"><title>Node4</title>
<a xlink:href="classcorecvs_1_1DistortionCorrectTransform.html#a61facae0ee0470d08de75b15453cb303" target="_top" xlink:title="corecvs::DistortionCorrectTransform::isInteriorPoint">
<polygon fill="none" stroke="black" points="532,-80.5 532,-101.5 792,-101.5 792,-80.5 532,-80.5"/>
<text text-anchor="middle" x="662" y="-88.5" font-family="FreeSans.ttf" font-size="10.00">corecvs::DistortionCorrectTransform::isInteriorPoint</text>
</a>
</g>
<!-- Node2&#45;&gt;Node4 -->
<g id="edge6" class="edge"><title>Node2&#45;&gt;Node4</title>
<path fill="none" stroke="midnightblue" d="M495.687,-78.9045C504.212,-79.5245 512.891,-80.1557 521.586,-80.7881"/>
<polygon fill="midnightblue" stroke="midnightblue" points="521.564,-84.2957 531.792,-81.5303 522.072,-77.3141 521.564,-84.2957"/>
</g>
<!-- Node5 -->
<g id="node9" class="node"><title>Node5</title>
<a xlink:href="classcorecvs_1_1Vector2d.html#a944721c41f044c1388d9dc42ca899bce" target="_top" xlink:title="corecvs::Vector2d::x">
<polygon fill="none" stroke="black" points="605.5,-40.5 605.5,-61.5 718.5,-61.5 718.5,-40.5 605.5,-40.5"/>
<text text-anchor="middle" x="662" y="-48.5" font-family="FreeSans.ttf" font-size="10.00">corecvs::Vector2d::x</text>
</a>
</g>
<!-- Node2&#45;&gt;Node5 -->
<g id="edge8" class="edge"><title>Node2&#45;&gt;Node5</title>
<path fill="none" stroke="midnightblue" d="M495.687,-63.0955C529.262,-60.6537 565.236,-58.0374 595.108,-55.8649"/>
<polygon fill="midnightblue" stroke="midnightblue" points="595.686,-59.3322 605.405,-55.116 595.178,-52.3506 595.686,-59.3322"/>
</g>
<!-- Node6 -->
<g id="node11" class="node"><title>Node6</title>
<a xlink:href="classcorecvs_1_1Vector2d.html#ae1ea2ad4c0821001408bf963cffa8413" target="_top" xlink:title="corecvs::Vector2d::y">
<polygon fill="none" stroke="black" points="605.5,-0.5 605.5,-21.5 718.5,-21.5 718.5,-0.5 605.5,-0.5"/>
<text text-anchor="middle" x="662" y="-8.5" font-family="FreeSans.ttf" font-size="10.00">corecvs::Vector2d::y</text>
</a>
</g>
<!-- Node2&#45;&gt;Node6 -->
<g id="edge10" class="edge"><title>Node2&#45;&gt;Node6</title>
<path fill="none" stroke="midnightblue" d="M420.71,-60.4988C449.922,-51.6883 493.442,-39.255 532,-31 552.439,-26.6242 574.882,-22.8206 595.283,-19.7395"/>
<polygon fill="midnightblue" stroke="midnightblue" points="596.047,-23.1646 605.428,-18.2405 595.024,-16.2398 596.047,-23.1646"/>
</g>
</g>
</svg>
        <g id="navigator" transform="translate(0 0)" fill="#404254">
                <rect fill="#f2f5e9" fill-opacity="0.5" stroke="#606060" stroke-width=".5" x="0" y="0" width="60" height="60"/>
                <use id="zoomplus" xlink:href="#zoomPlus" x="17" y="9" onmousedown="handleZoom(evt,'in')"/>
                <use id="zoomminus" xlink:href="#zoomMin" x="42" y="9" onmousedown="handleZoom(evt,'out')"/>
                <use id="reset" xlink:href="#resetDef" x="30" y="36" onmousedown="handleReset()"/>
                <g id="arrowUp" xlink:href="#dirArrow" transform="translate(30 24)" onmousedown="handlePan(0,-1)">
                  <use xlink:href="#rim" fill="#404040">
                        <set attributeName="fill" to="#808080" begin="arrowUp.mouseover" end="arrowUp.mouseout"/>
                  </use>
                  <path fill="none" stroke="white" stroke-width="1.5" d="M0,-3.0v7 M-2.5,-0.5L0,-3.0L2.5,-0.5"/>
                </g>
                <g id="arrowRight" xlink:href="#dirArrow" transform="rotate(90) translate(36 -43)" onmousedown="handlePan(1,0)">
                  <use xlink:href="#rim" fill="#404040">
                        <set attributeName="fill" to="#808080" begin="arrowRight.mouseover" end="arrowRight.mouseout"/>
                  </use>
                  <path fill="none" stroke="white" stroke-width="1.5" d="M0,-3.0v7 M-2.5,-0.5L0,-3.0L2.5,-0.5"/>
                </g>
                <g id="arrowDown" xlink:href="#dirArrow" transform="rotate(180) translate(-30 -48)" onmousedown="handlePan(0,1)">
                  <use xlink:href="#rim" fill="#404040">
                        <set attributeName="fill" to="#808080" begin="arrowDown.mouseover" end="arrowDown.mouseout"/>
                  </use>
                  <path fill="none" stroke="white" stroke-width="1.5" d="M0,-3.0v7 M-2.5,-0.5L0,-3.0L2.5,-0.5"/>
                </g>
                <g id="arrowLeft" xlink:href="#dirArrow" transform="rotate(270) translate(-36 17)" onmousedown="handlePan(-1,0)">
                  <use xlink:href="#rim" fill="#404040">
                        <set attributeName="fill" to="#808080" begin="arrowLeft.mouseover" end="arrowLeft.mouseout"/>
                  </use>
                  <path fill="none" stroke="white" stroke-width="1.5" d="M0,-3.0v7 M-2.5,-0.5L0,-3.0L2.5,-0.5"/>
                </g>
        </g>
</svg>
