<?xml version="1.0" encoding="UTF-8" standalone="no"?>
<!DOCTYPE svg PUBLIC "-//W3C//DTD SVG 1.1//EN"
 "http://www.w3.org/Graphics/SVG/1.1/DTD/svg11.dtd">
<!-- Generated by graphviz version 2.26.3 (20100126.1600)
 -->
<!-- Title: G Pages: 1 -->
<!--zoomable 128 -->
<svg id="main" version="1.1" xmlns="http://www.w3.org/2000/svg" xmlns:xlink="http://www.w3.org/1999/xlink" xml:space="preserve" onload="init(evt)">
        <defs>
                <circle id="rim" cx="0" cy="0" r="7"/>
                <circle id="rim2" cx="0" cy="0" r="3.5"/>
                <g id="zoomPlus">
                        <use xlink:href="#rim" fill="#404040">
                                <set attributeName="fill" to="#808080" begin="zoomplus.mouseover" end="zoomplus.mouseout"/>
                        </use>
                        <path d="M-4,0h8M0,-4v8" fill="none" stroke="white" stroke-width="1.5" pointer-events="none"/>
                </g>
                <g id="zoomMin">
                        <use xlink:href="#rim" fill="#404040">
                                <set attributeName="fill" to="#808080" begin="zoomminus.mouseover" end="zoomminus.mouseout"/>
                        </use>
                        <path d="M-4,0h8" fill="none" stroke="white" stroke-width="1.5" pointer-events="none"/>
                </g>
                <g id="dirArrow">
                        <path fill="none" stroke="white" stroke-width="1.5" d="M0,-3.0v7 M-2.5,-0.5L0,-3.0L2.5,-0.5"/>
                </g>
               <g id="resetDef">
                       <use xlink:href="#rim2" fill="#404040">
                               <set attributeName="fill" to="#808080" begin="reset.mouseover" end="reset.mouseout"/>
                       </use>
               </g>
        </defs>

<script type="text/javascript">
var viewWidth = 878;
var viewHeight = 128;
var sectionId = 'dynsection-16';
</script>
<script xlink:href="svgpan.js"/>
<svg id="graph" class="graph">
<g id="viewport">
<title>G</title>
<!-- Node1 -->
<g id="node1" class="node"><title>Node1</title>
<polygon fill="#bfbfbf" stroke="black" points="0.5,-39.5215 0.5,-60.5215 145.5,-60.5215 145.5,-39.5215 0.5,-39.5215"/>
<text text-anchor="middle" x="73" y="-47.5215" font-family="FreeSans.ttf" font-size="10.00">DistortionWidget::setBuffer</text>
</g>
<!-- Node2 -->
<g id="node3" class="node"><title>Node2</title>
<a xlink:href="classDistortionWidget.html#a96d7805c04ab371285384eda79f0fda7" target="_top" xlink:title="DistortionWidget::showBufferChanged">
<polygon fill="none" stroke="black" points="182.5,-39.5215 182.5,-60.5215 379.5,-60.5215 379.5,-39.5215 182.5,-39.5215"/>
<text text-anchor="middle" x="281" y="-47.5215" font-family="FreeSans.ttf" font-size="10.00">DistortionWidget::showBufferChanged</text>
</a>
</g>
<!-- Node1&#45;&gt;Node2 -->
<g id="edge2" class="edge"><title>Node1&#45;&gt;Node2</title>
<path fill="none" stroke="midnightblue" d="M145.748,-50.0215C154.345,-50.0215 163.256,-50.0215 172.214,-50.0215"/>
<polygon fill="midnightblue" stroke="midnightblue" points="172.335,-53.5216 182.335,-50.0215 172.335,-46.5216 172.335,-53.5216"/>
</g>
<!-- Node3 -->
<g id="node5" class="node"><title>Node3</title>
<a xlink:href="classcorecvs_1_1AbstractContiniousBuffer.html#a34af819499a45b5dd52fefdbddefe33d" target="_top" xlink:title="This function template is responsible for applying reverse transformation to the abstract buffer...">
<polygon fill="none" stroke="black" points="416.5,-98.5215 416.5,-119.521 719.5,-119.521 719.5,-98.5215 416.5,-98.5215"/>
<text text-anchor="middle" x="568" y="-106.521" font-family="FreeSans.ttf" font-size="10.00">corecvs::AbstractContiniousBuffer::doReverseDeformationBl</text>
</a>
</g>
<!-- Node2&#45;&gt;Node3 -->
<g id="edge4" class="edge"><title>Node2&#45;&gt;Node3</title>
<path fill="none" stroke="midnightblue" d="M319.208,-60.5527C346.134,-67.7506 383.107,-77.1869 416,-84.0215 438.695,-88.7371 463.446,-93.1253 486.259,-96.8673"/>
<polygon fill="midnightblue" stroke="midnightblue" points="485.816,-100.341 496.247,-98.485 486.935,-93.4311 485.816,-100.341"/>
</g>
<!-- Node4 -->
<g id="node7" class="node"><title>Node4</title>
<a xlink:href="classcorecvs_1_1RadialCorrection.html#a2f5fa4ae158f8e68bb31a9179d60c8a1" target="_top" xlink:title="corecvs::RadialCorrection::map">
<polygon fill="none" stroke="black" points="485.5,-20.5215 485.5,-41.5215 650.5,-41.5215 650.5,-20.5215 485.5,-20.5215"/>
<text text-anchor="middle" x="568" y="-28.5215" font-family="FreeSans.ttf" font-size="10.00">corecvs::RadialCorrection::map</text>
</a>
</g>
<!-- Node2&#45;&gt;Node4 -->
<g id="edge6" class="edge"><title>Node2&#45;&gt;Node4</title>
<path fill="none" stroke="midnightblue" d="M379.769,-43.4828C410.653,-41.4382 444.608,-39.1903 475.075,-37.1733"/>
<polygon fill="midnightblue" stroke="midnightblue" points="475.518,-40.6518 485.265,-36.4988 475.055,-33.6671 475.518,-40.6518"/>
</g>
<!-- Node5 -->
<g id="node9" class="node"><title>Node5</title>
<a xlink:href="classcorecvs_1_1Vector2d.html#ae1ea2ad4c0821001408bf963cffa8413" target="_top" xlink:title="corecvs::Vector2d::y">
<polygon fill="none" stroke="black" points="756.5,-49.5215 756.5,-70.5215 869.5,-70.5215 869.5,-49.5215 756.5,-49.5215"/>
<text text-anchor="middle" x="813" y="-57.5215" font-family="FreeSans.ttf" font-size="10.00">corecvs::Vector2d::y</text>
</a>
</g>
<!-- Node2&#45;&gt;Node5 -->
<g id="edge12" class="edge"><title>Node2&#45;&gt;Node5</title>
<path fill="none" stroke="midnightblue" d="M379.507,-51.8731C486.336,-53.8812 653.929,-57.0314 746.315,-58.768"/>
<polygon fill="midnightblue" stroke="midnightblue" points="746.316,-62.2686 756.38,-58.9572 746.448,-55.2698 746.316,-62.2686"/>
</g>
<!-- Node6 -->
<g id="node11" class="node"><title>Node6</title>
<a xlink:href="classcorecvs_1_1Vector2d.html#a944721c41f044c1388d9dc42ca899bce" target="_top" xlink:title="corecvs::Vector2d::x">
<polygon fill="none" stroke="black" points="756.5,-0.521499 756.5,-21.5215 869.5,-21.5215 869.5,-0.521499 756.5,-0.521499"/>
<text text-anchor="middle" x="813" y="-8.5215" font-family="FreeSans.ttf" font-size="10.00">corecvs::Vector2d::x</text>
</a>
</g>
<!-- Node2&#45;&gt;Node6 -->
<g id="edge14" class="edge"><title>Node2&#45;&gt;Node6</title>
<path fill="none" stroke="midnightblue" d="M308.938,-39.4435C335.893,-29.8418 378.076,-16.3896 416,-11.0215 531.111,5.27244 666.884,0.0944368 746.117,-5.33392"/>
<polygon fill="midnightblue" stroke="midnightblue" points="746.218,-8.84975 756.44,-6.06468 746.712,-1.86722 746.218,-8.84975"/>
</g>
<!-- Node4&#45;&gt;Node5 -->
<g id="edge8" class="edge"><title>Node4&#45;&gt;Node5</title>
<path fill="none" stroke="midnightblue" d="M650.604,-40.7991C681.671,-44.4764 716.581,-48.6086 746.049,-52.0967"/>
<polygon fill="midnightblue" stroke="midnightblue" points="745.888,-55.602 756.23,-53.3018 746.711,-48.6506 745.888,-55.602"/>
</g>
<!-- Node4&#45;&gt;Node6 -->
<g id="edge10" class="edge"><title>Node4&#45;&gt;Node6</title>
<path fill="none" stroke="midnightblue" d="M650.604,-24.2783C681.671,-21.7422 716.581,-18.8925 746.049,-16.4869"/>
<polygon fill="midnightblue" stroke="midnightblue" points="746.548,-19.9579 756.23,-15.6557 745.979,-12.9811 746.548,-19.9579"/>
</g>
</g>
</svg>
        <g id="navigator" transform="translate(0 0)" fill="#404254">
                <rect fill="#f2f5e9" fill-opacity="0.5" stroke="#606060" stroke-width=".5" x="0" y="0" width="60" height="60"/>
                <use id="zoomplus" xlink:href="#zoomPlus" x="17" y="9" onmousedown="handleZoom(evt,'in')"/>
                <use id="zoomminus" xlink:href="#zoomMin" x="42" y="9" onmousedown="handleZoom(evt,'out')"/>
                <use id="reset" xlink:href="#resetDef" x="30" y="36" onmousedown="handleReset()"/>
                <g id="arrowUp" xlink:href="#dirArrow" transform="translate(30 24)" onmousedown="handlePan(0,-1)">
                  <use xlink:href="#rim" fill="#404040">
                        <set attributeName="fill" to="#808080" begin="arrowUp.mouseover" end="arrowUp.mouseout"/>
                  </use>
                  <path fill="none" stroke="white" stroke-width="1.5" d="M0,-3.0v7 M-2.5,-0.5L0,-3.0L2.5,-0.5"/>
                </g>
                <g id="arrowRight" xlink:href="#dirArrow" transform="rotate(90) translate(36 -43)" onmousedown="handlePan(1,0)">
                  <use xlink:href="#rim" fill="#404040">
                        <set attributeName="fill" to="#808080" begin="arrowRight.mouseover" end="arrowRight.mouseout"/>
                  </use>
                  <path fill="none" stroke="white" stroke-width="1.5" d="M0,-3.0v7 M-2.5,-0.5L0,-3.0L2.5,-0.5"/>
                </g>
                <g id="arrowDown" xlink:href="#dirArrow" transform="rotate(180) translate(-30 -48)" onmousedown="handlePan(0,1)">
                  <use xlink:href="#rim" fill="#404040">
                        <set attributeName="fill" to="#808080" begin="arrowDown.mouseover" end="arrowDown.mouseout"/>
                  </use>
                  <path fill="none" stroke="white" stroke-width="1.5" d="M0,-3.0v7 M-2.5,-0.5L0,-3.0L2.5,-0.5"/>
                </g>
                <g id="arrowLeft" xlink:href="#dirArrow" transform="rotate(270) translate(-36 17)" onmousedown="handlePan(-1,0)">
                  <use xlink:href="#rim" fill="#404040">
                        <set attributeName="fill" to="#808080" begin="arrowLeft.mouseover" end="arrowLeft.mouseout"/>
                  </use>
                  <path fill="none" stroke="white" stroke-width="1.5" d="M0,-3.0v7 M-2.5,-0.5L0,-3.0L2.5,-0.5"/>
                </g>
        </g>
</svg>
