<?xml version="1.0" encoding="UTF-8" standalone="no"?>
<!DOCTYPE svg PUBLIC "-//W3C//DTD SVG 1.1//EN"
 "http://www.w3.org/Graphics/SVG/1.1/DTD/svg11.dtd">
<!-- Generated by graphviz version 2.26.3 (20100126.1600)
 -->
<!-- Title: G Pages: 1 -->
<!--zoomable 648 -->
<svg id="main" version="1.1" xmlns="http://www.w3.org/2000/svg" xmlns:xlink="http://www.w3.org/1999/xlink" xml:space="preserve" onload="init(evt)">
        <defs>
                <circle id="rim" cx="0" cy="0" r="7"/>
                <circle id="rim2" cx="0" cy="0" r="3.5"/>
                <g id="zoomPlus">
                        <use xlink:href="#rim" fill="#404040">
                                <set attributeName="fill" to="#808080" begin="zoomplus.mouseover" end="zoomplus.mouseout"/>
                        </use>
                        <path d="M-4,0h8M0,-4v8" fill="none" stroke="white" stroke-width="1.5" pointer-events="none"/>
                </g>
                <g id="zoomMin">
                        <use xlink:href="#rim" fill="#404040">
                                <set attributeName="fill" to="#808080" begin="zoomminus.mouseover" end="zoomminus.mouseout"/>
                        </use>
                        <path d="M-4,0h8" fill="none" stroke="white" stroke-width="1.5" pointer-events="none"/>
                </g>
                <g id="dirArrow">
                        <path fill="none" stroke="white" stroke-width="1.5" d="M0,-3.0v7 M-2.5,-0.5L0,-3.0L2.5,-0.5"/>
                </g>
               <g id="resetDef">
                       <use xlink:href="#rim2" fill="#404040">
                               <set attributeName="fill" to="#808080" begin="reset.mouseover" end="reset.mouseout"/>
                       </use>
               </g>
        </defs>

<script type="text/javascript">
var viewWidth = 1052;
var viewHeight = 648;
var sectionId = 'dynsection-8';
</script>
<script xlink:href="svgpan.js"/>
<svg id="graph" class="graph">
<g id="viewport">
<title>G</title>
<!-- Node1 -->
<g id="node1" class="node"><title>Node1</title>
<polygon fill="#bfbfbf" stroke="black" points="0,-220.5 0,-241.5 176,-241.5 176,-220.5 0,-220.5"/>
<text text-anchor="middle" x="88" y="-228.5" font-family="FreeSans.ttf" font-size="10.00">StereoCameraScene::drawMyself</text>
</g>
<!-- Node2 -->
<g id="node3" class="node"><title>Node2</title>
<a xlink:href="classcorecvs_1_1AbstractPainter.html#a78d8db26180ad71d211e25371a8673a5" target="_top" xlink:title="corecvs::AbstractPainter::drawFormatVector">
<polygon fill="none" stroke="black" points="212.5,-618.5 212.5,-639.5 439.5,-639.5 439.5,-618.5 212.5,-618.5"/>
<text text-anchor="middle" x="326" y="-626.5" font-family="FreeSans.ttf" font-size="10.00">corecvs::AbstractPainter::drawFormatVector</text>
</a>
</g>
<!-- Node1&#45;&gt;Node2 -->
<g id="edge2" class="edge"><title>Node1&#45;&gt;Node2</title>
<path fill="none" stroke="midnightblue" d="M90.0505,-241.543C100.993,-296.747 154.178,-551.955 212,-604 216.236,-607.812 220.917,-611.089 225.894,-613.901"/>
<polygon fill="midnightblue" stroke="midnightblue" points="224.626,-617.179 235.141,-618.477 227.731,-610.905 224.626,-617.179"/>
</g>
<!-- Node4 -->
<g id="node7" class="node"><title>Node4</title>
<a xlink:href="classCameraScene.html#a3dbe810245686cc3ea25c6d5dbb75b7a" target="_top" xlink:title="CameraScene::drawMyself">
<polygon fill="none" stroke="black" points="254.5,-360.5 254.5,-381.5 397.5,-381.5 397.5,-360.5 254.5,-360.5"/>
<text text-anchor="middle" x="326" y="-368.5" font-family="FreeSans.ttf" font-size="10.00">CameraScene::drawMyself</text>
</a>
</g>
<!-- Node1&#45;&gt;Node4 -->
<g id="edge6" class="edge"><title>Node1&#45;&gt;Node4</title>
<path fill="none" stroke="midnightblue" d="M95.5415,-241.809C112.962,-265.855 158.617,-323.794 212,-351 222.039,-356.116 233.15,-359.951 244.381,-362.82"/>
<polygon fill="midnightblue" stroke="midnightblue" points="243.727,-366.261 254.258,-365.1 245.301,-359.44 243.727,-366.261"/>
</g>
<!-- Node19 -->
<g id="node37" class="node"><title>Node19</title>
<a xlink:href="classcorecvs_1_1RectificationResult.html#af847681d8a5b49e890a11d13e0e84690" target="_top" xlink:title="corecvs::RectificationResult::getCameraShift">
<polygon fill="none" stroke="black" points="212.5,-320.5 212.5,-341.5 439.5,-341.5 439.5,-320.5 212.5,-320.5"/>
<text text-anchor="middle" x="326" y="-328.5" font-family="FreeSans.ttf" font-size="10.00">corecvs::RectificationResult::getCameraShift</text>
</a>
</g>
<!-- Node1&#45;&gt;Node19 -->
<g id="edge36" class="edge"><title>Node1&#45;&gt;Node19</title>
<path fill="none" stroke="midnightblue" d="M100.791,-241.775C122.277,-259.264 167.63,-293.621 212,-311 218.753,-313.645 225.868,-315.942 233.109,-317.936"/>
<polygon fill="midnightblue" stroke="midnightblue" points="232.483,-321.388 243.038,-320.472 234.215,-314.606 232.483,-321.388"/>
</g>
<!-- Node20 -->
<g id="node39" class="node"><title>Node20</title>
<a xlink:href="classcorecvs_1_1CameraIntrinsics.html#ac6cdfe412c5d7aae7b6dd103d6b9748f" target="_top" xlink:title="corecvs::CameraIntrinsics::getHFov">
<polygon fill="none" stroke="black" points="233.5,-280.5 233.5,-301.5 418.5,-301.5 418.5,-280.5 233.5,-280.5"/>
<text text-anchor="middle" x="326" y="-288.5" font-family="FreeSans.ttf" font-size="10.00">corecvs::CameraIntrinsics::getHFov</text>
</a>
</g>
<!-- Node1&#45;&gt;Node20 -->
<g id="edge38" class="edge"><title>Node1&#45;&gt;Node20</title>
<path fill="none" stroke="midnightblue" d="M116.737,-241.522C141.662,-250.345 178.846,-262.786 212,-271 223.276,-273.794 235.273,-276.345 247.09,-278.622"/>
<polygon fill="midnightblue" stroke="midnightblue" points="246.481,-282.069 256.955,-280.469 247.77,-275.188 246.481,-282.069"/>
</g>
<!-- Node22 -->
<g id="node43" class="node"><title>Node22</title>
<a xlink:href="classcorecvs_1_1CameraIntrinsics.html#a9e93ad550ca6d2e4a54e33b65d9214fe" target="_top" xlink:title="corecvs::CameraIntrinsics::getVFov">
<polygon fill="none" stroke="black" points="233.5,-240.5 233.5,-261.5 418.5,-261.5 418.5,-240.5 233.5,-240.5"/>
<text text-anchor="middle" x="326" y="-248.5" font-family="FreeSans.ttf" font-size="10.00">corecvs::CameraIntrinsics::getVFov</text>
</a>
</g>
<!-- Node1&#45;&gt;Node22 -->
<g id="edge42" class="edge"><title>Node1&#45;&gt;Node22</title>
<path fill="none" stroke="midnightblue" d="M176.284,-238.419C191.585,-239.705 207.614,-241.052 223.26,-242.366"/>
<polygon fill="midnightblue" stroke="midnightblue" points="223.217,-245.875 233.475,-243.225 223.804,-238.9 223.217,-245.875"/>
</g>
<!-- Node24 -->
<g id="node47" class="node"><title>Node24</title>
<a xlink:href="classOpenGLTools.html#a7508984f493ef7d1323d6dcdb60f5e93" target="_top" xlink:title="OpenGLTools::glMultMatrixMatrix33">
<polygon fill="none" stroke="black" points="235,-200.5 235,-221.5 417,-221.5 417,-200.5 235,-200.5"/>
<text text-anchor="middle" x="326" y="-208.5" font-family="FreeSans.ttf" font-size="10.00">OpenGLTools::glMultMatrixMatrix33</text>
</a>
</g>
<!-- Node1&#45;&gt;Node24 -->
<g id="edge46" class="edge"><title>Node1&#45;&gt;Node24</title>
<path fill="none" stroke="midnightblue" d="M176.284,-223.581C191.911,-222.268 208.296,-220.891 224.258,-219.55"/>
<polygon fill="midnightblue" stroke="midnightblue" points="225.003,-223 234.674,-218.674 224.416,-216.024 225.003,-223"/>
</g>
<!-- Node25 -->
<g id="node49" class="node"><title>Node25</title>
<a xlink:href="classOpenGLTools.html#adabd11600fc24c95f97baaf951f185fe" target="_top" xlink:title="OpenGLTools::glTranslateVector3dd">
<polygon fill="none" stroke="black" points="712,-499.5 712,-520.5 894,-520.5 894,-499.5 712,-499.5"/>
<text text-anchor="middle" x="803" y="-507.5" font-family="FreeSans.ttf" font-size="10.00">OpenGLTools::glTranslateVector3dd</text>
</a>
</g>
<!-- Node1&#45;&gt;Node25 -->
<g id="edge48" class="edge"><title>Node1&#45;&gt;Node25</title>
<path fill="none" stroke="midnightblue" d="M94.5559,-241.642C111.579,-268.73 159.53,-341.632 212,-391 315.427,-488.314 340.299,-529.14 476,-571 560.94,-597.201 589.33,-590.735 676,-571 713.855,-562.38 753.589,-541 778.321,-525.996"/>
<polygon fill="midnightblue" stroke="midnightblue" points="780.374,-528.841 787.03,-520.598 776.686,-522.892 780.374,-528.841"/>
</g>
<!-- Node26 -->
<g id="node54" class="node"><title>Node26</title>
<a xlink:href="namespacecorecvs.html#a319a0d46c2f53180fd1c9c477718d8b1" target="_top" xlink:title="Useful radian to degrees and back conversions.">
<polygon fill="none" stroke="black" points="274,-160.5 274,-181.5 378,-181.5 378,-160.5 274,-160.5"/>
<text text-anchor="middle" x="326" y="-168.5" font-family="FreeSans.ttf" font-size="10.00">corecvs::radToDeg</text>
</a>
</g>
<!-- Node1&#45;&gt;Node26 -->
<g id="edge56" class="edge"><title>Node1&#45;&gt;Node26</title>
<path fill="none" stroke="midnightblue" d="M116.737,-220.478C141.662,-211.655 178.846,-199.214 212,-191 228.556,-186.898 246.666,-183.318 263.479,-180.364"/>
<polygon fill="midnightblue" stroke="midnightblue" points="264.488,-183.742 273.755,-178.607 263.308,-176.842 264.488,-183.742"/>
</g>
<!-- Node27 -->
<g id="node56" class="node"><title>Node27</title>
<a xlink:href="classDraw3dCameraParameters.html#ad4e1c508a776c5cf2869c8a79d5a0428" target="_top" xlink:title="Draw3dCameraParameters::setColor">
<polygon fill="none" stroke="black" points="230,-120.5 230,-141.5 422,-141.5 422,-120.5 230,-120.5"/>
<text text-anchor="middle" x="326" y="-128.5" font-family="FreeSans.ttf" font-size="10.00">Draw3dCameraParameters::setColor</text>
</a>
</g>
<!-- Node1&#45;&gt;Node27 -->
<g id="edge58" class="edge"><title>Node1&#45;&gt;Node27</title>
<path fill="none" stroke="midnightblue" d="M100.791,-220.225C122.277,-202.736 167.63,-168.379 212,-151 218.753,-148.355 225.868,-146.058 233.109,-144.064"/>
<polygon fill="midnightblue" stroke="midnightblue" points="234.215,-147.394 243.038,-141.528 232.483,-140.612 234.215,-147.394"/>
</g>
<!-- Node28 -->
<g id="node58" class="node"><title>Node28</title>
<a xlink:href="classDraw3dCameraParameters.html#a52efbc6979b25d40dcd366dcd4ea9e92" target="_top" xlink:title="Draw3dCameraParameters::setFovH">
<polygon fill="none" stroke="black" points="230.5,-80.5 230.5,-101.5 421.5,-101.5 421.5,-80.5 230.5,-80.5"/>
<text text-anchor="middle" x="326" y="-88.5" font-family="FreeSans.ttf" font-size="10.00">Draw3dCameraParameters::setFovH</text>
</a>
</g>
<!-- Node1&#45;&gt;Node28 -->
<g id="edge60" class="edge"><title>Node1&#45;&gt;Node28</title>
<path fill="none" stroke="midnightblue" d="M95.5415,-220.191C112.962,-196.145 158.617,-138.206 212,-111 216.582,-108.665 221.387,-106.597 226.325,-104.765"/>
<polygon fill="midnightblue" stroke="midnightblue" points="227.597,-108.03 235.962,-101.528 225.368,-101.395 227.597,-108.03"/>
</g>
<!-- Node29 -->
<g id="node60" class="node"><title>Node29</title>
<a xlink:href="classDraw3dCameraParameters.html#a2a05d215f07302a3f351dd0d421cfde7" target="_top" xlink:title="Draw3dCameraParameters::setFovV">
<polygon fill="none" stroke="black" points="230.5,-40.5 230.5,-61.5 421.5,-61.5 421.5,-40.5 230.5,-40.5"/>
<text text-anchor="middle" x="326" y="-48.5" font-family="FreeSans.ttf" font-size="10.00">Draw3dCameraParameters::setFovV</text>
</a>
</g>
<!-- Node1&#45;&gt;Node29 -->
<g id="edge62" class="edge"><title>Node1&#45;&gt;Node29</title>
<path fill="none" stroke="midnightblue" d="M92.841,-220.215C106.666,-190.779 149.4,-108.744 212,-71 215.435,-68.929 219.027,-67.0593 222.732,-65.3722"/>
<polygon fill="midnightblue" stroke="midnightblue" points="224.2,-68.5535 232.144,-61.5439 221.562,-62.0693 224.2,-68.5535"/>
</g>
<!-- Node30 -->
<g id="node62" class="node"><title>Node30</title>
<a xlink:href="classCameraScene.html#ad2e3b82483ab96188fe85c5aa393d307" target="_top" xlink:title="CameraScene::setParameters">
<polygon fill="none" stroke="black" points="245.5,-0.5 245.5,-21.5 406.5,-21.5 406.5,-0.5 245.5,-0.5"/>
<text text-anchor="middle" x="326" y="-8.5" font-family="FreeSans.ttf" font-size="10.00">CameraScene::setParameters</text>
</a>
</g>
<!-- Node1&#45;&gt;Node30 -->
<g id="edge64" class="edge"><title>Node1&#45;&gt;Node30</title>
<path fill="none" stroke="midnightblue" d="M91.2194,-220.094C101.944,-185.834 139.922,-79.7563 212,-31 219.256,-26.092 227.346,-22.2756 235.776,-19.3214"/>
<polygon fill="midnightblue" stroke="midnightblue" points="236.894,-22.6394 245.412,-16.34 234.825,-15.9521 236.894,-22.6394"/>
</g>
<!-- Node3 -->
<g id="node5" class="node"><title>Node3</title>
<a xlink:href="classcorecvs_1_1AbstractPainter.html#a1710c41142f8f7045ed730dfc180b2f0" target="_top" xlink:title="corecvs::AbstractPainter::drawGlyph">
<polygon fill="none" stroke="black" points="482,-618.5 482,-639.5 670,-639.5 670,-618.5 482,-618.5"/>
<text text-anchor="middle" x="576" y="-626.5" font-family="FreeSans.ttf" font-size="10.00">corecvs::AbstractPainter::drawGlyph</text>
</a>
</g>
<!-- Node2&#45;&gt;Node3 -->
<g id="edge4" class="edge"><title>Node2&#45;&gt;Node3</title>
<path fill="none" stroke="midnightblue" d="M439.661,-629C450.316,-629 461.081,-629 471.644,-629"/>
<polygon fill="midnightblue" stroke="midnightblue" points="471.699,-632.5 481.699,-629 471.699,-625.5 471.699,-632.5"/>
</g>
<!-- Node5 -->
<g id="node9" class="node"><title>Node5</title>
<a xlink:href="classRgbColorParameters.html#ae07cc032601d2f99de4011962fef14c1" target="_top" xlink:title="RgbColorParameters::b">
<polygon fill="none" stroke="black" points="512.5,-500.5 512.5,-521.5 639.5,-521.5 639.5,-500.5 512.5,-500.5"/>
<text text-anchor="middle" x="576" y="-508.5" font-family="FreeSans.ttf" font-size="10.00">RgbColorParameters::b</text>
</a>
</g>
<!-- Node4&#45;&gt;Node5 -->
<g id="edge8" class="edge"><title>Node4&#45;&gt;Node5</title>
<path fill="none" stroke="midnightblue" d="M335.714,-381.67C357.997,-405.432 415.543,-462.828 476,-491 484.309,-494.872 493.347,-497.995 502.479,-500.515"/>
<polygon fill="midnightblue" stroke="midnightblue" points="501.844,-503.965 512.396,-503.019 503.558,-497.178 501.844,-503.965"/>
</g>
<!-- Node6 -->
<g id="node11" class="node"><title>Node6</title>
<a xlink:href="classDraw3dCameraParameters.html#a6a1d90f9c8d9a2d6ffdfff5f370ea53b" target="_top" xlink:title="Draw3dCameraParameters::color">
<polygon fill="none" stroke="black" points="488,-460.5 488,-481.5 664,-481.5 664,-460.5 488,-460.5"/>
<text text-anchor="middle" x="576" y="-468.5" font-family="FreeSans.ttf" font-size="10.00">Draw3dCameraParameters::color</text>
</a>
</g>
<!-- Node4&#45;&gt;Node6 -->
<g id="edge10" class="edge"><title>Node4&#45;&gt;Node6</title>
<path fill="none" stroke="midnightblue" d="M341.919,-381.524C368.55,-398.653 424.314,-432.503 476,-451 483.466,-453.672 491.381,-456.021 499.358,-458.079"/>
<polygon fill="midnightblue" stroke="midnightblue" points="498.551,-461.484 509.095,-460.446 500.205,-454.683 498.551,-461.484"/>
</g>
<!-- Node7 -->
<g id="node13" class="node"><title>Node7</title>
<a xlink:href="namespacecorecvs.html#a232d61cca5a815cc01f2eaa73604a48c" target="_top" xlink:title="corecvs::degToRad">
<polygon fill="none" stroke="black" points="523.5,-420.5 523.5,-441.5 628.5,-441.5 628.5,-420.5 523.5,-420.5"/>
<text text-anchor="middle" x="576" y="-428.5" font-family="FreeSans.ttf" font-size="10.00">corecvs::degToRad</text>
</a>
</g>
<!-- Node4&#45;&gt;Node7 -->
<g id="edge12" class="edge"><title>Node4&#45;&gt;Node7</title>
<path fill="none" stroke="midnightblue" d="M362.823,-381.516C393.088,-389.991 437.153,-401.945 476,-411 488.109,-413.822 501.1,-416.601 513.577,-419.148"/>
<polygon fill="midnightblue" stroke="midnightblue" points="512.953,-422.593 523.447,-421.138 514.336,-415.731 512.953,-422.593"/>
</g>
<!-- Node8 -->
<g id="node15" class="node"><title>Node8</title>
<a xlink:href="classOpenGLTools.html#aedc0dc7cc2a0df788db10c14d2f2ff71" target="_top" xlink:title="OpenGLTools::drawWiredCamera">
<polygon fill="none" stroke="black" points="491,-380.5 491,-401.5 661,-401.5 661,-380.5 491,-380.5"/>
<text text-anchor="middle" x="576" y="-388.5" font-family="FreeSans.ttf" font-size="10.00">OpenGLTools::drawWiredCamera</text>
</a>
</g>
<!-- Node4&#45;&gt;Node8 -->
<g id="edge14" class="edge"><title>Node4&#45;&gt;Node8</title>
<path fill="none" stroke="midnightblue" d="M397.64,-376.731C423.469,-378.798 453.041,-381.163 480.58,-383.366"/>
<polygon fill="midnightblue" stroke="midnightblue" points="480.377,-386.861 490.624,-384.17 480.935,-379.884 480.377,-386.861"/>
</g>
<!-- Node13 -->
<g id="node25" class="node"><title>Node13</title>
<a xlink:href="classDraw3dCameraParameters.html#a370c998ff1f540002ef681c425bfe989" target="_top" xlink:title="Draw3dCameraParameters::farPlane">
<polygon fill="none" stroke="black" points="480.5,-300.5 480.5,-321.5 671.5,-321.5 671.5,-300.5 480.5,-300.5"/>
<text text-anchor="middle" x="576" y="-308.5" font-family="FreeSans.ttf" font-size="10.00">Draw3dCameraParameters::farPlane</text>
</a>
</g>
<!-- Node4&#45;&gt;Node13 -->
<g id="edge24" class="edge"><title>Node4&#45;&gt;Node13</title>
<path fill="none" stroke="midnightblue" d="M397.791,-362.165C412.002,-359.371 426.647,-355.729 440,-351 457.253,-344.889 458.82,-337.315 476,-331 483.244,-328.337 490.921,-326.001 498.673,-323.958"/>
<polygon fill="midnightblue" stroke="midnightblue" points="499.64,-327.325 508.506,-321.524 497.958,-320.53 499.64,-327.325"/>
</g>
<!-- Node14 -->
<g id="node27" class="node"><title>Node14</title>
<a xlink:href="classDraw3dCameraParameters.html#ad9767a78a94a875a7c41b76d288385f3" target="_top" xlink:title="Draw3dCameraParameters::fovH">
<polygon fill="none" stroke="black" points="489,-260.5 489,-281.5 663,-281.5 663,-260.5 489,-260.5"/>
<text text-anchor="middle" x="576" y="-268.5" font-family="FreeSans.ttf" font-size="10.00">Draw3dCameraParameters::fovH</text>
</a>
</g>
<!-- Node4&#45;&gt;Node14 -->
<g id="edge26" class="edge"><title>Node4&#45;&gt;Node14</title>
<path fill="none" stroke="midnightblue" d="M397.752,-367.943C412.651,-364.785 427.579,-359.535 440,-351 465.631,-333.389 450.58,-308.914 476,-291 478.594,-289.172 481.314,-287.502 484.131,-285.977"/>
<polygon fill="midnightblue" stroke="midnightblue" points="485.877,-289.023 493.419,-281.583 482.883,-282.696 485.877,-289.023"/>
</g>
<!-- Node15 -->
<g id="node29" class="node"><title>Node15</title>
<a xlink:href="classDraw3dCameraParameters.html#af4739578b250d6d5c7a06e820bf0ca7a" target="_top" xlink:title="Draw3dCameraParameters::fovV">
<polygon fill="none" stroke="black" points="489.5,-220.5 489.5,-241.5 662.5,-241.5 662.5,-220.5 489.5,-220.5"/>
<text text-anchor="middle" x="576" y="-228.5" font-family="FreeSans.ttf" font-size="10.00">Draw3dCameraParameters::fovV</text>
</a>
</g>
<!-- Node4&#45;&gt;Node15 -->
<g id="edge28" class="edge"><title>Node4&#45;&gt;Node15</title>
<path fill="none" stroke="midnightblue" d="M397.602,-370.012C412.935,-366.814 428.084,-361.026 440,-351 476.145,-320.589 440.218,-281.838 476,-251 477.743,-249.497 479.568,-248.096 481.46,-246.789"/>
<polygon fill="midnightblue" stroke="midnightblue" points="483.33,-249.749 490.154,-241.645 479.766,-243.725 483.33,-249.749"/>
</g>
<!-- Node16 -->
<g id="node31" class="node"><title>Node16</title>
<a xlink:href="classRgbColorParameters.html#ac9412ba5f3027be3d598d621ef7010e0" target="_top" xlink:title="RgbColorParameters::g">
<polygon fill="none" stroke="black" points="512.5,-180.5 512.5,-201.5 639.5,-201.5 639.5,-180.5 512.5,-180.5"/>
<text text-anchor="middle" x="576" y="-188.5" font-family="FreeSans.ttf" font-size="10.00">RgbColorParameters::g</text>
</a>
</g>
<!-- Node4&#45;&gt;Node16 -->
<g id="edge30" class="edge"><title>Node4&#45;&gt;Node16</title>
<path fill="none" stroke="midnightblue" d="M397.715,-370.935C413.222,-367.733 428.42,-361.71 440,-351 487.166,-307.377 429.355,-255.179 476,-211 483.549,-203.85 492.898,-198.927 502.823,-195.587"/>
<polygon fill="midnightblue" stroke="midnightblue" points="503.811,-198.946 512.476,-192.849 501.9,-192.211 503.811,-198.946"/>
</g>
<!-- Node17 -->
<g id="node33" class="node"><title>Node17</title>
<a xlink:href="classDraw3dCameraParameters.html#aefa90ae711e9ed2ceefe99991c5ecccc" target="_top" xlink:title="Draw3dCameraParameters::nearPlane">
<polygon fill="none" stroke="black" points="476,-540.5 476,-561.5 676,-561.5 676,-540.5 476,-540.5"/>
<text text-anchor="middle" x="576" y="-548.5" font-family="FreeSans.ttf" font-size="10.00">Draw3dCameraParameters::nearPlane</text>
</a>
</g>
<!-- Node4&#45;&gt;Node17 -->
<g id="edge32" class="edge"><title>Node4&#45;&gt;Node17</title>
<path fill="none" stroke="midnightblue" d="M332.543,-381.706C351.021,-410.941 406.785,-492.509 476,-531 479.981,-533.214 484.171,-535.184 488.489,-536.939"/>
<polygon fill="midnightblue" stroke="midnightblue" points="487.52,-540.311 498.114,-540.444 489.915,-533.733 487.52,-540.311"/>
</g>
<!-- Node18 -->
<g id="node35" class="node"><title>Node18</title>
<a xlink:href="classRgbColorParameters.html#a76f3b0cbd418e2259b7c35fde63e52dd" target="_top" xlink:title="RgbColorParameters::r">
<polygon fill="none" stroke="black" points="513.5,-340.5 513.5,-361.5 638.5,-361.5 638.5,-340.5 513.5,-340.5"/>
<text text-anchor="middle" x="576" y="-348.5" font-family="FreeSans.ttf" font-size="10.00">RgbColorParameters::r</text>
</a>
</g>
<!-- Node4&#45;&gt;Node18 -->
<g id="edge34" class="edge"><title>Node4&#45;&gt;Node18</title>
<path fill="none" stroke="midnightblue" d="M397.64,-365.269C430.722,-362.622 469.943,-359.485 503.17,-356.826"/>
<polygon fill="midnightblue" stroke="midnightblue" points="503.587,-360.304 513.276,-356.018 503.029,-353.327 503.587,-360.304"/>
</g>
<!-- Node9 -->
<g id="node17" class="node"><title>Node9</title>
<a xlink:href="classOpenGLTools.html#a3e791d30fdf64d7ea4fb97a3a7033d59" target="_top" xlink:title="OpenGLTools::drawWiredBox">
<polygon fill="none" stroke="black" points="728.5,-459.5 728.5,-480.5 877.5,-480.5 877.5,-459.5 728.5,-459.5"/>
<text text-anchor="middle" x="803" y="-467.5" font-family="FreeSans.ttf" font-size="10.00">OpenGLTools::drawWiredBox</text>
</a>
</g>
<!-- Node8&#45;&gt;Node9 -->
<g id="edge16" class="edge"><title>Node8&#45;&gt;Node9</title>
<path fill="none" stroke="midnightblue" d="M640.334,-401.518C652.32,-404.138 664.641,-407.284 676,-411 711.242,-422.528 749.569,-441.261 774.796,-454.523"/>
<polygon fill="midnightblue" stroke="midnightblue" points="773.318,-457.701 783.79,-459.311 776.608,-451.522 773.318,-457.701"/>
</g>
<!-- Node10 -->
<g id="node19" class="node"><title>Node10</title>
<a xlink:href="classcorecvs_1_1Vector3d.html#aec83d9ad04107cd9c2bb11abf33128c0" target="_top" xlink:title="Helper functions to access elements.">
<polygon fill="none" stroke="black" points="930.5,-519.5 930.5,-540.5 1043.5,-540.5 1043.5,-519.5 930.5,-519.5"/>
<text text-anchor="middle" x="987" y="-527.5" font-family="FreeSans.ttf" font-size="10.00">corecvs::Vector3d::x</text>
</a>
</g>
<!-- Node9&#45;&gt;Node10 -->
<g id="edge18" class="edge"><title>Node9&#45;&gt;Node10</title>
<path fill="none" stroke="midnightblue" d="M862.957,-480.573C873.459,-483.159 884.166,-486.279 894,-490 911.119,-496.477 913.304,-502.499 930,-510 934.487,-512.016 939.243,-513.965 944.02,-515.803"/>
<polygon fill="midnightblue" stroke="midnightblue" points="943.179,-519.224 953.772,-519.408 945.606,-512.658 943.179,-519.224"/>
</g>
<!-- Node11 -->
<g id="node21" class="node"><title>Node11</title>
<a xlink:href="classcorecvs_1_1Vector3d.html#a940d88447f20fac800d1fa510c981275" target="_top" xlink:title="corecvs::Vector3d::y">
<polygon fill="none" stroke="black" points="930.5,-479.5 930.5,-500.5 1043.5,-500.5 1043.5,-479.5 930.5,-479.5"/>
<text text-anchor="middle" x="987" y="-487.5" font-family="FreeSans.ttf" font-size="10.00">corecvs::Vector3d::y</text>
</a>
</g>
<!-- Node9&#45;&gt;Node11 -->
<g id="edge20" class="edge"><title>Node9&#45;&gt;Node11</title>
<path fill="none" stroke="midnightblue" d="M877.575,-478.106C891.763,-479.648 906.526,-481.253 920.445,-482.766"/>
<polygon fill="midnightblue" stroke="midnightblue" points="920.091,-486.248 930.411,-483.849 920.847,-479.289 920.091,-486.248"/>
</g>
<!-- Node12 -->
<g id="node23" class="node"><title>Node12</title>
<a xlink:href="classcorecvs_1_1Vector3d.html#a4587f5d4984576c5c4c2d44a4140ce3f" target="_top" xlink:title="corecvs::Vector3d::z">
<polygon fill="none" stroke="black" points="930.5,-439.5 930.5,-460.5 1043.5,-460.5 1043.5,-439.5 930.5,-439.5"/>
<text text-anchor="middle" x="987" y="-447.5" font-family="FreeSans.ttf" font-size="10.00">corecvs::Vector3d::z</text>
</a>
</g>
<!-- Node9&#45;&gt;Node12 -->
<g id="edge22" class="edge"><title>Node9&#45;&gt;Node12</title>
<path fill="none" stroke="midnightblue" d="M877.575,-461.894C891.763,-460.352 906.526,-458.747 920.445,-457.234"/>
<polygon fill="midnightblue" stroke="midnightblue" points="920.847,-460.711 930.411,-456.151 920.091,-453.752 920.847,-460.711"/>
</g>
<!-- Node21 -->
<g id="node41" class="node"><title>Node21</title>
<a xlink:href="classcorecvs_1_1Vector2d.html#a944721c41f044c1388d9dc42ca899bce" target="_top" xlink:title="corecvs::Vector2d::x">
<polygon fill="none" stroke="black" points="519.5,-140.5 519.5,-161.5 632.5,-161.5 632.5,-140.5 519.5,-140.5"/>
<text text-anchor="middle" x="576" y="-148.5" font-family="FreeSans.ttf" font-size="10.00">corecvs::Vector2d::x</text>
</a>
</g>
<!-- Node20&#45;&gt;Node21 -->
<g id="edge40" class="edge"><title>Node20&#45;&gt;Node21</title>
<path fill="none" stroke="midnightblue" d="M418.544,-283.714C426.311,-280.522 433.619,-276.369 440,-271 476.145,-240.589 440.218,-201.838 476,-171 485.471,-162.837 497.327,-157.656 509.531,-154.433"/>
<polygon fill="midnightblue" stroke="midnightblue" points="510.353,-157.836 519.354,-152.248 508.833,-151.003 510.353,-157.836"/>
</g>
<!-- Node23 -->
<g id="node45" class="node"><title>Node23</title>
<a xlink:href="classcorecvs_1_1Vector2d.html#ae1ea2ad4c0821001408bf963cffa8413" target="_top" xlink:title="corecvs::Vector2d::y">
<polygon fill="none" stroke="black" points="519.5,-100.5 519.5,-121.5 632.5,-121.5 632.5,-100.5 519.5,-100.5"/>
<text text-anchor="middle" x="576" y="-108.5" font-family="FreeSans.ttf" font-size="10.00">corecvs::Vector2d::y</text>
</a>
</g>
<!-- Node22&#45;&gt;Node23 -->
<g id="edge44" class="edge"><title>Node22&#45;&gt;Node23</title>
<path fill="none" stroke="midnightblue" d="M418.544,-243.714C426.311,-240.522 433.619,-236.369 440,-231 476.145,-200.589 440.218,-161.838 476,-131 485.471,-122.837 497.327,-117.656 509.531,-114.433"/>
<polygon fill="midnightblue" stroke="midnightblue" points="510.353,-117.836 519.354,-112.248 508.833,-111.003 510.353,-117.836"/>
</g>
<!-- Node25&#45;&gt;Node10 -->
<g id="edge50" class="edge"><title>Node25&#45;&gt;Node10</title>
<path fill="none" stroke="midnightblue" d="M894.191,-519.912C902.993,-520.869 911.805,-521.827 920.304,-522.75"/>
<polygon fill="midnightblue" stroke="midnightblue" points="920.174,-526.257 930.494,-523.858 920.931,-519.298 920.174,-526.257"/>
</g>
<!-- Node25&#45;&gt;Node11 -->
<g id="edge52" class="edge"><title>Node25&#45;&gt;Node11</title>
<path fill="none" stroke="midnightblue" d="M894.191,-500.088C902.993,-499.131 911.805,-498.173 920.304,-497.25"/>
<polygon fill="midnightblue" stroke="midnightblue" points="920.931,-500.702 930.494,-496.142 920.174,-493.743 920.931,-500.702"/>
</g>
<!-- Node25&#45;&gt;Node12 -->
<g id="edge54" class="edge"><title>Node25&#45;&gt;Node12</title>
<path fill="none" stroke="midnightblue" d="M862.957,-499.427C873.459,-496.841 884.166,-493.721 894,-490 911.119,-483.523 913.304,-477.501 930,-470 934.487,-467.984 939.243,-466.035 944.02,-464.197"/>
<polygon fill="midnightblue" stroke="midnightblue" points="945.606,-467.342 953.772,-460.592 943.179,-460.776 945.606,-467.342"/>
</g>
</g>
</svg>
        <g id="navigator" transform="translate(0 0)" fill="#404254">
                <rect fill="#f2f5e9" fill-opacity="0.5" stroke="#606060" stroke-width=".5" x="0" y="0" width="60" height="60"/>
                <use id="zoomplus" xlink:href="#zoomPlus" x="17" y="9" onmousedown="handleZoom(evt,'in')"/>
                <use id="zoomminus" xlink:href="#zoomMin" x="42" y="9" onmousedown="handleZoom(evt,'out')"/>
                <use id="reset" xlink:href="#resetDef" x="30" y="36" onmousedown="handleReset()"/>
                <g id="arrowUp" xlink:href="#dirArrow" transform="translate(30 24)" onmousedown="handlePan(0,-1)">
                  <use xlink:href="#rim" fill="#404040">
                        <set attributeName="fill" to="#808080" begin="arrowUp.mouseover" end="arrowUp.mouseout"/>
                  </use>
                  <path fill="none" stroke="white" stroke-width="1.5" d="M0,-3.0v7 M-2.5,-0.5L0,-3.0L2.5,-0.5"/>
                </g>
                <g id="arrowRight" xlink:href="#dirArrow" transform="rotate(90) translate(36 -43)" onmousedown="handlePan(1,0)">
                  <use xlink:href="#rim" fill="#404040">
                        <set attributeName="fill" to="#808080" begin="arrowRight.mouseover" end="arrowRight.mouseout"/>
                  </use>
                  <path fill="none" stroke="white" stroke-width="1.5" d="M0,-3.0v7 M-2.5,-0.5L0,-3.0L2.5,-0.5"/>
                </g>
                <g id="arrowDown" xlink:href="#dirArrow" transform="rotate(180) translate(-30 -48)" onmousedown="handlePan(0,1)">
                  <use xlink:href="#rim" fill="#404040">
                        <set attributeName="fill" to="#808080" begin="arrowDown.mouseover" end="arrowDown.mouseout"/>
                  </use>
                  <path fill="none" stroke="white" stroke-width="1.5" d="M0,-3.0v7 M-2.5,-0.5L0,-3.0L2.5,-0.5"/>
                </g>
                <g id="arrowLeft" xlink:href="#dirArrow" transform="rotate(270) translate(-36 17)" onmousedown="handlePan(-1,0)">
                  <use xlink:href="#rim" fill="#404040">
                        <set attributeName="fill" to="#808080" begin="arrowLeft.mouseover" end="arrowLeft.mouseout"/>
                  </use>
                  <path fill="none" stroke="white" stroke-width="1.5" d="M0,-3.0v7 M-2.5,-0.5L0,-3.0L2.5,-0.5"/>
                </g>
        </g>
</svg>
