<?xml version="1.0" encoding="UTF-8" standalone="no"?>
<!DOCTYPE svg PUBLIC "-//W3C//DTD SVG 1.1//EN"
 "http://www.w3.org/Graphics/SVG/1.1/DTD/svg11.dtd">
<!-- Generated by graphviz version 2.26.3 (20100126.1600)
 -->
<!-- Title: G Pages: 1 -->
<!--zoomable 110 -->
<svg id="main" version="1.1" xmlns="http://www.w3.org/2000/svg" xmlns:xlink="http://www.w3.org/1999/xlink" xml:space="preserve" onload="init(evt)">
        <defs>
                <circle id="rim" cx="0" cy="0" r="7"/>
                <circle id="rim2" cx="0" cy="0" r="3.5"/>
                <g id="zoomPlus">
                        <use xlink:href="#rim" fill="#404040">
                                <set attributeName="fill" to="#808080" begin="zoomplus.mouseover" end="zoomplus.mouseout"/>
                        </use>
                        <path d="M-4,0h8M0,-4v8" fill="none" stroke="white" stroke-width="1.5" pointer-events="none"/>
                </g>
                <g id="zoomMin">
                        <use xlink:href="#rim" fill="#404040">
                                <set attributeName="fill" to="#808080" begin="zoomminus.mouseover" end="zoomminus.mouseout"/>
                        </use>
                        <path d="M-4,0h8" fill="none" stroke="white" stroke-width="1.5" pointer-events="none"/>
                </g>
                <g id="dirArrow">
                        <path fill="none" stroke="white" stroke-width="1.5" d="M0,-3.0v7 M-2.5,-0.5L0,-3.0L2.5,-0.5"/>
                </g>
               <g id="resetDef">
                       <use xlink:href="#rim2" fill="#404040">
                               <set attributeName="fill" to="#808080" begin="reset.mouseover" end="reset.mouseout"/>
                       </use>
               </g>
        </defs>

<script type="text/javascript">
var viewWidth = 884;
var viewHeight = 110;
var sectionId = 'dynsection-0';
</script>
<script xlink:href="svgpan.js"/>
<svg id="graph" class="graph">
<g id="viewport">
<title>G</title>
<!-- Node1 -->
<g id="node1" class="node"><title>Node1</title>
<polygon fill="#bfbfbf" stroke="black" points="688,-40.5 688,-61.5 876,-61.5 876,-40.5 688,-40.5"/>
<text text-anchor="middle" x="782" y="-48.5" font-family="FreeSans.ttf" font-size="10.00">corecvs::HomographyReconstructor</text>
</g>
<!-- Node2 -->
<g id="node2" class="node"><title>Node2</title>
<polygon fill="none" stroke="#bfbfbf" points="392.5,-80.5 392.5,-101.5 629.5,-101.5 629.5,-80.5 392.5,-80.5"/>
<text text-anchor="middle" x="511" y="-88.5" font-family="FreeSans.ttf" font-size="10.00">std::vector&lt; CorrespondancePointSegment &gt;</text>
</g>
<!-- Node2&#45;&gt;Node1 -->
<g id="edge2" class="edge"><title>Node2&#45;&gt;Node1</title>
<path fill="none" stroke="#9a32cd" stroke-dasharray="5,2" d="M592.149,-79.0223C629.894,-73.4511 674.383,-66.8844 710.803,-61.5087"/>
<polygon fill="#9a32cd" stroke="#9a32cd" points="591.584,-75.5677 582.202,-80.4905 592.606,-82.4927 591.584,-75.5677"/>
<text text-anchor="middle" x="659" y="-73" font-family="FreeSans.ttf" font-size="10.00"> p2s</text>
</g>
<!-- Node3 -->
<g id="node4" class="node"><title>Node3</title>
<a xlink:href="classcorecvs_1_1PrimitiveCorrespondance.html" target="_top" xlink:title="corecvs::PrimitiveCorrespondance\&lt; FirstType, SecondType \&gt;">
<polygon fill="none" stroke="black" points="0.5,-40.5 0.5,-61.5 305.5,-61.5 305.5,-40.5 0.5,-40.5"/>
<text text-anchor="middle" x="153" y="-48.5" font-family="FreeSans.ttf" font-size="10.00">corecvs::PrimitiveCorrespondance&lt; FirstType, SecondType &gt;</text>
</a>
</g>
<!-- Node3&#45;&gt;Node2 -->
<g id="edge4" class="edge"><title>Node3&#45;&gt;Node2</title>
<path fill="none" stroke="#9a32cd" stroke-dasharray="5,2" d="M257.03,-62.6234C307.557,-68.2689 367.811,-75.0012 416.947,-80.4913"/>
<polygon fill="#9a32cd" stroke="#9a32cd" points="257.387,-59.1417 247.06,-61.5095 256.61,-66.0984 257.387,-59.1417"/>
<text text-anchor="middle" x="349" y="-78" font-family="FreeSans.ttf" font-size="10.00"> elements</text>
</g>
<!-- Node4 -->
<g id="node6" class="node"><title>Node4</title>
<polygon fill="none" stroke="#bfbfbf" points="426.5,-40.5 426.5,-61.5 595.5,-61.5 595.5,-40.5 426.5,-40.5"/>
<text text-anchor="middle" x="511" y="-48.5" font-family="FreeSans.ttf" font-size="10.00">std::vector&lt; Correspondance &gt;</text>
</g>
<!-- Node3&#45;&gt;Node4 -->
<g id="edge8" class="edge"><title>Node3&#45;&gt;Node4</title>
<path fill="none" stroke="#9a32cd" stroke-dasharray="5,2" d="M315.793,-51C353.908,-51 393.012,-51 426.115,-51"/>
<polygon fill="#9a32cd" stroke="#9a32cd" points="315.603,-47.5001 305.603,-51 315.603,-54.5001 315.603,-47.5001"/>
<text text-anchor="middle" x="349" y="-55" font-family="FreeSans.ttf" font-size="10.00"> elements</text>
</g>
<!-- Node5 -->
<g id="node9" class="node"><title>Node5</title>
<polygon fill="none" stroke="#bfbfbf" points="405,-0.5 405,-21.5 617,-21.5 617,-0.5 405,-0.5"/>
<text text-anchor="middle" x="511" y="-8.5" font-family="FreeSans.ttf" font-size="10.00">std::vector&lt; CorrespondancePointLine &gt;</text>
</g>
<!-- Node3&#45;&gt;Node5 -->
<g id="edge12" class="edge"><title>Node3&#45;&gt;Node5</title>
<path fill="none" stroke="#9a32cd" stroke-dasharray="5,2" d="M257.03,-39.3766C307.557,-33.7311 367.811,-26.9988 416.947,-21.5087"/>
<polygon fill="#9a32cd" stroke="#9a32cd" points="256.61,-35.9016 247.06,-40.4905 257.387,-42.8583 256.61,-35.9016"/>
<text text-anchor="middle" x="349" y="-35" font-family="FreeSans.ttf" font-size="10.00"> elements</text>
</g>
<!-- Node4&#45;&gt;Node1 -->
<g id="edge6" class="edge"><title>Node4&#45;&gt;Node1</title>
<path fill="none" stroke="#9a32cd" stroke-dasharray="5,2" d="M605.686,-51C632.24,-51 661.101,-51 687.636,-51"/>
<polygon fill="#9a32cd" stroke="#9a32cd" points="605.631,-47.5001 595.631,-51 605.631,-54.5001 605.631,-47.5001"/>
<text text-anchor="middle" x="659" y="-55" font-family="FreeSans.ttf" font-size="10.00"> p2p</text>
</g>
<!-- Node5&#45;&gt;Node1 -->
<g id="edge10" class="edge"><title>Node5&#45;&gt;Node1</title>
<path fill="none" stroke="#9a32cd" stroke-dasharray="5,2" d="M594.551,-22.9742C618.884,-26.4918 645.508,-30.3699 670,-34 684.007,-36.0761 698.995,-38.3292 713.303,-40.4954"/>
<polygon fill="#9a32cd" stroke="#9a32cd" points="595.032,-19.5076 584.635,-21.5424 594.032,-26.4357 595.032,-19.5076"/>
<text text-anchor="middle" x="659" y="-38" font-family="FreeSans.ttf" font-size="10.00"> p2l</text>
</g>
</g>
</svg>
        <g id="navigator" transform="translate(0 0)" fill="#404254">
                <rect fill="#f2f5e9" fill-opacity="0.5" stroke="#606060" stroke-width=".5" x="0" y="0" width="60" height="60"/>
                <use id="zoomplus" xlink:href="#zoomPlus" x="17" y="9" onmousedown="handleZoom(evt,'in')"/>
                <use id="zoomminus" xlink:href="#zoomMin" x="42" y="9" onmousedown="handleZoom(evt,'out')"/>
                <use id="reset" xlink:href="#resetDef" x="30" y="36" onmousedown="handleReset()"/>
                <g id="arrowUp" xlink:href="#dirArrow" transform="translate(30 24)" onmousedown="handlePan(0,-1)">
                  <use xlink:href="#rim" fill="#404040">
                        <set attributeName="fill" to="#808080" begin="arrowUp.mouseover" end="arrowUp.mouseout"/>
                  </use>
                  <path fill="none" stroke="white" stroke-width="1.5" d="M0,-3.0v7 M-2.5,-0.5L0,-3.0L2.5,-0.5"/>
                </g>
                <g id="arrowRight" xlink:href="#dirArrow" transform="rotate(90) translate(36 -43)" onmousedown="handlePan(1,0)">
                  <use xlink:href="#rim" fill="#404040">
                        <set attributeName="fill" to="#808080" begin="arrowRight.mouseover" end="arrowRight.mouseout"/>
                  </use>
                  <path fill="none" stroke="white" stroke-width="1.5" d="M0,-3.0v7 M-2.5,-0.5L0,-3.0L2.5,-0.5"/>
                </g>
                <g id="arrowDown" xlink:href="#dirArrow" transform="rotate(180) translate(-30 -48)" onmousedown="handlePan(0,1)">
                  <use xlink:href="#rim" fill="#404040">
                        <set attributeName="fill" to="#808080" begin="arrowDown.mouseover" end="arrowDown.mouseout"/>
                  </use>
                  <path fill="none" stroke="white" stroke-width="1.5" d="M0,-3.0v7 M-2.5,-0.5L0,-3.0L2.5,-0.5"/>
                </g>
                <g id="arrowLeft" xlink:href="#dirArrow" transform="rotate(270) translate(-36 17)" onmousedown="handlePan(-1,0)">
                  <use xlink:href="#rim" fill="#404040">
                        <set attributeName="fill" to="#808080" begin="arrowLeft.mouseover" end="arrowLeft.mouseout"/>
                  </use>
                  <path fill="none" stroke="white" stroke-width="1.5" d="M0,-3.0v7 M-2.5,-0.5L0,-3.0L2.5,-0.5"/>
                </g>
        </g>
</svg>
