<?xml version="1.0" encoding="UTF-8" standalone="no"?>
<!DOCTYPE svg PUBLIC "-//W3C//DTD SVG 1.1//EN"
 "http://www.w3.org/Graphics/SVG/1.1/DTD/svg11.dtd">
<!-- Generated by graphviz version 2.26.3 (20100126.1600)
 -->
<!-- Title: G Pages: 1 -->
<svg width="388pt" height="70pt"
 viewBox="0.00 0.00 388.00 70.00" xmlns="http://www.w3.org/2000/svg" xmlns:xlink="http://www.w3.org/1999/xlink">
<g id="graph1" class="graph" transform="scale(1 1) rotate(0) translate(4 66)">
<title>G</title>
<!-- Node1 -->
<g id="node1" class="node"><title>Node1</title>
<polygon fill="#bfbfbf" stroke="black" points="0,-20.5 0,-41.5 230,-41.5 230,-20.5 0,-20.5"/>
<text text-anchor="middle" x="115" y="-28.5" font-family="FreeSans.ttf" font-size="10.00">corecvs::CamerasCalibrationFunc::operator()</text>
</g>
<!-- Node2 -->
<g id="node3" class="node"><title>Node2</title>
<a xlink:href="classcorecvs_1_1Vector2d.html#a944721c41f044c1388d9dc42ca899bce" target="_top" xlink:title="corecvs::Vector2d::x">
<polygon fill="none" stroke="black" points="266.5,-40.5 266.5,-61.5 379.5,-61.5 379.5,-40.5 266.5,-40.5"/>
<text text-anchor="middle" x="323" y="-48.5" font-family="FreeSans.ttf" font-size="10.00">corecvs::Vector2d::x</text>
</a>
</g>
<!-- Node1&#45;&gt;Node2 -->
<g id="edge2" class="edge"><title>Node1&#45;&gt;Node2</title>
<path fill="none" stroke="midnightblue" d="M224.482,-41.5271C235.346,-42.5717 246.129,-43.6086 256.357,-44.592"/>
<polygon fill="midnightblue" stroke="midnightblue" points="256.093,-48.0827 266.382,-45.556 256.763,-41.1148 256.093,-48.0827"/>
</g>
<!-- Node3 -->
<g id="node5" class="node"><title>Node3</title>
<a xlink:href="classcorecvs_1_1Vector2d.html#ae1ea2ad4c0821001408bf963cffa8413" target="_top" xlink:title="corecvs::Vector2d::y">
<polygon fill="none" stroke="black" points="266.5,-0.5 266.5,-21.5 379.5,-21.5 379.5,-0.5 266.5,-0.5"/>
<text text-anchor="middle" x="323" y="-8.5" font-family="FreeSans.ttf" font-size="10.00">corecvs::Vector2d::y</text>
</a>
</g>
<!-- Node1&#45;&gt;Node3 -->
<g id="edge4" class="edge"><title>Node1&#45;&gt;Node3</title>
<path fill="none" stroke="midnightblue" d="M224.482,-20.4729C235.346,-19.4283 246.129,-18.3914 256.357,-17.408"/>
<polygon fill="midnightblue" stroke="midnightblue" points="256.763,-20.8852 266.382,-16.444 256.093,-13.9173 256.763,-20.8852"/>
</g>
</g>
</svg>
