<?xml version="1.0" encoding="UTF-8" standalone="no"?>
<!DOCTYPE svg PUBLIC "-//W3C//DTD SVG 1.1//EN"
 "http://www.w3.org/Graphics/SVG/1.1/DTD/svg11.dtd">
<!-- Generated by graphviz version 2.26.3 (20100126.1600)
 -->
<!-- Title: G Pages: 1 -->
<!--zoomable 260 -->
<svg id="main" version="1.1" xmlns="http://www.w3.org/2000/svg" xmlns:xlink="http://www.w3.org/1999/xlink" xml:space="preserve" onload="init(evt)">
        <defs>
                <circle id="rim" cx="0" cy="0" r="7"/>
                <circle id="rim2" cx="0" cy="0" r="3.5"/>
                <g id="zoomPlus">
                        <use xlink:href="#rim" fill="#404040">
                                <set attributeName="fill" to="#808080" begin="zoomplus.mouseover" end="zoomplus.mouseout"/>
                        </use>
                        <path d="M-4,0h8M0,-4v8" fill="none" stroke="white" stroke-width="1.5" pointer-events="none"/>
                </g>
                <g id="zoomMin">
                        <use xlink:href="#rim" fill="#404040">
                                <set attributeName="fill" to="#808080" begin="zoomminus.mouseover" end="zoomminus.mouseout"/>
                        </use>
                        <path d="M-4,0h8" fill="none" stroke="white" stroke-width="1.5" pointer-events="none"/>
                </g>
                <g id="dirArrow">
                        <path fill="none" stroke="white" stroke-width="1.5" d="M0,-3.0v7 M-2.5,-0.5L0,-3.0L2.5,-0.5"/>
                </g>
               <g id="resetDef">
                       <use xlink:href="#rim2" fill="#404040">
                               <set attributeName="fill" to="#808080" begin="reset.mouseover" end="reset.mouseout"/>
                       </use>
               </g>
        </defs>

<script type="text/javascript">
var viewWidth = 506;
var viewHeight = 260;
var sectionId = 'dynsection-1';
</script>
<script xlink:href="svgpan.js"/>
<svg id="graph" class="graph">
<g id="viewport">
<title>G</title>
<!-- Node1 -->
<g id="node1" class="node"><title>Node1</title>
<polygon fill="#bfbfbf" stroke="black" points="138,-0.5 138,-21.5 240,-21.5 240,-0.5 138,-0.5"/>
<text text-anchor="middle" x="189" y="-8.5" font-family="FreeSans.ttf" font-size="10.00">PaintImageWidget</text>
</g>
<!-- Node2 -->
<g id="node2" class="node"><title>Node2</title>
<a xlink:href="classAdvancedImageWidget.html" target="_top" xlink:title="AdvancedImageWidget">
<polygon fill="none" stroke="black" points="126,-60.5 126,-81.5 252,-81.5 252,-60.5 126,-60.5"/>
<text text-anchor="middle" x="189" y="-68.5" font-family="FreeSans.ttf" font-size="10.00">AdvancedImageWidget</text>
</a>
</g>
<!-- Node2&#45;&gt;Node1 -->
<g id="edge2" class="edge"><title>Node2&#45;&gt;Node1</title>
<path fill="none" stroke="midnightblue" d="M189,-50.2312C189,-40.5922 189,-29.5444 189,-21.6339"/>
<polygon fill="midnightblue" stroke="midnightblue" points="185.5,-50.2732 189,-60.2732 192.5,-50.2732 185.5,-50.2732"/>
</g>
<!-- Node3 -->
<g id="node4" class="node"><title>Node3</title>
<a xlink:href="classViAreaWidget.html" target="_top" xlink:title="ViAreaWidget">
<polygon fill="none" stroke="black" points="0,-158.5 0,-179.5 80,-179.5 80,-158.5 0,-158.5"/>
<text text-anchor="middle" x="40" y="-166.5" font-family="FreeSans.ttf" font-size="10.00">ViAreaWidget</text>
</a>
</g>
<!-- Node3&#45;&gt;Node2 -->
<g id="edge4" class="edge"><title>Node3&#45;&gt;Node2</title>
<path fill="none" stroke="midnightblue" d="M64.6508,-152.787C95.2907,-132.634 146.717,-98.8101 172.791,-81.6611"/>
<polygon fill="midnightblue" stroke="midnightblue" points="62.6608,-149.906 56.2293,-158.326 66.5074,-155.755 62.6608,-149.906"/>
</g>
<!-- Node4 -->
<g id="node6" class="node"><title>Node4</title>
<a xlink:href="classSaveableWidget.html" target="_top" xlink:title="SaveableWidget">
<polygon fill="none" stroke="black" points="97.5,-158.5 97.5,-179.5 190.5,-179.5 190.5,-158.5 97.5,-158.5"/>
<text text-anchor="middle" x="144" y="-166.5" font-family="FreeSans.ttf" font-size="10.00">SaveableWidget</text>
</a>
</g>
<!-- Node4&#45;&gt;Node2 -->
<g id="edge6" class="edge"><title>Node4&#45;&gt;Node2</title>
<path fill="none" stroke="midnightblue" d="M153.275,-148.801C162.644,-128.396 176.757,-97.6625 184.127,-81.6129"/>
<polygon fill="midnightblue" stroke="midnightblue" points="149.98,-147.59 148.988,-158.138 156.341,-150.511 149.98,-147.59"/>
</g>
<!-- Node5 -->
<g id="node8" class="node"><title>Node5</title>
<polygon fill="none" stroke="#bfbfbf" points="207.5,-158.5 207.5,-179.5 380.5,-179.5 380.5,-158.5 207.5,-158.5"/>
<text text-anchor="middle" x="294" y="-166.5" font-family="FreeSans.ttf" font-size="10.00">std::vector&lt; WidgetToolButton &gt;</text>
</g>
<!-- Node5&#45;&gt;Node2 -->
<g id="edge8" class="edge"><title>Node5&#45;&gt;Node2</title>
<path fill="none" stroke="#9a32cd" stroke-dasharray="5,2" d="M274.996,-151.263C253.229,-130.947 218.274,-98.3221 200.371,-81.6129"/>
<polygon fill="#9a32cd" stroke="#9a32cd" points="272.663,-153.873 282.362,-158.138 277.44,-148.756 272.663,-153.873"/>
<text text-anchor="middle" x="308.5" y="-130.5" font-family="FreeSans.ttf" font-size="10.00"> mSelectionButtons</text>
<text text-anchor="middle" x="308.5" y="-117.5" font-family="FreeSans.ttf" font-size="10.00">mLineButtons</text>
<text text-anchor="middle" x="308.5" y="-104.5" font-family="FreeSans.ttf" font-size="10.00">mPointButtons</text>
</g>
<!-- Node6 -->
<g id="node10" class="node"><title>Node6</title>
<a xlink:href="structAdvancedImageWidget_1_1WidgetToolButton.html" target="_top" xlink:title="Tool bars.">
<polygon fill="none" stroke="black" points="186.5,-230.5 186.5,-251.5 401.5,-251.5 401.5,-230.5 186.5,-230.5"/>
<text text-anchor="middle" x="294" y="-238.5" font-family="FreeSans.ttf" font-size="10.00">AdvancedImageWidget::WidgetToolButton</text>
</a>
</g>
<!-- Node6&#45;&gt;Node5 -->
<g id="edge10" class="edge"><title>Node6&#45;&gt;Node5</title>
<path fill="none" stroke="#9a32cd" stroke-dasharray="5,2" d="M294,-220.235C294,-206.969 294,-190.319 294,-179.667"/>
<polygon fill="#9a32cd" stroke="#9a32cd" points="290.5,-220.376 294,-230.376 297.5,-220.376 290.5,-220.376"/>
<text text-anchor="middle" x="318.5" y="-202.5" font-family="FreeSans.ttf" font-size="10.00"> elements</text>
</g>
<!-- Node7 -->
<g id="node12" class="node"><title>Node7</title>
<a xlink:href="classSaveFlowSettings.html" target="_top" xlink:title="SaveFlowSettings">
<polygon fill="none" stroke="black" points="397.5,-158.5 397.5,-179.5 498.5,-179.5 498.5,-158.5 397.5,-158.5"/>
<text text-anchor="middle" x="448" y="-166.5" font-family="FreeSans.ttf" font-size="10.00">SaveFlowSettings</text>
</a>
</g>
<!-- Node7&#45;&gt;Node2 -->
<g id="edge12" class="edge"><title>Node7&#45;&gt;Node2</title>
<path fill="none" stroke="#9a32cd" stroke-dasharray="5,2" d="M430.741,-151.108C414.162,-135.061 387.617,-112.216 360,-100 340.999,-91.5949 292.793,-83.8245 252.39,-78.4469"/>
<polygon fill="#9a32cd" stroke="#9a32cd" points="428.481,-153.796 438.041,-158.364 433.416,-148.832 428.481,-153.796"/>
<text text-anchor="middle" x="451.5" y="-117.5" font-family="FreeSans.ttf" font-size="10.00"> mSaveDialog</text>
</g>
</g>
</svg>
        <g id="navigator" transform="translate(0 0)" fill="#404254">
                <rect fill="#f2f5e9" fill-opacity="0.5" stroke="#606060" stroke-width=".5" x="0" y="0" width="60" height="60"/>
                <use id="zoomplus" xlink:href="#zoomPlus" x="17" y="9" onmousedown="handleZoom(evt,'in')"/>
                <use id="zoomminus" xlink:href="#zoomMin" x="42" y="9" onmousedown="handleZoom(evt,'out')"/>
                <use id="reset" xlink:href="#resetDef" x="30" y="36" onmousedown="handleReset()"/>
                <g id="arrowUp" xlink:href="#dirArrow" transform="translate(30 24)" onmousedown="handlePan(0,-1)">
                  <use xlink:href="#rim" fill="#404040">
                        <set attributeName="fill" to="#808080" begin="arrowUp.mouseover" end="arrowUp.mouseout"/>
                  </use>
                  <path fill="none" stroke="white" stroke-width="1.5" d="M0,-3.0v7 M-2.5,-0.5L0,-3.0L2.5,-0.5"/>
                </g>
                <g id="arrowRight" xlink:href="#dirArrow" transform="rotate(90) translate(36 -43)" onmousedown="handlePan(1,0)">
                  <use xlink:href="#rim" fill="#404040">
                        <set attributeName="fill" to="#808080" begin="arrowRight.mouseover" end="arrowRight.mouseout"/>
                  </use>
                  <path fill="none" stroke="white" stroke-width="1.5" d="M0,-3.0v7 M-2.5,-0.5L0,-3.0L2.5,-0.5"/>
                </g>
                <g id="arrowDown" xlink:href="#dirArrow" transform="rotate(180) translate(-30 -48)" onmousedown="handlePan(0,1)">
                  <use xlink:href="#rim" fill="#404040">
                        <set attributeName="fill" to="#808080" begin="arrowDown.mouseover" end="arrowDown.mouseout"/>
                  </use>
                  <path fill="none" stroke="white" stroke-width="1.5" d="M0,-3.0v7 M-2.5,-0.5L0,-3.0L2.5,-0.5"/>
                </g>
                <g id="arrowLeft" xlink:href="#dirArrow" transform="rotate(270) translate(-36 17)" onmousedown="handlePan(-1,0)">
                  <use xlink:href="#rim" fill="#404040">
                        <set attributeName="fill" to="#808080" begin="arrowLeft.mouseover" end="arrowLeft.mouseout"/>
                  </use>
                  <path fill="none" stroke="white" stroke-width="1.5" d="M0,-3.0v7 M-2.5,-0.5L0,-3.0L2.5,-0.5"/>
                </g>
        </g>
</svg>
