<?xml version="1.0" encoding="UTF-8" standalone="no"?>
<!DOCTYPE svg PUBLIC "-//W3C//DTD SVG 1.1//EN"
 "http://www.w3.org/Graphics/SVG/1.1/DTD/svg11.dtd">
<!-- Generated by graphviz version 2.26.3 (20100126.1600)
 -->
<!-- Title: G Pages: 1 -->
<svg width="378pt" height="110pt"
 viewBox="0.00 0.00 378.00 110.00" xmlns="http://www.w3.org/2000/svg" xmlns:xlink="http://www.w3.org/1999/xlink">
<g id="graph1" class="graph" transform="scale(1 1) rotate(0) translate(4 106)">
<title>G</title>
<!-- Node1 -->
<g id="node1" class="node"><title>Node1</title>
<polygon fill="#bfbfbf" stroke="black" points="0.5,-40.5 0.5,-61.5 169.5,-61.5 169.5,-40.5 0.5,-40.5"/>
<text text-anchor="middle" x="85" y="-48.5" font-family="FreeSans.ttf" font-size="10.00">corecvs::CannyFilter::deserialize</text>
</g>
<!-- Node2 -->
<g id="node3" class="node"><title>Node2</title>
<a xlink:href="classCannyParameters.html#ab686a25b97cda02b1f8314e654cca010" target="_top" xlink:title="CannyParameters::accept">
<polygon fill="none" stroke="black" points="218,-80.5 218,-101.5 358,-101.5 358,-80.5 218,-80.5"/>
<text text-anchor="middle" x="288" y="-88.5" font-family="FreeSans.ttf" font-size="10.00">CannyParameters::accept</text>
</a>
</g>
<!-- Node1&#45;&gt;Node2 -->
<g id="edge2" class="edge"><title>Node1&#45;&gt;Node2</title>
<path fill="none" stroke="midnightblue" d="M138.336,-61.5095C164.805,-66.7252 196.964,-73.0619 224.678,-78.5227"/>
<polygon fill="midnightblue" stroke="midnightblue" points="224.18,-81.9919 234.668,-80.4913 225.534,-75.124 224.18,-81.9919"/>
</g>
<!-- Node3 -->
<g id="node5" class="node"><title>Node3</title>
<a xlink:href="classtinyxml2_1_1XMLNode.html#a6088246532b02895beb0e6fa561a7f3b" target="_top" xlink:title="Get the last child node, or null if none exists.">
<polygon fill="none" stroke="black" points="209,-40.5 209,-61.5 367,-61.5 367,-40.5 209,-40.5"/>
<text text-anchor="middle" x="288" y="-48.5" font-family="FreeSans.ttf" font-size="10.00">tinyxml2::XMLNode::LastChild</text>
</a>
</g>
<!-- Node1&#45;&gt;Node3 -->
<g id="edge4" class="edge"><title>Node1&#45;&gt;Node3</title>
<path fill="none" stroke="midnightblue" d="M169.62,-51C179.229,-51 189.045,-51 198.711,-51"/>
<polygon fill="midnightblue" stroke="midnightblue" points="198.715,-54.5001 208.715,-51 198.715,-47.5001 198.715,-54.5001"/>
</g>
<!-- Node4 -->
<g id="node7" class="node"><title>Node4</title>
<a xlink:href="classtinyxml2_1_1XMLNode.html#aab516e699567f75cc9ab2ef2eee501e8" target="_top" xlink:title="Safely cast to an Element, or null.">
<polygon fill="none" stroke="black" points="206,-0.5 206,-21.5 370,-21.5 370,-0.5 206,-0.5"/>
<text text-anchor="middle" x="288" y="-8.5" font-family="FreeSans.ttf" font-size="10.00">tinyxml2::XMLNode::ToElement</text>
</a>
</g>
<!-- Node1&#45;&gt;Node4 -->
<g id="edge6" class="edge"><title>Node1&#45;&gt;Node4</title>
<path fill="none" stroke="midnightblue" d="M138.336,-40.4905C164.805,-35.2748 196.964,-28.9381 224.678,-23.4773"/>
<polygon fill="midnightblue" stroke="midnightblue" points="225.534,-26.876 234.668,-21.5087 224.18,-20.0081 225.534,-26.876"/>
</g>
</g>
</svg>
