<?xml version="1.0" encoding="UTF-8" standalone="no"?>
<!DOCTYPE svg PUBLIC "-//W3C//DTD SVG 1.1//EN"
 "http://www.w3.org/Graphics/SVG/1.1/DTD/svg11.dtd">
<!-- Generated by graphviz version 2.26.3 (20100126.1600)
 -->
<!-- Title: G Pages: 1 -->
<!--zoomable 174 -->
<svg id="main" version="1.1" xmlns="http://www.w3.org/2000/svg" xmlns:xlink="http://www.w3.org/1999/xlink" xml:space="preserve" onload="init(evt)">
        <defs>
                <circle id="rim" cx="0" cy="0" r="7"/>
                <circle id="rim2" cx="0" cy="0" r="3.5"/>
                <g id="zoomPlus">
                        <use xlink:href="#rim" fill="#404040">
                                <set attributeName="fill" to="#808080" begin="zoomplus.mouseover" end="zoomplus.mouseout"/>
                        </use>
                        <path d="M-4,0h8M0,-4v8" fill="none" stroke="white" stroke-width="1.5" pointer-events="none"/>
                </g>
                <g id="zoomMin">
                        <use xlink:href="#rim" fill="#404040">
                                <set attributeName="fill" to="#808080" begin="zoomminus.mouseover" end="zoomminus.mouseout"/>
                        </use>
                        <path d="M-4,0h8" fill="none" stroke="white" stroke-width="1.5" pointer-events="none"/>
                </g>
                <g id="dirArrow">
                        <path fill="none" stroke="white" stroke-width="1.5" d="M0,-3.0v7 M-2.5,-0.5L0,-3.0L2.5,-0.5"/>
                </g>
               <g id="resetDef">
                       <use xlink:href="#rim2" fill="#404040">
                               <set attributeName="fill" to="#808080" begin="reset.mouseover" end="reset.mouseout"/>
                       </use>
               </g>
        </defs>

<script type="text/javascript">
var viewWidth = 1058;
var viewHeight = 174;
var sectionId = 'dynsection-23';
</script>
<script xlink:href="svgpan.js"/>
<svg id="graph" class="graph">
<g id="viewport">
<title>G</title>
<!-- Node1 -->
<g id="node1" class="node"><title>Node1</title>
<polygon fill="#bfbfbf" stroke="black" points="0,-80.5 0,-101.5 194,-101.5 194,-80.5 0,-80.5"/>
<text text-anchor="middle" x="97" y="-88.5" font-family="FreeSans.ttf" font-size="10.00">corecvs::Matrix33::ProjectiveByPoints</text>
</g>
<!-- Node2 -->
<g id="node3" class="node"><title>Node2</title>
<a xlink:href="classcorecvs_1_1Matrix.html#a5b8b00c8bfc66549652e6c0610457254" target="_top" xlink:title="The element getter for a matrix that is used like vector (i.e has height or width of 1)...">
<polygon fill="none" stroke="black" points="695.5,-100.5 695.5,-121.5 796.5,-121.5 796.5,-100.5 695.5,-100.5"/>
<text text-anchor="middle" x="746" y="-108.5" font-family="FreeSans.ttf" font-size="10.00">corecvs::Matrix::a</text>
</a>
</g>
<!-- Node1&#45;&gt;Node2 -->
<g id="edge2" class="edge"><title>Node1&#45;&gt;Node2</title>
<path fill="none" stroke="midnightblue" d="M114.24,-101.675C138.838,-116.214 185.919,-141.517 230,-151 398.702,-187.292 604.687,-146.62 697.071,-124.035"/>
<polygon fill="midnightblue" stroke="midnightblue" points="698.112,-127.383 706.974,-121.576 696.425,-120.589 698.112,-127.383"/>
</g>
<!-- Node4 -->
<g id="node7" class="node"><title>Node4</title>
<a xlink:href="classcorecvs_1_1AbstractBuffer.html#ad4c21551df215fd88dc991b7135068ec" target="_top" xlink:title="corecvs::AbstractBuffer::fillLineWithArgs">
<polygon fill="none" stroke="black" points="230,-120.5 230,-141.5 436,-141.5 436,-120.5 230,-120.5"/>
<text text-anchor="middle" x="333" y="-128.5" font-family="FreeSans.ttf" font-size="10.00">corecvs::AbstractBuffer::fillLineWithArgs</text>
</a>
</g>
<!-- Node1&#45;&gt;Node4 -->
<g id="edge6" class="edge"><title>Node1&#45;&gt;Node4</title>
<path fill="none" stroke="midnightblue" d="M159.006,-101.51C190.319,-106.817 228.479,-113.285 261.075,-118.809"/>
<polygon fill="midnightblue" stroke="midnightblue" points="260.554,-122.271 270.999,-120.491 261.724,-115.369 260.554,-122.271"/>
</g>
<!-- Node5 -->
<g id="node9" class="node"><title>Node5</title>
<a xlink:href="classcorecvs_1_1Matrix.html#a67ff682212801703e75602acf3859d1f" target="_top" xlink:title="corecvs::Matrix::invSVD">
<polygon fill="none" stroke="black" points="268.5,-80.5 268.5,-101.5 397.5,-101.5 397.5,-80.5 268.5,-80.5"/>
<text text-anchor="middle" x="333" y="-88.5" font-family="FreeSans.ttf" font-size="10.00">corecvs::Matrix::invSVD</text>
</a>
</g>
<!-- Node1&#45;&gt;Node5 -->
<g id="edge8" class="edge"><title>Node1&#45;&gt;Node5</title>
<path fill="none" stroke="midnightblue" d="M194.012,-91C215.437,-91 237.816,-91 258.2,-91"/>
<polygon fill="midnightblue" stroke="midnightblue" points="258.347,-94.5001 268.347,-91 258.347,-87.5001 258.347,-94.5001"/>
</g>
<!-- Node9 -->
<g id="node20" class="node"><title>Node9</title>
<a xlink:href="classcorecvs_1_1Vector2d.html#a944721c41f044c1388d9dc42ca899bce" target="_top" xlink:title="corecvs::Vector2d::x">
<polygon fill="none" stroke="black" points="276.5,-40.5 276.5,-61.5 389.5,-61.5 389.5,-40.5 276.5,-40.5"/>
<text text-anchor="middle" x="333" y="-48.5" font-family="FreeSans.ttf" font-size="10.00">corecvs::Vector2d::x</text>
</a>
</g>
<!-- Node1&#45;&gt;Node9 -->
<g id="edge22" class="edge"><title>Node1&#45;&gt;Node9</title>
<path fill="none" stroke="midnightblue" d="M159.006,-80.4905C191.928,-74.9106 232.419,-68.0477 266.054,-62.3468"/>
<polygon fill="midnightblue" stroke="midnightblue" points="266.982,-65.7395 276.256,-60.6176 265.812,-58.838 266.982,-65.7395"/>
</g>
<!-- Node10 -->
<g id="node22" class="node"><title>Node10</title>
<a xlink:href="classcorecvs_1_1Vector2d.html#ae1ea2ad4c0821001408bf963cffa8413" target="_top" xlink:title="corecvs::Vector2d::y">
<polygon fill="none" stroke="black" points="276.5,-0.5 276.5,-21.5 389.5,-21.5 389.5,-0.5 276.5,-0.5"/>
<text text-anchor="middle" x="333" y="-8.5" font-family="FreeSans.ttf" font-size="10.00">corecvs::Vector2d::y</text>
</a>
</g>
<!-- Node1&#45;&gt;Node10 -->
<g id="edge24" class="edge"><title>Node1&#45;&gt;Node10</title>
<path fill="none" stroke="midnightblue" d="M116.706,-80.3553C142.181,-67.0097 188.237,-44.2763 230,-31 241.528,-27.3353 254.006,-24.2261 266.165,-21.6308"/>
<polygon fill="midnightblue" stroke="midnightblue" points="267.177,-24.9967 276.277,-19.5707 265.779,-18.1377 267.177,-24.9967"/>
</g>
<!-- Node3 -->
<g id="node5" class="node"><title>Node3</title>
<a xlink:href="classcorecvs_1_1AbstractBuffer.html#a98f72526738a0c4ce8a0b72a3b5c28b9" target="_top" xlink:title="The element getter.">
<polygon fill="none" stroke="black" points="876,-100.5 876,-121.5 1050,-121.5 1050,-100.5 876,-100.5"/>
<text text-anchor="middle" x="963" y="-108.5" font-family="FreeSans.ttf" font-size="10.00">corecvs::AbstractBuffer::element</text>
</a>
</g>
<!-- Node2&#45;&gt;Node3 -->
<g id="edge4" class="edge"><title>Node2&#45;&gt;Node3</title>
<path fill="none" stroke="midnightblue" d="M796.603,-111C817.205,-111 841.745,-111 865.566,-111"/>
<polygon fill="midnightblue" stroke="midnightblue" points="865.717,-114.5 875.717,-111 865.717,-107.5 865.717,-114.5"/>
</g>
<!-- Node5&#45;&gt;Node2 -->
<g id="edge10" class="edge"><title>Node5&#45;&gt;Node2</title>
<path fill="none" stroke="midnightblue" d="M389.59,-101.515C414.73,-105.677 444.742,-109.953 472,-112 535.82,-116.794 552,-112.246 616,-112 638.602,-111.913 663.413,-111.741 685.247,-111.564"/>
<polygon fill="midnightblue" stroke="midnightblue" points="685.406,-115.063 695.376,-111.48 685.348,-108.063 685.406,-115.063"/>
</g>
<!-- Node6 -->
<g id="node12" class="node"><title>Node6</title>
<a xlink:href="classcorecvs_1_1Matrix.html#ab00a85b071aab144f3a2860189150e7f" target="_top" xlink:title="This method contains SVD implementation.">
<polygon fill="none" stroke="black" points="488.5,-41.5 488.5,-62.5 599.5,-62.5 599.5,-41.5 488.5,-41.5"/>
<text text-anchor="middle" x="544" y="-49.5" font-family="FreeSans.ttf" font-size="10.00">corecvs::Matrix::svd</text>
</a>
</g>
<!-- Node5&#45;&gt;Node6 -->
<g id="edge12" class="edge"><title>Node5&#45;&gt;Node6</title>
<path fill="none" stroke="midnightblue" d="M389.822,-80.4974C416.999,-75.4741 449.697,-69.4305 477.974,-64.2039"/>
<polygon fill="midnightblue" stroke="midnightblue" points="478.976,-67.5781 488.173,-62.3188 477.703,-60.6947 478.976,-67.5781"/>
</g>
<!-- Node8 -->
<g id="node17" class="node"><title>Node8</title>
<a xlink:href="classcorecvs_1_1Matrix.html#a592174ecffa431b0f6b2a47aeee2ad23" target="_top" xlink:title="corecvs::Matrix::transpose">
<polygon fill="none" stroke="black" points="472.5,-81.5 472.5,-102.5 615.5,-102.5 615.5,-81.5 472.5,-81.5"/>
<text text-anchor="middle" x="544" y="-89.5" font-family="FreeSans.ttf" font-size="10.00">corecvs::Matrix::transpose</text>
</a>
</g>
<!-- Node5&#45;&gt;Node8 -->
<g id="edge18" class="edge"><title>Node5&#45;&gt;Node8</title>
<path fill="none" stroke="midnightblue" d="M397.741,-91.3068C418.134,-91.4035 440.928,-91.5115 462.339,-91.613"/>
<polygon fill="midnightblue" stroke="midnightblue" points="462.377,-95.1131 472.393,-91.6606 462.41,-88.1132 462.377,-95.1131"/>
</g>
<!-- Node6&#45;&gt;Node2 -->
<g id="edge14" class="edge"><title>Node6&#45;&gt;Node2</title>
<path fill="none" stroke="midnightblue" d="M582.528,-62.5453C593.368,-65.5546 605.157,-68.8678 616,-72 644.678,-80.2839 676.808,-89.9196 701.951,-97.5406"/>
<polygon fill="midnightblue" stroke="midnightblue" points="700.984,-100.905 711.569,-100.461 703.018,-94.2067 700.984,-100.905"/>
</g>
<!-- Node7 -->
<g id="node15" class="node"><title>Node7</title>
<a xlink:href="classcorecvs_1_1Vector2d.html#ab49b551bd23cad02283d6506884bef72" target="_top" xlink:title="corecvs::Vector2d::getLengthStable">
<polygon fill="none" stroke="black" points="652,-41.5 652,-62.5 840,-62.5 840,-41.5 652,-41.5"/>
<text text-anchor="middle" x="746" y="-49.5" font-family="FreeSans.ttf" font-size="10.00">corecvs::Vector2d::getLengthStable</text>
</a>
</g>
<!-- Node6&#45;&gt;Node7 -->
<g id="edge16" class="edge"><title>Node6&#45;&gt;Node7</title>
<path fill="none" stroke="midnightblue" d="M599.732,-52C612.826,-52 627.2,-52 641.665,-52"/>
<polygon fill="midnightblue" stroke="midnightblue" points="641.679,-55.5001 651.679,-52 641.679,-48.5001 641.679,-55.5001"/>
</g>
<!-- Node8&#45;&gt;Node2 -->
<g id="edge20" class="edge"><title>Node8&#45;&gt;Node2</title>
<path fill="none" stroke="midnightblue" d="M615.502,-98.7254C638.233,-100.863 663.149,-103.207 685.062,-105.268"/>
<polygon fill="midnightblue" stroke="midnightblue" points="684.943,-108.772 695.227,-106.224 685.598,-101.803 684.943,-108.772"/>
</g>
</g>
</svg>
        <g id="navigator" transform="translate(0 0)" fill="#404254">
                <rect fill="#f2f5e9" fill-opacity="0.5" stroke="#606060" stroke-width=".5" x="0" y="0" width="60" height="60"/>
                <use id="zoomplus" xlink:href="#zoomPlus" x="17" y="9" onmousedown="handleZoom(evt,'in')"/>
                <use id="zoomminus" xlink:href="#zoomMin" x="42" y="9" onmousedown="handleZoom(evt,'out')"/>
                <use id="reset" xlink:href="#resetDef" x="30" y="36" onmousedown="handleReset()"/>
                <g id="arrowUp" xlink:href="#dirArrow" transform="translate(30 24)" onmousedown="handlePan(0,-1)">
                  <use xlink:href="#rim" fill="#404040">
                        <set attributeName="fill" to="#808080" begin="arrowUp.mouseover" end="arrowUp.mouseout"/>
                  </use>
                  <path fill="none" stroke="white" stroke-width="1.5" d="M0,-3.0v7 M-2.5,-0.5L0,-3.0L2.5,-0.5"/>
                </g>
                <g id="arrowRight" xlink:href="#dirArrow" transform="rotate(90) translate(36 -43)" onmousedown="handlePan(1,0)">
                  <use xlink:href="#rim" fill="#404040">
                        <set attributeName="fill" to="#808080" begin="arrowRight.mouseover" end="arrowRight.mouseout"/>
                  </use>
                  <path fill="none" stroke="white" stroke-width="1.5" d="M0,-3.0v7 M-2.5,-0.5L0,-3.0L2.5,-0.5"/>
                </g>
                <g id="arrowDown" xlink:href="#dirArrow" transform="rotate(180) translate(-30 -48)" onmousedown="handlePan(0,1)">
                  <use xlink:href="#rim" fill="#404040">
                        <set attributeName="fill" to="#808080" begin="arrowDown.mouseover" end="arrowDown.mouseout"/>
                  </use>
                  <path fill="none" stroke="white" stroke-width="1.5" d="M0,-3.0v7 M-2.5,-0.5L0,-3.0L2.5,-0.5"/>
                </g>
                <g id="arrowLeft" xlink:href="#dirArrow" transform="rotate(270) translate(-36 17)" onmousedown="handlePan(-1,0)">
                  <use xlink:href="#rim" fill="#404040">
                        <set attributeName="fill" to="#808080" begin="arrowLeft.mouseover" end="arrowLeft.mouseout"/>
                  </use>
                  <path fill="none" stroke="white" stroke-width="1.5" d="M0,-3.0v7 M-2.5,-0.5L0,-3.0L2.5,-0.5"/>
                </g>
        </g>
</svg>
