<?xml version="1.0" encoding="UTF-8" standalone="no"?>
<!DOCTYPE svg PUBLIC "-//W3C//DTD SVG 1.1//EN"
 "http://www.w3.org/Graphics/SVG/1.1/DTD/svg11.dtd">
<!-- Generated by graphviz version 2.26.3 (20100126.1600)
 -->
<!-- Title: G Pages: 1 -->
<!--zoomable 110 -->
<svg id="main" version="1.1" xmlns="http://www.w3.org/2000/svg" xmlns:xlink="http://www.w3.org/1999/xlink" xml:space="preserve" onload="init(evt)">
        <defs>
                <circle id="rim" cx="0" cy="0" r="7"/>
                <circle id="rim2" cx="0" cy="0" r="3.5"/>
                <g id="zoomPlus">
                        <use xlink:href="#rim" fill="#404040">
                                <set attributeName="fill" to="#808080" begin="zoomplus.mouseover" end="zoomplus.mouseout"/>
                        </use>
                        <path d="M-4,0h8M0,-4v8" fill="none" stroke="white" stroke-width="1.5" pointer-events="none"/>
                </g>
                <g id="zoomMin">
                        <use xlink:href="#rim" fill="#404040">
                                <set attributeName="fill" to="#808080" begin="zoomminus.mouseover" end="zoomminus.mouseout"/>
                        </use>
                        <path d="M-4,0h8" fill="none" stroke="white" stroke-width="1.5" pointer-events="none"/>
                </g>
                <g id="dirArrow">
                        <path fill="none" stroke="white" stroke-width="1.5" d="M0,-3.0v7 M-2.5,-0.5L0,-3.0L2.5,-0.5"/>
                </g>
               <g id="resetDef">
                       <use xlink:href="#rim2" fill="#404040">
                               <set attributeName="fill" to="#808080" begin="reset.mouseover" end="reset.mouseout"/>
                       </use>
               </g>
        </defs>

<script type="text/javascript">
var viewWidth = 598;
var viewHeight = 110;
var sectionId = 'dynsection-20';
</script>
<script xlink:href="svgpan.js"/>
<svg id="graph" class="graph">
<g id="viewport">
<title>G</title>
<!-- Node1 -->
<g id="node1" class="node"><title>Node1</title>
<polygon fill="#bfbfbf" stroke="black" points="0,-40.5 0,-61.5 206,-61.5 206,-40.5 0,-40.5"/>
<text text-anchor="middle" x="103" y="-48.5" font-family="FreeSans.ttf" font-size="10.00">tinyxml2::XMLDeclaration::ShallowEqual</text>
</g>
<!-- Node2 -->
<g id="node3" class="node"><title>Node2</title>
<a xlink:href="classtinyxml2_1_1XMLUtil.html#acfcd287cacfd2533e1bc9ea4dfb56602" target="_top" xlink:title="tinyxml2::XMLUtil::StringEqual">
<polygon fill="none" stroke="black" points="253,-80.5 253,-101.5 411,-101.5 411,-80.5 253,-80.5"/>
<text text-anchor="middle" x="332" y="-88.5" font-family="FreeSans.ttf" font-size="10.00">tinyxml2::XMLUtil::StringEqual</text>
</a>
</g>
<!-- Node1&#45;&gt;Node2 -->
<g id="edge2" class="edge"><title>Node1&#45;&gt;Node2</title>
<path fill="none" stroke="midnightblue" d="M163.167,-61.5095C193.42,-66.7938 230.26,-73.2289 261.799,-78.7378"/>
<polygon fill="midnightblue" stroke="midnightblue" points="261.385,-82.2183 271.838,-80.4913 262.589,-75.3227 261.385,-82.2183"/>
</g>
<!-- Node3 -->
<g id="node5" class="node"><title>Node3</title>
<a xlink:href="classtinyxml2_1_1XMLNode.html#a174fd4c22c010b58138c1b84a0dfbd51" target="_top" xlink:title="Safely cast to a Declaration, or null.">
<polygon fill="none" stroke="black" points="242.5,-40.5 242.5,-61.5 421.5,-61.5 421.5,-40.5 242.5,-40.5"/>
<text text-anchor="middle" x="332" y="-48.5" font-family="FreeSans.ttf" font-size="10.00">tinyxml2::XMLNode::ToDeclaration</text>
</a>
</g>
<!-- Node1&#45;&gt;Node3 -->
<g id="edge4" class="edge"><title>Node1&#45;&gt;Node3</title>
<path fill="none" stroke="midnightblue" d="M206.111,-51C214.815,-51 223.607,-51 232.284,-51"/>
<polygon fill="midnightblue" stroke="midnightblue" points="232.404,-54.5001 242.404,-51 232.404,-47.5001 232.404,-54.5001"/>
</g>
<!-- Node4 -->
<g id="node7" class="node"><title>Node4</title>
<a xlink:href="classtinyxml2_1_1XMLNode.html#a7682be117e3b2b4ebfd517c1acaaadbf" target="_top" xlink:title="The meaning of &#39;value&#39; changes for the specific type.">
<polygon fill="none" stroke="black" points="262,-0.5 262,-21.5 402,-21.5 402,-0.5 262,-0.5"/>
<text text-anchor="middle" x="332" y="-8.5" font-family="FreeSans.ttf" font-size="10.00">tinyxml2::XMLNode::Value</text>
</a>
</g>
<!-- Node1&#45;&gt;Node4 -->
<g id="edge6" class="edge"><title>Node1&#45;&gt;Node4</title>
<path fill="none" stroke="midnightblue" d="M163.167,-40.4905C193.42,-35.2062 230.26,-28.7711 261.799,-23.2622"/>
<polygon fill="midnightblue" stroke="midnightblue" points="262.589,-26.6773 271.838,-21.5087 261.385,-19.7817 262.589,-26.6773"/>
</g>
<!-- Node5 -->
<g id="node9" class="node"><title>Node5</title>
<a xlink:href="classtinyxml2_1_1StrPair.html#ad87e3d11330f5e689ba1e7e54c023b57" target="_top" xlink:title="tinyxml2::StrPair::GetStr">
<polygon fill="none" stroke="black" points="458,-0.5 458,-21.5 590,-21.5 590,-0.5 458,-0.5"/>
<text text-anchor="middle" x="524" y="-8.5" font-family="FreeSans.ttf" font-size="10.00">tinyxml2::StrPair::GetStr</text>
</a>
</g>
<!-- Node4&#45;&gt;Node5 -->
<g id="edge8" class="edge"><title>Node4&#45;&gt;Node5</title>
<path fill="none" stroke="midnightblue" d="M402.131,-11C416.928,-11 432.61,-11 447.624,-11"/>
<polygon fill="midnightblue" stroke="midnightblue" points="447.892,-14.5001 457.892,-11 447.892,-7.5001 447.892,-14.5001"/>
</g>
</g>
</svg>
        <g id="navigator" transform="translate(0 0)" fill="#404254">
                <rect fill="#f2f5e9" fill-opacity="0.5" stroke="#606060" stroke-width=".5" x="0" y="0" width="60" height="60"/>
                <use id="zoomplus" xlink:href="#zoomPlus" x="17" y="9" onmousedown="handleZoom(evt,'in')"/>
                <use id="zoomminus" xlink:href="#zoomMin" x="42" y="9" onmousedown="handleZoom(evt,'out')"/>
                <use id="reset" xlink:href="#resetDef" x="30" y="36" onmousedown="handleReset()"/>
                <g id="arrowUp" xlink:href="#dirArrow" transform="translate(30 24)" onmousedown="handlePan(0,-1)">
                  <use xlink:href="#rim" fill="#404040">
                        <set attributeName="fill" to="#808080" begin="arrowUp.mouseover" end="arrowUp.mouseout"/>
                  </use>
                  <path fill="none" stroke="white" stroke-width="1.5" d="M0,-3.0v7 M-2.5,-0.5L0,-3.0L2.5,-0.5"/>
                </g>
                <g id="arrowRight" xlink:href="#dirArrow" transform="rotate(90) translate(36 -43)" onmousedown="handlePan(1,0)">
                  <use xlink:href="#rim" fill="#404040">
                        <set attributeName="fill" to="#808080" begin="arrowRight.mouseover" end="arrowRight.mouseout"/>
                  </use>
                  <path fill="none" stroke="white" stroke-width="1.5" d="M0,-3.0v7 M-2.5,-0.5L0,-3.0L2.5,-0.5"/>
                </g>
                <g id="arrowDown" xlink:href="#dirArrow" transform="rotate(180) translate(-30 -48)" onmousedown="handlePan(0,1)">
                  <use xlink:href="#rim" fill="#404040">
                        <set attributeName="fill" to="#808080" begin="arrowDown.mouseover" end="arrowDown.mouseout"/>
                  </use>
                  <path fill="none" stroke="white" stroke-width="1.5" d="M0,-3.0v7 M-2.5,-0.5L0,-3.0L2.5,-0.5"/>
                </g>
                <g id="arrowLeft" xlink:href="#dirArrow" transform="rotate(270) translate(-36 17)" onmousedown="handlePan(-1,0)">
                  <use xlink:href="#rim" fill="#404040">
                        <set attributeName="fill" to="#808080" begin="arrowLeft.mouseover" end="arrowLeft.mouseout"/>
                  </use>
                  <path fill="none" stroke="white" stroke-width="1.5" d="M0,-3.0v7 M-2.5,-0.5L0,-3.0L2.5,-0.5"/>
                </g>
        </g>
</svg>
