<?xml version="1.0" encoding="UTF-8" standalone="no"?>
<!DOCTYPE svg PUBLIC "-//W3C//DTD SVG 1.1//EN"
 "http://www.w3.org/Graphics/SVG/1.1/DTD/svg11.dtd">
<!-- Generated by graphviz version 2.26.3 (20100126.1600)
 -->
<!-- Title: G Pages: 1 -->
<!--zoomable 584 -->
<svg id="main" version="1.1" xmlns="http://www.w3.org/2000/svg" xmlns:xlink="http://www.w3.org/1999/xlink" xml:space="preserve" onload="init(evt)">
        <defs>
                <circle id="rim" cx="0" cy="0" r="7"/>
                <circle id="rim2" cx="0" cy="0" r="3.5"/>
                <g id="zoomPlus">
                        <use xlink:href="#rim" fill="#404040">
                                <set attributeName="fill" to="#808080" begin="zoomplus.mouseover" end="zoomplus.mouseout"/>
                        </use>
                        <path d="M-4,0h8M0,-4v8" fill="none" stroke="white" stroke-width="1.5" pointer-events="none"/>
                </g>
                <g id="zoomMin">
                        <use xlink:href="#rim" fill="#404040">
                                <set attributeName="fill" to="#808080" begin="zoomminus.mouseover" end="zoomminus.mouseout"/>
                        </use>
                        <path d="M-4,0h8" fill="none" stroke="white" stroke-width="1.5" pointer-events="none"/>
                </g>
                <g id="dirArrow">
                        <path fill="none" stroke="white" stroke-width="1.5" d="M0,-3.0v7 M-2.5,-0.5L0,-3.0L2.5,-0.5"/>
                </g>
               <g id="resetDef">
                       <use xlink:href="#rim2" fill="#404040">
                               <set attributeName="fill" to="#808080" begin="reset.mouseover" end="reset.mouseout"/>
                       </use>
               </g>
        </defs>

<script type="text/javascript">
var viewWidth = 486;
var viewHeight = 584;
var sectionId = 'dynsection-0';
</script>
<script xlink:href="svgpan.js"/>
<svg id="graph" class="graph">
<g id="viewport">
<title>G</title>
<!-- Node1 -->
<g id="node1" class="node"><title>Node1</title>
<polygon fill="#bfbfbf" stroke="black" points="0.5,-280.5 0.5,-301.5 127.5,-301.5 127.5,-280.5 0.5,-280.5"/>
<text text-anchor="middle" x="64" y="-288.5" font-family="FreeSans.ttf" font-size="10.00">MjpegDecoder::decode</text>
</g>
<!-- Node2 -->
<g id="node3" class="node"><title>Node2</title>
<a xlink:href="mjpegDecoder_8cpp.html#a49c66c14156641198b2ad1b5e18dfa03" target="_top" xlink:title="dec_checkmarker">
<polygon fill="none" stroke="black" points="164.5,-554.5 164.5,-575.5 265.5,-575.5 265.5,-554.5 164.5,-554.5"/>
<text text-anchor="middle" x="215" y="-562.5" font-family="FreeSans.ttf" font-size="10.00">dec_checkmarker</text>
</a>
</g>
<!-- Node1&#45;&gt;Node2 -->
<g id="edge2" class="edge"><title>Node1&#45;&gt;Node2</title>
<path fill="none" stroke="midnightblue" d="M65.5056,-301.677C71.2986,-339.106 95.3662,-466.098 164,-540 167.307,-543.561 171.231,-546.677 175.411,-549.388"/>
<polygon fill="midnightblue" stroke="midnightblue" points="173.813,-552.505 184.237,-554.396 177.267,-546.417 173.813,-552.505"/>
</g>
<!-- Node3 -->
<g id="node5" class="node"><title>Node3</title>
<a xlink:href="mjpegDecoder_8cpp.html#ac41a55c8cc37d44a58708bee12ac69fb" target="_top" xlink:title="dec_readmarker">
<polygon fill="none" stroke="black" points="302.5,-534.5 302.5,-555.5 397.5,-555.5 397.5,-534.5 302.5,-534.5"/>
<text text-anchor="middle" x="350" y="-542.5" font-family="FreeSans.ttf" font-size="10.00">dec_readmarker</text>
</a>
</g>
<!-- Node1&#45;&gt;Node3 -->
<g id="edge10" class="edge"><title>Node1&#45;&gt;Node3</title>
<path fill="none" stroke="midnightblue" d="M65.512,-301.604C71.1487,-336.989 94.3257,-451.872 164,-507 200.141,-535.596 252.292,-544.29 292.182,-546.292"/>
<polygon fill="midnightblue" stroke="midnightblue" points="292.177,-549.795 302.301,-546.672 292.44,-542.799 292.177,-549.795"/>
</g>
<!-- Node5 -->
<g id="node9" class="node"><title>Node5</title>
<a xlink:href="mjpegDecoder_8cpp.html#afa10b7c8e4539f90f4699f82a3edc993" target="_top" xlink:title="dec_initscans">
<polygon fill="none" stroke="black" points="174.5,-476.5 174.5,-497.5 255.5,-497.5 255.5,-476.5 174.5,-476.5"/>
<text text-anchor="middle" x="215" y="-484.5" font-family="FreeSans.ttf" font-size="10.00">dec_initscans</text>
</a>
</g>
<!-- Node1&#45;&gt;Node5 -->
<g id="edge8" class="edge"><title>Node1&#45;&gt;Node5</title>
<path fill="none" stroke="midnightblue" d="M67.2608,-301.756C76.9642,-332.033 108.487,-418.906 164,-467 165.918,-468.662 167.991,-470.195 170.165,-471.607"/>
<polygon fill="midnightblue" stroke="midnightblue" points="168.497,-474.685 178.939,-476.478 171.895,-468.564 168.497,-474.685"/>
</g>
<!-- Node6 -->
<g id="node12" class="node"><title>Node6</title>
<a xlink:href="mjpegDecoder_8cpp.html#a141b14aa6483ed98c69bd0ee9ff70c33" target="_top" xlink:title="decode_mcus">
<polygon fill="none" stroke="black" points="173.5,-436.5 173.5,-457.5 256.5,-457.5 256.5,-436.5 173.5,-436.5"/>
<text text-anchor="middle" x="215" y="-444.5" font-family="FreeSans.ttf" font-size="10.00">decode_mcus</text>
</a>
</g>
<!-- Node1&#45;&gt;Node6 -->
<g id="edge12" class="edge"><title>Node1&#45;&gt;Node6</title>
<path fill="none" stroke="midnightblue" d="M69.9122,-301.851C83.6131,-326.16 119.767,-385.694 164,-422 168.383,-425.597 173.37,-428.84 178.468,-431.705"/>
<polygon fill="midnightblue" stroke="midnightblue" points="177.168,-434.973 187.659,-436.452 180.38,-428.754 177.168,-434.973"/>
</g>
<!-- Node7 -->
<g id="node14" class="node"><title>Node7</title>
<a xlink:href="mjpegDecoder_8cpp.html#a9ccd30504f2252152b525acc1629d45b" target="_top" xlink:title="getbyte">
<polygon fill="none" stroke="black" points="323.5,-379.5 323.5,-400.5 376.5,-400.5 376.5,-379.5 323.5,-379.5"/>
<text text-anchor="middle" x="350" y="-387.5" font-family="FreeSans.ttf" font-size="10.00">getbyte</text>
</a>
</g>
<!-- Node1&#45;&gt;Node7 -->
<g id="edge14" class="edge"><title>Node1&#45;&gt;Node7</title>
<path fill="none" stroke="midnightblue" d="M73.8759,-301.673C90.5705,-318.941 126.258,-352.62 164,-368 212.856,-387.909 274.495,-391.419 313.09,-391.32"/>
<polygon fill="midnightblue" stroke="midnightblue" points="313.375,-394.817 323.335,-391.207 313.297,-387.817 313.375,-394.817"/>
</g>
<!-- Node8 -->
<g id="node16" class="node"><title>Node8</title>
<a xlink:href="mjpegDecoder_8cpp.html#a44f65b66f842d6b74e85b117130ea0df" target="_top" xlink:title="getword">
<polygon fill="none" stroke="black" points="322.5,-329.5 322.5,-350.5 377.5,-350.5 377.5,-329.5 322.5,-329.5"/>
<text text-anchor="middle" x="350" y="-337.5" font-family="FreeSans.ttf" font-size="10.00">getword</text>
</a>
</g>
<!-- Node1&#45;&gt;Node8 -->
<g id="edge16" class="edge"><title>Node1&#45;&gt;Node8</title>
<path fill="none" stroke="midnightblue" d="M76.5206,-301.637C94.4899,-316.13 129.269,-341.38 164,-351 213.867,-364.812 274.036,-357.069 312.163,-349.315"/>
<polygon fill="midnightblue" stroke="midnightblue" points="313.259,-352.66 322.306,-347.145 311.795,-345.814 313.259,-352.66"/>
</g>
<!-- Node9 -->
<g id="node18" class="node"><title>Node9</title>
<a xlink:href="mjpegDecoder_8cpp.html#a886790df723e585b6261982edf7e5daa" target="_top" xlink:title="huffman_init">
<polygon fill="none" stroke="black" points="177,-280.5 177,-301.5 253,-301.5 253,-280.5 177,-280.5"/>
<text text-anchor="middle" x="215" y="-288.5" font-family="FreeSans.ttf" font-size="10.00">huffman_init</text>
</a>
</g>
<!-- Node1&#45;&gt;Node9 -->
<g id="edge18" class="edge"><title>Node1&#45;&gt;Node9</title>
<path fill="none" stroke="midnightblue" d="M127.6,-291C140.697,-291 154.285,-291 166.732,-291"/>
<polygon fill="midnightblue" stroke="midnightblue" points="166.884,-294.5 176.884,-291 166.884,-287.5 166.884,-294.5"/>
</g>
<!-- Node11 -->
<g id="node22" class="node"><title>Node11</title>
<a xlink:href="mjpegDecoder_8cpp.html#a0ceaae71da222f4c43c65327ed5205c9" target="_top" xlink:title="idct">
<polygon fill="none" stroke="black" points="198,-240.5 198,-261.5 232,-261.5 232,-240.5 198,-240.5"/>
<text text-anchor="middle" x="215" y="-248.5" font-family="FreeSans.ttf" font-size="10.00">idct</text>
</a>
</g>
<!-- Node1&#45;&gt;Node11 -->
<g id="edge22" class="edge"><title>Node1&#45;&gt;Node11</title>
<path fill="none" stroke="midnightblue" d="M103.673,-280.49C130.195,-273.465 164.394,-264.406 187.848,-258.192"/>
<polygon fill="midnightblue" stroke="midnightblue" points="189.032,-261.5 197.802,-255.556 187.24,-254.733 189.032,-261.5"/>
</g>
<!-- Node12 -->
<g id="node24" class="node"><title>Node12</title>
<a xlink:href="mjpegDecoder_8cpp.html#a3911e422b937ec08aafbc3dd47767bdf" target="_top" xlink:title="idctqtab">
<polygon fill="none" stroke="black" points="187,-200.5 187,-221.5 243,-221.5 243,-200.5 187,-200.5"/>
<text text-anchor="middle" x="215" y="-208.5" font-family="FreeSans.ttf" font-size="10.00">idctqtab</text>
</a>
</g>
<!-- Node1&#45;&gt;Node12 -->
<g id="edge24" class="edge"><title>Node1&#45;&gt;Node12</title>
<path fill="none" stroke="midnightblue" d="M79.8171,-280.378C99.1508,-267.664 133.114,-246.19 164,-231 168.307,-228.882 172.898,-226.821 177.494,-224.878"/>
<polygon fill="midnightblue" stroke="midnightblue" points="178.9,-228.085 186.844,-221.074 176.262,-221.601 178.9,-228.085"/>
</g>
<!-- Node13 -->
<g id="node26" class="node"><title>Node13</title>
<a xlink:href="mjpegDecoder_8cpp.html#a63047e52f30f4d86309767a3646184e1" target="_top" xlink:title="readtables">
<polygon fill="none" stroke="black" points="181,-320.5 181,-341.5 249,-341.5 249,-320.5 181,-320.5"/>
<text text-anchor="middle" x="215" y="-328.5" font-family="FreeSans.ttf" font-size="10.00">readtables</text>
</a>
</g>
<!-- Node1&#45;&gt;Node13 -->
<g id="edge26" class="edge"><title>Node1&#45;&gt;Node13</title>
<path fill="none" stroke="midnightblue" d="M103.673,-301.51C124.418,-307.005 149.86,-313.744 171.183,-319.393"/>
<polygon fill="midnightblue" stroke="midnightblue" points="170.406,-322.808 180.969,-321.985 172.198,-316.041 170.406,-322.808"/>
</g>
<!-- Node14 -->
<g id="node31" class="node"><title>Node14</title>
<a xlink:href="mjpegDecoder_8cpp.html#a65081aac1b59f346779f69c8e0475c81" target="_top" xlink:title="setinput">
<polygon fill="none" stroke="black" points="187,-160.5 187,-181.5 243,-181.5 243,-160.5 187,-160.5"/>
<text text-anchor="middle" x="215" y="-168.5" font-family="FreeSans.ttf" font-size="10.00">setinput</text>
</a>
</g>
<!-- Node1&#45;&gt;Node14 -->
<g id="edge34" class="edge"><title>Node1&#45;&gt;Node14</title>
<path fill="none" stroke="midnightblue" d="M72.2295,-280.216C88.0287,-260.158 124.557,-216.817 164,-191 168.158,-188.279 172.743,-185.835 177.408,-183.669"/>
<polygon fill="midnightblue" stroke="midnightblue" points="179.14,-186.736 186.983,-179.613 176.41,-180.29 179.14,-186.736"/>
</g>
<!-- Node15 -->
<g id="node33" class="node"><title>Node15</title>
<a xlink:href="mjpegDecoder_8cpp.html#a7649928c378f14629232e14f706c65c3" target="_top" xlink:title="yuv400pto422">
<polygon fill="none" stroke="black" points="172.5,-120.5 172.5,-141.5 257.5,-141.5 257.5,-120.5 172.5,-120.5"/>
<text text-anchor="middle" x="215" y="-128.5" font-family="FreeSans.ttf" font-size="10.00">yuv400pto422</text>
</a>
</g>
<!-- Node1&#45;&gt;Node15 -->
<g id="edge36" class="edge"><title>Node1&#45;&gt;Node15</title>
<path fill="none" stroke="midnightblue" d="M68.9347,-280.276C81.3191,-254.467 116.179,-188.278 164,-151 166.175,-149.304 168.512,-147.736 170.946,-146.288"/>
<polygon fill="midnightblue" stroke="midnightblue" points="172.802,-149.269 180.07,-141.56 169.581,-143.054 172.802,-149.269"/>
</g>
<!-- Node16 -->
<g id="node35" class="node"><title>Node16</title>
<a xlink:href="mjpegDecoder_8cpp.html#ae427b03bf2dc4987535c5a842413bb59" target="_top" xlink:title="yuv420pto422">
<polygon fill="none" stroke="black" points="172.5,-80.5 172.5,-101.5 257.5,-101.5 257.5,-80.5 172.5,-80.5"/>
<text text-anchor="middle" x="215" y="-88.5" font-family="FreeSans.ttf" font-size="10.00">yuv420pto422</text>
</a>
</g>
<!-- Node1&#45;&gt;Node16 -->
<g id="edge38" class="edge"><title>Node1&#45;&gt;Node16</title>
<path fill="none" stroke="midnightblue" d="M67.0529,-280.441C76.4028,-249.888 107.497,-160.429 164,-111 165.745,-109.474 167.62,-108.057 169.584,-106.742"/>
<polygon fill="midnightblue" stroke="midnightblue" points="171.667,-109.585 178.644,-101.612 168.218,-103.494 171.667,-109.585"/>
</g>
<!-- Node17 -->
<g id="node37" class="node"><title>Node17</title>
<a xlink:href="mjpegDecoder_8cpp.html#a33e6512c441557cc5523f39ba1e77cc4" target="_top" xlink:title="yuv422pto422">
<polygon fill="none" stroke="black" points="172.5,-40.5 172.5,-61.5 257.5,-61.5 257.5,-40.5 172.5,-40.5"/>
<text text-anchor="middle" x="215" y="-48.5" font-family="FreeSans.ttf" font-size="10.00">yuv422pto422</text>
</a>
</g>
<!-- Node1&#45;&gt;Node17 -->
<g id="edge40" class="edge"><title>Node1&#45;&gt;Node17</title>
<path fill="none" stroke="midnightblue" d="M65.9314,-280.167C72.7456,-245.007 98.8565,-132.785 164,-71 165.626,-69.4579 167.385,-68.0302 169.238,-66.709"/>
<polygon fill="midnightblue" stroke="midnightblue" points="171.054,-69.701 177.85,-61.573 167.469,-63.689 171.054,-69.701"/>
</g>
<!-- Node18 -->
<g id="node39" class="node"><title>Node18</title>
<a xlink:href="mjpegDecoder_8cpp.html#a72dc082526b8197cabb5a1af75cf43ec" target="_top" xlink:title="yuv444pto422">
<polygon fill="none" stroke="black" points="172.5,-0.5 172.5,-21.5 257.5,-21.5 257.5,-0.5 172.5,-0.5"/>
<text text-anchor="middle" x="215" y="-8.5" font-family="FreeSans.ttf" font-size="10.00">yuv444pto422</text>
</a>
</g>
<!-- Node1&#45;&gt;Node18 -->
<g id="edge42" class="edge"><title>Node1&#45;&gt;Node18</title>
<path fill="none" stroke="midnightblue" d="M65.0443,-280.458C69.4246,-241.746 89.6943,-105.794 164,-31 165.408,-29.5831 166.927,-28.2641 168.532,-27.0365"/>
<polygon fill="midnightblue" stroke="midnightblue" points="170.526,-29.9168 177.127,-21.6292 166.799,-23.9917 170.526,-29.9168"/>
</g>
<!-- Node2&#45;&gt;Node3 -->
<g id="edge4" class="edge"><title>Node2&#45;&gt;Node3</title>
<path fill="none" stroke="midnightblue" d="M265.653,-557.496C274.257,-556.221 283.251,-554.889 292.026,-553.589"/>
<polygon fill="midnightblue" stroke="midnightblue" points="292.811,-557.011 302.19,-552.083 291.785,-550.086 292.811,-557.011"/>
</g>
<!-- Node4 -->
<g id="node7" class="node"><title>Node4</title>
<a xlink:href="mjpegDecoder_8cpp.html#a6ab3e694b9bdf6bf8e039a027c2cccad" target="_top" xlink:title="fillbits">
<polygon fill="none" stroke="black" points="434,-534.5 434,-555.5 478,-555.5 478,-534.5 434,-534.5"/>
<text text-anchor="middle" x="456" y="-542.5" font-family="FreeSans.ttf" font-size="10.00">fillbits</text>
</a>
</g>
<!-- Node3&#45;&gt;Node4 -->
<g id="edge6" class="edge"><title>Node3&#45;&gt;Node4</title>
<path fill="none" stroke="midnightblue" d="M397.728,-545C406.516,-545 415.5,-545 423.699,-545"/>
<polygon fill="midnightblue" stroke="midnightblue" points="423.943,-548.5 433.943,-545 423.943,-541.5 423.943,-548.5"/>
</g>
<!-- Node10 -->
<g id="node20" class="node"><title>Node10</title>
<a xlink:href="mjpegDecoder_8cpp.html#ae7f61ac1c86418c3164c0e020e1ea619" target="_top" xlink:title="dec_makehuff">
<polygon fill="none" stroke="black" points="308,-289.5 308,-310.5 392,-310.5 392,-289.5 308,-289.5"/>
<text text-anchor="middle" x="350" y="-297.5" font-family="FreeSans.ttf" font-size="10.00">dec_makehuff</text>
</a>
</g>
<!-- Node9&#45;&gt;Node10 -->
<g id="edge20" class="edge"><title>Node9&#45;&gt;Node10</title>
<path fill="none" stroke="midnightblue" d="M253.324,-293.555C267.132,-294.475 282.956,-295.53 297.749,-296.517"/>
<polygon fill="midnightblue" stroke="midnightblue" points="297.578,-300.013 307.788,-297.186 298.043,-293.028 297.578,-300.013"/>
</g>
<!-- Node13&#45;&gt;Node7 -->
<g id="edge30" class="edge"><title>Node13&#45;&gt;Node7</title>
<path fill="none" stroke="midnightblue" d="M239.135,-341.548C260.599,-350.928 292.207,-364.742 316.188,-375.223"/>
<polygon fill="midnightblue" stroke="midnightblue" points="315.054,-378.547 325.618,-379.344 317.857,-372.133 315.054,-378.547"/>
</g>
<!-- Node13&#45;&gt;Node8 -->
<g id="edge32" class="edge"><title>Node13&#45;&gt;Node8</title>
<path fill="none" stroke="midnightblue" d="M249.066,-333.271C268.267,-334.551 292.297,-336.153 312.093,-337.473"/>
<polygon fill="midnightblue" stroke="midnightblue" points="312.093,-340.981 322.304,-338.154 312.559,-333.996 312.093,-340.981"/>
</g>
<!-- Node13&#45;&gt;Node10 -->
<g id="edge28" class="edge"><title>Node13&#45;&gt;Node10</title>
<path fill="none" stroke="midnightblue" d="M249.066,-323.177C263.814,-319.791 281.412,-315.75 297.751,-311.998"/>
<polygon fill="midnightblue" stroke="midnightblue" points="298.762,-315.357 307.725,-309.708 297.195,-308.535 298.762,-315.357"/>
</g>
</g>
</svg>
        <g id="navigator" transform="translate(0 0)" fill="#404254">
                <rect fill="#f2f5e9" fill-opacity="0.5" stroke="#606060" stroke-width=".5" x="0" y="0" width="60" height="60"/>
                <use id="zoomplus" xlink:href="#zoomPlus" x="17" y="9" onmousedown="handleZoom(evt,'in')"/>
                <use id="zoomminus" xlink:href="#zoomMin" x="42" y="9" onmousedown="handleZoom(evt,'out')"/>
                <use id="reset" xlink:href="#resetDef" x="30" y="36" onmousedown="handleReset()"/>
                <g id="arrowUp" xlink:href="#dirArrow" transform="translate(30 24)" onmousedown="handlePan(0,-1)">
                  <use xlink:href="#rim" fill="#404040">
                        <set attributeName="fill" to="#808080" begin="arrowUp.mouseover" end="arrowUp.mouseout"/>
                  </use>
                  <path fill="none" stroke="white" stroke-width="1.5" d="M0,-3.0v7 M-2.5,-0.5L0,-3.0L2.5,-0.5"/>
                </g>
                <g id="arrowRight" xlink:href="#dirArrow" transform="rotate(90) translate(36 -43)" onmousedown="handlePan(1,0)">
                  <use xlink:href="#rim" fill="#404040">
                        <set attributeName="fill" to="#808080" begin="arrowRight.mouseover" end="arrowRight.mouseout"/>
                  </use>
                  <path fill="none" stroke="white" stroke-width="1.5" d="M0,-3.0v7 M-2.5,-0.5L0,-3.0L2.5,-0.5"/>
                </g>
                <g id="arrowDown" xlink:href="#dirArrow" transform="rotate(180) translate(-30 -48)" onmousedown="handlePan(0,1)">
                  <use xlink:href="#rim" fill="#404040">
                        <set attributeName="fill" to="#808080" begin="arrowDown.mouseover" end="arrowDown.mouseout"/>
                  </use>
                  <path fill="none" stroke="white" stroke-width="1.5" d="M0,-3.0v7 M-2.5,-0.5L0,-3.0L2.5,-0.5"/>
                </g>
                <g id="arrowLeft" xlink:href="#dirArrow" transform="rotate(270) translate(-36 17)" onmousedown="handlePan(-1,0)">
                  <use xlink:href="#rim" fill="#404040">
                        <set attributeName="fill" to="#808080" begin="arrowLeft.mouseover" end="arrowLeft.mouseout"/>
                  </use>
                  <path fill="none" stroke="white" stroke-width="1.5" d="M0,-3.0v7 M-2.5,-0.5L0,-3.0L2.5,-0.5"/>
                </g>
        </g>
</svg>
