<?xml version="1.0" encoding="UTF-8" standalone="no"?>
<!DOCTYPE svg PUBLIC "-//W3C//DTD SVG 1.1//EN"
 "http://www.w3.org/Graphics/SVG/1.1/DTD/svg11.dtd">
<!-- Generated by graphviz version 2.26.3 (20100126.1600)
 -->
<!-- Title: G Pages: 1 -->
<svg width="488pt" height="70pt"
 viewBox="0.00 0.00 488.00 70.00" xmlns="http://www.w3.org/2000/svg" xmlns:xlink="http://www.w3.org/1999/xlink">
<g id="graph1" class="graph" transform="scale(1 1) rotate(0) translate(4 66)">
<title>G</title>
<!-- Node1 -->
<g id="node1" class="node"><title>Node1</title>
<polygon fill="#bfbfbf" stroke="black" points="0,-20.5 0,-41.5 210,-41.5 210,-20.5 0,-20.5"/>
<text text-anchor="middle" x="105" y="-28.5" font-family="FreeSans.ttf" font-size="10.00">corecvs::MeanShiftWindow::moveWindow</text>
</g>
<!-- Node2 -->
<g id="node3" class="node"><title>Node2</title>
<a xlink:href="classcorecvs_1_1AbstractMeanShiftKernel.html#ac6f0bfe696509f57a8a97196861c6995" target="_top" xlink:title="corecvs::AbstractMeanShiftKernel::setWindow">
<polygon fill="none" stroke="black" points="246.5,-40.5 246.5,-61.5 479.5,-61.5 479.5,-40.5 246.5,-40.5"/>
<text text-anchor="middle" x="363" y="-48.5" font-family="FreeSans.ttf" font-size="10.00">corecvs::AbstractMeanShiftKernel::setWindow</text>
</a>
</g>
<!-- Node1&#45;&gt;Node2 -->
<g id="edge2" class="edge"><title>Node1&#45;&gt;Node2</title>
<path fill="none" stroke="midnightblue" d="M210.311,-39.1636C218.823,-39.8235 227.478,-40.4944 236.121,-41.1644"/>
<polygon fill="midnightblue" stroke="midnightblue" points="236.01,-44.6662 246.251,-41.9497 236.551,-37.6872 236.01,-44.6662"/>
</g>
<!-- Node3 -->
<g id="node5" class="node"><title>Node3</title>
<a xlink:href="classcorecvs_1_1AbstractMeanShiftKernel.html#acf467df1ef9bc07364538fe233534716" target="_top" xlink:title="corecvs::AbstractMeanShiftKernel::value">
<polygon fill="none" stroke="black" points="258.5,-0.5 258.5,-21.5 467.5,-21.5 467.5,-0.5 258.5,-0.5"/>
<text text-anchor="middle" x="363" y="-8.5" font-family="FreeSans.ttf" font-size="10.00">corecvs::AbstractMeanShiftKernel::value</text>
</a>
</g>
<!-- Node1&#45;&gt;Node3 -->
<g id="edge4" class="edge"><title>Node1&#45;&gt;Node3</title>
<path fill="none" stroke="midnightblue" d="M210.311,-22.8364C222.844,-21.8648 235.687,-20.8692 248.343,-19.8881"/>
<polygon fill="midnightblue" stroke="midnightblue" points="248.744,-23.3676 258.444,-19.1051 248.203,-16.3886 248.744,-23.3676"/>
</g>
</g>
</svg>
