<?xml version="1.0" encoding="UTF-8" standalone="no"?>
<!DOCTYPE svg PUBLIC "-//W3C//DTD SVG 1.1//EN"
 "http://www.w3.org/Graphics/SVG/1.1/DTD/svg11.dtd">
<!-- Generated by graphviz version 2.26.3 (20100126.1600)
 -->
<!-- Title: G Pages: 1 -->
<svg width="434pt" height="110pt"
 viewBox="0.00 0.00 434.00 110.00" xmlns="http://www.w3.org/2000/svg" xmlns:xlink="http://www.w3.org/1999/xlink">
<g id="graph1" class="graph" transform="scale(1 1) rotate(0) translate(4 106)">
<title>G</title>
<!-- Node1 -->
<g id="node1" class="node"><title>Node1</title>
<polygon fill="#bfbfbf" stroke="black" points="0.5,-40.5 0.5,-61.5 209.5,-61.5 209.5,-40.5 0.5,-40.5"/>
<text text-anchor="middle" x="105" y="-48.5" font-family="FreeSans.ttf" font-size="10.00">FilterBlockPresentation::drawBlockName</text>
</g>
<!-- Node2 -->
<g id="node3" class="node"><title>Node2</title>
<a xlink:href="classDiagramScene.html#a73367ec3d54a2a01c927b8f9432e3d45" target="_top" xlink:title="DiagramScene::font">
<polygon fill="none" stroke="black" points="279.5,-80.5 279.5,-101.5 392.5,-101.5 392.5,-80.5 279.5,-80.5"/>
<text text-anchor="middle" x="336" y="-88.5" font-family="FreeSans.ttf" font-size="10.00">DiagramScene::font</text>
</a>
</g>
<!-- Node1&#45;&gt;Node2 -->
<g id="edge2" class="edge"><title>Node1&#45;&gt;Node2</title>
<path fill="none" stroke="midnightblue" d="M165.693,-61.5095C197.553,-67.0265 236.657,-73.7977 269.356,-79.4599"/>
<polygon fill="midnightblue" stroke="midnightblue" points="268.832,-82.9213 279.283,-81.1789 270.027,-76.0239 268.832,-82.9213"/>
</g>
<!-- Node3 -->
<g id="node5" class="node"><title>Node3</title>
<a xlink:href="classcorecvs_1_1FilterBlock.html#ad92b1d273b91fd68b9b9b84d5f818df8" target="_top" xlink:title="corecvs::FilterBlock::getTypeName">
<polygon fill="none" stroke="black" points="246.5,-40.5 246.5,-61.5 425.5,-61.5 425.5,-40.5 246.5,-40.5"/>
<text text-anchor="middle" x="336" y="-48.5" font-family="FreeSans.ttf" font-size="10.00">corecvs::FilterBlock::getTypeName</text>
</a>
</g>
<!-- Node1&#45;&gt;Node3 -->
<g id="edge4" class="edge"><title>Node1&#45;&gt;Node3</title>
<path fill="none" stroke="midnightblue" d="M209.686,-51C218.438,-51 227.273,-51 235.988,-51"/>
<polygon fill="midnightblue" stroke="midnightblue" points="236.152,-54.5001 246.152,-51 236.152,-47.5001 236.152,-54.5001"/>
</g>
<!-- Node4 -->
<g id="node7" class="node"><title>Node4</title>
<a xlink:href="classDiagramScene.html#a09373ee7015d49ce7ccd3cd9983193a7" target="_top" xlink:title="DiagramScene::textColor">
<polygon fill="none" stroke="black" points="267.5,-0.5 267.5,-21.5 404.5,-21.5 404.5,-0.5 267.5,-0.5"/>
<text text-anchor="middle" x="336" y="-8.5" font-family="FreeSans.ttf" font-size="10.00">DiagramScene::textColor</text>
</a>
</g>
<!-- Node1&#45;&gt;Node4 -->
<g id="edge6" class="edge"><title>Node1&#45;&gt;Node4</title>
<path fill="none" stroke="midnightblue" d="M165.693,-40.4905C196.209,-35.2062 233.372,-28.7711 265.186,-23.2622"/>
<polygon fill="midnightblue" stroke="midnightblue" points="266.056,-26.6637 275.312,-21.5087 264.862,-19.7663 266.056,-26.6637"/>
</g>
</g>
</svg>
