<?xml version="1.0" encoding="UTF-8" standalone="no"?>
<!DOCTYPE svg PUBLIC "-//W3C//DTD SVG 1.1//EN"
 "http://www.w3.org/Graphics/SVG/1.1/DTD/svg11.dtd">
<!-- Generated by graphviz version 2.26.3 (20100126.1600)
 -->
<!-- Title: G Pages: 1 -->
<!--zoomable 320 -->
<svg id="main" version="1.1" xmlns="http://www.w3.org/2000/svg" xmlns:xlink="http://www.w3.org/1999/xlink" xml:space="preserve" onload="init(evt)">
        <defs>
                <circle id="rim" cx="0" cy="0" r="7"/>
                <circle id="rim2" cx="0" cy="0" r="3.5"/>
                <g id="zoomPlus">
                        <use xlink:href="#rim" fill="#404040">
                                <set attributeName="fill" to="#808080" begin="zoomplus.mouseover" end="zoomplus.mouseout"/>
                        </use>
                        <path d="M-4,0h8M0,-4v8" fill="none" stroke="white" stroke-width="1.5" pointer-events="none"/>
                </g>
                <g id="zoomMin">
                        <use xlink:href="#rim" fill="#404040">
                                <set attributeName="fill" to="#808080" begin="zoomminus.mouseover" end="zoomminus.mouseout"/>
                        </use>
                        <path d="M-4,0h8" fill="none" stroke="white" stroke-width="1.5" pointer-events="none"/>
                </g>
                <g id="dirArrow">
                        <path fill="none" stroke="white" stroke-width="1.5" d="M0,-3.0v7 M-2.5,-0.5L0,-3.0L2.5,-0.5"/>
                </g>
               <g id="resetDef">
                       <use xlink:href="#rim2" fill="#404040">
                               <set attributeName="fill" to="#808080" begin="reset.mouseover" end="reset.mouseout"/>
                       </use>
               </g>
        </defs>

<script type="text/javascript">
var viewWidth = 664;
var viewHeight = 320;
var sectionId = 'dynsection-0';
</script>
<script xlink:href="svgpan.js"/>
<svg id="graph" class="graph">
<g id="viewport">
<title>G</title>
<!-- Node1 -->
<g id="node1" class="node"><title>Node1</title>
<polygon fill="#bfbfbf" stroke="black" points="242,-286.5 242,-307.5 424,-307.5 424,-286.5 242,-286.5"/>
<text text-anchor="middle" x="333" y="-294.5" font-family="FreeSans.ttf" font-size="10.00">UEyeCaptureInterface::SpinThread</text>
</g>
<!-- Node2 -->
<g id="node2" class="node"><title>Node2</title>
<a xlink:href="classUEyeCaptureInterface.html" target="_top" xlink:title="UEyeCaptureInterface">
<polygon fill="none" stroke="black" points="534,-197.5 534,-218.5 656,-218.5 656,-197.5 534,-197.5"/>
<text text-anchor="middle" x="595" y="-205.5" font-family="FreeSans.ttf" font-size="10.00">UEyeCaptureInterface</text>
</a>
</g>
<!-- Node1&#45;&gt;Node2 -->
<g id="edge22" class="edge"><title>Node1&#45;&gt;Node2</title>
<path fill="none" stroke="#9a32cd" stroke-dasharray="5,2" d="M434.366,-299.917C461.774,-297.594 490.805,-292.148 516,-281 547.593,-267.021 574.781,-235.123 587.431,-218.505"/>
<polygon fill="#9a32cd" stroke="#9a32cd" points="434.075,-296.429 424.351,-300.637 434.577,-303.411 434.075,-296.429"/>
<text text-anchor="middle" x="479" y="-303" font-family="FreeSans.ttf" font-size="10.00"> spin</text>
</g>
<!-- Node2&#45;&gt;Node1 -->
<g id="edge2" class="edge"><title>Node2&#45;&gt;Node1</title>
<path fill="none" stroke="#9a32cd" stroke-dasharray="5,2" d="M562.109,-222.593C548.033,-228.616 531.336,-235.466 516,-241 466.621,-258.819 408.486,-275.974 371.212,-286.498"/>
<polygon fill="#9a32cd" stroke="#9a32cd" points="563.597,-225.764 571.387,-218.583 560.819,-219.338 563.597,-225.764"/>
<text text-anchor="middle" x="479" y="-268" font-family="FreeSans.ttf" font-size="10.00"> capInterface</text>
</g>
<!-- Node3 -->
<g id="node4" class="node"><title>Node3</title>
<a xlink:href="classImageCaptureInterface.html" target="_top" xlink:title="ImageCaptureInterface">
<polygon fill="none" stroke="black" points="269.5,-237.5 269.5,-258.5 396.5,-258.5 396.5,-237.5 269.5,-237.5"/>
<text text-anchor="middle" x="333" y="-245.5" font-family="FreeSans.ttf" font-size="10.00">ImageCaptureInterface</text>
</a>
</g>
<!-- Node3&#45;&gt;Node2 -->
<g id="edge4" class="edge"><title>Node3&#45;&gt;Node2</title>
<path fill="none" stroke="midnightblue" d="M406.742,-238.109C440.141,-233.479 480.102,-227.729 516,-222 522.74,-220.924 529.794,-219.748 536.795,-218.548"/>
<polygon fill="midnightblue" stroke="midnightblue" points="406.027,-234.675 396.599,-239.509 406.984,-241.609 406.027,-234.675"/>
</g>
<!-- Node4 -->
<g id="node6" class="node"><title>Node4</title>
<a xlink:href="classcorecvs_1_1PreciseTimer.html" target="_top" xlink:title="corecvs::PreciseTimer">
<polygon fill="none" stroke="black" points="272.5,-197.5 272.5,-218.5 393.5,-218.5 393.5,-197.5 272.5,-197.5"/>
<text text-anchor="middle" x="333" y="-205.5" font-family="FreeSans.ttf" font-size="10.00">corecvs::PreciseTimer</text>
</a>
</g>
<!-- Node4&#45;&gt;Node2 -->
<g id="edge6" class="edge"><title>Node4&#45;&gt;Node2</title>
<path fill="none" stroke="#9a32cd" stroke-dasharray="5,2" d="M403.854,-208C444.414,-208 494.799,-208 533.655,-208"/>
<polygon fill="#9a32cd" stroke="#9a32cd" points="403.767,-204.5 393.767,-208 403.767,-211.5 403.767,-204.5"/>
<text text-anchor="middle" x="479" y="-212" font-family="FreeSans.ttf" font-size="10.00"> lastFrameTime</text>
</g>
<!-- Node5 -->
<g id="node8" class="node"><title>Node5</title>
<a xlink:href="classBufferDescriptorType.html" target="_top" xlink:title="BufferDescriptorType">
<polygon fill="none" stroke="black" points="11,-130.5 11,-151.5 127,-151.5 127,-130.5 11,-130.5"/>
<text text-anchor="middle" x="69" y="-138.5" font-family="FreeSans.ttf" font-size="10.00">BufferDescriptorType</text>
</a>
</g>
<!-- Node5&#45;&gt;Node2 -->
<g id="edge8" class="edge"><title>Node5&#45;&gt;Node2</title>
<path fill="none" stroke="#9a32cd" stroke-dasharray="5,2" d="M137.466,-140.932C209.293,-141.819 325.255,-145.97 424,-162 473.615,-170.054 529.606,-186.584 563.59,-197.478"/>
<polygon fill="#9a32cd" stroke="#9a32cd" points="137.233,-137.429 127.197,-140.823 137.159,-144.429 137.233,-137.429"/>
<text text-anchor="middle" x="333" y="-179" font-family="FreeSans.ttf" font-size="10.00"> currentRight</text>
<text text-anchor="middle" x="333" y="-166" font-family="FreeSans.ttf" font-size="10.00">currentLeft</text>
</g>
<!-- Node6 -->
<g id="node10" class="node"><title>Node6</title>
<a xlink:href="classUEyeCameraDescriptor.html" target="_top" xlink:title="UEyeCameraDescriptor">
<polygon fill="none" stroke="black" points="268.5,-86.5 268.5,-107.5 397.5,-107.5 397.5,-86.5 268.5,-86.5"/>
<text text-anchor="middle" x="333" y="-94.5" font-family="FreeSans.ttf" font-size="10.00">UEyeCameraDescriptor</text>
</a>
</g>
<!-- Node5&#45;&gt;Node6 -->
<g id="edge12" class="edge"><title>Node5&#45;&gt;Node6</title>
<path fill="none" stroke="#9a32cd" stroke-dasharray="5,2" d="M137.055,-129.21C143.457,-128.118 149.85,-127.034 156,-126 193.157,-119.753 234.731,-112.933 268.246,-107.477"/>
<polygon fill="#9a32cd" stroke="#9a32cd" points="136.284,-125.791 127.018,-130.928 137.465,-132.691 136.284,-125.791"/>
<text text-anchor="middle" x="190" y="-130" font-family="FreeSans.ttf" font-size="10.00"> images</text>
</g>
<!-- Node6&#45;&gt;Node2 -->
<g id="edge10" class="edge"><title>Node6&#45;&gt;Node2</title>
<path fill="none" stroke="#9a32cd" stroke-dasharray="5,2" d="M407.881,-90.7306C442.544,-90.9489 483.21,-95.8394 516,-113 552.87,-132.296 579.227,-176.903 589.831,-197.378"/>
<polygon fill="#9a32cd" stroke="#9a32cd" points="407.782,-87.2311 397.805,-90.7952 407.827,-94.2309 407.782,-87.2311"/>
<text text-anchor="middle" x="479" y="-130" font-family="FreeSans.ttf" font-size="10.00"> leftCamera</text>
<text text-anchor="middle" x="479" y="-117" font-family="FreeSans.ttf" font-size="10.00">rightCamera</text>
</g>
<!-- Node7 -->
<g id="node13" class="node"><title>Node7</title>
<a xlink:href="structsBufferProps.html" target="_top" xlink:title="sBufferProps">
<polygon fill="none" stroke="black" points="30.5,-80.5 30.5,-101.5 107.5,-101.5 107.5,-80.5 30.5,-80.5"/>
<text text-anchor="middle" x="69" y="-88.5" font-family="FreeSans.ttf" font-size="10.00">sBufferProps</text>
</a>
</g>
<!-- Node7&#45;&gt;Node6 -->
<g id="edge14" class="edge"><title>Node7&#45;&gt;Node6</title>
<path fill="none" stroke="#9a32cd" stroke-dasharray="5,2" d="M117.759,-90.3409C130.226,-90.1995 143.609,-90.0712 156,-90 186.222,-89.8263 193.793,-89.0311 224,-90 238.404,-90.462 253.863,-91.2667 268.48,-92.1698"/>
<polygon fill="#9a32cd" stroke="#9a32cd" points="117.502,-86.8436 107.544,-90.4618 117.585,-93.8431 117.502,-86.8436"/>
<text text-anchor="middle" x="190" y="-94" font-family="FreeSans.ttf" font-size="10.00"> bufferProps</text>
</g>
<!-- Node8 -->
<g id="node15" class="node"><title>Node8</title>
<a xlink:href="structsCameraProps.html" target="_top" xlink:title="sCameraProps">
<polygon fill="none" stroke="black" points="25.5,-40.5 25.5,-61.5 112.5,-61.5 112.5,-40.5 25.5,-40.5"/>
<text text-anchor="middle" x="69" y="-48.5" font-family="FreeSans.ttf" font-size="10.00">sCameraProps</text>
</a>
</g>
<!-- Node8&#45;&gt;Node6 -->
<g id="edge16" class="edge"><title>Node8&#45;&gt;Node6</title>
<path fill="none" stroke="#9a32cd" stroke-dasharray="5,2" d="M122.822,-57.0728C152.725,-60.7523 190.542,-65.9095 224,-72 246.348,-76.0681 271.036,-81.6397 291.258,-86.4907"/>
<polygon fill="#9a32cd" stroke="#9a32cd" points="122.943,-53.562 112.594,-55.8339 122.101,-60.5112 122.943,-53.562"/>
<text text-anchor="middle" x="190" y="-76" font-family="FreeSans.ttf" font-size="10.00"> cameraProps</text>
</g>
<!-- Node9 -->
<g id="node17" class="node"><title>Node9</title>
<a xlink:title="STL class.">
<polygon fill="none" stroke="#bfbfbf" points="300.5,-27.5 300.5,-48.5 365.5,-48.5 365.5,-27.5 300.5,-27.5"/>
<text text-anchor="middle" x="333" y="-35.5" font-family="FreeSans.ttf" font-size="10.00">std::string</text>
</a>
</g>
<!-- Node9&#45;&gt;Node2 -->
<g id="edge18" class="edge"><title>Node9&#45;&gt;Node2</title>
<path fill="none" stroke="#9a32cd" stroke-dasharray="5,2" d="M375.686,-37.1186C415.44,-38.3507 474.627,-45.6406 516,-75 560.462,-106.551 584.085,-171.694 591.961,-197.315"/>
<polygon fill="#9a32cd" stroke="#9a32cd" points="375.587,-33.6162 365.521,-36.922 375.452,-40.6148 375.587,-33.6162"/>
<text text-anchor="middle" x="479" y="-79" font-family="FreeSans.ttf" font-size="10.00"> devname</text>
</g>
<!-- Node10 -->
<g id="node19" class="node"><title>Node10</title>
<a xlink:title="STL class.">
<polygon fill="none" stroke="#bfbfbf" points="0,-0.5 0,-21.5 138,-21.5 138,-0.5 0,-0.5"/>
<text text-anchor="middle" x="69" y="-8.5" font-family="FreeSans.ttf" font-size="10.00">std::basic_string&lt; char &gt;</text>
</a>
</g>
<!-- Node10&#45;&gt;Node9 -->
<g id="edge20" class="edge"><title>Node10&#45;&gt;Node9</title>
<path fill="none" stroke="midnightblue" d="M148.035,-19.0831C199.017,-24.2972 262.637,-30.8038 300.421,-34.6681"/>
<polygon fill="midnightblue" stroke="midnightblue" points="148.322,-15.5943 138.018,-18.0587 147.61,-22.558 148.322,-15.5943"/>
</g>
</g>
</svg>
        <g id="navigator" transform="translate(0 0)" fill="#404254">
                <rect fill="#f2f5e9" fill-opacity="0.5" stroke="#606060" stroke-width=".5" x="0" y="0" width="60" height="60"/>
                <use id="zoomplus" xlink:href="#zoomPlus" x="17" y="9" onmousedown="handleZoom(evt,'in')"/>
                <use id="zoomminus" xlink:href="#zoomMin" x="42" y="9" onmousedown="handleZoom(evt,'out')"/>
                <use id="reset" xlink:href="#resetDef" x="30" y="36" onmousedown="handleReset()"/>
                <g id="arrowUp" xlink:href="#dirArrow" transform="translate(30 24)" onmousedown="handlePan(0,-1)">
                  <use xlink:href="#rim" fill="#404040">
                        <set attributeName="fill" to="#808080" begin="arrowUp.mouseover" end="arrowUp.mouseout"/>
                  </use>
                  <path fill="none" stroke="white" stroke-width="1.5" d="M0,-3.0v7 M-2.5,-0.5L0,-3.0L2.5,-0.5"/>
                </g>
                <g id="arrowRight" xlink:href="#dirArrow" transform="rotate(90) translate(36 -43)" onmousedown="handlePan(1,0)">
                  <use xlink:href="#rim" fill="#404040">
                        <set attributeName="fill" to="#808080" begin="arrowRight.mouseover" end="arrowRight.mouseout"/>
                  </use>
                  <path fill="none" stroke="white" stroke-width="1.5" d="M0,-3.0v7 M-2.5,-0.5L0,-3.0L2.5,-0.5"/>
                </g>
                <g id="arrowDown" xlink:href="#dirArrow" transform="rotate(180) translate(-30 -48)" onmousedown="handlePan(0,1)">
                  <use xlink:href="#rim" fill="#404040">
                        <set attributeName="fill" to="#808080" begin="arrowDown.mouseover" end="arrowDown.mouseout"/>
                  </use>
                  <path fill="none" stroke="white" stroke-width="1.5" d="M0,-3.0v7 M-2.5,-0.5L0,-3.0L2.5,-0.5"/>
                </g>
                <g id="arrowLeft" xlink:href="#dirArrow" transform="rotate(270) translate(-36 17)" onmousedown="handlePan(-1,0)">
                  <use xlink:href="#rim" fill="#404040">
                        <set attributeName="fill" to="#808080" begin="arrowLeft.mouseover" end="arrowLeft.mouseout"/>
                  </use>
                  <path fill="none" stroke="white" stroke-width="1.5" d="M0,-3.0v7 M-2.5,-0.5L0,-3.0L2.5,-0.5"/>
                </g>
        </g>
</svg>
