<?xml version="1.0" encoding="UTF-8" standalone="no"?>
<!DOCTYPE svg PUBLIC "-//W3C//DTD SVG 1.1//EN"
 "http://www.w3.org/Graphics/SVG/1.1/DTD/svg11.dtd">
<!-- Generated by graphviz version 2.26.3 (20100126.1600)
 -->
<!-- Title: G Pages: 1 -->
<svg width="494pt" height="70pt"
 viewBox="0.00 0.00 494.00 70.00" xmlns="http://www.w3.org/2000/svg" xmlns:xlink="http://www.w3.org/1999/xlink">
<g id="graph1" class="graph" transform="scale(1 1) rotate(0) translate(4 66)">
<title>G</title>
<!-- Node1 -->
<g id="node1" class="node"><title>Node1</title>
<polygon fill="#bfbfbf" stroke="black" points="0,-20.5 0,-41.5 290,-41.5 290,-20.5 0,-20.5"/>
<text text-anchor="middle" x="145" y="-28.5" font-family="FreeSans.ttf" font-size="10.00">corecvs::BufferConverter::ParallelProcessAlign::operator()</text>
</g>
<!-- Node2 -->
<g id="node3" class="node"><title>Node2</title>
<a xlink:href="classcorecvs_1_1BlockedRange.html#a6afc35b5d0d32070559723d5bb0a4f73" target="_top" xlink:title="corecvs::BlockedRange::begin">
<polygon fill="none" stroke="black" points="326.5,-40.5 326.5,-61.5 485.5,-61.5 485.5,-40.5 326.5,-40.5"/>
<text text-anchor="middle" x="406" y="-48.5" font-family="FreeSans.ttf" font-size="10.00">corecvs::BlockedRange::begin</text>
</a>
</g>
<!-- Node1&#45;&gt;Node2 -->
<g id="edge2" class="edge"><title>Node1&#45;&gt;Node2</title>
<path fill="none" stroke="midnightblue" d="M282.379,-41.5271C293.733,-42.3972 305.018,-43.2619 315.887,-44.0948"/>
<polygon fill="midnightblue" stroke="midnightblue" points="315.932,-47.6084 326.17,-44.8828 316.467,-40.6289 315.932,-47.6084"/>
</g>
<!-- Node3 -->
<g id="node5" class="node"><title>Node3</title>
<a xlink:href="classcorecvs_1_1BlockedRange.html#a6f7301fc298a428dde190df3e30551f7" target="_top" xlink:title="corecvs::BlockedRange::end">
<polygon fill="none" stroke="black" points="330.5,-0.5 330.5,-21.5 481.5,-21.5 481.5,-0.5 330.5,-0.5"/>
<text text-anchor="middle" x="406" y="-8.5" font-family="FreeSans.ttf" font-size="10.00">corecvs::BlockedRange::end</text>
</a>
</g>
<!-- Node1&#45;&gt;Node3 -->
<g id="edge4" class="edge"><title>Node1&#45;&gt;Node3</title>
<path fill="none" stroke="midnightblue" d="M282.379,-20.4729C295.236,-19.4877 308.003,-18.5094 320.18,-17.5763"/>
<polygon fill="midnightblue" stroke="midnightblue" points="320.555,-21.0578 330.259,-16.8039 320.021,-14.0783 320.555,-21.0578"/>
</g>
</g>
</svg>
