<?xml version="1.0" encoding="UTF-8" standalone="no"?>
<!DOCTYPE svg PUBLIC "-//W3C//DTD SVG 1.1//EN"
 "http://www.w3.org/Graphics/SVG/1.1/DTD/svg11.dtd">
<!-- Generated by graphviz version 2.26.3 (20100126.1600)
 -->
<!-- Title: G Pages: 1 -->
<!--zoomable 748 -->
<svg id="main" version="1.1" xmlns="http://www.w3.org/2000/svg" xmlns:xlink="http://www.w3.org/1999/xlink" xml:space="preserve" onload="init(evt)">
        <defs>
                <circle id="rim" cx="0" cy="0" r="7"/>
                <circle id="rim2" cx="0" cy="0" r="3.5"/>
                <g id="zoomPlus">
                        <use xlink:href="#rim" fill="#404040">
                                <set attributeName="fill" to="#808080" begin="zoomplus.mouseover" end="zoomplus.mouseout"/>
                        </use>
                        <path d="M-4,0h8M0,-4v8" fill="none" stroke="white" stroke-width="1.5" pointer-events="none"/>
                </g>
                <g id="zoomMin">
                        <use xlink:href="#rim" fill="#404040">
                                <set attributeName="fill" to="#808080" begin="zoomminus.mouseover" end="zoomminus.mouseout"/>
                        </use>
                        <path d="M-4,0h8" fill="none" stroke="white" stroke-width="1.5" pointer-events="none"/>
                </g>
                <g id="dirArrow">
                        <path fill="none" stroke="white" stroke-width="1.5" d="M0,-3.0v7 M-2.5,-0.5L0,-3.0L2.5,-0.5"/>
                </g>
               <g id="resetDef">
                       <use xlink:href="#rim2" fill="#404040">
                               <set attributeName="fill" to="#808080" begin="reset.mouseover" end="reset.mouseout"/>
                       </use>
               </g>
        </defs>

<script type="text/javascript">
var viewWidth = 974;
var viewHeight = 748;
var sectionId = 'dynsection-2';
</script>
<script xlink:href="svgpan.js"/>
<svg id="graph" class="graph">
<g id="viewport">
<title>G</title>
<!-- Node1 -->
<g id="node1" class="node"><title>Node1</title>
<polygon fill="#bfbfbf" stroke="black" points="0,-360.5 0,-381.5 200,-381.5 200,-360.5 0,-360.5"/>
<text text-anchor="middle" x="100" y="-368.5" font-family="FreeSans.ttf" font-size="10.00">CapSettingsDialog::CapSettingsDialog</text>
</g>
<!-- Node2 -->
<g id="node3" class="node"><title>Node2</title>
<a xlink:href="classCapSettingsDialog.html#a3fa457c688f1949d60887b2d999aed4c" target="_top" xlink:title="CapSettingsDialog::refreshDialog">
<polygon fill="none" stroke="black" points="236.5,-360.5 236.5,-381.5 411.5,-381.5 411.5,-360.5 236.5,-360.5"/>
<text text-anchor="middle" x="324" y="-368.5" font-family="FreeSans.ttf" font-size="10.00">CapSettingsDialog::refreshDialog</text>
</a>
</g>
<!-- Node1&#45;&gt;Node2 -->
<g id="edge2" class="edge"><title>Node1&#45;&gt;Node2</title>
<path fill="none" stroke="midnightblue" d="M200.207,-371C208.831,-371 217.549,-371 226.153,-371"/>
<polygon fill="midnightblue" stroke="midnightblue" points="226.19,-374.5 236.19,-371 226.19,-367.5 226.19,-374.5"/>
</g>
<!-- Node3 -->
<g id="node5" class="node"><title>Node3</title>
<a xlink:href="classImageCaptureInterface.html#a9467a742cfcddc805679e239b65d3ddf" target="_top" xlink:title="Check if a specific property can be set/read and what values it can take.">
<polygon fill="none" stroke="black" points="448,-718.5 448,-739.5 702,-739.5 702,-718.5 448,-718.5"/>
<text text-anchor="middle" x="575" y="-726.5" font-family="FreeSans.ttf" font-size="10.00">ImageCaptureInterface::queryCameraParameters</text>
</a>
</g>
<!-- Node2&#45;&gt;Node3 -->
<g id="edge4" class="edge"><title>Node2&#45;&gt;Node3</title>
<path fill="none" stroke="midnightblue" d="M324.269,-381.672C326.077,-428.858 340.053,-620.326 448,-709 449.822,-710.496 451.709,-711.904 453.654,-713.226"/>
<polygon fill="midnightblue" stroke="midnightblue" points="452.138,-716.397 462.523,-718.497 455.715,-710.379 452.138,-716.397"/>
</g>
<!-- Node4 -->
<g id="node7" class="node"><title>Node4</title>
<a xlink:href="classCaptureParameter.html#a78517c84a35419cd0840911c7229bf67" target="_top" xlink:title="CaptureParameter::active">
<polygon fill="none" stroke="black" points="505,-678.5 505,-699.5 645,-699.5 645,-678.5 505,-678.5"/>
<text text-anchor="middle" x="575" y="-686.5" font-family="FreeSans.ttf" font-size="10.00">CaptureParameter::active</text>
</a>
</g>
<!-- Node2&#45;&gt;Node4 -->
<g id="edge6" class="edge"><title>Node2&#45;&gt;Node4</title>
<path fill="none" stroke="midnightblue" d="M324.833,-381.598C328.872,-425.23 350.43,-592.28 448,-669 461.42,-679.553 478.159,-685.585 495.034,-688.856"/>
<polygon fill="midnightblue" stroke="midnightblue" points="494.529,-692.32 504.962,-690.476 495.656,-685.411 494.529,-692.32"/>
</g>
<!-- Node5 -->
<g id="node9" class="node"><title>Node5</title>
<a xlink:href="classCaptureParameter.html#ad4d13b6b6bc4ab5b8ad1dd406a5bfced" target="_top" xlink:title="CaptureParameter::isMenu">
<polygon fill="none" stroke="black" points="502.5,-638.5 502.5,-659.5 647.5,-659.5 647.5,-638.5 502.5,-638.5"/>
<text text-anchor="middle" x="575" y="-646.5" font-family="FreeSans.ttf" font-size="10.00">CaptureParameter::isMenu</text>
</a>
</g>
<!-- Node2&#45;&gt;Node5 -->
<g id="edge8" class="edge"><title>Node2&#45;&gt;Node5</title>
<path fill="none" stroke="midnightblue" d="M325.549,-381.54C332.01,-421.414 360.67,-564.049 448,-629 460.904,-638.597 476.603,-644.376 492.503,-647.726"/>
<polygon fill="midnightblue" stroke="midnightblue" points="491.943,-651.182 502.405,-649.511 493.185,-644.293 491.943,-651.182"/>
</g>
<!-- Node6 -->
<g id="node11" class="node"><title>Node6</title>
<a xlink:href="classCaptureParameter.html#a0ace3cdc70cfd1ce6abea1ee624cb5fb" target="_top" xlink:title="CaptureParameter::hasMenuItems">
<polygon fill="none" stroke="black" points="484,-598.5 484,-619.5 666,-619.5 666,-598.5 484,-598.5"/>
<text text-anchor="middle" x="575" y="-606.5" font-family="FreeSans.ttf" font-size="10.00">CaptureParameter::hasMenuItems</text>
</a>
</g>
<!-- Node2&#45;&gt;Node6 -->
<g id="edge10" class="edge"><title>Node2&#45;&gt;Node6</title>
<path fill="none" stroke="midnightblue" d="M326.757,-381.533C336.538,-416.666 373.072,-530.623 448,-584 456.03,-589.721 465.038,-594.215 474.453,-597.734"/>
<polygon fill="midnightblue" stroke="midnightblue" points="473.389,-601.069 483.983,-600.939 475.62,-594.434 473.389,-601.069"/>
</g>
<!-- Node7 -->
<g id="node13" class="node"><title>Node7</title>
<a xlink:href="classCaptureParameter.html#a3b2981f5b49fb4d08c44696d0e4add37" target="_top" xlink:title="CaptureParameter::getMenuItemNumber">
<polygon fill="none" stroke="black" points="745,-578.5 745,-599.5 959,-599.5 959,-578.5 745,-578.5"/>
<text text-anchor="middle" x="852" y="-586.5" font-family="FreeSans.ttf" font-size="10.00">CaptureParameter::getMenuItemNumber</text>
</a>
</g>
<!-- Node2&#45;&gt;Node7 -->
<g id="edge22" class="edge"><title>Node2&#45;&gt;Node7</title>
<path fill="none" stroke="midnightblue" d="M327.581,-381.516C339.111,-413.561 378.616,-510.284 448,-551 495.041,-578.605 632.981,-586.718 734.647,-588.82"/>
<polygon fill="midnightblue" stroke="midnightblue" points="734.613,-592.32 744.678,-589.01 734.746,-585.321 734.613,-592.32"/>
</g>
<!-- Node8 -->
<g id="node15" class="node"><title>Node8</title>
<a xlink:href="classParameterSlider.html#aa1c895b6e0705ac08b18861a9b2690ed" target="_top" xlink:title="ParameterSlider::setMinimum">
<polygon fill="none" stroke="black" points="495.5,-520.5 495.5,-541.5 654.5,-541.5 654.5,-520.5 495.5,-520.5"/>
<text text-anchor="middle" x="575" y="-528.5" font-family="FreeSans.ttf" font-size="10.00">ParameterSlider::setMinimum</text>
</a>
</g>
<!-- Node2&#45;&gt;Node8 -->
<g id="edge14" class="edge"><title>Node2&#45;&gt;Node8</title>
<path fill="none" stroke="midnightblue" d="M329.852,-381.648C345.225,-408.486 389.622,-479.027 448,-511 459.466,-517.28 472.333,-521.733 485.36,-524.867"/>
<polygon fill="midnightblue" stroke="midnightblue" points="484.82,-528.33 495.333,-527.014 486.294,-521.487 484.82,-528.33"/>
</g>
<!-- Node9 -->
<g id="node17" class="node"><title>Node9</title>
<a xlink:href="classCaptureParameter.html#a5f3b87a3528b27b3b9976a7741b89a21" target="_top" xlink:title="CaptureParameter::minimum">
<polygon fill="none" stroke="black" points="496.5,-480.5 496.5,-501.5 653.5,-501.5 653.5,-480.5 496.5,-480.5"/>
<text text-anchor="middle" x="575" y="-488.5" font-family="FreeSans.ttf" font-size="10.00">CaptureParameter::minimum</text>
</a>
</g>
<!-- Node2&#45;&gt;Node9 -->
<g id="edge16" class="edge"><title>Node2&#45;&gt;Node9</title>
<path fill="none" stroke="midnightblue" d="M333.369,-381.603C352.559,-402.559 398.702,-449.136 448,-471 459.951,-476.3 473.081,-480.222 486.225,-483.118"/>
<polygon fill="midnightblue" stroke="midnightblue" points="485.766,-486.596 496.26,-485.14 487.148,-479.734 485.766,-486.596"/>
</g>
<!-- Node10 -->
<g id="node19" class="node"><title>Node10</title>
<a xlink:href="classParameterSlider.html#a6825ea3c5da79ff93b254a0074d1df78" target="_top" xlink:title="ParameterSlider::setMaximum">
<polygon fill="none" stroke="black" points="494,-440.5 494,-461.5 656,-461.5 656,-440.5 494,-440.5"/>
<text text-anchor="middle" x="575" y="-448.5" font-family="FreeSans.ttf" font-size="10.00">ParameterSlider::setMaximum</text>
</a>
</g>
<!-- Node2&#45;&gt;Node10 -->
<g id="edge18" class="edge"><title>Node2&#45;&gt;Node10</title>
<path fill="none" stroke="midnightblue" d="M341.794,-381.697C365.275,-395.316 408.288,-418.566 448,-431 459.399,-434.569 471.582,-437.52 483.724,-439.955"/>
<polygon fill="midnightblue" stroke="midnightblue" points="483.418,-443.459 493.894,-441.882 484.72,-436.582 483.418,-443.459"/>
</g>
<!-- Node11 -->
<g id="node21" class="node"><title>Node11</title>
<a xlink:href="classCaptureParameter.html#ae8e96136a9ec0d75c254595976c55dd1" target="_top" xlink:title="CaptureParameter::maximum">
<polygon fill="none" stroke="black" points="495,-400.5 495,-421.5 655,-421.5 655,-400.5 495,-400.5"/>
<text text-anchor="middle" x="575" y="-408.5" font-family="FreeSans.ttf" font-size="10.00">CaptureParameter::maximum</text>
</a>
</g>
<!-- Node2&#45;&gt;Node11 -->
<g id="edge20" class="edge"><title>Node2&#45;&gt;Node11</title>
<path fill="none" stroke="midnightblue" d="M388.991,-381.529C408.008,-384.597 428.835,-387.945 448,-391 464.063,-393.56 481.273,-396.284 497.674,-398.87"/>
<polygon fill="midnightblue" stroke="midnightblue" points="497.341,-402.36 507.764,-400.459 498.431,-395.446 497.341,-402.36"/>
</g>
<!-- Node12 -->
<g id="node24" class="node"><title>Node12</title>
<a xlink:href="classParameterSelector.html#aed6d0edf39204e6ffe990433858f5fb0" target="_top" xlink:title="ParameterSelector::pushOption">
<polygon fill="none" stroke="black" points="491.5,-360.5 491.5,-381.5 658.5,-381.5 658.5,-360.5 491.5,-360.5"/>
<text text-anchor="middle" x="575" y="-368.5" font-family="FreeSans.ttf" font-size="10.00">ParameterSelector::pushOption</text>
</a>
</g>
<!-- Node2&#45;&gt;Node12 -->
<g id="edge24" class="edge"><title>Node2&#45;&gt;Node12</title>
<path fill="none" stroke="midnightblue" d="M411.788,-371C434.323,-371 458.648,-371 481.462,-371"/>
<polygon fill="midnightblue" stroke="midnightblue" points="481.481,-374.5 491.481,-371 481.481,-367.5 481.481,-374.5"/>
</g>
<!-- Node13 -->
<g id="node26" class="node"><title>Node13</title>
<a xlink:href="classCaptureParameter.html#ab4f35eb27ed22bb4ac92d4984e0b0c64" target="_top" xlink:title="CaptureParameter::getMenuItem">
<polygon fill="none" stroke="black" points="487.5,-320.5 487.5,-341.5 662.5,-341.5 662.5,-320.5 487.5,-320.5"/>
<text text-anchor="middle" x="575" y="-328.5" font-family="FreeSans.ttf" font-size="10.00">CaptureParameter::getMenuItem</text>
</a>
</g>
<!-- Node2&#45;&gt;Node13 -->
<g id="edge26" class="edge"><title>Node2&#45;&gt;Node13</title>
<path fill="none" stroke="midnightblue" d="M388.991,-360.471C408.008,-357.403 428.835,-354.055 448,-351 464.063,-348.44 481.273,-345.716 497.674,-343.13"/>
<polygon fill="midnightblue" stroke="midnightblue" points="498.431,-346.554 507.764,-341.541 497.341,-339.64 498.431,-346.554"/>
</g>
<!-- Node14 -->
<g id="node28" class="node"><title>Node14</title>
<a xlink:href="classCaptureParameter.html#ac3e08bb02fb3d477a0d60f17062bf8de" target="_top" xlink:title="CaptureParameter::getMenuValue">
<polygon fill="none" stroke="black" points="485.5,-280.5 485.5,-301.5 664.5,-301.5 664.5,-280.5 485.5,-280.5"/>
<text text-anchor="middle" x="575" y="-288.5" font-family="FreeSans.ttf" font-size="10.00">CaptureParameter::getMenuValue</text>
</a>
</g>
<!-- Node2&#45;&gt;Node14 -->
<g id="edge28" class="edge"><title>Node2&#45;&gt;Node14</title>
<path fill="none" stroke="midnightblue" d="M341.794,-360.303C365.275,-346.684 408.288,-323.434 448,-311 457.09,-308.154 466.679,-305.701 476.348,-303.589"/>
<polygon fill="midnightblue" stroke="midnightblue" points="477.347,-306.957 486.434,-301.51 475.934,-300.101 477.347,-306.957"/>
</g>
<!-- Node15 -->
<g id="node30" class="node"><title>Node15</title>
<a xlink:href="classParameterEditorWidget.html#a580d29a2dd4495f4e1b2cee8d5e568c9" target="_top" xlink:title="ParameterEditorWidget::setName">
<polygon fill="none" stroke="black" points="486.5,-240.5 486.5,-261.5 663.5,-261.5 663.5,-240.5 486.5,-240.5"/>
<text text-anchor="middle" x="575" y="-248.5" font-family="FreeSans.ttf" font-size="10.00">ParameterEditorWidget::setName</text>
</a>
</g>
<!-- Node2&#45;&gt;Node15 -->
<g id="edge30" class="edge"><title>Node2&#45;&gt;Node15</title>
<path fill="none" stroke="midnightblue" d="M333.369,-360.397C352.559,-339.441 398.702,-292.864 448,-271 456.952,-267.03 466.566,-263.833 476.352,-261.261"/>
<polygon fill="midnightblue" stroke="midnightblue" points="477.277,-264.639 486.177,-258.892 475.636,-257.834 477.277,-264.639"/>
</g>
<!-- Node16 -->
<g id="node32" class="node"><title>Node16</title>
<a xlink:href="classParameterEditorWidget.html#a1b82fa3f3f40474b728ae1c08cf90232" target="_top" xlink:title="ParameterEditorWidget::setAutoSupported">
<polygon fill="none" stroke="black" points="464.5,-200.5 464.5,-221.5 685.5,-221.5 685.5,-200.5 464.5,-200.5"/>
<text text-anchor="middle" x="575" y="-208.5" font-family="FreeSans.ttf" font-size="10.00">ParameterEditorWidget::setAutoSupported</text>
</a>
</g>
<!-- Node2&#45;&gt;Node16 -->
<g id="edge32" class="edge"><title>Node2&#45;&gt;Node16</title>
<path fill="none" stroke="midnightblue" d="M329.852,-360.352C345.225,-333.514 389.622,-262.973 448,-231 451.961,-228.831 456.09,-226.879 460.334,-225.125"/>
<polygon fill="midnightblue" stroke="midnightblue" points="461.649,-228.37 469.792,-221.591 459.199,-221.812 461.649,-228.37"/>
</g>
<!-- Node17 -->
<g id="node34" class="node"><title>Node17</title>
<a xlink:href="classCaptureParameter.html#a9d862a8183de4660684533e2289d60e7" target="_top" xlink:title="CaptureParameter::autoSupported">
<polygon fill="none" stroke="black" points="483.5,-160.5 483.5,-181.5 666.5,-181.5 666.5,-160.5 483.5,-160.5"/>
<text text-anchor="middle" x="575" y="-168.5" font-family="FreeSans.ttf" font-size="10.00">CaptureParameter::autoSupported</text>
</a>
</g>
<!-- Node2&#45;&gt;Node17 -->
<g id="edge34" class="edge"><title>Node2&#45;&gt;Node17</title>
<path fill="none" stroke="midnightblue" d="M327.866,-360.224C339.941,-328.278 380.241,-233.659 448,-191 455.837,-186.066 464.47,-182.206 473.435,-179.201"/>
<polygon fill="midnightblue" stroke="midnightblue" points="474.69,-182.479 483.271,-176.266 472.688,-175.772 474.69,-182.479"/>
</g>
<!-- Node18 -->
<g id="node36" class="node"><title>Node18</title>
<a xlink:href="classImageCaptureInterface.html#a4bacce84d648eb69221b341631309cd2" target="_top" xlink:title="ImageCaptureInterface::getCaptureProperty">
<polygon fill="none" stroke="black" points="461.5,-120.5 461.5,-141.5 688.5,-141.5 688.5,-120.5 461.5,-120.5"/>
<text text-anchor="middle" x="575" y="-128.5" font-family="FreeSans.ttf" font-size="10.00">ImageCaptureInterface::getCaptureProperty</text>
</a>
</g>
<!-- Node2&#45;&gt;Node18 -->
<g id="edge36" class="edge"><title>Node2&#45;&gt;Node18</title>
<path fill="none" stroke="midnightblue" d="M326.501,-360.269C335.574,-323.946 370.388,-204.884 448,-151 450.575,-149.212 453.251,-147.56 456.007,-146.034"/>
<polygon fill="midnightblue" stroke="midnightblue" points="457.633,-149.135 465.062,-141.581 454.544,-142.853 457.633,-149.135"/>
</g>
<!-- Node19 -->
<g id="node38" class="node"><title>Node19</title>
<a xlink:href="classParameterEditorWidget.html#a1509907e1e432ca5e1518808458596e3" target="_top" xlink:title="ParameterEditorWidget::setValue">
<polygon fill="none" stroke="black" points="488,-80.5 488,-101.5 662,-101.5 662,-80.5 488,-80.5"/>
<text text-anchor="middle" x="575" y="-88.5" font-family="FreeSans.ttf" font-size="10.00">ParameterEditorWidget::setValue</text>
</a>
</g>
<!-- Node2&#45;&gt;Node19 -->
<g id="edge38" class="edge"><title>Node2&#45;&gt;Node19</title>
<path fill="none" stroke="midnightblue" d="M325.521,-360.381C331.879,-320.206 360.218,-176.492 448,-111 456.903,-104.358 467.144,-99.542 477.866,-96.0938"/>
<polygon fill="midnightblue" stroke="midnightblue" points="479.142,-99.371 487.824,-93.2984 477.25,-92.6316 479.142,-99.371"/>
</g>
<!-- Node20 -->
<g id="node40" class="node"><title>Node20</title>
<a xlink:href="classCapSettingsDialog.html#ad72fb116ce3a64e396ec2718c686f161" target="_top" xlink:title="CapSettingsDialog::resetPressed">
<polygon fill="none" stroke="black" points="488,-0.5 488,-21.5 662,-21.5 662,-0.5 488,-0.5"/>
<text text-anchor="middle" x="575" y="-8.5" font-family="FreeSans.ttf" font-size="10.00">CapSettingsDialog::resetPressed</text>
</a>
</g>
<!-- Node2&#45;&gt;Node20 -->
<g id="edge40" class="edge"><title>Node2&#45;&gt;Node20</title>
<path fill="none" stroke="midnightblue" d="M326.372,-360.297C338.269,-307.577 393.06,-76.2187 448,-31 456.797,-23.7594 467.136,-18.6111 478.051,-15.0087"/>
<polygon fill="midnightblue" stroke="midnightblue" points="479.117,-18.3442 487.768,-12.2271 477.191,-11.6145 479.117,-18.3442"/>
</g>
<!-- Node23 -->
<g id="node46" class="node"><title>Node23</title>
<a xlink:href="classCapSettingsDialog.html#a0a8aca1183ae692737fc95f268290dc9" target="_top" xlink:title="CapSettingsDialog::parameterChanged">
<polygon fill="none" stroke="black" points="472.5,-40.5 472.5,-61.5 677.5,-61.5 677.5,-40.5 472.5,-40.5"/>
<text text-anchor="middle" x="575" y="-48.5" font-family="FreeSans.ttf" font-size="10.00">CapSettingsDialog::parameterChanged</text>
</a>
</g>
<!-- Node2&#45;&gt;Node23 -->
<g id="edge46" class="edge"><title>Node2&#45;&gt;Node23</title>
<path fill="none" stroke="midnightblue" d="M324.808,-360.333C328.746,-316.417 349.963,-148.276 448,-71 452.66,-67.3266 457.722,-64.2004 463.053,-61.5475"/>
<polygon fill="midnightblue" stroke="midnightblue" points="464.498,-64.7356 472.252,-57.5165 461.688,-58.3241 464.498,-64.7356"/>
</g>
<!-- Node6&#45;&gt;Node7 -->
<g id="edge12" class="edge"><title>Node6&#45;&gt;Node7</title>
<path fill="none" stroke="midnightblue" d="M666.084,-602.424C688.061,-600.837 711.85,-599.119 734.836,-597.46"/>
<polygon fill="midnightblue" stroke="midnightblue" points="735.257,-600.938 744.979,-596.727 734.753,-593.956 735.257,-600.938"/>
</g>
<!-- Node21 -->
<g id="node42" class="node"><title>Node21</title>
<a xlink:href="classImageCaptureInterface.html#a34f11075f10c69633b08ec0156322be1" target="_top" xlink:title="ImageCaptureInterface::setCaptureProperty">
<polygon fill="none" stroke="black" points="738.5,-40.5 738.5,-61.5 965.5,-61.5 965.5,-40.5 738.5,-40.5"/>
<text text-anchor="middle" x="852" y="-48.5" font-family="FreeSans.ttf" font-size="10.00">ImageCaptureInterface::setCaptureProperty</text>
</a>
</g>
<!-- Node20&#45;&gt;Node21 -->
<g id="edge42" class="edge"><title>Node20&#45;&gt;Node21</title>
<path fill="none" stroke="midnightblue" d="M647.778,-21.5095C685.006,-26.8854 730.481,-33.4521 769.06,-39.0232"/>
<polygon fill="midnightblue" stroke="midnightblue" points="768.83,-42.5261 779.227,-40.4913 769.83,-35.5979 768.83,-42.5261"/>
</g>
<!-- Node22 -->
<g id="node44" class="node"><title>Node22</title>
<a xlink:href="classCaptureParameter.html#a0848010609c9a68579d1a00d4f7c1abb" target="_top" xlink:title="CaptureParameter::defaultValue">
<polygon fill="none" stroke="black" points="767,-0.5 767,-21.5 937,-21.5 937,-0.5 767,-0.5"/>
<text text-anchor="middle" x="852" y="-8.5" font-family="FreeSans.ttf" font-size="10.00">CaptureParameter::defaultValue</text>
</a>
</g>
<!-- Node20&#45;&gt;Node22 -->
<g id="edge44" class="edge"><title>Node20&#45;&gt;Node22</title>
<path fill="none" stroke="midnightblue" d="M662.264,-11C692.184,-11 725.818,-11 756.365,-11"/>
<polygon fill="midnightblue" stroke="midnightblue" points="756.597,-14.5001 766.597,-11 756.597,-7.5001 756.597,-14.5001"/>
</g>
<!-- Node23&#45;&gt;Node21 -->
<g id="edge48" class="edge"><title>Node23&#45;&gt;Node21</title>
<path fill="none" stroke="midnightblue" d="M677.751,-51C694.071,-51 711.103,-51 727.851,-51"/>
<polygon fill="midnightblue" stroke="midnightblue" points="728.234,-54.5001 738.234,-51 728.234,-47.5001 728.234,-54.5001"/>
</g>
</g>
</svg>
        <g id="navigator" transform="translate(0 0)" fill="#404254">
                <rect fill="#f2f5e9" fill-opacity="0.5" stroke="#606060" stroke-width=".5" x="0" y="0" width="60" height="60"/>
                <use id="zoomplus" xlink:href="#zoomPlus" x="17" y="9" onmousedown="handleZoom(evt,'in')"/>
                <use id="zoomminus" xlink:href="#zoomMin" x="42" y="9" onmousedown="handleZoom(evt,'out')"/>
                <use id="reset" xlink:href="#resetDef" x="30" y="36" onmousedown="handleReset()"/>
                <g id="arrowUp" xlink:href="#dirArrow" transform="translate(30 24)" onmousedown="handlePan(0,-1)">
                  <use xlink:href="#rim" fill="#404040">
                        <set attributeName="fill" to="#808080" begin="arrowUp.mouseover" end="arrowUp.mouseout"/>
                  </use>
                  <path fill="none" stroke="white" stroke-width="1.5" d="M0,-3.0v7 M-2.5,-0.5L0,-3.0L2.5,-0.5"/>
                </g>
                <g id="arrowRight" xlink:href="#dirArrow" transform="rotate(90) translate(36 -43)" onmousedown="handlePan(1,0)">
                  <use xlink:href="#rim" fill="#404040">
                        <set attributeName="fill" to="#808080" begin="arrowRight.mouseover" end="arrowRight.mouseout"/>
                  </use>
                  <path fill="none" stroke="white" stroke-width="1.5" d="M0,-3.0v7 M-2.5,-0.5L0,-3.0L2.5,-0.5"/>
                </g>
                <g id="arrowDown" xlink:href="#dirArrow" transform="rotate(180) translate(-30 -48)" onmousedown="handlePan(0,1)">
                  <use xlink:href="#rim" fill="#404040">
                        <set attributeName="fill" to="#808080" begin="arrowDown.mouseover" end="arrowDown.mouseout"/>
                  </use>
                  <path fill="none" stroke="white" stroke-width="1.5" d="M0,-3.0v7 M-2.5,-0.5L0,-3.0L2.5,-0.5"/>
                </g>
                <g id="arrowLeft" xlink:href="#dirArrow" transform="rotate(270) translate(-36 17)" onmousedown="handlePan(-1,0)">
                  <use xlink:href="#rim" fill="#404040">
                        <set attributeName="fill" to="#808080" begin="arrowLeft.mouseover" end="arrowLeft.mouseout"/>
                  </use>
                  <path fill="none" stroke="white" stroke-width="1.5" d="M0,-3.0v7 M-2.5,-0.5L0,-3.0L2.5,-0.5"/>
                </g>
        </g>
</svg>
