<?xml version="1.0" encoding="UTF-8" standalone="no"?>
<!DOCTYPE svg PUBLIC "-//W3C//DTD SVG 1.1//EN"
 "http://www.w3.org/Graphics/SVG/1.1/DTD/svg11.dtd">
<!-- Generated by graphviz version 2.26.3 (20100126.1600)
 -->
<!-- Title: G Pages: 1 -->
<!--zoomable 264 -->
<svg id="main" version="1.1" xmlns="http://www.w3.org/2000/svg" xmlns:xlink="http://www.w3.org/1999/xlink" xml:space="preserve" onload="init(evt)">
        <defs>
                <circle id="rim" cx="0" cy="0" r="7"/>
                <circle id="rim2" cx="0" cy="0" r="3.5"/>
                <g id="zoomPlus">
                        <use xlink:href="#rim" fill="#404040">
                                <set attributeName="fill" to="#808080" begin="zoomplus.mouseover" end="zoomplus.mouseout"/>
                        </use>
                        <path d="M-4,0h8M0,-4v8" fill="none" stroke="white" stroke-width="1.5" pointer-events="none"/>
                </g>
                <g id="zoomMin">
                        <use xlink:href="#rim" fill="#404040">
                                <set attributeName="fill" to="#808080" begin="zoomminus.mouseover" end="zoomminus.mouseout"/>
                        </use>
                        <path d="M-4,0h8" fill="none" stroke="white" stroke-width="1.5" pointer-events="none"/>
                </g>
                <g id="dirArrow">
                        <path fill="none" stroke="white" stroke-width="1.5" d="M0,-3.0v7 M-2.5,-0.5L0,-3.0L2.5,-0.5"/>
                </g>
               <g id="resetDef">
                       <use xlink:href="#rim2" fill="#404040">
                               <set attributeName="fill" to="#808080" begin="reset.mouseover" end="reset.mouseout"/>
                       </use>
               </g>
        </defs>

<script type="text/javascript">
var viewWidth = 792;
var viewHeight = 264;
var sectionId = 'dynsection-12';
</script>
<script xlink:href="svgpan.js"/>
<svg id="graph" class="graph">
<g id="viewport">
<title>G</title>
<!-- Node1 -->
<g id="node1" class="node"><title>Node1</title>
<polygon fill="#bfbfbf" stroke="black" points="0.5,-119.5 0.5,-140.5 165.5,-140.5 165.5,-119.5 0.5,-119.5"/>
<text text-anchor="middle" x="83" y="-127.5" font-family="FreeSans.ttf" font-size="10.00">PaintImageWidget::childRepaint</text>
</g>
<!-- Node2 -->
<g id="node3" class="node"><title>Node2</title>
<a xlink:href="classcorecvs_1_1RGBColor.html#a28d1778710e5ade8ab275f8ef03cdaec" target="_top" xlink:title="corecvs::RGBColor::b">
<polygon fill="none" stroke="black" points="237,-234.5 237,-255.5 353,-255.5 353,-234.5 237,-234.5"/>
<text text-anchor="middle" x="295" y="-242.5" font-family="FreeSans.ttf" font-size="10.00">corecvs::RGBColor::b</text>
</a>
</g>
<!-- Node1&#45;&gt;Node2 -->
<g id="edge2" class="edge"><title>Node1&#45;&gt;Node2</title>
<path fill="none" stroke="midnightblue" d="M93.8355,-140.548C113.655,-159.271 157.793,-198.369 202,-220 211.332,-224.566 221.613,-228.389 231.833,-231.56"/>
<polygon fill="midnightblue" stroke="midnightblue" points="230.999,-234.962 241.58,-234.403 232.96,-228.242 230.999,-234.962"/>
</g>
<!-- Node3 -->
<g id="node5" class="node"><title>Node3</title>
<a xlink:href="painterHelpers_8cpp.html#a780900a5b9c323ccddc2ae68a7b10cc2" target="_top" xlink:title="drawCircle">
<polygon fill="none" stroke="black" points="496.5,-200.5 496.5,-221.5 561.5,-221.5 561.5,-200.5 496.5,-200.5"/>
<text text-anchor="middle" x="529" y="-208.5" font-family="FreeSans.ttf" font-size="10.00">drawCircle</text>
</a>
</g>
<!-- Node1&#45;&gt;Node3 -->
<g id="edge4" class="edge"><title>Node1&#45;&gt;Node3</title>
<path fill="none" stroke="midnightblue" d="M114.246,-140.554C138.062,-148.264 171.795,-158.47 202,-165 302.645,-186.757 423.028,-200.628 485.911,-206.969"/>
<polygon fill="midnightblue" stroke="midnightblue" points="485.935,-210.488 496.232,-207.993 486.627,-203.522 485.935,-210.488"/>
</g>
<!-- Node7 -->
<g id="node13" class="node"><title>Node7</title>
<a xlink:href="painterHelpers_8cpp.html#ac363434e46874539f74830b3c19cc7da" target="_top" xlink:title="drawLine">
<polygon fill="none" stroke="black" points="499.5,-160.5 499.5,-181.5 558.5,-181.5 558.5,-160.5 499.5,-160.5"/>
<text text-anchor="middle" x="529" y="-168.5" font-family="FreeSans.ttf" font-size="10.00">drawLine</text>
</a>
</g>
<!-- Node1&#45;&gt;Node7 -->
<g id="edge12" class="edge"><title>Node1&#45;&gt;Node7</title>
<path fill="none" stroke="midnightblue" d="M165.541,-140.086C177.758,-141.47 190.202,-142.819 202,-144 305.412,-154.349 427.511,-163.661 489.138,-168.157"/>
<polygon fill="midnightblue" stroke="midnightblue" points="488.984,-171.655 499.211,-168.888 489.491,-164.673 488.984,-171.655"/>
</g>
<!-- Node8 -->
<g id="node18" class="node"><title>Node8</title>
<a xlink:href="painterHelpers_8cpp.html#acbc0d84ae3cfc58e7ec58dd913034aa2" target="_top" xlink:title="drawSquare">
<polygon fill="none" stroke="black" points="492,-120.5 492,-141.5 566,-141.5 566,-120.5 492,-120.5"/>
<text text-anchor="middle" x="529" y="-128.5" font-family="FreeSans.ttf" font-size="10.00">drawSquare</text>
</a>
</g>
<!-- Node1&#45;&gt;Node8 -->
<g id="edge20" class="edge"><title>Node1&#45;&gt;Node8</title>
<path fill="none" stroke="midnightblue" d="M165.583,-130.185C258.534,-130.394 406.36,-130.725 481.617,-130.894"/>
<polygon fill="midnightblue" stroke="midnightblue" points="481.734,-134.394 491.742,-130.916 481.75,-127.394 481.734,-134.394"/>
</g>
<!-- Node9 -->
<g id="node22" class="node"><title>Node9</title>
<a xlink:href="classcorecvs_1_1RGBColor.html#a61bb42ad3c5af64582ba22408e8bc5c4" target="_top" xlink:title="corecvs::RGBColor::g">
<polygon fill="none" stroke="black" points="237,-40.5 237,-61.5 353,-61.5 353,-40.5 237,-40.5"/>
<text text-anchor="middle" x="295" y="-48.5" font-family="FreeSans.ttf" font-size="10.00">corecvs::RGBColor::g</text>
</a>
</g>
<!-- Node1&#45;&gt;Node9 -->
<g id="edge26" class="edge"><title>Node1&#45;&gt;Node9</title>
<path fill="none" stroke="midnightblue" d="M100.934,-119.336C123.709,-106.217 164.556,-84.0793 202,-71 209.956,-68.2208 218.436,-65.7549 226.915,-63.5878"/>
<polygon fill="midnightblue" stroke="midnightblue" points="227.943,-66.9399 236.836,-61.1802 226.292,-60.1374 227.943,-66.9399"/>
</g>
<!-- Node10 -->
<g id="node24" class="node"><title>Node10</title>
<a xlink:href="classPaintImageWidget.html#a699c53dbf72b8417bb250c1a194010af" target="_top" xlink:title="PaintImageWidget::imageToWidgetF">
<polygon fill="none" stroke="black" points="202.5,-80.5 202.5,-101.5 387.5,-101.5 387.5,-80.5 202.5,-80.5"/>
<text text-anchor="middle" x="295" y="-88.5" font-family="FreeSans.ttf" font-size="10.00">PaintImageWidget::imageToWidgetF</text>
</a>
</g>
<!-- Node1&#45;&gt;Node10 -->
<g id="edge28" class="edge"><title>Node1&#45;&gt;Node10</title>
<path fill="none" stroke="midnightblue" d="M140.091,-119.497C167.07,-114.534 199.462,-108.575 227.636,-103.392"/>
<polygon fill="midnightblue" stroke="midnightblue" points="228.605,-106.773 237.807,-101.521 227.339,-99.8884 228.605,-106.773"/>
</g>
<!-- Node14 -->
<g id="node34" class="node"><title>Node14</title>
<a xlink:href="classcorecvs_1_1RGBColor.html#a551378cc4e40775286d1200a21e3dfbc" target="_top" xlink:title="corecvs::RGBColor::r">
<polygon fill="none" stroke="black" points="238,-0.5 238,-21.5 352,-21.5 352,-0.5 238,-0.5"/>
<text text-anchor="middle" x="295" y="-8.5" font-family="FreeSans.ttf" font-size="10.00">corecvs::RGBColor::r</text>
</a>
</g>
<!-- Node1&#45;&gt;Node14 -->
<g id="edge40" class="edge"><title>Node1&#45;&gt;Node14</title>
<path fill="none" stroke="midnightblue" d="M92.3095,-119.406C110.953,-98.9033 155.119,-53.8121 202,-31 210.179,-27.02 219.144,-23.8268 228.177,-21.2661"/>
<polygon fill="midnightblue" stroke="midnightblue" points="229.17,-24.6245 237.973,-18.7284 227.414,-17.8483 229.17,-24.6245"/>
</g>
<!-- Node4 -->
<g id="node7" class="node"><title>Node4</title>
<a xlink:href="namespacecorecvs.html#a807eb76b7544bcb930b1700a58a780bd" target="_top" xlink:title="Useful round* stuff.">
<polygon fill="none" stroke="black" points="682,-200.5 682,-221.5 772,-221.5 772,-200.5 682,-200.5"/>
<text text-anchor="middle" x="727" y="-208.5" font-family="FreeSans.ttf" font-size="10.00">corecvs::fround</text>
</a>
</g>
<!-- Node3&#45;&gt;Node4 -->
<g id="edge6" class="edge"><title>Node3&#45;&gt;Node4</title>
<path fill="none" stroke="midnightblue" d="M561.696,-211C591.487,-211 636.103,-211 671.478,-211"/>
<polygon fill="midnightblue" stroke="midnightblue" points="671.66,-214.5 681.66,-211 671.66,-207.5 671.66,-214.5"/>
</g>
<!-- Node5 -->
<g id="node9" class="node"><title>Node5</title>
<a xlink:href="classcorecvs_1_1Vector2d.html#a944721c41f044c1388d9dc42ca899bce" target="_top" xlink:title="corecvs::Vector2d::x">
<polygon fill="none" stroke="black" points="670.5,-120.5 670.5,-141.5 783.5,-141.5 783.5,-120.5 670.5,-120.5"/>
<text text-anchor="middle" x="727" y="-128.5" font-family="FreeSans.ttf" font-size="10.00">corecvs::Vector2d::x</text>
</a>
</g>
<!-- Node3&#45;&gt;Node5 -->
<g id="edge8" class="edge"><title>Node3&#45;&gt;Node5</title>
<path fill="none" stroke="midnightblue" d="M561.614,-210.143C583.337,-208.33 611.851,-203.48 634,-191 654.838,-179.259 650.096,-164.261 670,-151 672.88,-149.081 675.965,-147.325 679.154,-145.72"/>
<polygon fill="midnightblue" stroke="midnightblue" points="680.646,-148.887 688.332,-141.595 677.776,-142.502 680.646,-148.887"/>
</g>
<!-- Node6 -->
<g id="node11" class="node"><title>Node6</title>
<a xlink:href="classcorecvs_1_1Vector2d.html#ae1ea2ad4c0821001408bf963cffa8413" target="_top" xlink:title="corecvs::Vector2d::y">
<polygon fill="none" stroke="black" points="670.5,-160.5 670.5,-181.5 783.5,-181.5 783.5,-160.5 670.5,-160.5"/>
<text text-anchor="middle" x="727" y="-168.5" font-family="FreeSans.ttf" font-size="10.00">corecvs::Vector2d::y</text>
</a>
</g>
<!-- Node3&#45;&gt;Node6 -->
<g id="edge10" class="edge"><title>Node3&#45;&gt;Node6</title>
<path fill="none" stroke="midnightblue" d="M561.674,-204.982C582.415,-201.111 609.811,-195.904 634,-191 645.267,-188.716 657.282,-186.195 668.807,-183.735"/>
<polygon fill="midnightblue" stroke="midnightblue" points="669.733,-187.116 678.776,-181.597 668.265,-180.272 669.733,-187.116"/>
</g>
<!-- Node7&#45;&gt;Node4 -->
<g id="edge14" class="edge"><title>Node7&#45;&gt;Node4</title>
<path fill="none" stroke="midnightblue" d="M558.908,-176.503C579.937,-180.419 608.72,-185.875 634,-191 646.261,-193.486 659.408,-196.251 671.844,-198.914"/>
<polygon fill="midnightblue" stroke="midnightblue" points="671.122,-202.339 681.635,-201.02 672.594,-195.495 671.122,-202.339"/>
</g>
<!-- Node7&#45;&gt;Node5 -->
<g id="edge16" class="edge"><title>Node7&#45;&gt;Node5</title>
<path fill="none" stroke="midnightblue" d="M558.908,-165.497C579.937,-161.581 608.72,-156.125 634,-151 645.267,-148.716 657.282,-146.195 668.807,-143.735"/>
<polygon fill="midnightblue" stroke="midnightblue" points="669.733,-147.116 678.776,-141.597 668.265,-140.272 669.733,-147.116"/>
</g>
<!-- Node7&#45;&gt;Node6 -->
<g id="edge18" class="edge"><title>Node7&#45;&gt;Node6</title>
<path fill="none" stroke="midnightblue" d="M558.643,-171C585.448,-171 625.887,-171 660.413,-171"/>
<polygon fill="midnightblue" stroke="midnightblue" points="660.446,-174.5 670.446,-171 660.446,-167.5 660.446,-174.5"/>
</g>
<!-- Node8&#45;&gt;Node5 -->
<g id="edge22" class="edge"><title>Node8&#45;&gt;Node5</title>
<path fill="none" stroke="midnightblue" d="M566.242,-131C592.726,-131 629.027,-131 660.433,-131"/>
<polygon fill="midnightblue" stroke="midnightblue" points="660.439,-134.5 670.439,-131 660.439,-127.5 660.439,-134.5"/>
</g>
<!-- Node8&#45;&gt;Node6 -->
<g id="edge24" class="edge"><title>Node8&#45;&gt;Node6</title>
<path fill="none" stroke="midnightblue" d="M566.461,-137.913C586.517,-141.671 611.63,-146.465 634,-151 645.267,-153.284 657.282,-155.805 668.807,-158.265"/>
<polygon fill="midnightblue" stroke="midnightblue" points="668.265,-161.728 678.776,-160.403 669.733,-154.884 668.265,-161.728"/>
</g>
<!-- Node11 -->
<g id="node26" class="node"><title>Node11</title>
<a xlink:href="classQt2Core.html#a45349571a1266ef9ec95e07b94cab942" target="_top" xlink:title="Qt2Core::Vector2ddFromQPointF">
<polygon fill="none" stroke="black" points="443,-40.5 443,-61.5 615,-61.5 615,-40.5 443,-40.5"/>
<text text-anchor="middle" x="529" y="-48.5" font-family="FreeSans.ttf" font-size="10.00">Qt2Core::Vector2ddFromQPointF</text>
</a>
</g>
<!-- Node10&#45;&gt;Node11 -->
<g id="edge30" class="edge"><title>Node10&#45;&gt;Node11</title>
<path fill="none" stroke="midnightblue" d="M356.481,-80.4905C387.394,-75.2062 425.039,-68.7711 457.266,-63.2622"/>
<polygon fill="midnightblue" stroke="midnightblue" points="458.257,-66.6437 467.524,-61.5087 457.077,-59.7438 458.257,-66.6437"/>
</g>
<!-- Node12 -->
<g id="node28" class="node"><title>Node12</title>
<a xlink:href="classAdvancedImageWidget.html#a3c1b8a0d8e0895a9313dfbb9c0f7e890" target="_top" xlink:title="AdvancedImageWidget::imageToWidgetF">
<polygon fill="none" stroke="black" points="424.5,-0.5 424.5,-21.5 633.5,-21.5 633.5,-0.5 424.5,-0.5"/>
<text text-anchor="middle" x="529" y="-8.5" font-family="FreeSans.ttf" font-size="10.00">AdvancedImageWidget::imageToWidgetF</text>
</a>
</g>
<!-- Node10&#45;&gt;Node12 -->
<g id="edge32" class="edge"><title>Node10&#45;&gt;Node12</title>
<path fill="none" stroke="midnightblue" d="M366.799,-80.3906C374.212,-77.8917 381.426,-74.807 388,-71 408.698,-59.0142 403.162,-42.7407 424,-31 427.926,-28.7882 432.051,-26.816 436.303,-25.0579"/>
<polygon fill="midnightblue" stroke="midnightblue" points="437.627,-28.2999 445.786,-21.5412 435.193,-21.7367 437.627,-28.2999"/>
</g>
<!-- Node13 -->
<g id="node30" class="node"><title>Node13</title>
<a xlink:href="classCore2Qt.html#aba0bbf0c95a85d0ccaf52ff269d51031" target="_top" xlink:title="Core2Qt::QPointFromVector2dd">
<polygon fill="none" stroke="black" points="445.5,-80.5 445.5,-101.5 612.5,-101.5 612.5,-80.5 445.5,-80.5"/>
<text text-anchor="middle" x="529" y="-88.5" font-family="FreeSans.ttf" font-size="10.00">Core2Qt::QPointFromVector2dd</text>
</a>
</g>
<!-- Node10&#45;&gt;Node13 -->
<g id="edge34" class="edge"><title>Node10&#45;&gt;Node13</title>
<path fill="none" stroke="midnightblue" d="M387.819,-91C403.415,-91 419.611,-91 435.231,-91"/>
<polygon fill="midnightblue" stroke="midnightblue" points="435.4,-94.5001 445.4,-91 435.4,-87.5001 435.4,-94.5001"/>
</g>
<!-- Node13&#45;&gt;Node5 -->
<g id="edge36" class="edge"><title>Node13&#45;&gt;Node5</title>
<path fill="none" stroke="midnightblue" d="M585.721,-101.55C601.377,-104.532 618.359,-107.829 634,-111 645.267,-113.284 657.282,-115.805 668.807,-118.265"/>
<polygon fill="midnightblue" stroke="midnightblue" points="668.265,-121.728 678.776,-120.403 669.733,-114.884 668.265,-121.728"/>
</g>
<!-- Node13&#45;&gt;Node6 -->
<g id="edge38" class="edge"><title>Node13&#45;&gt;Node6</title>
<path fill="none" stroke="midnightblue" d="M612.214,-101.541C619.821,-104.065 627.21,-107.174 634,-111 654.838,-122.741 650.096,-137.739 670,-151 672.88,-152.919 675.965,-154.675 679.154,-156.28"/>
<polygon fill="midnightblue" stroke="midnightblue" points="677.776,-159.498 688.332,-160.405 680.646,-153.113 677.776,-159.498"/>
</g>
</g>
</svg>
        <g id="navigator" transform="translate(0 0)" fill="#404254">
                <rect fill="#f2f5e9" fill-opacity="0.5" stroke="#606060" stroke-width=".5" x="0" y="0" width="60" height="60"/>
                <use id="zoomplus" xlink:href="#zoomPlus" x="17" y="9" onmousedown="handleZoom(evt,'in')"/>
                <use id="zoomminus" xlink:href="#zoomMin" x="42" y="9" onmousedown="handleZoom(evt,'out')"/>
                <use id="reset" xlink:href="#resetDef" x="30" y="36" onmousedown="handleReset()"/>
                <g id="arrowUp" xlink:href="#dirArrow" transform="translate(30 24)" onmousedown="handlePan(0,-1)">
                  <use xlink:href="#rim" fill="#404040">
                        <set attributeName="fill" to="#808080" begin="arrowUp.mouseover" end="arrowUp.mouseout"/>
                  </use>
                  <path fill="none" stroke="white" stroke-width="1.5" d="M0,-3.0v7 M-2.5,-0.5L0,-3.0L2.5,-0.5"/>
                </g>
                <g id="arrowRight" xlink:href="#dirArrow" transform="rotate(90) translate(36 -43)" onmousedown="handlePan(1,0)">
                  <use xlink:href="#rim" fill="#404040">
                        <set attributeName="fill" to="#808080" begin="arrowRight.mouseover" end="arrowRight.mouseout"/>
                  </use>
                  <path fill="none" stroke="white" stroke-width="1.5" d="M0,-3.0v7 M-2.5,-0.5L0,-3.0L2.5,-0.5"/>
                </g>
                <g id="arrowDown" xlink:href="#dirArrow" transform="rotate(180) translate(-30 -48)" onmousedown="handlePan(0,1)">
                  <use xlink:href="#rim" fill="#404040">
                        <set attributeName="fill" to="#808080" begin="arrowDown.mouseover" end="arrowDown.mouseout"/>
                  </use>
                  <path fill="none" stroke="white" stroke-width="1.5" d="M0,-3.0v7 M-2.5,-0.5L0,-3.0L2.5,-0.5"/>
                </g>
                <g id="arrowLeft" xlink:href="#dirArrow" transform="rotate(270) translate(-36 17)" onmousedown="handlePan(-1,0)">
                  <use xlink:href="#rim" fill="#404040">
                        <set attributeName="fill" to="#808080" begin="arrowLeft.mouseover" end="arrowLeft.mouseout"/>
                  </use>
                  <path fill="none" stroke="white" stroke-width="1.5" d="M0,-3.0v7 M-2.5,-0.5L0,-3.0L2.5,-0.5"/>
                </g>
        </g>
</svg>
