<?xml version="1.0" encoding="UTF-8" standalone="no"?>
<!DOCTYPE svg PUBLIC "-//W3C//DTD SVG 1.1//EN"
 "http://www.w3.org/Graphics/SVG/1.1/DTD/svg11.dtd">
<!-- Generated by graphviz version 2.26.3 (20100126.1600)
 -->
<!-- Title: G Pages: 1 -->
<svg width="136pt" height="102pt"
 viewBox="0.00 0.00 136.00 102.00" xmlns="http://www.w3.org/2000/svg" xmlns:xlink="http://www.w3.org/1999/xlink">
<g id="graph1" class="graph" transform="scale(1 1) rotate(0) translate(4 98)">
<title>G</title>
<!-- Node1 -->
<g id="node1" class="node"><title>Node1</title>
<polygon fill="#bfbfbf" stroke="black" points="-0.5,-0.5 -0.5,-21.5 128.5,-21.5 128.5,-0.5 -0.5,-0.5"/>
<text text-anchor="middle" x="64" y="-8.5" font-family="FreeSans.ttf" font-size="10.00">corecvs::ScalerFunction</text>
</g>
<!-- Node2 -->
<g id="node2" class="node"><title>Node2</title>
<a xlink:href="classcorecvs_1_1FunctionArgs.html" target="_top" xlink:title="This class is a virtual version of a .">
<polygon fill="none" stroke="black" points="3.5,-72.5 3.5,-93.5 124.5,-93.5 124.5,-72.5 3.5,-72.5"/>
<text text-anchor="middle" x="64" y="-80.5" font-family="FreeSans.ttf" font-size="10.00">corecvs::FunctionArgs</text>
</a>
</g>
<!-- Node2&#45;&gt;Node1 -->
<g id="edge2" class="edge"><title>Node2&#45;&gt;Node1</title>
<path fill="none" stroke="midnightblue" d="M62.3907,-62.1784C62.2291,-59.4295 62.0912,-56.6479 62,-54 61.7858,-47.7815 61.7858,-46.2185 62,-40 62.2085,-33.9476 62.6609,-27.1972 63.0829,-21.7331"/>
<polygon fill="midnightblue" stroke="midnightblue" points="58.9065,-62.5299 63.0829,-72.2669 65.8901,-62.0507 58.9065,-62.5299"/>
</g>
<!-- Node2&#45;&gt;Node1 -->
<g id="edge4" class="edge"><title>Node2&#45;&gt;Node1</title>
<path fill="none" stroke="#9a32cd" stroke-dasharray="5,2" d="M64,-62.2348C64,-48.969 64,-32.3188 64,-21.6674"/>
<polygon fill="#9a32cd" stroke="#9a32cd" points="60.5001,-62.3761 64,-72.3762 67.5001,-62.3762 60.5001,-62.3761"/>
<text text-anchor="middle" x="68.5" y="-44.5" font-family="FreeSans.ttf" font-size="10.00"> F</text>
</g>
</g>
</svg>
