<?xml version="1.0" encoding="UTF-8" standalone="no"?>
<!DOCTYPE svg PUBLIC "-//W3C//DTD SVG 1.1//EN"
 "http://www.w3.org/Graphics/SVG/1.1/DTD/svg11.dtd">
<!-- Generated by graphviz version 2.26.3 (20100126.1600)
 -->
<!-- Title: G Pages: 1 -->
<!--zoomable 110 -->
<svg id="main" version="1.1" xmlns="http://www.w3.org/2000/svg" xmlns:xlink="http://www.w3.org/1999/xlink" xml:space="preserve" onload="init(evt)">
        <defs>
                <circle id="rim" cx="0" cy="0" r="7"/>
                <circle id="rim2" cx="0" cy="0" r="3.5"/>
                <g id="zoomPlus">
                        <use xlink:href="#rim" fill="#404040">
                                <set attributeName="fill" to="#808080" begin="zoomplus.mouseover" end="zoomplus.mouseout"/>
                        </use>
                        <path d="M-4,0h8M0,-4v8" fill="none" stroke="white" stroke-width="1.5" pointer-events="none"/>
                </g>
                <g id="zoomMin">
                        <use xlink:href="#rim" fill="#404040">
                                <set attributeName="fill" to="#808080" begin="zoomminus.mouseover" end="zoomminus.mouseout"/>
                        </use>
                        <path d="M-4,0h8" fill="none" stroke="white" stroke-width="1.5" pointer-events="none"/>
                </g>
                <g id="dirArrow">
                        <path fill="none" stroke="white" stroke-width="1.5" d="M0,-3.0v7 M-2.5,-0.5L0,-3.0L2.5,-0.5"/>
                </g>
               <g id="resetDef">
                       <use xlink:href="#rim2" fill="#404040">
                               <set attributeName="fill" to="#808080" begin="reset.mouseover" end="reset.mouseout"/>
                       </use>
               </g>
        </defs>

<script type="text/javascript">
var viewWidth = 520;
var viewHeight = 110;
var sectionId = 'dynsection-38';
</script>
<script xlink:href="svgpan.js"/>
<svg id="graph" class="graph">
<g id="viewport">
<title>G</title>
<!-- Node1 -->
<g id="node1" class="node"><title>Node1</title>
<polygon fill="#bfbfbf" stroke="black" points="0,-40.5 0,-61.5 146,-61.5 146,-40.5 0,-40.5"/>
<text text-anchor="middle" x="73" y="-48.5" font-family="FreeSans.ttf" font-size="10.00">corecvs::Matrix33::ShiftProj</text>
</g>
<!-- Node2 -->
<g id="node3" class="node"><title>Node2</title>
<a xlink:href="classcorecvs_1_1Matrix33.html#a9848216933d001ad7fea0adb3b7d3212" target="_top" xlink:title="This function returns a matrix with only shift components.">
<polygon fill="none" stroke="black" points="182,-80.5 182,-101.5 328,-101.5 328,-80.5 182,-80.5"/>
<text text-anchor="middle" x="255" y="-88.5" font-family="FreeSans.ttf" font-size="10.00">corecvs::Matrix33::ShiftProj</text>
</a>
</g>
<!-- Node1&#45;&gt;Node2 -->
<g id="edge2" class="edge"><title>Node1&#45;&gt;Node2</title>
<path fill="none" stroke="midnightblue" d="M120.818,-61.5095C144.237,-66.6566 172.624,-72.8954 197.246,-78.3067"/>
<polygon fill="midnightblue" stroke="midnightblue" points="196.667,-81.7631 207.185,-80.4913 198.17,-74.9262 196.667,-81.7631"/>
</g>
<!-- Node4 -->
<g id="node7" class="node"><title>Node4</title>
<a xlink:href="classcorecvs_1_1Vector2d.html#a944721c41f044c1388d9dc42ca899bce" target="_top" xlink:title="corecvs::Vector2d::x">
<polygon fill="none" stroke="black" points="198.5,-40.5 198.5,-61.5 311.5,-61.5 311.5,-40.5 198.5,-40.5"/>
<text text-anchor="middle" x="255" y="-48.5" font-family="FreeSans.ttf" font-size="10.00">corecvs::Vector2d::x</text>
</a>
</g>
<!-- Node1&#45;&gt;Node4 -->
<g id="edge6" class="edge"><title>Node1&#45;&gt;Node4</title>
<path fill="none" stroke="midnightblue" d="M146.24,-51C160.093,-51 174.517,-51 188.161,-51"/>
<polygon fill="midnightblue" stroke="midnightblue" points="188.42,-54.5001 198.419,-51 188.419,-47.5001 188.42,-54.5001"/>
</g>
<!-- Node5 -->
<g id="node9" class="node"><title>Node5</title>
<a xlink:href="classcorecvs_1_1Vector2d.html#ae1ea2ad4c0821001408bf963cffa8413" target="_top" xlink:title="corecvs::Vector2d::y">
<polygon fill="none" stroke="black" points="198.5,-0.5 198.5,-21.5 311.5,-21.5 311.5,-0.5 198.5,-0.5"/>
<text text-anchor="middle" x="255" y="-8.5" font-family="FreeSans.ttf" font-size="10.00">corecvs::Vector2d::y</text>
</a>
</g>
<!-- Node1&#45;&gt;Node5 -->
<g id="edge8" class="edge"><title>Node1&#45;&gt;Node5</title>
<path fill="none" stroke="midnightblue" d="M120.818,-40.4905C144.237,-35.3434 172.624,-29.1046 197.246,-23.6933"/>
<polygon fill="midnightblue" stroke="midnightblue" points="198.17,-27.0738 207.185,-21.5087 196.667,-20.2369 198.17,-27.0738"/>
</g>
<!-- Node3 -->
<g id="node5" class="node"><title>Node3</title>
<a xlink:href="classcorecvs_1_1Matrix33.html#a47c909b671a7ae90b386b56c8706d3a5" target="_top" xlink:title="corecvs::Matrix33::Matrix33">
<polygon fill="none" stroke="black" points="364,-80.5 364,-101.5 512,-101.5 512,-80.5 364,-80.5"/>
<text text-anchor="middle" x="438" y="-88.5" font-family="FreeSans.ttf" font-size="10.00">corecvs::Matrix33::Matrix33</text>
</a>
</g>
<!-- Node2&#45;&gt;Node3 -->
<g id="edge4" class="edge"><title>Node2&#45;&gt;Node3</title>
<path fill="none" stroke="midnightblue" d="M328.115,-91C336.559,-91 345.22,-91 353.796,-91"/>
<polygon fill="midnightblue" stroke="midnightblue" points="353.805,-94.5001 363.805,-91 353.805,-87.5001 353.805,-94.5001"/>
</g>
</g>
</svg>
        <g id="navigator" transform="translate(0 0)" fill="#404254">
                <rect fill="#f2f5e9" fill-opacity="0.5" stroke="#606060" stroke-width=".5" x="0" y="0" width="60" height="60"/>
                <use id="zoomplus" xlink:href="#zoomPlus" x="17" y="9" onmousedown="handleZoom(evt,'in')"/>
                <use id="zoomminus" xlink:href="#zoomMin" x="42" y="9" onmousedown="handleZoom(evt,'out')"/>
                <use id="reset" xlink:href="#resetDef" x="30" y="36" onmousedown="handleReset()"/>
                <g id="arrowUp" xlink:href="#dirArrow" transform="translate(30 24)" onmousedown="handlePan(0,-1)">
                  <use xlink:href="#rim" fill="#404040">
                        <set attributeName="fill" to="#808080" begin="arrowUp.mouseover" end="arrowUp.mouseout"/>
                  </use>
                  <path fill="none" stroke="white" stroke-width="1.5" d="M0,-3.0v7 M-2.5,-0.5L0,-3.0L2.5,-0.5"/>
                </g>
                <g id="arrowRight" xlink:href="#dirArrow" transform="rotate(90) translate(36 -43)" onmousedown="handlePan(1,0)">
                  <use xlink:href="#rim" fill="#404040">
                        <set attributeName="fill" to="#808080" begin="arrowRight.mouseover" end="arrowRight.mouseout"/>
                  </use>
                  <path fill="none" stroke="white" stroke-width="1.5" d="M0,-3.0v7 M-2.5,-0.5L0,-3.0L2.5,-0.5"/>
                </g>
                <g id="arrowDown" xlink:href="#dirArrow" transform="rotate(180) translate(-30 -48)" onmousedown="handlePan(0,1)">
                  <use xlink:href="#rim" fill="#404040">
                        <set attributeName="fill" to="#808080" begin="arrowDown.mouseover" end="arrowDown.mouseout"/>
                  </use>
                  <path fill="none" stroke="white" stroke-width="1.5" d="M0,-3.0v7 M-2.5,-0.5L0,-3.0L2.5,-0.5"/>
                </g>
                <g id="arrowLeft" xlink:href="#dirArrow" transform="rotate(270) translate(-36 17)" onmousedown="handlePan(-1,0)">
                  <use xlink:href="#rim" fill="#404040">
                        <set attributeName="fill" to="#808080" begin="arrowLeft.mouseover" end="arrowLeft.mouseout"/>
                  </use>
                  <path fill="none" stroke="white" stroke-width="1.5" d="M0,-3.0v7 M-2.5,-0.5L0,-3.0L2.5,-0.5"/>
                </g>
        </g>
</svg>
