<?xml version="1.0" encoding="UTF-8" standalone="no"?>
<!DOCTYPE svg PUBLIC "-//W3C//DTD SVG 1.1//EN"
 "http://www.w3.org/Graphics/SVG/1.1/DTD/svg11.dtd">
<!-- Generated by graphviz version 2.26.3 (20100126.1600)
 -->
<!-- Title: G Pages: 1 -->
<svg width="380pt" height="110pt"
 viewBox="0.00 0.00 380.00 110.00" xmlns="http://www.w3.org/2000/svg" xmlns:xlink="http://www.w3.org/1999/xlink">
<g id="graph1" class="graph" transform="scale(1 1) rotate(0) translate(4 106)">
<title>G</title>
<!-- Node1 -->
<g id="node1" class="node"><title>Node1</title>
<polygon fill="#bfbfbf" stroke="black" points="0.5,-40.5 0.5,-61.5 161.5,-61.5 161.5,-40.5 0.5,-40.5"/>
<text text-anchor="middle" x="81" y="-48.5" font-family="FreeSans.ttf" font-size="10.00">corecvs::G12Buffer::G12Buffer</text>
</g>
<!-- Node2 -->
<g id="node3" class="node"><title>Node2</title>
<a xlink:href="classcorecvs_1_1AbstractBuffer.html#a98f72526738a0c4ce8a0b72a3b5c28b9" target="_top" xlink:title="The element getter.">
<polygon fill="none" stroke="black" points="198,-80.5 198,-101.5 372,-101.5 372,-80.5 198,-80.5"/>
<text text-anchor="middle" x="285" y="-88.5" font-family="FreeSans.ttf" font-size="10.00">corecvs::AbstractBuffer::element</text>
</a>
</g>
<!-- Node1&#45;&gt;Node2 -->
<g id="edge2" class="edge"><title>Node1&#45;&gt;Node2</title>
<path fill="none" stroke="midnightblue" d="M134.599,-61.5095C161.199,-66.7252 193.516,-73.0619 221.366,-78.5227"/>
<polygon fill="midnightblue" stroke="midnightblue" points="220.919,-82.0017 231.406,-80.4913 222.266,-75.1325 220.919,-82.0017"/>
</g>
<!-- Node3 -->
<g id="node5" class="node"><title>Node3</title>
<a xlink:href="classcorecvs_1_1AbstractBuffer.html#ac9b5c7ae6adbc2d21b3d5fd7813992f6" target="_top" xlink:title="Height getter.">
<polygon fill="none" stroke="black" points="206,-40.5 206,-61.5 364,-61.5 364,-40.5 206,-40.5"/>
<text text-anchor="middle" x="285" y="-48.5" font-family="FreeSans.ttf" font-size="10.00">corecvs::AbstractBuffer::getH</text>
</a>
</g>
<!-- Node1&#45;&gt;Node3 -->
<g id="edge4" class="edge"><title>Node1&#45;&gt;Node3</title>
<path fill="none" stroke="midnightblue" d="M161.626,-51C172.796,-51 184.324,-51 195.642,-51"/>
<polygon fill="midnightblue" stroke="midnightblue" points="195.96,-54.5001 205.959,-51 195.959,-47.5001 195.96,-54.5001"/>
</g>
<!-- Node4 -->
<g id="node7" class="node"><title>Node4</title>
<a xlink:href="classcorecvs_1_1AbstractBuffer.html#a014b2b876125245234f7fcb13c6d02e9" target="_top" xlink:title="Width getter.">
<polygon fill="none" stroke="black" points="206,-0.5 206,-21.5 364,-21.5 364,-0.5 206,-0.5"/>
<text text-anchor="middle" x="285" y="-8.5" font-family="FreeSans.ttf" font-size="10.00">corecvs::AbstractBuffer::getW</text>
</a>
</g>
<!-- Node1&#45;&gt;Node4 -->
<g id="edge6" class="edge"><title>Node1&#45;&gt;Node4</title>
<path fill="none" stroke="midnightblue" d="M134.599,-40.4905C161.199,-35.2748 193.516,-28.9381 221.366,-23.4773"/>
<polygon fill="midnightblue" stroke="midnightblue" points="222.266,-26.8675 231.406,-21.5087 220.919,-19.9983 222.266,-26.8675"/>
</g>
</g>
</svg>
