<?xml version="1.0" encoding="UTF-8" standalone="no"?>
<!DOCTYPE svg PUBLIC "-//W3C//DTD SVG 1.1//EN"
 "http://www.w3.org/Graphics/SVG/1.1/DTD/svg11.dtd">
<!-- Generated by graphviz version 2.26.3 (20100126.1600)
 -->
<!-- Title: G Pages: 1 -->
<!--zoomable 510 -->
<svg id="main" version="1.1" xmlns="http://www.w3.org/2000/svg" xmlns:xlink="http://www.w3.org/1999/xlink" xml:space="preserve" onload="init(evt)">
        <defs>
                <circle id="rim" cx="0" cy="0" r="7"/>
                <circle id="rim2" cx="0" cy="0" r="3.5"/>
                <g id="zoomPlus">
                        <use xlink:href="#rim" fill="#404040">
                                <set attributeName="fill" to="#808080" begin="zoomplus.mouseover" end="zoomplus.mouseout"/>
                        </use>
                        <path d="M-4,0h8M0,-4v8" fill="none" stroke="white" stroke-width="1.5" pointer-events="none"/>
                </g>
                <g id="zoomMin">
                        <use xlink:href="#rim" fill="#404040">
                                <set attributeName="fill" to="#808080" begin="zoomminus.mouseover" end="zoomminus.mouseout"/>
                        </use>
                        <path d="M-4,0h8" fill="none" stroke="white" stroke-width="1.5" pointer-events="none"/>
                </g>
                <g id="dirArrow">
                        <path fill="none" stroke="white" stroke-width="1.5" d="M0,-3.0v7 M-2.5,-0.5L0,-3.0L2.5,-0.5"/>
                </g>
               <g id="resetDef">
                       <use xlink:href="#rim2" fill="#404040">
                               <set attributeName="fill" to="#808080" begin="reset.mouseover" end="reset.mouseout"/>
                       </use>
               </g>
        </defs>

<script type="text/javascript">
var viewWidth = 872;
var viewHeight = 510;
var sectionId = 'dynsection-5';
</script>
<script xlink:href="svgpan.js"/>
<svg id="graph" class="graph">
<g id="viewport">
<title>G</title>
<!-- Node1 -->
<g id="node1" class="node"><title>Node1</title>
<polygon fill="#bfbfbf" stroke="black" points="0,-380.5 0,-401.5 264,-401.5 264,-380.5 0,-380.5"/>
<text text-anchor="middle" x="132" y="-388.5" font-family="FreeSans.ttf" font-size="10.00">Draw3dParametersControlWidget::loadParamWidget</text>
</g>
<!-- Node2 -->
<g id="node3" class="node"><title>Node2</title>
<a xlink:href="classDraw3dParametersControlWidget.html#a8cca4c7cf1c95f03d8e1028d5f693495" target="_top" xlink:title="Draw3dParametersControlWidget::createParameters">
<polygon fill="none" stroke="black" points="300.5,-420.5 300.5,-441.5 567.5,-441.5 567.5,-420.5 300.5,-420.5"/>
<text text-anchor="middle" x="434" y="-428.5" font-family="FreeSans.ttf" font-size="10.00">Draw3dParametersControlWidget::createParameters</text>
</a>
</g>
<!-- Node1&#45;&gt;Node2 -->
<g id="edge2" class="edge"><title>Node1&#45;&gt;Node2</title>
<path fill="none" stroke="midnightblue" d="M211.347,-401.51C252.28,-406.931 302.358,-413.564 344.647,-419.165"/>
<polygon fill="midnightblue" stroke="midnightblue" points="344.286,-422.648 354.659,-420.491 345.205,-415.708 344.286,-422.648"/>
</g>
<!-- Node3 -->
<g id="node5" class="node"><title>Node3</title>
<a xlink:href="classWidgetLoader.html#af26226b345e783f1a39c28dcdfed26c8" target="_top" xlink:title="WidgetLoader::loadParameters">
<polygon fill="none" stroke="black" points="352,-380.5 352,-401.5 516,-401.5 516,-380.5 352,-380.5"/>
<text text-anchor="middle" x="434" y="-388.5" font-family="FreeSans.ttf" font-size="10.00">WidgetLoader::loadParameters</text>
</a>
</g>
<!-- Node1&#45;&gt;Node3 -->
<g id="edge4" class="edge"><title>Node1&#45;&gt;Node3</title>
<path fill="none" stroke="midnightblue" d="M264.022,-391C290.131,-391 317.01,-391 341.467,-391"/>
<polygon fill="midnightblue" stroke="midnightblue" points="341.792,-394.5 351.792,-391 341.792,-387.5 341.792,-394.5"/>
</g>
<!-- Node5 -->
<g id="node9" class="node"><title>Node5</title>
<a xlink:href="classDraw3dParametersControlWidget.html#a0afe3abb66ba95f8c0ac40a453a91163" target="_top" xlink:title="Draw3dParametersControlWidget::setParameters">
<polygon fill="none" stroke="black" points="308.5,-240.5 308.5,-261.5 559.5,-261.5 559.5,-240.5 308.5,-240.5"/>
<text text-anchor="middle" x="434" y="-248.5" font-family="FreeSans.ttf" font-size="10.00">Draw3dParametersControlWidget::setParameters</text>
</a>
</g>
<!-- Node1&#45;&gt;Node5 -->
<g id="edge8" class="edge"><title>Node1&#45;&gt;Node5</title>
<path fill="none" stroke="midnightblue" d="M154.699,-380.477C207.824,-355.85 340.384,-294.398 401.812,-265.921"/>
<polygon fill="midnightblue" stroke="midnightblue" points="403.437,-269.026 411.038,-261.645 400.493,-262.675 403.437,-269.026"/>
</g>
<!-- Node4 -->
<g id="node7" class="node"><title>Node4</title>
<a xlink:href="classSettingsGetter.html#ad816b845b4cfc8323d3d559a0f6a13ae" target="_top" xlink:title="SettingsGetter::settings">
<polygon fill="none" stroke="black" points="668.5,-480.5 668.5,-501.5 799.5,-501.5 799.5,-480.5 668.5,-480.5"/>
<text text-anchor="middle" x="734" y="-488.5" font-family="FreeSans.ttf" font-size="10.00">SettingsGetter::settings</text>
</a>
</g>
<!-- Node3&#45;&gt;Node4 -->
<g id="edge6" class="edge"><title>Node3&#45;&gt;Node4</title>
<path fill="none" stroke="midnightblue" d="M516.139,-391.773C534.35,-394.964 552.747,-400.804 568,-411 593.854,-428.283 578.185,-453.659 604,-471 619.907,-481.685 639.354,-487.515 658.312,-490.523"/>
<polygon fill="midnightblue" stroke="midnightblue" points="658.086,-494.024 668.462,-491.883 659.016,-487.086 658.086,-494.024"/>
</g>
<!-- Node6 -->
<g id="node11" class="node"><title>Node6</title>
<a xlink:href="classDraw3dParameters.html#a8a72b5514e9f892c0255c276c5491f0e" target="_top" xlink:title="Draw3dParameters::style">
<polygon fill="none" stroke="black" points="665.5,-440.5 665.5,-461.5 802.5,-461.5 802.5,-440.5 665.5,-440.5"/>
<text text-anchor="middle" x="734" y="-448.5" font-family="FreeSans.ttf" font-size="10.00">Draw3dParameters::style</text>
</a>
</g>
<!-- Node5&#45;&gt;Node6 -->
<g id="edge10" class="edge"><title>Node5&#45;&gt;Node6</title>
<path fill="none" stroke="midnightblue" d="M448.592,-261.694C474.702,-281.312 530.211,-325.255 568,-371 587.806,-394.976 578.185,-413.659 604,-431 619.114,-441.153 637.424,-446.921 655.473,-450.052"/>
<polygon fill="midnightblue" stroke="midnightblue" points="655.047,-453.527 665.452,-451.53 656.073,-446.602 655.047,-453.527"/>
</g>
<!-- Node7 -->
<g id="node13" class="node"><title>Node7</title>
<a xlink:href="classDraw3dParameters.html#a5c833963f4b9b36ce3e7648f4a5a901f" target="_top" xlink:title="Draw3dParameters::color">
<polygon fill="none" stroke="black" points="665.5,-400.5 665.5,-421.5 802.5,-421.5 802.5,-400.5 665.5,-400.5"/>
<text text-anchor="middle" x="734" y="-408.5" font-family="FreeSans.ttf" font-size="10.00">Draw3dParameters::color</text>
</a>
</g>
<!-- Node5&#45;&gt;Node7 -->
<g id="edge12" class="edge"><title>Node5&#45;&gt;Node7</title>
<path fill="none" stroke="midnightblue" d="M445.399,-261.774C477.301,-291.695 567.531,-374.679 604,-391 619.855,-398.096 637.767,-402.74 655.112,-405.764"/>
<polygon fill="midnightblue" stroke="midnightblue" points="654.816,-409.26 665.239,-407.363 655.908,-402.346 654.816,-409.26"/>
</g>
<!-- Node8 -->
<g id="node15" class="node"><title>Node8</title>
<a xlink:href="classDraw3dParameters.html#aa04119ab6f6f7080a3fe0c674ee1d18d" target="_top" xlink:title="Draw3dParameters::secondaryColor">
<polygon fill="none" stroke="black" points="640,-360.5 640,-381.5 828,-381.5 828,-360.5 640,-360.5"/>
<text text-anchor="middle" x="734" y="-368.5" font-family="FreeSans.ttf" font-size="10.00">Draw3dParameters::secondaryColor</text>
</a>
</g>
<!-- Node5&#45;&gt;Node8 -->
<g id="edge14" class="edge"><title>Node5&#45;&gt;Node8</title>
<path fill="none" stroke="midnightblue" d="M447.643,-261.511C475.388,-282.301 541.1,-328.595 604,-351 612.283,-353.951 621.016,-356.466 629.876,-358.61"/>
<polygon fill="midnightblue" stroke="midnightblue" points="629.39,-362.089 639.916,-360.877 630.932,-355.261 629.39,-362.089"/>
</g>
<!-- Node9 -->
<g id="node17" class="node"><title>Node9</title>
<a xlink:href="classDraw3dParameters.html#ad3cd20efc1c9bbd1ea6f9ba3ed73c9dc" target="_top" xlink:title="Draw3dParameters::textureCorrodinates">
<polygon fill="none" stroke="black" points="629,-320.5 629,-341.5 839,-341.5 839,-320.5 629,-320.5"/>
<text text-anchor="middle" x="734" y="-328.5" font-family="FreeSans.ttf" font-size="10.00">Draw3dParameters::textureCorrodinates</text>
</a>
</g>
<!-- Node5&#45;&gt;Node9 -->
<g id="edge16" class="edge"><title>Node5&#45;&gt;Node9</title>
<path fill="none" stroke="midnightblue" d="M459.177,-261.558C491.969,-274.918 551.332,-297.777 604,-311 615.709,-313.94 628.126,-316.518 640.459,-318.759"/>
<polygon fill="midnightblue" stroke="midnightblue" points="639.863,-322.208 650.317,-320.484 641.07,-315.313 639.863,-322.208"/>
</g>
<!-- Node10 -->
<g id="node19" class="node"><title>Node10</title>
<a xlink:href="classDraw3dParameters.html#a0ff2e78739545e90ed14f2f7717e8c1e" target="_top" xlink:title="Draw3dParameters::textureAlpha">
<polygon fill="none" stroke="black" points="646,-280.5 646,-301.5 822,-301.5 822,-280.5 646,-280.5"/>
<text text-anchor="middle" x="734" y="-288.5" font-family="FreeSans.ttf" font-size="10.00">Draw3dParameters::textureAlpha</text>
</a>
</g>
<!-- Node5&#45;&gt;Node10 -->
<g id="edge18" class="edge"><title>Node5&#45;&gt;Node10</title>
<path fill="none" stroke="midnightblue" d="M512.821,-261.51C553.483,-266.931 603.229,-273.564 645.239,-279.165"/>
<polygon fill="midnightblue" stroke="midnightblue" points="644.81,-282.639 655.185,-280.491 645.735,-275.7 644.81,-282.639"/>
</g>
<!-- Node11 -->
<g id="node21" class="node"><title>Node11</title>
<a xlink:href="classDraw3dParameters.html#acb49e53484211e3a8d0379e4e31d9907" target="_top" xlink:title="Draw3dParameters::textureScale">
<polygon fill="none" stroke="black" points="646.5,-240.5 646.5,-261.5 821.5,-261.5 821.5,-240.5 646.5,-240.5"/>
<text text-anchor="middle" x="734" y="-248.5" font-family="FreeSans.ttf" font-size="10.00">Draw3dParameters::textureScale</text>
</a>
</g>
<!-- Node5&#45;&gt;Node11 -->
<g id="edge20" class="edge"><title>Node5&#45;&gt;Node11</title>
<path fill="none" stroke="midnightblue" d="M559.923,-251C585.318,-251 611.659,-251 635.93,-251"/>
<polygon fill="midnightblue" stroke="midnightblue" points="636.196,-254.5 646.196,-251 636.196,-247.5 636.196,-254.5"/>
</g>
<!-- Node12 -->
<g id="node23" class="node"><title>Node12</title>
<a xlink:href="classDraw3dParameters.html#af81a04a61abba3640d888e121e3c4f4c" target="_top" xlink:title="Draw3dParameters::decalMatrixType">
<polygon fill="none" stroke="black" points="639,-200.5 639,-221.5 829,-221.5 829,-200.5 639,-200.5"/>
<text text-anchor="middle" x="734" y="-208.5" font-family="FreeSans.ttf" font-size="10.00">Draw3dParameters::decalMatrixType</text>
</a>
</g>
<!-- Node5&#45;&gt;Node12 -->
<g id="edge22" class="edge"><title>Node5&#45;&gt;Node12</title>
<path fill="none" stroke="midnightblue" d="M512.821,-240.49C553.483,-235.069 603.229,-228.436 645.239,-222.835"/>
<polygon fill="midnightblue" stroke="midnightblue" points="645.735,-226.3 655.185,-221.509 644.81,-219.361 645.735,-226.3"/>
</g>
<!-- Node13 -->
<g id="node25" class="node"><title>Node13</title>
<a xlink:href="classDraw3dParameters.html#afee5bbe4f89307b91fee544c03151fbd" target="_top" xlink:title="Draw3dParameters::decalLeftCam">
<polygon fill="none" stroke="black" points="644,-160.5 644,-181.5 824,-181.5 824,-160.5 644,-160.5"/>
<text text-anchor="middle" x="734" y="-168.5" font-family="FreeSans.ttf" font-size="10.00">Draw3dParameters::decalLeftCam</text>
</a>
</g>
<!-- Node5&#45;&gt;Node13 -->
<g id="edge24" class="edge"><title>Node5&#45;&gt;Node13</title>
<path fill="none" stroke="midnightblue" d="M459.177,-240.442C491.969,-227.082 551.332,-204.223 604,-191 615.709,-188.06 628.126,-185.482 640.459,-183.241"/>
<polygon fill="midnightblue" stroke="midnightblue" points="641.07,-186.687 650.317,-181.516 639.863,-179.792 641.07,-186.687"/>
</g>
<!-- Node14 -->
<g id="node27" class="node"><title>Node14</title>
<a xlink:href="classDraw3dParameters.html#a906711a978ad0e6812137d127f8440c1" target="_top" xlink:title="Draw3dParameters::decalLeftAlpha">
<polygon fill="none" stroke="black" points="641.5,-120.5 641.5,-141.5 826.5,-141.5 826.5,-120.5 641.5,-120.5"/>
<text text-anchor="middle" x="734" y="-128.5" font-family="FreeSans.ttf" font-size="10.00">Draw3dParameters::decalLeftAlpha</text>
</a>
</g>
<!-- Node5&#45;&gt;Node14 -->
<g id="edge26" class="edge"><title>Node5&#45;&gt;Node14</title>
<path fill="none" stroke="midnightblue" d="M447.643,-240.489C475.388,-219.699 541.1,-173.405 604,-151 612.781,-147.872 622.067,-145.233 631.473,-143.007"/>
<polygon fill="midnightblue" stroke="midnightblue" points="632.295,-146.41 641.304,-140.833 630.784,-139.575 632.295,-146.41"/>
</g>
<!-- Node15 -->
<g id="node29" class="node"><title>Node15</title>
<a xlink:href="classDraw3dParameters.html#ad7d221b0caa355d14c2b5c2e9bcaa0b8" target="_top" xlink:title="Draw3dParameters::decalRightCam">
<polygon fill="none" stroke="black" points="641,-80.5 641,-101.5 827,-101.5 827,-80.5 641,-80.5"/>
<text text-anchor="middle" x="734" y="-88.5" font-family="FreeSans.ttf" font-size="10.00">Draw3dParameters::decalRightCam</text>
</a>
</g>
<!-- Node5&#45;&gt;Node15 -->
<g id="edge28" class="edge"><title>Node5&#45;&gt;Node15</title>
<path fill="none" stroke="midnightblue" d="M443.035,-240.357C466.482,-213.532 532.458,-143.016 604,-111 612.586,-107.158 621.774,-104.034 631.149,-101.498"/>
<polygon fill="midnightblue" stroke="midnightblue" points="632.106,-104.866 640.969,-99.061 630.42,-98.0724 632.106,-104.866"/>
</g>
<!-- Node16 -->
<g id="node31" class="node"><title>Node16</title>
<a xlink:href="classDraw3dParameters.html#aa64f1a231d397ed0d7b9fe9a3cea1efa" target="_top" xlink:title="Draw3dParameters::decalRightAlpha">
<polygon fill="none" stroke="black" points="638.5,-40.5 638.5,-61.5 829.5,-61.5 829.5,-40.5 638.5,-40.5"/>
<text text-anchor="middle" x="734" y="-48.5" font-family="FreeSans.ttf" font-size="10.00">Draw3dParameters::decalRightAlpha</text>
</a>
</g>
<!-- Node5&#45;&gt;Node16 -->
<g id="edge30" class="edge"><title>Node5&#45;&gt;Node16</title>
<path fill="none" stroke="midnightblue" d="M440.467,-240.177C460.279,-208.098 523.692,-113.147 604,-71 611.713,-66.9523 620.013,-63.6667 628.555,-61.0061"/>
<polygon fill="midnightblue" stroke="midnightblue" points="629.61,-64.3452 638.283,-58.2604 627.708,-57.6084 629.61,-64.3452"/>
</g>
<!-- Node17 -->
<g id="node33" class="node"><title>Node17</title>
<a xlink:href="classDraw3dParametersControlWidget.html#ad40f149390324e16d7d5fc481ce5343f" target="_top" xlink:title="Draw3dParametersControlWidget::paramsChanged">
<polygon fill="none" stroke="black" points="604,-0.5 604,-21.5 864,-21.5 864,-0.5 604,-0.5"/>
<text text-anchor="middle" x="734" y="-8.5" font-family="FreeSans.ttf" font-size="10.00">Draw3dParametersControlWidget::paramsChanged</text>
</a>
</g>
<!-- Node5&#45;&gt;Node17 -->
<g id="edge32" class="edge"><title>Node5&#45;&gt;Node17</title>
<path fill="none" stroke="midnightblue" d="M438.576,-240.444C454.909,-204.17 514.19,-83.957 604,-31 607.442,-28.9703 611.021,-27.1246 614.703,-25.4472"/>
<polygon fill="midnightblue" stroke="midnightblue" points="616.12,-28.649 624.043,-21.6157 613.463,-22.1726 616.12,-28.649"/>
</g>
</g>
</svg>
        <g id="navigator" transform="translate(0 0)" fill="#404254">
                <rect fill="#f2f5e9" fill-opacity="0.5" stroke="#606060" stroke-width=".5" x="0" y="0" width="60" height="60"/>
                <use id="zoomplus" xlink:href="#zoomPlus" x="17" y="9" onmousedown="handleZoom(evt,'in')"/>
                <use id="zoomminus" xlink:href="#zoomMin" x="42" y="9" onmousedown="handleZoom(evt,'out')"/>
                <use id="reset" xlink:href="#resetDef" x="30" y="36" onmousedown="handleReset()"/>
                <g id="arrowUp" xlink:href="#dirArrow" transform="translate(30 24)" onmousedown="handlePan(0,-1)">
                  <use xlink:href="#rim" fill="#404040">
                        <set attributeName="fill" to="#808080" begin="arrowUp.mouseover" end="arrowUp.mouseout"/>
                  </use>
                  <path fill="none" stroke="white" stroke-width="1.5" d="M0,-3.0v7 M-2.5,-0.5L0,-3.0L2.5,-0.5"/>
                </g>
                <g id="arrowRight" xlink:href="#dirArrow" transform="rotate(90) translate(36 -43)" onmousedown="handlePan(1,0)">
                  <use xlink:href="#rim" fill="#404040">
                        <set attributeName="fill" to="#808080" begin="arrowRight.mouseover" end="arrowRight.mouseout"/>
                  </use>
                  <path fill="none" stroke="white" stroke-width="1.5" d="M0,-3.0v7 M-2.5,-0.5L0,-3.0L2.5,-0.5"/>
                </g>
                <g id="arrowDown" xlink:href="#dirArrow" transform="rotate(180) translate(-30 -48)" onmousedown="handlePan(0,1)">
                  <use xlink:href="#rim" fill="#404040">
                        <set attributeName="fill" to="#808080" begin="arrowDown.mouseover" end="arrowDown.mouseout"/>
                  </use>
                  <path fill="none" stroke="white" stroke-width="1.5" d="M0,-3.0v7 M-2.5,-0.5L0,-3.0L2.5,-0.5"/>
                </g>
                <g id="arrowLeft" xlink:href="#dirArrow" transform="rotate(270) translate(-36 17)" onmousedown="handlePan(-1,0)">
                  <use xlink:href="#rim" fill="#404040">
                        <set attributeName="fill" to="#808080" begin="arrowLeft.mouseover" end="arrowLeft.mouseout"/>
                  </use>
                  <path fill="none" stroke="white" stroke-width="1.5" d="M0,-3.0v7 M-2.5,-0.5L0,-3.0L2.5,-0.5"/>
                </g>
        </g>
</svg>
