<?xml version="1.0" encoding="UTF-8" standalone="no"?>
<!DOCTYPE svg PUBLIC "-//W3C//DTD SVG 1.1//EN"
 "http://www.w3.org/Graphics/SVG/1.1/DTD/svg11.dtd">
<!-- Generated by graphviz version 2.26.3 (20100126.1600)
 -->
<!-- Title: G Pages: 1 -->
<svg width="344pt" height="366pt"
 viewBox="0.00 0.00 344.00 366.00" xmlns="http://www.w3.org/2000/svg" xmlns:xlink="http://www.w3.org/1999/xlink">
<g id="graph1" class="graph" transform="scale(1 1) rotate(0) translate(4 362)">
<title>G</title>
<!-- Node1 -->
<g id="node1" class="node"><title>Node1</title>
<polygon fill="#bfbfbf" stroke="black" points="117.5,-0.5 117.5,-21.5 236.5,-21.5 236.5,-0.5 117.5,-0.5"/>
<text text-anchor="middle" x="177" y="-8.5" font-family="FreeSans.ttf" font-size="10.00">Log::MessageInternal</text>
</g>
<!-- Node2 -->
<g id="node2" class="node"><title>Node2</title>
<a xlink:href="classLog.html" target="_top" xlink:title="Class that controls the log.">
<polygon fill="none" stroke="black" points="109,-72.5 109,-93.5 143,-93.5 143,-72.5 109,-72.5"/>
<text text-anchor="middle" x="126" y="-80.5" font-family="FreeSans.ttf" font-size="10.00">Log</text>
</a>
</g>
<!-- Node2&#45;&gt;Node1 -->
<g id="edge2" class="edge"><title>Node2&#45;&gt;Node1</title>
<path fill="none" stroke="#9a32cd" stroke-dasharray="5,2" d="M139.318,-64.1981C148.915,-50.649 161.522,-32.8514 169.444,-21.6674"/>
<polygon fill="#9a32cd" stroke="#9a32cd" points="136.449,-62.1928 133.525,-72.3762 142.162,-66.239 136.449,-62.1928"/>
<text text-anchor="middle" x="171.5" y="-44.5" font-family="FreeSans.ttf" font-size="10.00"> mLog</text>
</g>
<!-- Node3 -->
<g id="node4" class="node"><title>Node3</title>
<polygon fill="none" stroke="#bfbfbf" points="-0.5,-144.5 -0.5,-165.5 140.5,-165.5 140.5,-144.5 -0.5,-144.5"/>
<text text-anchor="middle" x="70" y="-152.5" font-family="FreeSans.ttf" font-size="10.00">std::vector&lt; LogDrain * &gt;</text>
</g>
<!-- Node3&#45;&gt;Node2 -->
<g id="edge4" class="edge"><title>Node3&#45;&gt;Node2</title>
<path fill="none" stroke="#9a32cd" stroke-dasharray="5,2" d="M84.6237,-136.198C95.1619,-122.649 109.004,-104.851 117.703,-93.6674"/>
<polygon fill="#9a32cd" stroke="#9a32cd" points="81.6397,-134.334 78.263,-144.376 87.1652,-138.631 81.6397,-134.334"/>
<text text-anchor="middle" x="134.5" y="-116.5" font-family="FreeSans.ttf" font-size="10.00"> mLogDrains</text>
</g>
<!-- Node4 -->
<g id="node6" class="node"><title>Node4</title>
<a xlink:href="classLogDrain.html" target="_top" xlink:title="Interface class for any logger device that accept messages.">
<polygon fill="none" stroke="black" points="40.5,-216.5 40.5,-237.5 99.5,-237.5 99.5,-216.5 40.5,-216.5"/>
<text text-anchor="middle" x="70" y="-224.5" font-family="FreeSans.ttf" font-size="10.00">LogDrain</text>
</a>
</g>
<!-- Node4&#45;&gt;Node3 -->
<g id="edge6" class="edge"><title>Node4&#45;&gt;Node3</title>
<path fill="none" stroke="#9a32cd" stroke-dasharray="5,2" d="M70,-206.235C70,-192.969 70,-176.319 70,-165.667"/>
<polygon fill="#9a32cd" stroke="#9a32cd" points="66.5001,-206.376 70,-216.376 73.5001,-206.376 66.5001,-206.376"/>
<text text-anchor="middle" x="94.5" y="-188.5" font-family="FreeSans.ttf" font-size="10.00"> elements</text>
</g>
<!-- Node5 -->
<g id="node8" class="node"><title>Node5</title>
<a xlink:title="STL class.">
<polygon fill="none" stroke="#bfbfbf" points="166.5,-72.5 166.5,-93.5 271.5,-93.5 271.5,-72.5 166.5,-72.5"/>
<text text-anchor="middle" x="219" y="-80.5" font-family="FreeSans.ttf" font-size="10.00">std::ostringstream</text>
</a>
</g>
<!-- Node5&#45;&gt;Node1 -->
<g id="edge8" class="edge"><title>Node5&#45;&gt;Node1</title>
<path fill="none" stroke="#9a32cd" stroke-dasharray="5,2" d="M207.578,-63.4193C199.734,-49.9734 189.622,-32.6384 183.223,-21.6674"/>
<polygon fill="#9a32cd" stroke="#9a32cd" points="204.741,-65.5019 212.803,-72.3762 210.787,-61.9748 204.741,-65.5019"/>
<text text-anchor="middle" x="205.5" y="-44.5" font-family="FreeSans.ttf" font-size="10.00"> s</text>
</g>
<!-- Node6 -->
<g id="node10" class="node"><title>Node6</title>
<a xlink:title="STL class.">
<polygon fill="none" stroke="#bfbfbf" points="157.5,-144.5 157.5,-165.5 336.5,-165.5 336.5,-144.5 157.5,-144.5"/>
<text text-anchor="middle" x="247" y="-152.5" font-family="FreeSans.ttf" font-size="10.00">std::basic_ostringstream&lt; char &gt;</text>
</a>
</g>
<!-- Node6&#45;&gt;Node5 -->
<g id="edge10" class="edge"><title>Node6&#45;&gt;Node5</title>
<path fill="none" stroke="midnightblue" d="M239.233,-135.027C234.026,-121.637 227.373,-104.532 223.148,-93.6674"/>
<polygon fill="midnightblue" stroke="midnightblue" points="235.982,-136.325 242.869,-144.376 242.506,-133.788 235.982,-136.325"/>
</g>
<!-- Node7 -->
<g id="node12" class="node"><title>Node7</title>
<a xlink:title="STL class.">
<polygon fill="none" stroke="#bfbfbf" points="170.5,-216.5 170.5,-237.5 323.5,-237.5 323.5,-216.5 170.5,-216.5"/>
<text text-anchor="middle" x="247" y="-224.5" font-family="FreeSans.ttf" font-size="10.00">std::basic_ostream&lt; Char &gt;</text>
</a>
</g>
<!-- Node7&#45;&gt;Node6 -->
<g id="edge12" class="edge"><title>Node7&#45;&gt;Node6</title>
<path fill="none" stroke="midnightblue" d="M247,-206.235C247,-192.969 247,-176.319 247,-165.667"/>
<polygon fill="midnightblue" stroke="midnightblue" points="243.5,-206.376 247,-216.376 250.5,-206.376 243.5,-206.376"/>
</g>
<!-- Node8 -->
<g id="node14" class="node"><title>Node8</title>
<a xlink:title="STL class.">
<polygon fill="none" stroke="#bfbfbf" points="184,-276.5 184,-297.5 310,-297.5 310,-276.5 184,-276.5"/>
<text text-anchor="middle" x="247" y="-284.5" font-family="FreeSans.ttf" font-size="10.00">std::basic_ios&lt; Char &gt;</text>
</a>
</g>
<!-- Node8&#45;&gt;Node7 -->
<g id="edge14" class="edge"><title>Node8&#45;&gt;Node7</title>
<path fill="none" stroke="midnightblue" d="M247,-266.231C247,-256.592 247,-245.544 247,-237.634"/>
<polygon fill="midnightblue" stroke="midnightblue" points="243.5,-266.273 247,-276.273 250.5,-266.273 243.5,-266.273"/>
</g>
<!-- Node9 -->
<g id="node16" class="node"><title>Node9</title>
<a xlink:title="STL class.">
<polygon fill="none" stroke="#bfbfbf" points="207,-336.5 207,-357.5 287,-357.5 287,-336.5 207,-336.5"/>
<text text-anchor="middle" x="247" y="-344.5" font-family="FreeSans.ttf" font-size="10.00">std::ios_base</text>
</a>
</g>
<!-- Node9&#45;&gt;Node8 -->
<g id="edge16" class="edge"><title>Node9&#45;&gt;Node8</title>
<path fill="none" stroke="midnightblue" d="M247,-326.231C247,-316.592 247,-305.544 247,-297.634"/>
<polygon fill="midnightblue" stroke="midnightblue" points="243.5,-326.273 247,-336.273 250.5,-326.273 243.5,-326.273"/>
</g>
</g>
</svg>
