<?xml version="1.0" encoding="UTF-8" standalone="no"?>
<!DOCTYPE svg PUBLIC "-//W3C//DTD SVG 1.1//EN"
 "http://www.w3.org/Graphics/SVG/1.1/DTD/svg11.dtd">
<!-- Generated by graphviz version 2.26.3 (20100126.1600)
 -->
<!-- Title: G Pages: 1 -->
<svg width="424pt" height="70pt"
 viewBox="0.00 0.00 424.00 70.00" xmlns="http://www.w3.org/2000/svg" xmlns:xlink="http://www.w3.org/1999/xlink">
<g id="graph1" class="graph" transform="scale(1 1) rotate(0) translate(4 66)">
<title>G</title>
<!-- Node1 -->
<g id="node1" class="node"><title>Node1</title>
<polygon fill="#bfbfbf" stroke="black" points="0,-20.5 0,-41.5 194,-41.5 194,-20.5 0,-20.5"/>
<text text-anchor="middle" x="97" y="-28.5" font-family="FreeSans.ttf" font-size="10.00">tinyxml2::XMLHandle::PreviousSibling</text>
</g>
<!-- Node2 -->
<g id="node3" class="node"><title>Node2</title>
<a xlink:href="classtinyxml2_1_1XMLNode.html#a4cb1bf63e9de55129d21a7be60685fd4" target="_top" xlink:title="Get the previous (left) sibling node of this node.">
<polygon fill="none" stroke="black" points="230,-40.5 230,-61.5 416,-61.5 416,-40.5 230,-40.5"/>
<text text-anchor="middle" x="323" y="-48.5" font-family="FreeSans.ttf" font-size="10.00">tinyxml2::XMLNode::PreviousSibling</text>
</a>
</g>
<!-- Node1&#45;&gt;Node2 -->
<g id="edge2" class="edge"><title>Node1&#45;&gt;Node2</title>
<path fill="none" stroke="midnightblue" d="M194.156,-39.5979C202.669,-40.3512 211.304,-41.1154 219.863,-41.8729"/>
<polygon fill="midnightblue" stroke="midnightblue" points="219.595,-45.3627 229.864,-42.7579 220.212,-38.3899 219.595,-45.3627"/>
</g>
<!-- Node3 -->
<g id="node5" class="node"><title>Node3</title>
<a xlink:href="classtinyxml2_1_1XMLHandle.html#a9c240a35c18f053509b4b97ddccd9793" target="_top" xlink:title="Create a handle from any node (at any depth of the tree.) This can be a null pointer.">
<polygon fill="none" stroke="black" points="235,-0.5 235,-21.5 411,-21.5 411,-0.5 235,-0.5"/>
<text text-anchor="middle" x="323" y="-8.5" font-family="FreeSans.ttf" font-size="10.00">tinyxml2::XMLHandle::XMLHandle</text>
</a>
</g>
<!-- Node1&#45;&gt;Node3 -->
<g id="edge4" class="edge"><title>Node1&#45;&gt;Node3</title>
<path fill="none" stroke="midnightblue" d="M194.156,-22.4021C204.295,-21.5049 214.608,-20.5922 224.759,-19.6939"/>
<polygon fill="midnightblue" stroke="midnightblue" points="225.191,-23.1694 234.844,-18.8014 224.574,-16.1967 225.191,-23.1694"/>
</g>
</g>
</svg>
