<?xml version="1.0" encoding="UTF-8" standalone="no"?>
<!DOCTYPE svg PUBLIC "-//W3C//DTD SVG 1.1//EN"
 "http://www.w3.org/Graphics/SVG/1.1/DTD/svg11.dtd">
<!-- Generated by graphviz version 2.26.3 (20100126.1600)
 -->
<!-- Title: G Pages: 1 -->
<svg width="430pt" height="70pt"
 viewBox="0.00 0.00 430.00 70.00" xmlns="http://www.w3.org/2000/svg" xmlns:xlink="http://www.w3.org/1999/xlink">
<g id="graph1" class="graph" transform="scale(1 1) rotate(0) translate(4 66)">
<title>G</title>
<!-- Node1 -->
<g id="node1" class="node"><title>Node1</title>
<polygon fill="#bfbfbf" stroke="black" points="0,-20.5 0,-41.5 208,-41.5 208,-20.5 0,-20.5"/>
<text text-anchor="middle" x="104" y="-28.5" font-family="FreeSans.ttf" font-size="10.00">tinyxml2::XMLNode::NextSiblingElement</text>
</g>
<!-- Node2 -->
<g id="node3" class="node"><title>Node2</title>
<a xlink:href="classtinyxml2_1_1XMLUtil.html#acfcd287cacfd2533e1bc9ea4dfb56602" target="_top" xlink:title="tinyxml2::XMLUtil::StringEqual">
<polygon fill="none" stroke="black" points="254,-40.5 254,-61.5 412,-61.5 412,-40.5 254,-40.5"/>
<text text-anchor="middle" x="333" y="-48.5" font-family="FreeSans.ttf" font-size="10.00">tinyxml2::XMLUtil::StringEqual</text>
</a>
</g>
<!-- Node1&#45;&gt;Node2 -->
<g id="edge2" class="edge"><title>Node1&#45;&gt;Node2</title>
<path fill="none" stroke="midnightblue" d="M208.114,-40.0929C219.994,-41.1304 232.024,-42.1811 243.687,-43.1997"/>
<polygon fill="midnightblue" stroke="midnightblue" points="243.563,-46.7021 253.829,-44.0855 244.172,-39.7286 243.563,-46.7021"/>
</g>
<!-- Node3 -->
<g id="node5" class="node"><title>Node3</title>
<a xlink:href="classtinyxml2_1_1XMLElement.html#ad9ff5c2dbc15df36cf664ce1b0ea0a5d" target="_top" xlink:title="Safely cast to an Element, or null.">
<polygon fill="none" stroke="black" points="244,-0.5 244,-21.5 422,-21.5 422,-0.5 244,-0.5"/>
<text text-anchor="middle" x="333" y="-8.5" font-family="FreeSans.ttf" font-size="10.00">tinyxml2::XMLElement::ToElement</text>
</a>
</g>
<!-- Node1&#45;&gt;Node3 -->
<g id="edge4" class="edge"><title>Node1&#45;&gt;Node3</title>
<path fill="none" stroke="midnightblue" d="M208.114,-21.9071C216.598,-21.1661 225.158,-20.4185 233.607,-19.6806"/>
<polygon fill="midnightblue" stroke="midnightblue" points="234.187,-23.1434 243.845,-18.7865 233.578,-16.1699 234.187,-23.1434"/>
</g>
</g>
</svg>
