<?xml version="1.0" encoding="UTF-8" standalone="no"?>
<!DOCTYPE svg PUBLIC "-//W3C//DTD SVG 1.1//EN"
 "http://www.w3.org/Graphics/SVG/1.1/DTD/svg11.dtd">
<!-- Generated by graphviz version 2.26.3 (20100126.1600)
 -->
<!-- Title: G Pages: 1 -->
<svg width="184pt" height="146pt"
 viewBox="0.00 0.00 184.00 146.00" xmlns="http://www.w3.org/2000/svg" xmlns:xlink="http://www.w3.org/1999/xlink">
<g id="graph1" class="graph" transform="scale(1 1) rotate(0) translate(4 142)">
<title>G</title>
<!-- Node1 -->
<g id="node1" class="node"><title>Node1</title>
<polygon fill="#bfbfbf" stroke="black" points="54.5,-0.5 54.5,-21.5 139.5,-21.5 139.5,-0.5 54.5,-0.5"/>
<text text-anchor="middle" x="97" y="-8.5" font-family="FreeSans.ttf" font-size="10.00">CameraScene</text>
</g>
<!-- Node2 -->
<g id="node2" class="node"><title>Node2</title>
<a xlink:href="classMesh3DScene.html" target="_top" xlink:title="Mesh3DScene">
<polygon fill="none" stroke="black" points="54,-58.5 54,-79.5 140,-79.5 140,-58.5 54,-58.5"/>
<text text-anchor="middle" x="97" y="-66.5" font-family="FreeSans.ttf" font-size="10.00">Mesh3DScene</text>
</a>
</g>
<!-- Node2&#45;&gt;Node1 -->
<g id="edge2" class="edge"><title>Node2&#45;&gt;Node1</title>
<path fill="none" stroke="midnightblue" d="M97,-48.1906C97,-39.1684 97,-28.9941 97,-21.5707"/>
<polygon fill="midnightblue" stroke="midnightblue" points="93.5001,-48.3619 97,-58.3619 100.5,-48.3619 93.5001,-48.3619"/>
</g>
<!-- Node3 -->
<g id="node4" class="node"><title>Node3</title>
<a xlink:href="classcorecvs_1_1Mesh3D.html" target="_top" xlink:title="corecvs::Mesh3D">
<polygon fill="none" stroke="black" points="0,-116.5 0,-137.5 98,-137.5 98,-116.5 0,-116.5"/>
<text text-anchor="middle" x="49" y="-124.5" font-family="FreeSans.ttf" font-size="10.00">corecvs::Mesh3D</text>
</a>
</g>
<!-- Node3&#45;&gt;Node2 -->
<g id="edge4" class="edge"><title>Node3&#45;&gt;Node2</title>
<path fill="none" stroke="midnightblue" d="M64.2767,-108.541C72.1902,-98.9786 81.5683,-87.6467 88.2519,-79.5707"/>
<polygon fill="midnightblue" stroke="midnightblue" points="61.4833,-106.426 57.8039,-116.362 66.876,-110.889 61.4833,-106.426"/>
</g>
<!-- Node4 -->
<g id="node6" class="node"><title>Node4</title>
<a xlink:href="classScene3D.html" target="_top" xlink:title="Part of the hierarchically displayable scene.">
<polygon fill="none" stroke="black" points="116,-116.5 116,-137.5 176,-137.5 176,-116.5 116,-116.5"/>
<text text-anchor="middle" x="146" y="-124.5" font-family="FreeSans.ttf" font-size="10.00">Scene3D</text>
</a>
</g>
<!-- Node4&#45;&gt;Node2 -->
<g id="edge6" class="edge"><title>Node4&#45;&gt;Node2</title>
<path fill="none" stroke="midnightblue" d="M130.405,-108.541C122.327,-98.9786 112.753,-87.6467 105.93,-79.5707"/>
<polygon fill="midnightblue" stroke="midnightblue" points="127.885,-110.982 137.013,-116.362 133.233,-106.464 127.885,-110.982"/>
</g>
</g>
</svg>
