<?xml version="1.0" encoding="UTF-8" standalone="no"?>
<!DOCTYPE svg PUBLIC "-//W3C//DTD SVG 1.1//EN"
 "http://www.w3.org/Graphics/SVG/1.1/DTD/svg11.dtd">
<!-- Generated by graphviz version 2.26.3 (20100126.1600)
 -->
<!-- Title: G Pages: 1 -->
<!--zoomable 230 -->
<svg id="main" version="1.1" xmlns="http://www.w3.org/2000/svg" xmlns:xlink="http://www.w3.org/1999/xlink" xml:space="preserve" onload="init(evt)">
        <defs>
                <circle id="rim" cx="0" cy="0" r="7"/>
                <circle id="rim2" cx="0" cy="0" r="3.5"/>
                <g id="zoomPlus">
                        <use xlink:href="#rim" fill="#404040">
                                <set attributeName="fill" to="#808080" begin="zoomplus.mouseover" end="zoomplus.mouseout"/>
                        </use>
                        <path d="M-4,0h8M0,-4v8" fill="none" stroke="white" stroke-width="1.5" pointer-events="none"/>
                </g>
                <g id="zoomMin">
                        <use xlink:href="#rim" fill="#404040">
                                <set attributeName="fill" to="#808080" begin="zoomminus.mouseover" end="zoomminus.mouseout"/>
                        </use>
                        <path d="M-4,0h8" fill="none" stroke="white" stroke-width="1.5" pointer-events="none"/>
                </g>
                <g id="dirArrow">
                        <path fill="none" stroke="white" stroke-width="1.5" d="M0,-3.0v7 M-2.5,-0.5L0,-3.0L2.5,-0.5"/>
                </g>
               <g id="resetDef">
                       <use xlink:href="#rim2" fill="#404040">
                               <set attributeName="fill" to="#808080" begin="reset.mouseover" end="reset.mouseout"/>
                       </use>
               </g>
        </defs>

<script type="text/javascript">
var viewWidth = 704;
var viewHeight = 230;
var sectionId = 'dynsection-2';
</script>
<script xlink:href="svgpan.js"/>
<svg id="graph" class="graph">
<g id="viewport">
<title>G</title>
<!-- Node1 -->
<g id="node1" class="node"><title>Node1</title>
<polygon fill="#bfbfbf" stroke="black" points="0,-100.5 0,-121.5 218,-121.5 218,-100.5 0,-100.5"/>
<text text-anchor="middle" x="109" y="-108.5" font-family="FreeSans.ttf" font-size="10.00">FilterPinPresentation::FilterPinPresentation</text>
</g>
<!-- Node2 -->
<g id="node3" class="node"><title>Node2</title>
<a xlink:href="classDiagramScene.html#ac4ecc61a6914932ec2694857a7e69e1e" target="_top" xlink:title="DiagramScene::addArrow">
<polygon fill="none" stroke="black" points="277.5,-160.5 277.5,-181.5 416.5,-181.5 416.5,-160.5 277.5,-160.5"/>
<text text-anchor="middle" x="347" y="-168.5" font-family="FreeSans.ttf" font-size="10.00">DiagramScene::addArrow</text>
</a>
</g>
<!-- Node1&#45;&gt;Node2 -->
<g id="edge2" class="edge"><title>Node1&#45;&gt;Node2</title>
<path fill="none" stroke="midnightblue" d="M144.901,-121.521C174.153,-129.944 216.591,-141.826 254,-151 264.089,-153.474 274.834,-155.94 285.304,-158.252"/>
<polygon fill="midnightblue" stroke="midnightblue" points="284.712,-161.705 295.228,-160.417 286.204,-154.866 284.712,-161.705"/>
</g>
<!-- Node5 -->
<g id="node9" class="node"><title>Node5</title>
<a xlink:href="classDiagramScene.html#a257ca225f17da914a100cda881b2ea62" target="_top" xlink:title="DiagramScene::diagramItemByPin">
<polygon fill="none" stroke="black" points="256,-120.5 256,-141.5 438,-141.5 438,-120.5 256,-120.5"/>
<text text-anchor="middle" x="347" y="-128.5" font-family="FreeSans.ttf" font-size="10.00">DiagramScene::diagramItemByPin</text>
</a>
</g>
<!-- Node1&#45;&gt;Node5 -->
<g id="edge8" class="edge"><title>Node1&#45;&gt;Node5</title>
<path fill="none" stroke="midnightblue" d="M218.248,-120.181C227.393,-120.949 236.615,-121.724 245.697,-122.487"/>
<polygon fill="midnightblue" stroke="midnightblue" points="245.621,-125.993 255.879,-123.343 246.207,-119.018 245.621,-125.993"/>
</g>
<!-- Node6 -->
<g id="node11" class="node"><title>Node6</title>
<a xlink:href="classFilterPinPresentation.html#a7c2ccb09a8445198a21dacae6436e319" target="_top" xlink:title="FilterPinPresentation::drawPinName">
<polygon fill="none" stroke="black" points="254,-80.5 254,-101.5 440,-101.5 440,-80.5 254,-80.5"/>
<text text-anchor="middle" x="347" y="-88.5" font-family="FreeSans.ttf" font-size="10.00">FilterPinPresentation::drawPinName</text>
</a>
</g>
<!-- Node1&#45;&gt;Node6 -->
<g id="edge10" class="edge"><title>Node1&#45;&gt;Node6</title>
<path fill="none" stroke="midnightblue" d="M218.248,-101.819C226.675,-101.111 235.168,-100.398 243.555,-99.6928"/>
<polygon fill="midnightblue" stroke="midnightblue" points="244.051,-103.164 253.723,-98.8384 243.465,-96.1882 244.051,-103.164"/>
</g>
<!-- Node11 -->
<g id="node21" class="node"><title>Node11</title>
<a xlink:href="classDiagramItem.html#a10b8d32f96044e78fabe17c7b57d5abc" target="_top" xlink:title="DiagramItem::finishInit">
<polygon fill="none" stroke="black" points="284.5,-40.5 284.5,-61.5 409.5,-61.5 409.5,-40.5 284.5,-40.5"/>
<text text-anchor="middle" x="347" y="-48.5" font-family="FreeSans.ttf" font-size="10.00">DiagramItem::finishInit</text>
</a>
</g>
<!-- Node1&#45;&gt;Node11 -->
<g id="edge20" class="edge"><title>Node1&#45;&gt;Node11</title>
<path fill="none" stroke="midnightblue" d="M144.901,-100.479C174.153,-92.0557 216.591,-80.1744 254,-71 264.089,-68.5258 274.834,-66.0601 285.304,-63.748"/>
<polygon fill="midnightblue" stroke="midnightblue" points="286.204,-67.1342 295.228,-61.5831 284.712,-60.295 286.204,-67.1342"/>
</g>
<!-- Node3 -->
<g id="node5" class="node"><title>Node3</title>
<a xlink:href="classDiagramItem.html#a7eea98dfc6ec8956e0fb0e6e440fdcb0" target="_top" xlink:title="DiagramItem::addArrow">
<polygon fill="none" stroke="black" points="520.5,-200.5 520.5,-221.5 651.5,-221.5 651.5,-200.5 520.5,-200.5"/>
<text text-anchor="middle" x="586" y="-208.5" font-family="FreeSans.ttf" font-size="10.00">DiagramItem::addArrow</text>
</a>
</g>
<!-- Node2&#45;&gt;Node3 -->
<g id="edge4" class="edge"><title>Node2&#45;&gt;Node3</title>
<path fill="none" stroke="midnightblue" d="M409.794,-181.51C441.505,-186.817 480.15,-193.285 513.161,-198.809"/>
<polygon fill="midnightblue" stroke="midnightblue" points="512.77,-202.293 523.21,-200.491 513.925,-195.389 512.77,-202.293"/>
</g>
<!-- Node4 -->
<g id="node7" class="node"><title>Node4</title>
<a xlink:href="classArrow.html#ab7e7333a213b0eb310496b6f815e1824" target="_top" xlink:title="Arrow::setColor">
<polygon fill="none" stroke="black" points="541.5,-160.5 541.5,-181.5 630.5,-181.5 630.5,-160.5 541.5,-160.5"/>
<text text-anchor="middle" x="586" y="-168.5" font-family="FreeSans.ttf" font-size="10.00">Arrow::setColor</text>
</a>
</g>
<!-- Node2&#45;&gt;Node4 -->
<g id="edge6" class="edge"><title>Node2&#45;&gt;Node4</title>
<path fill="none" stroke="midnightblue" d="M416.771,-171C453.232,-171 497.209,-171 531.194,-171"/>
<polygon fill="midnightblue" stroke="midnightblue" points="531.401,-174.5 541.401,-171 531.401,-167.5 531.401,-174.5"/>
</g>
<!-- Node7 -->
<g id="node13" class="node"><title>Node7</title>
<a xlink:href="classDiagramScene.html#a73367ec3d54a2a01c927b8f9432e3d45" target="_top" xlink:title="DiagramScene::font">
<polygon fill="none" stroke="black" points="529.5,-120.5 529.5,-141.5 642.5,-141.5 642.5,-120.5 529.5,-120.5"/>
<text text-anchor="middle" x="586" y="-128.5" font-family="FreeSans.ttf" font-size="10.00">DiagramScene::font</text>
</a>
</g>
<!-- Node6&#45;&gt;Node7 -->
<g id="edge12" class="edge"><title>Node6&#45;&gt;Node7</title>
<path fill="none" stroke="midnightblue" d="M409.794,-101.51C443.53,-107.156 485.114,-114.115 519.412,-119.856"/>
<polygon fill="midnightblue" stroke="midnightblue" points="518.901,-123.319 529.341,-121.517 520.056,-116.415 518.901,-123.319"/>
</g>
<!-- Node8 -->
<g id="node15" class="node"><title>Node8</title>
<a xlink:href="classDiagramScene.html#a09373ee7015d49ce7ccd3cd9983193a7" target="_top" xlink:title="DiagramScene::textColor">
<polygon fill="none" stroke="black" points="517.5,-80.5 517.5,-101.5 654.5,-101.5 654.5,-80.5 517.5,-80.5"/>
<text text-anchor="middle" x="586" y="-88.5" font-family="FreeSans.ttf" font-size="10.00">DiagramScene::textColor</text>
</a>
</g>
<!-- Node6&#45;&gt;Node8 -->
<g id="edge14" class="edge"><title>Node6&#45;&gt;Node8</title>
<path fill="none" stroke="midnightblue" d="M440.088,-91C462.265,-91 485.72,-91 507.186,-91"/>
<polygon fill="midnightblue" stroke="midnightblue" points="507.222,-94.5001 517.222,-91 507.222,-87.5001 507.222,-94.5001"/>
</g>
<!-- Node9 -->
<g id="node17" class="node"><title>Node9</title>
<a xlink:href="classFilterPinPresentation.html#ae56bd86978f21f5e9b3d4f8f88bbe174" target="_top" xlink:title="FilterPinPresentation::drawInputPinName">
<polygon fill="none" stroke="black" points="481,-40.5 481,-61.5 691,-61.5 691,-40.5 481,-40.5"/>
<text text-anchor="middle" x="586" y="-48.5" font-family="FreeSans.ttf" font-size="10.00">FilterPinPresentation::drawInputPinName</text>
</a>
</g>
<!-- Node6&#45;&gt;Node9 -->
<g id="edge16" class="edge"><title>Node6&#45;&gt;Node9</title>
<path fill="none" stroke="midnightblue" d="M409.794,-80.4905C441.505,-75.1833 480.15,-68.7154 513.161,-63.1907"/>
<polygon fill="midnightblue" stroke="midnightblue" points="513.925,-66.6115 523.21,-61.5087 512.77,-59.7075 513.925,-66.6115"/>
</g>
<!-- Node10 -->
<g id="node19" class="node"><title>Node10</title>
<a xlink:href="classFilterPinPresentation.html#a406936d4261879e338233d85662a98b1" target="_top" xlink:title="FilterPinPresentation::drawOutputPinName">
<polygon fill="none" stroke="black" points="476.5,-0.5 476.5,-21.5 695.5,-21.5 695.5,-0.5 476.5,-0.5"/>
<text text-anchor="middle" x="586" y="-8.5" font-family="FreeSans.ttf" font-size="10.00">FilterPinPresentation::drawOutputPinName</text>
</a>
</g>
<!-- Node6&#45;&gt;Node10 -->
<g id="edge18" class="edge"><title>Node6&#45;&gt;Node10</title>
<path fill="none" stroke="midnightblue" d="M418.799,-80.3906C426.212,-77.8917 433.426,-74.807 440,-71 460.698,-59.0142 455.113,-42.6534 476,-31 479.969,-28.7857 484.132,-26.8091 488.42,-25.0453"/>
<polygon fill="midnightblue" stroke="midnightblue" points="489.814,-28.2617 497.982,-21.5142 487.389,-21.6951 489.814,-28.2617"/>
</g>
</g>
</svg>
        <g id="navigator" transform="translate(0 0)" fill="#404254">
                <rect fill="#f2f5e9" fill-opacity="0.5" stroke="#606060" stroke-width=".5" x="0" y="0" width="60" height="60"/>
                <use id="zoomplus" xlink:href="#zoomPlus" x="17" y="9" onmousedown="handleZoom(evt,'in')"/>
                <use id="zoomminus" xlink:href="#zoomMin" x="42" y="9" onmousedown="handleZoom(evt,'out')"/>
                <use id="reset" xlink:href="#resetDef" x="30" y="36" onmousedown="handleReset()"/>
                <g id="arrowUp" xlink:href="#dirArrow" transform="translate(30 24)" onmousedown="handlePan(0,-1)">
                  <use xlink:href="#rim" fill="#404040">
                        <set attributeName="fill" to="#808080" begin="arrowUp.mouseover" end="arrowUp.mouseout"/>
                  </use>
                  <path fill="none" stroke="white" stroke-width="1.5" d="M0,-3.0v7 M-2.5,-0.5L0,-3.0L2.5,-0.5"/>
                </g>
                <g id="arrowRight" xlink:href="#dirArrow" transform="rotate(90) translate(36 -43)" onmousedown="handlePan(1,0)">
                  <use xlink:href="#rim" fill="#404040">
                        <set attributeName="fill" to="#808080" begin="arrowRight.mouseover" end="arrowRight.mouseout"/>
                  </use>
                  <path fill="none" stroke="white" stroke-width="1.5" d="M0,-3.0v7 M-2.5,-0.5L0,-3.0L2.5,-0.5"/>
                </g>
                <g id="arrowDown" xlink:href="#dirArrow" transform="rotate(180) translate(-30 -48)" onmousedown="handlePan(0,1)">
                  <use xlink:href="#rim" fill="#404040">
                        <set attributeName="fill" to="#808080" begin="arrowDown.mouseover" end="arrowDown.mouseout"/>
                  </use>
                  <path fill="none" stroke="white" stroke-width="1.5" d="M0,-3.0v7 M-2.5,-0.5L0,-3.0L2.5,-0.5"/>
                </g>
                <g id="arrowLeft" xlink:href="#dirArrow" transform="rotate(270) translate(-36 17)" onmousedown="handlePan(-1,0)">
                  <use xlink:href="#rim" fill="#404040">
                        <set attributeName="fill" to="#808080" begin="arrowLeft.mouseover" end="arrowLeft.mouseout"/>
                  </use>
                  <path fill="none" stroke="white" stroke-width="1.5" d="M0,-3.0v7 M-2.5,-0.5L0,-3.0L2.5,-0.5"/>
                </g>
        </g>
</svg>
