<?xml version="1.0" encoding="UTF-8" standalone="no"?>
<!DOCTYPE svg PUBLIC "-//W3C//DTD SVG 1.1//EN"
 "http://www.w3.org/Graphics/SVG/1.1/DTD/svg11.dtd">
<!-- Generated by graphviz version 2.26.3 (20100126.1600)
 -->
<!-- Title: G Pages: 1 -->
<!--zoomable 430 -->
<svg id="main" version="1.1" xmlns="http://www.w3.org/2000/svg" xmlns:xlink="http://www.w3.org/1999/xlink" xml:space="preserve" onload="init(evt)">
        <defs>
                <circle id="rim" cx="0" cy="0" r="7"/>
                <circle id="rim2" cx="0" cy="0" r="3.5"/>
                <g id="zoomPlus">
                        <use xlink:href="#rim" fill="#404040">
                                <set attributeName="fill" to="#808080" begin="zoomplus.mouseover" end="zoomplus.mouseout"/>
                        </use>
                        <path d="M-4,0h8M0,-4v8" fill="none" stroke="white" stroke-width="1.5" pointer-events="none"/>
                </g>
                <g id="zoomMin">
                        <use xlink:href="#rim" fill="#404040">
                                <set attributeName="fill" to="#808080" begin="zoomminus.mouseover" end="zoomminus.mouseout"/>
                        </use>
                        <path d="M-4,0h8" fill="none" stroke="white" stroke-width="1.5" pointer-events="none"/>
                </g>
                <g id="dirArrow">
                        <path fill="none" stroke="white" stroke-width="1.5" d="M0,-3.0v7 M-2.5,-0.5L0,-3.0L2.5,-0.5"/>
                </g>
               <g id="resetDef">
                       <use xlink:href="#rim2" fill="#404040">
                               <set attributeName="fill" to="#808080" begin="reset.mouseover" end="reset.mouseout"/>
                       </use>
               </g>
        </defs>

<script type="text/javascript">
var viewWidth = 570;
var viewHeight = 430;
var sectionId = 'dynsection-5';
</script>
<script xlink:href="svgpan.js"/>
<svg id="graph" class="graph">
<g id="viewport">
<title>G</title>
<!-- Node1 -->
<g id="node1" class="node"><title>Node1</title>
<polygon fill="#bfbfbf" stroke="black" points="0,-200.5 0,-221.5 150,-221.5 150,-200.5 0,-200.5"/>
<text text-anchor="middle" x="75" y="-208.5" font-family="FreeSans.ttf" font-size="10.00">Scene3DMouse::drawMyself</text>
</g>
<!-- Node2 -->
<g id="node3" class="node"><title>Node2</title>
<a xlink:href="classDraw3dViMouseParameters.html#a5bbe6dfb0308ae7cc5224d7d364bcd00" target="_top" xlink:title="Draw3dViMouseParameters::blueDist">
<polygon fill="none" stroke="black" points="201,-400.5 201,-421.5 395,-421.5 395,-400.5 201,-400.5"/>
<text text-anchor="middle" x="298" y="-408.5" font-family="FreeSans.ttf" font-size="10.00">Draw3dViMouseParameters::blueDist</text>
</a>
</g>
<!-- Node1&#45;&gt;Node2 -->
<g id="edge2" class="edge"><title>Node1&#45;&gt;Node2</title>
<path fill="none" stroke="midnightblue" d="M78.1466,-221.691C88.0771,-253.399 121.953,-347.421 186,-391 188.776,-392.889 191.677,-394.615 194.675,-396.192"/>
<polygon fill="midnightblue" stroke="midnightblue" points="193.384,-399.451 203.928,-400.488 196.332,-393.102 193.384,-399.451"/>
</g>
<!-- Node3 -->
<g id="node5" class="node"><title>Node3</title>
<a xlink:href="classDraw3dViMouseParameters.html#a8fa8d331ded64c99fe1ac4946523e764" target="_top" xlink:title="Draw3dViMouseParameters::flowColorType">
<polygon fill="none" stroke="black" points="189,-360.5 189,-381.5 407,-381.5 407,-360.5 189,-360.5"/>
<text text-anchor="middle" x="298" y="-368.5" font-family="FreeSans.ttf" font-size="10.00">Draw3dViMouseParameters::flowColorType</text>
</a>
</g>
<!-- Node1&#45;&gt;Node3 -->
<g id="edge4" class="edge"><title>Node1&#45;&gt;Node3</title>
<path fill="none" stroke="midnightblue" d="M79.9616,-221.572C93.072,-248.23 131.414,-318.386 186,-351 189.477,-353.078 193.116,-354.951 196.869,-356.639"/>
<polygon fill="midnightblue" stroke="midnightblue" points="195.818,-359.988 206.402,-360.465 198.425,-353.492 195.818,-359.988"/>
</g>
<!-- Node4 -->
<g id="node7" class="node"><title>Node4</title>
<a xlink:href="classDraw3dViMouseParameters.html#ad6bc820df10b37b833b6b1dc08ccf254" target="_top" xlink:title="Draw3dViMouseParameters::flowZoom">
<polygon fill="none" stroke="black" points="197,-320.5 197,-341.5 399,-341.5 399,-320.5 197,-320.5"/>
<text text-anchor="middle" x="298" y="-328.5" font-family="FreeSans.ttf" font-size="10.00">Draw3dViMouseParameters::flowZoom</text>
</a>
</g>
<!-- Node1&#45;&gt;Node4 -->
<g id="edge6" class="edge"><title>Node1&#45;&gt;Node4</title>
<path fill="none" stroke="midnightblue" d="M83.1649,-221.541C99.9445,-242.385 140.567,-288.772 186,-311 190.879,-313.387 196.002,-315.492 201.261,-317.348"/>
<polygon fill="midnightblue" stroke="midnightblue" points="200.258,-320.702 210.85,-320.427 202.399,-314.037 200.258,-320.702"/>
</g>
<!-- Node5 -->
<g id="node9" class="node"><title>Node5</title>
<a xlink:href="classOpenGLTools.html#a135e450a8f3bb3a3921b4f82af010ade" target="_top" xlink:title="OpenGLTools::glColorRGB">
<polygon fill="none" stroke="black" points="230,-280.5 230,-301.5 366,-301.5 366,-280.5 230,-280.5"/>
<text text-anchor="middle" x="298" y="-288.5" font-family="FreeSans.ttf" font-size="10.00">OpenGLTools::glColorRGB</text>
</a>
</g>
<!-- Node1&#45;&gt;Node5 -->
<g id="edge8" class="edge"><title>Node1&#45;&gt;Node5</title>
<path fill="none" stroke="midnightblue" d="M90.7943,-221.655C111.669,-235.227 150.017,-258.428 186,-271 196.744,-274.754 208.326,-277.831 219.824,-280.346"/>
<polygon fill="midnightblue" stroke="midnightblue" points="219.384,-283.829 229.884,-282.415 220.793,-276.972 219.384,-283.829"/>
</g>
<!-- Node9 -->
<g id="node17" class="node"><title>Node9</title>
<a xlink:href="classOpenGLTools.html#a1f1e6aeb8bf72617064d1ba706efee08" target="_top" xlink:title="OpenGLTools::glVertexVector3dd">
<polygon fill="none" stroke="black" points="213,-240.5 213,-261.5 383,-261.5 383,-240.5 213,-240.5"/>
<text text-anchor="middle" x="298" y="-248.5" font-family="FreeSans.ttf" font-size="10.00">OpenGLTools::glVertexVector3dd</text>
</a>
</g>
<!-- Node1&#45;&gt;Node9 -->
<g id="edge16" class="edge"><title>Node1&#45;&gt;Node9</title>
<path fill="none" stroke="midnightblue" d="M133.181,-221.501C150.204,-224.568 168.847,-227.923 186,-231 199.845,-233.484 214.655,-236.133 228.821,-238.664"/>
<polygon fill="midnightblue" stroke="midnightblue" points="228.539,-242.169 238.999,-240.482 229.77,-235.278 228.539,-242.169"/>
</g>
<!-- Node11 -->
<g id="node21" class="node"><title>Node11</title>
<a xlink:href="classcorecvs_1_1VectorOperationsBase.html#a656a982795898e493fde40c9de237074" target="_top" xlink:title="Sum of the absolute values of element of the vector.">
<polygon fill="none" stroke="black" points="193,-200.5 193,-221.5 403,-221.5 403,-200.5 193,-200.5"/>
<text text-anchor="middle" x="298" y="-208.5" font-family="FreeSans.ttf" font-size="10.00">corecvs::VectorOperationsBase::l1Metric</text>
</a>
</g>
<!-- Node1&#45;&gt;Node11 -->
<g id="edge20" class="edge"><title>Node1&#45;&gt;Node11</title>
<path fill="none" stroke="midnightblue" d="M150.187,-211C160.642,-211 171.576,-211 182.56,-211"/>
<polygon fill="midnightblue" stroke="midnightblue" points="182.65,-214.5 192.65,-211 182.65,-207.5 182.65,-214.5"/>
</g>
<!-- Node12 -->
<g id="node23" class="node"><title>Node12</title>
<a xlink:href="namespacecorecvs.html#a926c1304eb3ee9fd63c347fe8ed05a40" target="_top" xlink:title="corecvs::lerpLimit">
<polygon fill="none" stroke="black" points="247.5,-160.5 247.5,-181.5 348.5,-181.5 348.5,-160.5 247.5,-160.5"/>
<text text-anchor="middle" x="298" y="-168.5" font-family="FreeSans.ttf" font-size="10.00">corecvs::lerpLimit</text>
</a>
</g>
<!-- Node1&#45;&gt;Node12 -->
<g id="edge22" class="edge"><title>Node1&#45;&gt;Node12</title>
<path fill="none" stroke="midnightblue" d="M133.181,-200.499C150.204,-197.432 168.847,-194.077 186,-191 202.583,-188.025 220.549,-184.813 237.136,-181.851"/>
<polygon fill="midnightblue" stroke="midnightblue" points="238.031,-185.246 247.261,-180.043 236.801,-178.355 238.031,-185.246"/>
</g>
<!-- Node13 -->
<g id="node25" class="node"><title>Node13</title>
<a xlink:href="classDraw3dViMouseParameters.html#a87183314302196f974984bd096b39bf8" target="_top" xlink:title="Draw3dViMouseParameters::pointColorType">
<polygon fill="none" stroke="black" points="186,-120.5 186,-141.5 410,-141.5 410,-120.5 186,-120.5"/>
<text text-anchor="middle" x="298" y="-128.5" font-family="FreeSans.ttf" font-size="10.00">Draw3dViMouseParameters::pointColorType</text>
</a>
</g>
<!-- Node1&#45;&gt;Node13 -->
<g id="edge24" class="edge"><title>Node1&#45;&gt;Node13</title>
<path fill="none" stroke="midnightblue" d="M90.7943,-200.345C111.669,-186.773 150.017,-163.572 186,-151 193.84,-148.261 202.127,-145.882 210.501,-143.818"/>
<polygon fill="midnightblue" stroke="midnightblue" points="211.397,-147.204 220.35,-141.539 209.819,-140.384 211.397,-147.204"/>
</g>
<!-- Node14 -->
<g id="node27" class="node"><title>Node14</title>
<a xlink:href="classDraw3dViMouseParameters.html#a1c51284fdb0fff02cc9898e24e9c3445" target="_top" xlink:title="Draw3dViMouseParameters::redDist">
<polygon fill="none" stroke="black" points="203.5,-80.5 203.5,-101.5 392.5,-101.5 392.5,-80.5 203.5,-80.5"/>
<text text-anchor="middle" x="298" y="-88.5" font-family="FreeSans.ttf" font-size="10.00">Draw3dViMouseParameters::redDist</text>
</a>
</g>
<!-- Node1&#45;&gt;Node14 -->
<g id="edge26" class="edge"><title>Node1&#45;&gt;Node14</title>
<path fill="none" stroke="midnightblue" d="M83.1649,-200.459C99.9445,-179.615 140.567,-133.228 186,-111 190.879,-108.613 196.002,-106.508 201.261,-104.652"/>
<polygon fill="midnightblue" stroke="midnightblue" points="202.399,-107.963 210.85,-101.573 200.258,-101.298 202.399,-107.963"/>
</g>
<!-- Node15 -->
<g id="node29" class="node"><title>Node15</title>
<a xlink:href="classcorecvs_1_1Vector3d.html#a940d88447f20fac800d1fa510c981275" target="_top" xlink:title="corecvs::Vector3d::y">
<polygon fill="none" stroke="black" points="241.5,-40.5 241.5,-61.5 354.5,-61.5 354.5,-40.5 241.5,-40.5"/>
<text text-anchor="middle" x="298" y="-48.5" font-family="FreeSans.ttf" font-size="10.00">corecvs::Vector3d::y</text>
</a>
</g>
<!-- Node1&#45;&gt;Node15 -->
<g id="edge28" class="edge"><title>Node1&#45;&gt;Node15</title>
<path fill="none" stroke="midnightblue" d="M79.9616,-200.428C93.072,-173.77 131.414,-103.614 186,-71 199.562,-62.8972 215.581,-57.9053 231.2,-54.8713"/>
<polygon fill="midnightblue" stroke="midnightblue" points="232.1,-58.2686 241.375,-53.1472 230.931,-51.367 232.1,-58.2686"/>
</g>
<!-- Node16 -->
<g id="node31" class="node"><title>Node16</title>
<a xlink:href="classcorecvs_1_1Vector3d.html#a4587f5d4984576c5c4c2d44a4140ce3f" target="_top" xlink:title="corecvs::Vector3d::z">
<polygon fill="none" stroke="black" points="241.5,-0.5 241.5,-21.5 354.5,-21.5 354.5,-0.5 241.5,-0.5"/>
<text text-anchor="middle" x="298" y="-8.5" font-family="FreeSans.ttf" font-size="10.00">corecvs::Vector3d::z</text>
</a>
</g>
<!-- Node1&#45;&gt;Node16 -->
<g id="edge30" class="edge"><title>Node1&#45;&gt;Node16</title>
<path fill="none" stroke="midnightblue" d="M78.1466,-200.309C88.0771,-168.601 121.953,-74.5785 186,-31 199.195,-22.0219 215.218,-16.7189 230.97,-13.6654"/>
<polygon fill="midnightblue" stroke="midnightblue" points="231.953,-17.0505 241.249,-11.9676 230.812,-10.144 231.953,-17.0505"/>
</g>
<!-- Node6 -->
<g id="node11" class="node"><title>Node6</title>
<a xlink:href="classcorecvs_1_1RGBColor.html#a28d1778710e5ade8ab275f8ef03cdaec" target="_top" xlink:title="corecvs::RGBColor::b">
<polygon fill="none" stroke="black" points="446,-340.5 446,-361.5 562,-361.5 562,-340.5 446,-340.5"/>
<text text-anchor="middle" x="504" y="-348.5" font-family="FreeSans.ttf" font-size="10.00">corecvs::RGBColor::b</text>
</a>
</g>
<!-- Node5&#45;&gt;Node6 -->
<g id="edge10" class="edge"><title>Node5&#45;&gt;Node6</title>
<path fill="none" stroke="midnightblue" d="M366.159,-299.464C380.857,-302.31 396.136,-306.066 410,-311 427.244,-317.137 429.284,-323.544 446,-331 450.683,-333.089 455.655,-335.099 460.643,-336.987"/>
<polygon fill="midnightblue" stroke="midnightblue" points="459.588,-340.327 470.182,-340.454 461.979,-333.749 459.588,-340.327"/>
</g>
<!-- Node7 -->
<g id="node13" class="node"><title>Node7</title>
<a xlink:href="classcorecvs_1_1RGBColor.html#a61bb42ad3c5af64582ba22408e8bc5c4" target="_top" xlink:title="corecvs::RGBColor::g">
<polygon fill="none" stroke="black" points="446,-300.5 446,-321.5 562,-321.5 562,-300.5 446,-300.5"/>
<text text-anchor="middle" x="504" y="-308.5" font-family="FreeSans.ttf" font-size="10.00">corecvs::RGBColor::g</text>
</a>
</g>
<!-- Node5&#45;&gt;Node7 -->
<g id="edge12" class="edge"><title>Node5&#45;&gt;Node7</title>
<path fill="none" stroke="midnightblue" d="M366.023,-297.604C388.381,-299.775 413.235,-302.188 435.62,-304.361"/>
<polygon fill="midnightblue" stroke="midnightblue" points="435.422,-307.858 445.713,-305.341 436.098,-300.891 435.422,-307.858"/>
</g>
<!-- Node8 -->
<g id="node15" class="node"><title>Node8</title>
<a xlink:href="classcorecvs_1_1RGBColor.html#a551378cc4e40775286d1200a21e3dfbc" target="_top" xlink:title="corecvs::RGBColor::r">
<polygon fill="none" stroke="black" points="447,-260.5 447,-281.5 561,-281.5 561,-260.5 447,-260.5"/>
<text text-anchor="middle" x="504" y="-268.5" font-family="FreeSans.ttf" font-size="10.00">corecvs::RGBColor::r</text>
</a>
</g>
<!-- Node5&#45;&gt;Node8 -->
<g id="edge14" class="edge"><title>Node5&#45;&gt;Node8</title>
<path fill="none" stroke="midnightblue" d="M366.023,-284.396C388.686,-282.196 413.913,-279.746 436.534,-277.55"/>
<polygon fill="midnightblue" stroke="midnightblue" points="437.111,-281.011 446.725,-276.561 436.434,-274.043 437.111,-281.011"/>
</g>
<!-- Node10 -->
<g id="node19" class="node"><title>Node10</title>
<a xlink:href="classcorecvs_1_1Vector3d.html#aec83d9ad04107cd9c2bb11abf33128c0" target="_top" xlink:title="Helper functions to access elements.">
<polygon fill="none" stroke="black" points="447.5,-220.5 447.5,-241.5 560.5,-241.5 560.5,-220.5 447.5,-220.5"/>
<text text-anchor="middle" x="504" y="-228.5" font-family="FreeSans.ttf" font-size="10.00">corecvs::Vector3d::x</text>
</a>
</g>
<!-- Node9&#45;&gt;Node10 -->
<g id="edge18" class="edge"><title>Node9&#45;&gt;Node10</title>
<path fill="none" stroke="midnightblue" d="M383.275,-242.721C401.149,-240.985 419.758,-239.179 436.859,-237.519"/>
<polygon fill="midnightblue" stroke="midnightblue" points="437.678,-240.956 447.293,-236.506 437.001,-233.988 437.678,-240.956"/>
</g>
</g>
</svg>
        <g id="navigator" transform="translate(0 0)" fill="#404254">
                <rect fill="#f2f5e9" fill-opacity="0.5" stroke="#606060" stroke-width=".5" x="0" y="0" width="60" height="60"/>
                <use id="zoomplus" xlink:href="#zoomPlus" x="17" y="9" onmousedown="handleZoom(evt,'in')"/>
                <use id="zoomminus" xlink:href="#zoomMin" x="42" y="9" onmousedown="handleZoom(evt,'out')"/>
                <use id="reset" xlink:href="#resetDef" x="30" y="36" onmousedown="handleReset()"/>
                <g id="arrowUp" xlink:href="#dirArrow" transform="translate(30 24)" onmousedown="handlePan(0,-1)">
                  <use xlink:href="#rim" fill="#404040">
                        <set attributeName="fill" to="#808080" begin="arrowUp.mouseover" end="arrowUp.mouseout"/>
                  </use>
                  <path fill="none" stroke="white" stroke-width="1.5" d="M0,-3.0v7 M-2.5,-0.5L0,-3.0L2.5,-0.5"/>
                </g>
                <g id="arrowRight" xlink:href="#dirArrow" transform="rotate(90) translate(36 -43)" onmousedown="handlePan(1,0)">
                  <use xlink:href="#rim" fill="#404040">
                        <set attributeName="fill" to="#808080" begin="arrowRight.mouseover" end="arrowRight.mouseout"/>
                  </use>
                  <path fill="none" stroke="white" stroke-width="1.5" d="M0,-3.0v7 M-2.5,-0.5L0,-3.0L2.5,-0.5"/>
                </g>
                <g id="arrowDown" xlink:href="#dirArrow" transform="rotate(180) translate(-30 -48)" onmousedown="handlePan(0,1)">
                  <use xlink:href="#rim" fill="#404040">
                        <set attributeName="fill" to="#808080" begin="arrowDown.mouseover" end="arrowDown.mouseout"/>
                  </use>
                  <path fill="none" stroke="white" stroke-width="1.5" d="M0,-3.0v7 M-2.5,-0.5L0,-3.0L2.5,-0.5"/>
                </g>
                <g id="arrowLeft" xlink:href="#dirArrow" transform="rotate(270) translate(-36 17)" onmousedown="handlePan(-1,0)">
                  <use xlink:href="#rim" fill="#404040">
                        <set attributeName="fill" to="#808080" begin="arrowLeft.mouseover" end="arrowLeft.mouseout"/>
                  </use>
                  <path fill="none" stroke="white" stroke-width="1.5" d="M0,-3.0v7 M-2.5,-0.5L0,-3.0L2.5,-0.5"/>
                </g>
        </g>
</svg>
