<?xml version="1.0" encoding="UTF-8" standalone="no"?>
<!DOCTYPE svg PUBLIC "-//W3C//DTD SVG 1.1//EN"
 "http://www.w3.org/Graphics/SVG/1.1/DTD/svg11.dtd">
<!-- Generated by graphviz version 2.26.3 (20100126.1600)
 -->
<!-- Title: G Pages: 1 -->
<!--zoomable 270 -->
<svg id="main" version="1.1" xmlns="http://www.w3.org/2000/svg" xmlns:xlink="http://www.w3.org/1999/xlink" xml:space="preserve" onload="init(evt)">
        <defs>
                <circle id="rim" cx="0" cy="0" r="7"/>
                <circle id="rim2" cx="0" cy="0" r="3.5"/>
                <g id="zoomPlus">
                        <use xlink:href="#rim" fill="#404040">
                                <set attributeName="fill" to="#808080" begin="zoomplus.mouseover" end="zoomplus.mouseout"/>
                        </use>
                        <path d="M-4,0h8M0,-4v8" fill="none" stroke="white" stroke-width="1.5" pointer-events="none"/>
                </g>
                <g id="zoomMin">
                        <use xlink:href="#rim" fill="#404040">
                                <set attributeName="fill" to="#808080" begin="zoomminus.mouseover" end="zoomminus.mouseout"/>
                        </use>
                        <path d="M-4,0h8" fill="none" stroke="white" stroke-width="1.5" pointer-events="none"/>
                </g>
                <g id="dirArrow">
                        <path fill="none" stroke="white" stroke-width="1.5" d="M0,-3.0v7 M-2.5,-0.5L0,-3.0L2.5,-0.5"/>
                </g>
               <g id="resetDef">
                       <use xlink:href="#rim2" fill="#404040">
                               <set attributeName="fill" to="#808080" begin="reset.mouseover" end="reset.mouseout"/>
                       </use>
               </g>
        </defs>

<script type="text/javascript">
var viewWidth = 1250;
var viewHeight = 270;
var sectionId = 'dynsection-6';
</script>
<script xlink:href="svgpan.js"/>
<svg id="graph" class="graph">
<g id="viewport">
<title>G</title>
<!-- Node1 -->
<g id="node1" class="node"><title>Node1</title>
<polygon fill="#bfbfbf" stroke="black" points="0.5,-160.5 0.5,-181.5 203.5,-181.5 203.5,-160.5 0.5,-160.5"/>
<text text-anchor="middle" x="102" y="-168.5" font-family="FreeSans.ttf" font-size="10.00">DistortionWidget::doInversionTransform</text>
</g>
<!-- Node2 -->
<g id="node3" class="node"><title>Node2</title>
<a xlink:href="classDistortionParameters.html#a2cdede0f316211158acbf1049331eb22" target="_top" xlink:title="DistortionParameters::getPoints">
<polygon fill="none" stroke="black" points="276,-240.5 276,-261.5 446,-261.5 446,-240.5 276,-240.5"/>
<text text-anchor="middle" x="361" y="-248.5" font-family="FreeSans.ttf" font-size="10.00">DistortionParameters::getPoints</text>
</a>
</g>
<!-- Node1&#45;&gt;Node2 -->
<g id="edge2" class="edge"><title>Node1&#45;&gt;Node2</title>
<path fill="none" stroke="midnightblue" d="M121.986,-181.564C148.317,-195.039 196.402,-218.134 240,-231 249.672,-233.854 259.907,-236.337 270.166,-238.488"/>
<polygon fill="midnightblue" stroke="midnightblue" points="269.499,-241.924 279.991,-240.45 270.87,-235.06 269.499,-241.924"/>
</g>
<!-- Node3 -->
<g id="node5" class="node"><title>Node3</title>
<a xlink:href="classDistortionParameters.html#a897b81056139d8ae045c12acb96380ed" target="_top" xlink:title="DistortionParameters::getRadius">
<polygon fill="none" stroke="black" points="275,-200.5 275,-221.5 447,-221.5 447,-200.5 275,-200.5"/>
<text text-anchor="middle" x="361" y="-208.5" font-family="FreeSans.ttf" font-size="10.00">DistortionParameters::getRadius</text>
</a>
</g>
<!-- Node1&#45;&gt;Node3 -->
<g id="edge4" class="edge"><title>Node1&#45;&gt;Node3</title>
<path fill="none" stroke="midnightblue" d="M170.049,-181.51C204.71,-186.862 247.015,-193.396 282.989,-198.952"/>
<polygon fill="midnightblue" stroke="midnightblue" points="282.539,-202.424 292.956,-200.491 283.607,-195.506 282.539,-202.424"/>
</g>
<!-- Node4 -->
<g id="node7" class="node"><title>Node4</title>
<a xlink:href="classDistortionParameters.html#aefdd4889879195b0a6137e66b1953347" target="_top" xlink:title="DistortionParameters::getScale">
<polygon fill="none" stroke="black" points="277.5,-160.5 277.5,-181.5 444.5,-181.5 444.5,-160.5 277.5,-160.5"/>
<text text-anchor="middle" x="361" y="-168.5" font-family="FreeSans.ttf" font-size="10.00">DistortionParameters::getScale</text>
</a>
</g>
<!-- Node1&#45;&gt;Node4 -->
<g id="edge6" class="edge"><title>Node1&#45;&gt;Node4</title>
<path fill="none" stroke="midnightblue" d="M203.62,-171C224.568,-171 246.538,-171 267.193,-171"/>
<polygon fill="midnightblue" stroke="midnightblue" points="267.218,-174.5 277.218,-171 267.217,-167.5 267.218,-174.5"/>
</g>
<!-- Node5 -->
<g id="node9" class="node"><title>Node5</title>
<a xlink:href="classDistortionParameters.html#ab0d1b0f3633e91b5f35b551658848f66" target="_top" xlink:title="DistortionParameters::needCalculateParams">
<polygon fill="none" stroke="black" points="246.5,-120.5 246.5,-141.5 475.5,-141.5 475.5,-120.5 246.5,-120.5"/>
<text text-anchor="middle" x="361" y="-128.5" font-family="FreeSans.ttf" font-size="10.00">DistortionParameters::needCalculateParams</text>
</a>
</g>
<!-- Node1&#45;&gt;Node5 -->
<g id="edge8" class="edge"><title>Node1&#45;&gt;Node5</title>
<path fill="none" stroke="midnightblue" d="M170.049,-160.49C204.71,-155.138 247.015,-148.604 282.989,-143.048"/>
<polygon fill="midnightblue" stroke="midnightblue" points="283.607,-146.494 292.956,-141.509 282.539,-139.576 283.607,-146.494"/>
</g>
<!-- Node6 -->
<g id="node11" class="node"><title>Node6</title>
<a xlink:href="classcorecvs_1_1DistortionCorrectTransform.html#abd621eb01799cb4ccbaac07dcd5e7c43" target="_top" xlink:title="corecvs::DistortionCorrectTransform::setRadius">
<polygon fill="none" stroke="black" points="240.5,-80.5 240.5,-101.5 481.5,-101.5 481.5,-80.5 240.5,-80.5"/>
<text text-anchor="middle" x="361" y="-88.5" font-family="FreeSans.ttf" font-size="10.00">corecvs::DistortionCorrectTransform::setRadius</text>
</a>
</g>
<!-- Node1&#45;&gt;Node6 -->
<g id="edge10" class="edge"><title>Node1&#45;&gt;Node6</title>
<path fill="none" stroke="midnightblue" d="M121.986,-160.436C148.317,-146.961 196.402,-123.866 240,-111 249.672,-108.146 259.907,-105.663 270.166,-103.512"/>
<polygon fill="midnightblue" stroke="midnightblue" points="270.87,-106.94 279.991,-101.55 269.499,-100.076 270.87,-106.94"/>
</g>
<!-- Node7 -->
<g id="node13" class="node"><title>Node7</title>
<a xlink:href="classcorecvs_1_1Vector2d.html#a944721c41f044c1388d9dc42ca899bce" target="_top" xlink:title="corecvs::Vector2d::x">
<polygon fill="none" stroke="black" points="845.5,-160.5 845.5,-181.5 958.5,-181.5 958.5,-160.5 845.5,-160.5"/>
<text text-anchor="middle" x="902" y="-168.5" font-family="FreeSans.ttf" font-size="10.00">corecvs::Vector2d::x</text>
</a>
</g>
<!-- Node6&#45;&gt;Node7 -->
<g id="edge12" class="edge"><title>Node6&#45;&gt;Node7</title>
<path fill="none" stroke="midnightblue" d="M447.517,-101.567C459.267,-104.08 471.043,-107.18 482,-111 499.283,-117.025 500.544,-125.496 518,-131 625.368,-164.854 757.144,-171.504 835.083,-172.073"/>
<polygon fill="midnightblue" stroke="midnightblue" points="835.234,-175.574 845.249,-172.115 835.263,-168.574 835.234,-175.574"/>
</g>
<!-- Node8 -->
<g id="node15" class="node"><title>Node8</title>
<a xlink:href="classcorecvs_1_1Vector2d.html#ae1ea2ad4c0821001408bf963cffa8413" target="_top" xlink:title="corecvs::Vector2d::y">
<polygon fill="none" stroke="black" points="845.5,-120.5 845.5,-141.5 958.5,-141.5 958.5,-120.5 845.5,-120.5"/>
<text text-anchor="middle" x="902" y="-128.5" font-family="FreeSans.ttf" font-size="10.00">corecvs::Vector2d::y</text>
</a>
</g>
<!-- Node6&#45;&gt;Node8 -->
<g id="edge14" class="edge"><title>Node6&#45;&gt;Node8</title>
<path fill="none" stroke="midnightblue" d="M434.754,-101.549C460.989,-104.995 490.769,-108.56 518,-111 629.041,-120.95 758.622,-126.43 835.3,-129.037"/>
<polygon fill="midnightblue" stroke="midnightblue" points="835.19,-132.535 845.301,-129.371 835.424,-125.539 835.19,-132.535"/>
</g>
<!-- Node9 -->
<g id="node17" class="node"><title>Node9</title>
<a xlink:href="classcorecvs_1_1Matrix.html#a5b8b00c8bfc66549652e6c0610457254" target="_top" xlink:title="The element getter for a matrix that is used like vector (i.e has height or width of 1)...">
<polygon fill="none" stroke="black" points="851.5,-0.5 851.5,-21.5 952.5,-21.5 952.5,-0.5 851.5,-0.5"/>
<text text-anchor="middle" x="902" y="-8.5" font-family="FreeSans.ttf" font-size="10.00">corecvs::Matrix::a</text>
</a>
</g>
<!-- Node6&#45;&gt;Node9 -->
<g id="edge16" class="edge"><title>Node6&#45;&gt;Node9</title>
<path fill="none" stroke="midnightblue" d="M382.19,-80.4398C411.762,-66.2819 467.471,-41.6926 518,-31 630.122,-7.27338 764.555,-6.37495 840.952,-8.35742"/>
<polygon fill="midnightblue" stroke="midnightblue" points="841.242,-11.8671 851.338,-8.6542 841.442,-4.86991 841.242,-11.8671"/>
</g>
<!-- Node11 -->
<g id="node21" class="node"><title>Node11</title>
<a xlink:href="classcorecvs_1_1Matrix.html#aeb56de4494cc7520a587548b3c330084" target="_top" xlink:title="This function returns an inverse of the matrix.">
<polygon fill="none" stroke="black" points="573,-40.5 573,-61.5 681,-61.5 681,-40.5 573,-40.5"/>
<text text-anchor="middle" x="627" y="-48.5" font-family="FreeSans.ttf" font-size="10.00">corecvs::Matrix::inv</text>
</a>
</g>
<!-- Node6&#45;&gt;Node11 -->
<g id="edge20" class="edge"><title>Node6&#45;&gt;Node11</title>
<path fill="none" stroke="midnightblue" d="M430.888,-80.4905C471.67,-74.3579 522.757,-66.6756 562.565,-60.6895"/>
<polygon fill="midnightblue" stroke="midnightblue" points="563.321,-64.1152 572.69,-59.167 562.28,-57.193 563.321,-64.1152"/>
</g>
<!-- Node12 -->
<g id="node24" class="node"><title>Node12</title>
<a xlink:href="classcorecvs_1_1DistortionCorrectTransform.html#a05ee65390ac6b4bbd6c6f5916215bce3" target="_top" xlink:title="corecvs::DistortionCorrectTransform::setZ">
<polygon fill="none" stroke="black" points="518.5,-80.5 518.5,-101.5 735.5,-101.5 735.5,-80.5 518.5,-80.5"/>
<text text-anchor="middle" x="627" y="-88.5" font-family="FreeSans.ttf" font-size="10.00">corecvs::DistortionCorrectTransform::setZ</text>
</a>
</g>
<!-- Node6&#45;&gt;Node12 -->
<g id="edge24" class="edge"><title>Node6&#45;&gt;Node12</title>
<path fill="none" stroke="midnightblue" d="M481.547,-91C490.341,-91 499.207,-91 507.991,-91"/>
<polygon fill="midnightblue" stroke="midnightblue" points="508.256,-94.5001 518.256,-91 508.256,-87.5001 508.256,-94.5001"/>
</g>
<!-- Node10 -->
<g id="node19" class="node"><title>Node10</title>
<a xlink:href="classcorecvs_1_1AbstractBuffer.html#a98f72526738a0c4ce8a0b72a3b5c28b9" target="_top" xlink:title="The element getter.">
<polygon fill="none" stroke="black" points="1068,-0.5 1068,-21.5 1242,-21.5 1242,-0.5 1068,-0.5"/>
<text text-anchor="middle" x="1155" y="-8.5" font-family="FreeSans.ttf" font-size="10.00">corecvs::AbstractBuffer::element</text>
</a>
</g>
<!-- Node9&#45;&gt;Node10 -->
<g id="edge18" class="edge"><title>Node9&#45;&gt;Node10</title>
<path fill="none" stroke="midnightblue" d="M952.59,-11C982.709,-11 1021.94,-11 1057.83,-11"/>
<polygon fill="midnightblue" stroke="midnightblue" points="1057.86,-14.5001 1067.86,-11 1057.86,-7.5001 1057.86,-14.5001"/>
</g>
<!-- Node11&#45;&gt;Node9 -->
<g id="edge22" class="edge"><title>Node11&#45;&gt;Node9</title>
<path fill="none" stroke="midnightblue" d="M681.003,-43.145C727.15,-36.4328 793.49,-26.7833 841.431,-19.81"/>
<polygon fill="midnightblue" stroke="midnightblue" points="841.976,-23.2677 851.368,-18.3646 840.968,-16.3406 841.976,-23.2677"/>
</g>
<!-- Node12&#45;&gt;Node7 -->
<g id="edge30" class="edge"><title>Node12&#45;&gt;Node7</title>
<path fill="none" stroke="midnightblue" d="M648.048,-101.597C675.766,-115.108 726.345,-138.242 772,-151 792.317,-156.678 814.9,-160.862 835.468,-163.891"/>
<polygon fill="midnightblue" stroke="midnightblue" points="834.994,-167.359 845.384,-165.287 835.97,-160.427 834.994,-167.359"/>
</g>
<!-- Node12&#45;&gt;Node8 -->
<g id="edge32" class="edge"><title>Node12&#45;&gt;Node8</title>
<path fill="none" stroke="midnightblue" d="M699.253,-101.51C741.446,-107.647 794.31,-115.336 835.478,-121.324"/>
<polygon fill="midnightblue" stroke="midnightblue" points="835.011,-124.793 845.411,-122.769 836.018,-117.866 835.011,-124.793"/>
</g>
<!-- Node13 -->
<g id="node26" class="node"><title>Node13</title>
<a xlink:href="classcorecvs_1_1VectorOperationsBase.html#acfcd4bcc60d1d076b00afcfeba9f9e8b" target="_top" xlink:title="Euclidean distance.">
<polygon fill="none" stroke="black" points="797,-40.5 797,-61.5 1007,-61.5 1007,-40.5 797,-40.5"/>
<text text-anchor="middle" x="902" y="-48.5" font-family="FreeSans.ttf" font-size="10.00">corecvs::VectorOperationsBase::l2Metric</text>
</a>
</g>
<!-- Node12&#45;&gt;Node13 -->
<g id="edge26" class="edge"><title>Node12&#45;&gt;Node13</title>
<path fill="none" stroke="midnightblue" d="M699.253,-80.4905C736.212,-75.1146 781.358,-68.5479 819.659,-62.9768"/>
<polygon fill="midnightblue" stroke="midnightblue" points="820.361,-66.4117 829.753,-61.5087 819.353,-59.4846 820.361,-66.4117"/>
</g>
<!-- Node14 -->
<g id="node28" class="node"><title>Node14</title>
<a xlink:href="classcorecvs_1_1DistortionCorrectTransform.html#a61facae0ee0470d08de75b15453cb303" target="_top" xlink:title="corecvs::DistortionCorrectTransform::isInteriorPoint">
<polygon fill="none" stroke="black" points="772,-80.5 772,-101.5 1032,-101.5 1032,-80.5 772,-80.5"/>
<text text-anchor="middle" x="902" y="-88.5" font-family="FreeSans.ttf" font-size="10.00">corecvs::DistortionCorrectTransform::isInteriorPoint</text>
</a>
</g>
<!-- Node12&#45;&gt;Node14 -->
<g id="edge28" class="edge"><title>Node12&#45;&gt;Node14</title>
<path fill="none" stroke="midnightblue" d="M735.687,-91C744.212,-91 752.891,-91 761.586,-91"/>
<polygon fill="midnightblue" stroke="midnightblue" points="761.792,-94.5001 771.792,-91 761.792,-87.5001 761.792,-94.5001"/>
</g>
</g>
</svg>
        <g id="navigator" transform="translate(0 0)" fill="#404254">
                <rect fill="#f2f5e9" fill-opacity="0.5" stroke="#606060" stroke-width=".5" x="0" y="0" width="60" height="60"/>
                <use id="zoomplus" xlink:href="#zoomPlus" x="17" y="9" onmousedown="handleZoom(evt,'in')"/>
                <use id="zoomminus" xlink:href="#zoomMin" x="42" y="9" onmousedown="handleZoom(evt,'out')"/>
                <use id="reset" xlink:href="#resetDef" x="30" y="36" onmousedown="handleReset()"/>
                <g id="arrowUp" xlink:href="#dirArrow" transform="translate(30 24)" onmousedown="handlePan(0,-1)">
                  <use xlink:href="#rim" fill="#404040">
                        <set attributeName="fill" to="#808080" begin="arrowUp.mouseover" end="arrowUp.mouseout"/>
                  </use>
                  <path fill="none" stroke="white" stroke-width="1.5" d="M0,-3.0v7 M-2.5,-0.5L0,-3.0L2.5,-0.5"/>
                </g>
                <g id="arrowRight" xlink:href="#dirArrow" transform="rotate(90) translate(36 -43)" onmousedown="handlePan(1,0)">
                  <use xlink:href="#rim" fill="#404040">
                        <set attributeName="fill" to="#808080" begin="arrowRight.mouseover" end="arrowRight.mouseout"/>
                  </use>
                  <path fill="none" stroke="white" stroke-width="1.5" d="M0,-3.0v7 M-2.5,-0.5L0,-3.0L2.5,-0.5"/>
                </g>
                <g id="arrowDown" xlink:href="#dirArrow" transform="rotate(180) translate(-30 -48)" onmousedown="handlePan(0,1)">
                  <use xlink:href="#rim" fill="#404040">
                        <set attributeName="fill" to="#808080" begin="arrowDown.mouseover" end="arrowDown.mouseout"/>
                  </use>
                  <path fill="none" stroke="white" stroke-width="1.5" d="M0,-3.0v7 M-2.5,-0.5L0,-3.0L2.5,-0.5"/>
                </g>
                <g id="arrowLeft" xlink:href="#dirArrow" transform="rotate(270) translate(-36 17)" onmousedown="handlePan(-1,0)">
                  <use xlink:href="#rim" fill="#404040">
                        <set attributeName="fill" to="#808080" begin="arrowLeft.mouseover" end="arrowLeft.mouseout"/>
                  </use>
                  <path fill="none" stroke="white" stroke-width="1.5" d="M0,-3.0v7 M-2.5,-0.5L0,-3.0L2.5,-0.5"/>
                </g>
        </g>
</svg>
