<?xml version="1.0" encoding="UTF-8" standalone="no"?>
<!DOCTYPE svg PUBLIC "-//W3C//DTD SVG 1.1//EN"
 "http://www.w3.org/Graphics/SVG/1.1/DTD/svg11.dtd">
<!-- Generated by graphviz version 2.26.3 (20100126.1600)
 -->
<!-- Title: G Pages: 1 -->
<!--zoomable 188 -->
<svg id="main" version="1.1" xmlns="http://www.w3.org/2000/svg" xmlns:xlink="http://www.w3.org/1999/xlink" xml:space="preserve" onload="init(evt)">
        <defs>
                <circle id="rim" cx="0" cy="0" r="7"/>
                <circle id="rim2" cx="0" cy="0" r="3.5"/>
                <g id="zoomPlus">
                        <use xlink:href="#rim" fill="#404040">
                                <set attributeName="fill" to="#808080" begin="zoomplus.mouseover" end="zoomplus.mouseout"/>
                        </use>
                        <path d="M-4,0h8M0,-4v8" fill="none" stroke="white" stroke-width="1.5" pointer-events="none"/>
                </g>
                <g id="zoomMin">
                        <use xlink:href="#rim" fill="#404040">
                                <set attributeName="fill" to="#808080" begin="zoomminus.mouseover" end="zoomminus.mouseout"/>
                        </use>
                        <path d="M-4,0h8" fill="none" stroke="white" stroke-width="1.5" pointer-events="none"/>
                </g>
                <g id="dirArrow">
                        <path fill="none" stroke="white" stroke-width="1.5" d="M0,-3.0v7 M-2.5,-0.5L0,-3.0L2.5,-0.5"/>
                </g>
               <g id="resetDef">
                       <use xlink:href="#rim2" fill="#404040">
                               <set attributeName="fill" to="#808080" begin="reset.mouseover" end="reset.mouseout"/>
                       </use>
               </g>
        </defs>

<script type="text/javascript">
var viewWidth = 1174;
var viewHeight = 188;
var sectionId = 'dynsection-6';
</script>
<script xlink:href="svgpan.js"/>
<svg id="graph" class="graph">
<g id="viewport">
<title>G</title>
<!-- Node1 -->
<g id="node1" class="node"><title>Node1</title>
<polygon fill="#bfbfbf" stroke="black" points="0,-80.5 0,-101.5 244,-101.5 244,-80.5 0,-80.5"/>
<text text-anchor="middle" x="122" y="-88.5" font-family="FreeSans.ttf" font-size="10.00">corecvs::RGB24Buffer::drawCorrespondanceList</text>
</g>
<!-- Node2 -->
<g id="node3" class="node"><title>Node2</title>
<a xlink:href="classcorecvs_1_1RGB24Buffer.html#a7880dca29ef63d3ed9e2320acc5a0841" target="_top" xlink:title="This function is used to draw a sort of marker over the buffer.">
<polygon fill="none" stroke="black" points="280.5,-158.5 280.5,-179.5 483.5,-179.5 483.5,-158.5 280.5,-158.5"/>
<text text-anchor="middle" x="382" y="-166.5" font-family="FreeSans.ttf" font-size="10.00">corecvs::RGB24Buffer::drawCrosshare3</text>
</a>
</g>
<!-- Node1&#45;&gt;Node2 -->
<g id="edge2" class="edge"><title>Node1&#45;&gt;Node2</title>
<path fill="none" stroke="midnightblue" d="M151.181,-101.602C182.717,-112.868 234.564,-130.836 280,-144 294.656,-148.246 310.63,-152.388 325.494,-156.039"/>
<polygon fill="midnightblue" stroke="midnightblue" points="325.034,-159.529 335.577,-158.484 326.684,-152.726 325.034,-159.529"/>
</g>
<!-- Node7 -->
<g id="node13" class="node"><title>Node7</title>
<a xlink:href="classcorecvs_1_1RGB24Buffer.html#abc609be3c25e3614285783385e53b7e9" target="_top" xlink:title="This function implements the Bresenham algorithm.">
<polygon fill="none" stroke="black" points="734.5,-118.5 734.5,-139.5 935.5,-139.5 935.5,-118.5 734.5,-118.5"/>
<text text-anchor="middle" x="835" y="-126.5" font-family="FreeSans.ttf" font-size="10.00">corecvs::RGB24Buffer::drawLineSimple</text>
</a>
</g>
<!-- Node1&#45;&gt;Node7 -->
<g id="edge12" class="edge"><title>Node1&#45;&gt;Node7</title>
<path fill="none" stroke="midnightblue" d="M193.823,-101.531C220.79,-105.106 251.748,-108.759 280,-111 433.653,-123.19 611.861,-127.174 724.019,-128.448"/>
<polygon fill="midnightblue" stroke="midnightblue" points="724.29,-131.951 734.328,-128.56 724.366,-124.952 724.29,-131.951"/>
</g>
<!-- Node8 -->
<g id="node16" class="node"><title>Node8</title>
<a xlink:href="classcorecvs_1_1RGBColor.html#a3a40b8a43b31869f5ad2eae052ebe7e2" target="_top" xlink:title="Helper method that allows to represent the double value in interval 0..1 With a color coding...">
<polygon fill="none" stroke="black" points="305.5,-80.5 305.5,-101.5 458.5,-101.5 458.5,-80.5 305.5,-80.5"/>
<text text-anchor="middle" x="382" y="-88.5" font-family="FreeSans.ttf" font-size="10.00">corecvs::RGBColor::rainbow1</text>
</a>
</g>
<!-- Node1&#45;&gt;Node8 -->
<g id="edge16" class="edge"><title>Node1&#45;&gt;Node8</title>
<path fill="none" stroke="midnightblue" d="M244.006,-91C261.27,-91 278.722,-91 295.138,-91"/>
<polygon fill="midnightblue" stroke="midnightblue" points="295.215,-94.5001 305.215,-91 295.215,-87.5001 295.215,-94.5001"/>
</g>
<!-- Node11 -->
<g id="node22" class="node"><title>Node11</title>
<a xlink:href="classcorecvs_1_1Vector2d.html#a944721c41f044c1388d9dc42ca899bce" target="_top" xlink:title="corecvs::Vector2d::x">
<polygon fill="none" stroke="black" points="325.5,-40.5 325.5,-61.5 438.5,-61.5 438.5,-40.5 325.5,-40.5"/>
<text text-anchor="middle" x="382" y="-48.5" font-family="FreeSans.ttf" font-size="10.00">corecvs::Vector2d::x</text>
</a>
</g>
<!-- Node1&#45;&gt;Node11 -->
<g id="edge22" class="edge"><title>Node1&#45;&gt;Node11</title>
<path fill="none" stroke="midnightblue" d="M190.312,-80.4905C228.846,-74.5622 276.793,-67.1857 315.094,-61.2932"/>
<polygon fill="midnightblue" stroke="midnightblue" points="315.766,-64.7311 325.118,-59.7511 314.702,-57.8125 315.766,-64.7311"/>
</g>
<!-- Node12 -->
<g id="node24" class="node"><title>Node12</title>
<a xlink:href="classcorecvs_1_1Vector2d.html#ae1ea2ad4c0821001408bf963cffa8413" target="_top" xlink:title="corecvs::Vector2d::y">
<polygon fill="none" stroke="black" points="325.5,-0.5 325.5,-21.5 438.5,-21.5 438.5,-0.5 325.5,-0.5"/>
<text text-anchor="middle" x="382" y="-8.5" font-family="FreeSans.ttf" font-size="10.00">corecvs::Vector2d::y</text>
</a>
</g>
<!-- Node1&#45;&gt;Node12 -->
<g id="edge24" class="edge"><title>Node1&#45;&gt;Node12</title>
<path fill="none" stroke="midnightblue" d="M145.93,-80.4518C176.513,-67.3126 231.332,-44.9037 280,-31 291.387,-27.7469 303.639,-24.8474 315.563,-22.334"/>
<polygon fill="midnightblue" stroke="midnightblue" points="316.377,-25.7401 325.477,-20.3142 314.98,-18.881 316.377,-25.7401"/>
</g>
<!-- Node3 -->
<g id="node5" class="node"><title>Node3</title>
<a xlink:href="classcorecvs_1_1RGB24Buffer.html#a263f6ce1765d6a4b673ba56a9a28d7f2" target="_top" xlink:title="corecvs::RGB24Buffer::drawSprite">
<polygon fill="none" stroke="black" points="520.5,-158.5 520.5,-179.5 697.5,-179.5 697.5,-158.5 520.5,-158.5"/>
<text text-anchor="middle" x="609" y="-166.5" font-family="FreeSans.ttf" font-size="10.00">corecvs::RGB24Buffer::drawSprite</text>
</a>
</g>
<!-- Node2&#45;&gt;Node3 -->
<g id="edge4" class="edge"><title>Node2&#45;&gt;Node3</title>
<path fill="none" stroke="midnightblue" d="M483.549,-169C492.373,-169 501.294,-169 510.097,-169"/>
<polygon fill="midnightblue" stroke="midnightblue" points="510.362,-172.5 520.362,-169 510.362,-165.5 510.362,-172.5"/>
</g>
<!-- Node4 -->
<g id="node7" class="node"><title>Node4</title>
<a xlink:href="classcorecvs_1_1RGB24Buffer.html#a196a513657c7398482eed191cfca6089" target="_top" xlink:title="This function is used to draw a pixel in the buffer.">
<polygon fill="none" stroke="black" points="750,-158.5 750,-179.5 920,-179.5 920,-158.5 750,-158.5"/>
<text text-anchor="middle" x="835" y="-166.5" font-family="FreeSans.ttf" font-size="10.00">corecvs::RGB24Buffer::drawPixel</text>
</a>
</g>
<!-- Node3&#45;&gt;Node4 -->
<g id="edge6" class="edge"><title>Node3&#45;&gt;Node4</title>
<path fill="none" stroke="midnightblue" d="M697.673,-169C711.504,-169 725.847,-169 739.816,-169"/>
<polygon fill="midnightblue" stroke="midnightblue" points="739.91,-172.5 749.91,-169 739.91,-165.5 739.91,-172.5"/>
</g>
<!-- Node5 -->
<g id="node9" class="node"><title>Node5</title>
<a xlink:href="classcorecvs_1_1AbstractBuffer.html#af38950daefa219f81a0e89ee186075f1" target="_top" xlink:title="Checks if coordinate lies within the buffer area.">
<polygon fill="none" stroke="black" points="972.5,-158.5 972.5,-179.5 1165.5,-179.5 1165.5,-158.5 972.5,-158.5"/>
<text text-anchor="middle" x="1069" y="-166.5" font-family="FreeSans.ttf" font-size="10.00">corecvs::AbstractBuffer::isValidCoord</text>
</a>
</g>
<!-- Node4&#45;&gt;Node5 -->
<g id="edge8" class="edge"><title>Node4&#45;&gt;Node5</title>
<path fill="none" stroke="midnightblue" d="M920.141,-169C933.811,-169 948.109,-169 962.208,-169"/>
<polygon fill="midnightblue" stroke="midnightblue" points="962.427,-172.5 972.427,-169 962.427,-165.5 962.427,-172.5"/>
</g>
<!-- Node6 -->
<g id="node11" class="node"><title>Node6</title>
<a xlink:href="classcorecvs_1_1AbstractBuffer.html#a98f72526738a0c4ce8a0b72a3b5c28b9" target="_top" xlink:title="The element getter.">
<polygon fill="none" stroke="black" points="982,-118.5 982,-139.5 1156,-139.5 1156,-118.5 982,-118.5"/>
<text text-anchor="middle" x="1069" y="-126.5" font-family="FreeSans.ttf" font-size="10.00">corecvs::AbstractBuffer::element</text>
</a>
</g>
<!-- Node4&#45;&gt;Node6 -->
<g id="edge10" class="edge"><title>Node4&#45;&gt;Node6</title>
<path fill="none" stroke="midnightblue" d="M896.481,-158.49C927.394,-153.206 965.039,-146.771 997.266,-141.262"/>
<polygon fill="midnightblue" stroke="midnightblue" points="998.257,-144.644 1007.52,-139.509 997.077,-137.744 998.257,-144.644"/>
</g>
<!-- Node7&#45;&gt;Node6 -->
<g id="edge14" class="edge"><title>Node7&#45;&gt;Node6</title>
<path fill="none" stroke="midnightblue" d="M935.595,-129C947.475,-129 959.585,-129 971.423,-129"/>
<polygon fill="midnightblue" stroke="midnightblue" points="971.742,-132.5 981.742,-129 971.742,-125.5 971.742,-132.5"/>
</g>
<!-- Node9 -->
<g id="node18" class="node"><title>Node9</title>
<a xlink:href="classcorecvs_1_1RGBColor.html#a5e8d5fe160db4c66478a86f84bfc70de" target="_top" xlink:title="corecvs::RGBColor::RGBColor">
<polygon fill="none" stroke="black" points="531.5,-80.5 531.5,-101.5 686.5,-101.5 686.5,-80.5 531.5,-80.5"/>
<text text-anchor="middle" x="609" y="-88.5" font-family="FreeSans.ttf" font-size="10.00">corecvs::RGBColor::RGBColor</text>
</a>
</g>
<!-- Node8&#45;&gt;Node9 -->
<g id="edge18" class="edge"><title>Node8&#45;&gt;Node9</title>
<path fill="none" stroke="midnightblue" d="M458.535,-91C478.667,-91 500.54,-91 521.212,-91"/>
<polygon fill="midnightblue" stroke="midnightblue" points="521.25,-94.5001 531.25,-91 521.25,-87.5001 521.25,-94.5001"/>
</g>
<!-- Node10 -->
<g id="node20" class="node"><title>Node10</title>
<a xlink:href="namespacecorecvs.html#a807eb76b7544bcb930b1700a58a780bd" target="_top" xlink:title="Useful round* stuff.">
<polygon fill="none" stroke="black" points="564,-40.5 564,-61.5 654,-61.5 654,-40.5 564,-40.5"/>
<text text-anchor="middle" x="609" y="-48.5" font-family="FreeSans.ttf" font-size="10.00">corecvs::fround</text>
</a>
</g>
<!-- Node8&#45;&gt;Node10 -->
<g id="edge20" class="edge"><title>Node8&#45;&gt;Node10</title>
<path fill="none" stroke="midnightblue" d="M441.642,-80.4905C476.284,-74.3861 519.64,-66.7463 553.543,-60.7722"/>
<polygon fill="midnightblue" stroke="midnightblue" points="554.5,-64.1576 563.741,-58.9752 553.285,-57.2638 554.5,-64.1576"/>
</g>
</g>
</svg>
        <g id="navigator" transform="translate(0 0)" fill="#404254">
                <rect fill="#f2f5e9" fill-opacity="0.5" stroke="#606060" stroke-width=".5" x="0" y="0" width="60" height="60"/>
                <use id="zoomplus" xlink:href="#zoomPlus" x="17" y="9" onmousedown="handleZoom(evt,'in')"/>
                <use id="zoomminus" xlink:href="#zoomMin" x="42" y="9" onmousedown="handleZoom(evt,'out')"/>
                <use id="reset" xlink:href="#resetDef" x="30" y="36" onmousedown="handleReset()"/>
                <g id="arrowUp" xlink:href="#dirArrow" transform="translate(30 24)" onmousedown="handlePan(0,-1)">
                  <use xlink:href="#rim" fill="#404040">
                        <set attributeName="fill" to="#808080" begin="arrowUp.mouseover" end="arrowUp.mouseout"/>
                  </use>
                  <path fill="none" stroke="white" stroke-width="1.5" d="M0,-3.0v7 M-2.5,-0.5L0,-3.0L2.5,-0.5"/>
                </g>
                <g id="arrowRight" xlink:href="#dirArrow" transform="rotate(90) translate(36 -43)" onmousedown="handlePan(1,0)">
                  <use xlink:href="#rim" fill="#404040">
                        <set attributeName="fill" to="#808080" begin="arrowRight.mouseover" end="arrowRight.mouseout"/>
                  </use>
                  <path fill="none" stroke="white" stroke-width="1.5" d="M0,-3.0v7 M-2.5,-0.5L0,-3.0L2.5,-0.5"/>
                </g>
                <g id="arrowDown" xlink:href="#dirArrow" transform="rotate(180) translate(-30 -48)" onmousedown="handlePan(0,1)">
                  <use xlink:href="#rim" fill="#404040">
                        <set attributeName="fill" to="#808080" begin="arrowDown.mouseover" end="arrowDown.mouseout"/>
                  </use>
                  <path fill="none" stroke="white" stroke-width="1.5" d="M0,-3.0v7 M-2.5,-0.5L0,-3.0L2.5,-0.5"/>
                </g>
                <g id="arrowLeft" xlink:href="#dirArrow" transform="rotate(270) translate(-36 17)" onmousedown="handlePan(-1,0)">
                  <use xlink:href="#rim" fill="#404040">
                        <set attributeName="fill" to="#808080" begin="arrowLeft.mouseover" end="arrowLeft.mouseout"/>
                  </use>
                  <path fill="none" stroke="white" stroke-width="1.5" d="M0,-3.0v7 M-2.5,-0.5L0,-3.0L2.5,-0.5"/>
                </g>
        </g>
</svg>
