<?xml version="1.0" encoding="UTF-8" standalone="no"?>
<!DOCTYPE svg PUBLIC "-//W3C//DTD SVG 1.1//EN"
 "http://www.w3.org/Graphics/SVG/1.1/DTD/svg11.dtd">
<!-- Generated by graphviz version 2.26.3 (20100126.1600)
 -->
<!-- Title: G Pages: 1 -->
<!--zoomable 329 -->
<svg id="main" version="1.1" xmlns="http://www.w3.org/2000/svg" xmlns:xlink="http://www.w3.org/1999/xlink" xml:space="preserve" onload="init(evt)">
        <defs>
                <circle id="rim" cx="0" cy="0" r="7"/>
                <circle id="rim2" cx="0" cy="0" r="3.5"/>
                <g id="zoomPlus">
                        <use xlink:href="#rim" fill="#404040">
                                <set attributeName="fill" to="#808080" begin="zoomplus.mouseover" end="zoomplus.mouseout"/>
                        </use>
                        <path d="M-4,0h8M0,-4v8" fill="none" stroke="white" stroke-width="1.5" pointer-events="none"/>
                </g>
                <g id="zoomMin">
                        <use xlink:href="#rim" fill="#404040">
                                <set attributeName="fill" to="#808080" begin="zoomminus.mouseover" end="zoomminus.mouseout"/>
                        </use>
                        <path d="M-4,0h8" fill="none" stroke="white" stroke-width="1.5" pointer-events="none"/>
                </g>
                <g id="dirArrow">
                        <path fill="none" stroke="white" stroke-width="1.5" d="M0,-3.0v7 M-2.5,-0.5L0,-3.0L2.5,-0.5"/>
                </g>
               <g id="resetDef">
                       <use xlink:href="#rim2" fill="#404040">
                               <set attributeName="fill" to="#808080" begin="reset.mouseover" end="reset.mouseout"/>
                       </use>
               </g>
        </defs>

<script type="text/javascript">
var viewWidth = 1232;
var viewHeight = 329;
var sectionId = 'dynsection-4';
</script>
<script xlink:href="svgpan.js"/>
<svg id="graph" class="graph">
<g id="viewport">
<title>G</title>
<!-- Node1 -->
<g id="node1" class="node"><title>Node1</title>
<polygon fill="#bfbfbf" stroke="black" points="0.5,-199.5 0.5,-220.5 119.5,-220.5 119.5,-199.5 0.5,-199.5"/>
<text text-anchor="middle" x="60" y="-207.5" font-family="FreeSans.ttf" font-size="10.00">corecvs::Pin::serialize</text>
</g>
<!-- Node2 -->
<g id="node3" class="node"><title>Node2</title>
<a xlink:href="classtinyxml2_1_1XMLNode.html#add244bca368083fa29698db8dcf147ca" target="_top" xlink:title="Get the XMLDocument that owns this XMLNode.">
<polygon fill="none" stroke="black" points="165,-299.5 165,-320.5 347,-320.5 347,-299.5 165,-299.5"/>
<text text-anchor="middle" x="256" y="-307.5" font-family="FreeSans.ttf" font-size="10.00">tinyxml2::XMLNode::GetDocument</text>
</a>
</g>
<!-- Node1&#45;&gt;Node2 -->
<g id="edge2" class="edge"><title>Node1&#45;&gt;Node2</title>
<path fill="none" stroke="midnightblue" d="M69.4422,-220.768C85.4136,-238.248 119.596,-272.591 156,-290 161.041,-292.411 166.36,-294.531 171.81,-296.396"/>
<polygon fill="midnightblue" stroke="midnightblue" points="171.143,-299.854 181.732,-299.485 173.224,-293.171 171.143,-299.854"/>
</g>
<!-- Node3 -->
<g id="node5" class="node"><title>Node3</title>
<a xlink:href="classcorecvs_1_1FilterBlock.html#ad95cef58c19a86f9058b3e7139049b89" target="_top" xlink:title="corecvs::FilterBlock::getFullName">
<polygon fill="none" stroke="black" points="169.5,-259.5 169.5,-280.5 342.5,-280.5 342.5,-259.5 169.5,-259.5"/>
<text text-anchor="middle" x="256" y="-267.5" font-family="FreeSans.ttf" font-size="10.00">corecvs::FilterBlock::getFullName</text>
</a>
</g>
<!-- Node1&#45;&gt;Node3 -->
<g id="edge4" class="edge"><title>Node1&#45;&gt;Node3</title>
<path fill="none" stroke="midnightblue" d="M82.0408,-220.653C101.208,-229.558 129.923,-242.045 156,-250 164.768,-252.675 174.079,-255.085 183.356,-257.23"/>
<polygon fill="midnightblue" stroke="midnightblue" points="182.86,-260.705 193.381,-259.452 184.375,-253.871 182.86,-260.705"/>
</g>
<!-- Node6 -->
<g id="node11" class="node"><title>Node6</title>
<a xlink:href="classcorecvs_1_1Pin.html#ab4fffd89c4ac7a3850d9550c42ad7ffb" target="_top" xlink:title="corecvs::Pin::getTypeName">
<polygon fill="none" stroke="black" points="183,-219.5 183,-240.5 329,-240.5 329,-219.5 183,-219.5"/>
<text text-anchor="middle" x="256" y="-227.5" font-family="FreeSans.ttf" font-size="10.00">corecvs::Pin::getTypeName</text>
</a>
</g>
<!-- Node1&#45;&gt;Node6 -->
<g id="edge10" class="edge"><title>Node1&#45;&gt;Node6</title>
<path fill="none" stroke="midnightblue" d="M119.605,-216.082C136.269,-217.783 154.692,-219.662 172.467,-221.476"/>
<polygon fill="midnightblue" stroke="midnightblue" points="172.535,-225.001 182.839,-222.535 173.246,-218.037 172.535,-225.001"/>
</g>
<!-- Node7 -->
<g id="node13" class="node"><title>Node7</title>
<a xlink:href="classtinyxml2_1_1XMLNode.html#ae3b422e98914d6002ca99bb1d2837103" target="_top" xlink:title="Add a child node as the last (right) child.">
<polygon fill="none" stroke="black" points="165,-179.5 165,-200.5 347,-200.5 347,-179.5 165,-179.5"/>
<text text-anchor="middle" x="256" y="-187.5" font-family="FreeSans.ttf" font-size="10.00">tinyxml2::XMLNode::InsertEndChild</text>
</a>
</g>
<!-- Node1&#45;&gt;Node7 -->
<g id="edge12" class="edge"><title>Node1&#45;&gt;Node7</title>
<path fill="none" stroke="midnightblue" d="M119.605,-203.918C130.779,-202.778 142.745,-201.557 154.776,-200.329"/>
<polygon fill="midnightblue" stroke="midnightblue" points="155.288,-203.795 164.881,-199.298 154.577,-196.831 155.288,-203.795"/>
</g>
<!-- Node9 -->
<g id="node17" class="node"><title>Node9</title>
<a xlink:href="classtinyxml2_1_1XMLDocument.html#a3c335a700a43d7c363a393142a23f234" target="_top" xlink:title="Create a new Element associated with this Document.">
<polygon fill="none" stroke="black" points="156.5,-139.5 156.5,-160.5 355.5,-160.5 355.5,-139.5 156.5,-139.5"/>
<text text-anchor="middle" x="256" y="-147.5" font-family="FreeSans.ttf" font-size="10.00">tinyxml2::XMLDocument::NewElement</text>
</a>
</g>
<!-- Node1&#45;&gt;Node9 -->
<g id="edge16" class="edge"><title>Node1&#45;&gt;Node9</title>
<path fill="none" stroke="midnightblue" d="M82.0408,-199.347C101.208,-190.442 129.923,-177.955 156,-170 164.768,-167.325 174.079,-164.915 183.356,-162.77"/>
<polygon fill="midnightblue" stroke="midnightblue" points="184.375,-166.129 193.381,-160.548 182.86,-159.295 184.375,-166.129"/>
</g>
<!-- Node16 -->
<g id="node31" class="node"><title>Node16</title>
<a xlink:href="classtinyxml2_1_1XMLElement.html#a11943abf2d0831548c3790dd5d9f119c" target="_top" xlink:title="Sets the named attribute to value.">
<polygon fill="none" stroke="black" points="162.5,-80.5 162.5,-101.5 349.5,-101.5 349.5,-80.5 162.5,-80.5"/>
<text text-anchor="middle" x="256" y="-88.5" font-family="FreeSans.ttf" font-size="10.00">tinyxml2::XMLElement::SetAttribute</text>
</a>
</g>
<!-- Node1&#45;&gt;Node16 -->
<g id="edge30" class="edge"><title>Node1&#45;&gt;Node16</title>
<path fill="none" stroke="midnightblue" d="M70.3522,-199.391C87.0699,-182.743 121.624,-150.294 156,-130 173.195,-119.849 193.516,-111.362 211.334,-104.926"/>
<polygon fill="midnightblue" stroke="midnightblue" points="212.657,-108.171 220.939,-101.564 210.344,-101.564 212.657,-108.171"/>
</g>
<!-- Node4 -->
<g id="node7" class="node"><title>Node4</title>
<a xlink:href="classcorecvs_1_1FilterBlock.html#a23839246f21e11f0fccf0b2b40ebd11f" target="_top" xlink:title="corecvs::FilterBlock::getInstanceId">
<polygon fill="none" stroke="black" points="420,-249.5 420,-270.5 598,-270.5 598,-249.5 420,-249.5"/>
<text text-anchor="middle" x="509" y="-257.5" font-family="FreeSans.ttf" font-size="10.00">corecvs::FilterBlock::getInstanceId</text>
</a>
</g>
<!-- Node3&#45;&gt;Node4 -->
<g id="edge6" class="edge"><title>Node3&#45;&gt;Node4</title>
<path fill="none" stroke="midnightblue" d="M342.714,-266.573C364.298,-265.719 387.603,-264.798 409.739,-263.923"/>
<polygon fill="midnightblue" stroke="midnightblue" points="409.963,-267.417 419.817,-263.525 409.686,-260.423 409.963,-267.417"/>
</g>
<!-- Node5 -->
<g id="node9" class="node"><title>Node5</title>
<a xlink:href="classcorecvs_1_1FilterBlock.html#ad92b1d273b91fd68b9b9b84d5f818df8" target="_top" xlink:title="corecvs::FilterBlock::getTypeName">
<polygon fill="none" stroke="black" points="419.5,-289.5 419.5,-310.5 598.5,-310.5 598.5,-289.5 419.5,-289.5"/>
<text text-anchor="middle" x="509" y="-297.5" font-family="FreeSans.ttf" font-size="10.00">corecvs::FilterBlock::getTypeName</text>
</a>
</g>
<!-- Node3&#45;&gt;Node5 -->
<g id="edge8" class="edge"><title>Node3&#45;&gt;Node5</title>
<path fill="none" stroke="midnightblue" d="M342.714,-280.282C364.422,-282.856 387.871,-285.637 410.12,-288.275"/>
<polygon fill="midnightblue" stroke="midnightblue" points="409.906,-291.774 420.248,-289.476 410.73,-284.823 409.906,-291.774"/>
</g>
<!-- Node8 -->
<g id="node15" class="node"><title>Node8</title>
<a xlink:href="classtinyxml2_1_1MemPool.html#ac5804dd1387b2e4de5eef710076a0db1" target="_top" xlink:title="tinyxml2::MemPool::SetTracked">
<polygon fill="none" stroke="black" points="426,-199.5 426,-220.5 592,-220.5 592,-199.5 426,-199.5"/>
<text text-anchor="middle" x="509" y="-207.5" font-family="FreeSans.ttf" font-size="10.00">tinyxml2::MemPool::SetTracked</text>
</a>
</g>
<!-- Node7&#45;&gt;Node8 -->
<g id="edge14" class="edge"><title>Node7&#45;&gt;Node8</title>
<path fill="none" stroke="midnightblue" d="M347.339,-197.22C369.555,-198.977 393.343,-200.857 415.651,-202.621"/>
<polygon fill="midnightblue" stroke="midnightblue" points="415.541,-206.123 425.786,-203.422 416.093,-199.145 415.541,-206.123"/>
</g>
<!-- Node10 -->
<g id="node19" class="node"><title>Node10</title>
<a xlink:href="classtinyxml2_1_1MemPoolT.html#aa9d785a48ffe6ea1be679bab13464486" target="_top" xlink:title="tinyxml2::MemPoolT::Alloc">
<polygon fill="none" stroke="black" points="687,-120.5 687,-141.5 827,-141.5 827,-120.5 687,-120.5"/>
<text text-anchor="middle" x="757" y="-128.5" font-family="FreeSans.ttf" font-size="10.00">tinyxml2::MemPoolT::Alloc</text>
</a>
</g>
<!-- Node9&#45;&gt;Node10 -->
<g id="edge18" class="edge"><title>Node9&#45;&gt;Node10</title>
<path fill="none" stroke="midnightblue" d="M355.58,-146.223C449.733,-142.653 589.234,-137.362 676.54,-134.051"/>
<polygon fill="midnightblue" stroke="midnightblue" points="676.799,-137.544 686.659,-133.668 676.533,-130.549 676.799,-137.544"/>
</g>
<!-- Node11 -->
<g id="node21" class="node"><title>Node11</title>
<a xlink:href="classtinyxml2_1_1XMLElement.html#a97712009a530d8cb8a63bf705f02b4f1" target="_top" xlink:title="Set the name of the element.">
<polygon fill="none" stroke="black" points="422,-159.5 422,-180.5 596,-180.5 596,-159.5 422,-159.5"/>
<text text-anchor="middle" x="509" y="-167.5" font-family="FreeSans.ttf" font-size="10.00">tinyxml2::XMLElement::SetName</text>
</a>
</g>
<!-- Node9&#45;&gt;Node11 -->
<g id="edge20" class="edge"><title>Node9&#45;&gt;Node11</title>
<path fill="none" stroke="midnightblue" d="M355.629,-157.876C374.063,-159.333 393.296,-160.853 411.661,-162.305"/>
<polygon fill="midnightblue" stroke="midnightblue" points="411.52,-165.805 421.764,-163.104 412.071,-158.827 411.52,-165.805"/>
</g>
<!-- Node12 -->
<g id="node23" class="node"><title>Node12</title>
<a xlink:href="classtinyxml2_1_1XMLNode.html#a09dd68cf9eae137579f6e50f36487513" target="_top" xlink:title="Set the Value of an XML node.">
<polygon fill="none" stroke="black" points="678.5,-160.5 678.5,-181.5 835.5,-181.5 835.5,-160.5 678.5,-160.5"/>
<text text-anchor="middle" x="757" y="-168.5" font-family="FreeSans.ttf" font-size="10.00">tinyxml2::XMLNode::SetValue</text>
</a>
</g>
<!-- Node11&#45;&gt;Node12 -->
<g id="edge22" class="edge"><title>Node11&#45;&gt;Node12</title>
<path fill="none" stroke="midnightblue" d="M596.087,-170.351C619.43,-170.445 644.693,-170.547 668.13,-170.642"/>
<polygon fill="midnightblue" stroke="midnightblue" points="668.389,-174.143 678.404,-170.683 668.418,-167.143 668.389,-174.143"/>
</g>
<!-- Node13 -->
<g id="node25" class="node"><title>Node13</title>
<a xlink:href="classtinyxml2_1_1StrPair.html#a2baf6230e18333e02ab65d0897ee3941" target="_top" xlink:title="tinyxml2::StrPair::SetInternedStr">
<polygon fill="none" stroke="black" points="888.5,-160.5 888.5,-181.5 1059.5,-181.5 1059.5,-160.5 888.5,-160.5"/>
<text text-anchor="middle" x="974" y="-168.5" font-family="FreeSans.ttf" font-size="10.00">tinyxml2::StrPair::SetInternedStr</text>
</a>
</g>
<!-- Node12&#45;&gt;Node13 -->
<g id="edge24" class="edge"><title>Node12&#45;&gt;Node13</title>
<path fill="none" stroke="midnightblue" d="M835.649,-171C849.411,-171 863.867,-171 878.035,-171"/>
<polygon fill="midnightblue" stroke="midnightblue" points="878.286,-174.5 888.286,-171 878.286,-167.5 878.286,-174.5"/>
</g>
<!-- Node15 -->
<g id="node29" class="node"><title>Node15</title>
<a xlink:href="classtinyxml2_1_1StrPair.html#a1f82ec6b5bee35ee7466d8565e43b1de" target="_top" xlink:title="tinyxml2::StrPair::SetStr">
<polygon fill="none" stroke="black" points="908.5,-80.5 908.5,-101.5 1039.5,-101.5 1039.5,-80.5 908.5,-80.5"/>
<text text-anchor="middle" x="974" y="-88.5" font-family="FreeSans.ttf" font-size="10.00">tinyxml2::StrPair::SetStr</text>
</a>
</g>
<!-- Node12&#45;&gt;Node15 -->
<g id="edge28" class="edge"><title>Node12&#45;&gt;Node15</title>
<path fill="none" stroke="midnightblue" d="M818.176,-160.474C829.558,-157.856 841.245,-154.711 852,-151 886.077,-139.241 922.916,-120.157 947.093,-106.674"/>
<polygon fill="midnightblue" stroke="midnightblue" points="949.032,-109.599 956.015,-101.631 945.588,-103.505 949.032,-109.599"/>
</g>
<!-- Node14 -->
<g id="node27" class="node"><title>Node14</title>
<a xlink:href="classtinyxml2_1_1StrPair.html#a80c1b3bd99bf62ae85c94a29ce537125" target="_top" xlink:title="tinyxml2::StrPair::Reset">
<polygon fill="none" stroke="black" points="1096.5,-160.5 1096.5,-181.5 1223.5,-181.5 1223.5,-160.5 1096.5,-160.5"/>
<text text-anchor="middle" x="1160" y="-168.5" font-family="FreeSans.ttf" font-size="10.00">tinyxml2::StrPair::Reset</text>
</a>
</g>
<!-- Node13&#45;&gt;Node14 -->
<g id="edge26" class="edge"><title>Node13&#45;&gt;Node14</title>
<path fill="none" stroke="midnightblue" d="M1059.65,-171C1068.56,-171 1077.56,-171 1086.32,-171"/>
<polygon fill="midnightblue" stroke="midnightblue" points="1086.47,-174.5 1096.47,-171 1086.47,-167.5 1086.47,-174.5"/>
</g>
<!-- Node17 -->
<g id="node33" class="node"><title>Node17</title>
<a xlink:href="classtinyxml2_1_1XMLElement.html#ac9d8fc849ec8acf46678217de011e896" target="_top" xlink:title="tinyxml2::XMLElement::FindOrCreateAttribute">
<polygon fill="none" stroke="black" points="392.5,-80.5 392.5,-101.5 625.5,-101.5 625.5,-80.5 392.5,-80.5"/>
<text text-anchor="middle" x="509" y="-88.5" font-family="FreeSans.ttf" font-size="10.00">tinyxml2::XMLElement::FindOrCreateAttribute</text>
</a>
</g>
<!-- Node16&#45;&gt;Node17 -->
<g id="edge32" class="edge"><title>Node16&#45;&gt;Node17</title>
<path fill="none" stroke="midnightblue" d="M349.848,-91C360.292,-91 371.055,-91 381.824,-91"/>
<polygon fill="midnightblue" stroke="midnightblue" points="382.14,-94.5001 392.14,-91 382.14,-87.5001 382.14,-94.5001"/>
</g>
<!-- Node20 -->
<g id="node41" class="node"><title>Node20</title>
<a xlink:href="classtinyxml2_1_1XMLAttribute.html#a406d2c4a13c7af99a65edb59dd9f7581" target="_top" xlink:title="Set the attribute to a string value.">
<polygon fill="none" stroke="black" points="662.5,-0.5 662.5,-21.5 851.5,-21.5 851.5,-0.5 662.5,-0.5"/>
<text text-anchor="middle" x="757" y="-8.5" font-family="FreeSans.ttf" font-size="10.00">tinyxml2::XMLAttribute::SetAttribute</text>
</a>
</g>
<!-- Node16&#45;&gt;Node20 -->
<g id="edge42" class="edge"><title>Node16&#45;&gt;Node20</title>
<path fill="none" stroke="midnightblue" d="M322.012,-80.4591C414.783,-65.6454 583.306,-38.7356 681.127,-23.1155"/>
<polygon fill="midnightblue" stroke="midnightblue" points="681.917,-26.5337 691.24,-21.5006 680.813,-19.6213 681.917,-26.5337"/>
</g>
<!-- Node17&#45;&gt;Node10 -->
<g id="edge36" class="edge"><title>Node17&#45;&gt;Node10</title>
<path fill="none" stroke="midnightblue" d="M574.159,-101.51C607.206,-106.84 647.51,-113.34 681.86,-118.881"/>
<polygon fill="midnightblue" stroke="midnightblue" points="681.416,-122.354 691.846,-120.491 682.531,-115.444 681.416,-122.354"/>
</g>
<!-- Node18 -->
<g id="node35" class="node"><title>Node18</title>
<a xlink:href="classtinyxml2_1_1XMLUtil.html#acfcd287cacfd2533e1bc9ea4dfb56602" target="_top" xlink:title="tinyxml2::XMLUtil::StringEqual">
<polygon fill="none" stroke="black" points="678,-40.5 678,-61.5 836,-61.5 836,-40.5 678,-40.5"/>
<text text-anchor="middle" x="757" y="-48.5" font-family="FreeSans.ttf" font-size="10.00">tinyxml2::XMLUtil::StringEqual</text>
</a>
</g>
<!-- Node17&#45;&gt;Node18 -->
<g id="edge34" class="edge"><title>Node17&#45;&gt;Node18</title>
<path fill="none" stroke="midnightblue" d="M574.159,-80.4905C607.206,-75.1604 647.51,-68.6596 681.86,-63.1193"/>
<polygon fill="midnightblue" stroke="midnightblue" points="682.531,-66.5565 691.846,-61.5087 681.416,-59.6458 682.531,-66.5565"/>
</g>
<!-- Node19 -->
<g id="node38" class="node"><title>Node19</title>
<a xlink:href="classtinyxml2_1_1XMLAttribute.html#a469c2363600007f49e62a8048a362d57" target="_top" xlink:title="tinyxml2::XMLAttribute::SetName">
<polygon fill="none" stroke="black" points="669,-80.5 669,-101.5 845,-101.5 845,-80.5 669,-80.5"/>
<text text-anchor="middle" x="757" y="-88.5" font-family="FreeSans.ttf" font-size="10.00">tinyxml2::XMLAttribute::SetName</text>
</a>
</g>
<!-- Node17&#45;&gt;Node19 -->
<g id="edge38" class="edge"><title>Node17&#45;&gt;Node19</title>
<path fill="none" stroke="midnightblue" d="M625.738,-91C636.687,-91 647.711,-91 658.468,-91"/>
<polygon fill="midnightblue" stroke="midnightblue" points="658.689,-94.5001 668.689,-91 658.689,-87.5001 658.689,-94.5001"/>
</g>
<!-- Node19&#45;&gt;Node15 -->
<g id="edge40" class="edge"><title>Node19&#45;&gt;Node15</title>
<path fill="none" stroke="midnightblue" d="M845.262,-91C862.753,-91 880.971,-91 898.011,-91"/>
<polygon fill="midnightblue" stroke="midnightblue" points="898.451,-94.5001 908.451,-91 898.451,-87.5001 898.451,-94.5001"/>
</g>
<!-- Node20&#45;&gt;Node15 -->
<g id="edge44" class="edge"><title>Node20&#45;&gt;Node15</title>
<path fill="none" stroke="midnightblue" d="M818.176,-21.5256C829.558,-24.1443 841.245,-27.2889 852,-31 886.077,-42.7592 922.916,-61.8426 947.093,-75.3259"/>
<polygon fill="midnightblue" stroke="midnightblue" points="945.588,-78.4954 956.015,-80.3691 949.032,-72.4015 945.588,-78.4954"/>
</g>
</g>
</svg>
        <g id="navigator" transform="translate(0 0)" fill="#404254">
                <rect fill="#f2f5e9" fill-opacity="0.5" stroke="#606060" stroke-width=".5" x="0" y="0" width="60" height="60"/>
                <use id="zoomplus" xlink:href="#zoomPlus" x="17" y="9" onmousedown="handleZoom(evt,'in')"/>
                <use id="zoomminus" xlink:href="#zoomMin" x="42" y="9" onmousedown="handleZoom(evt,'out')"/>
                <use id="reset" xlink:href="#resetDef" x="30" y="36" onmousedown="handleReset()"/>
                <g id="arrowUp" xlink:href="#dirArrow" transform="translate(30 24)" onmousedown="handlePan(0,-1)">
                  <use xlink:href="#rim" fill="#404040">
                        <set attributeName="fill" to="#808080" begin="arrowUp.mouseover" end="arrowUp.mouseout"/>
                  </use>
                  <path fill="none" stroke="white" stroke-width="1.5" d="M0,-3.0v7 M-2.5,-0.5L0,-3.0L2.5,-0.5"/>
                </g>
                <g id="arrowRight" xlink:href="#dirArrow" transform="rotate(90) translate(36 -43)" onmousedown="handlePan(1,0)">
                  <use xlink:href="#rim" fill="#404040">
                        <set attributeName="fill" to="#808080" begin="arrowRight.mouseover" end="arrowRight.mouseout"/>
                  </use>
                  <path fill="none" stroke="white" stroke-width="1.5" d="M0,-3.0v7 M-2.5,-0.5L0,-3.0L2.5,-0.5"/>
                </g>
                <g id="arrowDown" xlink:href="#dirArrow" transform="rotate(180) translate(-30 -48)" onmousedown="handlePan(0,1)">
                  <use xlink:href="#rim" fill="#404040">
                        <set attributeName="fill" to="#808080" begin="arrowDown.mouseover" end="arrowDown.mouseout"/>
                  </use>
                  <path fill="none" stroke="white" stroke-width="1.5" d="M0,-3.0v7 M-2.5,-0.5L0,-3.0L2.5,-0.5"/>
                </g>
                <g id="arrowLeft" xlink:href="#dirArrow" transform="rotate(270) translate(-36 17)" onmousedown="handlePan(-1,0)">
                  <use xlink:href="#rim" fill="#404040">
                        <set attributeName="fill" to="#808080" begin="arrowLeft.mouseover" end="arrowLeft.mouseout"/>
                  </use>
                  <path fill="none" stroke="white" stroke-width="1.5" d="M0,-3.0v7 M-2.5,-0.5L0,-3.0L2.5,-0.5"/>
                </g>
        </g>
</svg>
