<?xml version="1.0" encoding="UTF-8" standalone="no"?>
<!DOCTYPE svg PUBLIC "-//W3C//DTD SVG 1.1//EN"
 "http://www.w3.org/Graphics/SVG/1.1/DTD/svg11.dtd">
<!-- Generated by graphviz version 2.26.3 (20100126.1600)
 -->
<!-- Title: G Pages: 1 -->
<!--zoomable 108 -->
<svg id="main" version="1.1" xmlns="http://www.w3.org/2000/svg" xmlns:xlink="http://www.w3.org/1999/xlink" xml:space="preserve" onload="init(evt)">
        <defs>
                <circle id="rim" cx="0" cy="0" r="7"/>
                <circle id="rim2" cx="0" cy="0" r="3.5"/>
                <g id="zoomPlus">
                        <use xlink:href="#rim" fill="#404040">
                                <set attributeName="fill" to="#808080" begin="zoomplus.mouseover" end="zoomplus.mouseout"/>
                        </use>
                        <path d="M-4,0h8M0,-4v8" fill="none" stroke="white" stroke-width="1.5" pointer-events="none"/>
                </g>
                <g id="zoomMin">
                        <use xlink:href="#rim" fill="#404040">
                                <set attributeName="fill" to="#808080" begin="zoomminus.mouseover" end="zoomminus.mouseout"/>
                        </use>
                        <path d="M-4,0h8" fill="none" stroke="white" stroke-width="1.5" pointer-events="none"/>
                </g>
                <g id="dirArrow">
                        <path fill="none" stroke="white" stroke-width="1.5" d="M0,-3.0v7 M-2.5,-0.5L0,-3.0L2.5,-0.5"/>
                </g>
               <g id="resetDef">
                       <use xlink:href="#rim2" fill="#404040">
                               <set attributeName="fill" to="#808080" begin="reset.mouseover" end="reset.mouseout"/>
                       </use>
               </g>
        </defs>

<script type="text/javascript">
var viewWidth = 960;
var viewHeight = 108;
var sectionId = 'dynsection-32';
</script>
<script xlink:href="svgpan.js"/>
<svg id="graph" class="graph">
<g id="viewport">
<title>G</title>
<!-- Node1 -->
<g id="node1" class="node"><title>Node1</title>
<polygon fill="#bfbfbf" stroke="black" points="0,-39.5 0,-60.5 158,-60.5 158,-39.5 0,-39.5"/>
<text text-anchor="middle" x="79" y="-47.5" font-family="FreeSans.ttf" font-size="10.00">tinyxml2::XMLPrinter::VisitExit</text>
</g>
<!-- Node2 -->
<g id="node3" class="node"><title>Node2</title>
<a xlink:href="classtinyxml2_1_1XMLPrinter.html#aed6cce4bd414a78b3e2a824803c3ec42" target="_top" xlink:title="If streaming, close the Element.">
<polygon fill="none" stroke="black" points="194,-39.5 194,-60.5 380,-60.5 380,-39.5 194,-39.5"/>
<text text-anchor="middle" x="287" y="-47.5" font-family="FreeSans.ttf" font-size="10.00">tinyxml2::XMLPrinter::CloseElement</text>
</a>
</g>
<!-- Node1&#45;&gt;Node2 -->
<g id="edge2" class="edge"><title>Node1&#45;&gt;Node2</title>
<path fill="none" stroke="midnightblue" d="M158.229,-50C166.563,-50 175.123,-50 183.676,-50"/>
<polygon fill="midnightblue" stroke="midnightblue" points="183.701,-53.5001 193.701,-50 183.701,-46.5001 183.701,-53.5001"/>
</g>
<!-- Node3 -->
<g id="node5" class="node"><title>Node3</title>
<a xlink:href="classtinyxml2_1_1DynArray.html#a2281e3342bc235bf391a67e362c75866" target="_top" xlink:title="tinyxml2::DynArray::Pop">
<polygon fill="none" stroke="black" points="436.5,-78.5 436.5,-99.5 567.5,-99.5 567.5,-78.5 436.5,-78.5"/>
<text text-anchor="middle" x="502" y="-86.5" font-family="FreeSans.ttf" font-size="10.00">tinyxml2::DynArray::Pop</text>
</a>
</g>
<!-- Node2&#45;&gt;Node3 -->
<g id="edge4" class="edge"><title>Node2&#45;&gt;Node3</title>
<path fill="none" stroke="midnightblue" d="M344.899,-60.5026C372.379,-65.4874 405.399,-71.4769 434.058,-76.6757"/>
<polygon fill="midnightblue" stroke="midnightblue" points="433.534,-80.1376 443.998,-78.4787 434.783,-73.2499 433.534,-80.1376"/>
</g>
<!-- Node4 -->
<g id="node7" class="node"><title>Node4</title>
<a xlink:href="classtinyxml2_1_1XMLPrinter.html#ab30210a7f32e45634e7a45137bf6fdf6" target="_top" xlink:title="tinyxml2::XMLPrinter::Print">
<polygon fill="none" stroke="black" points="624,-19.5 624,-40.5 766,-40.5 766,-19.5 624,-19.5"/>
<text text-anchor="middle" x="695" y="-27.5" font-family="FreeSans.ttf" font-size="10.00">tinyxml2::XMLPrinter::Print</text>
</a>
</g>
<!-- Node2&#45;&gt;Node4 -->
<g id="edge6" class="edge"><title>Node2&#45;&gt;Node4</title>
<path fill="none" stroke="midnightblue" d="M380.092,-45.4367C450.559,-41.9824 546.393,-37.2846 613.774,-33.9817"/>
<polygon fill="midnightblue" stroke="midnightblue" points="614.102,-37.4699 623.918,-33.4844 613.759,-30.4783 614.102,-37.4699"/>
</g>
<!-- Node6 -->
<g id="node11" class="node"><title>Node6</title>
<a xlink:href="classtinyxml2_1_1XMLPrinter.html#a1c4b2ccbe4fdb316d54f5a93f3559260" target="_top" xlink:title="tinyxml2::XMLPrinter::PrintSpace">
<polygon fill="none" stroke="black" points="416,-0.5 416,-21.5 588,-21.5 588,-0.5 416,-0.5"/>
<text text-anchor="middle" x="502" y="-8.5" font-family="FreeSans.ttf" font-size="10.00">tinyxml2::XMLPrinter::PrintSpace</text>
</a>
</g>
<!-- Node2&#45;&gt;Node6 -->
<g id="edge10" class="edge"><title>Node2&#45;&gt;Node6</title>
<path fill="none" stroke="midnightblue" d="M344.899,-39.4974C372.379,-34.5126 405.399,-28.5231 434.058,-23.3243"/>
<polygon fill="midnightblue" stroke="midnightblue" points="434.783,-26.7501 443.998,-21.5213 433.534,-19.8624 434.783,-26.7501"/>
</g>
<!-- Node5 -->
<g id="node9" class="node"><title>Node5</title>
<a xlink:href="classtinyxml2_1_1DynArray.html#aa3c360d40addc3b05121da9f60a01b4d" target="_top" xlink:title="tinyxml2::DynArray::PushArr">
<polygon fill="none" stroke="black" points="802,-19.5 802,-40.5 952,-40.5 952,-19.5 802,-19.5"/>
<text text-anchor="middle" x="877" y="-27.5" font-family="FreeSans.ttf" font-size="10.00">tinyxml2::DynArray::PushArr</text>
</a>
</g>
<!-- Node4&#45;&gt;Node5 -->
<g id="edge8" class="edge"><title>Node4&#45;&gt;Node5</title>
<path fill="none" stroke="midnightblue" d="M766.148,-30C774.604,-30 783.3,-30 791.924,-30"/>
<polygon fill="midnightblue" stroke="midnightblue" points="791.998,-33.5001 801.998,-30 791.998,-26.5001 791.998,-33.5001"/>
</g>
<!-- Node6&#45;&gt;Node4 -->
<g id="edge12" class="edge"><title>Node6&#45;&gt;Node4</title>
<path fill="none" stroke="midnightblue" d="M588.058,-19.472C596.562,-20.3092 605.176,-21.1572 613.63,-21.9895"/>
<polygon fill="midnightblue" stroke="midnightblue" points="613.552,-25.4986 623.847,-22.9953 614.238,-18.5323 613.552,-25.4986"/>
</g>
</g>
</svg>
        <g id="navigator" transform="translate(0 0)" fill="#404254">
                <rect fill="#f2f5e9" fill-opacity="0.5" stroke="#606060" stroke-width=".5" x="0" y="0" width="60" height="60"/>
                <use id="zoomplus" xlink:href="#zoomPlus" x="17" y="9" onmousedown="handleZoom(evt,'in')"/>
                <use id="zoomminus" xlink:href="#zoomMin" x="42" y="9" onmousedown="handleZoom(evt,'out')"/>
                <use id="reset" xlink:href="#resetDef" x="30" y="36" onmousedown="handleReset()"/>
                <g id="arrowUp" xlink:href="#dirArrow" transform="translate(30 24)" onmousedown="handlePan(0,-1)">
                  <use xlink:href="#rim" fill="#404040">
                        <set attributeName="fill" to="#808080" begin="arrowUp.mouseover" end="arrowUp.mouseout"/>
                  </use>
                  <path fill="none" stroke="white" stroke-width="1.5" d="M0,-3.0v7 M-2.5,-0.5L0,-3.0L2.5,-0.5"/>
                </g>
                <g id="arrowRight" xlink:href="#dirArrow" transform="rotate(90) translate(36 -43)" onmousedown="handlePan(1,0)">
                  <use xlink:href="#rim" fill="#404040">
                        <set attributeName="fill" to="#808080" begin="arrowRight.mouseover" end="arrowRight.mouseout"/>
                  </use>
                  <path fill="none" stroke="white" stroke-width="1.5" d="M0,-3.0v7 M-2.5,-0.5L0,-3.0L2.5,-0.5"/>
                </g>
                <g id="arrowDown" xlink:href="#dirArrow" transform="rotate(180) translate(-30 -48)" onmousedown="handlePan(0,1)">
                  <use xlink:href="#rim" fill="#404040">
                        <set attributeName="fill" to="#808080" begin="arrowDown.mouseover" end="arrowDown.mouseout"/>
                  </use>
                  <path fill="none" stroke="white" stroke-width="1.5" d="M0,-3.0v7 M-2.5,-0.5L0,-3.0L2.5,-0.5"/>
                </g>
                <g id="arrowLeft" xlink:href="#dirArrow" transform="rotate(270) translate(-36 17)" onmousedown="handlePan(-1,0)">
                  <use xlink:href="#rim" fill="#404040">
                        <set attributeName="fill" to="#808080" begin="arrowLeft.mouseover" end="arrowLeft.mouseout"/>
                  </use>
                  <path fill="none" stroke="white" stroke-width="1.5" d="M0,-3.0v7 M-2.5,-0.5L0,-3.0L2.5,-0.5"/>
                </g>
        </g>
</svg>
