<?xml version="1.0" encoding="UTF-8" standalone="no"?>
<!DOCTYPE svg PUBLIC "-//W3C//DTD SVG 1.1//EN"
 "http://www.w3.org/Graphics/SVG/1.1/DTD/svg11.dtd">
<!-- Generated by graphviz version 2.26.3 (20100126.1600)
 -->
<!-- Title: G Pages: 1 -->
<!--zoomable 470 -->
<svg id="main" version="1.1" xmlns="http://www.w3.org/2000/svg" xmlns:xlink="http://www.w3.org/1999/xlink" xml:space="preserve" onload="init(evt)">
        <defs>
                <circle id="rim" cx="0" cy="0" r="7"/>
                <circle id="rim2" cx="0" cy="0" r="3.5"/>
                <g id="zoomPlus">
                        <use xlink:href="#rim" fill="#404040">
                                <set attributeName="fill" to="#808080" begin="zoomplus.mouseover" end="zoomplus.mouseout"/>
                        </use>
                        <path d="M-4,0h8M0,-4v8" fill="none" stroke="white" stroke-width="1.5" pointer-events="none"/>
                </g>
                <g id="zoomMin">
                        <use xlink:href="#rim" fill="#404040">
                                <set attributeName="fill" to="#808080" begin="zoomminus.mouseover" end="zoomminus.mouseout"/>
                        </use>
                        <path d="M-4,0h8" fill="none" stroke="white" stroke-width="1.5" pointer-events="none"/>
                </g>
                <g id="dirArrow">
                        <path fill="none" stroke="white" stroke-width="1.5" d="M0,-3.0v7 M-2.5,-0.5L0,-3.0L2.5,-0.5"/>
                </g>
               <g id="resetDef">
                       <use xlink:href="#rim2" fill="#404040">
                               <set attributeName="fill" to="#808080" begin="reset.mouseover" end="reset.mouseout"/>
                       </use>
               </g>
        </defs>

<script type="text/javascript">
var viewWidth = 556;
var viewHeight = 470;
var sectionId = 'dynsection-8';
</script>
<script xlink:href="svgpan.js"/>
<svg id="graph" class="graph">
<g id="viewport">
<title>G</title>
<!-- Node1 -->
<g id="node1" class="node"><title>Node1</title>
<polygon fill="#bfbfbf" stroke="black" points="0.5,-220.5 0.5,-241.5 251.5,-241.5 251.5,-220.5 0.5,-220.5"/>
<text text-anchor="middle" x="126" y="-228.5" font-family="FreeSans.ttf" font-size="10.00">Draw3dParametersControlWidget::setParameters</text>
</g>
<!-- Node2 -->
<g id="node3" class="node"><title>Node2</title>
<a xlink:href="classDraw3dParameters.html#a5c833963f4b9b36ce3e7648f4a5a901f" target="_top" xlink:title="Draw3dParameters::color">
<polygon fill="none" stroke="black" points="349.5,-440.5 349.5,-461.5 486.5,-461.5 486.5,-440.5 349.5,-440.5"/>
<text text-anchor="middle" x="418" y="-448.5" font-family="FreeSans.ttf" font-size="10.00">Draw3dParameters::color</text>
</a>
</g>
<!-- Node1&#45;&gt;Node2 -->
<g id="edge2" class="edge"><title>Node1&#45;&gt;Node2</title>
<path fill="none" stroke="midnightblue" d="M130.955,-241.538C147.587,-275.615 205.079,-383.377 288,-431 303.394,-439.841 321.427,-445.157 339.077,-448.273"/>
<polygon fill="midnightblue" stroke="midnightblue" points="338.985,-451.8 349.402,-449.864 340.051,-444.882 338.985,-451.8"/>
</g>
<!-- Node3 -->
<g id="node5" class="node"><title>Node3</title>
<a xlink:href="classDraw3dParameters.html#a906711a978ad0e6812137d127f8440c1" target="_top" xlink:title="Draw3dParameters::decalLeftAlpha">
<polygon fill="none" stroke="black" points="325.5,-400.5 325.5,-421.5 510.5,-421.5 510.5,-400.5 325.5,-400.5"/>
<text text-anchor="middle" x="418" y="-408.5" font-family="FreeSans.ttf" font-size="10.00">Draw3dParameters::decalLeftAlpha</text>
</a>
</g>
<!-- Node1&#45;&gt;Node3 -->
<g id="edge4" class="edge"><title>Node1&#45;&gt;Node3</title>
<path fill="none" stroke="midnightblue" d="M133.203,-241.87C153.508,-271.523 214.542,-354.062 288,-391 296.555,-395.302 305.795,-398.731 315.267,-401.458"/>
<polygon fill="midnightblue" stroke="midnightblue" points="314.642,-404.912 325.202,-404.052 316.411,-398.139 314.642,-404.912"/>
</g>
<!-- Node4 -->
<g id="node7" class="node"><title>Node4</title>
<a xlink:href="classDraw3dParameters.html#afee5bbe4f89307b91fee544c03151fbd" target="_top" xlink:title="Draw3dParameters::decalLeftCam">
<polygon fill="none" stroke="black" points="328,-360.5 328,-381.5 508,-381.5 508,-360.5 328,-360.5"/>
<text text-anchor="middle" x="418" y="-368.5" font-family="FreeSans.ttf" font-size="10.00">Draw3dParameters::decalLeftCam</text>
</a>
</g>
<!-- Node1&#45;&gt;Node4 -->
<g id="edge6" class="edge"><title>Node1&#45;&gt;Node4</title>
<path fill="none" stroke="midnightblue" d="M136.59,-241.846C160.857,-265.97 223.392,-324.057 288,-351 297.503,-354.963 307.691,-358.15 318.029,-360.713"/>
<polygon fill="midnightblue" stroke="midnightblue" points="317.44,-364.168 327.968,-362.982 318.998,-357.344 317.44,-364.168"/>
</g>
<!-- Node5 -->
<g id="node9" class="node"><title>Node5</title>
<a xlink:href="classDraw3dParameters.html#af81a04a61abba3640d888e121e3c4f4c" target="_top" xlink:title="Draw3dParameters::decalMatrixType">
<polygon fill="none" stroke="black" points="323,-320.5 323,-341.5 513,-341.5 513,-320.5 323,-320.5"/>
<text text-anchor="middle" x="418" y="-328.5" font-family="FreeSans.ttf" font-size="10.00">Draw3dParameters::decalMatrixType</text>
</a>
</g>
<!-- Node1&#45;&gt;Node5 -->
<g id="edge8" class="edge"><title>Node1&#45;&gt;Node5</title>
<path fill="none" stroke="midnightblue" d="M143.233,-241.735C172.054,-259.167 232.361,-293.442 288,-311 297.051,-313.856 306.589,-316.312 316.219,-318.422"/>
<polygon fill="midnightblue" stroke="midnightblue" points="315.769,-321.903 326.27,-320.499 317.185,-315.048 315.769,-321.903"/>
</g>
<!-- Node6 -->
<g id="node11" class="node"><title>Node6</title>
<a xlink:href="classDraw3dParameters.html#aa64f1a231d397ed0d7b9fe9a3cea1efa" target="_top" xlink:title="Draw3dParameters::decalRightAlpha">
<polygon fill="none" stroke="black" points="322.5,-280.5 322.5,-301.5 513.5,-301.5 513.5,-280.5 322.5,-280.5"/>
<text text-anchor="middle" x="418" y="-288.5" font-family="FreeSans.ttf" font-size="10.00">Draw3dParameters::decalRightAlpha</text>
</a>
</g>
<!-- Node1&#45;&gt;Node6 -->
<g id="edge10" class="edge"><title>Node1&#45;&gt;Node6</title>
<path fill="none" stroke="midnightblue" d="M164.406,-241.512C197.095,-250.211 245.389,-262.479 288,-271 302.1,-273.819 317.129,-276.462 331.776,-278.844"/>
<polygon fill="midnightblue" stroke="midnightblue" points="331.413,-282.33 341.84,-280.45 332.517,-275.418 331.413,-282.33"/>
</g>
<!-- Node7 -->
<g id="node13" class="node"><title>Node7</title>
<a xlink:href="classDraw3dParameters.html#ad7d221b0caa355d14c2b5c2e9bcaa0b8" target="_top" xlink:title="Draw3dParameters::decalRightCam">
<polygon fill="none" stroke="black" points="325,-240.5 325,-261.5 511,-261.5 511,-240.5 325,-240.5"/>
<text text-anchor="middle" x="418" y="-248.5" font-family="FreeSans.ttf" font-size="10.00">Draw3dParameters::decalRightCam</text>
</a>
</g>
<!-- Node1&#45;&gt;Node7 -->
<g id="edge12" class="edge"><title>Node1&#45;&gt;Node7</title>
<path fill="none" stroke="midnightblue" d="M251.529,-239.598C272.554,-241.038 294.157,-242.518 314.547,-243.914"/>
<polygon fill="midnightblue" stroke="midnightblue" points="314.553,-247.423 324.769,-244.614 315.031,-240.439 314.553,-247.423"/>
</g>
<!-- Node8 -->
<g id="node15" class="node"><title>Node8</title>
<a xlink:href="classDraw3dParametersControlWidget.html#ad40f149390324e16d7d5fc481ce5343f" target="_top" xlink:title="Draw3dParametersControlWidget::paramsChanged">
<polygon fill="none" stroke="black" points="288,-200.5 288,-221.5 548,-221.5 548,-200.5 288,-200.5"/>
<text text-anchor="middle" x="418" y="-208.5" font-family="FreeSans.ttf" font-size="10.00">Draw3dParametersControlWidget::paramsChanged</text>
</a>
</g>
<!-- Node1&#45;&gt;Node8 -->
<g id="edge14" class="edge"><title>Node1&#45;&gt;Node8</title>
<path fill="none" stroke="midnightblue" d="M251.529,-222.402C260.195,-221.809 268.959,-221.208 277.695,-220.61"/>
<polygon fill="midnightblue" stroke="midnightblue" points="278.194,-224.084 287.932,-219.909 277.716,-217.1 278.194,-224.084"/>
</g>
<!-- Node9 -->
<g id="node17" class="node"><title>Node9</title>
<a xlink:href="classDraw3dParameters.html#aa04119ab6f6f7080a3fe0c674ee1d18d" target="_top" xlink:title="Draw3dParameters::secondaryColor">
<polygon fill="none" stroke="black" points="324,-160.5 324,-181.5 512,-181.5 512,-160.5 324,-160.5"/>
<text text-anchor="middle" x="418" y="-168.5" font-family="FreeSans.ttf" font-size="10.00">Draw3dParameters::secondaryColor</text>
</a>
</g>
<!-- Node1&#45;&gt;Node9 -->
<g id="edge16" class="edge"><title>Node1&#45;&gt;Node9</title>
<path fill="none" stroke="midnightblue" d="M164.406,-220.488C197.095,-211.789 245.389,-199.521 288,-191 302.1,-188.181 317.129,-185.538 331.776,-183.156"/>
<polygon fill="midnightblue" stroke="midnightblue" points="332.517,-186.582 341.84,-181.55 331.413,-179.67 332.517,-186.582"/>
</g>
<!-- Node10 -->
<g id="node19" class="node"><title>Node10</title>
<a xlink:href="classDraw3dParameters.html#a8a72b5514e9f892c0255c276c5491f0e" target="_top" xlink:title="Draw3dParameters::style">
<polygon fill="none" stroke="black" points="349.5,-120.5 349.5,-141.5 486.5,-141.5 486.5,-120.5 349.5,-120.5"/>
<text text-anchor="middle" x="418" y="-128.5" font-family="FreeSans.ttf" font-size="10.00">Draw3dParameters::style</text>
</a>
</g>
<!-- Node1&#45;&gt;Node10 -->
<g id="edge18" class="edge"><title>Node1&#45;&gt;Node10</title>
<path fill="none" stroke="midnightblue" d="M143.233,-220.265C172.054,-202.833 232.361,-168.558 288,-151 304.292,-145.859 322.165,-142.014 339.303,-139.148"/>
<polygon fill="midnightblue" stroke="midnightblue" points="339.96,-142.588 349.291,-137.571 338.868,-135.673 339.96,-142.588"/>
</g>
<!-- Node11 -->
<g id="node21" class="node"><title>Node11</title>
<a xlink:href="classDraw3dParameters.html#a0ff2e78739545e90ed14f2f7717e8c1e" target="_top" xlink:title="Draw3dParameters::textureAlpha">
<polygon fill="none" stroke="black" points="330,-80.5 330,-101.5 506,-101.5 506,-80.5 330,-80.5"/>
<text text-anchor="middle" x="418" y="-88.5" font-family="FreeSans.ttf" font-size="10.00">Draw3dParameters::textureAlpha</text>
</a>
</g>
<!-- Node1&#45;&gt;Node11 -->
<g id="edge20" class="edge"><title>Node1&#45;&gt;Node11</title>
<path fill="none" stroke="midnightblue" d="M136.59,-220.154C160.857,-196.03 223.392,-137.943 288,-111 298.004,-106.828 308.768,-103.515 319.666,-100.887"/>
<polygon fill="midnightblue" stroke="midnightblue" points="320.691,-104.245 329.694,-98.6607 319.173,-97.4114 320.691,-104.245"/>
</g>
<!-- Node12 -->
<g id="node23" class="node"><title>Node12</title>
<a xlink:href="classDraw3dParameters.html#ad3cd20efc1c9bbd1ea6f9ba3ed73c9dc" target="_top" xlink:title="Draw3dParameters::textureCorrodinates">
<polygon fill="none" stroke="black" points="313,-40.5 313,-61.5 523,-61.5 523,-40.5 313,-40.5"/>
<text text-anchor="middle" x="418" y="-48.5" font-family="FreeSans.ttf" font-size="10.00">Draw3dParameters::textureCorrodinates</text>
</a>
</g>
<!-- Node1&#45;&gt;Node12 -->
<g id="edge22" class="edge"><title>Node1&#45;&gt;Node12</title>
<path fill="none" stroke="midnightblue" d="M133.203,-220.13C153.508,-190.477 214.542,-107.938 288,-71 292.909,-68.5316 298.044,-66.3505 303.318,-64.4245"/>
<polygon fill="midnightblue" stroke="midnightblue" points="304.559,-67.7006 312.945,-61.2263 302.352,-61.0576 304.559,-67.7006"/>
</g>
<!-- Node13 -->
<g id="node25" class="node"><title>Node13</title>
<a xlink:href="classDraw3dParameters.html#acb49e53484211e3a8d0379e4e31d9907" target="_top" xlink:title="Draw3dParameters::textureScale">
<polygon fill="none" stroke="black" points="330.5,-0.5 330.5,-21.5 505.5,-21.5 505.5,-0.5 330.5,-0.5"/>
<text text-anchor="middle" x="418" y="-8.5" font-family="FreeSans.ttf" font-size="10.00">Draw3dParameters::textureScale</text>
</a>
</g>
<!-- Node1&#45;&gt;Node13 -->
<g id="edge24" class="edge"><title>Node1&#45;&gt;Node13</title>
<path fill="none" stroke="midnightblue" d="M130.955,-220.462C147.587,-186.385 205.079,-78.6228 288,-31 297.955,-25.2827 309.014,-21.0397 320.358,-17.9123"/>
<polygon fill="midnightblue" stroke="midnightblue" points="321.509,-21.2335 330.381,-15.4422 319.834,-14.4368 321.509,-21.2335"/>
</g>
</g>
</svg>
        <g id="navigator" transform="translate(0 0)" fill="#404254">
                <rect fill="#f2f5e9" fill-opacity="0.5" stroke="#606060" stroke-width=".5" x="0" y="0" width="60" height="60"/>
                <use id="zoomplus" xlink:href="#zoomPlus" x="17" y="9" onmousedown="handleZoom(evt,'in')"/>
                <use id="zoomminus" xlink:href="#zoomMin" x="42" y="9" onmousedown="handleZoom(evt,'out')"/>
                <use id="reset" xlink:href="#resetDef" x="30" y="36" onmousedown="handleReset()"/>
                <g id="arrowUp" xlink:href="#dirArrow" transform="translate(30 24)" onmousedown="handlePan(0,-1)">
                  <use xlink:href="#rim" fill="#404040">
                        <set attributeName="fill" to="#808080" begin="arrowUp.mouseover" end="arrowUp.mouseout"/>
                  </use>
                  <path fill="none" stroke="white" stroke-width="1.5" d="M0,-3.0v7 M-2.5,-0.5L0,-3.0L2.5,-0.5"/>
                </g>
                <g id="arrowRight" xlink:href="#dirArrow" transform="rotate(90) translate(36 -43)" onmousedown="handlePan(1,0)">
                  <use xlink:href="#rim" fill="#404040">
                        <set attributeName="fill" to="#808080" begin="arrowRight.mouseover" end="arrowRight.mouseout"/>
                  </use>
                  <path fill="none" stroke="white" stroke-width="1.5" d="M0,-3.0v7 M-2.5,-0.5L0,-3.0L2.5,-0.5"/>
                </g>
                <g id="arrowDown" xlink:href="#dirArrow" transform="rotate(180) translate(-30 -48)" onmousedown="handlePan(0,1)">
                  <use xlink:href="#rim" fill="#404040">
                        <set attributeName="fill" to="#808080" begin="arrowDown.mouseover" end="arrowDown.mouseout"/>
                  </use>
                  <path fill="none" stroke="white" stroke-width="1.5" d="M0,-3.0v7 M-2.5,-0.5L0,-3.0L2.5,-0.5"/>
                </g>
                <g id="arrowLeft" xlink:href="#dirArrow" transform="rotate(270) translate(-36 17)" onmousedown="handlePan(-1,0)">
                  <use xlink:href="#rim" fill="#404040">
                        <set attributeName="fill" to="#808080" begin="arrowLeft.mouseover" end="arrowLeft.mouseout"/>
                  </use>
                  <path fill="none" stroke="white" stroke-width="1.5" d="M0,-3.0v7 M-2.5,-0.5L0,-3.0L2.5,-0.5"/>
                </g>
        </g>
</svg>
