<?xml version="1.0" encoding="UTF-8" standalone="no"?>
<!DOCTYPE svg PUBLIC "-//W3C//DTD SVG 1.1//EN"
 "http://www.w3.org/Graphics/SVG/1.1/DTD/svg11.dtd">
<!-- Generated by graphviz version 2.26.3 (20100126.1600)
 -->
<!-- Title: G Pages: 1 -->
<svg width="488pt" height="89pt"
 viewBox="0.00 0.00 488.00 89.00" xmlns="http://www.w3.org/2000/svg" xmlns:xlink="http://www.w3.org/1999/xlink">
<g id="graph1" class="graph" transform="scale(1 1) rotate(0) translate(4 85)">
<title>G</title>
<!-- Node1 -->
<g id="node1" class="node"><title>Node1</title>
<polygon fill="#bfbfbf" stroke="black" points="0,-40.5 0,-61.5 146,-61.5 146,-40.5 0,-40.5"/>
<text text-anchor="middle" x="73" y="-48.5" font-family="FreeSans.ttf" font-size="10.00">corecvs::Matrix44::inverted</text>
</g>
<!-- Node2 -->
<g id="node3" class="node"><title>Node2</title>
<a xlink:href="classcorecvs_1_1Matrix44.html#ad53e6a4c5f30ed13b1bd0946f0e66a06" target="_top" xlink:title="Geting Matrix element functions block.">
<polygon fill="none" stroke="black" points="366.5,-59.5 366.5,-80.5 479.5,-80.5 479.5,-59.5 366.5,-59.5"/>
<text text-anchor="middle" x="423" y="-67.5" font-family="FreeSans.ttf" font-size="10.00">corecvs::Matrix44::a</text>
</a>
</g>
<!-- Node1&#45;&gt;Node2 -->
<g id="edge2" class="edge"><title>Node1&#45;&gt;Node2</title>
<path fill="none" stroke="midnightblue" d="M119.956,-61.5432C139.093,-65.3347 161.498,-69.1347 182,-71 247.507,-76.9601 264.223,-71.3536 330,-71 338.472,-70.9545 347.378,-70.8856 356.184,-70.8048"/>
<polygon fill="midnightblue" stroke="midnightblue" points="356.478,-74.3022 366.443,-70.7053 356.41,-67.3026 356.478,-74.3022"/>
</g>
<!-- Node3 -->
<g id="node5" class="node"><title>Node3</title>
<a xlink:href="classcorecvs_1_1Matrix44.html#adc38a8b1e0c78d7a809829c07734a0e5" target="_top" xlink:title="corecvs::Matrix44::det">
<polygon fill="none" stroke="black" points="195,-40.5 195,-61.5 317,-61.5 317,-40.5 195,-40.5"/>
<text text-anchor="middle" x="256" y="-48.5" font-family="FreeSans.ttf" font-size="10.00">corecvs::Matrix44::det</text>
</a>
</g>
<!-- Node1&#45;&gt;Node3 -->
<g id="edge4" class="edge"><title>Node1&#45;&gt;Node3</title>
<path fill="none" stroke="midnightblue" d="M146.115,-51C158.841,-51 172.062,-51 184.738,-51"/>
<polygon fill="midnightblue" stroke="midnightblue" points="184.767,-54.5001 194.766,-51 184.766,-47.5001 184.767,-54.5001"/>
</g>
<!-- Node4 -->
<g id="node8" class="node"><title>Node4</title>
<a xlink:href="classcorecvs_1_1Matrix44.html#acf5e18b2333c493522c2d32ae8719541" target="_top" xlink:title="corecvs::Matrix44::Matrix44">
<polygon fill="none" stroke="black" points="182,-0.5 182,-21.5 330,-21.5 330,-0.5 182,-0.5"/>
<text text-anchor="middle" x="256" y="-8.5" font-family="FreeSans.ttf" font-size="10.00">corecvs::Matrix44::Matrix44</text>
</a>
</g>
<!-- Node1&#45;&gt;Node4 -->
<g id="edge8" class="edge"><title>Node1&#45;&gt;Node4</title>
<path fill="none" stroke="midnightblue" d="M121.081,-40.4905C144.629,-35.3434 173.171,-29.1046 197.928,-23.6933"/>
<polygon fill="midnightblue" stroke="midnightblue" points="198.901,-27.0634 207.923,-21.5087 197.406,-20.2249 198.901,-27.0634"/>
</g>
<!-- Node3&#45;&gt;Node2 -->
<g id="edge6" class="edge"><title>Node3&#45;&gt;Node2</title>
<path fill="none" stroke="midnightblue" d="M317.236,-57.967C329.944,-59.4128 343.393,-60.943 356.286,-62.4098"/>
<polygon fill="midnightblue" stroke="midnightblue" points="356.15,-65.9168 366.481,-63.5697 356.941,-58.9617 356.15,-65.9168"/>
</g>
</g>
</svg>
