<?xml version="1.0" encoding="UTF-8" standalone="no"?>
<!DOCTYPE svg PUBLIC "-//W3C//DTD SVG 1.1//EN"
 "http://www.w3.org/Graphics/SVG/1.1/DTD/svg11.dtd">
<!-- Generated by graphviz version 2.26.3 (20100126.1600)
 -->
<!-- Title: G Pages: 1 -->
<!--zoomable 150 -->
<svg id="main" version="1.1" xmlns="http://www.w3.org/2000/svg" xmlns:xlink="http://www.w3.org/1999/xlink" xml:space="preserve" onload="init(evt)">
        <defs>
                <circle id="rim" cx="0" cy="0" r="7"/>
                <circle id="rim2" cx="0" cy="0" r="3.5"/>
                <g id="zoomPlus">
                        <use xlink:href="#rim" fill="#404040">
                                <set attributeName="fill" to="#808080" begin="zoomplus.mouseover" end="zoomplus.mouseout"/>
                        </use>
                        <path d="M-4,0h8M0,-4v8" fill="none" stroke="white" stroke-width="1.5" pointer-events="none"/>
                </g>
                <g id="zoomMin">
                        <use xlink:href="#rim" fill="#404040">
                                <set attributeName="fill" to="#808080" begin="zoomminus.mouseover" end="zoomminus.mouseout"/>
                        </use>
                        <path d="M-4,0h8" fill="none" stroke="white" stroke-width="1.5" pointer-events="none"/>
                </g>
                <g id="dirArrow">
                        <path fill="none" stroke="white" stroke-width="1.5" d="M0,-3.0v7 M-2.5,-0.5L0,-3.0L2.5,-0.5"/>
                </g>
               <g id="resetDef">
                       <use xlink:href="#rim2" fill="#404040">
                               <set attributeName="fill" to="#808080" begin="reset.mouseover" end="reset.mouseout"/>
                       </use>
               </g>
        </defs>

<script type="text/javascript">
var viewWidth = 596;
var viewHeight = 150;
var sectionId = 'dynsection-28';
</script>
<script xlink:href="svgpan.js"/>
<svg id="graph" class="graph">
<g id="viewport">
<title>G</title>
<!-- Node1 -->
<g id="node1" class="node"><title>Node1</title>
<polygon fill="#bfbfbf" stroke="black" points="0.5,-60.5 0.5,-81.5 119.5,-81.5 119.5,-60.5 0.5,-60.5"/>
<text text-anchor="middle" x="60" y="-68.5" font-family="FreeSans.ttf" font-size="10.00">BaseHostDialog::play</text>
</g>
<!-- Node2 -->
<g id="node3" class="node"><title>Node2</title>
<a xlink:href="classAbstractCalculationThread.html#a64d2f2e8f290eb5a0f7416112081ea10" target="_top" xlink:title="AbstractCalculationThread::getCalculationState">
<polygon fill="none" stroke="black" points="156.5,-120.5 156.5,-141.5 399.5,-141.5 399.5,-120.5 156.5,-120.5"/>
<text text-anchor="middle" x="278" y="-128.5" font-family="FreeSans.ttf" font-size="10.00">AbstractCalculationThread::getCalculationState</text>
</a>
</g>
<!-- Node1&#45;&gt;Node2 -->
<g id="edge2" class="edge"><title>Node1&#45;&gt;Node2</title>
<path fill="none" stroke="midnightblue" d="M81.2179,-81.5251C100.337,-90.5981 129.44,-103.402 156,-111 165.93,-113.841 176.438,-116.32 186.955,-118.474"/>
<polygon fill="midnightblue" stroke="midnightblue" points="186.537,-121.958 197.023,-120.44 187.879,-115.088 186.537,-121.958"/>
</g>
<!-- Node3 -->
<g id="node5" class="node"><title>Node3</title>
<a xlink:href="classImageCaptureInterface.html#ad32df954948a3aea746d0c68563ee81d" target="_top" xlink:title="ImageCaptureInterface::nextFrame">
<polygon fill="none" stroke="black" points="186,-80.5 186,-101.5 370,-101.5 370,-80.5 186,-80.5"/>
<text text-anchor="middle" x="278" y="-88.5" font-family="FreeSans.ttf" font-size="10.00">ImageCaptureInterface::nextFrame</text>
</a>
</g>
<!-- Node1&#45;&gt;Node3 -->
<g id="edge4" class="edge"><title>Node1&#45;&gt;Node3</title>
<path fill="none" stroke="midnightblue" d="M119.569,-76.4651C136.961,-78.0606 156.482,-79.8515 175.723,-81.6167"/>
<polygon fill="midnightblue" stroke="midnightblue" points="175.468,-85.108 185.746,-82.5363 176.107,-78.1373 175.468,-85.108"/>
</g>
<!-- Node4 -->
<g id="node7" class="node"><title>Node4</title>
<a xlink:href="classImageCaptureInterface.html#a7fc33056e6eaeb63da269573ec59ab62" target="_top" xlink:title="ImageCaptureInterface::startCapture">
<polygon fill="none" stroke="black" points="181,-40.5 181,-61.5 375,-61.5 375,-40.5 181,-40.5"/>
<text text-anchor="middle" x="278" y="-48.5" font-family="FreeSans.ttf" font-size="10.00">ImageCaptureInterface::startCapture</text>
</a>
</g>
<!-- Node1&#45;&gt;Node4 -->
<g id="edge6" class="edge"><title>Node1&#45;&gt;Node4</title>
<path fill="none" stroke="midnightblue" d="M119.569,-65.5349C135.377,-64.0847 152.944,-62.473 170.461,-60.866"/>
<polygon fill="midnightblue" stroke="midnightblue" points="171.117,-64.3206 180.755,-59.9215 170.477,-57.3499 171.117,-64.3206"/>
</g>
<!-- Node5 -->
<g id="node9" class="node"><title>Node5</title>
<a xlink:href="classBaseHostDialog.html#a9c9951b19762eaa127db683f3179c87e" target="_top" xlink:title="Slot for swapping framesources &#45;&#45;&#45; right frame becomes left and left frame becomes right...">
<polygon fill="none" stroke="black" points="194.5,-0.5 194.5,-21.5 361.5,-21.5 361.5,-0.5 194.5,-0.5"/>
<text text-anchor="middle" x="278" y="-8.5" font-family="FreeSans.ttf" font-size="10.00">BaseHostDialog::swapCameras</text>
</a>
</g>
<!-- Node1&#45;&gt;Node5 -->
<g id="edge8" class="edge"><title>Node1&#45;&gt;Node5</title>
<path fill="none" stroke="midnightblue" d="M81.2179,-60.4749C100.337,-51.4019 129.44,-38.5982 156,-31 165.93,-28.1592 176.438,-25.6797 186.955,-23.5261"/>
<polygon fill="midnightblue" stroke="midnightblue" points="187.879,-26.9118 197.023,-21.5599 186.537,-20.0416 187.879,-26.9118"/>
</g>
<!-- Node6 -->
<g id="node11" class="node"><title>Node6</title>
<a xlink:href="classFrames.html#a82d642f30f1b9b57ba9d62f4cd8e7903" target="_top" xlink:title="Swaps the frame sources so, for example, left camera becomes right, and right camera becomes left...">
<polygon fill="none" stroke="black" points="436.5,-0.5 436.5,-21.5 587.5,-21.5 587.5,-0.5 436.5,-0.5"/>
<text text-anchor="middle" x="512" y="-8.5" font-family="FreeSans.ttf" font-size="10.00">Frames::swapFrameSources</text>
</a>
</g>
<!-- Node5&#45;&gt;Node6 -->
<g id="edge10" class="edge"><title>Node5&#45;&gt;Node6</title>
<path fill="none" stroke="midnightblue" d="M361.818,-11C382.668,-11 405.049,-11 426.002,-11"/>
<polygon fill="midnightblue" stroke="midnightblue" points="426.16,-14.5001 436.159,-11 426.159,-7.5001 426.16,-14.5001"/>
</g>
</g>
</svg>
        <g id="navigator" transform="translate(0 0)" fill="#404254">
                <rect fill="#f2f5e9" fill-opacity="0.5" stroke="#606060" stroke-width=".5" x="0" y="0" width="60" height="60"/>
                <use id="zoomplus" xlink:href="#zoomPlus" x="17" y="9" onmousedown="handleZoom(evt,'in')"/>
                <use id="zoomminus" xlink:href="#zoomMin" x="42" y="9" onmousedown="handleZoom(evt,'out')"/>
                <use id="reset" xlink:href="#resetDef" x="30" y="36" onmousedown="handleReset()"/>
                <g id="arrowUp" xlink:href="#dirArrow" transform="translate(30 24)" onmousedown="handlePan(0,-1)">
                  <use xlink:href="#rim" fill="#404040">
                        <set attributeName="fill" to="#808080" begin="arrowUp.mouseover" end="arrowUp.mouseout"/>
                  </use>
                  <path fill="none" stroke="white" stroke-width="1.5" d="M0,-3.0v7 M-2.5,-0.5L0,-3.0L2.5,-0.5"/>
                </g>
                <g id="arrowRight" xlink:href="#dirArrow" transform="rotate(90) translate(36 -43)" onmousedown="handlePan(1,0)">
                  <use xlink:href="#rim" fill="#404040">
                        <set attributeName="fill" to="#808080" begin="arrowRight.mouseover" end="arrowRight.mouseout"/>
                  </use>
                  <path fill="none" stroke="white" stroke-width="1.5" d="M0,-3.0v7 M-2.5,-0.5L0,-3.0L2.5,-0.5"/>
                </g>
                <g id="arrowDown" xlink:href="#dirArrow" transform="rotate(180) translate(-30 -48)" onmousedown="handlePan(0,1)">
                  <use xlink:href="#rim" fill="#404040">
                        <set attributeName="fill" to="#808080" begin="arrowDown.mouseover" end="arrowDown.mouseout"/>
                  </use>
                  <path fill="none" stroke="white" stroke-width="1.5" d="M0,-3.0v7 M-2.5,-0.5L0,-3.0L2.5,-0.5"/>
                </g>
                <g id="arrowLeft" xlink:href="#dirArrow" transform="rotate(270) translate(-36 17)" onmousedown="handlePan(-1,0)">
                  <use xlink:href="#rim" fill="#404040">
                        <set attributeName="fill" to="#808080" begin="arrowLeft.mouseover" end="arrowLeft.mouseout"/>
                  </use>
                  <path fill="none" stroke="white" stroke-width="1.5" d="M0,-3.0v7 M-2.5,-0.5L0,-3.0L2.5,-0.5"/>
                </g>
        </g>
</svg>
