<?xml version="1.0" encoding="UTF-8" standalone="no"?>
<!DOCTYPE svg PUBLIC "-//W3C//DTD SVG 1.1//EN"
 "http://www.w3.org/Graphics/SVG/1.1/DTD/svg11.dtd">
<!-- Generated by graphviz version 2.26.3 (20100126.1600)
 -->
<!-- Title: G Pages: 1 -->
<!--zoomable 210 -->
<svg id="main" version="1.1" xmlns="http://www.w3.org/2000/svg" xmlns:xlink="http://www.w3.org/1999/xlink" xml:space="preserve" onload="init(evt)">
        <defs>
                <circle id="rim" cx="0" cy="0" r="7"/>
                <circle id="rim2" cx="0" cy="0" r="3.5"/>
                <g id="zoomPlus">
                        <use xlink:href="#rim" fill="#404040">
                                <set attributeName="fill" to="#808080" begin="zoomplus.mouseover" end="zoomplus.mouseout"/>
                        </use>
                        <path d="M-4,0h8M0,-4v8" fill="none" stroke="white" stroke-width="1.5" pointer-events="none"/>
                </g>
                <g id="zoomMin">
                        <use xlink:href="#rim" fill="#404040">
                                <set attributeName="fill" to="#808080" begin="zoomminus.mouseover" end="zoomminus.mouseout"/>
                        </use>
                        <path d="M-4,0h8" fill="none" stroke="white" stroke-width="1.5" pointer-events="none"/>
                </g>
                <g id="dirArrow">
                        <path fill="none" stroke="white" stroke-width="1.5" d="M0,-3.0v7 M-2.5,-0.5L0,-3.0L2.5,-0.5"/>
                </g>
               <g id="resetDef">
                       <use xlink:href="#rim2" fill="#404040">
                               <set attributeName="fill" to="#808080" begin="reset.mouseover" end="reset.mouseout"/>
                       </use>
               </g>
        </defs>

<script type="text/javascript">
var viewWidth = 1194;
var viewHeight = 210;
var sectionId = 'dynsection-8';
</script>
<script xlink:href="svgpan.js"/>
<svg id="graph" class="graph">
<g id="viewport">
<title>G</title>
<!-- Node1 -->
<g id="node1" class="node"><title>Node1</title>
<polygon fill="#bfbfbf" stroke="black" points="0,-120.5 0,-141.5 174,-141.5 174,-120.5 0,-120.5"/>
<text text-anchor="middle" x="87" y="-128.5" font-family="FreeSans.ttf" font-size="10.00">corecvs::OperationFilter::serialize</text>
</g>
<!-- Node2 -->
<g id="node3" class="node"><title>Node2</title>
<a xlink:href="classOperationParameters.html#af42f58a5d0ce7a0d10169adcc1b7f4aa" target="_top" xlink:title="OperationParameters::accept">
<polygon fill="none" stroke="black" points="231,-180.5 231,-201.5 389,-201.5 389,-180.5 231,-180.5"/>
<text text-anchor="middle" x="310" y="-188.5" font-family="FreeSans.ttf" font-size="10.00">OperationParameters::accept</text>
</a>
</g>
<!-- Node1&#45;&gt;Node2 -->
<g id="edge2" class="edge"><title>Node1&#45;&gt;Node2</title>
<path fill="none" stroke="midnightblue" d="M116.04,-141.509C140.786,-150.207 177.414,-162.474 210,-171 220.06,-173.632 230.767,-176.109 241.295,-178.364"/>
<polygon fill="midnightblue" stroke="midnightblue" points="240.802,-181.836 251.307,-180.455 242.234,-174.984 240.802,-181.836"/>
</g>
<!-- Node3 -->
<g id="node5" class="node"><title>Node3</title>
<a xlink:href="classtinyxml2_1_1XMLNode.html#add244bca368083fa29698db8dcf147ca" target="_top" xlink:title="Get the XMLDocument that owns this XMLNode.">
<polygon fill="none" stroke="black" points="219,-140.5 219,-161.5 401,-161.5 401,-140.5 219,-140.5"/>
<text text-anchor="middle" x="310" y="-148.5" font-family="FreeSans.ttf" font-size="10.00">tinyxml2::XMLNode::GetDocument</text>
</a>
</g>
<!-- Node1&#45;&gt;Node3 -->
<g id="edge4" class="edge"><title>Node1&#45;&gt;Node3</title>
<path fill="none" stroke="midnightblue" d="M174.176,-138.818C185.514,-139.835 197.204,-140.884 208.747,-141.919"/>
<polygon fill="midnightblue" stroke="midnightblue" points="208.567,-145.417 218.84,-142.824 209.193,-138.445 208.567,-145.417"/>
</g>
<!-- Node4 -->
<g id="node7" class="node"><title>Node4</title>
<a xlink:href="classtinyxml2_1_1XMLNode.html#ae3b422e98914d6002ca99bb1d2837103" target="_top" xlink:title="Add a child node as the last (right) child.">
<polygon fill="none" stroke="black" points="219,-100.5 219,-121.5 401,-121.5 401,-100.5 219,-100.5"/>
<text text-anchor="middle" x="310" y="-108.5" font-family="FreeSans.ttf" font-size="10.00">tinyxml2::XMLNode::InsertEndChild</text>
</a>
</g>
<!-- Node1&#45;&gt;Node4 -->
<g id="edge6" class="edge"><title>Node1&#45;&gt;Node4</title>
<path fill="none" stroke="midnightblue" d="M174.176,-123.182C185.514,-122.165 197.204,-121.116 208.747,-120.081"/>
<polygon fill="midnightblue" stroke="midnightblue" points="209.193,-123.555 218.84,-119.176 208.567,-116.583 209.193,-123.555"/>
</g>
<!-- Node6 -->
<g id="node11" class="node"><title>Node6</title>
<a xlink:href="classtinyxml2_1_1XMLDocument.html#a3c335a700a43d7c363a393142a23f234" target="_top" xlink:title="Create a new Element associated with this Document.">
<polygon fill="none" stroke="black" points="210.5,-60.5 210.5,-81.5 409.5,-81.5 409.5,-60.5 210.5,-60.5"/>
<text text-anchor="middle" x="310" y="-68.5" font-family="FreeSans.ttf" font-size="10.00">tinyxml2::XMLDocument::NewElement</text>
</a>
</g>
<!-- Node1&#45;&gt;Node6 -->
<g id="edge10" class="edge"><title>Node1&#45;&gt;Node6</title>
<path fill="none" stroke="midnightblue" d="M116.04,-120.491C140.786,-111.793 177.414,-99.5258 210,-91 220.06,-88.368 230.767,-85.891 241.295,-83.6364"/>
<polygon fill="midnightblue" stroke="midnightblue" points="242.234,-87.0159 251.307,-81.5452 240.802,-80.1638 242.234,-87.0159"/>
</g>
<!-- Node5 -->
<g id="node9" class="node"><title>Node5</title>
<a xlink:href="classtinyxml2_1_1MemPool.html#ac5804dd1387b2e4de5eef710076a0db1" target="_top" xlink:title="tinyxml2::MemPool::SetTracked">
<polygon fill="none" stroke="black" points="450,-100.5 450,-121.5 616,-121.5 616,-100.5 450,-100.5"/>
<text text-anchor="middle" x="533" y="-108.5" font-family="FreeSans.ttf" font-size="10.00">tinyxml2::MemPool::SetTracked</text>
</a>
</g>
<!-- Node4&#45;&gt;Node5 -->
<g id="edge8" class="edge"><title>Node4&#45;&gt;Node5</title>
<path fill="none" stroke="midnightblue" d="M401.024,-111C413.758,-111 426.861,-111 439.638,-111"/>
<polygon fill="midnightblue" stroke="midnightblue" points="439.801,-114.5 449.801,-111 439.801,-107.5 439.801,-114.5"/>
</g>
<!-- Node7 -->
<g id="node13" class="node"><title>Node7</title>
<a xlink:href="classtinyxml2_1_1MemPoolT.html#aa9d785a48ffe6ea1be679bab13464486" target="_top" xlink:title="tinyxml2::MemPoolT::Alloc">
<polygon fill="none" stroke="black" points="463,-60.5 463,-81.5 603,-81.5 603,-60.5 463,-60.5"/>
<text text-anchor="middle" x="533" y="-68.5" font-family="FreeSans.ttf" font-size="10.00">tinyxml2::MemPoolT::Alloc</text>
</a>
</g>
<!-- Node6&#45;&gt;Node7 -->
<g id="edge12" class="edge"><title>Node6&#45;&gt;Node7</title>
<path fill="none" stroke="midnightblue" d="M409.76,-71C424.13,-71 438.764,-71 452.692,-71"/>
<polygon fill="midnightblue" stroke="midnightblue" points="452.695,-74.5001 462.695,-71 452.695,-67.5001 452.695,-74.5001"/>
</g>
<!-- Node8 -->
<g id="node15" class="node"><title>Node8</title>
<a xlink:href="classtinyxml2_1_1XMLElement.html#a97712009a530d8cb8a63bf705f02b4f1" target="_top" xlink:title="Set the name of the element.">
<polygon fill="none" stroke="black" points="446,-20.5 446,-41.5 620,-41.5 620,-20.5 446,-20.5"/>
<text text-anchor="middle" x="533" y="-28.5" font-family="FreeSans.ttf" font-size="10.00">tinyxml2::XMLElement::SetName</text>
</a>
</g>
<!-- Node6&#45;&gt;Node8 -->
<g id="edge14" class="edge"><title>Node6&#45;&gt;Node8</title>
<path fill="none" stroke="midnightblue" d="M368.591,-60.4905C397.923,-55.229 433.615,-48.8268 464.239,-43.3338"/>
<polygon fill="midnightblue" stroke="midnightblue" points="465.189,-46.7194 474.414,-41.5087 463.953,-39.8293 465.189,-46.7194"/>
</g>
<!-- Node9 -->
<g id="node17" class="node"><title>Node9</title>
<a xlink:href="classtinyxml2_1_1XMLNode.html#a09dd68cf9eae137579f6e50f36487513" target="_top" xlink:title="Set the Value of an XML node.">
<polygon fill="none" stroke="black" points="656.5,-20.5 656.5,-41.5 813.5,-41.5 813.5,-20.5 656.5,-20.5"/>
<text text-anchor="middle" x="735" y="-28.5" font-family="FreeSans.ttf" font-size="10.00">tinyxml2::XMLNode::SetValue</text>
</a>
</g>
<!-- Node8&#45;&gt;Node9 -->
<g id="edge16" class="edge"><title>Node8&#45;&gt;Node9</title>
<path fill="none" stroke="midnightblue" d="M620.132,-31C628.804,-31 637.616,-31 646.304,-31"/>
<polygon fill="midnightblue" stroke="midnightblue" points="646.431,-34.5001 656.431,-31 646.431,-27.5001 646.431,-34.5001"/>
</g>
<!-- Node10 -->
<g id="node19" class="node"><title>Node10</title>
<a xlink:href="classtinyxml2_1_1StrPair.html#a2baf6230e18333e02ab65d0897ee3941" target="_top" xlink:title="tinyxml2::StrPair::SetInternedStr">
<polygon fill="none" stroke="black" points="850.5,-40.5 850.5,-61.5 1021.5,-61.5 1021.5,-40.5 850.5,-40.5"/>
<text text-anchor="middle" x="936" y="-48.5" font-family="FreeSans.ttf" font-size="10.00">tinyxml2::StrPair::SetInternedStr</text>
</a>
</g>
<!-- Node9&#45;&gt;Node10 -->
<g id="edge18" class="edge"><title>Node9&#45;&gt;Node10</title>
<path fill="none" stroke="midnightblue" d="M813.575,-38.8185C822.375,-39.6941 831.411,-40.5931 840.394,-41.487"/>
<polygon fill="midnightblue" stroke="midnightblue" points="840.202,-44.9851 850.499,-42.4925 840.895,-38.0195 840.202,-44.9851"/>
</g>
<!-- Node12 -->
<g id="node23" class="node"><title>Node12</title>
<a xlink:href="classtinyxml2_1_1StrPair.html#a1f82ec6b5bee35ee7466d8565e43b1de" target="_top" xlink:title="tinyxml2::StrPair::SetStr">
<polygon fill="none" stroke="black" points="870.5,-0.5 870.5,-21.5 1001.5,-21.5 1001.5,-0.5 870.5,-0.5"/>
<text text-anchor="middle" x="936" y="-8.5" font-family="FreeSans.ttf" font-size="10.00">tinyxml2::StrPair::SetStr</text>
</a>
</g>
<!-- Node9&#45;&gt;Node12 -->
<g id="edge22" class="edge"><title>Node9&#45;&gt;Node12</title>
<path fill="none" stroke="midnightblue" d="M813.575,-23.1815C828.873,-21.6594 844.884,-20.0663 860.094,-18.5529"/>
<polygon fill="midnightblue" stroke="midnightblue" points="860.872,-21.9927 870.477,-17.5197 860.179,-15.0271 860.872,-21.9927"/>
</g>
<!-- Node11 -->
<g id="node21" class="node"><title>Node11</title>
<a xlink:href="classtinyxml2_1_1StrPair.html#a80c1b3bd99bf62ae85c94a29ce537125" target="_top" xlink:title="tinyxml2::StrPair::Reset">
<polygon fill="none" stroke="black" points="1058.5,-40.5 1058.5,-61.5 1185.5,-61.5 1185.5,-40.5 1058.5,-40.5"/>
<text text-anchor="middle" x="1122" y="-48.5" font-family="FreeSans.ttf" font-size="10.00">tinyxml2::StrPair::Reset</text>
</a>
</g>
<!-- Node10&#45;&gt;Node11 -->
<g id="edge20" class="edge"><title>Node10&#45;&gt;Node11</title>
<path fill="none" stroke="midnightblue" d="M1021.65,-51C1030.56,-51 1039.56,-51 1048.32,-51"/>
<polygon fill="midnightblue" stroke="midnightblue" points="1048.47,-54.5001 1058.47,-51 1048.47,-47.5001 1048.47,-54.5001"/>
</g>
</g>
</svg>
        <g id="navigator" transform="translate(0 0)" fill="#404254">
                <rect fill="#f2f5e9" fill-opacity="0.5" stroke="#606060" stroke-width=".5" x="0" y="0" width="60" height="60"/>
                <use id="zoomplus" xlink:href="#zoomPlus" x="17" y="9" onmousedown="handleZoom(evt,'in')"/>
                <use id="zoomminus" xlink:href="#zoomMin" x="42" y="9" onmousedown="handleZoom(evt,'out')"/>
                <use id="reset" xlink:href="#resetDef" x="30" y="36" onmousedown="handleReset()"/>
                <g id="arrowUp" xlink:href="#dirArrow" transform="translate(30 24)" onmousedown="handlePan(0,-1)">
                  <use xlink:href="#rim" fill="#404040">
                        <set attributeName="fill" to="#808080" begin="arrowUp.mouseover" end="arrowUp.mouseout"/>
                  </use>
                  <path fill="none" stroke="white" stroke-width="1.5" d="M0,-3.0v7 M-2.5,-0.5L0,-3.0L2.5,-0.5"/>
                </g>
                <g id="arrowRight" xlink:href="#dirArrow" transform="rotate(90) translate(36 -43)" onmousedown="handlePan(1,0)">
                  <use xlink:href="#rim" fill="#404040">
                        <set attributeName="fill" to="#808080" begin="arrowRight.mouseover" end="arrowRight.mouseout"/>
                  </use>
                  <path fill="none" stroke="white" stroke-width="1.5" d="M0,-3.0v7 M-2.5,-0.5L0,-3.0L2.5,-0.5"/>
                </g>
                <g id="arrowDown" xlink:href="#dirArrow" transform="rotate(180) translate(-30 -48)" onmousedown="handlePan(0,1)">
                  <use xlink:href="#rim" fill="#404040">
                        <set attributeName="fill" to="#808080" begin="arrowDown.mouseover" end="arrowDown.mouseout"/>
                  </use>
                  <path fill="none" stroke="white" stroke-width="1.5" d="M0,-3.0v7 M-2.5,-0.5L0,-3.0L2.5,-0.5"/>
                </g>
                <g id="arrowLeft" xlink:href="#dirArrow" transform="rotate(270) translate(-36 17)" onmousedown="handlePan(-1,0)">
                  <use xlink:href="#rim" fill="#404040">
                        <set attributeName="fill" to="#808080" begin="arrowLeft.mouseover" end="arrowLeft.mouseout"/>
                  </use>
                  <path fill="none" stroke="white" stroke-width="1.5" d="M0,-3.0v7 M-2.5,-0.5L0,-3.0L2.5,-0.5"/>
                </g>
        </g>
</svg>
