<?xml version="1.0" encoding="UTF-8" standalone="no"?>
<!DOCTYPE svg PUBLIC "-//W3C//DTD SVG 1.1//EN"
 "http://www.w3.org/Graphics/SVG/1.1/DTD/svg11.dtd">
<!-- Generated by graphviz version 2.26.3 (20100126.1600)
 -->
<!-- Title: G Pages: 1 -->
<!--zoomable 188 -->
<svg id="main" version="1.1" xmlns="http://www.w3.org/2000/svg" xmlns:xlink="http://www.w3.org/1999/xlink" xml:space="preserve" onload="init(evt)">
        <defs>
                <circle id="rim" cx="0" cy="0" r="7"/>
                <circle id="rim2" cx="0" cy="0" r="3.5"/>
                <g id="zoomPlus">
                        <use xlink:href="#rim" fill="#404040">
                                <set attributeName="fill" to="#808080" begin="zoomplus.mouseover" end="zoomplus.mouseout"/>
                        </use>
                        <path d="M-4,0h8M0,-4v8" fill="none" stroke="white" stroke-width="1.5" pointer-events="none"/>
                </g>
                <g id="zoomMin">
                        <use xlink:href="#rim" fill="#404040">
                                <set attributeName="fill" to="#808080" begin="zoomminus.mouseover" end="zoomminus.mouseout"/>
                        </use>
                        <path d="M-4,0h8" fill="none" stroke="white" stroke-width="1.5" pointer-events="none"/>
                </g>
                <g id="dirArrow">
                        <path fill="none" stroke="white" stroke-width="1.5" d="M0,-3.0v7 M-2.5,-0.5L0,-3.0L2.5,-0.5"/>
                </g>
               <g id="resetDef">
                       <use xlink:href="#rim2" fill="#404040">
                               <set attributeName="fill" to="#808080" begin="reset.mouseover" end="reset.mouseout"/>
                       </use>
               </g>
        </defs>

<script type="text/javascript">
var viewWidth = 1098;
var viewHeight = 188;
var sectionId = 'dynsection-16';
</script>
<script xlink:href="svgpan.js"/>
<svg id="graph" class="graph">
<g id="viewport">
<title>G</title>
<!-- Node1 -->
<g id="node1" class="node"><title>Node1</title>
<polygon fill="#bfbfbf" stroke="black" points="0,-69.5 0,-90.5 218,-90.5 218,-69.5 0,-69.5"/>
<text text-anchor="middle" x="109" y="-77.5" font-family="FreeSans.ttf" font-size="10.00">corecvs::EssentialMatrix::epipolarDistance</text>
</g>
<!-- Node2 -->
<g id="node3" class="node"><title>Node2</title>
<a xlink:href="classcorecvs_1_1EssentialMatrix.html#ae342cbde213342e31537d48ed0103f93" target="_top" xlink:title="The inliers calculation is as follows: .">
<polygon fill="none" stroke="black" points="254,-69.5 254,-90.5 472,-90.5 472,-69.5 254,-69.5"/>
<text text-anchor="middle" x="363" y="-77.5" font-family="FreeSans.ttf" font-size="10.00">corecvs::EssentialMatrix::epipolarDistance</text>
</a>
</g>
<!-- Node1&#45;&gt;Node2 -->
<g id="edge2" class="edge"><title>Node1&#45;&gt;Node2</title>
<path fill="none" stroke="midnightblue" d="M218.193,-80C226.697,-80 235.311,-80 243.876,-80"/>
<polygon fill="midnightblue" stroke="midnightblue" points="243.899,-83.5001 253.899,-80 243.899,-76.5001 243.899,-83.5001"/>
</g>
<!-- Node3 -->
<g id="node5" class="node"><title>Node3</title>
<a xlink:href="classcorecvs_1_1Line2d.html#aaa37e276ada53bd9ba9a91d08d3cc0dd" target="_top" xlink:title="corecvs::Line2d::distanceTo">
<polygon fill="none" stroke="black" points="518.5,-99.5 518.5,-120.5 665.5,-120.5 665.5,-99.5 518.5,-99.5"/>
<text text-anchor="middle" x="592" y="-107.5" font-family="FreeSans.ttf" font-size="10.00">corecvs::Line2d::distanceTo</text>
</a>
</g>
<!-- Node2&#45;&gt;Node3 -->
<g id="edge4" class="edge"><title>Node2&#45;&gt;Node3</title>
<path fill="none" stroke="midnightblue" d="M443.415,-90.5347C464.442,-93.2894 487.157,-96.2651 508.348,-99.0413"/>
<polygon fill="midnightblue" stroke="midnightblue" points="507.919,-102.515 518.289,-100.344 508.829,-95.5742 507.919,-102.515"/>
</g>
<!-- Node8 -->
<g id="node16" class="node"><title>Node8</title>
<a xlink:href="classcorecvs_1_1Matrix33.html#a9eb3a36d48aa0b715f5302febf79ea06" target="_top" xlink:title="corecvs::Matrix33::mulBy2dLeft">
<polygon fill="none" stroke="black" points="508.5,-40.5 508.5,-61.5 675.5,-61.5 675.5,-40.5 508.5,-40.5"/>
<text text-anchor="middle" x="592" y="-48.5" font-family="FreeSans.ttf" font-size="10.00">corecvs::Matrix33::mulBy2dLeft</text>
</a>
</g>
<!-- Node2&#45;&gt;Node8 -->
<g id="edge16" class="edge"><title>Node2&#45;&gt;Node8</title>
<path fill="none" stroke="midnightblue" d="M445.998,-69.4893C463.118,-67.3213 481.257,-65.0242 498.714,-62.8135"/>
<polygon fill="midnightblue" stroke="midnightblue" points="499.42,-66.2522 508.901,-61.5235 498.54,-59.3076 499.42,-66.2522"/>
</g>
<!-- Node4 -->
<g id="node7" class="node"><title>Node4</title>
<a xlink:href="classcorecvs_1_1VectorOperationsBase.html#acfcd4bcc60d1d076b00afcfeba9f9e8b" target="_top" xlink:title="Euclidean distance.">
<polygon fill="none" stroke="black" points="712,-158.5 712,-179.5 922,-179.5 922,-158.5 712,-158.5"/>
<text text-anchor="middle" x="817" y="-166.5" font-family="FreeSans.ttf" font-size="10.00">corecvs::VectorOperationsBase::l2Metric</text>
</a>
</g>
<!-- Node3&#45;&gt;Node4 -->
<g id="edge6" class="edge"><title>Node3&#45;&gt;Node4</title>
<path fill="none" stroke="midnightblue" d="M627.598,-120.513C651.417,-127.442 683.503,-136.574 712,-144 727.767,-148.109 744.937,-152.311 760.738,-156.068"/>
<polygon fill="midnightblue" stroke="midnightblue" points="760.358,-159.575 770.895,-158.468 761.968,-152.762 760.358,-159.575"/>
</g>
<!-- Node5 -->
<g id="node9" class="node"><title>Node5</title>
<a xlink:href="classcorecvs_1_1Line2d.html#af2129b77f7bfa024b387a8d958deb1b3" target="_top" xlink:title="corecvs::Line2d::normal">
<polygon fill="none" stroke="black" points="958.5,-119.5 958.5,-140.5 1089.5,-140.5 1089.5,-119.5 958.5,-119.5"/>
<text text-anchor="middle" x="1024" y="-127.5" font-family="FreeSans.ttf" font-size="10.00">corecvs::Line2d::normal</text>
</a>
</g>
<!-- Node3&#45;&gt;Node5 -->
<g id="edge8" class="edge"><title>Node3&#45;&gt;Node5</title>
<path fill="none" stroke="midnightblue" d="M665.773,-113.415C744.417,-117.056 868.345,-122.794 947.878,-126.476"/>
<polygon fill="midnightblue" stroke="midnightblue" points="948.163,-129.993 958.314,-126.959 948.487,-123 948.163,-129.993"/>
</g>
<!-- Node6 -->
<g id="node11" class="node"><title>Node6</title>
<a xlink:href="classcorecvs_1_1Line2d.html#a3b0cea19b23ecca90c69a7efe83ceb4c" target="_top" xlink:title="corecvs::Line2d::pointWeight">
<polygon fill="none" stroke="black" points="741,-80.5 741,-101.5 893,-101.5 893,-80.5 741,-80.5"/>
<text text-anchor="middle" x="817" y="-88.5" font-family="FreeSans.ttf" font-size="10.00">corecvs::Line2d::pointWeight</text>
</a>
</g>
<!-- Node3&#45;&gt;Node6 -->
<g id="edge10" class="edge"><title>Node3&#45;&gt;Node6</title>
<path fill="none" stroke="midnightblue" d="M665.673,-103.779C686.474,-102.022 709.293,-100.095 730.76,-98.2825"/>
<polygon fill="midnightblue" stroke="midnightblue" points="731.175,-101.76 740.845,-97.4309 730.586,-94.7848 731.175,-101.76"/>
</g>
<!-- Node6&#45;&gt;Node5 -->
<g id="edge14" class="edge"><title>Node6&#45;&gt;Node5</title>
<path fill="none" stroke="midnightblue" d="M872.745,-101.503C899.087,-106.466 930.715,-112.425 958.225,-117.608"/>
<polygon fill="midnightblue" stroke="midnightblue" points="957.681,-121.067 968.156,-119.479 958.977,-114.188 957.681,-121.067"/>
</g>
<!-- Node7 -->
<g id="node13" class="node"><title>Node7</title>
<a xlink:href="classcorecvs_1_1Line2d.html#a04ce9e0c5d9195027ec0fcc8093b8289" target="_top" xlink:title="corecvs::Line2d::last">
<polygon fill="none" stroke="black" points="967,-79.5 967,-100.5 1081,-100.5 1081,-79.5 967,-79.5"/>
<text text-anchor="middle" x="1024" y="-87.5" font-family="FreeSans.ttf" font-size="10.00">corecvs::Line2d::last</text>
</a>
</g>
<!-- Node6&#45;&gt;Node7 -->
<g id="edge12" class="edge"><title>Node6&#45;&gt;Node7</title>
<path fill="none" stroke="midnightblue" d="M893.197,-90.6319C914.005,-90.5314 936.399,-90.4232 956.675,-90.3252"/>
<polygon fill="midnightblue" stroke="midnightblue" points="956.769,-93.8249 966.752,-90.2766 956.735,-86.825 956.769,-93.8249"/>
</g>
<!-- Node9 -->
<g id="node18" class="node"><title>Node9</title>
<a xlink:href="classcorecvs_1_1Vector2d.html#a944721c41f044c1388d9dc42ca899bce" target="_top" xlink:title="corecvs::Vector2d::x">
<polygon fill="none" stroke="black" points="760.5,-40.5 760.5,-61.5 873.5,-61.5 873.5,-40.5 760.5,-40.5"/>
<text text-anchor="middle" x="817" y="-48.5" font-family="FreeSans.ttf" font-size="10.00">corecvs::Vector2d::x</text>
</a>
</g>
<!-- Node8&#45;&gt;Node9 -->
<g id="edge18" class="edge"><title>Node8&#45;&gt;Node9</title>
<path fill="none" stroke="midnightblue" d="M675.782,-51C700.379,-51 726.939,-51 750.316,-51"/>
<polygon fill="midnightblue" stroke="midnightblue" points="750.468,-54.5001 760.468,-51 750.468,-47.5001 750.468,-54.5001"/>
</g>
<!-- Node10 -->
<g id="node20" class="node"><title>Node10</title>
<a xlink:href="classcorecvs_1_1Vector2d.html#ae1ea2ad4c0821001408bf963cffa8413" target="_top" xlink:title="corecvs::Vector2d::y">
<polygon fill="none" stroke="black" points="760.5,-0.5 760.5,-21.5 873.5,-21.5 873.5,-0.5 760.5,-0.5"/>
<text text-anchor="middle" x="817" y="-8.5" font-family="FreeSans.ttf" font-size="10.00">corecvs::Vector2d::y</text>
</a>
</g>
<!-- Node8&#45;&gt;Node10 -->
<g id="edge20" class="edge"><title>Node8&#45;&gt;Node10</title>
<path fill="none" stroke="midnightblue" d="M651.116,-40.4905C681.545,-35.0808 718.758,-28.4653 750.221,-22.8718"/>
<polygon fill="midnightblue" stroke="midnightblue" points="750.985,-26.2909 760.218,-21.0945 749.76,-19.3989 750.985,-26.2909"/>
</g>
</g>
</svg>
        <g id="navigator" transform="translate(0 0)" fill="#404254">
                <rect fill="#f2f5e9" fill-opacity="0.5" stroke="#606060" stroke-width=".5" x="0" y="0" width="60" height="60"/>
                <use id="zoomplus" xlink:href="#zoomPlus" x="17" y="9" onmousedown="handleZoom(evt,'in')"/>
                <use id="zoomminus" xlink:href="#zoomMin" x="42" y="9" onmousedown="handleZoom(evt,'out')"/>
                <use id="reset" xlink:href="#resetDef" x="30" y="36" onmousedown="handleReset()"/>
                <g id="arrowUp" xlink:href="#dirArrow" transform="translate(30 24)" onmousedown="handlePan(0,-1)">
                  <use xlink:href="#rim" fill="#404040">
                        <set attributeName="fill" to="#808080" begin="arrowUp.mouseover" end="arrowUp.mouseout"/>
                  </use>
                  <path fill="none" stroke="white" stroke-width="1.5" d="M0,-3.0v7 M-2.5,-0.5L0,-3.0L2.5,-0.5"/>
                </g>
                <g id="arrowRight" xlink:href="#dirArrow" transform="rotate(90) translate(36 -43)" onmousedown="handlePan(1,0)">
                  <use xlink:href="#rim" fill="#404040">
                        <set attributeName="fill" to="#808080" begin="arrowRight.mouseover" end="arrowRight.mouseout"/>
                  </use>
                  <path fill="none" stroke="white" stroke-width="1.5" d="M0,-3.0v7 M-2.5,-0.5L0,-3.0L2.5,-0.5"/>
                </g>
                <g id="arrowDown" xlink:href="#dirArrow" transform="rotate(180) translate(-30 -48)" onmousedown="handlePan(0,1)">
                  <use xlink:href="#rim" fill="#404040">
                        <set attributeName="fill" to="#808080" begin="arrowDown.mouseover" end="arrowDown.mouseout"/>
                  </use>
                  <path fill="none" stroke="white" stroke-width="1.5" d="M0,-3.0v7 M-2.5,-0.5L0,-3.0L2.5,-0.5"/>
                </g>
                <g id="arrowLeft" xlink:href="#dirArrow" transform="rotate(270) translate(-36 17)" onmousedown="handlePan(-1,0)">
                  <use xlink:href="#rim" fill="#404040">
                        <set attributeName="fill" to="#808080" begin="arrowLeft.mouseover" end="arrowLeft.mouseout"/>
                  </use>
                  <path fill="none" stroke="white" stroke-width="1.5" d="M0,-3.0v7 M-2.5,-0.5L0,-3.0L2.5,-0.5"/>
                </g>
        </g>
</svg>
