<?xml version="1.0" encoding="UTF-8" standalone="no"?>
<!DOCTYPE svg PUBLIC "-//W3C//DTD SVG 1.1//EN"
 "http://www.w3.org/Graphics/SVG/1.1/DTD/svg11.dtd">
<!-- Generated by graphviz version 2.26.3 (20100126.1600)
 -->
<!-- Title: G Pages: 1 -->
<!--zoomable 304 -->
<svg id="main" version="1.1" xmlns="http://www.w3.org/2000/svg" xmlns:xlink="http://www.w3.org/1999/xlink" xml:space="preserve" onload="init(evt)">
        <defs>
                <circle id="rim" cx="0" cy="0" r="7"/>
                <circle id="rim2" cx="0" cy="0" r="3.5"/>
                <g id="zoomPlus">
                        <use xlink:href="#rim" fill="#404040">
                                <set attributeName="fill" to="#808080" begin="zoomplus.mouseover" end="zoomplus.mouseout"/>
                        </use>
                        <path d="M-4,0h8M0,-4v8" fill="none" stroke="white" stroke-width="1.5" pointer-events="none"/>
                </g>
                <g id="zoomMin">
                        <use xlink:href="#rim" fill="#404040">
                                <set attributeName="fill" to="#808080" begin="zoomminus.mouseover" end="zoomminus.mouseout"/>
                        </use>
                        <path d="M-4,0h8" fill="none" stroke="white" stroke-width="1.5" pointer-events="none"/>
                </g>
                <g id="dirArrow">
                        <path fill="none" stroke="white" stroke-width="1.5" d="M0,-3.0v7 M-2.5,-0.5L0,-3.0L2.5,-0.5"/>
                </g>
               <g id="resetDef">
                       <use xlink:href="#rim2" fill="#404040">
                               <set attributeName="fill" to="#808080" begin="reset.mouseover" end="reset.mouseout"/>
                       </use>
               </g>
        </defs>

<script type="text/javascript">
var viewWidth = 1134;
var viewHeight = 304;
var sectionId = 'dynsection-13';
</script>
<script xlink:href="svgpan.js"/>
<svg id="graph" class="graph">
<g id="viewport">
<title>G</title>
<!-- Node1 -->
<g id="node1" class="node"><title>Node1</title>
<polygon fill="#bfbfbf" stroke="black" points="0.5,-158.5 0.5,-179.5 203.5,-179.5 203.5,-158.5 0.5,-158.5"/>
<text text-anchor="middle" x="102" y="-166.5" font-family="FreeSans.ttf" font-size="10.00">corecvs::RGB24Buffer::drawFlowBuffer3</text>
</g>
<!-- Node2 -->
<g id="node3" class="node"><title>Node2</title>
<a xlink:href="classcorecvs_1_1RGB24Buffer.html#a7880dca29ef63d3ed9e2320acc5a0841" target="_top" xlink:title="This function is used to draw a sort of marker over the buffer.">
<polygon fill="none" stroke="black" points="240.5,-274.5 240.5,-295.5 443.5,-295.5 443.5,-274.5 240.5,-274.5"/>
<text text-anchor="middle" x="342" y="-282.5" font-family="FreeSans.ttf" font-size="10.00">corecvs::RGB24Buffer::drawCrosshare3</text>
</a>
</g>
<!-- Node1&#45;&gt;Node2 -->
<g id="edge2" class="edge"><title>Node1&#45;&gt;Node2</title>
<path fill="none" stroke="midnightblue" d="M114.823,-179.676C138.217,-198.623 190.028,-238.182 240,-260 250.835,-264.731 262.725,-268.669 274.441,-271.912"/>
<polygon fill="midnightblue" stroke="midnightblue" points="273.653,-275.324 284.214,-274.476 275.429,-268.553 273.653,-275.324"/>
</g>
<!-- Node6 -->
<g id="node11" class="node"><title>Node6</title>
<a xlink:href="classcorecvs_1_1AbstractBuffer.html#a98f72526738a0c4ce8a0b72a3b5c28b9" target="_top" xlink:title="The element getter.">
<polygon fill="none" stroke="black" points="942,-215.5 942,-236.5 1116,-236.5 1116,-215.5 942,-215.5"/>
<text text-anchor="middle" x="1029" y="-223.5" font-family="FreeSans.ttf" font-size="10.00">corecvs::AbstractBuffer::element</text>
</a>
</g>
<!-- Node1&#45;&gt;Node6 -->
<g id="edge16" class="edge"><title>Node1&#45;&gt;Node6</title>
<path fill="none" stroke="midnightblue" d="M138.263,-179.561C165.895,-187.146 205.021,-196.897 240,-202 487.061,-238.043 782.082,-234.94 931.667,-230.154"/>
<polygon fill="midnightblue" stroke="midnightblue" points="931.866,-233.649 941.745,-229.822 931.635,-226.653 931.866,-233.649"/>
</g>
<!-- Node7 -->
<g id="node13" class="node"><title>Node7</title>
<a xlink:href="classcorecvs_1_1RGB24Buffer.html#abc609be3c25e3614285783385e53b7e9" target="_top" xlink:title="This function implements the Bresenham algorithm.">
<polygon fill="none" stroke="black" points="694.5,-196.5 694.5,-217.5 895.5,-217.5 895.5,-196.5 694.5,-196.5"/>
<text text-anchor="middle" x="795" y="-204.5" font-family="FreeSans.ttf" font-size="10.00">corecvs::RGB24Buffer::drawLineSimple</text>
</a>
</g>
<!-- Node1&#45;&gt;Node7 -->
<g id="edge12" class="edge"><title>Node1&#45;&gt;Node7</title>
<path fill="none" stroke="midnightblue" d="M198.45,-179.503C212.38,-180.811 226.55,-182.028 240,-183 393.797,-194.117 571.969,-200.709 684.08,-204.092"/>
<polygon fill="midnightblue" stroke="midnightblue" points="684.284,-207.6 694.384,-204.4 684.493,-200.603 684.284,-207.6"/>
</g>
<!-- Node8 -->
<g id="node17" class="node"><title>Node8</title>
<a xlink:href="classcorecvs_1_1FlowBuffer.html#ab3e0bc7a8cd0eb01fd86f20de3aa5a99" target="_top" xlink:title="corecvs::FlowBuffer::isElementKnown">
<polygon fill="none" stroke="black" points="246,-119.5 246,-140.5 438,-140.5 438,-119.5 246,-119.5"/>
<text text-anchor="middle" x="342" y="-127.5" font-family="FreeSans.ttf" font-size="10.00">corecvs::FlowBuffer::isElementKnown</text>
</a>
</g>
<!-- Node1&#45;&gt;Node8 -->
<g id="edge18" class="edge"><title>Node1&#45;&gt;Node8</title>
<path fill="none" stroke="midnightblue" d="M166.631,-158.497C197.575,-153.469 234.81,-147.418 266.995,-142.188"/>
<polygon fill="midnightblue" stroke="midnightblue" points="267.944,-145.58 277.253,-140.521 266.821,-138.671 267.944,-145.58"/>
</g>
<!-- Node9 -->
<g id="node20" class="node"><title>Node9</title>
<a xlink:href="classcorecvs_1_1Vector2d.html#a944721c41f044c1388d9dc42ca899bce" target="_top" xlink:title="corecvs::Vector2d::x">
<polygon fill="none" stroke="black" points="512.5,-158.5 512.5,-179.5 625.5,-179.5 625.5,-158.5 512.5,-158.5"/>
<text text-anchor="middle" x="569" y="-166.5" font-family="FreeSans.ttf" font-size="10.00">corecvs::Vector2d::x</text>
</a>
</g>
<!-- Node1&#45;&gt;Node9 -->
<g id="edge32" class="edge"><title>Node1&#45;&gt;Node9</title>
<path fill="none" stroke="midnightblue" d="M203.62,-169C294.138,-169 423.999,-169 502.06,-169"/>
<polygon fill="midnightblue" stroke="midnightblue" points="502.252,-172.5 512.252,-169 502.252,-165.5 502.252,-172.5"/>
</g>
<!-- Node10 -->
<g id="node22" class="node"><title>Node10</title>
<a xlink:href="classcorecvs_1_1Vector2d.html#ae1ea2ad4c0821001408bf963cffa8413" target="_top" xlink:title="corecvs::Vector2d::y">
<polygon fill="none" stroke="black" points="512.5,-80.5 512.5,-101.5 625.5,-101.5 625.5,-80.5 512.5,-80.5"/>
<text text-anchor="middle" x="569" y="-88.5" font-family="FreeSans.ttf" font-size="10.00">corecvs::Vector2d::y</text>
</a>
</g>
<!-- Node1&#45;&gt;Node10 -->
<g id="edge34" class="edge"><title>Node1&#45;&gt;Node10</title>
<path fill="none" stroke="midnightblue" d="M120.928,-158.39C146.872,-144.445 195.358,-120.493 240,-110 329,-89.0814 435.08,-86.8748 502.241,-88.1705"/>
<polygon fill="midnightblue" stroke="midnightblue" points="502.192,-91.6702 512.269,-88.3957 502.35,-84.672 502.192,-91.6702"/>
</g>
<!-- Node11 -->
<g id="node24" class="node"><title>Node11</title>
<a xlink:href="classcorecvs_1_1RGBColor.html#a3a40b8a43b31869f5ad2eae052ebe7e2" target="_top" xlink:title="Helper method that allows to represent the double value in interval 0..1 With a color coding...">
<polygon fill="none" stroke="black" points="265.5,-40.5 265.5,-61.5 418.5,-61.5 418.5,-40.5 265.5,-40.5"/>
<text text-anchor="middle" x="342" y="-48.5" font-family="FreeSans.ttf" font-size="10.00">corecvs::RGBColor::rainbow1</text>
</a>
</g>
<!-- Node1&#45;&gt;Node11 -->
<g id="edge26" class="edge"><title>Node1&#45;&gt;Node11</title>
<path fill="none" stroke="midnightblue" d="M114.822,-158.244C138.212,-139.149 190.019,-99.248 240,-77 251.527,-71.869 264.255,-67.6145 276.699,-64.1369"/>
<polygon fill="midnightblue" stroke="midnightblue" points="277.821,-67.4604 286.589,-61.5126 276.026,-60.6945 277.821,-67.4604"/>
</g>
<!-- Node3 -->
<g id="node5" class="node"><title>Node3</title>
<a xlink:href="classcorecvs_1_1RGB24Buffer.html#a263f6ce1765d6a4b673ba56a9a28d7f2" target="_top" xlink:title="corecvs::RGB24Buffer::drawSprite">
<polygon fill="none" stroke="black" points="480.5,-274.5 480.5,-295.5 657.5,-295.5 657.5,-274.5 480.5,-274.5"/>
<text text-anchor="middle" x="569" y="-282.5" font-family="FreeSans.ttf" font-size="10.00">corecvs::RGB24Buffer::drawSprite</text>
</a>
</g>
<!-- Node2&#45;&gt;Node3 -->
<g id="edge4" class="edge"><title>Node2&#45;&gt;Node3</title>
<path fill="none" stroke="midnightblue" d="M443.549,-285C452.373,-285 461.294,-285 470.097,-285"/>
<polygon fill="midnightblue" stroke="midnightblue" points="470.362,-288.5 480.362,-285 470.362,-281.5 470.362,-288.5"/>
</g>
<!-- Node4 -->
<g id="node7" class="node"><title>Node4</title>
<a xlink:href="classcorecvs_1_1RGB24Buffer.html#a196a513657c7398482eed191cfca6089" target="_top" xlink:title="This function is used to draw a pixel in the buffer.">
<polygon fill="none" stroke="black" points="710,-274.5 710,-295.5 880,-295.5 880,-274.5 710,-274.5"/>
<text text-anchor="middle" x="795" y="-282.5" font-family="FreeSans.ttf" font-size="10.00">corecvs::RGB24Buffer::drawPixel</text>
</a>
</g>
<!-- Node3&#45;&gt;Node4 -->
<g id="edge6" class="edge"><title>Node3&#45;&gt;Node4</title>
<path fill="none" stroke="midnightblue" d="M657.673,-285C671.504,-285 685.847,-285 699.816,-285"/>
<polygon fill="midnightblue" stroke="midnightblue" points="699.91,-288.5 709.91,-285 699.91,-281.5 699.91,-288.5"/>
</g>
<!-- Node5 -->
<g id="node9" class="node"><title>Node5</title>
<a xlink:href="classcorecvs_1_1AbstractBuffer.html#af38950daefa219f81a0e89ee186075f1" target="_top" xlink:title="Checks if coordinate lies within the buffer area.">
<polygon fill="none" stroke="black" points="932.5,-274.5 932.5,-295.5 1125.5,-295.5 1125.5,-274.5 932.5,-274.5"/>
<text text-anchor="middle" x="1029" y="-282.5" font-family="FreeSans.ttf" font-size="10.00">corecvs::AbstractBuffer::isValidCoord</text>
</a>
</g>
<!-- Node4&#45;&gt;Node5 -->
<g id="edge8" class="edge"><title>Node4&#45;&gt;Node5</title>
<path fill="none" stroke="midnightblue" d="M880.141,-285C893.811,-285 908.109,-285 922.208,-285"/>
<polygon fill="midnightblue" stroke="midnightblue" points="922.427,-288.5 932.427,-285 922.427,-281.5 922.427,-288.5"/>
</g>
<!-- Node4&#45;&gt;Node6 -->
<g id="edge10" class="edge"><title>Node4&#45;&gt;Node6</title>
<path fill="none" stroke="midnightblue" d="M837.773,-274.489C855.761,-270.049 876.905,-264.804 896,-260 923.119,-253.177 953.318,-245.467 978.077,-239.115"/>
<polygon fill="midnightblue" stroke="midnightblue" points="979.164,-242.449 987.979,-236.573 977.423,-235.669 979.164,-242.449"/>
</g>
<!-- Node7&#45;&gt;Node6 -->
<g id="edge14" class="edge"><title>Node7&#45;&gt;Node6</title>
<path fill="none" stroke="midnightblue" d="M895.595,-215.168C907.475,-216.133 919.585,-217.116 931.423,-218.077"/>
<polygon fill="midnightblue" stroke="midnightblue" points="931.492,-221.594 941.742,-218.915 932.058,-214.617 931.492,-221.594"/>
</g>
<!-- Node8&#45;&gt;Node6 -->
<g id="edge20" class="edge"><title>Node8&#45;&gt;Node6</title>
<path fill="none" stroke="midnightblue" d="M438.319,-133.333C501.023,-136.109 584.519,-140.944 658,-149 764.48,-160.673 791.506,-163.437 896,-187 927.117,-194.017 961.671,-204.224 987.759,-212.436"/>
<polygon fill="midnightblue" stroke="midnightblue" points="986.727,-215.781 997.318,-215.475 988.848,-209.11 986.727,-215.781"/>
</g>
<!-- Node8&#45;&gt;Node9 -->
<g id="edge22" class="edge"><title>Node8&#45;&gt;Node9</title>
<path fill="none" stroke="midnightblue" d="M403.13,-140.503C433.82,-145.775 471.052,-152.172 502.46,-157.568"/>
<polygon fill="midnightblue" stroke="midnightblue" points="501.989,-161.038 512.437,-159.282 503.174,-154.139 501.989,-161.038"/>
</g>
<!-- Node8&#45;&gt;Node10 -->
<g id="edge24" class="edge"><title>Node8&#45;&gt;Node10</title>
<path fill="none" stroke="midnightblue" d="M403.13,-119.497C433.82,-114.225 471.052,-107.828 502.46,-102.432"/>
<polygon fill="midnightblue" stroke="midnightblue" points="503.174,-105.861 512.437,-100.718 501.989,-98.9618 503.174,-105.861"/>
</g>
<!-- Node12 -->
<g id="node26" class="node"><title>Node12</title>
<a xlink:href="classcorecvs_1_1RGBColor.html#a5e8d5fe160db4c66478a86f84bfc70de" target="_top" xlink:title="corecvs::RGBColor::RGBColor">
<polygon fill="none" stroke="black" points="491.5,-40.5 491.5,-61.5 646.5,-61.5 646.5,-40.5 491.5,-40.5"/>
<text text-anchor="middle" x="569" y="-48.5" font-family="FreeSans.ttf" font-size="10.00">corecvs::RGBColor::RGBColor</text>
</a>
</g>
<!-- Node11&#45;&gt;Node12 -->
<g id="edge28" class="edge"><title>Node11&#45;&gt;Node12</title>
<path fill="none" stroke="midnightblue" d="M418.535,-51C438.667,-51 460.54,-51 481.212,-51"/>
<polygon fill="midnightblue" stroke="midnightblue" points="481.25,-54.5001 491.25,-51 481.25,-47.5001 481.25,-54.5001"/>
</g>
<!-- Node13 -->
<g id="node28" class="node"><title>Node13</title>
<a xlink:href="namespacecorecvs.html#a807eb76b7544bcb930b1700a58a780bd" target="_top" xlink:title="Useful round* stuff.">
<polygon fill="none" stroke="black" points="524,-0.5 524,-21.5 614,-21.5 614,-0.5 524,-0.5"/>
<text text-anchor="middle" x="569" y="-8.5" font-family="FreeSans.ttf" font-size="10.00">corecvs::fround</text>
</a>
</g>
<!-- Node11&#45;&gt;Node13 -->
<g id="edge30" class="edge"><title>Node11&#45;&gt;Node13</title>
<path fill="none" stroke="midnightblue" d="M401.642,-40.4905C436.284,-34.3861 479.64,-26.7463 513.543,-20.7722"/>
<polygon fill="midnightblue" stroke="midnightblue" points="514.5,-24.1576 523.741,-18.9752 513.285,-17.2638 514.5,-24.1576"/>
</g>
</g>
</svg>
        <g id="navigator" transform="translate(0 0)" fill="#404254">
                <rect fill="#f2f5e9" fill-opacity="0.5" stroke="#606060" stroke-width=".5" x="0" y="0" width="60" height="60"/>
                <use id="zoomplus" xlink:href="#zoomPlus" x="17" y="9" onmousedown="handleZoom(evt,'in')"/>
                <use id="zoomminus" xlink:href="#zoomMin" x="42" y="9" onmousedown="handleZoom(evt,'out')"/>
                <use id="reset" xlink:href="#resetDef" x="30" y="36" onmousedown="handleReset()"/>
                <g id="arrowUp" xlink:href="#dirArrow" transform="translate(30 24)" onmousedown="handlePan(0,-1)">
                  <use xlink:href="#rim" fill="#404040">
                        <set attributeName="fill" to="#808080" begin="arrowUp.mouseover" end="arrowUp.mouseout"/>
                  </use>
                  <path fill="none" stroke="white" stroke-width="1.5" d="M0,-3.0v7 M-2.5,-0.5L0,-3.0L2.5,-0.5"/>
                </g>
                <g id="arrowRight" xlink:href="#dirArrow" transform="rotate(90) translate(36 -43)" onmousedown="handlePan(1,0)">
                  <use xlink:href="#rim" fill="#404040">
                        <set attributeName="fill" to="#808080" begin="arrowRight.mouseover" end="arrowRight.mouseout"/>
                  </use>
                  <path fill="none" stroke="white" stroke-width="1.5" d="M0,-3.0v7 M-2.5,-0.5L0,-3.0L2.5,-0.5"/>
                </g>
                <g id="arrowDown" xlink:href="#dirArrow" transform="rotate(180) translate(-30 -48)" onmousedown="handlePan(0,1)">
                  <use xlink:href="#rim" fill="#404040">
                        <set attributeName="fill" to="#808080" begin="arrowDown.mouseover" end="arrowDown.mouseout"/>
                  </use>
                  <path fill="none" stroke="white" stroke-width="1.5" d="M0,-3.0v7 M-2.5,-0.5L0,-3.0L2.5,-0.5"/>
                </g>
                <g id="arrowLeft" xlink:href="#dirArrow" transform="rotate(270) translate(-36 17)" onmousedown="handlePan(-1,0)">
                  <use xlink:href="#rim" fill="#404040">
                        <set attributeName="fill" to="#808080" begin="arrowLeft.mouseover" end="arrowLeft.mouseout"/>
                  </use>
                  <path fill="none" stroke="white" stroke-width="1.5" d="M0,-3.0v7 M-2.5,-0.5L0,-3.0L2.5,-0.5"/>
                </g>
        </g>
</svg>
