<?xml version="1.0" encoding="UTF-8" standalone="no"?>
<!DOCTYPE svg PUBLIC "-//W3C//DTD SVG 1.1//EN"
 "http://www.w3.org/Graphics/SVG/1.1/DTD/svg11.dtd">
<!-- Generated by graphviz version 2.26.3 (20100126.1600)
 -->
<!-- Title: G Pages: 1 -->
<!--zoomable 410 -->
<svg id="main" version="1.1" xmlns="http://www.w3.org/2000/svg" xmlns:xlink="http://www.w3.org/1999/xlink" xml:space="preserve" onload="init(evt)">
        <defs>
                <circle id="rim" cx="0" cy="0" r="7"/>
                <circle id="rim2" cx="0" cy="0" r="3.5"/>
                <g id="zoomPlus">
                        <use xlink:href="#rim" fill="#404040">
                                <set attributeName="fill" to="#808080" begin="zoomplus.mouseover" end="zoomplus.mouseout"/>
                        </use>
                        <path d="M-4,0h8M0,-4v8" fill="none" stroke="white" stroke-width="1.5" pointer-events="none"/>
                </g>
                <g id="zoomMin">
                        <use xlink:href="#rim" fill="#404040">
                                <set attributeName="fill" to="#808080" begin="zoomminus.mouseover" end="zoomminus.mouseout"/>
                        </use>
                        <path d="M-4,0h8" fill="none" stroke="white" stroke-width="1.5" pointer-events="none"/>
                </g>
                <g id="dirArrow">
                        <path fill="none" stroke="white" stroke-width="1.5" d="M0,-3.0v7 M-2.5,-0.5L0,-3.0L2.5,-0.5"/>
                </g>
               <g id="resetDef">
                       <use xlink:href="#rim2" fill="#404040">
                               <set attributeName="fill" to="#808080" begin="reset.mouseover" end="reset.mouseout"/>
                       </use>
               </g>
        </defs>

<script type="text/javascript">
var viewWidth = 1224;
var viewHeight = 410;
var sectionId = 'dynsection-3';
</script>
<script xlink:href="svgpan.js"/>
<svg id="graph" class="graph">
<g id="viewport">
<title>G</title>
<!-- Node1 -->
<g id="node1" class="node"><title>Node1</title>
<polygon fill="#bfbfbf" stroke="black" points="0.5,-280.5 0.5,-301.5 167.5,-301.5 167.5,-280.5 0.5,-280.5"/>
<text text-anchor="middle" x="84" y="-288.5" font-family="FreeSans.ttf" font-size="10.00">TestbedMainWindow::loadImage</text>
</g>
<!-- Node2 -->
<g id="node3" class="node"><title>Node2</title>
<a xlink:href="painterHelpers_8cpp.html#a780900a5b9c323ccddc2ae68a7b10cc2" target="_top" xlink:title="drawCircle">
<polygon fill="none" stroke="black" points="274.5,-340.5 274.5,-361.5 339.5,-361.5 339.5,-340.5 274.5,-340.5"/>
<text text-anchor="middle" x="307" y="-348.5" font-family="FreeSans.ttf" font-size="10.00">drawCircle</text>
</a>
</g>
<!-- Node1&#45;&gt;Node2 -->
<g id="edge2" class="edge"><title>Node1&#45;&gt;Node2</title>
<path fill="none" stroke="midnightblue" d="M112.296,-301.592C136.417,-310.339 172.14,-322.635 204,-331 223.623,-336.152 245.667,-340.607 264.311,-343.996"/>
<polygon fill="midnightblue" stroke="midnightblue" points="263.825,-347.464 274.283,-345.767 265.049,-340.572 263.825,-347.464"/>
</g>
<!-- Node6 -->
<g id="node11" class="node"><title>Node6</title>
<a xlink:href="classcorecvs_1_1AbstractBuffer.html#a6be5a0969d374904dc4ff6cd576c9332" target="_top" xlink:title="Buffer size getter.">
<polygon fill="none" stroke="black" points="222,-300.5 222,-321.5 392,-321.5 392,-300.5 222,-300.5"/>
<text text-anchor="middle" x="307" y="-308.5" font-family="FreeSans.ttf" font-size="10.00">corecvs::AbstractBuffer::getSize</text>
</a>
</g>
<!-- Node1&#45;&gt;Node6 -->
<g id="edge10" class="edge"><title>Node1&#45;&gt;Node6</title>
<path fill="none" stroke="midnightblue" d="M167.671,-298.504C182.031,-299.792 197.048,-301.139 211.685,-302.452"/>
<polygon fill="midnightblue" stroke="midnightblue" points="211.472,-305.946 221.745,-303.354 212.098,-298.974 211.472,-305.946"/>
</g>
<!-- Node7 -->
<g id="node13" class="node"><title>Node7</title>
<a xlink:href="classQTFileLoader.html#a226d0a4ec05f907b5980159b3645803e" target="_top" xlink:title="QTFileLoader::RGB24BufferFromQImage">
<polygon fill="none" stroke="black" points="204,-260.5 204,-281.5 410,-281.5 410,-260.5 204,-260.5"/>
<text text-anchor="middle" x="307" y="-268.5" font-family="FreeSans.ttf" font-size="10.00">QTFileLoader::RGB24BufferFromQImage</text>
</a>
</g>
<!-- Node1&#45;&gt;Node7 -->
<g id="edge12" class="edge"><title>Node1&#45;&gt;Node7</title>
<path fill="none" stroke="midnightblue" d="M167.671,-283.496C176.11,-282.739 184.776,-281.962 193.459,-281.183"/>
<polygon fill="midnightblue" stroke="midnightblue" points="193.999,-284.649 203.646,-280.269 193.373,-277.677 193.999,-284.649"/>
</g>
<!-- Node9 -->
<g id="node17" class="node"><title>Node9</title>
<a xlink:href="classTestbedMainWindow.html#ad8dc73893e9c50a4113b22a429af6109" target="_top" xlink:title="TestbedMainWindow::updateViewImage">
<polygon fill="none" stroke="black" points="206,-180.5 206,-201.5 408,-201.5 408,-180.5 206,-180.5"/>
<text text-anchor="middle" x="307" y="-188.5" font-family="FreeSans.ttf" font-size="10.00">TestbedMainWindow::updateViewImage</text>
</a>
</g>
<!-- Node1&#45;&gt;Node9 -->
<g id="edge16" class="edge"><title>Node1&#45;&gt;Node9</title>
<path fill="none" stroke="midnightblue" d="M107.443,-280.487C147.428,-262.557 228.893,-226.026 274.399,-205.619"/>
<polygon fill="midnightblue" stroke="midnightblue" points="275.844,-208.807 283.536,-201.522 272.979,-202.42 275.844,-208.807"/>
</g>
<!-- Node3 -->
<g id="node5" class="node"><title>Node3</title>
<a xlink:href="namespacecorecvs.html#a807eb76b7544bcb930b1700a58a780bd" target="_top" xlink:title="Useful round* stuff.">
<polygon fill="none" stroke="black" points="498,-380.5 498,-401.5 588,-401.5 588,-380.5 498,-380.5"/>
<text text-anchor="middle" x="543" y="-388.5" font-family="FreeSans.ttf" font-size="10.00">corecvs::fround</text>
</a>
</g>
<!-- Node2&#45;&gt;Node3 -->
<g id="edge4" class="edge"><title>Node2&#45;&gt;Node3</title>
<path fill="none" stroke="midnightblue" d="M339.815,-356.562C378.083,-363.048 441.945,-373.872 487.867,-381.655"/>
<polygon fill="midnightblue" stroke="midnightblue" points="487.515,-385.146 497.959,-383.366 488.685,-378.244 487.515,-385.146"/>
</g>
<!-- Node4 -->
<g id="node7" class="node"><title>Node4</title>
<a xlink:href="classcorecvs_1_1Vector2d.html#a944721c41f044c1388d9dc42ca899bce" target="_top" xlink:title="corecvs::Vector2d::x">
<polygon fill="none" stroke="black" points="486.5,-340.5 486.5,-361.5 599.5,-361.5 599.5,-340.5 486.5,-340.5"/>
<text text-anchor="middle" x="543" y="-348.5" font-family="FreeSans.ttf" font-size="10.00">corecvs::Vector2d::x</text>
</a>
</g>
<!-- Node2&#45;&gt;Node4 -->
<g id="edge6" class="edge"><title>Node2&#45;&gt;Node4</title>
<path fill="none" stroke="midnightblue" d="M339.815,-351C374.947,-351 431.652,-351 476.242,-351"/>
<polygon fill="midnightblue" stroke="midnightblue" points="476.425,-354.5 486.425,-351 476.425,-347.5 476.425,-354.5"/>
</g>
<!-- Node5 -->
<g id="node9" class="node"><title>Node5</title>
<a xlink:href="classcorecvs_1_1Vector2d.html#ae1ea2ad4c0821001408bf963cffa8413" target="_top" xlink:title="corecvs::Vector2d::y">
<polygon fill="none" stroke="black" points="486.5,-300.5 486.5,-321.5 599.5,-321.5 599.5,-300.5 486.5,-300.5"/>
<text text-anchor="middle" x="543" y="-308.5" font-family="FreeSans.ttf" font-size="10.00">corecvs::Vector2d::y</text>
</a>
</g>
<!-- Node2&#45;&gt;Node5 -->
<g id="edge8" class="edge"><title>Node2&#45;&gt;Node5</title>
<path fill="none" stroke="midnightblue" d="M339.815,-345.438C375.021,-339.471 431.891,-329.832 476.523,-322.267"/>
<polygon fill="midnightblue" stroke="midnightblue" points="477.151,-325.711 486.425,-320.589 475.981,-318.809 477.151,-325.711"/>
</g>
<!-- Node8 -->
<g id="node15" class="node"><title>Node8</title>
<a xlink:href="classcorecvs_1_1AbstractBuffer.html#a98f72526738a0c4ce8a0b72a3b5c28b9" target="_top" xlink:title="The element getter.">
<polygon fill="none" stroke="black" points="456,-260.5 456,-281.5 630,-281.5 630,-260.5 456,-260.5"/>
<text text-anchor="middle" x="543" y="-268.5" font-family="FreeSans.ttf" font-size="10.00">corecvs::AbstractBuffer::element</text>
</a>
</g>
<!-- Node7&#45;&gt;Node8 -->
<g id="edge14" class="edge"><title>Node7&#45;&gt;Node8</title>
<path fill="none" stroke="midnightblue" d="M410.17,-271C421.969,-271 433.97,-271 445.689,-271"/>
<polygon fill="midnightblue" stroke="midnightblue" points="445.903,-274.5 455.903,-271 445.903,-267.5 445.903,-274.5"/>
</g>
<!-- Node9&#45;&gt;Node8 -->
<g id="edge20" class="edge"><title>Node9&#45;&gt;Node8</title>
<path fill="none" stroke="midnightblue" d="M327.684,-201.52C354.4,-214.733 402.633,-237.327 446,-251 454.4,-253.648 463.322,-256.038 472.22,-258.165"/>
<polygon fill="midnightblue" stroke="midnightblue" points="471.7,-261.637 482.228,-260.456 473.262,-254.813 471.7,-261.637"/>
</g>
<!-- Node10 -->
<g id="node19" class="node"><title>Node10</title>
<a xlink:href="classcorecvs_1_1AbstractBuffer.html#af38950daefa219f81a0e89ee186075f1" target="_top" xlink:title="Checks if coordinate lies within the buffer area.">
<polygon fill="none" stroke="black" points="446.5,-220.5 446.5,-241.5 639.5,-241.5 639.5,-220.5 446.5,-220.5"/>
<text text-anchor="middle" x="543" y="-228.5" font-family="FreeSans.ttf" font-size="10.00">corecvs::AbstractBuffer::isValidCoord</text>
</a>
</g>
<!-- Node9&#45;&gt;Node10 -->
<g id="edge18" class="edge"><title>Node9&#45;&gt;Node10</title>
<path fill="none" stroke="midnightblue" d="M369.006,-201.51C400.319,-206.817 438.479,-213.285 471.075,-218.809"/>
<polygon fill="midnightblue" stroke="midnightblue" points="470.554,-222.271 480.999,-220.491 471.724,-215.369 470.554,-222.271"/>
</g>
<!-- Node11 -->
<g id="node22" class="node"><title>Node11</title>
<a xlink:href="classcorecvs_1_1RGBColor.html#a551378cc4e40775286d1200a21e3dfbc" target="_top" xlink:title="corecvs::RGBColor::r">
<polygon fill="none" stroke="black" points="486,-180.5 486,-201.5 600,-201.5 600,-180.5 486,-180.5"/>
<text text-anchor="middle" x="543" y="-188.5" font-family="FreeSans.ttf" font-size="10.00">corecvs::RGBColor::r</text>
</a>
</g>
<!-- Node9&#45;&gt;Node11 -->
<g id="edge22" class="edge"><title>Node9&#45;&gt;Node11</title>
<path fill="none" stroke="midnightblue" d="M408.112,-191C431.013,-191 454.779,-191 475.866,-191"/>
<polygon fill="midnightblue" stroke="midnightblue" points="475.987,-194.5 485.987,-191 475.987,-187.5 475.987,-194.5"/>
</g>
<!-- Node12 -->
<g id="node24" class="node"><title>Node12</title>
<a xlink:href="classcorecvs_1_1RGBColor.html#a61bb42ad3c5af64582ba22408e8bc5c4" target="_top" xlink:title="corecvs::RGBColor::g">
<polygon fill="none" stroke="black" points="485,-140.5 485,-161.5 601,-161.5 601,-140.5 485,-140.5"/>
<text text-anchor="middle" x="543" y="-148.5" font-family="FreeSans.ttf" font-size="10.00">corecvs::RGBColor::g</text>
</a>
</g>
<!-- Node9&#45;&gt;Node12 -->
<g id="edge24" class="edge"><title>Node9&#45;&gt;Node12</title>
<path fill="none" stroke="midnightblue" d="M369.006,-180.49C401.433,-174.994 441.203,-168.254 474.532,-162.605"/>
<polygon fill="midnightblue" stroke="midnightblue" points="475.379,-166.011 484.653,-160.889 474.209,-159.11 475.379,-166.011"/>
</g>
<!-- Node13 -->
<g id="node26" class="node"><title>Node13</title>
<a xlink:href="classcorecvs_1_1RGBColor.html#a28d1778710e5ade8ab275f8ef03cdaec" target="_top" xlink:title="corecvs::RGBColor::b">
<polygon fill="none" stroke="black" points="485,-100.5 485,-121.5 601,-121.5 601,-100.5 485,-100.5"/>
<text text-anchor="middle" x="543" y="-108.5" font-family="FreeSans.ttf" font-size="10.00">corecvs::RGBColor::b</text>
</a>
</g>
<!-- Node9&#45;&gt;Node13 -->
<g id="edge26" class="edge"><title>Node9&#45;&gt;Node13</title>
<path fill="none" stroke="midnightblue" d="M327.684,-180.48C354.4,-167.267 402.633,-144.673 446,-131 455.286,-128.072 465.21,-125.461 475.035,-123.17"/>
<polygon fill="midnightblue" stroke="midnightblue" points="475.805,-126.584 484.8,-120.986 474.277,-119.753 475.805,-126.584"/>
</g>
<!-- Node14 -->
<g id="node28" class="node"><title>Node14</title>
<a xlink:href="classAdvancedImageWidget.html#a365f213bdb320f2392d2693d6931abdd" target="_top" xlink:title="AdvancedImageWidget::setImage">
<polygon fill="none" stroke="black" points="454.5,-60.5 454.5,-81.5 631.5,-81.5 631.5,-60.5 454.5,-60.5"/>
<text text-anchor="middle" x="543" y="-68.5" font-family="FreeSans.ttf" font-size="10.00">AdvancedImageWidget::setImage</text>
</a>
</g>
<!-- Node9&#45;&gt;Node14 -->
<g id="edge28" class="edge"><title>Node9&#45;&gt;Node14</title>
<path fill="none" stroke="midnightblue" d="M318.217,-180.322C340.594,-159.653 393.188,-114.173 446,-91 451.735,-88.4837 457.801,-86.2785 463.989,-84.3469"/>
<polygon fill="midnightblue" stroke="midnightblue" points="465.138,-87.6583 473.782,-81.5313 463.204,-80.9309 465.138,-87.6583"/>
</g>
<!-- Node15 -->
<g id="node30" class="node"><title>Node15</title>
<a xlink:href="classAdvancedImageWidget.html#aa69ecf8afc2c52de22ef54bef616c92a" target="_top" xlink:title="AdvancedImageWidget::drawResized">
<polygon fill="none" stroke="black" points="703.5,-120.5 703.5,-141.5 894.5,-141.5 894.5,-120.5 703.5,-120.5"/>
<text text-anchor="middle" x="799" y="-128.5" font-family="FreeSans.ttf" font-size="10.00">AdvancedImageWidget::drawResized</text>
</a>
</g>
<!-- Node14&#45;&gt;Node15 -->
<g id="edge30" class="edge"><title>Node14&#45;&gt;Node15</title>
<path fill="none" stroke="midnightblue" d="M607.95,-81.5384C618.812,-84.1081 629.844,-87.2325 640,-91 657.161,-97.3658 658.709,-104.997 676,-111 683.933,-113.754 692.287,-116.132 700.753,-118.186"/>
<polygon fill="midnightblue" stroke="midnightblue" points="700.197,-121.649 710.724,-120.451 701.748,-114.823 700.197,-121.649"/>
</g>
<!-- Node16 -->
<g id="node32" class="node"><title>Node16</title>
<a xlink:href="classAdvancedImageWidget.html#a94f67b5bfc0bcf0c119c4e6011236faf" target="_top" xlink:title="AdvancedImageWidget::recalculateZoomCenter">
<polygon fill="none" stroke="black" points="676,-80.5 676,-101.5 922,-101.5 922,-80.5 676,-80.5"/>
<text text-anchor="middle" x="799" y="-88.5" font-family="FreeSans.ttf" font-size="10.00">AdvancedImageWidget::recalculateZoomCenter</text>
</a>
</g>
<!-- Node14&#45;&gt;Node16 -->
<g id="edge32" class="edge"><title>Node14&#45;&gt;Node16</title>
<path fill="none" stroke="midnightblue" d="M631.818,-77.9389C642.764,-78.7941 654.133,-79.6823 665.56,-80.575"/>
<polygon fill="midnightblue" stroke="midnightblue" points="665.365,-84.0704 675.608,-81.36 665.911,-77.0916 665.365,-84.0704"/>
</g>
<!-- Node18 -->
<g id="node36" class="node"><title>Node18</title>
<a xlink:href="classAdvancedImageWidget.html#a09b13f3339f391764bd57dd8d06f3d4f" target="_top" xlink:title="AdvancedImageWidget::recomputeRects">
<polygon fill="none" stroke="black" points="694,-40.5 694,-61.5 904,-61.5 904,-40.5 694,-40.5"/>
<text text-anchor="middle" x="799" y="-48.5" font-family="FreeSans.ttf" font-size="10.00">AdvancedImageWidget::recomputeRects</text>
</a>
</g>
<!-- Node14&#45;&gt;Node18 -->
<g id="edge36" class="edge"><title>Node14&#45;&gt;Node18</title>
<path fill="none" stroke="midnightblue" d="M631.818,-64.0611C648.477,-62.7596 666.116,-61.3815 683.448,-60.0275"/>
<polygon fill="midnightblue" stroke="midnightblue" points="683.911,-63.5021 693.608,-59.2338 683.366,-56.5234 683.911,-63.5021"/>
</g>
<!-- Node20 -->
<g id="node40" class="node"><title>Node20</title>
<a xlink:href="classAdvancedImageWidget.html#a722b91642b8f0f37a390edc76c3e645b" target="_top" xlink:title="AdvancedImageWidget::saveFlowImage">
<polygon fill="none" stroke="black" points="696.5,-0.5 696.5,-21.5 901.5,-21.5 901.5,-0.5 696.5,-0.5"/>
<text text-anchor="middle" x="799" y="-8.5" font-family="FreeSans.ttf" font-size="10.00">AdvancedImageWidget::saveFlowImage</text>
</a>
</g>
<!-- Node14&#45;&gt;Node20 -->
<g id="edge40" class="edge"><title>Node14&#45;&gt;Node20</title>
<path fill="none" stroke="midnightblue" d="M573.864,-60.4621C600.624,-51.6287 640.522,-39.1823 676,-31 688.226,-28.1802 701.226,-25.6116 714.02,-23.3251"/>
<polygon fill="midnightblue" stroke="midnightblue" points="714.966,-26.7132 724.219,-21.5524 713.767,-19.8166 714.966,-26.7132"/>
</g>
<!-- Node17 -->
<g id="node34" class="node"><title>Node17</title>
<a xlink:href="classAdvancedImageWidget.html#a0660da1dfe71d556c2c97ca4759404d5" target="_top" xlink:title="AdvancedImageWidget::notifyCenterPointChanged">
<polygon fill="none" stroke="black" points="958.5,-80.5 958.5,-101.5 1215.5,-101.5 1215.5,-80.5 958.5,-80.5"/>
<text text-anchor="middle" x="1087" y="-88.5" font-family="FreeSans.ttf" font-size="10.00">AdvancedImageWidget::notifyCenterPointChanged</text>
</a>
</g>
<!-- Node16&#45;&gt;Node17 -->
<g id="edge34" class="edge"><title>Node16&#45;&gt;Node17</title>
<path fill="none" stroke="midnightblue" d="M922.391,-91C930.95,-91 939.609,-91 948.242,-91"/>
<polygon fill="midnightblue" stroke="midnightblue" points="948.358,-94.5001 958.358,-91 948.358,-87.5001 948.358,-94.5001"/>
</g>
<!-- Node19 -->
<g id="node38" class="node"><title>Node19</title>
<a xlink:href="classAdvancedImageWidget.html#ab3c658a5e253eeef3929028a1e2e3082" target="_top" xlink:title="AdvancedImageWidget::computeInputRect">
<polygon fill="none" stroke="black" points="977.5,-40.5 977.5,-61.5 1196.5,-61.5 1196.5,-40.5 977.5,-40.5"/>
<text text-anchor="middle" x="1087" y="-48.5" font-family="FreeSans.ttf" font-size="10.00">AdvancedImageWidget::computeInputRect</text>
</a>
</g>
<!-- Node18&#45;&gt;Node19 -->
<g id="edge38" class="edge"><title>Node18&#45;&gt;Node19</title>
<path fill="none" stroke="midnightblue" d="M904.197,-51C924.634,-51 946.198,-51 967.068,-51"/>
<polygon fill="midnightblue" stroke="midnightblue" points="967.25,-54.5001 977.25,-51 967.25,-47.5001 967.25,-54.5001"/>
</g>
</g>
</svg>
        <g id="navigator" transform="translate(0 0)" fill="#404254">
                <rect fill="#f2f5e9" fill-opacity="0.5" stroke="#606060" stroke-width=".5" x="0" y="0" width="60" height="60"/>
                <use id="zoomplus" xlink:href="#zoomPlus" x="17" y="9" onmousedown="handleZoom(evt,'in')"/>
                <use id="zoomminus" xlink:href="#zoomMin" x="42" y="9" onmousedown="handleZoom(evt,'out')"/>
                <use id="reset" xlink:href="#resetDef" x="30" y="36" onmousedown="handleReset()"/>
                <g id="arrowUp" xlink:href="#dirArrow" transform="translate(30 24)" onmousedown="handlePan(0,-1)">
                  <use xlink:href="#rim" fill="#404040">
                        <set attributeName="fill" to="#808080" begin="arrowUp.mouseover" end="arrowUp.mouseout"/>
                  </use>
                  <path fill="none" stroke="white" stroke-width="1.5" d="M0,-3.0v7 M-2.5,-0.5L0,-3.0L2.5,-0.5"/>
                </g>
                <g id="arrowRight" xlink:href="#dirArrow" transform="rotate(90) translate(36 -43)" onmousedown="handlePan(1,0)">
                  <use xlink:href="#rim" fill="#404040">
                        <set attributeName="fill" to="#808080" begin="arrowRight.mouseover" end="arrowRight.mouseout"/>
                  </use>
                  <path fill="none" stroke="white" stroke-width="1.5" d="M0,-3.0v7 M-2.5,-0.5L0,-3.0L2.5,-0.5"/>
                </g>
                <g id="arrowDown" xlink:href="#dirArrow" transform="rotate(180) translate(-30 -48)" onmousedown="handlePan(0,1)">
                  <use xlink:href="#rim" fill="#404040">
                        <set attributeName="fill" to="#808080" begin="arrowDown.mouseover" end="arrowDown.mouseout"/>
                  </use>
                  <path fill="none" stroke="white" stroke-width="1.5" d="M0,-3.0v7 M-2.5,-0.5L0,-3.0L2.5,-0.5"/>
                </g>
                <g id="arrowLeft" xlink:href="#dirArrow" transform="rotate(270) translate(-36 17)" onmousedown="handlePan(-1,0)">
                  <use xlink:href="#rim" fill="#404040">
                        <set attributeName="fill" to="#808080" begin="arrowLeft.mouseover" end="arrowLeft.mouseout"/>
                  </use>
                  <path fill="none" stroke="white" stroke-width="1.5" d="M0,-3.0v7 M-2.5,-0.5L0,-3.0L2.5,-0.5"/>
                </g>
        </g>
</svg>
