<?xml version="1.0" encoding="UTF-8" standalone="no"?>
<!DOCTYPE svg PUBLIC "-//W3C//DTD SVG 1.1//EN"
 "http://www.w3.org/Graphics/SVG/1.1/DTD/svg11.dtd">
<!-- Generated by graphviz version 2.26.3 (20100126.1600)
 -->
<!-- Title: G Pages: 1 -->
<svg width="384pt" height="70pt"
 viewBox="0.00 0.00 384.00 70.00" xmlns="http://www.w3.org/2000/svg" xmlns:xlink="http://www.w3.org/1999/xlink">
<g id="graph1" class="graph" transform="scale(1 1) rotate(0) translate(4 66)">
<title>G</title>
<!-- Node1 -->
<g id="node1" class="node"><title>Node1</title>
<polygon fill="#bfbfbf" stroke="black" points="0,-20.5 0,-41.5 226,-41.5 226,-20.5 0,-20.5"/>
<text text-anchor="middle" x="113" y="-28.5" font-family="FreeSans.ttf" font-size="10.00">corecvs::ModelToRadialCorrection::getModel</text>
</g>
<!-- Node2 -->
<g id="node3" class="node"><title>Node2</title>
<a xlink:href="classcorecvs_1_1Vector2d.html#a944721c41f044c1388d9dc42ca899bce" target="_top" xlink:title="corecvs::Vector2d::x">
<polygon fill="none" stroke="black" points="262.5,-40.5 262.5,-61.5 375.5,-61.5 375.5,-40.5 262.5,-40.5"/>
<text text-anchor="middle" x="319" y="-48.5" font-family="FreeSans.ttf" font-size="10.00">corecvs::Vector2d::x</text>
</a>
</g>
<!-- Node1&#45;&gt;Node2 -->
<g id="edge2" class="edge"><title>Node1&#45;&gt;Node2</title>
<path fill="none" stroke="midnightblue" d="M221.429,-41.5271C231.933,-42.5469 242.36,-43.5593 252.274,-44.5218"/>
<polygon fill="midnightblue" stroke="midnightblue" points="252.109,-48.0221 262.401,-45.5049 252.786,-41.0549 252.109,-48.0221"/>
</g>
<!-- Node3 -->
<g id="node5" class="node"><title>Node3</title>
<a xlink:href="classcorecvs_1_1Vector2d.html#ae1ea2ad4c0821001408bf963cffa8413" target="_top" xlink:title="corecvs::Vector2d::y">
<polygon fill="none" stroke="black" points="262.5,-0.5 262.5,-21.5 375.5,-21.5 375.5,-0.5 262.5,-0.5"/>
<text text-anchor="middle" x="319" y="-8.5" font-family="FreeSans.ttf" font-size="10.00">corecvs::Vector2d::y</text>
</a>
</g>
<!-- Node1&#45;&gt;Node3 -->
<g id="edge4" class="edge"><title>Node1&#45;&gt;Node3</title>
<path fill="none" stroke="midnightblue" d="M221.429,-20.4729C231.933,-19.4531 242.36,-18.4407 252.274,-17.4782"/>
<polygon fill="midnightblue" stroke="midnightblue" points="252.786,-20.9451 262.401,-16.4951 252.109,-13.9779 252.786,-20.9451"/>
</g>
</g>
</svg>
