<?xml version="1.0" encoding="UTF-8" standalone="no"?>
<!DOCTYPE svg PUBLIC "-//W3C//DTD SVG 1.1//EN"
 "http://www.w3.org/Graphics/SVG/1.1/DTD/svg11.dtd">
<!-- Generated by graphviz version 2.26.3 (20100126.1600)
 -->
<!-- Title: G Pages: 1 -->
<svg width="220pt" height="88pt"
 viewBox="0.00 0.00 220.00 88.00" xmlns="http://www.w3.org/2000/svg" xmlns:xlink="http://www.w3.org/1999/xlink">
<g id="graph1" class="graph" transform="scale(1 1) rotate(0) translate(4 84)">
<title>G</title>
<!-- Node1 -->
<g id="node1" class="node"><title>Node1</title>
<polygon fill="#bfbfbf" stroke="black" points="68.5,-58.5 68.5,-79.5 127.5,-79.5 127.5,-58.5 68.5,-58.5"/>
<text text-anchor="middle" x="98" y="-66.5" font-family="FreeSans.ttf" font-size="10.00">LogDrain</text>
</g>
<!-- Node2 -->
<g id="node3" class="node"><title>Node2</title>
<a xlink:href="classLoggerWidget.html" target="_top" xlink:title="LoggerWidget">
<polygon fill="none" stroke="black" points="0,-0.5 0,-21.5 82,-21.5 82,-0.5 0,-0.5"/>
<text text-anchor="middle" x="41" y="-8.5" font-family="FreeSans.ttf" font-size="10.00">LoggerWidget</text>
</a>
</g>
<!-- Node1&#45;&gt;Node2 -->
<g id="edge2" class="edge"><title>Node1&#45;&gt;Node2</title>
<path fill="none" stroke="midnightblue" d="M80.4263,-51.118C70.913,-41.4377 59.4855,-29.8098 51.3884,-21.5707"/>
<polygon fill="midnightblue" stroke="midnightblue" points="78.0397,-53.6829 87.5453,-58.3619 83.0323,-48.7763 78.0397,-53.6829"/>
</g>
<!-- Node3 -->
<g id="node5" class="node"><title>Node3</title>
<a xlink:href="classStdStreamLogDrain.html" target="_top" xlink:title="StdStreamLogDrain">
<polygon fill="none" stroke="black" points="100,-0.5 100,-21.5 212,-21.5 212,-0.5 100,-0.5"/>
<text text-anchor="middle" x="156" y="-8.5" font-family="FreeSans.ttf" font-size="10.00">StdStreamLogDrain</text>
</a>
</g>
<!-- Node1&#45;&gt;Node3 -->
<g id="edge4" class="edge"><title>Node1&#45;&gt;Node3</title>
<path fill="none" stroke="midnightblue" d="M115.882,-51.118C125.562,-41.4377 137.19,-29.8098 145.429,-21.5707"/>
<polygon fill="midnightblue" stroke="midnightblue" points="113.234,-48.8159 108.638,-58.3619 118.184,-53.7657 113.234,-48.8159"/>
</g>
</g>
</svg>
