<?xml version="1.0" encoding="UTF-8" standalone="no"?>
<!DOCTYPE svg PUBLIC "-//W3C//DTD SVG 1.1//EN"
 "http://www.w3.org/Graphics/SVG/1.1/DTD/svg11.dtd">
<!-- Generated by graphviz version 2.26.3 (20100126.1600)
 -->
<!-- Title: G Pages: 1 -->
<!--zoomable 216 -->
<svg id="main" version="1.1" xmlns="http://www.w3.org/2000/svg" xmlns:xlink="http://www.w3.org/1999/xlink" xml:space="preserve" onload="init(evt)">
        <defs>
                <circle id="rim" cx="0" cy="0" r="7"/>
                <circle id="rim2" cx="0" cy="0" r="3.5"/>
                <g id="zoomPlus">
                        <use xlink:href="#rim" fill="#404040">
                                <set attributeName="fill" to="#808080" begin="zoomplus.mouseover" end="zoomplus.mouseout"/>
                        </use>
                        <path d="M-4,0h8M0,-4v8" fill="none" stroke="white" stroke-width="1.5" pointer-events="none"/>
                </g>
                <g id="zoomMin">
                        <use xlink:href="#rim" fill="#404040">
                                <set attributeName="fill" to="#808080" begin="zoomminus.mouseover" end="zoomminus.mouseout"/>
                        </use>
                        <path d="M-4,0h8" fill="none" stroke="white" stroke-width="1.5" pointer-events="none"/>
                </g>
                <g id="dirArrow">
                        <path fill="none" stroke="white" stroke-width="1.5" d="M0,-3.0v7 M-2.5,-0.5L0,-3.0L2.5,-0.5"/>
                </g>
               <g id="resetDef">
                       <use xlink:href="#rim2" fill="#404040">
                               <set attributeName="fill" to="#808080" begin="reset.mouseover" end="reset.mouseout"/>
                       </use>
               </g>
        </defs>

<script type="text/javascript">
var viewWidth = 1918;
var viewHeight = 216;
var sectionId = 'dynsection-0';
</script>
<script xlink:href="svgpan.js"/>
<svg id="graph" class="graph">
<g id="viewport">
<title>G</title>
<!-- Node1 -->
<g id="node1" class="node"><title>Node1</title>
<polygon fill="#bfbfbf" stroke="black" points="1462,-4.5 1462,-25.5 1550,-25.5 1550,-4.5 1462,-4.5"/>
<text text-anchor="middle" x="1506" y="-12.5" font-family="FreeSans.ttf" font-size="10.00">GraphInterface</text>
</g>
<!-- Node2 -->
<g id="node2" class="node"><title>Node2</title>
<a xlink:href="classcorecvs_1_1FilterGraph.html" target="_top" xlink:title="corecvs::FilterGraph">
<polygon fill="none" stroke="black" points="1260.5,-54.5 1260.5,-75.5 1371.5,-75.5 1371.5,-54.5 1260.5,-54.5"/>
<text text-anchor="middle" x="1316" y="-62.5" font-family="FreeSans.ttf" font-size="10.00">corecvs::FilterGraph</text>
</a>
</g>
<!-- Node2&#45;&gt;Node1 -->
<g id="edge2" class="edge"><title>Node2&#45;&gt;Node1</title>
<path fill="none" stroke="#9a32cd" stroke-dasharray="5,2" d="M1351.73,-50.7012C1363.76,-46.2275 1377.34,-41.5406 1390,-38 1413.43,-31.4451 1440.02,-26.0305 1461.83,-22.1049"/>
<polygon fill="#9a32cd" stroke="#9a32cd" points="1350.16,-47.5568 1342.05,-54.3791 1352.64,-54.1008 1350.16,-47.5568"/>
<text text-anchor="middle" x="1412" y="-42" font-family="FreeSans.ttf" font-size="10.00"> mGraph</text>
</g>
<!-- Node2&#45;&gt;Node2 -->
<g id="edge28" class="edge"><title>Node2&#45;&gt;Node2</title>
<path fill="none" stroke="#9a32cd" stroke-dasharray="5,2" d="M1298.31,-85.4266C1299.67,-90.3489 1305.57,-94 1316,-94 1332.69,-94 1337.77,-84.6531 1331.25,-75.7079"/>
<polygon fill="#9a32cd" stroke="#9a32cd" points="1301.71,-86.259 1300.75,-75.7079 1294.92,-84.5555 1301.71,-86.259"/>
<text text-anchor="middle" x="1316" y="-98" font-family="FreeSans.ttf" font-size="10.00"> parent</text>
</g>
<!-- Node15 -->
<g id="node32" class="node"><title>Node15</title>
<a xlink:href="classcorecvs_1_1FilterBlock.html" target="_top" xlink:title="corecvs::FilterBlock">
<polygon fill="none" stroke="black" points="1452.5,-100.5 1452.5,-121.5 1559.5,-121.5 1559.5,-100.5 1452.5,-100.5"/>
<text text-anchor="middle" x="1506" y="-108.5" font-family="FreeSans.ttf" font-size="10.00">corecvs::FilterBlock</text>
</a>
</g>
<!-- Node2&#45;&gt;Node15 -->
<g id="edge38" class="edge"><title>Node2&#45;&gt;Node15</title>
<path fill="none" stroke="#9a32cd" stroke-dasharray="5,2" d="M1369.69,-77.998C1399.08,-85.1133 1435.02,-93.8145 1462.61,-100.496"/>
<polygon fill="#9a32cd" stroke="#9a32cd" points="1370.13,-74.5048 1359.59,-75.5533 1368.49,-81.3082 1370.13,-74.5048"/>
<text text-anchor="middle" x="1412" y="-98" font-family="FreeSans.ttf" font-size="10.00"> parent</text>
</g>
<!-- Node3 -->
<g id="node4" class="node"><title>Node3</title>
<a xlink:href="classcorecvs_1_1FiltersCollection.html" target="_top" xlink:title="corecvs::FiltersCollection">
<polygon fill="none" stroke="black" points="1034,-115.5 1034,-136.5 1168,-136.5 1168,-115.5 1034,-115.5"/>
<text text-anchor="middle" x="1101" y="-123.5" font-family="FreeSans.ttf" font-size="10.00">corecvs::FiltersCollection</text>
</a>
</g>
<!-- Node3&#45;&gt;Node2 -->
<g id="edge4" class="edge"><title>Node3&#45;&gt;Node2</title>
<path fill="none" stroke="#9a32cd" stroke-dasharray="5,2" d="M1148.09,-112.641C1187.43,-101.479 1242.75,-85.7825 1278.98,-75.5036"/>
<polygon fill="#9a32cd" stroke="#9a32cd" points="1147.12,-109.278 1138.45,-115.375 1149.03,-116.012 1147.12,-109.278"/>
<text text-anchor="middle" x="1217" y="-103" font-family="FreeSans.ttf" font-size="10.00"> collection</text>
</g>
<!-- Node4 -->
<g id="node6" class="node"><title>Node4</title>
<polygon fill="none" stroke="#bfbfbf" points="724,-129.5 724,-150.5 910,-150.5 910,-129.5 724,-129.5"/>
<text text-anchor="middle" x="817" y="-137.5" font-family="FreeSans.ttf" font-size="10.00">std::vector&lt; CompoundFilterType &gt;</text>
</g>
<!-- Node4&#45;&gt;Node3 -->
<g id="edge6" class="edge"><title>Node4&#45;&gt;Node3</title>
<path fill="none" stroke="#9a32cd" stroke-dasharray="5,2" d="M920.404,-134.903C958.156,-133.042 999.846,-130.986 1033.65,-129.32"/>
<polygon fill="#9a32cd" stroke="#9a32cd" points="920.201,-131.408 910.386,-135.396 920.546,-138.4 920.201,-131.408"/>
<text text-anchor="middle" x="969" y="-138" font-family="FreeSans.ttf" font-size="10.00"> compoundFilters</text>
</g>
<!-- Node5 -->
<g id="node8" class="node"><title>Node5</title>
<a xlink:href="classcorecvs_1_1FiltersCollection_1_1CompoundFilterType.html" target="_top" xlink:title="corecvs::FiltersCollection::CompoundFilterType">
<polygon fill="none" stroke="black" points="390,-136.5 390,-157.5 626,-157.5 626,-136.5 390,-136.5"/>
<text text-anchor="middle" x="508" y="-144.5" font-family="FreeSans.ttf" font-size="10.00">corecvs::FiltersCollection::CompoundFilterType</text>
</a>
</g>
<!-- Node5&#45;&gt;Node4 -->
<g id="edge8" class="edge"><title>Node5&#45;&gt;Node4</title>
<path fill="none" stroke="#9a32cd" stroke-dasharray="5,2" d="M636.453,-144.09C665.775,-143.426 696.386,-142.732 723.895,-142.109"/>
<polygon fill="#9a32cd" stroke="#9a32cd" points="636.06,-140.598 626.142,-144.324 636.219,-147.596 636.06,-140.598"/>
<text text-anchor="middle" x="675" y="-147" font-family="FreeSans.ttf" font-size="10.00"> elements</text>
</g>
<!-- Node6 -->
<g id="node10" class="node"><title>Node6</title>
<polygon fill="none" stroke="#bfbfbf" points="187.5,-176.5 187.5,-197.5 274.5,-197.5 274.5,-176.5 187.5,-176.5"/>
<text text-anchor="middle" x="231" y="-184.5" font-family="FreeSans.ttf" font-size="10.00">std::set&lt; int &gt;</text>
</g>
<!-- Node6&#45;&gt;Node5 -->
<g id="edge10" class="edge"><title>Node6&#45;&gt;Node5</title>
<path fill="none" stroke="#9a32cd" stroke-dasharray="5,2" d="M284.524,-179.271C327.329,-173.09 387.783,-164.36 435.022,-157.538"/>
<polygon fill="#9a32cd" stroke="#9a32cd" points="283.983,-175.813 274.586,-180.706 284.984,-182.741 283.983,-175.813"/>
<text text-anchor="middle" x="338" y="-193" font-family="FreeSans.ttf" font-size="10.00"> dependOnMe</text>
<text text-anchor="middle" x="338" y="-180" font-family="FreeSans.ttf" font-size="10.00">contain</text>
</g>
<!-- Node7 -->
<g id="node12" class="node"><title>Node7</title>
<a xlink:title="STL class.">
<polygon fill="none" stroke="#bfbfbf" points="198.5,-94.5 198.5,-115.5 263.5,-115.5 263.5,-94.5 198.5,-94.5"/>
<text text-anchor="middle" x="231" y="-102.5" font-family="FreeSans.ttf" font-size="10.00">std::string</text>
</a>
</g>
<!-- Node7&#45;&gt;Node5 -->
<g id="edge12" class="edge"><title>Node7&#45;&gt;Node5</title>
<path fill="none" stroke="#9a32cd" stroke-dasharray="5,2" d="M273.641,-111.465C317.546,-118.123 386.676,-128.604 438.497,-136.462"/>
<polygon fill="#9a32cd" stroke="#9a32cd" points="274.002,-107.98 263.59,-109.941 272.952,-114.901 274.002,-107.98"/>
<text text-anchor="middle" x="338" y="-143" font-family="FreeSans.ttf" font-size="10.00"> name</text>
<text text-anchor="middle" x="338" y="-130" font-family="FreeSans.ttf" font-size="10.00">filename</text>
</g>
<!-- Node9 -->
<g id="node16" class="node"><title>Node9</title>
<a xlink:href="classcorecvs_1_1Statistics.html" target="_top" xlink:title="corecvs::Statistics">
<polygon fill="none" stroke="black" points="765,-52.5 765,-73.5 869,-73.5 869,-52.5 765,-52.5"/>
<text text-anchor="middle" x="817" y="-60.5" font-family="FreeSans.ttf" font-size="10.00">corecvs::Statistics</text>
</a>
</g>
<!-- Node7&#45;&gt;Node9 -->
<g id="edge26" class="edge"><title>Node7&#45;&gt;Node9</title>
<path fill="none" stroke="#9a32cd" stroke-dasharray="5,2" d="M273.708,-103.929C357.02,-101.559 546.993,-94.7806 706,-79 725.278,-77.0868 746.339,-74.2437 764.884,-71.4827"/>
<polygon fill="#9a32cd" stroke="#9a32cd" points="273.513,-100.433 263.614,-104.209 273.708,-107.43 273.513,-100.433"/>
<text text-anchor="middle" x="508" y="-103" font-family="FreeSans.ttf" font-size="10.00"> prefix</text>
</g>
<!-- Node11 -->
<g id="node20" class="node"><title>Node11</title>
<polygon fill="none" stroke="#bfbfbf" points="426,-47.5 426,-68.5 590,-68.5 590,-47.5 426,-47.5"/>
<text text-anchor="middle" x="508" y="-55.5" font-family="FreeSans.ttf" font-size="10.00">std::map&lt; string, SingleStat &gt;</text>
</g>
<!-- Node7&#45;&gt;Node11 -->
<g id="edge24" class="edge"><title>Node7&#45;&gt;Node11</title>
<path fill="none" stroke="#9a32cd" stroke-dasharray="5,2" d="M264.25,-90.6551C276.531,-85.9059 290.699,-81.0581 304,-78 343.537,-68.9096 388.315,-63.9493 425.826,-61.2433"/>
<polygon fill="#9a32cd" stroke="#9a32cd" points="262.846,-87.4469 254.858,-94.4067 265.443,-93.9475 262.846,-87.4469"/>
<text text-anchor="middle" x="338" y="-82" font-family="FreeSans.ttf" font-size="10.00"> keys</text>
</g>
<!-- Node8 -->
<g id="node14" class="node"><title>Node8</title>
<a xlink:title="STL class.">
<polygon fill="none" stroke="#bfbfbf" points="0,-94.5 0,-115.5 138,-115.5 138,-94.5 0,-94.5"/>
<text text-anchor="middle" x="69" y="-102.5" font-family="FreeSans.ttf" font-size="10.00">std::basic_string&lt; char &gt;</text>
</a>
</g>
<!-- Node8&#45;&gt;Node7 -->
<g id="edge14" class="edge"><title>Node8&#45;&gt;Node7</title>
<path fill="none" stroke="midnightblue" d="M148.477,-105C166.039,-105 183.696,-105 198.145,-105"/>
<polygon fill="midnightblue" stroke="midnightblue" points="148.173,-101.5 138.172,-105 148.172,-108.5 148.173,-101.5"/>
</g>
<!-- Node9&#45;&gt;Node2 -->
<g id="edge16" class="edge"><title>Node9&#45;&gt;Node2</title>
<path fill="none" stroke="#9a32cd" stroke-dasharray="5,2" d="M879.54,-63.2507C977.787,-63.6444 1166.73,-64.4017 1260.46,-64.7774"/>
<polygon fill="#9a32cd" stroke="#9a32cd" points="879.473,-59.7505 869.459,-63.2103 879.444,-66.7504 879.473,-59.7505"/>
<text text-anchor="middle" x="1101" y="-69" font-family="FreeSans.ttf" font-size="10.00"> stats</text>
</g>
<!-- Node10 -->
<g id="node18" class="node"><title>Node10</title>
<a xlink:href="classcorecvs_1_1PreciseTimer.html" target="_top" xlink:title="corecvs::PreciseTimer">
<polygon fill="none" stroke="black" points="447.5,-7.5 447.5,-28.5 568.5,-28.5 568.5,-7.5 447.5,-7.5"/>
<text text-anchor="middle" x="508" y="-15.5" font-family="FreeSans.ttf" font-size="10.00">corecvs::PreciseTimer</text>
</a>
</g>
<!-- Node10&#45;&gt;Node9 -->
<g id="edge18" class="edge"><title>Node10&#45;&gt;Node9</title>
<path fill="none" stroke="#9a32cd" stroke-dasharray="5,2" d="M579.131,-26.6597C616.876,-31.4266 664.012,-37.6521 706,-44 725.235,-46.908 746.286,-50.4257 764.836,-53.6399"/>
<polygon fill="#9a32cd" stroke="#9a32cd" points="579.105,-23.1289 568.746,-25.3549 578.232,-30.0743 579.105,-23.1289"/>
<text text-anchor="middle" x="675" y="-48" font-family="FreeSans.ttf" font-size="10.00"> helperTimer</text>
</g>
<!-- Node11&#45;&gt;Node9 -->
<g id="edge20" class="edge"><title>Node11&#45;&gt;Node9</title>
<path fill="none" stroke="#9a32cd" stroke-dasharray="5,2" d="M600.634,-59.4989C654.38,-60.3686 720.09,-61.4319 764.898,-62.1569"/>
<polygon fill="#9a32cd" stroke="#9a32cd" points="600.456,-55.9957 590.4,-59.3333 600.342,-62.9948 600.456,-55.9957"/>
<text text-anchor="middle" x="675" y="-66" font-family="FreeSans.ttf" font-size="10.00"> values</text>
</g>
<!-- Node12 -->
<g id="node22" class="node"><title>Node12</title>
<a xlink:href="structcorecvs_1_1SingleStat.html" target="_top" xlink:title="corecvs::SingleStat">
<polygon fill="none" stroke="black" points="176.5,-30.5 176.5,-51.5 285.5,-51.5 285.5,-30.5 176.5,-30.5"/>
<text text-anchor="middle" x="231" y="-38.5" font-family="FreeSans.ttf" font-size="10.00">corecvs::SingleStat</text>
</a>
</g>
<!-- Node12&#45;&gt;Node11 -->
<g id="edge22" class="edge"><title>Node12&#45;&gt;Node11</title>
<path fill="none" stroke="#9a32cd" stroke-dasharray="5,2" d="M295.674,-39.968C319.666,-39.9775 347.094,-40.4513 372,-42 391.22,-43.1951 411.892,-45.2357 431.174,-47.4672"/>
<polygon fill="#9a32cd" stroke="#9a32cd" points="295.611,-36.468 285.619,-39.9905 295.627,-43.468 295.611,-36.468"/>
<text text-anchor="middle" x="338" y="-46" font-family="FreeSans.ttf" font-size="10.00"> elements</text>
</g>
<!-- Node13 -->
<g id="node27" class="node"><title>Node13</title>
<polygon fill="none" stroke="#bfbfbf" points="1796.5,-100.5 1796.5,-121.5 1909.5,-121.5 1909.5,-100.5 1796.5,-100.5"/>
<text text-anchor="middle" x="1853" y="-108.5" font-family="FreeSans.ttf" font-size="10.00">std::vector&lt; Pin * &gt;</text>
</g>
<!-- Node13&#45;&gt;Node2 -->
<g id="edge30" class="edge"><title>Node13&#45;&gt;Node2</title>
<path fill="none" stroke="#9a32cd" stroke-dasharray="5,2" d="M1786.1,-101.121C1739.16,-94.5163 1674.86,-86.1288 1618,-81 1532.24,-73.265 1432.42,-68.8741 1371.75,-66.7171"/>
<polygon fill="#9a32cd" stroke="#9a32cd" points="1785.75,-104.606 1796.14,-102.543 1786.73,-97.6753 1785.75,-104.606"/>
<text text-anchor="middle" x="1598" y="-98" font-family="FreeSans.ttf" font-size="10.00"> outputs</text>
<text text-anchor="middle" x="1598" y="-85" font-family="FreeSans.ttf" font-size="10.00">inputs</text>
</g>
<!-- Node13&#45;&gt;Node15 -->
<g id="edge40" class="edge"><title>Node13&#45;&gt;Node15</title>
<path fill="none" stroke="#9a32cd" stroke-dasharray="5,2" d="M1786.16,-111C1720.27,-111 1620.82,-111 1559.84,-111"/>
<polygon fill="#9a32cd" stroke="#9a32cd" points="1786.44,-114.5 1796.44,-111 1786.44,-107.5 1786.44,-114.5"/>
<text text-anchor="middle" x="1673" y="-128" font-family="FreeSans.ttf" font-size="10.00"> outputPins</text>
<text text-anchor="middle" x="1673" y="-115" font-family="FreeSans.ttf" font-size="10.00">inputPins</text>
</g>
<!-- Node14 -->
<g id="node29" class="node"><title>Node14</title>
<a xlink:href="classcorecvs_1_1Pin.html" target="_top" xlink:title="corecvs::Pin">
<polygon fill="none" stroke="black" points="1636,-155.5 1636,-176.5 1710,-176.5 1710,-155.5 1636,-155.5"/>
<text text-anchor="middle" x="1673" y="-163.5" font-family="FreeSans.ttf" font-size="10.00">corecvs::Pin</text>
</a>
</g>
<!-- Node14&#45;&gt;Node13 -->
<g id="edge32" class="edge"><title>Node14&#45;&gt;Node13</title>
<path fill="none" stroke="#9a32cd" stroke-dasharray="5,2" d="M1717.45,-152.419C1748.61,-142.897 1789.67,-130.351 1818.4,-121.572"/>
<polygon fill="#9a32cd" stroke="#9a32cd" points="1716.25,-149.126 1707.71,-155.395 1718.29,-155.82 1716.25,-149.126"/>
<text text-anchor="middle" x="1753" y="-152" font-family="FreeSans.ttf" font-size="10.00"> elements</text>
</g>
<!-- Node14&#45;&gt;Node14 -->
<g id="edge34" class="edge"><title>Node14&#45;&gt;Node14</title>
<path fill="none" stroke="#9a32cd" stroke-dasharray="5,2" d="M1659.45,-186.793C1660.64,-191.529 1665.16,-195 1673,-195 1685.86,-195 1689.78,-185.653 1684.76,-176.708"/>
<polygon fill="#9a32cd" stroke="#9a32cd" points="1662.94,-187.166 1661.24,-176.708 1656.04,-185.94 1662.94,-187.166"/>
<text text-anchor="middle" x="1673" y="-199" font-family="FreeSans.ttf" font-size="10.00"> takeFrom</text>
</g>
<!-- Node15&#45;&gt;Node14 -->
<g id="edge36" class="edge"><title>Node15&#45;&gt;Node14</title>
<path fill="none" stroke="#9a32cd" stroke-dasharray="5,2" d="M1547.99,-124.829C1576.81,-134.32 1614.47,-146.725 1640.9,-155.428"/>
<polygon fill="#9a32cd" stroke="#9a32cd" points="1548.79,-121.408 1538.2,-121.605 1546.6,-128.057 1548.79,-121.408"/>
<text text-anchor="middle" x="1598" y="-150" font-family="FreeSans.ttf" font-size="10.00"> parent</text>
</g>
<!-- Node16 -->
<g id="node36" class="node"><title>Node16</title>
<polygon fill="none" stroke="#bfbfbf" points="1028,-0.5 1028,-21.5 1174,-21.5 1174,-0.5 1028,-0.5"/>
<text text-anchor="middle" x="1101" y="-8.5" font-family="FreeSans.ttf" font-size="10.00">std::vector&lt; FilterBlock * &gt;</text>
</g>
<!-- Node16&#45;&gt;Node1 -->
<g id="edge44" class="edge"><title>Node16&#45;&gt;Node1</title>
<path fill="none" stroke="#9a32cd" stroke-dasharray="5,2" d="M1184.4,-11.8237C1268.65,-12.6558 1395.56,-13.9093 1461.96,-14.565"/>
<polygon fill="#9a32cd" stroke="#9a32cd" points="1184.38,-8.3234 1174.34,-11.7244 1184.31,-15.3231 1184.38,-8.3234"/>
<text text-anchor="middle" x="1316" y="-18" font-family="FreeSans.ttf" font-size="10.00"> mBlocks</text>
</g>
<!-- Node16&#45;&gt;Node2 -->
<g id="edge42" class="edge"><title>Node16&#45;&gt;Node2</title>
<path fill="none" stroke="#9a32cd" stroke-dasharray="5,2" d="M1177.7,-23.3699C1198.7,-27.3845 1221.36,-32.2994 1242,-38 1258.35,-42.5155 1276.22,-48.9913 1290.3,-54.469"/>
<polygon fill="#9a32cd" stroke="#9a32cd" points="1178.33,-19.9275 1167.86,-21.5307 1177.04,-26.8084 1178.33,-19.9275"/>
<text text-anchor="middle" x="1217" y="-42" font-family="FreeSans.ttf" font-size="10.00"> blocks</text>
</g>
</g>
</svg>
        <g id="navigator" transform="translate(0 0)" fill="#404254">
                <rect fill="#f2f5e9" fill-opacity="0.5" stroke="#606060" stroke-width=".5" x="0" y="0" width="60" height="60"/>
                <use id="zoomplus" xlink:href="#zoomPlus" x="17" y="9" onmousedown="handleZoom(evt,'in')"/>
                <use id="zoomminus" xlink:href="#zoomMin" x="42" y="9" onmousedown="handleZoom(evt,'out')"/>
                <use id="reset" xlink:href="#resetDef" x="30" y="36" onmousedown="handleReset()"/>
                <g id="arrowUp" xlink:href="#dirArrow" transform="translate(30 24)" onmousedown="handlePan(0,-1)">
                  <use xlink:href="#rim" fill="#404040">
                        <set attributeName="fill" to="#808080" begin="arrowUp.mouseover" end="arrowUp.mouseout"/>
                  </use>
                  <path fill="none" stroke="white" stroke-width="1.5" d="M0,-3.0v7 M-2.5,-0.5L0,-3.0L2.5,-0.5"/>
                </g>
                <g id="arrowRight" xlink:href="#dirArrow" transform="rotate(90) translate(36 -43)" onmousedown="handlePan(1,0)">
                  <use xlink:href="#rim" fill="#404040">
                        <set attributeName="fill" to="#808080" begin="arrowRight.mouseover" end="arrowRight.mouseout"/>
                  </use>
                  <path fill="none" stroke="white" stroke-width="1.5" d="M0,-3.0v7 M-2.5,-0.5L0,-3.0L2.5,-0.5"/>
                </g>
                <g id="arrowDown" xlink:href="#dirArrow" transform="rotate(180) translate(-30 -48)" onmousedown="handlePan(0,1)">
                  <use xlink:href="#rim" fill="#404040">
                        <set attributeName="fill" to="#808080" begin="arrowDown.mouseover" end="arrowDown.mouseout"/>
                  </use>
                  <path fill="none" stroke="white" stroke-width="1.5" d="M0,-3.0v7 M-2.5,-0.5L0,-3.0L2.5,-0.5"/>
                </g>
                <g id="arrowLeft" xlink:href="#dirArrow" transform="rotate(270) translate(-36 17)" onmousedown="handlePan(-1,0)">
                  <use xlink:href="#rim" fill="#404040">
                        <set attributeName="fill" to="#808080" begin="arrowLeft.mouseover" end="arrowLeft.mouseout"/>
                  </use>
                  <path fill="none" stroke="white" stroke-width="1.5" d="M0,-3.0v7 M-2.5,-0.5L0,-3.0L2.5,-0.5"/>
                </g>
        </g>
</svg>
