<?xml version="1.0" encoding="UTF-8" standalone="no"?>
<!DOCTYPE svg PUBLIC "-//W3C//DTD SVG 1.1//EN"
 "http://www.w3.org/Graphics/SVG/1.1/DTD/svg11.dtd">
<!-- Generated by graphviz version 2.26.3 (20100126.1600)
 -->
<!-- Title: G Pages: 1 -->
<!--zoomable 590 -->
<svg id="main" version="1.1" xmlns="http://www.w3.org/2000/svg" xmlns:xlink="http://www.w3.org/1999/xlink" xml:space="preserve" onload="init(evt)">
        <defs>
                <circle id="rim" cx="0" cy="0" r="7"/>
                <circle id="rim2" cx="0" cy="0" r="3.5"/>
                <g id="zoomPlus">
                        <use xlink:href="#rim" fill="#404040">
                                <set attributeName="fill" to="#808080" begin="zoomplus.mouseover" end="zoomplus.mouseout"/>
                        </use>
                        <path d="M-4,0h8M0,-4v8" fill="none" stroke="white" stroke-width="1.5" pointer-events="none"/>
                </g>
                <g id="zoomMin">
                        <use xlink:href="#rim" fill="#404040">
                                <set attributeName="fill" to="#808080" begin="zoomminus.mouseover" end="zoomminus.mouseout"/>
                        </use>
                        <path d="M-4,0h8" fill="none" stroke="white" stroke-width="1.5" pointer-events="none"/>
                </g>
                <g id="dirArrow">
                        <path fill="none" stroke="white" stroke-width="1.5" d="M0,-3.0v7 M-2.5,-0.5L0,-3.0L2.5,-0.5"/>
                </g>
               <g id="resetDef">
                       <use xlink:href="#rim2" fill="#404040">
                               <set attributeName="fill" to="#808080" begin="reset.mouseover" end="reset.mouseout"/>
                       </use>
               </g>
        </defs>

<script type="text/javascript">
var viewWidth = 836;
var viewHeight = 590;
var sectionId = 'dynsection-4';
</script>
<script xlink:href="svgpan.js"/>
<svg id="graph" class="graph">
<g id="viewport">
<title>G</title>
<!-- Node1 -->
<g id="node1" class="node"><title>Node1</title>
<polygon fill="#bfbfbf" stroke="black" points="0,-440.5 0,-461.5 252,-461.5 252,-440.5 0,-440.5"/>
<text text-anchor="middle" x="126" y="-448.5" font-family="FreeSans.ttf" font-size="10.00">BaseParametersControlWidget::loadParamWidget</text>
</g>
<!-- Node2 -->
<g id="node3" class="node"><title>Node2</title>
<a xlink:href="classBaseParametersControlWidget.html#a5c0b1ba7a11bfea38673cd30bc4a590a" target="_top" xlink:title="BaseParametersControlWidget::createParameters">
<polygon fill="none" stroke="black" points="288.5,-480.5 288.5,-501.5 543.5,-501.5 543.5,-480.5 288.5,-480.5"/>
<text text-anchor="middle" x="416" y="-488.5" font-family="FreeSans.ttf" font-size="10.00">BaseParametersControlWidget::createParameters</text>
</a>
</g>
<!-- Node1&#45;&gt;Node2 -->
<g id="edge2" class="edge"><title>Node1&#45;&gt;Node2</title>
<path fill="none" stroke="midnightblue" d="M202.194,-461.51C241.335,-466.908 289.183,-473.508 329.683,-479.094"/>
<polygon fill="midnightblue" stroke="midnightblue" points="329.427,-482.592 339.812,-480.491 330.384,-475.658 329.427,-482.592"/>
</g>
<!-- Node3 -->
<g id="node5" class="node"><title>Node3</title>
<a xlink:href="classWidgetLoader.html#af26226b345e783f1a39c28dcdfed26c8" target="_top" xlink:title="WidgetLoader::loadParameters">
<polygon fill="none" stroke="black" points="334,-440.5 334,-461.5 498,-461.5 498,-440.5 334,-440.5"/>
<text text-anchor="middle" x="416" y="-448.5" font-family="FreeSans.ttf" font-size="10.00">WidgetLoader::loadParameters</text>
</a>
</g>
<!-- Node1&#45;&gt;Node3 -->
<g id="edge4" class="edge"><title>Node1&#45;&gt;Node3</title>
<path fill="none" stroke="midnightblue" d="M252.355,-451C276.312,-451 300.961,-451 323.624,-451"/>
<polygon fill="midnightblue" stroke="midnightblue" points="323.888,-454.5 333.888,-451 323.888,-447.5 323.888,-454.5"/>
</g>
<!-- Node5 -->
<g id="node9" class="node"><title>Node5</title>
<a xlink:href="classBaseParametersControlWidget.html#af88777b21b2c685210bc5dd8e95bb936" target="_top" xlink:title="BaseParametersControlWidget::setParameters">
<polygon fill="none" stroke="black" points="296.5,-280.5 296.5,-301.5 535.5,-301.5 535.5,-280.5 296.5,-280.5"/>
<text text-anchor="middle" x="416" y="-288.5" font-family="FreeSans.ttf" font-size="10.00">BaseParametersControlWidget::setParameters</text>
</a>
</g>
<!-- Node1&#45;&gt;Node5 -->
<g id="edge8" class="edge"><title>Node1&#45;&gt;Node5</title>
<path fill="none" stroke="midnightblue" d="M145.478,-440.254C195.522,-412.643 328.781,-339.121 387.517,-306.715"/>
<polygon fill="midnightblue" stroke="midnightblue" points="389.542,-309.595 396.607,-301.7 386.16,-303.466 389.542,-309.595"/>
</g>
<!-- Node4 -->
<g id="node7" class="node"><title>Node4</title>
<a xlink:href="classSettingsGetter.html#ad816b845b4cfc8323d3d559a0f6a13ae" target="_top" xlink:title="SettingsGetter::settings">
<polygon fill="none" stroke="black" points="638.5,-560.5 638.5,-581.5 769.5,-581.5 769.5,-560.5 638.5,-560.5"/>
<text text-anchor="middle" x="704" y="-568.5" font-family="FreeSans.ttf" font-size="10.00">SettingsGetter::settings</text>
</a>
</g>
<!-- Node3&#45;&gt;Node4 -->
<g id="edge6" class="edge"><title>Node3&#45;&gt;Node4</title>
<path fill="none" stroke="midnightblue" d="M498.029,-451.65C514.486,-454.979 530.765,-460.908 544,-471 575.004,-494.642 549.054,-527.282 580,-551 593.817,-561.59 611.075,-567.519 628.284,-570.666"/>
<polygon fill="midnightblue" stroke="midnightblue" points="627.971,-574.159 638.385,-572.211 629.029,-567.239 627.971,-574.159"/>
</g>
<!-- Node6 -->
<g id="node11" class="node"><title>Node6</title>
<a xlink:href="classBaseParameters.html#ac44db8b50fe6948348b8cd01fa0655e2" target="_top" xlink:title="BaseParameters::rotation">
<polygon fill="none" stroke="black" points="634,-520.5 634,-541.5 774,-541.5 774,-520.5 634,-520.5"/>
<text text-anchor="middle" x="704" y="-528.5" font-family="FreeSans.ttf" font-size="10.00">BaseParameters::rotation</text>
</a>
</g>
<!-- Node5&#45;&gt;Node6 -->
<g id="edge10" class="edge"><title>Node5&#45;&gt;Node6</title>
<path fill="none" stroke="midnightblue" d="M427.953,-301.579C452.343,-323.655 508.531,-377.069 544,-431 565.424,-463.576 549.054,-487.282 580,-511 592.565,-520.63 607.975,-526.406 623.607,-529.741"/>
<polygon fill="midnightblue" stroke="midnightblue" points="623.421,-533.264 633.884,-531.595 624.664,-526.375 623.421,-533.264"/>
</g>
<!-- Node7 -->
<g id="node13" class="node"><title>Node7</title>
<a xlink:href="classBaseParameters.html#a8f560f0abfcb2a9b040d0a7e63303dd4" target="_top" xlink:title="BaseParameters::mirror">
<polygon fill="none" stroke="black" points="638.5,-480.5 638.5,-501.5 769.5,-501.5 769.5,-480.5 638.5,-480.5"/>
<text text-anchor="middle" x="704" y="-488.5" font-family="FreeSans.ttf" font-size="10.00">BaseParameters::mirror</text>
</a>
</g>
<!-- Node5&#45;&gt;Node7 -->
<g id="edge12" class="edge"><title>Node5&#45;&gt;Node7</title>
<path fill="none" stroke="midnightblue" d="M425.662,-301.512C447.046,-324.787 499.968,-382.459 544,-431 560.07,-448.715 558.998,-459.555 580,-471 594.588,-478.95 611.476,-483.939 628.002,-487.026"/>
<polygon fill="midnightblue" stroke="midnightblue" points="627.786,-490.537 638.222,-488.711 628.925,-483.631 627.786,-490.537"/>
</g>
<!-- Node8 -->
<g id="node15" class="node"><title>Node8</title>
<a xlink:href="classBaseParameters.html#a310f633fb8e46dcca17506823b64b80b" target="_top" xlink:title="BaseParameters::swapCameras">
<polygon fill="none" stroke="black" points="619,-440.5 619,-461.5 789,-461.5 789,-440.5 619,-440.5"/>
<text text-anchor="middle" x="704" y="-448.5" font-family="FreeSans.ttf" font-size="10.00">BaseParameters::swapCameras</text>
</a>
</g>
<!-- Node5&#45;&gt;Node8 -->
<g id="edge14" class="edge"><title>Node5&#45;&gt;Node8</title>
<path fill="none" stroke="midnightblue" d="M424.64,-301.619C447.083,-328.387 510.348,-398.781 580,-431 589.054,-435.188 598.833,-438.518 608.787,-441.163"/>
<polygon fill="midnightblue" stroke="midnightblue" points="608.237,-444.631 618.78,-443.586 609.887,-437.828 608.237,-444.631"/>
</g>
<!-- Node9 -->
<g id="node17" class="node"><title>Node9</title>
<a xlink:href="classBaseParameters.html#adc970d6bf7f8d424a8877ed861cac2de" target="_top" xlink:title="BaseParameters::filterLock">
<polygon fill="none" stroke="black" points="631.5,-400.5 631.5,-421.5 776.5,-421.5 776.5,-400.5 631.5,-400.5"/>
<text text-anchor="middle" x="704" y="-408.5" font-family="FreeSans.ttf" font-size="10.00">BaseParameters::filterLock</text>
</a>
</g>
<!-- Node5&#45;&gt;Node9 -->
<g id="edge16" class="edge"><title>Node5&#45;&gt;Node9</title>
<path fill="none" stroke="midnightblue" d="M429.52,-301.812C456.422,-322.717 519.311,-368.589 580,-391 593.004,-395.802 607.196,-399.452 621.184,-402.227"/>
<polygon fill="midnightblue" stroke="midnightblue" points="620.844,-405.723 631.313,-404.096 622.115,-398.839 620.844,-405.723"/>
</g>
<!-- Node10 -->
<g id="node19" class="node"><title>Node10</title>
<a xlink:href="classBaseParameters.html#a6519b2080e6a0f0c2952c67d27fd97d7" target="_top" xlink:title="BaseParameters::enableFilterGraph">
<polygon fill="none" stroke="black" points="611,-360.5 611,-381.5 797,-381.5 797,-360.5 611,-360.5"/>
<text text-anchor="middle" x="704" y="-368.5" font-family="FreeSans.ttf" font-size="10.00">BaseParameters::enableFilterGraph</text>
</a>
</g>
<!-- Node5&#45;&gt;Node10 -->
<g id="edge18" class="edge"><title>Node5&#45;&gt;Node10</title>
<path fill="none" stroke="midnightblue" d="M440.261,-301.539C471.867,-314.878 529.104,-337.715 580,-351 591.015,-353.875 602.695,-356.409 614.309,-358.622"/>
<polygon fill="midnightblue" stroke="midnightblue" points="614.014,-362.126 624.481,-360.485 615.275,-355.241 614.014,-362.126"/>
</g>
<!-- Node11 -->
<g id="node21" class="node"><title>Node11</title>
<a xlink:href="classBaseParameters.html#a821f0bb143dc31faa841149fbe8d1b3e" target="_top" xlink:title="BaseParameters::downsample">
<polygon fill="none" stroke="black" points="623,-320.5 623,-341.5 785,-341.5 785,-320.5 623,-320.5"/>
<text text-anchor="middle" x="704" y="-328.5" font-family="FreeSans.ttf" font-size="10.00">BaseParameters::downsample</text>
</a>
</g>
<!-- Node5&#45;&gt;Node11 -->
<g id="edge20" class="edge"><title>Node5&#45;&gt;Node11</title>
<path fill="none" stroke="midnightblue" d="M491.669,-301.51C530.539,-306.908 578.057,-313.508 618.279,-319.094"/>
<polygon fill="midnightblue" stroke="midnightblue" points="617.951,-322.582 628.337,-320.491 618.914,-315.649 617.951,-322.582"/>
</g>
<!-- Node12 -->
<g id="node23" class="node"><title>Node12</title>
<a xlink:href="classBaseParameters.html#ae8c86de6d7950578aa0d1eb4cb8c526d" target="_top" xlink:title="BaseParameters::h">
<polygon fill="none" stroke="black" points="650,-280.5 650,-301.5 758,-301.5 758,-280.5 650,-280.5"/>
<text text-anchor="middle" x="704" y="-288.5" font-family="FreeSans.ttf" font-size="10.00">BaseParameters::h</text>
</a>
</g>
<!-- Node5&#45;&gt;Node12 -->
<g id="edge22" class="edge"><title>Node5&#45;&gt;Node12</title>
<path fill="none" stroke="midnightblue" d="M535.636,-291C571.32,-291 609.061,-291 639.745,-291"/>
<polygon fill="midnightblue" stroke="midnightblue" points="639.868,-294.5 649.868,-291 639.868,-287.5 639.868,-294.5"/>
</g>
<!-- Node13 -->
<g id="node25" class="node"><title>Node13</title>
<a xlink:href="classBaseParameters.html#a40aba9fe6544c215ea530bea394ca81a" target="_top" xlink:title="BaseParameters::w">
<polygon fill="none" stroke="black" points="649.5,-240.5 649.5,-261.5 758.5,-261.5 758.5,-240.5 649.5,-240.5"/>
<text text-anchor="middle" x="704" y="-248.5" font-family="FreeSans.ttf" font-size="10.00">BaseParameters::w</text>
</a>
</g>
<!-- Node5&#45;&gt;Node13 -->
<g id="edge24" class="edge"><title>Node5&#45;&gt;Node13</title>
<path fill="none" stroke="midnightblue" d="M491.669,-280.49C537.589,-274.113 595.579,-266.058 639.348,-259.979"/>
<polygon fill="midnightblue" stroke="midnightblue" points="639.882,-263.439 649.305,-258.596 638.919,-256.506 639.882,-263.439"/>
</g>
<!-- Node14 -->
<g id="node27" class="node"><title>Node14</title>
<a xlink:href="classBaseParameters.html#a01891a7234e9b0331e60ff673f55627a" target="_top" xlink:title="BaseParameters::autoH">
<polygon fill="none" stroke="black" points="638.5,-200.5 638.5,-221.5 769.5,-221.5 769.5,-200.5 638.5,-200.5"/>
<text text-anchor="middle" x="704" y="-208.5" font-family="FreeSans.ttf" font-size="10.00">BaseParameters::autoH</text>
</a>
</g>
<!-- Node5&#45;&gt;Node14 -->
<g id="edge26" class="edge"><title>Node5&#45;&gt;Node14</title>
<path fill="none" stroke="midnightblue" d="M440.261,-280.461C471.867,-267.122 529.104,-244.285 580,-231 595.463,-226.964 612.236,-223.599 628.3,-220.853"/>
<polygon fill="midnightblue" stroke="midnightblue" points="628.896,-224.302 638.193,-219.222 627.757,-217.395 628.896,-224.302"/>
</g>
<!-- Node15 -->
<g id="node29" class="node"><title>Node15</title>
<a xlink:href="classBaseParameters.html#aa2f2d1eaaf5a0740f41e41f483eae5f4" target="_top" xlink:title="BaseParameters::autoW">
<polygon fill="none" stroke="black" points="638,-160.5 638,-181.5 770,-181.5 770,-160.5 638,-160.5"/>
<text text-anchor="middle" x="704" y="-168.5" font-family="FreeSans.ttf" font-size="10.00">BaseParameters::autoW</text>
</a>
</g>
<!-- Node5&#45;&gt;Node15 -->
<g id="edge28" class="edge"><title>Node5&#45;&gt;Node15</title>
<path fill="none" stroke="midnightblue" d="M429.52,-280.188C456.422,-259.283 519.311,-213.411 580,-191 595.077,-185.433 611.75,-181.413 627.851,-178.512"/>
<polygon fill="midnightblue" stroke="midnightblue" points="628.5,-181.952 637.783,-176.846 627.342,-175.049 628.5,-181.952"/>
</g>
<!-- Node16 -->
<g id="node31" class="node"><title>Node16</title>
<a xlink:href="classBaseParameters.html#a0835df6069fb7d8cb0e3d6ec02d9a80d" target="_top" xlink:title="BaseParameters::x">
<polygon fill="none" stroke="black" points="650.5,-120.5 650.5,-141.5 757.5,-141.5 757.5,-120.5 650.5,-120.5"/>
<text text-anchor="middle" x="704" y="-128.5" font-family="FreeSans.ttf" font-size="10.00">BaseParameters::x</text>
</a>
</g>
<!-- Node5&#45;&gt;Node16 -->
<g id="edge30" class="edge"><title>Node5&#45;&gt;Node16</title>
<path fill="none" stroke="midnightblue" d="M424.64,-280.381C447.083,-253.613 510.348,-183.219 580,-151 598.624,-142.385 620.311,-137.401 640.292,-134.543"/>
<polygon fill="midnightblue" stroke="midnightblue" points="640.776,-138.01 650.251,-133.269 639.888,-131.066 640.776,-138.01"/>
</g>
<!-- Node17 -->
<g id="node33" class="node"><title>Node17</title>
<a xlink:href="classBaseParameters.html#a5008a3c93ff6e0199b8b0b325ee303d1" target="_top" xlink:title="BaseParameters::y">
<polygon fill="none" stroke="black" points="650.5,-80.5 650.5,-101.5 757.5,-101.5 757.5,-80.5 650.5,-80.5"/>
<text text-anchor="middle" x="704" y="-88.5" font-family="FreeSans.ttf" font-size="10.00">BaseParameters::y</text>
</a>
</g>
<!-- Node5&#45;&gt;Node17 -->
<g id="edge32" class="edge"><title>Node5&#45;&gt;Node17</title>
<path fill="none" stroke="midnightblue" d="M422.148,-280.204C441.006,-248.202 501.543,-153.444 580,-111 598.212,-101.148 619.974,-95.8524 640.147,-93.0893"/>
<polygon fill="midnightblue" stroke="midnightblue" points="640.692,-96.5493 650.211,-91.8959 639.868,-89.598 640.692,-96.5493"/>
</g>
<!-- Node18 -->
<g id="node35" class="node"><title>Node18</title>
<a xlink:href="classBaseParameters.html#af7811e4e75676d26efbe908cce114e58" target="_top" xlink:title="BaseParameters::interpolationType">
<polygon fill="none" stroke="black" points="612.5,-40.5 612.5,-61.5 795.5,-61.5 795.5,-40.5 612.5,-40.5"/>
<text text-anchor="middle" x="704" y="-48.5" font-family="FreeSans.ttf" font-size="10.00">BaseParameters::interpolationType</text>
</a>
</g>
<!-- Node5&#45;&gt;Node18 -->
<g id="edge34" class="edge"><title>Node5&#45;&gt;Node18</title>
<path fill="none" stroke="midnightblue" d="M420.316,-280.473C435.749,-244.293 492.01,-124.351 580,-71 587.026,-66.74 594.67,-63.3008 602.598,-60.533"/>
<polygon fill="midnightblue" stroke="midnightblue" points="603.882,-63.7987 612.386,-57.4798 601.798,-57.1162 603.882,-63.7987"/>
</g>
<!-- Node19 -->
<g id="node37" class="node"><title>Node19</title>
<a xlink:href="classBaseParametersControlWidget.html#a6f3a72ae56c8f9b252a356afc644454f" target="_top" xlink:title="BaseParametersControlWidget::paramsChanged">
<polygon fill="none" stroke="black" points="580,-0.5 580,-21.5 828,-21.5 828,-0.5 580,-0.5"/>
<text text-anchor="middle" x="704" y="-8.5" font-family="FreeSans.ttf" font-size="10.00">BaseParametersControlWidget::paramsChanged</text>
</a>
</g>
<!-- Node5&#45;&gt;Node19 -->
<g id="edge36" class="edge"><title>Node5&#45;&gt;Node19</title>
<path fill="none" stroke="midnightblue" d="M419.177,-280.315C431.795,-239.902 482.493,-95.4405 580,-31 582.82,-29.1365 585.753,-27.4253 588.775,-25.8548"/>
<polygon fill="midnightblue" stroke="midnightblue" points="590.474,-28.9254 598.084,-21.554 587.538,-22.5708 590.474,-28.9254"/>
</g>
</g>
</svg>
        <g id="navigator" transform="translate(0 0)" fill="#404254">
                <rect fill="#f2f5e9" fill-opacity="0.5" stroke="#606060" stroke-width=".5" x="0" y="0" width="60" height="60"/>
                <use id="zoomplus" xlink:href="#zoomPlus" x="17" y="9" onmousedown="handleZoom(evt,'in')"/>
                <use id="zoomminus" xlink:href="#zoomMin" x="42" y="9" onmousedown="handleZoom(evt,'out')"/>
                <use id="reset" xlink:href="#resetDef" x="30" y="36" onmousedown="handleReset()"/>
                <g id="arrowUp" xlink:href="#dirArrow" transform="translate(30 24)" onmousedown="handlePan(0,-1)">
                  <use xlink:href="#rim" fill="#404040">
                        <set attributeName="fill" to="#808080" begin="arrowUp.mouseover" end="arrowUp.mouseout"/>
                  </use>
                  <path fill="none" stroke="white" stroke-width="1.5" d="M0,-3.0v7 M-2.5,-0.5L0,-3.0L2.5,-0.5"/>
                </g>
                <g id="arrowRight" xlink:href="#dirArrow" transform="rotate(90) translate(36 -43)" onmousedown="handlePan(1,0)">
                  <use xlink:href="#rim" fill="#404040">
                        <set attributeName="fill" to="#808080" begin="arrowRight.mouseover" end="arrowRight.mouseout"/>
                  </use>
                  <path fill="none" stroke="white" stroke-width="1.5" d="M0,-3.0v7 M-2.5,-0.5L0,-3.0L2.5,-0.5"/>
                </g>
                <g id="arrowDown" xlink:href="#dirArrow" transform="rotate(180) translate(-30 -48)" onmousedown="handlePan(0,1)">
                  <use xlink:href="#rim" fill="#404040">
                        <set attributeName="fill" to="#808080" begin="arrowDown.mouseover" end="arrowDown.mouseout"/>
                  </use>
                  <path fill="none" stroke="white" stroke-width="1.5" d="M0,-3.0v7 M-2.5,-0.5L0,-3.0L2.5,-0.5"/>
                </g>
                <g id="arrowLeft" xlink:href="#dirArrow" transform="rotate(270) translate(-36 17)" onmousedown="handlePan(-1,0)">
                  <use xlink:href="#rim" fill="#404040">
                        <set attributeName="fill" to="#808080" begin="arrowLeft.mouseover" end="arrowLeft.mouseout"/>
                  </use>
                  <path fill="none" stroke="white" stroke-width="1.5" d="M0,-3.0v7 M-2.5,-0.5L0,-3.0L2.5,-0.5"/>
                </g>
        </g>
</svg>
