<?xml version="1.0" encoding="UTF-8" standalone="no"?>
<!DOCTYPE svg PUBLIC "-//W3C//DTD SVG 1.1//EN"
 "http://www.w3.org/Graphics/SVG/1.1/DTD/svg11.dtd">
<!-- Generated by graphviz version 2.26.3 (20100126.1600)
 -->
<!-- Title: G Pages: 1 -->
<svg width="242pt" height="174pt"
 viewBox="0.00 0.00 242.00 174.00" xmlns="http://www.w3.org/2000/svg" xmlns:xlink="http://www.w3.org/1999/xlink">
<g id="graph1" class="graph" transform="scale(1 1) rotate(0) translate(4 170)">
<title>G</title>
<!-- Node1 -->
<g id="node1" class="node"><title>Node1</title>
<polygon fill="#bfbfbf" stroke="black" points="0,-0.5 0,-21.5 124,-21.5 124,-0.5 0,-0.5"/>
<text text-anchor="middle" x="62" y="-8.5" font-family="FreeSans.ttf" font-size="10.00">corecvs::FilterExecuter</text>
</g>
<!-- Node2 -->
<g id="node2" class="node"><title>Node2</title>
<a xlink:href="classcorecvs_1_1AbstractFilter.html" target="_top" xlink:title="corecvs::AbstractFilter">
<polygon fill="none" stroke="black" points="20,-144.5 20,-165.5 142,-165.5 142,-144.5 20,-144.5"/>
<text text-anchor="middle" x="81" y="-152.5" font-family="FreeSans.ttf" font-size="10.00">corecvs::AbstractFilter</text>
</a>
</g>
<!-- Node2&#45;&gt;Node1 -->
<g id="edge2" class="edge"><title>Node2&#45;&gt;Node1</title>
<path fill="none" stroke="#8b1a1a" d="M74.4583,-134.647C70.9867,-122.898 67.0288,-107.766 65,-94 61.1948,-68.1803 61.2707,-37.3801 61.6418,-21.5493"/>
<polygon fill="#8b1a1a" stroke="#8b1a1a" points="71.1568,-135.82 77.4404,-144.35 77.8479,-133.763 71.1568,-135.82"/>
</g>
<!-- Node3 -->
<g id="node4" class="node"><title>Node3</title>
<polygon fill="none" stroke="#bfbfbf" points="73.5,-72.5 73.5,-93.5 234.5,-93.5 234.5,-72.5 73.5,-72.5"/>
<text text-anchor="middle" x="154" y="-80.5" font-family="FreeSans.ttf" font-size="10.00">std::vector&lt; AbstractFilter * &gt;</text>
</g>
<!-- Node2&#45;&gt;Node3 -->
<g id="edge6" class="edge"><title>Node2&#45;&gt;Node3</title>
<path fill="none" stroke="#9a32cd" stroke-dasharray="5,2" d="M98.8963,-137.349C112.764,-123.671 131.521,-105.171 143.184,-93.6674"/>
<polygon fill="#9a32cd" stroke="#9a32cd" points="96.4333,-134.862 91.7714,-144.376 101.349,-139.846 96.4333,-134.862"/>
<text text-anchor="middle" x="148.5" y="-116.5" font-family="FreeSans.ttf" font-size="10.00"> elements</text>
</g>
<!-- Node3&#45;&gt;Node1 -->
<g id="edge4" class="edge"><title>Node3&#45;&gt;Node1</title>
<path fill="none" stroke="#9a32cd" stroke-dasharray="5,2" d="M132.41,-66.1037C114.848,-52.359 90.6017,-33.384 75.6306,-21.6674"/>
<polygon fill="#9a32cd" stroke="#9a32cd" points="130.393,-68.9693 140.425,-72.3762 134.707,-63.4568 130.393,-68.9693"/>
<text text-anchor="middle" x="136.5" y="-44.5" font-family="FreeSans.ttf" font-size="10.00"> mFilters</text>
</g>
</g>
</svg>
