<?xml version="1.0" encoding="UTF-8" standalone="no"?>
<!DOCTYPE svg PUBLIC "-//W3C//DTD SVG 1.1//EN"
 "http://www.w3.org/Graphics/SVG/1.1/DTD/svg11.dtd">
<!-- Generated by graphviz version 2.26.3 (20100126.1600)
 -->
<!-- Title: G Pages: 1 -->
<!--zoomable 494 -->
<svg id="main" version="1.1" xmlns="http://www.w3.org/2000/svg" xmlns:xlink="http://www.w3.org/1999/xlink" xml:space="preserve" onload="init(evt)">
        <defs>
                <circle id="rim" cx="0" cy="0" r="7"/>
                <circle id="rim2" cx="0" cy="0" r="3.5"/>
                <g id="zoomPlus">
                        <use xlink:href="#rim" fill="#404040">
                                <set attributeName="fill" to="#808080" begin="zoomplus.mouseover" end="zoomplus.mouseout"/>
                        </use>
                        <path d="M-4,0h8M0,-4v8" fill="none" stroke="white" stroke-width="1.5" pointer-events="none"/>
                </g>
                <g id="zoomMin">
                        <use xlink:href="#rim" fill="#404040">
                                <set attributeName="fill" to="#808080" begin="zoomminus.mouseover" end="zoomminus.mouseout"/>
                        </use>
                        <path d="M-4,0h8" fill="none" stroke="white" stroke-width="1.5" pointer-events="none"/>
                </g>
                <g id="dirArrow">
                        <path fill="none" stroke="white" stroke-width="1.5" d="M0,-3.0v7 M-2.5,-0.5L0,-3.0L2.5,-0.5"/>
                </g>
               <g id="resetDef">
                       <use xlink:href="#rim2" fill="#404040">
                               <set attributeName="fill" to="#808080" begin="reset.mouseover" end="reset.mouseout"/>
                       </use>
               </g>
        </defs>

<script type="text/javascript">
var viewWidth = 2204;
var viewHeight = 494;
var sectionId = 'dynsection-1';
</script>
<script xlink:href="svgpan.js"/>
<svg id="graph" class="graph">
<g id="viewport">
<title>G</title>
<!-- Node1 -->
<g id="node1" class="node"><title>Node1</title>
<polygon fill="#bfbfbf" stroke="black" points="2096,-277.5 2096,-298.5 2196,-298.5 2196,-277.5 2096,-277.5"/>
<text text-anchor="middle" x="2146" y="-285.5" font-family="FreeSans.ttf" font-size="10.00">corecvs::Buffer3d</text>
</g>
<!-- Node2 -->
<g id="node2" class="node"><title>Node2</title>
<a xlink:href="classcorecvs_1_1AbstractContiniousBuffer.html" target="_top" xlink:title="This template class describes a buffer for which it is possible to interpolate the result between cel...">
<polygon fill="none" stroke="black" points="1758.5,-358.5 1758.5,-379.5 1839.5,-379.5 1839.5,-358.5 1758.5,-358.5"/>
<text text-anchor="middle" x="1799" y="-366.5" font-family="FreeSans.ttf" font-size="10.00">Buffer3dBase</text>
</a>
</g>
<!-- Node2&#45;&gt;Node1 -->
<g id="edge2" class="edge"><title>Node2&#45;&gt;Node1</title>
<path fill="none" stroke="midnightblue" d="M1849.65,-360.242C1894.63,-352.15 1962.02,-339.254 2020,-325 2051.88,-317.162 2087.76,-306.435 2113.06,-298.549"/>
<polygon fill="midnightblue" stroke="midnightblue" points="1848.79,-356.84 1839.57,-362.043 1850.03,-363.731 1848.79,-356.84"/>
</g>
<!-- Node3 -->
<g id="node4" class="node"><title>Node3</title>
<a xlink:href="classcorecvs_1_1AbstractBuffer.html" target="_top" xlink:title="This is a common buffer template.">
<polygon fill="none" stroke="black" points="1228,-382.5 1228,-403.5 1492,-403.5 1492,-382.5 1228,-382.5"/>
<text text-anchor="middle" x="1360" y="-390.5" font-family="FreeSans.ttf" font-size="10.00">corecvs::AbstractBuffer&lt; ElementType, IndexType &gt;</text>
</a>
</g>
<!-- Node3&#45;&gt;Node2 -->
<g id="edge4" class="edge"><title>Node3&#45;&gt;Node2</title>
<path fill="none" stroke="midnightblue" d="M1502.26,-385.223C1591.64,-380.336 1700.62,-374.378 1758.43,-371.218"/>
<polygon fill="midnightblue" stroke="midnightblue" points="1501.81,-381.742 1492.01,-385.783 1502.19,-388.732 1501.81,-381.742"/>
</g>
<!-- Node4 -->
<g id="node6" class="node"><title>Node4</title>
<a xlink:href="classcorecvs_1_1AbstractBufferParams.html" target="_top" xlink:title="This is a basis part of the AbstractBuffer template &#45; serializable buffer params.">
<polygon fill="none" stroke="black" points="886,-382.5 886,-403.5 1050,-403.5 1050,-382.5 886,-382.5"/>
<text text-anchor="middle" x="968" y="-390.5" font-family="FreeSans.ttf" font-size="10.00">corecvs::AbstractBufferParams</text>
</a>
</g>
<!-- Node4&#45;&gt;Node3 -->
<g id="edge6" class="edge"><title>Node4&#45;&gt;Node3</title>
<path fill="none" stroke="midnightblue" d="M1060.31,-393C1110.24,-393 1172.78,-393 1227.79,-393"/>
<polygon fill="midnightblue" stroke="midnightblue" points="1060.18,-389.5 1050.18,-393 1060.18,-396.5 1060.18,-389.5"/>
</g>
<!-- Node5 -->
<g id="node8" class="node"><title>Node5</title>
<polygon fill="none" stroke="#bfbfbf" points="929.5,-342.5 929.5,-363.5 1006.5,-363.5 1006.5,-342.5 929.5,-342.5"/>
<text text-anchor="middle" x="968" y="-350.5" font-family="FreeSans.ttf" font-size="10.00">ElementType</text>
</g>
<!-- Node5&#45;&gt;Node3 -->
<g id="edge8" class="edge"><title>Node5&#45;&gt;Node3</title>
<path fill="none" stroke="#9a32cd" stroke-dasharray="5,2" d="M1016.56,-357.355C1065.44,-361.8 1142.99,-369.019 1210,-376 1229.29,-378.01 1249.96,-380.278 1269.6,-382.487"/>
<polygon fill="#9a32cd" stroke="#9a32cd" points="1016.86,-353.868 1006.58,-356.45 1016.22,-360.839 1016.86,-353.868"/>
<text text-anchor="middle" x="1175" y="-380" font-family="FreeSans.ttf" font-size="10.00"> data</text>
</g>
<!-- Node6 -->
<g id="node10" class="node"><title>Node6</title>
<a xlink:href="classcorecvs_1_1ObjectRef.html" target="_top" xlink:title="corecvs::ObjectRef\&lt; uint8_t \&gt;">
<polygon fill="none" stroke="black" points="888,-462.5 888,-483.5 1048,-483.5 1048,-462.5 888,-462.5"/>
<text text-anchor="middle" x="968" y="-470.5" font-family="FreeSans.ttf" font-size="10.00">corecvs::ObjectRef&lt; uint8_t &gt;</text>
</a>
</g>
<!-- Node6&#45;&gt;Node3 -->
<g id="edge10" class="edge"><title>Node6&#45;&gt;Node3</title>
<path fill="none" stroke="#9a32cd" stroke-dasharray="5,2" d="M1058.36,-462.879C1079.32,-460.085 1101.49,-456.768 1122,-453 1194.72,-439.64 1278.19,-416.83 1324.43,-403.515"/>
<polygon fill="#9a32cd" stroke="#9a32cd" points="1057.64,-459.443 1048.18,-464.209 1058.55,-466.384 1057.64,-459.443"/>
<text text-anchor="middle" x="1175" y="-453" font-family="FreeSans.ttf" font-size="10.00"> memoryBlock</text>
</g>
<!-- Node7 -->
<g id="node12" class="node"><title>Node7</title>
<a xlink:href="classcorecvs_1_1ObjectBlock.html" target="_top" xlink:title="corecvs::ObjectBlock\&lt; uint8_t \&gt;">
<polygon fill="none" stroke="black" points="479.5,-462.5 479.5,-483.5 650.5,-483.5 650.5,-462.5 479.5,-462.5"/>
<text text-anchor="middle" x="565" y="-470.5" font-family="FreeSans.ttf" font-size="10.00">corecvs::ObjectBlock&lt; uint8_t &gt;</text>
</a>
</g>
<!-- Node7&#45;&gt;Node6 -->
<g id="edge12" class="edge"><title>Node7&#45;&gt;Node6</title>
<path fill="none" stroke="#9a32cd" stroke-dasharray="5,2" d="M661.005,-473C730.276,-473 822.713,-473 887.997,-473"/>
<polygon fill="#9a32cd" stroke="#9a32cd" points="660.959,-469.5 650.959,-473 660.959,-476.5 660.959,-469.5"/>
<text text-anchor="middle" x="771" y="-477" font-family="FreeSans.ttf" font-size="10.00"> block</text>
</g>
<!-- Node8 -->
<g id="node14" class="node"><title>Node8</title>
<polygon fill="none" stroke="#bfbfbf" points="936.5,-422.5 936.5,-443.5 999.5,-443.5 999.5,-422.5 936.5,-422.5"/>
<text text-anchor="middle" x="968" y="-430.5" font-family="FreeSans.ttf" font-size="10.00">IndexType</text>
</g>
<!-- Node8&#45;&gt;Node3 -->
<g id="edge14" class="edge"><title>Node8&#45;&gt;Node3</title>
<path fill="none" stroke="#9a32cd" stroke-dasharray="5,2" d="M1009.72,-428.743C1068.14,-422.781 1176.23,-411.752 1256.95,-403.515"/>
<polygon fill="#9a32cd" stroke="#9a32cd" points="1009.34,-425.263 999.747,-429.761 1010.05,-432.227 1009.34,-425.263"/>
<text text-anchor="middle" x="1175" y="-419" font-family="FreeSans.ttf" font-size="10.00"> STRIDE_AUTO</text>
</g>
<!-- Node9 -->
<g id="node16" class="node"><title>Node9</title>
<a xlink:href="classcorecvs_1_1PunchedBufferOperations.html" target="_top" xlink:title="corecvs::PunchedBufferOperations\&lt; Buffer3dBase, Buffer3dBase::InternalElementType \&gt;">
<polygon fill="none" stroke="black" points="1578,-294.5 1578,-315.5 2020,-315.5 2020,-294.5 1578,-294.5"/>
<text text-anchor="middle" x="1799" y="-302.5" font-family="FreeSans.ttf" font-size="10.00">corecvs::PunchedBufferOperations&lt; Buffer3dBase, Buffer3dBase::InternalElementType &gt;</text>
</a>
</g>
<!-- Node9&#45;&gt;Node1 -->
<g id="edge16" class="edge"><title>Node9&#45;&gt;Node1</title>
<path fill="none" stroke="midnightblue" d="M2023.34,-294.009C2050.32,-292.688 2075.49,-291.454 2095.93,-290.453"/>
<polygon fill="midnightblue" stroke="midnightblue" points="2023.15,-290.515 2013.33,-294.5 2023.49,-297.506 2023.15,-290.515"/>
</g>
<!-- Node10 -->
<g id="node18" class="node"><title>Node10</title>
<a xlink:href="classcorecvs_1_1SwarmPoint.html" target="_top" xlink:title="corecvs::SwarmPoint">
<polygon fill="none" stroke="black" points="1741,-254.5 1741,-275.5 1857,-275.5 1857,-254.5 1741,-254.5"/>
<text text-anchor="middle" x="1799" y="-262.5" font-family="FreeSans.ttf" font-size="10.00">corecvs::SwarmPoint</text>
</a>
</g>
<!-- Node10&#45;&gt;Node1 -->
<g id="edge18" class="edge"><title>Node10&#45;&gt;Node1</title>
<path fill="none" stroke="#9a32cd" stroke-dasharray="5,2" d="M1867.46,-263.96C1924.09,-263.877 2006.53,-265.552 2078,-274 2085.18,-274.849 2092.73,-276.069 2100.08,-277.439"/>
<polygon fill="#9a32cd" stroke="#9a32cd" points="1867.18,-260.46 1857.19,-263.994 1867.2,-267.46 1867.18,-260.46"/>
<text text-anchor="middle" x="2058" y="-278" font-family="FreeSans.ttf" font-size="10.00"> p0</text>
</g>
<!-- Node11 -->
<g id="node20" class="node"><title>Node11</title>
<a xlink:href="classcorecvs_1_1Vector2d.html" target="_top" xlink:title="corecvs::Vector2d\&lt; double \&gt;">
<polygon fill="none" stroke="black" points="1281.5,-218.5 1281.5,-239.5 1438.5,-239.5 1438.5,-218.5 1281.5,-218.5"/>
<text text-anchor="middle" x="1360" y="-226.5" font-family="FreeSans.ttf" font-size="10.00">corecvs::Vector2d&lt; double &gt;</text>
</a>
</g>
<!-- Node11&#45;&gt;Node10 -->
<g id="edge20" class="edge"><title>Node11&#45;&gt;Node10</title>
<path fill="none" stroke="#9a32cd" stroke-dasharray="5,2" d="M1448.88,-236.288C1535.99,-243.432 1666.26,-254.114 1740.89,-260.235"/>
<polygon fill="#9a32cd" stroke="#9a32cd" points="1448.99,-232.786 1438.74,-235.457 1448.42,-239.763 1448.99,-232.786"/>
<text text-anchor="middle" x="1535" y="-248" font-family="FreeSans.ttf" font-size="10.00"> texCoor</text>
</g>
<!-- Node12 -->
<g id="node22" class="node"><title>Node12</title>
<a xlink:href="classcorecvs_1_1FixedVectorBase.html" target="_top" xlink:title="corecvs::FixedVectorBase\&lt; Vector2d\&lt; double \&gt;, double, 2 \&gt;">
<polygon fill="none" stroke="black" points="814,-222.5 814,-243.5 1122,-243.5 1122,-222.5 814,-222.5"/>
<text text-anchor="middle" x="968" y="-230.5" font-family="FreeSans.ttf" font-size="10.00">corecvs::FixedVectorBase&lt; Vector2d&lt; double &gt;, double, 2 &gt;</text>
</a>
</g>
<!-- Node12&#45;&gt;Node11 -->
<g id="edge22" class="edge"><title>Node12&#45;&gt;Node11</title>
<path fill="none" stroke="midnightblue" d="M1132.56,-234.599C1158.48,-234.586 1184.97,-234.417 1210,-234 1233.19,-233.614 1258.38,-232.892 1281.38,-232.114"/>
<polygon fill="midnightblue" stroke="midnightblue" points="1132.28,-231.099 1122.28,-234.597 1132.28,-238.099 1132.28,-231.099"/>
</g>
<!-- Node13 -->
<g id="node24" class="node"><title>Node13</title>
<a xlink:href="classcorecvs_1_1VectorOperationsBase.html" target="_top" xlink:title="corecvs::VectorOperationsBase\&lt; Vector2d\&lt; double \&gt;, double \&gt;">
<polygon fill="none" stroke="black" points="402.5,-222.5 402.5,-243.5 727.5,-243.5 727.5,-222.5 402.5,-222.5"/>
<text text-anchor="middle" x="565" y="-230.5" font-family="FreeSans.ttf" font-size="10.00">corecvs::VectorOperationsBase&lt; Vector2d&lt; double &gt;, double &gt;</text>
</a>
</g>
<!-- Node13&#45;&gt;Node12 -->
<g id="edge24" class="edge"><title>Node13&#45;&gt;Node12</title>
<path fill="none" stroke="midnightblue" d="M737.778,-233C763.041,-233 788.918,-233 813.779,-233"/>
<polygon fill="midnightblue" stroke="midnightblue" points="737.754,-229.5 727.754,-233 737.754,-236.5 737.754,-229.5"/>
</g>
<!-- Node14 -->
<g id="node26" class="node"><title>Node14</title>
<a xlink:href="classcorecvs_1_1Reflection.html" target="_top" xlink:title="corecvs::Reflection">
<polygon fill="none" stroke="black" points="915.5,-150.5 915.5,-171.5 1020.5,-171.5 1020.5,-150.5 915.5,-150.5"/>
<text text-anchor="middle" x="968" y="-158.5" font-family="FreeSans.ttf" font-size="10.00">corecvs::Reflection</text>
</a>
</g>
<!-- Node14&#45;&gt;Node11 -->
<g id="edge26" class="edge"><title>Node14&#45;&gt;Node11</title>
<path fill="none" stroke="#9a32cd" stroke-dasharray="5,2" d="M1030.97,-164.02C1080.08,-167.151 1149.83,-173.299 1210,-185 1252.49,-193.264 1300.26,-208.31 1330.24,-218.48"/>
<polygon fill="#9a32cd" stroke="#9a32cd" points="1031.01,-160.516 1020.81,-163.397 1030.58,-167.503 1031.01,-160.516"/>
<text text-anchor="middle" x="1175" y="-189" font-family="FreeSans.ttf" font-size="10.00"> reflect</text>
</g>
<!-- Node19 -->
<g id="node37" class="node"><title>Node19</title>
<a xlink:href="classcorecvs_1_1EmbedSubclass.html" target="_top" xlink:title="corecvs::EmbedSubclass">
<polygon fill="none" stroke="black" points="1292,-86.5 1292,-107.5 1428,-107.5 1428,-86.5 1292,-86.5"/>
<text text-anchor="middle" x="1360" y="-94.5" font-family="FreeSans.ttf" font-size="10.00">corecvs::EmbedSubclass</text>
</a>
</g>
<!-- Node14&#45;&gt;Node19 -->
<g id="edge40" class="edge"><title>Node14&#45;&gt;Node19</title>
<path fill="none" stroke="#9a32cd" stroke-dasharray="5,2" d="M1021.75,-148.139C1055.54,-140.375 1100.15,-130.718 1140,-124 1190.66,-115.461 1248.31,-108.485 1291.88,-103.764"/>
<polygon fill="#9a32cd" stroke="#9a32cd" points="1020.58,-144.818 1011.62,-150.483 1022.15,-151.637 1020.58,-144.818"/>
<text text-anchor="middle" x="1175" y="-128" font-family="FreeSans.ttf" font-size="10.00"> subclass</text>
</g>
<!-- Node25 -->
<g id="node51" class="node"><title>Node25</title>
<a xlink:href="classcorecvs_1_1RGBColor.html" target="_top" xlink:title="I use inheritance because no new data members will be added.">
<polygon fill="none" stroke="black" points="1308,-302.5 1308,-323.5 1412,-323.5 1412,-302.5 1308,-302.5"/>
<text text-anchor="middle" x="1360" y="-310.5" font-family="FreeSans.ttf" font-size="10.00">corecvs::RGBColor</text>
</a>
</g>
<!-- Node14&#45;&gt;Node25 -->
<g id="edge60" class="edge"><title>Node14&#45;&gt;Node25</title>
<path fill="none" stroke="#9a32cd" stroke-dasharray="5,2" d="M1020.23,-174.277C1050.84,-183.11 1089.7,-196.185 1122,-213 1173.88,-240.011 1174.12,-268.235 1228,-291 1253.15,-301.625 1283.02,-307.131 1307.98,-309.979"/>
<polygon fill="#9a32cd" stroke="#9a32cd" points="1021.18,-170.907 1010.61,-171.558 1019.28,-177.644 1021.18,-170.907"/>
<text text-anchor="middle" x="1175" y="-285" font-family="FreeSans.ttf" font-size="10.00"> reflect</text>
</g>
<!-- Node15 -->
<g id="node28" class="node"><title>Node15</title>
<polygon fill="none" stroke="#bfbfbf" points="478.5,-159.5 478.5,-180.5 651.5,-180.5 651.5,-159.5 478.5,-159.5"/>
<text text-anchor="middle" x="565" y="-167.5" font-family="FreeSans.ttf" font-size="10.00">std::vector&lt; const BaseField * &gt;</text>
</g>
<!-- Node15&#45;&gt;Node14 -->
<g id="edge28" class="edge"><title>Node15&#45;&gt;Node14</title>
<path fill="none" stroke="#9a32cd" stroke-dasharray="5,2" d="M661.991,-167.834C741.591,-166.056 851.276,-163.607 915.412,-162.174"/>
<polygon fill="#9a32cd" stroke="#9a32cd" points="661.868,-164.336 651.949,-168.058 662.025,-171.334 661.868,-164.336"/>
<text text-anchor="middle" x="771" y="-169" font-family="FreeSans.ttf" font-size="10.00"> fields</text>
</g>
<!-- Node16 -->
<g id="node30" class="node"><title>Node16</title>
<a xlink:href="classcorecvs_1_1BaseField.html" target="_top" xlink:title="This class is a core class for the reflection.">
<polygon fill="none" stroke="black" points="212,-159.5 212,-180.5 316,-180.5 316,-159.5 212,-159.5"/>
<text text-anchor="middle" x="264" y="-167.5" font-family="FreeSans.ttf" font-size="10.00">corecvs::BaseField</text>
</a>
</g>
<!-- Node16&#45;&gt;Node15 -->
<g id="edge30" class="edge"><title>Node16&#45;&gt;Node15</title>
<path fill="none" stroke="#9a32cd" stroke-dasharray="5,2" d="M326.34,-170C370.271,-170 429.682,-170 478.236,-170"/>
<polygon fill="#9a32cd" stroke="#9a32cd" points="326.087,-166.5 316.087,-170 326.087,-173.5 326.087,-166.5"/>
<text text-anchor="middle" x="359" y="-174" font-family="FreeSans.ttf" font-size="10.00"> elements</text>
</g>
<!-- Node17 -->
<g id="node32" class="node"><title>Node17</title>
<a xlink:href="classcorecvs_1_1ReflectionNaming.html" target="_top" xlink:title="We have several styles of nameing.">
<polygon fill="none" stroke="black" points="0.5,-120.5 0.5,-141.5 143.5,-141.5 143.5,-120.5 0.5,-120.5"/>
<text text-anchor="middle" x="72" y="-128.5" font-family="FreeSans.ttf" font-size="10.00">corecvs::ReflectionNaming</text>
</a>
</g>
<!-- Node17&#45;&gt;Node14 -->
<g id="edge34" class="edge"><title>Node17&#45;&gt;Node14</title>
<path fill="none" stroke="#9a32cd" stroke-dasharray="5,2" d="M154.035,-132.932C278.246,-135.959 521.463,-142.276 728,-150 792.398,-152.408 866.481,-155.916 915.103,-158.319"/>
<polygon fill="#9a32cd" stroke="#9a32cd" points="153.927,-129.429 143.845,-132.685 153.757,-136.427 153.927,-129.429"/>
<text text-anchor="middle" x="359" y="-142" font-family="FreeSans.ttf" font-size="10.00"> name</text>
</g>
<!-- Node17&#45;&gt;Node16 -->
<g id="edge32" class="edge"><title>Node17&#45;&gt;Node16</title>
<path fill="none" stroke="#9a32cd" stroke-dasharray="5,2" d="M133.585,-143.509C158.933,-148.658 187.971,-154.557 212.203,-159.479"/>
<polygon fill="#9a32cd" stroke="#9a32cd" points="134.202,-140.063 123.705,-141.503 132.808,-146.923 134.202,-140.063"/>
<text text-anchor="middle" x="178" y="-159" font-family="FreeSans.ttf" font-size="10.00"> name</text>
</g>
<!-- Node17&#45;&gt;Node19 -->
<g id="edge42" class="edge"><title>Node17&#45;&gt;Node19</title>
<path fill="none" stroke="#9a32cd" stroke-dasharray="5,2" d="M111.944,-117.341C150.418,-105.415 210.496,-90 264,-90 264,-90 264,-90 968,-90 1081.5,-90 1213.46,-92.97 1291.67,-95.0408"/>
<polygon fill="#9a32cd" stroke="#9a32cd" points="110.642,-114.082 102.168,-120.441 112.758,-120.755 110.642,-114.082"/>
<text text-anchor="middle" x="565" y="-94" font-family="FreeSans.ttf" font-size="10.00"> name</text>
</g>
<!-- Node18 -->
<g id="node35" class="node"><title>Node18</title>
<polygon fill="none" stroke="#bfbfbf" points="1697,-130.5 1697,-151.5 1901,-151.5 1901,-130.5 1697,-130.5"/>
<text text-anchor="middle" x="1799" y="-138.5" font-family="FreeSans.ttf" font-size="10.00">std::vector&lt; const EmbedSubclass * &gt;</text>
</g>
<!-- Node18&#45;&gt;Node14 -->
<g id="edge36" class="edge"><title>Node18&#45;&gt;Node14</title>
<path fill="none" stroke="#9a32cd" stroke-dasharray="5,2" d="M1686.67,-143.703C1504.97,-148.077 1153.5,-156.536 1020.61,-159.734"/>
<polygon fill="#9a32cd" stroke="#9a32cd" points="1686.88,-147.199 1696.79,-143.46 1686.71,-140.202 1686.88,-147.199"/>
<text text-anchor="middle" x="1360" y="-158" font-family="FreeSans.ttf" font-size="10.00"> embeds</text>
</g>
<!-- Node19&#45;&gt;Node18 -->
<g id="edge38" class="edge"><title>Node19&#45;&gt;Node18</title>
<path fill="none" stroke="#9a32cd" stroke-dasharray="5,2" d="M1438.49,-104.867C1510.63,-112.097 1618.01,-122.859 1696.81,-130.758"/>
<polygon fill="#9a32cd" stroke="#9a32cd" points="1438.41,-101.342 1428.11,-103.827 1437.71,-108.307 1438.41,-101.342"/>
<text text-anchor="middle" x="1535" y="-120" font-family="FreeSans.ttf" font-size="10.00"> elements</text>
</g>
<!-- Node20 -->
<g id="node41" class="node"><title>Node20</title>
<polygon fill="none" stroke="#bfbfbf" points="896,-40.5 896,-61.5 1040,-61.5 1040,-40.5 896,-40.5"/>
<text text-anchor="middle" x="968" y="-48.5" font-family="FreeSans.ttf" font-size="10.00">std::vector&lt; EmbedMap &gt;</text>
</g>
<!-- Node20&#45;&gt;Node19 -->
<g id="edge44" class="edge"><title>Node20&#45;&gt;Node19</title>
<path fill="none" stroke="#9a32cd" stroke-dasharray="5,2" d="M1050.17,-51.5455C1097.16,-52.7381 1157.1,-55.7487 1210,-63 1248.62,-68.2943 1291.98,-78.6085 1322.11,-86.4948"/>
<polygon fill="#9a32cd" stroke="#9a32cd" points="1050.12,-48.0436 1040.04,-51.3114 1049.96,-55.0417 1050.12,-48.0436"/>
<text text-anchor="middle" x="1175" y="-67" font-family="FreeSans.ttf" font-size="10.00"> renameing</text>
</g>
<!-- Node21 -->
<g id="node43" class="node"><title>Node21</title>
<a xlink:href="structcorecvs_1_1EmbedSubclass_1_1EmbedMap.html" target="_top" xlink:title="corecvs::EmbedSubclass::EmbedMap">
<polygon fill="none" stroke="black" points="467,-32.5 467,-53.5 663,-53.5 663,-32.5 467,-32.5"/>
<text text-anchor="middle" x="565" y="-40.5" font-family="FreeSans.ttf" font-size="10.00">corecvs::EmbedSubclass::EmbedMap</text>
</a>
</g>
<!-- Node21&#45;&gt;Node20 -->
<g id="edge46" class="edge"><title>Node21&#45;&gt;Node20</title>
<path fill="none" stroke="#9a32cd" stroke-dasharray="5,2" d="M673.33,-45.1505C743.874,-46.5509 833.955,-48.3391 895.842,-49.5676"/>
<polygon fill="#9a32cd" stroke="#9a32cd" points="673.137,-41.646 663.07,-44.9468 672.998,-48.6447 673.137,-41.646"/>
<text text-anchor="middle" x="771" y="-52" font-family="FreeSans.ttf" font-size="10.00"> elements</text>
</g>
<!-- Node22 -->
<g id="node45" class="node"><title>Node22</title>
<a xlink:href="classcorecvs_1_1Vector3d.html" target="_top" xlink:title="corecvs::Vector3d\&lt; double \&gt;">
<polygon fill="none" stroke="black" points="1281.5,-260.5 1281.5,-281.5 1438.5,-281.5 1438.5,-260.5 1281.5,-260.5"/>
<text text-anchor="middle" x="1360" y="-268.5" font-family="FreeSans.ttf" font-size="10.00">corecvs::Vector3d&lt; double &gt;</text>
</a>
</g>
<!-- Node22&#45;&gt;Node10 -->
<g id="edge48" class="edge"><title>Node22&#45;&gt;Node10</title>
<path fill="none" stroke="#9a32cd" stroke-dasharray="5,2" d="M1448.71,-267.604C1468.86,-266.955 1490.17,-266.365 1510,-266 1590.01,-264.528 1682.51,-264.502 1740.87,-264.692"/>
<polygon fill="#9a32cd" stroke="#9a32cd" points="1448.5,-264.109 1438.62,-267.937 1448.73,-271.105 1448.5,-264.109"/>
<text text-anchor="middle" x="1535" y="-283" font-family="FreeSans.ttf" font-size="10.00"> speed</text>
<text text-anchor="middle" x="1535" y="-270" font-family="FreeSans.ttf" font-size="10.00">point</text>
</g>
<!-- Node23 -->
<g id="node47" class="node"><title>Node23</title>
<a xlink:href="classcorecvs_1_1FixedVectorBase.html" target="_top" xlink:title="corecvs::FixedVectorBase\&lt; Vector3d\&lt; double \&gt;, double, 3 \&gt;">
<polygon fill="none" stroke="black" points="814,-262.5 814,-283.5 1122,-283.5 1122,-262.5 814,-262.5"/>
<text text-anchor="middle" x="968" y="-270.5" font-family="FreeSans.ttf" font-size="10.00">corecvs::FixedVectorBase&lt; Vector3d&lt; double &gt;, double, 3 &gt;</text>
</a>
</g>
<!-- Node23&#45;&gt;Node22 -->
<g id="edge50" class="edge"><title>Node23&#45;&gt;Node22</title>
<path fill="none" stroke="midnightblue" d="M1132.36,-272.161C1183.98,-271.898 1238.6,-271.619 1281.4,-271.401"/>
<polygon fill="midnightblue" stroke="midnightblue" points="1132.07,-268.663 1122.08,-272.214 1132.1,-275.663 1132.07,-268.663"/>
</g>
<!-- Node24 -->
<g id="node49" class="node"><title>Node24</title>
<a xlink:href="classcorecvs_1_1VectorOperationsBase.html" target="_top" xlink:title="corecvs::VectorOperationsBase\&lt; Vector3d\&lt; double \&gt;, double \&gt;">
<polygon fill="none" stroke="black" points="402.5,-262.5 402.5,-283.5 727.5,-283.5 727.5,-262.5 402.5,-262.5"/>
<text text-anchor="middle" x="565" y="-270.5" font-family="FreeSans.ttf" font-size="10.00">corecvs::VectorOperationsBase&lt; Vector3d&lt; double &gt;, double &gt;</text>
</a>
</g>
<!-- Node24&#45;&gt;Node23 -->
<g id="edge52" class="edge"><title>Node24&#45;&gt;Node23</title>
<path fill="none" stroke="midnightblue" d="M737.778,-273C763.041,-273 788.918,-273 813.779,-273"/>
<polygon fill="midnightblue" stroke="midnightblue" points="737.754,-269.5 727.754,-273 737.754,-276.5 737.754,-269.5"/>
</g>
<!-- Node25&#45;&gt;Node10 -->
<g id="edge54" class="edge"><title>Node25&#45;&gt;Node10</title>
<path fill="none" stroke="#9a32cd" stroke-dasharray="5,2" d="M1422.13,-310.737C1461.99,-308.244 1514.58,-303.006 1560,-292 1568.34,-289.978 1569.64,-286.962 1578,-285 1632.2,-272.278 1695.62,-267.546 1740.59,-265.837"/>
<polygon fill="#9a32cd" stroke="#9a32cd" points="1421.8,-307.25 1412.03,-311.327 1422.21,-314.238 1421.8,-307.25"/>
<text text-anchor="middle" x="1535" y="-305" font-family="FreeSans.ttf" font-size="10.00"> color</text>
</g>
<!-- Node26 -->
<g id="node53" class="node"><title>Node26</title>
<a xlink:href="classcorecvs_1_1FixedVectorBase.html" target="_top" xlink:title="corecvs::FixedVectorBase\&lt; RGBColor, uint8_t, 4 \&gt;">
<polygon fill="none" stroke="black" points="839.5,-302.5 839.5,-323.5 1096.5,-323.5 1096.5,-302.5 839.5,-302.5"/>
<text text-anchor="middle" x="968" y="-310.5" font-family="FreeSans.ttf" font-size="10.00">corecvs::FixedVectorBase&lt; RGBColor, uint8_t, 4 &gt;</text>
</a>
</g>
<!-- Node26&#45;&gt;Node25 -->
<g id="edge56" class="edge"><title>Node26&#45;&gt;Node25</title>
<path fill="none" stroke="midnightblue" d="M1106.82,-313C1176.46,-313 1256.66,-313 1307.81,-313"/>
<polygon fill="midnightblue" stroke="midnightblue" points="1106.63,-309.5 1096.63,-313 1106.63,-316.5 1106.63,-309.5"/>
</g>
<!-- Node27 -->
<g id="node55" class="node"><title>Node27</title>
<a xlink:href="classcorecvs_1_1VectorOperationsBase.html" target="_top" xlink:title="corecvs::VectorOperationsBase\&lt; RGBColor, uint8_t \&gt;">
<polygon fill="none" stroke="black" points="428.5,-302.5 428.5,-323.5 701.5,-323.5 701.5,-302.5 428.5,-302.5"/>
<text text-anchor="middle" x="565" y="-310.5" font-family="FreeSans.ttf" font-size="10.00">corecvs::VectorOperationsBase&lt; RGBColor, uint8_t &gt;</text>
</a>
</g>
<!-- Node27&#45;&gt;Node26 -->
<g id="edge58" class="edge"><title>Node27&#45;&gt;Node26</title>
<path fill="none" stroke="midnightblue" d="M711.968,-313C753.7,-313 798.806,-313 839.361,-313"/>
<polygon fill="midnightblue" stroke="midnightblue" points="711.719,-309.5 701.719,-313 711.718,-316.5 711.719,-309.5"/>
</g>
<!-- Node28 -->
<g id="node58" class="node"><title>Node28</title>
<a xlink:href="classcorecvs_1_1Cloud.html" target="_top" xlink:title="corecvs::Cloud">
<polygon fill="none" stroke="black" points="1756,-64.5 1756,-85.5 1842,-85.5 1842,-64.5 1756,-64.5"/>
<text text-anchor="middle" x="1799" y="-72.5" font-family="FreeSans.ttf" font-size="10.00">corecvs::Cloud</text>
</a>
</g>
<!-- Node28&#45;&gt;Node1 -->
<g id="edge62" class="edge"><title>Node28&#45;&gt;Node1</title>
<path fill="none" stroke="#9a32cd" stroke-dasharray="5,2" d="M1852.27,-75.719C1899.65,-78.6473 1969.11,-88.7537 2020,-121 2084.12,-161.631 2127.52,-247.228 2141.3,-277.288"/>
<polygon fill="#9a32cd" stroke="#9a32cd" points="1852.39,-72.2203 1842.22,-75.1844 1852.02,-79.2104 1852.39,-72.2203"/>
<text text-anchor="middle" x="2058" y="-174" font-family="FreeSans.ttf" font-size="10.00"> mCloud</text>
</g>
<!-- Node29 -->
<g id="node60" class="node"><title>Node29</title>
<a xlink:title="STL class.">
<polygon fill="none" stroke="#bfbfbf" points="1326,-20.5 1326,-41.5 1394,-41.5 1394,-20.5 1326,-20.5"/>
<text text-anchor="middle" x="1360" y="-28.5" font-family="FreeSans.ttf" font-size="10.00">CloudBase</text>
</a>
</g>
<!-- Node29&#45;&gt;Node28 -->
<g id="edge64" class="edge"><title>Node29&#45;&gt;Node28</title>
<path fill="none" stroke="midnightblue" d="M1404.11,-35.4214C1488.53,-43.882 1671.95,-62.2659 1755.71,-70.6613"/>
<polygon fill="midnightblue" stroke="midnightblue" points="1404.38,-31.9308 1394.08,-34.416 1403.68,-38.8959 1404.38,-31.9308"/>
</g>
<!-- Node30 -->
<g id="node62" class="node"><title>Node30</title>
<polygon fill="none" stroke="#bfbfbf" points="953.5,-0.5 953.5,-21.5 982.5,-21.5 982.5,-0.5 953.5,-0.5"/>
<text text-anchor="middle" x="968" y="-8.5" font-family="FreeSans.ttf" font-size="10.00">T</text>
</g>
<!-- Node30&#45;&gt;Node29 -->
<g id="edge66" class="edge"><title>Node30&#45;&gt;Node29</title>
<path fill="none" stroke="#9a32cd" stroke-dasharray="5,2" d="M992.755,-11.8164C1036.57,-13.3074 1130.65,-16.7161 1210,-21 1249.74,-23.1456 1295.37,-26.2835 1325.76,-28.4702"/>
<polygon fill="#9a32cd" stroke="#9a32cd" points="992.85,-8.31767 982.738,-11.4792 992.615,-15.3137 992.85,-8.31767"/>
<text text-anchor="middle" x="1175" y="-25" font-family="FreeSans.ttf" font-size="10.00"> elements</text>
</g>
</g>
</svg>
        <g id="navigator" transform="translate(0 0)" fill="#404254">
                <rect fill="#f2f5e9" fill-opacity="0.5" stroke="#606060" stroke-width=".5" x="0" y="0" width="60" height="60"/>
                <use id="zoomplus" xlink:href="#zoomPlus" x="17" y="9" onmousedown="handleZoom(evt,'in')"/>
                <use id="zoomminus" xlink:href="#zoomMin" x="42" y="9" onmousedown="handleZoom(evt,'out')"/>
                <use id="reset" xlink:href="#resetDef" x="30" y="36" onmousedown="handleReset()"/>
                <g id="arrowUp" xlink:href="#dirArrow" transform="translate(30 24)" onmousedown="handlePan(0,-1)">
                  <use xlink:href="#rim" fill="#404040">
                        <set attributeName="fill" to="#808080" begin="arrowUp.mouseover" end="arrowUp.mouseout"/>
                  </use>
                  <path fill="none" stroke="white" stroke-width="1.5" d="M0,-3.0v7 M-2.5,-0.5L0,-3.0L2.5,-0.5"/>
                </g>
                <g id="arrowRight" xlink:href="#dirArrow" transform="rotate(90) translate(36 -43)" onmousedown="handlePan(1,0)">
                  <use xlink:href="#rim" fill="#404040">
                        <set attributeName="fill" to="#808080" begin="arrowRight.mouseover" end="arrowRight.mouseout"/>
                  </use>
                  <path fill="none" stroke="white" stroke-width="1.5" d="M0,-3.0v7 M-2.5,-0.5L0,-3.0L2.5,-0.5"/>
                </g>
                <g id="arrowDown" xlink:href="#dirArrow" transform="rotate(180) translate(-30 -48)" onmousedown="handlePan(0,1)">
                  <use xlink:href="#rim" fill="#404040">
                        <set attributeName="fill" to="#808080" begin="arrowDown.mouseover" end="arrowDown.mouseout"/>
                  </use>
                  <path fill="none" stroke="white" stroke-width="1.5" d="M0,-3.0v7 M-2.5,-0.5L0,-3.0L2.5,-0.5"/>
                </g>
                <g id="arrowLeft" xlink:href="#dirArrow" transform="rotate(270) translate(-36 17)" onmousedown="handlePan(-1,0)">
                  <use xlink:href="#rim" fill="#404040">
                        <set attributeName="fill" to="#808080" begin="arrowLeft.mouseover" end="arrowLeft.mouseout"/>
                  </use>
                  <path fill="none" stroke="white" stroke-width="1.5" d="M0,-3.0v7 M-2.5,-0.5L0,-3.0L2.5,-0.5"/>
                </g>
        </g>
</svg>
