<?xml version="1.0" encoding="UTF-8" standalone="no"?>
<!DOCTYPE svg PUBLIC "-//W3C//DTD SVG 1.1//EN"
 "http://www.w3.org/Graphics/SVG/1.1/DTD/svg11.dtd">
<!-- Generated by graphviz version 2.26.3 (20100126.1600)
 -->
<!-- Title: G Pages: 1 -->
<svg width="476pt" height="230pt"
 viewBox="0.00 0.00 476.00 230.00" xmlns="http://www.w3.org/2000/svg" xmlns:xlink="http://www.w3.org/1999/xlink">
<g id="graph1" class="graph" transform="scale(1 1) rotate(0) translate(4 226)">
<title>G</title>
<!-- Node1 -->
<g id="node1" class="node"><title>Node1</title>
<polygon fill="#bfbfbf" stroke="black" points="0,-100.5 0,-121.5 218,-121.5 218,-100.5 0,-100.5"/>
<text text-anchor="middle" x="109" y="-108.5" font-family="FreeSans.ttf" font-size="10.00">corecvs::SpatialGradient::findCornerPoints</text>
</g>
<!-- Node2 -->
<g id="node3" class="node"><title>Node2</title>
<a xlink:href="classcorecvs_1_1AbstractBuffer.html#a98f72526738a0c4ce8a0b72a3b5c28b9" target="_top" xlink:title="The element getter.">
<polygon fill="none" stroke="black" points="274,-200.5 274,-221.5 448,-221.5 448,-200.5 274,-200.5"/>
<text text-anchor="middle" x="361" y="-208.5" font-family="FreeSans.ttf" font-size="10.00">corecvs::AbstractBuffer::element</text>
</a>
</g>
<!-- Node1&#45;&gt;Node2 -->
<g id="edge2" class="edge"><title>Node1&#45;&gt;Node2</title>
<path fill="none" stroke="midnightblue" d="M124.305,-121.622C149.929,-138.892 203.665,-172.941 254,-191 261.524,-193.7 269.484,-196.053 277.529,-198.101"/>
<polygon fill="midnightblue" stroke="midnightblue" points="276.821,-201.531 287.361,-200.451 278.448,-194.722 276.821,-201.531"/>
</g>
<!-- Node3 -->
<g id="node5" class="node"><title>Node3</title>
<a xlink:href="classcorecvs_1_1BufferProcessor.html#af3a29d68393c0c9935b24e4070f9bd2f" target="_top" xlink:title="corecvs::BufferProcessor::process">
<polygon fill="none" stroke="black" points="271.5,-160.5 271.5,-181.5 450.5,-181.5 450.5,-160.5 271.5,-160.5"/>
<text text-anchor="middle" x="361" y="-168.5" font-family="FreeSans.ttf" font-size="10.00">corecvs::BufferProcessor::process</text>
</a>
</g>
<!-- Node1&#45;&gt;Node3 -->
<g id="edge4" class="edge"><title>Node1&#45;&gt;Node3</title>
<path fill="none" stroke="midnightblue" d="M143.949,-121.533C173.188,-130.13 216.088,-142.244 254,-151 265.508,-153.658 277.775,-156.21 289.744,-158.55"/>
<polygon fill="midnightblue" stroke="midnightblue" points="289.224,-162.014 299.705,-160.463 290.544,-155.139 289.224,-162.014"/>
</g>
<!-- Node4 -->
<g id="node7" class="node"><title>Node4</title>
<a xlink:href="classcorecvs_1_1SpatialGradient.html#a5cea347bc7927345c90c3e749e5e6c27" target="_top" xlink:title="corecvs::SpatialGradient::SpatialGradient">
<polygon fill="none" stroke="black" points="254,-120.5 254,-141.5 468,-141.5 468,-120.5 254,-120.5"/>
<text text-anchor="middle" x="361" y="-128.5" font-family="FreeSans.ttf" font-size="10.00">corecvs::SpatialGradient::SpatialGradient</text>
</a>
</g>
<!-- Node1&#45;&gt;Node4 -->
<g id="edge6" class="edge"><title>Node1&#45;&gt;Node4</title>
<path fill="none" stroke="midnightblue" d="M218.065,-119.656C226.574,-120.331 235.188,-121.015 243.748,-121.694"/>
<polygon fill="midnightblue" stroke="midnightblue" points="243.517,-125.187 253.762,-122.489 244.071,-118.209 243.517,-125.187"/>
</g>
<!-- Node5 -->
<g id="node9" class="node"><title>Node5</title>
<a xlink:href="classcorecvs_1_1Vector3d.html#aec83d9ad04107cd9c2bb11abf33128c0" target="_top" xlink:title="Helper functions to access elements.">
<polygon fill="none" stroke="black" points="304.5,-80.5 304.5,-101.5 417.5,-101.5 417.5,-80.5 304.5,-80.5"/>
<text text-anchor="middle" x="361" y="-88.5" font-family="FreeSans.ttf" font-size="10.00">corecvs::Vector3d::x</text>
</a>
</g>
<!-- Node1&#45;&gt;Node5 -->
<g id="edge8" class="edge"><title>Node1&#45;&gt;Node5</title>
<path fill="none" stroke="midnightblue" d="M218.065,-102.344C244.021,-100.284 270.952,-98.1466 294.347,-96.2899"/>
<polygon fill="midnightblue" stroke="midnightblue" points="294.794,-99.7656 304.486,-95.4853 294.24,-92.7875 294.794,-99.7656"/>
</g>
<!-- Node6 -->
<g id="node11" class="node"><title>Node6</title>
<a xlink:href="classcorecvs_1_1Vector3d.html#a940d88447f20fac800d1fa510c981275" target="_top" xlink:title="corecvs::Vector3d::y">
<polygon fill="none" stroke="black" points="304.5,-40.5 304.5,-61.5 417.5,-61.5 417.5,-40.5 304.5,-40.5"/>
<text text-anchor="middle" x="361" y="-48.5" font-family="FreeSans.ttf" font-size="10.00">corecvs::Vector3d::y</text>
</a>
</g>
<!-- Node1&#45;&gt;Node6 -->
<g id="edge10" class="edge"><title>Node1&#45;&gt;Node6</title>
<path fill="none" stroke="midnightblue" d="M143.949,-100.467C173.188,-91.8698 216.088,-79.7559 254,-71 266.986,-68.0009 280.937,-65.1363 294.337,-62.5599"/>
<polygon fill="midnightblue" stroke="midnightblue" points="295.274,-65.9446 304.45,-60.6483 293.974,-59.0664 295.274,-65.9446"/>
</g>
<!-- Node7 -->
<g id="node13" class="node"><title>Node7</title>
<a xlink:href="classcorecvs_1_1Vector3d.html#a4587f5d4984576c5c4c2d44a4140ce3f" target="_top" xlink:title="corecvs::Vector3d::z">
<polygon fill="none" stroke="black" points="304.5,-0.5 304.5,-21.5 417.5,-21.5 417.5,-0.5 304.5,-0.5"/>
<text text-anchor="middle" x="361" y="-8.5" font-family="FreeSans.ttf" font-size="10.00">corecvs::Vector3d::z</text>
</a>
</g>
<!-- Node1&#45;&gt;Node7 -->
<g id="edge12" class="edge"><title>Node1&#45;&gt;Node7</title>
<path fill="none" stroke="midnightblue" d="M124.305,-100.378C149.929,-83.1076 203.665,-49.0592 254,-31 266.686,-26.4484 280.609,-22.8806 294.094,-20.1017"/>
<polygon fill="midnightblue" stroke="midnightblue" points="295.141,-23.4641 304.293,-18.1272 293.81,-16.5917 295.141,-23.4641"/>
</g>
</g>
</svg>
