<?xml version="1.0" encoding="UTF-8" standalone="no"?>
<!DOCTYPE svg PUBLIC "-//W3C//DTD SVG 1.1//EN"
 "http://www.w3.org/Graphics/SVG/1.1/DTD/svg11.dtd">
<!-- Generated by graphviz version 2.26.3 (20100126.1600)
 -->
<!-- Title: G Pages: 1 -->
<svg width="418pt" height="204pt"
 viewBox="0.00 0.00 418.00 204.00" xmlns="http://www.w3.org/2000/svg" xmlns:xlink="http://www.w3.org/1999/xlink">
<g id="graph1" class="graph" transform="scale(1 1) rotate(0) translate(4 200)">
<title>G</title>
<!-- Node1 -->
<g id="node1" class="node"><title>Node1</title>
<polygon fill="#bfbfbf" stroke="black" points="143.5,-0.5 143.5,-21.5 296.5,-21.5 296.5,-0.5 143.5,-0.5"/>
<text text-anchor="middle" x="220" y="-8.5" font-family="FreeSans.ttf" font-size="10.00">corecvs::ProjectiveTransform</text>
</g>
<!-- Node2 -->
<g id="node2" class="node"><title>Node2</title>
<a xlink:href="classcorecvs_1_1Matrix33.html" target="_top" xlink:title="Class describes the 3 by 3 matrix.">
<polygon fill="none" stroke="black" points="83.5,-58.5 83.5,-79.5 184.5,-79.5 184.5,-58.5 83.5,-58.5"/>
<text text-anchor="middle" x="134" y="-66.5" font-family="FreeSans.ttf" font-size="10.00">corecvs::Matrix33</text>
</a>
</g>
<!-- Node2&#45;&gt;Node1 -->
<g id="edge2" class="edge"><title>Node2&#45;&gt;Node1</title>
<path fill="none" stroke="midnightblue" d="M158.405,-52.5407C173.149,-42.5973 191.505,-30.2177 204.326,-21.5707"/>
<polygon fill="midnightblue" stroke="midnightblue" points="156.107,-49.8687 149.774,-58.3619 160.021,-55.6722 156.107,-49.8687"/>
</g>
<!-- Node3 -->
<g id="node4" class="node"><title>Node3</title>
<a xlink:href="classcorecvs_1_1FixedVectorBase.html" target="_top" xlink:title="corecvs::FixedVectorBase\&lt; Matrix33, double, 9 \&gt;">
<polygon fill="none" stroke="black" points="8,-116.5 8,-137.5 260,-137.5 260,-116.5 8,-116.5"/>
<text text-anchor="middle" x="134" y="-124.5" font-family="FreeSans.ttf" font-size="10.00">corecvs::FixedVectorBase&lt; Matrix33, double, 9 &gt;</text>
</a>
</g>
<!-- Node3&#45;&gt;Node2 -->
<g id="edge4" class="edge"><title>Node3&#45;&gt;Node2</title>
<path fill="none" stroke="midnightblue" d="M134,-106.191C134,-97.1684 134,-86.9941 134,-79.5707"/>
<polygon fill="midnightblue" stroke="midnightblue" points="130.5,-106.362 134,-116.362 137.5,-106.362 130.5,-106.362"/>
</g>
<!-- Node4 -->
<g id="node6" class="node"><title>Node4</title>
<a xlink:href="classcorecvs_1_1VectorOperationsBase.html" target="_top" xlink:title="corecvs::VectorOperationsBase\&lt; Matrix33, double \&gt;">
<polygon fill="none" stroke="black" points="-0.5,-174.5 -0.5,-195.5 268.5,-195.5 268.5,-174.5 -0.5,-174.5"/>
<text text-anchor="middle" x="134" y="-182.5" font-family="FreeSans.ttf" font-size="10.00">corecvs::VectorOperationsBase&lt; Matrix33, double &gt;</text>
</a>
</g>
<!-- Node4&#45;&gt;Node3 -->
<g id="edge6" class="edge"><title>Node4&#45;&gt;Node3</title>
<path fill="none" stroke="midnightblue" d="M134,-164.191C134,-155.168 134,-144.994 134,-137.571"/>
<polygon fill="midnightblue" stroke="midnightblue" points="130.5,-164.362 134,-174.362 137.5,-164.362 130.5,-164.362"/>
</g>
<!-- Node5 -->
<g id="node8" class="node"><title>Node5</title>
<a xlink:href="classcorecvs_1_1DeformMap.html" target="_top" xlink:title="corecvs::DeformMap\&lt; int32_t, double \&gt;">
<polygon fill="none" stroke="black" points="201.5,-58.5 201.5,-79.5 410.5,-79.5 410.5,-58.5 201.5,-58.5"/>
<text text-anchor="middle" x="306" y="-66.5" font-family="FreeSans.ttf" font-size="10.00">corecvs::DeformMap&lt; int32_t, double &gt;</text>
</a>
</g>
<!-- Node5&#45;&gt;Node1 -->
<g id="edge8" class="edge"><title>Node5&#45;&gt;Node1</title>
<path fill="none" stroke="midnightblue" d="M281.595,-52.5407C266.851,-42.5973 248.495,-30.2177 235.674,-21.5707"/>
<polygon fill="midnightblue" stroke="midnightblue" points="279.979,-55.6722 290.226,-58.3619 283.893,-49.8687 279.979,-55.6722"/>
</g>
</g>
</svg>
