<?xml version="1.0" encoding="UTF-8" standalone="no"?>
<!DOCTYPE svg PUBLIC "-//W3C//DTD SVG 1.1//EN"
 "http://www.w3.org/Graphics/SVG/1.1/DTD/svg11.dtd">
<!-- Generated by graphviz version 2.26.3 (20100126.1600)
 -->
<!-- Title: G Pages: 1 -->
<!--zoomable 110 -->
<svg id="main" version="1.1" xmlns="http://www.w3.org/2000/svg" xmlns:xlink="http://www.w3.org/1999/xlink" xml:space="preserve" onload="init(evt)">
        <defs>
                <circle id="rim" cx="0" cy="0" r="7"/>
                <circle id="rim2" cx="0" cy="0" r="3.5"/>
                <g id="zoomPlus">
                        <use xlink:href="#rim" fill="#404040">
                                <set attributeName="fill" to="#808080" begin="zoomplus.mouseover" end="zoomplus.mouseout"/>
                        </use>
                        <path d="M-4,0h8M0,-4v8" fill="none" stroke="white" stroke-width="1.5" pointer-events="none"/>
                </g>
                <g id="zoomMin">
                        <use xlink:href="#rim" fill="#404040">
                                <set attributeName="fill" to="#808080" begin="zoomminus.mouseover" end="zoomminus.mouseout"/>
                        </use>
                        <path d="M-4,0h8" fill="none" stroke="white" stroke-width="1.5" pointer-events="none"/>
                </g>
                <g id="dirArrow">
                        <path fill="none" stroke="white" stroke-width="1.5" d="M0,-3.0v7 M-2.5,-0.5L0,-3.0L2.5,-0.5"/>
                </g>
               <g id="resetDef">
                       <use xlink:href="#rim2" fill="#404040">
                               <set attributeName="fill" to="#808080" begin="reset.mouseover" end="reset.mouseout"/>
                       </use>
               </g>
        </defs>

<script type="text/javascript">
var viewWidth = 662;
var viewHeight = 110;
var sectionId = 'dynsection-6';
</script>
<script xlink:href="svgpan.js"/>
<svg id="graph" class="graph">
<g id="viewport">
<title>G</title>
<!-- Node1 -->
<g id="node1" class="node"><title>Node1</title>
<polygon fill="#bfbfbf" stroke="black" points="0,-40.5 0,-61.5 180,-61.5 180,-40.5 0,-40.5"/>
<text text-anchor="middle" x="90" y="-48.5" font-family="FreeSans.ttf" font-size="10.00">UEyeCaptureInterface::initCapture</text>
</g>
<!-- Node2 -->
<g id="node3" class="node"><title>Node2</title>
<a xlink:href="classUEyeCameraDescriptor.html#a04eca79ef073259f13f3c550ea82454d" target="_top" xlink:title="UEyeCameraDescriptor::initBuffer">
<polygon fill="none" stroke="black" points="216,-40.5 216,-61.5 394,-61.5 394,-40.5 216,-40.5"/>
<text text-anchor="middle" x="305" y="-48.5" font-family="FreeSans.ttf" font-size="10.00">UEyeCameraDescriptor::initBuffer</text>
</a>
</g>
<!-- Node1&#45;&gt;Node2 -->
<g id="edge2" class="edge"><title>Node1&#45;&gt;Node2</title>
<path fill="none" stroke="midnightblue" d="M180.245,-51C188.578,-51 197.053,-51 205.463,-51"/>
<polygon fill="midnightblue" stroke="midnightblue" points="205.675,-54.5001 215.675,-51 205.675,-47.5001 205.675,-54.5001"/>
</g>
<!-- Node3 -->
<g id="node5" class="node"><title>Node3</title>
<a xlink:href="classUEyeCameraDescriptor.html#aaac52a568811f7e24bbacede82838c0d" target="_top" xlink:title="UEyeCameraDescriptor::allocImages">
<polygon fill="none" stroke="black" points="446,-80.5 446,-101.5 638,-101.5 638,-80.5 446,-80.5"/>
<text text-anchor="middle" x="542" y="-88.5" font-family="FreeSans.ttf" font-size="10.00">UEyeCameraDescriptor::allocImages</text>
</a>
</g>
<!-- Node2&#45;&gt;Node3 -->
<g id="edge4" class="edge"><title>Node2&#45;&gt;Node3</title>
<path fill="none" stroke="midnightblue" d="M367.269,-61.5095C398.714,-66.8167 437.036,-73.2846 469.77,-78.8093"/>
<polygon fill="midnightblue" stroke="midnightblue" points="469.293,-82.2782 479.736,-80.4913 470.458,-75.3758 469.293,-82.2782"/>
</g>
<!-- Node4 -->
<g id="node7" class="node"><title>Node4</title>
<a xlink:href="classUEyeCameraDescriptor.html#af0c856aa3a8b0b777527da818e544cd4" target="_top" xlink:title="UEyeCameraDescriptor::getBitsPerPixel">
<polygon fill="none" stroke="black" points="439,-40.5 439,-61.5 645,-61.5 645,-40.5 439,-40.5"/>
<text text-anchor="middle" x="542" y="-48.5" font-family="FreeSans.ttf" font-size="10.00">UEyeCameraDescriptor::getBitsPerPixel</text>
</a>
</g>
<!-- Node2&#45;&gt;Node4 -->
<g id="edge6" class="edge"><title>Node2&#45;&gt;Node4</title>
<path fill="none" stroke="midnightblue" d="M394.262,-51C405.527,-51 417.168,-51 428.742,-51"/>
<polygon fill="midnightblue" stroke="midnightblue" points="428.885,-54.5001 438.885,-51 428.885,-47.5001 428.885,-54.5001"/>
</g>
<!-- Node5 -->
<g id="node9" class="node"><title>Node5</title>
<a xlink:href="classUEyeCameraDescriptor.html#a87ba0645a26913dfa43c8b9fcb4142bd" target="_top" xlink:title="UEyeCameraDescriptor::getQImageFormat">
<polygon fill="none" stroke="black" points="430.5,-0.5 430.5,-21.5 653.5,-21.5 653.5,-0.5 430.5,-0.5"/>
<text text-anchor="middle" x="542" y="-8.5" font-family="FreeSans.ttf" font-size="10.00">UEyeCameraDescriptor::getQImageFormat</text>
</a>
</g>
<!-- Node2&#45;&gt;Node5 -->
<g id="edge8" class="edge"><title>Node2&#45;&gt;Node5</title>
<path fill="none" stroke="midnightblue" d="M367.269,-40.4905C398.714,-35.1833 437.036,-28.7154 469.77,-23.1907"/>
<polygon fill="midnightblue" stroke="midnightblue" points="470.458,-26.6242 479.736,-21.5087 469.293,-19.7218 470.458,-26.6242"/>
</g>
</g>
</svg>
        <g id="navigator" transform="translate(0 0)" fill="#404254">
                <rect fill="#f2f5e9" fill-opacity="0.5" stroke="#606060" stroke-width=".5" x="0" y="0" width="60" height="60"/>
                <use id="zoomplus" xlink:href="#zoomPlus" x="17" y="9" onmousedown="handleZoom(evt,'in')"/>
                <use id="zoomminus" xlink:href="#zoomMin" x="42" y="9" onmousedown="handleZoom(evt,'out')"/>
                <use id="reset" xlink:href="#resetDef" x="30" y="36" onmousedown="handleReset()"/>
                <g id="arrowUp" xlink:href="#dirArrow" transform="translate(30 24)" onmousedown="handlePan(0,-1)">
                  <use xlink:href="#rim" fill="#404040">
                        <set attributeName="fill" to="#808080" begin="arrowUp.mouseover" end="arrowUp.mouseout"/>
                  </use>
                  <path fill="none" stroke="white" stroke-width="1.5" d="M0,-3.0v7 M-2.5,-0.5L0,-3.0L2.5,-0.5"/>
                </g>
                <g id="arrowRight" xlink:href="#dirArrow" transform="rotate(90) translate(36 -43)" onmousedown="handlePan(1,0)">
                  <use xlink:href="#rim" fill="#404040">
                        <set attributeName="fill" to="#808080" begin="arrowRight.mouseover" end="arrowRight.mouseout"/>
                  </use>
                  <path fill="none" stroke="white" stroke-width="1.5" d="M0,-3.0v7 M-2.5,-0.5L0,-3.0L2.5,-0.5"/>
                </g>
                <g id="arrowDown" xlink:href="#dirArrow" transform="rotate(180) translate(-30 -48)" onmousedown="handlePan(0,1)">
                  <use xlink:href="#rim" fill="#404040">
                        <set attributeName="fill" to="#808080" begin="arrowDown.mouseover" end="arrowDown.mouseout"/>
                  </use>
                  <path fill="none" stroke="white" stroke-width="1.5" d="M0,-3.0v7 M-2.5,-0.5L0,-3.0L2.5,-0.5"/>
                </g>
                <g id="arrowLeft" xlink:href="#dirArrow" transform="rotate(270) translate(-36 17)" onmousedown="handlePan(-1,0)">
                  <use xlink:href="#rim" fill="#404040">
                        <set attributeName="fill" to="#808080" begin="arrowLeft.mouseover" end="arrowLeft.mouseout"/>
                  </use>
                  <path fill="none" stroke="white" stroke-width="1.5" d="M0,-3.0v7 M-2.5,-0.5L0,-3.0L2.5,-0.5"/>
                </g>
        </g>
</svg>
