<?xml version="1.0" encoding="UTF-8" standalone="no"?>
<!DOCTYPE svg PUBLIC "-//W3C//DTD SVG 1.1//EN"
 "http://www.w3.org/Graphics/SVG/1.1/DTD/svg11.dtd">
<!-- Generated by graphviz version 2.26.3 (20100126.1600)
 -->
<!-- Title: G Pages: 1 -->
<!--zoomable 335 -->
<svg id="main" version="1.1" xmlns="http://www.w3.org/2000/svg" xmlns:xlink="http://www.w3.org/1999/xlink" xml:space="preserve" onload="init(evt)">
        <defs>
                <circle id="rim" cx="0" cy="0" r="7"/>
                <circle id="rim2" cx="0" cy="0" r="3.5"/>
                <g id="zoomPlus">
                        <use xlink:href="#rim" fill="#404040">
                                <set attributeName="fill" to="#808080" begin="zoomplus.mouseover" end="zoomplus.mouseout"/>
                        </use>
                        <path d="M-4,0h8M0,-4v8" fill="none" stroke="white" stroke-width="1.5" pointer-events="none"/>
                </g>
                <g id="zoomMin">
                        <use xlink:href="#rim" fill="#404040">
                                <set attributeName="fill" to="#808080" begin="zoomminus.mouseover" end="zoomminus.mouseout"/>
                        </use>
                        <path d="M-4,0h8" fill="none" stroke="white" stroke-width="1.5" pointer-events="none"/>
                </g>
                <g id="dirArrow">
                        <path fill="none" stroke="white" stroke-width="1.5" d="M0,-3.0v7 M-2.5,-0.5L0,-3.0L2.5,-0.5"/>
                </g>
               <g id="resetDef">
                       <use xlink:href="#rim2" fill="#404040">
                               <set attributeName="fill" to="#808080" begin="reset.mouseover" end="reset.mouseout"/>
                       </use>
               </g>
        </defs>

<script type="text/javascript">
var viewWidth = 978;
var viewHeight = 335;
var sectionId = 'dynsection-31';
</script>
<script xlink:href="svgpan.js"/>
<svg id="graph" class="graph">
<g id="viewport">
<title>G</title>
<!-- Node1 -->
<g id="node1" class="node"><title>Node1</title>
<polygon fill="#bfbfbf" stroke="black" points="0,-206.947 0,-227.947 166,-227.947 166,-206.947 0,-206.947"/>
<text text-anchor="middle" x="83" y="-214.947" font-family="FreeSans.ttf" font-size="10.00">tinyxml2::XMLPrinter::VisitEnter</text>
</g>
<!-- Node2 -->
<g id="node3" class="node"><title>Node2</title>
<a xlink:href="classtinyxml2_1_1XMLAttribute.html#a631990ac0d176e38fc291b17b295a62d" target="_top" xlink:title="The name of the attribute.">
<polygon fill="none" stroke="black" points="435,-305.947 435,-326.947 595,-326.947 595,-305.947 435,-305.947"/>
<text text-anchor="middle" x="515" y="-313.947" font-family="FreeSans.ttf" font-size="10.00">tinyxml2::XMLAttribute::Name</text>
</a>
</g>
<!-- Node1&#45;&gt;Node2 -->
<g id="edge2" class="edge"><title>Node1&#45;&gt;Node2</title>
<path fill="none" stroke="midnightblue" d="M94.3444,-228.207C114.271,-246.334 157.667,-282.448 202,-297.447 274.201,-321.876 361.049,-325.267 424.927,-323.325"/>
<polygon fill="midnightblue" stroke="midnightblue" points="425.106,-326.821 434.976,-322.97 424.859,-319.825 425.106,-326.821"/>
</g>
<!-- Node4 -->
<g id="node7" class="node"><title>Node4</title>
<a xlink:href="classtinyxml2_1_1XMLElement.html#a8bff355472bce2c60d4b50a212bf7f5f" target="_top" xlink:title="Get the name of an element (which is the Value() of the node.)">
<polygon fill="none" stroke="black" points="216,-266.947 216,-287.947 374,-287.947 374,-266.947 216,-266.947"/>
<text text-anchor="middle" x="295" y="-274.947" font-family="FreeSans.ttf" font-size="10.00">tinyxml2::XMLElement::Name</text>
</a>
</g>
<!-- Node1&#45;&gt;Node4 -->
<g id="edge6" class="edge"><title>Node1&#45;&gt;Node4</title>
<path fill="none" stroke="midnightblue" d="M111.576,-228.062C135.509,-236.707 170.684,-248.846 202,-257.447 211.436,-260.039 221.485,-262.502 231.359,-264.758"/>
<polygon fill="midnightblue" stroke="midnightblue" points="230.624,-268.18 241.146,-266.941 232.148,-261.348 230.624,-268.18"/>
</g>
<!-- Node6 -->
<g id="node12" class="node"><title>Node6</title>
<a xlink:href="classtinyxml2_1_1XMLAttribute.html#a7fd852d6185af90361ec1bc9a7681ad6" target="_top" xlink:title="The next attribute in the list.">
<polygon fill="none" stroke="black" points="218.5,-226.947 218.5,-247.947 371.5,-247.947 371.5,-226.947 218.5,-226.947"/>
<text text-anchor="middle" x="295" y="-234.947" font-family="FreeSans.ttf" font-size="10.00">tinyxml2::XMLAttribute::Next</text>
</a>
</g>
<!-- Node1&#45;&gt;Node6 -->
<g id="edge12" class="edge"><title>Node1&#45;&gt;Node6</title>
<path fill="none" stroke="midnightblue" d="M166.18,-225.294C179.995,-226.598 194.353,-227.952 208.254,-229.264"/>
<polygon fill="midnightblue" stroke="midnightblue" points="207.996,-232.755 218.281,-230.21 208.653,-225.786 207.996,-232.755"/>
</g>
<!-- Node7 -->
<g id="node14" class="node"><title>Node7</title>
<a xlink:href="classtinyxml2_1_1XMLPrinter.html#aa10d330818dbc31b44e9ffc27618bdfb" target="_top" xlink:title="If streaming, start writing an element.">
<polygon fill="none" stroke="black" points="202.5,-67.9473 202.5,-88.9473 387.5,-88.9473 387.5,-67.9473 202.5,-67.9473"/>
<text text-anchor="middle" x="295" y="-75.9473" font-family="FreeSans.ttf" font-size="10.00">tinyxml2::XMLPrinter::OpenElement</text>
</a>
</g>
<!-- Node1&#45;&gt;Node7 -->
<g id="edge14" class="edge"><title>Node1&#45;&gt;Node7</title>
<path fill="none" stroke="midnightblue" d="M98.6957,-206.702C121.377,-191.219 164.693,-161.816 202,-137.447 224.7,-122.62 250.785,-106.118 269.541,-94.344"/>
<polygon fill="midnightblue" stroke="midnightblue" points="271.498,-97.2483 278.113,-88.9723 267.781,-91.3167 271.498,-97.2483"/>
</g>
<!-- Node13 -->
<g id="node28" class="node"><title>Node13</title>
<a xlink:href="classtinyxml2_1_1XMLPrinter.html#a9a4e2c9348b42e147629d5a99f4af3f0" target="_top" xlink:title="If streaming, add an attribute to an open element.">
<polygon fill="none" stroke="black" points="202.5,-146.947 202.5,-167.947 387.5,-167.947 387.5,-146.947 202.5,-146.947"/>
<text text-anchor="middle" x="295" y="-154.947" font-family="FreeSans.ttf" font-size="10.00">tinyxml2::XMLPrinter::PushAttribute</text>
</a>
</g>
<!-- Node1&#45;&gt;Node13 -->
<g id="edge30" class="edge"><title>Node1&#45;&gt;Node13</title>
<path fill="none" stroke="midnightblue" d="M111.576,-206.833C135.509,-198.188 170.684,-186.048 202,-177.447 211.436,-174.856 221.485,-172.392 231.359,-170.137"/>
<polygon fill="midnightblue" stroke="midnightblue" points="232.148,-173.547 241.146,-167.953 230.624,-166.715 232.148,-173.547"/>
</g>
<!-- Node15 -->
<g id="node34" class="node"><title>Node15</title>
<a xlink:href="classtinyxml2_1_1XMLAttribute.html#adf884db24f469f8a99a14ae786d4ddd7" target="_top" xlink:title="The value of the attribute.">
<polygon fill="none" stroke="black" points="216.5,-186.947 216.5,-207.947 373.5,-207.947 373.5,-186.947 216.5,-186.947"/>
<text text-anchor="middle" x="295" y="-194.947" font-family="FreeSans.ttf" font-size="10.00">tinyxml2::XMLAttribute::Value</text>
</a>
</g>
<!-- Node1&#45;&gt;Node15 -->
<g id="edge38" class="edge"><title>Node1&#45;&gt;Node15</title>
<path fill="none" stroke="midnightblue" d="M166.18,-209.6C179.306,-208.362 192.922,-207.077 206.171,-205.827"/>
<polygon fill="midnightblue" stroke="midnightblue" points="206.59,-209.303 216.217,-204.88 205.932,-202.334 206.59,-209.303"/>
</g>
<!-- Node3 -->
<g id="node5" class="node"><title>Node3</title>
<a xlink:href="classtinyxml2_1_1StrPair.html#ad87e3d11330f5e689ba1e7e54c023b57" target="_top" xlink:title="tinyxml2::StrPair::GetStr">
<polygon fill="none" stroke="black" points="647,-265.947 647,-286.947 779,-286.947 779,-265.947 647,-265.947"/>
<text text-anchor="middle" x="713" y="-273.947" font-family="FreeSans.ttf" font-size="10.00">tinyxml2::StrPair::GetStr</text>
</a>
</g>
<!-- Node2&#45;&gt;Node3 -->
<g id="edge4" class="edge"><title>Node2&#45;&gt;Node3</title>
<path fill="none" stroke="midnightblue" d="M567.022,-305.938C592.727,-300.745 623.931,-294.441 650.882,-288.996"/>
<polygon fill="midnightblue" stroke="midnightblue" points="651.873,-292.367 660.982,-286.956 650.487,-285.506 651.873,-292.367"/>
</g>
<!-- Node5 -->
<g id="node9" class="node"><title>Node5</title>
<a xlink:href="classtinyxml2_1_1XMLNode.html#a7682be117e3b2b4ebfd517c1acaaadbf" target="_top" xlink:title="The meaning of &#39;value&#39; changes for the specific type.">
<polygon fill="none" stroke="black" points="445,-265.947 445,-286.947 585,-286.947 585,-265.947 445,-265.947"/>
<text text-anchor="middle" x="515" y="-273.947" font-family="FreeSans.ttf" font-size="10.00">tinyxml2::XMLNode::Value</text>
</a>
</g>
<!-- Node4&#45;&gt;Node5 -->
<g id="edge8" class="edge"><title>Node4&#45;&gt;Node5</title>
<path fill="none" stroke="midnightblue" d="M374.114,-277.088C393.836,-276.998 414.999,-276.902 434.773,-276.812"/>
<polygon fill="midnightblue" stroke="midnightblue" points="434.989,-280.311 444.973,-276.766 434.957,-273.311 434.989,-280.311"/>
</g>
<!-- Node5&#45;&gt;Node3 -->
<g id="edge10" class="edge"><title>Node5&#45;&gt;Node3</title>
<path fill="none" stroke="midnightblue" d="M585.086,-276.447C601.761,-276.447 619.635,-276.447 636.578,-276.447"/>
<polygon fill="midnightblue" stroke="midnightblue" points="636.988,-279.947 646.988,-276.447 636.988,-272.947 636.988,-279.947"/>
</g>
<!-- Node8 -->
<g id="node16" class="node"><title>Node8</title>
<a xlink:href="classtinyxml2_1_1XMLPrinter.html#ab30210a7f32e45634e7a45137bf6fdf6" target="_top" xlink:title="tinyxml2::XMLPrinter::Print">
<polygon fill="none" stroke="black" points="642,-107.947 642,-128.947 784,-128.947 784,-107.947 642,-107.947"/>
<text text-anchor="middle" x="713" y="-115.947" font-family="FreeSans.ttf" font-size="10.00">tinyxml2::XMLPrinter::Print</text>
</a>
</g>
<!-- Node7&#45;&gt;Node8 -->
<g id="edge16" class="edge"><title>Node7&#45;&gt;Node8</title>
<path fill="none" stroke="midnightblue" d="M311.674,-67.7757C335.474,-53.2408 381.072,-27.9422 424,-18.4473 502.98,-0.97836 530.756,11.2401 606,-18.4473 647.316,-34.7483 682.068,-75.3643 699.977,-99.5223"/>
<polygon fill="midnightblue" stroke="midnightblue" points="697.314,-101.815 705.994,-107.89 702.997,-97.728 697.314,-101.815"/>
</g>
<!-- Node10 -->
<g id="node20" class="node"><title>Node10</title>
<a xlink:href="classtinyxml2_1_1XMLPrinter.html#a1c4b2ccbe4fdb316d54f5a93f3559260" target="_top" xlink:title="tinyxml2::XMLPrinter::PrintSpace">
<polygon fill="none" stroke="black" points="429,-107.947 429,-128.947 601,-128.947 601,-107.947 429,-107.947"/>
<text text-anchor="middle" x="515" y="-115.947" font-family="FreeSans.ttf" font-size="10.00">tinyxml2::XMLPrinter::PrintSpace</text>
</a>
</g>
<!-- Node7&#45;&gt;Node10 -->
<g id="edge20" class="edge"><title>Node7&#45;&gt;Node10</title>
<path fill="none" stroke="midnightblue" d="M352.802,-88.9568C381.74,-94.2182 416.952,-100.62 447.164,-106.113"/>
<polygon fill="midnightblue" stroke="midnightblue" points="446.737,-109.593 457.202,-107.939 447.99,-102.706 446.737,-109.593"/>
</g>
<!-- Node11 -->
<g id="node23" class="node"><title>Node11</title>
<a xlink:href="classtinyxml2_1_1DynArray.html#a498de53808ba0151fef54ea10bf51050" target="_top" xlink:title="tinyxml2::DynArray::Push">
<polygon fill="none" stroke="black" points="447,-67.9473 447,-88.9473 583,-88.9473 583,-67.9473 447,-67.9473"/>
<text text-anchor="middle" x="515" y="-75.9473" font-family="FreeSans.ttf" font-size="10.00">tinyxml2::DynArray::Push</text>
</a>
</g>
<!-- Node7&#45;&gt;Node11 -->
<g id="edge24" class="edge"><title>Node7&#45;&gt;Node11</title>
<path fill="none" stroke="midnightblue" d="M387.662,-78.4473C403.942,-78.4473 420.741,-78.4473 436.586,-78.4473"/>
<polygon fill="midnightblue" stroke="midnightblue" points="436.844,-81.9474 446.844,-78.4473 436.844,-74.9474 436.844,-81.9474"/>
</g>
<!-- Node12 -->
<g id="node25" class="node"><title>Node12</title>
<a xlink:href="classtinyxml2_1_1XMLPrinter.html#a70ac2010150c8551773ffb2f96fef353" target="_top" xlink:title="tinyxml2::XMLPrinter::SealElement">
<polygon fill="none" stroke="black" points="424.5,-27.9473 424.5,-48.9473 605.5,-48.9473 605.5,-27.9473 424.5,-27.9473"/>
<text text-anchor="middle" x="515" y="-35.9473" font-family="FreeSans.ttf" font-size="10.00">tinyxml2::XMLPrinter::SealElement</text>
</a>
</g>
<!-- Node7&#45;&gt;Node12 -->
<g id="edge26" class="edge"><title>Node7&#45;&gt;Node12</title>
<path fill="none" stroke="midnightblue" d="M352.802,-67.9377C381.74,-62.6763 416.952,-56.2741 447.164,-50.781"/>
<polygon fill="midnightblue" stroke="midnightblue" points="447.99,-54.1885 457.202,-48.956 446.737,-47.3014 447.99,-54.1885"/>
</g>
<!-- Node9 -->
<g id="node18" class="node"><title>Node9</title>
<a xlink:href="classtinyxml2_1_1DynArray.html#aa3c360d40addc3b05121da9f60a01b4d" target="_top" xlink:title="tinyxml2::DynArray::PushArr">
<polygon fill="none" stroke="black" points="820,-107.947 820,-128.947 970,-128.947 970,-107.947 820,-107.947"/>
<text text-anchor="middle" x="895" y="-115.947" font-family="FreeSans.ttf" font-size="10.00">tinyxml2::DynArray::PushArr</text>
</a>
</g>
<!-- Node8&#45;&gt;Node9 -->
<g id="edge18" class="edge"><title>Node8&#45;&gt;Node9</title>
<path fill="none" stroke="midnightblue" d="M784.148,-118.447C792.604,-118.447 801.3,-118.447 809.924,-118.447"/>
<polygon fill="midnightblue" stroke="midnightblue" points="809.998,-121.947 819.998,-118.447 809.998,-114.947 809.998,-121.947"/>
</g>
<!-- Node10&#45;&gt;Node8 -->
<g id="edge22" class="edge"><title>Node10&#45;&gt;Node8</title>
<path fill="none" stroke="midnightblue" d="M601.27,-118.447C611.325,-118.447 621.558,-118.447 631.545,-118.447"/>
<polygon fill="midnightblue" stroke="midnightblue" points="631.845,-121.947 641.845,-118.447 631.845,-114.947 631.845,-121.947"/>
</g>
<!-- Node12&#45;&gt;Node8 -->
<g id="edge28" class="edge"><title>Node12&#45;&gt;Node8</title>
<path fill="none" stroke="midnightblue" d="M574.969,-48.9878C585.471,-51.5767 596.174,-54.707 606,-58.4473 635.996,-69.8647 667.755,-88.6318 688.807,-102.139"/>
<polygon fill="midnightblue" stroke="midnightblue" points="687.122,-105.218 697.41,-107.749 690.945,-99.3548 687.122,-105.218"/>
</g>
<!-- Node13&#45;&gt;Node8 -->
<g id="edge32" class="edge"><title>Node13&#45;&gt;Node8</title>
<path fill="none" stroke="midnightblue" d="M387.812,-154.782C449.778,-152.265 532.987,-147.466 606,-138.447 621.539,-136.528 638.228,-133.756 653.694,-130.884"/>
<polygon fill="midnightblue" stroke="midnightblue" points="654.486,-134.297 663.657,-128.991 653.179,-127.42 654.486,-134.297"/>
</g>
<!-- Node14 -->
<g id="node31" class="node"><title>Node14</title>
<a xlink:href="classtinyxml2_1_1XMLPrinter.html#a5495e504053f63f2c4d603327314fa91" target="_top" xlink:title="tinyxml2::XMLPrinter::PrintString">
<polygon fill="none" stroke="black" points="430,-185.947 430,-206.947 600,-206.947 600,-185.947 430,-185.947"/>
<text text-anchor="middle" x="515" y="-193.947" font-family="FreeSans.ttf" font-size="10.00">tinyxml2::XMLPrinter::PrintString</text>
</a>
</g>
<!-- Node13&#45;&gt;Node14 -->
<g id="edge34" class="edge"><title>Node13&#45;&gt;Node14</title>
<path fill="none" stroke="midnightblue" d="M354.245,-167.95C382.365,-172.935 416.152,-178.924 445.478,-184.123"/>
<polygon fill="midnightblue" stroke="midnightblue" points="445.191,-187.627 455.649,-185.926 446.413,-180.734 445.191,-187.627"/>
</g>
<!-- Node14&#45;&gt;Node8 -->
<g id="edge36" class="edge"><title>Node14&#45;&gt;Node8</title>
<path fill="none" stroke="midnightblue" d="M559.983,-185.92C574.831,-181.963 591.302,-177.047 606,-171.447 634.012,-160.775 664.518,-145.249 685.763,-133.758"/>
<polygon fill="midnightblue" stroke="midnightblue" points="687.456,-136.821 694.548,-128.95 684.095,-130.681 687.456,-136.821"/>
</g>
<!-- Node15&#45;&gt;Node3 -->
<g id="edge40" class="edge"><title>Node15&#45;&gt;Node3</title>
<path fill="none" stroke="midnightblue" d="M350.94,-208.02C427.742,-222.535 565.585,-248.587 647.233,-264.018"/>
<polygon fill="midnightblue" stroke="midnightblue" points="646.916,-267.519 657.392,-265.938 648.216,-260.641 646.916,-267.519"/>
</g>
</g>
</svg>
        <g id="navigator" transform="translate(0 0)" fill="#404254">
                <rect fill="#f2f5e9" fill-opacity="0.5" stroke="#606060" stroke-width=".5" x="0" y="0" width="60" height="60"/>
                <use id="zoomplus" xlink:href="#zoomPlus" x="17" y="9" onmousedown="handleZoom(evt,'in')"/>
                <use id="zoomminus" xlink:href="#zoomMin" x="42" y="9" onmousedown="handleZoom(evt,'out')"/>
                <use id="reset" xlink:href="#resetDef" x="30" y="36" onmousedown="handleReset()"/>
                <g id="arrowUp" xlink:href="#dirArrow" transform="translate(30 24)" onmousedown="handlePan(0,-1)">
                  <use xlink:href="#rim" fill="#404040">
                        <set attributeName="fill" to="#808080" begin="arrowUp.mouseover" end="arrowUp.mouseout"/>
                  </use>
                  <path fill="none" stroke="white" stroke-width="1.5" d="M0,-3.0v7 M-2.5,-0.5L0,-3.0L2.5,-0.5"/>
                </g>
                <g id="arrowRight" xlink:href="#dirArrow" transform="rotate(90) translate(36 -43)" onmousedown="handlePan(1,0)">
                  <use xlink:href="#rim" fill="#404040">
                        <set attributeName="fill" to="#808080" begin="arrowRight.mouseover" end="arrowRight.mouseout"/>
                  </use>
                  <path fill="none" stroke="white" stroke-width="1.5" d="M0,-3.0v7 M-2.5,-0.5L0,-3.0L2.5,-0.5"/>
                </g>
                <g id="arrowDown" xlink:href="#dirArrow" transform="rotate(180) translate(-30 -48)" onmousedown="handlePan(0,1)">
                  <use xlink:href="#rim" fill="#404040">
                        <set attributeName="fill" to="#808080" begin="arrowDown.mouseover" end="arrowDown.mouseout"/>
                  </use>
                  <path fill="none" stroke="white" stroke-width="1.5" d="M0,-3.0v7 M-2.5,-0.5L0,-3.0L2.5,-0.5"/>
                </g>
                <g id="arrowLeft" xlink:href="#dirArrow" transform="rotate(270) translate(-36 17)" onmousedown="handlePan(-1,0)">
                  <use xlink:href="#rim" fill="#404040">
                        <set attributeName="fill" to="#808080" begin="arrowLeft.mouseover" end="arrowLeft.mouseout"/>
                  </use>
                  <path fill="none" stroke="white" stroke-width="1.5" d="M0,-3.0v7 M-2.5,-0.5L0,-3.0L2.5,-0.5"/>
                </g>
        </g>
</svg>
