<?xml version="1.0" encoding="UTF-8" standalone="no"?>
<!DOCTYPE svg PUBLIC "-//W3C//DTD SVG 1.1//EN"
 "http://www.w3.org/Graphics/SVG/1.1/DTD/svg11.dtd">
<!-- Generated by graphviz version 2.26.3 (20100126.1600)
 -->
<!-- Title: G Pages: 1 -->
<!--zoomable 470 -->
<svg id="main" version="1.1" xmlns="http://www.w3.org/2000/svg" xmlns:xlink="http://www.w3.org/1999/xlink" xml:space="preserve" onload="init(evt)">
        <defs>
                <circle id="rim" cx="0" cy="0" r="7"/>
                <circle id="rim2" cx="0" cy="0" r="3.5"/>
                <g id="zoomPlus">
                        <use xlink:href="#rim" fill="#404040">
                                <set attributeName="fill" to="#808080" begin="zoomplus.mouseover" end="zoomplus.mouseout"/>
                        </use>
                        <path d="M-4,0h8M0,-4v8" fill="none" stroke="white" stroke-width="1.5" pointer-events="none"/>
                </g>
                <g id="zoomMin">
                        <use xlink:href="#rim" fill="#404040">
                                <set attributeName="fill" to="#808080" begin="zoomminus.mouseover" end="zoomminus.mouseout"/>
                        </use>
                        <path d="M-4,0h8" fill="none" stroke="white" stroke-width="1.5" pointer-events="none"/>
                </g>
                <g id="dirArrow">
                        <path fill="none" stroke="white" stroke-width="1.5" d="M0,-3.0v7 M-2.5,-0.5L0,-3.0L2.5,-0.5"/>
                </g>
               <g id="resetDef">
                       <use xlink:href="#rim2" fill="#404040">
                               <set attributeName="fill" to="#808080" begin="reset.mouseover" end="reset.mouseout"/>
                       </use>
               </g>
        </defs>

<script type="text/javascript">
var viewWidth = 448;
var viewHeight = 470;
var sectionId = 'dynsection-0';
</script>
<script xlink:href="svgpan.js"/>
<svg id="graph" class="graph">
<g id="viewport">
<title>G</title>
<!-- Node1 -->
<g id="node1" class="node"><title>Node1</title>
<polygon fill="#bfbfbf" stroke="black" points="0.5,-220.5 0.5,-241.5 185.5,-241.5 185.5,-220.5 0.5,-220.5"/>
<text text-anchor="middle" x="93" y="-228.5" font-family="FreeSans.ttf" font-size="10.00">FilterParametersControlWidgetBase</text>
</g>
<!-- Node2 -->
<g id="node3" class="node"><title>Node2</title>
<a xlink:href="classBackgroundFilterParametersControlWidget.html" target="_top" xlink:title="BackgroundFilterParametersControlWidget">
<polygon fill="none" stroke="black" points="222,-440.5 222,-461.5 440,-461.5 440,-440.5 222,-440.5"/>
<text text-anchor="middle" x="331" y="-448.5" font-family="FreeSans.ttf" font-size="10.00">BackgroundFilterParametersControlWidget</text>
</a>
</g>
<!-- Node1&#45;&gt;Node2 -->
<g id="edge2" class="edge"><title>Node1&#45;&gt;Node2</title>
<path fill="none" stroke="midnightblue" d="M99.8582,-251.423C114.856,-292.707 154.713,-385.976 222,-431 227.597,-434.745 233.7,-437.839 240.068,-440.392"/>
<polygon fill="midnightblue" stroke="midnightblue" points="103.125,-250.162 96.505,-241.89 96.5215,-252.485 103.125,-250.162"/>
</g>
<!-- Node3 -->
<g id="node5" class="node"><title>Node3</title>
<a xlink:href="classBinarizeParametersControlWidget.html" target="_top" xlink:title="BinarizeParametersControlWidget">
<polygon fill="none" stroke="black" points="242.5,-400.5 242.5,-421.5 419.5,-421.5 419.5,-400.5 242.5,-400.5"/>
<text text-anchor="middle" x="331" y="-408.5" font-family="FreeSans.ttf" font-size="10.00">BinarizeParametersControlWidget</text>
</a>
</g>
<!-- Node1&#45;&gt;Node3 -->
<g id="edge4" class="edge"><title>Node1&#45;&gt;Node3</title>
<path fill="none" stroke="midnightblue" d="M102.884,-250.883C121.213,-285.503 163.953,-356.452 222,-391 228.365,-394.788 235.281,-397.89 242.438,-400.425"/>
<polygon fill="midnightblue" stroke="midnightblue" points="105.874,-249.044 98.1783,-241.762 99.653,-252.254 105.874,-249.044"/>
</g>
<!-- Node4 -->
<g id="node7" class="node"><title>Node4</title>
<a xlink:href="classBitSelectorParametersControlWidget.html" target="_top" xlink:title="BitSelectorParametersControlWidget">
<polygon fill="none" stroke="black" points="235.5,-360.5 235.5,-381.5 426.5,-381.5 426.5,-360.5 235.5,-360.5"/>
<text text-anchor="middle" x="331" y="-368.5" font-family="FreeSans.ttf" font-size="10.00">BitSelectorParametersControlWidget</text>
</a>
</g>
<!-- Node1&#45;&gt;Node4 -->
<g id="edge6" class="edge"><title>Node1&#45;&gt;Node4</title>
<path fill="none" stroke="midnightblue" d="M107.179,-249.705C128.782,-276.747 172.669,-326.228 222,-351 229.651,-354.842 237.936,-357.953 246.403,-360.47"/>
<polygon fill="midnightblue" stroke="midnightblue" points="109.89,-247.49 100.97,-241.773 104.378,-251.805 109.89,-247.49"/>
</g>
<!-- Node5 -->
<g id="node9" class="node"><title>Node5</title>
<a xlink:href="classCannyParametersControlWidget.html" target="_top" xlink:title="CannyParametersControlWidget">
<polygon fill="none" stroke="black" points="246.5,-320.5 246.5,-341.5 415.5,-341.5 415.5,-320.5 246.5,-320.5"/>
<text text-anchor="middle" x="331" y="-328.5" font-family="FreeSans.ttf" font-size="10.00">CannyParametersControlWidget</text>
</a>
</g>
<!-- Node1&#45;&gt;Node5 -->
<g id="edge8" class="edge"><title>Node1&#45;&gt;Node5</title>
<path fill="none" stroke="midnightblue" d="M114.641,-247.986C139.237,-266.408 181.272,-295.283 222,-311 231.962,-314.844 242.728,-317.962 253.48,-320.487"/>
<polygon fill="midnightblue" stroke="midnightblue" points="116.48,-244.987 106.403,-241.715 112.24,-250.557 116.48,-244.987"/>
</g>
<!-- Node6 -->
<g id="node11" class="node"><title>Node6</title>
<a xlink:href="classGainOffsetParametersControlWidget.html" target="_top" xlink:title="GainOffsetParametersControlWidget">
<polygon fill="none" stroke="black" points="236.5,-280.5 236.5,-301.5 425.5,-301.5 425.5,-280.5 236.5,-280.5"/>
<text text-anchor="middle" x="331" y="-288.5" font-family="FreeSans.ttf" font-size="10.00">GainOffsetParametersControlWidget</text>
</a>
</g>
<!-- Node1&#45;&gt;Node6 -->
<g id="edge10" class="edge"><title>Node1&#45;&gt;Node6</title>
<path fill="none" stroke="midnightblue" d="M133.08,-244.782C158.373,-253.14 191.848,-263.587 222,-271 236.293,-274.514 251.777,-277.714 266.464,-280.473"/>
<polygon fill="midnightblue" stroke="midnightblue" points="134.061,-241.419 123.468,-241.576 131.846,-248.06 134.061,-241.419"/>
</g>
<!-- Node7 -->
<g id="node13" class="node"><title>Node7</title>
<a xlink:href="classInputFilterParametersControlWidget.html" target="_top" xlink:title="InputFilterParametersControlWidget">
<polygon fill="none" stroke="black" points="238.5,-240.5 238.5,-261.5 423.5,-261.5 423.5,-240.5 238.5,-240.5"/>
<text text-anchor="middle" x="331" y="-248.5" font-family="FreeSans.ttf" font-size="10.00">InputFilterParametersControlWidget</text>
</a>
</g>
<!-- Node1&#45;&gt;Node7 -->
<g id="edge12" class="edge"><title>Node1&#45;&gt;Node7</title>
<path fill="none" stroke="midnightblue" d="M195.871,-239.645C209.93,-240.826 224.296,-242.033 238.163,-243.199"/>
<polygon fill="midnightblue" stroke="midnightblue" points="195.957,-236.14 185.699,-238.79 195.37,-243.115 195.957,-236.14"/>
</g>
<!-- Node8 -->
<g id="node15" class="node"><title>Node8</title>
<a xlink:href="classMaskingParametersControlWidget.html" target="_top" xlink:title="MaskingParametersControlWidget">
<polygon fill="none" stroke="black" points="242,-200.5 242,-221.5 420,-221.5 420,-200.5 242,-200.5"/>
<text text-anchor="middle" x="331" y="-208.5" font-family="FreeSans.ttf" font-size="10.00">MaskingParametersControlWidget</text>
</a>
</g>
<!-- Node1&#45;&gt;Node8 -->
<g id="edge14" class="edge"><title>Node1&#45;&gt;Node8</title>
<path fill="none" stroke="midnightblue" d="M195.694,-222.37C211.001,-221.084 226.675,-219.767 241.677,-218.506"/>
<polygon fill="midnightblue" stroke="midnightblue" points="195.37,-218.885 185.699,-223.21 195.957,-225.86 195.37,-218.885"/>
</g>
<!-- Node9 -->
<g id="node17" class="node"><title>Node9</title>
<a xlink:href="classOpenCVFilterParametersControlWidget.html" target="_top" xlink:title="OpenCVFilterParametersControlWidget">
<polygon fill="none" stroke="black" points="231,-160.5 231,-181.5 431,-181.5 431,-160.5 231,-160.5"/>
<text text-anchor="middle" x="331" y="-168.5" font-family="FreeSans.ttf" font-size="10.00">OpenCVFilterParametersControlWidget</text>
</a>
</g>
<!-- Node1&#45;&gt;Node9 -->
<g id="edge16" class="edge"><title>Node1&#45;&gt;Node9</title>
<path fill="none" stroke="midnightblue" d="M133.08,-217.218C158.373,-208.86 191.848,-198.413 222,-191 236.293,-187.486 251.777,-184.286 266.464,-181.527"/>
<polygon fill="midnightblue" stroke="midnightblue" points="131.846,-213.94 123.468,-220.424 134.061,-220.581 131.846,-213.94"/>
</g>
<!-- Node10 -->
<g id="node19" class="node"><title>Node10</title>
<a xlink:href="classOperationParametersControlWidget.html" target="_top" xlink:title="OperationParametersControlWidget">
<polygon fill="none" stroke="black" points="238,-120.5 238,-141.5 424,-141.5 424,-120.5 238,-120.5"/>
<text text-anchor="middle" x="331" y="-128.5" font-family="FreeSans.ttf" font-size="10.00">OperationParametersControlWidget</text>
</a>
</g>
<!-- Node1&#45;&gt;Node10 -->
<g id="edge18" class="edge"><title>Node1&#45;&gt;Node10</title>
<path fill="none" stroke="midnightblue" d="M114.641,-214.014C139.237,-195.592 181.272,-166.717 222,-151 231.962,-147.156 242.728,-144.038 253.48,-141.513"/>
<polygon fill="midnightblue" stroke="midnightblue" points="112.24,-211.443 106.403,-220.285 116.48,-217.013 112.24,-211.443"/>
</g>
<!-- Node11 -->
<g id="node21" class="node"><title>Node11</title>
<a xlink:href="classOutputFilterParametersControlWidget.html" target="_top" xlink:title="OutputFilterParametersControlWidget">
<polygon fill="none" stroke="black" points="234,-80.5 234,-101.5 428,-101.5 428,-80.5 234,-80.5"/>
<text text-anchor="middle" x="331" y="-88.5" font-family="FreeSans.ttf" font-size="10.00">OutputFilterParametersControlWidget</text>
</a>
</g>
<!-- Node1&#45;&gt;Node11 -->
<g id="edge20" class="edge"><title>Node1&#45;&gt;Node11</title>
<path fill="none" stroke="midnightblue" d="M107.179,-212.295C128.782,-185.253 172.669,-135.772 222,-111 229.651,-107.158 237.936,-104.047 246.403,-101.53"/>
<polygon fill="midnightblue" stroke="midnightblue" points="104.378,-210.195 100.97,-220.227 109.89,-214.51 104.378,-210.195"/>
</g>
<!-- Node12 -->
<g id="node23" class="node"><title>Node12</title>
<a xlink:href="classSobelParametersControlWidget.html" target="_top" xlink:title="SobelParametersControlWidget">
<polygon fill="none" stroke="black" points="248,-40.5 248,-61.5 414,-61.5 414,-40.5 248,-40.5"/>
<text text-anchor="middle" x="331" y="-48.5" font-family="FreeSans.ttf" font-size="10.00">SobelParametersControlWidget</text>
</a>
</g>
<!-- Node1&#45;&gt;Node12 -->
<g id="edge22" class="edge"><title>Node1&#45;&gt;Node12</title>
<path fill="none" stroke="midnightblue" d="M102.884,-211.117C121.213,-176.497 163.953,-105.548 222,-71 229.936,-66.2768 238.728,-62.6218 247.776,-59.8002"/>
<polygon fill="midnightblue" stroke="midnightblue" points="99.653,-209.746 98.1783,-220.238 105.874,-212.956 99.653,-209.746"/>
</g>
<!-- Node13 -->
<g id="node25" class="node"><title>Node13</title>
<a xlink:href="classThickeningParametersControlWidget.html" target="_top" xlink:title="ThickeningParametersControlWidget">
<polygon fill="none" stroke="black" points="236.5,-0.5 236.5,-21.5 425.5,-21.5 425.5,-0.5 236.5,-0.5"/>
<text text-anchor="middle" x="331" y="-8.5" font-family="FreeSans.ttf" font-size="10.00">ThickeningParametersControlWidget</text>
</a>
</g>
<!-- Node1&#45;&gt;Node13 -->
<g id="edge24" class="edge"><title>Node1&#45;&gt;Node13</title>
<path fill="none" stroke="midnightblue" d="M99.8582,-210.577C114.856,-169.293 154.713,-76.0235 222,-31 227.597,-27.2552 233.7,-24.1605 240.068,-21.6082"/>
<polygon fill="midnightblue" stroke="midnightblue" points="96.5215,-209.515 96.505,-220.11 103.125,-211.838 96.5215,-209.515"/>
</g>
</g>
</svg>
        <g id="navigator" transform="translate(0 0)" fill="#404254">
                <rect fill="#f2f5e9" fill-opacity="0.5" stroke="#606060" stroke-width=".5" x="0" y="0" width="60" height="60"/>
                <use id="zoomplus" xlink:href="#zoomPlus" x="17" y="9" onmousedown="handleZoom(evt,'in')"/>
                <use id="zoomminus" xlink:href="#zoomMin" x="42" y="9" onmousedown="handleZoom(evt,'out')"/>
                <use id="reset" xlink:href="#resetDef" x="30" y="36" onmousedown="handleReset()"/>
                <g id="arrowUp" xlink:href="#dirArrow" transform="translate(30 24)" onmousedown="handlePan(0,-1)">
                  <use xlink:href="#rim" fill="#404040">
                        <set attributeName="fill" to="#808080" begin="arrowUp.mouseover" end="arrowUp.mouseout"/>
                  </use>
                  <path fill="none" stroke="white" stroke-width="1.5" d="M0,-3.0v7 M-2.5,-0.5L0,-3.0L2.5,-0.5"/>
                </g>
                <g id="arrowRight" xlink:href="#dirArrow" transform="rotate(90) translate(36 -43)" onmousedown="handlePan(1,0)">
                  <use xlink:href="#rim" fill="#404040">
                        <set attributeName="fill" to="#808080" begin="arrowRight.mouseover" end="arrowRight.mouseout"/>
                  </use>
                  <path fill="none" stroke="white" stroke-width="1.5" d="M0,-3.0v7 M-2.5,-0.5L0,-3.0L2.5,-0.5"/>
                </g>
                <g id="arrowDown" xlink:href="#dirArrow" transform="rotate(180) translate(-30 -48)" onmousedown="handlePan(0,1)">
                  <use xlink:href="#rim" fill="#404040">
                        <set attributeName="fill" to="#808080" begin="arrowDown.mouseover" end="arrowDown.mouseout"/>
                  </use>
                  <path fill="none" stroke="white" stroke-width="1.5" d="M0,-3.0v7 M-2.5,-0.5L0,-3.0L2.5,-0.5"/>
                </g>
                <g id="arrowLeft" xlink:href="#dirArrow" transform="rotate(270) translate(-36 17)" onmousedown="handlePan(-1,0)">
                  <use xlink:href="#rim" fill="#404040">
                        <set attributeName="fill" to="#808080" begin="arrowLeft.mouseover" end="arrowLeft.mouseout"/>
                  </use>
                  <path fill="none" stroke="white" stroke-width="1.5" d="M0,-3.0v7 M-2.5,-0.5L0,-3.0L2.5,-0.5"/>
                </g>
        </g>
</svg>
