<?xml version="1.0" encoding="UTF-8" standalone="no"?>
<!DOCTYPE svg PUBLIC "-//W3C//DTD SVG 1.1//EN"
 "http://www.w3.org/Graphics/SVG/1.1/DTD/svg11.dtd">
<!-- Generated by graphviz version 2.26.3 (20100126.1600)
 -->
<!-- Title: G Pages: 1 -->
<svg width="332pt" height="70pt"
 viewBox="0.00 0.00 332.00 70.00" xmlns="http://www.w3.org/2000/svg" xmlns:xlink="http://www.w3.org/1999/xlink">
<g id="graph1" class="graph" transform="scale(1 1) rotate(0) translate(4 66)">
<title>G</title>
<!-- Node1 -->
<g id="node1" class="node"><title>Node1</title>
<polygon fill="#bfbfbf" stroke="black" points="0.5,-20.5 0.5,-41.5 173.5,-41.5 173.5,-20.5 0.5,-20.5"/>
<text text-anchor="middle" x="87" y="-28.5" font-family="FreeSans.ttf" font-size="10.00">corecvs::Matrix33::mulBy2dRight</text>
</g>
<!-- Node2 -->
<g id="node3" class="node"><title>Node2</title>
<a xlink:href="classcorecvs_1_1Vector2d.html#a944721c41f044c1388d9dc42ca899bce" target="_top" xlink:title="corecvs::Vector2d::x">
<polygon fill="none" stroke="black" points="210.5,-40.5 210.5,-61.5 323.5,-61.5 323.5,-40.5 210.5,-40.5"/>
<text text-anchor="middle" x="267" y="-48.5" font-family="FreeSans.ttf" font-size="10.00">corecvs::Vector2d::x</text>
</a>
</g>
<!-- Node1&#45;&gt;Node2 -->
<g id="edge2" class="edge"><title>Node1&#45;&gt;Node2</title>
<path fill="none" stroke="midnightblue" d="M173.573,-40.6192C182.571,-41.619 191.615,-42.6239 200.344,-43.5937"/>
<polygon fill="midnightblue" stroke="midnightblue" points="200.099,-47.088 210.425,-44.7138 200.872,-40.1308 200.099,-47.088"/>
</g>
<!-- Node3 -->
<g id="node5" class="node"><title>Node3</title>
<a xlink:href="classcorecvs_1_1Vector2d.html#ae1ea2ad4c0821001408bf963cffa8413" target="_top" xlink:title="corecvs::Vector2d::y">
<polygon fill="none" stroke="black" points="210.5,-0.5 210.5,-21.5 323.5,-21.5 323.5,-0.5 210.5,-0.5"/>
<text text-anchor="middle" x="267" y="-8.5" font-family="FreeSans.ttf" font-size="10.00">corecvs::Vector2d::y</text>
</a>
</g>
<!-- Node1&#45;&gt;Node3 -->
<g id="edge4" class="edge"><title>Node1&#45;&gt;Node3</title>
<path fill="none" stroke="midnightblue" d="M173.573,-21.3808C182.571,-20.381 191.615,-19.3761 200.344,-18.4063"/>
<polygon fill="midnightblue" stroke="midnightblue" points="200.872,-21.8692 210.425,-17.2862 200.099,-14.912 200.872,-21.8692"/>
</g>
</g>
</svg>
