<?xml version="1.0" encoding="UTF-8" standalone="no"?>
<!DOCTYPE svg PUBLIC "-//W3C//DTD SVG 1.1//EN"
 "http://www.w3.org/Graphics/SVG/1.1/DTD/svg11.dtd">
<!-- Generated by graphviz version 2.26.3 (20100126.1600)
 -->
<!-- Title: G Pages: 1 -->
<!--zoomable 238 -->
<svg id="main" version="1.1" xmlns="http://www.w3.org/2000/svg" xmlns:xlink="http://www.w3.org/1999/xlink" xml:space="preserve" onload="init(evt)">
        <defs>
                <circle id="rim" cx="0" cy="0" r="7"/>
                <circle id="rim2" cx="0" cy="0" r="3.5"/>
                <g id="zoomPlus">
                        <use xlink:href="#rim" fill="#404040">
                                <set attributeName="fill" to="#808080" begin="zoomplus.mouseover" end="zoomplus.mouseout"/>
                        </use>
                        <path d="M-4,0h8M0,-4v8" fill="none" stroke="white" stroke-width="1.5" pointer-events="none"/>
                </g>
                <g id="zoomMin">
                        <use xlink:href="#rim" fill="#404040">
                                <set attributeName="fill" to="#808080" begin="zoomminus.mouseover" end="zoomminus.mouseout"/>
                        </use>
                        <path d="M-4,0h8" fill="none" stroke="white" stroke-width="1.5" pointer-events="none"/>
                </g>
                <g id="dirArrow">
                        <path fill="none" stroke="white" stroke-width="1.5" d="M0,-3.0v7 M-2.5,-0.5L0,-3.0L2.5,-0.5"/>
                </g>
               <g id="resetDef">
                       <use xlink:href="#rim2" fill="#404040">
                               <set attributeName="fill" to="#808080" begin="reset.mouseover" end="reset.mouseout"/>
                       </use>
               </g>
        </defs>

<script type="text/javascript">
var viewWidth = 2028;
var viewHeight = 238;
var sectionId = 'dynsection-1';
</script>
<script xlink:href="svgpan.js"/>
<svg id="graph" class="graph">
<g id="viewport">
<title>G</title>
<!-- Node1 -->
<g id="node1" class="node"><title>Node1</title>
<polygon fill="#bfbfbf" stroke="black" points="1862,-182.5 1862,-203.5 2020,-203.5 2020,-182.5 1862,-182.5"/>
<text text-anchor="middle" x="1941" y="-190.5" font-family="FreeSans.ttf" font-size="10.00">corecvs::RadiusCorrectionLUT</text>
</g>
<!-- Node2 -->
<g id="node2" class="node"><title>Node2</title>
<a xlink:href="classcorecvs_1_1GenericRadiusDeformer.html" target="_top" xlink:title="corecvs::GenericRadiusDeformer">
<polygon fill="none" stroke="black" points="1615.5,-199.5 1615.5,-220.5 1788.5,-220.5 1788.5,-199.5 1615.5,-199.5"/>
<text text-anchor="middle" x="1702" y="-207.5" font-family="FreeSans.ttf" font-size="10.00">corecvs::GenericRadiusDeformer</text>
</a>
</g>
<!-- Node2&#45;&gt;Node1 -->
<g id="edge2" class="edge"><title>Node2&#45;&gt;Node1</title>
<path fill="none" stroke="midnightblue" d="M1798.81,-203.114C1819.75,-201.625 1841.65,-200.067 1861.82,-198.632"/>
<polygon fill="midnightblue" stroke="midnightblue" points="1798.35,-199.638 1788.62,-203.839 1798.85,-206.62 1798.35,-199.638"/>
</g>
<!-- Node3 -->
<g id="node4" class="node"><title>Node3</title>
<polygon fill="none" stroke="#bfbfbf" points="1632.5,-159.5 1632.5,-180.5 1771.5,-180.5 1771.5,-159.5 1632.5,-159.5"/>
<text text-anchor="middle" x="1702" y="-167.5" font-family="FreeSans.ttf" font-size="10.00">std::vector&lt; Vector2dd &gt;</text>
</g>
<!-- Node3&#45;&gt;Node1 -->
<g id="edge4" class="edge"><title>Node3&#45;&gt;Node1</title>
<path fill="none" stroke="#9a32cd" stroke-dasharray="5,2" d="M1781.87,-176.346C1802.15,-178.068 1823.89,-180.01 1844,-182 1849.82,-182.576 1855.83,-183.196 1861.88,-183.838"/>
<polygon fill="#9a32cd" stroke="#9a32cd" points="1781.99,-172.844 1771.73,-175.493 1781.4,-179.819 1781.99,-172.844"/>
<text text-anchor="middle" x="1833" y="-186" font-family="FreeSans.ttf" font-size="10.00"> LUT</text>
</g>
<!-- Node4 -->
<g id="node6" class="node"><title>Node4</title>
<a xlink:href="classcorecvs_1_1Vector2d.html" target="_top" xlink:title="corecvs::Vector2d\&lt; ElementType \&gt;">
<polygon fill="none" stroke="black" points="1328.5,-159.5 1328.5,-180.5 1513.5,-180.5 1513.5,-159.5 1328.5,-159.5"/>
<text text-anchor="middle" x="1421" y="-167.5" font-family="FreeSans.ttf" font-size="10.00">corecvs::Vector2d&lt; ElementType &gt;</text>
</a>
</g>
<!-- Node4&#45;&gt;Node3 -->
<g id="edge6" class="edge"><title>Node4&#45;&gt;Node3</title>
<path fill="none" stroke="#9a32cd" stroke-dasharray="5,2" d="M1523.88,-170C1560,-170 1599.72,-170 1632.46,-170"/>
<polygon fill="#9a32cd" stroke="#9a32cd" points="1523.79,-166.5 1513.79,-170 1523.79,-173.5 1523.79,-166.5"/>
<text text-anchor="middle" x="1557" y="-174" font-family="FreeSans.ttf" font-size="10.00"> elements</text>
</g>
<!-- Node5 -->
<g id="node8" class="node"><title>Node5</title>
<a xlink:href="classcorecvs_1_1FixedVectorBase.html" target="_top" xlink:title="corecvs::FixedVectorBase\&lt; Vector2d\&lt; ElementType \&gt;, ElementType, 2 \&gt;">
<polygon fill="none" stroke="black" points="870.5,-169.5 870.5,-190.5 1235.5,-190.5 1235.5,-169.5 870.5,-169.5"/>
<text text-anchor="middle" x="1053" y="-177.5" font-family="FreeSans.ttf" font-size="10.00">corecvs::FixedVectorBase&lt; Vector2d&lt; ElementType &gt;, ElementType, 2 &gt;</text>
</a>
</g>
<!-- Node5&#45;&gt;Node4 -->
<g id="edge8" class="edge"><title>Node5&#45;&gt;Node4</title>
<path fill="none" stroke="midnightblue" d="M1245.82,-174.76C1274.54,-173.98 1302.97,-173.207 1328.31,-172.519"/>
<polygon fill="midnightblue" stroke="midnightblue" points="1245.55,-171.266 1235.65,-175.037 1245.74,-178.264 1245.55,-171.266"/>
</g>
<!-- Node6 -->
<g id="node10" class="node"><title>Node6</title>
<a xlink:href="classcorecvs_1_1VectorOperationsBase.html" target="_top" xlink:title="corecvs::VectorOperationsBase\&lt; Vector2d\&lt; ElementType \&gt;, ElementType \&gt;">
<polygon fill="none" stroke="black" points="402,-208.5 402,-229.5 784,-229.5 784,-208.5 402,-208.5"/>
<text text-anchor="middle" x="593" y="-216.5" font-family="FreeSans.ttf" font-size="10.00">corecvs::VectorOperationsBase&lt; Vector2d&lt; ElementType &gt;, ElementType &gt;</text>
</a>
</g>
<!-- Node6&#45;&gt;Node5 -->
<g id="edge10" class="edge"><title>Node6&#45;&gt;Node5</title>
<path fill="none" stroke="midnightblue" d="M727.001,-207.639C790.746,-202.235 866.481,-195.814 928.902,-190.521"/>
<polygon fill="midnightblue" stroke="midnightblue" points="726.545,-204.165 716.877,-208.497 727.137,-211.14 726.545,-204.165"/>
</g>
<!-- Node7 -->
<g id="node12" class="node"><title>Node7</title>
<polygon fill="none" stroke="#bfbfbf" points="554.5,-168.5 554.5,-189.5 631.5,-189.5 631.5,-168.5 554.5,-168.5"/>
<text text-anchor="middle" x="593" y="-176.5" font-family="FreeSans.ttf" font-size="10.00">ElementType</text>
</g>
<!-- Node7&#45;&gt;Node5 -->
<g id="edge12" class="edge"><title>Node7&#45;&gt;Node5</title>
<path fill="none" stroke="#9a32cd" stroke-dasharray="5,2" d="M641.876,-179.106C696.306,-179.225 787.533,-179.423 870.242,-179.603"/>
<polygon fill="#9a32cd" stroke="#9a32cd" points="641.831,-175.606 631.823,-179.084 641.815,-182.606 641.831,-175.606"/>
<text text-anchor="middle" x="827" y="-183" font-family="FreeSans.ttf" font-size="10.00"> element</text>
</g>
<!-- Node8 -->
<g id="node14" class="node"><title>Node8</title>
<a xlink:href="classcorecvs_1_1Reflection.html" target="_top" xlink:title="corecvs::Reflection">
<polygon fill="none" stroke="black" points="1000.5,-108.5 1000.5,-129.5 1105.5,-129.5 1105.5,-108.5 1000.5,-108.5"/>
<text text-anchor="middle" x="1053" y="-116.5" font-family="FreeSans.ttf" font-size="10.00">corecvs::Reflection</text>
</a>
</g>
<!-- Node8&#45;&gt;Node4 -->
<g id="edge14" class="edge"><title>Node8&#45;&gt;Node4</title>
<path fill="none" stroke="#9a32cd" stroke-dasharray="5,2" d="M1115.99,-127.729C1179.42,-136.521 1277.34,-150.09 1345.04,-159.473"/>
<polygon fill="#9a32cd" stroke="#9a32cd" points="1116.11,-124.213 1105.73,-126.307 1115.15,-131.147 1116.11,-124.213"/>
<text text-anchor="middle" x="1282" y="-157" font-family="FreeSans.ttf" font-size="10.00"> reflect</text>
</g>
<!-- Node13 -->
<g id="node25" class="node"><title>Node13</title>
<a xlink:href="classcorecvs_1_1EmbedSubclass.html" target="_top" xlink:title="corecvs::EmbedSubclass">
<polygon fill="none" stroke="black" points="1353,-54.5 1353,-75.5 1489,-75.5 1489,-54.5 1353,-54.5"/>
<text text-anchor="middle" x="1421" y="-62.5" font-family="FreeSans.ttf" font-size="10.00">corecvs::EmbedSubclass</text>
</a>
</g>
<!-- Node8&#45;&gt;Node13 -->
<g id="edge28" class="edge"><title>Node8&#45;&gt;Node13</title>
<path fill="none" stroke="#9a32cd" stroke-dasharray="5,2" d="M1115.97,-109.76C1181.84,-100.094 1284.92,-84.9686 1352.72,-75.0201"/>
<polygon fill="#9a32cd" stroke="#9a32cd" points="1115.11,-106.348 1105.73,-111.263 1116.13,-113.274 1115.11,-106.348"/>
<text text-anchor="middle" x="1282" y="-92" font-family="FreeSans.ttf" font-size="10.00"> subclass</text>
</g>
<!-- Node9 -->
<g id="node16" class="node"><title>Node9</title>
<polygon fill="none" stroke="#bfbfbf" points="506.5,-89.5 506.5,-110.5 679.5,-110.5 679.5,-89.5 506.5,-89.5"/>
<text text-anchor="middle" x="593" y="-97.5" font-family="FreeSans.ttf" font-size="10.00">std::vector&lt; const BaseField * &gt;</text>
</g>
<!-- Node9&#45;&gt;Node8 -->
<g id="edge16" class="edge"><title>Node9&#45;&gt;Node8</title>
<path fill="none" stroke="#9a32cd" stroke-dasharray="5,2" d="M689.666,-103.993C784.183,-107.897 924.587,-113.696 1000.2,-116.819"/>
<polygon fill="#9a32cd" stroke="#9a32cd" points="689.658,-100.49 679.522,-103.574 689.369,-107.484 689.658,-100.49"/>
<text text-anchor="middle" x="827" y="-114" font-family="FreeSans.ttf" font-size="10.00"> fields</text>
</g>
<!-- Node10 -->
<g id="node18" class="node"><title>Node10</title>
<a xlink:href="classcorecvs_1_1BaseField.html" target="_top" xlink:title="This class is a core class for the reflection.">
<polygon fill="none" stroke="black" points="212,-89.5 212,-110.5 316,-110.5 316,-89.5 212,-89.5"/>
<text text-anchor="middle" x="264" y="-97.5" font-family="FreeSans.ttf" font-size="10.00">corecvs::BaseField</text>
</a>
</g>
<!-- Node10&#45;&gt;Node9 -->
<g id="edge18" class="edge"><title>Node10&#45;&gt;Node9</title>
<path fill="none" stroke="#9a32cd" stroke-dasharray="5,2" d="M326.325,-100C377.194,-100 449.645,-100 506.194,-100"/>
<polygon fill="#9a32cd" stroke="#9a32cd" points="326.131,-96.5001 316.131,-100 326.131,-103.5 326.131,-96.5001"/>
<text text-anchor="middle" x="359" y="-104" font-family="FreeSans.ttf" font-size="10.00"> elements</text>
</g>
<!-- Node11 -->
<g id="node20" class="node"><title>Node11</title>
<a xlink:href="classcorecvs_1_1ReflectionNaming.html" target="_top" xlink:title="We have several styles of nameing.">
<polygon fill="none" stroke="black" points="0.5,-89.5 0.5,-110.5 143.5,-110.5 143.5,-89.5 0.5,-89.5"/>
<text text-anchor="middle" x="72" y="-97.5" font-family="FreeSans.ttf" font-size="10.00">corecvs::ReflectionNaming</text>
</a>
</g>
<!-- Node11&#45;&gt;Node8 -->
<g id="edge22" class="edge"><title>Node11&#45;&gt;Node8</title>
<path fill="none" stroke="#9a32cd" stroke-dasharray="5,2" d="M131.743,-112.381C141.809,-114.152 152.177,-115.783 162,-117 184.093,-119.738 189.751,-119.239 212,-120 496.287,-129.727 567.579,-129.244 852,-125 902.267,-124.25 959.581,-122.445 1000.11,-121.01"/>
<polygon fill="#9a32cd" stroke="#9a32cd" points="132.273,-108.92 121.808,-110.574 131.02,-115.807 132.273,-108.92"/>
<text text-anchor="middle" x="359" y="-129" font-family="FreeSans.ttf" font-size="10.00"> name</text>
</g>
<!-- Node11&#45;&gt;Node10 -->
<g id="edge20" class="edge"><title>Node11&#45;&gt;Node10</title>
<path fill="none" stroke="#9a32cd" stroke-dasharray="5,2" d="M153.931,-100C173.541,-100 193.952,-100 211.795,-100"/>
<polygon fill="#9a32cd" stroke="#9a32cd" points="153.767,-96.5001 143.767,-100 153.767,-103.5 153.767,-96.5001"/>
<text text-anchor="middle" x="178" y="-104" font-family="FreeSans.ttf" font-size="10.00"> name</text>
</g>
<!-- Node11&#45;&gt;Node13 -->
<g id="edge30" class="edge"><title>Node11&#45;&gt;Node13</title>
<path fill="none" stroke="#9a32cd" stroke-dasharray="5,2" d="M111.246,-86.2222C149.671,-73.9765 210.125,-58 264,-58 264,-58 264,-58 1053,-58 1157.64,-58 1278.98,-60.8641 1352.84,-62.9282"/>
<polygon fill="#9a32cd" stroke="#9a32cd" points="109.916,-82.9745 101.493,-89.4016 112.086,-89.6297 109.916,-82.9745"/>
<text text-anchor="middle" x="593" y="-62" font-family="FreeSans.ttf" font-size="10.00"> name</text>
</g>
<!-- Node12 -->
<g id="node23" class="node"><title>Node12</title>
<polygon fill="none" stroke="#bfbfbf" points="1600,-88.5 1600,-109.5 1804,-109.5 1804,-88.5 1600,-88.5"/>
<text text-anchor="middle" x="1702" y="-96.5" font-family="FreeSans.ttf" font-size="10.00">std::vector&lt; const EmbedSubclass * &gt;</text>
</g>
<!-- Node12&#45;&gt;Node8 -->
<g id="edge24" class="edge"><title>Node12&#45;&gt;Node8</title>
<path fill="none" stroke="#9a32cd" stroke-dasharray="5,2" d="M1589.82,-102.457C1448.24,-106.82 1210.55,-114.145 1105.56,-117.38"/>
<polygon fill="#9a32cd" stroke="#9a32cd" points="1589.96,-105.955 1599.85,-102.148 1589.74,-98.9578 1589.96,-105.955"/>
<text text-anchor="middle" x="1421" y="-114" font-family="FreeSans.ttf" font-size="10.00"> embeds</text>
</g>
<!-- Node13&#45;&gt;Node12 -->
<g id="edge26" class="edge"><title>Node13&#45;&gt;Node12</title>
<path fill="none" stroke="#9a32cd" stroke-dasharray="5,2" d="M1499,-74.4383C1535.08,-78.8037 1578.07,-84.0046 1615.17,-88.4943"/>
<polygon fill="#9a32cd" stroke="#9a32cd" points="1499.37,-70.9571 1489.02,-73.2305 1498.53,-77.9064 1499.37,-70.9571"/>
<text text-anchor="middle" x="1557" y="-88" font-family="FreeSans.ttf" font-size="10.00"> elements</text>
</g>
<!-- Node14 -->
<g id="node29" class="node"><title>Node14</title>
<polygon fill="none" stroke="#bfbfbf" points="981,-4.5 981,-25.5 1125,-25.5 1125,-4.5 981,-4.5"/>
<text text-anchor="middle" x="1053" y="-12.5" font-family="FreeSans.ttf" font-size="10.00">std::vector&lt; EmbedMap &gt;</text>
</g>
<!-- Node14&#45;&gt;Node13 -->
<g id="edge32" class="edge"><title>Node14&#45;&gt;Node13</title>
<path fill="none" stroke="#9a32cd" stroke-dasharray="5,2" d="M1135.53,-15.2254C1186.22,-16.5755 1252.29,-20.5157 1310,-31 1338.95,-36.2595 1370.98,-46.5786 1393.17,-54.4755"/>
<polygon fill="#9a32cd" stroke="#9a32cd" points="1135.36,-11.7204 1125.28,-14.9819 1135.19,-18.7185 1135.36,-11.7204"/>
<text text-anchor="middle" x="1282" y="-35" font-family="FreeSans.ttf" font-size="10.00"> renameing</text>
</g>
<!-- Node15 -->
<g id="node31" class="node"><title>Node15</title>
<a xlink:href="structcorecvs_1_1EmbedSubclass_1_1EmbedMap.html" target="_top" xlink:title="corecvs::EmbedSubclass::EmbedMap">
<polygon fill="none" stroke="black" points="495,-0.5 495,-21.5 691,-21.5 691,-0.5 495,-0.5"/>
<text text-anchor="middle" x="593" y="-8.5" font-family="FreeSans.ttf" font-size="10.00">corecvs::EmbedSubclass::EmbedMap</text>
</a>
</g>
<!-- Node15&#45;&gt;Node14 -->
<g id="edge34" class="edge"><title>Node15&#45;&gt;Node14</title>
<path fill="none" stroke="#9a32cd" stroke-dasharray="5,2" d="M701.212,-11.941C787.507,-12.6914 905.947,-13.7213 980.981,-14.3738"/>
<polygon fill="#9a32cd" stroke="#9a32cd" points="701.147,-8.44038 691.117,-11.8532 701.086,-15.4401 701.147,-8.44038"/>
<text text-anchor="middle" x="827" y="-18" font-family="FreeSans.ttf" font-size="10.00"> elements</text>
</g>
</g>
</svg>
        <g id="navigator" transform="translate(0 0)" fill="#404254">
                <rect fill="#f2f5e9" fill-opacity="0.5" stroke="#606060" stroke-width=".5" x="0" y="0" width="60" height="60"/>
                <use id="zoomplus" xlink:href="#zoomPlus" x="17" y="9" onmousedown="handleZoom(evt,'in')"/>
                <use id="zoomminus" xlink:href="#zoomMin" x="42" y="9" onmousedown="handleZoom(evt,'out')"/>
                <use id="reset" xlink:href="#resetDef" x="30" y="36" onmousedown="handleReset()"/>
                <g id="arrowUp" xlink:href="#dirArrow" transform="translate(30 24)" onmousedown="handlePan(0,-1)">
                  <use xlink:href="#rim" fill="#404040">
                        <set attributeName="fill" to="#808080" begin="arrowUp.mouseover" end="arrowUp.mouseout"/>
                  </use>
                  <path fill="none" stroke="white" stroke-width="1.5" d="M0,-3.0v7 M-2.5,-0.5L0,-3.0L2.5,-0.5"/>
                </g>
                <g id="arrowRight" xlink:href="#dirArrow" transform="rotate(90) translate(36 -43)" onmousedown="handlePan(1,0)">
                  <use xlink:href="#rim" fill="#404040">
                        <set attributeName="fill" to="#808080" begin="arrowRight.mouseover" end="arrowRight.mouseout"/>
                  </use>
                  <path fill="none" stroke="white" stroke-width="1.5" d="M0,-3.0v7 M-2.5,-0.5L0,-3.0L2.5,-0.5"/>
                </g>
                <g id="arrowDown" xlink:href="#dirArrow" transform="rotate(180) translate(-30 -48)" onmousedown="handlePan(0,1)">
                  <use xlink:href="#rim" fill="#404040">
                        <set attributeName="fill" to="#808080" begin="arrowDown.mouseover" end="arrowDown.mouseout"/>
                  </use>
                  <path fill="none" stroke="white" stroke-width="1.5" d="M0,-3.0v7 M-2.5,-0.5L0,-3.0L2.5,-0.5"/>
                </g>
                <g id="arrowLeft" xlink:href="#dirArrow" transform="rotate(270) translate(-36 17)" onmousedown="handlePan(-1,0)">
                  <use xlink:href="#rim" fill="#404040">
                        <set attributeName="fill" to="#808080" begin="arrowLeft.mouseover" end="arrowLeft.mouseout"/>
                  </use>
                  <path fill="none" stroke="white" stroke-width="1.5" d="M0,-3.0v7 M-2.5,-0.5L0,-3.0L2.5,-0.5"/>
                </g>
        </g>
</svg>
