<?xml version="1.0" encoding="UTF-8" standalone="no"?>
<!DOCTYPE svg PUBLIC "-//W3C//DTD SVG 1.1//EN"
 "http://www.w3.org/Graphics/SVG/1.1/DTD/svg11.dtd">
<!-- Generated by graphviz version 2.26.3 (20100126.1600)
 -->
<!-- Title: G Pages: 1 -->
<!--zoomable 150 -->
<svg id="main" version="1.1" xmlns="http://www.w3.org/2000/svg" xmlns:xlink="http://www.w3.org/1999/xlink" xml:space="preserve" onload="init(evt)">
        <defs>
                <circle id="rim" cx="0" cy="0" r="7"/>
                <circle id="rim2" cx="0" cy="0" r="3.5"/>
                <g id="zoomPlus">
                        <use xlink:href="#rim" fill="#404040">
                                <set attributeName="fill" to="#808080" begin="zoomplus.mouseover" end="zoomplus.mouseout"/>
                        </use>
                        <path d="M-4,0h8M0,-4v8" fill="none" stroke="white" stroke-width="1.5" pointer-events="none"/>
                </g>
                <g id="zoomMin">
                        <use xlink:href="#rim" fill="#404040">
                                <set attributeName="fill" to="#808080" begin="zoomminus.mouseover" end="zoomminus.mouseout"/>
                        </use>
                        <path d="M-4,0h8" fill="none" stroke="white" stroke-width="1.5" pointer-events="none"/>
                </g>
                <g id="dirArrow">
                        <path fill="none" stroke="white" stroke-width="1.5" d="M0,-3.0v7 M-2.5,-0.5L0,-3.0L2.5,-0.5"/>
                </g>
               <g id="resetDef">
                       <use xlink:href="#rim2" fill="#404040">
                               <set attributeName="fill" to="#808080" begin="reset.mouseover" end="reset.mouseout"/>
                       </use>
               </g>
        </defs>

<script type="text/javascript">
var viewWidth = 628;
var viewHeight = 150;
var sectionId = 'dynsection-2';
</script>
<script xlink:href="svgpan.js"/>
<svg id="graph" class="graph">
<g id="viewport">
<title>G</title>
<!-- Node1 -->
<g id="node1" class="node"><title>Node1</title>
<polygon fill="#bfbfbf" stroke="black" points="0.5,-60.5 0.5,-81.5 217.5,-81.5 217.5,-60.5 0.5,-60.5"/>
<text text-anchor="middle" x="109" y="-68.5" font-family="FreeSans.ttf" font-size="10.00">tinyxml2::XMLDocument::~XMLDocument</text>
</g>
<!-- Node2 -->
<g id="node3" class="node"><title>Node2</title>
<a xlink:href="classtinyxml2_1_1MemPoolT.html#a56be11b7db6a7ef00db17088a7769aab" target="_top" xlink:title="tinyxml2::MemPoolT::CurrentAllocs">
<polygon fill="none" stroke="black" points="256,-120.5 256,-141.5 438,-141.5 438,-120.5 256,-120.5"/>
<text text-anchor="middle" x="347" y="-128.5" font-family="FreeSans.ttf" font-size="10.00">tinyxml2::MemPoolT::CurrentAllocs</text>
</a>
</g>
<!-- Node1&#45;&gt;Node2 -->
<g id="edge2" class="edge"><title>Node1&#45;&gt;Node2</title>
<path fill="none" stroke="midnightblue" d="M144.901,-81.521C174.153,-89.9443 216.591,-101.826 254,-111 264.089,-113.474 274.834,-115.94 285.304,-118.252"/>
<polygon fill="midnightblue" stroke="midnightblue" points="284.712,-121.705 295.228,-120.417 286.204,-114.866 284.712,-121.705"/>
</g>
<!-- Node3 -->
<g id="node5" class="node"><title>Node3</title>
<a xlink:href="classtinyxml2_1_1XMLNode.html#a0360085cc54df5bff85d5c5da13afdce" target="_top" xlink:title="Delete all the children of this node.">
<polygon fill="none" stroke="black" points="254.5,-80.5 254.5,-101.5 439.5,-101.5 439.5,-80.5 254.5,-80.5"/>
<text text-anchor="middle" x="347" y="-88.5" font-family="FreeSans.ttf" font-size="10.00">tinyxml2::XMLNode::DeleteChildren</text>
</a>
</g>
<!-- Node1&#45;&gt;Node3 -->
<g id="edge4" class="edge"><title>Node1&#45;&gt;Node3</title>
<path fill="none" stroke="midnightblue" d="M217.553,-80.1221C226.365,-80.8626 235.253,-81.6095 244.024,-82.3465"/>
<polygon fill="midnightblue" stroke="midnightblue" points="243.996,-85.8564 254.254,-83.2062 244.582,-78.881 243.996,-85.8564"/>
</g>
<!-- Node5 -->
<g id="node9" class="node"><title>Node5</title>
<a xlink:href="classtinyxml2_1_1XMLDocument.html#abf0f9ac4c3aa5698a785937f71f7a69f" target="_top" xlink:title="Return true if there was an error parsing the document.">
<polygon fill="none" stroke="black" points="266,-40.5 266,-61.5 428,-61.5 428,-40.5 266,-40.5"/>
<text text-anchor="middle" x="347" y="-48.5" font-family="FreeSans.ttf" font-size="10.00">tinyxml2::XMLDocument::Error</text>
</a>
</g>
<!-- Node1&#45;&gt;Node5 -->
<g id="edge8" class="edge"><title>Node1&#45;&gt;Node5</title>
<path fill="none" stroke="midnightblue" d="M217.553,-61.8779C230.196,-60.8155 242.997,-59.7397 255.38,-58.6991"/>
<polygon fill="midnightblue" stroke="midnightblue" points="255.999,-62.1595 265.671,-57.8344 255.413,-55.1841 255.999,-62.1595"/>
</g>
<!-- Node6 -->
<g id="node11" class="node"><title>Node6</title>
<a xlink:href="classtinyxml2_1_1MemPoolT.html#a524b90d0edeac41964c06510757dce0f" target="_top" xlink:title="tinyxml2::MemPoolT::Untracked">
<polygon fill="none" stroke="black" points="263.5,-0.5 263.5,-21.5 430.5,-21.5 430.5,-0.5 263.5,-0.5"/>
<text text-anchor="middle" x="347" y="-8.5" font-family="FreeSans.ttf" font-size="10.00">tinyxml2::MemPoolT::Untracked</text>
</a>
</g>
<!-- Node1&#45;&gt;Node6 -->
<g id="edge10" class="edge"><title>Node1&#45;&gt;Node6</title>
<path fill="none" stroke="midnightblue" d="M144.901,-60.479C174.153,-52.0557 216.591,-40.1744 254,-31 264.089,-28.5258 274.834,-26.0601 285.304,-23.748"/>
<polygon fill="midnightblue" stroke="midnightblue" points="286.204,-27.1342 295.228,-21.5831 284.712,-20.295 286.204,-27.1342"/>
</g>
<!-- Node4 -->
<g id="node7" class="node"><title>Node4</title>
<a xlink:href="classtinyxml2_1_1XMLNode.html#a9546e242b6a4f232415befb1cfe0fdd4" target="_top" xlink:title="tinyxml2::XMLNode::Unlink">
<polygon fill="none" stroke="black" points="476.5,-80.5 476.5,-101.5 619.5,-101.5 619.5,-80.5 476.5,-80.5"/>
<text text-anchor="middle" x="548" y="-88.5" font-family="FreeSans.ttf" font-size="10.00">tinyxml2::XMLNode::Unlink</text>
</a>
</g>
<!-- Node3&#45;&gt;Node4 -->
<g id="edge6" class="edge"><title>Node3&#45;&gt;Node4</title>
<path fill="none" stroke="midnightblue" d="M439.558,-91C448.444,-91 457.414,-91 466.187,-91"/>
<polygon fill="midnightblue" stroke="midnightblue" points="466.379,-94.5001 476.379,-91 466.379,-87.5001 466.379,-94.5001"/>
</g>
</g>
</svg>
        <g id="navigator" transform="translate(0 0)" fill="#404254">
                <rect fill="#f2f5e9" fill-opacity="0.5" stroke="#606060" stroke-width=".5" x="0" y="0" width="60" height="60"/>
                <use id="zoomplus" xlink:href="#zoomPlus" x="17" y="9" onmousedown="handleZoom(evt,'in')"/>
                <use id="zoomminus" xlink:href="#zoomMin" x="42" y="9" onmousedown="handleZoom(evt,'out')"/>
                <use id="reset" xlink:href="#resetDef" x="30" y="36" onmousedown="handleReset()"/>
                <g id="arrowUp" xlink:href="#dirArrow" transform="translate(30 24)" onmousedown="handlePan(0,-1)">
                  <use xlink:href="#rim" fill="#404040">
                        <set attributeName="fill" to="#808080" begin="arrowUp.mouseover" end="arrowUp.mouseout"/>
                  </use>
                  <path fill="none" stroke="white" stroke-width="1.5" d="M0,-3.0v7 M-2.5,-0.5L0,-3.0L2.5,-0.5"/>
                </g>
                <g id="arrowRight" xlink:href="#dirArrow" transform="rotate(90) translate(36 -43)" onmousedown="handlePan(1,0)">
                  <use xlink:href="#rim" fill="#404040">
                        <set attributeName="fill" to="#808080" begin="arrowRight.mouseover" end="arrowRight.mouseout"/>
                  </use>
                  <path fill="none" stroke="white" stroke-width="1.5" d="M0,-3.0v7 M-2.5,-0.5L0,-3.0L2.5,-0.5"/>
                </g>
                <g id="arrowDown" xlink:href="#dirArrow" transform="rotate(180) translate(-30 -48)" onmousedown="handlePan(0,1)">
                  <use xlink:href="#rim" fill="#404040">
                        <set attributeName="fill" to="#808080" begin="arrowDown.mouseover" end="arrowDown.mouseout"/>
                  </use>
                  <path fill="none" stroke="white" stroke-width="1.5" d="M0,-3.0v7 M-2.5,-0.5L0,-3.0L2.5,-0.5"/>
                </g>
                <g id="arrowLeft" xlink:href="#dirArrow" transform="rotate(270) translate(-36 17)" onmousedown="handlePan(-1,0)">
                  <use xlink:href="#rim" fill="#404040">
                        <set attributeName="fill" to="#808080" begin="arrowLeft.mouseover" end="arrowLeft.mouseout"/>
                  </use>
                  <path fill="none" stroke="white" stroke-width="1.5" d="M0,-3.0v7 M-2.5,-0.5L0,-3.0L2.5,-0.5"/>
                </g>
        </g>
</svg>
