<?xml version="1.0" encoding="UTF-8" standalone="no"?>
<!DOCTYPE svg PUBLIC "-//W3C//DTD SVG 1.1//EN"
 "http://www.w3.org/Graphics/SVG/1.1/DTD/svg11.dtd">
<!-- Generated by graphviz version 2.26.3 (20100126.1600)
 -->
<!-- Title: G Pages: 1 -->
<!--zoomable 308 -->
<svg id="main" version="1.1" xmlns="http://www.w3.org/2000/svg" xmlns:xlink="http://www.w3.org/1999/xlink" xml:space="preserve" onload="init(evt)">
        <defs>
                <circle id="rim" cx="0" cy="0" r="7"/>
                <circle id="rim2" cx="0" cy="0" r="3.5"/>
                <g id="zoomPlus">
                        <use xlink:href="#rim" fill="#404040">
                                <set attributeName="fill" to="#808080" begin="zoomplus.mouseover" end="zoomplus.mouseout"/>
                        </use>
                        <path d="M-4,0h8M0,-4v8" fill="none" stroke="white" stroke-width="1.5" pointer-events="none"/>
                </g>
                <g id="zoomMin">
                        <use xlink:href="#rim" fill="#404040">
                                <set attributeName="fill" to="#808080" begin="zoomminus.mouseover" end="zoomminus.mouseout"/>
                        </use>
                        <path d="M-4,0h8" fill="none" stroke="white" stroke-width="1.5" pointer-events="none"/>
                </g>
                <g id="dirArrow">
                        <path fill="none" stroke="white" stroke-width="1.5" d="M0,-3.0v7 M-2.5,-0.5L0,-3.0L2.5,-0.5"/>
                </g>
               <g id="resetDef">
                       <use xlink:href="#rim2" fill="#404040">
                               <set attributeName="fill" to="#808080" begin="reset.mouseover" end="reset.mouseout"/>
                       </use>
               </g>
        </defs>

<script type="text/javascript">
var viewWidth = 600;
var viewHeight = 308;
var sectionId = 'dynsection-9';
</script>
<script xlink:href="svgpan.js"/>
<svg id="graph" class="graph">
<g id="viewport">
<title>G</title>
<!-- Node1 -->
<g id="node1" class="node"><title>Node1</title>
<polygon fill="#bfbfbf" stroke="black" points="0,-158.5 0,-179.5 134,-179.5 134,-158.5 0,-158.5"/>
<text text-anchor="middle" x="67" y="-166.5" font-family="FreeSans.ttf" font-size="10.00">corecvs::FlowBuffer::load</text>
</g>
<!-- Node2 -->
<g id="node3" class="node"><title>Node2</title>
<a xlink:href="classcorecvs_1_1AbstractBuffer.html#a98f72526738a0c4ce8a0b72a3b5c28b9" target="_top" xlink:title="The element getter.">
<polygon fill="none" stroke="black" points="418,-80.5 418,-101.5 592,-101.5 592,-80.5 418,-80.5"/>
<text text-anchor="middle" x="505" y="-88.5" font-family="FreeSans.ttf" font-size="10.00">corecvs::AbstractBuffer::element</text>
</a>
</g>
<!-- Node1&#45;&gt;Node2 -->
<g id="edge2" class="edge"><title>Node1&#45;&gt;Node2</title>
<path fill="none" stroke="midnightblue" d="M80.3463,-158.383C99.102,-144.16 134.906,-119.495 170,-109 247.493,-85.8266 339.491,-82.4979 407.454,-84.303"/>
<polygon fill="midnightblue" stroke="midnightblue" points="407.622,-87.8097 417.725,-84.6196 407.838,-80.813 407.622,-87.8097"/>
</g>
<!-- Node3 -->
<g id="node5" class="node"><title>Node3</title>
<a xlink:href="classcorecvs_1_1FlowBuffer.html#af895bb6e3bafcd2a52ce900cce21d264" target="_top" xlink:title="corecvs::FlowBuffer::FlowBuffer">
<polygon fill="none" stroke="black" points="194.5,-238.5 194.5,-259.5 357.5,-259.5 357.5,-238.5 194.5,-238.5"/>
<text text-anchor="middle" x="276" y="-246.5" font-family="FreeSans.ttf" font-size="10.00">corecvs::FlowBuffer::FlowBuffer</text>
</a>
</g>
<!-- Node1&#45;&gt;Node3 -->
<g id="edge4" class="edge"><title>Node1&#45;&gt;Node3</title>
<path fill="none" stroke="midnightblue" d="M81.5487,-179.651C100.803,-193.22 136.261,-216.417 170,-229 177.218,-231.692 184.852,-234.035 192.584,-236.072"/>
<polygon fill="midnightblue" stroke="midnightblue" points="191.858,-239.498 202.405,-238.492 193.532,-232.701 191.858,-239.498"/>
</g>
<!-- Node4 -->
<g id="node7" class="node"><title>Node4</title>
<a xlink:href="classcorecvs_1_1AbstractBuffer.html#ac9b5c7ae6adbc2d21b3d5fd7813992f6" target="_top" xlink:title="Height getter.">
<polygon fill="none" stroke="black" points="197,-198.5 197,-219.5 355,-219.5 355,-198.5 197,-198.5"/>
<text text-anchor="middle" x="276" y="-206.5" font-family="FreeSans.ttf" font-size="10.00">corecvs::AbstractBuffer::getH</text>
</a>
</g>
<!-- Node1&#45;&gt;Node4 -->
<g id="edge6" class="edge"><title>Node1&#45;&gt;Node4</title>
<path fill="none" stroke="midnightblue" d="M120.98,-179.538C136.776,-182.606 154.077,-185.952 170,-189 182.898,-191.469 196.684,-194.086 209.903,-196.585"/>
<polygon fill="midnightblue" stroke="midnightblue" points="209.402,-200.052 219.878,-198.468 210.701,-193.174 209.402,-200.052"/>
</g>
<!-- Node5 -->
<g id="node9" class="node"><title>Node5</title>
<a xlink:href="classcorecvs_1_1AbstractBuffer.html#a014b2b876125245234f7fcb13c6d02e9" target="_top" xlink:title="Width getter.">
<polygon fill="none" stroke="black" points="197,-158.5 197,-179.5 355,-179.5 355,-158.5 197,-158.5"/>
<text text-anchor="middle" x="276" y="-166.5" font-family="FreeSans.ttf" font-size="10.00">corecvs::AbstractBuffer::getW</text>
</a>
</g>
<!-- Node1&#45;&gt;Node5 -->
<g id="edge8" class="edge"><title>Node1&#45;&gt;Node5</title>
<path fill="none" stroke="midnightblue" d="M134.279,-169C150.938,-169 169.048,-169 186.58,-169"/>
<polygon fill="midnightblue" stroke="midnightblue" points="186.821,-172.5 196.821,-169 186.821,-165.5 186.821,-172.5"/>
</g>
<!-- Node6 -->
<g id="node11" class="node"><title>Node6</title>
<a xlink:href="classcorecvs_1_1AbstractBuffer.html#af38950daefa219f81a0e89ee186075f1" target="_top" xlink:title="Checks if coordinate lies within the buffer area.">
<polygon fill="none" stroke="black" points="179.5,-118.5 179.5,-139.5 372.5,-139.5 372.5,-118.5 179.5,-118.5"/>
<text text-anchor="middle" x="276" y="-126.5" font-family="FreeSans.ttf" font-size="10.00">corecvs::AbstractBuffer::isValidCoord</text>
</a>
</g>
<!-- Node1&#45;&gt;Node6 -->
<g id="edge10" class="edge"><title>Node1&#45;&gt;Node6</title>
<path fill="none" stroke="midnightblue" d="M120.98,-158.462C136.776,-155.394 154.077,-152.048 170,-149 182.898,-146.531 196.684,-143.914 209.903,-141.415"/>
<polygon fill="midnightblue" stroke="midnightblue" points="210.701,-144.826 219.878,-139.532 209.402,-137.948 210.701,-144.826"/>
</g>
<!-- Node7 -->
<g id="node13" class="node"><title>Node7</title>
<a xlink:href="classcorecvs_1_1AbstractBufferParams.html#aeb4700e605ab656937deb7d76963aa62" target="_top" xlink:title="corecvs::AbstractBufferParams::read">
<polygon fill="none" stroke="black" points="180,-278.5 180,-299.5 372,-299.5 372,-278.5 180,-278.5"/>
<text text-anchor="middle" x="276" y="-286.5" font-family="FreeSans.ttf" font-size="10.00">corecvs::AbstractBufferParams::read</text>
</a>
</g>
<!-- Node1&#45;&gt;Node7 -->
<g id="edge12" class="edge"><title>Node1&#45;&gt;Node7</title>
<path fill="none" stroke="midnightblue" d="M74.4091,-179.515C89.6785,-200.313 126.859,-246.62 170,-269 174.508,-271.339 179.25,-273.406 184.126,-275.234"/>
<polygon fill="midnightblue" stroke="midnightblue" points="183.049,-278.564 193.643,-278.461 185.297,-271.935 183.049,-278.564"/>
</g>
<!-- Node9 -->
<g id="node17" class="node"><title>Node9</title>
<a xlink:href="classcorecvs_1_1FlowBuffer.html#a5c6f557e279c61c878cbcf45d79ae794" target="_top" xlink:title="corecvs::FlowBuffer::setElementUnknown">
<polygon fill="none" stroke="black" points="170,-40.5 170,-61.5 382,-61.5 382,-40.5 170,-40.5"/>
<text text-anchor="middle" x="276" y="-48.5" font-family="FreeSans.ttf" font-size="10.00">corecvs::FlowBuffer::setElementUnknown</text>
</a>
</g>
<!-- Node1&#45;&gt;Node9 -->
<g id="edge16" class="edge"><title>Node1&#45;&gt;Node9</title>
<path fill="none" stroke="midnightblue" d="M75.4127,-158.497C91.5797,-139.055 129.034,-97.4846 170,-76 179.009,-71.275 188.914,-67.4318 198.94,-64.3085"/>
<polygon fill="midnightblue" stroke="midnightblue" points="199.927,-67.6664 208.564,-61.5293 197.985,-60.9412 199.927,-67.6664"/>
</g>
<!-- Node8 -->
<g id="node15" class="node"><title>Node8</title>
<a xlink:href="namespacecorecvs.html#a039a46b832cb32b1e742f20942bd2018" target="_top" xlink:title="corecvs::read_integer_bin">
<polygon fill="none" stroke="black" points="435,-278.5 435,-299.5 575,-299.5 575,-278.5 435,-278.5"/>
<text text-anchor="middle" x="505" y="-286.5" font-family="FreeSans.ttf" font-size="10.00">corecvs::read_integer_bin</text>
</a>
</g>
<!-- Node7&#45;&gt;Node8 -->
<g id="edge14" class="edge"><title>Node7&#45;&gt;Node8</title>
<path fill="none" stroke="midnightblue" d="M372.121,-289C389.555,-289 407.573,-289 424.501,-289"/>
<polygon fill="midnightblue" stroke="midnightblue" points="424.885,-292.5 434.885,-289 424.885,-285.5 424.885,-292.5"/>
</g>
<!-- Node9&#45;&gt;Node2 -->
<g id="edge18" class="edge"><title>Node9&#45;&gt;Node2</title>
<path fill="none" stroke="midnightblue" d="M336.167,-61.5095C366.42,-66.7938 403.26,-73.2289 434.799,-78.7378"/>
<polygon fill="midnightblue" stroke="midnightblue" points="434.385,-82.2183 444.838,-80.4913 435.589,-75.3227 434.385,-82.2183"/>
</g>
<!-- Node10 -->
<g id="node20" class="node"><title>Node10</title>
<a xlink:href="classcorecvs_1_1Vector2d.html#a944721c41f044c1388d9dc42ca899bce" target="_top" xlink:title="corecvs::Vector2d::x">
<polygon fill="none" stroke="black" points="448.5,-40.5 448.5,-61.5 561.5,-61.5 561.5,-40.5 448.5,-40.5"/>
<text text-anchor="middle" x="505" y="-48.5" font-family="FreeSans.ttf" font-size="10.00">corecvs::Vector2d::x</text>
</a>
</g>
<!-- Node9&#45;&gt;Node10 -->
<g id="edge20" class="edge"><title>Node9&#45;&gt;Node10</title>
<path fill="none" stroke="midnightblue" d="M382.12,-51C401.192,-51 420.575,-51 438.138,-51"/>
<polygon fill="midnightblue" stroke="midnightblue" points="438.253,-54.5001 448.253,-51 438.252,-47.5001 438.253,-54.5001"/>
</g>
<!-- Node11 -->
<g id="node22" class="node"><title>Node11</title>
<a xlink:href="classcorecvs_1_1Vector2d.html#ae1ea2ad4c0821001408bf963cffa8413" target="_top" xlink:title="corecvs::Vector2d::y">
<polygon fill="none" stroke="black" points="448.5,-0.5 448.5,-21.5 561.5,-21.5 561.5,-0.5 448.5,-0.5"/>
<text text-anchor="middle" x="505" y="-8.5" font-family="FreeSans.ttf" font-size="10.00">corecvs::Vector2d::y</text>
</a>
</g>
<!-- Node9&#45;&gt;Node11 -->
<g id="edge22" class="edge"><title>Node9&#45;&gt;Node11</title>
<path fill="none" stroke="midnightblue" d="M336.167,-40.4905C367.496,-35.0182 405.89,-28.3119 438.144,-22.6779"/>
<polygon fill="midnightblue" stroke="midnightblue" points="439.135,-26.0578 448.384,-20.8892 437.931,-19.1622 439.135,-26.0578"/>
</g>
</g>
</svg>
        <g id="navigator" transform="translate(0 0)" fill="#404254">
                <rect fill="#f2f5e9" fill-opacity="0.5" stroke="#606060" stroke-width=".5" x="0" y="0" width="60" height="60"/>
                <use id="zoomplus" xlink:href="#zoomPlus" x="17" y="9" onmousedown="handleZoom(evt,'in')"/>
                <use id="zoomminus" xlink:href="#zoomMin" x="42" y="9" onmousedown="handleZoom(evt,'out')"/>
                <use id="reset" xlink:href="#resetDef" x="30" y="36" onmousedown="handleReset()"/>
                <g id="arrowUp" xlink:href="#dirArrow" transform="translate(30 24)" onmousedown="handlePan(0,-1)">
                  <use xlink:href="#rim" fill="#404040">
                        <set attributeName="fill" to="#808080" begin="arrowUp.mouseover" end="arrowUp.mouseout"/>
                  </use>
                  <path fill="none" stroke="white" stroke-width="1.5" d="M0,-3.0v7 M-2.5,-0.5L0,-3.0L2.5,-0.5"/>
                </g>
                <g id="arrowRight" xlink:href="#dirArrow" transform="rotate(90) translate(36 -43)" onmousedown="handlePan(1,0)">
                  <use xlink:href="#rim" fill="#404040">
                        <set attributeName="fill" to="#808080" begin="arrowRight.mouseover" end="arrowRight.mouseout"/>
                  </use>
                  <path fill="none" stroke="white" stroke-width="1.5" d="M0,-3.0v7 M-2.5,-0.5L0,-3.0L2.5,-0.5"/>
                </g>
                <g id="arrowDown" xlink:href="#dirArrow" transform="rotate(180) translate(-30 -48)" onmousedown="handlePan(0,1)">
                  <use xlink:href="#rim" fill="#404040">
                        <set attributeName="fill" to="#808080" begin="arrowDown.mouseover" end="arrowDown.mouseout"/>
                  </use>
                  <path fill="none" stroke="white" stroke-width="1.5" d="M0,-3.0v7 M-2.5,-0.5L0,-3.0L2.5,-0.5"/>
                </g>
                <g id="arrowLeft" xlink:href="#dirArrow" transform="rotate(270) translate(-36 17)" onmousedown="handlePan(-1,0)">
                  <use xlink:href="#rim" fill="#404040">
                        <set attributeName="fill" to="#808080" begin="arrowLeft.mouseover" end="arrowLeft.mouseout"/>
                  </use>
                  <path fill="none" stroke="white" stroke-width="1.5" d="M0,-3.0v7 M-2.5,-0.5L0,-3.0L2.5,-0.5"/>
                </g>
        </g>
</svg>
