<?xml version="1.0" encoding="UTF-8" standalone="no"?>
<!DOCTYPE svg PUBLIC "-//W3C//DTD SVG 1.1//EN"
 "http://www.w3.org/Graphics/SVG/1.1/DTD/svg11.dtd">
<!-- Generated by graphviz version 2.26.3 (20100126.1600)
 -->
<!-- Title: G Pages: 1 -->
<!--zoomable 228 -->
<svg id="main" version="1.1" xmlns="http://www.w3.org/2000/svg" xmlns:xlink="http://www.w3.org/1999/xlink" xml:space="preserve" onload="init(evt)">
        <defs>
                <circle id="rim" cx="0" cy="0" r="7"/>
                <circle id="rim2" cx="0" cy="0" r="3.5"/>
                <g id="zoomPlus">
                        <use xlink:href="#rim" fill="#404040">
                                <set attributeName="fill" to="#808080" begin="zoomplus.mouseover" end="zoomplus.mouseout"/>
                        </use>
                        <path d="M-4,0h8M0,-4v8" fill="none" stroke="white" stroke-width="1.5" pointer-events="none"/>
                </g>
                <g id="zoomMin">
                        <use xlink:href="#rim" fill="#404040">
                                <set attributeName="fill" to="#808080" begin="zoomminus.mouseover" end="zoomminus.mouseout"/>
                        </use>
                        <path d="M-4,0h8" fill="none" stroke="white" stroke-width="1.5" pointer-events="none"/>
                </g>
                <g id="dirArrow">
                        <path fill="none" stroke="white" stroke-width="1.5" d="M0,-3.0v7 M-2.5,-0.5L0,-3.0L2.5,-0.5"/>
                </g>
               <g id="resetDef">
                       <use xlink:href="#rim2" fill="#404040">
                               <set attributeName="fill" to="#808080" begin="reset.mouseover" end="reset.mouseout"/>
                       </use>
               </g>
        </defs>

<script type="text/javascript">
var viewWidth = 1242;
var viewHeight = 228;
var sectionId = 'dynsection-8';
</script>
<script xlink:href="svgpan.js"/>
<svg id="graph" class="graph">
<g id="viewport">
<title>G</title>
<!-- Node1 -->
<g id="node1" class="node"><title>Node1</title>
<polygon fill="#bfbfbf" stroke="black" points="0,-99.5 0,-120.5 170,-120.5 170,-99.5 0,-99.5"/>
<text text-anchor="middle" x="85" y="-107.5" font-family="FreeSans.ttf" font-size="10.00">corecvs::DeserializerVisitor::visit</text>
</g>
<!-- Node2 -->
<g id="node3" class="node"><title>Node2</title>
<a xlink:href="classtinyxml2_1_1XMLNode.html#a20f48e99b03e9c17487944f229bee130" target="_top" xlink:title="Get the first child element, or optionally the first child element with the specified name...">
<polygon fill="none" stroke="black" points="431.5,-139.5 431.5,-160.5 628.5,-160.5 628.5,-139.5 431.5,-139.5"/>
<text text-anchor="middle" x="530" y="-147.5" font-family="FreeSans.ttf" font-size="10.00">tinyxml2::XMLNode::FirstChildElement</text>
</a>
</g>
<!-- Node1&#45;&gt;Node2 -->
<g id="edge2" class="edge"><title>Node1&#45;&gt;Node2</title>
<path fill="none" stroke="midnightblue" d="M170.011,-117.641C241.354,-124.054 343.714,-133.255 421.06,-140.208"/>
<polygon fill="midnightblue" stroke="midnightblue" points="421.048,-143.721 431.321,-141.13 421.675,-136.749 421.048,-143.721"/>
</g>
<!-- Node8 -->
<g id="node15" class="node"><title>Node8</title>
<a xlink:href="classtinyxml2_1_1XMLElement.html#af86f05771c11a73a2896b662bb589ef5" target="_top" xlink:title="Given an attribute name, IntAttribute() returns the value of the attribute interpreted as an integer...">
<polygon fill="none" stroke="black" points="206,-80.5 206,-101.5 388,-101.5 388,-80.5 206,-80.5"/>
<text text-anchor="middle" x="297" y="-88.5" font-family="FreeSans.ttf" font-size="10.00">tinyxml2::XMLElement::IntAttribute</text>
</a>
</g>
<!-- Node1&#45;&gt;Node8 -->
<g id="edge14" class="edge"><title>Node1&#45;&gt;Node8</title>
<path fill="none" stroke="midnightblue" d="M170.007,-102.381C178.452,-101.625 187.083,-100.851 195.672,-100.081"/>
<polygon fill="midnightblue" stroke="midnightblue" points="196.075,-103.559 205.723,-99.1805 195.451,-96.5872 196.075,-103.559"/>
</g>
<!-- Node3 -->
<g id="node5" class="node"><title>Node3</title>
<a xlink:href="classtinyxml2_1_1XMLElement.html#ad9ff5c2dbc15df36cf664ce1b0ea0a5d" target="_top" xlink:title="Safely cast to an Element, or null.">
<polygon fill="none" stroke="black" points="682,-158.5 682,-179.5 860,-179.5 860,-158.5 682,-158.5"/>
<text text-anchor="middle" x="771" y="-166.5" font-family="FreeSans.ttf" font-size="10.00">tinyxml2::XMLElement::ToElement</text>
</a>
</g>
<!-- Node2&#45;&gt;Node3 -->
<g id="edge4" class="edge"><title>Node2&#45;&gt;Node3</title>
<path fill="none" stroke="midnightblue" d="M628.719,-157.783C642.841,-158.896 657.375,-160.042 671.511,-161.156"/>
<polygon fill="midnightblue" stroke="midnightblue" points="671.478,-164.665 681.722,-161.961 672.028,-157.686 671.478,-164.665"/>
</g>
<!-- Node4 -->
<g id="node7" class="node"><title>Node4</title>
<a xlink:href="classtinyxml2_1_1XMLUtil.html#acfcd287cacfd2533e1bc9ea4dfb56602" target="_top" xlink:title="tinyxml2::XMLUtil::StringEqual">
<polygon fill="none" stroke="black" points="907,-120.5 907,-141.5 1065,-141.5 1065,-120.5 907,-120.5"/>
<text text-anchor="middle" x="986" y="-128.5" font-family="FreeSans.ttf" font-size="10.00">tinyxml2::XMLUtil::StringEqual</text>
</a>
</g>
<!-- Node2&#45;&gt;Node4 -->
<g id="edge6" class="edge"><title>Node2&#45;&gt;Node4</title>
<path fill="none" stroke="midnightblue" d="M628.664,-145.889C708.364,-142.568 819.569,-137.935 896.666,-134.722"/>
<polygon fill="midnightblue" stroke="midnightblue" points="896.993,-138.212 906.838,-134.298 896.701,-131.218 896.993,-138.212"/>
</g>
<!-- Node5 -->
<g id="node9" class="node"><title>Node5</title>
<a xlink:href="classtinyxml2_1_1XMLElement.html#a8bff355472bce2c60d4b50a212bf7f5f" target="_top" xlink:title="Get the name of an element (which is the Value() of the node.)">
<polygon fill="none" stroke="black" points="692,-198.5 692,-219.5 850,-219.5 850,-198.5 692,-198.5"/>
<text text-anchor="middle" x="771" y="-206.5" font-family="FreeSans.ttf" font-size="10.00">tinyxml2::XMLElement::Name</text>
</a>
</g>
<!-- Node2&#45;&gt;Node5 -->
<g id="edge8" class="edge"><title>Node2&#45;&gt;Node5</title>
<path fill="none" stroke="midnightblue" d="M565.716,-160.542C594.327,-168.808 635.564,-180.327 672,-189 682.709,-191.549 694.12,-194.051 705.244,-196.375"/>
<polygon fill="midnightblue" stroke="midnightblue" points="704.851,-199.867 715.351,-198.456 706.262,-193.011 704.851,-199.867"/>
</g>
<!-- Node6 -->
<g id="node11" class="node"><title>Node6</title>
<a xlink:href="classtinyxml2_1_1XMLNode.html#a7682be117e3b2b4ebfd517c1acaaadbf" target="_top" xlink:title="The meaning of &#39;value&#39; changes for the specific type.">
<polygon fill="none" stroke="black" points="916,-179.5 916,-200.5 1056,-200.5 1056,-179.5 916,-179.5"/>
<text text-anchor="middle" x="986" y="-187.5" font-family="FreeSans.ttf" font-size="10.00">tinyxml2::XMLNode::Value</text>
</a>
</g>
<!-- Node5&#45;&gt;Node6 -->
<g id="edge10" class="edge"><title>Node5&#45;&gt;Node6</title>
<path fill="none" stroke="midnightblue" d="M850.142,-202.006C868.327,-200.399 887.677,-198.689 905.902,-197.078"/>
<polygon fill="midnightblue" stroke="midnightblue" points="906.243,-200.562 915.896,-196.195 905.627,-193.589 906.243,-200.562"/>
</g>
<!-- Node7 -->
<g id="node13" class="node"><title>Node7</title>
<a xlink:href="classtinyxml2_1_1StrPair.html#ad87e3d11330f5e689ba1e7e54c023b57" target="_top" xlink:title="tinyxml2::StrPair::GetStr">
<polygon fill="none" stroke="black" points="1102,-80.5 1102,-101.5 1234,-101.5 1234,-80.5 1102,-80.5"/>
<text text-anchor="middle" x="1168" y="-88.5" font-family="FreeSans.ttf" font-size="10.00">tinyxml2::StrPair::GetStr</text>
</a>
</g>
<!-- Node6&#45;&gt;Node7 -->
<g id="edge12" class="edge"><title>Node6&#45;&gt;Node7</title>
<path fill="none" stroke="midnightblue" d="M1009,-179.373C1025.12,-171.783 1047.08,-161.158 1066,-151 1092.37,-136.843 1121.76,-119.368 1142.19,-106.935"/>
<polygon fill="midnightblue" stroke="midnightblue" points="1144.2,-109.81 1150.91,-101.608 1140.55,-103.838 1144.2,-109.81"/>
</g>
<!-- Node9 -->
<g id="node17" class="node"><title>Node9</title>
<a xlink:href="classtinyxml2_1_1XMLElement.html#a8b92c729346aa8ea9acd59ed3e9f2378" target="_top" xlink:title="Given an attribute name, QueryIntAttribute() returns XML_NO_ERROR, XML_WRONG_ATTRIBUTE_TYPE if the co...">
<polygon fill="none" stroke="black" points="424.5,-80.5 424.5,-101.5 635.5,-101.5 635.5,-80.5 424.5,-80.5"/>
<text text-anchor="middle" x="530" y="-88.5" font-family="FreeSans.ttf" font-size="10.00">tinyxml2::XMLElement::QueryIntAttribute</text>
</a>
</g>
<!-- Node8&#45;&gt;Node9 -->
<g id="edge16" class="edge"><title>Node8&#45;&gt;Node9</title>
<path fill="none" stroke="midnightblue" d="M388.085,-91C396.617,-91 405.339,-91 414.058,-91"/>
<polygon fill="midnightblue" stroke="midnightblue" points="414.28,-94.5001 424.279,-91 414.279,-87.5001 414.28,-94.5001"/>
</g>
<!-- Node10 -->
<g id="node19" class="node"><title>Node10</title>
<a xlink:href="classtinyxml2_1_1XMLElement.html#aaf46b0799ea419e5d070ac9a357de48f" target="_top" xlink:title="Query a specific attribute in the list.">
<polygon fill="none" stroke="black" points="676.5,-80.5 676.5,-101.5 865.5,-101.5 865.5,-80.5 676.5,-80.5"/>
<text text-anchor="middle" x="771" y="-88.5" font-family="FreeSans.ttf" font-size="10.00">tinyxml2::XMLElement::FindAttribute</text>
</a>
</g>
<!-- Node9&#45;&gt;Node10 -->
<g id="edge18" class="edge"><title>Node9&#45;&gt;Node10</title>
<path fill="none" stroke="midnightblue" d="M635.706,-91C645.855,-91 656.147,-91 666.287,-91"/>
<polygon fill="midnightblue" stroke="midnightblue" points="666.365,-94.5001 676.365,-91 666.365,-87.5001 666.365,-94.5001"/>
</g>
<!-- Node12 -->
<g id="node25" class="node"><title>Node12</title>
<a xlink:href="classtinyxml2_1_1XMLAttribute.html#ad510a83c4ff2755844bb250b125d28ff" target="_top" xlink:title="QueryIntAttribute interprets the attribute as an integer, and returns the value in the provided parem...">
<polygon fill="none" stroke="black" points="672.5,-40.5 672.5,-61.5 869.5,-61.5 869.5,-40.5 672.5,-40.5"/>
<text text-anchor="middle" x="771" y="-48.5" font-family="FreeSans.ttf" font-size="10.00">tinyxml2::XMLAttribute::QueryIntValue</text>
</a>
</g>
<!-- Node9&#45;&gt;Node12 -->
<g id="edge26" class="edge"><title>Node9&#45;&gt;Node12</title>
<path fill="none" stroke="midnightblue" d="M593.32,-80.4905C625.296,-75.1833 664.265,-68.7154 697.551,-63.1907"/>
<polygon fill="midnightblue" stroke="midnightblue" points="698.393,-66.5989 707.685,-61.5087 697.247,-59.6934 698.393,-66.5989"/>
</g>
<!-- Node10&#45;&gt;Node4 -->
<g id="edge20" class="edge"><title>Node10&#45;&gt;Node4</title>
<path fill="none" stroke="midnightblue" d="M827.489,-101.51C855.646,-106.748 889.882,-113.118 919.321,-118.595"/>
<polygon fill="midnightblue" stroke="midnightblue" points="919.044,-122.103 929.516,-120.491 920.325,-115.221 919.044,-122.103"/>
</g>
<!-- Node11 -->
<g id="node22" class="node"><title>Node11</title>
<a xlink:href="classtinyxml2_1_1XMLAttribute.html#a631990ac0d176e38fc291b17b295a62d" target="_top" xlink:title="The name of the attribute.">
<polygon fill="none" stroke="black" points="906,-80.5 906,-101.5 1066,-101.5 1066,-80.5 906,-80.5"/>
<text text-anchor="middle" x="986" y="-88.5" font-family="FreeSans.ttf" font-size="10.00">tinyxml2::XMLAttribute::Name</text>
</a>
</g>
<!-- Node10&#45;&gt;Node11 -->
<g id="edge22" class="edge"><title>Node10&#45;&gt;Node11</title>
<path fill="none" stroke="midnightblue" d="M865.615,-91C875.565,-91 885.665,-91 895.566,-91"/>
<polygon fill="midnightblue" stroke="midnightblue" points="895.798,-94.5001 905.798,-91 895.798,-87.5001 895.798,-94.5001"/>
</g>
<!-- Node11&#45;&gt;Node7 -->
<g id="edge24" class="edge"><title>Node11&#45;&gt;Node7</title>
<path fill="none" stroke="midnightblue" d="M1066.09,-91C1074.57,-91 1083.17,-91 1091.6,-91"/>
<polygon fill="midnightblue" stroke="midnightblue" points="1091.78,-94.5001 1101.78,-91 1091.78,-87.5001 1091.78,-94.5001"/>
</g>
<!-- Node13 -->
<g id="node27" class="node"><title>Node13</title>
<a xlink:href="classtinyxml2_1_1XMLUtil.html#ad4df4023d11ee3fca9689c49b9707323" target="_top" xlink:title="tinyxml2::XMLUtil::ToInt">
<polygon fill="none" stroke="black" points="923.5,-0.5 923.5,-21.5 1048.5,-21.5 1048.5,-0.5 923.5,-0.5"/>
<text text-anchor="middle" x="986" y="-8.5" font-family="FreeSans.ttf" font-size="10.00">tinyxml2::XMLUtil::ToInt</text>
</a>
</g>
<!-- Node12&#45;&gt;Node13 -->
<g id="edge28" class="edge"><title>Node12&#45;&gt;Node13</title>
<path fill="none" stroke="midnightblue" d="M827.489,-40.4905C855.646,-35.2519 889.882,-28.8825 919.321,-23.4055"/>
<polygon fill="midnightblue" stroke="midnightblue" points="920.325,-26.7788 929.516,-21.5087 919.044,-19.8969 920.325,-26.7788"/>
</g>
<!-- Node14 -->
<g id="node29" class="node"><title>Node14</title>
<a xlink:href="classtinyxml2_1_1XMLAttribute.html#adf884db24f469f8a99a14ae786d4ddd7" target="_top" xlink:title="The value of the attribute.">
<polygon fill="none" stroke="black" points="907.5,-40.5 907.5,-61.5 1064.5,-61.5 1064.5,-40.5 907.5,-40.5"/>
<text text-anchor="middle" x="986" y="-48.5" font-family="FreeSans.ttf" font-size="10.00">tinyxml2::XMLAttribute::Value</text>
</a>
</g>
<!-- Node12&#45;&gt;Node14 -->
<g id="edge30" class="edge"><title>Node12&#45;&gt;Node14</title>
<path fill="none" stroke="midnightblue" d="M869.69,-51C878.834,-51 888.063,-51 897.11,-51"/>
<polygon fill="midnightblue" stroke="midnightblue" points="897.234,-54.5001 907.234,-51 897.234,-47.5001 897.234,-54.5001"/>
</g>
<!-- Node14&#45;&gt;Node7 -->
<g id="edge32" class="edge"><title>Node14&#45;&gt;Node7</title>
<path fill="none" stroke="midnightblue" d="M1033.82,-61.5095C1057.24,-66.6566 1085.62,-72.8954 1110.25,-78.3067"/>
<polygon fill="midnightblue" stroke="midnightblue" points="1109.67,-81.7631 1120.19,-80.4913 1111.17,-74.9262 1109.67,-81.7631"/>
</g>
</g>
</svg>
        <g id="navigator" transform="translate(0 0)" fill="#404254">
                <rect fill="#f2f5e9" fill-opacity="0.5" stroke="#606060" stroke-width=".5" x="0" y="0" width="60" height="60"/>
                <use id="zoomplus" xlink:href="#zoomPlus" x="17" y="9" onmousedown="handleZoom(evt,'in')"/>
                <use id="zoomminus" xlink:href="#zoomMin" x="42" y="9" onmousedown="handleZoom(evt,'out')"/>
                <use id="reset" xlink:href="#resetDef" x="30" y="36" onmousedown="handleReset()"/>
                <g id="arrowUp" xlink:href="#dirArrow" transform="translate(30 24)" onmousedown="handlePan(0,-1)">
                  <use xlink:href="#rim" fill="#404040">
                        <set attributeName="fill" to="#808080" begin="arrowUp.mouseover" end="arrowUp.mouseout"/>
                  </use>
                  <path fill="none" stroke="white" stroke-width="1.5" d="M0,-3.0v7 M-2.5,-0.5L0,-3.0L2.5,-0.5"/>
                </g>
                <g id="arrowRight" xlink:href="#dirArrow" transform="rotate(90) translate(36 -43)" onmousedown="handlePan(1,0)">
                  <use xlink:href="#rim" fill="#404040">
                        <set attributeName="fill" to="#808080" begin="arrowRight.mouseover" end="arrowRight.mouseout"/>
                  </use>
                  <path fill="none" stroke="white" stroke-width="1.5" d="M0,-3.0v7 M-2.5,-0.5L0,-3.0L2.5,-0.5"/>
                </g>
                <g id="arrowDown" xlink:href="#dirArrow" transform="rotate(180) translate(-30 -48)" onmousedown="handlePan(0,1)">
                  <use xlink:href="#rim" fill="#404040">
                        <set attributeName="fill" to="#808080" begin="arrowDown.mouseover" end="arrowDown.mouseout"/>
                  </use>
                  <path fill="none" stroke="white" stroke-width="1.5" d="M0,-3.0v7 M-2.5,-0.5L0,-3.0L2.5,-0.5"/>
                </g>
                <g id="arrowLeft" xlink:href="#dirArrow" transform="rotate(270) translate(-36 17)" onmousedown="handlePan(-1,0)">
                  <use xlink:href="#rim" fill="#404040">
                        <set attributeName="fill" to="#808080" begin="arrowLeft.mouseover" end="arrowLeft.mouseout"/>
                  </use>
                  <path fill="none" stroke="white" stroke-width="1.5" d="M0,-3.0v7 M-2.5,-0.5L0,-3.0L2.5,-0.5"/>
                </g>
        </g>
</svg>
