<?xml version="1.0" encoding="UTF-8" standalone="no"?>
<!DOCTYPE svg PUBLIC "-//W3C//DTD SVG 1.1//EN"
 "http://www.w3.org/Graphics/SVG/1.1/DTD/svg11.dtd">
<!-- Generated by graphviz version 2.26.3 (20100126.1600)
 -->
<!-- Title: G Pages: 1 -->
<!--zoomable 270 -->
<svg id="main" version="1.1" xmlns="http://www.w3.org/2000/svg" xmlns:xlink="http://www.w3.org/1999/xlink" xml:space="preserve" onload="init(evt)">
        <defs>
                <circle id="rim" cx="0" cy="0" r="7"/>
                <circle id="rim2" cx="0" cy="0" r="3.5"/>
                <g id="zoomPlus">
                        <use xlink:href="#rim" fill="#404040">
                                <set attributeName="fill" to="#808080" begin="zoomplus.mouseover" end="zoomplus.mouseout"/>
                        </use>
                        <path d="M-4,0h8M0,-4v8" fill="none" stroke="white" stroke-width="1.5" pointer-events="none"/>
                </g>
                <g id="zoomMin">
                        <use xlink:href="#rim" fill="#404040">
                                <set attributeName="fill" to="#808080" begin="zoomminus.mouseover" end="zoomminus.mouseout"/>
                        </use>
                        <path d="M-4,0h8" fill="none" stroke="white" stroke-width="1.5" pointer-events="none"/>
                </g>
                <g id="dirArrow">
                        <path fill="none" stroke="white" stroke-width="1.5" d="M0,-3.0v7 M-2.5,-0.5L0,-3.0L2.5,-0.5"/>
                </g>
               <g id="resetDef">
                       <use xlink:href="#rim2" fill="#404040">
                               <set attributeName="fill" to="#808080" begin="reset.mouseover" end="reset.mouseout"/>
                       </use>
               </g>
        </defs>

<script type="text/javascript">
var viewWidth = 1966;
var viewHeight = 270;
var sectionId = 'dynsection-9';
</script>
<script xlink:href="svgpan.js"/>
<svg id="graph" class="graph">
<g id="viewport">
<title>G</title>
<!-- Node1 -->
<g id="node1" class="node"><title>Node1</title>
<polygon fill="#bfbfbf" stroke="black" points="0,-80.5 0,-101.5 244,-101.5 244,-80.5 0,-80.5"/>
<text text-anchor="middle" x="122" y="-88.5" font-family="FreeSans.ttf" font-size="10.00">FilterGraphPresentation::renewCompoundFilters</text>
</g>
<!-- Node1&#45;&gt;Node1 -->
<g id="edge2" class="edge"><title>Node1&#45;&gt;Node1</title>
<path fill="none" stroke="midnightblue" d="M81.6201,-101.557C63.79,-110.548 77.25,-120 122,-120 155.562,-120 171.524,-114.683 169.886,-108.232"/>
<polygon fill="midnightblue" stroke="midnightblue" points="172.178,-105.587 162.38,-101.557 167.527,-110.818 172.178,-105.587"/>
</g>
<!-- Node2 -->
<g id="node4" class="node"><title>Node2</title>
<a xlink:href="classFilterBlockPresentation.html#a1744c54cfe1470bf1bddf836b2ce3324" target="_top" xlink:title="FilterBlockPresentation::updateBlock">
<polygon fill="none" stroke="black" points="514.5,-80.5 514.5,-101.5 705.5,-101.5 705.5,-80.5 514.5,-80.5"/>
<text text-anchor="middle" x="610" y="-88.5" font-family="FreeSans.ttf" font-size="10.00">FilterBlockPresentation::updateBlock</text>
</a>
</g>
<!-- Node1&#45;&gt;Node2 -->
<g id="edge4" class="edge"><title>Node1&#45;&gt;Node2</title>
<path fill="none" stroke="midnightblue" d="M244.056,-91.8495C256.2,-91.9109 268.342,-91.9631 280,-92 368,-92.2785 390.001,-92.3333 478,-92 486.575,-91.9675 495.464,-91.9232 504.39,-91.8711"/>
<polygon fill="midnightblue" stroke="midnightblue" points="504.493,-95.3707 514.471,-91.8093 504.45,-88.3708 504.493,-95.3707"/>
</g>
<!-- Node24 -->
<g id="node49" class="node"><title>Node24</title>
<a xlink:href="classFilterGraphPresentation.html#a102f7735b2262b5baafb6c8055cfaf33" target="_top" xlink:title="FilterGraphPresentation::updateGraph">
<polygon fill="none" stroke="black" points="280,-61.5 280,-82.5 478,-82.5 478,-61.5 280,-61.5"/>
<text text-anchor="middle" x="379" y="-69.5" font-family="FreeSans.ttf" font-size="10.00">FilterGraphPresentation::updateGraph</text>
</a>
</g>
<!-- Node1&#45;&gt;Node24 -->
<g id="edge50" class="edge"><title>Node1&#45;&gt;Node24</title>
<path fill="none" stroke="midnightblue" d="M244.102,-81.973C252.573,-81.3467 261.081,-80.7177 269.479,-80.0969"/>
<polygon fill="midnightblue" stroke="midnightblue" points="269.942,-83.5723 279.657,-79.3444 269.426,-76.5913 269.942,-83.5723"/>
</g>
<!-- Node3 -->
<g id="node6" class="node"><title>Node3</title>
<a xlink:href="classFilterBlockPresentation.html#a71d34561a7a92b9c220d5dc6d99d5ed6" target="_top" xlink:title="FilterBlockPresentation::clearPinPresentations">
<polygon fill="none" stroke="black" points="745.5,-140.5 745.5,-161.5 980.5,-161.5 980.5,-140.5 745.5,-140.5"/>
<text text-anchor="middle" x="863" y="-148.5" font-family="FreeSans.ttf" font-size="10.00">FilterBlockPresentation::clearPinPresentations</text>
</a>
</g>
<!-- Node2&#45;&gt;Node3 -->
<g id="edge6" class="edge"><title>Node2&#45;&gt;Node3</title>
<path fill="none" stroke="midnightblue" d="M640.63,-101.525C667.189,-110.35 706.786,-122.791 742,-131 754.108,-133.822 766.987,-136.398 779.657,-138.692"/>
<polygon fill="midnightblue" stroke="midnightblue" points="779.298,-142.183 789.753,-140.471 780.512,-135.289 779.298,-142.183"/>
</g>
<!-- Node4 -->
<g id="node8" class="node"><title>Node4</title>
<a xlink:href="classFilterBlockPresentation.html#ac171d8578a2fb4ce6f198bcfc5a5ef1a" target="_top" xlink:title="FilterBlockPresentation::createPinPresentations">
<polygon fill="none" stroke="black" points="742,-100.5 742,-121.5 984,-121.5 984,-100.5 742,-100.5"/>
<text text-anchor="middle" x="863" y="-108.5" font-family="FreeSans.ttf" font-size="10.00">FilterBlockPresentation::createPinPresentations</text>
</a>
</g>
<!-- Node2&#45;&gt;Node4 -->
<g id="edge8" class="edge"><title>Node2&#45;&gt;Node4</title>
<path fill="none" stroke="midnightblue" d="M705.648,-98.5611C714.097,-99.229 722.741,-99.9123 731.417,-100.598"/>
<polygon fill="midnightblue" stroke="midnightblue" points="731.361,-104.105 741.606,-101.404 731.913,-97.1264 731.361,-104.105"/>
</g>
<!-- Node17 -->
<g id="node34" class="node"><title>Node17</title>
<a xlink:href="classFilterBlockPresentation.html#a8d2fc7d451ae70951066dc6edf5864de" target="_top" xlink:title="*&#45;&#45;&#45;&#45;&#45;&#45;&#45;&#45;&#45;&#45;&#45;&#45;&#45;&#45;&#45;&#45;&#45;&#45;&#45;&#45;&#45;&#45;&#45;&#45;&#45;&#45;&#45;&#45;&#45;&#45;&#45;&#45;&#45;&#45;&#45;&#45;&#45;&#45;&#45;&#45;&#45;&#45;&#45;&#45;&#45;* | | |&lt; &gt;| | Type | |&lt; &gt;| | Name | | &gt;| | | *&#45;&#45;&#45;&#45;&#45;&#45;&#45;&#45;&#45;...">
<polygon fill="none" stroke="black" points="786,-60.5 786,-81.5 940,-81.5 940,-60.5 786,-60.5"/>
<text text-anchor="middle" x="863" y="-68.5" font-family="FreeSans.ttf" font-size="10.00">FilterBlockPresentation::draw</text>
</a>
</g>
<!-- Node2&#45;&gt;Node17 -->
<g id="edge34" class="edge"><title>Node2&#45;&gt;Node17</title>
<path fill="none" stroke="midnightblue" d="M705.648,-83.4389C728.583,-81.6258 752.959,-79.6989 775.502,-77.9168"/>
<polygon fill="midnightblue" stroke="midnightblue" points="776.027,-81.3864 785.72,-77.1091 775.475,-74.4082 776.027,-81.3864"/>
</g>
<!-- Node23 -->
<g id="node47" class="node"><title>Node23</title>
<a xlink:href="classcorecvs_1_1FilterBlock.html#af30e50bee1bfaa8ca7182f2e70629291" target="_top" xlink:title="corecvs::FilterBlock::getInstanceName">
<polygon fill="none" stroke="black" points="763.5,-20.5 763.5,-41.5 962.5,-41.5 962.5,-20.5 763.5,-20.5"/>
<text text-anchor="middle" x="863" y="-28.5" font-family="FreeSans.ttf" font-size="10.00">corecvs::FilterBlock::getInstanceName</text>
</a>
</g>
<!-- Node2&#45;&gt;Node23 -->
<g id="edge48" class="edge"><title>Node2&#45;&gt;Node23</title>
<path fill="none" stroke="midnightblue" d="M640.63,-80.4754C667.189,-71.6504 706.786,-59.2088 742,-51 754.108,-48.1775 766.987,-45.6021 779.657,-43.3079"/>
<polygon fill="midnightblue" stroke="midnightblue" points="780.512,-46.7111 789.753,-41.5289 779.298,-39.8173 780.512,-46.7111"/>
</g>
<!-- Node5 -->
<g id="node10" class="node"><title>Node5</title>
<a xlink:href="classFilterPinPresentation.html#a9309012b23c9b715cd5046fe0948ee6b" target="_top" xlink:title="FilterPinPresentation::getPinByType">
<polygon fill="none" stroke="black" points="1031.5,-120.5 1031.5,-141.5 1214.5,-141.5 1214.5,-120.5 1031.5,-120.5"/>
<text text-anchor="middle" x="1123" y="-128.5" font-family="FreeSans.ttf" font-size="10.00">FilterPinPresentation::getPinByType</text>
</a>
</g>
<!-- Node4&#45;&gt;Node5 -->
<g id="edge10" class="edge"><title>Node4&#45;&gt;Node5</title>
<path fill="none" stroke="midnightblue" d="M984.246,-120.327C996.658,-121.281 1009.18,-122.244 1021.35,-123.18"/>
<polygon fill="midnightblue" stroke="midnightblue" points="1021.24,-126.682 1031.48,-123.96 1021.77,-119.703 1021.24,-126.682"/>
</g>
<!-- Node6 -->
<g id="node12" class="node"><title>Node6</title>
<a xlink:href="classFilterPinPresentation.html#aa2ed0ebb00f6df4db1082a3abb513de1" target="_top" xlink:title="FilterPinPresentation::FilterPinPresentation">
<polygon fill="none" stroke="black" points="1262,-120.5 1262,-141.5 1480,-141.5 1480,-120.5 1262,-120.5"/>
<text text-anchor="middle" x="1371" y="-128.5" font-family="FreeSans.ttf" font-size="10.00">FilterPinPresentation::FilterPinPresentation</text>
</a>
</g>
<!-- Node5&#45;&gt;Node6 -->
<g id="edge12" class="edge"><title>Node5&#45;&gt;Node6</title>
<path fill="none" stroke="midnightblue" d="M1214.64,-131C1226.61,-131 1239,-131 1251.34,-131"/>
<polygon fill="midnightblue" stroke="midnightblue" points="1251.69,-134.5 1261.69,-131 1251.69,-127.5 1251.69,-134.5"/>
</g>
<!-- Node7 -->
<g id="node14" class="node"><title>Node7</title>
<a xlink:href="classFilterPinPresentation.html#a7c2ccb09a8445198a21dacae6436e319" target="_top" xlink:title="FilterPinPresentation::drawPinName">
<polygon fill="none" stroke="black" points="1516,-180.5 1516,-201.5 1702,-201.5 1702,-180.5 1516,-180.5"/>
<text text-anchor="middle" x="1609" y="-188.5" font-family="FreeSans.ttf" font-size="10.00">FilterPinPresentation::drawPinName</text>
</a>
</g>
<!-- Node6&#45;&gt;Node7 -->
<g id="edge14" class="edge"><title>Node6&#45;&gt;Node7</title>
<path fill="none" stroke="midnightblue" d="M1406.9,-141.521C1436.15,-149.944 1478.59,-161.826 1516,-171 1526.09,-173.474 1536.83,-175.94 1547.3,-178.252"/>
<polygon fill="midnightblue" stroke="midnightblue" points="1546.71,-181.705 1557.23,-180.417 1548.2,-174.866 1546.71,-181.705"/>
</g>
<!-- Node12 -->
<g id="node24" class="node"><title>Node12</title>
<a xlink:href="classDiagramItem.html#a10b8d32f96044e78fabe17c7b57d5abc" target="_top" xlink:title="DiagramItem::finishInit">
<polygon fill="none" stroke="black" points="1546.5,-140.5 1546.5,-161.5 1671.5,-161.5 1671.5,-140.5 1546.5,-140.5"/>
<text text-anchor="middle" x="1609" y="-148.5" font-family="FreeSans.ttf" font-size="10.00">DiagramItem::finishInit</text>
</a>
</g>
<!-- Node6&#45;&gt;Node12 -->
<g id="edge24" class="edge"><title>Node6&#45;&gt;Node12</title>
<path fill="none" stroke="midnightblue" d="M1480.25,-140.181C1499.15,-141.769 1518.37,-143.384 1536.01,-144.866"/>
<polygon fill="midnightblue" stroke="midnightblue" points="1535.94,-148.372 1546.19,-145.722 1536.52,-141.397 1535.94,-148.372"/>
</g>
<!-- Node13 -->
<g id="node26" class="node"><title>Node13</title>
<a xlink:href="classDiagramScene.html#a257ca225f17da914a100cda881b2ea62" target="_top" xlink:title="DiagramScene::diagramItemByPin">
<polygon fill="none" stroke="black" points="1518,-100.5 1518,-121.5 1700,-121.5 1700,-100.5 1518,-100.5"/>
<text text-anchor="middle" x="1609" y="-108.5" font-family="FreeSans.ttf" font-size="10.00">DiagramScene::diagramItemByPin</text>
</a>
</g>
<!-- Node6&#45;&gt;Node13 -->
<g id="edge26" class="edge"><title>Node6&#45;&gt;Node13</title>
<path fill="none" stroke="midnightblue" d="M1480.25,-121.819C1489.39,-121.051 1498.62,-120.276 1507.7,-119.513"/>
<polygon fill="midnightblue" stroke="midnightblue" points="1508.21,-122.982 1517.88,-118.657 1507.62,-116.007 1508.21,-122.982"/>
</g>
<!-- Node14 -->
<g id="node28" class="node"><title>Node14</title>
<a xlink:href="classDiagramScene.html#ac4ecc61a6914932ec2694857a7e69e1e" target="_top" xlink:title="DiagramScene::addArrow">
<polygon fill="none" stroke="black" points="1539.5,-60.5 1539.5,-81.5 1678.5,-81.5 1678.5,-60.5 1539.5,-60.5"/>
<text text-anchor="middle" x="1609" y="-68.5" font-family="FreeSans.ttf" font-size="10.00">DiagramScene::addArrow</text>
</a>
</g>
<!-- Node6&#45;&gt;Node14 -->
<g id="edge28" class="edge"><title>Node6&#45;&gt;Node14</title>
<path fill="none" stroke="midnightblue" d="M1446.61,-120.439C1457.96,-117.906 1469.41,-114.799 1480,-111 1497.23,-104.822 1498.87,-97.4386 1516,-91 1522.8,-88.4438 1530.01,-86.1755 1537.29,-84.1716"/>
<polygon fill="midnightblue" stroke="midnightblue" points="1538.42,-87.4943 1547.23,-81.6007 1536.67,-80.7175 1538.42,-87.4943"/>
</g>
<!-- Node8 -->
<g id="node16" class="node"><title>Node8</title>
<a xlink:href="classDiagramScene.html#a73367ec3d54a2a01c927b8f9432e3d45" target="_top" xlink:title="DiagramScene::font">
<polygon fill="none" stroke="black" points="1791.5,-240.5 1791.5,-261.5 1904.5,-261.5 1904.5,-240.5 1791.5,-240.5"/>
<text text-anchor="middle" x="1848" y="-248.5" font-family="FreeSans.ttf" font-size="10.00">DiagramScene::font</text>
</a>
</g>
<!-- Node7&#45;&gt;Node8 -->
<g id="edge16" class="edge"><title>Node7&#45;&gt;Node8</title>
<path fill="none" stroke="midnightblue" d="M1639.21,-201.502C1665.17,-210.254 1703.72,-222.603 1738,-231 1752.02,-234.434 1767.17,-237.56 1781.61,-240.268"/>
<polygon fill="midnightblue" stroke="midnightblue" points="1781.01,-243.716 1791.48,-242.074 1782.27,-236.83 1781.01,-243.716"/>
</g>
<!-- Node9 -->
<g id="node18" class="node"><title>Node9</title>
<a xlink:href="classDiagramScene.html#a09373ee7015d49ce7ccd3cd9983193a7" target="_top" xlink:title="DiagramScene::textColor">
<polygon fill="none" stroke="black" points="1779.5,-200.5 1779.5,-221.5 1916.5,-221.5 1916.5,-200.5 1779.5,-200.5"/>
<text text-anchor="middle" x="1848" y="-208.5" font-family="FreeSans.ttf" font-size="10.00">DiagramScene::textColor</text>
</a>
</g>
<!-- Node7&#45;&gt;Node9 -->
<g id="edge18" class="edge"><title>Node7&#45;&gt;Node9</title>
<path fill="none" stroke="midnightblue" d="M1702.09,-198.79C1724.27,-200.646 1747.72,-202.608 1769.19,-204.405"/>
<polygon fill="midnightblue" stroke="midnightblue" points="1768.96,-207.898 1779.22,-205.245 1769.55,-200.923 1768.96,-207.898"/>
</g>
<!-- Node10 -->
<g id="node20" class="node"><title>Node10</title>
<a xlink:href="classFilterPinPresentation.html#ae56bd86978f21f5e9b3d4f8f88bbe174" target="_top" xlink:title="FilterPinPresentation::drawInputPinName">
<polygon fill="none" stroke="black" points="1743,-160.5 1743,-181.5 1953,-181.5 1953,-160.5 1743,-160.5"/>
<text text-anchor="middle" x="1848" y="-168.5" font-family="FreeSans.ttf" font-size="10.00">FilterPinPresentation::drawInputPinName</text>
</a>
</g>
<!-- Node7&#45;&gt;Node10 -->
<g id="edge20" class="edge"><title>Node7&#45;&gt;Node10</title>
<path fill="none" stroke="midnightblue" d="M1702.09,-183.21C1712.11,-182.371 1722.4,-181.51 1732.65,-180.653"/>
<polygon fill="midnightblue" stroke="midnightblue" points="1733.2,-184.119 1742.87,-179.797 1732.62,-177.143 1733.2,-184.119"/>
</g>
<!-- Node11 -->
<g id="node22" class="node"><title>Node11</title>
<a xlink:href="classFilterPinPresentation.html#a406936d4261879e338233d85662a98b1" target="_top" xlink:title="FilterPinPresentation::drawOutputPinName">
<polygon fill="none" stroke="black" points="1738.5,-120.5 1738.5,-141.5 1957.5,-141.5 1957.5,-120.5 1738.5,-120.5"/>
<text text-anchor="middle" x="1848" y="-128.5" font-family="FreeSans.ttf" font-size="10.00">FilterPinPresentation::drawOutputPinName</text>
</a>
</g>
<!-- Node7&#45;&gt;Node11 -->
<g id="edge22" class="edge"><title>Node7&#45;&gt;Node11</title>
<path fill="none" stroke="midnightblue" d="M1670.77,-180.399C1681.35,-177.827 1692.11,-174.718 1702,-171 1719.13,-164.561 1720.77,-157.164 1738,-151 1745.6,-148.281 1753.64,-145.918 1761.76,-143.867"/>
<polygon fill="midnightblue" stroke="midnightblue" points="1762.77,-147.225 1771.7,-141.516 1761.16,-140.413 1762.77,-147.225"/>
</g>
<!-- Node15 -->
<g id="node30" class="node"><title>Node15</title>
<a xlink:href="classDiagramItem.html#a7eea98dfc6ec8956e0fb0e6e440fdcb0" target="_top" xlink:title="DiagramItem::addArrow">
<polygon fill="none" stroke="black" points="1782.5,-70.5 1782.5,-91.5 1913.5,-91.5 1913.5,-70.5 1782.5,-70.5"/>
<text text-anchor="middle" x="1848" y="-78.5" font-family="FreeSans.ttf" font-size="10.00">DiagramItem::addArrow</text>
</a>
</g>
<!-- Node14&#45;&gt;Node15 -->
<g id="edge30" class="edge"><title>Node14&#45;&gt;Node15</title>
<path fill="none" stroke="midnightblue" d="M1678.77,-73.9193C1707.98,-75.1415 1742.02,-76.5655 1771.87,-77.8147"/>
<polygon fill="midnightblue" stroke="midnightblue" points="1772.11,-81.3275 1782.24,-78.2487 1772.4,-74.3336 1772.11,-81.3275"/>
</g>
<!-- Node16 -->
<g id="node32" class="node"><title>Node16</title>
<a xlink:href="classArrow.html#ab7e7333a213b0eb310496b6f815e1824" target="_top" xlink:title="Arrow::setColor">
<polygon fill="none" stroke="black" points="1803.5,-30.5 1803.5,-51.5 1892.5,-51.5 1892.5,-30.5 1803.5,-30.5"/>
<text text-anchor="middle" x="1848" y="-38.5" font-family="FreeSans.ttf" font-size="10.00">Arrow::setColor</text>
</a>
</g>
<!-- Node14&#45;&gt;Node16 -->
<g id="edge32" class="edge"><title>Node14&#45;&gt;Node16</title>
<path fill="none" stroke="midnightblue" d="M1678.77,-62.2421C1715.23,-57.6655 1759.21,-52.1453 1793.19,-47.8794"/>
<polygon fill="midnightblue" stroke="midnightblue" points="1793.91,-51.3165 1803.4,-46.5982 1793.04,-44.371 1793.91,-51.3165"/>
</g>
<!-- Node18 -->
<g id="node36" class="node"><title>Node18</title>
<a xlink:href="classFilterBlockPresentation.html#af6f1626a761a22fb58726093d2cc1fae" target="_top" xlink:title="FilterBlockPresentation::drawBlock">
<polygon fill="none" stroke="black" points="1033.5,-80.5 1033.5,-101.5 1212.5,-101.5 1212.5,-80.5 1033.5,-80.5"/>
<text text-anchor="middle" x="1123" y="-88.5" font-family="FreeSans.ttf" font-size="10.00">FilterBlockPresentation::drawBlock</text>
</a>
</g>
<!-- Node17&#45;&gt;Node18 -->
<g id="edge36" class="edge"><title>Node17&#45;&gt;Node18</title>
<path fill="none" stroke="midnightblue" d="M940.305,-76.9465C966.301,-78.9463 995.683,-81.2063 1023.16,-83.3201"/>
<polygon fill="midnightblue" stroke="midnightblue" points="1022.95,-86.8141 1033.19,-84.0914 1023.49,-79.8347 1022.95,-86.8141"/>
</g>
<!-- Node20 -->
<g id="node40" class="node"><title>Node20</title>
<a xlink:href="classFilterBlockPresentation.html#a28ce80ed70461e1b0f584b9a598a5e36" target="_top" xlink:title="FilterBlockPresentation::drawInputPins">
<polygon fill="none" stroke="black" points="1024.5,-40.5 1024.5,-61.5 1221.5,-61.5 1221.5,-40.5 1024.5,-40.5"/>
<text text-anchor="middle" x="1123" y="-48.5" font-family="FreeSans.ttf" font-size="10.00">FilterBlockPresentation::drawInputPins</text>
</a>
</g>
<!-- Node17&#45;&gt;Node20 -->
<g id="edge40" class="edge"><title>Node17&#45;&gt;Node20</title>
<path fill="none" stroke="midnightblue" d="M940.305,-65.0535C963.46,-63.2723 989.3,-61.2846 1014.09,-59.3778"/>
<polygon fill="midnightblue" stroke="midnightblue" points="1014.56,-62.8518 1024.26,-58.595 1014.03,-55.8724 1014.56,-62.8518"/>
</g>
<!-- Node22 -->
<g id="node44" class="node"><title>Node22</title>
<a xlink:href="classFilterBlockPresentation.html#aaacb34a3720491173b54e709688dbc37" target="_top" xlink:title="FilterBlockPresentation::drawOutputPins">
<polygon fill="none" stroke="black" points="1020,-0.5 1020,-21.5 1226,-21.5 1226,-0.5 1020,-0.5"/>
<text text-anchor="middle" x="1123" y="-8.5" font-family="FreeSans.ttf" font-size="10.00">FilterBlockPresentation::drawOutputPins</text>
</a>
</g>
<!-- Node17&#45;&gt;Node22 -->
<g id="edge44" class="edge"><title>Node17&#45;&gt;Node22</title>
<path fill="none" stroke="midnightblue" d="M940.161,-62.3175C954.943,-59.5186 970.127,-55.8364 984,-51 1001.28,-44.9746 1002.8,-37.2666 1020,-31 1027.34,-28.3251 1035.11,-25.985 1042.97,-23.9428"/>
<polygon fill="midnightblue" stroke="midnightblue" points="1044.04,-27.2825 1052.93,-21.5124 1042.39,-20.4819 1044.04,-27.2825"/>
</g>
<!-- Node19 -->
<g id="node38" class="node"><title>Node19</title>
<a xlink:href="classDiagramScene.html#a48991d2fb5ae136cfefa7489aa3c8b6c" target="_top" xlink:title="DiagramScene::itemColor">
<polygon fill="none" stroke="black" points="1301,-80.5 1301,-101.5 1441,-101.5 1441,-80.5 1301,-80.5"/>
<text text-anchor="middle" x="1371" y="-88.5" font-family="FreeSans.ttf" font-size="10.00">DiagramScene::itemColor</text>
</a>
</g>
<!-- Node18&#45;&gt;Node19 -->
<g id="edge38" class="edge"><title>Node18&#45;&gt;Node19</title>
<path fill="none" stroke="midnightblue" d="M1212.53,-91C1238.02,-91 1265.62,-91 1290.53,-91"/>
<polygon fill="midnightblue" stroke="midnightblue" points="1290.66,-94.5001 1300.66,-91 1290.66,-87.5001 1290.66,-94.5001"/>
</g>
<!-- Node21 -->
<g id="node42" class="node"><title>Node21</title>
<a xlink:href="classDiagramItem.html#a483cb2a13c9035090ef55bfa148fc93c" target="_top" xlink:title="DiagramItem::polygon">
<polygon fill="none" stroke="black" points="1309.5,-20.5 1309.5,-41.5 1432.5,-41.5 1432.5,-20.5 1309.5,-20.5"/>
<text text-anchor="middle" x="1371" y="-28.5" font-family="FreeSans.ttf" font-size="10.00">DiagramItem::polygon</text>
</a>
</g>
<!-- Node20&#45;&gt;Node21 -->
<g id="edge42" class="edge"><title>Node20&#45;&gt;Node21</title>
<path fill="none" stroke="midnightblue" d="M1221.73,-43.038C1247.61,-40.9506 1275.03,-38.7394 1299.21,-36.7896"/>
<polygon fill="midnightblue" stroke="midnightblue" points="1299.67,-40.2636 1309.36,-35.971 1299.11,-33.2863 1299.67,-40.2636"/>
</g>
<!-- Node22&#45;&gt;Node21 -->
<g id="edge46" class="edge"><title>Node22&#45;&gt;Node21</title>
<path fill="none" stroke="midnightblue" d="M1226.02,-19.308C1250.6,-21.2904 1276.32,-23.3642 1299.15,-25.2054"/>
<polygon fill="midnightblue" stroke="midnightblue" points="1299.17,-28.7185 1309.42,-26.0338 1299.73,-21.7412 1299.17,-28.7185"/>
</g>
<!-- Node24&#45;&gt;Node2 -->
<g id="edge52" class="edge"><title>Node24&#45;&gt;Node2</title>
<path fill="none" stroke="midnightblue" d="M478.305,-80.168C486.919,-80.8764 495.655,-81.595 504.316,-82.3074"/>
<polygon fill="midnightblue" stroke="midnightblue" points="504.185,-85.8084 514.439,-83.14 504.759,-78.8319 504.185,-85.8084"/>
</g>
</g>
</svg>
        <g id="navigator" transform="translate(0 0)" fill="#404254">
                <rect fill="#f2f5e9" fill-opacity="0.5" stroke="#606060" stroke-width=".5" x="0" y="0" width="60" height="60"/>
                <use id="zoomplus" xlink:href="#zoomPlus" x="17" y="9" onmousedown="handleZoom(evt,'in')"/>
                <use id="zoomminus" xlink:href="#zoomMin" x="42" y="9" onmousedown="handleZoom(evt,'out')"/>
                <use id="reset" xlink:href="#resetDef" x="30" y="36" onmousedown="handleReset()"/>
                <g id="arrowUp" xlink:href="#dirArrow" transform="translate(30 24)" onmousedown="handlePan(0,-1)">
                  <use xlink:href="#rim" fill="#404040">
                        <set attributeName="fill" to="#808080" begin="arrowUp.mouseover" end="arrowUp.mouseout"/>
                  </use>
                  <path fill="none" stroke="white" stroke-width="1.5" d="M0,-3.0v7 M-2.5,-0.5L0,-3.0L2.5,-0.5"/>
                </g>
                <g id="arrowRight" xlink:href="#dirArrow" transform="rotate(90) translate(36 -43)" onmousedown="handlePan(1,0)">
                  <use xlink:href="#rim" fill="#404040">
                        <set attributeName="fill" to="#808080" begin="arrowRight.mouseover" end="arrowRight.mouseout"/>
                  </use>
                  <path fill="none" stroke="white" stroke-width="1.5" d="M0,-3.0v7 M-2.5,-0.5L0,-3.0L2.5,-0.5"/>
                </g>
                <g id="arrowDown" xlink:href="#dirArrow" transform="rotate(180) translate(-30 -48)" onmousedown="handlePan(0,1)">
                  <use xlink:href="#rim" fill="#404040">
                        <set attributeName="fill" to="#808080" begin="arrowDown.mouseover" end="arrowDown.mouseout"/>
                  </use>
                  <path fill="none" stroke="white" stroke-width="1.5" d="M0,-3.0v7 M-2.5,-0.5L0,-3.0L2.5,-0.5"/>
                </g>
                <g id="arrowLeft" xlink:href="#dirArrow" transform="rotate(270) translate(-36 17)" onmousedown="handlePan(-1,0)">
                  <use xlink:href="#rim" fill="#404040">
                        <set attributeName="fill" to="#808080" begin="arrowLeft.mouseover" end="arrowLeft.mouseout"/>
                  </use>
                  <path fill="none" stroke="white" stroke-width="1.5" d="M0,-3.0v7 M-2.5,-0.5L0,-3.0L2.5,-0.5"/>
                </g>
        </g>
</svg>
