<?xml version="1.0" encoding="UTF-8" standalone="no"?>
<!DOCTYPE svg PUBLIC "-//W3C//DTD SVG 1.1//EN"
 "http://www.w3.org/Graphics/SVG/1.1/DTD/svg11.dtd">
<!-- Generated by graphviz version 2.26.3 (20100126.1600)
 -->
<!-- Title: G Pages: 1 -->
<!--zoomable 290 -->
<svg id="main" version="1.1" xmlns="http://www.w3.org/2000/svg" xmlns:xlink="http://www.w3.org/1999/xlink" xml:space="preserve" onload="init(evt)">
        <defs>
                <circle id="rim" cx="0" cy="0" r="7"/>
                <circle id="rim2" cx="0" cy="0" r="3.5"/>
                <g id="zoomPlus">
                        <use xlink:href="#rim" fill="#404040">
                                <set attributeName="fill" to="#808080" begin="zoomplus.mouseover" end="zoomplus.mouseout"/>
                        </use>
                        <path d="M-4,0h8M0,-4v8" fill="none" stroke="white" stroke-width="1.5" pointer-events="none"/>
                </g>
                <g id="zoomMin">
                        <use xlink:href="#rim" fill="#404040">
                                <set attributeName="fill" to="#808080" begin="zoomminus.mouseover" end="zoomminus.mouseout"/>
                        </use>
                        <path d="M-4,0h8" fill="none" stroke="white" stroke-width="1.5" pointer-events="none"/>
                </g>
                <g id="dirArrow">
                        <path fill="none" stroke="white" stroke-width="1.5" d="M0,-3.0v7 M-2.5,-0.5L0,-3.0L2.5,-0.5"/>
                </g>
               <g id="resetDef">
                       <use xlink:href="#rim2" fill="#404040">
                               <set attributeName="fill" to="#808080" begin="reset.mouseover" end="reset.mouseout"/>
                       </use>
               </g>
        </defs>

<script type="text/javascript">
var viewWidth = 1016;
var viewHeight = 290;
var sectionId = 'dynsection-12';
</script>
<script xlink:href="svgpan.js"/>
<svg id="graph" class="graph">
<g id="viewport">
<title>G</title>
<!-- Node1 -->
<g id="node1" class="node"><title>Node1</title>
<polygon fill="#bfbfbf" stroke="black" points="0,-160.5 0,-181.5 202,-181.5 202,-160.5 0,-160.5"/>
<text text-anchor="middle" x="101" y="-168.5" font-family="FreeSans.ttf" font-size="10.00">TestbedMainWindow::updateViewImage</text>
</g>
<!-- Node2 -->
<g id="node3" class="node"><title>Node2</title>
<a xlink:href="classcorecvs_1_1RGBColor.html#a28d1778710e5ade8ab275f8ef03cdaec" target="_top" xlink:title="corecvs::RGBColor::b">
<polygon fill="none" stroke="black" points="277,-260.5 277,-281.5 393,-281.5 393,-260.5 277,-260.5"/>
<text text-anchor="middle" x="335" y="-268.5" font-family="FreeSans.ttf" font-size="10.00">corecvs::RGBColor::b</text>
</a>
</g>
<!-- Node1&#45;&gt;Node2 -->
<g id="edge2" class="edge"><title>Node1&#45;&gt;Node2</title>
<path fill="none" stroke="midnightblue" d="M115.398,-181.561C139.517,-198.744 190.162,-232.669 238,-251 247.212,-254.53 257.167,-257.482 267.07,-259.939"/>
<polygon fill="midnightblue" stroke="midnightblue" points="266.392,-263.374 276.925,-262.233 267.979,-256.557 266.392,-263.374"/>
</g>
<!-- Node3 -->
<g id="node5" class="node"><title>Node3</title>
<a xlink:href="classcorecvs_1_1AbstractBuffer.html#a98f72526738a0c4ce8a0b72a3b5c28b9" target="_top" xlink:title="The element getter.">
<polygon fill="none" stroke="black" points="248,-220.5 248,-241.5 422,-241.5 422,-220.5 248,-220.5"/>
<text text-anchor="middle" x="335" y="-228.5" font-family="FreeSans.ttf" font-size="10.00">corecvs::AbstractBuffer::element</text>
</a>
</g>
<!-- Node1&#45;&gt;Node3 -->
<g id="edge4" class="edge"><title>Node1&#45;&gt;Node3</title>
<path fill="none" stroke="midnightblue" d="M134.295,-181.54C161.912,-190.084 202.292,-202.121 238,-211 248.348,-213.573 259.375,-216.073 270.145,-218.385"/>
<polygon fill="midnightblue" stroke="midnightblue" points="269.428,-221.811 279.936,-220.451 270.874,-214.961 269.428,-221.811"/>
</g>
<!-- Node4 -->
<g id="node7" class="node"><title>Node4</title>
<a xlink:href="classcorecvs_1_1RGBColor.html#a61bb42ad3c5af64582ba22408e8bc5c4" target="_top" xlink:title="corecvs::RGBColor::g">
<polygon fill="none" stroke="black" points="277,-180.5 277,-201.5 393,-201.5 393,-180.5 277,-180.5"/>
<text text-anchor="middle" x="335" y="-188.5" font-family="FreeSans.ttf" font-size="10.00">corecvs::RGBColor::g</text>
</a>
</g>
<!-- Node1&#45;&gt;Node4 -->
<g id="edge6" class="edge"><title>Node1&#45;&gt;Node4</title>
<path fill="none" stroke="midnightblue" d="M202.275,-179.656C224.042,-181.516 246.549,-183.44 266.707,-185.163"/>
<polygon fill="midnightblue" stroke="midnightblue" points="266.447,-188.653 276.709,-186.018 267.043,-181.679 266.447,-188.653"/>
</g>
<!-- Node5 -->
<g id="node9" class="node"><title>Node5</title>
<a xlink:href="classcorecvs_1_1AbstractBuffer.html#af38950daefa219f81a0e89ee186075f1" target="_top" xlink:title="Checks if coordinate lies within the buffer area.">
<polygon fill="none" stroke="black" points="238.5,-140.5 238.5,-161.5 431.5,-161.5 431.5,-140.5 238.5,-140.5"/>
<text text-anchor="middle" x="335" y="-148.5" font-family="FreeSans.ttf" font-size="10.00">corecvs::AbstractBuffer::isValidCoord</text>
</a>
</g>
<!-- Node1&#45;&gt;Node5 -->
<g id="edge8" class="edge"><title>Node1&#45;&gt;Node5</title>
<path fill="none" stroke="midnightblue" d="M202.275,-162.344C210.886,-161.608 219.614,-160.862 228.265,-160.123"/>
<polygon fill="midnightblue" stroke="midnightblue" points="228.71,-163.597 238.376,-159.258 228.114,-156.623 228.71,-163.597"/>
</g>
<!-- Node6 -->
<g id="node11" class="node"><title>Node6</title>
<a xlink:href="classcorecvs_1_1RGBColor.html#a551378cc4e40775286d1200a21e3dfbc" target="_top" xlink:title="corecvs::RGBColor::r">
<polygon fill="none" stroke="black" points="278,-100.5 278,-121.5 392,-121.5 392,-100.5 278,-100.5"/>
<text text-anchor="middle" x="335" y="-108.5" font-family="FreeSans.ttf" font-size="10.00">corecvs::RGBColor::r</text>
</a>
</g>
<!-- Node1&#45;&gt;Node6 -->
<g id="edge10" class="edge"><title>Node1&#45;&gt;Node6</title>
<path fill="none" stroke="midnightblue" d="M134.295,-160.46C161.912,-151.916 202.292,-139.879 238,-131 248.348,-128.427 259.375,-125.927 270.145,-123.615"/>
<polygon fill="midnightblue" stroke="midnightblue" points="270.874,-127.039 279.936,-121.549 269.428,-120.189 270.874,-127.039"/>
</g>
<!-- Node7 -->
<g id="node13" class="node"><title>Node7</title>
<a xlink:href="classAdvancedImageWidget.html#a365f213bdb320f2392d2693d6931abdd" target="_top" xlink:title="AdvancedImageWidget::setImage">
<polygon fill="none" stroke="black" points="246.5,-60.5 246.5,-81.5 423.5,-81.5 423.5,-60.5 246.5,-60.5"/>
<text text-anchor="middle" x="335" y="-68.5" font-family="FreeSans.ttf" font-size="10.00">AdvancedImageWidget::setImage</text>
</a>
</g>
<!-- Node1&#45;&gt;Node7 -->
<g id="edge12" class="edge"><title>Node1&#45;&gt;Node7</title>
<path fill="none" stroke="midnightblue" d="M115.398,-160.439C139.517,-143.256 190.162,-109.331 238,-91 244.789,-88.3986 251.981,-86.111 259.258,-84.1044"/>
<polygon fill="midnightblue" stroke="midnightblue" points="260.395,-87.4257 269.205,-81.5393 258.647,-80.6475 260.395,-87.4257"/>
</g>
<!-- Node8 -->
<g id="node15" class="node"><title>Node8</title>
<a xlink:href="classAdvancedImageWidget.html#aa69ecf8afc2c52de22ef54bef616c92a" target="_top" xlink:title="AdvancedImageWidget::drawResized">
<polygon fill="none" stroke="black" points="495.5,-120.5 495.5,-141.5 686.5,-141.5 686.5,-120.5 495.5,-120.5"/>
<text text-anchor="middle" x="591" y="-128.5" font-family="FreeSans.ttf" font-size="10.00">AdvancedImageWidget::drawResized</text>
</a>
</g>
<!-- Node7&#45;&gt;Node8 -->
<g id="edge14" class="edge"><title>Node7&#45;&gt;Node8</title>
<path fill="none" stroke="midnightblue" d="M399.95,-81.5384C410.812,-84.1081 421.844,-87.2325 432,-91 449.161,-97.3658 450.709,-104.997 468,-111 475.933,-113.754 484.287,-116.132 492.753,-118.186"/>
<polygon fill="midnightblue" stroke="midnightblue" points="492.197,-121.649 502.724,-120.451 493.748,-114.823 492.197,-121.649"/>
</g>
<!-- Node9 -->
<g id="node17" class="node"><title>Node9</title>
<a xlink:href="classAdvancedImageWidget.html#a94f67b5bfc0bcf0c119c4e6011236faf" target="_top" xlink:title="AdvancedImageWidget::recalculateZoomCenter">
<polygon fill="none" stroke="black" points="468,-80.5 468,-101.5 714,-101.5 714,-80.5 468,-80.5"/>
<text text-anchor="middle" x="591" y="-88.5" font-family="FreeSans.ttf" font-size="10.00">AdvancedImageWidget::recalculateZoomCenter</text>
</a>
</g>
<!-- Node7&#45;&gt;Node9 -->
<g id="edge16" class="edge"><title>Node7&#45;&gt;Node9</title>
<path fill="none" stroke="midnightblue" d="M423.818,-77.9389C434.764,-78.7941 446.133,-79.6823 457.56,-80.575"/>
<polygon fill="midnightblue" stroke="midnightblue" points="457.365,-84.0704 467.608,-81.36 457.911,-77.0916 457.365,-84.0704"/>
</g>
<!-- Node11 -->
<g id="node21" class="node"><title>Node11</title>
<a xlink:href="classAdvancedImageWidget.html#a09b13f3339f391764bd57dd8d06f3d4f" target="_top" xlink:title="AdvancedImageWidget::recomputeRects">
<polygon fill="none" stroke="black" points="486,-40.5 486,-61.5 696,-61.5 696,-40.5 486,-40.5"/>
<text text-anchor="middle" x="591" y="-48.5" font-family="FreeSans.ttf" font-size="10.00">AdvancedImageWidget::recomputeRects</text>
</a>
</g>
<!-- Node7&#45;&gt;Node11 -->
<g id="edge20" class="edge"><title>Node7&#45;&gt;Node11</title>
<path fill="none" stroke="midnightblue" d="M423.818,-64.0611C440.477,-62.7596 458.116,-61.3815 475.448,-60.0275"/>
<polygon fill="midnightblue" stroke="midnightblue" points="475.911,-63.5021 485.608,-59.2338 475.366,-56.5234 475.911,-63.5021"/>
</g>
<!-- Node13 -->
<g id="node25" class="node"><title>Node13</title>
<a xlink:href="classAdvancedImageWidget.html#a722b91642b8f0f37a390edc76c3e645b" target="_top" xlink:title="AdvancedImageWidget::saveFlowImage">
<polygon fill="none" stroke="black" points="488.5,-0.5 488.5,-21.5 693.5,-21.5 693.5,-0.5 488.5,-0.5"/>
<text text-anchor="middle" x="591" y="-8.5" font-family="FreeSans.ttf" font-size="10.00">AdvancedImageWidget::saveFlowImage</text>
</a>
</g>
<!-- Node7&#45;&gt;Node13 -->
<g id="edge24" class="edge"><title>Node7&#45;&gt;Node13</title>
<path fill="none" stroke="midnightblue" d="M365.864,-60.4621C392.624,-51.6287 432.522,-39.1823 468,-31 480.226,-28.1802 493.226,-25.6116 506.02,-23.3251"/>
<polygon fill="midnightblue" stroke="midnightblue" points="506.966,-26.7132 516.219,-21.5524 505.767,-19.8166 506.966,-26.7132"/>
</g>
<!-- Node10 -->
<g id="node19" class="node"><title>Node10</title>
<a xlink:href="classAdvancedImageWidget.html#a0660da1dfe71d556c2c97ca4759404d5" target="_top" xlink:title="AdvancedImageWidget::notifyCenterPointChanged">
<polygon fill="none" stroke="black" points="750.5,-80.5 750.5,-101.5 1007.5,-101.5 1007.5,-80.5 750.5,-80.5"/>
<text text-anchor="middle" x="879" y="-88.5" font-family="FreeSans.ttf" font-size="10.00">AdvancedImageWidget::notifyCenterPointChanged</text>
</a>
</g>
<!-- Node9&#45;&gt;Node10 -->
<g id="edge18" class="edge"><title>Node9&#45;&gt;Node10</title>
<path fill="none" stroke="midnightblue" d="M714.391,-91C722.95,-91 731.609,-91 740.242,-91"/>
<polygon fill="midnightblue" stroke="midnightblue" points="740.358,-94.5001 750.358,-91 740.358,-87.5001 740.358,-94.5001"/>
</g>
<!-- Node12 -->
<g id="node23" class="node"><title>Node12</title>
<a xlink:href="classAdvancedImageWidget.html#ab3c658a5e253eeef3929028a1e2e3082" target="_top" xlink:title="AdvancedImageWidget::computeInputRect">
<polygon fill="none" stroke="black" points="769.5,-40.5 769.5,-61.5 988.5,-61.5 988.5,-40.5 769.5,-40.5"/>
<text text-anchor="middle" x="879" y="-48.5" font-family="FreeSans.ttf" font-size="10.00">AdvancedImageWidget::computeInputRect</text>
</a>
</g>
<!-- Node11&#45;&gt;Node12 -->
<g id="edge22" class="edge"><title>Node11&#45;&gt;Node12</title>
<path fill="none" stroke="midnightblue" d="M696.197,-51C716.634,-51 738.198,-51 759.068,-51"/>
<polygon fill="midnightblue" stroke="midnightblue" points="759.25,-54.5001 769.25,-51 759.25,-47.5001 759.25,-54.5001"/>
</g>
</g>
</svg>
        <g id="navigator" transform="translate(0 0)" fill="#404254">
                <rect fill="#f2f5e9" fill-opacity="0.5" stroke="#606060" stroke-width=".5" x="0" y="0" width="60" height="60"/>
                <use id="zoomplus" xlink:href="#zoomPlus" x="17" y="9" onmousedown="handleZoom(evt,'in')"/>
                <use id="zoomminus" xlink:href="#zoomMin" x="42" y="9" onmousedown="handleZoom(evt,'out')"/>
                <use id="reset" xlink:href="#resetDef" x="30" y="36" onmousedown="handleReset()"/>
                <g id="arrowUp" xlink:href="#dirArrow" transform="translate(30 24)" onmousedown="handlePan(0,-1)">
                  <use xlink:href="#rim" fill="#404040">
                        <set attributeName="fill" to="#808080" begin="arrowUp.mouseover" end="arrowUp.mouseout"/>
                  </use>
                  <path fill="none" stroke="white" stroke-width="1.5" d="M0,-3.0v7 M-2.5,-0.5L0,-3.0L2.5,-0.5"/>
                </g>
                <g id="arrowRight" xlink:href="#dirArrow" transform="rotate(90) translate(36 -43)" onmousedown="handlePan(1,0)">
                  <use xlink:href="#rim" fill="#404040">
                        <set attributeName="fill" to="#808080" begin="arrowRight.mouseover" end="arrowRight.mouseout"/>
                  </use>
                  <path fill="none" stroke="white" stroke-width="1.5" d="M0,-3.0v7 M-2.5,-0.5L0,-3.0L2.5,-0.5"/>
                </g>
                <g id="arrowDown" xlink:href="#dirArrow" transform="rotate(180) translate(-30 -48)" onmousedown="handlePan(0,1)">
                  <use xlink:href="#rim" fill="#404040">
                        <set attributeName="fill" to="#808080" begin="arrowDown.mouseover" end="arrowDown.mouseout"/>
                  </use>
                  <path fill="none" stroke="white" stroke-width="1.5" d="M0,-3.0v7 M-2.5,-0.5L0,-3.0L2.5,-0.5"/>
                </g>
                <g id="arrowLeft" xlink:href="#dirArrow" transform="rotate(270) translate(-36 17)" onmousedown="handlePan(-1,0)">
                  <use xlink:href="#rim" fill="#404040">
                        <set attributeName="fill" to="#808080" begin="arrowLeft.mouseover" end="arrowLeft.mouseout"/>
                  </use>
                  <path fill="none" stroke="white" stroke-width="1.5" d="M0,-3.0v7 M-2.5,-0.5L0,-3.0L2.5,-0.5"/>
                </g>
        </g>
</svg>
