<?xml version="1.0" encoding="UTF-8" standalone="no"?>
<!DOCTYPE svg PUBLIC "-//W3C//DTD SVG 1.1//EN"
 "http://www.w3.org/Graphics/SVG/1.1/DTD/svg11.dtd">
<!-- Generated by graphviz version 2.26.3 (20100126.1600)
 -->
<!-- Title: G Pages: 1 -->
<!--zoomable 344 -->
<svg id="main" version="1.1" xmlns="http://www.w3.org/2000/svg" xmlns:xlink="http://www.w3.org/1999/xlink" xml:space="preserve" onload="init(evt)">
        <defs>
                <circle id="rim" cx="0" cy="0" r="7"/>
                <circle id="rim2" cx="0" cy="0" r="3.5"/>
                <g id="zoomPlus">
                        <use xlink:href="#rim" fill="#404040">
                                <set attributeName="fill" to="#808080" begin="zoomplus.mouseover" end="zoomplus.mouseout"/>
                        </use>
                        <path d="M-4,0h8M0,-4v8" fill="none" stroke="white" stroke-width="1.5" pointer-events="none"/>
                </g>
                <g id="zoomMin">
                        <use xlink:href="#rim" fill="#404040">
                                <set attributeName="fill" to="#808080" begin="zoomminus.mouseover" end="zoomminus.mouseout"/>
                        </use>
                        <path d="M-4,0h8" fill="none" stroke="white" stroke-width="1.5" pointer-events="none"/>
                </g>
                <g id="dirArrow">
                        <path fill="none" stroke="white" stroke-width="1.5" d="M0,-3.0v7 M-2.5,-0.5L0,-3.0L2.5,-0.5"/>
                </g>
               <g id="resetDef">
                       <use xlink:href="#rim2" fill="#404040">
                               <set attributeName="fill" to="#808080" begin="reset.mouseover" end="reset.mouseout"/>
                       </use>
               </g>
        </defs>

<script type="text/javascript">
var viewWidth = 1206;
var viewHeight = 344;
var sectionId = 'dynsection-2';
</script>
<script xlink:href="svgpan.js"/>
<svg id="graph" class="graph">
<g id="viewport">
<title>G</title>
<!-- Node1 -->
<g id="node1" class="node"><title>Node1</title>
<polygon fill="#bfbfbf" stroke="black" points="0.5,-136.5 0.5,-157.5 263.5,-157.5 263.5,-136.5 0.5,-136.5"/>
<text text-anchor="middle" x="132" y="-144.5" font-family="FreeSans.ttf" font-size="10.00">corecvs::KLTGenerator::calculateHierarchicalKLTFlow</text>
</g>
<!-- Node2 -->
<g id="node3" class="node"><title>Node2</title>
<a xlink:href="classcorecvs_1_1KLTGenerator.html#a6ccad5db9a878e8d819ed740fa0ad1bf" target="_top" xlink:title="corecvs::KLTGenerator::calculateFlowFromPrevLevelBuffer">
<polygon fill="none" stroke="black" points="300,-136.5 300,-157.5 590,-157.5 590,-136.5 300,-136.5"/>
<text text-anchor="middle" x="445" y="-144.5" font-family="FreeSans.ttf" font-size="10.00">corecvs::KLTGenerator::calculateFlowFromPrevLevelBuffer</text>
</a>
</g>
<!-- Node1&#45;&gt;Node2 -->
<g id="edge2" class="edge"><title>Node1&#45;&gt;Node2</title>
<path fill="none" stroke="midnightblue" d="M263.833,-147C272.419,-147 281.106,-147 289.789,-147"/>
<polygon fill="midnightblue" stroke="midnightblue" points="289.972,-150.5 299.972,-147 289.972,-143.5 289.972,-150.5"/>
</g>
<!-- Node3 -->
<g id="node5" class="node"><title>Node3</title>
<a xlink:href="classcorecvs_1_1AbstractBuffer.html#a98f72526738a0c4ce8a0b72a3b5c28b9" target="_top" xlink:title="The element getter.">
<polygon fill="none" stroke="black" points="985,-194.5 985,-215.5 1159,-215.5 1159,-194.5 985,-194.5"/>
<text text-anchor="middle" x="1072" y="-202.5" font-family="FreeSans.ttf" font-size="10.00">corecvs::AbstractBuffer::element</text>
</a>
</g>
<!-- Node2&#45;&gt;Node3 -->
<g id="edge4" class="edge"><title>Node2&#45;&gt;Node3</title>
<path fill="none" stroke="midnightblue" d="M483.488,-157.588C519.892,-167.104 576.213,-180.546 626,-187 745.323,-202.469 883.967,-205.795 974.603,-206.018"/>
<polygon fill="midnightblue" stroke="midnightblue" points="974.86,-209.518 984.864,-206.03 974.868,-202.518 974.86,-209.518"/>
</g>
<!-- Node4 -->
<g id="node7" class="node"><title>Node4</title>
<a xlink:href="namespacecorecvs.html#a807eb76b7544bcb930b1700a58a780bd" target="_top" xlink:title="Useful round* stuff.">
<polygon fill="none" stroke="black" points="1027,-314.5 1027,-335.5 1117,-335.5 1117,-314.5 1027,-314.5"/>
<text text-anchor="middle" x="1072" y="-322.5" font-family="FreeSans.ttf" font-size="10.00">corecvs::fround</text>
</a>
</g>
<!-- Node2&#45;&gt;Node4 -->
<g id="edge6" class="edge"><title>Node2&#45;&gt;Node4</title>
<path fill="none" stroke="midnightblue" d="M457.098,-157.718C484.759,-181.547 555.674,-238.871 626,-265 760.066,-314.81 930.451,-324.064 1016.66,-325.294"/>
<polygon fill="midnightblue" stroke="midnightblue" points="1016.71,-328.795 1026.75,-325.406 1016.79,-321.795 1016.71,-328.795"/>
</g>
<!-- Node5 -->
<g id="node9" class="node"><title>Node5</title>
<a xlink:href="classcorecvs_1_1AbstractBuffer.html#ab3e67b15f742aa47f24b108c6c5449b7" target="_top" xlink:title="Checks if this buffer has the same size as the other.">
<polygon fill="none" stroke="black" points="668,-40.5 668,-61.5 868,-61.5 868,-40.5 668,-40.5"/>
<text text-anchor="middle" x="768" y="-48.5" font-family="FreeSans.ttf" font-size="10.00">corecvs::AbstractBuffer::hasSameSize</text>
</a>
</g>
<!-- Node2&#45;&gt;Node5 -->
<g id="edge8" class="edge"><title>Node2&#45;&gt;Node5</title>
<path fill="none" stroke="midnightblue" d="M467.639,-136.419C501.422,-121.022 567.346,-92.4887 626,-76 643.873,-70.9755 663.31,-66.7639 681.903,-63.3159"/>
<polygon fill="midnightblue" stroke="midnightblue" points="682.609,-66.7451 691.832,-61.5306 681.371,-59.8556 682.609,-66.7451"/>
</g>
<!-- Node6 -->
<g id="node11" class="node"><title>Node6</title>
<a xlink:href="classcorecvs_1_1PunchedBufferOperations.html#ae58e906e6d31772c9c9b9d93b47629ba" target="_top" xlink:title="corecvs::PunchedBufferOperations::isElementKnownVec">
<polygon fill="none" stroke="black" points="626.5,-0.5 626.5,-21.5 909.5,-21.5 909.5,-0.5 626.5,-0.5"/>
<text text-anchor="middle" x="768" y="-8.5" font-family="FreeSans.ttf" font-size="10.00">corecvs::PunchedBufferOperations::isElementKnownVec</text>
</a>
</g>
<!-- Node2&#45;&gt;Node6 -->
<g id="edge10" class="edge"><title>Node2&#45;&gt;Node6</title>
<path fill="none" stroke="midnightblue" d="M457.566,-136.147C485.615,-112.589 556.356,-56.8119 626,-31 633.304,-28.2928 640.944,-25.9487 648.729,-23.9192"/>
<polygon fill="midnightblue" stroke="midnightblue" points="649.758,-27.271 658.652,-21.5132 648.109,-20.4681 649.758,-27.271"/>
</g>
<!-- Node7 -->
<g id="node13" class="node"><title>Node7</title>
<a xlink:href="classcorecvs_1_1KLTGenerator.html#afdc265cfcab95e8c4bffe4ec42e347b7" target="_top" xlink:title="corecvs::KLTGenerator::kltIteration">
<polygon fill="none" stroke="black" points="678,-234.5 678,-255.5 858,-255.5 858,-234.5 678,-234.5"/>
<text text-anchor="middle" x="768" y="-242.5" font-family="FreeSans.ttf" font-size="10.00">corecvs::KLTGenerator::kltIteration</text>
</a>
</g>
<!-- Node2&#45;&gt;Node7 -->
<g id="edge12" class="edge"><title>Node2&#45;&gt;Node7</title>
<path fill="none" stroke="midnightblue" d="M466.767,-157.518C500.242,-173.292 566.714,-203.028 626,-220 643.564,-225.028 662.655,-229.221 680.974,-232.647"/>
<polygon fill="midnightblue" stroke="midnightblue" points="680.594,-236.135 691.058,-234.471 681.841,-229.247 680.594,-236.135"/>
</g>
<!-- Node8 -->
<g id="node15" class="node"><title>Node8</title>
<a xlink:href="classcorecvs_1_1Vector2d.html#a944721c41f044c1388d9dc42ca899bce" target="_top" xlink:title="corecvs::Vector2d::x">
<polygon fill="none" stroke="black" points="1015.5,-154.5 1015.5,-175.5 1128.5,-175.5 1128.5,-154.5 1015.5,-154.5"/>
<text text-anchor="middle" x="1072" y="-162.5" font-family="FreeSans.ttf" font-size="10.00">corecvs::Vector2d::x</text>
</a>
</g>
<!-- Node2&#45;&gt;Node8 -->
<g id="edge34" class="edge"><title>Node2&#45;&gt;Node8</title>
<path fill="none" stroke="midnightblue" d="M590.157,-142.879C681.929,-141.293 802.996,-141.074 910,-147 941.341,-148.736 975.936,-152.347 1005.08,-155.882"/>
<polygon fill="midnightblue" stroke="midnightblue" points="1004.8,-159.373 1015.15,-157.126 1005.65,-152.426 1004.8,-159.373"/>
</g>
<!-- Node9 -->
<g id="node17" class="node"><title>Node9</title>
<a xlink:href="classcorecvs_1_1Vector2d.html#ae1ea2ad4c0821001408bf963cffa8413" target="_top" xlink:title="corecvs::Vector2d::y">
<polygon fill="none" stroke="black" points="1015.5,-114.5 1015.5,-135.5 1128.5,-135.5 1128.5,-114.5 1015.5,-114.5"/>
<text text-anchor="middle" x="1072" y="-122.5" font-family="FreeSans.ttf" font-size="10.00">corecvs::Vector2d::y</text>
</a>
</g>
<!-- Node2&#45;&gt;Node9 -->
<g id="edge36" class="edge"><title>Node2&#45;&gt;Node9</title>
<path fill="none" stroke="midnightblue" d="M590.206,-138.615C602.313,-138.026 614.365,-137.478 626,-137 760.561,-131.474 918.067,-127.919 1005.28,-126.207"/>
<polygon fill="midnightblue" stroke="midnightblue" points="1005.38,-129.705 1015.31,-126.012 1005.24,-122.707 1005.38,-129.705"/>
</g>
<!-- Node12 -->
<g id="node25" class="node"><title>Node12</title>
<a xlink:href="classcorecvs_1_1FlowBuffer.html#a5c6f557e279c61c878cbcf45d79ae794" target="_top" xlink:title="corecvs::FlowBuffer::setElementUnknown">
<polygon fill="none" stroke="black" points="662,-156.5 662,-177.5 874,-177.5 874,-156.5 662,-156.5"/>
<text text-anchor="middle" x="768" y="-164.5" font-family="FreeSans.ttf" font-size="10.00">corecvs::FlowBuffer::setElementUnknown</text>
</a>
</g>
<!-- Node2&#45;&gt;Node12 -->
<g id="edge26" class="edge"><title>Node2&#45;&gt;Node12</title>
<path fill="none" stroke="midnightblue" d="M590.437,-156.005C610.827,-157.268 631.563,-158.552 651.326,-159.776"/>
<polygon fill="midnightblue" stroke="midnightblue" points="651.368,-163.285 661.565,-160.41 651.8,-156.298 651.368,-163.285"/>
</g>
<!-- Node7&#45;&gt;Node3 -->
<g id="edge24" class="edge"><title>Node7&#45;&gt;Node3</title>
<path fill="none" stroke="midnightblue" d="M847.872,-234.49C889.076,-229.069 939.486,-222.436 982.055,-216.835"/>
<polygon fill="midnightblue" stroke="midnightblue" points="982.676,-220.283 992.134,-215.509 981.763,-213.343 982.676,-220.283"/>
</g>
<!-- Node7&#45;&gt;Node4 -->
<g id="edge18" class="edge"><title>Node7&#45;&gt;Node4</title>
<path fill="none" stroke="midnightblue" d="M802.33,-255.512C831.206,-264.499 873.503,-278.004 910,-291 926.173,-296.759 929.428,-300.518 946,-305 968.898,-311.193 994.69,-315.705 1016.95,-318.858"/>
<polygon fill="midnightblue" stroke="midnightblue" points="1016.52,-322.332 1026.9,-320.213 1017.46,-315.396 1016.52,-322.332"/>
</g>
<!-- Node7&#45;&gt;Node8 -->
<g id="edge14" class="edge"><title>Node7&#45;&gt;Node8</title>
<path fill="none" stroke="midnightblue" d="M794.724,-234.419C829.187,-221.142 891.217,-198.48 946,-185 965.139,-180.291 986.197,-176.439 1005.53,-173.417"/>
<polygon fill="midnightblue" stroke="midnightblue" points="1006.1,-176.871 1015.46,-171.912 1005.05,-169.95 1006.1,-176.871"/>
</g>
<!-- Node7&#45;&gt;Node9 -->
<g id="edge16" class="edge"><title>Node7&#45;&gt;Node9</title>
<path fill="none" stroke="midnightblue" d="M807.277,-234.485C837.288,-225.199 878.685,-209.592 910,-187 929.938,-172.616 924.541,-156.998 946,-145 963.861,-135.014 985.242,-129.631 1005.27,-126.829"/>
<polygon fill="midnightblue" stroke="midnightblue" points="1005.78,-130.293 1015.29,-125.62 1004.94,-123.344 1005.78,-130.293"/>
</g>
<!-- Node10 -->
<g id="node20" class="node"><title>Node10</title>
<a xlink:href="classcorecvs_1_1Vector2d.html#a71d8f2e3266a2bcd8740c2aaf774b9ee" target="_top" xlink:title="corecvs::Vector2d::mapToRect">
<polygon fill="none" stroke="black" points="992,-274.5 992,-295.5 1152,-295.5 1152,-274.5 992,-274.5"/>
<text text-anchor="middle" x="1072" y="-282.5" font-family="FreeSans.ttf" font-size="10.00">corecvs::Vector2d::mapToRect</text>
</a>
</g>
<!-- Node7&#45;&gt;Node10 -->
<g id="edge20" class="edge"><title>Node7&#45;&gt;Node10</title>
<path fill="none" stroke="midnightblue" d="M847.872,-255.51C889.076,-260.931 939.486,-267.564 982.055,-273.165"/>
<polygon fill="midnightblue" stroke="midnightblue" points="981.763,-276.657 992.134,-274.491 982.676,-269.717 981.763,-276.657"/>
</g>
<!-- Node11 -->
<g id="node22" class="node"><title>Node11</title>
<a xlink:href="classcorecvs_1_1AbstractContiniousBuffer.html#ad78e295e4d2bd502ae76989c5cb8a9ba" target="_top" xlink:title="Checks if coordinate lies within the buffer area.">
<polygon fill="none" stroke="black" points="946,-234.5 946,-255.5 1198,-255.5 1198,-234.5 946,-234.5"/>
<text text-anchor="middle" x="1072" y="-242.5" font-family="FreeSans.ttf" font-size="10.00">corecvs::AbstractContiniousBuffer::isValidCoordBl</text>
</a>
</g>
<!-- Node7&#45;&gt;Node11 -->
<g id="edge22" class="edge"><title>Node7&#45;&gt;Node11</title>
<path fill="none" stroke="midnightblue" d="M858.387,-245C882.753,-245 909.661,-245 935.927,-245"/>
<polygon fill="midnightblue" stroke="midnightblue" points="935.956,-248.5 945.956,-245 935.956,-241.5 935.956,-248.5"/>
</g>
<!-- Node12&#45;&gt;Node3 -->
<g id="edge28" class="edge"><title>Node12&#45;&gt;Node3</title>
<path fill="none" stroke="midnightblue" d="M852.277,-177.535C891.236,-182.404 937.655,-188.207 977.768,-193.221"/>
<polygon fill="midnightblue" stroke="midnightblue" points="977.465,-196.71 987.822,-194.478 978.334,-189.764 977.465,-196.71"/>
</g>
<!-- Node12&#45;&gt;Node8 -->
<g id="edge30" class="edge"><title>Node12&#45;&gt;Node8</title>
<path fill="none" stroke="midnightblue" d="M874.324,-166.3C917.862,-166.014 966.911,-165.691 1005.26,-165.439"/>
<polygon fill="midnightblue" stroke="midnightblue" points="1005.29,-168.939 1015.27,-165.373 1005.25,-161.939 1005.29,-168.939"/>
</g>
<!-- Node12&#45;&gt;Node9 -->
<g id="edge32" class="edge"><title>Node12&#45;&gt;Node9</title>
<path fill="none" stroke="midnightblue" d="M844.32,-156.456C893.805,-149.619 957.657,-140.797 1005.14,-134.237"/>
<polygon fill="midnightblue" stroke="midnightblue" points="1005.89,-137.667 1015.32,-132.831 1004.93,-130.732 1005.89,-137.667"/>
</g>
</g>
</svg>
        <g id="navigator" transform="translate(0 0)" fill="#404254">
                <rect fill="#f2f5e9" fill-opacity="0.5" stroke="#606060" stroke-width=".5" x="0" y="0" width="60" height="60"/>
                <use id="zoomplus" xlink:href="#zoomPlus" x="17" y="9" onmousedown="handleZoom(evt,'in')"/>
                <use id="zoomminus" xlink:href="#zoomMin" x="42" y="9" onmousedown="handleZoom(evt,'out')"/>
                <use id="reset" xlink:href="#resetDef" x="30" y="36" onmousedown="handleReset()"/>
                <g id="arrowUp" xlink:href="#dirArrow" transform="translate(30 24)" onmousedown="handlePan(0,-1)">
                  <use xlink:href="#rim" fill="#404040">
                        <set attributeName="fill" to="#808080" begin="arrowUp.mouseover" end="arrowUp.mouseout"/>
                  </use>
                  <path fill="none" stroke="white" stroke-width="1.5" d="M0,-3.0v7 M-2.5,-0.5L0,-3.0L2.5,-0.5"/>
                </g>
                <g id="arrowRight" xlink:href="#dirArrow" transform="rotate(90) translate(36 -43)" onmousedown="handlePan(1,0)">
                  <use xlink:href="#rim" fill="#404040">
                        <set attributeName="fill" to="#808080" begin="arrowRight.mouseover" end="arrowRight.mouseout"/>
                  </use>
                  <path fill="none" stroke="white" stroke-width="1.5" d="M0,-3.0v7 M-2.5,-0.5L0,-3.0L2.5,-0.5"/>
                </g>
                <g id="arrowDown" xlink:href="#dirArrow" transform="rotate(180) translate(-30 -48)" onmousedown="handlePan(0,1)">
                  <use xlink:href="#rim" fill="#404040">
                        <set attributeName="fill" to="#808080" begin="arrowDown.mouseover" end="arrowDown.mouseout"/>
                  </use>
                  <path fill="none" stroke="white" stroke-width="1.5" d="M0,-3.0v7 M-2.5,-0.5L0,-3.0L2.5,-0.5"/>
                </g>
                <g id="arrowLeft" xlink:href="#dirArrow" transform="rotate(270) translate(-36 17)" onmousedown="handlePan(-1,0)">
                  <use xlink:href="#rim" fill="#404040">
                        <set attributeName="fill" to="#808080" begin="arrowLeft.mouseover" end="arrowLeft.mouseout"/>
                  </use>
                  <path fill="none" stroke="white" stroke-width="1.5" d="M0,-3.0v7 M-2.5,-0.5L0,-3.0L2.5,-0.5"/>
                </g>
        </g>
</svg>
