<?xml version="1.0" encoding="UTF-8" standalone="no"?>
<!DOCTYPE svg PUBLIC "-//W3C//DTD SVG 1.1//EN"
 "http://www.w3.org/Graphics/SVG/1.1/DTD/svg11.dtd">
<!-- Generated by graphviz version 2.26.3 (20100126.1600)
 -->
<!-- Title: G Pages: 1 -->
<!--zoomable 470 -->
<svg id="main" version="1.1" xmlns="http://www.w3.org/2000/svg" xmlns:xlink="http://www.w3.org/1999/xlink" xml:space="preserve" onload="init(evt)">
        <defs>
                <circle id="rim" cx="0" cy="0" r="7"/>
                <circle id="rim2" cx="0" cy="0" r="3.5"/>
                <g id="zoomPlus">
                        <use xlink:href="#rim" fill="#404040">
                                <set attributeName="fill" to="#808080" begin="zoomplus.mouseover" end="zoomplus.mouseout"/>
                        </use>
                        <path d="M-4,0h8M0,-4v8" fill="none" stroke="white" stroke-width="1.5" pointer-events="none"/>
                </g>
                <g id="zoomMin">
                        <use xlink:href="#rim" fill="#404040">
                                <set attributeName="fill" to="#808080" begin="zoomminus.mouseover" end="zoomminus.mouseout"/>
                        </use>
                        <path d="M-4,0h8" fill="none" stroke="white" stroke-width="1.5" pointer-events="none"/>
                </g>
                <g id="dirArrow">
                        <path fill="none" stroke="white" stroke-width="1.5" d="M0,-3.0v7 M-2.5,-0.5L0,-3.0L2.5,-0.5"/>
                </g>
               <g id="resetDef">
                       <use xlink:href="#rim2" fill="#404040">
                               <set attributeName="fill" to="#808080" begin="reset.mouseover" end="reset.mouseout"/>
                       </use>
               </g>
        </defs>

<script type="text/javascript">
var viewWidth = 874;
var viewHeight = 470;
var sectionId = 'dynsection-9';
</script>
<script xlink:href="svgpan.js"/>
<svg id="graph" class="graph">
<g id="viewport">
<title>G</title>
<!-- Node1 -->
<g id="node1" class="node"><title>Node1</title>
<polygon fill="#bfbfbf" stroke="black" points="0,-220.5 0,-241.5 282,-241.5 282,-220.5 0,-220.5"/>
<text text-anchor="middle" x="141" y="-228.5" font-family="FreeSans.ttf" font-size="10.00">Draw3dParametersControlWidget::setParametersVirtual</text>
</g>
<!-- Node2 -->
<g id="node3" class="node"><title>Node2</title>
<a xlink:href="classDraw3dParametersControlWidget.html#a0afe3abb66ba95f8c0ac40a453a91163" target="_top" xlink:title="Draw3dParametersControlWidget::setParameters">
<polygon fill="none" stroke="black" points="318.5,-220.5 318.5,-241.5 569.5,-241.5 569.5,-220.5 318.5,-220.5"/>
<text text-anchor="middle" x="444" y="-228.5" font-family="FreeSans.ttf" font-size="10.00">Draw3dParametersControlWidget::setParameters</text>
</a>
</g>
<!-- Node1&#45;&gt;Node2 -->
<g id="edge2" class="edge"><title>Node1&#45;&gt;Node2</title>
<path fill="none" stroke="midnightblue" d="M282.298,-231C290.948,-231 299.642,-231 308.267,-231"/>
<polygon fill="midnightblue" stroke="midnightblue" points="308.354,-234.5 318.354,-231 308.354,-227.5 308.354,-234.5"/>
</g>
<!-- Node3 -->
<g id="node5" class="node"><title>Node3</title>
<a xlink:href="classDraw3dParameters.html#a5c833963f4b9b36ce3e7648f4a5a901f" target="_top" xlink:title="Draw3dParameters::color">
<polygon fill="none" stroke="black" points="667.5,-440.5 667.5,-461.5 804.5,-461.5 804.5,-440.5 667.5,-440.5"/>
<text text-anchor="middle" x="736" y="-448.5" font-family="FreeSans.ttf" font-size="10.00">Draw3dParameters::color</text>
</a>
</g>
<!-- Node2&#45;&gt;Node3 -->
<g id="edge4" class="edge"><title>Node2&#45;&gt;Node3</title>
<path fill="none" stroke="midnightblue" d="M448.955,-241.538C465.587,-275.615 523.079,-383.377 606,-431 621.394,-439.841 639.427,-445.157 657.077,-448.273"/>
<polygon fill="midnightblue" stroke="midnightblue" points="656.985,-451.8 667.402,-449.864 658.051,-444.882 656.985,-451.8"/>
</g>
<!-- Node4 -->
<g id="node7" class="node"><title>Node4</title>
<a xlink:href="classDraw3dParameters.html#a906711a978ad0e6812137d127f8440c1" target="_top" xlink:title="Draw3dParameters::decalLeftAlpha">
<polygon fill="none" stroke="black" points="643.5,-400.5 643.5,-421.5 828.5,-421.5 828.5,-400.5 643.5,-400.5"/>
<text text-anchor="middle" x="736" y="-408.5" font-family="FreeSans.ttf" font-size="10.00">Draw3dParameters::decalLeftAlpha</text>
</a>
</g>
<!-- Node2&#45;&gt;Node4 -->
<g id="edge6" class="edge"><title>Node2&#45;&gt;Node4</title>
<path fill="none" stroke="midnightblue" d="M451.203,-241.87C471.508,-271.523 532.542,-354.062 606,-391 614.555,-395.302 623.795,-398.731 633.267,-401.458"/>
<polygon fill="midnightblue" stroke="midnightblue" points="632.642,-404.912 643.202,-404.052 634.411,-398.139 632.642,-404.912"/>
</g>
<!-- Node5 -->
<g id="node9" class="node"><title>Node5</title>
<a xlink:href="classDraw3dParameters.html#afee5bbe4f89307b91fee544c03151fbd" target="_top" xlink:title="Draw3dParameters::decalLeftCam">
<polygon fill="none" stroke="black" points="646,-360.5 646,-381.5 826,-381.5 826,-360.5 646,-360.5"/>
<text text-anchor="middle" x="736" y="-368.5" font-family="FreeSans.ttf" font-size="10.00">Draw3dParameters::decalLeftCam</text>
</a>
</g>
<!-- Node2&#45;&gt;Node5 -->
<g id="edge8" class="edge"><title>Node2&#45;&gt;Node5</title>
<path fill="none" stroke="midnightblue" d="M454.59,-241.846C478.857,-265.97 541.392,-324.057 606,-351 615.503,-354.963 625.691,-358.15 636.029,-360.713"/>
<polygon fill="midnightblue" stroke="midnightblue" points="635.44,-364.168 645.968,-362.982 636.998,-357.344 635.44,-364.168"/>
</g>
<!-- Node6 -->
<g id="node11" class="node"><title>Node6</title>
<a xlink:href="classDraw3dParameters.html#af81a04a61abba3640d888e121e3c4f4c" target="_top" xlink:title="Draw3dParameters::decalMatrixType">
<polygon fill="none" stroke="black" points="641,-320.5 641,-341.5 831,-341.5 831,-320.5 641,-320.5"/>
<text text-anchor="middle" x="736" y="-328.5" font-family="FreeSans.ttf" font-size="10.00">Draw3dParameters::decalMatrixType</text>
</a>
</g>
<!-- Node2&#45;&gt;Node6 -->
<g id="edge10" class="edge"><title>Node2&#45;&gt;Node6</title>
<path fill="none" stroke="midnightblue" d="M461.233,-241.735C490.054,-259.167 550.361,-293.442 606,-311 615.051,-313.856 624.589,-316.312 634.219,-318.422"/>
<polygon fill="midnightblue" stroke="midnightblue" points="633.769,-321.903 644.27,-320.499 635.185,-315.048 633.769,-321.903"/>
</g>
<!-- Node7 -->
<g id="node13" class="node"><title>Node7</title>
<a xlink:href="classDraw3dParameters.html#aa64f1a231d397ed0d7b9fe9a3cea1efa" target="_top" xlink:title="Draw3dParameters::decalRightAlpha">
<polygon fill="none" stroke="black" points="640.5,-280.5 640.5,-301.5 831.5,-301.5 831.5,-280.5 640.5,-280.5"/>
<text text-anchor="middle" x="736" y="-288.5" font-family="FreeSans.ttf" font-size="10.00">Draw3dParameters::decalRightAlpha</text>
</a>
</g>
<!-- Node2&#45;&gt;Node7 -->
<g id="edge12" class="edge"><title>Node2&#45;&gt;Node7</title>
<path fill="none" stroke="midnightblue" d="M482.406,-241.512C515.095,-250.211 563.389,-262.479 606,-271 620.1,-273.819 635.129,-276.462 649.776,-278.844"/>
<polygon fill="midnightblue" stroke="midnightblue" points="649.413,-282.33 659.84,-280.45 650.517,-275.418 649.413,-282.33"/>
</g>
<!-- Node8 -->
<g id="node15" class="node"><title>Node8</title>
<a xlink:href="classDraw3dParameters.html#ad7d221b0caa355d14c2b5c2e9bcaa0b8" target="_top" xlink:title="Draw3dParameters::decalRightCam">
<polygon fill="none" stroke="black" points="643,-240.5 643,-261.5 829,-261.5 829,-240.5 643,-240.5"/>
<text text-anchor="middle" x="736" y="-248.5" font-family="FreeSans.ttf" font-size="10.00">Draw3dParameters::decalRightCam</text>
</a>
</g>
<!-- Node2&#45;&gt;Node8 -->
<g id="edge14" class="edge"><title>Node2&#45;&gt;Node8</title>
<path fill="none" stroke="midnightblue" d="M569.529,-239.598C590.554,-241.038 612.157,-242.518 632.547,-243.914"/>
<polygon fill="midnightblue" stroke="midnightblue" points="632.553,-247.423 642.769,-244.614 633.031,-240.439 632.553,-247.423"/>
</g>
<!-- Node9 -->
<g id="node17" class="node"><title>Node9</title>
<a xlink:href="classDraw3dParametersControlWidget.html#ad40f149390324e16d7d5fc481ce5343f" target="_top" xlink:title="Draw3dParametersControlWidget::paramsChanged">
<polygon fill="none" stroke="black" points="606,-200.5 606,-221.5 866,-221.5 866,-200.5 606,-200.5"/>
<text text-anchor="middle" x="736" y="-208.5" font-family="FreeSans.ttf" font-size="10.00">Draw3dParametersControlWidget::paramsChanged</text>
</a>
</g>
<!-- Node2&#45;&gt;Node9 -->
<g id="edge16" class="edge"><title>Node2&#45;&gt;Node9</title>
<path fill="none" stroke="midnightblue" d="M569.529,-222.402C578.195,-221.809 586.959,-221.208 595.695,-220.61"/>
<polygon fill="midnightblue" stroke="midnightblue" points="596.194,-224.084 605.932,-219.909 595.716,-217.1 596.194,-224.084"/>
</g>
<!-- Node10 -->
<g id="node19" class="node"><title>Node10</title>
<a xlink:href="classDraw3dParameters.html#aa04119ab6f6f7080a3fe0c674ee1d18d" target="_top" xlink:title="Draw3dParameters::secondaryColor">
<polygon fill="none" stroke="black" points="642,-160.5 642,-181.5 830,-181.5 830,-160.5 642,-160.5"/>
<text text-anchor="middle" x="736" y="-168.5" font-family="FreeSans.ttf" font-size="10.00">Draw3dParameters::secondaryColor</text>
</a>
</g>
<!-- Node2&#45;&gt;Node10 -->
<g id="edge18" class="edge"><title>Node2&#45;&gt;Node10</title>
<path fill="none" stroke="midnightblue" d="M482.406,-220.488C515.095,-211.789 563.389,-199.521 606,-191 620.1,-188.181 635.129,-185.538 649.776,-183.156"/>
<polygon fill="midnightblue" stroke="midnightblue" points="650.517,-186.582 659.84,-181.55 649.413,-179.67 650.517,-186.582"/>
</g>
<!-- Node11 -->
<g id="node21" class="node"><title>Node11</title>
<a xlink:href="classDraw3dParameters.html#a8a72b5514e9f892c0255c276c5491f0e" target="_top" xlink:title="Draw3dParameters::style">
<polygon fill="none" stroke="black" points="667.5,-120.5 667.5,-141.5 804.5,-141.5 804.5,-120.5 667.5,-120.5"/>
<text text-anchor="middle" x="736" y="-128.5" font-family="FreeSans.ttf" font-size="10.00">Draw3dParameters::style</text>
</a>
</g>
<!-- Node2&#45;&gt;Node11 -->
<g id="edge20" class="edge"><title>Node2&#45;&gt;Node11</title>
<path fill="none" stroke="midnightblue" d="M461.233,-220.265C490.054,-202.833 550.361,-168.558 606,-151 622.292,-145.859 640.165,-142.014 657.303,-139.148"/>
<polygon fill="midnightblue" stroke="midnightblue" points="657.96,-142.588 667.291,-137.571 656.868,-135.673 657.96,-142.588"/>
</g>
<!-- Node12 -->
<g id="node23" class="node"><title>Node12</title>
<a xlink:href="classDraw3dParameters.html#a0ff2e78739545e90ed14f2f7717e8c1e" target="_top" xlink:title="Draw3dParameters::textureAlpha">
<polygon fill="none" stroke="black" points="648,-80.5 648,-101.5 824,-101.5 824,-80.5 648,-80.5"/>
<text text-anchor="middle" x="736" y="-88.5" font-family="FreeSans.ttf" font-size="10.00">Draw3dParameters::textureAlpha</text>
</a>
</g>
<!-- Node2&#45;&gt;Node12 -->
<g id="edge22" class="edge"><title>Node2&#45;&gt;Node12</title>
<path fill="none" stroke="midnightblue" d="M454.59,-220.154C478.857,-196.03 541.392,-137.943 606,-111 616.004,-106.828 626.768,-103.515 637.666,-100.887"/>
<polygon fill="midnightblue" stroke="midnightblue" points="638.691,-104.245 647.694,-98.6607 637.173,-97.4114 638.691,-104.245"/>
</g>
<!-- Node13 -->
<g id="node25" class="node"><title>Node13</title>
<a xlink:href="classDraw3dParameters.html#ad3cd20efc1c9bbd1ea6f9ba3ed73c9dc" target="_top" xlink:title="Draw3dParameters::textureCorrodinates">
<polygon fill="none" stroke="black" points="631,-40.5 631,-61.5 841,-61.5 841,-40.5 631,-40.5"/>
<text text-anchor="middle" x="736" y="-48.5" font-family="FreeSans.ttf" font-size="10.00">Draw3dParameters::textureCorrodinates</text>
</a>
</g>
<!-- Node2&#45;&gt;Node13 -->
<g id="edge24" class="edge"><title>Node2&#45;&gt;Node13</title>
<path fill="none" stroke="midnightblue" d="M451.203,-220.13C471.508,-190.477 532.542,-107.938 606,-71 610.909,-68.5316 616.044,-66.3505 621.318,-64.4245"/>
<polygon fill="midnightblue" stroke="midnightblue" points="622.559,-67.7006 630.945,-61.2263 620.352,-61.0576 622.559,-67.7006"/>
</g>
<!-- Node14 -->
<g id="node27" class="node"><title>Node14</title>
<a xlink:href="classDraw3dParameters.html#acb49e53484211e3a8d0379e4e31d9907" target="_top" xlink:title="Draw3dParameters::textureScale">
<polygon fill="none" stroke="black" points="648.5,-0.5 648.5,-21.5 823.5,-21.5 823.5,-0.5 648.5,-0.5"/>
<text text-anchor="middle" x="736" y="-8.5" font-family="FreeSans.ttf" font-size="10.00">Draw3dParameters::textureScale</text>
</a>
</g>
<!-- Node2&#45;&gt;Node14 -->
<g id="edge26" class="edge"><title>Node2&#45;&gt;Node14</title>
<path fill="none" stroke="midnightblue" d="M448.955,-220.462C465.587,-186.385 523.079,-78.6228 606,-31 615.955,-25.2827 627.014,-21.0397 638.358,-17.9123"/>
<polygon fill="midnightblue" stroke="midnightblue" points="639.509,-21.2335 648.381,-15.4422 637.834,-14.4368 639.509,-21.2335"/>
</g>
</g>
</svg>
        <g id="navigator" transform="translate(0 0)" fill="#404254">
                <rect fill="#f2f5e9" fill-opacity="0.5" stroke="#606060" stroke-width=".5" x="0" y="0" width="60" height="60"/>
                <use id="zoomplus" xlink:href="#zoomPlus" x="17" y="9" onmousedown="handleZoom(evt,'in')"/>
                <use id="zoomminus" xlink:href="#zoomMin" x="42" y="9" onmousedown="handleZoom(evt,'out')"/>
                <use id="reset" xlink:href="#resetDef" x="30" y="36" onmousedown="handleReset()"/>
                <g id="arrowUp" xlink:href="#dirArrow" transform="translate(30 24)" onmousedown="handlePan(0,-1)">
                  <use xlink:href="#rim" fill="#404040">
                        <set attributeName="fill" to="#808080" begin="arrowUp.mouseover" end="arrowUp.mouseout"/>
                  </use>
                  <path fill="none" stroke="white" stroke-width="1.5" d="M0,-3.0v7 M-2.5,-0.5L0,-3.0L2.5,-0.5"/>
                </g>
                <g id="arrowRight" xlink:href="#dirArrow" transform="rotate(90) translate(36 -43)" onmousedown="handlePan(1,0)">
                  <use xlink:href="#rim" fill="#404040">
                        <set attributeName="fill" to="#808080" begin="arrowRight.mouseover" end="arrowRight.mouseout"/>
                  </use>
                  <path fill="none" stroke="white" stroke-width="1.5" d="M0,-3.0v7 M-2.5,-0.5L0,-3.0L2.5,-0.5"/>
                </g>
                <g id="arrowDown" xlink:href="#dirArrow" transform="rotate(180) translate(-30 -48)" onmousedown="handlePan(0,1)">
                  <use xlink:href="#rim" fill="#404040">
                        <set attributeName="fill" to="#808080" begin="arrowDown.mouseover" end="arrowDown.mouseout"/>
                  </use>
                  <path fill="none" stroke="white" stroke-width="1.5" d="M0,-3.0v7 M-2.5,-0.5L0,-3.0L2.5,-0.5"/>
                </g>
                <g id="arrowLeft" xlink:href="#dirArrow" transform="rotate(270) translate(-36 17)" onmousedown="handlePan(-1,0)">
                  <use xlink:href="#rim" fill="#404040">
                        <set attributeName="fill" to="#808080" begin="arrowLeft.mouseover" end="arrowLeft.mouseout"/>
                  </use>
                  <path fill="none" stroke="white" stroke-width="1.5" d="M0,-3.0v7 M-2.5,-0.5L0,-3.0L2.5,-0.5"/>
                </g>
        </g>
</svg>
