<?xml version="1.0" encoding="UTF-8" standalone="no"?>
<!DOCTYPE svg PUBLIC "-//W3C//DTD SVG 1.1//EN"
 "http://www.w3.org/Graphics/SVG/1.1/DTD/svg11.dtd">
<!-- Generated by graphviz version 2.26.3 (20100126.1600)
 -->
<!-- Title: G Pages: 1 -->
<!--zoomable 150 -->
<svg id="main" version="1.1" xmlns="http://www.w3.org/2000/svg" xmlns:xlink="http://www.w3.org/1999/xlink" xml:space="preserve" onload="init(evt)">
        <defs>
                <circle id="rim" cx="0" cy="0" r="7"/>
                <circle id="rim2" cx="0" cy="0" r="3.5"/>
                <g id="zoomPlus">
                        <use xlink:href="#rim" fill="#404040">
                                <set attributeName="fill" to="#808080" begin="zoomplus.mouseover" end="zoomplus.mouseout"/>
                        </use>
                        <path d="M-4,0h8M0,-4v8" fill="none" stroke="white" stroke-width="1.5" pointer-events="none"/>
                </g>
                <g id="zoomMin">
                        <use xlink:href="#rim" fill="#404040">
                                <set attributeName="fill" to="#808080" begin="zoomminus.mouseover" end="zoomminus.mouseout"/>
                        </use>
                        <path d="M-4,0h8" fill="none" stroke="white" stroke-width="1.5" pointer-events="none"/>
                </g>
                <g id="dirArrow">
                        <path fill="none" stroke="white" stroke-width="1.5" d="M0,-3.0v7 M-2.5,-0.5L0,-3.0L2.5,-0.5"/>
                </g>
               <g id="resetDef">
                       <use xlink:href="#rim2" fill="#404040">
                               <set attributeName="fill" to="#808080" begin="reset.mouseover" end="reset.mouseout"/>
                       </use>
               </g>
        </defs>

<script type="text/javascript">
var viewWidth = 588;
var viewHeight = 150;
var sectionId = 'dynsection-7';
</script>
<script xlink:href="svgpan.js"/>
<svg id="graph" class="graph">
<g id="viewport">
<title>G</title>
<!-- Node1 -->
<g id="node1" class="node"><title>Node1</title>
<polygon fill="#bfbfbf" stroke="black" points="0,-80.5 0,-101.5 142,-101.5 142,-80.5 0,-80.5"/>
<text text-anchor="middle" x="71" y="-88.5" font-family="FreeSans.ttf" font-size="10.00">corecvs::BMPLoader::save</text>
</g>
<!-- Node2 -->
<g id="node3" class="node"><title>Node2</title>
<a xlink:href="classcorecvs_1_1RGB24Buffer.html#a2cd70ed01a27c4942052899707784264" target="_top" xlink:title="corecvs::RGB24Buffer::drawG8Buffer">
<polygon fill="none" stroke="black" points="178.5,-120.5 178.5,-141.5 369.5,-141.5 369.5,-120.5 178.5,-120.5"/>
<text text-anchor="middle" x="274" y="-128.5" font-family="FreeSans.ttf" font-size="10.00">corecvs::RGB24Buffer::drawG8Buffer</text>
</a>
</g>
<!-- Node1&#45;&gt;Node2 -->
<g id="edge2" class="edge"><title>Node1&#45;&gt;Node2</title>
<path fill="none" stroke="midnightblue" d="M124.336,-101.51C150.805,-106.725 182.964,-113.062 210.678,-118.523"/>
<polygon fill="midnightblue" stroke="midnightblue" points="210.18,-121.992 220.668,-120.491 211.534,-115.124 210.18,-121.992"/>
</g>
<!-- Node4 -->
<g id="node7" class="node"><title>Node4</title>
<a xlink:href="classcorecvs_1_1AbstractBuffer.html#a6be5a0969d374904dc4ff6cd576c9332" target="_top" xlink:title="Buffer size getter.">
<polygon fill="none" stroke="black" points="189,-80.5 189,-101.5 359,-101.5 359,-80.5 189,-80.5"/>
<text text-anchor="middle" x="274" y="-88.5" font-family="FreeSans.ttf" font-size="10.00">corecvs::AbstractBuffer::getSize</text>
</a>
</g>
<!-- Node1&#45;&gt;Node4 -->
<g id="edge6" class="edge"><title>Node1&#45;&gt;Node4</title>
<path fill="none" stroke="midnightblue" d="M142.285,-91C154.066,-91 166.445,-91 178.703,-91"/>
<polygon fill="midnightblue" stroke="midnightblue" points="178.955,-94.5001 188.955,-91 178.955,-87.5001 178.955,-94.5001"/>
</g>
<!-- Node5 -->
<g id="node9" class="node"><title>Node5</title>
<a xlink:href="classcorecvs_1_1BMPLoader.html#a68f1050704420c836d000300729623e3" target="_top" xlink:title="TODO: Add error handling.">
<polygon fill="none" stroke="black" points="203,-40.5 203,-61.5 345,-61.5 345,-40.5 203,-40.5"/>
<text text-anchor="middle" x="274" y="-48.5" font-family="FreeSans.ttf" font-size="10.00">corecvs::BMPLoader::save</text>
</a>
</g>
<!-- Node1&#45;&gt;Node5 -->
<g id="edge8" class="edge"><title>Node1&#45;&gt;Node5</title>
<path fill="none" stroke="midnightblue" d="M124.336,-80.4905C150.805,-75.2748 182.964,-68.9381 210.678,-63.4773"/>
<polygon fill="midnightblue" stroke="midnightblue" points="211.534,-66.876 220.668,-61.5087 210.18,-60.0081 211.534,-66.876"/>
</g>
<!-- Node3 -->
<g id="node5" class="node"><title>Node3</title>
<a xlink:href="classcorecvs_1_1AbstractBuffer.html#a98f72526738a0c4ce8a0b72a3b5c28b9" target="_top" xlink:title="The element getter.">
<polygon fill="none" stroke="black" points="406,-120.5 406,-141.5 580,-141.5 580,-120.5 406,-120.5"/>
<text text-anchor="middle" x="493" y="-128.5" font-family="FreeSans.ttf" font-size="10.00">corecvs::AbstractBuffer::element</text>
</a>
</g>
<!-- Node2&#45;&gt;Node3 -->
<g id="edge4" class="edge"><title>Node2&#45;&gt;Node3</title>
<path fill="none" stroke="midnightblue" d="M369.738,-131C378.341,-131 387.06,-131 395.677,-131"/>
<polygon fill="midnightblue" stroke="midnightblue" points="395.733,-134.5 405.733,-131 395.732,-127.5 395.733,-134.5"/>
</g>
<!-- Node5&#45;&gt;Node3 -->
<g id="edge12" class="edge"><title>Node5&#45;&gt;Node3</title>
<path fill="none" stroke="midnightblue" d="M345.105,-60.4552C353.807,-63.1436 362.325,-66.5883 370,-71 390.736,-82.9192 385.388,-98.8682 406,-111 409.681,-113.167 413.579,-115.099 417.602,-116.821"/>
<polygon fill="midnightblue" stroke="midnightblue" points="416.588,-120.181 427.179,-120.473 419.082,-113.64 416.588,-120.181"/>
</g>
<!-- Node6 -->
<g id="node11" class="node"><title>Node6</title>
<a xlink:href="classcorecvs_1_1RGBColor.html#a28d1778710e5ade8ab275f8ef03cdaec" target="_top" xlink:title="corecvs::RGBColor::b">
<polygon fill="none" stroke="black" points="435,-80.5 435,-101.5 551,-101.5 551,-80.5 435,-80.5"/>
<text text-anchor="middle" x="493" y="-88.5" font-family="FreeSans.ttf" font-size="10.00">corecvs::RGBColor::b</text>
</a>
</g>
<!-- Node5&#45;&gt;Node6 -->
<g id="edge10" class="edge"><title>Node5&#45;&gt;Node6</title>
<path fill="none" stroke="midnightblue" d="M331.54,-61.5095C360.346,-66.771 395.398,-73.1732 425.473,-78.6662"/>
<polygon fill="midnightblue" stroke="midnightblue" points="424.999,-82.1375 435.465,-80.4913 426.256,-75.2514 424.999,-82.1375"/>
</g>
<!-- Node7 -->
<g id="node14" class="node"><title>Node7</title>
<a xlink:href="classcorecvs_1_1RGBColor.html#a61bb42ad3c5af64582ba22408e8bc5c4" target="_top" xlink:title="corecvs::RGBColor::g">
<polygon fill="none" stroke="black" points="435,-40.5 435,-61.5 551,-61.5 551,-40.5 435,-40.5"/>
<text text-anchor="middle" x="493" y="-48.5" font-family="FreeSans.ttf" font-size="10.00">corecvs::RGBColor::g</text>
</a>
</g>
<!-- Node5&#45;&gt;Node7 -->
<g id="edge14" class="edge"><title>Node5&#45;&gt;Node7</title>
<path fill="none" stroke="midnightblue" d="M345.103,-51C370.57,-51 399.21,-51 424.456,-51"/>
<polygon fill="midnightblue" stroke="midnightblue" points="424.681,-54.5001 434.681,-51 424.681,-47.5001 424.681,-54.5001"/>
</g>
<!-- Node8 -->
<g id="node16" class="node"><title>Node8</title>
<a xlink:href="classcorecvs_1_1RGBColor.html#a551378cc4e40775286d1200a21e3dfbc" target="_top" xlink:title="corecvs::RGBColor::r">
<polygon fill="none" stroke="black" points="436,-0.5 436,-21.5 550,-21.5 550,-0.5 436,-0.5"/>
<text text-anchor="middle" x="493" y="-8.5" font-family="FreeSans.ttf" font-size="10.00">corecvs::RGBColor::r</text>
</a>
</g>
<!-- Node5&#45;&gt;Node8 -->
<g id="edge16" class="edge"><title>Node5&#45;&gt;Node8</title>
<path fill="none" stroke="midnightblue" d="M331.54,-40.4905C360.46,-35.2082 395.675,-28.7762 425.829,-23.2687"/>
<polygon fill="midnightblue" stroke="midnightblue" points="426.636,-26.6792 435.845,-21.4393 425.378,-19.7931 426.636,-26.6792"/>
</g>
</g>
</svg>
        <g id="navigator" transform="translate(0 0)" fill="#404254">
                <rect fill="#f2f5e9" fill-opacity="0.5" stroke="#606060" stroke-width=".5" x="0" y="0" width="60" height="60"/>
                <use id="zoomplus" xlink:href="#zoomPlus" x="17" y="9" onmousedown="handleZoom(evt,'in')"/>
                <use id="zoomminus" xlink:href="#zoomMin" x="42" y="9" onmousedown="handleZoom(evt,'out')"/>
                <use id="reset" xlink:href="#resetDef" x="30" y="36" onmousedown="handleReset()"/>
                <g id="arrowUp" xlink:href="#dirArrow" transform="translate(30 24)" onmousedown="handlePan(0,-1)">
                  <use xlink:href="#rim" fill="#404040">
                        <set attributeName="fill" to="#808080" begin="arrowUp.mouseover" end="arrowUp.mouseout"/>
                  </use>
                  <path fill="none" stroke="white" stroke-width="1.5" d="M0,-3.0v7 M-2.5,-0.5L0,-3.0L2.5,-0.5"/>
                </g>
                <g id="arrowRight" xlink:href="#dirArrow" transform="rotate(90) translate(36 -43)" onmousedown="handlePan(1,0)">
                  <use xlink:href="#rim" fill="#404040">
                        <set attributeName="fill" to="#808080" begin="arrowRight.mouseover" end="arrowRight.mouseout"/>
                  </use>
                  <path fill="none" stroke="white" stroke-width="1.5" d="M0,-3.0v7 M-2.5,-0.5L0,-3.0L2.5,-0.5"/>
                </g>
                <g id="arrowDown" xlink:href="#dirArrow" transform="rotate(180) translate(-30 -48)" onmousedown="handlePan(0,1)">
                  <use xlink:href="#rim" fill="#404040">
                        <set attributeName="fill" to="#808080" begin="arrowDown.mouseover" end="arrowDown.mouseout"/>
                  </use>
                  <path fill="none" stroke="white" stroke-width="1.5" d="M0,-3.0v7 M-2.5,-0.5L0,-3.0L2.5,-0.5"/>
                </g>
                <g id="arrowLeft" xlink:href="#dirArrow" transform="rotate(270) translate(-36 17)" onmousedown="handlePan(-1,0)">
                  <use xlink:href="#rim" fill="#404040">
                        <set attributeName="fill" to="#808080" begin="arrowLeft.mouseover" end="arrowLeft.mouseout"/>
                  </use>
                  <path fill="none" stroke="white" stroke-width="1.5" d="M0,-3.0v7 M-2.5,-0.5L0,-3.0L2.5,-0.5"/>
                </g>
        </g>
</svg>
