<?xml version="1.0" encoding="UTF-8" standalone="no"?>
<!DOCTYPE svg PUBLIC "-//W3C//DTD SVG 1.1//EN"
 "http://www.w3.org/Graphics/SVG/1.1/DTD/svg11.dtd">
<!-- Generated by graphviz version 2.26.3 (20100126.1600)
 -->
<!-- Title: G Pages: 1 -->
<svg width="300pt" height="230pt"
 viewBox="0.00 0.00 300.00 230.00" xmlns="http://www.w3.org/2000/svg" xmlns:xlink="http://www.w3.org/1999/xlink">
<g id="graph1" class="graph" transform="scale(1 1) rotate(0) translate(4 226)">
<title>G</title>
<!-- Node1 -->
<g id="node1" class="node"><title>Node1</title>
<polygon fill="#bfbfbf" stroke="black" points="0,-100.5 0,-121.5 140,-121.5 140,-100.5 0,-100.5"/>
<text text-anchor="middle" x="70" y="-108.5" font-family="FreeSans.ttf" font-size="10.00">Scene3DMouse::dumpPLY</text>
</g>
<!-- Node2 -->
<g id="node3" class="node"><title>Node2</title>
<a xlink:href="classcorecvs_1_1RGBColor.html#a28d1778710e5ade8ab275f8ef03cdaec" target="_top" xlink:title="corecvs::RGBColor::b">
<polygon fill="none" stroke="black" points="176,-200.5 176,-221.5 292,-221.5 292,-200.5 176,-200.5"/>
<text text-anchor="middle" x="234" y="-208.5" font-family="FreeSans.ttf" font-size="10.00">corecvs::RGBColor::b</text>
</a>
</g>
<!-- Node1&#45;&gt;Node2 -->
<g id="edge2" class="edge"><title>Node1&#45;&gt;Node2</title>
<path fill="none" stroke="midnightblue" d="M81.552,-121.693C100.177,-138.457 138.555,-171.062 176,-191 179.913,-193.084 184.088,-195.019 188.334,-196.798"/>
<polygon fill="midnightblue" stroke="midnightblue" points="187.086,-200.068 197.674,-200.442 189.63,-193.547 187.086,-200.068"/>
</g>
<!-- Node3 -->
<g id="node5" class="node"><title>Node3</title>
<a xlink:href="classcorecvs_1_1RGBColor.html#a61bb42ad3c5af64582ba22408e8bc5c4" target="_top" xlink:title="corecvs::RGBColor::g">
<polygon fill="none" stroke="black" points="176,-160.5 176,-181.5 292,-181.5 292,-160.5 176,-160.5"/>
<text text-anchor="middle" x="234" y="-168.5" font-family="FreeSans.ttf" font-size="10.00">corecvs::RGBColor::g</text>
</a>
</g>
<!-- Node1&#45;&gt;Node3 -->
<g id="edge4" class="edge"><title>Node1&#45;&gt;Node3</title>
<path fill="none" stroke="midnightblue" d="M97.3733,-121.577C118.73,-129.769 149.174,-141.316 176,-151 181.584,-153.016 187.485,-155.102 193.302,-157.132"/>
<polygon fill="midnightblue" stroke="midnightblue" points="192.344,-160.504 202.938,-160.474 194.637,-153.89 192.344,-160.504"/>
</g>
<!-- Node4 -->
<g id="node7" class="node"><title>Node4</title>
<a xlink:href="classcorecvs_1_1RGBColor.html#a551378cc4e40775286d1200a21e3dfbc" target="_top" xlink:title="corecvs::RGBColor::r">
<polygon fill="none" stroke="black" points="177,-120.5 177,-141.5 291,-141.5 291,-120.5 177,-120.5"/>
<text text-anchor="middle" x="234" y="-128.5" font-family="FreeSans.ttf" font-size="10.00">corecvs::RGBColor::r</text>
</a>
</g>
<!-- Node1&#45;&gt;Node4 -->
<g id="edge6" class="edge"><title>Node1&#45;&gt;Node4</title>
<path fill="none" stroke="midnightblue" d="M140.026,-119.54C148.849,-120.616 157.861,-121.715 166.642,-122.786"/>
<polygon fill="midnightblue" stroke="midnightblue" points="166.468,-126.29 176.818,-124.027 167.315,-119.342 166.468,-126.29"/>
</g>
<!-- Node5 -->
<g id="node9" class="node"><title>Node5</title>
<a xlink:href="classcorecvs_1_1Vector3d.html#aec83d9ad04107cd9c2bb11abf33128c0" target="_top" xlink:title="Helper functions to access elements.">
<polygon fill="none" stroke="black" points="177.5,-80.5 177.5,-101.5 290.5,-101.5 290.5,-80.5 177.5,-80.5"/>
<text text-anchor="middle" x="234" y="-88.5" font-family="FreeSans.ttf" font-size="10.00">corecvs::Vector3d::x</text>
</a>
</g>
<!-- Node1&#45;&gt;Node5 -->
<g id="edge8" class="edge"><title>Node1&#45;&gt;Node5</title>
<path fill="none" stroke="midnightblue" d="M140.026,-102.46C149.072,-101.357 158.316,-100.23 167.306,-99.1335"/>
<polygon fill="midnightblue" stroke="midnightblue" points="167.82,-102.597 177.323,-97.9119 166.973,-95.6482 167.82,-102.597"/>
</g>
<!-- Node6 -->
<g id="node11" class="node"><title>Node6</title>
<a xlink:href="classcorecvs_1_1Vector3d.html#a940d88447f20fac800d1fa510c981275" target="_top" xlink:title="corecvs::Vector3d::y">
<polygon fill="none" stroke="black" points="177.5,-40.5 177.5,-61.5 290.5,-61.5 290.5,-40.5 177.5,-40.5"/>
<text text-anchor="middle" x="234" y="-48.5" font-family="FreeSans.ttf" font-size="10.00">corecvs::Vector3d::y</text>
</a>
</g>
<!-- Node1&#45;&gt;Node6 -->
<g id="edge10" class="edge"><title>Node1&#45;&gt;Node6</title>
<path fill="none" stroke="midnightblue" d="M97.3733,-100.423C118.73,-92.2309 149.174,-80.6845 176,-71 181.584,-68.9842 187.485,-66.8982 193.302,-64.8681"/>
<polygon fill="midnightblue" stroke="midnightblue" points="194.637,-68.1095 202.938,-61.5265 192.344,-61.4958 194.637,-68.1095"/>
</g>
<!-- Node7 -->
<g id="node13" class="node"><title>Node7</title>
<a xlink:href="classcorecvs_1_1Vector3d.html#a4587f5d4984576c5c4c2d44a4140ce3f" target="_top" xlink:title="corecvs::Vector3d::z">
<polygon fill="none" stroke="black" points="177.5,-0.5 177.5,-21.5 290.5,-21.5 290.5,-0.5 177.5,-0.5"/>
<text text-anchor="middle" x="234" y="-8.5" font-family="FreeSans.ttf" font-size="10.00">corecvs::Vector3d::z</text>
</a>
</g>
<!-- Node1&#45;&gt;Node7 -->
<g id="edge12" class="edge"><title>Node1&#45;&gt;Node7</title>
<path fill="none" stroke="midnightblue" d="M81.552,-100.307C100.177,-83.5435 138.555,-50.9384 176,-31 179.913,-28.9162 184.088,-26.9813 188.334,-25.202"/>
<polygon fill="midnightblue" stroke="midnightblue" points="189.63,-28.4534 197.674,-21.5577 187.086,-21.9323 189.63,-28.4534"/>
</g>
</g>
</svg>
