<?xml version="1.0" encoding="UTF-8" standalone="no"?>
<!DOCTYPE svg PUBLIC "-//W3C//DTD SVG 1.1//EN"
 "http://www.w3.org/Graphics/SVG/1.1/DTD/svg11.dtd">
<!-- Generated by graphviz version 2.26.3 (20100126.1600)
 -->
<!-- Title: G Pages: 1 -->
<!--zoomable 190 -->
<svg id="main" version="1.1" xmlns="http://www.w3.org/2000/svg" xmlns:xlink="http://www.w3.org/1999/xlink" xml:space="preserve" onload="init(evt)">
        <defs>
                <circle id="rim" cx="0" cy="0" r="7"/>
                <circle id="rim2" cx="0" cy="0" r="3.5"/>
                <g id="zoomPlus">
                        <use xlink:href="#rim" fill="#404040">
                                <set attributeName="fill" to="#808080" begin="zoomplus.mouseover" end="zoomplus.mouseout"/>
                        </use>
                        <path d="M-4,0h8M0,-4v8" fill="none" stroke="white" stroke-width="1.5" pointer-events="none"/>
                </g>
                <g id="zoomMin">
                        <use xlink:href="#rim" fill="#404040">
                                <set attributeName="fill" to="#808080" begin="zoomminus.mouseover" end="zoomminus.mouseout"/>
                        </use>
                        <path d="M-4,0h8" fill="none" stroke="white" stroke-width="1.5" pointer-events="none"/>
                </g>
                <g id="dirArrow">
                        <path fill="none" stroke="white" stroke-width="1.5" d="M0,-3.0v7 M-2.5,-0.5L0,-3.0L2.5,-0.5"/>
                </g>
               <g id="resetDef">
                       <use xlink:href="#rim2" fill="#404040">
                               <set attributeName="fill" to="#808080" begin="reset.mouseover" end="reset.mouseout"/>
                       </use>
               </g>
        </defs>

<script type="text/javascript">
var viewWidth = 616;
var viewHeight = 190;
var sectionId = 'dynsection-16';
</script>
<script xlink:href="svgpan.js"/>
<svg id="graph" class="graph">
<g id="viewport">
<title>G</title>
<!-- Node1 -->
<g id="node1" class="node"><title>Node1</title>
<polygon fill="#bfbfbf" stroke="black" points="0,-50.5 0,-71.5 198,-71.5 198,-50.5 0,-50.5"/>
<text text-anchor="middle" x="99" y="-58.5" font-family="FreeSans.ttf" font-size="10.00">BaseHostDialog::finishedRecalculation</text>
</g>
<!-- Node2 -->
<g id="node3" class="node"><title>Node2</title>
<a xlink:href="classBaseHostDialog.html#a2f72b69c229d0eebafdce8e0028a5250" target="_top" xlink:title="BaseHostDialog::processResult">
<polygon fill="none" stroke="black" points="235.5,-80.5 235.5,-101.5 400.5,-101.5 400.5,-80.5 235.5,-80.5"/>
<text text-anchor="middle" x="318" y="-88.5" font-family="FreeSans.ttf" font-size="10.00">BaseHostDialog::processResult</text>
</a>
</g>
<!-- Node1&#45;&gt;Node2 -->
<g id="edge2" class="edge"><title>Node1&#45;&gt;Node2</title>
<path fill="none" stroke="midnightblue" d="M175.903,-71.5347C193.79,-73.9849 212.953,-76.6099 231.232,-79.1139"/>
<polygon fill="midnightblue" stroke="midnightblue" points="230.899,-82.601 241.282,-80.4907 231.849,-75.6658 230.899,-82.601"/>
</g>
<!-- Node7 -->
<g id="node13" class="node"><title>Node7</title>
<a xlink:href="classBaseHostDialog.html#a9c9951b19762eaa127db683f3179c87e" target="_top" xlink:title="Slot for swapping framesources &#45;&#45;&#45; right frame becomes left and left frame becomes right...">
<polygon fill="none" stroke="black" points="234.5,-20.5 234.5,-41.5 401.5,-41.5 401.5,-20.5 234.5,-20.5"/>
<text text-anchor="middle" x="318" y="-28.5" font-family="FreeSans.ttf" font-size="10.00">BaseHostDialog::swapCameras</text>
</a>
</g>
<!-- Node1&#45;&gt;Node7 -->
<g id="edge12" class="edge"><title>Node1&#45;&gt;Node7</title>
<path fill="none" stroke="midnightblue" d="M175.903,-50.4653C193.79,-48.0151 212.953,-45.3901 231.232,-42.8861"/>
<polygon fill="midnightblue" stroke="midnightblue" points="231.849,-46.3342 241.282,-41.5093 230.899,-39.399 231.849,-46.3342"/>
</g>
<!-- Node3 -->
<g id="node5" class="node"><title>Node3</title>
<a xlink:href="classResultImage.html#a235b1c6d3576cd68390fe7d939e072fb" target="_top" xlink:title="ResultImage::drawImage">
<polygon fill="none" stroke="black" points="456,-160.5 456,-181.5 590,-181.5 590,-160.5 456,-160.5"/>
<text text-anchor="middle" x="523" y="-168.5" font-family="FreeSans.ttf" font-size="10.00">ResultImage::drawImage</text>
</a>
</g>
<!-- Node2&#45;&gt;Node3 -->
<g id="edge4" class="edge"><title>Node2&#45;&gt;Node3</title>
<path fill="none" stroke="midnightblue" d="M335.715,-101.506C358.63,-114.704 400.111,-137.282 438,-151 444.86,-153.484 452.145,-155.74 459.452,-157.768"/>
<polygon fill="midnightblue" stroke="midnightblue" points="458.83,-161.223 469.392,-160.389 460.616,-154.455 458.83,-161.223"/>
</g>
<!-- Node4 -->
<g id="node7" class="node"><title>Node4</title>
<a xlink:href="classResultImage.html#aef6f554a6c7827429bb06ce3f3079886" target="_top" xlink:title="ResultImage::height">
<polygon fill="none" stroke="black" points="467.5,-120.5 467.5,-141.5 578.5,-141.5 578.5,-120.5 467.5,-120.5"/>
<text text-anchor="middle" x="523" y="-128.5" font-family="FreeSans.ttf" font-size="10.00">ResultImage::height</text>
</a>
</g>
<!-- Node2&#45;&gt;Node4 -->
<g id="edge6" class="edge"><title>Node2&#45;&gt;Node4</title>
<path fill="none" stroke="midnightblue" d="M371.861,-101.51C398.592,-106.725 431.067,-113.062 459.054,-118.523"/>
<polygon fill="midnightblue" stroke="midnightblue" points="458.658,-122.011 469.143,-120.491 459.998,-115.141 458.658,-122.011"/>
</g>
<!-- Node5 -->
<g id="node9" class="node"><title>Node5</title>
<a xlink:href="classBaseHostDialog.html#a40d226c9a7ef643221631a52f31922b5" target="_top" xlink:title="BaseHostDialog::updateWidgets">
<polygon fill="none" stroke="black" points="438,-80.5 438,-101.5 608,-101.5 608,-80.5 438,-80.5"/>
<text text-anchor="middle" x="523" y="-88.5" font-family="FreeSans.ttf" font-size="10.00">BaseHostDialog::updateWidgets</text>
</a>
</g>
<!-- Node2&#45;&gt;Node5 -->
<g id="edge8" class="edge"><title>Node2&#45;&gt;Node5</title>
<path fill="none" stroke="midnightblue" d="M400.79,-91C409.672,-91 418.758,-91 427.769,-91"/>
<polygon fill="midnightblue" stroke="midnightblue" points="427.896,-94.5001 437.896,-91 427.896,-87.5001 427.896,-94.5001"/>
</g>
<!-- Node6 -->
<g id="node11" class="node"><title>Node6</title>
<a xlink:href="classResultImage.html#a08c6666d5f1866c8d7c821638a5d6752" target="_top" xlink:title="ResultImage::width">
<polygon fill="none" stroke="black" points="470,-40.5 470,-61.5 576,-61.5 576,-40.5 470,-40.5"/>
<text text-anchor="middle" x="523" y="-48.5" font-family="FreeSans.ttf" font-size="10.00">ResultImage::width</text>
</a>
</g>
<!-- Node2&#45;&gt;Node6 -->
<g id="edge10" class="edge"><title>Node2&#45;&gt;Node6</title>
<path fill="none" stroke="midnightblue" d="M371.861,-80.4905C398.803,-75.2335 431.581,-68.8378 459.717,-63.3479"/>
<polygon fill="midnightblue" stroke="midnightblue" points="460.709,-66.7205 469.853,-61.3701 459.368,-59.8501 460.709,-66.7205"/>
</g>
<!-- Node8 -->
<g id="node15" class="node"><title>Node8</title>
<a xlink:href="classFrames.html#a82d642f30f1b9b57ba9d62f4cd8e7903" target="_top" xlink:title="Swaps the frame sources so, for example, left camera becomes right, and right camera becomes left...">
<polygon fill="none" stroke="black" points="447.5,-0.5 447.5,-21.5 598.5,-21.5 598.5,-0.5 447.5,-0.5"/>
<text text-anchor="middle" x="523" y="-8.5" font-family="FreeSans.ttf" font-size="10.00">Frames::swapFrameSources</text>
</a>
</g>
<!-- Node7&#45;&gt;Node8 -->
<g id="edge14" class="edge"><title>Node7&#45;&gt;Node8</title>
<path fill="none" stroke="midnightblue" d="M401.677,-22.8364C413.408,-21.6919 425.48,-20.5141 437.249,-19.3659"/>
<polygon fill="midnightblue" stroke="midnightblue" points="437.885,-22.8207 447.497,-18.3661 437.205,-15.8537 437.885,-22.8207"/>
</g>
</g>
</svg>
        <g id="navigator" transform="translate(0 0)" fill="#404254">
                <rect fill="#f2f5e9" fill-opacity="0.5" stroke="#606060" stroke-width=".5" x="0" y="0" width="60" height="60"/>
                <use id="zoomplus" xlink:href="#zoomPlus" x="17" y="9" onmousedown="handleZoom(evt,'in')"/>
                <use id="zoomminus" xlink:href="#zoomMin" x="42" y="9" onmousedown="handleZoom(evt,'out')"/>
                <use id="reset" xlink:href="#resetDef" x="30" y="36" onmousedown="handleReset()"/>
                <g id="arrowUp" xlink:href="#dirArrow" transform="translate(30 24)" onmousedown="handlePan(0,-1)">
                  <use xlink:href="#rim" fill="#404040">
                        <set attributeName="fill" to="#808080" begin="arrowUp.mouseover" end="arrowUp.mouseout"/>
                  </use>
                  <path fill="none" stroke="white" stroke-width="1.5" d="M0,-3.0v7 M-2.5,-0.5L0,-3.0L2.5,-0.5"/>
                </g>
                <g id="arrowRight" xlink:href="#dirArrow" transform="rotate(90) translate(36 -43)" onmousedown="handlePan(1,0)">
                  <use xlink:href="#rim" fill="#404040">
                        <set attributeName="fill" to="#808080" begin="arrowRight.mouseover" end="arrowRight.mouseout"/>
                  </use>
                  <path fill="none" stroke="white" stroke-width="1.5" d="M0,-3.0v7 M-2.5,-0.5L0,-3.0L2.5,-0.5"/>
                </g>
                <g id="arrowDown" xlink:href="#dirArrow" transform="rotate(180) translate(-30 -48)" onmousedown="handlePan(0,1)">
                  <use xlink:href="#rim" fill="#404040">
                        <set attributeName="fill" to="#808080" begin="arrowDown.mouseover" end="arrowDown.mouseout"/>
                  </use>
                  <path fill="none" stroke="white" stroke-width="1.5" d="M0,-3.0v7 M-2.5,-0.5L0,-3.0L2.5,-0.5"/>
                </g>
                <g id="arrowLeft" xlink:href="#dirArrow" transform="rotate(270) translate(-36 17)" onmousedown="handlePan(-1,0)">
                  <use xlink:href="#rim" fill="#404040">
                        <set attributeName="fill" to="#808080" begin="arrowLeft.mouseover" end="arrowLeft.mouseout"/>
                  </use>
                  <path fill="none" stroke="white" stroke-width="1.5" d="M0,-3.0v7 M-2.5,-0.5L0,-3.0L2.5,-0.5"/>
                </g>
        </g>
</svg>
