<?xml version="1.0" encoding="UTF-8" standalone="no"?>
<!DOCTYPE svg PUBLIC "-//W3C//DTD SVG 1.1//EN"
 "http://www.w3.org/Graphics/SVG/1.1/DTD/svg11.dtd">
<!-- Generated by graphviz version 2.26.3 (20100126.1600)
 -->
<!-- Title: G Pages: 1 -->
<svg width="180pt" height="146pt"
 viewBox="0.00 0.00 180.00 146.00" xmlns="http://www.w3.org/2000/svg" xmlns:xlink="http://www.w3.org/1999/xlink">
<g id="graph1" class="graph" transform="scale(1 1) rotate(0) translate(4 142)">
<title>G</title>
<!-- Node1 -->
<g id="node1" class="node"><title>Node1</title>
<polygon fill="#bfbfbf" stroke="black" points="-0.5,-0.5 -0.5,-21.5 172.5,-21.5 172.5,-0.5 -0.5,-0.5"/>
<text text-anchor="middle" x="86" y="-8.5" font-family="FreeSans.ttf" font-size="10.00">corecvs::PropertyListWriterVisitor</text>
</g>
<!-- Node2 -->
<g id="node2" class="node"><title>Node2</title>
<a xlink:href="classcorecvs_1_1BasePathVisitor.html" target="_top" xlink:title="Base class for visitors that iterate over the hierarchy of types.">
<polygon fill="none" stroke="black" points="19,-58.5 19,-79.5 153,-79.5 153,-58.5 19,-58.5"/>
<text text-anchor="middle" x="86" y="-66.5" font-family="FreeSans.ttf" font-size="10.00">corecvs::BasePathVisitor</text>
</a>
</g>
<!-- Node2&#45;&gt;Node1 -->
<g id="edge2" class="edge"><title>Node2&#45;&gt;Node1</title>
<path fill="none" stroke="midnightblue" d="M86,-48.1906C86,-39.1684 86,-28.9941 86,-21.5707"/>
<polygon fill="midnightblue" stroke="midnightblue" points="82.5001,-48.3619 86,-58.3619 89.5001,-48.3619 82.5001,-48.3619"/>
</g>
<!-- Node3 -->
<g id="node4" class="node"><title>Node3</title>
<a xlink:title="STL class.">
<polygon fill="none" stroke="#bfbfbf" points="27.5,-116.5 27.5,-137.5 144.5,-137.5 144.5,-116.5 27.5,-116.5"/>
<text text-anchor="middle" x="86" y="-124.5" font-family="FreeSans.ttf" font-size="10.00">std::deque&lt; string &gt;</text>
</a>
</g>
<!-- Node3&#45;&gt;Node2 -->
<g id="edge4" class="edge"><title>Node3&#45;&gt;Node2</title>
<path fill="none" stroke="midnightblue" d="M86,-106.191C86,-97.1684 86,-86.9941 86,-79.5707"/>
<polygon fill="midnightblue" stroke="midnightblue" points="82.5001,-106.362 86,-116.362 89.5001,-106.362 82.5001,-106.362"/>
</g>
</g>
</svg>
