<?xml version="1.0" encoding="UTF-8" standalone="no"?>
<!DOCTYPE svg PUBLIC "-//W3C//DTD SVG 1.1//EN"
 "http://www.w3.org/Graphics/SVG/1.1/DTD/svg11.dtd">
<!-- Generated by graphviz version 2.26.3 (20100126.1600)
 -->
<!-- Title: G Pages: 1 -->
<!--zoomable 170 -->
<svg id="main" version="1.1" xmlns="http://www.w3.org/2000/svg" xmlns:xlink="http://www.w3.org/1999/xlink" xml:space="preserve" onload="init(evt)">
        <defs>
                <circle id="rim" cx="0" cy="0" r="7"/>
                <circle id="rim2" cx="0" cy="0" r="3.5"/>
                <g id="zoomPlus">
                        <use xlink:href="#rim" fill="#404040">
                                <set attributeName="fill" to="#808080" begin="zoomplus.mouseover" end="zoomplus.mouseout"/>
                        </use>
                        <path d="M-4,0h8M0,-4v8" fill="none" stroke="white" stroke-width="1.5" pointer-events="none"/>
                </g>
                <g id="zoomMin">
                        <use xlink:href="#rim" fill="#404040">
                                <set attributeName="fill" to="#808080" begin="zoomminus.mouseover" end="zoomminus.mouseout"/>
                        </use>
                        <path d="M-4,0h8" fill="none" stroke="white" stroke-width="1.5" pointer-events="none"/>
                </g>
                <g id="dirArrow">
                        <path fill="none" stroke="white" stroke-width="1.5" d="M0,-3.0v7 M-2.5,-0.5L0,-3.0L2.5,-0.5"/>
                </g>
               <g id="resetDef">
                       <use xlink:href="#rim2" fill="#404040">
                               <set attributeName="fill" to="#808080" begin="reset.mouseover" end="reset.mouseout"/>
                       </use>
               </g>
        </defs>

<script type="text/javascript">
var viewWidth = 576;
var viewHeight = 170;
var sectionId = 'dynsection-1';
</script>
<script xlink:href="svgpan.js"/>
<svg id="graph" class="graph">
<g id="viewport">
<title>G</title>
<!-- Node1 -->
<g id="node1" class="node"><title>Node1</title>
<polygon fill="#bfbfbf" stroke="black" points="0,-40.5 0,-61.5 220,-61.5 220,-40.5 0,-40.5"/>
<text text-anchor="middle" x="110" y="-48.5" font-family="FreeSans.ttf" font-size="10.00">corecvs::DirectRemapper::DirectRemapper</text>
</g>
<!-- Node2 -->
<g id="node3" class="node"><title>Node2</title>
<a xlink:href="classcorecvs_1_1DirectRemapper.html#addb0e43170645405c28c815139c90aac" target="_top" xlink:title="corecvs::DirectRemapper::_init">
<polygon fill="none" stroke="black" points="256,-80.5 256,-101.5 418,-101.5 418,-80.5 256,-80.5"/>
<text text-anchor="middle" x="337" y="-88.5" font-family="FreeSans.ttf" font-size="10.00">corecvs::DirectRemapper::_init</text>
</a>
</g>
<!-- Node1&#45;&gt;Node2 -->
<g id="edge2" class="edge"><title>Node1&#45;&gt;Node2</title>
<path fill="none" stroke="midnightblue" d="M169.642,-61.5095C199.63,-66.7938 236.149,-73.2289 267.412,-78.7378"/>
<polygon fill="midnightblue" stroke="midnightblue" points="266.907,-82.2027 277.363,-80.4913 268.122,-75.3089 266.907,-82.2027"/>
</g>
<!-- Node7 -->
<g id="node13" class="node"><title>Node7</title>
<a xlink:href="classcorecvs_1_1Vector2d.html#a944721c41f044c1388d9dc42ca899bce" target="_top" xlink:title="corecvs::Vector2d::x">
<polygon fill="none" stroke="black" points="280.5,-40.5 280.5,-61.5 393.5,-61.5 393.5,-40.5 280.5,-40.5"/>
<text text-anchor="middle" x="337" y="-48.5" font-family="FreeSans.ttf" font-size="10.00">corecvs::Vector2d::x</text>
</a>
</g>
<!-- Node1&#45;&gt;Node7 -->
<g id="edge12" class="edge"><title>Node1&#45;&gt;Node7</title>
<path fill="none" stroke="midnightblue" d="M220.175,-51C237.318,-51 254.562,-51 270.341,-51"/>
<polygon fill="midnightblue" stroke="midnightblue" points="270.483,-54.5001 280.483,-51 270.483,-47.5001 270.483,-54.5001"/>
</g>
<!-- Node8 -->
<g id="node15" class="node"><title>Node8</title>
<a xlink:href="classcorecvs_1_1Vector2d.html#ae1ea2ad4c0821001408bf963cffa8413" target="_top" xlink:title="corecvs::Vector2d::y">
<polygon fill="none" stroke="black" points="280.5,-0.5 280.5,-21.5 393.5,-21.5 393.5,-0.5 280.5,-0.5"/>
<text text-anchor="middle" x="337" y="-8.5" font-family="FreeSans.ttf" font-size="10.00">corecvs::Vector2d::y</text>
</a>
</g>
<!-- Node1&#45;&gt;Node8 -->
<g id="edge14" class="edge"><title>Node1&#45;&gt;Node8</title>
<path fill="none" stroke="midnightblue" d="M169.642,-40.4905C200.578,-35.0391 238.465,-28.363 270.362,-22.7424"/>
<polygon fill="midnightblue" stroke="midnightblue" points="271.25,-26.1399 280.491,-20.9575 270.035,-19.2461 271.25,-26.1399"/>
</g>
<!-- Node3 -->
<g id="node5" class="node"><title>Node3</title>
<a xlink:href="classcorecvs_1_1Vector3d.html#a4587f5d4984576c5c4c2d44a4140ce3f" target="_top" xlink:title="corecvs::Vector3d::z">
<polygon fill="none" stroke="black" points="454.5,-140.5 454.5,-161.5 567.5,-161.5 567.5,-140.5 454.5,-140.5"/>
<text text-anchor="middle" x="511" y="-148.5" font-family="FreeSans.ttf" font-size="10.00">corecvs::Vector3d::z</text>
</a>
</g>
<!-- Node2&#45;&gt;Node3 -->
<g id="edge4" class="edge"><title>Node2&#45;&gt;Node3</title>
<path fill="none" stroke="midnightblue" d="M367.707,-101.589C396.318,-111.455 439.165,-126.229 470.552,-137.052"/>
<polygon fill="midnightblue" stroke="midnightblue" points="469.713,-140.465 480.308,-140.416 471.995,-133.848 469.713,-140.465"/>
</g>
<!-- Node4 -->
<g id="node7" class="node"><title>Node4</title>
<a xlink:href="namespacecorecvs.html#a807eb76b7544bcb930b1700a58a780bd" target="_top" xlink:title="Useful round* stuff.">
<polygon fill="none" stroke="black" points="466,-100.5 466,-121.5 556,-121.5 556,-100.5 466,-100.5"/>
<text text-anchor="middle" x="511" y="-108.5" font-family="FreeSans.ttf" font-size="10.00">corecvs::fround</text>
</a>
</g>
<!-- Node2&#45;&gt;Node4 -->
<g id="edge6" class="edge"><title>Node2&#45;&gt;Node4</title>
<path fill="none" stroke="midnightblue" d="M418.142,-100.327C430.75,-101.776 443.524,-103.244 455.396,-104.609"/>
<polygon fill="midnightblue" stroke="midnightblue" points="455.237,-108.113 465.571,-105.778 456.036,-101.159 455.237,-108.113"/>
</g>
<!-- Node5 -->
<g id="node9" class="node"><title>Node5</title>
<a xlink:href="classcorecvs_1_1Vector3d.html#aec83d9ad04107cd9c2bb11abf33128c0" target="_top" xlink:title="Helper functions to access elements.">
<polygon fill="none" stroke="black" points="454.5,-60.5 454.5,-81.5 567.5,-81.5 567.5,-60.5 454.5,-60.5"/>
<text text-anchor="middle" x="511" y="-68.5" font-family="FreeSans.ttf" font-size="10.00">corecvs::Vector3d::x</text>
</a>
</g>
<!-- Node2&#45;&gt;Node5 -->
<g id="edge8" class="edge"><title>Node2&#45;&gt;Node5</title>
<path fill="none" stroke="midnightblue" d="M418.142,-81.6734C426.834,-80.6743 435.605,-79.6661 444.104,-78.6891"/>
<polygon fill="midnightblue" stroke="midnightblue" points="444.78,-82.1347 454.315,-77.5156 443.98,-75.1805 444.78,-82.1347"/>
</g>
<!-- Node6 -->
<g id="node11" class="node"><title>Node6</title>
<a xlink:href="classcorecvs_1_1Vector3d.html#a940d88447f20fac800d1fa510c981275" target="_top" xlink:title="corecvs::Vector3d::y">
<polygon fill="none" stroke="black" points="454.5,-20.5 454.5,-41.5 567.5,-41.5 567.5,-20.5 454.5,-20.5"/>
<text text-anchor="middle" x="511" y="-28.5" font-family="FreeSans.ttf" font-size="10.00">corecvs::Vector3d::y</text>
</a>
</g>
<!-- Node2&#45;&gt;Node6 -->
<g id="edge10" class="edge"><title>Node2&#45;&gt;Node6</title>
<path fill="none" stroke="midnightblue" d="M388.629,-80.4293C398.527,-77.7954 408.698,-74.6569 418,-71 435.034,-64.3031 437.304,-58.5014 454,-51 458.487,-48.9839 463.243,-47.0352 468.02,-45.1968"/>
<polygon fill="midnightblue" stroke="midnightblue" points="469.606,-48.3421 477.772,-41.5921 467.179,-41.7763 469.606,-48.3421"/>
</g>
</g>
</svg>
        <g id="navigator" transform="translate(0 0)" fill="#404254">
                <rect fill="#f2f5e9" fill-opacity="0.5" stroke="#606060" stroke-width=".5" x="0" y="0" width="60" height="60"/>
                <use id="zoomplus" xlink:href="#zoomPlus" x="17" y="9" onmousedown="handleZoom(evt,'in')"/>
                <use id="zoomminus" xlink:href="#zoomMin" x="42" y="9" onmousedown="handleZoom(evt,'out')"/>
                <use id="reset" xlink:href="#resetDef" x="30" y="36" onmousedown="handleReset()"/>
                <g id="arrowUp" xlink:href="#dirArrow" transform="translate(30 24)" onmousedown="handlePan(0,-1)">
                  <use xlink:href="#rim" fill="#404040">
                        <set attributeName="fill" to="#808080" begin="arrowUp.mouseover" end="arrowUp.mouseout"/>
                  </use>
                  <path fill="none" stroke="white" stroke-width="1.5" d="M0,-3.0v7 M-2.5,-0.5L0,-3.0L2.5,-0.5"/>
                </g>
                <g id="arrowRight" xlink:href="#dirArrow" transform="rotate(90) translate(36 -43)" onmousedown="handlePan(1,0)">
                  <use xlink:href="#rim" fill="#404040">
                        <set attributeName="fill" to="#808080" begin="arrowRight.mouseover" end="arrowRight.mouseout"/>
                  </use>
                  <path fill="none" stroke="white" stroke-width="1.5" d="M0,-3.0v7 M-2.5,-0.5L0,-3.0L2.5,-0.5"/>
                </g>
                <g id="arrowDown" xlink:href="#dirArrow" transform="rotate(180) translate(-30 -48)" onmousedown="handlePan(0,1)">
                  <use xlink:href="#rim" fill="#404040">
                        <set attributeName="fill" to="#808080" begin="arrowDown.mouseover" end="arrowDown.mouseout"/>
                  </use>
                  <path fill="none" stroke="white" stroke-width="1.5" d="M0,-3.0v7 M-2.5,-0.5L0,-3.0L2.5,-0.5"/>
                </g>
                <g id="arrowLeft" xlink:href="#dirArrow" transform="rotate(270) translate(-36 17)" onmousedown="handlePan(-1,0)">
                  <use xlink:href="#rim" fill="#404040">
                        <set attributeName="fill" to="#808080" begin="arrowLeft.mouseover" end="arrowLeft.mouseout"/>
                  </use>
                  <path fill="none" stroke="white" stroke-width="1.5" d="M0,-3.0v7 M-2.5,-0.5L0,-3.0L2.5,-0.5"/>
                </g>
        </g>
</svg>
