<?xml version="1.0" encoding="UTF-8" standalone="no"?>
<!DOCTYPE svg PUBLIC "-//W3C//DTD SVG 1.1//EN"
 "http://www.w3.org/Graphics/SVG/1.1/DTD/svg11.dtd">
<!-- Generated by graphviz version 2.26.3 (20100126.1600)
 -->
<!-- Title: G Pages: 1 -->
<svg width="244pt" height="318pt"
 viewBox="0.00 0.00 244.00 318.00" xmlns="http://www.w3.org/2000/svg" xmlns:xlink="http://www.w3.org/1999/xlink">
<g id="graph1" class="graph" transform="scale(1 1) rotate(0) translate(4 314)">
<title>G</title>
<!-- Node1 -->
<g id="node1" class="node"><title>Node1</title>
<polygon fill="#bfbfbf" stroke="black" points="51,-0.5 51,-21.5 185,-21.5 185,-0.5 51,-0.5"/>
<text text-anchor="middle" x="118" y="-8.5" font-family="FreeSans.ttf" font-size="10.00">corecvs::FiltersCollection</text>
</g>
<!-- Node2 -->
<g id="node2" class="node"><title>Node2</title>
<polygon fill="none" stroke="#bfbfbf" points="25,-72.5 25,-93.5 211,-93.5 211,-72.5 25,-72.5"/>
<text text-anchor="middle" x="118" y="-80.5" font-family="FreeSans.ttf" font-size="10.00">std::vector&lt; CompoundFilterType &gt;</text>
</g>
<!-- Node2&#45;&gt;Node1 -->
<g id="edge2" class="edge"><title>Node2&#45;&gt;Node1</title>
<path fill="none" stroke="#9a32cd" stroke-dasharray="5,2" d="M118,-62.2348C118,-48.969 118,-32.3188 118,-21.6674"/>
<polygon fill="#9a32cd" stroke="#9a32cd" points="114.5,-62.3761 118,-72.3762 121.5,-62.3762 114.5,-62.3761"/>
<text text-anchor="middle" x="159" y="-44.5" font-family="FreeSans.ttf" font-size="10.00"> compoundFilters</text>
</g>
<!-- Node3 -->
<g id="node4" class="node"><title>Node3</title>
<a xlink:href="classcorecvs_1_1FiltersCollection_1_1CompoundFilterType.html" target="_top" xlink:title="corecvs::FiltersCollection::CompoundFilterType">
<polygon fill="none" stroke="black" points="0,-144.5 0,-165.5 236,-165.5 236,-144.5 0,-144.5"/>
<text text-anchor="middle" x="118" y="-152.5" font-family="FreeSans.ttf" font-size="10.00">corecvs::FiltersCollection::CompoundFilterType</text>
</a>
</g>
<!-- Node3&#45;&gt;Node2 -->
<g id="edge4" class="edge"><title>Node3&#45;&gt;Node2</title>
<path fill="none" stroke="#9a32cd" stroke-dasharray="5,2" d="M118,-134.235C118,-120.969 118,-104.319 118,-93.6674"/>
<polygon fill="#9a32cd" stroke="#9a32cd" points="114.5,-134.376 118,-144.376 121.5,-134.376 114.5,-134.376"/>
<text text-anchor="middle" x="142.5" y="-116.5" font-family="FreeSans.ttf" font-size="10.00"> elements</text>
</g>
<!-- Node4 -->
<g id="node6" class="node"><title>Node4</title>
<polygon fill="none" stroke="#bfbfbf" points="29.5,-228.5 29.5,-249.5 116.5,-249.5 116.5,-228.5 29.5,-228.5"/>
<text text-anchor="middle" x="73" y="-236.5" font-family="FreeSans.ttf" font-size="10.00">std::set&lt; int &gt;</text>
</g>
<!-- Node4&#45;&gt;Node3 -->
<g id="edge6" class="edge"><title>Node4&#45;&gt;Node3</title>
<path fill="none" stroke="#9a32cd" stroke-dasharray="5,2" d="M69.4132,-217.87C68.6248,-207.1 69.354,-194.168 75,-184 79.2839,-176.285 86.5894,-170.227 93.9753,-165.688"/>
<polygon fill="#9a32cd" stroke="#9a32cd" points="65.9747,-218.592 70.6418,-228.104 72.9248,-217.758 65.9747,-218.592"/>
<text text-anchor="middle" x="108.5" y="-201" font-family="FreeSans.ttf" font-size="10.00"> dependOnMe</text>
<text text-anchor="middle" x="108.5" y="-188" font-family="FreeSans.ttf" font-size="10.00">contain</text>
</g>
<!-- Node5 -->
<g id="node8" class="node"><title>Node5</title>
<a xlink:title="STL class.">
<polygon fill="none" stroke="#bfbfbf" points="133.5,-228.5 133.5,-249.5 198.5,-249.5 198.5,-228.5 133.5,-228.5"/>
<text text-anchor="middle" x="166" y="-236.5" font-family="FreeSans.ttf" font-size="10.00">std::string</text>
</a>
</g>
<!-- Node5&#45;&gt;Node3 -->
<g id="edge8" class="edge"><title>Node5&#45;&gt;Node3</title>
<path fill="none" stroke="#9a32cd" stroke-dasharray="5,2" d="M158.864,-219.061C154.637,-208.312 148.783,-195.029 142,-184 138.029,-177.543 132.728,-170.983 128.119,-165.739"/>
<polygon fill="#9a32cd" stroke="#9a32cd" points="155.595,-220.311 162.397,-228.434 162.145,-217.843 155.595,-220.311"/>
<text text-anchor="middle" x="175" y="-201" font-family="FreeSans.ttf" font-size="10.00"> name</text>
<text text-anchor="middle" x="175" y="-188" font-family="FreeSans.ttf" font-size="10.00">filename</text>
</g>
<!-- Node6 -->
<g id="node10" class="node"><title>Node6</title>
<a xlink:title="STL class.">
<polygon fill="none" stroke="#bfbfbf" points="97,-288.5 97,-309.5 235,-309.5 235,-288.5 97,-288.5"/>
<text text-anchor="middle" x="166" y="-296.5" font-family="FreeSans.ttf" font-size="10.00">std::basic_string&lt; char &gt;</text>
</a>
</g>
<!-- Node6&#45;&gt;Node5 -->
<g id="edge10" class="edge"><title>Node6&#45;&gt;Node5</title>
<path fill="none" stroke="midnightblue" d="M166,-278.231C166,-268.592 166,-257.544 166,-249.634"/>
<polygon fill="midnightblue" stroke="midnightblue" points="162.5,-278.273 166,-288.273 169.5,-278.273 162.5,-278.273"/>
</g>
</g>
</svg>
