<?xml version="1.0" encoding="UTF-8" standalone="no"?>
<!DOCTYPE svg PUBLIC "-//W3C//DTD SVG 1.1//EN"
 "http://www.w3.org/Graphics/SVG/1.1/DTD/svg11.dtd">
<!-- Generated by graphviz version 2.26.3 (20100126.1600)
 -->
<!-- Title: G Pages: 1 -->
<!--zoomable 271 -->
<svg id="main" version="1.1" xmlns="http://www.w3.org/2000/svg" xmlns:xlink="http://www.w3.org/1999/xlink" xml:space="preserve" onload="init(evt)">
        <defs>
                <circle id="rim" cx="0" cy="0" r="7"/>
                <circle id="rim2" cx="0" cy="0" r="3.5"/>
                <g id="zoomPlus">
                        <use xlink:href="#rim" fill="#404040">
                                <set attributeName="fill" to="#808080" begin="zoomplus.mouseover" end="zoomplus.mouseout"/>
                        </use>
                        <path d="M-4,0h8M0,-4v8" fill="none" stroke="white" stroke-width="1.5" pointer-events="none"/>
                </g>
                <g id="zoomMin">
                        <use xlink:href="#rim" fill="#404040">
                                <set attributeName="fill" to="#808080" begin="zoomminus.mouseover" end="zoomminus.mouseout"/>
                        </use>
                        <path d="M-4,0h8" fill="none" stroke="white" stroke-width="1.5" pointer-events="none"/>
                </g>
                <g id="dirArrow">
                        <path fill="none" stroke="white" stroke-width="1.5" d="M0,-3.0v7 M-2.5,-0.5L0,-3.0L2.5,-0.5"/>
                </g>
               <g id="resetDef">
                       <use xlink:href="#rim2" fill="#404040">
                               <set attributeName="fill" to="#808080" begin="reset.mouseover" end="reset.mouseout"/>
                       </use>
               </g>
        </defs>

<script type="text/javascript">
var viewWidth = 1672;
var viewHeight = 271;
var sectionId = 'dynsection-0';
</script>
<script xlink:href="svgpan.js"/>
<svg id="graph" class="graph">
<g id="viewport">
<title>G</title>
<!-- Node1 -->
<g id="node1" class="node"><title>Node1</title>
<polygon fill="#bfbfbf" stroke="black" points="1505.5,-192.5 1505.5,-213.5 1618.5,-213.5 1618.5,-192.5 1505.5,-192.5"/>
<text text-anchor="middle" x="1562" y="-200.5" font-family="FreeSans.ttf" font-size="10.00">corecvs::Element6D</text>
</g>
<!-- Node2 -->
<g id="node2" class="node"><title>Node2</title>
<a xlink:href="classcorecvs_1_1Vector2d.html" target="_top" xlink:title="corecvs::Vector2d\&lt; double \&gt;">
<polygon fill="none" stroke="black" points="1216.5,-212.5 1216.5,-233.5 1373.5,-233.5 1373.5,-212.5 1216.5,-212.5"/>
<text text-anchor="middle" x="1295" y="-220.5" font-family="FreeSans.ttf" font-size="10.00">corecvs::Vector2d&lt; double &gt;</text>
</a>
</g>
<!-- Node2&#45;&gt;Node1 -->
<g id="edge2" class="edge"><title>Node2&#45;&gt;Node1</title>
<path fill="none" stroke="#9a32cd" stroke-dasharray="5,2" d="M1383.73,-216.353C1423.89,-213.346 1470.15,-209.88 1505.49,-207.233"/>
<polygon fill="#9a32cd" stroke="#9a32cd" points="1383.38,-212.87 1373.66,-217.108 1383.9,-219.851 1383.38,-212.87"/>
<text text-anchor="middle" x="1417" y="-219" font-family="FreeSans.ttf" font-size="10.00"> floatFlow</text>
</g>
<!-- Node3 -->
<g id="node4" class="node"><title>Node3</title>
<a xlink:href="classcorecvs_1_1FixedVectorBase.html" target="_top" xlink:title="corecvs::FixedVectorBase\&lt; Vector2d\&lt; double \&gt;, double, 2 \&gt;">
<polygon fill="none" stroke="black" points="815,-241.5 815,-262.5 1123,-262.5 1123,-241.5 815,-241.5"/>
<text text-anchor="middle" x="969" y="-249.5" font-family="FreeSans.ttf" font-size="10.00">corecvs::FixedVectorBase&lt; Vector2d&lt; double &gt;, double, 2 &gt;</text>
</a>
</g>
<!-- Node3&#45;&gt;Node2 -->
<g id="edge4" class="edge"><title>Node3&#45;&gt;Node2</title>
<path fill="none" stroke="midnightblue" d="M1097.31,-240.586C1137.53,-237.008 1180.7,-233.168 1216.41,-229.991"/>
<polygon fill="midnightblue" stroke="midnightblue" points="1096.8,-237.117 1087.15,-241.489 1097.43,-244.089 1096.8,-237.117"/>
</g>
<!-- Node4 -->
<g id="node6" class="node"><title>Node4</title>
<a xlink:href="classcorecvs_1_1VectorOperationsBase.html" target="_top" xlink:title="corecvs::VectorOperationsBase\&lt; Vector2d\&lt; double \&gt;, double \&gt;">
<polygon fill="none" stroke="black" points="402.5,-241.5 402.5,-262.5 727.5,-262.5 727.5,-241.5 402.5,-241.5"/>
<text text-anchor="middle" x="565" y="-249.5" font-family="FreeSans.ttf" font-size="10.00">corecvs::VectorOperationsBase&lt; Vector2d&lt; double &gt;, double &gt;</text>
</a>
</g>
<!-- Node4&#45;&gt;Node3 -->
<g id="edge6" class="edge"><title>Node4&#45;&gt;Node3</title>
<path fill="none" stroke="midnightblue" d="M737.754,-252C763.409,-252 789.706,-252 814.944,-252"/>
<polygon fill="midnightblue" stroke="midnightblue" points="737.576,-248.5 727.576,-252 737.576,-255.5 737.576,-248.5"/>
</g>
<!-- Node5 -->
<g id="node8" class="node"><title>Node5</title>
<a xlink:href="classcorecvs_1_1Reflection.html" target="_top" xlink:title="corecvs::Reflection">
<polygon fill="none" stroke="black" points="916.5,-116.5 916.5,-137.5 1021.5,-137.5 1021.5,-116.5 916.5,-116.5"/>
<text text-anchor="middle" x="969" y="-124.5" font-family="FreeSans.ttf" font-size="10.00">corecvs::Reflection</text>
</a>
</g>
<!-- Node5&#45;&gt;Node2 -->
<g id="edge8" class="edge"><title>Node5&#45;&gt;Node2</title>
<path fill="none" stroke="#9a32cd" stroke-dasharray="5,2" d="M1011.24,-140.708C1060.26,-156.455 1143.65,-182.726 1216,-203 1227.58,-206.245 1240.18,-209.54 1251.84,-212.494"/>
<polygon fill="#9a32cd" stroke="#9a32cd" points="1012.2,-137.342 1001.61,-137.609 1010.05,-144.005 1012.2,-137.342"/>
<text text-anchor="middle" x="1170" y="-201" font-family="FreeSans.ttf" font-size="10.00"> reflect</text>
</g>
<!-- Node10 -->
<g id="node19" class="node"><title>Node10</title>
<a xlink:href="classcorecvs_1_1EmbedSubclass.html" target="_top" xlink:title="corecvs::EmbedSubclass">
<polygon fill="none" stroke="black" points="1227,-54.5 1227,-75.5 1363,-75.5 1363,-54.5 1227,-54.5"/>
<text text-anchor="middle" x="1295" y="-62.5" font-family="FreeSans.ttf" font-size="10.00">corecvs::EmbedSubclass</text>
</a>
</g>
<!-- Node5&#45;&gt;Node10 -->
<g id="edge22" class="edge"><title>Node5&#45;&gt;Node10</title>
<path fill="none" stroke="#9a32cd" stroke-dasharray="5,2" d="M1029.29,-114.419C1062.5,-107.585 1104.48,-99.1044 1142,-92 1171.95,-86.3292 1205.27,-80.404 1233.15,-75.5538"/>
<polygon fill="#9a32cd" stroke="#9a32cd" points="1028.36,-111.036 1019.28,-116.484 1029.78,-117.892 1028.36,-111.036"/>
<text text-anchor="middle" x="1170" y="-96" font-family="FreeSans.ttf" font-size="10.00"> subclass</text>
</g>
<!-- Node13 -->
<g id="node27" class="node"><title>Node13</title>
<a xlink:href="classcorecvs_1_1Vector2d.html" target="_top" xlink:title="corecvs::Vector2d\&lt; int16_t \&gt;">
<polygon fill="none" stroke="black" points="1216,-172.5 1216,-193.5 1374,-193.5 1374,-172.5 1216,-172.5"/>
<text text-anchor="middle" x="1295" y="-180.5" font-family="FreeSans.ttf" font-size="10.00">corecvs::Vector2d&lt; int16_t &gt;</text>
</a>
</g>
<!-- Node5&#45;&gt;Node13 -->
<g id="edge36" class="edge"><title>Node5&#45;&gt;Node13</title>
<path fill="none" stroke="#9a32cd" stroke-dasharray="5,2" d="M1031.92,-130.963C1078.22,-134.646 1142.48,-141.369 1198,-153 1221.29,-157.879 1246.99,-165.955 1266.08,-172.499"/>
<polygon fill="#9a32cd" stroke="#9a32cd" points="1031.98,-127.457 1021.74,-130.178 1031.44,-134.436 1031.98,-127.457"/>
<text text-anchor="middle" x="1170" y="-157" font-family="FreeSans.ttf" font-size="10.00"> reflect</text>
</g>
<!-- Node6 -->
<g id="node10" class="node"><title>Node6</title>
<polygon fill="none" stroke="#bfbfbf" points="478.5,-127.5 478.5,-148.5 651.5,-148.5 651.5,-127.5 478.5,-127.5"/>
<text text-anchor="middle" x="565" y="-135.5" font-family="FreeSans.ttf" font-size="10.00">std::vector&lt; const BaseField * &gt;</text>
</g>
<!-- Node6&#45;&gt;Node5 -->
<g id="edge10" class="edge"><title>Node6&#45;&gt;Node5</title>
<path fill="none" stroke="#9a32cd" stroke-dasharray="5,2" d="M661.747,-135.366C741.648,-133.19 852.035,-130.185 916.438,-128.431"/>
<polygon fill="#9a32cd" stroke="#9a32cd" points="661.569,-131.869 651.668,-135.64 661.76,-138.867 661.569,-131.869"/>
<text text-anchor="middle" x="771" y="-137" font-family="FreeSans.ttf" font-size="10.00"> fields</text>
</g>
<!-- Node7 -->
<g id="node12" class="node"><title>Node7</title>
<a xlink:href="classcorecvs_1_1BaseField.html" target="_top" xlink:title="This class is a core class for the reflection.">
<polygon fill="none" stroke="black" points="212,-127.5 212,-148.5 316,-148.5 316,-127.5 212,-127.5"/>
<text text-anchor="middle" x="264" y="-135.5" font-family="FreeSans.ttf" font-size="10.00">corecvs::BaseField</text>
</a>
</g>
<!-- Node7&#45;&gt;Node6 -->
<g id="edge12" class="edge"><title>Node7&#45;&gt;Node6</title>
<path fill="none" stroke="#9a32cd" stroke-dasharray="5,2" d="M326.34,-138C370.271,-138 429.682,-138 478.236,-138"/>
<polygon fill="#9a32cd" stroke="#9a32cd" points="326.087,-134.5 316.087,-138 326.087,-141.5 326.087,-134.5"/>
<text text-anchor="middle" x="359" y="-142" font-family="FreeSans.ttf" font-size="10.00"> elements</text>
</g>
<!-- Node8 -->
<g id="node14" class="node"><title>Node8</title>
<a xlink:href="classcorecvs_1_1ReflectionNaming.html" target="_top" xlink:title="We have several styles of nameing.">
<polygon fill="none" stroke="black" points="0.5,-88.5 0.5,-109.5 143.5,-109.5 143.5,-88.5 0.5,-88.5"/>
<text text-anchor="middle" x="72" y="-96.5" font-family="FreeSans.ttf" font-size="10.00">corecvs::ReflectionNaming</text>
</a>
</g>
<!-- Node8&#45;&gt;Node5 -->
<g id="edge16" class="edge"><title>Node8&#45;&gt;Node5</title>
<path fill="none" stroke="#9a32cd" stroke-dasharray="5,2" d="M154.027,-101.155C278.228,-104.469 521.432,-111.152 728,-118 792.862,-120.15 867.529,-122.996 916.35,-124.907"/>
<polygon fill="#9a32cd" stroke="#9a32cd" points="153.928,-97.6515 143.838,-100.884 153.741,-104.649 153.928,-97.6515"/>
<text text-anchor="middle" x="359" y="-112" font-family="FreeSans.ttf" font-size="10.00"> name</text>
</g>
<!-- Node8&#45;&gt;Node7 -->
<g id="edge14" class="edge"><title>Node8&#45;&gt;Node7</title>
<path fill="none" stroke="#9a32cd" stroke-dasharray="5,2" d="M133.585,-111.509C158.933,-116.658 187.971,-122.557 212.203,-127.479"/>
<polygon fill="#9a32cd" stroke="#9a32cd" points="134.202,-108.063 123.705,-109.503 132.808,-114.923 134.202,-108.063"/>
<text text-anchor="middle" x="178" y="-128" font-family="FreeSans.ttf" font-size="10.00"> name</text>
</g>
<!-- Node8&#45;&gt;Node10 -->
<g id="edge24" class="edge"><title>Node8&#45;&gt;Node10</title>
<path fill="none" stroke="#9a32cd" stroke-dasharray="5,2" d="M111.944,-85.3414C150.418,-73.4153 210.496,-58 264,-58 264,-58 264,-58 969,-58 1058.16,-58 1161.01,-60.6496 1226.95,-62.6885"/>
<polygon fill="#9a32cd" stroke="#9a32cd" points="110.642,-82.0825 102.168,-88.4415 112.758,-88.755 110.642,-82.0825"/>
<text text-anchor="middle" x="565" y="-62" font-family="FreeSans.ttf" font-size="10.00"> name</text>
</g>
<!-- Node9 -->
<g id="node17" class="node"><title>Node9</title>
<polygon fill="none" stroke="#bfbfbf" points="1460,-88.5 1460,-109.5 1664,-109.5 1664,-88.5 1460,-88.5"/>
<text text-anchor="middle" x="1562" y="-96.5" font-family="FreeSans.ttf" font-size="10.00">std::vector&lt; const EmbedSubclass * &gt;</text>
</g>
<!-- Node9&#45;&gt;Node5 -->
<g id="edge18" class="edge"><title>Node9&#45;&gt;Node5</title>
<path fill="none" stroke="#9a32cd" stroke-dasharray="5,2" d="M1449.66,-104.304C1321.47,-110.357 1117.25,-120 1021.62,-124.515"/>
<polygon fill="#9a32cd" stroke="#9a32cd" points="1450.08,-107.789 1459.9,-103.821 1449.75,-100.796 1450.08,-107.789"/>
<text text-anchor="middle" x="1295" y="-120" font-family="FreeSans.ttf" font-size="10.00"> embeds</text>
</g>
<!-- Node10&#45;&gt;Node9 -->
<g id="edge20" class="edge"><title>Node10&#45;&gt;Node9</title>
<path fill="none" stroke="#9a32cd" stroke-dasharray="5,2" d="M1373.22,-74.9606C1406.55,-79.2054 1445.47,-84.1613 1479.28,-88.4669"/>
<polygon fill="#9a32cd" stroke="#9a32cd" points="1373.43,-71.4589 1363.07,-73.6676 1372.54,-78.4029 1373.43,-71.4589"/>
<text text-anchor="middle" x="1417" y="-88" font-family="FreeSans.ttf" font-size="10.00"> elements</text>
</g>
<!-- Node11 -->
<g id="node23" class="node"><title>Node11</title>
<polygon fill="none" stroke="#bfbfbf" points="897,-4.5 897,-25.5 1041,-25.5 1041,-4.5 897,-4.5"/>
<text text-anchor="middle" x="969" y="-12.5" font-family="FreeSans.ttf" font-size="10.00">std::vector&lt; EmbedMap &gt;</text>
</g>
<!-- Node11&#45;&gt;Node10 -->
<g id="edge26" class="edge"><title>Node11&#45;&gt;Node10</title>
<path fill="none" stroke="#9a32cd" stroke-dasharray="5,2" d="M1051.16,-15.4427C1095.11,-17.0049 1149.93,-21.0831 1198,-31 1223.52,-36.2639 1251.48,-46.5824 1270.8,-54.478"/>
<polygon fill="#9a32cd" stroke="#9a32cd" points="1051.21,-11.9424 1041.1,-15.1218 1050.98,-18.9388 1051.21,-11.9424"/>
<text text-anchor="middle" x="1170" y="-35" font-family="FreeSans.ttf" font-size="10.00"> renameing</text>
</g>
<!-- Node12 -->
<g id="node25" class="node"><title>Node12</title>
<a xlink:href="structcorecvs_1_1EmbedSubclass_1_1EmbedMap.html" target="_top" xlink:title="corecvs::EmbedSubclass::EmbedMap">
<polygon fill="none" stroke="black" points="467,-0.5 467,-21.5 663,-21.5 663,-0.5 467,-0.5"/>
<text text-anchor="middle" x="565" y="-8.5" font-family="FreeSans.ttf" font-size="10.00">corecvs::EmbedSubclass::EmbedMap</text>
</a>
</g>
<!-- Node12&#45;&gt;Node11 -->
<g id="edge28" class="edge"><title>Node12&#45;&gt;Node11</title>
<path fill="none" stroke="#9a32cd" stroke-dasharray="5,2" d="M673.358,-12.0728C744.198,-12.7742 834.77,-13.671 896.887,-14.286"/>
<polygon fill="#9a32cd" stroke="#9a32cd" points="673.089,-8.57011 663.055,-11.9708 673.02,-15.5698 673.089,-8.57011"/>
<text text-anchor="middle" x="771" y="-18" font-family="FreeSans.ttf" font-size="10.00"> elements</text>
</g>
<!-- Node13&#45;&gt;Node1 -->
<g id="edge30" class="edge"><title>Node13&#45;&gt;Node1</title>
<path fill="none" stroke="#9a32cd" stroke-dasharray="5,2" d="M1384.05,-189.67C1424.03,-192.665 1470.01,-196.11 1505.22,-198.747"/>
<polygon fill="#9a32cd" stroke="#9a32cd" points="1384.26,-186.176 1374.03,-188.919 1383.74,-193.157 1384.26,-186.176"/>
<text text-anchor="middle" x="1417" y="-197" font-family="FreeSans.ttf" font-size="10.00"> flow</text>
</g>
<!-- Node14 -->
<g id="node29" class="node"><title>Node14</title>
<a xlink:href="classcorecvs_1_1FixedVectorBase.html" target="_top" xlink:title="corecvs::FixedVectorBase\&lt; Vector2d\&lt; int16_t \&gt;, int16_t, 2 \&gt;">
<polygon fill="none" stroke="black" points="814,-201.5 814,-222.5 1124,-222.5 1124,-201.5 814,-201.5"/>
<text text-anchor="middle" x="969" y="-209.5" font-family="FreeSans.ttf" font-size="10.00">corecvs::FixedVectorBase&lt; Vector2d&lt; int16_t &gt;, int16_t, 2 &gt;</text>
</a>
</g>
<!-- Node14&#45;&gt;Node13 -->
<g id="edge32" class="edge"><title>Node14&#45;&gt;Node13</title>
<path fill="none" stroke="midnightblue" d="M1134.33,-207.733C1155.79,-206.314 1177.45,-204.448 1198,-202 1214.7,-200.011 1232.83,-196.761 1248.84,-193.506"/>
<polygon fill="midnightblue" stroke="midnightblue" points="1133.92,-204.252 1124.16,-208.374 1134.36,-211.238 1133.92,-204.252"/>
</g>
<!-- Node15 -->
<g id="node31" class="node"><title>Node15</title>
<a xlink:href="classcorecvs_1_1VectorOperationsBase.html" target="_top" xlink:title="corecvs::VectorOperationsBase\&lt; Vector2d\&lt; int16_t \&gt;, int16_t \&gt;">
<polygon fill="none" stroke="black" points="402,-201.5 402,-222.5 728,-222.5 728,-201.5 402,-201.5"/>
<text text-anchor="middle" x="565" y="-209.5" font-family="FreeSans.ttf" font-size="10.00">corecvs::VectorOperationsBase&lt; Vector2d&lt; int16_t &gt;, int16_t &gt;</text>
</a>
</g>
<!-- Node15&#45;&gt;Node14 -->
<g id="edge34" class="edge"><title>Node15&#45;&gt;Node14</title>
<path fill="none" stroke="midnightblue" d="M738.463,-212C763.486,-212 789.106,-212 813.744,-212"/>
<polygon fill="midnightblue" stroke="midnightblue" points="738.158,-208.5 728.158,-212 738.158,-215.5 738.158,-208.5"/>
</g>
</g>
</svg>
        <g id="navigator" transform="translate(0 0)" fill="#404254">
                <rect fill="#f2f5e9" fill-opacity="0.5" stroke="#606060" stroke-width=".5" x="0" y="0" width="60" height="60"/>
                <use id="zoomplus" xlink:href="#zoomPlus" x="17" y="9" onmousedown="handleZoom(evt,'in')"/>
                <use id="zoomminus" xlink:href="#zoomMin" x="42" y="9" onmousedown="handleZoom(evt,'out')"/>
                <use id="reset" xlink:href="#resetDef" x="30" y="36" onmousedown="handleReset()"/>
                <g id="arrowUp" xlink:href="#dirArrow" transform="translate(30 24)" onmousedown="handlePan(0,-1)">
                  <use xlink:href="#rim" fill="#404040">
                        <set attributeName="fill" to="#808080" begin="arrowUp.mouseover" end="arrowUp.mouseout"/>
                  </use>
                  <path fill="none" stroke="white" stroke-width="1.5" d="M0,-3.0v7 M-2.5,-0.5L0,-3.0L2.5,-0.5"/>
                </g>
                <g id="arrowRight" xlink:href="#dirArrow" transform="rotate(90) translate(36 -43)" onmousedown="handlePan(1,0)">
                  <use xlink:href="#rim" fill="#404040">
                        <set attributeName="fill" to="#808080" begin="arrowRight.mouseover" end="arrowRight.mouseout"/>
                  </use>
                  <path fill="none" stroke="white" stroke-width="1.5" d="M0,-3.0v7 M-2.5,-0.5L0,-3.0L2.5,-0.5"/>
                </g>
                <g id="arrowDown" xlink:href="#dirArrow" transform="rotate(180) translate(-30 -48)" onmousedown="handlePan(0,1)">
                  <use xlink:href="#rim" fill="#404040">
                        <set attributeName="fill" to="#808080" begin="arrowDown.mouseover" end="arrowDown.mouseout"/>
                  </use>
                  <path fill="none" stroke="white" stroke-width="1.5" d="M0,-3.0v7 M-2.5,-0.5L0,-3.0L2.5,-0.5"/>
                </g>
                <g id="arrowLeft" xlink:href="#dirArrow" transform="rotate(270) translate(-36 17)" onmousedown="handlePan(-1,0)">
                  <use xlink:href="#rim" fill="#404040">
                        <set attributeName="fill" to="#808080" begin="arrowLeft.mouseover" end="arrowLeft.mouseout"/>
                  </use>
                  <path fill="none" stroke="white" stroke-width="1.5" d="M0,-3.0v7 M-2.5,-0.5L0,-3.0L2.5,-0.5"/>
                </g>
        </g>
</svg>
