<?xml version="1.0" encoding="UTF-8" standalone="no"?>
<!DOCTYPE svg PUBLIC "-//W3C//DTD SVG 1.1//EN"
 "http://www.w3.org/Graphics/SVG/1.1/DTD/svg11.dtd">
<!-- Generated by graphviz version 2.26.3 (20100126.1600)
 -->
<!-- Title: G Pages: 1 -->
<!--zoomable 125 -->
<svg id="main" version="1.1" xmlns="http://www.w3.org/2000/svg" xmlns:xlink="http://www.w3.org/1999/xlink" xml:space="preserve" onload="init(evt)">
        <defs>
                <circle id="rim" cx="0" cy="0" r="7"/>
                <circle id="rim2" cx="0" cy="0" r="3.5"/>
                <g id="zoomPlus">
                        <use xlink:href="#rim" fill="#404040">
                                <set attributeName="fill" to="#808080" begin="zoomplus.mouseover" end="zoomplus.mouseout"/>
                        </use>
                        <path d="M-4,0h8M0,-4v8" fill="none" stroke="white" stroke-width="1.5" pointer-events="none"/>
                </g>
                <g id="zoomMin">
                        <use xlink:href="#rim" fill="#404040">
                                <set attributeName="fill" to="#808080" begin="zoomminus.mouseover" end="zoomminus.mouseout"/>
                        </use>
                        <path d="M-4,0h8" fill="none" stroke="white" stroke-width="1.5" pointer-events="none"/>
                </g>
                <g id="dirArrow">
                        <path fill="none" stroke="white" stroke-width="1.5" d="M0,-3.0v7 M-2.5,-0.5L0,-3.0L2.5,-0.5"/>
                </g>
               <g id="resetDef">
                       <use xlink:href="#rim2" fill="#404040">
                               <set attributeName="fill" to="#808080" begin="reset.mouseover" end="reset.mouseout"/>
                       </use>
               </g>
        </defs>

<script type="text/javascript">
var viewWidth = 958;
var viewHeight = 125;
var sectionId = 'dynsection-27';
</script>
<script xlink:href="svgpan.js"/>
<svg id="graph" class="graph">
<g id="viewport">
<title>G</title>
<!-- Node1 -->
<g id="node1" class="node"><title>Node1</title>
<polygon fill="#bfbfbf" stroke="black" points="0,-45.5 0,-66.5 140,-66.5 140,-45.5 0,-45.5"/>
<text text-anchor="middle" x="70" y="-53.5" font-family="FreeSans.ttf" font-size="10.00">tinyxml2::XMLPrinter::Visit</text>
</g>
<!-- Node2 -->
<g id="node3" class="node"><title>Node2</title>
<a xlink:href="classtinyxml2_1_1XMLPrinter.html#afc8416814219591c2fd5656e0c233140" target="_top" xlink:title="Add a comment.">
<polygon fill="none" stroke="black" points="176.5,-70.5 176.5,-91.5 367.5,-91.5 367.5,-70.5 176.5,-70.5"/>
<text text-anchor="middle" x="272" y="-78.5" font-family="FreeSans.ttf" font-size="10.00">tinyxml2::XMLPrinter::PushComment</text>
</a>
</g>
<!-- Node1&#45;&gt;Node2 -->
<g id="edge2" class="edge"><title>Node1&#45;&gt;Node2</title>
<path fill="none" stroke="midnightblue" d="M140.083,-64.6736C152.041,-66.1536 164.64,-67.7129 177.114,-69.2566"/>
<polygon fill="midnightblue" stroke="midnightblue" points="176.722,-72.7347 187.076,-70.4896 177.581,-65.7877 176.722,-72.7347"/>
</g>
<!-- Node7 -->
<g id="node15" class="node"><title>Node7</title>
<a xlink:href="classtinyxml2_1_1XMLNode.html#a7682be117e3b2b4ebfd517c1acaaadbf" target="_top" xlink:title="The meaning of &#39;value&#39; changes for the specific type.">
<polygon fill="none" stroke="black" points="202,-20.5 202,-41.5 342,-41.5 342,-20.5 202,-20.5"/>
<text text-anchor="middle" x="272" y="-28.5" font-family="FreeSans.ttf" font-size="10.00">tinyxml2::XMLNode::Value</text>
</a>
</g>
<!-- Node1&#45;&gt;Node7 -->
<g id="edge16" class="edge"><title>Node1&#45;&gt;Node7</title>
<path fill="none" stroke="midnightblue" d="M140.083,-47.3264C156.753,-45.2633 174.666,-43.0463 191.751,-40.9318"/>
<polygon fill="midnightblue" stroke="midnightblue" points="192.205,-44.4024 201.699,-39.7006 191.345,-37.4554 192.205,-44.4024"/>
</g>
<!-- Node3 -->
<g id="node5" class="node"><title>Node3</title>
<a xlink:href="classtinyxml2_1_1XMLPrinter.html#ab30210a7f32e45634e7a45137bf6fdf6" target="_top" xlink:title="tinyxml2::XMLPrinter::Print">
<polygon fill="none" stroke="black" points="622,-80.5 622,-101.5 764,-101.5 764,-80.5 622,-80.5"/>
<text text-anchor="middle" x="693" y="-88.5" font-family="FreeSans.ttf" font-size="10.00">tinyxml2::XMLPrinter::Print</text>
</a>
</g>
<!-- Node2&#45;&gt;Node3 -->
<g id="edge4" class="edge"><title>Node2&#45;&gt;Node3</title>
<path fill="none" stroke="midnightblue" d="M308.325,-91.5614C334.631,-98.6414 371.187,-107.318 404,-111 484.384,-120.02 505.456,-118.463 586,-111 602.674,-109.455 620.625,-106.583 636.97,-103.489"/>
<polygon fill="midnightblue" stroke="midnightblue" points="637.773,-106.898 646.915,-101.543 636.429,-100.028 637.773,-106.898"/>
</g>
<!-- Node5 -->
<g id="node9" class="node"><title>Node5</title>
<a xlink:href="classtinyxml2_1_1XMLPrinter.html#a1c4b2ccbe4fdb316d54f5a93f3559260" target="_top" xlink:title="tinyxml2::XMLPrinter::PrintSpace">
<polygon fill="none" stroke="black" points="409,-80.5 409,-101.5 581,-101.5 581,-80.5 409,-80.5"/>
<text text-anchor="middle" x="495" y="-88.5" font-family="FreeSans.ttf" font-size="10.00">tinyxml2::XMLPrinter::PrintSpace</text>
</a>
</g>
<!-- Node2&#45;&gt;Node5 -->
<g id="edge8" class="edge"><title>Node2&#45;&gt;Node5</title>
<path fill="none" stroke="midnightblue" d="M367.543,-85.2844C377.827,-85.7456 388.297,-86.2151 398.592,-86.6768"/>
<polygon fill="midnightblue" stroke="midnightblue" points="398.668,-90.1836 408.815,-87.1352 398.982,-83.1906 398.668,-90.1836"/>
</g>
<!-- Node6 -->
<g id="node12" class="node"><title>Node6</title>
<a xlink:href="classtinyxml2_1_1XMLPrinter.html#a70ac2010150c8551773ffb2f96fef353" target="_top" xlink:title="tinyxml2::XMLPrinter::SealElement">
<polygon fill="none" stroke="black" points="404.5,-40.5 404.5,-61.5 585.5,-61.5 585.5,-40.5 404.5,-40.5"/>
<text text-anchor="middle" x="495" y="-48.5" font-family="FreeSans.ttf" font-size="10.00">tinyxml2::XMLPrinter::SealElement</text>
</a>
</g>
<!-- Node2&#45;&gt;Node6 -->
<g id="edge12" class="edge"><title>Node2&#45;&gt;Node6</title>
<path fill="none" stroke="midnightblue" d="M350.308,-70.4653C368.605,-68.0038 388.215,-65.3657 406.905,-62.8513"/>
<polygon fill="midnightblue" stroke="midnightblue" points="407.437,-66.3115 416.881,-61.5093 406.503,-59.3739 407.437,-66.3115"/>
</g>
<!-- Node4 -->
<g id="node7" class="node"><title>Node4</title>
<a xlink:href="classtinyxml2_1_1DynArray.html#aa3c360d40addc3b05121da9f60a01b4d" target="_top" xlink:title="tinyxml2::DynArray::PushArr">
<polygon fill="none" stroke="black" points="800,-80.5 800,-101.5 950,-101.5 950,-80.5 800,-80.5"/>
<text text-anchor="middle" x="875" y="-88.5" font-family="FreeSans.ttf" font-size="10.00">tinyxml2::DynArray::PushArr</text>
</a>
</g>
<!-- Node3&#45;&gt;Node4 -->
<g id="edge6" class="edge"><title>Node3&#45;&gt;Node4</title>
<path fill="none" stroke="midnightblue" d="M764.148,-91C772.604,-91 781.3,-91 789.924,-91"/>
<polygon fill="midnightblue" stroke="midnightblue" points="789.998,-94.5001 799.998,-91 789.998,-87.5001 789.998,-94.5001"/>
</g>
<!-- Node5&#45;&gt;Node3 -->
<g id="edge10" class="edge"><title>Node5&#45;&gt;Node3</title>
<path fill="none" stroke="midnightblue" d="M581.27,-91C591.325,-91 601.558,-91 611.545,-91"/>
<polygon fill="midnightblue" stroke="midnightblue" points="611.845,-94.5001 621.845,-91 611.845,-87.5001 611.845,-94.5001"/>
</g>
<!-- Node6&#45;&gt;Node3 -->
<g id="edge14" class="edge"><title>Node6&#45;&gt;Node3</title>
<path fill="none" stroke="midnightblue" d="M547.022,-61.5095C572.727,-66.7023 603.931,-73.0064 630.882,-78.4508"/>
<polygon fill="midnightblue" stroke="midnightblue" points="630.487,-81.9417 640.982,-80.4913 631.873,-75.0803 630.487,-81.9417"/>
</g>
<!-- Node8 -->
<g id="node17" class="node"><title>Node8</title>
<a xlink:href="classtinyxml2_1_1StrPair.html#ad87e3d11330f5e689ba1e7e54c023b57" target="_top" xlink:title="tinyxml2::StrPair::GetStr">
<polygon fill="none" stroke="black" points="429,-0.5 429,-21.5 561,-21.5 561,-0.5 429,-0.5"/>
<text text-anchor="middle" x="495" y="-8.5" font-family="FreeSans.ttf" font-size="10.00">tinyxml2::StrPair::GetStr</text>
</a>
</g>
<!-- Node7&#45;&gt;Node8 -->
<g id="edge18" class="edge"><title>Node7&#45;&gt;Node8</title>
<path fill="none" stroke="midnightblue" d="M342.253,-24.6993C366.602,-22.5156 394.006,-20.0578 418.81,-17.8332"/>
<polygon fill="midnightblue" stroke="midnightblue" points="419.252,-21.3077 428.9,-16.9283 418.627,-14.3357 419.252,-21.3077"/>
</g>
</g>
</svg>
        <g id="navigator" transform="translate(0 0)" fill="#404254">
                <rect fill="#f2f5e9" fill-opacity="0.5" stroke="#606060" stroke-width=".5" x="0" y="0" width="60" height="60"/>
                <use id="zoomplus" xlink:href="#zoomPlus" x="17" y="9" onmousedown="handleZoom(evt,'in')"/>
                <use id="zoomminus" xlink:href="#zoomMin" x="42" y="9" onmousedown="handleZoom(evt,'out')"/>
                <use id="reset" xlink:href="#resetDef" x="30" y="36" onmousedown="handleReset()"/>
                <g id="arrowUp" xlink:href="#dirArrow" transform="translate(30 24)" onmousedown="handlePan(0,-1)">
                  <use xlink:href="#rim" fill="#404040">
                        <set attributeName="fill" to="#808080" begin="arrowUp.mouseover" end="arrowUp.mouseout"/>
                  </use>
                  <path fill="none" stroke="white" stroke-width="1.5" d="M0,-3.0v7 M-2.5,-0.5L0,-3.0L2.5,-0.5"/>
                </g>
                <g id="arrowRight" xlink:href="#dirArrow" transform="rotate(90) translate(36 -43)" onmousedown="handlePan(1,0)">
                  <use xlink:href="#rim" fill="#404040">
                        <set attributeName="fill" to="#808080" begin="arrowRight.mouseover" end="arrowRight.mouseout"/>
                  </use>
                  <path fill="none" stroke="white" stroke-width="1.5" d="M0,-3.0v7 M-2.5,-0.5L0,-3.0L2.5,-0.5"/>
                </g>
                <g id="arrowDown" xlink:href="#dirArrow" transform="rotate(180) translate(-30 -48)" onmousedown="handlePan(0,1)">
                  <use xlink:href="#rim" fill="#404040">
                        <set attributeName="fill" to="#808080" begin="arrowDown.mouseover" end="arrowDown.mouseout"/>
                  </use>
                  <path fill="none" stroke="white" stroke-width="1.5" d="M0,-3.0v7 M-2.5,-0.5L0,-3.0L2.5,-0.5"/>
                </g>
                <g id="arrowLeft" xlink:href="#dirArrow" transform="rotate(270) translate(-36 17)" onmousedown="handlePan(-1,0)">
                  <use xlink:href="#rim" fill="#404040">
                        <set attributeName="fill" to="#808080" begin="arrowLeft.mouseover" end="arrowLeft.mouseout"/>
                  </use>
                  <path fill="none" stroke="white" stroke-width="1.5" d="M0,-3.0v7 M-2.5,-0.5L0,-3.0L2.5,-0.5"/>
                </g>
        </g>
</svg>
