<?xml version="1.0" encoding="UTF-8" standalone="no"?>
<!DOCTYPE svg PUBLIC "-//W3C//DTD SVG 1.1//EN"
 "http://www.w3.org/Graphics/SVG/1.1/DTD/svg11.dtd">
<!-- Generated by graphviz version 2.26.3 (20100126.1600)
 -->
<!-- Title: G Pages: 1 -->
<!--zoomable 226 -->
<svg id="main" version="1.1" xmlns="http://www.w3.org/2000/svg" xmlns:xlink="http://www.w3.org/1999/xlink" xml:space="preserve" onload="init(evt)">
        <defs>
                <circle id="rim" cx="0" cy="0" r="7"/>
                <circle id="rim2" cx="0" cy="0" r="3.5"/>
                <g id="zoomPlus">
                        <use xlink:href="#rim" fill="#404040">
                                <set attributeName="fill" to="#808080" begin="zoomplus.mouseover" end="zoomplus.mouseout"/>
                        </use>
                        <path d="M-4,0h8M0,-4v8" fill="none" stroke="white" stroke-width="1.5" pointer-events="none"/>
                </g>
                <g id="zoomMin">
                        <use xlink:href="#rim" fill="#404040">
                                <set attributeName="fill" to="#808080" begin="zoomminus.mouseover" end="zoomminus.mouseout"/>
                        </use>
                        <path d="M-4,0h8" fill="none" stroke="white" stroke-width="1.5" pointer-events="none"/>
                </g>
                <g id="dirArrow">
                        <path fill="none" stroke="white" stroke-width="1.5" d="M0,-3.0v7 M-2.5,-0.5L0,-3.0L2.5,-0.5"/>
                </g>
               <g id="resetDef">
                       <use xlink:href="#rim2" fill="#404040">
                               <set attributeName="fill" to="#808080" begin="reset.mouseover" end="reset.mouseout"/>
                       </use>
               </g>
        </defs>

<script type="text/javascript">
var viewWidth = 1262;
var viewHeight = 226;
var sectionId = 'dynsection-6';
</script>
<script xlink:href="svgpan.js"/>
<svg id="graph" class="graph">
<g id="viewport">
<title>G</title>
<!-- Node1 -->
<g id="node1" class="node"><title>Node1</title>
<polygon fill="#bfbfbf" stroke="black" points="0.5,-157.5 0.5,-178.5 173.5,-178.5 173.5,-157.5 0.5,-157.5"/>
<text text-anchor="middle" x="87" y="-165.5" font-family="FreeSans.ttf" font-size="10.00">corecvs::Triangulator::triangulate</text>
</g>
<!-- Node2 -->
<g id="node3" class="node"><title>Node2</title>
<a xlink:href="classcorecvs_1_1Triangulator.html#a7f4db79f9ef947ad012d1359d890c394" target="_top" xlink:title="corecvs::Triangulator::triangulate">
<polygon fill="none" stroke="black" points="210.5,-157.5 210.5,-178.5 383.5,-178.5 383.5,-157.5 210.5,-157.5"/>
<text text-anchor="middle" x="297" y="-165.5" font-family="FreeSans.ttf" font-size="10.00">corecvs::Triangulator::triangulate</text>
</a>
</g>
<!-- Node1&#45;&gt;Node2 -->
<g id="edge2" class="edge"><title>Node1&#45;&gt;Node2</title>
<path fill="none" stroke="midnightblue" d="M173.627,-168C182.316,-168 191.179,-168 199.966,-168"/>
<polygon fill="midnightblue" stroke="midnightblue" points="200.233,-171.5 210.233,-168 200.233,-164.5 200.233,-171.5"/>
</g>
<!-- Node3 -->
<g id="node5" class="node"><title>Node3</title>
<a xlink:href="classcorecvs_1_1EssentialDecomposition.html#a123182db14754ef75da9388905a32702" target="_top" xlink:title="Triangulation taking as input left and right 2D projective vectors of the pixel in left ( ) and right...">
<polygon fill="none" stroke="black" points="420,-196.5 420,-217.5 658,-217.5 658,-196.5 420,-196.5"/>
<text text-anchor="middle" x="539" y="-204.5" font-family="FreeSans.ttf" font-size="10.00">corecvs::EssentialDecomposition::getDistance</text>
</a>
</g>
<!-- Node2&#45;&gt;Node3 -->
<g id="edge4" class="edge"><title>Node2&#45;&gt;Node3</title>
<path fill="none" stroke="midnightblue" d="M362.17,-178.503C393.507,-183.553 431.242,-189.634 463.791,-194.88"/>
<polygon fill="midnightblue" stroke="midnightblue" points="463.284,-198.343 473.714,-196.479 464.398,-191.432 463.284,-198.343"/>
</g>
<!-- Node4 -->
<g id="node7" class="node"><title>Node4</title>
<a xlink:href="classcorecvs_1_1VectorOperationsBase.html#a8abdcdd0819e6c08bfba71b93d0fbea8" target="_top" xlink:title="Return a normalized copy of vector.">
<polygon fill="none" stroke="black" points="694,-196.5 694,-217.5 920,-217.5 920,-196.5 694,-196.5"/>
<text text-anchor="middle" x="807" y="-204.5" font-family="FreeSans.ttf" font-size="10.00">corecvs::VectorOperationsBase::normalised</text>
</a>
</g>
<!-- Node2&#45;&gt;Node4 -->
<g id="edge36" class="edge"><title>Node2&#45;&gt;Node4</title>
<path fill="none" stroke="midnightblue" d="M383.578,-170.591C456.797,-173.253 564.423,-178.271 658,-187 680.536,-189.102 704.901,-192.075 727.271,-195.087"/>
<polygon fill="midnightblue" stroke="midnightblue" points="727.013,-198.585 737.395,-196.471 727.961,-191.649 727.013,-198.585"/>
</g>
<!-- Node5 -->
<g id="node9" class="node"><title>Node5</title>
<a xlink:href="classcorecvs_1_1EssentialDecomposition.html#aa84682ff901ec37153e580a33300317e" target="_top" xlink:title="Triangulation taking as input left and right 2D projective vectors of the pixel in left ( ) and right...">
<polygon fill="none" stroke="black" points="426,-97.5 426,-118.5 652,-118.5 652,-97.5 426,-97.5"/>
<text text-anchor="middle" x="539" y="-105.5" font-family="FreeSans.ttf" font-size="10.00">corecvs::EssentialDecomposition::getScaler</text>
</a>
</g>
<!-- Node2&#45;&gt;Node5 -->
<g id="edge8" class="edge"><title>Node2&#45;&gt;Node5</title>
<path fill="none" stroke="midnightblue" d="M339.43,-157.48C380.428,-147.315 442.627,-131.894 486.674,-120.973"/>
<polygon fill="midnightblue" stroke="midnightblue" points="487.755,-124.311 496.619,-118.508 486.07,-117.517 487.755,-124.311"/>
</g>
<!-- Node3&#45;&gt;Node4 -->
<g id="edge6" class="edge"><title>Node3&#45;&gt;Node4</title>
<path fill="none" stroke="midnightblue" d="M658.109,-207C666.65,-207 675.273,-207 683.836,-207"/>
<polygon fill="midnightblue" stroke="midnightblue" points="683.852,-210.5 693.852,-207 683.852,-203.5 683.852,-210.5"/>
</g>
<!-- Node6 -->
<g id="node11" class="node"><title>Node6</title>
<a xlink:href="classcorecvs_1_1Matrix33.html#a2c9451edf48d8e58b40ceea8f0f667f0" target="_top" xlink:title="Matrix construction via 3 columns.">
<polygon fill="none" stroke="black" points="720.5,-78.5 720.5,-99.5 893.5,-99.5 893.5,-78.5 720.5,-78.5"/>
<text text-anchor="middle" x="807" y="-86.5" font-family="FreeSans.ttf" font-size="10.00">corecvs::Matrix33::FromColumns</text>
</a>
</g>
<!-- Node5&#45;&gt;Node6 -->
<g id="edge10" class="edge"><title>Node5&#45;&gt;Node6</title>
<path fill="none" stroke="midnightblue" d="M652.268,-99.9698C671.522,-98.6048 691.361,-97.1983 710.143,-95.8667"/>
<polygon fill="midnightblue" stroke="midnightblue" points="710.431,-99.3552 720.158,-95.1567 709.935,-92.3727 710.431,-99.3552"/>
</g>
<!-- Node8 -->
<g id="node15" class="node"><title>Node8</title>
<a xlink:href="classcorecvs_1_1Vector3d.html#aec83d9ad04107cd9c2bb11abf33128c0" target="_top" xlink:title="Helper functions to access elements.">
<polygon fill="none" stroke="black" points="973.5,-80.5 973.5,-101.5 1086.5,-101.5 1086.5,-80.5 973.5,-80.5"/>
<text text-anchor="middle" x="1030" y="-88.5" font-family="FreeSans.ttf" font-size="10.00">corecvs::Vector3d::x</text>
</a>
</g>
<!-- Node5&#45;&gt;Node8 -->
<g id="edge30" class="edge"><title>Node5&#45;&gt;Node8</title>
<path fill="none" stroke="midnightblue" d="M652.142,-113.244C728.038,-115.547 830.172,-116.301 920,-109 935.044,-107.777 951.133,-105.629 966.233,-103.232"/>
<polygon fill="midnightblue" stroke="midnightblue" points="967.205,-106.619 976.503,-101.541 966.068,-99.7119 967.205,-106.619"/>
</g>
<!-- Node9 -->
<g id="node17" class="node"><title>Node9</title>
<a xlink:href="classcorecvs_1_1Vector3d.html#a940d88447f20fac800d1fa510c981275" target="_top" xlink:title="corecvs::Vector3d::y">
<polygon fill="none" stroke="black" points="973.5,-40.5 973.5,-61.5 1086.5,-61.5 1086.5,-40.5 973.5,-40.5"/>
<text text-anchor="middle" x="1030" y="-48.5" font-family="FreeSans.ttf" font-size="10.00">corecvs::Vector3d::y</text>
</a>
</g>
<!-- Node5&#45;&gt;Node9 -->
<g id="edge32" class="edge"><title>Node5&#45;&gt;Node9</title>
<path fill="none" stroke="midnightblue" d="M572.785,-97.4907C603.93,-88.2855 651.61,-75.407 694,-69 786.712,-54.9871 895.253,-51.47 963.327,-50.7959"/>
<polygon fill="midnightblue" stroke="midnightblue" points="963.511,-54.2946 973.483,-50.7135 963.455,-47.2949 963.511,-54.2946"/>
</g>
<!-- Node10 -->
<g id="node19" class="node"><title>Node10</title>
<a xlink:href="classcorecvs_1_1Vector3d.html#a4587f5d4984576c5c4c2d44a4140ce3f" target="_top" xlink:title="corecvs::Vector3d::z">
<polygon fill="none" stroke="black" points="973.5,-0.5 973.5,-21.5 1086.5,-21.5 1086.5,-0.5 973.5,-0.5"/>
<text text-anchor="middle" x="1030" y="-8.5" font-family="FreeSans.ttf" font-size="10.00">corecvs::Vector3d::z</text>
</a>
</g>
<!-- Node5&#45;&gt;Node10 -->
<g id="edge34" class="edge"><title>Node5&#45;&gt;Node10</title>
<path fill="none" stroke="midnightblue" d="M560.747,-97.4963C590.214,-83.7537 644.804,-60.0133 694,-48 785.644,-25.6213 894.677,-16.7582 963.128,-13.2608"/>
<polygon fill="midnightblue" stroke="midnightblue" points="963.523,-16.7458 973.341,-12.7635 963.183,-9.75406 963.523,-16.7458"/>
</g>
<!-- Node11 -->
<g id="node21" class="node"><title>Node11</title>
<a xlink:href="classcorecvs_1_1Matrix33.html#a303763def6e3cd4a08222e9fa8f6faae" target="_top" xlink:title="This function returns an inverse of the matrix.">
<polygon fill="none" stroke="black" points="747,-156.5 747,-177.5 867,-177.5 867,-156.5 747,-156.5"/>
<text text-anchor="middle" x="807" y="-164.5" font-family="FreeSans.ttf" font-size="10.00">corecvs::Matrix33::inv</text>
</a>
</g>
<!-- Node5&#45;&gt;Node11 -->
<g id="edge20" class="edge"><title>Node5&#45;&gt;Node11</title>
<path fill="none" stroke="midnightblue" d="M586.913,-118.548C632.314,-128.543 700.58,-143.572 749.028,-154.238"/>
<polygon fill="midnightblue" stroke="midnightblue" points="748.532,-157.712 759.051,-156.444 750.037,-150.876 748.532,-157.712"/>
</g>
<!-- Node7 -->
<g id="node13" class="node"><title>Node7</title>
<a xlink:href="classcorecvs_1_1Matrix33.html#a47c909b671a7ae90b386b56c8706d3a5" target="_top" xlink:title="corecvs::Matrix33::Matrix33">
<polygon fill="none" stroke="black" points="956,-120.5 956,-141.5 1104,-141.5 1104,-120.5 956,-120.5"/>
<text text-anchor="middle" x="1030" y="-128.5" font-family="FreeSans.ttf" font-size="10.00">corecvs::Matrix33::Matrix33</text>
</a>
</g>
<!-- Node6&#45;&gt;Node7 -->
<g id="edge12" class="edge"><title>Node6&#45;&gt;Node7</title>
<path fill="none" stroke="midnightblue" d="M862.984,-99.5442C893.602,-105.311 931.719,-112.49 963.804,-118.533"/>
<polygon fill="midnightblue" stroke="midnightblue" points="963.517,-122.04 973.992,-120.452 964.813,-115.161 963.517,-122.04"/>
</g>
<!-- Node6&#45;&gt;Node8 -->
<g id="edge14" class="edge"><title>Node6&#45;&gt;Node8</title>
<path fill="none" stroke="midnightblue" d="M893.537,-89.7761C916.683,-89.9837 941.342,-90.2049 963.241,-90.4013"/>
<polygon fill="midnightblue" stroke="midnightblue" points="963.39,-93.9026 973.421,-90.4926 963.453,-86.9029 963.39,-93.9026"/>
</g>
<!-- Node6&#45;&gt;Node9 -->
<g id="edge16" class="edge"><title>Node6&#45;&gt;Node9</title>
<path fill="none" stroke="midnightblue" d="M868.822,-78.4653C898.237,-73.4529 933.45,-67.4525 963.449,-62.3405"/>
<polygon fill="midnightblue" stroke="midnightblue" points="964.137,-65.7739 973.407,-60.6437 962.961,-58.8733 964.137,-65.7739"/>
</g>
<!-- Node6&#45;&gt;Node10 -->
<g id="edge18" class="edge"><title>Node6&#45;&gt;Node10</title>
<path fill="none" stroke="midnightblue" d="M831.748,-78.4235C861.073,-66.1122 911.566,-45.6063 956,-31 963.12,-28.6594 970.689,-26.3807 978.165,-24.2499"/>
<polygon fill="midnightblue" stroke="midnightblue" points="979.199,-27.5953 987.893,-21.5412 977.321,-20.8519 979.199,-27.5953"/>
</g>
<!-- Node11&#45;&gt;Node7 -->
<g id="edge28" class="edge"><title>Node11&#45;&gt;Node7</title>
<path fill="none" stroke="midnightblue" d="M867.053,-157.305C894.056,-152.946 926.215,-147.755 954.801,-143.14"/>
<polygon fill="midnightblue" stroke="midnightblue" points="955.434,-146.583 964.748,-141.534 954.318,-139.672 955.434,-146.583"/>
</g>
<!-- Node12 -->
<g id="node23" class="node"><title>Node12</title>
<a xlink:href="classcorecvs_1_1Matrix33.html#a8596ffc77b92da2876c22900c02e9bec" target="_top" xlink:title="Geting Matrix element functions block.">
<polygon fill="none" stroke="black" points="1140.5,-179.5 1140.5,-200.5 1253.5,-200.5 1253.5,-179.5 1140.5,-179.5"/>
<text text-anchor="middle" x="1197" y="-187.5" font-family="FreeSans.ttf" font-size="10.00">corecvs::Matrix33::a</text>
</a>
</g>
<!-- Node11&#45;&gt;Node12 -->
<g id="edge22" class="edge"><title>Node11&#45;&gt;Node12</title>
<path fill="none" stroke="midnightblue" d="M866.26,-177.533C899.982,-183.331 938.827,-189.626 956,-191 1021.57,-196.247 1038.22,-191.354 1104,-191 1112.47,-190.954 1121.38,-190.886 1130.18,-190.805"/>
<polygon fill="midnightblue" stroke="midnightblue" points="1130.48,-194.302 1140.44,-190.705 1130.41,-187.303 1130.48,-194.302"/>
</g>
<!-- Node13 -->
<g id="node25" class="node"><title>Node13</title>
<a xlink:href="classcorecvs_1_1Matrix33.html#a960edd556c9c44ce0b045f702153836e" target="_top" xlink:title="Computing determinant of the matrix.">
<polygon fill="none" stroke="black" points="969,-160.5 969,-181.5 1091,-181.5 1091,-160.5 969,-160.5"/>
<text text-anchor="middle" x="1030" y="-168.5" font-family="FreeSans.ttf" font-size="10.00">corecvs::Matrix33::det</text>
</a>
</g>
<!-- Node11&#45;&gt;Node13 -->
<g id="edge24" class="edge"><title>Node11&#45;&gt;Node13</title>
<path fill="none" stroke="midnightblue" d="M867.053,-168.077C895.21,-168.582 928.973,-169.188 958.445,-169.717"/>
<polygon fill="midnightblue" stroke="midnightblue" points="958.614,-173.22 968.675,-169.9 958.739,-166.221 958.614,-173.22"/>
</g>
<!-- Node13&#45;&gt;Node12 -->
<g id="edge26" class="edge"><title>Node13&#45;&gt;Node12</title>
<path fill="none" stroke="midnightblue" d="M1091.24,-177.967C1103.94,-179.413 1117.39,-180.943 1130.29,-182.41"/>
<polygon fill="midnightblue" stroke="midnightblue" points="1130.15,-185.917 1140.48,-183.57 1130.94,-178.962 1130.15,-185.917"/>
</g>
</g>
</svg>
        <g id="navigator" transform="translate(0 0)" fill="#404254">
                <rect fill="#f2f5e9" fill-opacity="0.5" stroke="#606060" stroke-width=".5" x="0" y="0" width="60" height="60"/>
                <use id="zoomplus" xlink:href="#zoomPlus" x="17" y="9" onmousedown="handleZoom(evt,'in')"/>
                <use id="zoomminus" xlink:href="#zoomMin" x="42" y="9" onmousedown="handleZoom(evt,'out')"/>
                <use id="reset" xlink:href="#resetDef" x="30" y="36" onmousedown="handleReset()"/>
                <g id="arrowUp" xlink:href="#dirArrow" transform="translate(30 24)" onmousedown="handlePan(0,-1)">
                  <use xlink:href="#rim" fill="#404040">
                        <set attributeName="fill" to="#808080" begin="arrowUp.mouseover" end="arrowUp.mouseout"/>
                  </use>
                  <path fill="none" stroke="white" stroke-width="1.5" d="M0,-3.0v7 M-2.5,-0.5L0,-3.0L2.5,-0.5"/>
                </g>
                <g id="arrowRight" xlink:href="#dirArrow" transform="rotate(90) translate(36 -43)" onmousedown="handlePan(1,0)">
                  <use xlink:href="#rim" fill="#404040">
                        <set attributeName="fill" to="#808080" begin="arrowRight.mouseover" end="arrowRight.mouseout"/>
                  </use>
                  <path fill="none" stroke="white" stroke-width="1.5" d="M0,-3.0v7 M-2.5,-0.5L0,-3.0L2.5,-0.5"/>
                </g>
                <g id="arrowDown" xlink:href="#dirArrow" transform="rotate(180) translate(-30 -48)" onmousedown="handlePan(0,1)">
                  <use xlink:href="#rim" fill="#404040">
                        <set attributeName="fill" to="#808080" begin="arrowDown.mouseover" end="arrowDown.mouseout"/>
                  </use>
                  <path fill="none" stroke="white" stroke-width="1.5" d="M0,-3.0v7 M-2.5,-0.5L0,-3.0L2.5,-0.5"/>
                </g>
                <g id="arrowLeft" xlink:href="#dirArrow" transform="rotate(270) translate(-36 17)" onmousedown="handlePan(-1,0)">
                  <use xlink:href="#rim" fill="#404040">
                        <set attributeName="fill" to="#808080" begin="arrowLeft.mouseover" end="arrowLeft.mouseout"/>
                  </use>
                  <path fill="none" stroke="white" stroke-width="1.5" d="M0,-3.0v7 M-2.5,-0.5L0,-3.0L2.5,-0.5"/>
                </g>
        </g>
</svg>
