<?xml version="1.0" encoding="UTF-8" standalone="no"?>
<!DOCTYPE svg PUBLIC "-//W3C//DTD SVG 1.1//EN"
 "http://www.w3.org/Graphics/SVG/1.1/DTD/svg11.dtd">
<!-- Generated by graphviz version 2.26.3 (20100126.1600)
 -->
<!-- Title: G Pages: 1 -->
<svg width="435pt" height="258pt"
 viewBox="0.00 0.00 435.00 258.00" xmlns="http://www.w3.org/2000/svg" xmlns:xlink="http://www.w3.org/1999/xlink">
<g id="graph1" class="graph" transform="scale(1 1) rotate(0) translate(4 254)">
<title>G</title>
<!-- Node1 -->
<g id="node1" class="node"><title>Node1</title>
<polygon fill="#bfbfbf" stroke="black" points="120.5,-0.5 120.5,-21.5 225.5,-21.5 225.5,-0.5 120.5,-0.5"/>
<text text-anchor="middle" x="173" y="-8.5" font-family="FreeSans.ttf" font-size="10.00">CapSettingsDialog</text>
</g>
<!-- Node2 -->
<g id="node2" class="node"><title>Node2</title>
<a xlink:href="classSaveableWidget.html" target="_top" xlink:title="SaveableWidget">
<polygon fill="none" stroke="black" points="-0.5,-84.5 -0.5,-105.5 92.5,-105.5 92.5,-84.5 -0.5,-84.5"/>
<text text-anchor="middle" x="46" y="-92.5" font-family="FreeSans.ttf" font-size="10.00">SaveableWidget</text>
</a>
</g>
<!-- Node2&#45;&gt;Node1 -->
<g id="edge2" class="edge"><title>Node2&#45;&gt;Node1</title>
<path fill="none" stroke="midnightblue" d="M70.4889,-78.8026C96.0121,-61.9211 135.263,-35.9599 157.046,-21.5523"/>
<polygon fill="midnightblue" stroke="midnightblue" points="68.4945,-75.9254 62.0846,-84.3613 72.3562,-81.7639 68.4945,-75.9254"/>
</g>
<!-- Node3 -->
<g id="node4" class="node"><title>Node3</title>
<a xlink:href="classImageCaptureInterface.html" target="_top" xlink:title="ImageCaptureInterface">
<polygon fill="none" stroke="black" points="109.5,-84.5 109.5,-105.5 236.5,-105.5 236.5,-84.5 109.5,-84.5"/>
<text text-anchor="middle" x="173" y="-92.5" font-family="FreeSans.ttf" font-size="10.00">ImageCaptureInterface</text>
</a>
</g>
<!-- Node3&#45;&gt;Node1 -->
<g id="edge4" class="edge"><title>Node3&#45;&gt;Node1</title>
<path fill="none" stroke="#9a32cd" stroke-dasharray="5,2" d="M173,-73.9452C173,-57.2568 173,-34.6387 173,-21.5523"/>
<polygon fill="#9a32cd" stroke="#9a32cd" points="169.5,-74.3613 173,-84.3613 176.5,-74.3614 169.5,-74.3613"/>
<text text-anchor="middle" x="220" y="-50.5" font-family="FreeSans.ttf" font-size="10.00"> mCaptureInterface</text>
</g>
<!-- Node4 -->
<g id="node6" class="node"><title>Node4</title>
<a xlink:href="classCameraParameters.html" target="_top" xlink:title="CameraParameters">
<polygon fill="none" stroke="black" points="254,-84.5 254,-105.5 364,-105.5 364,-84.5 254,-84.5"/>
<text text-anchor="middle" x="309" y="-92.5" font-family="FreeSans.ttf" font-size="10.00">CameraParameters</text>
</a>
</g>
<!-- Node4&#45;&gt;Node1 -->
<g id="edge6" class="edge"><title>Node4&#45;&gt;Node1</title>
<path fill="none" stroke="#9a32cd" stroke-dasharray="5,2" d="M299.742,-75.3322C293.241,-63.5066 283.483,-49.0432 271,-40 257.709,-30.3711 241.228,-23.9145 225.598,-19.5947"/>
<polygon fill="#9a32cd" stroke="#9a32cd" points="296.749,-77.1659 304.425,-84.4684 302.979,-73.9728 296.749,-77.1659"/>
<text text-anchor="middle" x="357" y="-57" font-family="FreeSans.ttf" font-size="10.00"> mLeftCameraParameters</text>
<text text-anchor="middle" x="357" y="-44" font-family="FreeSans.ttf" font-size="10.00">mRightCameraParameters</text>
</g>
<!-- Node5 -->
<g id="node8" class="node"><title>Node5</title>
<a xlink:href="classCaptureParameter.html" target="_top" xlink:title="CaptureParameter">
<polygon fill="none" stroke="black" points="256.5,-156.5 256.5,-177.5 361.5,-177.5 361.5,-156.5 256.5,-156.5"/>
<text text-anchor="middle" x="309" y="-164.5" font-family="FreeSans.ttf" font-size="10.00">CaptureParameter</text>
</a>
</g>
<!-- Node5&#45;&gt;Node4 -->
<g id="edge8" class="edge"><title>Node5&#45;&gt;Node4</title>
<path fill="none" stroke="#9a32cd" stroke-dasharray="5,2" d="M309,-146.235C309,-132.969 309,-116.319 309,-105.667"/>
<polygon fill="#9a32cd" stroke="#9a32cd" points="305.5,-146.376 309,-156.376 312.5,-146.376 305.5,-146.376"/>
<text text-anchor="middle" x="354.5" y="-128.5" font-family="FreeSans.ttf" font-size="10.00"> mCameraControls</text>
</g>
<!-- Node6 -->
<g id="node10" class="node"><title>Node6</title>
<polygon fill="none" stroke="#bfbfbf" points="180,-228.5 180,-249.5 306,-249.5 306,-228.5 180,-228.5"/>
<text text-anchor="middle" x="243" y="-236.5" font-family="FreeSans.ttf" font-size="10.00">std::vector&lt; QString &gt;</text>
</g>
<!-- Node6&#45;&gt;Node5 -->
<g id="edge10" class="edge"><title>Node6&#45;&gt;Node5</title>
<path fill="none" stroke="#9a32cd" stroke-dasharray="5,2" d="M259.53,-220.968C272.031,-207.329 288.774,-189.064 299.222,-177.667"/>
<polygon fill="#9a32cd" stroke="#9a32cd" points="256.916,-218.64 252.739,-228.376 262.076,-223.37 256.916,-218.64"/>
<text text-anchor="middle" x="314.5" y="-200.5" font-family="FreeSans.ttf" font-size="10.00"> mMenuItems</text>
</g>
<!-- Node7 -->
<g id="node12" class="node"><title>Node7</title>
<polygon fill="none" stroke="#bfbfbf" points="324,-228.5 324,-249.5 426,-249.5 426,-228.5 324,-228.5"/>
<text text-anchor="middle" x="375" y="-236.5" font-family="FreeSans.ttf" font-size="10.00">std::vector&lt; int &gt;</text>
</g>
<!-- Node7&#45;&gt;Node5 -->
<g id="edge12" class="edge"><title>Node7&#45;&gt;Node5</title>
<path fill="none" stroke="#9a32cd" stroke-dasharray="5,2" d="M366.851,-219.063C363.072,-211.319 358.063,-202.716 352,-196 345.484,-188.781 336.812,-182.492 328.964,-177.633"/>
<polygon fill="#9a32cd" stroke="#9a32cd" points="363.67,-220.523 370.966,-228.205 370.053,-217.65 363.67,-220.523"/>
<text text-anchor="middle" x="394" y="-200.5" font-family="FreeSans.ttf" font-size="10.00"> mMenuValue</text>
</g>
</g>
</svg>
