<?xml version="1.0" encoding="UTF-8" standalone="no"?>
<!DOCTYPE svg PUBLIC "-//W3C//DTD SVG 1.1//EN"
 "http://www.w3.org/Graphics/SVG/1.1/DTD/svg11.dtd">
<!-- Generated by graphviz version 2.26.3 (20100126.1600)
 -->
<!-- Title: G Pages: 1 -->
<svg width="382pt" height="204pt"
 viewBox="0.00 0.00 382.00 204.00" xmlns="http://www.w3.org/2000/svg" xmlns:xlink="http://www.w3.org/1999/xlink">
<g id="graph1" class="graph" transform="scale(1 1) rotate(0) translate(4 200)">
<title>G</title>
<!-- Node1 -->
<g id="node1" class="node"><title>Node1</title>
<polygon fill="#bfbfbf" stroke="black" points="118.5,-0.5 118.5,-21.5 255.5,-21.5 255.5,-0.5 118.5,-0.5"/>
<text text-anchor="middle" x="187" y="-8.5" font-family="FreeSans.ttf" font-size="10.00">corecvs::G8IntegralBuffer</text>
</g>
<!-- Node2 -->
<g id="node2" class="node"><title>Node2</title>
<a xlink:href="classcorecvs_1_1IntegralBuffer.html" target="_top" xlink:title="corecvs::IntegralBuffer\&lt; uint32_t, G8Buffer::InternalElementType, int32_t \&gt;">
<polygon fill="none" stroke="black" points="-0.5,-58.5 -0.5,-79.5 374.5,-79.5 374.5,-58.5 -0.5,-58.5"/>
<text text-anchor="middle" x="187" y="-66.5" font-family="FreeSans.ttf" font-size="10.00">corecvs::IntegralBuffer&lt; uint32_t, G8Buffer::InternalElementType, int32_t &gt;</text>
</a>
</g>
<!-- Node2&#45;&gt;Node1 -->
<g id="edge2" class="edge"><title>Node2&#45;&gt;Node1</title>
<path fill="none" stroke="midnightblue" d="M187,-48.1906C187,-39.1684 187,-28.9941 187,-21.5707"/>
<polygon fill="midnightblue" stroke="midnightblue" points="183.5,-48.3619 187,-58.3619 190.5,-48.3619 183.5,-48.3619"/>
</g>
<!-- Node3 -->
<g id="node4" class="node"><title>Node3</title>
<a xlink:href="classcorecvs_1_1AbstractBuffer.html" target="_top" xlink:title="corecvs::AbstractBuffer\&lt; uint32_t, int32_t \&gt;">
<polygon fill="none" stroke="black" points="72.5,-116.5 72.5,-137.5 301.5,-137.5 301.5,-116.5 72.5,-116.5"/>
<text text-anchor="middle" x="187" y="-124.5" font-family="FreeSans.ttf" font-size="10.00">corecvs::AbstractBuffer&lt; uint32_t, int32_t &gt;</text>
</a>
</g>
<!-- Node3&#45;&gt;Node2 -->
<g id="edge4" class="edge"><title>Node3&#45;&gt;Node2</title>
<path fill="none" stroke="midnightblue" d="M187,-106.191C187,-97.1684 187,-86.9941 187,-79.5707"/>
<polygon fill="midnightblue" stroke="midnightblue" points="183.5,-106.362 187,-116.362 190.5,-106.362 183.5,-106.362"/>
</g>
<!-- Node4 -->
<g id="node6" class="node"><title>Node4</title>
<a xlink:href="classcorecvs_1_1AbstractBufferParams.html" target="_top" xlink:title="This is a basis part of the AbstractBuffer template &#45; serializable buffer params.">
<polygon fill="none" stroke="black" points="105,-174.5 105,-195.5 269,-195.5 269,-174.5 105,-174.5"/>
<text text-anchor="middle" x="187" y="-182.5" font-family="FreeSans.ttf" font-size="10.00">corecvs::AbstractBufferParams</text>
</a>
</g>
<!-- Node4&#45;&gt;Node3 -->
<g id="edge6" class="edge"><title>Node4&#45;&gt;Node3</title>
<path fill="none" stroke="midnightblue" d="M187,-164.191C187,-155.168 187,-144.994 187,-137.571"/>
<polygon fill="midnightblue" stroke="midnightblue" points="183.5,-164.362 187,-174.362 190.5,-164.362 183.5,-164.362"/>
</g>
</g>
</svg>
