<?xml version="1.0" encoding="UTF-8" standalone="no"?>
<!DOCTYPE svg PUBLIC "-//W3C//DTD SVG 1.1//EN"
 "http://www.w3.org/Graphics/SVG/1.1/DTD/svg11.dtd">
<!-- Generated by graphviz version 2.26.3 (20100126.1600)
 -->
<!-- Title: G Pages: 1 -->
<svg width="274pt" height="70pt"
 viewBox="0.00 0.00 274.00 70.00" xmlns="http://www.w3.org/2000/svg" xmlns:xlink="http://www.w3.org/1999/xlink">
<g id="graph1" class="graph" transform="scale(1 1) rotate(0) translate(4 66)">
<title>G</title>
<!-- Node1 -->
<g id="node1" class="node"><title>Node1</title>
<polygon fill="#bfbfbf" stroke="black" points="0,-20.5 0,-41.5 116,-41.5 116,-20.5 0,-20.5"/>
<text text-anchor="middle" x="58" y="-28.5" font-family="FreeSans.ttf" font-size="10.00">corecvs::Line2d::_init</text>
</g>
<!-- Node2 -->
<g id="node3" class="node"><title>Node2</title>
<a xlink:href="classcorecvs_1_1Vector2d.html#a944721c41f044c1388d9dc42ca899bce" target="_top" xlink:title="corecvs::Vector2d::x">
<polygon fill="none" stroke="black" points="152.5,-40.5 152.5,-61.5 265.5,-61.5 265.5,-40.5 152.5,-40.5"/>
<text text-anchor="middle" x="209" y="-48.5" font-family="FreeSans.ttf" font-size="10.00">corecvs::Vector2d::x</text>
</a>
</g>
<!-- Node1&#45;&gt;Node2 -->
<g id="edge2" class="edge"><title>Node1&#45;&gt;Node2</title>
<path fill="none" stroke="midnightblue" d="M116.381,-38.7325C124.851,-39.8544 133.625,-41.0165 142.244,-42.1582"/>
<polygon fill="midnightblue" stroke="midnightblue" points="141.892,-45.642 152.265,-43.4854 142.811,-38.7026 141.892,-45.642"/>
</g>
<!-- Node3 -->
<g id="node5" class="node"><title>Node3</title>
<a xlink:href="classcorecvs_1_1Vector2d.html#ae1ea2ad4c0821001408bf963cffa8413" target="_top" xlink:title="corecvs::Vector2d::y">
<polygon fill="none" stroke="black" points="152.5,-0.5 152.5,-21.5 265.5,-21.5 265.5,-0.5 152.5,-0.5"/>
<text text-anchor="middle" x="209" y="-8.5" font-family="FreeSans.ttf" font-size="10.00">corecvs::Vector2d::y</text>
</a>
</g>
<!-- Node1&#45;&gt;Node3 -->
<g id="edge4" class="edge"><title>Node1&#45;&gt;Node3</title>
<path fill="none" stroke="midnightblue" d="M116.381,-23.2675C124.851,-22.1456 133.625,-20.9835 142.244,-19.8418"/>
<polygon fill="midnightblue" stroke="midnightblue" points="142.811,-23.2974 152.265,-18.5146 141.892,-16.358 142.811,-23.2974"/>
</g>
</g>
</svg>
