<?xml version="1.0" encoding="UTF-8" standalone="no"?>
<!DOCTYPE svg PUBLIC "-//W3C//DTD SVG 1.1//EN"
 "http://www.w3.org/Graphics/SVG/1.1/DTD/svg11.dtd">
<!-- Generated by graphviz version 2.26.3 (20100126.1600)
 -->
<!-- Title: G Pages: 1 -->
<!--zoomable 110 -->
<svg id="main" version="1.1" xmlns="http://www.w3.org/2000/svg" xmlns:xlink="http://www.w3.org/1999/xlink" xml:space="preserve" onload="init(evt)">
        <defs>
                <circle id="rim" cx="0" cy="0" r="7"/>
                <circle id="rim2" cx="0" cy="0" r="3.5"/>
                <g id="zoomPlus">
                        <use xlink:href="#rim" fill="#404040">
                                <set attributeName="fill" to="#808080" begin="zoomplus.mouseover" end="zoomplus.mouseout"/>
                        </use>
                        <path d="M-4,0h8M0,-4v8" fill="none" stroke="white" stroke-width="1.5" pointer-events="none"/>
                </g>
                <g id="zoomMin">
                        <use xlink:href="#rim" fill="#404040">
                                <set attributeName="fill" to="#808080" begin="zoomminus.mouseover" end="zoomminus.mouseout"/>
                        </use>
                        <path d="M-4,0h8" fill="none" stroke="white" stroke-width="1.5" pointer-events="none"/>
                </g>
                <g id="dirArrow">
                        <path fill="none" stroke="white" stroke-width="1.5" d="M0,-3.0v7 M-2.5,-0.5L0,-3.0L2.5,-0.5"/>
                </g>
               <g id="resetDef">
                       <use xlink:href="#rim2" fill="#404040">
                               <set attributeName="fill" to="#808080" begin="reset.mouseover" end="reset.mouseout"/>
                       </use>
               </g>
        </defs>

<script type="text/javascript">
var viewWidth = 596;
var viewHeight = 110;
var sectionId = 'dynsection-7';
</script>
<script xlink:href="svgpan.js"/>
<svg id="graph" class="graph">
<g id="viewport">
<title>G</title>
<!-- Node1 -->
<g id="node1" class="node"><title>Node1</title>
<polygon fill="#bfbfbf" stroke="black" points="0.5,-60.5 0.5,-81.5 191.5,-81.5 191.5,-60.5 0.5,-60.5"/>
<text text-anchor="middle" x="96" y="-68.5" font-family="FreeSans.ttf" font-size="10.00">corecvs::GenericQuaternion::getAxis</text>
</g>
<!-- Node2 -->
<g id="node3" class="node"><title>Node2</title>
<a xlink:href="classcorecvs_1_1GenericQuaternion.html#a1425fc56ee78d718b584f902e120251c" target="_top" xlink:title="corecvs::GenericQuaternion::t">
<polygon fill="none" stroke="black" points="229.5,-80.5 229.5,-101.5 388.5,-101.5 388.5,-80.5 229.5,-80.5"/>
<text text-anchor="middle" x="309" y="-88.5" font-family="FreeSans.ttf" font-size="10.00">corecvs::GenericQuaternion::t</text>
</a>
</g>
<!-- Node1&#45;&gt;Node2 -->
<g id="edge2" class="edge"><title>Node1&#45;&gt;Node2</title>
<path fill="none" stroke="midnightblue" d="M191.597,-79.9762C200.757,-80.8363 210.026,-81.7067 219.129,-82.5614"/>
<polygon fill="midnightblue" stroke="midnightblue" points="219.038,-86.0681 229.321,-83.5184 219.692,-79.0988 219.038,-86.0681"/>
</g>
<!-- Node3 -->
<g id="node5" class="node"><title>Node3</title>
<a xlink:href="classcorecvs_1_1GenericQuaternion.html#ae6ea865b0d7b3b42169f38497ed90584" target="_top" xlink:title="corecvs::GenericQuaternion::v">
<polygon fill="none" stroke="black" points="228.5,-40.5 228.5,-61.5 389.5,-61.5 389.5,-40.5 228.5,-40.5"/>
<text text-anchor="middle" x="309" y="-48.5" font-family="FreeSans.ttf" font-size="10.00">corecvs::GenericQuaternion::v</text>
</a>
</g>
<!-- Node1&#45;&gt;Node3 -->
<g id="edge4" class="edge"><title>Node1&#45;&gt;Node3</title>
<path fill="none" stroke="midnightblue" d="M191.597,-62.0238C200.42,-61.1953 209.344,-60.3574 218.124,-59.533"/>
<polygon fill="midnightblue" stroke="midnightblue" points="218.72,-62.9925 228.349,-58.5729 218.065,-56.0232 218.72,-62.9925"/>
</g>
<!-- Node4 -->
<g id="node7" class="node"><title>Node4</title>
<a xlink:href="classcorecvs_1_1GenericQuaternion.html#a050eb3f5c915b00c484f06d7565475c8" target="_top" xlink:title="corecvs::GenericQuaternion::x">
<polygon fill="none" stroke="black" points="426.5,-80.5 426.5,-101.5 587.5,-101.5 587.5,-80.5 426.5,-80.5"/>
<text text-anchor="middle" x="507" y="-88.5" font-family="FreeSans.ttf" font-size="10.00">corecvs::GenericQuaternion::x</text>
</a>
</g>
<!-- Node3&#45;&gt;Node4 -->
<g id="edge6" class="edge"><title>Node3&#45;&gt;Node4</title>
<path fill="none" stroke="midnightblue" d="M361.022,-61.5095C386.727,-66.7023 417.931,-73.0064 444.882,-78.4508"/>
<polygon fill="midnightblue" stroke="midnightblue" points="444.487,-81.9417 454.982,-80.4913 445.873,-75.0803 444.487,-81.9417"/>
</g>
<!-- Node5 -->
<g id="node9" class="node"><title>Node5</title>
<a xlink:href="classcorecvs_1_1GenericQuaternion.html#a700b900b3421d779243e9fba7db5b3b0" target="_top" xlink:title="corecvs::GenericQuaternion::y">
<polygon fill="none" stroke="black" points="426.5,-40.5 426.5,-61.5 587.5,-61.5 587.5,-40.5 426.5,-40.5"/>
<text text-anchor="middle" x="507" y="-48.5" font-family="FreeSans.ttf" font-size="10.00">corecvs::GenericQuaternion::y</text>
</a>
</g>
<!-- Node3&#45;&gt;Node5 -->
<g id="edge8" class="edge"><title>Node3&#45;&gt;Node5</title>
<path fill="none" stroke="midnightblue" d="M389.534,-51C398.23,-51 407.123,-51 415.931,-51"/>
<polygon fill="midnightblue" stroke="midnightblue" points="416.216,-54.5001 426.216,-51 416.216,-47.5001 416.216,-54.5001"/>
</g>
<!-- Node6 -->
<g id="node11" class="node"><title>Node6</title>
<a xlink:href="classcorecvs_1_1GenericQuaternion.html#a276bb5600f5b8111a459b85aad641d6d" target="_top" xlink:title="corecvs::GenericQuaternion::z">
<polygon fill="none" stroke="black" points="426.5,-0.5 426.5,-21.5 587.5,-21.5 587.5,-0.5 426.5,-0.5"/>
<text text-anchor="middle" x="507" y="-8.5" font-family="FreeSans.ttf" font-size="10.00">corecvs::GenericQuaternion::z</text>
</a>
</g>
<!-- Node3&#45;&gt;Node6 -->
<g id="edge10" class="edge"><title>Node3&#45;&gt;Node6</title>
<path fill="none" stroke="midnightblue" d="M361.022,-40.4905C386.727,-35.2977 417.931,-28.9936 444.882,-23.5492"/>
<polygon fill="midnightblue" stroke="midnightblue" points="445.873,-26.9197 454.982,-21.5087 444.487,-20.0583 445.873,-26.9197"/>
</g>
</g>
</svg>
        <g id="navigator" transform="translate(0 0)" fill="#404254">
                <rect fill="#f2f5e9" fill-opacity="0.5" stroke="#606060" stroke-width=".5" x="0" y="0" width="60" height="60"/>
                <use id="zoomplus" xlink:href="#zoomPlus" x="17" y="9" onmousedown="handleZoom(evt,'in')"/>
                <use id="zoomminus" xlink:href="#zoomMin" x="42" y="9" onmousedown="handleZoom(evt,'out')"/>
                <use id="reset" xlink:href="#resetDef" x="30" y="36" onmousedown="handleReset()"/>
                <g id="arrowUp" xlink:href="#dirArrow" transform="translate(30 24)" onmousedown="handlePan(0,-1)">
                  <use xlink:href="#rim" fill="#404040">
                        <set attributeName="fill" to="#808080" begin="arrowUp.mouseover" end="arrowUp.mouseout"/>
                  </use>
                  <path fill="none" stroke="white" stroke-width="1.5" d="M0,-3.0v7 M-2.5,-0.5L0,-3.0L2.5,-0.5"/>
                </g>
                <g id="arrowRight" xlink:href="#dirArrow" transform="rotate(90) translate(36 -43)" onmousedown="handlePan(1,0)">
                  <use xlink:href="#rim" fill="#404040">
                        <set attributeName="fill" to="#808080" begin="arrowRight.mouseover" end="arrowRight.mouseout"/>
                  </use>
                  <path fill="none" stroke="white" stroke-width="1.5" d="M0,-3.0v7 M-2.5,-0.5L0,-3.0L2.5,-0.5"/>
                </g>
                <g id="arrowDown" xlink:href="#dirArrow" transform="rotate(180) translate(-30 -48)" onmousedown="handlePan(0,1)">
                  <use xlink:href="#rim" fill="#404040">
                        <set attributeName="fill" to="#808080" begin="arrowDown.mouseover" end="arrowDown.mouseout"/>
                  </use>
                  <path fill="none" stroke="white" stroke-width="1.5" d="M0,-3.0v7 M-2.5,-0.5L0,-3.0L2.5,-0.5"/>
                </g>
                <g id="arrowLeft" xlink:href="#dirArrow" transform="rotate(270) translate(-36 17)" onmousedown="handlePan(-1,0)">
                  <use xlink:href="#rim" fill="#404040">
                        <set attributeName="fill" to="#808080" begin="arrowLeft.mouseover" end="arrowLeft.mouseout"/>
                  </use>
                  <path fill="none" stroke="white" stroke-width="1.5" d="M0,-3.0v7 M-2.5,-0.5L0,-3.0L2.5,-0.5"/>
                </g>
        </g>
</svg>
