<?xml version="1.0" encoding="UTF-8" standalone="no"?>
<!DOCTYPE svg PUBLIC "-//W3C//DTD SVG 1.1//EN"
 "http://www.w3.org/Graphics/SVG/1.1/DTD/svg11.dtd">
<!-- Generated by graphviz version 2.26.3 (20100126.1600)
 -->
<!-- Title: G Pages: 1 -->
<svg width="414pt" height="258pt"
 viewBox="0.00 0.00 414.00 258.00" xmlns="http://www.w3.org/2000/svg" xmlns:xlink="http://www.w3.org/1999/xlink">
<g id="graph1" class="graph" transform="scale(1 1) rotate(0) translate(4 254)">
<title>G</title>
<!-- Node1 -->
<g id="node1" class="node"><title>Node1</title>
<polygon fill="#bfbfbf" stroke="black" points="184.5,-0.5 184.5,-21.5 363.5,-21.5 363.5,-0.5 184.5,-0.5"/>
<text text-anchor="middle" x="274" y="-8.5" font-family="FreeSans.ttf" font-size="10.00">corecvs::PropertyListReaderVisitor</text>
</g>
<!-- Node2 -->
<g id="node2" class="node"><title>Node2</title>
<a xlink:href="classcorecvs_1_1BasePathVisitor.html" target="_top" xlink:title="Base class for visitors that iterate over the hierarchy of types.">
<polygon fill="none" stroke="black" points="122,-72.5 122,-93.5 256,-93.5 256,-72.5 122,-72.5"/>
<text text-anchor="middle" x="189" y="-80.5" font-family="FreeSans.ttf" font-size="10.00">corecvs::BasePathVisitor</text>
</a>
</g>
<!-- Node2&#45;&gt;Node1 -->
<g id="edge2" class="edge"><title>Node2&#45;&gt;Node1</title>
<path fill="none" stroke="midnightblue" d="M209.391,-65.7275C225.58,-52.0146 247.7,-33.2774 261.407,-21.6674"/>
<polygon fill="midnightblue" stroke="midnightblue" points="206.91,-63.242 201.542,-72.3762 211.435,-68.5833 206.91,-63.242"/>
</g>
<!-- Node3 -->
<g id="node4" class="node"><title>Node3</title>
<a xlink:title="STL class.">
<polygon fill="none" stroke="#bfbfbf" points="129.5,-156.5 129.5,-177.5 246.5,-177.5 246.5,-156.5 129.5,-156.5"/>
<text text-anchor="middle" x="188" y="-164.5" font-family="FreeSans.ttf" font-size="10.00">std::deque&lt; string &gt;</text>
</a>
</g>
<!-- Node3&#45;&gt;Node2 -->
<g id="edge4" class="edge"><title>Node3&#45;&gt;Node2</title>
<path fill="none" stroke="midnightblue" d="M188.251,-145.945C188.449,-129.257 188.719,-106.639 188.874,-93.5523"/>
<polygon fill="midnightblue" stroke="midnightblue" points="184.746,-146.32 188.127,-156.361 191.746,-146.404 184.746,-146.32"/>
</g>
<!-- Node4 -->
<g id="node6" class="node"><title>Node4</title>
<polygon fill="none" stroke="#bfbfbf" points="210.5,-228.5 210.5,-249.5 239.5,-249.5 239.5,-228.5 210.5,-228.5"/>
<text text-anchor="middle" x="225" y="-236.5" font-family="FreeSans.ttf" font-size="10.00">T</text>
</g>
<!-- Node4&#45;&gt;Node3 -->
<g id="edge6" class="edge"><title>Node4&#45;&gt;Node3</title>
<path fill="none" stroke="#9a32cd" stroke-dasharray="5,2" d="M202.192,-223.998C197.757,-219.99 193.664,-215.282 191,-210 185.945,-199.977 185.784,-186.937 186.517,-177.857"/>
<polygon fill="#9a32cd" stroke="#9a32cd" points="200.297,-226.962 210.309,-230.428 204.644,-221.475 200.297,-226.962"/>
<text text-anchor="middle" x="215.5" y="-200.5" font-family="FreeSans.ttf" font-size="10.00"> elements</text>
</g>
<!-- Node8 -->
<g id="node14" class="node"><title>Node8</title>
<a xlink:title="STL class.">
<polygon fill="none" stroke="#bfbfbf" points="264,-156.5 264,-177.5 406,-177.5 406,-156.5 264,-156.5"/>
<text text-anchor="middle" x="335" y="-164.5" font-family="FreeSans.ttf" font-size="10.00">std::map&lt; string, string &gt;</text>
</a>
</g>
<!-- Node4&#45;&gt;Node8 -->
<g id="edge18" class="edge"><title>Node4&#45;&gt;Node8</title>
<path fill="none" stroke="#9a32cd" stroke-dasharray="5,2" d="M246.339,-221.734C256.823,-213.558 269.798,-203.881 282,-196 292.22,-189.399 304.061,-182.825 313.954,-177.61"/>
<polygon fill="#9a32cd" stroke="#9a32cd" points="243.864,-219.229 238.191,-228.177 248.206,-224.72 243.864,-219.229"/>
<text text-anchor="middle" x="306.5" y="-200.5" font-family="FreeSans.ttf" font-size="10.00"> elements</text>
</g>
<!-- Node5 -->
<g id="node8" class="node"><title>Node5</title>
<a xlink:title="STL class.">
<polygon fill="none" stroke="#bfbfbf" points="36.5,-156.5 36.5,-177.5 101.5,-177.5 101.5,-156.5 36.5,-156.5"/>
<text text-anchor="middle" x="69" y="-164.5" font-family="FreeSans.ttf" font-size="10.00">std::string</text>
</a>
</g>
<!-- Node5&#45;&gt;Node2 -->
<g id="edge8" class="edge"><title>Node5&#45;&gt;Node2</title>
<path fill="none" stroke="#9a32cd" stroke-dasharray="5,2" d="M67.68,-146.155C68.0917,-134.722 70.61,-121.071 79,-112 85.9735,-104.461 105.435,-98.261 126.088,-93.5567"/>
<polygon fill="#9a32cd" stroke="#9a32cd" points="64.181,-146.259 67.8078,-156.214 71.1804,-146.17 64.181,-146.259"/>
<text text-anchor="middle" x="131.5" y="-129" font-family="FreeSans.ttf" font-size="10.00"> SEPARATOR_DEFAULT</text>
<text text-anchor="middle" x="131.5" y="-116" font-family="FreeSans.ttf" font-size="10.00">separator</text>
</g>
<!-- Node6 -->
<g id="node10" class="node"><title>Node6</title>
<a xlink:title="STL class.">
<polygon fill="none" stroke="#bfbfbf" points="0,-228.5 0,-249.5 138,-249.5 138,-228.5 0,-228.5"/>
<text text-anchor="middle" x="69" y="-236.5" font-family="FreeSans.ttf" font-size="10.00">std::basic_string&lt; char &gt;</text>
</a>
</g>
<!-- Node6&#45;&gt;Node5 -->
<g id="edge10" class="edge"><title>Node6&#45;&gt;Node5</title>
<path fill="none" stroke="midnightblue" d="M69,-218.235C69,-204.969 69,-188.319 69,-177.667"/>
<polygon fill="midnightblue" stroke="midnightblue" points="65.5001,-218.376 69,-228.376 72.5001,-218.376 65.5001,-218.376"/>
</g>
<!-- Node7 -->
<g id="node12" class="node"><title>Node7</title>
<a xlink:href="classcorecvs_1_1PropertyList.html" target="_top" xlink:title="corecvs::PropertyList">
<polygon fill="none" stroke="black" points="274,-72.5 274,-93.5 390,-93.5 390,-72.5 274,-72.5"/>
<text text-anchor="middle" x="332" y="-80.5" font-family="FreeSans.ttf" font-size="10.00">corecvs::PropertyList</text>
</a>
</g>
<!-- Node7&#45;&gt;Node1 -->
<g id="edge12" class="edge"><title>Node7&#45;&gt;Node1</title>
<path fill="none" stroke="#9a32cd" stroke-dasharray="5,2" d="M317.165,-64.5841C306.213,-50.9886 291.688,-32.9579 282.593,-21.6674"/>
<polygon fill="#9a32cd" stroke="#9a32cd" points="314.443,-66.7843 323.442,-72.3762 319.894,-62.3929 314.443,-66.7843"/>
<text text-anchor="middle" x="322" y="-44.5" font-family="FreeSans.ttf" font-size="10.00"> input</text>
</g>
<!-- Node8&#45;&gt;Node7 -->
<g id="edge14" class="edge"><title>Node8&#45;&gt;Node7</title>
<path fill="none" stroke="midnightblue" d="M334.248,-145.945C333.652,-129.257 332.844,-106.639 332.377,-93.5523"/>
<polygon fill="midnightblue" stroke="midnightblue" points="330.765,-146.493 334.62,-156.361 337.761,-146.243 330.765,-146.493"/>
</g>
<!-- Node9 -->
<g id="node16" class="node"><title>Node9</title>
<polygon fill="none" stroke="#bfbfbf" points="320.5,-228.5 320.5,-249.5 349.5,-249.5 349.5,-228.5 320.5,-228.5"/>
<text text-anchor="middle" x="335" y="-236.5" font-family="FreeSans.ttf" font-size="10.00">K</text>
</g>
<!-- Node9&#45;&gt;Node8 -->
<g id="edge16" class="edge"><title>Node9&#45;&gt;Node8</title>
<path fill="none" stroke="#9a32cd" stroke-dasharray="5,2" d="M335,-218.235C335,-204.969 335,-188.319 335,-177.667"/>
<polygon fill="#9a32cd" stroke="#9a32cd" points="331.5,-218.376 335,-228.376 338.5,-218.376 331.5,-218.376"/>
<text text-anchor="middle" x="347.5" y="-200.5" font-family="FreeSans.ttf" font-size="10.00"> keys</text>
</g>
</g>
</svg>
