<?xml version="1.0" encoding="UTF-8" standalone="no"?>
<!DOCTYPE svg PUBLIC "-//W3C//DTD SVG 1.1//EN"
 "http://www.w3.org/Graphics/SVG/1.1/DTD/svg11.dtd">
<!-- Generated by graphviz version 2.26.3 (20100126.1600)
 -->
<!-- Title: G Pages: 1 -->
<!--zoomable 270 -->
<svg id="main" version="1.1" xmlns="http://www.w3.org/2000/svg" xmlns:xlink="http://www.w3.org/1999/xlink" xml:space="preserve" onload="init(evt)">
        <defs>
                <circle id="rim" cx="0" cy="0" r="7"/>
                <circle id="rim2" cx="0" cy="0" r="3.5"/>
                <g id="zoomPlus">
                        <use xlink:href="#rim" fill="#404040">
                                <set attributeName="fill" to="#808080" begin="zoomplus.mouseover" end="zoomplus.mouseout"/>
                        </use>
                        <path d="M-4,0h8M0,-4v8" fill="none" stroke="white" stroke-width="1.5" pointer-events="none"/>
                </g>
                <g id="zoomMin">
                        <use xlink:href="#rim" fill="#404040">
                                <set attributeName="fill" to="#808080" begin="zoomminus.mouseover" end="zoomminus.mouseout"/>
                        </use>
                        <path d="M-4,0h8" fill="none" stroke="white" stroke-width="1.5" pointer-events="none"/>
                </g>
                <g id="dirArrow">
                        <path fill="none" stroke="white" stroke-width="1.5" d="M0,-3.0v7 M-2.5,-0.5L0,-3.0L2.5,-0.5"/>
                </g>
               <g id="resetDef">
                       <use xlink:href="#rim2" fill="#404040">
                               <set attributeName="fill" to="#808080" begin="reset.mouseover" end="reset.mouseout"/>
                       </use>
               </g>
        </defs>

<script type="text/javascript">
var viewWidth = 1072;
var viewHeight = 270;
var sectionId = 'dynsection-1';
</script>
<script xlink:href="svgpan.js"/>
<svg id="graph" class="graph">
<g id="viewport">
<title>G</title>
<!-- Node1 -->
<g id="node1" class="node"><title>Node1</title>
<polygon fill="#bfbfbf" stroke="black" points="0,-130.5 0,-151.5 176,-151.5 176,-130.5 0,-130.5"/>
<text text-anchor="middle" x="88" y="-138.5" font-family="FreeSans.ttf" font-size="10.00">corecvs::StereoAligner::getBestZ</text>
</g>
<!-- Node2 -->
<g id="node3" class="node"><title>Node2</title>
<a xlink:href="classcorecvs_1_1StereoAligner.html#aa3dd0c4493aae3c1b23fc953c3b8bbb7" target="_top" xlink:title="corecvs::StereoAligner::getDistortion">
<polygon fill="none" stroke="black" points="216.5,-180.5 216.5,-201.5 409.5,-201.5 409.5,-180.5 216.5,-180.5"/>
<text text-anchor="middle" x="313" y="-188.5" font-family="FreeSans.ttf" font-size="10.00">corecvs::StereoAligner::getDistortion</text>
</a>
</g>
<!-- Node1&#45;&gt;Node2 -->
<g id="edge2" class="edge"><title>Node1&#45;&gt;Node2</title>
<path fill="none" stroke="midnightblue" d="M135.442,-151.543C170.443,-159.321 218.246,-169.944 255.435,-178.208"/>
<polygon fill="midnightblue" stroke="midnightblue" points="255.102,-181.719 265.623,-180.472 256.621,-174.886 255.102,-181.719"/>
</g>
<!-- Node10 -->
<g id="node19" class="node"><title>Node10</title>
<a xlink:href="classcorecvs_1_1Vector3d.html#a2b48cba4c11c3054b50523ce83cfffa9" target="_top" xlink:title="Add xy(), yz() and other sub&#45;methods.">
<polygon fill="none" stroke="black" points="212,-130.5 212,-151.5 414,-151.5 414,-130.5 212,-130.5"/>
<text text-anchor="middle" x="313" y="-138.5" font-family="FreeSans.ttf" font-size="10.00">corecvs::Vector3d::normalizeProjective</text>
</a>
</g>
<!-- Node1&#45;&gt;Node10 -->
<g id="edge18" class="edge"><title>Node1&#45;&gt;Node10</title>
<path fill="none" stroke="midnightblue" d="M176.28,-141C184.687,-141 193.283,-141 201.868,-141"/>
<polygon fill="midnightblue" stroke="midnightblue" points="201.929,-144.5 211.929,-141 201.929,-137.5 201.929,-144.5"/>
</g>
<!-- Node11 -->
<g id="node21" class="node"><title>Node11</title>
<a xlink:href="classcorecvs_1_1EssentialMatrix.html#a79d5938b0f4cbcd9607a2f1d1467718b" target="_top" xlink:title="Calculating vectors for left and right nullspaces of the 3 by 3 matrix of rank 2.">
<polygon fill="none" stroke="black" points="219,-80.5 219,-101.5 407,-101.5 407,-80.5 219,-80.5"/>
<text text-anchor="middle" x="313" y="-88.5" font-family="FreeSans.ttf" font-size="10.00">corecvs::EssentialMatrix::nullspaces</text>
</a>
</g>
<!-- Node1&#45;&gt;Node11 -->
<g id="edge20" class="edge"><title>Node1&#45;&gt;Node11</title>
<path fill="none" stroke="midnightblue" d="M135.442,-130.457C170.443,-122.679 218.246,-112.056 255.435,-103.792"/>
<polygon fill="midnightblue" stroke="midnightblue" points="256.621,-107.114 265.623,-101.528 255.102,-100.281 256.621,-107.114"/>
</g>
<!-- Node3 -->
<g id="node5" class="node"><title>Node3</title>
<a xlink:href="classcorecvs_1_1Vector2d.html#ae1ea2ad4c0821001408bf963cffa8413" target="_top" xlink:title="corecvs::Vector2d::y">
<polygon fill="none" stroke="black" points="483.5,-240.5 483.5,-261.5 596.5,-261.5 596.5,-240.5 483.5,-240.5"/>
<text text-anchor="middle" x="540" y="-248.5" font-family="FreeSans.ttf" font-size="10.00">corecvs::Vector2d::y</text>
</a>
</g>
<!-- Node2&#45;&gt;Node3 -->
<g id="edge4" class="edge"><title>Node2&#45;&gt;Node3</title>
<path fill="none" stroke="midnightblue" d="M346.892,-201.566C374.514,-210.015 414.601,-221.91 450,-231 459.651,-233.478 469.93,-235.934 479.96,-238.231"/>
<polygon fill="midnightblue" stroke="midnightblue" points="479.351,-241.682 489.876,-240.471 480.893,-234.854 479.351,-241.682"/>
</g>
<!-- Node4 -->
<g id="node7" class="node"><title>Node4</title>
<a xlink:href="classcorecvs_1_1Vector2d.html#a944721c41f044c1388d9dc42ca899bce" target="_top" xlink:title="corecvs::Vector2d::x">
<polygon fill="none" stroke="black" points="483.5,-200.5 483.5,-221.5 596.5,-221.5 596.5,-200.5 483.5,-200.5"/>
<text text-anchor="middle" x="540" y="-208.5" font-family="FreeSans.ttf" font-size="10.00">corecvs::Vector2d::x</text>
</a>
</g>
<!-- Node2&#45;&gt;Node4 -->
<g id="edge6" class="edge"><title>Node2&#45;&gt;Node4</title>
<path fill="none" stroke="midnightblue" d="M409.598,-199.511C430.971,-201.394 453.163,-203.349 473.049,-205.101"/>
<polygon fill="midnightblue" stroke="midnightblue" points="472.953,-208.606 483.222,-205.998 473.567,-201.633 472.953,-208.606"/>
</g>
<!-- Node5 -->
<g id="node9" class="node"><title>Node5</title>
<a xlink:href="classcorecvs_1_1Matrix33.html#aff1f6646e390e773b8c0dfcadb174330" target="_top" xlink:title="This function returns a matrix constucted as a product of two vectors .">
<polygon fill="none" stroke="black" points="450,-160.5 450,-181.5 630,-181.5 630,-160.5 450,-160.5"/>
<text text-anchor="middle" x="540" y="-168.5" font-family="FreeSans.ttf" font-size="10.00">corecvs::Matrix33::VectorByVector</text>
</a>
</g>
<!-- Node2&#45;&gt;Node5 -->
<g id="edge8" class="edge"><title>Node2&#45;&gt;Node5</title>
<path fill="none" stroke="midnightblue" d="M409.598,-182.489C419.643,-181.604 429.87,-180.703 439.953,-179.815"/>
<polygon fill="midnightblue" stroke="midnightblue" points="440.322,-183.296 449.976,-178.932 439.707,-176.323 440.322,-183.296"/>
</g>
<!-- Node6 -->
<g id="node11" class="node"><title>Node6</title>
<a xlink:href="classcorecvs_1_1Matrix33.html#a47c909b671a7ae90b386b56c8706d3a5" target="_top" xlink:title="corecvs::Matrix33::Matrix33">
<polygon fill="none" stroke="black" points="686,-240.5 686,-261.5 834,-261.5 834,-240.5 686,-240.5"/>
<text text-anchor="middle" x="760" y="-248.5" font-family="FreeSans.ttf" font-size="10.00">corecvs::Matrix33::Matrix33</text>
</a>
</g>
<!-- Node5&#45;&gt;Node6 -->
<g id="edge10" class="edge"><title>Node5&#45;&gt;Node6</title>
<path fill="none" stroke="midnightblue" d="M609.022,-181.642C616.358,-184.134 623.503,-187.208 630,-191 650.656,-203.057 645.289,-219.037 666,-231 669.738,-233.159 673.681,-235.087 677.749,-236.806"/>
<polygon fill="midnightblue" stroke="midnightblue" points="676.839,-240.204 687.431,-240.455 679.307,-233.653 676.839,-240.204"/>
</g>
<!-- Node7 -->
<g id="node13" class="node"><title>Node7</title>
<a xlink:href="classcorecvs_1_1Vector3d.html#aec83d9ad04107cd9c2bb11abf33128c0" target="_top" xlink:title="Helper functions to access elements.">
<polygon fill="none" stroke="black" points="703.5,-200.5 703.5,-221.5 816.5,-221.5 816.5,-200.5 703.5,-200.5"/>
<text text-anchor="middle" x="760" y="-208.5" font-family="FreeSans.ttf" font-size="10.00">corecvs::Vector3d::x</text>
</a>
</g>
<!-- Node5&#45;&gt;Node7 -->
<g id="edge12" class="edge"><title>Node5&#45;&gt;Node7</title>
<path fill="none" stroke="midnightblue" d="M597.802,-181.51C627.083,-186.833 662.788,-193.325 693.237,-198.861"/>
<polygon fill="midnightblue" stroke="midnightblue" points="692.88,-202.354 703.345,-200.699 694.132,-195.467 692.88,-202.354"/>
</g>
<!-- Node8 -->
<g id="node15" class="node"><title>Node8</title>
<a xlink:href="classcorecvs_1_1Vector3d.html#a940d88447f20fac800d1fa510c981275" target="_top" xlink:title="corecvs::Vector3d::y">
<polygon fill="none" stroke="black" points="703.5,-160.5 703.5,-181.5 816.5,-181.5 816.5,-160.5 703.5,-160.5"/>
<text text-anchor="middle" x="760" y="-168.5" font-family="FreeSans.ttf" font-size="10.00">corecvs::Vector3d::y</text>
</a>
</g>
<!-- Node5&#45;&gt;Node8 -->
<g id="edge14" class="edge"><title>Node5&#45;&gt;Node8</title>
<path fill="none" stroke="midnightblue" d="M630.117,-171C651.237,-171 673.368,-171 693.255,-171"/>
<polygon fill="midnightblue" stroke="midnightblue" points="693.433,-174.5 703.433,-171 693.433,-167.5 693.433,-174.5"/>
</g>
<!-- Node9 -->
<g id="node17" class="node"><title>Node9</title>
<a xlink:href="classcorecvs_1_1Vector3d.html#a4587f5d4984576c5c4c2d44a4140ce3f" target="_top" xlink:title="corecvs::Vector3d::z">
<polygon fill="none" stroke="black" points="703.5,-120.5 703.5,-141.5 816.5,-141.5 816.5,-120.5 703.5,-120.5"/>
<text text-anchor="middle" x="760" y="-128.5" font-family="FreeSans.ttf" font-size="10.00">corecvs::Vector3d::z</text>
</a>
</g>
<!-- Node5&#45;&gt;Node9 -->
<g id="edge16" class="edge"><title>Node5&#45;&gt;Node9</title>
<path fill="none" stroke="midnightblue" d="M597.802,-160.49C627.083,-155.167 662.788,-148.675 693.237,-143.139"/>
<polygon fill="midnightblue" stroke="midnightblue" points="694.132,-146.533 703.345,-141.301 692.88,-139.646 694.132,-146.533"/>
</g>
<!-- Node12 -->
<g id="node23" class="node"><title>Node12</title>
<a xlink:href="classcorecvs_1_1Matrix33.html#a717477dcc9fb84648c3c351275cfb5f2" target="_top" xlink:title="Get the i&#45;th column vector.">
<polygon fill="none" stroke="black" points="479.5,-80.5 479.5,-101.5 600.5,-101.5 600.5,-80.5 479.5,-80.5"/>
<text text-anchor="middle" x="540" y="-88.5" font-family="FreeSans.ttf" font-size="10.00">corecvs::Matrix33::aW</text>
</a>
</g>
<!-- Node11&#45;&gt;Node12 -->
<g id="edge22" class="edge"><title>Node11&#45;&gt;Node12</title>
<path fill="none" stroke="midnightblue" d="M407.296,-91C428.043,-91 449.67,-91 469.298,-91"/>
<polygon fill="midnightblue" stroke="midnightblue" points="469.364,-94.5001 479.364,-91 469.364,-87.5001 469.364,-94.5001"/>
</g>
<!-- Node14 -->
<g id="node27" class="node"><title>Node14</title>
<a xlink:href="classcorecvs_1_1Matrix.html#ab00a85b071aab144f3a2860189150e7f" target="_top" xlink:title="This method contains SVD implementation.">
<polygon fill="none" stroke="black" points="484.5,-40.5 484.5,-61.5 595.5,-61.5 595.5,-40.5 484.5,-40.5"/>
<text text-anchor="middle" x="540" y="-48.5" font-family="FreeSans.ttf" font-size="10.00">corecvs::Matrix::svd</text>
</a>
</g>
<!-- Node11&#45;&gt;Node14 -->
<g id="edge26" class="edge"><title>Node11&#45;&gt;Node14</title>
<path fill="none" stroke="midnightblue" d="M372.642,-80.4905C403.815,-74.9973 442.046,-68.2606 474.094,-62.6134"/>
<polygon fill="midnightblue" stroke="midnightblue" points="475.024,-66.0035 484.265,-60.8211 473.809,-59.1097 475.024,-66.0035"/>
</g>
<!-- Node13 -->
<g id="node25" class="node"><title>Node13</title>
<a xlink:href="classcorecvs_1_1Matrix33.html#a8596ffc77b92da2876c22900c02e9bec" target="_top" xlink:title="Geting Matrix element functions block.">
<polygon fill="none" stroke="black" points="703.5,-80.5 703.5,-101.5 816.5,-101.5 816.5,-80.5 703.5,-80.5"/>
<text text-anchor="middle" x="760" y="-88.5" font-family="FreeSans.ttf" font-size="10.00">corecvs::Matrix33::a</text>
</a>
</g>
<!-- Node12&#45;&gt;Node13 -->
<g id="edge24" class="edge"><title>Node12&#45;&gt;Node13</title>
<path fill="none" stroke="midnightblue" d="M600.698,-91C629.369,-91 663.673,-91 693.092,-91"/>
<polygon fill="midnightblue" stroke="midnightblue" points="693.278,-94.5001 703.278,-91 693.277,-87.5001 693.278,-94.5001"/>
</g>
<!-- Node15 -->
<g id="node29" class="node"><title>Node15</title>
<a xlink:href="classcorecvs_1_1Matrix.html#a5b8b00c8bfc66549652e6c0610457254" target="_top" xlink:title="The element getter for a matrix that is used like vector (i.e has height or width of 1)...">
<polygon fill="none" stroke="black" points="709.5,-40.5 709.5,-61.5 810.5,-61.5 810.5,-40.5 709.5,-40.5"/>
<text text-anchor="middle" x="760" y="-48.5" font-family="FreeSans.ttf" font-size="10.00">corecvs::Matrix::a</text>
</a>
</g>
<!-- Node14&#45;&gt;Node15 -->
<g id="edge28" class="edge"><title>Node14&#45;&gt;Node15</title>
<path fill="none" stroke="midnightblue" d="M595.515,-51C627.102,-51 666.707,-51 699.14,-51"/>
<polygon fill="midnightblue" stroke="midnightblue" points="699.398,-54.5001 709.398,-51 699.398,-47.5001 699.398,-54.5001"/>
</g>
<!-- Node17 -->
<g id="node33" class="node"><title>Node17</title>
<a xlink:href="classcorecvs_1_1Vector2d.html#ab49b551bd23cad02283d6506884bef72" target="_top" xlink:title="corecvs::Vector2d::getLengthStable">
<polygon fill="none" stroke="black" points="666,-0.5 666,-21.5 854,-21.5 854,-0.5 666,-0.5"/>
<text text-anchor="middle" x="760" y="-8.5" font-family="FreeSans.ttf" font-size="10.00">corecvs::Vector2d::getLengthStable</text>
</a>
</g>
<!-- Node14&#45;&gt;Node17 -->
<g id="edge32" class="edge"><title>Node14&#45;&gt;Node17</title>
<path fill="none" stroke="midnightblue" d="M595.515,-40.9063C624.92,-35.5601 661.273,-28.9504 692.32,-23.3055"/>
<polygon fill="midnightblue" stroke="midnightblue" points="692.985,-26.742 702.198,-21.5095 691.733,-19.8549 692.985,-26.742"/>
</g>
<!-- Node16 -->
<g id="node31" class="node"><title>Node16</title>
<a xlink:href="classcorecvs_1_1AbstractBuffer.html#a98f72526738a0c4ce8a0b72a3b5c28b9" target="_top" xlink:title="The element getter.">
<polygon fill="none" stroke="black" points="890,-40.5 890,-61.5 1064,-61.5 1064,-40.5 890,-40.5"/>
<text text-anchor="middle" x="977" y="-48.5" font-family="FreeSans.ttf" font-size="10.00">corecvs::AbstractBuffer::element</text>
</a>
</g>
<!-- Node15&#45;&gt;Node16 -->
<g id="edge30" class="edge"><title>Node15&#45;&gt;Node16</title>
<path fill="none" stroke="midnightblue" d="M810.603,-51C831.205,-51 855.745,-51 879.566,-51"/>
<polygon fill="midnightblue" stroke="midnightblue" points="879.717,-54.5001 889.717,-51 879.717,-47.5001 879.717,-54.5001"/>
</g>
</g>
</svg>
        <g id="navigator" transform="translate(0 0)" fill="#404254">
                <rect fill="#f2f5e9" fill-opacity="0.5" stroke="#606060" stroke-width=".5" x="0" y="0" width="60" height="60"/>
                <use id="zoomplus" xlink:href="#zoomPlus" x="17" y="9" onmousedown="handleZoom(evt,'in')"/>
                <use id="zoomminus" xlink:href="#zoomMin" x="42" y="9" onmousedown="handleZoom(evt,'out')"/>
                <use id="reset" xlink:href="#resetDef" x="30" y="36" onmousedown="handleReset()"/>
                <g id="arrowUp" xlink:href="#dirArrow" transform="translate(30 24)" onmousedown="handlePan(0,-1)">
                  <use xlink:href="#rim" fill="#404040">
                        <set attributeName="fill" to="#808080" begin="arrowUp.mouseover" end="arrowUp.mouseout"/>
                  </use>
                  <path fill="none" stroke="white" stroke-width="1.5" d="M0,-3.0v7 M-2.5,-0.5L0,-3.0L2.5,-0.5"/>
                </g>
                <g id="arrowRight" xlink:href="#dirArrow" transform="rotate(90) translate(36 -43)" onmousedown="handlePan(1,0)">
                  <use xlink:href="#rim" fill="#404040">
                        <set attributeName="fill" to="#808080" begin="arrowRight.mouseover" end="arrowRight.mouseout"/>
                  </use>
                  <path fill="none" stroke="white" stroke-width="1.5" d="M0,-3.0v7 M-2.5,-0.5L0,-3.0L2.5,-0.5"/>
                </g>
                <g id="arrowDown" xlink:href="#dirArrow" transform="rotate(180) translate(-30 -48)" onmousedown="handlePan(0,1)">
                  <use xlink:href="#rim" fill="#404040">
                        <set attributeName="fill" to="#808080" begin="arrowDown.mouseover" end="arrowDown.mouseout"/>
                  </use>
                  <path fill="none" stroke="white" stroke-width="1.5" d="M0,-3.0v7 M-2.5,-0.5L0,-3.0L2.5,-0.5"/>
                </g>
                <g id="arrowLeft" xlink:href="#dirArrow" transform="rotate(270) translate(-36 17)" onmousedown="handlePan(-1,0)">
                  <use xlink:href="#rim" fill="#404040">
                        <set attributeName="fill" to="#808080" begin="arrowLeft.mouseover" end="arrowLeft.mouseout"/>
                  </use>
                  <path fill="none" stroke="white" stroke-width="1.5" d="M0,-3.0v7 M-2.5,-0.5L0,-3.0L2.5,-0.5"/>
                </g>
        </g>
</svg>
