<?xml version="1.0" encoding="UTF-8" standalone="no"?>
<!DOCTYPE svg PUBLIC "-//W3C//DTD SVG 1.1//EN"
 "http://www.w3.org/Graphics/SVG/1.1/DTD/svg11.dtd">
<!-- Generated by graphviz version 2.26.3 (20100126.1600)
 -->
<!-- Title: G Pages: 1 -->
<svg width="334pt" height="70pt"
 viewBox="0.00 0.00 334.00 70.00" xmlns="http://www.w3.org/2000/svg" xmlns:xlink="http://www.w3.org/1999/xlink">
<g id="graph1" class="graph" transform="scale(1 1) rotate(0) translate(4 66)">
<title>G</title>
<!-- Node1 -->
<g id="node1" class="node"><title>Node1</title>
<polygon fill="#bfbfbf" stroke="black" points="0,-20.5 0,-41.5 130,-41.5 130,-20.5 0,-20.5"/>
<text text-anchor="middle" x="65" y="-28.5" font-family="FreeSans.ttf" font-size="10.00">DiagramScene::setFont</text>
</g>
<!-- Node2 -->
<g id="node3" class="node"><title>Node2</title>
<a xlink:href="classDiagramScene.html#a73367ec3d54a2a01c927b8f9432e3d45" target="_top" xlink:title="DiagramScene::font">
<polygon fill="none" stroke="black" points="189.5,-40.5 189.5,-61.5 302.5,-61.5 302.5,-40.5 189.5,-40.5"/>
<text text-anchor="middle" x="246" y="-48.5" font-family="FreeSans.ttf" font-size="10.00">DiagramScene::font</text>
</a>
</g>
<!-- Node1&#45;&gt;Node2 -->
<g id="edge2" class="edge"><title>Node1&#45;&gt;Node2</title>
<path fill="none" stroke="midnightblue" d="M130.089,-38.1922C145.969,-39.9468 162.984,-41.827 178.953,-43.5915"/>
<polygon fill="midnightblue" stroke="midnightblue" points="178.949,-47.1123 189.273,-44.7318 179.718,-40.1546 178.949,-47.1123"/>
</g>
<!-- Node3 -->
<g id="node5" class="node"><title>Node3</title>
<a xlink:href="classDiagramScene.html#a8ae0361f0924caa15923837d22e955a9" target="_top" xlink:title="DiagramScene::isItemChange">
<polygon fill="none" stroke="black" points="166,-0.5 166,-21.5 326,-21.5 326,-0.5 166,-0.5"/>
<text text-anchor="middle" x="246" y="-8.5" font-family="FreeSans.ttf" font-size="10.00">DiagramScene::isItemChange</text>
</a>
</g>
<!-- Node1&#45;&gt;Node3 -->
<g id="edge4" class="edge"><title>Node1&#45;&gt;Node3</title>
<path fill="none" stroke="midnightblue" d="M130.089,-23.8078C138.394,-22.8902 147.009,-21.9383 155.622,-20.9865"/>
<polygon fill="midnightblue" stroke="midnightblue" points="156.159,-24.4486 165.714,-19.8714 155.39,-17.4909 156.159,-24.4486"/>
</g>
</g>
</svg>
