<?xml version="1.0" encoding="UTF-8" standalone="no"?>
<!DOCTYPE svg PUBLIC "-//W3C//DTD SVG 1.1//EN"
 "http://www.w3.org/Graphics/SVG/1.1/DTD/svg11.dtd">
<!-- Generated by graphviz version 2.26.3 (20100126.1600)
 -->
<!-- Title: G Pages: 1 -->
<!--zoomable 90 -->
<svg id="main" version="1.1" xmlns="http://www.w3.org/2000/svg" xmlns:xlink="http://www.w3.org/1999/xlink" xml:space="preserve" onload="init(evt)">
        <defs>
                <circle id="rim" cx="0" cy="0" r="7"/>
                <circle id="rim2" cx="0" cy="0" r="3.5"/>
                <g id="zoomPlus">
                        <use xlink:href="#rim" fill="#404040">
                                <set attributeName="fill" to="#808080" begin="zoomplus.mouseover" end="zoomplus.mouseout"/>
                        </use>
                        <path d="M-4,0h8M0,-4v8" fill="none" stroke="white" stroke-width="1.5" pointer-events="none"/>
                </g>
                <g id="zoomMin">
                        <use xlink:href="#rim" fill="#404040">
                                <set attributeName="fill" to="#808080" begin="zoomminus.mouseover" end="zoomminus.mouseout"/>
                        </use>
                        <path d="M-4,0h8" fill="none" stroke="white" stroke-width="1.5" pointer-events="none"/>
                </g>
                <g id="dirArrow">
                        <path fill="none" stroke="white" stroke-width="1.5" d="M0,-3.0v7 M-2.5,-0.5L0,-3.0L2.5,-0.5"/>
                </g>
               <g id="resetDef">
                       <use xlink:href="#rim2" fill="#404040">
                               <set attributeName="fill" to="#808080" begin="reset.mouseover" end="reset.mouseout"/>
                       </use>
               </g>
        </defs>

<script type="text/javascript">
var viewWidth = 778;
var viewHeight = 90;
var sectionId = 'dynsection-21';
</script>
<script xlink:href="svgpan.js"/>
<svg id="graph" class="graph">
<g id="viewport">
<title>G</title>
<!-- Node1 -->
<g id="node1" class="node"><title>Node1</title>
<polygon fill="#bfbfbf" stroke="black" points="0.5,-40.5 0.5,-61.5 203.5,-61.5 203.5,-40.5 0.5,-40.5"/>
<text text-anchor="middle" x="102" y="-48.5" font-family="FreeSans.ttf" font-size="10.00">tinyxml2::XMLDocument::NewUnknown</text>
</g>
<!-- Node2 -->
<g id="node3" class="node"><title>Node2</title>
<a xlink:href="classtinyxml2_1_1MemPoolT.html#aa9d785a48ffe6ea1be679bab13464486" target="_top" xlink:title="tinyxml2::MemPoolT::Alloc">
<polygon fill="none" stroke="black" points="249,-60.5 249,-81.5 389,-81.5 389,-60.5 249,-60.5"/>
<text text-anchor="middle" x="319" y="-68.5" font-family="FreeSans.ttf" font-size="10.00">tinyxml2::MemPoolT::Alloc</text>
</a>
</g>
<!-- Node1&#45;&gt;Node2 -->
<g id="edge2" class="edge"><title>Node1&#45;&gt;Node2</title>
<path fill="none" stroke="midnightblue" d="M203.511,-60.3559C215.37,-61.4488 227.34,-62.5521 238.853,-63.6132"/>
<polygon fill="midnightblue" stroke="midnightblue" points="238.559,-67.1008 248.838,-64.5334 239.201,-60.1303 238.559,-67.1008"/>
</g>
<!-- Node3 -->
<g id="node5" class="node"><title>Node3</title>
<a xlink:href="classtinyxml2_1_1XMLNode.html#a09dd68cf9eae137579f6e50f36487513" target="_top" xlink:title="Set the Value of an XML node.">
<polygon fill="none" stroke="black" points="240.5,-20.5 240.5,-41.5 397.5,-41.5 397.5,-20.5 240.5,-20.5"/>
<text text-anchor="middle" x="319" y="-28.5" font-family="FreeSans.ttf" font-size="10.00">tinyxml2::XMLNode::SetValue</text>
</a>
</g>
<!-- Node1&#45;&gt;Node3 -->
<g id="edge4" class="edge"><title>Node1&#45;&gt;Node3</title>
<path fill="none" stroke="midnightblue" d="M203.511,-41.6441C212.391,-40.8257 221.333,-40.0016 230.099,-39.1937"/>
<polygon fill="midnightblue" stroke="midnightblue" points="230.657,-42.6571 240.294,-38.254 230.015,-35.6867 230.657,-42.6571"/>
</g>
<!-- Node4 -->
<g id="node7" class="node"><title>Node4</title>
<a xlink:href="classtinyxml2_1_1StrPair.html#a2baf6230e18333e02ab65d0897ee3941" target="_top" xlink:title="tinyxml2::StrPair::SetInternedStr">
<polygon fill="none" stroke="black" points="434.5,-40.5 434.5,-61.5 605.5,-61.5 605.5,-40.5 434.5,-40.5"/>
<text text-anchor="middle" x="520" y="-48.5" font-family="FreeSans.ttf" font-size="10.00">tinyxml2::StrPair::SetInternedStr</text>
</a>
</g>
<!-- Node3&#45;&gt;Node4 -->
<g id="edge6" class="edge"><title>Node3&#45;&gt;Node4</title>
<path fill="none" stroke="midnightblue" d="M397.575,-38.8185C406.375,-39.6941 415.411,-40.5931 424.394,-41.487"/>
<polygon fill="midnightblue" stroke="midnightblue" points="424.202,-44.9851 434.499,-42.4925 424.895,-38.0195 424.202,-44.9851"/>
</g>
<!-- Node6 -->
<g id="node11" class="node"><title>Node6</title>
<a xlink:href="classtinyxml2_1_1StrPair.html#a1f82ec6b5bee35ee7466d8565e43b1de" target="_top" xlink:title="tinyxml2::StrPair::SetStr">
<polygon fill="none" stroke="black" points="454.5,-0.5 454.5,-21.5 585.5,-21.5 585.5,-0.5 454.5,-0.5"/>
<text text-anchor="middle" x="520" y="-8.5" font-family="FreeSans.ttf" font-size="10.00">tinyxml2::StrPair::SetStr</text>
</a>
</g>
<!-- Node3&#45;&gt;Node6 -->
<g id="edge10" class="edge"><title>Node3&#45;&gt;Node6</title>
<path fill="none" stroke="midnightblue" d="M397.575,-23.1815C412.873,-21.6594 428.884,-20.0663 444.094,-18.5529"/>
<polygon fill="midnightblue" stroke="midnightblue" points="444.872,-21.9927 454.477,-17.5197 444.179,-15.0271 444.872,-21.9927"/>
</g>
<!-- Node5 -->
<g id="node9" class="node"><title>Node5</title>
<a xlink:href="classtinyxml2_1_1StrPair.html#a80c1b3bd99bf62ae85c94a29ce537125" target="_top" xlink:title="tinyxml2::StrPair::Reset">
<polygon fill="none" stroke="black" points="642.5,-40.5 642.5,-61.5 769.5,-61.5 769.5,-40.5 642.5,-40.5"/>
<text text-anchor="middle" x="706" y="-48.5" font-family="FreeSans.ttf" font-size="10.00">tinyxml2::StrPair::Reset</text>
</a>
</g>
<!-- Node4&#45;&gt;Node5 -->
<g id="edge8" class="edge"><title>Node4&#45;&gt;Node5</title>
<path fill="none" stroke="midnightblue" d="M605.65,-51C614.559,-51 623.558,-51 632.318,-51"/>
<polygon fill="midnightblue" stroke="midnightblue" points="632.472,-54.5001 642.472,-51 632.472,-47.5001 632.472,-54.5001"/>
</g>
</g>
</svg>
        <g id="navigator" transform="translate(0 0)" fill="#404254">
                <rect fill="#f2f5e9" fill-opacity="0.5" stroke="#606060" stroke-width=".5" x="0" y="0" width="60" height="60"/>
                <use id="zoomplus" xlink:href="#zoomPlus" x="17" y="9" onmousedown="handleZoom(evt,'in')"/>
                <use id="zoomminus" xlink:href="#zoomMin" x="42" y="9" onmousedown="handleZoom(evt,'out')"/>
                <use id="reset" xlink:href="#resetDef" x="30" y="36" onmousedown="handleReset()"/>
                <g id="arrowUp" xlink:href="#dirArrow" transform="translate(30 24)" onmousedown="handlePan(0,-1)">
                  <use xlink:href="#rim" fill="#404040">
                        <set attributeName="fill" to="#808080" begin="arrowUp.mouseover" end="arrowUp.mouseout"/>
                  </use>
                  <path fill="none" stroke="white" stroke-width="1.5" d="M0,-3.0v7 M-2.5,-0.5L0,-3.0L2.5,-0.5"/>
                </g>
                <g id="arrowRight" xlink:href="#dirArrow" transform="rotate(90) translate(36 -43)" onmousedown="handlePan(1,0)">
                  <use xlink:href="#rim" fill="#404040">
                        <set attributeName="fill" to="#808080" begin="arrowRight.mouseover" end="arrowRight.mouseout"/>
                  </use>
                  <path fill="none" stroke="white" stroke-width="1.5" d="M0,-3.0v7 M-2.5,-0.5L0,-3.0L2.5,-0.5"/>
                </g>
                <g id="arrowDown" xlink:href="#dirArrow" transform="rotate(180) translate(-30 -48)" onmousedown="handlePan(0,1)">
                  <use xlink:href="#rim" fill="#404040">
                        <set attributeName="fill" to="#808080" begin="arrowDown.mouseover" end="arrowDown.mouseout"/>
                  </use>
                  <path fill="none" stroke="white" stroke-width="1.5" d="M0,-3.0v7 M-2.5,-0.5L0,-3.0L2.5,-0.5"/>
                </g>
                <g id="arrowLeft" xlink:href="#dirArrow" transform="rotate(270) translate(-36 17)" onmousedown="handlePan(-1,0)">
                  <use xlink:href="#rim" fill="#404040">
                        <set attributeName="fill" to="#808080" begin="arrowLeft.mouseover" end="arrowLeft.mouseout"/>
                  </use>
                  <path fill="none" stroke="white" stroke-width="1.5" d="M0,-3.0v7 M-2.5,-0.5L0,-3.0L2.5,-0.5"/>
                </g>
        </g>
</svg>
