<?xml version="1.0" encoding="UTF-8" standalone="no"?>
<!DOCTYPE svg PUBLIC "-//W3C//DTD SVG 1.1//EN"
 "http://www.w3.org/Graphics/SVG/1.1/DTD/svg11.dtd">
<!-- Generated by graphviz version 2.26.3 (20100126.1600)
 -->
<!-- Title: G Pages: 1 -->
<!--zoomable 306 -->
<svg id="main" version="1.1" xmlns="http://www.w3.org/2000/svg" xmlns:xlink="http://www.w3.org/1999/xlink" xml:space="preserve" onload="init(evt)">
        <defs>
                <circle id="rim" cx="0" cy="0" r="7"/>
                <circle id="rim2" cx="0" cy="0" r="3.5"/>
                <g id="zoomPlus">
                        <use xlink:href="#rim" fill="#404040">
                                <set attributeName="fill" to="#808080" begin="zoomplus.mouseover" end="zoomplus.mouseout"/>
                        </use>
                        <path d="M-4,0h8M0,-4v8" fill="none" stroke="white" stroke-width="1.5" pointer-events="none"/>
                </g>
                <g id="zoomMin">
                        <use xlink:href="#rim" fill="#404040">
                                <set attributeName="fill" to="#808080" begin="zoomminus.mouseover" end="zoomminus.mouseout"/>
                        </use>
                        <path d="M-4,0h8" fill="none" stroke="white" stroke-width="1.5" pointer-events="none"/>
                </g>
                <g id="dirArrow">
                        <path fill="none" stroke="white" stroke-width="1.5" d="M0,-3.0v7 M-2.5,-0.5L0,-3.0L2.5,-0.5"/>
                </g>
               <g id="resetDef">
                       <use xlink:href="#rim2" fill="#404040">
                               <set attributeName="fill" to="#808080" begin="reset.mouseover" end="reset.mouseout"/>
                       </use>
               </g>
        </defs>

<script type="text/javascript">
var viewWidth = 524;
var viewHeight = 306;
var sectionId = 'dynsection-0';
</script>
<script xlink:href="svgpan.js"/>
<svg id="graph" class="graph">
<g id="viewport">
<title>G</title>
<!-- Node1 -->
<g id="node1" class="node"><title>Node1</title>
<polygon fill="#bfbfbf" stroke="black" points="227,-0.5 227,-21.5 305,-21.5 305,-0.5 227,-0.5"/>
<text text-anchor="middle" x="266" y="-8.5" font-family="FreeSans.ttf" font-size="10.00">MatrixWidget</text>
</g>
<!-- Node2 -->
<g id="node2" class="node"><title>Node2</title>
<a xlink:href="classcorecvs_1_1Matrix.html" target="_top" xlink:title="corecvs::Matrix">
<polygon fill="none" stroke="black" points="221.5,-72.5 221.5,-93.5 310.5,-93.5 310.5,-72.5 221.5,-72.5"/>
<text text-anchor="middle" x="266" y="-80.5" font-family="FreeSans.ttf" font-size="10.00">corecvs::Matrix</text>
</a>
</g>
<!-- Node2&#45;&gt;Node1 -->
<g id="edge2" class="edge"><title>Node2&#45;&gt;Node1</title>
<path fill="none" stroke="#9a32cd" stroke-dasharray="5,2" d="M266,-62.2348C266,-48.969 266,-32.3188 266,-21.6674"/>
<polygon fill="#9a32cd" stroke="#9a32cd" points="262.5,-62.3761 266,-72.3762 269.5,-62.3762 262.5,-62.3761"/>
<text text-anchor="middle" x="272" y="-44.5" font-family="FreeSans.ttf" font-size="10.00"> M</text>
</g>
<!-- Node3 -->
<g id="node4" class="node"><title>Node3</title>
<a xlink:href="classcorecvs_1_1AbstractBuffer.html" target="_top" xlink:title="This is a common buffer template.">
<polygon fill="none" stroke="black" points="231,-132.5 231,-153.5 301,-153.5 301,-132.5 231,-132.5"/>
<text text-anchor="middle" x="266" y="-140.5" font-family="FreeSans.ttf" font-size="10.00">MatrixBase</text>
</a>
</g>
<!-- Node3&#45;&gt;Node2 -->
<g id="edge4" class="edge"><title>Node3&#45;&gt;Node2</title>
<path fill="none" stroke="midnightblue" d="M266,-122.231C266,-112.592 266,-101.544 266,-93.6339"/>
<polygon fill="midnightblue" stroke="midnightblue" points="262.5,-122.273 266,-132.273 269.5,-122.273 262.5,-122.273"/>
</g>
<!-- Node4 -->
<g id="node6" class="node"><title>Node4</title>
<a xlink:href="classcorecvs_1_1AbstractBufferParams.html" target="_top" xlink:title="This is a basis part of the AbstractBuffer template &#45; serializable buffer params.">
<polygon fill="none" stroke="black" points="0,-204.5 0,-225.5 164,-225.5 164,-204.5 0,-204.5"/>
<text text-anchor="middle" x="82" y="-212.5" font-family="FreeSans.ttf" font-size="10.00">corecvs::AbstractBufferParams</text>
</a>
</g>
<!-- Node4&#45;&gt;Node3 -->
<g id="edge6" class="edge"><title>Node4&#45;&gt;Node3</title>
<path fill="none" stroke="midnightblue" d="M118.673,-200.65C154.198,-186.749 207.232,-165.996 239.039,-153.55"/>
<polygon fill="midnightblue" stroke="midnightblue" points="117.187,-197.473 109.15,-204.376 119.738,-203.991 117.187,-197.473"/>
</g>
<!-- Node5 -->
<g id="node8" class="node"><title>Node5</title>
<polygon fill="none" stroke="#bfbfbf" points="181.5,-204.5 181.5,-225.5 258.5,-225.5 258.5,-204.5 181.5,-204.5"/>
<text text-anchor="middle" x="220" y="-212.5" font-family="FreeSans.ttf" font-size="10.00">ElementType</text>
</g>
<!-- Node5&#45;&gt;Node3 -->
<g id="edge8" class="edge"><title>Node5&#45;&gt;Node3</title>
<path fill="none" stroke="#9a32cd" stroke-dasharray="5,2" d="M232.26,-195.81C240.885,-182.311 252.107,-164.745 259.185,-153.667"/>
<polygon fill="#9a32cd" stroke="#9a32cd" points="229.222,-194.065 226.787,-204.376 235.121,-197.834 229.222,-194.065"/>
<text text-anchor="middle" x="260.5" y="-176.5" font-family="FreeSans.ttf" font-size="10.00"> data</text>
</g>
<!-- Node6 -->
<g id="node10" class="node"><title>Node6</title>
<a xlink:href="classcorecvs_1_1ObjectRef.html" target="_top" xlink:title="corecvs::ObjectRef\&lt; uint8_t \&gt;">
<polygon fill="none" stroke="black" points="276,-204.5 276,-225.5 436,-225.5 436,-204.5 276,-204.5"/>
<text text-anchor="middle" x="356" y="-212.5" font-family="FreeSans.ttf" font-size="10.00">corecvs::ObjectRef&lt; uint8_t &gt;</text>
</a>
</g>
<!-- Node6&#45;&gt;Node3 -->
<g id="edge10" class="edge"><title>Node6&#45;&gt;Node3</title>
<path fill="none" stroke="#9a32cd" stroke-dasharray="5,2" d="M334.88,-198.104C317.699,-184.359 293.98,-165.384 279.334,-153.667"/>
<polygon fill="#9a32cd" stroke="#9a32cd" points="332.725,-200.862 342.72,-204.376 337.098,-195.396 332.725,-200.862"/>
<text text-anchor="middle" x="355" y="-176.5" font-family="FreeSans.ttf" font-size="10.00"> memoryBlock</text>
</g>
<!-- Node7 -->
<g id="node12" class="node"><title>Node7</title>
<a xlink:href="classcorecvs_1_1ObjectBlock.html" target="_top" xlink:title="corecvs::ObjectBlock\&lt; uint8_t \&gt;">
<polygon fill="none" stroke="black" points="270.5,-276.5 270.5,-297.5 441.5,-297.5 441.5,-276.5 270.5,-276.5"/>
<text text-anchor="middle" x="356" y="-284.5" font-family="FreeSans.ttf" font-size="10.00">corecvs::ObjectBlock&lt; uint8_t &gt;</text>
</a>
</g>
<!-- Node7&#45;&gt;Node6 -->
<g id="edge12" class="edge"><title>Node7&#45;&gt;Node6</title>
<path fill="none" stroke="#9a32cd" stroke-dasharray="5,2" d="M356,-266.235C356,-252.969 356,-236.319 356,-225.667"/>
<polygon fill="#9a32cd" stroke="#9a32cd" points="352.5,-266.376 356,-276.376 359.5,-266.376 352.5,-266.376"/>
<text text-anchor="middle" x="370" y="-248.5" font-family="FreeSans.ttf" font-size="10.00"> block</text>
</g>
<!-- Node8 -->
<g id="node14" class="node"><title>Node8</title>
<polygon fill="none" stroke="#bfbfbf" points="453.5,-204.5 453.5,-225.5 516.5,-225.5 516.5,-204.5 453.5,-204.5"/>
<text text-anchor="middle" x="485" y="-212.5" font-family="FreeSans.ttf" font-size="10.00">IndexType</text>
</g>
<!-- Node8&#45;&gt;Node3 -->
<g id="edge14" class="edge"><title>Node8&#45;&gt;Node3</title>
<path fill="none" stroke="#9a32cd" stroke-dasharray="5,2" d="M456.489,-199.549C438.883,-190.511 415.603,-179.451 394,-172 363.305,-161.414 327.122,-153.627 301.071,-148.804"/>
<polygon fill="#9a32cd" stroke="#9a32cd" points="455.155,-202.8 465.639,-204.325 458.394,-196.595 455.155,-202.8"/>
<text text-anchor="middle" x="463" y="-176.5" font-family="FreeSans.ttf" font-size="10.00"> STRIDE_AUTO</text>
</g>
</g>
</svg>
        <g id="navigator" transform="translate(0 0)" fill="#404254">
                <rect fill="#f2f5e9" fill-opacity="0.5" stroke="#606060" stroke-width=".5" x="0" y="0" width="60" height="60"/>
                <use id="zoomplus" xlink:href="#zoomPlus" x="17" y="9" onmousedown="handleZoom(evt,'in')"/>
                <use id="zoomminus" xlink:href="#zoomMin" x="42" y="9" onmousedown="handleZoom(evt,'out')"/>
                <use id="reset" xlink:href="#resetDef" x="30" y="36" onmousedown="handleReset()"/>
                <g id="arrowUp" xlink:href="#dirArrow" transform="translate(30 24)" onmousedown="handlePan(0,-1)">
                  <use xlink:href="#rim" fill="#404040">
                        <set attributeName="fill" to="#808080" begin="arrowUp.mouseover" end="arrowUp.mouseout"/>
                  </use>
                  <path fill="none" stroke="white" stroke-width="1.5" d="M0,-3.0v7 M-2.5,-0.5L0,-3.0L2.5,-0.5"/>
                </g>
                <g id="arrowRight" xlink:href="#dirArrow" transform="rotate(90) translate(36 -43)" onmousedown="handlePan(1,0)">
                  <use xlink:href="#rim" fill="#404040">
                        <set attributeName="fill" to="#808080" begin="arrowRight.mouseover" end="arrowRight.mouseout"/>
                  </use>
                  <path fill="none" stroke="white" stroke-width="1.5" d="M0,-3.0v7 M-2.5,-0.5L0,-3.0L2.5,-0.5"/>
                </g>
                <g id="arrowDown" xlink:href="#dirArrow" transform="rotate(180) translate(-30 -48)" onmousedown="handlePan(0,1)">
                  <use xlink:href="#rim" fill="#404040">
                        <set attributeName="fill" to="#808080" begin="arrowDown.mouseover" end="arrowDown.mouseout"/>
                  </use>
                  <path fill="none" stroke="white" stroke-width="1.5" d="M0,-3.0v7 M-2.5,-0.5L0,-3.0L2.5,-0.5"/>
                </g>
                <g id="arrowLeft" xlink:href="#dirArrow" transform="rotate(270) translate(-36 17)" onmousedown="handlePan(-1,0)">
                  <use xlink:href="#rim" fill="#404040">
                        <set attributeName="fill" to="#808080" begin="arrowLeft.mouseover" end="arrowLeft.mouseout"/>
                  </use>
                  <path fill="none" stroke="white" stroke-width="1.5" d="M0,-3.0v7 M-2.5,-0.5L0,-3.0L2.5,-0.5"/>
                </g>
        </g>
</svg>
