<?xml version="1.0" encoding="UTF-8" standalone="no"?>
<!DOCTYPE svg PUBLIC "-//W3C//DTD SVG 1.1//EN"
 "http://www.w3.org/Graphics/SVG/1.1/DTD/svg11.dtd">
<!-- Generated by graphviz version 2.26.3 (20100126.1600)
 -->
<!-- Title: G Pages: 1 -->
<!--zoomable 470 -->
<svg id="main" version="1.1" xmlns="http://www.w3.org/2000/svg" xmlns:xlink="http://www.w3.org/1999/xlink" xml:space="preserve" onload="init(evt)">
        <defs>
                <circle id="rim" cx="0" cy="0" r="7"/>
                <circle id="rim2" cx="0" cy="0" r="3.5"/>
                <g id="zoomPlus">
                        <use xlink:href="#rim" fill="#404040">
                                <set attributeName="fill" to="#808080" begin="zoomplus.mouseover" end="zoomplus.mouseout"/>
                        </use>
                        <path d="M-4,0h8M0,-4v8" fill="none" stroke="white" stroke-width="1.5" pointer-events="none"/>
                </g>
                <g id="zoomMin">
                        <use xlink:href="#rim" fill="#404040">
                                <set attributeName="fill" to="#808080" begin="zoomminus.mouseover" end="zoomminus.mouseout"/>
                        </use>
                        <path d="M-4,0h8" fill="none" stroke="white" stroke-width="1.5" pointer-events="none"/>
                </g>
                <g id="dirArrow">
                        <path fill="none" stroke="white" stroke-width="1.5" d="M0,-3.0v7 M-2.5,-0.5L0,-3.0L2.5,-0.5"/>
                </g>
               <g id="resetDef">
                       <use xlink:href="#rim2" fill="#404040">
                               <set attributeName="fill" to="#808080" begin="reset.mouseover" end="reset.mouseout"/>
                       </use>
               </g>
        </defs>

<script type="text/javascript">
var viewWidth = 910;
var viewHeight = 470;
var sectionId = 'dynsection-8';
</script>
<script xlink:href="svgpan.js"/>
<svg id="graph" class="graph">
<g id="viewport">
<title>G</title>
<!-- Node1 -->
<g id="node1" class="node"><title>Node1</title>
<polygon fill="#bfbfbf" stroke="black" points="0.5,-220.5 0.5,-241.5 293.5,-241.5 293.5,-220.5 0.5,-220.5"/>
<text text-anchor="middle" x="147" y="-228.5" font-family="FreeSans.ttf" font-size="10.00">GraphPlotParametersControlWidget::setParametersVirtual</text>
</g>
<!-- Node2 -->
<g id="node3" class="node"><title>Node2</title>
<a xlink:href="classGraphPlotParametersControlWidget.html#ae61159895a4af16e8383bec19a24ce10" target="_top" xlink:title="GraphPlotParametersControlWidget::setParameters">
<polygon fill="none" stroke="black" points="330.5,-220.5 330.5,-241.5 593.5,-241.5 593.5,-220.5 330.5,-220.5"/>
<text text-anchor="middle" x="462" y="-228.5" font-family="FreeSans.ttf" font-size="10.00">GraphPlotParametersControlWidget::setParameters</text>
</a>
</g>
<!-- Node1&#45;&gt;Node2 -->
<g id="edge2" class="edge"><title>Node1&#45;&gt;Node2</title>
<path fill="none" stroke="midnightblue" d="M293.894,-231C302.656,-231 311.461,-231 320.202,-231"/>
<polygon fill="midnightblue" stroke="midnightblue" points="320.426,-234.5 330.426,-231 320.426,-227.5 320.426,-234.5"/>
</g>
<!-- Node3 -->
<g id="node5" class="node"><title>Node3</title>
<a xlink:href="classGraphPlotParameters.html#a1782d80685409b44b0bf953c71b5fd74" target="_top" xlink:title="GraphPlotParameters::centerAt">
<polygon fill="none" stroke="black" points="682.5,-440.5 682.5,-461.5 849.5,-461.5 849.5,-440.5 682.5,-440.5"/>
<text text-anchor="middle" x="766" y="-448.5" font-family="FreeSans.ttf" font-size="10.00">GraphPlotParameters::centerAt</text>
</a>
</g>
<!-- Node2&#45;&gt;Node3 -->
<g id="edge4" class="edge"><title>Node2&#45;&gt;Node3</title>
<path fill="none" stroke="midnightblue" d="M467.24,-241.564C484.799,-275.723 545.263,-383.705 630,-431 642.868,-438.182 657.441,-443.063 672.148,-446.335"/>
<polygon fill="midnightblue" stroke="midnightblue" points="671.842,-449.843 682.332,-448.352 673.202,-442.976 671.842,-449.843"/>
</g>
<!-- Node4 -->
<g id="node7" class="node"><title>Node4</title>
<a xlink:href="classGraphPlotParameters.html#a83afc5e52ab6ebedca773132a50c3677" target="_top" xlink:title="GraphPlotParameters::contrast">
<polygon fill="none" stroke="black" points="683.5,-400.5 683.5,-421.5 848.5,-421.5 848.5,-400.5 683.5,-400.5"/>
<text text-anchor="middle" x="766" y="-408.5" font-family="FreeSans.ttf" font-size="10.00">GraphPlotParameters::contrast</text>
</a>
</g>
<!-- Node2&#45;&gt;Node4 -->
<g id="edge6" class="edge"><title>Node2&#45;&gt;Node4</title>
<path fill="none" stroke="midnightblue" d="M469.561,-241.894C490.853,-271.611 554.691,-354.295 630,-391 643.462,-397.561 658.497,-402.108 673.524,-405.233"/>
<polygon fill="midnightblue" stroke="midnightblue" points="672.906,-408.678 683.381,-407.088 674.201,-401.799 672.906,-408.678"/>
</g>
<!-- Node5 -->
<g id="node9" class="node"><title>Node5</title>
<a xlink:href="classGraphPlotParameters.html#a38f8625e466ed15550148dab797e84f2" target="_top" xlink:title="GraphPlotParameters::fixGridValue">
<polygon fill="none" stroke="black" points="675,-360.5 675,-381.5 857,-381.5 857,-360.5 675,-360.5"/>
<text text-anchor="middle" x="766" y="-368.5" font-family="FreeSans.ttf" font-size="10.00">GraphPlotParameters::fixGridValue</text>
</a>
</g>
<!-- Node2&#45;&gt;Node5 -->
<g id="edge8" class="edge"><title>Node2&#45;&gt;Node5</title>
<path fill="none" stroke="midnightblue" d="M472.679,-241.507C497.721,-265.451 563.179,-324.068 630,-351 640.981,-355.426 652.813,-358.887 664.754,-361.592"/>
<polygon fill="midnightblue" stroke="midnightblue" points="664.29,-365.071 674.794,-363.691 665.722,-358.219 664.29,-365.071"/>
</g>
<!-- Node6 -->
<g id="node11" class="node"><title>Node6</title>
<a xlink:href="classGraphPlotParameters.html#a0c9b5296bad8a620d5f5f9d170612388" target="_top" xlink:title="GraphPlotParameters::fixTimeValue">
<polygon fill="none" stroke="black" points="673.5,-320.5 673.5,-341.5 858.5,-341.5 858.5,-320.5 673.5,-320.5"/>
<text text-anchor="middle" x="766" y="-328.5" font-family="FreeSans.ttf" font-size="10.00">GraphPlotParameters::fixTimeValue</text>
</a>
</g>
<!-- Node2&#45;&gt;Node6 -->
<g id="edge10" class="edge"><title>Node2&#45;&gt;Node6</title>
<path fill="none" stroke="midnightblue" d="M479.919,-241.752C509.876,-259.208 572.513,-293.518 630,-311 640.684,-314.249 652.006,-316.979 663.376,-319.27"/>
<polygon fill="midnightblue" stroke="midnightblue" points="662.887,-322.74 673.365,-321.173 664.197,-315.863 662.887,-322.74"/>
</g>
<!-- Node7 -->
<g id="node13" class="node"><title>Node7</title>
<a xlink:href="classGraphPlotParameters.html#ab8badf26241b8015ffc6d5d97cc64711" target="_top" xlink:title="GraphPlotParameters::graphStyle">
<polygon fill="none" stroke="black" points="677.5,-280.5 677.5,-301.5 854.5,-301.5 854.5,-280.5 677.5,-280.5"/>
<text text-anchor="middle" x="766" y="-288.5" font-family="FreeSans.ttf" font-size="10.00">GraphPlotParameters::graphStyle</text>
</a>
</g>
<!-- Node2&#45;&gt;Node7 -->
<g id="edge12" class="edge"><title>Node2&#45;&gt;Node7</title>
<path fill="none" stroke="midnightblue" d="M501.841,-241.529C535.748,-250.238 585.835,-262.512 630,-271 644.899,-273.864 660.786,-276.538 676.25,-278.941"/>
<polygon fill="midnightblue" stroke="midnightblue" points="675.924,-282.432 686.337,-280.481 676.98,-275.512 675.924,-282.432"/>
</g>
<!-- Node8 -->
<g id="node15" class="node"><title>Node8</title>
<a xlink:href="classGraphPlotParametersControlWidget.html#a9b5ca2113cc1980626b5105f601fbf99" target="_top" xlink:title="GraphPlotParametersControlWidget::paramsChanged">
<polygon fill="none" stroke="black" points="630,-240.5 630,-261.5 902,-261.5 902,-240.5 630,-240.5"/>
<text text-anchor="middle" x="766" y="-248.5" font-family="FreeSans.ttf" font-size="10.00">GraphPlotParametersControlWidget::paramsChanged</text>
</a>
</g>
<!-- Node2&#45;&gt;Node8 -->
<g id="edge14" class="edge"><title>Node2&#45;&gt;Node8</title>
<path fill="none" stroke="midnightblue" d="M593.571,-239.656C602.221,-240.225 610.961,-240.8 619.676,-241.373"/>
<polygon fill="midnightblue" stroke="midnightblue" points="619.681,-244.881 629.889,-242.045 620.14,-237.896 619.681,-244.881"/>
</g>
<!-- Node9 -->
<g id="node17" class="node"><title>Node9</title>
<a xlink:href="classGraphPlotParameters.html#af3c9d830e5fb062ac2c88f3e2f4fe39f" target="_top" xlink:title="GraphPlotParameters::selectGraph">
<polygon fill="none" stroke="black" points="674.5,-200.5 674.5,-221.5 857.5,-221.5 857.5,-200.5 674.5,-200.5"/>
<text text-anchor="middle" x="766" y="-208.5" font-family="FreeSans.ttf" font-size="10.00">GraphPlotParameters::selectGraph</text>
</a>
</g>
<!-- Node2&#45;&gt;Node9 -->
<g id="edge16" class="edge"><title>Node2&#45;&gt;Node9</title>
<path fill="none" stroke="midnightblue" d="M593.571,-222.344C617.227,-220.788 641.556,-219.187 664.209,-217.697"/>
<polygon fill="midnightblue" stroke="midnightblue" points="664.742,-221.169 674.49,-217.02 664.282,-214.184 664.742,-221.169"/>
</g>
<!-- Node10 -->
<g id="node19" class="node"><title>Node10</title>
<a xlink:href="classGraphPlotParameters.html#a697c97c8c4b06cfec8ab9aebf6a9cbc8" target="_top" xlink:title="GraphPlotParameters::width">
<polygon fill="none" stroke="black" points="691,-160.5 691,-181.5 841,-181.5 841,-160.5 691,-160.5"/>
<text text-anchor="middle" x="766" y="-168.5" font-family="FreeSans.ttf" font-size="10.00">GraphPlotParameters::width</text>
</a>
</g>
<!-- Node2&#45;&gt;Node10 -->
<g id="edge18" class="edge"><title>Node2&#45;&gt;Node10</title>
<path fill="none" stroke="midnightblue" d="M501.841,-220.471C535.748,-211.762 585.835,-199.488 630,-191 646.457,-187.837 664.117,-184.905 681.084,-182.314"/>
<polygon fill="midnightblue" stroke="midnightblue" points="681.609,-185.775 690.979,-180.829 680.57,-178.852 681.609,-185.775"/>
</g>
<!-- Node11 -->
<g id="node21" class="node"><title>Node11</title>
<a xlink:href="classGraphPlotParameters.html#a146daba3d8ae8788648d65263dc53b6a" target="_top" xlink:title="GraphPlotParameters::xGrid">
<polygon fill="none" stroke="black" points="691,-120.5 691,-141.5 841,-141.5 841,-120.5 691,-120.5"/>
<text text-anchor="middle" x="766" y="-128.5" font-family="FreeSans.ttf" font-size="10.00">GraphPlotParameters::xGrid</text>
</a>
</g>
<!-- Node2&#45;&gt;Node11 -->
<g id="edge20" class="edge"><title>Node2&#45;&gt;Node11</title>
<path fill="none" stroke="midnightblue" d="M479.919,-220.248C509.876,-202.792 572.513,-168.482 630,-151 646.128,-146.095 663.71,-142.375 680.716,-139.558"/>
<polygon fill="midnightblue" stroke="midnightblue" points="681.309,-143.008 690.647,-138.002 680.226,-136.092 681.309,-143.008"/>
</g>
<!-- Node12 -->
<g id="node23" class="node"><title>Node12</title>
<a xlink:href="classGraphPlotParameters.html#af96bd43a6849685a5b44f4192a4566aa" target="_top" xlink:title="GraphPlotParameters::xScale">
<polygon fill="none" stroke="black" points="687.5,-80.5 687.5,-101.5 844.5,-101.5 844.5,-80.5 687.5,-80.5"/>
<text text-anchor="middle" x="766" y="-88.5" font-family="FreeSans.ttf" font-size="10.00">GraphPlotParameters::xScale</text>
</a>
</g>
<!-- Node2&#45;&gt;Node12 -->
<g id="edge22" class="edge"><title>Node2&#45;&gt;Node12</title>
<path fill="none" stroke="midnightblue" d="M472.679,-220.493C497.721,-196.549 563.179,-137.932 630,-111 644.848,-105.016 661.252,-100.794 677.377,-97.8229"/>
<polygon fill="midnightblue" stroke="midnightblue" points="678.091,-101.252 687.365,-96.1297 676.921,-94.3504 678.091,-101.252"/>
</g>
<!-- Node13 -->
<g id="node25" class="node"><title>Node13</title>
<a xlink:href="classGraphPlotParameters.html#aa42f9bcd5e10357e2c897ffe18a4f636" target="_top" xlink:title="GraphPlotParameters::yGrid">
<polygon fill="none" stroke="black" points="691,-40.5 691,-61.5 841,-61.5 841,-40.5 691,-40.5"/>
<text text-anchor="middle" x="766" y="-48.5" font-family="FreeSans.ttf" font-size="10.00">GraphPlotParameters::yGrid</text>
</a>
</g>
<!-- Node2&#45;&gt;Node13 -->
<g id="edge24" class="edge"><title>Node2&#45;&gt;Node13</title>
<path fill="none" stroke="midnightblue" d="M469.561,-220.106C490.853,-190.389 554.691,-107.705 630,-71 645.602,-63.3958 663.315,-58.498 680.681,-55.3826"/>
<polygon fill="midnightblue" stroke="midnightblue" points="681.53,-58.7911 690.847,-53.7473 680.418,-51.88 681.53,-58.7911"/>
</g>
<!-- Node14 -->
<g id="node27" class="node"><title>Node14</title>
<a xlink:href="classGraphPlotParameters.html#ab3582c26b6568ab65bb93822a619a71c" target="_top" xlink:title="GraphPlotParameters::yScale">
<polygon fill="none" stroke="black" points="687.5,-0.5 687.5,-21.5 844.5,-21.5 844.5,-0.5 687.5,-0.5"/>
<text text-anchor="middle" x="766" y="-8.5" font-family="FreeSans.ttf" font-size="10.00">GraphPlotParameters::yScale</text>
</a>
</g>
<!-- Node2&#45;&gt;Node14 -->
<g id="edge26" class="edge"><title>Node2&#45;&gt;Node14</title>
<path fill="none" stroke="midnightblue" d="M467.24,-220.436C484.799,-186.277 545.263,-78.2953 630,-31 644.323,-23.0054 660.759,-17.8621 677.141,-14.6152"/>
<polygon fill="midnightblue" stroke="midnightblue" points="678.07,-18.0058 687.315,-12.8301 676.86,-11.1111 678.07,-18.0058"/>
</g>
</g>
</svg>
        <g id="navigator" transform="translate(0 0)" fill="#404254">
                <rect fill="#f2f5e9" fill-opacity="0.5" stroke="#606060" stroke-width=".5" x="0" y="0" width="60" height="60"/>
                <use id="zoomplus" xlink:href="#zoomPlus" x="17" y="9" onmousedown="handleZoom(evt,'in')"/>
                <use id="zoomminus" xlink:href="#zoomMin" x="42" y="9" onmousedown="handleZoom(evt,'out')"/>
                <use id="reset" xlink:href="#resetDef" x="30" y="36" onmousedown="handleReset()"/>
                <g id="arrowUp" xlink:href="#dirArrow" transform="translate(30 24)" onmousedown="handlePan(0,-1)">
                  <use xlink:href="#rim" fill="#404040">
                        <set attributeName="fill" to="#808080" begin="arrowUp.mouseover" end="arrowUp.mouseout"/>
                  </use>
                  <path fill="none" stroke="white" stroke-width="1.5" d="M0,-3.0v7 M-2.5,-0.5L0,-3.0L2.5,-0.5"/>
                </g>
                <g id="arrowRight" xlink:href="#dirArrow" transform="rotate(90) translate(36 -43)" onmousedown="handlePan(1,0)">
                  <use xlink:href="#rim" fill="#404040">
                        <set attributeName="fill" to="#808080" begin="arrowRight.mouseover" end="arrowRight.mouseout"/>
                  </use>
                  <path fill="none" stroke="white" stroke-width="1.5" d="M0,-3.0v7 M-2.5,-0.5L0,-3.0L2.5,-0.5"/>
                </g>
                <g id="arrowDown" xlink:href="#dirArrow" transform="rotate(180) translate(-30 -48)" onmousedown="handlePan(0,1)">
                  <use xlink:href="#rim" fill="#404040">
                        <set attributeName="fill" to="#808080" begin="arrowDown.mouseover" end="arrowDown.mouseout"/>
                  </use>
                  <path fill="none" stroke="white" stroke-width="1.5" d="M0,-3.0v7 M-2.5,-0.5L0,-3.0L2.5,-0.5"/>
                </g>
                <g id="arrowLeft" xlink:href="#dirArrow" transform="rotate(270) translate(-36 17)" onmousedown="handlePan(-1,0)">
                  <use xlink:href="#rim" fill="#404040">
                        <set attributeName="fill" to="#808080" begin="arrowLeft.mouseover" end="arrowLeft.mouseout"/>
                  </use>
                  <path fill="none" stroke="white" stroke-width="1.5" d="M0,-3.0v7 M-2.5,-0.5L0,-3.0L2.5,-0.5"/>
                </g>
        </g>
</svg>
