<?xml version="1.0" encoding="UTF-8" standalone="no"?>
<!DOCTYPE svg PUBLIC "-//W3C//DTD SVG 1.1//EN"
 "http://www.w3.org/Graphics/SVG/1.1/DTD/svg11.dtd">
<!-- Generated by graphviz version 2.26.3 (20100126.1600)
 -->
<!-- Title: G Pages: 1 -->
<!--zoomable 152 -->
<svg id="main" version="1.1" xmlns="http://www.w3.org/2000/svg" xmlns:xlink="http://www.w3.org/1999/xlink" xml:space="preserve" onload="init(evt)">
        <defs>
                <circle id="rim" cx="0" cy="0" r="7"/>
                <circle id="rim2" cx="0" cy="0" r="3.5"/>
                <g id="zoomPlus">
                        <use xlink:href="#rim" fill="#404040">
                                <set attributeName="fill" to="#808080" begin="zoomplus.mouseover" end="zoomplus.mouseout"/>
                        </use>
                        <path d="M-4,0h8M0,-4v8" fill="none" stroke="white" stroke-width="1.5" pointer-events="none"/>
                </g>
                <g id="zoomMin">
                        <use xlink:href="#rim" fill="#404040">
                                <set attributeName="fill" to="#808080" begin="zoomminus.mouseover" end="zoomminus.mouseout"/>
                        </use>
                        <path d="M-4,0h8" fill="none" stroke="white" stroke-width="1.5" pointer-events="none"/>
                </g>
                <g id="dirArrow">
                        <path fill="none" stroke="white" stroke-width="1.5" d="M0,-3.0v7 M-2.5,-0.5L0,-3.0L2.5,-0.5"/>
                </g>
               <g id="resetDef">
                       <use xlink:href="#rim2" fill="#404040">
                               <set attributeName="fill" to="#808080" begin="reset.mouseover" end="reset.mouseout"/>
                       </use>
               </g>
        </defs>

<script type="text/javascript">
var viewWidth = 1198;
var viewHeight = 152;
var sectionId = 'dynsection-7';
</script>
<script xlink:href="svgpan.js"/>
<svg id="graph" class="graph">
<g id="viewport">
<title>G</title>
<!-- Node1 -->
<g id="node1" class="node"><title>Node1</title>
<polygon fill="#bfbfbf" stroke="black" points="0,-61.7034 0,-82.7034 254,-82.7034 254,-61.7034 0,-61.7034"/>
<text text-anchor="middle" x="127" y="-69.7034" font-family="FreeSans.ttf" font-size="10.00">corecvs::EllipticalApproximation::getMainDirection</text>
</g>
<!-- Node2 -->
<g id="node3" class="node"><title>Node2</title>
<a xlink:href="classcorecvs_1_1EllipticalApproximation.html#a919283f3b1bd70699bd26d4814acbc97" target="_top" xlink:title="Length of the axis are in fact square roots of the eigenvalues of the covariance matrix.">
<polygon fill="none" stroke="black" points="290.5,-81.7034 290.5,-102.703 563.5,-102.703 563.5,-81.7034 290.5,-81.7034"/>
<text text-anchor="middle" x="427" y="-89.7034" font-family="FreeSans.ttf" font-size="10.00">corecvs::EllipticalApproximation::getEllipseAxisSquare</text>
</a>
</g>
<!-- Node1&#45;&gt;Node2 -->
<g id="edge2" class="edge"><title>Node1&#45;&gt;Node2</title>
<path fill="none" stroke="midnightblue" d="M254.227,-80.6852C262.836,-81.2592 271.547,-81.8399 280.243,-82.4197"/>
<polygon fill="midnightblue" stroke="midnightblue" points="280.228,-85.9263 290.439,-83.0994 280.694,-78.9418 280.228,-85.9263"/>
</g>
<!-- Node3 -->
<g id="node5" class="node"><title>Node3</title>
<a xlink:href="classcorecvs_1_1EllipticalApproximation.html#a742ab54a7a28b619a9dc7639cd8b7937" target="_top" xlink:title="corecvs::EllipticalApproximation::getPerAxisDeviationSquare">
<polygon fill="none" stroke="black" points="600,-120.703 600,-141.703 904,-141.703 904,-120.703 600,-120.703"/>
<text text-anchor="middle" x="752" y="-128.703" font-family="FreeSans.ttf" font-size="10.00">corecvs::EllipticalApproximation::getPerAxisDeviationSquare</text>
</a>
</g>
<!-- Node1&#45;&gt;Node3 -->
<g id="edge22" class="edge"><title>Node1&#45;&gt;Node3</title>
<path fill="none" stroke="midnightblue" d="M161.268,-82.7324C193.987,-92.2774 244.85,-105.801 290,-112.203 388.917,-126.231 500.846,-131.11 589.758,-132.421"/>
<polygon fill="midnightblue" stroke="midnightblue" points="589.887,-135.922 599.933,-132.556 589.981,-128.923 589.887,-135.922"/>
</g>
<!-- Node6 -->
<g id="node11" class="node"><title>Node6</title>
<a xlink:href="classcorecvs_1_1EllipticalApproximation.html#ab175a05083269eb8e8348d31060cea5a" target="_top" xlink:title="this function computes ">
<polygon fill="none" stroke="black" points="651.5,-42.7034 651.5,-63.7034 852.5,-63.7034 852.5,-42.7034 651.5,-42.7034"/>
<text text-anchor="middle" x="752" y="-50.7034" font-family="FreeSans.ttf" font-size="10.00">corecvs::EllipticalApproximation::mu11</text>
</a>
</g>
<!-- Node1&#45;&gt;Node6 -->
<g id="edge24" class="edge"><title>Node1&#45;&gt;Node6</title>
<path fill="none" stroke="midnightblue" d="M254.231,-68.3356C367.814,-64.8827 532.503,-59.8762 640.888,-56.5813"/>
<polygon fill="midnightblue" stroke="midnightblue" points="641.308,-60.0702 651.197,-56.2679 641.095,-53.0734 641.308,-60.0702"/>
</g>
<!-- Node7 -->
<g id="node14" class="node"><title>Node7</title>
<a xlink:href="classcorecvs_1_1Vector2d.html#a944721c41f044c1388d9dc42ca899bce" target="_top" xlink:title="corecvs::Vector2d::x">
<polygon fill="none" stroke="black" points="1008.5,-2.70345 1008.5,-23.7034 1121.5,-23.7034 1121.5,-2.70345 1008.5,-2.70345"/>
<text text-anchor="middle" x="1065" y="-10.7034" font-family="FreeSans.ttf" font-size="10.00">corecvs::Vector2d::x</text>
</a>
</g>
<!-- Node1&#45;&gt;Node7 -->
<g id="edge26" class="edge"><title>Node1&#45;&gt;Node7</title>
<path fill="none" stroke="midnightblue" d="M182.794,-61.7004C270.985,-45.6878 448.186,-15.9022 600,-5.20345 734.777,4.29465 768.931,-1.84975 904,-5.20345 935.033,-5.97398 969.399,-7.57869 998.385,-9.15005"/>
<polygon fill="midnightblue" stroke="midnightblue" points="998.22,-12.6462 1008.4,-9.70305 998.606,-5.65688 998.22,-12.6462"/>
</g>
<!-- Node2&#45;&gt;Node3 -->
<g id="edge4" class="edge"><title>Node2&#45;&gt;Node3</title>
<path fill="none" stroke="midnightblue" d="M514.522,-102.706C557.694,-107.887 609.911,-114.153 654.374,-119.488"/>
<polygon fill="midnightblue" stroke="midnightblue" points="653.976,-122.966 664.322,-120.682 654.81,-116.015 653.976,-122.966"/>
</g>
<!-- Node2&#45;&gt;Node6 -->
<g id="edge10" class="edge"><title>Node2&#45;&gt;Node6</title>
<path fill="none" stroke="midnightblue" d="M514.522,-81.7009C557.694,-76.5201 609.911,-70.2542 654.374,-64.9186"/>
<polygon fill="midnightblue" stroke="midnightblue" points="654.81,-68.3914 664.322,-63.7248 653.976,-61.4413 654.81,-68.3914"/>
</g>
<!-- Node2&#45;&gt;Node7 -->
<g id="edge18" class="edge"><title>Node2&#45;&gt;Node7</title>
<path fill="none" stroke="midnightblue" d="M450.764,-81.6616C483.577,-67.6761 544.955,-43.5517 600,-33.2034 739.741,-6.93261 907.079,-7.32795 998.049,-10.1427"/>
<polygon fill="midnightblue" stroke="midnightblue" points="998.111,-13.6465 1008.22,-10.4775 998.341,-6.6503 998.111,-13.6465"/>
</g>
<!-- Node8 -->
<g id="node16" class="node"><title>Node8</title>
<a xlink:href="classcorecvs_1_1Vector2d.html#ae1ea2ad4c0821001408bf963cffa8413" target="_top" xlink:title="corecvs::Vector2d::y">
<polygon fill="none" stroke="black" points="1008.5,-42.7034 1008.5,-63.7034 1121.5,-63.7034 1121.5,-42.7034 1008.5,-42.7034"/>
<text text-anchor="middle" x="1065" y="-50.7034" font-family="FreeSans.ttf" font-size="10.00">corecvs::Vector2d::y</text>
</a>
</g>
<!-- Node2&#45;&gt;Node8 -->
<g id="edge20" class="edge"><title>Node2&#45;&gt;Node8</title>
<path fill="none" stroke="midnightblue" d="M563.658,-89.7967C659.129,-87.3726 789.493,-82.5796 904,-73.2034 935.138,-70.6537 969.519,-66.5588 998.486,-62.7363"/>
<polygon fill="midnightblue" stroke="midnightblue" points="999.044,-66.1929 1008.49,-61.3986 998.117,-59.2547 999.044,-66.1929"/>
</g>
<!-- Node4 -->
<g id="node7" class="node"><title>Node4</title>
<a xlink:href="classcorecvs_1_1EllipticalApproximation.html#adb02d31a88acbeca21b8517e9ce059b0" target="_top" xlink:title="Position of input points center.">
<polygon fill="none" stroke="black" points="957.5,-82.7034 957.5,-103.703 1172.5,-103.703 1172.5,-82.7034 957.5,-82.7034"/>
<text text-anchor="middle" x="1065" y="-90.7034" font-family="FreeSans.ttf" font-size="10.00">corecvs::EllipticalApproximation::getMean</text>
</a>
</g>
<!-- Node3&#45;&gt;Node4 -->
<g id="edge6" class="edge"><title>Node3&#45;&gt;Node4</title>
<path fill="none" stroke="midnightblue" d="M838.772,-120.669C878.969,-115.789 926.88,-109.972 968.241,-104.951"/>
<polygon fill="midnightblue" stroke="midnightblue" points="968.825,-108.405 978.33,-103.726 967.981,-101.456 968.825,-108.405"/>
</g>
<!-- Node5 -->
<g id="node9" class="node"><title>Node5</title>
<a xlink:href="classcorecvs_1_1EllipticalApproximation.html#a1b57876ca04df6425373d909fa6dc2a2" target="_top" xlink:title="corecvs::EllipticalApproximation::getMeanSquare">
<polygon fill="none" stroke="black" points="940,-122.703 940,-143.703 1190,-143.703 1190,-122.703 940,-122.703"/>
<text text-anchor="middle" x="1065" y="-130.703" font-family="FreeSans.ttf" font-size="10.00">corecvs::EllipticalApproximation::getMeanSquare</text>
</a>
</g>
<!-- Node3&#45;&gt;Node5 -->
<g id="edge8" class="edge"><title>Node3&#45;&gt;Node5</title>
<path fill="none" stroke="midnightblue" d="M904.374,-132.177C912.774,-132.231 921.19,-132.285 929.525,-132.338"/>
<polygon fill="midnightblue" stroke="midnightblue" points="929.624,-135.838 939.646,-132.402 929.668,-128.839 929.624,-135.838"/>
</g>
<!-- Node6&#45;&gt;Node4 -->
<g id="edge12" class="edge"><title>Node6&#45;&gt;Node4</title>
<path fill="none" stroke="midnightblue" d="M834.237,-63.713C876.75,-69.146 928.782,-75.7954 972.67,-81.4041"/>
<polygon fill="midnightblue" stroke="midnightblue" points="972.406,-84.8988 982.769,-82.6947 973.294,-77.9552 972.406,-84.8988"/>
</g>
<!-- Node6&#45;&gt;Node7 -->
<g id="edge14" class="edge"><title>Node6&#45;&gt;Node7</title>
<path fill="none" stroke="midnightblue" d="M834.237,-42.6939C885.474,-36.1461 950.535,-27.8315 998.505,-21.7012"/>
<polygon fill="midnightblue" stroke="midnightblue" points="998.995,-25.1671 1008.47,-20.4276 998.108,-18.2236 998.995,-25.1671"/>
</g>
<!-- Node6&#45;&gt;Node8 -->
<g id="edge16" class="edge"><title>Node6&#45;&gt;Node8</title>
<path fill="none" stroke="midnightblue" d="M852.758,-53.2034C900.306,-53.2034 955.751,-53.2034 998.046,-53.2034"/>
<polygon fill="midnightblue" stroke="midnightblue" points="998.227,-56.7035 1008.23,-53.2034 998.227,-49.7035 998.227,-56.7035"/>
</g>
</g>
</svg>
        <g id="navigator" transform="translate(0 0)" fill="#404254">
                <rect fill="#f2f5e9" fill-opacity="0.5" stroke="#606060" stroke-width=".5" x="0" y="0" width="60" height="60"/>
                <use id="zoomplus" xlink:href="#zoomPlus" x="17" y="9" onmousedown="handleZoom(evt,'in')"/>
                <use id="zoomminus" xlink:href="#zoomMin" x="42" y="9" onmousedown="handleZoom(evt,'out')"/>
                <use id="reset" xlink:href="#resetDef" x="30" y="36" onmousedown="handleReset()"/>
                <g id="arrowUp" xlink:href="#dirArrow" transform="translate(30 24)" onmousedown="handlePan(0,-1)">
                  <use xlink:href="#rim" fill="#404040">
                        <set attributeName="fill" to="#808080" begin="arrowUp.mouseover" end="arrowUp.mouseout"/>
                  </use>
                  <path fill="none" stroke="white" stroke-width="1.5" d="M0,-3.0v7 M-2.5,-0.5L0,-3.0L2.5,-0.5"/>
                </g>
                <g id="arrowRight" xlink:href="#dirArrow" transform="rotate(90) translate(36 -43)" onmousedown="handlePan(1,0)">
                  <use xlink:href="#rim" fill="#404040">
                        <set attributeName="fill" to="#808080" begin="arrowRight.mouseover" end="arrowRight.mouseout"/>
                  </use>
                  <path fill="none" stroke="white" stroke-width="1.5" d="M0,-3.0v7 M-2.5,-0.5L0,-3.0L2.5,-0.5"/>
                </g>
                <g id="arrowDown" xlink:href="#dirArrow" transform="rotate(180) translate(-30 -48)" onmousedown="handlePan(0,1)">
                  <use xlink:href="#rim" fill="#404040">
                        <set attributeName="fill" to="#808080" begin="arrowDown.mouseover" end="arrowDown.mouseout"/>
                  </use>
                  <path fill="none" stroke="white" stroke-width="1.5" d="M0,-3.0v7 M-2.5,-0.5L0,-3.0L2.5,-0.5"/>
                </g>
                <g id="arrowLeft" xlink:href="#dirArrow" transform="rotate(270) translate(-36 17)" onmousedown="handlePan(-1,0)">
                  <use xlink:href="#rim" fill="#404040">
                        <set attributeName="fill" to="#808080" begin="arrowLeft.mouseover" end="arrowLeft.mouseout"/>
                  </use>
                  <path fill="none" stroke="white" stroke-width="1.5" d="M0,-3.0v7 M-2.5,-0.5L0,-3.0L2.5,-0.5"/>
                </g>
        </g>
</svg>
