<?xml version="1.0" encoding="UTF-8" standalone="no"?>
<!DOCTYPE svg PUBLIC "-//W3C//DTD SVG 1.1//EN"
 "http://www.w3.org/Graphics/SVG/1.1/DTD/svg11.dtd">
<!-- Generated by graphviz version 2.26.3 (20100126.1600)
 -->
<!-- Title: G Pages: 1 -->
<!--zoomable 146 -->
<svg id="main" version="1.1" xmlns="http://www.w3.org/2000/svg" xmlns:xlink="http://www.w3.org/1999/xlink" xml:space="preserve" onload="init(evt)">
        <defs>
                <circle id="rim" cx="0" cy="0" r="7"/>
                <circle id="rim2" cx="0" cy="0" r="3.5"/>
                <g id="zoomPlus">
                        <use xlink:href="#rim" fill="#404040">
                                <set attributeName="fill" to="#808080" begin="zoomplus.mouseover" end="zoomplus.mouseout"/>
                        </use>
                        <path d="M-4,0h8M0,-4v8" fill="none" stroke="white" stroke-width="1.5" pointer-events="none"/>
                </g>
                <g id="zoomMin">
                        <use xlink:href="#rim" fill="#404040">
                                <set attributeName="fill" to="#808080" begin="zoomminus.mouseover" end="zoomminus.mouseout"/>
                        </use>
                        <path d="M-4,0h8" fill="none" stroke="white" stroke-width="1.5" pointer-events="none"/>
                </g>
                <g id="dirArrow">
                        <path fill="none" stroke="white" stroke-width="1.5" d="M0,-3.0v7 M-2.5,-0.5L0,-3.0L2.5,-0.5"/>
                </g>
               <g id="resetDef">
                       <use xlink:href="#rim2" fill="#404040">
                               <set attributeName="fill" to="#808080" begin="reset.mouseover" end="reset.mouseout"/>
                       </use>
               </g>
        </defs>

<script type="text/javascript">
var viewWidth = 1200;
var viewHeight = 146;
var sectionId = 'dynsection-2';
</script>
<script xlink:href="svgpan.js"/>
<svg id="graph" class="graph">
<g id="viewport">
<title>G</title>
<!-- Node1 -->
<g id="node1" class="node"><title>Node1</title>
<polygon fill="#bfbfbf" stroke="black" points="0,-80.5 0,-101.5 268,-101.5 268,-80.5 0,-80.5"/>
<text text-anchor="middle" x="134" y="-88.5" font-family="FreeSans.ttf" font-size="10.00">corecvs::ModelEssential8Point::ModelEssential8Point</text>
</g>
<!-- Node2 -->
<g id="node3" class="node"><title>Node2</title>
<a xlink:href="classcorecvs_1_1EssentialMatrix.html#ad8914fb6769d240d1b67dd564c8bc38a" target="_top" xlink:title="corecvs::EssentialMatrix::projectToEssential">
<polygon fill="none" stroke="black" points="304.5,-80.5 304.5,-101.5 527.5,-101.5 527.5,-80.5 304.5,-80.5"/>
<text text-anchor="middle" x="416" y="-88.5" font-family="FreeSans.ttf" font-size="10.00">corecvs::EssentialMatrix::projectToEssential</text>
</a>
</g>
<!-- Node1&#45;&gt;Node2 -->
<g id="edge2" class="edge"><title>Node1&#45;&gt;Node2</title>
<path fill="none" stroke="midnightblue" d="M268.393,-91C277.06,-91 285.76,-91 294.362,-91"/>
<polygon fill="midnightblue" stroke="midnightblue" points="294.407,-94.5001 304.407,-91 294.407,-87.5001 294.407,-94.5001"/>
</g>
<!-- Node3 -->
<g id="node5" class="node"><title>Node3</title>
<a xlink:href="classcorecvs_1_1Matrix33.html#a8596ffc77b92da2876c22900c02e9bec" target="_top" xlink:title="Geting Matrix element functions block.">
<polygon fill="none" stroke="black" points="831.5,-99.5 831.5,-120.5 944.5,-120.5 944.5,-99.5 831.5,-99.5"/>
<text text-anchor="middle" x="888" y="-107.5" font-family="FreeSans.ttf" font-size="10.00">corecvs::Matrix33::a</text>
</a>
</g>
<!-- Node2&#45;&gt;Node3 -->
<g id="edge4" class="edge"><title>Node2&#45;&gt;Node3</title>
<path fill="none" stroke="midnightblue" d="M445.853,-101.571C475.411,-111.438 522.18,-125.448 564,-131 649.472,-142.347 672.054,-137.897 758,-131 780.034,-129.232 803.968,-125.804 825.224,-122.222"/>
<polygon fill="midnightblue" stroke="midnightblue" points="825.845,-125.666 835.103,-120.514 824.653,-118.769 825.845,-125.666"/>
</g>
<!-- Node4 -->
<g id="node7" class="node"><title>Node4</title>
<a xlink:href="classcorecvs_1_1VectorOperationsBase.html#a1936a3be5eb2b4252362eadc9e2318a2" target="_top" xlink:title="corecvs::VectorOperationsBase::print">
<polygon fill="none" stroke="black" points="564,-100.5 564,-121.5 758,-121.5 758,-100.5 564,-100.5"/>
<text text-anchor="middle" x="661" y="-108.5" font-family="FreeSans.ttf" font-size="10.00">corecvs::VectorOperationsBase::print</text>
</a>
</g>
<!-- Node2&#45;&gt;Node4 -->
<g id="edge6" class="edge"><title>Node2&#45;&gt;Node4</title>
<path fill="none" stroke="midnightblue" d="M527.746,-100.122C536.363,-100.826 545.052,-101.535 553.64,-102.236"/>
<polygon fill="midnightblue" stroke="midnightblue" points="553.413,-105.729 563.665,-103.054 553.983,-98.7522 553.413,-105.729"/>
</g>
<!-- Node5 -->
<g id="node9" class="node"><title>Node5</title>
<a xlink:href="classcorecvs_1_1Matrix.html#ab00a85b071aab144f3a2860189150e7f" target="_top" xlink:title="This method contains SVD implementation.">
<polygon fill="none" stroke="black" points="605.5,-20.5 605.5,-41.5 716.5,-41.5 716.5,-20.5 605.5,-20.5"/>
<text text-anchor="middle" x="661" y="-28.5" font-family="FreeSans.ttf" font-size="10.00">corecvs::Matrix::svd</text>
</a>
</g>
<!-- Node2&#45;&gt;Node5 -->
<g id="edge8" class="edge"><title>Node2&#45;&gt;Node5</title>
<path fill="none" stroke="midnightblue" d="M452.639,-80.4333C482.494,-71.9839 525.808,-60.0897 564,-51 574.63,-48.4702 585.959,-45.9639 596.986,-43.6255"/>
<polygon fill="midnightblue" stroke="midnightblue" points="597.928,-47.0042 606.999,-41.5292 596.494,-40.1527 597.928,-47.0042"/>
</g>
<!-- Node9 -->
<g id="node17" class="node"><title>Node9</title>
<a xlink:href="classcorecvs_1_1Matrix33.html#a47ef01ae71c641d43e18ce3df9c42228" target="_top" xlink:title="Transposing the matrix.">
<polygon fill="none" stroke="black" points="583.5,-60.5 583.5,-81.5 738.5,-81.5 738.5,-60.5 583.5,-60.5"/>
<text text-anchor="middle" x="661" y="-68.5" font-family="FreeSans.ttf" font-size="10.00">corecvs::Matrix33::transpose</text>
</a>
</g>
<!-- Node2&#45;&gt;Node9 -->
<g id="edge16" class="edge"><title>Node2&#45;&gt;Node9</title>
<path fill="none" stroke="midnightblue" d="M527.746,-81.8779C543.024,-80.6307 558.528,-79.3651 573.295,-78.1596"/>
<polygon fill="midnightblue" stroke="midnightblue" points="573.708,-81.6376 583.39,-77.3355 573.138,-74.6608 573.708,-81.6376"/>
</g>
<!-- Node6 -->
<g id="node11" class="node"><title>Node6</title>
<a xlink:href="classcorecvs_1_1Matrix.html#a5b8b00c8bfc66549652e6c0610457254" target="_top" xlink:title="The element getter for a matrix that is used like vector (i.e has height or width of 1)...">
<polygon fill="none" stroke="black" points="837.5,-40.5 837.5,-61.5 938.5,-61.5 938.5,-40.5 837.5,-40.5"/>
<text text-anchor="middle" x="888" y="-48.5" font-family="FreeSans.ttf" font-size="10.00">corecvs::Matrix::a</text>
</a>
</g>
<!-- Node5&#45;&gt;Node6 -->
<g id="edge10" class="edge"><title>Node5&#45;&gt;Node6</title>
<path fill="none" stroke="midnightblue" d="M716.53,-35.8926C749.956,-38.8375 792.55,-42.5903 826.923,-45.6188"/>
<polygon fill="midnightblue" stroke="midnightblue" points="827.039,-49.1424 837.307,-46.5337 827.653,-42.1694 827.039,-49.1424"/>
</g>
<!-- Node8 -->
<g id="node15" class="node"><title>Node8</title>
<a xlink:href="classcorecvs_1_1Vector2d.html#ab49b551bd23cad02283d6506884bef72" target="_top" xlink:title="corecvs::Vector2d::getLengthStable">
<polygon fill="none" stroke="black" points="794,-0.5 794,-21.5 982,-21.5 982,-0.5 794,-0.5"/>
<text text-anchor="middle" x="888" y="-8.5" font-family="FreeSans.ttf" font-size="10.00">corecvs::Vector2d::getLengthStable</text>
</a>
</g>
<!-- Node5&#45;&gt;Node8 -->
<g id="edge14" class="edge"><title>Node5&#45;&gt;Node8</title>
<path fill="none" stroke="midnightblue" d="M716.53,-26.1074C736.768,-24.3244 760.367,-22.2452 783.467,-20.21"/>
<polygon fill="midnightblue" stroke="midnightblue" points="784.023,-23.6747 793.677,-19.3104 783.408,-16.7017 784.023,-23.6747"/>
</g>
<!-- Node7 -->
<g id="node13" class="node"><title>Node7</title>
<a xlink:href="classcorecvs_1_1AbstractBuffer.html#a98f72526738a0c4ce8a0b72a3b5c28b9" target="_top" xlink:title="The element getter.">
<polygon fill="none" stroke="black" points="1018,-40.5 1018,-61.5 1192,-61.5 1192,-40.5 1018,-40.5"/>
<text text-anchor="middle" x="1105" y="-48.5" font-family="FreeSans.ttf" font-size="10.00">corecvs::AbstractBuffer::element</text>
</a>
</g>
<!-- Node6&#45;&gt;Node7 -->
<g id="edge12" class="edge"><title>Node6&#45;&gt;Node7</title>
<path fill="none" stroke="midnightblue" d="M938.603,-51C959.205,-51 983.745,-51 1007.57,-51"/>
<polygon fill="midnightblue" stroke="midnightblue" points="1007.72,-54.5001 1017.72,-51 1007.72,-47.5001 1007.72,-54.5001"/>
</g>
<!-- Node9&#45;&gt;Node3 -->
<g id="edge18" class="edge"><title>Node9&#45;&gt;Node3</title>
<path fill="none" stroke="midnightblue" d="M722.13,-81.5026C752.82,-86.7752 790.052,-93.172 821.46,-98.568"/>
<polygon fill="midnightblue" stroke="midnightblue" points="820.989,-102.038 831.437,-100.282 822.174,-95.1393 820.989,-102.038"/>
</g>
</g>
</svg>
        <g id="navigator" transform="translate(0 0)" fill="#404254">
                <rect fill="#f2f5e9" fill-opacity="0.5" stroke="#606060" stroke-width=".5" x="0" y="0" width="60" height="60"/>
                <use id="zoomplus" xlink:href="#zoomPlus" x="17" y="9" onmousedown="handleZoom(evt,'in')"/>
                <use id="zoomminus" xlink:href="#zoomMin" x="42" y="9" onmousedown="handleZoom(evt,'out')"/>
                <use id="reset" xlink:href="#resetDef" x="30" y="36" onmousedown="handleReset()"/>
                <g id="arrowUp" xlink:href="#dirArrow" transform="translate(30 24)" onmousedown="handlePan(0,-1)">
                  <use xlink:href="#rim" fill="#404040">
                        <set attributeName="fill" to="#808080" begin="arrowUp.mouseover" end="arrowUp.mouseout"/>
                  </use>
                  <path fill="none" stroke="white" stroke-width="1.5" d="M0,-3.0v7 M-2.5,-0.5L0,-3.0L2.5,-0.5"/>
                </g>
                <g id="arrowRight" xlink:href="#dirArrow" transform="rotate(90) translate(36 -43)" onmousedown="handlePan(1,0)">
                  <use xlink:href="#rim" fill="#404040">
                        <set attributeName="fill" to="#808080" begin="arrowRight.mouseover" end="arrowRight.mouseout"/>
                  </use>
                  <path fill="none" stroke="white" stroke-width="1.5" d="M0,-3.0v7 M-2.5,-0.5L0,-3.0L2.5,-0.5"/>
                </g>
                <g id="arrowDown" xlink:href="#dirArrow" transform="rotate(180) translate(-30 -48)" onmousedown="handlePan(0,1)">
                  <use xlink:href="#rim" fill="#404040">
                        <set attributeName="fill" to="#808080" begin="arrowDown.mouseover" end="arrowDown.mouseout"/>
                  </use>
                  <path fill="none" stroke="white" stroke-width="1.5" d="M0,-3.0v7 M-2.5,-0.5L0,-3.0L2.5,-0.5"/>
                </g>
                <g id="arrowLeft" xlink:href="#dirArrow" transform="rotate(270) translate(-36 17)" onmousedown="handlePan(-1,0)">
                  <use xlink:href="#rim" fill="#404040">
                        <set attributeName="fill" to="#808080" begin="arrowLeft.mouseover" end="arrowLeft.mouseout"/>
                  </use>
                  <path fill="none" stroke="white" stroke-width="1.5" d="M0,-3.0v7 M-2.5,-0.5L0,-3.0L2.5,-0.5"/>
                </g>
        </g>
</svg>
