<?xml version="1.0" encoding="UTF-8" standalone="no"?>
<!DOCTYPE svg PUBLIC "-//W3C//DTD SVG 1.1//EN"
 "http://www.w3.org/Graphics/SVG/1.1/DTD/svg11.dtd">
<!-- Generated by graphviz version 2.26.3 (20100126.1600)
 -->
<!-- Title: G Pages: 1 -->
<!--zoomable 110 -->
<svg id="main" version="1.1" xmlns="http://www.w3.org/2000/svg" xmlns:xlink="http://www.w3.org/1999/xlink" xml:space="preserve" onload="init(evt)">
        <defs>
                <circle id="rim" cx="0" cy="0" r="7"/>
                <circle id="rim2" cx="0" cy="0" r="3.5"/>
                <g id="zoomPlus">
                        <use xlink:href="#rim" fill="#404040">
                                <set attributeName="fill" to="#808080" begin="zoomplus.mouseover" end="zoomplus.mouseout"/>
                        </use>
                        <path d="M-4,0h8M0,-4v8" fill="none" stroke="white" stroke-width="1.5" pointer-events="none"/>
                </g>
                <g id="zoomMin">
                        <use xlink:href="#rim" fill="#404040">
                                <set attributeName="fill" to="#808080" begin="zoomminus.mouseover" end="zoomminus.mouseout"/>
                        </use>
                        <path d="M-4,0h8" fill="none" stroke="white" stroke-width="1.5" pointer-events="none"/>
                </g>
                <g id="dirArrow">
                        <path fill="none" stroke="white" stroke-width="1.5" d="M0,-3.0v7 M-2.5,-0.5L0,-3.0L2.5,-0.5"/>
                </g>
               <g id="resetDef">
                       <use xlink:href="#rim2" fill="#404040">
                               <set attributeName="fill" to="#808080" begin="reset.mouseover" end="reset.mouseout"/>
                       </use>
               </g>
        </defs>

<script type="text/javascript">
var viewWidth = 666;
var viewHeight = 110;
var sectionId = 'dynsection-33';
</script>
<script xlink:href="svgpan.js"/>
<svg id="graph" class="graph">
<g id="viewport">
<title>G</title>
<!-- Node1 -->
<g id="node1" class="node"><title>Node1</title>
<polygon fill="#bfbfbf" stroke="black" points="0.5,-40.5 0.5,-61.5 201.5,-61.5 201.5,-40.5 0.5,-40.5"/>
<text text-anchor="middle" x="101" y="-48.5" font-family="FreeSans.ttf" font-size="10.00">PaintImageWidget::toolButtonReleased</text>
</g>
<!-- Node2 -->
<g id="node3" class="node"><title>Node2</title>
<a xlink:href="classPaintImageWidget.html#a570ccd098d1ab60c3b6d923ea2a7320f" target="_top" xlink:title="PaintImageWidget::addVertexToPath">
<polygon fill="none" stroke="black" points="240,-80.5 240,-101.5 428,-101.5 428,-80.5 240,-80.5"/>
<text text-anchor="middle" x="334" y="-88.5" font-family="FreeSans.ttf" font-size="10.00">PaintImageWidget::addVertexToPath</text>
</a>
</g>
<!-- Node1&#45;&gt;Node2 -->
<g id="edge2" class="edge"><title>Node1&#45;&gt;Node2</title>
<path fill="none" stroke="midnightblue" d="M162.218,-61.5095C192.999,-66.7938 230.483,-73.2289 262.573,-78.7378"/>
<polygon fill="midnightblue" stroke="midnightblue" points="262.339,-82.2488 272.787,-80.4913 263.523,-75.3497 262.339,-82.2488"/>
</g>
<!-- Node3 -->
<g id="node5" class="node"><title>Node3</title>
<a xlink:href="classPaintImageWidget.html#a34294cd930665994948b5bdc26f9235a" target="_top" xlink:title="PaintImageWidget::clickOnToolButton">
<polygon fill="none" stroke="black" points="238,-40.5 238,-61.5 430,-61.5 430,-40.5 238,-40.5"/>
<text text-anchor="middle" x="334" y="-48.5" font-family="FreeSans.ttf" font-size="10.00">PaintImageWidget::clickOnToolButton</text>
</a>
</g>
<!-- Node1&#45;&gt;Node3 -->
<g id="edge4" class="edge"><title>Node1&#45;&gt;Node3</title>
<path fill="none" stroke="midnightblue" d="M201.504,-51C210.179,-51 218.975,-51 227.695,-51"/>
<polygon fill="midnightblue" stroke="midnightblue" points="227.883,-54.5001 237.883,-51 227.883,-47.5001 227.883,-54.5001"/>
</g>
<!-- Node5 -->
<g id="node9" class="node"><title>Node5</title>
<a xlink:href="classPaintImageWidget.html#a8ded543c268b2630bfd1daf82943678f" target="_top" xlink:title="PaintImageWidget::deleteVertex">
<polygon fill="none" stroke="black" points="249.5,-0.5 249.5,-21.5 418.5,-21.5 418.5,-0.5 249.5,-0.5"/>
<text text-anchor="middle" x="334" y="-8.5" font-family="FreeSans.ttf" font-size="10.00">PaintImageWidget::deleteVertex</text>
</a>
</g>
<!-- Node1&#45;&gt;Node5 -->
<g id="edge8" class="edge"><title>Node1&#45;&gt;Node5</title>
<path fill="none" stroke="midnightblue" d="M162.218,-40.4905C192.999,-35.2062 230.483,-28.7711 262.573,-23.2622"/>
<polygon fill="midnightblue" stroke="midnightblue" points="263.523,-26.6503 272.787,-21.5087 262.339,-19.7512 263.523,-26.6503"/>
</g>
<!-- Node4 -->
<g id="node7" class="node"><title>Node4</title>
<a xlink:href="classPaintImageWidget.html#a995b489de8a65f42e458a9d43cb3d2c8" target="_top" xlink:title="PaintImageWidget::toolButtonClicked">
<polygon fill="none" stroke="black" points="466,-40.5 466,-61.5 658,-61.5 658,-40.5 466,-40.5"/>
<text text-anchor="middle" x="562" y="-48.5" font-family="FreeSans.ttf" font-size="10.00">PaintImageWidget::toolButtonClicked</text>
</a>
</g>
<!-- Node3&#45;&gt;Node4 -->
<g id="edge6" class="edge"><title>Node3&#45;&gt;Node4</title>
<path fill="none" stroke="midnightblue" d="M430.032,-51C438.517,-51 447.138,-51 455.7,-51"/>
<polygon fill="midnightblue" stroke="midnightblue" points="455.714,-54.5001 465.714,-51 455.714,-47.5001 455.714,-54.5001"/>
</g>
</g>
</svg>
        <g id="navigator" transform="translate(0 0)" fill="#404254">
                <rect fill="#f2f5e9" fill-opacity="0.5" stroke="#606060" stroke-width=".5" x="0" y="0" width="60" height="60"/>
                <use id="zoomplus" xlink:href="#zoomPlus" x="17" y="9" onmousedown="handleZoom(evt,'in')"/>
                <use id="zoomminus" xlink:href="#zoomMin" x="42" y="9" onmousedown="handleZoom(evt,'out')"/>
                <use id="reset" xlink:href="#resetDef" x="30" y="36" onmousedown="handleReset()"/>
                <g id="arrowUp" xlink:href="#dirArrow" transform="translate(30 24)" onmousedown="handlePan(0,-1)">
                  <use xlink:href="#rim" fill="#404040">
                        <set attributeName="fill" to="#808080" begin="arrowUp.mouseover" end="arrowUp.mouseout"/>
                  </use>
                  <path fill="none" stroke="white" stroke-width="1.5" d="M0,-3.0v7 M-2.5,-0.5L0,-3.0L2.5,-0.5"/>
                </g>
                <g id="arrowRight" xlink:href="#dirArrow" transform="rotate(90) translate(36 -43)" onmousedown="handlePan(1,0)">
                  <use xlink:href="#rim" fill="#404040">
                        <set attributeName="fill" to="#808080" begin="arrowRight.mouseover" end="arrowRight.mouseout"/>
                  </use>
                  <path fill="none" stroke="white" stroke-width="1.5" d="M0,-3.0v7 M-2.5,-0.5L0,-3.0L2.5,-0.5"/>
                </g>
                <g id="arrowDown" xlink:href="#dirArrow" transform="rotate(180) translate(-30 -48)" onmousedown="handlePan(0,1)">
                  <use xlink:href="#rim" fill="#404040">
                        <set attributeName="fill" to="#808080" begin="arrowDown.mouseover" end="arrowDown.mouseout"/>
                  </use>
                  <path fill="none" stroke="white" stroke-width="1.5" d="M0,-3.0v7 M-2.5,-0.5L0,-3.0L2.5,-0.5"/>
                </g>
                <g id="arrowLeft" xlink:href="#dirArrow" transform="rotate(270) translate(-36 17)" onmousedown="handlePan(-1,0)">
                  <use xlink:href="#rim" fill="#404040">
                        <set attributeName="fill" to="#808080" begin="arrowLeft.mouseover" end="arrowLeft.mouseout"/>
                  </use>
                  <path fill="none" stroke="white" stroke-width="1.5" d="M0,-3.0v7 M-2.5,-0.5L0,-3.0L2.5,-0.5"/>
                </g>
        </g>
</svg>
