<?xml version="1.0" encoding="UTF-8" standalone="no"?>
<!DOCTYPE svg PUBLIC "-//W3C//DTD SVG 1.1//EN"
 "http://www.w3.org/Graphics/SVG/1.1/DTD/svg11.dtd">
<!-- Generated by graphviz version 2.26.3 (20100126.1600)
 -->
<!-- Title: G Pages: 1 -->
<!--zoomable 210 -->
<svg id="main" version="1.1" xmlns="http://www.w3.org/2000/svg" xmlns:xlink="http://www.w3.org/1999/xlink" xml:space="preserve" onload="init(evt)">
        <defs>
                <circle id="rim" cx="0" cy="0" r="7"/>
                <circle id="rim2" cx="0" cy="0" r="3.5"/>
                <g id="zoomPlus">
                        <use xlink:href="#rim" fill="#404040">
                                <set attributeName="fill" to="#808080" begin="zoomplus.mouseover" end="zoomplus.mouseout"/>
                        </use>
                        <path d="M-4,0h8M0,-4v8" fill="none" stroke="white" stroke-width="1.5" pointer-events="none"/>
                </g>
                <g id="zoomMin">
                        <use xlink:href="#rim" fill="#404040">
                                <set attributeName="fill" to="#808080" begin="zoomminus.mouseover" end="zoomminus.mouseout"/>
                        </use>
                        <path d="M-4,0h8" fill="none" stroke="white" stroke-width="1.5" pointer-events="none"/>
                </g>
                <g id="dirArrow">
                        <path fill="none" stroke="white" stroke-width="1.5" d="M0,-3.0v7 M-2.5,-0.5L0,-3.0L2.5,-0.5"/>
                </g>
               <g id="resetDef">
                       <use xlink:href="#rim2" fill="#404040">
                               <set attributeName="fill" to="#808080" begin="reset.mouseover" end="reset.mouseout"/>
                       </use>
               </g>
        </defs>

<script type="text/javascript">
var viewWidth = 950;
var viewHeight = 210;
var sectionId = 'dynsection-4';
</script>
<script xlink:href="svgpan.js"/>
<svg id="graph" class="graph">
<g id="viewport">
<title>G</title>
<!-- Node1 -->
<g id="node1" class="node"><title>Node1</title>
<polygon fill="#bfbfbf" stroke="black" points="0,-140.5 0,-161.5 290,-161.5 290,-140.5 0,-140.5"/>
<text text-anchor="middle" x="145" y="-148.5" font-family="FreeSans.ttf" font-size="10.00">OpenCVFilterParametersControlWidget::loadParamWidget</text>
</g>
<!-- Node2 -->
<g id="node3" class="node"><title>Node2</title>
<a xlink:href="classOpenCVFilterParametersControlWidget.html#a6a04cbc1cbc262ab65401d3a12aa9d7b" target="_top" xlink:title="OpenCVFilterParametersControlWidget::createParameters">
<polygon fill="none" stroke="black" points="326.5,-180.5 326.5,-201.5 619.5,-201.5 619.5,-180.5 326.5,-180.5"/>
<text text-anchor="middle" x="473" y="-188.5" font-family="FreeSans.ttf" font-size="10.00">OpenCVFilterParametersControlWidget::createParameters</text>
</a>
</g>
<!-- Node1&#45;&gt;Node2 -->
<g id="edge2" class="edge"><title>Node1&#45;&gt;Node2</title>
<path fill="none" stroke="midnightblue" d="M231.178,-161.51C275.916,-166.965 330.713,-173.648 376.826,-179.271"/>
<polygon fill="midnightblue" stroke="midnightblue" points="376.478,-182.755 386.829,-180.491 377.326,-175.806 376.478,-182.755"/>
</g>
<!-- Node3 -->
<g id="node5" class="node"><title>Node3</title>
<a xlink:href="classWidgetLoader.html#af26226b345e783f1a39c28dcdfed26c8" target="_top" xlink:title="WidgetLoader::loadParameters">
<polygon fill="none" stroke="black" points="391,-140.5 391,-161.5 555,-161.5 555,-140.5 391,-140.5"/>
<text text-anchor="middle" x="473" y="-148.5" font-family="FreeSans.ttf" font-size="10.00">WidgetLoader::loadParameters</text>
</a>
</g>
<!-- Node1&#45;&gt;Node3 -->
<g id="edge4" class="edge"><title>Node1&#45;&gt;Node3</title>
<path fill="none" stroke="midnightblue" d="M290.298,-151C320.973,-151 352.533,-151 380.609,-151"/>
<polygon fill="midnightblue" stroke="midnightblue" points="380.787,-154.5 390.786,-151 380.786,-147.5 380.787,-154.5"/>
</g>
<!-- Node5 -->
<g id="node9" class="node"><title>Node5</title>
<a xlink:href="classOpenCVFilterParametersControlWidget.html#a7e8056f9cffec86da5f5f9c8e282e296" target="_top" xlink:title="OpenCVFilterParametersControlWidget::setParameters">
<polygon fill="none" stroke="black" points="334.5,-80.5 334.5,-101.5 611.5,-101.5 611.5,-80.5 334.5,-80.5"/>
<text text-anchor="middle" x="473" y="-88.5" font-family="FreeSans.ttf" font-size="10.00">OpenCVFilterParametersControlWidget::setParameters</text>
</a>
</g>
<!-- Node1&#45;&gt;Node5 -->
<g id="edge8" class="edge"><title>Node1&#45;&gt;Node5</title>
<path fill="none" stroke="midnightblue" d="M202.509,-140.48C259.129,-130.123 345.584,-114.308 405.446,-103.357"/>
<polygon fill="midnightblue" stroke="midnightblue" points="406.351,-106.75 415.557,-101.508 405.091,-99.8644 406.351,-106.75"/>
</g>
<!-- Node4 -->
<g id="node7" class="node"><title>Node4</title>
<a xlink:href="classSettingsGetter.html#ad816b845b4cfc8323d3d559a0f6a13ae" target="_top" xlink:title="SettingsGetter::settings">
<polygon fill="none" stroke="black" points="733.5,-160.5 733.5,-181.5 864.5,-181.5 864.5,-160.5 733.5,-160.5"/>
<text text-anchor="middle" x="799" y="-168.5" font-family="FreeSans.ttf" font-size="10.00">SettingsGetter::settings</text>
</a>
</g>
<!-- Node3&#45;&gt;Node4 -->
<g id="edge6" class="edge"><title>Node3&#45;&gt;Node4</title>
<path fill="none" stroke="midnightblue" d="M555.264,-156.047C606.88,-159.213 672.946,-163.267 723.272,-166.354"/>
<polygon fill="midnightblue" stroke="midnightblue" points="723.244,-169.859 733.44,-166.978 723.673,-162.872 723.244,-169.859"/>
</g>
<!-- Node6 -->
<g id="node11" class="node"><title>Node6</title>
<a xlink:href="classOpenCVFilterParameters.html#ae9b89822f0a0156c1fc5ef7f87b4397e" target="_top" xlink:title="OpenCVFilterParameters::openCVFilter">
<polygon fill="none" stroke="black" points="699,-120.5 699,-141.5 899,-141.5 899,-120.5 699,-120.5"/>
<text text-anchor="middle" x="799" y="-128.5" font-family="FreeSans.ttf" font-size="10.00">OpenCVFilterParameters::openCVFilter</text>
</a>
</g>
<!-- Node5&#45;&gt;Node6 -->
<g id="edge10" class="edge"><title>Node5&#45;&gt;Node6</title>
<path fill="none" stroke="midnightblue" d="M558.653,-101.51C603.118,-106.965 657.581,-113.648 703.412,-119.271"/>
<polygon fill="midnightblue" stroke="midnightblue" points="703.002,-122.747 713.354,-120.491 703.855,-115.799 703.002,-122.747"/>
</g>
<!-- Node7 -->
<g id="node13" class="node"><title>Node7</title>
<a xlink:href="classOpenCVFilterParameters.html#a3b4653ac0701f5c8acbe9f441343e47d" target="_top" xlink:title="OpenCVFilterParameters::param1">
<polygon fill="none" stroke="black" points="710.5,-80.5 710.5,-101.5 887.5,-101.5 887.5,-80.5 710.5,-80.5"/>
<text text-anchor="middle" x="799" y="-88.5" font-family="FreeSans.ttf" font-size="10.00">OpenCVFilterParameters::param1</text>
</a>
</g>
<!-- Node5&#45;&gt;Node7 -->
<g id="edge12" class="edge"><title>Node5&#45;&gt;Node7</title>
<path fill="none" stroke="midnightblue" d="M611.726,-91C641.514,-91 672.409,-91 700.31,-91"/>
<polygon fill="midnightblue" stroke="midnightblue" points="700.446,-94.5001 710.446,-91 700.446,-87.5001 700.446,-94.5001"/>
</g>
<!-- Node8 -->
<g id="node15" class="node"><title>Node8</title>
<a xlink:href="classOpenCVFilterParameters.html#a5ab270577a1d1c06652d16f77a347110" target="_top" xlink:title="OpenCVFilterParameters::param2">
<polygon fill="none" stroke="black" points="710.5,-40.5 710.5,-61.5 887.5,-61.5 887.5,-40.5 710.5,-40.5"/>
<text text-anchor="middle" x="799" y="-48.5" font-family="FreeSans.ttf" font-size="10.00">OpenCVFilterParameters::param2</text>
</a>
</g>
<!-- Node5&#45;&gt;Node8 -->
<g id="edge14" class="edge"><title>Node5&#45;&gt;Node8</title>
<path fill="none" stroke="midnightblue" d="M558.653,-80.4905C603.118,-75.0346 657.581,-68.3521 703.412,-62.7286"/>
<polygon fill="midnightblue" stroke="midnightblue" points="703.855,-66.2006 713.354,-61.5087 703.002,-59.2527 703.855,-66.2006"/>
</g>
<!-- Node9 -->
<g id="node17" class="node"><title>Node9</title>
<a xlink:href="classOpenCVFilterParametersControlWidget.html#ada1b24f70c1ac59cc726ab89a305f062" target="_top" xlink:title="OpenCVFilterParametersControlWidget::paramsChanged">
<polygon fill="none" stroke="black" points="656,-0.5 656,-21.5 942,-21.5 942,-0.5 656,-0.5"/>
<text text-anchor="middle" x="799" y="-8.5" font-family="FreeSans.ttf" font-size="10.00">OpenCVFilterParametersControlWidget::paramsChanged</text>
</a>
</g>
<!-- Node5&#45;&gt;Node9 -->
<g id="edge16" class="edge"><title>Node5&#45;&gt;Node9</title>
<path fill="none" stroke="midnightblue" d="M500.16,-80.4057C535.521,-67.0065 599.49,-44.1058 656,-31 668.969,-27.9922 682.712,-25.3716 696.349,-23.1069"/>
<polygon fill="midnightblue" stroke="midnightblue" points="696.927,-26.559 706.248,-21.5204 695.82,-19.6472 696.927,-26.559"/>
</g>
</g>
</svg>
        <g id="navigator" transform="translate(0 0)" fill="#404254">
                <rect fill="#f2f5e9" fill-opacity="0.5" stroke="#606060" stroke-width=".5" x="0" y="0" width="60" height="60"/>
                <use id="zoomplus" xlink:href="#zoomPlus" x="17" y="9" onmousedown="handleZoom(evt,'in')"/>
                <use id="zoomminus" xlink:href="#zoomMin" x="42" y="9" onmousedown="handleZoom(evt,'out')"/>
                <use id="reset" xlink:href="#resetDef" x="30" y="36" onmousedown="handleReset()"/>
                <g id="arrowUp" xlink:href="#dirArrow" transform="translate(30 24)" onmousedown="handlePan(0,-1)">
                  <use xlink:href="#rim" fill="#404040">
                        <set attributeName="fill" to="#808080" begin="arrowUp.mouseover" end="arrowUp.mouseout"/>
                  </use>
                  <path fill="none" stroke="white" stroke-width="1.5" d="M0,-3.0v7 M-2.5,-0.5L0,-3.0L2.5,-0.5"/>
                </g>
                <g id="arrowRight" xlink:href="#dirArrow" transform="rotate(90) translate(36 -43)" onmousedown="handlePan(1,0)">
                  <use xlink:href="#rim" fill="#404040">
                        <set attributeName="fill" to="#808080" begin="arrowRight.mouseover" end="arrowRight.mouseout"/>
                  </use>
                  <path fill="none" stroke="white" stroke-width="1.5" d="M0,-3.0v7 M-2.5,-0.5L0,-3.0L2.5,-0.5"/>
                </g>
                <g id="arrowDown" xlink:href="#dirArrow" transform="rotate(180) translate(-30 -48)" onmousedown="handlePan(0,1)">
                  <use xlink:href="#rim" fill="#404040">
                        <set attributeName="fill" to="#808080" begin="arrowDown.mouseover" end="arrowDown.mouseout"/>
                  </use>
                  <path fill="none" stroke="white" stroke-width="1.5" d="M0,-3.0v7 M-2.5,-0.5L0,-3.0L2.5,-0.5"/>
                </g>
                <g id="arrowLeft" xlink:href="#dirArrow" transform="rotate(270) translate(-36 17)" onmousedown="handlePan(-1,0)">
                  <use xlink:href="#rim" fill="#404040">
                        <set attributeName="fill" to="#808080" begin="arrowLeft.mouseover" end="arrowLeft.mouseout"/>
                  </use>
                  <path fill="none" stroke="white" stroke-width="1.5" d="M0,-3.0v7 M-2.5,-0.5L0,-3.0L2.5,-0.5"/>
                </g>
        </g>
</svg>
