<?xml version="1.0" encoding="UTF-8" standalone="no"?>
<!DOCTYPE svg PUBLIC "-//W3C//DTD SVG 1.1//EN"
 "http://www.w3.org/Graphics/SVG/1.1/DTD/svg11.dtd">
<!-- Generated by graphviz version 2.26.3 (20100126.1600)
 -->
<!-- Title: G Pages: 1 -->
<svg width="280pt" height="146pt"
 viewBox="0.00 0.00 280.00 146.00" xmlns="http://www.w3.org/2000/svg" xmlns:xlink="http://www.w3.org/1999/xlink">
<g id="graph1" class="graph" transform="scale(1 1) rotate(0) translate(4 142)">
<title>G</title>
<!-- Node1 -->
<g id="node1" class="node"><title>Node1</title>
<polygon fill="#bfbfbf" stroke="black" points="84,-0.5 84,-21.5 188,-21.5 188,-0.5 84,-0.5"/>
<text text-anchor="middle" x="136" y="-8.5" font-family="FreeSans.ttf" font-size="10.00">corecvs::RGBColor</text>
</g>
<!-- Node2 -->
<g id="node2" class="node"><title>Node2</title>
<a xlink:href="classcorecvs_1_1FixedVectorBase.html" target="_top" xlink:title="corecvs::FixedVectorBase\&lt; RGBColor, uint8_t, 4 \&gt;">
<polygon fill="none" stroke="black" points="7.5,-58.5 7.5,-79.5 264.5,-79.5 264.5,-58.5 7.5,-58.5"/>
<text text-anchor="middle" x="136" y="-66.5" font-family="FreeSans.ttf" font-size="10.00">corecvs::FixedVectorBase&lt; RGBColor, uint8_t, 4 &gt;</text>
</a>
</g>
<!-- Node2&#45;&gt;Node1 -->
<g id="edge2" class="edge"><title>Node2&#45;&gt;Node1</title>
<path fill="none" stroke="midnightblue" d="M136,-48.1906C136,-39.1684 136,-28.9941 136,-21.5707"/>
<polygon fill="midnightblue" stroke="midnightblue" points="132.5,-48.3619 136,-58.3619 139.5,-48.3619 132.5,-48.3619"/>
</g>
<!-- Node3 -->
<g id="node4" class="node"><title>Node3</title>
<a xlink:href="classcorecvs_1_1VectorOperationsBase.html" target="_top" xlink:title="corecvs::VectorOperationsBase\&lt; RGBColor, uint8_t \&gt;">
<polygon fill="none" stroke="black" points="-0.5,-116.5 -0.5,-137.5 272.5,-137.5 272.5,-116.5 -0.5,-116.5"/>
<text text-anchor="middle" x="136" y="-124.5" font-family="FreeSans.ttf" font-size="10.00">corecvs::VectorOperationsBase&lt; RGBColor, uint8_t &gt;</text>
</a>
</g>
<!-- Node3&#45;&gt;Node2 -->
<g id="edge4" class="edge"><title>Node3&#45;&gt;Node2</title>
<path fill="none" stroke="midnightblue" d="M136,-106.191C136,-97.1684 136,-86.9941 136,-79.5707"/>
<polygon fill="midnightblue" stroke="midnightblue" points="132.5,-106.362 136,-116.362 139.5,-106.362 132.5,-106.362"/>
</g>
</g>
</svg>
