<?xml version="1.0" encoding="UTF-8" standalone="no"?>
<!DOCTYPE svg PUBLIC "-//W3C//DTD SVG 1.1//EN"
 "http://www.w3.org/Graphics/SVG/1.1/DTD/svg11.dtd">
<!-- Generated by graphviz version 2.26.3 (20100126.1600)
 -->
<!-- Title: G Pages: 1 -->
<!--zoomable 672 -->
<svg id="main" version="1.1" xmlns="http://www.w3.org/2000/svg" xmlns:xlink="http://www.w3.org/1999/xlink" xml:space="preserve" onload="init(evt)">
        <defs>
                <circle id="rim" cx="0" cy="0" r="7"/>
                <circle id="rim2" cx="0" cy="0" r="3.5"/>
                <g id="zoomPlus">
                        <use xlink:href="#rim" fill="#404040">
                                <set attributeName="fill" to="#808080" begin="zoomplus.mouseover" end="zoomplus.mouseout"/>
                        </use>
                        <path d="M-4,0h8M0,-4v8" fill="none" stroke="white" stroke-width="1.5" pointer-events="none"/>
                </g>
                <g id="zoomMin">
                        <use xlink:href="#rim" fill="#404040">
                                <set attributeName="fill" to="#808080" begin="zoomminus.mouseover" end="zoomminus.mouseout"/>
                        </use>
                        <path d="M-4,0h8" fill="none" stroke="white" stroke-width="1.5" pointer-events="none"/>
                </g>
                <g id="dirArrow">
                        <path fill="none" stroke="white" stroke-width="1.5" d="M0,-3.0v7 M-2.5,-0.5L0,-3.0L2.5,-0.5"/>
                </g>
               <g id="resetDef">
                       <use xlink:href="#rim2" fill="#404040">
                               <set attributeName="fill" to="#808080" begin="reset.mouseover" end="reset.mouseout"/>
                       </use>
               </g>
        </defs>

<script type="text/javascript">
var viewWidth = 1440;
var viewHeight = 672;
var sectionId = 'dynsection-1';
</script>
<script xlink:href="svgpan.js"/>
<svg id="graph" class="graph">
<g id="viewport">
<title>G</title>
<!-- Node1 -->
<g id="node1" class="node"><title>Node1</title>
<polygon fill="#bfbfbf" stroke="black" points="0,-148.5 0,-169.5 214,-169.5 214,-148.5 0,-148.5"/>
<text text-anchor="middle" x="107" y="-156.5" font-family="FreeSans.ttf" font-size="10.00">corecvs::FiltersCollection::FiltersCollection</text>
</g>
<!-- Node2 -->
<g id="node3" class="node"><title>Node2</title>
<a xlink:href="classtinyxml2_1_1XMLElement.html#a7bdebdf1888074087237f3dd03912740" target="_top" xlink:title="Given an attribute name, Attribute() returns the value for the attribute of that name, or null if none exists.">
<polygon fill="none" stroke="black" points="567,-503.5 567,-524.5 737,-524.5 737,-503.5 567,-503.5"/>
<text text-anchor="middle" x="652" y="-511.5" font-family="FreeSans.ttf" font-size="10.00">tinyxml2::XMLElement::Attribute</text>
</a>
</g>
<!-- Node1&#45;&gt;Node2 -->
<g id="edge2" class="edge"><title>Node1&#45;&gt;Node2</title>
<path fill="none" stroke="midnightblue" d="M118.733,-169.771C142.534,-191.367 198.601,-240.977 250,-277 319.492,-325.704 544.438,-453.397 623.889,-498.193"/>
<polygon fill="midnightblue" stroke="midnightblue" points="622.407,-501.375 632.837,-503.235 625.843,-495.277 622.407,-501.375"/>
</g>
<!-- Node8 -->
<g id="node17" class="node"><title>Node8</title>
<a xlink:href="classtinyxml2_1_1XMLNode.html#a60e923d13d7dc01f45ab90a2f948b02a" target="_top" xlink:title="Get the first child node, or null if none exists.">
<polygon fill="none" stroke="black" points="301.5,-80.5 301.5,-101.5 458.5,-101.5 458.5,-80.5 301.5,-80.5"/>
<text text-anchor="middle" x="380" y="-88.5" font-family="FreeSans.ttf" font-size="10.00">tinyxml2::XMLNode::FirstChild</text>
</a>
</g>
<!-- Node1&#45;&gt;Node8 -->
<g id="edge18" class="edge"><title>Node1&#45;&gt;Node8</title>
<path fill="none" stroke="midnightblue" d="M138.55,-148.5C167.357,-139.155 211.23,-125.53 250,-116 268.729,-111.396 289.149,-107.124 308.138,-103.461"/>
<polygon fill="midnightblue" stroke="midnightblue" points="309.048,-106.851 318.219,-101.547 307.742,-99.9737 309.048,-106.851"/>
</g>
<!-- Node9 -->
<g id="node19" class="node"><title>Node9</title>
<a xlink:href="classcorecvs_1_1FiltersCollection.html#a49429c845b634593c6350074e9c9c350" target="_top" xlink:title="corecvs::FiltersCollection::getContainedBlocks">
<polygon fill="none" stroke="black" points="262.5,-246.5 262.5,-267.5 497.5,-267.5 497.5,-246.5 262.5,-246.5"/>
<text text-anchor="middle" x="380" y="-254.5" font-family="FreeSans.ttf" font-size="10.00">corecvs::FiltersCollection::getContainedBlocks</text>
</a>
</g>
<!-- Node1&#45;&gt;Node9 -->
<g id="edge20" class="edge"><title>Node1&#45;&gt;Node9</title>
<path fill="none" stroke="midnightblue" d="M136.475,-169.581C186.03,-187.37 286.018,-223.263 341.211,-243.076"/>
<polygon fill="midnightblue" stroke="midnightblue" points="340.054,-246.379 350.648,-246.463 342.419,-239.791 340.054,-246.379"/>
</g>
<!-- Node22 -->
<g id="node47" class="node"><title>Node22</title>
<a xlink:href="classtinyxml2_1_1XMLNode.html#aab516e699567f75cc9ab2ef2eee501e8" target="_top" xlink:title="Safely cast to an Element, or null.">
<polygon fill="none" stroke="black" points="1050,-46.5 1050,-67.5 1214,-67.5 1214,-46.5 1050,-46.5"/>
<text text-anchor="middle" x="1132" y="-54.5" font-family="FreeSans.ttf" font-size="10.00">tinyxml2::XMLNode::ToElement</text>
</a>
</g>
<!-- Node1&#45;&gt;Node22 -->
<g id="edge102" class="edge"><title>Node1&#45;&gt;Node22</title>
<path fill="none" stroke="midnightblue" d="M212.832,-148.468C414.211,-128.429 849.385,-85.1236 1039.72,-66.1826"/>
<polygon fill="midnightblue" stroke="midnightblue" points="1040.1,-69.6627 1049.7,-65.1896 1039.41,-62.6971 1040.1,-69.6627"/>
</g>
<!-- Node28 -->
<g id="node64" class="node"><title>Node28</title>
<a xlink:href="classtinyxml2_1_1XMLElement.html#af86f05771c11a73a2896b662bb589ef5" target="_top" xlink:title="Given an attribute name, IntAttribute() returns the value of the attribute interpreted as an integer...">
<polygon fill="none" stroke="black" points="289,-443.5 289,-464.5 471,-464.5 471,-443.5 289,-443.5"/>
<text text-anchor="middle" x="380" y="-451.5" font-family="FreeSans.ttf" font-size="10.00">tinyxml2::XMLElement::IntAttribute</text>
</a>
</g>
<!-- Node1&#45;&gt;Node28 -->
<g id="edge72" class="edge"><title>Node1&#45;&gt;Node28</title>
<path fill="none" stroke="midnightblue" d="M109.183,-169.678C118.178,-210.76 156.394,-359.762 250,-429 258.771,-435.488 268.759,-440.429 279.211,-444.174"/>
<polygon fill="midnightblue" stroke="midnightblue" points="278.328,-447.567 288.919,-447.288 280.466,-440.901 278.328,-447.567"/>
</g>
<!-- Node32 -->
<g id="node74" class="node"><title>Node32</title>
<a xlink:href="classtinyxml2_1_1XMLDocument.html#a2ebd4647a8af5fc6831b294ac26a150a" target="_top" xlink:title="Load an XML file from disk.">
<polygon fill="none" stroke="black" points="563.5,-187.5 563.5,-208.5 740.5,-208.5 740.5,-187.5 563.5,-187.5"/>
<text text-anchor="middle" x="652" y="-195.5" font-family="FreeSans.ttf" font-size="10.00">tinyxml2::XMLDocument::LoadFile</text>
</a>
</g>
<!-- Node1&#45;&gt;Node32 -->
<g id="edge84" class="edge"><title>Node1&#45;&gt;Node32</title>
<path fill="none" stroke="midnightblue" d="M214.024,-166.659C312.527,-173.707 457.457,-184.079 553.248,-190.933"/>
<polygon fill="midnightblue" stroke="midnightblue" points="553.005,-194.425 563.229,-191.648 553.505,-187.443 553.005,-194.425"/>
</g>
<!-- Node33 -->
<g id="node82" class="node"><title>Node33</title>
<a xlink:href="classtinyxml2_1_1XMLNode.html#abba1df37581d89dccc45acdc55750ba2" target="_top" xlink:title="Get the next (right) sibling node of this node.">
<polygon fill="none" stroke="black" points="296,-40.5 296,-61.5 464,-61.5 464,-40.5 296,-40.5"/>
<text text-anchor="middle" x="380" y="-48.5" font-family="FreeSans.ttf" font-size="10.00">tinyxml2::XMLNode::NextSibling</text>
</a>
</g>
<!-- Node1&#45;&gt;Node33 -->
<g id="edge98" class="edge"><title>Node1&#45;&gt;Node33</title>
<path fill="none" stroke="midnightblue" d="M120.247,-148.278C144.424,-129.324 198.013,-90.1037 250,-71 261.416,-66.805 273.709,-63.4898 286.02,-60.87"/>
<polygon fill="midnightblue" stroke="midnightblue" points="286.752,-64.293 295.88,-58.9145 285.39,-57.4267 286.752,-64.293"/>
</g>
<!-- Node34 -->
<g id="node84" class="node"><title>Node34</title>
<a xlink:href="classcorecvs_1_1FiltersCollection.html#a4151900da8dc46da3adede5b3913d932" target="_top" xlink:title="corecvs::FiltersCollection::recalculateDependencies">
<polygon fill="none" stroke="black" points="250,-0.5 250,-21.5 510,-21.5 510,-0.5 250,-0.5"/>
<text text-anchor="middle" x="380" y="-8.5" font-family="FreeSans.ttf" font-size="10.00">corecvs::FiltersCollection::recalculateDependencies</text>
</a>
</g>
<!-- Node1&#45;&gt;Node34 -->
<g id="edge100" class="edge"><title>Node1&#45;&gt;Node34</title>
<path fill="none" stroke="midnightblue" d="M115.281,-148.155C135.292,-122.825 189.145,-59.7517 250,-31 255.033,-28.6223 260.285,-26.516 265.671,-24.6511"/>
<polygon fill="midnightblue" stroke="midnightblue" points="267.009,-27.8991 275.489,-21.5484 264.899,-21.2244 267.009,-27.8991"/>
</g>
<!-- Node3 -->
<g id="node5" class="node"><title>Node3</title>
<a xlink:href="classtinyxml2_1_1XMLElement.html#aaf46b0799ea419e5d070ac9a357de48f" target="_top" xlink:title="Query a specific attribute in the list.">
<polygon fill="none" stroke="black" points="801.5,-542.5 801.5,-563.5 990.5,-563.5 990.5,-542.5 801.5,-542.5"/>
<text text-anchor="middle" x="896" y="-550.5" font-family="FreeSans.ttf" font-size="10.00">tinyxml2::XMLElement::FindAttribute</text>
</a>
</g>
<!-- Node2&#45;&gt;Node3 -->
<g id="edge4" class="edge"><title>Node2&#45;&gt;Node3</title>
<path fill="none" stroke="midnightblue" d="M717.708,-524.503C749.304,-529.553 787.351,-535.634 820.17,-540.88"/>
<polygon fill="midnightblue" stroke="midnightblue" points="819.747,-544.356 830.174,-542.479 820.852,-537.444 819.747,-544.356"/>
</g>
<!-- Node4 -->
<g id="node7" class="node"><title>Node4</title>
<a xlink:href="classtinyxml2_1_1XMLUtil.html#acfcd287cacfd2533e1bc9ea4dfb56602" target="_top" xlink:title="tinyxml2::XMLUtil::StringEqual">
<polygon fill="none" stroke="black" points="1053,-522.5 1053,-543.5 1211,-543.5 1211,-522.5 1053,-522.5"/>
<text text-anchor="middle" x="1132" y="-530.5" font-family="FreeSans.ttf" font-size="10.00">tinyxml2::XMLUtil::StringEqual</text>
</a>
</g>
<!-- Node2&#45;&gt;Node4 -->
<g id="edge12" class="edge"><title>Node2&#45;&gt;Node4</title>
<path fill="none" stroke="midnightblue" d="M737.261,-517.375C823.166,-520.775 955.18,-526.001 1042.55,-529.459"/>
<polygon fill="midnightblue" stroke="midnightblue" points="1042.58,-532.963 1052.71,-529.861 1042.86,-525.969 1042.58,-532.963"/>
</g>
<!-- Node7 -->
<g id="node14" class="node"><title>Node7</title>
<a xlink:href="classtinyxml2_1_1XMLAttribute.html#adf884db24f469f8a99a14ae786d4ddd7" target="_top" xlink:title="The value of the attribute.">
<polygon fill="none" stroke="black" points="1053.5,-602.5 1053.5,-623.5 1210.5,-623.5 1210.5,-602.5 1053.5,-602.5"/>
<text text-anchor="middle" x="1132" y="-610.5" font-family="FreeSans.ttf" font-size="10.00">tinyxml2::XMLAttribute::Value</text>
</a>
</g>
<!-- Node2&#45;&gt;Node7 -->
<g id="edge14" class="edge"><title>Node2&#45;&gt;Node7</title>
<path fill="none" stroke="midnightblue" d="M735.953,-524.571C743.644,-527.089 751.12,-530.188 758,-534 778.634,-545.432 772.986,-562.283 794,-573 836.174,-594.507 957.975,-604.762 1043.2,-609.424"/>
<polygon fill="midnightblue" stroke="midnightblue" points="1043.23,-612.931 1053.4,-609.966 1043.6,-605.941 1043.23,-612.931"/>
</g>
<!-- Node3&#45;&gt;Node4 -->
<g id="edge6" class="edge"><title>Node3&#45;&gt;Node4</title>
<path fill="none" stroke="midnightblue" d="M990.63,-544.98C1007.73,-543.532 1025.51,-542.025 1042.45,-540.589"/>
<polygon fill="midnightblue" stroke="midnightblue" points="1043.22,-544.037 1052.88,-539.705 1042.62,-537.062 1043.22,-544.037"/>
</g>
<!-- Node5 -->
<g id="node9" class="node"><title>Node5</title>
<a xlink:href="classtinyxml2_1_1XMLAttribute.html#a631990ac0d176e38fc291b17b295a62d" target="_top" xlink:title="The name of the attribute.">
<polygon fill="none" stroke="black" points="1052,-562.5 1052,-583.5 1212,-583.5 1212,-562.5 1052,-562.5"/>
<text text-anchor="middle" x="1132" y="-570.5" font-family="FreeSans.ttf" font-size="10.00">tinyxml2::XMLAttribute::Name</text>
</a>
</g>
<!-- Node3&#45;&gt;Node5 -->
<g id="edge8" class="edge"><title>Node3&#45;&gt;Node5</title>
<path fill="none" stroke="midnightblue" d="M990.63,-561.02C1007.41,-562.441 1024.84,-563.919 1041.51,-565.331"/>
<polygon fill="midnightblue" stroke="midnightblue" points="1041.51,-568.844 1051.77,-566.201 1042.1,-561.869 1041.51,-568.844"/>
</g>
<!-- Node6 -->
<g id="node11" class="node"><title>Node6</title>
<a xlink:href="classtinyxml2_1_1StrPair.html#ad87e3d11330f5e689ba1e7e54c023b57" target="_top" xlink:title="tinyxml2::StrPair::GetStr">
<polygon fill="none" stroke="black" points="1283,-462.5 1283,-483.5 1415,-483.5 1415,-462.5 1283,-462.5"/>
<text text-anchor="middle" x="1349" y="-470.5" font-family="FreeSans.ttf" font-size="10.00">tinyxml2::StrPair::GetStr</text>
</a>
</g>
<!-- Node5&#45;&gt;Node6 -->
<g id="edge10" class="edge"><title>Node5&#45;&gt;Node6</title>
<path fill="none" stroke="midnightblue" d="M1201.04,-562.464C1210.95,-559.936 1220.87,-556.823 1230,-553 1267.87,-537.14 1306.34,-508.511 1328.91,-490.148"/>
<polygon fill="midnightblue" stroke="midnightblue" points="1331.28,-492.733 1336.75,-483.661 1326.82,-487.34 1331.28,-492.733"/>
</g>
<!-- Node7&#45;&gt;Node6 -->
<g id="edge16" class="edge"><title>Node7&#45;&gt;Node6</title>
<path fill="none" stroke="midnightblue" d="M1207.2,-602.453C1215.14,-599.943 1222.9,-596.839 1230,-593 1276.38,-567.935 1316.28,-518.936 1335.95,-491.951"/>
<polygon fill="midnightblue" stroke="midnightblue" points="1338.87,-493.884 1341.82,-483.709 1333.17,-489.821 1338.87,-493.884"/>
</g>
<!-- Node10 -->
<g id="node21" class="node"><title>Node10</title>
<a xlink:href="classtinyxml2_1_1XMLDocument.html#a1819bd34f540a7304c105a6232d25a1f" target="_top" xlink:title="Parse an XML file from a character string.">
<polygon fill="none" stroke="black" points="569.5,-246.5 569.5,-267.5 734.5,-267.5 734.5,-246.5 569.5,-246.5"/>
<text text-anchor="middle" x="652" y="-254.5" font-family="FreeSans.ttf" font-size="10.00">tinyxml2::XMLDocument::Parse</text>
</a>
</g>
<!-- Node9&#45;&gt;Node10 -->
<g id="edge22" class="edge"><title>Node9&#45;&gt;Node10</title>
<path fill="none" stroke="midnightblue" d="M497.721,-257C518.262,-257 539.369,-257 559.122,-257"/>
<polygon fill="midnightblue" stroke="midnightblue" points="559.318,-260.5 569.318,-257 559.318,-253.5 559.318,-260.5"/>
</g>
<!-- Node21 -->
<g id="node44" class="node"><title>Node21</title>
<a xlink:href="classtinyxml2_1_1XMLDocument.html#abf0f9ac4c3aa5698a785937f71f7a69f" target="_top" xlink:title="Return true if there was an error parsing the document.">
<polygon fill="none" stroke="black" points="1051,-402.5 1051,-423.5 1213,-423.5 1213,-402.5 1051,-402.5"/>
<text text-anchor="middle" x="1132" y="-410.5" font-family="FreeSans.ttf" font-size="10.00">tinyxml2::XMLDocument::Error</text>
</a>
</g>
<!-- Node9&#45;&gt;Node21 -->
<g id="edge70" class="edge"><title>Node9&#45;&gt;Node21</title>
<path fill="none" stroke="midnightblue" d="M486.19,-267.565C494.3,-269.134 502.314,-270.934 510,-273 642.497,-308.618 660.395,-362.793 794,-394 875.929,-413.137 971.92,-416.812 1040.63,-416.335"/>
<polygon fill="midnightblue" stroke="midnightblue" points="1041.02,-419.831 1050.99,-416.23 1040.95,-412.831 1041.02,-419.831"/>
</g>
<!-- Node11 -->
<g id="node23" class="node"><title>Node11</title>
<a xlink:href="classtinyxml2_1_1XMLNode.html#a0360085cc54df5bff85d5c5da13afdce" target="_top" xlink:title="Delete all the children of this node.">
<polygon fill="none" stroke="black" points="803.5,-363.5 803.5,-384.5 988.5,-384.5 988.5,-363.5 803.5,-363.5"/>
<text text-anchor="middle" x="896" y="-371.5" font-family="FreeSans.ttf" font-size="10.00">tinyxml2::XMLNode::DeleteChildren</text>
</a>
</g>
<!-- Node10&#45;&gt;Node11 -->
<g id="edge24" class="edge"><title>Node10&#45;&gt;Node11</title>
<path fill="none" stroke="midnightblue" d="M663.91,-267.69C687.13,-287.916 740.848,-331.749 794,-354 800.151,-356.575 806.652,-358.823 813.273,-360.786"/>
<polygon fill="midnightblue" stroke="midnightblue" points="812.464,-364.193 823.033,-363.461 814.314,-357.442 812.464,-364.193"/>
</g>
<!-- Node13 -->
<g id="node27" class="node"><title>Node13</title>
<a xlink:href="classtinyxml2_1_1XMLDocument.html#adfc0e55c21a87d8a03d06b6be66d2172" target="_top" xlink:title="tinyxml2::XMLDocument::InitDocument">
<polygon fill="none" stroke="black" points="794.5,-147.5 794.5,-168.5 997.5,-168.5 997.5,-147.5 794.5,-147.5"/>
<text text-anchor="middle" x="896" y="-155.5" font-family="FreeSans.ttf" font-size="10.00">tinyxml2::XMLDocument::InitDocument</text>
</a>
</g>
<!-- Node10&#45;&gt;Node13 -->
<g id="edge28" class="edge"><title>Node10&#45;&gt;Node13</title>
<path fill="none" stroke="midnightblue" d="M694.755,-246.45C715.027,-240.195 738.923,-230.919 758,-218 777.804,-204.589 773.194,-189.797 794,-178 797.902,-175.787 802.009,-173.816 806.243,-172.059"/>
<polygon fill="midnightblue" stroke="midnightblue" points="807.532,-175.314 815.685,-168.548 805.092,-168.753 807.532,-175.314"/>
</g>
<!-- Node14 -->
<g id="node29" class="node"><title>Node14</title>
<a xlink:href="classtinyxml2_1_1XMLDocument.html#ae38d194e47336e4c96677ac77e2ac5d4" target="_top" xlink:title="tinyxml2::XMLDocument::SetError">
<polygon fill="none" stroke="black" points="1042.5,-86.5 1042.5,-107.5 1221.5,-107.5 1221.5,-86.5 1042.5,-86.5"/>
<text text-anchor="middle" x="1132" y="-94.5" font-family="FreeSans.ttf" font-size="10.00">tinyxml2::XMLDocument::SetError</text>
</a>
</g>
<!-- Node10&#45;&gt;Node14 -->
<g id="edge30" class="edge"><title>Node10&#45;&gt;Node14</title>
<path fill="none" stroke="midnightblue" d="M734.841,-257.496C824.065,-256.357 958.565,-249.263 998,-218 1035.34,-188.395 998.012,-148.238 1034,-117 1035.76,-115.474 1037.6,-114.053 1039.51,-112.73"/>
<polygon fill="midnightblue" stroke="midnightblue" points="1041.48,-115.633 1048.32,-107.538 1037.93,-109.604 1041.48,-115.633"/>
</g>
<!-- Node15 -->
<g id="node31" class="node"><title>Node15</title>
<a xlink:href="classtinyxml2_1_1XMLUtil.html#a9333d20f2a34325b5115ca45849c4b2a" target="_top" xlink:title="tinyxml2::XMLUtil::SkipWhiteSpace">
<polygon fill="none" stroke="black" points="806,-323.5 806,-344.5 986,-344.5 986,-323.5 806,-323.5"/>
<text text-anchor="middle" x="896" y="-331.5" font-family="FreeSans.ttf" font-size="10.00">tinyxml2::XMLUtil::SkipWhiteSpace</text>
</a>
</g>
<!-- Node10&#45;&gt;Node15 -->
<g id="edge32" class="edge"><title>Node10&#45;&gt;Node15</title>
<path fill="none" stroke="midnightblue" d="M674.648,-267.638C702.286,-280.256 750.696,-301.187 794,-314 803.118,-316.698 812.805,-319.133 822.439,-321.298"/>
<polygon fill="midnightblue" stroke="midnightblue" points="821.92,-324.767 832.434,-323.457 823.398,-317.924 821.92,-324.767"/>
</g>
<!-- Node17 -->
<g id="node35" class="node"><title>Node17</title>
<a xlink:href="classtinyxml2_1_1XMLUtil.html#ae9bcb2bc3cd6475fdc644c8c17790555" target="_top" xlink:title="tinyxml2::XMLUtil::ReadBOM">
<polygon fill="none" stroke="black" points="821.5,-187.5 821.5,-208.5 970.5,-208.5 970.5,-187.5 821.5,-187.5"/>
<text text-anchor="middle" x="896" y="-195.5" font-family="FreeSans.ttf" font-size="10.00">tinyxml2::XMLUtil::ReadBOM</text>
</a>
</g>
<!-- Node10&#45;&gt;Node17 -->
<g id="edge36" class="edge"><title>Node10&#45;&gt;Node17</title>
<path fill="none" stroke="midnightblue" d="M695.622,-246.452C736.698,-236.52 798.331,-221.617 842.387,-210.964"/>
<polygon fill="midnightblue" stroke="midnightblue" points="843.447,-214.308 852.345,-208.556 841.802,-207.504 843.447,-214.308"/>
</g>
<!-- Node18 -->
<g id="node37" class="node"><title>Node18</title>
<a xlink:href="classtinyxml2_1_1XMLNode.html#a7610d0f603e8b603d2078521811a23c1" target="_top" xlink:title="tinyxml2::XMLNode::ParseDeep">
<polygon fill="none" stroke="black" points="813,-265.5 813,-286.5 979,-286.5 979,-265.5 813,-265.5"/>
<text text-anchor="middle" x="896" y="-273.5" font-family="FreeSans.ttf" font-size="10.00">tinyxml2::XMLNode::ParseDeep</text>
</a>
</g>
<!-- Node10&#45;&gt;Node18 -->
<g id="edge38" class="edge"><title>Node10&#45;&gt;Node18</title>
<path fill="none" stroke="midnightblue" d="M734.607,-263.433C756.428,-265.132 780.132,-266.977 802.484,-268.718"/>
<polygon fill="midnightblue" stroke="midnightblue" points="802.406,-272.222 812.648,-269.509 802.949,-265.244 802.406,-272.222"/>
</g>
<!-- Node12 -->
<g id="node25" class="node"><title>Node12</title>
<a xlink:href="classtinyxml2_1_1XMLNode.html#a9546e242b6a4f232415befb1cfe0fdd4" target="_top" xlink:title="tinyxml2::XMLNode::Unlink">
<polygon fill="none" stroke="black" points="1060.5,-482.5 1060.5,-503.5 1203.5,-503.5 1203.5,-482.5 1060.5,-482.5"/>
<text text-anchor="middle" x="1132" y="-490.5" font-family="FreeSans.ttf" font-size="10.00">tinyxml2::XMLNode::Unlink</text>
</a>
</g>
<!-- Node11&#45;&gt;Node12 -->
<g id="edge26" class="edge"><title>Node11&#45;&gt;Node12</title>
<path fill="none" stroke="midnightblue" d="M907.138,-384.579C929.358,-405.056 981.58,-450.104 1034,-473 1039.74,-475.509 1045.82,-477.708 1052.01,-479.634"/>
<polygon fill="midnightblue" stroke="midnightblue" points="1051.24,-483.053 1061.81,-482.443 1053.16,-476.324 1051.24,-483.053"/>
</g>
<!-- Node16 -->
<g id="node33" class="node"><title>Node16</title>
<a xlink:href="classtinyxml2_1_1XMLUtil.html#a24ba87b1d22528167a3d16c4f52096bf" target="_top" xlink:title="tinyxml2::XMLUtil::IsUTF8Continuation">
<polygon fill="none" stroke="black" points="1034,-442.5 1034,-463.5 1230,-463.5 1230,-442.5 1034,-442.5"/>
<text text-anchor="middle" x="1132" y="-450.5" font-family="FreeSans.ttf" font-size="10.00">tinyxml2::XMLUtil::IsUTF8Continuation</text>
</a>
</g>
<!-- Node15&#45;&gt;Node16 -->
<g id="edge34" class="edge"><title>Node15&#45;&gt;Node16</title>
<path fill="none" stroke="midnightblue" d="M982.713,-344.687C988.163,-347.238 993.326,-350.309 998,-354 1028.28,-377.913 1003.81,-408.971 1034,-433 1036.08,-434.656 1038.26,-436.185 1040.53,-437.597"/>
<polygon fill="midnightblue" stroke="midnightblue" points="1039.16,-440.836 1049.63,-442.481 1042.47,-434.668 1039.16,-440.836"/>
</g>
<!-- Node18&#45;&gt;Node4 -->
<g id="edge62" class="edge"><title>Node18&#45;&gt;Node4</title>
<path fill="none" stroke="midnightblue" d="M954.747,-286.57C970.889,-292.195 986.967,-300.809 998,-314 1055.67,-382.942 971.159,-448.739 1034,-513 1036.92,-515.987 1040.16,-518.59 1043.63,-520.853"/>
<polygon fill="midnightblue" stroke="midnightblue" points="1042.23,-524.077 1052.68,-525.808 1045.59,-517.936 1042.23,-524.077"/>
</g>
<!-- Node18&#45;&gt;Node6 -->
<g id="edge64" class="edge"><title>Node18&#45;&gt;Node6</title>
<path fill="none" stroke="midnightblue" d="M937.957,-286.503C957.315,-292.592 979.95,-301.561 998,-314 1017.97,-327.761 1012.97,-342.932 1034,-355 1110.97,-399.157 1147.99,-359.126 1230,-393 1267.95,-408.674 1306.39,-437.357 1328.94,-455.781"/>
<polygon fill="midnightblue" stroke="midnightblue" points="1326.85,-458.59 1336.77,-462.292 1331.32,-453.207 1326.85,-458.59"/>
</g>
<!-- Node18&#45;&gt;Node14 -->
<g id="edge48" class="edge"><title>Node18&#45;&gt;Node14</title>
<path fill="none" stroke="midnightblue" d="M976.196,-265.427C984.248,-261.823 991.744,-257.12 998,-251 1042.08,-207.879 989.082,-159.252 1034,-117 1035.47,-115.617 1037.01,-114.318 1038.61,-113.099"/>
<polygon fill="midnightblue" stroke="midnightblue" points="1040.55,-116.011 1047.05,-107.644 1036.75,-110.132 1040.55,-116.011"/>
</g>
<!-- Node18&#45;&gt;Node18 -->
<g id="edge44" class="edge"><title>Node18&#45;&gt;Node18</title>
<path fill="none" stroke="midnightblue" d="M858.775,-286.557C842.338,-295.548 854.746,-305 896,-305 925.651,-305 940.401,-300.117 940.249,-294.032"/>
<polygon fill="midnightblue" stroke="midnightblue" points="942.624,-291.448 933.225,-286.557 937.522,-296.241 942.624,-291.448"/>
</g>
<!-- Node19 -->
<g id="node39" class="node"><title>Node19</title>
<a xlink:href="classtinyxml2_1_1XMLDocument.html#a25827d1bec509ad566a107e5853ed040" target="_top" xlink:title="tinyxml2::XMLDocument::Identify">
<polygon fill="none" stroke="black" points="1045.5,-244.5 1045.5,-265.5 1218.5,-265.5 1218.5,-244.5 1045.5,-244.5"/>
<text text-anchor="middle" x="1132" y="-252.5" font-family="FreeSans.ttf" font-size="10.00">tinyxml2::XMLDocument::Identify</text>
</a>
</g>
<!-- Node18&#45;&gt;Node19 -->
<g id="edge40" class="edge"><title>Node18&#45;&gt;Node19</title>
<path fill="none" stroke="midnightblue" d="M979.205,-268.596C997.232,-266.992 1016.45,-265.282 1034.96,-263.635"/>
<polygon fill="midnightblue" stroke="midnightblue" points="1035.5,-267.101 1045.15,-262.728 1034.88,-260.128 1035.5,-267.101"/>
</g>
<!-- Node18&#45;&gt;Node21 -->
<g id="edge46" class="edge"><title>Node18&#45;&gt;Node21</title>
<path fill="none" stroke="midnightblue" d="M946.573,-286.557C964.453,-292.291 983.661,-300.978 998,-314 1025.07,-338.589 1005.65,-364.892 1034,-388 1039,-392.077 1044.59,-395.499 1050.49,-398.369"/>
<polygon fill="midnightblue" stroke="midnightblue" points="1049.4,-401.713 1059.97,-402.441 1052.16,-395.281 1049.4,-401.713"/>
</g>
<!-- Node18&#45;&gt;Node22 -->
<g id="edge50" class="edge"><title>Node18&#45;&gt;Node22</title>
<path fill="none" stroke="midnightblue" d="M928.226,-265.419C950.987,-256.326 980.451,-240.995 998,-218 1037.24,-166.585 987.167,-121.607 1034,-77 1036.18,-74.9229 1038.52,-73.0354 1040.97,-71.3214"/>
<polygon fill="midnightblue" stroke="midnightblue" points="1042.93,-74.233 1049.76,-66.1388 1039.37,-68.2031 1042.93,-74.233"/>
</g>
<!-- Node23 -->
<g id="node49" class="node"><title>Node23</title>
<a xlink:href="classtinyxml2_1_1XMLElement.html#a2e3d9f938307a05963d7c4b8cd55754e" target="_top" xlink:title="tinyxml2::XMLElement::ClosingType">
<polygon fill="none" stroke="black" points="1040,-324.5 1040,-345.5 1224,-345.5 1224,-324.5 1040,-324.5"/>
<text text-anchor="middle" x="1132" y="-332.5" font-family="FreeSans.ttf" font-size="10.00">tinyxml2::XMLElement::ClosingType</text>
</a>
</g>
<!-- Node18&#45;&gt;Node23 -->
<g id="edge52" class="edge"><title>Node18&#45;&gt;Node23</title>
<path fill="none" stroke="midnightblue" d="M930.692,-286.575C958.487,-294.861 998.558,-306.388 1034,-315 1044.53,-317.558 1055.75,-320.058 1066.69,-322.375"/>
<polygon fill="midnightblue" stroke="midnightblue" points="1066.14,-325.835 1076.64,-324.448 1067.57,-318.982 1066.14,-325.835"/>
</g>
<!-- Node24 -->
<g id="node51" class="node"><title>Node24</title>
<a xlink:href="classtinyxml2_1_1MemPool.html#ac5804dd1387b2e4de5eef710076a0db1" target="_top" xlink:title="tinyxml2::MemPool::SetTracked">
<polygon fill="none" stroke="black" points="1266,-146.5 1266,-167.5 1432,-167.5 1432,-146.5 1266,-146.5"/>
<text text-anchor="middle" x="1349" y="-154.5" font-family="FreeSans.ttf" font-size="10.00">tinyxml2::MemPool::SetTracked</text>
</a>
</g>
<!-- Node18&#45;&gt;Node24 -->
<g id="edge54" class="edge"><title>Node18&#45;&gt;Node24</title>
<path fill="none" stroke="midnightblue" d="M968.689,-265.474C979.107,-261.946 989.244,-257.249 998,-251 1022.08,-233.81 1008.93,-210.711 1034,-195 1069.92,-172.491 1176.52,-163.312 1255.82,-159.571"/>
<polygon fill="midnightblue" stroke="midnightblue" points="1256,-163.066 1265.83,-159.12 1255.69,-156.073 1256,-163.066"/>
</g>
<!-- Node25 -->
<g id="node53" class="node"><title>Node25</title>
<a xlink:href="classtinyxml2_1_1StrPair.html#affa1043e73a18f05d5d2faec055725a7" target="_top" xlink:title="tinyxml2::StrPair::Empty">
<polygon fill="none" stroke="black" points="1066.5,-204.5 1066.5,-225.5 1197.5,-225.5 1197.5,-204.5 1066.5,-204.5"/>
<text text-anchor="middle" x="1132" y="-212.5" font-family="FreeSans.ttf" font-size="10.00">tinyxml2::StrPair::Empty</text>
</a>
</g>
<!-- Node18&#45;&gt;Node25 -->
<g id="edge56" class="edge"><title>Node18&#45;&gt;Node25</title>
<path fill="none" stroke="midnightblue" d="M946.577,-265.481C963.145,-261.539 981.524,-256.631 998,-251 1014.57,-245.338 1017.32,-240.337 1034,-235 1042.35,-232.327 1051.22,-229.93 1060.08,-227.805"/>
<polygon fill="midnightblue" stroke="midnightblue" points="1061.08,-231.166 1070.05,-225.521 1059.52,-224.343 1061.08,-231.166"/>
</g>
<!-- Node26 -->
<g id="node55" class="node"><title>Node26</title>
<a xlink:href="classtinyxml2_1_1XMLNode.html#a7682be117e3b2b4ebfd517c1acaaadbf" target="_top" xlink:title="The meaning of &#39;value&#39; changes for the specific type.">
<polygon fill="none" stroke="black" points="1062,-284.5 1062,-305.5 1202,-305.5 1202,-284.5 1062,-284.5"/>
<text text-anchor="middle" x="1132" y="-292.5" font-family="FreeSans.ttf" font-size="10.00">tinyxml2::XMLNode::Value</text>
</a>
</g>
<!-- Node18&#45;&gt;Node26 -->
<g id="edge58" class="edge"><title>Node18&#45;&gt;Node26</title>
<path fill="none" stroke="midnightblue" d="M979.205,-282.699C1002.67,-284.588 1028.15,-286.64 1051.46,-288.516"/>
<polygon fill="midnightblue" stroke="midnightblue" points="1051.4,-292.023 1061.65,-289.336 1051.97,-285.045 1051.4,-292.023"/>
</g>
<!-- Node27 -->
<g id="node60" class="node"><title>Node27</title>
<a xlink:href="classtinyxml2_1_1XMLNode.html#ae3b422e98914d6002ca99bb1d2837103" target="_top" xlink:title="Add a child node as the last (right) child.">
<polygon fill="none" stroke="black" points="1041,-126.5 1041,-147.5 1223,-147.5 1223,-126.5 1041,-126.5"/>
<text text-anchor="middle" x="1132" y="-134.5" font-family="FreeSans.ttf" font-size="10.00">tinyxml2::XMLNode::InsertEndChild</text>
</a>
</g>
<!-- Node18&#45;&gt;Node27 -->
<g id="edge66" class="edge"><title>Node18&#45;&gt;Node27</title>
<path fill="none" stroke="midnightblue" d="M973.427,-265.495C982.366,-261.92 990.831,-257.204 998,-251 1030.26,-223.077 1001.87,-190.074 1034,-162 1038.49,-158.077 1043.51,-154.756 1048.85,-151.944"/>
<polygon fill="midnightblue" stroke="midnightblue" points="1050.47,-155.049 1058.08,-147.679 1047.54,-148.694 1050.47,-155.049"/>
</g>
<!-- Node20 -->
<g id="node41" class="node"><title>Node20</title>
<a xlink:href="classtinyxml2_1_1XMLText.html#ad080357d76ab7cc59d7651249949329d" target="_top" xlink:title="Declare whether this should be CDATA or standard text.">
<polygon fill="none" stroke="black" points="1273,-244.5 1273,-265.5 1425,-265.5 1425,-244.5 1273,-244.5"/>
<text text-anchor="middle" x="1349" y="-252.5" font-family="FreeSans.ttf" font-size="10.00">tinyxml2::XMLText::SetCData</text>
</a>
</g>
<!-- Node19&#45;&gt;Node20 -->
<g id="edge42" class="edge"><title>Node19&#45;&gt;Node20</title>
<path fill="none" stroke="midnightblue" d="M1218.7,-255C1233.14,-255 1248.12,-255 1262.55,-255"/>
<polygon fill="midnightblue" stroke="midnightblue" points="1262.95,-258.5 1272.95,-255 1262.95,-251.5 1262.95,-258.5"/>
</g>
<!-- Node26&#45;&gt;Node6 -->
<g id="edge60" class="edge"><title>Node26&#45;&gt;Node6</title>
<path fill="none" stroke="midnightblue" d="M1202.16,-302.81C1211.96,-305.723 1221.56,-309.668 1230,-315 1284.73,-349.565 1323.38,-418.892 1339.96,-453.048"/>
<polygon fill="midnightblue" stroke="midnightblue" points="1336.96,-454.889 1344.39,-462.442 1343.29,-451.904 1336.96,-454.889"/>
</g>
<!-- Node27&#45;&gt;Node24 -->
<g id="edge68" class="edge"><title>Node27&#45;&gt;Node24</title>
<path fill="none" stroke="midnightblue" d="M1223.08,-145.395C1233.81,-146.383 1244.76,-147.393 1255.52,-148.384"/>
<polygon fill="midnightblue" stroke="midnightblue" points="1255.48,-151.895 1265.76,-149.328 1256.12,-144.925 1255.48,-151.895"/>
</g>
<!-- Node29 -->
<g id="node66" class="node"><title>Node29</title>
<a xlink:href="classtinyxml2_1_1XMLElement.html#a8b92c729346aa8ea9acd59ed3e9f2378" target="_top" xlink:title="Given an attribute name, QueryIntAttribute() returns XML_NO_ERROR, XML_WRONG_ATTRIBUTE_TYPE if the co...">
<polygon fill="none" stroke="black" points="546.5,-543.5 546.5,-564.5 757.5,-564.5 757.5,-543.5 546.5,-543.5"/>
<text text-anchor="middle" x="652" y="-551.5" font-family="FreeSans.ttf" font-size="10.00">tinyxml2::XMLElement::QueryIntAttribute</text>
</a>
</g>
<!-- Node28&#45;&gt;Node29 -->
<g id="edge74" class="edge"><title>Node28&#45;&gt;Node29</title>
<path fill="none" stroke="midnightblue" d="M397.768,-464.503C427.458,-481.601 489.475,-515.407 546,-534 554.272,-536.721 563.037,-539.113 571.841,-541.207"/>
<polygon fill="midnightblue" stroke="midnightblue" points="571.251,-544.661 581.775,-543.445 572.789,-537.833 571.251,-544.661"/>
</g>
<!-- Node29&#45;&gt;Node3 -->
<g id="edge76" class="edge"><title>Node29&#45;&gt;Node3</title>
<path fill="none" stroke="midnightblue" d="M757.603,-553.567C768.746,-553.522 780.075,-553.475 791.208,-553.429"/>
<polygon fill="midnightblue" stroke="midnightblue" points="791.382,-556.929 801.367,-553.388 791.353,-549.929 791.382,-556.929"/>
</g>
<!-- Node30 -->
<g id="node69" class="node"><title>Node30</title>
<a xlink:href="classtinyxml2_1_1XMLAttribute.html#ad510a83c4ff2755844bb250b125d28ff" target="_top" xlink:title="QueryIntAttribute interprets the attribute as an integer, and returns the value in the provided parem...">
<polygon fill="none" stroke="black" points="797.5,-620.5 797.5,-641.5 994.5,-641.5 994.5,-620.5 797.5,-620.5"/>
<text text-anchor="middle" x="896" y="-628.5" font-family="FreeSans.ttf" font-size="10.00">tinyxml2::XMLAttribute::QueryIntValue</text>
</a>
</g>
<!-- Node29&#45;&gt;Node30 -->
<g id="edge78" class="edge"><title>Node29&#45;&gt;Node30</title>
<path fill="none" stroke="midnightblue" d="M678.137,-564.562C706.404,-575.75 752.938,-593.491 794,-606 808.242,-610.338 823.776,-614.453 838.329,-618.045"/>
<polygon fill="midnightblue" stroke="midnightblue" points="837.676,-621.488 848.219,-620.444 839.326,-614.685 837.676,-621.488"/>
</g>
<!-- Node30&#45;&gt;Node7 -->
<g id="edge82" class="edge"><title>Node30&#45;&gt;Node7</title>
<path fill="none" stroke="midnightblue" d="M994.718,-623.471C1010.78,-622.246 1027.33,-620.983 1043.13,-619.778"/>
<polygon fill="midnightblue" stroke="midnightblue" points="1043.7,-623.245 1053.4,-618.995 1043.16,-616.266 1043.7,-623.245"/>
</g>
<!-- Node31 -->
<g id="node71" class="node"><title>Node31</title>
<a xlink:href="classtinyxml2_1_1XMLUtil.html#ad4df4023d11ee3fca9689c49b9707323" target="_top" xlink:title="tinyxml2::XMLUtil::ToInt">
<polygon fill="none" stroke="black" points="1069.5,-642.5 1069.5,-663.5 1194.5,-663.5 1194.5,-642.5 1069.5,-642.5"/>
<text text-anchor="middle" x="1132" y="-650.5" font-family="FreeSans.ttf" font-size="10.00">tinyxml2::XMLUtil::ToInt</text>
</a>
</g>
<!-- Node30&#45;&gt;Node31 -->
<g id="edge80" class="edge"><title>Node30&#45;&gt;Node31</title>
<path fill="none" stroke="midnightblue" d="M994.718,-640.203C1016.33,-642.217 1038.83,-644.314 1059.2,-646.214"/>
<polygon fill="midnightblue" stroke="midnightblue" points="1059.06,-649.715 1069.34,-647.159 1059.71,-642.745 1059.06,-649.715"/>
</g>
<!-- Node32&#45;&gt;Node11 -->
<g id="edge86" class="edge"><title>Node32&#45;&gt;Node11</title>
<path fill="none" stroke="midnightblue" d="M709.014,-208.555C726.722,-214.341 744.986,-223.263 758,-237 795.417,-276.496 753.566,-317.599 794,-354 795.559,-355.404 797.187,-356.721 798.874,-357.957"/>
<polygon fill="midnightblue" stroke="midnightblue" points="797.419,-361.174 807.76,-363.483 801.116,-355.23 797.419,-361.174"/>
</g>
<!-- Node32&#45;&gt;Node13 -->
<g id="edge88" class="edge"><title>Node32&#45;&gt;Node13</title>
<path fill="none" stroke="midnightblue" d="M716.108,-187.49C748.482,-182.183 787.936,-175.715 821.637,-170.191"/>
<polygon fill="midnightblue" stroke="midnightblue" points="822.595,-173.58 831.897,-168.509 821.462,-166.673 822.595,-173.58"/>
</g>
<!-- Node32&#45;&gt;Node14 -->
<g id="edge90" class="edge"><title>Node32&#45;&gt;Node14</title>
<path fill="none" stroke="midnightblue" d="M672.059,-187.4C699.003,-173.664 748.742,-150.052 794,-138 872.509,-117.094 964.145,-106.818 1032.18,-101.784"/>
<polygon fill="midnightblue" stroke="midnightblue" points="1032.74,-105.253 1042.47,-101.05 1032.25,-98.2711 1032.74,-105.253"/>
</g>
<!-- Node32&#45;&gt;Node15 -->
<g id="edge92" class="edge"><title>Node32&#45;&gt;Node15</title>
<path fill="none" stroke="midnightblue" d="M704.663,-208.584C723.256,-214.442 743.198,-223.403 758,-237 785.821,-262.557 764.238,-290.732 794,-314 796.115,-315.653 798.328,-317.182 800.621,-318.595"/>
<polygon fill="midnightblue" stroke="midnightblue" points="799.352,-321.884 809.825,-323.49 802.639,-315.704 799.352,-321.884"/>
</g>
<!-- Node32&#45;&gt;Node17 -->
<g id="edge94" class="edge"><title>Node32&#45;&gt;Node17</title>
<path fill="none" stroke="midnightblue" d="M740.78,-198C763.704,-198 788.321,-198 811.045,-198"/>
<polygon fill="midnightblue" stroke="midnightblue" points="811.339,-201.5 821.339,-198 811.339,-194.5 811.339,-201.5"/>
</g>
<!-- Node32&#45;&gt;Node18 -->
<g id="edge96" class="edge"><title>Node32&#45;&gt;Node18</title>
<path fill="none" stroke="midnightblue" d="M684.907,-208.519C728.384,-222.418 805.051,-246.926 853.05,-262.27"/>
<polygon fill="midnightblue" stroke="midnightblue" points="852.244,-265.687 862.835,-265.398 854.376,-259.019 852.244,-265.687"/>
</g>
</g>
</svg>
        <g id="navigator" transform="translate(0 0)" fill="#404254">
                <rect fill="#f2f5e9" fill-opacity="0.5" stroke="#606060" stroke-width=".5" x="0" y="0" width="60" height="60"/>
                <use id="zoomplus" xlink:href="#zoomPlus" x="17" y="9" onmousedown="handleZoom(evt,'in')"/>
                <use id="zoomminus" xlink:href="#zoomMin" x="42" y="9" onmousedown="handleZoom(evt,'out')"/>
                <use id="reset" xlink:href="#resetDef" x="30" y="36" onmousedown="handleReset()"/>
                <g id="arrowUp" xlink:href="#dirArrow" transform="translate(30 24)" onmousedown="handlePan(0,-1)">
                  <use xlink:href="#rim" fill="#404040">
                        <set attributeName="fill" to="#808080" begin="arrowUp.mouseover" end="arrowUp.mouseout"/>
                  </use>
                  <path fill="none" stroke="white" stroke-width="1.5" d="M0,-3.0v7 M-2.5,-0.5L0,-3.0L2.5,-0.5"/>
                </g>
                <g id="arrowRight" xlink:href="#dirArrow" transform="rotate(90) translate(36 -43)" onmousedown="handlePan(1,0)">
                  <use xlink:href="#rim" fill="#404040">
                        <set attributeName="fill" to="#808080" begin="arrowRight.mouseover" end="arrowRight.mouseout"/>
                  </use>
                  <path fill="none" stroke="white" stroke-width="1.5" d="M0,-3.0v7 M-2.5,-0.5L0,-3.0L2.5,-0.5"/>
                </g>
                <g id="arrowDown" xlink:href="#dirArrow" transform="rotate(180) translate(-30 -48)" onmousedown="handlePan(0,1)">
                  <use xlink:href="#rim" fill="#404040">
                        <set attributeName="fill" to="#808080" begin="arrowDown.mouseover" end="arrowDown.mouseout"/>
                  </use>
                  <path fill="none" stroke="white" stroke-width="1.5" d="M0,-3.0v7 M-2.5,-0.5L0,-3.0L2.5,-0.5"/>
                </g>
                <g id="arrowLeft" xlink:href="#dirArrow" transform="rotate(270) translate(-36 17)" onmousedown="handlePan(-1,0)">
                  <use xlink:href="#rim" fill="#404040">
                        <set attributeName="fill" to="#808080" begin="arrowLeft.mouseover" end="arrowLeft.mouseout"/>
                  </use>
                  <path fill="none" stroke="white" stroke-width="1.5" d="M0,-3.0v7 M-2.5,-0.5L0,-3.0L2.5,-0.5"/>
                </g>
        </g>
</svg>
