<?xml version="1.0" encoding="UTF-8" standalone="no"?>
<!DOCTYPE svg PUBLIC "-//W3C//DTD SVG 1.1//EN"
 "http://www.w3.org/Graphics/SVG/1.1/DTD/svg11.dtd">
<!-- Generated by graphviz version 2.26.3 (20100126.1600)
 -->
<!-- Title: G Pages: 1 -->
<!--zoomable 130 -->
<svg id="main" version="1.1" xmlns="http://www.w3.org/2000/svg" xmlns:xlink="http://www.w3.org/1999/xlink" xml:space="preserve" onload="init(evt)">
        <defs>
                <circle id="rim" cx="0" cy="0" r="7"/>
                <circle id="rim2" cx="0" cy="0" r="3.5"/>
                <g id="zoomPlus">
                        <use xlink:href="#rim" fill="#404040">
                                <set attributeName="fill" to="#808080" begin="zoomplus.mouseover" end="zoomplus.mouseout"/>
                        </use>
                        <path d="M-4,0h8M0,-4v8" fill="none" stroke="white" stroke-width="1.5" pointer-events="none"/>
                </g>
                <g id="zoomMin">
                        <use xlink:href="#rim" fill="#404040">
                                <set attributeName="fill" to="#808080" begin="zoomminus.mouseover" end="zoomminus.mouseout"/>
                        </use>
                        <path d="M-4,0h8" fill="none" stroke="white" stroke-width="1.5" pointer-events="none"/>
                </g>
                <g id="dirArrow">
                        <path fill="none" stroke="white" stroke-width="1.5" d="M0,-3.0v7 M-2.5,-0.5L0,-3.0L2.5,-0.5"/>
                </g>
               <g id="resetDef">
                       <use xlink:href="#rim2" fill="#404040">
                               <set attributeName="fill" to="#808080" begin="reset.mouseover" end="reset.mouseout"/>
                       </use>
               </g>
        </defs>

<script type="text/javascript">
var viewWidth = 842;
var viewHeight = 130;
var sectionId = 'dynsection-0';
</script>
<script xlink:href="svgpan.js"/>
<svg id="graph" class="graph">
<g id="viewport">
<title>G</title>
<!-- Node1 -->
<g id="node1" class="node"><title>Node1</title>
<polygon fill="#bfbfbf" stroke="black" points="166.5,-94.5 166.5,-115.5 261.5,-115.5 261.5,-94.5 166.5,-94.5"/>
<text text-anchor="middle" x="214" y="-102.5" font-family="FreeSans.ttf" font-size="10.00">TreeSceneModel</text>
</g>
<!-- Node2 -->
<g id="node2" class="node"><title>Node2</title>
<a xlink:href="classTreeSceneController.html" target="_top" xlink:title="TreeSceneController">
<polygon fill="none" stroke="black" points="438.5,-56.5 438.5,-77.5 551.5,-77.5 551.5,-56.5 438.5,-56.5"/>
<text text-anchor="middle" x="495" y="-64.5" font-family="FreeSans.ttf" font-size="10.00">TreeSceneController</text>
</a>
</g>
<!-- Node1&#45;&gt;Node2 -->
<g id="edge16" class="edge"><title>Node1&#45;&gt;Node2</title>
<path fill="none" stroke="#9a32cd" stroke-dasharray="5,2" d="M271.9,-109.021C313.576,-110.539 370.871,-109.79 420,-99 439.911,-94.6269 461.152,-85.0486 475.928,-77.5045"/>
<polygon fill="#9a32cd" stroke="#9a32cd" points="271.794,-105.513 261.656,-108.59 271.5,-112.507 271.794,-105.513"/>
<text text-anchor="middle" x="367" y="-113" font-family="FreeSans.ttf" font-size="10.00"> mTreeModel</text>
</g>
<!-- Node2&#45;&gt;Node1 -->
<g id="edge2" class="edge"><title>Node2&#45;&gt;Node1</title>
<path fill="none" stroke="#9a32cd" stroke-dasharray="5,2" d="M427.853,-72.7073C393.681,-75.9515 351.536,-80.4738 314,-86 296.866,-88.5225 278.196,-91.8981 261.677,-95.1039"/>
<polygon fill="#9a32cd" stroke="#9a32cd" points="428.558,-76.1568 438.189,-71.7417 427.906,-69.1871 428.558,-76.1568"/>
<text text-anchor="middle" x="367" y="-90" font-family="FreeSans.ttf" font-size="10.00"> mTopItem</text>
</g>
<!-- Node2&#45;&gt;Node2 -->
<g id="edge8" class="edge"><title>Node2&#45;&gt;Node2</title>
<path fill="none" stroke="#9a32cd" stroke-dasharray="5,2" d="M476.571,-87.4266C477.993,-92.3489 484.136,-96 495,-96 512.383,-96 517.679,-86.6531 510.889,-77.7079"/>
<polygon fill="#9a32cd" stroke="#9a32cd" points="479.969,-88.2679 479.111,-77.7079 473.196,-86.4979 479.969,-88.2679"/>
<text text-anchor="middle" x="495" y="-100" font-family="FreeSans.ttf" font-size="10.00"> mParentController</text>
</g>
<!-- Node6 -->
<g id="node11" class="node"><title>Node6</title>
<polygon fill="none" stroke="#bfbfbf" points="640,-56.5 640,-77.5 834,-77.5 834,-56.5 640,-56.5"/>
<text text-anchor="middle" x="737" y="-64.5" font-family="FreeSans.ttf" font-size="10.00">std::vector&lt; TreeSceneController * &gt;</text>
</g>
<!-- Node2&#45;&gt;Node6 -->
<g id="edge14" class="edge"><title>Node2&#45;&gt;Node6</title>
<path fill="none" stroke="#9a32cd" stroke-dasharray="5,2" d="M561.839,-67C585.959,-67 613.698,-67 639.882,-67"/>
<polygon fill="#9a32cd" stroke="#9a32cd" points="561.738,-63.5001 551.738,-67 561.738,-70.5001 561.738,-63.5001"/>
<text text-anchor="middle" x="596" y="-71" font-family="FreeSans.ttf" font-size="10.00"> elements</text>
</g>
<!-- Node3 -->
<g id="node4" class="node"><title>Node3</title>
<a xlink:href="classParametersControlWidgetBase.html" target="_top" xlink:title="ParametersControlWidgetBase">
<polygon fill="none" stroke="black" points="132.5,-40.5 132.5,-61.5 295.5,-61.5 295.5,-40.5 132.5,-40.5"/>
<text text-anchor="middle" x="214" y="-48.5" font-family="FreeSans.ttf" font-size="10.00">ParametersControlWidgetBase</text>
</a>
</g>
<!-- Node3&#45;&gt;Node2 -->
<g id="edge4" class="edge"><title>Node3&#45;&gt;Node2</title>
<path fill="none" stroke="#9a32cd" stroke-dasharray="5,2" d="M306.317,-45.9904C341.939,-45.2501 382.96,-45.8547 420,-50 431.809,-51.3216 444.472,-53.7789 455.967,-56.4226"/>
<polygon fill="#9a32cd" stroke="#9a32cd" points="305.845,-42.5009 295.935,-46.2468 306.018,-49.4988 305.845,-42.5009"/>
<text text-anchor="middle" x="367" y="-54" font-family="FreeSans.ttf" font-size="10.00"> mParametersWidget</text>
</g>
<!-- Node4 -->
<g id="node6" class="node"><title>Node4</title>
<a xlink:href="classSaveableWidget.html" target="_top" xlink:title="SaveableWidget">
<polygon fill="none" stroke="black" points="0.5,-40.5 0.5,-61.5 93.5,-61.5 93.5,-40.5 0.5,-40.5"/>
<text text-anchor="middle" x="47" y="-48.5" font-family="FreeSans.ttf" font-size="10.00">SaveableWidget</text>
</a>
</g>
<!-- Node4&#45;&gt;Node3 -->
<g id="edge6" class="edge"><title>Node4&#45;&gt;Node3</title>
<path fill="none" stroke="midnightblue" d="M103.677,-51C112.882,-51 122.573,-51 132.233,-51"/>
<polygon fill="midnightblue" stroke="midnightblue" points="103.519,-47.5001 93.5188,-51 103.519,-54.5001 103.519,-47.5001"/>
</g>
<!-- Node5 -->
<g id="node9" class="node"><title>Node5</title>
<a xlink:href="classTransform3DSelector.html" target="_top" xlink:title="Transform3DSelector">
<polygon fill="none" stroke="black" points="155.5,-0.5 155.5,-21.5 272.5,-21.5 272.5,-0.5 155.5,-0.5"/>
<text text-anchor="middle" x="214" y="-8.5" font-family="FreeSans.ttf" font-size="10.00">Transform3DSelector</text>
</a>
</g>
<!-- Node5&#45;&gt;Node2 -->
<g id="edge10" class="edge"><title>Node5&#45;&gt;Node2</title>
<path fill="none" stroke="#9a32cd" stroke-dasharray="5,2" d="M282.855,-10.507C323.457,-11.8123 375.446,-16.2818 420,-29 441.475,-35.1303 464.07,-47.5063 478.776,-56.4727"/>
<polygon fill="#9a32cd" stroke="#9a32cd" points="282.878,-7.00644 272.789,-10.2402 282.692,-14.004 282.878,-7.00644"/>
<text text-anchor="middle" x="367" y="-33" font-family="FreeSans.ttf" font-size="10.00"> mTransform3DWidget</text>
</g>
<!-- Node6&#45;&gt;Node2 -->
<g id="edge12" class="edge"><title>Node6&#45;&gt;Node2</title>
<path fill="none" stroke="#9a32cd" stroke-dasharray="5,2" d="M677.588,-54.7947C645.677,-49.7924 605.673,-46.0077 570,-50 558.191,-51.3216 545.528,-53.7789 534.033,-56.4226"/>
<polygon fill="#9a32cd" stroke="#9a32cd" points="677.212,-58.2799 687.648,-56.4533 678.351,-51.3731 677.212,-58.2799"/>
<text text-anchor="middle" x="596" y="-54" font-family="FreeSans.ttf" font-size="10.00"> mChildren</text>
</g>
</g>
</svg>
        <g id="navigator" transform="translate(0 0)" fill="#404254">
                <rect fill="#f2f5e9" fill-opacity="0.5" stroke="#606060" stroke-width=".5" x="0" y="0" width="60" height="60"/>
                <use id="zoomplus" xlink:href="#zoomPlus" x="17" y="9" onmousedown="handleZoom(evt,'in')"/>
                <use id="zoomminus" xlink:href="#zoomMin" x="42" y="9" onmousedown="handleZoom(evt,'out')"/>
                <use id="reset" xlink:href="#resetDef" x="30" y="36" onmousedown="handleReset()"/>
                <g id="arrowUp" xlink:href="#dirArrow" transform="translate(30 24)" onmousedown="handlePan(0,-1)">
                  <use xlink:href="#rim" fill="#404040">
                        <set attributeName="fill" to="#808080" begin="arrowUp.mouseover" end="arrowUp.mouseout"/>
                  </use>
                  <path fill="none" stroke="white" stroke-width="1.5" d="M0,-3.0v7 M-2.5,-0.5L0,-3.0L2.5,-0.5"/>
                </g>
                <g id="arrowRight" xlink:href="#dirArrow" transform="rotate(90) translate(36 -43)" onmousedown="handlePan(1,0)">
                  <use xlink:href="#rim" fill="#404040">
                        <set attributeName="fill" to="#808080" begin="arrowRight.mouseover" end="arrowRight.mouseout"/>
                  </use>
                  <path fill="none" stroke="white" stroke-width="1.5" d="M0,-3.0v7 M-2.5,-0.5L0,-3.0L2.5,-0.5"/>
                </g>
                <g id="arrowDown" xlink:href="#dirArrow" transform="rotate(180) translate(-30 -48)" onmousedown="handlePan(0,1)">
                  <use xlink:href="#rim" fill="#404040">
                        <set attributeName="fill" to="#808080" begin="arrowDown.mouseover" end="arrowDown.mouseout"/>
                  </use>
                  <path fill="none" stroke="white" stroke-width="1.5" d="M0,-3.0v7 M-2.5,-0.5L0,-3.0L2.5,-0.5"/>
                </g>
                <g id="arrowLeft" xlink:href="#dirArrow" transform="rotate(270) translate(-36 17)" onmousedown="handlePan(-1,0)">
                  <use xlink:href="#rim" fill="#404040">
                        <set attributeName="fill" to="#808080" begin="arrowLeft.mouseover" end="arrowLeft.mouseout"/>
                  </use>
                  <path fill="none" stroke="white" stroke-width="1.5" d="M0,-3.0v7 M-2.5,-0.5L0,-3.0L2.5,-0.5"/>
                </g>
        </g>
</svg>
