<?xml version="1.0" encoding="UTF-8" standalone="no"?>
<!DOCTYPE svg PUBLIC "-//W3C//DTD SVG 1.1//EN"
 "http://www.w3.org/Graphics/SVG/1.1/DTD/svg11.dtd">
<!-- Generated by graphviz version 2.26.3 (20100126.1600)
 -->
<!-- Title: G Pages: 1 -->
<svg width="426pt" height="70pt"
 viewBox="0.00 0.00 426.00 70.00" xmlns="http://www.w3.org/2000/svg" xmlns:xlink="http://www.w3.org/1999/xlink">
<g id="graph1" class="graph" transform="scale(1 1) rotate(0) translate(4 66)">
<title>G</title>
<!-- Node1 -->
<g id="node1" class="node"><title>Node1</title>
<polygon fill="#bfbfbf" stroke="black" points="0,-20.5 0,-41.5 184,-41.5 184,-20.5 0,-20.5"/>
<text text-anchor="middle" x="92" y="-28.5" font-family="FreeSans.ttf" font-size="10.00">corecvs::BufferFactory::getInstance</text>
</g>
<!-- Node2 -->
<g id="node3" class="node"><title>Node2</title>
<a xlink:href="classCountedPtr.html#afa0f9d08eb5b6d2442ed7a64a3ac0335" target="_top" xlink:title="CountedPtr::get">
<polygon fill="none" stroke="black" points="273,-40.5 273,-61.5 365,-61.5 365,-40.5 273,-40.5"/>
<text text-anchor="middle" x="319" y="-48.5" font-family="FreeSans.ttf" font-size="10.00">CountedPtr::get</text>
</a>
</g>
<!-- Node1&#45;&gt;Node2 -->
<g id="edge2" class="edge"><title>Node1&#45;&gt;Node2</title>
<path fill="none" stroke="midnightblue" d="M184.002,-39.1059C210.659,-41.4546 238.958,-43.9479 262.724,-46.0418"/>
<polygon fill="midnightblue" stroke="midnightblue" points="262.688,-49.5521 272.957,-46.9433 263.303,-42.5791 262.688,-49.5521"/>
</g>
<!-- Node3 -->
<g id="node5" class="node"><title>Node3</title>
<a xlink:href="classcorecvs_1_1BufferFactory.html#a4e689f20360136513e14dc3cbef5c52b" target="_top" xlink:title="Public function to add own buffer loader, i.e.">
<polygon fill="none" stroke="black" points="220.5,-0.5 220.5,-21.5 417.5,-21.5 417.5,-0.5 220.5,-0.5"/>
<text text-anchor="middle" x="319" y="-8.5" font-family="FreeSans.ttf" font-size="10.00">corecvs::BufferFactory::registerLoader</text>
</a>
</g>
<!-- Node1&#45;&gt;Node3 -->
<g id="edge4" class="edge"><title>Node1&#45;&gt;Node3</title>
<path fill="none" stroke="midnightblue" d="M184.002,-22.8941C192.571,-22.1391 201.309,-21.3693 210.011,-20.6025"/>
<polygon fill="midnightblue" stroke="midnightblue" points="210.544,-24.0692 220.199,-19.705 209.93,-17.0962 210.544,-24.0692"/>
</g>
</g>
</svg>
