<?xml version="1.0" encoding="UTF-8" standalone="no"?>
<!DOCTYPE svg PUBLIC "-//W3C//DTD SVG 1.1//EN"
 "http://www.w3.org/Graphics/SVG/1.1/DTD/svg11.dtd">
<!-- Generated by graphviz version 2.26.3 (20100126.1600)
 -->
<!-- Title: G Pages: 1 -->
<!--zoomable 268 -->
<svg id="main" version="1.1" xmlns="http://www.w3.org/2000/svg" xmlns:xlink="http://www.w3.org/1999/xlink" xml:space="preserve" onload="init(evt)">
        <defs>
                <circle id="rim" cx="0" cy="0" r="7"/>
                <circle id="rim2" cx="0" cy="0" r="3.5"/>
                <g id="zoomPlus">
                        <use xlink:href="#rim" fill="#404040">
                                <set attributeName="fill" to="#808080" begin="zoomplus.mouseover" end="zoomplus.mouseout"/>
                        </use>
                        <path d="M-4,0h8M0,-4v8" fill="none" stroke="white" stroke-width="1.5" pointer-events="none"/>
                </g>
                <g id="zoomMin">
                        <use xlink:href="#rim" fill="#404040">
                                <set attributeName="fill" to="#808080" begin="zoomminus.mouseover" end="zoomminus.mouseout"/>
                        </use>
                        <path d="M-4,0h8" fill="none" stroke="white" stroke-width="1.5" pointer-events="none"/>
                </g>
                <g id="dirArrow">
                        <path fill="none" stroke="white" stroke-width="1.5" d="M0,-3.0v7 M-2.5,-0.5L0,-3.0L2.5,-0.5"/>
                </g>
               <g id="resetDef">
                       <use xlink:href="#rim2" fill="#404040">
                               <set attributeName="fill" to="#808080" begin="reset.mouseover" end="reset.mouseout"/>
                       </use>
               </g>
        </defs>

<script type="text/javascript">
var viewWidth = 1366;
var viewHeight = 268;
var sectionId = 'dynsection-5';
</script>
<script xlink:href="svgpan.js"/>
<svg id="graph" class="graph">
<g id="viewport">
<title>G</title>
<!-- Node1 -->
<g id="node1" class="node"><title>Node1</title>
<polygon fill="#bfbfbf" stroke="black" points="0.5,-140.5 0.5,-161.5 179.5,-161.5 179.5,-140.5 0.5,-140.5"/>
<text text-anchor="middle" x="90" y="-148.5" font-family="FreeSans.ttf" font-size="10.00">CloudViewDialog::childWheelEvent</text>
</g>
<!-- Node2 -->
<g id="node3" class="node"><title>Node2</title>
<a xlink:href="classCloudViewDialog.html#a3d1ced33446a9df09178854d51fe0166" target="_top" xlink:title="CloudViewDialog::zoom">
<polygon fill="none" stroke="black" points="216,-140.5 216,-161.5 344,-161.5 344,-140.5 216,-140.5"/>
<text text-anchor="middle" x="280" y="-148.5" font-family="FreeSans.ttf" font-size="10.00">CloudViewDialog::zoom</text>
</a>
</g>
<!-- Node1&#45;&gt;Node2 -->
<g id="edge2" class="edge"><title>Node1&#45;&gt;Node2</title>
<path fill="none" stroke="midnightblue" d="M179.714,-151C188.39,-151 197.124,-151 205.627,-151"/>
<polygon fill="midnightblue" stroke="midnightblue" points="205.864,-154.5 215.864,-151 205.863,-147.5 205.864,-154.5"/>
</g>
<!-- Node3 -->
<g id="node5" class="node"><title>Node3</title>
<a xlink:href="classCloudViewDialog.html#aed3e64963933f572b2d740add6df8778" target="_top" xlink:title="CloudViewDialog::setZoom">
<polygon fill="none" stroke="black" points="389,-160.5 389,-181.5 535,-181.5 535,-160.5 389,-160.5"/>
<text text-anchor="middle" x="462" y="-168.5" font-family="FreeSans.ttf" font-size="10.00">CloudViewDialog::setZoom</text>
</a>
</g>
<!-- Node2&#45;&gt;Node3 -->
<g id="edge4" class="edge"><title>Node2&#45;&gt;Node3</title>
<path fill="none" stroke="midnightblue" d="M344.166,-158.051C355.327,-159.278 367.079,-160.569 378.665,-161.842"/>
<polygon fill="midnightblue" stroke="midnightblue" points="378.461,-165.341 388.784,-162.954 379.226,-158.383 378.461,-165.341"/>
</g>
<!-- Node4 -->
<g id="node7" class="node"><title>Node4</title>
<a xlink:href="classCloudViewDialog.html#aa0e690216fa07139c8030ad79f5adab2" target="_top" xlink:title="CloudViewDialog::resetCamera">
<polygon fill="none" stroke="black" points="380,-120.5 380,-141.5 544,-141.5 544,-120.5 380,-120.5"/>
<text text-anchor="middle" x="462" y="-128.5" font-family="FreeSans.ttf" font-size="10.00">CloudViewDialog::resetCamera</text>
</a>
</g>
<!-- Node2&#45;&gt;Node4 -->
<g id="edge6" class="edge"><title>Node2&#45;&gt;Node4</title>
<path fill="none" stroke="midnightblue" d="M344.166,-143.949C352.478,-143.035 361.119,-142.086 369.773,-141.135"/>
<polygon fill="midnightblue" stroke="midnightblue" points="370.364,-144.591 379.922,-140.02 369.599,-137.633 370.364,-144.591"/>
</g>
<!-- Node5 -->
<g id="node9" class="node"><title>Node5</title>
<a xlink:href="classOpenGLTools.html#a92e6202f71c554b0b85619dd8ff04b73" target="_top" xlink:title="Same as above except for looking in positive Z direction.">
<polygon fill="none" stroke="black" points="580.5,-198.5 580.5,-219.5 757.5,-219.5 757.5,-198.5 580.5,-198.5"/>
<text text-anchor="middle" x="669" y="-206.5" font-family="FreeSans.ttf" font-size="10.00">OpenGLTools::gluPerspectivePosZ</text>
</a>
</g>
<!-- Node4&#45;&gt;Node5 -->
<g id="edge8" class="edge"><title>Node4&#45;&gt;Node5</title>
<path fill="none" stroke="midnightblue" d="M521.124,-141.605C529.052,-144.114 536.891,-147.203 544,-151 563.145,-161.226 561.035,-173.444 580,-184 588.033,-188.471 596.927,-192.193 605.894,-195.277"/>
<polygon fill="midnightblue" stroke="midnightblue" points="605.026,-198.674 615.617,-198.379 607.153,-192.005 605.026,-198.674"/>
</g>
<!-- Node7 -->
<g id="node13" class="node"><title>Node7</title>
<a xlink:href="classOpenGLTools.html#a990fb295ace9f68c82ab058add581835" target="_top" xlink:title="OpenGLTools::glMultMatrixMatrix44">
<polygon fill="none" stroke="black" points="794,-198.5 794,-219.5 976,-219.5 976,-198.5 794,-198.5"/>
<text text-anchor="middle" x="885" y="-206.5" font-family="FreeSans.ttf" font-size="10.00">OpenGLTools::glMultMatrixMatrix44</text>
</a>
</g>
<!-- Node4&#45;&gt;Node7 -->
<g id="edge34" class="edge"><title>Node4&#45;&gt;Node7</title>
<path fill="none" stroke="midnightblue" d="M519.048,-141.519C596.656,-155.83 735.271,-181.39 817.817,-196.612"/>
<polygon fill="midnightblue" stroke="midnightblue" points="817.375,-200.089 827.844,-198.461 818.645,-193.205 817.375,-200.089"/>
</g>
<!-- Node11 -->
<g id="node21" class="node"><title>Node11</title>
<a xlink:href="namespacecorecvs.html#a319a0d46c2f53180fd1c9c477718d8b1" target="_top" xlink:title="Useful radian to degrees and back conversions.">
<polygon fill="none" stroke="black" points="617,-120.5 617,-141.5 721,-141.5 721,-120.5 617,-120.5"/>
<text text-anchor="middle" x="669" y="-128.5" font-family="FreeSans.ttf" font-size="10.00">corecvs::radToDeg</text>
</a>
</g>
<!-- Node4&#45;&gt;Node11 -->
<g id="edge20" class="edge"><title>Node4&#45;&gt;Node11</title>
<path fill="none" stroke="midnightblue" d="M544.109,-131C564.968,-131 587.038,-131 606.729,-131"/>
<polygon fill="midnightblue" stroke="midnightblue" points="606.79,-134.5 616.79,-131 606.79,-127.5 606.79,-134.5"/>
</g>
<!-- Node12 -->
<g id="node23" class="node"><title>Node12</title>
<a xlink:href="classOpenGLTools.html#abf0b2767139d28cd65092d95306d812d" target="_top" xlink:title="Equivalent to old function gluPerspective.">
<polygon fill="none" stroke="black" points="593,-238.5 593,-259.5 745,-259.5 745,-238.5 593,-238.5"/>
<text text-anchor="middle" x="669" y="-246.5" font-family="FreeSans.ttf" font-size="10.00">OpenGLTools::gluPerspective</text>
</a>
</g>
<!-- Node4&#45;&gt;Node12 -->
<g id="edge22" class="edge"><title>Node4&#45;&gt;Node12</title>
<path fill="none" stroke="midnightblue" d="M528.549,-141.545C534.106,-144.073 539.362,-147.181 544,-151 573.476,-175.268 550.305,-205.001 580,-229 582.048,-230.655 584.205,-232.179 586.448,-233.583"/>
<polygon fill="midnightblue" stroke="midnightblue" points="585.015,-236.786 595.483,-238.42 588.319,-230.615 585.015,-236.786"/>
</g>
<!-- Node13 -->
<g id="node27" class="node"><title>Node13</title>
<a xlink:href="classcorecvs_1_1Vector3d.html#aec83d9ad04107cd9c2bb11abf33128c0" target="_top" xlink:title="Helper functions to access elements.">
<polygon fill="none" stroke="black" points="612.5,-80.5 612.5,-101.5 725.5,-101.5 725.5,-80.5 612.5,-80.5"/>
<text text-anchor="middle" x="669" y="-88.5" font-family="FreeSans.ttf" font-size="10.00">corecvs::Vector3d::x</text>
</a>
</g>
<!-- Node4&#45;&gt;Node13 -->
<g id="edge28" class="edge"><title>Node4&#45;&gt;Node13</title>
<path fill="none" stroke="midnightblue" d="M516.387,-120.49C543.378,-115.275 576.17,-108.938 604.43,-103.477"/>
<polygon fill="midnightblue" stroke="midnightblue" points="605.463,-106.842 614.617,-101.509 604.135,-99.9696 605.463,-106.842"/>
</g>
<!-- Node14 -->
<g id="node29" class="node"><title>Node14</title>
<a xlink:href="classcorecvs_1_1Vector3d.html#a940d88447f20fac800d1fa510c981275" target="_top" xlink:title="corecvs::Vector3d::y">
<polygon fill="none" stroke="black" points="612.5,-40.5 612.5,-61.5 725.5,-61.5 725.5,-40.5 612.5,-40.5"/>
<text text-anchor="middle" x="669" y="-48.5" font-family="FreeSans.ttf" font-size="10.00">corecvs::Vector3d::y</text>
</a>
</g>
<!-- Node4&#45;&gt;Node14 -->
<g id="edge30" class="edge"><title>Node4&#45;&gt;Node14</title>
<path fill="none" stroke="midnightblue" d="M479.372,-120.417C501.856,-107.138 542.593,-84.4737 580,-71 587.229,-68.3963 594.914,-66.0612 602.623,-63.9863"/>
<polygon fill="midnightblue" stroke="midnightblue" points="603.546,-67.3631 612.368,-61.4967 601.813,-60.5809 603.546,-67.3631"/>
</g>
<!-- Node15 -->
<g id="node31" class="node"><title>Node15</title>
<a xlink:href="classcorecvs_1_1Vector3d.html#a4587f5d4984576c5c4c2d44a4140ce3f" target="_top" xlink:title="corecvs::Vector3d::z">
<polygon fill="none" stroke="black" points="612.5,-0.5 612.5,-21.5 725.5,-21.5 725.5,-0.5 612.5,-0.5"/>
<text text-anchor="middle" x="669" y="-8.5" font-family="FreeSans.ttf" font-size="10.00">corecvs::Vector3d::z</text>
</a>
</g>
<!-- Node4&#45;&gt;Node15 -->
<g id="edge32" class="edge"><title>Node4&#45;&gt;Node15</title>
<path fill="none" stroke="midnightblue" d="M471.206,-120.331C489.647,-99.6763 533.367,-54.2223 580,-31 586.977,-27.5254 594.562,-24.6476 602.261,-22.2655"/>
<polygon fill="midnightblue" stroke="midnightblue" points="603.366,-25.5905 612.039,-19.5057 601.465,-18.8537 603.366,-25.5905"/>
</g>
<!-- Node6 -->
<g id="node11" class="node"><title>Node6</title>
<a xlink:href="namespacecorecvs.html#a232d61cca5a815cc01f2eaa73604a48c" target="_top" xlink:title="corecvs::degToRad">
<polygon fill="none" stroke="black" points="832.5,-238.5 832.5,-259.5 937.5,-259.5 937.5,-238.5 832.5,-238.5"/>
<text text-anchor="middle" x="885" y="-246.5" font-family="FreeSans.ttf" font-size="10.00">corecvs::degToRad</text>
</a>
</g>
<!-- Node5&#45;&gt;Node6 -->
<g id="edge10" class="edge"><title>Node5&#45;&gt;Node6</title>
<path fill="none" stroke="midnightblue" d="M725.751,-219.51C755.399,-225 791.753,-231.732 822.238,-237.377"/>
<polygon fill="midnightblue" stroke="midnightblue" points="821.863,-240.867 832.333,-239.247 823.138,-233.984 821.863,-240.867"/>
</g>
<!-- Node5&#45;&gt;Node7 -->
<g id="edge12" class="edge"><title>Node5&#45;&gt;Node7</title>
<path fill="none" stroke="midnightblue" d="M757.791,-209C766.321,-209 775.017,-209 783.656,-209"/>
<polygon fill="midnightblue" stroke="midnightblue" points="783.757,-212.5 793.757,-209 783.757,-205.5 783.757,-212.5"/>
</g>
<!-- Node8 -->
<g id="node15" class="node"><title>Node8</title>
<a xlink:href="classcorecvs_1_1Matrix44.html#a2b2199727e0ea9264105937c9aca9a1f" target="_top" xlink:title="Returning transposed matrix.">
<polygon fill="none" stroke="black" points="1012.5,-198.5 1012.5,-219.5 1173.5,-219.5 1173.5,-198.5 1012.5,-198.5"/>
<text text-anchor="middle" x="1093" y="-206.5" font-family="FreeSans.ttf" font-size="10.00">corecvs::Matrix44::transposed</text>
</a>
</g>
<!-- Node7&#45;&gt;Node8 -->
<g id="edge14" class="edge"><title>Node7&#45;&gt;Node8</title>
<path fill="none" stroke="midnightblue" d="M976.232,-209C984.862,-209 993.611,-209 1002.24,-209"/>
<polygon fill="midnightblue" stroke="midnightblue" points="1002.29,-212.5 1012.29,-209 1002.29,-205.5 1002.29,-212.5"/>
</g>
<!-- Node9 -->
<g id="node17" class="node"><title>Node9</title>
<a xlink:href="classcorecvs_1_1Matrix44.html#acf5e18b2333c493522c2d32ae8719541" target="_top" xlink:title="corecvs::Matrix44::Matrix44">
<polygon fill="none" stroke="black" points="1210,-218.5 1210,-239.5 1358,-239.5 1358,-218.5 1210,-218.5"/>
<text text-anchor="middle" x="1284" y="-226.5" font-family="FreeSans.ttf" font-size="10.00">corecvs::Matrix44::Matrix44</text>
</a>
</g>
<!-- Node8&#45;&gt;Node9 -->
<g id="edge16" class="edge"><title>Node8&#45;&gt;Node9</title>
<path fill="none" stroke="midnightblue" d="M1173.72,-217.453C1182.36,-218.357 1191.16,-219.278 1199.83,-220.187"/>
<polygon fill="midnightblue" stroke="midnightblue" points="1199.63,-223.684 1209.94,-221.245 1200.36,-216.723 1199.63,-223.684"/>
</g>
<!-- Node10 -->
<g id="node19" class="node"><title>Node10</title>
<a xlink:href="classcorecvs_1_1Matrix44.html#ad53e6a4c5f30ed13b1bd0946f0e66a06" target="_top" xlink:title="Geting Matrix element functions block.">
<polygon fill="none" stroke="black" points="1227.5,-178.5 1227.5,-199.5 1340.5,-199.5 1340.5,-178.5 1227.5,-178.5"/>
<text text-anchor="middle" x="1284" y="-186.5" font-family="FreeSans.ttf" font-size="10.00">corecvs::Matrix44::a</text>
</a>
</g>
<!-- Node8&#45;&gt;Node10 -->
<g id="edge18" class="edge"><title>Node8&#45;&gt;Node10</title>
<path fill="none" stroke="midnightblue" d="M1173.72,-200.547C1188.23,-199.029 1203.19,-197.462 1217.24,-195.99"/>
<polygon fill="midnightblue" stroke="midnightblue" points="1217.71,-199.46 1227.29,-194.938 1216.98,-192.498 1217.71,-199.46"/>
</g>
<!-- Node12&#45;&gt;Node6 -->
<g id="edge24" class="edge"><title>Node12&#45;&gt;Node6</title>
<path fill="none" stroke="midnightblue" d="M745.154,-249C770.341,-249 798.067,-249 822.143,-249"/>
<polygon fill="midnightblue" stroke="midnightblue" points="822.22,-252.5 832.22,-249 822.22,-245.5 822.22,-252.5"/>
</g>
<!-- Node12&#45;&gt;Node7 -->
<g id="edge26" class="edge"><title>Node12&#45;&gt;Node7</title>
<path fill="none" stroke="midnightblue" d="M725.751,-238.49C754.163,-233.229 788.735,-226.827 818.398,-221.334"/>
<polygon fill="midnightblue" stroke="midnightblue" points="819.057,-224.771 828.253,-219.509 817.783,-217.888 819.057,-224.771"/>
</g>
</g>
</svg>
        <g id="navigator" transform="translate(0 0)" fill="#404254">
                <rect fill="#f2f5e9" fill-opacity="0.5" stroke="#606060" stroke-width=".5" x="0" y="0" width="60" height="60"/>
                <use id="zoomplus" xlink:href="#zoomPlus" x="17" y="9" onmousedown="handleZoom(evt,'in')"/>
                <use id="zoomminus" xlink:href="#zoomMin" x="42" y="9" onmousedown="handleZoom(evt,'out')"/>
                <use id="reset" xlink:href="#resetDef" x="30" y="36" onmousedown="handleReset()"/>
                <g id="arrowUp" xlink:href="#dirArrow" transform="translate(30 24)" onmousedown="handlePan(0,-1)">
                  <use xlink:href="#rim" fill="#404040">
                        <set attributeName="fill" to="#808080" begin="arrowUp.mouseover" end="arrowUp.mouseout"/>
                  </use>
                  <path fill="none" stroke="white" stroke-width="1.5" d="M0,-3.0v7 M-2.5,-0.5L0,-3.0L2.5,-0.5"/>
                </g>
                <g id="arrowRight" xlink:href="#dirArrow" transform="rotate(90) translate(36 -43)" onmousedown="handlePan(1,0)">
                  <use xlink:href="#rim" fill="#404040">
                        <set attributeName="fill" to="#808080" begin="arrowRight.mouseover" end="arrowRight.mouseout"/>
                  </use>
                  <path fill="none" stroke="white" stroke-width="1.5" d="M0,-3.0v7 M-2.5,-0.5L0,-3.0L2.5,-0.5"/>
                </g>
                <g id="arrowDown" xlink:href="#dirArrow" transform="rotate(180) translate(-30 -48)" onmousedown="handlePan(0,1)">
                  <use xlink:href="#rim" fill="#404040">
                        <set attributeName="fill" to="#808080" begin="arrowDown.mouseover" end="arrowDown.mouseout"/>
                  </use>
                  <path fill="none" stroke="white" stroke-width="1.5" d="M0,-3.0v7 M-2.5,-0.5L0,-3.0L2.5,-0.5"/>
                </g>
                <g id="arrowLeft" xlink:href="#dirArrow" transform="rotate(270) translate(-36 17)" onmousedown="handlePan(-1,0)">
                  <use xlink:href="#rim" fill="#404040">
                        <set attributeName="fill" to="#808080" begin="arrowLeft.mouseover" end="arrowLeft.mouseout"/>
                  </use>
                  <path fill="none" stroke="white" stroke-width="1.5" d="M0,-3.0v7 M-2.5,-0.5L0,-3.0L2.5,-0.5"/>
                </g>
        </g>
</svg>
