<?xml version="1.0" encoding="UTF-8" standalone="no"?>
<!DOCTYPE svg PUBLIC "-//W3C//DTD SVG 1.1//EN"
 "http://www.w3.org/Graphics/SVG/1.1/DTD/svg11.dtd">
<!-- Generated by graphviz version 2.26.3 (20100126.1600)
 -->
<!-- Title: G Pages: 1 -->
<svg width="472pt" height="70pt"
 viewBox="0.00 0.00 472.00 70.00" xmlns="http://www.w3.org/2000/svg" xmlns:xlink="http://www.w3.org/1999/xlink">
<g id="graph1" class="graph" transform="scale(1 1) rotate(0) translate(4 66)">
<title>G</title>
<!-- Node1 -->
<g id="node1" class="node"><title>Node1</title>
<polygon fill="#bfbfbf" stroke="black" points="0.5,-20.5 0.5,-41.5 267.5,-41.5 267.5,-20.5 0.5,-20.5"/>
<text text-anchor="middle" x="134" y="-28.5" font-family="FreeSans.ttf" font-size="10.00">corecvs::BufferProcessor::ParallelProcess::operator()</text>
</g>
<!-- Node2 -->
<g id="node3" class="node"><title>Node2</title>
<a xlink:href="classcorecvs_1_1BlockedRange.html#a6afc35b5d0d32070559723d5bb0a4f73" target="_top" xlink:title="corecvs::BlockedRange::begin">
<polygon fill="none" stroke="black" points="304.5,-40.5 304.5,-61.5 463.5,-61.5 463.5,-40.5 304.5,-40.5"/>
<text text-anchor="middle" x="384" y="-48.5" font-family="FreeSans.ttf" font-size="10.00">corecvs::BlockedRange::begin</text>
</a>
</g>
<!-- Node1&#45;&gt;Node2 -->
<g id="edge2" class="edge"><title>Node1&#45;&gt;Node2</title>
<path fill="none" stroke="midnightblue" d="M265.589,-41.5271C275.264,-42.3012 284.887,-43.071 294.224,-43.8179"/>
<polygon fill="midnightblue" stroke="midnightblue" points="293.985,-47.3099 304.233,-44.6186 294.544,-40.3322 293.985,-47.3099"/>
</g>
<!-- Node3 -->
<g id="node5" class="node"><title>Node3</title>
<a xlink:href="classcorecvs_1_1BlockedRange.html#a6f7301fc298a428dde190df3e30551f7" target="_top" xlink:title="corecvs::BlockedRange::end">
<polygon fill="none" stroke="black" points="308.5,-0.5 308.5,-21.5 459.5,-21.5 459.5,-0.5 308.5,-0.5"/>
<text text-anchor="middle" x="384" y="-8.5" font-family="FreeSans.ttf" font-size="10.00">corecvs::BlockedRange::end</text>
</a>
</g>
<!-- Node1&#45;&gt;Node3 -->
<g id="edge4" class="edge"><title>Node1&#45;&gt;Node3</title>
<path fill="none" stroke="midnightblue" d="M265.589,-20.4729C276.643,-19.5886 287.628,-18.7098 298.197,-17.8643"/>
<polygon fill="midnightblue" stroke="midnightblue" points="298.502,-21.3511 308.191,-17.0647 297.944,-14.3734 298.502,-21.3511"/>
</g>
</g>
</svg>
