<?xml version="1.0" encoding="UTF-8" standalone="no"?>
<!DOCTYPE svg PUBLIC "-//W3C//DTD SVG 1.1//EN"
 "http://www.w3.org/Graphics/SVG/1.1/DTD/svg11.dtd">
<!-- Generated by graphviz version 2.26.3 (20100126.1600)
 -->
<!-- Title: G Pages: 1 -->
<svg width="154pt" height="162pt"
 viewBox="0.00 0.00 154.00 162.00" xmlns="http://www.w3.org/2000/svg" xmlns:xlink="http://www.w3.org/1999/xlink">
<g id="graph1" class="graph" transform="scale(1 1) rotate(0) translate(4 158)">
<title>G</title>
<!-- Node1 -->
<g id="node1" class="node"><title>Node1</title>
<polygon fill="#bfbfbf" stroke="black" points="33,-0.5 33,-21.5 113,-21.5 113,-0.5 33,-0.5"/>
<text text-anchor="middle" x="73" y="-8.5" font-family="FreeSans.ttf" font-size="10.00">GraphHistory</text>
</g>
<!-- Node2 -->
<g id="node2" class="node"><title>Node2</title>
<a xlink:title="STL class.">
<polygon fill="none" stroke="#bfbfbf" points="0,-60.5 0,-81.5 146,-81.5 146,-60.5 0,-60.5"/>
<text text-anchor="middle" x="73" y="-68.5" font-family="FreeSans.ttf" font-size="10.00">std::deque&lt; GraphValue &gt;</text>
</a>
</g>
<!-- Node2&#45;&gt;Node1 -->
<g id="edge2" class="edge"><title>Node2&#45;&gt;Node1</title>
<path fill="none" stroke="midnightblue" d="M73,-50.2312C73,-40.5922 73,-29.5444 73,-21.6339"/>
<polygon fill="midnightblue" stroke="midnightblue" points="69.5001,-50.2732 73,-60.2732 76.5001,-50.2732 69.5001,-50.2732"/>
</g>
<!-- Node3 -->
<g id="node4" class="node"><title>Node3</title>
<polygon fill="none" stroke="#bfbfbf" points="58.5,-132.5 58.5,-153.5 87.5,-153.5 87.5,-132.5 58.5,-132.5"/>
<text text-anchor="middle" x="73" y="-140.5" font-family="FreeSans.ttf" font-size="10.00">T</text>
</g>
<!-- Node3&#45;&gt;Node2 -->
<g id="edge4" class="edge"><title>Node3&#45;&gt;Node2</title>
<path fill="none" stroke="#9a32cd" stroke-dasharray="5,2" d="M73,-122.235C73,-108.969 73,-92.3188 73,-81.6674"/>
<polygon fill="#9a32cd" stroke="#9a32cd" points="69.5001,-122.376 73,-132.376 76.5001,-122.376 69.5001,-122.376"/>
<text text-anchor="middle" x="97.5" y="-104.5" font-family="FreeSans.ttf" font-size="10.00"> elements</text>
</g>
</g>
</svg>
