<?xml version="1.0" encoding="UTF-8" standalone="no"?>
<!DOCTYPE svg PUBLIC "-//W3C//DTD SVG 1.1//EN"
 "http://www.w3.org/Graphics/SVG/1.1/DTD/svg11.dtd">
<!-- Generated by graphviz version 2.26.3 (20100126.1600)
 -->
<!-- Title: G Pages: 1 -->
<svg width="492pt" height="90pt"
 viewBox="0.00 0.00 492.00 90.00" xmlns="http://www.w3.org/2000/svg" xmlns:xlink="http://www.w3.org/1999/xlink">
<g id="graph1" class="graph" transform="scale(1 1) rotate(0) translate(4 86)">
<title>G</title>
<!-- Node1 -->
<g id="node1" class="node"><title>Node1</title>
<polygon fill="#bfbfbf" stroke="black" points="0,-40.5 0,-61.5 140,-61.5 140,-40.5 0,-40.5"/>
<text text-anchor="middle" x="70" y="-48.5" font-family="FreeSans.ttf" font-size="10.00">corecvs::Element6D::is5D</text>
</g>
<!-- Node2 -->
<g id="node3" class="node"><title>Node2</title>
<a xlink:href="classcorecvs_1_1Element6D.html#a7a92042c62c507842f8263f5694d9a8d" target="_top" xlink:title="corecvs::Element6D::hasDisp">
<polygon fill="none" stroke="black" points="176.5,-60.5 176.5,-81.5 333.5,-81.5 333.5,-60.5 176.5,-60.5"/>
<text text-anchor="middle" x="255" y="-68.5" font-family="FreeSans.ttf" font-size="10.00">corecvs::Element6D::hasDisp</text>
</a>
</g>
<!-- Node1&#45;&gt;Node2 -->
<g id="edge2" class="edge"><title>Node1&#45;&gt;Node2</title>
<path fill="none" stroke="midnightblue" d="M140.204,-58.5897C148.819,-59.521 157.709,-60.482 166.549,-61.4377"/>
<polygon fill="midnightblue" stroke="midnightblue" points="166.173,-64.9174 176.491,-62.5125 166.925,-57.9579 166.173,-64.9174"/>
</g>
<!-- Node3 -->
<g id="node5" class="node"><title>Node3</title>
<a xlink:href="classcorecvs_1_1Element6D.html#a84baf8968271e8a1678ac75572c93545" target="_top" xlink:title="corecvs::Element6D::hasFlow">
<polygon fill="none" stroke="black" points="177,-20.5 177,-41.5 333,-41.5 333,-20.5 177,-20.5"/>
<text text-anchor="middle" x="255" y="-28.5" font-family="FreeSans.ttf" font-size="10.00">corecvs::Element6D::hasFlow</text>
</a>
</g>
<!-- Node1&#45;&gt;Node3 -->
<g id="edge4" class="edge"><title>Node1&#45;&gt;Node3</title>
<path fill="none" stroke="midnightblue" d="M140.204,-43.4103C148.894,-42.471 157.862,-41.5014 166.777,-40.5376"/>
<polygon fill="midnightblue" stroke="midnightblue" points="167.237,-44.0084 176.803,-39.4538 166.484,-37.049 167.237,-44.0084"/>
</g>
<!-- Node4 -->
<g id="node7" class="node"><title>Node4</title>
<a xlink:href="classcorecvs_1_1Vector2d.html#a944721c41f044c1388d9dc42ca899bce" target="_top" xlink:title="corecvs::Vector2d::x">
<polygon fill="none" stroke="black" points="370.5,-40.5 370.5,-61.5 483.5,-61.5 483.5,-40.5 370.5,-40.5"/>
<text text-anchor="middle" x="427" y="-48.5" font-family="FreeSans.ttf" font-size="10.00">corecvs::Vector2d::x</text>
</a>
</g>
<!-- Node3&#45;&gt;Node4 -->
<g id="edge6" class="edge"><title>Node3&#45;&gt;Node4</title>
<path fill="none" stroke="midnightblue" d="M333.199,-40.0929C342.193,-41.1387 351.301,-42.1978 360.126,-43.224"/>
<polygon fill="midnightblue" stroke="midnightblue" points="359.995,-46.7322 370.332,-44.4107 360.803,-39.779 359.995,-46.7322"/>
</g>
<!-- Node5 -->
<g id="node9" class="node"><title>Node5</title>
<a xlink:href="classcorecvs_1_1Vector2d.html#ae1ea2ad4c0821001408bf963cffa8413" target="_top" xlink:title="corecvs::Vector2d::y">
<polygon fill="none" stroke="black" points="370.5,-0.5 370.5,-21.5 483.5,-21.5 483.5,-0.5 370.5,-0.5"/>
<text text-anchor="middle" x="427" y="-8.5" font-family="FreeSans.ttf" font-size="10.00">corecvs::Vector2d::y</text>
</a>
</g>
<!-- Node3&#45;&gt;Node5 -->
<g id="edge8" class="edge"><title>Node3&#45;&gt;Node5</title>
<path fill="none" stroke="midnightblue" d="M333.199,-21.9071C342.193,-20.8613 351.301,-19.8022 360.126,-18.776"/>
<polygon fill="midnightblue" stroke="midnightblue" points="360.803,-22.221 370.332,-17.5893 359.995,-15.2678 360.803,-22.221"/>
</g>
</g>
</svg>
