<?xml version="1.0" encoding="UTF-8" standalone="no"?>
<!DOCTYPE svg PUBLIC "-//W3C//DTD SVG 1.1//EN"
 "http://www.w3.org/Graphics/SVG/1.1/DTD/svg11.dtd">
<!-- Generated by graphviz version 2.26.3 (20100126.1600)
 -->
<!-- Title: G Pages: 1 -->
<!--zoomable 574 -->
<svg id="main" version="1.1" xmlns="http://www.w3.org/2000/svg" xmlns:xlink="http://www.w3.org/1999/xlink" xml:space="preserve" onload="init(evt)">
        <defs>
                <circle id="rim" cx="0" cy="0" r="7"/>
                <circle id="rim2" cx="0" cy="0" r="3.5"/>
                <g id="zoomPlus">
                        <use xlink:href="#rim" fill="#404040">
                                <set attributeName="fill" to="#808080" begin="zoomplus.mouseover" end="zoomplus.mouseout"/>
                        </use>
                        <path d="M-4,0h8M0,-4v8" fill="none" stroke="white" stroke-width="1.5" pointer-events="none"/>
                </g>
                <g id="zoomMin">
                        <use xlink:href="#rim" fill="#404040">
                                <set attributeName="fill" to="#808080" begin="zoomminus.mouseover" end="zoomminus.mouseout"/>
                        </use>
                        <path d="M-4,0h8" fill="none" stroke="white" stroke-width="1.5" pointer-events="none"/>
                </g>
                <g id="dirArrow">
                        <path fill="none" stroke="white" stroke-width="1.5" d="M0,-3.0v7 M-2.5,-0.5L0,-3.0L2.5,-0.5"/>
                </g>
               <g id="resetDef">
                       <use xlink:href="#rim2" fill="#404040">
                               <set attributeName="fill" to="#808080" begin="reset.mouseover" end="reset.mouseout"/>
                       </use>
               </g>
        </defs>

<script type="text/javascript">
var viewWidth = 2498;
var viewHeight = 574;
var sectionId = 'dynsection-1';
</script>
<script xlink:href="svgpan.js"/>
<svg id="graph" class="graph">
<g id="viewport">
<title>G</title>
<!-- Node1 -->
<g id="node1" class="node"><title>Node1</title>
<polygon fill="#bfbfbf" stroke="black" points="1879,-208.5 1879,-229.5 1991,-229.5 1991,-208.5 1879,-208.5"/>
<text text-anchor="middle" x="1935" y="-216.5" font-family="FreeSans.ttf" font-size="10.00">corecvs::CannyFilter</text>
</g>
<!-- Node2 -->
<g id="node2" class="node"><title>Node2</title>
<a xlink:href="classcorecvs_1_1FilterBlock.html" target="_top" xlink:title="corecvs::FilterBlock">
<polygon fill="none" stroke="black" points="1534.5,-445.5 1534.5,-466.5 1641.5,-466.5 1641.5,-445.5 1534.5,-445.5"/>
<text text-anchor="middle" x="1588" y="-453.5" font-family="FreeSans.ttf" font-size="10.00">corecvs::FilterBlock</text>
</a>
</g>
<!-- Node2&#45;&gt;Node1 -->
<g id="edge2" class="edge"><title>Node2&#45;&gt;Node1</title>
<path fill="none" stroke="midnightblue" d="M1641.7,-443.1C1710.35,-426.501 1820.81,-399.384 1824,-396 1852.9,-365.383 1821.31,-339.667 1842,-303 1860.39,-270.408 1896.05,-243.693 1917.47,-229.67"/>
<polygon fill="midnightblue" stroke="midnightblue" points="1640.79,-439.719 1631.89,-445.469 1642.43,-446.523 1640.79,-439.719"/>
</g>
<!-- Node15 -->
<g id="node31" class="node"><title>Node15</title>
<a xlink:href="classcorecvs_1_1Pin.html" target="_top" xlink:title="corecvs::Pin">
<polygon fill="none" stroke="black" points="1898,-477.5 1898,-498.5 1972,-498.5 1972,-477.5 1898,-477.5"/>
<text text-anchor="middle" x="1935" y="-485.5" font-family="FreeSans.ttf" font-size="10.00">corecvs::Pin</text>
</a>
</g>
<!-- Node2&#45;&gt;Node15 -->
<g id="edge38" class="edge"><title>Node2&#45;&gt;Node15</title>
<path fill="none" stroke="#9a32cd" stroke-dasharray="5,2" d="M1652.16,-461.916C1724.25,-468.565 1838.87,-479.135 1897.61,-484.552"/>
<polygon fill="#9a32cd" stroke="#9a32cd" points="1652.12,-458.398 1641.84,-460.965 1651.47,-465.368 1652.12,-458.398"/>
<text text-anchor="middle" x="1774" y="-481" font-family="FreeSans.ttf" font-size="10.00"> parent</text>
</g>
<!-- Node3 -->
<g id="node4" class="node"><title>Node3</title>
<a xlink:href="classcorecvs_1_1FilterGraph.html" target="_top" xlink:title="corecvs::FilterGraph">
<polygon fill="none" stroke="black" points="2378.5,-379.5 2378.5,-400.5 2489.5,-400.5 2489.5,-379.5 2378.5,-379.5"/>
<text text-anchor="middle" x="2434" y="-387.5" font-family="FreeSans.ttf" font-size="10.00">corecvs::FilterGraph</text>
</a>
</g>
<!-- Node3&#45;&gt;Node2 -->
<g id="edge4" class="edge"><title>Node3&#45;&gt;Node2</title>
<path fill="none" stroke="#9a32cd" stroke-dasharray="5,2" d="M2415.27,-407.348C2401.05,-419.691 2380.51,-435.826 2360,-446 2150.46,-549.939 2072.99,-575.784 1842,-539 1754.49,-525.065 1656.17,-485.721 1611.89,-466.64"/>
<polygon fill="#9a32cd" stroke="#9a32cd" points="2417.72,-409.855 2422.86,-400.593 2413.07,-404.625 2417.72,-409.855"/>
<text text-anchor="middle" x="2087" y="-557" font-family="FreeSans.ttf" font-size="10.00"> parent</text>
</g>
<!-- Node3&#45;&gt;Node3 -->
<g id="edge30" class="edge"><title>Node3&#45;&gt;Node3</title>
<path fill="none" stroke="#9a32cd" stroke-dasharray="5,2" d="M2415.94,-410.427C2417.33,-415.349 2423.35,-419 2434,-419 2451.04,-419 2456.23,-409.653 2449.57,-400.708"/>
<polygon fill="#9a32cd" stroke="#9a32cd" points="2419.34,-411.264 2418.43,-400.708 2412.56,-409.527 2419.34,-411.264"/>
<text text-anchor="middle" x="2434" y="-423" font-family="FreeSans.ttf" font-size="10.00"> parent</text>
</g>
<!-- Node4 -->
<g id="node6" class="node"><title>Node4</title>
<a xlink:href="classcorecvs_1_1FiltersCollection.html" target="_top" xlink:title="corecvs::FiltersCollection">
<polygon fill="none" stroke="black" points="2152,-379.5 2152,-400.5 2286,-400.5 2286,-379.5 2152,-379.5"/>
<text text-anchor="middle" x="2219" y="-387.5" font-family="FreeSans.ttf" font-size="10.00">corecvs::FiltersCollection</text>
</a>
</g>
<!-- Node4&#45;&gt;Node3 -->
<g id="edge6" class="edge"><title>Node4&#45;&gt;Node3</title>
<path fill="none" stroke="#9a32cd" stroke-dasharray="5,2" d="M2296.36,-390C2323.41,-390 2353.24,-390 2378.19,-390"/>
<polygon fill="#9a32cd" stroke="#9a32cd" points="2296.14,-386.5 2286.14,-390 2296.14,-393.5 2296.14,-386.5"/>
<text text-anchor="middle" x="2335" y="-394" font-family="FreeSans.ttf" font-size="10.00"> collection</text>
</g>
<!-- Node5 -->
<g id="node8" class="node"><title>Node5</title>
<polygon fill="none" stroke="#bfbfbf" points="1842,-372.5 1842,-393.5 2028,-393.5 2028,-372.5 1842,-372.5"/>
<text text-anchor="middle" x="1935" y="-380.5" font-family="FreeSans.ttf" font-size="10.00">std::vector&lt; CompoundFilterType &gt;</text>
</g>
<!-- Node5&#45;&gt;Node4 -->
<g id="edge8" class="edge"><title>Node5&#45;&gt;Node4</title>
<path fill="none" stroke="#9a32cd" stroke-dasharray="5,2" d="M2038.4,-385.549C2076.16,-386.479 2117.85,-387.507 2151.65,-388.34"/>
<polygon fill="#9a32cd" stroke="#9a32cd" points="2038.47,-382.049 2028.39,-385.302 2038.3,-389.047 2038.47,-382.049"/>
<text text-anchor="middle" x="2087" y="-391" font-family="FreeSans.ttf" font-size="10.00"> compoundFilters</text>
</g>
<!-- Node6 -->
<g id="node10" class="node"><title>Node6</title>
<a xlink:href="classcorecvs_1_1FiltersCollection_1_1CompoundFilterType.html" target="_top" xlink:title="corecvs::FiltersCollection::CompoundFilterType">
<polygon fill="none" stroke="black" points="1470,-380.5 1470,-401.5 1706,-401.5 1706,-380.5 1470,-380.5"/>
<text text-anchor="middle" x="1588" y="-388.5" font-family="FreeSans.ttf" font-size="10.00">corecvs::FiltersCollection::CompoundFilterType</text>
</a>
</g>
<!-- Node6&#45;&gt;Node5 -->
<g id="edge10" class="edge"><title>Node6&#45;&gt;Node5</title>
<path fill="none" stroke="#9a32cd" stroke-dasharray="5,2" d="M1716.65,-388.034C1758.23,-387.075 1803.5,-386.032 1841.99,-385.144"/>
<polygon fill="#9a32cd" stroke="#9a32cd" points="1716.36,-384.54 1706.45,-388.269 1716.53,-391.538 1716.36,-384.54"/>
<text text-anchor="middle" x="1774" y="-391" font-family="FreeSans.ttf" font-size="10.00"> elements</text>
</g>
<!-- Node7 -->
<g id="node12" class="node"><title>Node7</title>
<polygon fill="none" stroke="#bfbfbf" points="1203.5,-420.5 1203.5,-441.5 1290.5,-441.5 1290.5,-420.5 1203.5,-420.5"/>
<text text-anchor="middle" x="1247" y="-428.5" font-family="FreeSans.ttf" font-size="10.00">std::set&lt; int &gt;</text>
</g>
<!-- Node7&#45;&gt;Node6 -->
<g id="edge12" class="edge"><title>Node7&#45;&gt;Node6</title>
<path fill="none" stroke="#9a32cd" stroke-dasharray="5,2" d="M1300.76,-425.597C1342.13,-421.35 1400.72,-415.144 1452,-409 1471.15,-406.705 1491.8,-404.06 1511.08,-401.517"/>
<polygon fill="#9a32cd" stroke="#9a32cd" points="1300.22,-422.134 1290.63,-426.633 1300.93,-429.098 1300.22,-422.134"/>
<text text-anchor="middle" x="1418" y="-433" font-family="FreeSans.ttf" font-size="10.00"> dependOnMe</text>
<text text-anchor="middle" x="1418" y="-420" font-family="FreeSans.ttf" font-size="10.00">contain</text>
</g>
<!-- Node8 -->
<g id="node14" class="node"><title>Node8</title>
<a xlink:title="STL class.">
<polygon fill="none" stroke="#bfbfbf" points="1214.5,-338.5 1214.5,-359.5 1279.5,-359.5 1279.5,-338.5 1214.5,-338.5"/>
<text text-anchor="middle" x="1247" y="-346.5" font-family="FreeSans.ttf" font-size="10.00">std::string</text>
</a>
</g>
<!-- Node8&#45;&gt;Node6 -->
<g id="edge14" class="edge"><title>Node8&#45;&gt;Node6</title>
<path fill="none" stroke="#9a32cd" stroke-dasharray="5,2" d="M1289.78,-354.269C1342.89,-360.811 1434.73,-372.122 1502.5,-380.469"/>
<polygon fill="#9a32cd" stroke="#9a32cd" points="1290.05,-350.776 1279.7,-353.027 1289.19,-357.723 1290.05,-350.776"/>
<text text-anchor="middle" x="1418" y="-390" font-family="FreeSans.ttf" font-size="10.00"> name</text>
<text text-anchor="middle" x="1418" y="-377" font-family="FreeSans.ttf" font-size="10.00">filename</text>
</g>
<!-- Node10 -->
<g id="node18" class="node"><title>Node10</title>
<a xlink:href="classcorecvs_1_1Statistics.html" target="_top" xlink:title="corecvs::Statistics">
<polygon fill="none" stroke="black" points="1883,-312.5 1883,-333.5 1987,-333.5 1987,-312.5 1883,-312.5"/>
<text text-anchor="middle" x="1935" y="-320.5" font-family="FreeSans.ttf" font-size="10.00">corecvs::Statistics</text>
</a>
</g>
<!-- Node8&#45;&gt;Node10 -->
<g id="edge28" class="edge"><title>Node8&#45;&gt;Node10</title>
<path fill="none" stroke="#9a32cd" stroke-dasharray="5,2" d="M1289.72,-348.723C1385.44,-347.902 1624.4,-344.747 1824,-333 1843.22,-331.869 1864.27,-330.106 1882.82,-328.374"/>
<polygon fill="#9a32cd" stroke="#9a32cd" points="1289.54,-345.224 1279.57,-348.805 1289.59,-352.224 1289.54,-345.224"/>
<text text-anchor="middle" x="1588" y="-350" font-family="FreeSans.ttf" font-size="10.00"> prefix</text>
</g>
<!-- Node12 -->
<g id="node22" class="node"><title>Node12</title>
<polygon fill="none" stroke="#bfbfbf" points="1506,-251.5 1506,-272.5 1670,-272.5 1670,-251.5 1506,-251.5"/>
<text text-anchor="middle" x="1588" y="-259.5" font-family="FreeSans.ttf" font-size="10.00">std::map&lt; string, SingleStat &gt;</text>
</g>
<!-- Node8&#45;&gt;Node12 -->
<g id="edge26" class="edge"><title>Node8&#45;&gt;Node12</title>
<path fill="none" stroke="#9a32cd" stroke-dasharray="5,2" d="M1287.24,-335.263C1331.59,-320.512 1405.23,-297.158 1470,-282 1485.17,-278.449 1501.58,-275.262 1517.21,-272.531"/>
<polygon fill="#9a32cd" stroke="#9a32cd" points="1286.07,-331.963 1277.7,-338.455 1288.29,-338.602 1286.07,-331.963"/>
<text text-anchor="middle" x="1418" y="-307" font-family="FreeSans.ttf" font-size="10.00"> keys</text>
</g>
<!-- Node9 -->
<g id="node16" class="node"><title>Node9</title>
<a xlink:title="STL class.">
<polygon fill="none" stroke="#bfbfbf" points="835,-338.5 835,-359.5 973,-359.5 973,-338.5 835,-338.5"/>
<text text-anchor="middle" x="904" y="-346.5" font-family="FreeSans.ttf" font-size="10.00">std::basic_string&lt; char &gt;</text>
</a>
</g>
<!-- Node9&#45;&gt;Node8 -->
<g id="edge16" class="edge"><title>Node9&#45;&gt;Node8</title>
<path fill="none" stroke="midnightblue" d="M983.533,-349C1056.82,-349 1161.93,-349 1214.49,-349"/>
<polygon fill="midnightblue" stroke="midnightblue" points="983.411,-345.5 973.411,-349 983.411,-352.5 983.411,-345.5"/>
</g>
<!-- Node10&#45;&gt;Node3 -->
<g id="edge18" class="edge"><title>Node10&#45;&gt;Node3</title>
<path fill="none" stroke="#9a32cd" stroke-dasharray="5,2" d="M1997.19,-326.4C2068.68,-330.892 2189.36,-340.263 2292,-357 2327.22,-362.744 2366.72,-372.171 2395.1,-379.482"/>
<polygon fill="#9a32cd" stroke="#9a32cd" points="1997.2,-322.895 1987.01,-325.773 1996.77,-329.882 1997.2,-322.895"/>
<text text-anchor="middle" x="2219" y="-361" font-family="FreeSans.ttf" font-size="10.00"> stats</text>
</g>
<!-- Node11 -->
<g id="node20" class="node"><title>Node11</title>
<a xlink:href="classcorecvs_1_1PreciseTimer.html" target="_top" xlink:title="corecvs::PreciseTimer">
<polygon fill="none" stroke="black" points="1527.5,-291.5 1527.5,-312.5 1648.5,-312.5 1648.5,-291.5 1527.5,-291.5"/>
<text text-anchor="middle" x="1588" y="-299.5" font-family="FreeSans.ttf" font-size="10.00">corecvs::PreciseTimer</text>
</a>
</g>
<!-- Node11&#45;&gt;Node10 -->
<g id="edge20" class="edge"><title>Node11&#45;&gt;Node10</title>
<path fill="none" stroke="#9a32cd" stroke-dasharray="5,2" d="M1659.23,-306.31C1725.67,-310.332 1823.23,-316.236 1882.74,-319.837"/>
<polygon fill="#9a32cd" stroke="#9a32cd" points="1659.03,-302.793 1648.84,-305.682 1658.61,-309.78 1659.03,-302.793"/>
<text text-anchor="middle" x="1774" y="-320" font-family="FreeSans.ttf" font-size="10.00"> helperTimer</text>
</g>
<!-- Node12&#45;&gt;Node10 -->
<g id="edge22" class="edge"><title>Node12&#45;&gt;Node10</title>
<path fill="none" stroke="#9a32cd" stroke-dasharray="5,2" d="M1680.15,-271.217C1723.95,-276.333 1776.91,-283.588 1824,-293 1850.03,-298.204 1878.98,-306.098 1900.78,-312.482"/>
<polygon fill="#9a32cd" stroke="#9a32cd" points="1680.42,-267.725 1670.08,-270.06 1679.62,-274.679 1680.42,-267.725"/>
<text text-anchor="middle" x="1774" y="-297" font-family="FreeSans.ttf" font-size="10.00"> values</text>
</g>
<!-- Node13 -->
<g id="node24" class="node"><title>Node13</title>
<a xlink:href="structcorecvs_1_1SingleStat.html" target="_top" xlink:title="corecvs::SingleStat">
<polygon fill="none" stroke="black" points="1192.5,-251.5 1192.5,-272.5 1301.5,-272.5 1301.5,-251.5 1192.5,-251.5"/>
<text text-anchor="middle" x="1247" y="-259.5" font-family="FreeSans.ttf" font-size="10.00">corecvs::SingleStat</text>
</a>
</g>
<!-- Node13&#45;&gt;Node12 -->
<g id="edge24" class="edge"><title>Node13&#45;&gt;Node12</title>
<path fill="none" stroke="#9a32cd" stroke-dasharray="5,2" d="M1311.79,-262C1366.92,-262 1446.42,-262 1505.98,-262"/>
<polygon fill="#9a32cd" stroke="#9a32cd" points="1311.79,-258.5 1301.79,-262 1311.79,-265.5 1311.79,-258.5"/>
<text text-anchor="middle" x="1418" y="-266" font-family="FreeSans.ttf" font-size="10.00"> elements</text>
</g>
<!-- Node14 -->
<g id="node29" class="node"><title>Node14</title>
<polygon fill="none" stroke="#bfbfbf" points="2162.5,-422.5 2162.5,-443.5 2275.5,-443.5 2275.5,-422.5 2162.5,-422.5"/>
<text text-anchor="middle" x="2219" y="-430.5" font-family="FreeSans.ttf" font-size="10.00">std::vector&lt; Pin * &gt;</text>
</g>
<!-- Node14&#45;&gt;Node2 -->
<g id="edge42" class="edge"><title>Node14&#45;&gt;Node2</title>
<path fill="none" stroke="#9a32cd" stroke-dasharray="5,2" d="M2152.17,-433.966C2076.79,-435.202 1950.56,-437.713 1842,-442 1772.94,-444.727 1693.39,-449.352 1641.99,-452.535"/>
<polygon fill="#9a32cd" stroke="#9a32cd" points="2152.52,-437.461 2162.46,-433.8 2152.4,-430.462 2152.52,-437.461"/>
<text text-anchor="middle" x="1935" y="-459" font-family="FreeSans.ttf" font-size="10.00"> outputPins</text>
<text text-anchor="middle" x="1935" y="-446" font-family="FreeSans.ttf" font-size="10.00">inputPins</text>
</g>
<!-- Node14&#45;&gt;Node3 -->
<g id="edge32" class="edge"><title>Node14&#45;&gt;Node3</title>
<path fill="none" stroke="#9a32cd" stroke-dasharray="5,2" d="M2285.6,-421.333C2309.15,-417.046 2335.79,-412.01 2360,-407 2369.55,-405.023 2379.77,-402.769 2389.46,-400.562"/>
<polygon fill="#9a32cd" stroke="#9a32cd" points="2284.93,-417.898 2275.71,-423.123 2286.17,-424.786 2284.93,-417.898"/>
<text text-anchor="middle" x="2335" y="-433" font-family="FreeSans.ttf" font-size="10.00"> outputs</text>
<text text-anchor="middle" x="2335" y="-420" font-family="FreeSans.ttf" font-size="10.00">inputs</text>
</g>
<!-- Node15&#45;&gt;Node14 -->
<g id="edge34" class="edge"><title>Node15&#45;&gt;Node14</title>
<path fill="none" stroke="#9a32cd" stroke-dasharray="5,2" d="M1982.07,-478.884C2032.29,-469.158 2111.73,-453.773 2164.6,-443.536"/>
<polygon fill="#9a32cd" stroke="#9a32cd" points="1981.28,-475.472 1972.13,-480.81 1982.61,-482.344 1981.28,-475.472"/>
<text text-anchor="middle" x="2087" y="-469" font-family="FreeSans.ttf" font-size="10.00"> elements</text>
</g>
<!-- Node15&#45;&gt;Node15 -->
<g id="edge36" class="edge"><title>Node15&#45;&gt;Node15</title>
<path fill="none" stroke="#9a32cd" stroke-dasharray="5,2" d="M1906.84,-508.055C1908.69,-513.164 1918.07,-517 1935,-517 1961.42,-517 1969.47,-507.653 1959.15,-498.708"/>
<polygon fill="#9a32cd" stroke="#9a32cd" points="1910.12,-509.278 1910.85,-498.708 1903.69,-506.518 1910.12,-509.278"/>
<text text-anchor="middle" x="1935" y="-521" font-family="FreeSans.ttf" font-size="10.00"> takeFrom</text>
</g>
<!-- Node16 -->
<g id="node35" class="node"><title>Node16</title>
<polygon fill="none" stroke="#bfbfbf" points="2146,-290.5 2146,-311.5 2292,-311.5 2292,-290.5 2146,-290.5"/>
<text text-anchor="middle" x="2219" y="-298.5" font-family="FreeSans.ttf" font-size="10.00">std::vector&lt; FilterBlock * &gt;</text>
</g>
<!-- Node16&#45;&gt;Node3 -->
<g id="edge40" class="edge"><title>Node16&#45;&gt;Node3</title>
<path fill="none" stroke="#9a32cd" stroke-dasharray="5,2" d="M2302.27,-304.315C2321.88,-307.372 2342.24,-312.514 2360,-321 2388.85,-334.781 2414.08,-363.842 2426.26,-379.491"/>
<polygon fill="#9a32cd" stroke="#9a32cd" points="2302.49,-300.811 2292.1,-302.899 2301.52,-307.744 2302.49,-300.811"/>
<text text-anchor="middle" x="2335" y="-325" font-family="FreeSans.ttf" font-size="10.00"> blocks</text>
</g>
<!-- Node17 -->
<g id="node38" class="node"><title>Node17</title>
<a xlink:href="classcorecvs_1_1G12Buffer.html" target="_top" xlink:title="TODO: Add consts where it should go.">
<polygon fill="none" stroke="black" points="1534.5,-209.5 1534.5,-230.5 1641.5,-230.5 1641.5,-209.5 1534.5,-209.5"/>
<text text-anchor="middle" x="1588" y="-217.5" font-family="FreeSans.ttf" font-size="10.00">corecvs::G12Buffer</text>
</a>
</g>
<!-- Node17&#45;&gt;Node1 -->
<g id="edge44" class="edge"><title>Node17&#45;&gt;Node1</title>
<path fill="none" stroke="#9a32cd" stroke-dasharray="5,2" d="M1651.96,-219.816C1716.96,-219.628 1816.65,-219.341 1878.73,-219.162"/>
<polygon fill="#9a32cd" stroke="#9a32cd" points="1651.83,-216.316 1641.84,-219.845 1651.85,-223.316 1651.83,-216.316"/>
<text text-anchor="middle" x="1774" y="-236" font-family="FreeSans.ttf" font-size="10.00"> input</text>
<text text-anchor="middle" x="1774" y="-223" font-family="FreeSans.ttf" font-size="10.00">result</text>
</g>
<!-- Node18 -->
<g id="node40" class="node"><title>Node18</title>
<a xlink:href="classcorecvs_1_1AbstractContiniousBuffer.html" target="_top" xlink:title="This template class describes a buffer for which it is possible to interpolate the result between cel...">
<polygon fill="none" stroke="black" points="1202.5,-209.5 1202.5,-230.5 1291.5,-230.5 1291.5,-209.5 1202.5,-209.5"/>
<text text-anchor="middle" x="1247" y="-217.5" font-family="FreeSans.ttf" font-size="10.00">G12BufferBase</text>
</a>
</g>
<!-- Node18&#45;&gt;Node17 -->
<g id="edge46" class="edge"><title>Node18&#45;&gt;Node17</title>
<path fill="none" stroke="midnightblue" d="M1301.87,-220C1365.88,-220 1470.98,-220 1534.43,-220"/>
<polygon fill="midnightblue" stroke="midnightblue" points="1301.58,-216.5 1291.58,-220 1301.58,-223.5 1301.58,-216.5"/>
</g>
<!-- Node19 -->
<g id="node42" class="node"><title>Node19</title>
<a xlink:href="classcorecvs_1_1AbstractBuffer.html" target="_top" xlink:title="This is a common buffer template.">
<polygon fill="none" stroke="black" points="772,-209.5 772,-230.5 1036,-230.5 1036,-209.5 772,-209.5"/>
<text text-anchor="middle" x="904" y="-217.5" font-family="FreeSans.ttf" font-size="10.00">corecvs::AbstractBuffer&lt; ElementType, IndexType &gt;</text>
</a>
</g>
<!-- Node19&#45;&gt;Node18 -->
<g id="edge48" class="edge"><title>Node19&#45;&gt;Node18</title>
<path fill="none" stroke="midnightblue" d="M1046.15,-220C1102.13,-220 1162.4,-220 1202.15,-220"/>
<polygon fill="midnightblue" stroke="midnightblue" points="1046.12,-216.5 1036.12,-220 1046.12,-223.5 1046.12,-216.5"/>
</g>
<!-- Node20 -->
<g id="node44" class="node"><title>Node20</title>
<a xlink:href="classcorecvs_1_1AbstractBufferParams.html" target="_top" xlink:title="This is a basis part of the AbstractBuffer template &#45; serializable buffer params.">
<polygon fill="none" stroke="black" points="486,-288.5 486,-309.5 650,-309.5 650,-288.5 486,-288.5"/>
<text text-anchor="middle" x="568" y="-296.5" font-family="FreeSans.ttf" font-size="10.00">corecvs::AbstractBufferParams</text>
</a>
</g>
<!-- Node20&#45;&gt;Node19 -->
<g id="edge50" class="edge"><title>Node20&#45;&gt;Node19</title>
<path fill="none" stroke="midnightblue" d="M637.049,-286.57C672.202,-279.912 715.529,-271.198 754,-262 793.847,-252.473 839.065,-239.513 869.342,-230.519"/>
<polygon fill="midnightblue" stroke="midnightblue" points="636.072,-283.192 626.891,-288.48 637.365,-290.072 636.072,-283.192"/>
</g>
<!-- Node21 -->
<g id="node46" class="node"><title>Node21</title>
<polygon fill="none" stroke="#bfbfbf" points="529.5,-248.5 529.5,-269.5 606.5,-269.5 606.5,-248.5 529.5,-248.5"/>
<text text-anchor="middle" x="568" y="-256.5" font-family="FreeSans.ttf" font-size="10.00">ElementType</text>
</g>
<!-- Node21&#45;&gt;Node19 -->
<g id="edge52" class="edge"><title>Node21&#45;&gt;Node19</title>
<path fill="none" stroke="#9a32cd" stroke-dasharray="5,2" d="M616.695,-253.348C668.004,-247.392 749.988,-237.876 813.271,-230.531"/>
<polygon fill="#9a32cd" stroke="#9a32cd" points="616.073,-249.896 606.543,-254.526 616.88,-256.85 616.073,-249.896"/>
<text text-anchor="middle" x="719" y="-249" font-family="FreeSans.ttf" font-size="10.00"> data</text>
</g>
<!-- Node22 -->
<g id="node48" class="node"><title>Node22</title>
<a xlink:href="classcorecvs_1_1ObjectRef.html" target="_top" xlink:title="corecvs::ObjectRef\&lt; uint8_t \&gt;">
<polygon fill="none" stroke="black" points="488,-208.5 488,-229.5 648,-229.5 648,-208.5 488,-208.5"/>
<text text-anchor="middle" x="568" y="-216.5" font-family="FreeSans.ttf" font-size="10.00">corecvs::ObjectRef&lt; uint8_t &gt;</text>
</a>
</g>
<!-- Node22&#45;&gt;Node19 -->
<g id="edge54" class="edge"><title>Node22&#45;&gt;Node19</title>
<path fill="none" stroke="#9a32cd" stroke-dasharray="5,2" d="M658.204,-219.268C693.072,-219.372 733.679,-219.493 771.723,-219.606"/>
<polygon fill="#9a32cd" stroke="#9a32cd" points="658.064,-215.768 648.053,-219.238 658.043,-222.768 658.064,-215.768"/>
<text text-anchor="middle" x="719" y="-223" font-family="FreeSans.ttf" font-size="10.00"> memoryBlock</text>
</g>
<!-- Node23 -->
<g id="node50" class="node"><title>Node23</title>
<a xlink:href="classcorecvs_1_1ObjectBlock.html" target="_top" xlink:title="corecvs::ObjectBlock\&lt; uint8_t \&gt;">
<polygon fill="none" stroke="black" points="212.5,-208.5 212.5,-229.5 383.5,-229.5 383.5,-208.5 212.5,-208.5"/>
<text text-anchor="middle" x="298" y="-216.5" font-family="FreeSans.ttf" font-size="10.00">corecvs::ObjectBlock&lt; uint8_t &gt;</text>
</a>
</g>
<!-- Node23&#45;&gt;Node22 -->
<g id="edge56" class="edge"><title>Node23&#45;&gt;Node22</title>
<path fill="none" stroke="#9a32cd" stroke-dasharray="5,2" d="M394.096,-219C424.818,-219 458.479,-219 487.933,-219"/>
<polygon fill="#9a32cd" stroke="#9a32cd" points="393.801,-215.5 383.801,-219 393.801,-222.5 393.801,-215.5"/>
<text text-anchor="middle" x="427" y="-223" font-family="FreeSans.ttf" font-size="10.00"> block</text>
</g>
<!-- Node24 -->
<g id="node52" class="node"><title>Node24</title>
<polygon fill="none" stroke="#bfbfbf" points="536.5,-168.5 536.5,-189.5 599.5,-189.5 599.5,-168.5 536.5,-168.5"/>
<text text-anchor="middle" x="568" y="-176.5" font-family="FreeSans.ttf" font-size="10.00">IndexType</text>
</g>
<!-- Node24&#45;&gt;Node19 -->
<g id="edge58" class="edge"><title>Node24&#45;&gt;Node19</title>
<path fill="none" stroke="#9a32cd" stroke-dasharray="5,2" d="M609.742,-184.094C661.46,-190.404 750.902,-201.318 817.638,-209.462"/>
<polygon fill="#9a32cd" stroke="#9a32cd" points="609.96,-180.594 599.61,-182.857 609.112,-187.543 609.96,-180.594"/>
<text text-anchor="middle" x="719" y="-204" font-family="FreeSans.ttf" font-size="10.00"> STRIDE_AUTO</text>
</g>
<!-- Node25 -->
<g id="node54" class="node"><title>Node25</title>
<a xlink:href="classCannyParameters.html" target="_top" xlink:title="Canny Parameters Canny Parameters.">
<polygon fill="none" stroke="black" points="1537,-169.5 1537,-190.5 1639,-190.5 1639,-169.5 1537,-169.5"/>
<text text-anchor="middle" x="1588" y="-177.5" font-family="FreeSans.ttf" font-size="10.00">CannyParameters</text>
</a>
</g>
<!-- Node25&#45;&gt;Node1 -->
<g id="edge60" class="edge"><title>Node25&#45;&gt;Node1</title>
<path fill="none" stroke="#9a32cd" stroke-dasharray="5,2" d="M1649.36,-184.721C1697.05,-188.632 1764.83,-194.718 1824,-202 1841.9,-204.203 1861.35,-207.033 1878.91,-209.75"/>
<polygon fill="#9a32cd" stroke="#9a32cd" points="1649.44,-181.217 1639.19,-183.896 1648.88,-188.194 1649.44,-181.217"/>
<text text-anchor="middle" x="1774" y="-206" font-family="FreeSans.ttf" font-size="10.00"> mCannyParameters</text>
</g>
<!-- Node26 -->
<g id="node56" class="node"><title>Node26</title>
<a xlink:href="classcorecvs_1_1BaseReflection.html" target="_top" xlink:title="corecvs::BaseReflection\&lt; CannyParameters \&gt;">
<polygon fill="none" stroke="black" points="1128.5,-169.5 1128.5,-190.5 1365.5,-190.5 1365.5,-169.5 1128.5,-169.5"/>
<text text-anchor="middle" x="1247" y="-177.5" font-family="FreeSans.ttf" font-size="10.00">corecvs::BaseReflection&lt; CannyParameters &gt;</text>
</a>
</g>
<!-- Node26&#45;&gt;Node25 -->
<g id="edge62" class="edge"><title>Node26&#45;&gt;Node25</title>
<path fill="none" stroke="midnightblue" d="M1375.8,-180C1431.78,-180 1494.16,-180 1536.71,-180"/>
<polygon fill="midnightblue" stroke="midnightblue" points="1375.79,-176.5 1365.79,-180 1375.79,-183.5 1375.79,-176.5"/>
</g>
<!-- Node27 -->
<g id="node58" class="node"><title>Node27</title>
<a xlink:href="classcorecvs_1_1BaseReflectionStatic.html" target="_top" xlink:title="corecvs::BaseReflectionStatic">
<polygon fill="none" stroke="black" points="825.5,-169.5 825.5,-190.5 982.5,-190.5 982.5,-169.5 825.5,-169.5"/>
<text text-anchor="middle" x="904" y="-177.5" font-family="FreeSans.ttf" font-size="10.00">corecvs::BaseReflectionStatic</text>
</a>
</g>
<!-- Node27&#45;&gt;Node26 -->
<g id="edge64" class="edge"><title>Node27&#45;&gt;Node26</title>
<path fill="none" stroke="midnightblue" d="M992.731,-180C1034.05,-180 1083.79,-180 1128.29,-180"/>
<polygon fill="midnightblue" stroke="midnightblue" points="992.691,-176.5 982.691,-180 992.691,-183.5 992.691,-176.5"/>
</g>
<!-- Node28 -->
<g id="node60" class="node"><title>Node28</title>
<a xlink:href="classcorecvs_1_1Reflection.html" target="_top" xlink:title="corecvs::Reflection">
<polygon fill="none" stroke="black" points="851.5,-108.5 851.5,-129.5 956.5,-129.5 956.5,-108.5 851.5,-108.5"/>
<text text-anchor="middle" x="904" y="-116.5" font-family="FreeSans.ttf" font-size="10.00">corecvs::Reflection</text>
</a>
</g>
<!-- Node28&#45;&gt;Node26 -->
<g id="edge66" class="edge"><title>Node28&#45;&gt;Node26</title>
<path fill="none" stroke="#9a32cd" stroke-dasharray="5,2" d="M967.043,-130.212C1030.04,-141.415 1126.14,-158.506 1187.76,-169.465"/>
<polygon fill="#9a32cd" stroke="#9a32cd" points="967.3,-126.703 956.842,-128.398 966.075,-133.595 967.3,-126.703"/>
<text text-anchor="middle" x="1082" y="-158" font-family="FreeSans.ttf" font-size="10.00"> reflection</text>
</g>
<!-- Node33 -->
<g id="node71" class="node"><title>Node33</title>
<a xlink:href="classcorecvs_1_1EmbedSubclass.html" target="_top" xlink:title="corecvs::EmbedSubclass">
<polygon fill="none" stroke="black" points="1179,-54.5 1179,-75.5 1315,-75.5 1315,-54.5 1179,-54.5"/>
<text text-anchor="middle" x="1247" y="-62.5" font-family="FreeSans.ttf" font-size="10.00">corecvs::EmbedSubclass</text>
</a>
</g>
<!-- Node28&#45;&gt;Node33 -->
<g id="edge80" class="edge"><title>Node28&#45;&gt;Node33</title>
<path fill="none" stroke="#9a32cd" stroke-dasharray="5,2" d="M966.706,-107.149C993.549,-102.222 1025.27,-96.5933 1054,-92 1095.26,-85.4031 1141.63,-78.8875 1178.57,-73.91"/>
<polygon fill="#9a32cd" stroke="#9a32cd" points="965.872,-103.743 956.673,-108.999 967.142,-110.627 965.872,-103.743"/>
<text text-anchor="middle" x="1082" y="-96" font-family="FreeSans.ttf" font-size="10.00"> subclass</text>
</g>
<!-- Node29 -->
<g id="node62" class="node"><title>Node29</title>
<polygon fill="none" stroke="#bfbfbf" points="481.5,-89.5 481.5,-110.5 654.5,-110.5 654.5,-89.5 481.5,-89.5"/>
<text text-anchor="middle" x="568" y="-97.5" font-family="FreeSans.ttf" font-size="10.00">std::vector&lt; const BaseField * &gt;</text>
</g>
<!-- Node29&#45;&gt;Node28 -->
<g id="edge68" class="edge"><title>Node29&#45;&gt;Node28</title>
<path fill="none" stroke="#9a32cd" stroke-dasharray="5,2" d="M664.529,-105.458C725.306,-108.895 801.422,-113.199 851.315,-116.021"/>
<polygon fill="#9a32cd" stroke="#9a32cd" points="664.71,-101.963 654.528,-104.893 664.315,-108.952 664.71,-101.963"/>
<text text-anchor="middle" x="719" y="-114" font-family="FreeSans.ttf" font-size="10.00"> fields</text>
</g>
<!-- Node30 -->
<g id="node64" class="node"><title>Node30</title>
<a xlink:href="classcorecvs_1_1BaseField.html" target="_top" xlink:title="This class is a core class for the reflection.">
<polygon fill="none" stroke="black" points="246,-89.5 246,-110.5 350,-110.5 350,-89.5 246,-89.5"/>
<text text-anchor="middle" x="298" y="-97.5" font-family="FreeSans.ttf" font-size="10.00">corecvs::BaseField</text>
</a>
</g>
<!-- Node30&#45;&gt;Node29 -->
<g id="edge70" class="edge"><title>Node30&#45;&gt;Node29</title>
<path fill="none" stroke="#9a32cd" stroke-dasharray="5,2" d="M360.391,-100C396.295,-100 441.954,-100 481.305,-100"/>
<polygon fill="#9a32cd" stroke="#9a32cd" points="360.059,-96.5001 350.059,-100 360.059,-103.5 360.059,-96.5001"/>
<text text-anchor="middle" x="427" y="-104" font-family="FreeSans.ttf" font-size="10.00"> elements</text>
</g>
<!-- Node31 -->
<g id="node66" class="node"><title>Node31</title>
<a xlink:href="classcorecvs_1_1ReflectionNaming.html" target="_top" xlink:title="We have several styles of nameing.">
<polygon fill="none" stroke="black" points="0.5,-89.5 0.5,-110.5 143.5,-110.5 143.5,-89.5 0.5,-89.5"/>
<text text-anchor="middle" x="72" y="-97.5" font-family="FreeSans.ttf" font-size="10.00">corecvs::ReflectionNaming</text>
</a>
</g>
<!-- Node31&#45;&gt;Node28 -->
<g id="edge74" class="edge"><title>Node31&#45;&gt;Node28</title>
<path fill="none" stroke="#9a32cd" stroke-dasharray="5,2" d="M131.743,-112.381C141.809,-114.152 152.177,-115.783 162,-117 184.093,-119.738 189.752,-119.215 212,-120 452.749,-128.492 513.149,-129.815 754,-125 786.311,-124.354 822.514,-122.926 851.257,-121.625"/>
<polygon fill="#9a32cd" stroke="#9a32cd" points="132.273,-108.92 121.808,-110.574 131.02,-115.807 132.273,-108.92"/>
<text text-anchor="middle" x="427" y="-131" font-family="FreeSans.ttf" font-size="10.00"> name</text>
</g>
<!-- Node31&#45;&gt;Node30 -->
<g id="edge72" class="edge"><title>Node31&#45;&gt;Node30</title>
<path fill="none" stroke="#9a32cd" stroke-dasharray="5,2" d="M153.791,-100C184.536,-100 218.626,-100 245.938,-100"/>
<polygon fill="#9a32cd" stroke="#9a32cd" points="153.508,-96.5001 143.508,-100 153.508,-103.5 153.508,-96.5001"/>
<text text-anchor="middle" x="178" y="-104" font-family="FreeSans.ttf" font-size="10.00"> name</text>
</g>
<!-- Node31&#45;&gt;Node33 -->
<g id="edge82" class="edge"><title>Node31&#45;&gt;Node33</title>
<path fill="none" stroke="#9a32cd" stroke-dasharray="5,2" d="M116.65,-86.6893C161.914,-74.387 234.185,-58 298,-58 298,-58 298,-58 904,-58 999.298,-58 1109.46,-60.7344 1178.68,-62.7852"/>
<polygon fill="#9a32cd" stroke="#9a32cd" points="115.561,-83.359 106.858,-89.4016 117.43,-90.1049 115.561,-83.359"/>
<text text-anchor="middle" x="568" y="-62" font-family="FreeSans.ttf" font-size="10.00"> name</text>
</g>
<!-- Node32 -->
<g id="node69" class="node"><title>Node32</title>
<polygon fill="none" stroke="#bfbfbf" points="1486,-94.5 1486,-115.5 1690,-115.5 1690,-94.5 1486,-94.5"/>
<text text-anchor="middle" x="1588" y="-102.5" font-family="FreeSans.ttf" font-size="10.00">std::vector&lt; const EmbedSubclass * &gt;</text>
</g>
<!-- Node32&#45;&gt;Node28 -->
<g id="edge76" class="edge"><title>Node32&#45;&gt;Node28</title>
<path fill="none" stroke="#9a32cd" stroke-dasharray="5,2" d="M1475.56,-107.301C1325.84,-110.366 1067.08,-115.662 956.537,-117.925"/>
<polygon fill="#9a32cd" stroke="#9a32cd" points="1475.78,-110.798 1485.71,-107.094 1475.64,-103.799 1475.78,-110.798"/>
<text text-anchor="middle" x="1247" y="-118" font-family="FreeSans.ttf" font-size="10.00"> embeds</text>
</g>
<!-- Node33&#45;&gt;Node32 -->
<g id="edge78" class="edge"><title>Node33&#45;&gt;Node32</title>
<path fill="none" stroke="#9a32cd" stroke-dasharray="5,2" d="M1325.28,-74.1821C1376.85,-80.2312 1444.51,-88.1689 1498.26,-94.4734"/>
<polygon fill="#9a32cd" stroke="#9a32cd" points="1325.53,-70.6874 1315.19,-72.9985 1324.71,-77.6397 1325.53,-70.6874"/>
<text text-anchor="middle" x="1418" y="-92" font-family="FreeSans.ttf" font-size="10.00"> elements</text>
</g>
<!-- Node34 -->
<g id="node75" class="node"><title>Node34</title>
<polygon fill="none" stroke="#bfbfbf" points="832,-4.5 832,-25.5 976,-25.5 976,-4.5 832,-4.5"/>
<text text-anchor="middle" x="904" y="-12.5" font-family="FreeSans.ttf" font-size="10.00">std::vector&lt; EmbedMap &gt;</text>
</g>
<!-- Node34&#45;&gt;Node33 -->
<g id="edge84" class="edge"><title>Node34&#45;&gt;Node33</title>
<path fill="none" stroke="#9a32cd" stroke-dasharray="5,2" d="M986.767,-18.2913C1024.52,-20.5957 1069.7,-24.4807 1110,-31 1144.96,-36.6552 1184.1,-46.7589 1211.57,-54.4873"/>
<polygon fill="#9a32cd" stroke="#9a32cd" points="986.512,-14.7705 976.325,-17.6823 986.105,-21.7586 986.512,-14.7705"/>
<text text-anchor="middle" x="1082" y="-35" font-family="FreeSans.ttf" font-size="10.00"> renameing</text>
</g>
<!-- Node35 -->
<g id="node77" class="node"><title>Node35</title>
<a xlink:href="structcorecvs_1_1EmbedSubclass_1_1EmbedMap.html" target="_top" xlink:title="corecvs::EmbedSubclass::EmbedMap">
<polygon fill="none" stroke="black" points="470,-0.5 470,-21.5 666,-21.5 666,-0.5 470,-0.5"/>
<text text-anchor="middle" x="568" y="-8.5" font-family="FreeSans.ttf" font-size="10.00">corecvs::EmbedSubclass::EmbedMap</text>
</a>
</g>
<!-- Node35&#45;&gt;Node34 -->
<g id="edge86" class="edge"><title>Node35&#45;&gt;Node34</title>
<path fill="none" stroke="#9a32cd" stroke-dasharray="5,2" d="M676.166,-12.2877C727.151,-12.8946 786.592,-13.6023 831.974,-14.1426"/>
<polygon fill="#9a32cd" stroke="#9a32cd" points="676.129,-8.7871 666.088,-12.1677 676.046,-15.7866 676.129,-8.7871"/>
<text text-anchor="middle" x="719" y="-17" font-family="FreeSans.ttf" font-size="10.00"> elements</text>
</g>
</g>
</svg>
        <g id="navigator" transform="translate(0 0)" fill="#404254">
                <rect fill="#f2f5e9" fill-opacity="0.5" stroke="#606060" stroke-width=".5" x="0" y="0" width="60" height="60"/>
                <use id="zoomplus" xlink:href="#zoomPlus" x="17" y="9" onmousedown="handleZoom(evt,'in')"/>
                <use id="zoomminus" xlink:href="#zoomMin" x="42" y="9" onmousedown="handleZoom(evt,'out')"/>
                <use id="reset" xlink:href="#resetDef" x="30" y="36" onmousedown="handleReset()"/>
                <g id="arrowUp" xlink:href="#dirArrow" transform="translate(30 24)" onmousedown="handlePan(0,-1)">
                  <use xlink:href="#rim" fill="#404040">
                        <set attributeName="fill" to="#808080" begin="arrowUp.mouseover" end="arrowUp.mouseout"/>
                  </use>
                  <path fill="none" stroke="white" stroke-width="1.5" d="M0,-3.0v7 M-2.5,-0.5L0,-3.0L2.5,-0.5"/>
                </g>
                <g id="arrowRight" xlink:href="#dirArrow" transform="rotate(90) translate(36 -43)" onmousedown="handlePan(1,0)">
                  <use xlink:href="#rim" fill="#404040">
                        <set attributeName="fill" to="#808080" begin="arrowRight.mouseover" end="arrowRight.mouseout"/>
                  </use>
                  <path fill="none" stroke="white" stroke-width="1.5" d="M0,-3.0v7 M-2.5,-0.5L0,-3.0L2.5,-0.5"/>
                </g>
                <g id="arrowDown" xlink:href="#dirArrow" transform="rotate(180) translate(-30 -48)" onmousedown="handlePan(0,1)">
                  <use xlink:href="#rim" fill="#404040">
                        <set attributeName="fill" to="#808080" begin="arrowDown.mouseover" end="arrowDown.mouseout"/>
                  </use>
                  <path fill="none" stroke="white" stroke-width="1.5" d="M0,-3.0v7 M-2.5,-0.5L0,-3.0L2.5,-0.5"/>
                </g>
                <g id="arrowLeft" xlink:href="#dirArrow" transform="rotate(270) translate(-36 17)" onmousedown="handlePan(-1,0)">
                  <use xlink:href="#rim" fill="#404040">
                        <set attributeName="fill" to="#808080" begin="arrowLeft.mouseover" end="arrowLeft.mouseout"/>
                  </use>
                  <path fill="none" stroke="white" stroke-width="1.5" d="M0,-3.0v7 M-2.5,-0.5L0,-3.0L2.5,-0.5"/>
                </g>
        </g>
</svg>
