<?xml version="1.0" encoding="UTF-8" standalone="no"?>
<!DOCTYPE svg PUBLIC "-//W3C//DTD SVG 1.1//EN"
 "http://www.w3.org/Graphics/SVG/1.1/DTD/svg11.dtd">
<!-- Generated by graphviz version 2.26.3 (20100126.1600)
 -->
<!-- Title: G Pages: 1 -->
<!--zoomable 110 -->
<svg id="main" version="1.1" xmlns="http://www.w3.org/2000/svg" xmlns:xlink="http://www.w3.org/1999/xlink" xml:space="preserve" onload="init(evt)">
        <defs>
                <circle id="rim" cx="0" cy="0" r="7"/>
                <circle id="rim2" cx="0" cy="0" r="3.5"/>
                <g id="zoomPlus">
                        <use xlink:href="#rim" fill="#404040">
                                <set attributeName="fill" to="#808080" begin="zoomplus.mouseover" end="zoomplus.mouseout"/>
                        </use>
                        <path d="M-4,0h8M0,-4v8" fill="none" stroke="white" stroke-width="1.5" pointer-events="none"/>
                </g>
                <g id="zoomMin">
                        <use xlink:href="#rim" fill="#404040">
                                <set attributeName="fill" to="#808080" begin="zoomminus.mouseover" end="zoomminus.mouseout"/>
                        </use>
                        <path d="M-4,0h8" fill="none" stroke="white" stroke-width="1.5" pointer-events="none"/>
                </g>
                <g id="dirArrow">
                        <path fill="none" stroke="white" stroke-width="1.5" d="M0,-3.0v7 M-2.5,-0.5L0,-3.0L2.5,-0.5"/>
                </g>
               <g id="resetDef">
                       <use xlink:href="#rim2" fill="#404040">
                               <set attributeName="fill" to="#808080" begin="reset.mouseover" end="reset.mouseout"/>
                       </use>
               </g>
        </defs>

<script type="text/javascript">
var viewWidth = 678;
var viewHeight = 110;
var sectionId = 'dynsection-1';
</script>
<script xlink:href="svgpan.js"/>
<svg id="graph" class="graph">
<g id="viewport">
<title>G</title>
<!-- Node1 -->
<g id="node1" class="node"><title>Node1</title>
<polygon fill="#bfbfbf" stroke="black" points="0.5,-20.5 0.5,-41.5 161.5,-41.5 161.5,-20.5 0.5,-20.5"/>
<text text-anchor="middle" x="81" y="-28.5" font-family="FreeSans.ttf" font-size="10.00">corecvs::SSEMath::blockSAD8</text>
</g>
<!-- Node2 -->
<g id="node3" class="node"><title>Node2</title>
<a xlink:href="classcorecvs_1_1SSEMath.html#a0e172d932d98dacf468d4bbeed1b05e2" target="_top" xlink:title="corecvs::SSEMath::difference">
<polygon fill="none" stroke="black" points="198,-40.5 198,-61.5 354,-61.5 354,-40.5 198,-40.5"/>
<text text-anchor="middle" x="276" y="-48.5" font-family="FreeSans.ttf" font-size="10.00">corecvs::SSEMath::difference</text>
</a>
</g>
<!-- Node1&#45;&gt;Node2 -->
<g id="edge2" class="edge"><title>Node1&#45;&gt;Node2</title>
<path fill="none" stroke="midnightblue" d="M161.722,-39.2791C170.307,-40.1597 179.071,-41.0585 187.737,-41.9474"/>
<polygon fill="midnightblue" stroke="midnightblue" points="187.543,-45.4458 197.848,-42.9844 188.257,-38.4823 187.543,-45.4458"/>
</g>
<!-- Node7 -->
<g id="node13" class="node"><title>Node7</title>
<a xlink:href="classcorecvs_1_1UInt16x8.html#aae5e1bbf03358e95fa35a546a460252e" target="_top" xlink:title="corecvs::UInt16x8::save">
<polygon fill="none" stroke="black" points="210.5,-0.5 210.5,-21.5 341.5,-21.5 341.5,-0.5 210.5,-0.5"/>
<text text-anchor="middle" x="276" y="-8.5" font-family="FreeSans.ttf" font-size="10.00">corecvs::UInt16x8::save</text>
</a>
</g>
<!-- Node1&#45;&gt;Node7 -->
<g id="edge12" class="edge"><title>Node1&#45;&gt;Node7</title>
<path fill="none" stroke="midnightblue" d="M161.722,-22.7209C174.536,-21.4065 187.75,-20.0513 200.44,-18.7497"/>
<polygon fill="midnightblue" stroke="midnightblue" points="200.897,-22.2213 210.488,-17.7192 200.183,-15.2579 200.897,-22.2213"/>
</g>
<!-- Node3 -->
<g id="node5" class="node"><title>Node3</title>
<a xlink:href="classcorecvs_1_1SSEMath.html#a9f5556827ea9b592942005ee0deb50ae" target="_top" xlink:title="corecvs::SSEMath::min">
<polygon fill="none" stroke="black" points="400.5,-80.5 400.5,-101.5 527.5,-101.5 527.5,-80.5 400.5,-80.5"/>
<text text-anchor="middle" x="464" y="-88.5" font-family="FreeSans.ttf" font-size="10.00">corecvs::SSEMath::min</text>
</a>
</g>
<!-- Node2&#45;&gt;Node3 -->
<g id="edge4" class="edge"><title>Node2&#45;&gt;Node3</title>
<path fill="none" stroke="midnightblue" d="M325.395,-61.5095C349.694,-66.6795 379.169,-72.9508 404.68,-78.3788"/>
<polygon fill="midnightblue" stroke="midnightblue" points="404.1,-81.8335 414.609,-80.4913 405.556,-74.9868 404.1,-81.8335"/>
</g>
<!-- Node4 -->
<g id="node7" class="node"><title>Node4</title>
<a xlink:href="classcorecvs_1_1SSEMath.html#a65906462609493d03d2c927c9109bdaa" target="_top" xlink:title="corecvs::SSEMath::max">
<polygon fill="none" stroke="black" points="399,-40.5 399,-61.5 529,-61.5 529,-40.5 399,-40.5"/>
<text text-anchor="middle" x="464" y="-48.5" font-family="FreeSans.ttf" font-size="10.00">corecvs::SSEMath::max</text>
</a>
</g>
<!-- Node2&#45;&gt;Node4 -->
<g id="edge6" class="edge"><title>Node2&#45;&gt;Node4</title>
<path fill="none" stroke="midnightblue" d="M354.096,-51C365.527,-51 377.282,-51 388.657,-51"/>
<polygon fill="midnightblue" stroke="midnightblue" points="388.976,-54.5001 398.976,-51 388.976,-47.5001 388.976,-54.5001"/>
</g>
<!-- Node5 -->
<g id="node9" class="node"><title>Node5</title>
<a xlink:href="classcorecvs_1_1SSEMath.html#a4530a03f4095c6f7a5056be6303e5feb" target="_top" xlink:title="corecvs::SSEMath::selector">
<polygon fill="none" stroke="black" points="390.5,-0.5 390.5,-21.5 537.5,-21.5 537.5,-0.5 390.5,-0.5"/>
<text text-anchor="middle" x="464" y="-8.5" font-family="FreeSans.ttf" font-size="10.00">corecvs::SSEMath::selector</text>
</a>
</g>
<!-- Node2&#45;&gt;Node5 -->
<g id="edge8" class="edge"><title>Node2&#45;&gt;Node5</title>
<path fill="none" stroke="midnightblue" d="M325.395,-40.4905C349.694,-35.3205 379.169,-29.0492 404.68,-23.6212"/>
<polygon fill="midnightblue" stroke="midnightblue" points="405.556,-27.0132 414.609,-21.5087 404.1,-20.1665 405.556,-27.0132"/>
</g>
<!-- Node6 -->
<g id="node11" class="node"><title>Node6</title>
<a xlink:href="namespacecorecvs.html#a21b8637c5f9dc6edb47b498111951f7d" target="_top" xlink:title="corecvs::andNot">
<polygon fill="none" stroke="black" points="574.5,-0.5 574.5,-21.5 669.5,-21.5 669.5,-0.5 574.5,-0.5"/>
<text text-anchor="middle" x="622" y="-8.5" font-family="FreeSans.ttf" font-size="10.00">corecvs::andNot</text>
</a>
</g>
<!-- Node5&#45;&gt;Node6 -->
<g id="edge10" class="edge"><title>Node5&#45;&gt;Node6</title>
<path fill="none" stroke="midnightblue" d="M537.911,-11C546.705,-11 555.582,-11 564.106,-11"/>
<polygon fill="midnightblue" stroke="midnightblue" points="564.298,-14.5001 574.298,-11 564.298,-7.5001 564.298,-14.5001"/>
</g>
</g>
</svg>
        <g id="navigator" transform="translate(0 0)" fill="#404254">
                <rect fill="#f2f5e9" fill-opacity="0.5" stroke="#606060" stroke-width=".5" x="0" y="0" width="60" height="60"/>
                <use id="zoomplus" xlink:href="#zoomPlus" x="17" y="9" onmousedown="handleZoom(evt,'in')"/>
                <use id="zoomminus" xlink:href="#zoomMin" x="42" y="9" onmousedown="handleZoom(evt,'out')"/>
                <use id="reset" xlink:href="#resetDef" x="30" y="36" onmousedown="handleReset()"/>
                <g id="arrowUp" xlink:href="#dirArrow" transform="translate(30 24)" onmousedown="handlePan(0,-1)">
                  <use xlink:href="#rim" fill="#404040">
                        <set attributeName="fill" to="#808080" begin="arrowUp.mouseover" end="arrowUp.mouseout"/>
                  </use>
                  <path fill="none" stroke="white" stroke-width="1.5" d="M0,-3.0v7 M-2.5,-0.5L0,-3.0L2.5,-0.5"/>
                </g>
                <g id="arrowRight" xlink:href="#dirArrow" transform="rotate(90) translate(36 -43)" onmousedown="handlePan(1,0)">
                  <use xlink:href="#rim" fill="#404040">
                        <set attributeName="fill" to="#808080" begin="arrowRight.mouseover" end="arrowRight.mouseout"/>
                  </use>
                  <path fill="none" stroke="white" stroke-width="1.5" d="M0,-3.0v7 M-2.5,-0.5L0,-3.0L2.5,-0.5"/>
                </g>
                <g id="arrowDown" xlink:href="#dirArrow" transform="rotate(180) translate(-30 -48)" onmousedown="handlePan(0,1)">
                  <use xlink:href="#rim" fill="#404040">
                        <set attributeName="fill" to="#808080" begin="arrowDown.mouseover" end="arrowDown.mouseout"/>
                  </use>
                  <path fill="none" stroke="white" stroke-width="1.5" d="M0,-3.0v7 M-2.5,-0.5L0,-3.0L2.5,-0.5"/>
                </g>
                <g id="arrowLeft" xlink:href="#dirArrow" transform="rotate(270) translate(-36 17)" onmousedown="handlePan(-1,0)">
                  <use xlink:href="#rim" fill="#404040">
                        <set attributeName="fill" to="#808080" begin="arrowLeft.mouseover" end="arrowLeft.mouseout"/>
                  </use>
                  <path fill="none" stroke="white" stroke-width="1.5" d="M0,-3.0v7 M-2.5,-0.5L0,-3.0L2.5,-0.5"/>
                </g>
        </g>
</svg>
