<?xml version="1.0" encoding="UTF-8" standalone="no"?>
<!DOCTYPE svg PUBLIC "-//W3C//DTD SVG 1.1//EN"
 "http://www.w3.org/Graphics/SVG/1.1/DTD/svg11.dtd">
<!-- Generated by graphviz version 2.26.3 (20100126.1600)
 -->
<!-- Title: G Pages: 1 -->
<!--zoomable 130 -->
<svg id="main" version="1.1" xmlns="http://www.w3.org/2000/svg" xmlns:xlink="http://www.w3.org/1999/xlink" xml:space="preserve" onload="init(evt)">
        <defs>
                <circle id="rim" cx="0" cy="0" r="7"/>
                <circle id="rim2" cx="0" cy="0" r="3.5"/>
                <g id="zoomPlus">
                        <use xlink:href="#rim" fill="#404040">
                                <set attributeName="fill" to="#808080" begin="zoomplus.mouseover" end="zoomplus.mouseout"/>
                        </use>
                        <path d="M-4,0h8M0,-4v8" fill="none" stroke="white" stroke-width="1.5" pointer-events="none"/>
                </g>
                <g id="zoomMin">
                        <use xlink:href="#rim" fill="#404040">
                                <set attributeName="fill" to="#808080" begin="zoomminus.mouseover" end="zoomminus.mouseout"/>
                        </use>
                        <path d="M-4,0h8" fill="none" stroke="white" stroke-width="1.5" pointer-events="none"/>
                </g>
                <g id="dirArrow">
                        <path fill="none" stroke="white" stroke-width="1.5" d="M0,-3.0v7 M-2.5,-0.5L0,-3.0L2.5,-0.5"/>
                </g>
               <g id="resetDef">
                       <use xlink:href="#rim2" fill="#404040">
                               <set attributeName="fill" to="#808080" begin="reset.mouseover" end="reset.mouseout"/>
                       </use>
               </g>
        </defs>

<script type="text/javascript">
var viewWidth = 1094;
var viewHeight = 130;
var sectionId = 'dynsection-10';
</script>
<script xlink:href="svgpan.js"/>
<svg id="graph" class="graph">
<g id="viewport">
<title>G</title>
<!-- Node1 -->
<g id="node1" class="node"><title>Node1</title>
<polygon fill="#bfbfbf" stroke="black" points="0.5,-40.5 0.5,-61.5 233.5,-61.5 233.5,-40.5 0.5,-40.5"/>
<text text-anchor="middle" x="117" y="-48.5" font-family="FreeSans.ttf" font-size="10.00">BaseHostDialog::distortionEstimationFinished</text>
</g>
<!-- Node2 -->
<g id="node3" class="node"><title>Node2</title>
<a xlink:href="classBaseHostDialog.html#a34dae5e98b718534256d2728db0a7517" target="_top" xlink:title="BaseHostDialog::camerasParamsChanged">
<polygon fill="none" stroke="black" points="282,-80.5 282,-101.5 502,-101.5 502,-80.5 282,-80.5"/>
<text text-anchor="middle" x="392" y="-88.5" font-family="FreeSans.ttf" font-size="10.00">BaseHostDialog::camerasParamsChanged</text>
</a>
</g>
<!-- Node1&#45;&gt;Node2 -->
<g id="edge2" class="edge"><title>Node1&#45;&gt;Node2</title>
<path fill="none" stroke="midnightblue" d="M189.253,-61.5095C226.212,-66.8854 271.358,-73.4521 309.659,-79.0232"/>
<polygon fill="midnightblue" stroke="midnightblue" points="309.353,-82.5154 319.753,-80.4913 310.361,-75.5883 309.353,-82.5154"/>
</g>
<!-- Node8 -->
<g id="node15" class="node"><title>Node8</title>
<a xlink:href="classDistortionWidget.html#a79577eb6f6044f9a7c6f4b3bfcb83aae" target="_top" xlink:title="DistortionWidget::distortionCorrectionTransform">
<polygon fill="none" stroke="black" points="270.5,-40.5 270.5,-61.5 513.5,-61.5 513.5,-40.5 270.5,-40.5"/>
<text text-anchor="middle" x="392" y="-48.5" font-family="FreeSans.ttf" font-size="10.00">DistortionWidget::distortionCorrectionTransform</text>
</a>
</g>
<!-- Node1&#45;&gt;Node8 -->
<g id="edge14" class="edge"><title>Node1&#45;&gt;Node8</title>
<path fill="none" stroke="midnightblue" d="M233.625,-51C242.453,-51 251.398,-51 260.311,-51"/>
<polygon fill="midnightblue" stroke="midnightblue" points="260.352,-54.5001 270.352,-51 260.352,-47.5001 260.352,-54.5001"/>
</g>
<!-- Node9 -->
<g id="node17" class="node"><title>Node9</title>
<a xlink:href="classFrames.html#a574575a77ec087df67dd270caa832edc" target="_top" xlink:title="Frames::getCurrentFrame">
<polygon fill="none" stroke="black" points="322,-0.5 322,-21.5 462,-21.5 462,-0.5 322,-0.5"/>
<text text-anchor="middle" x="392" y="-8.5" font-family="FreeSans.ttf" font-size="10.00">Frames::getCurrentFrame</text>
</a>
</g>
<!-- Node1&#45;&gt;Node9 -->
<g id="edge16" class="edge"><title>Node1&#45;&gt;Node9</title>
<path fill="none" stroke="midnightblue" d="M189.253,-40.4905C226.796,-35.0297 272.788,-28.34 311.471,-22.7133"/>
<polygon fill="midnightblue" stroke="midnightblue" points="312.263,-26.1351 321.655,-21.232 311.255,-19.208 312.263,-26.1351"/>
</g>
<!-- Node3 -->
<g id="node5" class="node"><title>Node3</title>
<a xlink:href="classBaseHostDialog.html#a948845662aec80c962ab678a65933635" target="_top" xlink:title="BaseHostDialog::camerasParametersChanged">
<polygon fill="none" stroke="black" points="550.5,-100.5 550.5,-121.5 789.5,-121.5 789.5,-100.5 550.5,-100.5"/>
<text text-anchor="middle" x="670" y="-108.5" font-family="FreeSans.ttf" font-size="10.00">BaseHostDialog::camerasParametersChanged</text>
</a>
</g>
<!-- Node2&#45;&gt;Node3 -->
<g id="edge4" class="edge"><title>Node2&#45;&gt;Node3</title>
<path fill="none" stroke="midnightblue" d="M502.272,-98.9333C514.712,-99.8282 527.474,-100.746 540.133,-101.657"/>
<polygon fill="midnightblue" stroke="midnightblue" points="540.031,-105.159 550.256,-102.385 540.533,-98.1767 540.031,-105.159"/>
</g>
<!-- Node4 -->
<g id="node7" class="node"><title>Node4</title>
<a xlink:href="classBaseHostDialog.html#a1a861685bf1ca4f0908455ccd5708b89" target="_top" xlink:title="BaseHostDialog::getAdditionalParams">
<polygon fill="none" stroke="black" points="571,-60.5 571,-81.5 769,-81.5 769,-60.5 571,-60.5"/>
<text text-anchor="middle" x="670" y="-68.5" font-family="FreeSans.ttf" font-size="10.00">BaseHostDialog::getAdditionalParams</text>
</a>
</g>
<!-- Node2&#45;&gt;Node4 -->
<g id="edge6" class="edge"><title>Node2&#45;&gt;Node4</title>
<path fill="none" stroke="midnightblue" d="M502.272,-83.0667C521.419,-81.6893 541.325,-80.2572 560.452,-78.8811"/>
<polygon fill="midnightblue" stroke="midnightblue" points="560.957,-82.3539 570.681,-78.1453 560.455,-75.372 560.957,-82.3539"/>
</g>
<!-- Node5 -->
<g id="node9" class="node"><title>Node5</title>
<a xlink:href="classCamerasConfigParameters.html#a0df22efe1bdbe8d27451ac4c2935f90b" target="_top" xlink:title="CamerasConfigParameters::setInputsN">
<polygon fill="none" stroke="black" points="854.5,-100.5 854.5,-121.5 1057.5,-121.5 1057.5,-100.5 854.5,-100.5"/>
<text text-anchor="middle" x="956" y="-108.5" font-family="FreeSans.ttf" font-size="10.00">CamerasConfigParameters::setInputsN</text>
</a>
</g>
<!-- Node4&#45;&gt;Node5 -->
<g id="edge8" class="edge"><title>Node4&#45;&gt;Node5</title>
<path fill="none" stroke="midnightblue" d="M745.143,-81.5095C783.744,-86.9082 830.932,-93.508 870.874,-99.0942"/>
<polygon fill="midnightblue" stroke="midnightblue" points="870.474,-102.572 880.863,-100.491 871.444,-95.6398 870.474,-102.572"/>
</g>
<!-- Node6 -->
<g id="node11" class="node"><title>Node6</title>
<a xlink:href="classCamerasConfigParameters.html#a890e5fb11deace781510efc7ef7460e5" target="_top" xlink:title="CamerasConfigParameters::setRectifierData">
<polygon fill="none" stroke="black" points="842.5,-60.5 842.5,-81.5 1069.5,-81.5 1069.5,-60.5 842.5,-60.5"/>
<text text-anchor="middle" x="956" y="-68.5" font-family="FreeSans.ttf" font-size="10.00">CamerasConfigParameters::setRectifierData</text>
</a>
</g>
<!-- Node4&#45;&gt;Node6 -->
<g id="edge10" class="edge"><title>Node4&#45;&gt;Node6</title>
<path fill="none" stroke="midnightblue" d="M769.226,-71C789.469,-71 811.006,-71 831.989,-71"/>
<polygon fill="midnightblue" stroke="midnightblue" points="832.237,-74.5001 842.237,-71 832.237,-67.5001 832.237,-74.5001"/>
</g>
<!-- Node7 -->
<g id="node13" class="node"><title>Node7</title>
<a xlink:href="classCamerasConfigParameters.html#a94ebef3c7cf7693491aba2e149c33c6b" target="_top" xlink:title="CamerasConfigParameters::setDistortionTransform">
<polygon fill="none" stroke="black" points="826,-20.5 826,-41.5 1086,-41.5 1086,-20.5 826,-20.5"/>
<text text-anchor="middle" x="956" y="-28.5" font-family="FreeSans.ttf" font-size="10.00">CamerasConfigParameters::setDistortionTransform</text>
</a>
</g>
<!-- Node4&#45;&gt;Node7 -->
<g id="edge12" class="edge"><title>Node4&#45;&gt;Node7</title>
<path fill="none" stroke="midnightblue" d="M745.143,-60.4905C783.744,-55.0918 830.932,-48.492 870.874,-42.9058"/>
<polygon fill="midnightblue" stroke="midnightblue" points="871.444,-46.3602 880.863,-41.5087 870.474,-39.4277 871.444,-46.3602"/>
</g>
</g>
</svg>
        <g id="navigator" transform="translate(0 0)" fill="#404254">
                <rect fill="#f2f5e9" fill-opacity="0.5" stroke="#606060" stroke-width=".5" x="0" y="0" width="60" height="60"/>
                <use id="zoomplus" xlink:href="#zoomPlus" x="17" y="9" onmousedown="handleZoom(evt,'in')"/>
                <use id="zoomminus" xlink:href="#zoomMin" x="42" y="9" onmousedown="handleZoom(evt,'out')"/>
                <use id="reset" xlink:href="#resetDef" x="30" y="36" onmousedown="handleReset()"/>
                <g id="arrowUp" xlink:href="#dirArrow" transform="translate(30 24)" onmousedown="handlePan(0,-1)">
                  <use xlink:href="#rim" fill="#404040">
                        <set attributeName="fill" to="#808080" begin="arrowUp.mouseover" end="arrowUp.mouseout"/>
                  </use>
                  <path fill="none" stroke="white" stroke-width="1.5" d="M0,-3.0v7 M-2.5,-0.5L0,-3.0L2.5,-0.5"/>
                </g>
                <g id="arrowRight" xlink:href="#dirArrow" transform="rotate(90) translate(36 -43)" onmousedown="handlePan(1,0)">
                  <use xlink:href="#rim" fill="#404040">
                        <set attributeName="fill" to="#808080" begin="arrowRight.mouseover" end="arrowRight.mouseout"/>
                  </use>
                  <path fill="none" stroke="white" stroke-width="1.5" d="M0,-3.0v7 M-2.5,-0.5L0,-3.0L2.5,-0.5"/>
                </g>
                <g id="arrowDown" xlink:href="#dirArrow" transform="rotate(180) translate(-30 -48)" onmousedown="handlePan(0,1)">
                  <use xlink:href="#rim" fill="#404040">
                        <set attributeName="fill" to="#808080" begin="arrowDown.mouseover" end="arrowDown.mouseout"/>
                  </use>
                  <path fill="none" stroke="white" stroke-width="1.5" d="M0,-3.0v7 M-2.5,-0.5L0,-3.0L2.5,-0.5"/>
                </g>
                <g id="arrowLeft" xlink:href="#dirArrow" transform="rotate(270) translate(-36 17)" onmousedown="handlePan(-1,0)">
                  <use xlink:href="#rim" fill="#404040">
                        <set attributeName="fill" to="#808080" begin="arrowLeft.mouseover" end="arrowLeft.mouseout"/>
                  </use>
                  <path fill="none" stroke="white" stroke-width="1.5" d="M0,-3.0v7 M-2.5,-0.5L0,-3.0L2.5,-0.5"/>
                </g>
        </g>
</svg>
