<?xml version="1.0" encoding="UTF-8" standalone="no"?>
<!DOCTYPE svg PUBLIC "-//W3C//DTD SVG 1.1//EN"
 "http://www.w3.org/Graphics/SVG/1.1/DTD/svg11.dtd">
<!-- Generated by graphviz version 2.26.3 (20100126.1600)
 -->
<!-- Title: G Pages: 1 -->
<svg width="238pt" height="212pt"
 viewBox="0.00 0.00 238.00 212.00" xmlns="http://www.w3.org/2000/svg" xmlns:xlink="http://www.w3.org/1999/xlink">
<g id="graph1" class="graph" transform="scale(1 1) rotate(0) translate(4 208)">
<title>G</title>
<!-- Node1 -->
<g id="node1" class="node"><title>Node1</title>
<polygon fill="#bfbfbf" stroke="black" points="43.5,-0.5 43.5,-21.5 230.5,-21.5 230.5,-0.5 43.5,-0.5"/>
<text text-anchor="middle" x="137" y="-8.5" font-family="FreeSans.ttf" font-size="10.00">corecvs::SimpleScalarField&lt; Type &gt;</text>
</g>
<!-- Node2 -->
<g id="node2" class="node"><title>Node2</title>
<a xlink:href="classcorecvs_1_1BaseField.html" target="_top" xlink:title="This class is a core class for the reflection.">
<polygon fill="none" stroke="black" points="19,-110.5 19,-131.5 123,-131.5 123,-110.5 19,-110.5"/>
<text text-anchor="middle" x="71" y="-118.5" font-family="FreeSans.ttf" font-size="10.00">corecvs::BaseField</text>
</a>
</g>
<!-- Node2&#45;&gt;Node1 -->
<g id="edge2" class="edge"><title>Node2&#45;&gt;Node1</title>
<path fill="none" stroke="midnightblue" d="M82.5246,-101.792C96.4757,-78.5405 119.479,-40.202 130.594,-21.677"/>
<polygon fill="midnightblue" stroke="midnightblue" points="79.4721,-100.077 77.3284,-110.453 85.4746,-103.679 79.4721,-100.077"/>
</g>
<!-- Node3 -->
<g id="node4" class="node"><title>Node3</title>
<a xlink:href="classcorecvs_1_1ReflectionNaming.html" target="_top" xlink:title="We have several styles of nameing.">
<polygon fill="none" stroke="black" points="-0.5,-182.5 -0.5,-203.5 142.5,-203.5 142.5,-182.5 -0.5,-182.5"/>
<text text-anchor="middle" x="71" y="-190.5" font-family="FreeSans.ttf" font-size="10.00">corecvs::ReflectionNaming</text>
</a>
</g>
<!-- Node3&#45;&gt;Node2 -->
<g id="edge4" class="edge"><title>Node3&#45;&gt;Node2</title>
<path fill="none" stroke="#9a32cd" stroke-dasharray="5,2" d="M71,-172.235C71,-158.969 71,-142.319 71,-131.667"/>
<polygon fill="#9a32cd" stroke="#9a32cd" points="67.5001,-172.376 71,-182.376 74.5001,-172.376 67.5001,-172.376"/>
<text text-anchor="middle" x="86.5" y="-154.5" font-family="FreeSans.ttf" font-size="10.00"> name</text>
</g>
<!-- Node4 -->
<g id="node6" class="node"><title>Node4</title>
<polygon fill="none" stroke="#bfbfbf" points="141,-110.5 141,-131.5 179,-131.5 179,-110.5 141,-110.5"/>
<text text-anchor="middle" x="160" y="-118.5" font-family="FreeSans.ttf" font-size="10.00">Type</text>
</g>
<!-- Node4&#45;&gt;Node1 -->
<g id="edge6" class="edge"><title>Node4&#45;&gt;Node1</title>
<path fill="none" stroke="#9a32cd" stroke-dasharray="5,2" d="M155.722,-100.538C150.838,-77.1836 143.037,-39.8727 139.232,-21.677"/>
<polygon fill="#9a32cd" stroke="#9a32cd" points="152.322,-101.381 157.795,-110.453 159.174,-99.9481 152.322,-101.381"/>
<text text-anchor="middle" x="184.5" y="-83" font-family="FreeSans.ttf" font-size="10.00"> defaultValue</text>
<text text-anchor="middle" x="184.5" y="-70" font-family="FreeSans.ttf" font-size="10.00">step</text>
<text text-anchor="middle" x="184.5" y="-57" font-family="FreeSans.ttf" font-size="10.00">min</text>
<text text-anchor="middle" x="184.5" y="-44" font-family="FreeSans.ttf" font-size="10.00">max</text>
</g>
</g>
</svg>
