<?xml version="1.0" encoding="UTF-8" standalone="no"?>
<!DOCTYPE svg PUBLIC "-//W3C//DTD SVG 1.1//EN"
 "http://www.w3.org/Graphics/SVG/1.1/DTD/svg11.dtd">
<!-- Generated by graphviz version 2.26.3 (20100126.1600)
 -->
<!-- Title: G Pages: 1 -->
<svg width="360pt" height="70pt"
 viewBox="0.00 0.00 360.00 70.00" xmlns="http://www.w3.org/2000/svg" xmlns:xlink="http://www.w3.org/1999/xlink">
<g id="graph1" class="graph" transform="scale(1 1) rotate(0) translate(4 66)">
<title>G</title>
<!-- Node1 -->
<g id="node1" class="node"><title>Node1</title>
<polygon fill="#bfbfbf" stroke="black" points="0.5,-20.5 0.5,-41.5 141.5,-41.5 141.5,-20.5 0.5,-20.5"/>
<text text-anchor="middle" x="71" y="-28.5" font-family="FreeSans.ttf" font-size="10.00">FlowDrawer::drawDotsFast</text>
</g>
<!-- Node2 -->
<g id="node3" class="node"><title>Node2</title>
<a xlink:href="classcorecvs_1_1AbstractBuffer.html#a98f72526738a0c4ce8a0b72a3b5c28b9" target="_top" xlink:title="The element getter.">
<polygon fill="none" stroke="black" points="178,-40.5 178,-61.5 352,-61.5 352,-40.5 178,-40.5"/>
<text text-anchor="middle" x="265" y="-48.5" font-family="FreeSans.ttf" font-size="10.00">corecvs::AbstractBuffer::element</text>
</a>
</g>
<!-- Node1&#45;&gt;Node2 -->
<g id="edge2" class="edge"><title>Node1&#45;&gt;Node2</title>
<path fill="none" stroke="midnightblue" d="M141.587,-38.277C150.167,-39.1616 159.046,-40.0769 167.925,-40.9922"/>
<polygon fill="midnightblue" stroke="midnightblue" points="167.628,-44.4801 177.934,-42.0241 168.346,-37.517 167.628,-44.4801"/>
</g>
<!-- Node3 -->
<g id="node5" class="node"><title>Node3</title>
<a xlink:href="classAbstractFlowColorer.html#ada768229977f6bc2e369f76e7774c730" target="_top" xlink:title="AbstractFlowColorer::getPacked">
<polygon fill="none" stroke="black" points="181.5,-0.5 181.5,-21.5 348.5,-21.5 348.5,-0.5 181.5,-0.5"/>
<text text-anchor="middle" x="265" y="-8.5" font-family="FreeSans.ttf" font-size="10.00">AbstractFlowColorer::getPacked</text>
</a>
</g>
<!-- Node1&#45;&gt;Node3 -->
<g id="edge4" class="edge"><title>Node1&#45;&gt;Node3</title>
<path fill="none" stroke="midnightblue" d="M141.587,-23.723C151.256,-22.7261 161.305,-21.6902 171.306,-20.6592"/>
<polygon fill="midnightblue" stroke="midnightblue" points="171.688,-24.1385 181.276,-19.6313 170.97,-17.1754 171.688,-24.1385"/>
</g>
</g>
</svg>
