<?xml version="1.0" encoding="UTF-8" standalone="no"?>
<!DOCTYPE svg PUBLIC "-//W3C//DTD SVG 1.1//EN"
 "http://www.w3.org/Graphics/SVG/1.1/DTD/svg11.dtd">
<!-- Generated by graphviz version 2.26.3 (20100126.1600)
 -->
<!-- Title: G Pages: 1 -->
<!--zoomable 110 -->
<svg id="main" version="1.1" xmlns="http://www.w3.org/2000/svg" xmlns:xlink="http://www.w3.org/1999/xlink" xml:space="preserve" onload="init(evt)">
        <defs>
                <circle id="rim" cx="0" cy="0" r="7"/>
                <circle id="rim2" cx="0" cy="0" r="3.5"/>
                <g id="zoomPlus">
                        <use xlink:href="#rim" fill="#404040">
                                <set attributeName="fill" to="#808080" begin="zoomplus.mouseover" end="zoomplus.mouseout"/>
                        </use>
                        <path d="M-4,0h8M0,-4v8" fill="none" stroke="white" stroke-width="1.5" pointer-events="none"/>
                </g>
                <g id="zoomMin">
                        <use xlink:href="#rim" fill="#404040">
                                <set attributeName="fill" to="#808080" begin="zoomminus.mouseover" end="zoomminus.mouseout"/>
                        </use>
                        <path d="M-4,0h8" fill="none" stroke="white" stroke-width="1.5" pointer-events="none"/>
                </g>
                <g id="dirArrow">
                        <path fill="none" stroke="white" stroke-width="1.5" d="M0,-3.0v7 M-2.5,-0.5L0,-3.0L2.5,-0.5"/>
                </g>
               <g id="resetDef">
                       <use xlink:href="#rim2" fill="#404040">
                               <set attributeName="fill" to="#808080" begin="reset.mouseover" end="reset.mouseout"/>
                       </use>
               </g>
        </defs>

<script type="text/javascript">
var viewWidth = 774;
var viewHeight = 110;
var sectionId = 'dynsection-6';
</script>
<script xlink:href="svgpan.js"/>
<svg id="graph" class="graph">
<g id="viewport">
<title>G</title>
<!-- Node1 -->
<g id="node1" class="node"><title>Node1</title>
<polygon fill="#bfbfbf" stroke="black" points="0,-40.5 0,-61.5 156,-61.5 156,-40.5 0,-40.5"/>
<text text-anchor="middle" x="78" y="-48.5" font-family="FreeSans.ttf" font-size="10.00">corecvs::FilterGraph::serialize</text>
</g>
<!-- Node2 -->
<g id="node3" class="node"><title>Node2</title>
<a xlink:href="classtinyxml2_1_1XMLDocument.html#a2e57602756e197341711a4a0b84c52c5" target="_top" xlink:title="Print the Document.">
<polygon fill="none" stroke="black" points="192.5,-40.5 192.5,-61.5 353.5,-61.5 353.5,-40.5 192.5,-40.5"/>
<text text-anchor="middle" x="273" y="-48.5" font-family="FreeSans.ttf" font-size="10.00">tinyxml2::XMLDocument::Print</text>
</a>
</g>
<!-- Node1&#45;&gt;Node2 -->
<g id="edge2" class="edge"><title>Node1&#45;&gt;Node2</title>
<path fill="none" stroke="midnightblue" d="M156.19,-51C164.72,-51 173.455,-51 182.12,-51"/>
<polygon fill="midnightblue" stroke="midnightblue" points="182.243,-54.5001 192.243,-51 182.243,-47.5001 182.243,-54.5001"/>
</g>
<!-- Node3 -->
<g id="node5" class="node"><title>Node3</title>
<a xlink:href="classtinyxml2_1_1XMLDocument.html#aa08503d24898bf9992ae5e5fb8b0cf87" target="_top" xlink:title="Accept a hierarchical visit of the nodes in the TinyXML DOM.">
<polygon fill="none" stroke="black" points="390,-40.5 390,-61.5 562,-61.5 562,-40.5 390,-40.5"/>
<text text-anchor="middle" x="476" y="-48.5" font-family="FreeSans.ttf" font-size="10.00">tinyxml2::XMLDocument::Accept</text>
</a>
</g>
<!-- Node2&#45;&gt;Node3 -->
<g id="edge4" class="edge"><title>Node2&#45;&gt;Node3</title>
<path fill="none" stroke="midnightblue" d="M353.523,-51C362.115,-51 370.918,-51 379.669,-51"/>
<polygon fill="midnightblue" stroke="midnightblue" points="379.903,-54.5001 389.903,-51 379.903,-47.5001 379.903,-54.5001"/>
</g>
<!-- Node4 -->
<g id="node7" class="node"><title>Node4</title>
<a xlink:href="classtinyxml2_1_1XMLVisitor.html#acb3c22fc5f60eb9db98f533f2761f67d" target="_top" xlink:title="Visit a document.">
<polygon fill="none" stroke="black" points="600,-80.5 600,-101.5 764,-101.5 764,-80.5 600,-80.5"/>
<text text-anchor="middle" x="682" y="-88.5" font-family="FreeSans.ttf" font-size="10.00">tinyxml2::XMLVisitor::VisitEnter</text>
</a>
</g>
<!-- Node3&#45;&gt;Node4 -->
<g id="edge6" class="edge"><title>Node3&#45;&gt;Node4</title>
<path fill="none" stroke="midnightblue" d="M530.124,-61.5095C556.985,-66.7252 589.619,-73.0619 617.742,-78.5227"/>
<polygon fill="midnightblue" stroke="midnightblue" points="617.396,-82.0209 627.88,-80.4913 618.731,-75.1492 617.396,-82.0209"/>
</g>
<!-- Node5 -->
<g id="node9" class="node"><title>Node5</title>
<a xlink:href="classtinyxml2_1_1XMLNode.html#abba1df37581d89dccc45acdc55750ba2" target="_top" xlink:title="Get the next (right) sibling node of this node.">
<polygon fill="none" stroke="black" points="598,-40.5 598,-61.5 766,-61.5 766,-40.5 598,-40.5"/>
<text text-anchor="middle" x="682" y="-48.5" font-family="FreeSans.ttf" font-size="10.00">tinyxml2::XMLNode::NextSibling</text>
</a>
</g>
<!-- Node3&#45;&gt;Node5 -->
<g id="edge8" class="edge"><title>Node3&#45;&gt;Node5</title>
<path fill="none" stroke="midnightblue" d="M562.169,-51C570.556,-51 579.096,-51 587.558,-51"/>
<polygon fill="midnightblue" stroke="midnightblue" points="587.827,-54.5001 597.827,-51 587.827,-47.5001 587.827,-54.5001"/>
</g>
<!-- Node6 -->
<g id="node11" class="node"><title>Node6</title>
<a xlink:href="classtinyxml2_1_1XMLVisitor.html#a170e9989cd046ba904f302d087e07086" target="_top" xlink:title="Visit a document.">
<polygon fill="none" stroke="black" points="604.5,-0.5 604.5,-21.5 759.5,-21.5 759.5,-0.5 604.5,-0.5"/>
<text text-anchor="middle" x="682" y="-8.5" font-family="FreeSans.ttf" font-size="10.00">tinyxml2::XMLVisitor::VisitExit</text>
</a>
</g>
<!-- Node3&#45;&gt;Node6 -->
<g id="edge10" class="edge"><title>Node3&#45;&gt;Node6</title>
<path fill="none" stroke="midnightblue" d="M530.124,-40.4905C556.985,-35.2748 589.619,-28.9381 617.742,-23.4773"/>
<polygon fill="midnightblue" stroke="midnightblue" points="618.731,-26.8508 627.88,-21.5087 617.396,-19.9791 618.731,-26.8508"/>
</g>
</g>
</svg>
        <g id="navigator" transform="translate(0 0)" fill="#404254">
                <rect fill="#f2f5e9" fill-opacity="0.5" stroke="#606060" stroke-width=".5" x="0" y="0" width="60" height="60"/>
                <use id="zoomplus" xlink:href="#zoomPlus" x="17" y="9" onmousedown="handleZoom(evt,'in')"/>
                <use id="zoomminus" xlink:href="#zoomMin" x="42" y="9" onmousedown="handleZoom(evt,'out')"/>
                <use id="reset" xlink:href="#resetDef" x="30" y="36" onmousedown="handleReset()"/>
                <g id="arrowUp" xlink:href="#dirArrow" transform="translate(30 24)" onmousedown="handlePan(0,-1)">
                  <use xlink:href="#rim" fill="#404040">
                        <set attributeName="fill" to="#808080" begin="arrowUp.mouseover" end="arrowUp.mouseout"/>
                  </use>
                  <path fill="none" stroke="white" stroke-width="1.5" d="M0,-3.0v7 M-2.5,-0.5L0,-3.0L2.5,-0.5"/>
                </g>
                <g id="arrowRight" xlink:href="#dirArrow" transform="rotate(90) translate(36 -43)" onmousedown="handlePan(1,0)">
                  <use xlink:href="#rim" fill="#404040">
                        <set attributeName="fill" to="#808080" begin="arrowRight.mouseover" end="arrowRight.mouseout"/>
                  </use>
                  <path fill="none" stroke="white" stroke-width="1.5" d="M0,-3.0v7 M-2.5,-0.5L0,-3.0L2.5,-0.5"/>
                </g>
                <g id="arrowDown" xlink:href="#dirArrow" transform="rotate(180) translate(-30 -48)" onmousedown="handlePan(0,1)">
                  <use xlink:href="#rim" fill="#404040">
                        <set attributeName="fill" to="#808080" begin="arrowDown.mouseover" end="arrowDown.mouseout"/>
                  </use>
                  <path fill="none" stroke="white" stroke-width="1.5" d="M0,-3.0v7 M-2.5,-0.5L0,-3.0L2.5,-0.5"/>
                </g>
                <g id="arrowLeft" xlink:href="#dirArrow" transform="rotate(270) translate(-36 17)" onmousedown="handlePan(-1,0)">
                  <use xlink:href="#rim" fill="#404040">
                        <set attributeName="fill" to="#808080" begin="arrowLeft.mouseover" end="arrowLeft.mouseout"/>
                  </use>
                  <path fill="none" stroke="white" stroke-width="1.5" d="M0,-3.0v7 M-2.5,-0.5L0,-3.0L2.5,-0.5"/>
                </g>
        </g>
</svg>
