<?xml version="1.0" encoding="UTF-8" standalone="no"?>
<!DOCTYPE svg PUBLIC "-//W3C//DTD SVG 1.1//EN"
 "http://www.w3.org/Graphics/SVG/1.1/DTD/svg11.dtd">
<!-- Generated by graphviz version 2.26.3 (20100126.1600)
 -->
<!-- Title: G Pages: 1 -->
<!--zoomable 180 -->
<svg id="main" version="1.1" xmlns="http://www.w3.org/2000/svg" xmlns:xlink="http://www.w3.org/1999/xlink" xml:space="preserve" onload="init(evt)">
        <defs>
                <circle id="rim" cx="0" cy="0" r="7"/>
                <circle id="rim2" cx="0" cy="0" r="3.5"/>
                <g id="zoomPlus">
                        <use xlink:href="#rim" fill="#404040">
                                <set attributeName="fill" to="#808080" begin="zoomplus.mouseover" end="zoomplus.mouseout"/>
                        </use>
                        <path d="M-4,0h8M0,-4v8" fill="none" stroke="white" stroke-width="1.5" pointer-events="none"/>
                </g>
                <g id="zoomMin">
                        <use xlink:href="#rim" fill="#404040">
                                <set attributeName="fill" to="#808080" begin="zoomminus.mouseover" end="zoomminus.mouseout"/>
                        </use>
                        <path d="M-4,0h8" fill="none" stroke="white" stroke-width="1.5" pointer-events="none"/>
                </g>
                <g id="dirArrow">
                        <path fill="none" stroke="white" stroke-width="1.5" d="M0,-3.0v7 M-2.5,-0.5L0,-3.0L2.5,-0.5"/>
                </g>
               <g id="resetDef">
                       <use xlink:href="#rim2" fill="#404040">
                               <set attributeName="fill" to="#808080" begin="reset.mouseover" end="reset.mouseout"/>
                       </use>
               </g>
        </defs>

<script type="text/javascript">
var viewWidth = 726;
var viewHeight = 180;
var sectionId = 'dynsection-4';
</script>
<script xlink:href="svgpan.js"/>
<svg id="graph" class="graph">
<g id="viewport">
<title>G</title>
<!-- Node1 -->
<g id="node1" class="node"><title>Node1</title>
<polygon fill="#bfbfbf" stroke="black" points="0.5,-110.5 0.5,-131.5 215.5,-131.5 215.5,-110.5 0.5,-110.5"/>
<text text-anchor="middle" x="108" y="-118.5" font-family="FreeSans.ttf" font-size="10.00">RecorderControlWidget::loadParamWidget</text>
</g>
<!-- Node2 -->
<g id="node3" class="node"><title>Node2</title>
<a xlink:href="classRecorderControlWidget.html#ac2b2cc0e80869e9ccc9d99e2510e7695" target="_top" xlink:title="RecorderControlWidget::createParameters">
<polygon fill="none" stroke="black" points="252,-150.5 252,-171.5 470,-171.5 470,-150.5 252,-150.5"/>
<text text-anchor="middle" x="361" y="-158.5" font-family="FreeSans.ttf" font-size="10.00">RecorderControlWidget::createParameters</text>
</a>
</g>
<!-- Node1&#45;&gt;Node2 -->
<g id="edge2" class="edge"><title>Node1&#45;&gt;Node2</title>
<path fill="none" stroke="midnightblue" d="M174.473,-131.51C208.185,-136.84 249.303,-143.34 284.346,-148.881"/>
<polygon fill="midnightblue" stroke="midnightblue" points="284.108,-152.387 294.532,-150.491 285.202,-145.473 284.108,-152.387"/>
</g>
<!-- Node3 -->
<g id="node5" class="node"><title>Node3</title>
<a xlink:href="classWidgetLoader.html#af26226b345e783f1a39c28dcdfed26c8" target="_top" xlink:title="WidgetLoader::loadParameters">
<polygon fill="none" stroke="black" points="279,-110.5 279,-131.5 443,-131.5 443,-110.5 279,-110.5"/>
<text text-anchor="middle" x="361" y="-118.5" font-family="FreeSans.ttf" font-size="10.00">WidgetLoader::loadParameters</text>
</a>
</g>
<!-- Node1&#45;&gt;Node3 -->
<g id="edge4" class="edge"><title>Node1&#45;&gt;Node3</title>
<path fill="none" stroke="midnightblue" d="M215.662,-121C233.313,-121 251.464,-121 268.7,-121"/>
<polygon fill="midnightblue" stroke="midnightblue" points="268.732,-124.5 278.732,-121 268.732,-117.5 268.732,-124.5"/>
</g>
<!-- Node5 -->
<g id="node9" class="node"><title>Node5</title>
<a xlink:href="classRecorderControlWidget.html#aafaf3526594018a46a33953fcbe52352" target="_top" xlink:title="RecorderControlWidget::setParameters">
<polygon fill="none" stroke="black" points="260,-50.5 260,-71.5 462,-71.5 462,-50.5 260,-50.5"/>
<text text-anchor="middle" x="361" y="-58.5" font-family="FreeSans.ttf" font-size="10.00">RecorderControlWidget::setParameters</text>
</a>
</g>
<!-- Node1&#45;&gt;Node5 -->
<g id="edge8" class="edge"><title>Node1&#45;&gt;Node5</title>
<path fill="none" stroke="midnightblue" d="M152.359,-110.48C195.4,-100.273 260.794,-84.7642 306.877,-73.8356"/>
<polygon fill="midnightblue" stroke="midnightblue" points="307.77,-77.2209 316.692,-71.5078 306.154,-70.4099 307.77,-77.2209"/>
</g>
<!-- Node4 -->
<g id="node7" class="node"><title>Node4</title>
<a xlink:href="classSettingsGetter.html#ad816b845b4cfc8323d3d559a0f6a13ae" target="_top" xlink:title="SettingsGetter::settings">
<polygon fill="none" stroke="black" points="546.5,-120.5 546.5,-141.5 677.5,-141.5 677.5,-120.5 546.5,-120.5"/>
<text text-anchor="middle" x="612" y="-128.5" font-family="FreeSans.ttf" font-size="10.00">SettingsGetter::settings</text>
</a>
</g>
<!-- Node3&#45;&gt;Node4 -->
<g id="edge6" class="edge"><title>Node3&#45;&gt;Node4</title>
<path fill="none" stroke="midnightblue" d="M443.187,-124.274C473.114,-125.467 506.787,-126.808 536.14,-127.978"/>
<polygon fill="midnightblue" stroke="midnightblue" points="536.198,-131.483 546.329,-128.384 536.477,-124.488 536.198,-131.483"/>
</g>
<!-- Node6 -->
<g id="node11" class="node"><title>Node6</title>
<a xlink:href="classRecorder.html#a4053809fdf3e085de743db360637f645" target="_top" xlink:title="Recorder::path">
<polygon fill="none" stroke="black" points="569,-80.5 569,-101.5 655,-101.5 655,-80.5 569,-80.5"/>
<text text-anchor="middle" x="612" y="-88.5" font-family="FreeSans.ttf" font-size="10.00">Recorder::path</text>
</a>
</g>
<!-- Node5&#45;&gt;Node6 -->
<g id="edge10" class="edge"><title>Node5&#45;&gt;Node6</title>
<path fill="none" stroke="midnightblue" d="M449.14,-71.5347C485.722,-75.907 526.963,-80.8362 558.791,-84.6404"/>
<polygon fill="midnightblue" stroke="midnightblue" points="558.432,-88.1222 568.776,-85.8338 559.262,-81.1717 558.432,-88.1222"/>
</g>
<!-- Node7 -->
<g id="node13" class="node"><title>Node7</title>
<a xlink:href="classRecorder.html#a06dc686caa4642c0269a195a7905b4cd" target="_top" xlink:title="Recorder::fileTemplate">
<polygon fill="none" stroke="black" points="551,-40.5 551,-61.5 673,-61.5 673,-40.5 551,-40.5"/>
<text text-anchor="middle" x="612" y="-48.5" font-family="FreeSans.ttf" font-size="10.00">Recorder::fileTemplate</text>
</a>
</g>
<!-- Node5&#45;&gt;Node7 -->
<g id="edge12" class="edge"><title>Node5&#45;&gt;Node7</title>
<path fill="none" stroke="midnightblue" d="M462.006,-56.9758C488.348,-55.9264 516.189,-54.8172 540.638,-53.8431"/>
<polygon fill="midnightblue" stroke="midnightblue" points="541.041,-57.3299 550.894,-53.4345 540.762,-50.3355 541.041,-57.3299"/>
</g>
<!-- Node8 -->
<g id="node15" class="node"><title>Node8</title>
<a xlink:href="classRecorderControlWidget.html#ae0b1a4292804b9e9c735486e3a6f21ad" target="_top" xlink:title="RecorderControlWidget::paramsChanged">
<polygon fill="none" stroke="black" points="506.5,-0.5 506.5,-21.5 717.5,-21.5 717.5,-0.5 506.5,-0.5"/>
<text text-anchor="middle" x="612" y="-8.5" font-family="FreeSans.ttf" font-size="10.00">RecorderControlWidget::paramsChanged</text>
</a>
</g>
<!-- Node5&#45;&gt;Node8 -->
<g id="edge14" class="edge"><title>Node5&#45;&gt;Node8</title>
<path fill="none" stroke="midnightblue" d="M410.951,-50.4402C438.885,-44.5914 474.351,-37.2593 506,-31 518.737,-28.481 532.349,-25.8596 545.428,-23.376"/>
<polygon fill="midnightblue" stroke="midnightblue" points="546.128,-26.8058 555.303,-21.5075 544.827,-19.9278 546.128,-26.8058"/>
</g>
</g>
</svg>
        <g id="navigator" transform="translate(0 0)" fill="#404254">
                <rect fill="#f2f5e9" fill-opacity="0.5" stroke="#606060" stroke-width=".5" x="0" y="0" width="60" height="60"/>
                <use id="zoomplus" xlink:href="#zoomPlus" x="17" y="9" onmousedown="handleZoom(evt,'in')"/>
                <use id="zoomminus" xlink:href="#zoomMin" x="42" y="9" onmousedown="handleZoom(evt,'out')"/>
                <use id="reset" xlink:href="#resetDef" x="30" y="36" onmousedown="handleReset()"/>
                <g id="arrowUp" xlink:href="#dirArrow" transform="translate(30 24)" onmousedown="handlePan(0,-1)">
                  <use xlink:href="#rim" fill="#404040">
                        <set attributeName="fill" to="#808080" begin="arrowUp.mouseover" end="arrowUp.mouseout"/>
                  </use>
                  <path fill="none" stroke="white" stroke-width="1.5" d="M0,-3.0v7 M-2.5,-0.5L0,-3.0L2.5,-0.5"/>
                </g>
                <g id="arrowRight" xlink:href="#dirArrow" transform="rotate(90) translate(36 -43)" onmousedown="handlePan(1,0)">
                  <use xlink:href="#rim" fill="#404040">
                        <set attributeName="fill" to="#808080" begin="arrowRight.mouseover" end="arrowRight.mouseout"/>
                  </use>
                  <path fill="none" stroke="white" stroke-width="1.5" d="M0,-3.0v7 M-2.5,-0.5L0,-3.0L2.5,-0.5"/>
                </g>
                <g id="arrowDown" xlink:href="#dirArrow" transform="rotate(180) translate(-30 -48)" onmousedown="handlePan(0,1)">
                  <use xlink:href="#rim" fill="#404040">
                        <set attributeName="fill" to="#808080" begin="arrowDown.mouseover" end="arrowDown.mouseout"/>
                  </use>
                  <path fill="none" stroke="white" stroke-width="1.5" d="M0,-3.0v7 M-2.5,-0.5L0,-3.0L2.5,-0.5"/>
                </g>
                <g id="arrowLeft" xlink:href="#dirArrow" transform="rotate(270) translate(-36 17)" onmousedown="handlePan(-1,0)">
                  <use xlink:href="#rim" fill="#404040">
                        <set attributeName="fill" to="#808080" begin="arrowLeft.mouseover" end="arrowLeft.mouseout"/>
                  </use>
                  <path fill="none" stroke="white" stroke-width="1.5" d="M0,-3.0v7 M-2.5,-0.5L0,-3.0L2.5,-0.5"/>
                </g>
        </g>
</svg>
