<?xml version="1.0" encoding="UTF-8" standalone="no"?>
<!DOCTYPE svg PUBLIC "-//W3C//DTD SVG 1.1//EN"
 "http://www.w3.org/Graphics/SVG/1.1/DTD/svg11.dtd">
<!-- Generated by graphviz version 2.26.3 (20100126.1600)
 -->
<!-- Title: G Pages: 1 -->
<svg width="370pt" height="110pt"
 viewBox="0.00 0.00 370.00 110.00" xmlns="http://www.w3.org/2000/svg" xmlns:xlink="http://www.w3.org/1999/xlink">
<g id="graph1" class="graph" transform="scale(1 1) rotate(0) translate(4 106)">
<title>G</title>
<!-- Node1 -->
<g id="node1" class="node"><title>Node1</title>
<polygon fill="#bfbfbf" stroke="black" points="0,-40.5 0,-61.5 138,-61.5 138,-40.5 0,-40.5"/>
<text text-anchor="middle" x="69" y="-48.5" font-family="FreeSans.ttf" font-size="10.00">corecvs::RAWLoader::load</text>
</g>
<!-- Node2 -->
<g id="node3" class="node"><title>Node2</title>
<a xlink:href="classcorecvs_1_1AbstractBuffer.html#a98f72526738a0c4ce8a0b72a3b5c28b9" target="_top" xlink:title="The element getter.">
<polygon fill="none" stroke="black" points="181,-80.5 181,-101.5 355,-101.5 355,-80.5 181,-80.5"/>
<text text-anchor="middle" x="268" y="-88.5" font-family="FreeSans.ttf" font-size="10.00">corecvs::AbstractBuffer::element</text>
</a>
</g>
<!-- Node1&#45;&gt;Node2 -->
<g id="edge2" class="edge"><title>Node1&#45;&gt;Node2</title>
<path fill="none" stroke="midnightblue" d="M121.285,-61.5095C147.119,-66.7023 178.482,-73.0064 205.568,-78.4508"/>
<polygon fill="midnightblue" stroke="midnightblue" points="205.225,-81.9519 215.719,-80.4913 206.605,-75.0892 205.225,-81.9519"/>
</g>
<!-- Node3 -->
<g id="node5" class="node"><title>Node3</title>
<a xlink:href="classcorecvs_1_1RAWLoader.html#acf36aeb7778f8eb12835423a96b64224" target="_top" xlink:title="corecvs::RAWLoader::transform">
<polygon fill="none" stroke="black" points="185.5,-40.5 185.5,-61.5 350.5,-61.5 350.5,-40.5 185.5,-40.5"/>
<text text-anchor="middle" x="268" y="-48.5" font-family="FreeSans.ttf" font-size="10.00">corecvs::RAWLoader::transform</text>
</a>
</g>
<!-- Node1&#45;&gt;Node3 -->
<g id="edge4" class="edge"><title>Node1&#45;&gt;Node3</title>
<path fill="none" stroke="midnightblue" d="M138.042,-51C150.089,-51 162.795,-51 175.354,-51"/>
<polygon fill="midnightblue" stroke="midnightblue" points="175.38,-54.5001 185.38,-51 175.38,-47.5001 175.38,-54.5001"/>
</g>
<!-- Node4 -->
<g id="node7" class="node"><title>Node4</title>
<a xlink:href="classcorecvs_1_1RAWLoader.html#aeedc264fcb34d7c900491d4371115ca0" target="_top" xlink:title="corecvs::RAWLoader::typeByParams">
<polygon fill="none" stroke="black" points="174.5,-0.5 174.5,-21.5 361.5,-21.5 361.5,-0.5 174.5,-0.5"/>
<text text-anchor="middle" x="268" y="-8.5" font-family="FreeSans.ttf" font-size="10.00">corecvs::RAWLoader::typeByParams</text>
</a>
</g>
<!-- Node1&#45;&gt;Node4 -->
<g id="edge6" class="edge"><title>Node1&#45;&gt;Node4</title>
<path fill="none" stroke="midnightblue" d="M121.285,-40.4905C147.119,-35.2977 178.482,-28.9936 205.568,-23.5492"/>
<polygon fill="midnightblue" stroke="midnightblue" points="206.605,-26.9108 215.719,-21.5087 205.225,-20.0481 206.605,-26.9108"/>
</g>
</g>
</svg>
