<?xml version="1.0" encoding="UTF-8" standalone="no"?>
<!DOCTYPE svg PUBLIC "-//W3C//DTD SVG 1.1//EN"
 "http://www.w3.org/Graphics/SVG/1.1/DTD/svg11.dtd">
<!-- Generated by graphviz version 2.26.3 (20100126.1600)
 -->
<!-- Title: G Pages: 1 -->
<svg width="320pt" height="70pt"
 viewBox="0.00 0.00 320.00 70.00" xmlns="http://www.w3.org/2000/svg" xmlns:xlink="http://www.w3.org/1999/xlink">
<g id="graph1" class="graph" transform="scale(1 1) rotate(0) translate(4 66)">
<title>G</title>
<!-- Node1 -->
<g id="node1" class="node"><title>Node1</title>
<polygon fill="#bfbfbf" stroke="black" points="0,-20.5 0,-41.5 162,-41.5 162,-20.5 0,-20.5"/>
<text text-anchor="middle" x="81" y="-28.5" font-family="FreeSans.ttf" font-size="10.00">Triangulation::Point::operator&gt;</text>
</g>
<!-- Node2 -->
<g id="node3" class="node"><title>Node2</title>
<a xlink:href="classcorecvs_1_1Vector2d.html#a944721c41f044c1388d9dc42ca899bce" target="_top" xlink:title="corecvs::Vector2d::x">
<polygon fill="none" stroke="black" points="198.5,-40.5 198.5,-61.5 311.5,-61.5 311.5,-40.5 198.5,-40.5"/>
<text text-anchor="middle" x="255" y="-48.5" font-family="FreeSans.ttf" font-size="10.00">corecvs::Vector2d::x</text>
</a>
</g>
<!-- Node1&#45;&gt;Node2 -->
<g id="edge2" class="edge"><title>Node1&#45;&gt;Node2</title>
<path fill="none" stroke="midnightblue" d="M162.142,-40.3266C170.834,-41.3257 179.605,-42.3339 188.104,-43.3109"/>
<polygon fill="midnightblue" stroke="midnightblue" points="187.98,-46.8195 198.315,-44.4844 188.78,-39.8653 187.98,-46.8195"/>
</g>
<!-- Node3 -->
<g id="node5" class="node"><title>Node3</title>
<a xlink:href="classcorecvs_1_1Vector2d.html#ae1ea2ad4c0821001408bf963cffa8413" target="_top" xlink:title="corecvs::Vector2d::y">
<polygon fill="none" stroke="black" points="198.5,-0.5 198.5,-21.5 311.5,-21.5 311.5,-0.5 198.5,-0.5"/>
<text text-anchor="middle" x="255" y="-8.5" font-family="FreeSans.ttf" font-size="10.00">corecvs::Vector2d::y</text>
</a>
</g>
<!-- Node1&#45;&gt;Node3 -->
<g id="edge4" class="edge"><title>Node1&#45;&gt;Node3</title>
<path fill="none" stroke="midnightblue" d="M162.142,-21.6734C170.834,-20.6743 179.605,-19.6661 188.104,-18.6891"/>
<polygon fill="midnightblue" stroke="midnightblue" points="188.78,-22.1347 198.315,-17.5156 187.98,-15.1805 188.78,-22.1347"/>
</g>
</g>
</svg>
