<?xml version="1.0" encoding="UTF-8" standalone="no"?>
<!DOCTYPE svg PUBLIC "-//W3C//DTD SVG 1.1//EN"
 "http://www.w3.org/Graphics/SVG/1.1/DTD/svg11.dtd">
<!-- Generated by graphviz version 2.26.3 (20100126.1600)
 -->
<!-- Title: G Pages: 1 -->
<!--zoomable 270 -->
<svg id="main" version="1.1" xmlns="http://www.w3.org/2000/svg" xmlns:xlink="http://www.w3.org/1999/xlink" xml:space="preserve" onload="init(evt)">
        <defs>
                <circle id="rim" cx="0" cy="0" r="7"/>
                <circle id="rim2" cx="0" cy="0" r="3.5"/>
                <g id="zoomPlus">
                        <use xlink:href="#rim" fill="#404040">
                                <set attributeName="fill" to="#808080" begin="zoomplus.mouseover" end="zoomplus.mouseout"/>
                        </use>
                        <path d="M-4,0h8M0,-4v8" fill="none" stroke="white" stroke-width="1.5" pointer-events="none"/>
                </g>
                <g id="zoomMin">
                        <use xlink:href="#rim" fill="#404040">
                                <set attributeName="fill" to="#808080" begin="zoomminus.mouseover" end="zoomminus.mouseout"/>
                        </use>
                        <path d="M-4,0h8" fill="none" stroke="white" stroke-width="1.5" pointer-events="none"/>
                </g>
                <g id="dirArrow">
                        <path fill="none" stroke="white" stroke-width="1.5" d="M0,-3.0v7 M-2.5,-0.5L0,-3.0L2.5,-0.5"/>
                </g>
               <g id="resetDef">
                       <use xlink:href="#rim2" fill="#404040">
                               <set attributeName="fill" to="#808080" begin="reset.mouseover" end="reset.mouseout"/>
                       </use>
               </g>
        </defs>

<script type="text/javascript">
var viewWidth = 1256;
var viewHeight = 270;
var sectionId = 'dynsection-2';
</script>
<script xlink:href="svgpan.js"/>
<svg id="graph" class="graph">
<g id="viewport">
<title>G</title>
<!-- Node1 -->
<g id="node1" class="node"><title>Node1</title>
<polygon fill="#bfbfbf" stroke="black" points="0.5,-180.5 0.5,-201.5 209.5,-201.5 209.5,-180.5 0.5,-180.5"/>
<text text-anchor="middle" x="105" y="-188.5" font-family="FreeSans.ttf" font-size="10.00">DiagramScene::mouseDoubleClickEvent</text>
</g>
<!-- Node2 -->
<g id="node3" class="node"><title>Node2</title>
<a xlink:href="classFilterPresentationsCollection.html#a5b57affbe52129334dc4adb3db376835" target="_top" xlink:title="FilterPresentationsCollection::filterIsEdited">
<polygon fill="none" stroke="black" points="250,-200.5 250,-221.5 466,-221.5 466,-200.5 250,-200.5"/>
<text text-anchor="middle" x="358" y="-208.5" font-family="FreeSans.ttf" font-size="10.00">FilterPresentationsCollection::filterIsEdited</text>
</a>
</g>
<!-- Node1&#45;&gt;Node2 -->
<g id="edge2" class="edge"><title>Node1&#45;&gt;Node2</title>
<path fill="none" stroke="midnightblue" d="M209.731,-199.279C219.621,-200.061 229.694,-200.857 239.698,-201.648"/>
<polygon fill="midnightblue" stroke="midnightblue" points="239.425,-205.137 249.669,-202.436 239.976,-198.159 239.425,-205.137"/>
</g>
<!-- Node3 -->
<g id="node5" class="node"><title>Node3</title>
<a xlink:href="classFilterGraphPresentation.html#a4484e7fbb1ffd5a64f224ef844eeed83" target="_top" xlink:title="FilterGraphPresentation::restoreFromGraph">
<polygon fill="none" stroke="black" points="246.5,-160.5 246.5,-181.5 469.5,-181.5 469.5,-160.5 246.5,-160.5"/>
<text text-anchor="middle" x="358" y="-168.5" font-family="FreeSans.ttf" font-size="10.00">FilterGraphPresentation::restoreFromGraph</text>
</a>
</g>
<!-- Node1&#45;&gt;Node3 -->
<g id="edge4" class="edge"><title>Node1&#45;&gt;Node3</title>
<path fill="none" stroke="midnightblue" d="M209.731,-182.721C218.522,-182.026 227.457,-181.32 236.36,-180.616"/>
<polygon fill="midnightblue" stroke="midnightblue" points="236.695,-184.1 246.388,-179.823 236.144,-177.122 236.695,-184.1"/>
</g>
<!-- Node4 -->
<g id="node7" class="node"><title>Node4</title>
<a xlink:href="classFilterPresentationsCollection.html#a79f80f5b9a2545160eff56db2bdba583" target="_top" xlink:title="FilterPresentationsCollection::presentationByName">
<polygon fill="none" stroke="black" points="523,-240.5 523,-261.5 783,-261.5 783,-240.5 523,-240.5"/>
<text text-anchor="middle" x="653" y="-248.5" font-family="FreeSans.ttf" font-size="10.00">FilterPresentationsCollection::presentationByName</text>
</a>
</g>
<!-- Node3&#45;&gt;Node4 -->
<g id="edge6" class="edge"><title>Node3&#45;&gt;Node4</title>
<path fill="none" stroke="midnightblue" d="M448.192,-181.585C455.799,-184.112 463.181,-187.209 470,-191 490.905,-202.621 484.859,-219.816 506,-231 510.08,-233.159 514.309,-235.113 518.647,-236.881"/>
<polygon fill="midnightblue" stroke="midnightblue" points="517.707,-240.265 528.3,-240.461 520.141,-233.702 517.707,-240.265"/>
</g>
<!-- Node5 -->
<g id="node9" class="node"><title>Node5</title>
<a xlink:href="classcorecvs_1_1FiltersCollection.html#a07bead84edfbffcd9e6693ca6f243de9" target="_top" xlink:title="corecvs::FiltersCollection::getRowByName">
<polygon fill="none" stroke="black" points="545.5,-200.5 545.5,-221.5 760.5,-221.5 760.5,-200.5 545.5,-200.5"/>
<text text-anchor="middle" x="653" y="-208.5" font-family="FreeSans.ttf" font-size="10.00">corecvs::FiltersCollection::getRowByName</text>
</a>
</g>
<!-- Node3&#45;&gt;Node5 -->
<g id="edge8" class="edge"><title>Node3&#45;&gt;Node5</title>
<path fill="none" stroke="midnightblue" d="M435.508,-181.51C475.408,-186.92 524.203,-193.536 565.457,-199.13"/>
<polygon fill="midnightblue" stroke="midnightblue" points="565.119,-202.616 575.498,-200.491 566.059,-195.679 565.119,-202.616"/>
</g>
<!-- Node7 -->
<g id="node13" class="node"><title>Node7</title>
<a xlink:href="classFilterParametersControlWidgetBase.html#ad5b8b27fbb1bb733d5ac002b9cc180fe" target="_top" xlink:title="FilterParametersControlWidgetBase::setParametersVirtual">
<polygon fill="none" stroke="black" points="506.5,-160.5 506.5,-181.5 799.5,-181.5 799.5,-160.5 506.5,-160.5"/>
<text text-anchor="middle" x="653" y="-168.5" font-family="FreeSans.ttf" font-size="10.00">FilterParametersControlWidgetBase::setParametersVirtual</text>
</a>
</g>
<!-- Node3&#45;&gt;Node7 -->
<g id="edge12" class="edge"><title>Node3&#45;&gt;Node7</title>
<path fill="none" stroke="midnightblue" d="M469.527,-171C478.299,-171 487.253,-171 496.252,-171"/>
<polygon fill="midnightblue" stroke="midnightblue" points="496.425,-174.5 506.425,-171 496.425,-167.5 496.425,-174.5"/>
</g>
<!-- Node8 -->
<g id="node15" class="node"><title>Node8</title>
<a xlink:href="classFilterGraphPresentation.html#ab58cc579d8c8543c3689bced9d71846a" target="_top" xlink:title="FilterGraphPresentation::graphChangedSlot">
<polygon fill="none" stroke="black" points="541,-120.5 541,-141.5 765,-141.5 765,-120.5 541,-120.5"/>
<text text-anchor="middle" x="653" y="-128.5" font-family="FreeSans.ttf" font-size="10.00">FilterGraphPresentation::graphChangedSlot</text>
</a>
</g>
<!-- Node3&#45;&gt;Node8 -->
<g id="edge14" class="edge"><title>Node3&#45;&gt;Node8</title>
<path fill="none" stroke="midnightblue" d="M435.508,-160.49C475.408,-155.08 524.203,-148.464 565.457,-142.87"/>
<polygon fill="midnightblue" stroke="midnightblue" points="566.059,-146.321 575.498,-141.509 565.119,-139.384 566.059,-146.321"/>
</g>
<!-- Node11 -->
<g id="node21" class="node"><title>Node11</title>
<a xlink:href="classFilterBlockPresentation.html#a8d2fc7d451ae70951066dc6edf5864de" target="_top" xlink:title="*&#45;&#45;&#45;&#45;&#45;&#45;&#45;&#45;&#45;&#45;&#45;&#45;&#45;&#45;&#45;&#45;&#45;&#45;&#45;&#45;&#45;&#45;&#45;&#45;&#45;&#45;&#45;&#45;&#45;&#45;&#45;&#45;&#45;&#45;&#45;&#45;&#45;&#45;&#45;&#45;&#45;&#45;&#45;&#45;&#45;* | | |&lt; &gt;| | Type | |&lt; &gt;| | Name | | &gt;| | | *&#45;&#45;&#45;&#45;&#45;&#45;&#45;&#45;&#45;...">
<polygon fill="none" stroke="black" points="576,-60.5 576,-81.5 730,-81.5 730,-60.5 576,-60.5"/>
<text text-anchor="middle" x="653" y="-68.5" font-family="FreeSans.ttf" font-size="10.00">FilterBlockPresentation::draw</text>
</a>
</g>
<!-- Node3&#45;&gt;Node11 -->
<g id="edge20" class="edge"><title>Node3&#45;&gt;Node11</title>
<path fill="none" stroke="midnightblue" d="M381.51,-160.45C410.431,-147.71 461.209,-126.113 506,-111 536.355,-100.758 570.893,-91.2532 598.861,-84.0809"/>
<polygon fill="midnightblue" stroke="midnightblue" points="600.016,-87.3989 608.848,-81.547 598.295,-80.6139 600.016,-87.3989"/>
</g>
<!-- Node6 -->
<g id="node11" class="node"><title>Node6</title>
<a xlink:href="classcorecvs_1_1FiltersCollection.html#a11dae77aca1656bd1bf8f2dd84831aa2" target="_top" xlink:title="corecvs::FiltersCollection::numberOfFilterTypes">
<polygon fill="none" stroke="black" points="836,-200.5 836,-221.5 1072,-221.5 1072,-200.5 836,-200.5"/>
<text text-anchor="middle" x="954" y="-208.5" font-family="FreeSans.ttf" font-size="10.00">corecvs::FiltersCollection::numberOfFilterTypes</text>
</a>
</g>
<!-- Node5&#45;&gt;Node6 -->
<g id="edge10" class="edge"><title>Node5&#45;&gt;Node6</title>
<path fill="none" stroke="midnightblue" d="M760.818,-211C781.861,-211 804.117,-211 825.747,-211"/>
<polygon fill="midnightblue" stroke="midnightblue" points="825.969,-214.5 835.969,-211 825.969,-207.5 825.969,-214.5"/>
</g>
<!-- Node9 -->
<g id="node17" class="node"><title>Node9</title>
<a xlink:href="classcorecvs_1_1FilterGraph.html#a3ba7f7a7192ad0661728dffbd4316b32" target="_top" xlink:title="corecvs::FilterGraph::serialize">
<polygon fill="none" stroke="black" points="876,-160.5 876,-181.5 1032,-181.5 1032,-160.5 876,-160.5"/>
<text text-anchor="middle" x="954" y="-168.5" font-family="FreeSans.ttf" font-size="10.00">corecvs::FilterGraph::serialize</text>
</a>
</g>
<!-- Node8&#45;&gt;Node9 -->
<g id="edge16" class="edge"><title>Node8&#45;&gt;Node9</title>
<path fill="none" stroke="midnightblue" d="M732.084,-141.51C773.204,-146.974 823.583,-153.669 865.941,-159.298"/>
<polygon fill="midnightblue" stroke="midnightblue" points="865.591,-162.782 875.965,-160.63 866.513,-155.843 865.591,-162.782"/>
</g>
<!-- Node10 -->
<g id="node19" class="node"><title>Node10</title>
<a xlink:href="classFilterGraphPresentation.html#a742e19b33cb16af2bce687a035b12b82" target="_top" xlink:title="FilterGraphPresentation::graphChanged">
<polygon fill="none" stroke="black" points="851,-120.5 851,-141.5 1057,-141.5 1057,-120.5 851,-120.5"/>
<text text-anchor="middle" x="954" y="-128.5" font-family="FreeSans.ttf" font-size="10.00">FilterGraphPresentation::graphChanged</text>
</a>
</g>
<!-- Node8&#45;&gt;Node10 -->
<g id="edge18" class="edge"><title>Node8&#45;&gt;Node10</title>
<path fill="none" stroke="midnightblue" d="M765.081,-131C789.761,-131 815.919,-131 840.649,-131"/>
<polygon fill="midnightblue" stroke="midnightblue" points="840.781,-134.5 850.781,-131 840.781,-127.5 840.781,-134.5"/>
</g>
<!-- Node12 -->
<g id="node23" class="node"><title>Node12</title>
<a xlink:href="classFilterBlockPresentation.html#af6f1626a761a22fb58726093d2cc1fae" target="_top" xlink:title="FilterBlockPresentation::drawBlock">
<polygon fill="none" stroke="black" points="864.5,-80.5 864.5,-101.5 1043.5,-101.5 1043.5,-80.5 864.5,-80.5"/>
<text text-anchor="middle" x="954" y="-88.5" font-family="FreeSans.ttf" font-size="10.00">FilterBlockPresentation::drawBlock</text>
</a>
</g>
<!-- Node11&#45;&gt;Node12 -->
<g id="edge22" class="edge"><title>Node11&#45;&gt;Node12</title>
<path fill="none" stroke="midnightblue" d="M730.124,-76.1245C767.859,-78.6319 813.743,-81.6806 854.123,-84.3637"/>
<polygon fill="midnightblue" stroke="midnightblue" points="854.052,-87.8666 864.262,-85.0374 854.517,-80.882 854.052,-87.8666"/>
</g>
<!-- Node14 -->
<g id="node27" class="node"><title>Node14</title>
<a xlink:href="classFilterBlockPresentation.html#a28ce80ed70461e1b0f584b9a598a5e36" target="_top" xlink:title="FilterBlockPresentation::drawInputPins">
<polygon fill="none" stroke="black" points="855.5,-40.5 855.5,-61.5 1052.5,-61.5 1052.5,-40.5 855.5,-40.5"/>
<text text-anchor="middle" x="954" y="-48.5" font-family="FreeSans.ttf" font-size="10.00">FilterBlockPresentation::drawInputPins</text>
</a>
</g>
<!-- Node11&#45;&gt;Node14 -->
<g id="edge26" class="edge"><title>Node11&#45;&gt;Node14</title>
<path fill="none" stroke="midnightblue" d="M730.124,-65.8755C765.141,-63.5488 807.175,-60.7558 845.316,-58.2215"/>
<polygon fill="midnightblue" stroke="midnightblue" points="845.695,-61.7042 855.441,-57.5488 845.23,-54.7196 845.695,-61.7042"/>
</g>
<!-- Node16 -->
<g id="node31" class="node"><title>Node16</title>
<a xlink:href="classFilterBlockPresentation.html#aaacb34a3720491173b54e709688dbc37" target="_top" xlink:title="FilterBlockPresentation::drawOutputPins">
<polygon fill="none" stroke="black" points="851,-0.5 851,-21.5 1057,-21.5 1057,-0.5 851,-0.5"/>
<text text-anchor="middle" x="954" y="-8.5" font-family="FreeSans.ttf" font-size="10.00">FilterBlockPresentation::drawOutputPins</text>
</a>
</g>
<!-- Node11&#45;&gt;Node16 -->
<g id="edge30" class="edge"><title>Node11&#45;&gt;Node16</title>
<path fill="none" stroke="midnightblue" d="M698.376,-60.4561C735.332,-52.0198 788.909,-40.132 836,-31 849.706,-28.3421 864.346,-25.7017 878.486,-23.2526"/>
<polygon fill="midnightblue" stroke="midnightblue" points="879.408,-26.6456 888.673,-21.5056 878.225,-19.7463 879.408,-26.6456"/>
</g>
<!-- Node13 -->
<g id="node25" class="node"><title>Node13</title>
<a xlink:href="classDiagramScene.html#a48991d2fb5ae136cfefa7489aa3c8b6c" target="_top" xlink:title="DiagramScene::itemColor">
<polygon fill="none" stroke="black" points="1108,-80.5 1108,-101.5 1248,-101.5 1248,-80.5 1108,-80.5"/>
<text text-anchor="middle" x="1178" y="-88.5" font-family="FreeSans.ttf" font-size="10.00">DiagramScene::itemColor</text>
</a>
</g>
<!-- Node12&#45;&gt;Node13 -->
<g id="edge24" class="edge"><title>Node12&#45;&gt;Node13</title>
<path fill="none" stroke="midnightblue" d="M1043.82,-91C1061.62,-91 1080.21,-91 1097.67,-91"/>
<polygon fill="midnightblue" stroke="midnightblue" points="1097.81,-94.5001 1107.81,-91 1097.81,-87.5001 1097.81,-94.5001"/>
</g>
<!-- Node15 -->
<g id="node29" class="node"><title>Node15</title>
<a xlink:href="classDiagramItem.html#a483cb2a13c9035090ef55bfa148fc93c" target="_top" xlink:title="DiagramItem::polygon">
<polygon fill="none" stroke="black" points="1116.5,-20.5 1116.5,-41.5 1239.5,-41.5 1239.5,-20.5 1116.5,-20.5"/>
<text text-anchor="middle" x="1178" y="-28.5" font-family="FreeSans.ttf" font-size="10.00">DiagramItem::polygon</text>
</a>
</g>
<!-- Node14&#45;&gt;Node15 -->
<g id="edge28" class="edge"><title>Node14&#45;&gt;Node15</title>
<path fill="none" stroke="midnightblue" d="M1052.58,-42.1986C1070.56,-40.593 1089.01,-38.9456 1106.04,-37.4252"/>
<polygon fill="midnightblue" stroke="midnightblue" points="1106.79,-40.872 1116.44,-36.4965 1106.17,-33.8997 1106.79,-40.872"/>
</g>
<!-- Node16&#45;&gt;Node15 -->
<g id="edge32" class="edge"><title>Node16&#45;&gt;Node15</title>
<path fill="none" stroke="midnightblue" d="M1057.15,-20.2097C1073.73,-21.6899 1090.56,-23.1932 1106.2,-24.589"/>
<polygon fill="midnightblue" stroke="midnightblue" points="1106.01,-28.0861 1116.28,-25.4894 1106.63,-21.1139 1106.01,-28.0861"/>
</g>
</g>
</svg>
        <g id="navigator" transform="translate(0 0)" fill="#404254">
                <rect fill="#f2f5e9" fill-opacity="0.5" stroke="#606060" stroke-width=".5" x="0" y="0" width="60" height="60"/>
                <use id="zoomplus" xlink:href="#zoomPlus" x="17" y="9" onmousedown="handleZoom(evt,'in')"/>
                <use id="zoomminus" xlink:href="#zoomMin" x="42" y="9" onmousedown="handleZoom(evt,'out')"/>
                <use id="reset" xlink:href="#resetDef" x="30" y="36" onmousedown="handleReset()"/>
                <g id="arrowUp" xlink:href="#dirArrow" transform="translate(30 24)" onmousedown="handlePan(0,-1)">
                  <use xlink:href="#rim" fill="#404040">
                        <set attributeName="fill" to="#808080" begin="arrowUp.mouseover" end="arrowUp.mouseout"/>
                  </use>
                  <path fill="none" stroke="white" stroke-width="1.5" d="M0,-3.0v7 M-2.5,-0.5L0,-3.0L2.5,-0.5"/>
                </g>
                <g id="arrowRight" xlink:href="#dirArrow" transform="rotate(90) translate(36 -43)" onmousedown="handlePan(1,0)">
                  <use xlink:href="#rim" fill="#404040">
                        <set attributeName="fill" to="#808080" begin="arrowRight.mouseover" end="arrowRight.mouseout"/>
                  </use>
                  <path fill="none" stroke="white" stroke-width="1.5" d="M0,-3.0v7 M-2.5,-0.5L0,-3.0L2.5,-0.5"/>
                </g>
                <g id="arrowDown" xlink:href="#dirArrow" transform="rotate(180) translate(-30 -48)" onmousedown="handlePan(0,1)">
                  <use xlink:href="#rim" fill="#404040">
                        <set attributeName="fill" to="#808080" begin="arrowDown.mouseover" end="arrowDown.mouseout"/>
                  </use>
                  <path fill="none" stroke="white" stroke-width="1.5" d="M0,-3.0v7 M-2.5,-0.5L0,-3.0L2.5,-0.5"/>
                </g>
                <g id="arrowLeft" xlink:href="#dirArrow" transform="rotate(270) translate(-36 17)" onmousedown="handlePan(-1,0)">
                  <use xlink:href="#rim" fill="#404040">
                        <set attributeName="fill" to="#808080" begin="arrowLeft.mouseover" end="arrowLeft.mouseout"/>
                  </use>
                  <path fill="none" stroke="white" stroke-width="1.5" d="M0,-3.0v7 M-2.5,-0.5L0,-3.0L2.5,-0.5"/>
                </g>
        </g>
</svg>
