<?xml version="1.0" encoding="UTF-8" standalone="no"?>
<!DOCTYPE svg PUBLIC "-//W3C//DTD SVG 1.1//EN"
 "http://www.w3.org/Graphics/SVG/1.1/DTD/svg11.dtd">
<!-- Generated by graphviz version 2.26.3 (20100126.1600)
 -->
<!-- Title: G Pages: 1 -->
<!--zoomable 110 -->
<svg id="main" version="1.1" xmlns="http://www.w3.org/2000/svg" xmlns:xlink="http://www.w3.org/1999/xlink" xml:space="preserve" onload="init(evt)">
        <defs>
                <circle id="rim" cx="0" cy="0" r="7"/>
                <circle id="rim2" cx="0" cy="0" r="3.5"/>
                <g id="zoomPlus">
                        <use xlink:href="#rim" fill="#404040">
                                <set attributeName="fill" to="#808080" begin="zoomplus.mouseover" end="zoomplus.mouseout"/>
                        </use>
                        <path d="M-4,0h8M0,-4v8" fill="none" stroke="white" stroke-width="1.5" pointer-events="none"/>
                </g>
                <g id="zoomMin">
                        <use xlink:href="#rim" fill="#404040">
                                <set attributeName="fill" to="#808080" begin="zoomminus.mouseover" end="zoomminus.mouseout"/>
                        </use>
                        <path d="M-4,0h8" fill="none" stroke="white" stroke-width="1.5" pointer-events="none"/>
                </g>
                <g id="dirArrow">
                        <path fill="none" stroke="white" stroke-width="1.5" d="M0,-3.0v7 M-2.5,-0.5L0,-3.0L2.5,-0.5"/>
                </g>
               <g id="resetDef">
                       <use xlink:href="#rim2" fill="#404040">
                               <set attributeName="fill" to="#808080" begin="reset.mouseover" end="reset.mouseout"/>
                       </use>
               </g>
        </defs>

<script type="text/javascript">
var viewWidth = 652;
var viewHeight = 110;
var sectionId = 'dynsection-1';
</script>
<script xlink:href="svgpan.js"/>
<svg id="graph" class="graph">
<g id="viewport">
<title>G</title>
<!-- Node1 -->
<g id="node1" class="node"><title>Node1</title>
<polygon fill="#bfbfbf" stroke="black" points="0.5,-40.5 0.5,-61.5 235.5,-61.5 235.5,-40.5 0.5,-40.5"/>
<text text-anchor="middle" x="118" y="-48.5" font-family="FreeSans.ttf" font-size="10.00">corecvs::AxisAlignedBox3d::AxisAlignedBox3d</text>
</g>
<!-- Node2 -->
<g id="node3" class="node"><title>Node2</title>
<a xlink:href="classcorecvs_1_1AxisAlignedBox3d.html#a6feaebd4ee52d8ce78401516765f66ad" target="_top" xlink:title="corecvs::AxisAlignedBox3d::_initByLowHigh">
<polygon fill="none" stroke="black" points="272.5,-40.5 272.5,-61.5 493.5,-61.5 493.5,-40.5 272.5,-40.5"/>
<text text-anchor="middle" x="383" y="-48.5" font-family="FreeSans.ttf" font-size="10.00">corecvs::AxisAlignedBox3d::_initByLowHigh</text>
</a>
</g>
<!-- Node1&#45;&gt;Node2 -->
<g id="edge2" class="edge"><title>Node1&#45;&gt;Node2</title>
<path fill="none" stroke="midnightblue" d="M235.776,-51C244.519,-51 253.349,-51 262.111,-51"/>
<polygon fill="midnightblue" stroke="midnightblue" points="262.355,-54.5001 272.355,-51 262.355,-47.5001 262.355,-54.5001"/>
</g>
<!-- Node3 -->
<g id="node5" class="node"><title>Node3</title>
<a xlink:href="classcorecvs_1_1Vector3d.html#aec83d9ad04107cd9c2bb11abf33128c0" target="_top" xlink:title="Helper functions to access elements.">
<polygon fill="none" stroke="black" points="530.5,-80.5 530.5,-101.5 643.5,-101.5 643.5,-80.5 530.5,-80.5"/>
<text text-anchor="middle" x="587" y="-88.5" font-family="FreeSans.ttf" font-size="10.00">corecvs::Vector3d::x</text>
</a>
</g>
<!-- Node2&#45;&gt;Node3 -->
<g id="edge4" class="edge"><title>Node2&#45;&gt;Node3</title>
<path fill="none" stroke="midnightblue" d="M436.599,-61.5095C463.199,-66.7252 495.516,-73.0619 523.366,-78.5227"/>
<polygon fill="midnightblue" stroke="midnightblue" points="522.919,-82.0017 533.406,-80.4913 524.266,-75.1325 522.919,-82.0017"/>
</g>
<!-- Node4 -->
<g id="node7" class="node"><title>Node4</title>
<a xlink:href="classcorecvs_1_1Vector3d.html#a940d88447f20fac800d1fa510c981275" target="_top" xlink:title="corecvs::Vector3d::y">
<polygon fill="none" stroke="black" points="530.5,-40.5 530.5,-61.5 643.5,-61.5 643.5,-40.5 530.5,-40.5"/>
<text text-anchor="middle" x="587" y="-48.5" font-family="FreeSans.ttf" font-size="10.00">corecvs::Vector3d::y</text>
</a>
</g>
<!-- Node2&#45;&gt;Node4 -->
<g id="edge6" class="edge"><title>Node2&#45;&gt;Node4</title>
<path fill="none" stroke="midnightblue" d="M493.657,-51C502.646,-51 511.546,-51 520.073,-51"/>
<polygon fill="midnightblue" stroke="midnightblue" points="520.27,-54.5001 530.27,-51 520.27,-47.5001 520.27,-54.5001"/>
</g>
<!-- Node5 -->
<g id="node9" class="node"><title>Node5</title>
<a xlink:href="classcorecvs_1_1Vector3d.html#a4587f5d4984576c5c4c2d44a4140ce3f" target="_top" xlink:title="corecvs::Vector3d::z">
<polygon fill="none" stroke="black" points="530.5,-0.5 530.5,-21.5 643.5,-21.5 643.5,-0.5 530.5,-0.5"/>
<text text-anchor="middle" x="587" y="-8.5" font-family="FreeSans.ttf" font-size="10.00">corecvs::Vector3d::z</text>
</a>
</g>
<!-- Node2&#45;&gt;Node5 -->
<g id="edge8" class="edge"><title>Node2&#45;&gt;Node5</title>
<path fill="none" stroke="midnightblue" d="M436.599,-40.4905C463.199,-35.2748 495.516,-28.9381 523.366,-23.4773"/>
<polygon fill="midnightblue" stroke="midnightblue" points="524.266,-26.8675 533.406,-21.5087 522.919,-19.9983 524.266,-26.8675"/>
</g>
</g>
</svg>
        <g id="navigator" transform="translate(0 0)" fill="#404254">
                <rect fill="#f2f5e9" fill-opacity="0.5" stroke="#606060" stroke-width=".5" x="0" y="0" width="60" height="60"/>
                <use id="zoomplus" xlink:href="#zoomPlus" x="17" y="9" onmousedown="handleZoom(evt,'in')"/>
                <use id="zoomminus" xlink:href="#zoomMin" x="42" y="9" onmousedown="handleZoom(evt,'out')"/>
                <use id="reset" xlink:href="#resetDef" x="30" y="36" onmousedown="handleReset()"/>
                <g id="arrowUp" xlink:href="#dirArrow" transform="translate(30 24)" onmousedown="handlePan(0,-1)">
                  <use xlink:href="#rim" fill="#404040">
                        <set attributeName="fill" to="#808080" begin="arrowUp.mouseover" end="arrowUp.mouseout"/>
                  </use>
                  <path fill="none" stroke="white" stroke-width="1.5" d="M0,-3.0v7 M-2.5,-0.5L0,-3.0L2.5,-0.5"/>
                </g>
                <g id="arrowRight" xlink:href="#dirArrow" transform="rotate(90) translate(36 -43)" onmousedown="handlePan(1,0)">
                  <use xlink:href="#rim" fill="#404040">
                        <set attributeName="fill" to="#808080" begin="arrowRight.mouseover" end="arrowRight.mouseout"/>
                  </use>
                  <path fill="none" stroke="white" stroke-width="1.5" d="M0,-3.0v7 M-2.5,-0.5L0,-3.0L2.5,-0.5"/>
                </g>
                <g id="arrowDown" xlink:href="#dirArrow" transform="rotate(180) translate(-30 -48)" onmousedown="handlePan(0,1)">
                  <use xlink:href="#rim" fill="#404040">
                        <set attributeName="fill" to="#808080" begin="arrowDown.mouseover" end="arrowDown.mouseout"/>
                  </use>
                  <path fill="none" stroke="white" stroke-width="1.5" d="M0,-3.0v7 M-2.5,-0.5L0,-3.0L2.5,-0.5"/>
                </g>
                <g id="arrowLeft" xlink:href="#dirArrow" transform="rotate(270) translate(-36 17)" onmousedown="handlePan(-1,0)">
                  <use xlink:href="#rim" fill="#404040">
                        <set attributeName="fill" to="#808080" begin="arrowLeft.mouseover" end="arrowLeft.mouseout"/>
                  </use>
                  <path fill="none" stroke="white" stroke-width="1.5" d="M0,-3.0v7 M-2.5,-0.5L0,-3.0L2.5,-0.5"/>
                </g>
        </g>
</svg>
