<?xml version="1.0" encoding="UTF-8" standalone="no"?>
<!DOCTYPE svg PUBLIC "-//W3C//DTD SVG 1.1//EN"
 "http://www.w3.org/Graphics/SVG/1.1/DTD/svg11.dtd">
<!-- Generated by graphviz version 2.26.3 (20100126.1600)
 -->
<!-- Title: G Pages: 1 -->
<svg width="263pt" height="246pt"
 viewBox="0.00 0.00 263.00 246.00" xmlns="http://www.w3.org/2000/svg" xmlns:xlink="http://www.w3.org/1999/xlink">
<g id="graph1" class="graph" transform="scale(1 1) rotate(0) translate(4 242)">
<title>G</title>
<!-- Node1 -->
<g id="node1" class="node"><title>Node1</title>
<polygon fill="#bfbfbf" stroke="black" points="43.5,-0.5 43.5,-21.5 140.5,-21.5 140.5,-0.5 43.5,-0.5"/>
<text text-anchor="middle" x="92" y="-8.5" font-family="FreeSans.ttf" font-size="10.00">BaseOutputData</text>
</g>
<!-- Node2 -->
<g id="node2" class="node"><title>Node2</title>
<a xlink:href="classAbstractOutputData.html" target="_top" xlink:title="An empty stub for the output data obtained as the result of the calculation.">
<polygon fill="none" stroke="black" points="-0.5,-72.5 -0.5,-93.5 112.5,-93.5 112.5,-72.5 -0.5,-72.5"/>
<text text-anchor="middle" x="56" y="-80.5" font-family="FreeSans.ttf" font-size="10.00">AbstractOutputData</text>
</a>
</g>
<!-- Node2&#45;&gt;Node1 -->
<g id="edge2" class="edge"><title>Node2&#45;&gt;Node1</title>
<path fill="none" stroke="midnightblue" d="M65.7903,-63.4193C72.5133,-49.9734 81.1808,-32.6384 86.6663,-21.6674"/>
<polygon fill="midnightblue" stroke="midnightblue" points="62.6536,-61.8666 61.3119,-72.3762 68.9146,-64.9971 62.6536,-61.8666"/>
</g>
<!-- Node3 -->
<g id="node4" class="node"><title>Node3</title>
<a xlink:href="classResultImage.html" target="_top" xlink:title="ResultImage">
<polygon fill="none" stroke="black" points="129.5,-72.5 129.5,-93.5 204.5,-93.5 204.5,-72.5 129.5,-72.5"/>
<text text-anchor="middle" x="167" y="-80.5" font-family="FreeSans.ttf" font-size="10.00">ResultImage</text>
</a>
</g>
<!-- Node3&#45;&gt;Node1 -->
<g id="edge4" class="edge"><title>Node3&#45;&gt;Node1</title>
<path fill="none" stroke="#9a32cd" stroke-dasharray="5,2" d="M148.613,-65.3488C134.366,-51.6714 115.095,-33.1709 103.112,-21.6674"/>
<polygon fill="#9a32cd" stroke="#9a32cd" points="146.296,-67.9757 155.933,-72.3762 151.143,-62.9259 146.296,-67.9757"/>
<text text-anchor="middle" x="169" y="-44.5" font-family="FreeSans.ttf" font-size="10.00"> mMainImage</text>
</g>
<!-- Node4 -->
<g id="node6" class="node"><title>Node4</title>
<polygon fill="none" stroke="#bfbfbf" points="78.5,-144.5 78.5,-165.5 255.5,-165.5 255.5,-144.5 78.5,-144.5"/>
<text text-anchor="middle" x="167" y="-152.5" font-family="FreeSans.ttf" font-size="10.00">std::vector&lt; ResultLayerBase * &gt;</text>
</g>
<!-- Node4&#45;&gt;Node3 -->
<g id="edge6" class="edge"><title>Node4&#45;&gt;Node3</title>
<path fill="none" stroke="#9a32cd" stroke-dasharray="5,2" d="M167,-134.235C167,-120.969 167,-104.319 167,-93.6674"/>
<polygon fill="#9a32cd" stroke="#9a32cd" points="163.5,-134.376 167,-144.376 170.5,-134.376 163.5,-134.376"/>
<text text-anchor="middle" x="189.5" y="-116.5" font-family="FreeSans.ttf" font-size="10.00"> mLayers</text>
</g>
<!-- Node5 -->
<g id="node8" class="node"><title>Node5</title>
<a xlink:href="classResultLayerBase.html" target="_top" xlink:title="ResultLayerBase">
<polygon fill="none" stroke="black" points="119.5,-216.5 119.5,-237.5 214.5,-237.5 214.5,-216.5 119.5,-216.5"/>
<text text-anchor="middle" x="167" y="-224.5" font-family="FreeSans.ttf" font-size="10.00">ResultLayerBase</text>
</a>
</g>
<!-- Node5&#45;&gt;Node4 -->
<g id="edge8" class="edge"><title>Node5&#45;&gt;Node4</title>
<path fill="none" stroke="#9a32cd" stroke-dasharray="5,2" d="M167,-206.235C167,-192.969 167,-176.319 167,-165.667"/>
<polygon fill="#9a32cd" stroke="#9a32cd" points="163.5,-206.376 167,-216.376 170.5,-206.376 163.5,-206.376"/>
<text text-anchor="middle" x="191.5" y="-188.5" font-family="FreeSans.ttf" font-size="10.00"> elements</text>
</g>
</g>
</svg>
