<?xml version="1.0" encoding="UTF-8" standalone="no"?>
<!DOCTYPE svg PUBLIC "-//W3C//DTD SVG 1.1//EN"
 "http://www.w3.org/Graphics/SVG/1.1/DTD/svg11.dtd">
<!-- Generated by graphviz version 2.26.3 (20100126.1600)
 -->
<!-- Title: G Pages: 1 -->
<svg width="328pt" height="70pt"
 viewBox="0.00 0.00 328.00 70.00" xmlns="http://www.w3.org/2000/svg" xmlns:xlink="http://www.w3.org/1999/xlink">
<g id="graph1" class="graph" transform="scale(1 1) rotate(0) translate(4 66)">
<title>G</title>
<!-- Node1 -->
<g id="node1" class="node"><title>Node1</title>
<polygon fill="#bfbfbf" stroke="black" points="0,-20.5 0,-41.5 152,-41.5 152,-20.5 0,-20.5"/>
<text text-anchor="middle" x="76" y="-28.5" font-family="FreeSans.ttf" font-size="10.00">corecvs::Line2d::pointWeight</text>
</g>
<!-- Node2 -->
<g id="node3" class="node"><title>Node2</title>
<a xlink:href="classcorecvs_1_1Line2d.html#a04ce9e0c5d9195027ec0fcc8093b8289" target="_top" xlink:title="corecvs::Line2d::last">
<polygon fill="none" stroke="black" points="197,-40.5 197,-61.5 311,-61.5 311,-40.5 197,-40.5"/>
<text text-anchor="middle" x="254" y="-48.5" font-family="FreeSans.ttf" font-size="10.00">corecvs::Line2d::last</text>
</a>
</g>
<!-- Node1&#45;&gt;Node2 -->
<g id="edge2" class="edge"><title>Node1&#45;&gt;Node2</title>
<path fill="none" stroke="midnightblue" d="M152.004,-39.5398C163.507,-40.8323 175.306,-42.158 186.61,-43.4281"/>
<polygon fill="midnightblue" stroke="midnightblue" points="186.501,-46.9378 196.829,-44.5763 187.283,-39.9816 186.501,-46.9378"/>
</g>
<!-- Node3 -->
<g id="node5" class="node"><title>Node3</title>
<a xlink:href="classcorecvs_1_1Line2d.html#af2129b77f7bfa024b387a8d958deb1b3" target="_top" xlink:title="corecvs::Line2d::normal">
<polygon fill="none" stroke="black" points="188.5,-0.5 188.5,-21.5 319.5,-21.5 319.5,-0.5 188.5,-0.5"/>
<text text-anchor="middle" x="254" y="-8.5" font-family="FreeSans.ttf" font-size="10.00">corecvs::Line2d::normal</text>
</a>
</g>
<!-- Node1&#45;&gt;Node3 -->
<g id="edge4" class="edge"><title>Node1&#45;&gt;Node3</title>
<path fill="none" stroke="midnightblue" d="M152.004,-22.4602C160.698,-21.4834 169.56,-20.4877 178.25,-19.5113"/>
<polygon fill="midnightblue" stroke="midnightblue" points="178.805,-22.971 188.351,-18.3762 178.023,-16.0148 178.805,-22.971"/>
</g>
</g>
</svg>
