<?xml version="1.0" encoding="UTF-8" standalone="no"?>
<!DOCTYPE svg PUBLIC "-//W3C//DTD SVG 1.1//EN"
 "http://www.w3.org/Graphics/SVG/1.1/DTD/svg11.dtd">
<!-- Generated by graphviz version 2.26.3 (20100126.1600)
 -->
<!-- Title: G Pages: 1 -->
<!--zoomable 220 -->
<svg id="main" version="1.1" xmlns="http://www.w3.org/2000/svg" xmlns:xlink="http://www.w3.org/1999/xlink" xml:space="preserve" onload="init(evt)">
        <defs>
                <circle id="rim" cx="0" cy="0" r="7"/>
                <circle id="rim2" cx="0" cy="0" r="3.5"/>
                <g id="zoomPlus">
                        <use xlink:href="#rim" fill="#404040">
                                <set attributeName="fill" to="#808080" begin="zoomplus.mouseover" end="zoomplus.mouseout"/>
                        </use>
                        <path d="M-4,0h8M0,-4v8" fill="none" stroke="white" stroke-width="1.5" pointer-events="none"/>
                </g>
                <g id="zoomMin">
                        <use xlink:href="#rim" fill="#404040">
                                <set attributeName="fill" to="#808080" begin="zoomminus.mouseover" end="zoomminus.mouseout"/>
                        </use>
                        <path d="M-4,0h8" fill="none" stroke="white" stroke-width="1.5" pointer-events="none"/>
                </g>
                <g id="dirArrow">
                        <path fill="none" stroke="white" stroke-width="1.5" d="M0,-3.0v7 M-2.5,-0.5L0,-3.0L2.5,-0.5"/>
                </g>
               <g id="resetDef">
                       <use xlink:href="#rim2" fill="#404040">
                               <set attributeName="fill" to="#808080" begin="reset.mouseover" end="reset.mouseout"/>
                       </use>
               </g>
        </defs>

<script type="text/javascript">
var viewWidth = 802;
var viewHeight = 220;
var sectionId = 'dynsection-2';
</script>
<script xlink:href="svgpan.js"/>
<svg id="graph" class="graph">
<g id="viewport">
<title>G</title>
<!-- Node1 -->
<g id="node1" class="node"><title>Node1</title>
<polygon fill="#bfbfbf" stroke="black" points="0,-98.5 0,-119.5 188,-119.5 188,-98.5 0,-98.5"/>
<text text-anchor="middle" x="94" y="-106.5" font-family="FreeSans.ttf" font-size="10.00">corecvs::AngleFunction::getJacobian</text>
</g>
<!-- Node2 -->
<g id="node3" class="node"><title>Node2</title>
<a xlink:href="classcorecvs_1_1Matrix.html#a5b8b00c8bfc66549652e6c0610457254" target="_top" xlink:title="The element getter for a matrix that is used like vector (i.e has height or width of 1)...">
<polygon fill="none" stroke="black" points="476.5,-190.5 476.5,-211.5 577.5,-211.5 577.5,-190.5 476.5,-190.5"/>
<text text-anchor="middle" x="527" y="-198.5" font-family="FreeSans.ttf" font-size="10.00">corecvs::Matrix::a</text>
</a>
</g>
<!-- Node1&#45;&gt;Node2 -->
<g id="edge2" class="edge"><title>Node1&#45;&gt;Node2</title>
<path fill="none" stroke="midnightblue" d="M106.618,-119.558C128.725,-137.334 176.631,-172.694 224,-187 305.18,-211.517 404.124,-210.729 466.361,-206.771"/>
<polygon fill="midnightblue" stroke="midnightblue" points="466.667,-210.258 476.405,-206.084 466.189,-203.275 466.667,-210.258"/>
</g>
<!-- Node4 -->
<g id="node7" class="node"><title>Node4</title>
<a xlink:href="classcorecvs_1_1RadialFunc.html#a95530244ae792882fab31ace40fb45b6" target="_top" xlink:title="This function computes Jacobian .">
<polygon fill="none" stroke="black" points="243.5,-156.5 243.5,-177.5 414.5,-177.5 414.5,-156.5 243.5,-156.5"/>
<text text-anchor="middle" x="329" y="-164.5" font-family="FreeSans.ttf" font-size="10.00">corecvs::RadialFunc::getJacobian</text>
</a>
</g>
<!-- Node1&#45;&gt;Node4 -->
<g id="edge6" class="edge"><title>Node1&#45;&gt;Node4</title>
<path fill="none" stroke="midnightblue" d="M134.946,-119.56C160.523,-126.115 194.153,-134.659 224,-142 240.274,-146.003 257.993,-150.26 274.161,-154.106"/>
<polygon fill="midnightblue" stroke="midnightblue" points="273.462,-157.537 284,-156.441 275.079,-150.726 273.462,-157.537"/>
</g>
<!-- Node5 -->
<g id="node9" class="node"><title>Node5</title>
<a xlink:href="classcorecvs_1_1Vector2d.html#a944721c41f044c1388d9dc42ca899bce" target="_top" xlink:title="corecvs::Vector2d::x">
<polygon fill="none" stroke="black" points="470.5,-146.5 470.5,-167.5 583.5,-167.5 583.5,-146.5 470.5,-146.5"/>
<text text-anchor="middle" x="527" y="-154.5" font-family="FreeSans.ttf" font-size="10.00">corecvs::Vector2d::x</text>
</a>
</g>
<!-- Node1&#45;&gt;Node5 -->
<g id="edge18" class="edge"><title>Node1&#45;&gt;Node5</title>
<path fill="none" stroke="midnightblue" d="M188.221,-119.445C270.434,-128.558 387.648,-141.552 460.435,-149.621"/>
<polygon fill="midnightblue" stroke="midnightblue" points="460.078,-153.103 470.402,-150.726 460.849,-146.145 460.078,-153.103"/>
</g>
<!-- Node6 -->
<g id="node11" class="node"><title>Node6</title>
<a xlink:href="classcorecvs_1_1Vector2d.html#ae1ea2ad4c0821001408bf963cffa8413" target="_top" xlink:title="corecvs::Vector2d::y">
<polygon fill="none" stroke="black" points="470.5,-97.5 470.5,-118.5 583.5,-118.5 583.5,-97.5 470.5,-97.5"/>
<text text-anchor="middle" x="527" y="-105.5" font-family="FreeSans.ttf" font-size="10.00">corecvs::Vector2d::y</text>
</a>
</g>
<!-- Node1&#45;&gt;Node6 -->
<g id="edge20" class="edge"><title>Node1&#45;&gt;Node6</title>
<path fill="none" stroke="midnightblue" d="M188.221,-108.782C270.266,-108.593 387.169,-108.323 459.988,-108.155"/>
<polygon fill="midnightblue" stroke="midnightblue" points="460.411,-111.654 470.402,-108.131 460.394,-104.654 460.411,-111.654"/>
</g>
<!-- Node7 -->
<g id="node14" class="node"><title>Node7</title>
<a xlink:href="classcorecvs_1_1VectorOperationsBase.html#acfcd4bcc60d1d076b00afcfeba9f9e8b" target="_top" xlink:title="Euclidean distance.">
<polygon fill="none" stroke="black" points="224,-40.5 224,-61.5 434,-61.5 434,-40.5 224,-40.5"/>
<text text-anchor="middle" x="329" y="-48.5" font-family="FreeSans.ttf" font-size="10.00">corecvs::VectorOperationsBase::l2Metric</text>
</a>
</g>
<!-- Node1&#45;&gt;Node7 -->
<g id="edge14" class="edge"><title>Node1&#45;&gt;Node7</title>
<path fill="none" stroke="midnightblue" d="M134.946,-98.4402C160.523,-91.8853 194.153,-83.3411 224,-76 240.274,-71.9972 257.993,-67.7399 274.161,-63.8944"/>
<polygon fill="midnightblue" stroke="midnightblue" points="275.079,-67.2739 284,-61.5593 273.462,-60.4631 275.079,-67.2739"/>
</g>
<!-- Node8 -->
<g id="node16" class="node"><title>Node8</title>
<a xlink:href="classcorecvs_1_1RadialFunc.html#afd47a6964dd164ec73bda3fb42433596" target="_top" xlink:title="corecvs::RadialFunc::setScaleFactor">
<polygon fill="none" stroke="black" points="236,-0.5 236,-21.5 422,-21.5 422,-0.5 236,-0.5"/>
<text text-anchor="middle" x="329" y="-8.5" font-family="FreeSans.ttf" font-size="10.00">corecvs::RadialFunc::setScaleFactor</text>
</a>
</g>
<!-- Node1&#45;&gt;Node8 -->
<g id="edge16" class="edge"><title>Node1&#45;&gt;Node8</title>
<path fill="none" stroke="midnightblue" d="M107.953,-98.3324C130.873,-81.3578 178.503,-48.3498 224,-31 230.992,-28.3335 238.388,-26.0107 245.885,-23.9897"/>
<polygon fill="midnightblue" stroke="midnightblue" points="246.93,-27.3359 255.775,-21.503 245.223,-20.5472 246.93,-27.3359"/>
</g>
<!-- Node3 -->
<g id="node5" class="node"><title>Node3</title>
<a xlink:href="classcorecvs_1_1AbstractBuffer.html#a98f72526738a0c4ce8a0b72a3b5c28b9" target="_top" xlink:title="The element getter.">
<polygon fill="none" stroke="black" points="620,-190.5 620,-211.5 794,-211.5 794,-190.5 620,-190.5"/>
<text text-anchor="middle" x="707" y="-198.5" font-family="FreeSans.ttf" font-size="10.00">corecvs::AbstractBuffer::element</text>
</a>
</g>
<!-- Node2&#45;&gt;Node3 -->
<g id="edge4" class="edge"><title>Node2&#45;&gt;Node3</title>
<path fill="none" stroke="midnightblue" d="M577.619,-201C587.73,-201 598.667,-201 609.751,-201"/>
<polygon fill="midnightblue" stroke="midnightblue" points="609.952,-204.5 619.952,-201 609.952,-197.5 609.952,-204.5"/>
</g>
<!-- Node4&#45;&gt;Node2 -->
<g id="edge12" class="edge"><title>Node4&#45;&gt;Node2</title>
<path fill="none" stroke="midnightblue" d="M390.292,-177.525C414.441,-181.672 442.11,-186.423 466.209,-190.561"/>
<polygon fill="midnightblue" stroke="midnightblue" points="465.851,-194.051 476.299,-192.294 467.035,-187.152 465.851,-194.051"/>
</g>
<!-- Node4&#45;&gt;Node5 -->
<g id="edge8" class="edge"><title>Node4&#45;&gt;Node5</title>
<path fill="none" stroke="midnightblue" d="M414.694,-162.672C429.832,-161.907 445.394,-161.122 459.927,-160.388"/>
<polygon fill="midnightblue" stroke="midnightblue" points="460.496,-163.863 470.307,-159.863 460.143,-156.872 460.496,-163.863"/>
</g>
<!-- Node4&#45;&gt;Node6 -->
<g id="edge10" class="edge"><title>Node4&#45;&gt;Node6</title>
<path fill="none" stroke="midnightblue" d="M364.398,-156.452C397.239,-146.666 446.273,-132.055 481.905,-121.437"/>
<polygon fill="midnightblue" stroke="midnightblue" points="482.991,-124.766 491.575,-118.556 480.992,-118.058 482.991,-124.766"/>
</g>
</g>
</svg>
        <g id="navigator" transform="translate(0 0)" fill="#404254">
                <rect fill="#f2f5e9" fill-opacity="0.5" stroke="#606060" stroke-width=".5" x="0" y="0" width="60" height="60"/>
                <use id="zoomplus" xlink:href="#zoomPlus" x="17" y="9" onmousedown="handleZoom(evt,'in')"/>
                <use id="zoomminus" xlink:href="#zoomMin" x="42" y="9" onmousedown="handleZoom(evt,'out')"/>
                <use id="reset" xlink:href="#resetDef" x="30" y="36" onmousedown="handleReset()"/>
                <g id="arrowUp" xlink:href="#dirArrow" transform="translate(30 24)" onmousedown="handlePan(0,-1)">
                  <use xlink:href="#rim" fill="#404040">
                        <set attributeName="fill" to="#808080" begin="arrowUp.mouseover" end="arrowUp.mouseout"/>
                  </use>
                  <path fill="none" stroke="white" stroke-width="1.5" d="M0,-3.0v7 M-2.5,-0.5L0,-3.0L2.5,-0.5"/>
                </g>
                <g id="arrowRight" xlink:href="#dirArrow" transform="rotate(90) translate(36 -43)" onmousedown="handlePan(1,0)">
                  <use xlink:href="#rim" fill="#404040">
                        <set attributeName="fill" to="#808080" begin="arrowRight.mouseover" end="arrowRight.mouseout"/>
                  </use>
                  <path fill="none" stroke="white" stroke-width="1.5" d="M0,-3.0v7 M-2.5,-0.5L0,-3.0L2.5,-0.5"/>
                </g>
                <g id="arrowDown" xlink:href="#dirArrow" transform="rotate(180) translate(-30 -48)" onmousedown="handlePan(0,1)">
                  <use xlink:href="#rim" fill="#404040">
                        <set attributeName="fill" to="#808080" begin="arrowDown.mouseover" end="arrowDown.mouseout"/>
                  </use>
                  <path fill="none" stroke="white" stroke-width="1.5" d="M0,-3.0v7 M-2.5,-0.5L0,-3.0L2.5,-0.5"/>
                </g>
                <g id="arrowLeft" xlink:href="#dirArrow" transform="rotate(270) translate(-36 17)" onmousedown="handlePan(-1,0)">
                  <use xlink:href="#rim" fill="#404040">
                        <set attributeName="fill" to="#808080" begin="arrowLeft.mouseover" end="arrowLeft.mouseout"/>
                  </use>
                  <path fill="none" stroke="white" stroke-width="1.5" d="M0,-3.0v7 M-2.5,-0.5L0,-3.0L2.5,-0.5"/>
                </g>
        </g>
</svg>
