<?xml version="1.0" encoding="UTF-8" standalone="no"?>
<!DOCTYPE svg PUBLIC "-//W3C//DTD SVG 1.1//EN"
 "http://www.w3.org/Graphics/SVG/1.1/DTD/svg11.dtd">
<!-- Generated by graphviz version 2.26.3 (20100126.1600)
 -->
<!-- Title: G Pages: 1 -->
<!--zoomable 110 -->
<svg id="main" version="1.1" xmlns="http://www.w3.org/2000/svg" xmlns:xlink="http://www.w3.org/1999/xlink" xml:space="preserve" onload="init(evt)">
        <defs>
                <circle id="rim" cx="0" cy="0" r="7"/>
                <circle id="rim2" cx="0" cy="0" r="3.5"/>
                <g id="zoomPlus">
                        <use xlink:href="#rim" fill="#404040">
                                <set attributeName="fill" to="#808080" begin="zoomplus.mouseover" end="zoomplus.mouseout"/>
                        </use>
                        <path d="M-4,0h8M0,-4v8" fill="none" stroke="white" stroke-width="1.5" pointer-events="none"/>
                </g>
                <g id="zoomMin">
                        <use xlink:href="#rim" fill="#404040">
                                <set attributeName="fill" to="#808080" begin="zoomminus.mouseover" end="zoomminus.mouseout"/>
                        </use>
                        <path d="M-4,0h8" fill="none" stroke="white" stroke-width="1.5" pointer-events="none"/>
                </g>
                <g id="dirArrow">
                        <path fill="none" stroke="white" stroke-width="1.5" d="M0,-3.0v7 M-2.5,-0.5L0,-3.0L2.5,-0.5"/>
                </g>
               <g id="resetDef">
                       <use xlink:href="#rim2" fill="#404040">
                               <set attributeName="fill" to="#808080" begin="reset.mouseover" end="reset.mouseout"/>
                       </use>
               </g>
        </defs>

<script type="text/javascript">
var viewWidth = 910;
var viewHeight = 110;
var sectionId = 'dynsection-1';
</script>
<script xlink:href="svgpan.js"/>
<svg id="graph" class="graph">
<g id="viewport">
<title>G</title>
<!-- Node1 -->
<g id="node1" class="node"><title>Node1</title>
<polygon fill="#bfbfbf" stroke="black" points="638.5,-40.5 638.5,-61.5 901.5,-61.5 901.5,-40.5 638.5,-40.5"/>
<text text-anchor="middle" x="770" y="-48.5" font-family="FreeSans.ttf" font-size="10.00">corecvs::FixedArrayBase&lt; RealType, ElementType &gt;</text>
</g>
<!-- Node2 -->
<g id="node2" class="node"><title>Node2</title>
<a xlink:href="classcorecvs_1_1VectorOperationsBase.html" target="_top" xlink:title="corecvs::VectorOperationsBase\&lt; RealType, ElementType \&gt;">
<polygon fill="none" stroke="black" points="236,-80.5 236,-101.5 532,-101.5 532,-80.5 236,-80.5"/>
<text text-anchor="middle" x="384" y="-88.5" font-family="FreeSans.ttf" font-size="10.00">corecvs::VectorOperationsBase&lt; RealType, ElementType &gt;</text>
</a>
</g>
<!-- Node2&#45;&gt;Node1 -->
<g id="edge2" class="edge"><title>Node2&#45;&gt;Node1</title>
<path fill="none" stroke="midnightblue" d="M505.927,-79.4858C542.608,-75.9223 582.953,-71.9044 620,-68 639.157,-65.9811 659.679,-63.7201 679.202,-61.5225"/>
<polygon fill="midnightblue" stroke="midnightblue" points="505.299,-76.0301 495.683,-80.4783 505.974,-82.9974 505.299,-76.0301"/>
</g>
<!-- Node3 -->
<g id="node4" class="node"><title>Node3</title>
<polygon fill="none" stroke="#bfbfbf" points="345.5,-40.5 345.5,-61.5 422.5,-61.5 422.5,-40.5 345.5,-40.5"/>
<text text-anchor="middle" x="384" y="-48.5" font-family="FreeSans.ttf" font-size="10.00">ElementType</text>
</g>
<!-- Node3&#45;&gt;Node1 -->
<g id="edge4" class="edge"><title>Node3&#45;&gt;Node1</title>
<path fill="none" stroke="#9a32cd" stroke-dasharray="5,2" d="M432.944,-51C484.378,-51 567.495,-51 638.318,-51"/>
<polygon fill="#9a32cd" stroke="#9a32cd" points="432.779,-47.5001 422.778,-51 432.778,-54.5001 432.779,-47.5001"/>
<text text-anchor="middle" x="585" y="-55" font-family="FreeSans.ttf" font-size="10.00"> element</text>
</g>
<!-- Node4 -->
<g id="node6" class="node"><title>Node4</title>
<a xlink:href="classcorecvs_1_1ObjectRef.html" target="_top" xlink:title="corecvs::ObjectRef\&lt; uint8_t \&gt;">
<polygon fill="none" stroke="black" points="304,-0.5 304,-21.5 464,-21.5 464,-0.5 304,-0.5"/>
<text text-anchor="middle" x="384" y="-8.5" font-family="FreeSans.ttf" font-size="10.00">corecvs::ObjectRef&lt; uint8_t &gt;</text>
</a>
</g>
<!-- Node4&#45;&gt;Node1 -->
<g id="edge6" class="edge"><title>Node4&#45;&gt;Node1</title>
<path fill="none" stroke="#9a32cd" stroke-dasharray="5,2" d="M474.146,-19.4505C518.15,-23.6611 571.859,-28.9265 620,-34 639.157,-36.0189 659.679,-38.2799 679.202,-40.4775"/>
<polygon fill="#9a32cd" stroke="#9a32cd" points="474.334,-15.9527 464.046,-18.4864 473.668,-22.921 474.334,-15.9527"/>
<text text-anchor="middle" x="585" y="-38" font-family="FreeSans.ttf" font-size="10.00"> memoryBlock</text>
</g>
<!-- Node5 -->
<g id="node8" class="node"><title>Node5</title>
<a xlink:href="classcorecvs_1_1ObjectBlock.html" target="_top" xlink:title="corecvs::ObjectBlock\&lt; uint8_t \&gt;">
<polygon fill="none" stroke="black" points="0.5,-0.5 0.5,-21.5 171.5,-21.5 171.5,-0.5 0.5,-0.5"/>
<text text-anchor="middle" x="86" y="-8.5" font-family="FreeSans.ttf" font-size="10.00">corecvs::ObjectBlock&lt; uint8_t &gt;</text>
</a>
</g>
<!-- Node5&#45;&gt;Node4 -->
<g id="edge8" class="edge"><title>Node5&#45;&gt;Node4</title>
<path fill="none" stroke="#9a32cd" stroke-dasharray="5,2" d="M181.937,-11C221.305,-11 266.357,-11 303.916,-11"/>
<polygon fill="#9a32cd" stroke="#9a32cd" points="181.794,-7.5001 171.794,-11 181.794,-14.5001 181.794,-7.5001"/>
<text text-anchor="middle" x="204" y="-15" font-family="FreeSans.ttf" font-size="10.00"> block</text>
</g>
</g>
</svg>
        <g id="navigator" transform="translate(0 0)" fill="#404254">
                <rect fill="#f2f5e9" fill-opacity="0.5" stroke="#606060" stroke-width=".5" x="0" y="0" width="60" height="60"/>
                <use id="zoomplus" xlink:href="#zoomPlus" x="17" y="9" onmousedown="handleZoom(evt,'in')"/>
                <use id="zoomminus" xlink:href="#zoomMin" x="42" y="9" onmousedown="handleZoom(evt,'out')"/>
                <use id="reset" xlink:href="#resetDef" x="30" y="36" onmousedown="handleReset()"/>
                <g id="arrowUp" xlink:href="#dirArrow" transform="translate(30 24)" onmousedown="handlePan(0,-1)">
                  <use xlink:href="#rim" fill="#404040">
                        <set attributeName="fill" to="#808080" begin="arrowUp.mouseover" end="arrowUp.mouseout"/>
                  </use>
                  <path fill="none" stroke="white" stroke-width="1.5" d="M0,-3.0v7 M-2.5,-0.5L0,-3.0L2.5,-0.5"/>
                </g>
                <g id="arrowRight" xlink:href="#dirArrow" transform="rotate(90) translate(36 -43)" onmousedown="handlePan(1,0)">
                  <use xlink:href="#rim" fill="#404040">
                        <set attributeName="fill" to="#808080" begin="arrowRight.mouseover" end="arrowRight.mouseout"/>
                  </use>
                  <path fill="none" stroke="white" stroke-width="1.5" d="M0,-3.0v7 M-2.5,-0.5L0,-3.0L2.5,-0.5"/>
                </g>
                <g id="arrowDown" xlink:href="#dirArrow" transform="rotate(180) translate(-30 -48)" onmousedown="handlePan(0,1)">
                  <use xlink:href="#rim" fill="#404040">
                        <set attributeName="fill" to="#808080" begin="arrowDown.mouseover" end="arrowDown.mouseout"/>
                  </use>
                  <path fill="none" stroke="white" stroke-width="1.5" d="M0,-3.0v7 M-2.5,-0.5L0,-3.0L2.5,-0.5"/>
                </g>
                <g id="arrowLeft" xlink:href="#dirArrow" transform="rotate(270) translate(-36 17)" onmousedown="handlePan(-1,0)">
                  <use xlink:href="#rim" fill="#404040">
                        <set attributeName="fill" to="#808080" begin="arrowLeft.mouseover" end="arrowLeft.mouseout"/>
                  </use>
                  <path fill="none" stroke="white" stroke-width="1.5" d="M0,-3.0v7 M-2.5,-0.5L0,-3.0L2.5,-0.5"/>
                </g>
        </g>
</svg>
