<?xml version="1.0" encoding="UTF-8" standalone="no"?>
<!DOCTYPE svg PUBLIC "-//W3C//DTD SVG 1.1//EN"
 "http://www.w3.org/Graphics/SVG/1.1/DTD/svg11.dtd">
<!-- Generated by graphviz version 2.26.3 (20100126.1600)
 -->
<!-- Title: G Pages: 1 -->
<svg width="366pt" height="150pt"
 viewBox="0.00 0.00 366.00 150.00" xmlns="http://www.w3.org/2000/svg" xmlns:xlink="http://www.w3.org/1999/xlink">
<g id="graph1" class="graph" transform="scale(1 1) rotate(0) translate(4 146)">
<title>G</title>
<!-- Node1 -->
<g id="node1" class="node"><title>Node1</title>
<polygon fill="#bfbfbf" stroke="black" points="0.5,-60.5 0.5,-81.5 173.5,-81.5 173.5,-60.5 0.5,-60.5"/>
<text text-anchor="middle" x="87" y="-68.5" font-family="FreeSans.ttf" font-size="10.00">corecvs::Matrix33::FromColumns</text>
</g>
<!-- Node2 -->
<g id="node3" class="node"><title>Node2</title>
<a xlink:href="classcorecvs_1_1Matrix33.html#a47c909b671a7ae90b386b56c8706d3a5" target="_top" xlink:title="corecvs::Matrix33::Matrix33">
<polygon fill="none" stroke="black" points="210,-120.5 210,-141.5 358,-141.5 358,-120.5 210,-120.5"/>
<text text-anchor="middle" x="284" y="-128.5" font-family="FreeSans.ttf" font-size="10.00">corecvs::Matrix33::Matrix33</text>
</a>
</g>
<!-- Node1&#45;&gt;Node2 -->
<g id="edge2" class="edge"><title>Node1&#45;&gt;Node2</title>
<path fill="none" stroke="midnightblue" d="M117.954,-81.5451C142.746,-89.8751 178.469,-101.619 210,-111 217.708,-113.293 225.901,-115.619 233.919,-117.833"/>
<polygon fill="midnightblue" stroke="midnightblue" points="233.001,-121.21 243.57,-120.469 234.845,-114.457 233.001,-121.21"/>
</g>
<!-- Node3 -->
<g id="node5" class="node"><title>Node3</title>
<a xlink:href="classcorecvs_1_1Vector3d.html#aec83d9ad04107cd9c2bb11abf33128c0" target="_top" xlink:title="Helper functions to access elements.">
<polygon fill="none" stroke="black" points="227.5,-80.5 227.5,-101.5 340.5,-101.5 340.5,-80.5 227.5,-80.5"/>
<text text-anchor="middle" x="284" y="-88.5" font-family="FreeSans.ttf" font-size="10.00">corecvs::Vector3d::x</text>
</a>
</g>
<!-- Node1&#45;&gt;Node3 -->
<g id="edge4" class="edge"><title>Node1&#45;&gt;Node3</title>
<path fill="none" stroke="midnightblue" d="M173.694,-79.8014C188.313,-81.2856 203.285,-82.8056 217.295,-84.228"/>
<polygon fill="midnightblue" stroke="midnightblue" points="217.006,-87.7165 227.308,-85.2445 217.713,-80.7523 217.006,-87.7165"/>
</g>
<!-- Node4 -->
<g id="node7" class="node"><title>Node4</title>
<a xlink:href="classcorecvs_1_1Vector3d.html#a940d88447f20fac800d1fa510c981275" target="_top" xlink:title="corecvs::Vector3d::y">
<polygon fill="none" stroke="black" points="227.5,-40.5 227.5,-61.5 340.5,-61.5 340.5,-40.5 227.5,-40.5"/>
<text text-anchor="middle" x="284" y="-48.5" font-family="FreeSans.ttf" font-size="10.00">corecvs::Vector3d::y</text>
</a>
</g>
<!-- Node1&#45;&gt;Node4 -->
<g id="edge6" class="edge"><title>Node1&#45;&gt;Node4</title>
<path fill="none" stroke="midnightblue" d="M173.694,-62.1986C188.313,-60.7144 203.285,-59.1944 217.295,-57.772"/>
<polygon fill="midnightblue" stroke="midnightblue" points="217.713,-61.2477 227.308,-56.7555 217.006,-54.2835 217.713,-61.2477"/>
</g>
<!-- Node5 -->
<g id="node9" class="node"><title>Node5</title>
<a xlink:href="classcorecvs_1_1Vector3d.html#a4587f5d4984576c5c4c2d44a4140ce3f" target="_top" xlink:title="corecvs::Vector3d::z">
<polygon fill="none" stroke="black" points="227.5,-0.5 227.5,-21.5 340.5,-21.5 340.5,-0.5 227.5,-0.5"/>
<text text-anchor="middle" x="284" y="-8.5" font-family="FreeSans.ttf" font-size="10.00">corecvs::Vector3d::z</text>
</a>
</g>
<!-- Node1&#45;&gt;Node5 -->
<g id="edge8" class="edge"><title>Node1&#45;&gt;Node5</title>
<path fill="none" stroke="midnightblue" d="M117.954,-60.4549C142.746,-52.1249 178.469,-40.3813 210,-31 217.708,-28.7066 225.901,-26.3815 233.919,-24.1675"/>
<polygon fill="midnightblue" stroke="midnightblue" points="234.845,-27.5428 243.57,-21.5315 233.001,-20.7902 234.845,-27.5428"/>
</g>
</g>
</svg>
