<?xml version="1.0" encoding="UTF-8" standalone="no"?>
<!DOCTYPE svg PUBLIC "-//W3C//DTD SVG 1.1//EN"
 "http://www.w3.org/Graphics/SVG/1.1/DTD/svg11.dtd">
<!-- Generated by graphviz version 2.26.3 (20100126.1600)
 -->
<!-- Title: G Pages: 1 -->
<!--zoomable 110 -->
<svg id="main" version="1.1" xmlns="http://www.w3.org/2000/svg" xmlns:xlink="http://www.w3.org/1999/xlink" xml:space="preserve" onload="init(evt)">
        <defs>
                <circle id="rim" cx="0" cy="0" r="7"/>
                <circle id="rim2" cx="0" cy="0" r="3.5"/>
                <g id="zoomPlus">
                        <use xlink:href="#rim" fill="#404040">
                                <set attributeName="fill" to="#808080" begin="zoomplus.mouseover" end="zoomplus.mouseout"/>
                        </use>
                        <path d="M-4,0h8M0,-4v8" fill="none" stroke="white" stroke-width="1.5" pointer-events="none"/>
                </g>
                <g id="zoomMin">
                        <use xlink:href="#rim" fill="#404040">
                                <set attributeName="fill" to="#808080" begin="zoomminus.mouseover" end="zoomminus.mouseout"/>
                        </use>
                        <path d="M-4,0h8" fill="none" stroke="white" stroke-width="1.5" pointer-events="none"/>
                </g>
                <g id="dirArrow">
                        <path fill="none" stroke="white" stroke-width="1.5" d="M0,-3.0v7 M-2.5,-0.5L0,-3.0L2.5,-0.5"/>
                </g>
               <g id="resetDef">
                       <use xlink:href="#rim2" fill="#404040">
                               <set attributeName="fill" to="#808080" begin="reset.mouseover" end="reset.mouseout"/>
                       </use>
               </g>
        </defs>

<script type="text/javascript">
var viewWidth = 1214;
var viewHeight = 110;
var sectionId = 'dynsection-5';
</script>
<script xlink:href="svgpan.js"/>
<svg id="graph" class="graph">
<g id="viewport">
<title>G</title>
<!-- Node1 -->
<g id="node1" class="node"><title>Node1</title>
<polygon fill="#bfbfbf" stroke="black" points="0,-20.5 0,-41.5 362,-41.5 362,-20.5 0,-20.5"/>
<text text-anchor="middle" x="181" y="-28.5" font-family="FreeSans.ttf" font-size="10.00">corecvs::HomographyReconstructor::getBestHomographyClassicKalman</text>
</g>
<!-- Node2 -->
<g id="node3" class="node"><title>Node2</title>
<a xlink:href="classcorecvs_1_1ClassicKalman.html#ab4a5c11dce15f84d542b3d0dbb082c96" target="_top" xlink:title="Prediction for Kalman.">
<polygon fill="none" stroke="black" points="398.5,-0.5 398.5,-21.5 565.5,-21.5 565.5,-0.5 398.5,-0.5"/>
<text text-anchor="middle" x="482" y="-8.5" font-family="FreeSans.ttf" font-size="10.00">corecvs::ClassicKalman::predict</text>
</a>
</g>
<!-- Node1&#45;&gt;Node2 -->
<g id="edge2" class="edge"><title>Node1&#45;&gt;Node2</title>
<path fill="none" stroke="midnightblue" d="M339.433,-20.4729C356.047,-19.369 372.532,-18.2736 388.074,-17.2409"/>
<polygon fill="midnightblue" stroke="midnightblue" points="388.398,-20.7272 398.144,-16.5718 387.934,-13.7426 388.398,-20.7272"/>
</g>
<!-- Node8 -->
<g id="node16" class="node"><title>Node8</title>
<a xlink:href="classcorecvs_1_1ClassicKalman.html#adf82f377b2c9f234a4b606e5b4c564d8" target="_top" xlink:title="Innovation for Kalman.">
<polygon fill="none" stroke="black" points="398,-40.5 398,-61.5 566,-61.5 566,-40.5 398,-40.5"/>
<text text-anchor="middle" x="482" y="-48.5" font-family="FreeSans.ttf" font-size="10.00">corecvs::ClassicKalman::update</text>
</a>
</g>
<!-- Node1&#45;&gt;Node8 -->
<g id="edge16" class="edge"><title>Node1&#45;&gt;Node8</title>
<path fill="none" stroke="midnightblue" d="M339.433,-41.5271C355.931,-42.6233 372.301,-43.711 387.748,-44.7374"/>
<polygon fill="midnightblue" stroke="midnightblue" points="387.548,-48.2317 397.758,-45.4025 388.012,-41.2471 387.548,-48.2317"/>
</g>
<!-- Node3 -->
<g id="node5" class="node"><title>Node3</title>
<a xlink:href="classcorecvs_1_1FunctionArgs.html#a0e1d36ff216147d20b3bc81e4d2a0143" target="_top" xlink:title="This function computes Jacobian .">
<polygon fill="none" stroke="black" points="602,-0.5 602,-21.5 784,-21.5 784,-0.5 602,-0.5"/>
<text text-anchor="middle" x="693" y="-8.5" font-family="FreeSans.ttf" font-size="10.00">corecvs::FunctionArgs::getJacobian</text>
</a>
</g>
<!-- Node2&#45;&gt;Node3 -->
<g id="edge4" class="edge"><title>Node2&#45;&gt;Node3</title>
<path fill="none" stroke="midnightblue" d="M565.696,-11C574.214,-11 582.93,-11 591.609,-11"/>
<polygon fill="midnightblue" stroke="midnightblue" points="591.766,-14.5001 601.766,-11 591.766,-7.5001 591.766,-14.5001"/>
</g>
<!-- Node6 -->
<g id="node11" class="node"><title>Node6</title>
<a xlink:href="classcorecvs_1_1Matrix.html#ae23aa5c2e50e7913de6aa4c703d4efa4" target="_top" xlink:title="corecvs::Matrix::t">
<polygon fill="none" stroke="black" points="644,-40.5 644,-61.5 742,-61.5 742,-40.5 644,-40.5"/>
<text text-anchor="middle" x="693" y="-48.5" font-family="FreeSans.ttf" font-size="10.00">corecvs::Matrix::t</text>
</a>
</g>
<!-- Node2&#45;&gt;Node6 -->
<g id="edge10" class="edge"><title>Node2&#45;&gt;Node6</title>
<path fill="none" stroke="midnightblue" d="M537.438,-21.5095C567.057,-27.1245 603.529,-34.0387 633.712,-39.7606"/>
<polygon fill="midnightblue" stroke="midnightblue" points="633.211,-43.2279 643.688,-41.6518 634.515,-36.3504 633.211,-43.2279"/>
</g>
<!-- Node4 -->
<g id="node7" class="node"><title>Node4</title>
<a xlink:href="classcorecvs_1_1AbstractBuffer.html#a98f72526738a0c4ce8a0b72a3b5c28b9" target="_top" xlink:title="The element getter.">
<polygon fill="none" stroke="black" points="1032,-20.5 1032,-41.5 1206,-41.5 1206,-20.5 1032,-20.5"/>
<text text-anchor="middle" x="1119" y="-28.5" font-family="FreeSans.ttf" font-size="10.00">corecvs::AbstractBuffer::element</text>
</a>
</g>
<!-- Node3&#45;&gt;Node4 -->
<g id="edge6" class="edge"><title>Node3&#45;&gt;Node4</title>
<path fill="none" stroke="midnightblue" d="M784.31,-7.17692C844.526,-5.5965 925.084,-5.27207 996,-11 1015.56,-12.5798 1036.7,-15.5506 1055.84,-18.7285"/>
<polygon fill="midnightblue" stroke="midnightblue" points="1055.5,-22.2214 1065.95,-20.4552 1056.68,-15.3213 1055.5,-22.2214"/>
</g>
<!-- Node5 -->
<g id="node9" class="node"><title>Node5</title>
<a xlink:href="classcorecvs_1_1FunctionArgs.html#a241e7a53fb4c98f8181db1a6d94765a6" target="_top" xlink:title="Operator that computes funÑtion.">
<polygon fill="none" stroke="black" points="820,-20.5 820,-41.5 996,-41.5 996,-20.5 820,-20.5"/>
<text text-anchor="middle" x="908" y="-28.5" font-family="FreeSans.ttf" font-size="10.00">corecvs::FunctionArgs::operator()</text>
</a>
</g>
<!-- Node3&#45;&gt;Node5 -->
<g id="edge8" class="edge"><title>Node3&#45;&gt;Node5</title>
<path fill="none" stroke="midnightblue" d="M784.179,-19.4818C792.652,-20.27 801.264,-21.071 809.796,-21.8648"/>
<polygon fill="midnightblue" stroke="midnightblue" points="809.482,-25.3506 819.764,-22.792 810.131,-18.3807 809.482,-25.3506"/>
</g>
<!-- Node7 -->
<g id="node13" class="node"><title>Node7</title>
<a xlink:href="classcorecvs_1_1Matrix.html#a5b8b00c8bfc66549652e6c0610457254" target="_top" xlink:title="The element getter for a matrix that is used like vector (i.e has height or width of 1)...">
<polygon fill="none" stroke="black" points="857.5,-60.5 857.5,-81.5 958.5,-81.5 958.5,-60.5 857.5,-60.5"/>
<text text-anchor="middle" x="908" y="-68.5" font-family="FreeSans.ttf" font-size="10.00">corecvs::Matrix::a</text>
</a>
</g>
<!-- Node6&#45;&gt;Node7 -->
<g id="edge12" class="edge"><title>Node6&#45;&gt;Node7</title>
<path fill="none" stroke="midnightblue" d="M742.056,-55.5633C773.28,-58.4679 813.955,-62.2516 847.22,-65.3461"/>
<polygon fill="midnightblue" stroke="midnightblue" points="847.006,-68.8412 857.287,-66.2825 847.655,-61.8713 847.006,-68.8412"/>
</g>
<!-- Node7&#45;&gt;Node4 -->
<g id="edge14" class="edge"><title>Node7&#45;&gt;Node4</title>
<path fill="none" stroke="midnightblue" d="M958.54,-61.419C986.91,-56.0408 1022.64,-49.268 1053.17,-43.4792"/>
<polygon fill="midnightblue" stroke="midnightblue" points="1054.14,-46.8585 1063.31,-41.5571 1052.83,-39.981 1054.14,-46.8585"/>
</g>
<!-- Node8&#45;&gt;Node3 -->
<g id="edge18" class="edge"><title>Node8&#45;&gt;Node3</title>
<path fill="none" stroke="midnightblue" d="M537.438,-40.4905C565.071,-35.2519 598.67,-28.8825 627.561,-23.4055"/>
<polygon fill="midnightblue" stroke="midnightblue" points="628.393,-26.8101 637.567,-21.5087 627.09,-19.9326 628.393,-26.8101"/>
</g>
<!-- Node8&#45;&gt;Node6 -->
<g id="edge24" class="edge"><title>Node8&#45;&gt;Node6</title>
<path fill="none" stroke="midnightblue" d="M566.302,-51C588.892,-51 612.835,-51 633.753,-51"/>
<polygon fill="midnightblue" stroke="midnightblue" points="633.759,-54.5001 643.759,-51 633.759,-47.5001 633.759,-54.5001"/>
</g>
<!-- Node9 -->
<g id="node19" class="node"><title>Node9</title>
<a xlink:href="classcorecvs_1_1Matrix.html#aeb56de4494cc7520a587548b3c330084" target="_top" xlink:title="This function returns an inverse of the matrix.">
<polygon fill="none" stroke="black" points="639,-80.5 639,-101.5 747,-101.5 747,-80.5 639,-80.5"/>
<text text-anchor="middle" x="693" y="-88.5" font-family="FreeSans.ttf" font-size="10.00">corecvs::Matrix::inv</text>
</a>
</g>
<!-- Node8&#45;&gt;Node9 -->
<g id="edge20" class="edge"><title>Node8&#45;&gt;Node9</title>
<path fill="none" stroke="midnightblue" d="M537.438,-61.5095C565.399,-66.8102 599.468,-73.2687 628.587,-78.789"/>
<polygon fill="midnightblue" stroke="midnightblue" points="628.185,-82.2751 638.662,-80.699 629.489,-75.3976 628.185,-82.2751"/>
</g>
<!-- Node9&#45;&gt;Node7 -->
<g id="edge22" class="edge"><title>Node9&#45;&gt;Node7</title>
<path fill="none" stroke="midnightblue" d="M747.254,-85.9532C777.786,-83.113 815.984,-79.5596 847.483,-76.6295"/>
<polygon fill="midnightblue" stroke="midnightblue" points="847.823,-80.113 857.456,-75.7017 847.175,-73.1431 847.823,-80.113"/>
</g>
</g>
</svg>
        <g id="navigator" transform="translate(0 0)" fill="#404254">
                <rect fill="#f2f5e9" fill-opacity="0.5" stroke="#606060" stroke-width=".5" x="0" y="0" width="60" height="60"/>
                <use id="zoomplus" xlink:href="#zoomPlus" x="17" y="9" onmousedown="handleZoom(evt,'in')"/>
                <use id="zoomminus" xlink:href="#zoomMin" x="42" y="9" onmousedown="handleZoom(evt,'out')"/>
                <use id="reset" xlink:href="#resetDef" x="30" y="36" onmousedown="handleReset()"/>
                <g id="arrowUp" xlink:href="#dirArrow" transform="translate(30 24)" onmousedown="handlePan(0,-1)">
                  <use xlink:href="#rim" fill="#404040">
                        <set attributeName="fill" to="#808080" begin="arrowUp.mouseover" end="arrowUp.mouseout"/>
                  </use>
                  <path fill="none" stroke="white" stroke-width="1.5" d="M0,-3.0v7 M-2.5,-0.5L0,-3.0L2.5,-0.5"/>
                </g>
                <g id="arrowRight" xlink:href="#dirArrow" transform="rotate(90) translate(36 -43)" onmousedown="handlePan(1,0)">
                  <use xlink:href="#rim" fill="#404040">
                        <set attributeName="fill" to="#808080" begin="arrowRight.mouseover" end="arrowRight.mouseout"/>
                  </use>
                  <path fill="none" stroke="white" stroke-width="1.5" d="M0,-3.0v7 M-2.5,-0.5L0,-3.0L2.5,-0.5"/>
                </g>
                <g id="arrowDown" xlink:href="#dirArrow" transform="rotate(180) translate(-30 -48)" onmousedown="handlePan(0,1)">
                  <use xlink:href="#rim" fill="#404040">
                        <set attributeName="fill" to="#808080" begin="arrowDown.mouseover" end="arrowDown.mouseout"/>
                  </use>
                  <path fill="none" stroke="white" stroke-width="1.5" d="M0,-3.0v7 M-2.5,-0.5L0,-3.0L2.5,-0.5"/>
                </g>
                <g id="arrowLeft" xlink:href="#dirArrow" transform="rotate(270) translate(-36 17)" onmousedown="handlePan(-1,0)">
                  <use xlink:href="#rim" fill="#404040">
                        <set attributeName="fill" to="#808080" begin="arrowLeft.mouseover" end="arrowLeft.mouseout"/>
                  </use>
                  <path fill="none" stroke="white" stroke-width="1.5" d="M0,-3.0v7 M-2.5,-0.5L0,-3.0L2.5,-0.5"/>
                </g>
        </g>
</svg>
