<?xml version="1.0" encoding="UTF-8" standalone="no"?>
<!DOCTYPE svg PUBLIC "-//W3C//DTD SVG 1.1//EN"
 "http://www.w3.org/Graphics/SVG/1.1/DTD/svg11.dtd">
<!-- Generated by graphviz version 2.26.3 (20100126.1600)
 -->
<!-- Title: G Pages: 1 -->
<svg width="276pt" height="282pt"
 viewBox="0.00 0.00 276.00 282.00" xmlns="http://www.w3.org/2000/svg" xmlns:xlink="http://www.w3.org/1999/xlink">
<g id="graph1" class="graph" transform="scale(1 1) rotate(0) translate(4 278)">
<title>G</title>
<!-- Node1 -->
<g id="node1" class="node"><title>Node1</title>
<polygon fill="#bfbfbf" stroke="black" points="91,-0.5 91,-21.5 177,-21.5 177,-0.5 91,-0.5"/>
<text text-anchor="middle" x="134" y="-8.5" font-family="FreeSans.ttf" font-size="10.00">Plane3DScene</text>
</g>
<!-- Node2 -->
<g id="node2" class="node"><title>Node2</title>
<a xlink:href="classScene3D.html" target="_top" xlink:title="Part of the hierarchically displayable scene.">
<polygon fill="none" stroke="black" points="104,-60.5 104,-81.5 164,-81.5 164,-60.5 104,-60.5"/>
<text text-anchor="middle" x="134" y="-68.5" font-family="FreeSans.ttf" font-size="10.00">Scene3D</text>
</a>
</g>
<!-- Node2&#45;&gt;Node1 -->
<g id="edge2" class="edge"><title>Node2&#45;&gt;Node1</title>
<path fill="none" stroke="midnightblue" d="M134,-50.2312C134,-40.5922 134,-29.5444 134,-21.6339"/>
<polygon fill="midnightblue" stroke="midnightblue" points="130.5,-50.2732 134,-60.2732 137.5,-50.2732 130.5,-50.2732"/>
</g>
<!-- Node2&#45;&gt;Node2 -->
<g id="edge4" class="edge"><title>Node2&#45;&gt;Node2</title>
<path fill="none" stroke="#9a32cd" stroke-dasharray="5,2" d="M174.659,-75.7243C179.121,-74.8242 182,-73.2495 182,-71 182,-67.3086 174.248,-65.4341 164.467,-65.3764"/>
<polygon fill="#9a32cd" stroke="#9a32cd" points="174.121,-72.2582 164.467,-76.6236 174.736,-79.2311 174.121,-72.2582"/>
<text text-anchor="middle" x="199.5" y="-68.5" font-family="FreeSans.ttf" font-size="10.00"> parent</text>
</g>
<!-- Node3 -->
<g id="node5" class="node"><title>Node3</title>
<a xlink:href="classcorecvs_1_1Matrix44.html" target="_top" xlink:title="This class is mostly for representing Projectrive Transformations in 3D.">
<polygon fill="none" stroke="black" points="83.5,-132.5 83.5,-153.5 184.5,-153.5 184.5,-132.5 83.5,-132.5"/>
<text text-anchor="middle" x="134" y="-140.5" font-family="FreeSans.ttf" font-size="10.00">corecvs::Matrix44</text>
</a>
</g>
<!-- Node3&#45;&gt;Node2 -->
<g id="edge6" class="edge"><title>Node3&#45;&gt;Node2</title>
<path fill="none" stroke="#9a32cd" stroke-dasharray="5,2" d="M134,-122.235C134,-108.969 134,-92.3188 134,-81.6674"/>
<polygon fill="#9a32cd" stroke="#9a32cd" points="130.5,-122.376 134,-132.376 137.5,-122.376 130.5,-122.376"/>
<text text-anchor="middle" x="159.5" y="-104.5" font-family="FreeSans.ttf" font-size="10.00"> transform</text>
</g>
<!-- Node4 -->
<g id="node7" class="node"><title>Node4</title>
<a xlink:href="classcorecvs_1_1FixedVectorBase.html" target="_top" xlink:title="corecvs::FixedVectorBase\&lt; Matrix44, double, 16 \&gt;">
<polygon fill="none" stroke="black" points="5,-192.5 5,-213.5 263,-213.5 263,-192.5 5,-192.5"/>
<text text-anchor="middle" x="134" y="-200.5" font-family="FreeSans.ttf" font-size="10.00">corecvs::FixedVectorBase&lt; Matrix44, double, 16 &gt;</text>
</a>
</g>
<!-- Node4&#45;&gt;Node3 -->
<g id="edge8" class="edge"><title>Node4&#45;&gt;Node3</title>
<path fill="none" stroke="midnightblue" d="M134,-182.231C134,-172.592 134,-161.544 134,-153.634"/>
<polygon fill="midnightblue" stroke="midnightblue" points="130.5,-182.273 134,-192.273 137.5,-182.273 130.5,-182.273"/>
</g>
<!-- Node5 -->
<g id="node9" class="node"><title>Node5</title>
<a xlink:href="classcorecvs_1_1VectorOperationsBase.html" target="_top" xlink:title="corecvs::VectorOperationsBase\&lt; Matrix44, double \&gt;">
<polygon fill="none" stroke="black" points="-0.5,-252.5 -0.5,-273.5 268.5,-273.5 268.5,-252.5 -0.5,-252.5"/>
<text text-anchor="middle" x="134" y="-260.5" font-family="FreeSans.ttf" font-size="10.00">corecvs::VectorOperationsBase&lt; Matrix44, double &gt;</text>
</a>
</g>
<!-- Node5&#45;&gt;Node4 -->
<g id="edge10" class="edge"><title>Node5&#45;&gt;Node4</title>
<path fill="none" stroke="midnightblue" d="M134,-242.231C134,-232.592 134,-221.544 134,-213.634"/>
<polygon fill="midnightblue" stroke="midnightblue" points="130.5,-242.273 134,-252.273 137.5,-242.273 130.5,-242.273"/>
</g>
</g>
</svg>
