<?xml version="1.0" encoding="UTF-8" standalone="no"?>
<!DOCTYPE svg PUBLIC "-//W3C//DTD SVG 1.1//EN"
 "http://www.w3.org/Graphics/SVG/1.1/DTD/svg11.dtd">
<!-- Generated by graphviz version 2.26.3 (20100126.1600)
 -->
<!-- Title: G Pages: 1 -->
<!--zoomable 256 -->
<svg id="main" version="1.1" xmlns="http://www.w3.org/2000/svg" xmlns:xlink="http://www.w3.org/1999/xlink" xml:space="preserve" onload="init(evt)">
        <defs>
                <circle id="rim" cx="0" cy="0" r="7"/>
                <circle id="rim2" cx="0" cy="0" r="3.5"/>
                <g id="zoomPlus">
                        <use xlink:href="#rim" fill="#404040">
                                <set attributeName="fill" to="#808080" begin="zoomplus.mouseover" end="zoomplus.mouseout"/>
                        </use>
                        <path d="M-4,0h8M0,-4v8" fill="none" stroke="white" stroke-width="1.5" pointer-events="none"/>
                </g>
                <g id="zoomMin">
                        <use xlink:href="#rim" fill="#404040">
                                <set attributeName="fill" to="#808080" begin="zoomminus.mouseover" end="zoomminus.mouseout"/>
                        </use>
                        <path d="M-4,0h8" fill="none" stroke="white" stroke-width="1.5" pointer-events="none"/>
                </g>
                <g id="dirArrow">
                        <path fill="none" stroke="white" stroke-width="1.5" d="M0,-3.0v7 M-2.5,-0.5L0,-3.0L2.5,-0.5"/>
                </g>
               <g id="resetDef">
                       <use xlink:href="#rim2" fill="#404040">
                               <set attributeName="fill" to="#808080" begin="reset.mouseover" end="reset.mouseout"/>
                       </use>
               </g>
        </defs>

<script type="text/javascript">
var viewWidth = 1184;
var viewHeight = 256;
var sectionId = 'dynsection-19';
</script>
<script xlink:href="svgpan.js"/>
<svg id="graph" class="graph">
<g id="viewport">
<title>G</title>
<!-- Node1 -->
<g id="node1" class="node"><title>Node1</title>
<polygon fill="#bfbfbf" stroke="black" points="0.5,-120.5 0.5,-141.5 161.5,-141.5 161.5,-120.5 0.5,-120.5"/>
<text text-anchor="middle" x="81" y="-128.5" font-family="FreeSans.ttf" font-size="10.00">CloudViewDialog::resizeGLSlot</text>
</g>
<!-- Node2 -->
<g id="node3" class="node"><title>Node2</title>
<a xlink:href="classCloudViewDialog.html#aa0e690216fa07139c8030ad79f5adab2" target="_top" xlink:title="CloudViewDialog::resetCamera">
<polygon fill="none" stroke="black" points="198,-120.5 198,-141.5 362,-141.5 362,-120.5 198,-120.5"/>
<text text-anchor="middle" x="280" y="-128.5" font-family="FreeSans.ttf" font-size="10.00">CloudViewDialog::resetCamera</text>
</a>
</g>
<!-- Node1&#45;&gt;Node2 -->
<g id="edge2" class="edge"><title>Node1&#45;&gt;Node2</title>
<path fill="none" stroke="midnightblue" d="M161.654,-131C170.25,-131 179.04,-131 187.756,-131"/>
<polygon fill="midnightblue" stroke="midnightblue" points="187.937,-134.5 197.937,-131 187.937,-127.5 187.937,-134.5"/>
</g>
<!-- Node3 -->
<g id="node5" class="node"><title>Node3</title>
<a xlink:href="classOpenGLTools.html#a990fb295ace9f68c82ab058add581835" target="_top" xlink:title="OpenGLTools::glMultMatrixMatrix44">
<polygon fill="none" stroke="black" points="612,-200.5 612,-221.5 794,-221.5 794,-200.5 612,-200.5"/>
<text text-anchor="middle" x="703" y="-208.5" font-family="FreeSans.ttf" font-size="10.00">OpenGLTools::glMultMatrixMatrix44</text>
</a>
</g>
<!-- Node2&#45;&gt;Node3 -->
<g id="edge4" class="edge"><title>Node2&#45;&gt;Node3</title>
<path fill="none" stroke="midnightblue" d="M288,-141.584C305.23,-163.386 348.334,-212.786 398,-231 486.776,-263.557 599.737,-241.101 660.203,-224.443"/>
<polygon fill="midnightblue" stroke="midnightblue" points="661.489,-227.716 670.156,-221.621 659.58,-220.981 661.489,-227.716"/>
</g>
<!-- Node7 -->
<g id="node13" class="node"><title>Node7</title>
<a xlink:href="classOpenGLTools.html#abf0b2767139d28cd65092d95306d812d" target="_top" xlink:title="Equivalent to old function gluPerspective.">
<polygon fill="none" stroke="black" points="411,-160.5 411,-181.5 563,-181.5 563,-160.5 411,-160.5"/>
<text text-anchor="middle" x="487" y="-168.5" font-family="FreeSans.ttf" font-size="10.00">OpenGLTools::gluPerspective</text>
</a>
</g>
<!-- Node2&#45;&gt;Node7 -->
<g id="edge12" class="edge"><title>Node2&#45;&gt;Node7</title>
<path fill="none" stroke="midnightblue" d="M334.387,-141.51C361.378,-146.725 394.17,-153.062 422.43,-158.523"/>
<polygon fill="midnightblue" stroke="midnightblue" points="422.135,-162.03 432.617,-160.491 423.463,-155.158 422.135,-162.03"/>
</g>
<!-- Node9 -->
<g id="node18" class="node"><title>Node9</title>
<a xlink:href="classOpenGLTools.html#a92e6202f71c554b0b85619dd8ff04b73" target="_top" xlink:title="Same as above except for looking in positive Z direction.">
<polygon fill="none" stroke="black" points="398.5,-200.5 398.5,-221.5 575.5,-221.5 575.5,-200.5 398.5,-200.5"/>
<text text-anchor="middle" x="487" y="-208.5" font-family="FreeSans.ttf" font-size="10.00">OpenGLTools::gluPerspectivePosZ</text>
</a>
</g>
<!-- Node2&#45;&gt;Node9 -->
<g id="edge18" class="edge"><title>Node2&#45;&gt;Node9</title>
<path fill="none" stroke="midnightblue" d="M297.372,-141.583C319.856,-154.862 360.593,-177.526 398,-191 405.045,-193.537 412.523,-195.82 420.035,-197.855"/>
<polygon fill="midnightblue" stroke="midnightblue" points="419.339,-201.29 429.895,-200.388 421.081,-194.51 419.339,-201.29"/>
</g>
<!-- Node10 -->
<g id="node22" class="node"><title>Node10</title>
<a xlink:href="namespacecorecvs.html#a319a0d46c2f53180fd1c9c477718d8b1" target="_top" xlink:title="Useful radian to degrees and back conversions.">
<polygon fill="none" stroke="black" points="435,-120.5 435,-141.5 539,-141.5 539,-120.5 435,-120.5"/>
<text text-anchor="middle" x="487" y="-128.5" font-family="FreeSans.ttf" font-size="10.00">corecvs::radToDeg</text>
</a>
</g>
<!-- Node2&#45;&gt;Node10 -->
<g id="edge24" class="edge"><title>Node2&#45;&gt;Node10</title>
<path fill="none" stroke="midnightblue" d="M362.109,-131C382.968,-131 405.038,-131 424.729,-131"/>
<polygon fill="midnightblue" stroke="midnightblue" points="424.79,-134.5 434.79,-131 424.79,-127.5 424.79,-134.5"/>
</g>
<!-- Node11 -->
<g id="node24" class="node"><title>Node11</title>
<a xlink:href="classcorecvs_1_1Vector3d.html#aec83d9ad04107cd9c2bb11abf33128c0" target="_top" xlink:title="Helper functions to access elements.">
<polygon fill="none" stroke="black" points="430.5,-80.5 430.5,-101.5 543.5,-101.5 543.5,-80.5 430.5,-80.5"/>
<text text-anchor="middle" x="487" y="-88.5" font-family="FreeSans.ttf" font-size="10.00">corecvs::Vector3d::x</text>
</a>
</g>
<!-- Node2&#45;&gt;Node11 -->
<g id="edge26" class="edge"><title>Node2&#45;&gt;Node11</title>
<path fill="none" stroke="midnightblue" d="M334.387,-120.49C361.378,-115.275 394.17,-108.938 422.43,-103.477"/>
<polygon fill="midnightblue" stroke="midnightblue" points="423.463,-106.842 432.617,-101.509 422.135,-99.9696 423.463,-106.842"/>
</g>
<!-- Node12 -->
<g id="node26" class="node"><title>Node12</title>
<a xlink:href="classcorecvs_1_1Vector3d.html#a940d88447f20fac800d1fa510c981275" target="_top" xlink:title="corecvs::Vector3d::y">
<polygon fill="none" stroke="black" points="430.5,-40.5 430.5,-61.5 543.5,-61.5 543.5,-40.5 430.5,-40.5"/>
<text text-anchor="middle" x="487" y="-48.5" font-family="FreeSans.ttf" font-size="10.00">corecvs::Vector3d::y</text>
</a>
</g>
<!-- Node2&#45;&gt;Node12 -->
<g id="edge28" class="edge"><title>Node2&#45;&gt;Node12</title>
<path fill="none" stroke="midnightblue" d="M297.372,-120.417C319.856,-107.138 360.593,-84.4737 398,-71 405.229,-68.3963 412.914,-66.0612 420.623,-63.9863"/>
<polygon fill="midnightblue" stroke="midnightblue" points="421.546,-67.3631 430.368,-61.4967 419.813,-60.5809 421.546,-67.3631"/>
</g>
<!-- Node13 -->
<g id="node28" class="node"><title>Node13</title>
<a xlink:href="classcorecvs_1_1Vector3d.html#a4587f5d4984576c5c4c2d44a4140ce3f" target="_top" xlink:title="corecvs::Vector3d::z">
<polygon fill="none" stroke="black" points="430.5,-0.5 430.5,-21.5 543.5,-21.5 543.5,-0.5 430.5,-0.5"/>
<text text-anchor="middle" x="487" y="-8.5" font-family="FreeSans.ttf" font-size="10.00">corecvs::Vector3d::z</text>
</a>
</g>
<!-- Node2&#45;&gt;Node13 -->
<g id="edge30" class="edge"><title>Node2&#45;&gt;Node13</title>
<path fill="none" stroke="midnightblue" d="M289.206,-120.331C307.647,-99.6763 351.367,-54.2223 398,-31 404.977,-27.5254 412.562,-24.6476 420.261,-22.2655"/>
<polygon fill="midnightblue" stroke="midnightblue" points="421.366,-25.5905 430.039,-19.5057 419.465,-18.8537 421.366,-25.5905"/>
</g>
<!-- Node4 -->
<g id="node7" class="node"><title>Node4</title>
<a xlink:href="classcorecvs_1_1Matrix44.html#a2b2199727e0ea9264105937c9aca9a1f" target="_top" xlink:title="Returning transposed matrix.">
<polygon fill="none" stroke="black" points="830.5,-200.5 830.5,-221.5 991.5,-221.5 991.5,-200.5 830.5,-200.5"/>
<text text-anchor="middle" x="911" y="-208.5" font-family="FreeSans.ttf" font-size="10.00">corecvs::Matrix44::transposed</text>
</a>
</g>
<!-- Node3&#45;&gt;Node4 -->
<g id="edge6" class="edge"><title>Node3&#45;&gt;Node4</title>
<path fill="none" stroke="midnightblue" d="M794.232,-211C802.862,-211 811.611,-211 820.237,-211"/>
<polygon fill="midnightblue" stroke="midnightblue" points="820.291,-214.5 830.291,-211 820.291,-207.5 820.291,-214.5"/>
</g>
<!-- Node5 -->
<g id="node9" class="node"><title>Node5</title>
<a xlink:href="classcorecvs_1_1Matrix44.html#acf5e18b2333c493522c2d32ae8719541" target="_top" xlink:title="corecvs::Matrix44::Matrix44">
<polygon fill="none" stroke="black" points="1028,-220.5 1028,-241.5 1176,-241.5 1176,-220.5 1028,-220.5"/>
<text text-anchor="middle" x="1102" y="-228.5" font-family="FreeSans.ttf" font-size="10.00">corecvs::Matrix44::Matrix44</text>
</a>
</g>
<!-- Node4&#45;&gt;Node5 -->
<g id="edge8" class="edge"><title>Node4&#45;&gt;Node5</title>
<path fill="none" stroke="midnightblue" d="M991.724,-219.453C1000.36,-220.357 1009.16,-221.278 1017.83,-222.187"/>
<polygon fill="midnightblue" stroke="midnightblue" points="1017.63,-225.684 1027.94,-223.245 1018.36,-218.723 1017.63,-225.684"/>
</g>
<!-- Node6 -->
<g id="node11" class="node"><title>Node6</title>
<a xlink:href="classcorecvs_1_1Matrix44.html#ad53e6a4c5f30ed13b1bd0946f0e66a06" target="_top" xlink:title="Geting Matrix element functions block.">
<polygon fill="none" stroke="black" points="1045.5,-180.5 1045.5,-201.5 1158.5,-201.5 1158.5,-180.5 1045.5,-180.5"/>
<text text-anchor="middle" x="1102" y="-188.5" font-family="FreeSans.ttf" font-size="10.00">corecvs::Matrix44::a</text>
</a>
</g>
<!-- Node4&#45;&gt;Node6 -->
<g id="edge10" class="edge"><title>Node4&#45;&gt;Node6</title>
<path fill="none" stroke="midnightblue" d="M991.724,-202.547C1006.23,-201.029 1021.19,-199.462 1035.24,-197.99"/>
<polygon fill="midnightblue" stroke="midnightblue" points="1035.71,-201.46 1045.29,-196.938 1034.98,-194.498 1035.71,-201.46"/>
</g>
<!-- Node7&#45;&gt;Node3 -->
<g id="edge16" class="edge"><title>Node7&#45;&gt;Node3</title>
<path fill="none" stroke="midnightblue" d="M543.751,-181.51C572.163,-186.771 606.735,-193.173 636.398,-198.666"/>
<polygon fill="midnightblue" stroke="midnightblue" points="635.783,-202.112 646.253,-200.491 637.057,-195.229 635.783,-202.112"/>
</g>
<!-- Node8 -->
<g id="node15" class="node"><title>Node8</title>
<a xlink:href="namespacecorecvs.html#a232d61cca5a815cc01f2eaa73604a48c" target="_top" xlink:title="corecvs::degToRad">
<polygon fill="none" stroke="black" points="650.5,-160.5 650.5,-181.5 755.5,-181.5 755.5,-160.5 650.5,-160.5"/>
<text text-anchor="middle" x="703" y="-168.5" font-family="FreeSans.ttf" font-size="10.00">corecvs::degToRad</text>
</a>
</g>
<!-- Node7&#45;&gt;Node8 -->
<g id="edge14" class="edge"><title>Node7&#45;&gt;Node8</title>
<path fill="none" stroke="midnightblue" d="M563.154,-171C588.341,-171 616.067,-171 640.143,-171"/>
<polygon fill="midnightblue" stroke="midnightblue" points="640.22,-174.5 650.22,-171 640.22,-167.5 640.22,-174.5"/>
</g>
<!-- Node9&#45;&gt;Node3 -->
<g id="edge22" class="edge"><title>Node9&#45;&gt;Node3</title>
<path fill="none" stroke="midnightblue" d="M575.791,-211C584.321,-211 593.017,-211 601.656,-211"/>
<polygon fill="midnightblue" stroke="midnightblue" points="601.757,-214.5 611.757,-211 601.757,-207.5 601.757,-214.5"/>
</g>
<!-- Node9&#45;&gt;Node8 -->
<g id="edge20" class="edge"><title>Node9&#45;&gt;Node8</title>
<path fill="none" stroke="midnightblue" d="M543.751,-200.49C573.399,-195 609.753,-188.268 640.238,-182.623"/>
<polygon fill="midnightblue" stroke="midnightblue" points="641.138,-186.016 650.333,-180.753 639.863,-179.133 641.138,-186.016"/>
</g>
</g>
</svg>
        <g id="navigator" transform="translate(0 0)" fill="#404254">
                <rect fill="#f2f5e9" fill-opacity="0.5" stroke="#606060" stroke-width=".5" x="0" y="0" width="60" height="60"/>
                <use id="zoomplus" xlink:href="#zoomPlus" x="17" y="9" onmousedown="handleZoom(evt,'in')"/>
                <use id="zoomminus" xlink:href="#zoomMin" x="42" y="9" onmousedown="handleZoom(evt,'out')"/>
                <use id="reset" xlink:href="#resetDef" x="30" y="36" onmousedown="handleReset()"/>
                <g id="arrowUp" xlink:href="#dirArrow" transform="translate(30 24)" onmousedown="handlePan(0,-1)">
                  <use xlink:href="#rim" fill="#404040">
                        <set attributeName="fill" to="#808080" begin="arrowUp.mouseover" end="arrowUp.mouseout"/>
                  </use>
                  <path fill="none" stroke="white" stroke-width="1.5" d="M0,-3.0v7 M-2.5,-0.5L0,-3.0L2.5,-0.5"/>
                </g>
                <g id="arrowRight" xlink:href="#dirArrow" transform="rotate(90) translate(36 -43)" onmousedown="handlePan(1,0)">
                  <use xlink:href="#rim" fill="#404040">
                        <set attributeName="fill" to="#808080" begin="arrowRight.mouseover" end="arrowRight.mouseout"/>
                  </use>
                  <path fill="none" stroke="white" stroke-width="1.5" d="M0,-3.0v7 M-2.5,-0.5L0,-3.0L2.5,-0.5"/>
                </g>
                <g id="arrowDown" xlink:href="#dirArrow" transform="rotate(180) translate(-30 -48)" onmousedown="handlePan(0,1)">
                  <use xlink:href="#rim" fill="#404040">
                        <set attributeName="fill" to="#808080" begin="arrowDown.mouseover" end="arrowDown.mouseout"/>
                  </use>
                  <path fill="none" stroke="white" stroke-width="1.5" d="M0,-3.0v7 M-2.5,-0.5L0,-3.0L2.5,-0.5"/>
                </g>
                <g id="arrowLeft" xlink:href="#dirArrow" transform="rotate(270) translate(-36 17)" onmousedown="handlePan(-1,0)">
                  <use xlink:href="#rim" fill="#404040">
                        <set attributeName="fill" to="#808080" begin="arrowLeft.mouseover" end="arrowLeft.mouseout"/>
                  </use>
                  <path fill="none" stroke="white" stroke-width="1.5" d="M0,-3.0v7 M-2.5,-0.5L0,-3.0L2.5,-0.5"/>
                </g>
        </g>
</svg>
