<?xml version="1.0" encoding="UTF-8" standalone="no"?>
<!DOCTYPE svg PUBLIC "-//W3C//DTD SVG 1.1//EN"
 "http://www.w3.org/Graphics/SVG/1.1/DTD/svg11.dtd">
<!-- Generated by graphviz version 2.26.3 (20100126.1600)
 -->
<!-- Title: G Pages: 1 -->
<svg width="456pt" height="110pt"
 viewBox="0.00 0.00 456.00 110.00" xmlns="http://www.w3.org/2000/svg" xmlns:xlink="http://www.w3.org/1999/xlink">
<g id="graph1" class="graph" transform="scale(1 1) rotate(0) translate(4 106)">
<title>G</title>
<!-- Node1 -->
<g id="node1" class="node"><title>Node1</title>
<polygon fill="#bfbfbf" stroke="black" points="0,-40.5 0,-61.5 212,-61.5 212,-40.5 0,-40.5"/>
<text text-anchor="middle" x="106" y="-48.5" font-family="FreeSans.ttf" font-size="10.00">BaseHostDialog::createAdditionalWindow</text>
</g>
<!-- Node2 -->
<g id="node3" class="node"><title>Node2</title>
<a xlink:href="classBaseHostDialog.html#a84df55376fb327bf9e4a43e08ac96407" target="_top" xlink:title="BaseHostDialog::addAdditionalWindow">
<polygon fill="none" stroke="black" points="248,-80.5 248,-101.5 448,-101.5 448,-80.5 248,-80.5"/>
<text text-anchor="middle" x="348" y="-88.5" font-family="FreeSans.ttf" font-size="10.00">BaseHostDialog::addAdditionalWindow</text>
</a>
</g>
<!-- Node1&#45;&gt;Node2 -->
<g id="edge2" class="edge"><title>Node1&#45;&gt;Node2</title>
<path fill="none" stroke="midnightblue" d="M169.583,-61.5095C201.691,-66.8167 240.822,-73.2846 274.246,-78.8093"/>
<polygon fill="midnightblue" stroke="midnightblue" points="273.985,-82.3136 284.422,-80.4913 275.127,-75.4073 273.985,-82.3136"/>
</g>
<!-- Node3 -->
<g id="node5" class="node"><title>Node3</title>
<a xlink:href="classGraphPlotDialog.html#a9f1f5be9caab7c42d3335f6d7d976706" target="_top" xlink:title="GraphPlotDialog::setSavingRoot">
<polygon fill="none" stroke="black" points="264,-40.5 264,-61.5 432,-61.5 432,-40.5 264,-40.5"/>
<text text-anchor="middle" x="348" y="-48.5" font-family="FreeSans.ttf" font-size="10.00">GraphPlotDialog::setSavingRoot</text>
</a>
</g>
<!-- Node1&#45;&gt;Node3 -->
<g id="edge4" class="edge"><title>Node1&#45;&gt;Node3</title>
<path fill="none" stroke="midnightblue" d="M212.145,-51C225.908,-51 239.932,-51 253.489,-51"/>
<polygon fill="midnightblue" stroke="midnightblue" points="253.753,-54.5001 263.753,-51 253.753,-47.5001 253.753,-54.5001"/>
</g>
<!-- Node4 -->
<g id="node7" class="node"><title>Node4</title>
<a xlink:href="classAdvancedImageWidget.html#a841a4cdf8517eedaf7b89bdcdf590d45" target="_top" xlink:title="AdvancedImageWidget::setSavingRoot">
<polygon fill="none" stroke="black" points="248,-0.5 248,-21.5 448,-21.5 448,-0.5 248,-0.5"/>
<text text-anchor="middle" x="348" y="-8.5" font-family="FreeSans.ttf" font-size="10.00">AdvancedImageWidget::setSavingRoot</text>
</a>
</g>
<!-- Node1&#45;&gt;Node4 -->
<g id="edge6" class="edge"><title>Node1&#45;&gt;Node4</title>
<path fill="none" stroke="midnightblue" d="M169.583,-40.4905C201.691,-35.1833 240.822,-28.7154 274.246,-23.1907"/>
<polygon fill="midnightblue" stroke="midnightblue" points="275.127,-26.5927 284.422,-21.5087 273.985,-19.6864 275.127,-26.5927"/>
</g>
</g>
</svg>
