<?xml version="1.0" encoding="UTF-8" standalone="no"?>
<!DOCTYPE svg PUBLIC "-//W3C//DTD SVG 1.1//EN"
 "http://www.w3.org/Graphics/SVG/1.1/DTD/svg11.dtd">
<!-- Generated by graphviz version 2.26.3 (20100126.1600)
 -->
<!-- Title: G Pages: 1 -->
<svg width="432pt" height="30pt"
 viewBox="0.00 0.00 432.00 30.00" xmlns="http://www.w3.org/2000/svg" xmlns:xlink="http://www.w3.org/1999/xlink">
<g id="graph1" class="graph" transform="scale(1 1) rotate(0) translate(4 26)">
<title>G</title>
<!-- Node1 -->
<g id="node1" class="node"><title>Node1</title>
<polygon fill="#bfbfbf" stroke="black" points="0,-0.5 0,-21.5 214,-21.5 214,-0.5 0,-0.5"/>
<text text-anchor="middle" x="107" y="-8.5" font-family="FreeSans.ttf" font-size="10.00">corecvs::SpatialGradient::SpatialGradient</text>
</g>
<!-- Node2 -->
<g id="node3" class="node"><title>Node2</title>
<a xlink:href="classcorecvs_1_1AbstractBuffer.html#a98f72526738a0c4ce8a0b72a3b5c28b9" target="_top" xlink:title="The element getter.">
<polygon fill="none" stroke="black" points="250,-0.5 250,-21.5 424,-21.5 424,-0.5 250,-0.5"/>
<text text-anchor="middle" x="337" y="-8.5" font-family="FreeSans.ttf" font-size="10.00">corecvs::AbstractBuffer::element</text>
</a>
</g>
<!-- Node1&#45;&gt;Node2 -->
<g id="edge2" class="edge"><title>Node1&#45;&gt;Node2</title>
<path fill="none" stroke="midnightblue" d="M214.256,-4.26362C222.749,-4.2337 231.298,-4.25307 239.717,-4.32171"/>
<polygon fill="midnightblue" stroke="midnightblue" points="239.873,-7.82347 249.91,-4.42988 239.948,-0.823863 239.873,-7.82347"/>
</g>
<!-- Node1&#45;&gt;Node2 -->
<g id="edge4" class="edge"><title>Node1&#45;&gt;Node2</title>
<path fill="none" stroke="midnightblue" d="M214.256,-17.7364C222.749,-17.7663 231.298,-17.7469 239.717,-17.6783"/>
<polygon fill="midnightblue" stroke="midnightblue" points="239.948,-21.1761 249.91,-17.5701 239.873,-14.1765 239.948,-21.1761"/>
</g>
</g>
</svg>
