<?xml version="1.0" encoding="UTF-8" standalone="no"?>
<!DOCTYPE svg PUBLIC "-//W3C//DTD SVG 1.1//EN"
 "http://www.w3.org/Graphics/SVG/1.1/DTD/svg11.dtd">
<!-- Generated by graphviz version 2.26.3 (20100126.1600)
 -->
<!-- Title: G Pages: 1 -->
<!--zoomable 305 -->
<svg id="main" version="1.1" xmlns="http://www.w3.org/2000/svg" xmlns:xlink="http://www.w3.org/1999/xlink" xml:space="preserve" onload="init(evt)">
        <defs>
                <circle id="rim" cx="0" cy="0" r="7"/>
                <circle id="rim2" cx="0" cy="0" r="3.5"/>
                <g id="zoomPlus">
                        <use xlink:href="#rim" fill="#404040">
                                <set attributeName="fill" to="#808080" begin="zoomplus.mouseover" end="zoomplus.mouseout"/>
                        </use>
                        <path d="M-4,0h8M0,-4v8" fill="none" stroke="white" stroke-width="1.5" pointer-events="none"/>
                </g>
                <g id="zoomMin">
                        <use xlink:href="#rim" fill="#404040">
                                <set attributeName="fill" to="#808080" begin="zoomminus.mouseover" end="zoomminus.mouseout"/>
                        </use>
                        <path d="M-4,0h8" fill="none" stroke="white" stroke-width="1.5" pointer-events="none"/>
                </g>
                <g id="dirArrow">
                        <path fill="none" stroke="white" stroke-width="1.5" d="M0,-3.0v7 M-2.5,-0.5L0,-3.0L2.5,-0.5"/>
                </g>
               <g id="resetDef">
                       <use xlink:href="#rim2" fill="#404040">
                               <set attributeName="fill" to="#808080" begin="reset.mouseover" end="reset.mouseout"/>
                       </use>
               </g>
        </defs>

<script type="text/javascript">
var viewWidth = 2072;
var viewHeight = 305;
var sectionId = 'dynsection-1';
</script>
<script xlink:href="svgpan.js"/>
<svg id="graph" class="graph">
<g id="viewport">
<title>G</title>
<!-- Node1 -->
<g id="node1" class="node"><title>Node1</title>
<polygon fill="#bfbfbf" stroke="black" points="1958,-248.5 1958,-269.5 2064,-269.5 2064,-248.5 1958,-248.5"/>
<text text-anchor="middle" x="2011" y="-256.5" font-family="FreeSans.ttf" font-size="10.00">TxtPinPresentation</text>
</g>
<!-- Node2 -->
<g id="node2" class="node"><title>Node2</title>
<a xlink:href="classFilterPinPresentation.html" target="_top" xlink:title="FilterPinPresentation">
<polygon fill="none" stroke="black" points="1806,-195.5 1806,-216.5 1920,-216.5 1920,-195.5 1806,-195.5"/>
<text text-anchor="middle" x="1863" y="-203.5" font-family="FreeSans.ttf" font-size="10.00">FilterPinPresentation</text>
</a>
</g>
<!-- Node2&#45;&gt;Node1 -->
<g id="edge2" class="edge"><title>Node2&#45;&gt;Node1</title>
<path fill="none" stroke="midnightblue" d="M1902.1,-220.003C1926.98,-228.912 1958.68,-240.265 1981.46,-248.42"/>
<polygon fill="midnightblue" stroke="midnightblue" points="1903.19,-216.674 1892.59,-216.598 1900.83,-223.265 1903.19,-216.674"/>
</g>
<!-- Node3 -->
<g id="node4" class="node"><title>Node3</title>
<a xlink:href="classDiagramItem.html" target="_top" xlink:title="[0]">
<polygon fill="none" stroke="black" points="1636,-195.5 1636,-216.5 1716,-216.5 1716,-195.5 1636,-195.5"/>
<text text-anchor="middle" x="1676" y="-203.5" font-family="FreeSans.ttf" font-size="10.00">DiagramItem</text>
</a>
</g>
<!-- Node3&#45;&gt;Node2 -->
<g id="edge4" class="edge"><title>Node3&#45;&gt;Node2</title>
<path fill="none" stroke="midnightblue" d="M1726.3,-206C1750.86,-206 1780.52,-206 1805.92,-206"/>
<polygon fill="midnightblue" stroke="midnightblue" points="1726.12,-202.5 1716.12,-206 1726.12,-209.5 1726.12,-202.5"/>
</g>
<!-- Node4 -->
<g id="node6" class="node"><title>Node4</title>
<a xlink:href="classDiagramScene.html" target="_top" xlink:title="DiagramScene">
<polygon fill="none" stroke="black" points="1632,-235.5 1632,-256.5 1720,-256.5 1720,-235.5 1632,-235.5"/>
<text text-anchor="middle" x="1676" y="-243.5" font-family="FreeSans.ttf" font-size="10.00">DiagramScene</text>
</a>
</g>
<!-- Node4&#45;&gt;Node2 -->
<g id="edge6" class="edge"><title>Node4&#45;&gt;Node2</title>
<path fill="none" stroke="#9a32cd" stroke-dasharray="5,2" d="M1730.16,-234.416C1756.54,-228.772 1788.04,-222.035 1813.74,-216.537"/>
<polygon fill="#9a32cd" stroke="#9a32cd" points="1729.36,-231.006 1720.32,-236.521 1730.83,-237.851 1729.36,-231.006"/>
<text text-anchor="middle" x="1763" y="-235" font-family="FreeSans.ttf" font-size="10.00"> scene</text>
</g>
<!-- Node5 -->
<g id="node8" class="node"><title>Node5</title>
<a xlink:href="classDiagramTextItem.html" target="_top" xlink:title="DiagramTextItem">
<polygon fill="none" stroke="black" points="1449,-235.5 1449,-256.5 1547,-256.5 1547,-235.5 1449,-235.5"/>
<text text-anchor="middle" x="1498" y="-243.5" font-family="FreeSans.ttf" font-size="10.00">DiagramTextItem</text>
</a>
</g>
<!-- Node5&#45;&gt;Node1 -->
<g id="edge56" class="edge"><title>Node5&#45;&gt;Node1</title>
<path fill="none" stroke="#9a32cd" stroke-dasharray="5,2" d="M1546.92,-258.819C1554.6,-260.463 1562.48,-261.94 1570,-263 1597.32,-266.853 1604.42,-265.333 1632,-266 1748.28,-268.812 1884.66,-264.404 1957.96,-261.406"/>
<polygon fill="#9a32cd" stroke="#9a32cd" points="1547.51,-255.365 1536.99,-256.581 1545.97,-262.194 1547.51,-255.365"/>
<text text-anchor="middle" x="1763" y="-270" font-family="FreeSans.ttf" font-size="10.00"> textItem</text>
</g>
<!-- Node5&#45;&gt;Node2 -->
<g id="edge52" class="edge"><title>Node5&#45;&gt;Node2</title>
<path fill="none" stroke="#9a32cd" stroke-dasharray="5,2" d="M1520.06,-229.425C1545.49,-211.454 1589.29,-183.88 1632,-173 1704.43,-154.551 1792.44,-179.835 1835.96,-195.398"/>
<polygon fill="#9a32cd" stroke="#9a32cd" points="1517.93,-226.649 1511.87,-235.339 1522.02,-232.326 1517.93,-226.649"/>
<text text-anchor="middle" x="1676" y="-177" font-family="FreeSans.ttf" font-size="10.00"> pinNameItem</text>
</g>
<!-- Node5&#45;&gt;Node4 -->
<g id="edge8" class="edge"><title>Node5&#45;&gt;Node4</title>
<path fill="none" stroke="#9a32cd" stroke-dasharray="5,2" d="M1557.32,-246C1581.68,-246 1609.4,-246 1631.91,-246"/>
<polygon fill="#9a32cd" stroke="#9a32cd" points="1557.11,-242.5 1547.11,-246 1557.11,-249.5 1557.11,-242.5"/>
<text text-anchor="middle" x="1592" y="-250" font-family="FreeSans.ttf" font-size="10.00"> textItem</text>
</g>
<!-- Node6 -->
<g id="node10" class="node"><title>Node6</title>
<a xlink:href="classcorecvs_1_1FilterGraph.html" target="_top" xlink:title="corecvs::FilterGraph">
<polygon fill="none" stroke="black" points="1260.5,-47.5 1260.5,-68.5 1371.5,-68.5 1371.5,-47.5 1260.5,-47.5"/>
<text text-anchor="middle" x="1316" y="-55.5" font-family="FreeSans.ttf" font-size="10.00">corecvs::FilterGraph</text>
</a>
</g>
<!-- Node6&#45;&gt;Node4 -->
<g id="edge10" class="edge"><title>Node6&#45;&gt;Node4</title>
<path fill="none" stroke="#9a32cd" stroke-dasharray="5,2" d="M1321.32,-78.4439C1333.98,-122.331 1370.47,-224.91 1444,-266 1511.23,-303.568 1606.87,-274.149 1651.41,-256.636"/>
<polygon fill="#9a32cd" stroke="#9a32cd" points="1324.64,-77.331 1318.61,-68.6237 1317.9,-79.1947 1324.64,-77.331"/>
<text text-anchor="middle" x="1498" y="-288" font-family="FreeSans.ttf" font-size="10.00"> filterGraph</text>
</g>
<!-- Node6&#45;&gt;Node6 -->
<g id="edge36" class="edge"><title>Node6&#45;&gt;Node6</title>
<path fill="none" stroke="#9a32cd" stroke-dasharray="5,2" d="M1299.15,-78.7934C1300.64,-83.5291 1306.25,-87 1316,-87 1331.99,-87 1336.86,-77.6531 1330.62,-68.7079"/>
<polygon fill="#9a32cd" stroke="#9a32cd" points="1302.64,-79.2277 1301.38,-68.7079 1295.81,-77.7161 1302.64,-79.2277"/>
<text text-anchor="middle" x="1316" y="-91" font-family="FreeSans.ttf" font-size="10.00"> parent</text>
</g>
<!-- Node19 -->
<g id="node40" class="node"><title>Node19</title>
<a xlink:href="classcorecvs_1_1FilterBlock.html" target="_top" xlink:title="corecvs::FilterBlock">
<polygon fill="none" stroke="black" points="1444.5,-47.5 1444.5,-68.5 1551.5,-68.5 1551.5,-47.5 1444.5,-47.5"/>
<text text-anchor="middle" x="1498" y="-55.5" font-family="FreeSans.ttf" font-size="10.00">corecvs::FilterBlock</text>
</a>
</g>
<!-- Node6&#45;&gt;Node19 -->
<g id="edge46" class="edge"><title>Node6&#45;&gt;Node19</title>
<path fill="none" stroke="#9a32cd" stroke-dasharray="5,2" d="M1381.82,-58C1402.34,-58 1424.72,-58 1444.31,-58"/>
<polygon fill="#9a32cd" stroke="#9a32cd" points="1381.59,-54.5001 1371.59,-58 1381.59,-61.5001 1381.59,-54.5001"/>
<text text-anchor="middle" x="1408" y="-62" font-family="FreeSans.ttf" font-size="10.00"> parent</text>
</g>
<!-- Node7 -->
<g id="node12" class="node"><title>Node7</title>
<a xlink:href="classcorecvs_1_1FiltersCollection.html" target="_top" xlink:title="corecvs::FiltersCollection">
<polygon fill="none" stroke="black" points="1034,-108.5 1034,-129.5 1168,-129.5 1168,-108.5 1034,-108.5"/>
<text text-anchor="middle" x="1101" y="-116.5" font-family="FreeSans.ttf" font-size="10.00">corecvs::FiltersCollection</text>
</a>
</g>
<!-- Node7&#45;&gt;Node6 -->
<g id="edge12" class="edge"><title>Node7&#45;&gt;Node6</title>
<path fill="none" stroke="#9a32cd" stroke-dasharray="5,2" d="M1148.09,-105.641C1187.43,-94.4791 1242.75,-78.7825 1278.98,-68.5036"/>
<polygon fill="#9a32cd" stroke="#9a32cd" points="1147.12,-102.278 1138.45,-108.375 1149.03,-109.012 1147.12,-102.278"/>
<text text-anchor="middle" x="1217" y="-97" font-family="FreeSans.ttf" font-size="10.00"> collection</text>
</g>
<!-- Node8 -->
<g id="node14" class="node"><title>Node8</title>
<polygon fill="none" stroke="#bfbfbf" points="724,-122.5 724,-143.5 910,-143.5 910,-122.5 724,-122.5"/>
<text text-anchor="middle" x="817" y="-130.5" font-family="FreeSans.ttf" font-size="10.00">std::vector&lt; CompoundFilterType &gt;</text>
</g>
<!-- Node8&#45;&gt;Node7 -->
<g id="edge14" class="edge"><title>Node8&#45;&gt;Node7</title>
<path fill="none" stroke="#9a32cd" stroke-dasharray="5,2" d="M920.404,-127.903C958.156,-126.042 999.846,-123.986 1033.65,-122.32"/>
<polygon fill="#9a32cd" stroke="#9a32cd" points="920.201,-124.408 910.386,-128.396 920.546,-131.4 920.201,-124.408"/>
<text text-anchor="middle" x="969" y="-131" font-family="FreeSans.ttf" font-size="10.00"> compoundFilters</text>
</g>
<!-- Node9 -->
<g id="node16" class="node"><title>Node9</title>
<a xlink:href="classcorecvs_1_1FiltersCollection_1_1CompoundFilterType.html" target="_top" xlink:title="corecvs::FiltersCollection::CompoundFilterType">
<polygon fill="none" stroke="black" points="390,-129.5 390,-150.5 626,-150.5 626,-129.5 390,-129.5"/>
<text text-anchor="middle" x="508" y="-137.5" font-family="FreeSans.ttf" font-size="10.00">corecvs::FiltersCollection::CompoundFilterType</text>
</a>
</g>
<!-- Node9&#45;&gt;Node8 -->
<g id="edge16" class="edge"><title>Node9&#45;&gt;Node8</title>
<path fill="none" stroke="#9a32cd" stroke-dasharray="5,2" d="M636.453,-137.09C665.775,-136.426 696.386,-135.732 723.895,-135.109"/>
<polygon fill="#9a32cd" stroke="#9a32cd" points="636.06,-133.598 626.142,-137.324 636.219,-140.596 636.06,-133.598"/>
<text text-anchor="middle" x="675" y="-140" font-family="FreeSans.ttf" font-size="10.00"> elements</text>
</g>
<!-- Node10 -->
<g id="node18" class="node"><title>Node10</title>
<polygon fill="none" stroke="#bfbfbf" points="187.5,-169.5 187.5,-190.5 274.5,-190.5 274.5,-169.5 187.5,-169.5"/>
<text text-anchor="middle" x="231" y="-177.5" font-family="FreeSans.ttf" font-size="10.00">std::set&lt; int &gt;</text>
</g>
<!-- Node10&#45;&gt;Node9 -->
<g id="edge18" class="edge"><title>Node10&#45;&gt;Node9</title>
<path fill="none" stroke="#9a32cd" stroke-dasharray="5,2" d="M284.524,-172.271C327.329,-166.09 387.783,-157.36 435.022,-150.538"/>
<polygon fill="#9a32cd" stroke="#9a32cd" points="283.983,-168.813 274.586,-173.706 284.984,-175.741 283.983,-168.813"/>
<text text-anchor="middle" x="338" y="-186" font-family="FreeSans.ttf" font-size="10.00"> dependOnMe</text>
<text text-anchor="middle" x="338" y="-173" font-family="FreeSans.ttf" font-size="10.00">contain</text>
</g>
<!-- Node11 -->
<g id="node20" class="node"><title>Node11</title>
<a xlink:title="STL class.">
<polygon fill="none" stroke="#bfbfbf" points="198.5,-87.5 198.5,-108.5 263.5,-108.5 263.5,-87.5 198.5,-87.5"/>
<text text-anchor="middle" x="231" y="-95.5" font-family="FreeSans.ttf" font-size="10.00">std::string</text>
</a>
</g>
<!-- Node11&#45;&gt;Node9 -->
<g id="edge20" class="edge"><title>Node11&#45;&gt;Node9</title>
<path fill="none" stroke="#9a32cd" stroke-dasharray="5,2" d="M273.641,-104.465C317.546,-111.123 386.676,-121.604 438.497,-129.462"/>
<polygon fill="#9a32cd" stroke="#9a32cd" points="274.002,-100.98 263.59,-102.941 272.952,-107.901 274.002,-100.98"/>
<text text-anchor="middle" x="338" y="-136" font-family="FreeSans.ttf" font-size="10.00"> name</text>
<text text-anchor="middle" x="338" y="-123" font-family="FreeSans.ttf" font-size="10.00">filename</text>
</g>
<!-- Node13 -->
<g id="node24" class="node"><title>Node13</title>
<a xlink:href="classcorecvs_1_1Statistics.html" target="_top" xlink:title="corecvs::Statistics">
<polygon fill="none" stroke="black" points="765,-45.5 765,-66.5 869,-66.5 869,-45.5 765,-45.5"/>
<text text-anchor="middle" x="817" y="-53.5" font-family="FreeSans.ttf" font-size="10.00">corecvs::Statistics</text>
</a>
</g>
<!-- Node11&#45;&gt;Node13 -->
<g id="edge34" class="edge"><title>Node11&#45;&gt;Node13</title>
<path fill="none" stroke="#9a32cd" stroke-dasharray="5,2" d="M273.708,-96.9288C357.02,-94.559 546.993,-87.7806 706,-72 725.278,-70.0868 746.339,-67.2437 764.884,-64.4827"/>
<polygon fill="#9a32cd" stroke="#9a32cd" points="273.513,-93.4327 263.614,-97.209 273.708,-100.43 273.513,-93.4327"/>
<text text-anchor="middle" x="508" y="-97" font-family="FreeSans.ttf" font-size="10.00"> prefix</text>
</g>
<!-- Node15 -->
<g id="node28" class="node"><title>Node15</title>
<polygon fill="none" stroke="#bfbfbf" points="426,-40.5 426,-61.5 590,-61.5 590,-40.5 426,-40.5"/>
<text text-anchor="middle" x="508" y="-48.5" font-family="FreeSans.ttf" font-size="10.00">std::map&lt; string, SingleStat &gt;</text>
</g>
<!-- Node11&#45;&gt;Node15 -->
<g id="edge32" class="edge"><title>Node11&#45;&gt;Node15</title>
<path fill="none" stroke="#9a32cd" stroke-dasharray="5,2" d="M264.25,-83.6551C276.531,-78.9059 290.699,-74.0581 304,-71 343.537,-61.9096 388.315,-56.9493 425.826,-54.2433"/>
<polygon fill="#9a32cd" stroke="#9a32cd" points="262.846,-80.4469 254.858,-87.4067 265.443,-86.9475 262.846,-80.4469"/>
<text text-anchor="middle" x="338" y="-75" font-family="FreeSans.ttf" font-size="10.00"> keys</text>
</g>
<!-- Node12 -->
<g id="node22" class="node"><title>Node12</title>
<a xlink:title="STL class.">
<polygon fill="none" stroke="#bfbfbf" points="0,-87.5 0,-108.5 138,-108.5 138,-87.5 0,-87.5"/>
<text text-anchor="middle" x="69" y="-95.5" font-family="FreeSans.ttf" font-size="10.00">std::basic_string&lt; char &gt;</text>
</a>
</g>
<!-- Node12&#45;&gt;Node11 -->
<g id="edge22" class="edge"><title>Node12&#45;&gt;Node11</title>
<path fill="none" stroke="midnightblue" d="M148.477,-98C166.039,-98 183.696,-98 198.145,-98"/>
<polygon fill="midnightblue" stroke="midnightblue" points="148.173,-94.5001 138.172,-98 148.172,-101.5 148.173,-94.5001"/>
</g>
<!-- Node13&#45;&gt;Node6 -->
<g id="edge24" class="edge"><title>Node13&#45;&gt;Node6</title>
<path fill="none" stroke="#9a32cd" stroke-dasharray="5,2" d="M879.54,-56.2507C977.787,-56.6444 1166.73,-57.4017 1260.46,-57.7774"/>
<polygon fill="#9a32cd" stroke="#9a32cd" points="879.473,-52.7505 869.459,-56.2103 879.444,-59.7504 879.473,-52.7505"/>
<text text-anchor="middle" x="1101" y="-62" font-family="FreeSans.ttf" font-size="10.00"> stats</text>
</g>
<!-- Node14 -->
<g id="node26" class="node"><title>Node14</title>
<a xlink:href="classcorecvs_1_1PreciseTimer.html" target="_top" xlink:title="corecvs::PreciseTimer">
<polygon fill="none" stroke="black" points="447.5,-0.5 447.5,-21.5 568.5,-21.5 568.5,-0.5 447.5,-0.5"/>
<text text-anchor="middle" x="508" y="-8.5" font-family="FreeSans.ttf" font-size="10.00">corecvs::PreciseTimer</text>
</a>
</g>
<!-- Node14&#45;&gt;Node13 -->
<g id="edge26" class="edge"><title>Node14&#45;&gt;Node13</title>
<path fill="none" stroke="#9a32cd" stroke-dasharray="5,2" d="M579.131,-19.6597C616.876,-24.4266 664.012,-30.6521 706,-37 725.235,-39.908 746.286,-43.4257 764.836,-46.6399"/>
<polygon fill="#9a32cd" stroke="#9a32cd" points="579.105,-16.1289 568.746,-18.3549 578.232,-23.0743 579.105,-16.1289"/>
<text text-anchor="middle" x="675" y="-41" font-family="FreeSans.ttf" font-size="10.00"> helperTimer</text>
</g>
<!-- Node15&#45;&gt;Node13 -->
<g id="edge28" class="edge"><title>Node15&#45;&gt;Node13</title>
<path fill="none" stroke="#9a32cd" stroke-dasharray="5,2" d="M600.634,-52.4989C654.38,-53.3686 720.09,-54.4319 764.898,-55.1569"/>
<polygon fill="#9a32cd" stroke="#9a32cd" points="600.456,-48.9957 590.4,-52.3333 600.342,-55.9948 600.456,-48.9957"/>
<text text-anchor="middle" x="675" y="-59" font-family="FreeSans.ttf" font-size="10.00"> values</text>
</g>
<!-- Node16 -->
<g id="node30" class="node"><title>Node16</title>
<a xlink:href="structcorecvs_1_1SingleStat.html" target="_top" xlink:title="corecvs::SingleStat">
<polygon fill="none" stroke="black" points="176.5,-23.5 176.5,-44.5 285.5,-44.5 285.5,-23.5 176.5,-23.5"/>
<text text-anchor="middle" x="231" y="-31.5" font-family="FreeSans.ttf" font-size="10.00">corecvs::SingleStat</text>
</a>
</g>
<!-- Node16&#45;&gt;Node15 -->
<g id="edge30" class="edge"><title>Node16&#45;&gt;Node15</title>
<path fill="none" stroke="#9a32cd" stroke-dasharray="5,2" d="M295.674,-32.968C319.666,-32.9775 347.094,-33.4513 372,-35 391.22,-36.1951 411.892,-38.2357 431.174,-40.4672"/>
<polygon fill="#9a32cd" stroke="#9a32cd" points="295.611,-29.468 285.619,-32.9905 295.627,-36.468 295.611,-29.468"/>
<text text-anchor="middle" x="338" y="-39" font-family="FreeSans.ttf" font-size="10.00"> elements</text>
</g>
<!-- Node17 -->
<g id="node35" class="node"><title>Node17</title>
<polygon fill="none" stroke="#bfbfbf" points="1806.5,-20.5 1806.5,-41.5 1919.5,-41.5 1919.5,-20.5 1806.5,-20.5"/>
<text text-anchor="middle" x="1863" y="-28.5" font-family="FreeSans.ttf" font-size="10.00">std::vector&lt; Pin * &gt;</text>
</g>
<!-- Node17&#45;&gt;Node6 -->
<g id="edge38" class="edge"><title>Node17&#45;&gt;Node6</title>
<path fill="none" stroke="#9a32cd" stroke-dasharray="5,2" d="M1796.49,-20.845C1737.05,-13.162 1647.63,-5.0272 1570,-12 1495.91,-18.6552 1411.1,-36.0211 1360.63,-47.4089"/>
<polygon fill="#9a32cd" stroke="#9a32cd" points="1796.12,-24.3268 1806.49,-22.1708 1797.04,-17.3875 1796.12,-24.3268"/>
<text text-anchor="middle" x="1592" y="-29" font-family="FreeSans.ttf" font-size="10.00"> outputs</text>
<text text-anchor="middle" x="1592" y="-16" font-family="FreeSans.ttf" font-size="10.00">inputs</text>
</g>
<!-- Node17&#45;&gt;Node19 -->
<g id="edge48" class="edge"><title>Node17&#45;&gt;Node19</title>
<path fill="none" stroke="#9a32cd" stroke-dasharray="5,2" d="M1796.24,-31.9319C1750.05,-32.9852 1687.2,-35.2277 1632,-40 1605.46,-42.2946 1576.11,-46.0928 1551.66,-49.6102"/>
<polygon fill="#9a32cd" stroke="#9a32cd" points="1796.5,-35.4271 1806.42,-31.7127 1796.35,-28.4288 1796.5,-35.4271"/>
<text text-anchor="middle" x="1676" y="-57" font-family="FreeSans.ttf" font-size="10.00"> outputPins</text>
<text text-anchor="middle" x="1676" y="-44" font-family="FreeSans.ttf" font-size="10.00">inputPins</text>
</g>
<!-- Node18 -->
<g id="node37" class="node"><title>Node18</title>
<a xlink:href="classcorecvs_1_1Pin.html" target="_top" xlink:title="corecvs::Pin">
<polygon fill="none" stroke="black" points="1639,-75.5 1639,-96.5 1713,-96.5 1713,-75.5 1639,-75.5"/>
<text text-anchor="middle" x="1676" y="-83.5" font-family="FreeSans.ttf" font-size="10.00">corecvs::Pin</text>
</a>
</g>
<!-- Node18&#45;&gt;Node2 -->
<g id="edge54" class="edge"><title>Node18&#45;&gt;Node2</title>
<path fill="none" stroke="#9a32cd" stroke-dasharray="5,2" d="M1715.34,-100.338C1737.57,-109.3 1765.35,-121.983 1788,-137 1813.95,-154.209 1839.67,-180.369 1853.21,-195.038"/>
<polygon fill="#9a32cd" stroke="#9a32cd" points="1716.45,-97.0163 1705.87,-96.6081 1713.89,-103.529 1716.45,-97.0163"/>
<text text-anchor="middle" x="1763" y="-141" font-family="FreeSans.ttf" font-size="10.00"> mPin</text>
</g>
<!-- Node18&#45;&gt;Node17 -->
<g id="edge40" class="edge"><title>Node18&#45;&gt;Node17</title>
<path fill="none" stroke="#9a32cd" stroke-dasharray="5,2" d="M1721.76,-72.5422C1754.18,-63.0052 1797.08,-50.3889 1827.06,-41.572"/>
<polygon fill="#9a32cd" stroke="#9a32cd" points="1720.66,-69.2159 1712.06,-75.3954 1722.64,-75.9315 1720.66,-69.2159"/>
<text text-anchor="middle" x="1763" y="-71" font-family="FreeSans.ttf" font-size="10.00"> elements</text>
</g>
<!-- Node18&#45;&gt;Node18 -->
<g id="edge42" class="edge"><title>Node18&#45;&gt;Node18</title>
<path fill="none" stroke="#9a32cd" stroke-dasharray="5,2" d="M1660.62,-106.793C1661.97,-111.529 1667.1,-115 1676,-115 1690.6,-115 1695.05,-105.653 1689.35,-96.7079"/>
<polygon fill="#9a32cd" stroke="#9a32cd" points="1664.1,-107.203 1662.65,-96.7079 1657.24,-105.817 1664.1,-107.203"/>
<text text-anchor="middle" x="1676" y="-119" font-family="FreeSans.ttf" font-size="10.00"> takeFrom</text>
</g>
<!-- Node19&#45;&gt;Node18 -->
<g id="edge44" class="edge"><title>Node19&#45;&gt;Node18</title>
<path fill="none" stroke="#9a32cd" stroke-dasharray="5,2" d="M1561.99,-68.0656C1587.81,-72.1279 1616.7,-76.6712 1638.93,-80.1685"/>
<polygon fill="#9a32cd" stroke="#9a32cd" points="1562.31,-64.5734 1551.89,-66.4769 1561.22,-71.4884 1562.31,-64.5734"/>
<text text-anchor="middle" x="1592" y="-81" font-family="FreeSans.ttf" font-size="10.00"> parent</text>
</g>
<!-- Node20 -->
<g id="node44" class="node"><title>Node20</title>
<polygon fill="none" stroke="#bfbfbf" points="1028,-0.5 1028,-21.5 1174,-21.5 1174,-0.5 1028,-0.5"/>
<text text-anchor="middle" x="1101" y="-8.5" font-family="FreeSans.ttf" font-size="10.00">std::vector&lt; FilterBlock * &gt;</text>
</g>
<!-- Node20&#45;&gt;Node6 -->
<g id="edge50" class="edge"><title>Node20&#45;&gt;Node6</title>
<path fill="none" stroke="#9a32cd" stroke-dasharray="5,2" d="M1183.95,-19.8227C1203.16,-22.6766 1223.41,-26.3457 1242,-31 1258.72,-35.1859 1276.9,-41.792 1291.06,-47.4219"/>
<polygon fill="#9a32cd" stroke="#9a32cd" points="1184.41,-16.3528 1174.02,-18.4036 1183.42,-23.2825 1184.41,-16.3528"/>
<text text-anchor="middle" x="1217" y="-35" font-family="FreeSans.ttf" font-size="10.00"> blocks</text>
</g>
</g>
</svg>
        <g id="navigator" transform="translate(0 0)" fill="#404254">
                <rect fill="#f2f5e9" fill-opacity="0.5" stroke="#606060" stroke-width=".5" x="0" y="0" width="60" height="60"/>
                <use id="zoomplus" xlink:href="#zoomPlus" x="17" y="9" onmousedown="handleZoom(evt,'in')"/>
                <use id="zoomminus" xlink:href="#zoomMin" x="42" y="9" onmousedown="handleZoom(evt,'out')"/>
                <use id="reset" xlink:href="#resetDef" x="30" y="36" onmousedown="handleReset()"/>
                <g id="arrowUp" xlink:href="#dirArrow" transform="translate(30 24)" onmousedown="handlePan(0,-1)">
                  <use xlink:href="#rim" fill="#404040">
                        <set attributeName="fill" to="#808080" begin="arrowUp.mouseover" end="arrowUp.mouseout"/>
                  </use>
                  <path fill="none" stroke="white" stroke-width="1.5" d="M0,-3.0v7 M-2.5,-0.5L0,-3.0L2.5,-0.5"/>
                </g>
                <g id="arrowRight" xlink:href="#dirArrow" transform="rotate(90) translate(36 -43)" onmousedown="handlePan(1,0)">
                  <use xlink:href="#rim" fill="#404040">
                        <set attributeName="fill" to="#808080" begin="arrowRight.mouseover" end="arrowRight.mouseout"/>
                  </use>
                  <path fill="none" stroke="white" stroke-width="1.5" d="M0,-3.0v7 M-2.5,-0.5L0,-3.0L2.5,-0.5"/>
                </g>
                <g id="arrowDown" xlink:href="#dirArrow" transform="rotate(180) translate(-30 -48)" onmousedown="handlePan(0,1)">
                  <use xlink:href="#rim" fill="#404040">
                        <set attributeName="fill" to="#808080" begin="arrowDown.mouseover" end="arrowDown.mouseout"/>
                  </use>
                  <path fill="none" stroke="white" stroke-width="1.5" d="M0,-3.0v7 M-2.5,-0.5L0,-3.0L2.5,-0.5"/>
                </g>
                <g id="arrowLeft" xlink:href="#dirArrow" transform="rotate(270) translate(-36 17)" onmousedown="handlePan(-1,0)">
                  <use xlink:href="#rim" fill="#404040">
                        <set attributeName="fill" to="#808080" begin="arrowLeft.mouseover" end="arrowLeft.mouseout"/>
                  </use>
                  <path fill="none" stroke="white" stroke-width="1.5" d="M0,-3.0v7 M-2.5,-0.5L0,-3.0L2.5,-0.5"/>
                </g>
        </g>
</svg>
