<?xml version="1.0" encoding="UTF-8" standalone="no"?>
<!DOCTYPE svg PUBLIC "-//W3C//DTD SVG 1.1//EN"
 "http://www.w3.org/Graphics/SVG/1.1/DTD/svg11.dtd">
<!-- Generated by graphviz version 2.26.3 (20100126.1600)
 -->
<!-- Title: G Pages: 1 -->
<!--zoomable 150 -->
<svg id="main" version="1.1" xmlns="http://www.w3.org/2000/svg" xmlns:xlink="http://www.w3.org/1999/xlink" xml:space="preserve" onload="init(evt)">
        <defs>
                <circle id="rim" cx="0" cy="0" r="7"/>
                <circle id="rim2" cx="0" cy="0" r="3.5"/>
                <g id="zoomPlus">
                        <use xlink:href="#rim" fill="#404040">
                                <set attributeName="fill" to="#808080" begin="zoomplus.mouseover" end="zoomplus.mouseout"/>
                        </use>
                        <path d="M-4,0h8M0,-4v8" fill="none" stroke="white" stroke-width="1.5" pointer-events="none"/>
                </g>
                <g id="zoomMin">
                        <use xlink:href="#rim" fill="#404040">
                                <set attributeName="fill" to="#808080" begin="zoomminus.mouseover" end="zoomminus.mouseout"/>
                        </use>
                        <path d="M-4,0h8" fill="none" stroke="white" stroke-width="1.5" pointer-events="none"/>
                </g>
                <g id="dirArrow">
                        <path fill="none" stroke="white" stroke-width="1.5" d="M0,-3.0v7 M-2.5,-0.5L0,-3.0L2.5,-0.5"/>
                </g>
               <g id="resetDef">
                       <use xlink:href="#rim2" fill="#404040">
                               <set attributeName="fill" to="#808080" begin="reset.mouseover" end="reset.mouseout"/>
                       </use>
               </g>
        </defs>

<script type="text/javascript">
var viewWidth = 1034;
var viewHeight = 150;
var sectionId = 'dynsection-7';
</script>
<script xlink:href="svgpan.js"/>
<svg id="graph" class="graph">
<g id="viewport">
<title>G</title>
<!-- Node1 -->
<g id="node1" class="node"><title>Node1</title>
<polygon fill="#bfbfbf" stroke="black" points="0.5,-40.5 0.5,-61.5 255.5,-61.5 255.5,-40.5 0.5,-40.5"/>
<text text-anchor="middle" x="128" y="-48.5" font-family="FreeSans.ttf" font-size="10.00">CameraCalculatorWidget::objectDistanceChanged</text>
</g>
<!-- Node2 -->
<g id="node3" class="node"><title>Node2</title>
<a xlink:href="classCameraCalculatorWidget.html#a28b8b0ab4b6e03529df4052196f4ad4c" target="_top" xlink:title="CameraCalculatorWidget::getPixelWidth">
<polygon fill="none" stroke="black" points="582.5,-40.5 582.5,-61.5 787.5,-61.5 787.5,-40.5 582.5,-40.5"/>
<text text-anchor="middle" x="685" y="-48.5" font-family="FreeSans.ttf" font-size="10.00">CameraCalculatorWidget::getPixelWidth</text>
</a>
</g>
<!-- Node1&#45;&gt;Node2 -->
<g id="edge2" class="edge"><title>Node1&#45;&gt;Node2</title>
<path fill="none" stroke="midnightblue" d="M255.787,-51C351.292,-51 480.634,-51 572.297,-51"/>
<polygon fill="midnightblue" stroke="midnightblue" points="572.444,-54.5001 582.444,-51 572.443,-47.5001 572.444,-54.5001"/>
</g>
<!-- Node3 -->
<g id="node5" class="node"><title>Node3</title>
<a xlink:href="classCameraCalculatorWidget.html#a3a7f053f25db9a46230ad4e123f3a4eb" target="_top" xlink:title="CameraCalculatorWidget::setNewValue">
<polygon fill="none" stroke="black" points="307.5,-80.5 307.5,-101.5 510.5,-101.5 510.5,-80.5 307.5,-80.5"/>
<text text-anchor="middle" x="409" y="-88.5" font-family="FreeSans.ttf" font-size="10.00">CameraCalculatorWidget::setNewValue</text>
</a>
</g>
<!-- Node1&#45;&gt;Node3 -->
<g id="edge4" class="edge"><title>Node1&#45;&gt;Node3</title>
<path fill="none" stroke="midnightblue" d="M201.829,-61.5095C239.595,-66.8854 285.726,-73.4521 324.863,-79.0232"/>
<polygon fill="midnightblue" stroke="midnightblue" points="324.783,-82.547 335.176,-80.4913 325.769,-75.6169 324.783,-82.547"/>
</g>
<!-- Node7 -->
<g id="node13" class="node"><title>Node7</title>
<a xlink:href="classCameraCalculatorWidget.html#a6d1ea01407cd4510f091c4c50a93c72a" target="_top" xlink:title="CameraCalculatorWidget::updateStereoStats">
<polygon fill="none" stroke="black" points="292.5,-1.5 292.5,-22.5 525.5,-22.5 525.5,-1.5 292.5,-1.5"/>
<text text-anchor="middle" x="409" y="-9.5" font-family="FreeSans.ttf" font-size="10.00">CameraCalculatorWidget::updateStereoStats</text>
</a>
</g>
<!-- Node1&#45;&gt;Node7 -->
<g id="edge12" class="edge"><title>Node1&#45;&gt;Node7</title>
<path fill="none" stroke="midnightblue" d="M203.672,-40.4974C240.53,-35.382 285.01,-29.2085 323.134,-23.9173"/>
<polygon fill="midnightblue" stroke="midnightblue" points="323.769,-27.3629 333.192,-22.5213 322.806,-20.4294 323.769,-27.3629"/>
</g>
<!-- Node4 -->
<g id="node7" class="node"><title>Node4</title>
<a xlink:href="classCameraCalculatorWidget.html#ab41489389279916f1657ad1f0f97aaf5" target="_top" xlink:title="CameraCalculatorWidget::setValueBlocking">
<polygon fill="none" stroke="black" points="574,-80.5 574,-101.5 796,-101.5 796,-80.5 574,-80.5"/>
<text text-anchor="middle" x="685" y="-88.5" font-family="FreeSans.ttf" font-size="10.00">CameraCalculatorWidget::setValueBlocking</text>
</a>
</g>
<!-- Node3&#45;&gt;Node4 -->
<g id="edge6" class="edge"><title>Node3&#45;&gt;Node4</title>
<path fill="none" stroke="midnightblue" d="M510.596,-91C527.814,-91 545.845,-91 563.51,-91"/>
<polygon fill="midnightblue" stroke="midnightblue" points="563.86,-94.5001 573.86,-91 563.86,-87.5001 563.86,-94.5001"/>
</g>
<!-- Node5 -->
<g id="node9" class="node"><title>Node5</title>
<a xlink:href="classCameraCalculatorWidget.html#a03b4aa47cd739b4828067343e5402f1d" target="_top" xlink:title="CameraCalculatorWidget::startTimer">
<polygon fill="none" stroke="black" points="589.5,-120.5 589.5,-141.5 780.5,-141.5 780.5,-120.5 589.5,-120.5"/>
<text text-anchor="middle" x="685" y="-128.5" font-family="FreeSans.ttf" font-size="10.00">CameraCalculatorWidget::startTimer</text>
</a>
</g>
<!-- Node3&#45;&gt;Node5 -->
<g id="edge8" class="edge"><title>Node3&#45;&gt;Node5</title>
<path fill="none" stroke="midnightblue" d="M481.516,-101.51C518.609,-106.885 563.919,-113.452 602.36,-119.023"/>
<polygon fill="midnightblue" stroke="midnightblue" points="602.091,-122.521 612.49,-120.491 603.095,-115.593 602.091,-122.521"/>
</g>
<!-- Node6 -->
<g id="node11" class="node"><title>Node6</title>
<a xlink:href="classCameraCalculatorWidget.html#ab03fc7676689c8aa9ee47c36471e39fa" target="_top" xlink:title="CameraCalculatorWidget::setColor">
<polygon fill="none" stroke="black" points="844.5,-120.5 844.5,-141.5 1025.5,-141.5 1025.5,-120.5 844.5,-120.5"/>
<text text-anchor="middle" x="935" y="-128.5" font-family="FreeSans.ttf" font-size="10.00">CameraCalculatorWidget::setColor</text>
</a>
</g>
<!-- Node5&#45;&gt;Node6 -->
<g id="edge10" class="edge"><title>Node5&#45;&gt;Node6</title>
<path fill="none" stroke="midnightblue" d="M780.584,-131C798.099,-131 816.431,-131 834.095,-131"/>
<polygon fill="midnightblue" stroke="midnightblue" points="834.407,-134.5 844.407,-131 834.407,-127.5 834.407,-134.5"/>
</g>
<!-- Node7&#45;&gt;Node2 -->
<g id="edge16" class="edge"><title>Node7&#45;&gt;Node2</title>
<path fill="none" stroke="midnightblue" d="M483.326,-22.5026C519.373,-27.5963 562.845,-33.739 600.184,-39.0151"/>
<polygon fill="midnightblue" stroke="midnightblue" points="600.15,-42.545 610.541,-40.4787 601.129,-35.6139 600.15,-42.545"/>
</g>
<!-- Node8 -->
<g id="node15" class="node"><title>Node8</title>
<a xlink:href="classCameraCalculatorWidget.html#a229b1ccedfa1f8ffb4cb1aece58f7022" target="_top" xlink:title="CameraCalculatorWidget::getAlgorithmPrecision">
<polygon fill="none" stroke="black" points="562,-0.5 562,-21.5 808,-21.5 808,-0.5 562,-0.5"/>
<text text-anchor="middle" x="685" y="-8.5" font-family="FreeSans.ttf" font-size="10.00">CameraCalculatorWidget::getAlgorithmPrecision</text>
</a>
</g>
<!-- Node7&#45;&gt;Node8 -->
<g id="edge14" class="edge"><title>Node7&#45;&gt;Node8</title>
<path fill="none" stroke="midnightblue" d="M525.649,-11.5774C534.214,-11.5463 542.892,-11.5149 551.546,-11.4835"/>
<polygon fill="midnightblue" stroke="midnightblue" points="551.698,-14.9831 561.685,-11.4468 551.673,-7.98314 551.698,-14.9831"/>
</g>
</g>
</svg>
        <g id="navigator" transform="translate(0 0)" fill="#404254">
                <rect fill="#f2f5e9" fill-opacity="0.5" stroke="#606060" stroke-width=".5" x="0" y="0" width="60" height="60"/>
                <use id="zoomplus" xlink:href="#zoomPlus" x="17" y="9" onmousedown="handleZoom(evt,'in')"/>
                <use id="zoomminus" xlink:href="#zoomMin" x="42" y="9" onmousedown="handleZoom(evt,'out')"/>
                <use id="reset" xlink:href="#resetDef" x="30" y="36" onmousedown="handleReset()"/>
                <g id="arrowUp" xlink:href="#dirArrow" transform="translate(30 24)" onmousedown="handlePan(0,-1)">
                  <use xlink:href="#rim" fill="#404040">
                        <set attributeName="fill" to="#808080" begin="arrowUp.mouseover" end="arrowUp.mouseout"/>
                  </use>
                  <path fill="none" stroke="white" stroke-width="1.5" d="M0,-3.0v7 M-2.5,-0.5L0,-3.0L2.5,-0.5"/>
                </g>
                <g id="arrowRight" xlink:href="#dirArrow" transform="rotate(90) translate(36 -43)" onmousedown="handlePan(1,0)">
                  <use xlink:href="#rim" fill="#404040">
                        <set attributeName="fill" to="#808080" begin="arrowRight.mouseover" end="arrowRight.mouseout"/>
                  </use>
                  <path fill="none" stroke="white" stroke-width="1.5" d="M0,-3.0v7 M-2.5,-0.5L0,-3.0L2.5,-0.5"/>
                </g>
                <g id="arrowDown" xlink:href="#dirArrow" transform="rotate(180) translate(-30 -48)" onmousedown="handlePan(0,1)">
                  <use xlink:href="#rim" fill="#404040">
                        <set attributeName="fill" to="#808080" begin="arrowDown.mouseover" end="arrowDown.mouseout"/>
                  </use>
                  <path fill="none" stroke="white" stroke-width="1.5" d="M0,-3.0v7 M-2.5,-0.5L0,-3.0L2.5,-0.5"/>
                </g>
                <g id="arrowLeft" xlink:href="#dirArrow" transform="rotate(270) translate(-36 17)" onmousedown="handlePan(-1,0)">
                  <use xlink:href="#rim" fill="#404040">
                        <set attributeName="fill" to="#808080" begin="arrowLeft.mouseover" end="arrowLeft.mouseout"/>
                  </use>
                  <path fill="none" stroke="white" stroke-width="1.5" d="M0,-3.0v7 M-2.5,-0.5L0,-3.0L2.5,-0.5"/>
                </g>
        </g>
</svg>
