<?xml version="1.0" encoding="UTF-8" standalone="no"?>
<!DOCTYPE svg PUBLIC "-//W3C//DTD SVG 1.1//EN"
 "http://www.w3.org/Graphics/SVG/1.1/DTD/svg11.dtd">
<!-- Generated by graphviz version 2.26.3 (20100126.1600)
 -->
<!-- Title: G Pages: 1 -->
<!--zoomable 188 -->
<svg id="main" version="1.1" xmlns="http://www.w3.org/2000/svg" xmlns:xlink="http://www.w3.org/1999/xlink" xml:space="preserve" onload="init(evt)">
        <defs>
                <circle id="rim" cx="0" cy="0" r="7"/>
                <circle id="rim2" cx="0" cy="0" r="3.5"/>
                <g id="zoomPlus">
                        <use xlink:href="#rim" fill="#404040">
                                <set attributeName="fill" to="#808080" begin="zoomplus.mouseover" end="zoomplus.mouseout"/>
                        </use>
                        <path d="M-4,0h8M0,-4v8" fill="none" stroke="white" stroke-width="1.5" pointer-events="none"/>
                </g>
                <g id="zoomMin">
                        <use xlink:href="#rim" fill="#404040">
                                <set attributeName="fill" to="#808080" begin="zoomminus.mouseover" end="zoomminus.mouseout"/>
                        </use>
                        <path d="M-4,0h8" fill="none" stroke="white" stroke-width="1.5" pointer-events="none"/>
                </g>
                <g id="dirArrow">
                        <path fill="none" stroke="white" stroke-width="1.5" d="M0,-3.0v7 M-2.5,-0.5L0,-3.0L2.5,-0.5"/>
                </g>
               <g id="resetDef">
                       <use xlink:href="#rim2" fill="#404040">
                               <set attributeName="fill" to="#808080" begin="reset.mouseover" end="reset.mouseout"/>
                       </use>
               </g>
        </defs>

<script type="text/javascript">
var viewWidth = 1082;
var viewHeight = 188;
var sectionId = 'dynsection-4';
</script>
<script xlink:href="svgpan.js"/>
<svg id="graph" class="graph">
<g id="viewport">
<title>G</title>
<!-- Node1 -->
<g id="node1" class="node"><title>Node1</title>
<polygon fill="#bfbfbf" stroke="black" points="0.5,-118.5 0.5,-139.5 179.5,-139.5 179.5,-118.5 0.5,-118.5"/>
<text text-anchor="middle" x="90" y="-126.5" font-family="FreeSans.ttf" font-size="10.00">corecvs::Triangulator::getDisparity</text>
</g>
<!-- Node2 -->
<g id="node3" class="node"><title>Node2</title>
<a xlink:href="classcorecvs_1_1RectificationResult.html#a807a90dbe0d6dcf20745dca70a5d1d75" target="_top" xlink:title="corecvs::RectificationResult::getRectifiedProjectionLeft">
<polygon fill="none" stroke="black" points="219,-78.5 219,-99.5 491,-99.5 491,-78.5 219,-78.5"/>
<text text-anchor="middle" x="355" y="-86.5" font-family="FreeSans.ttf" font-size="10.00">corecvs::RectificationResult::getRectifiedProjectionLeft</text>
</a>
</g>
<!-- Node1&#45;&gt;Node2 -->
<g id="edge2" class="edge"><title>Node1&#45;&gt;Node2</title>
<path fill="none" stroke="midnightblue" d="M155.044,-118.491C174.628,-115.377 196.181,-111.999 216,-109 233.431,-106.363 252.104,-103.62 269.928,-101.041"/>
<polygon fill="midnightblue" stroke="midnightblue" points="270.91,-104.436 280.308,-99.5437 269.911,-97.5073 270.91,-104.436"/>
</g>
<!-- Node4 -->
<g id="node7" class="node"><title>Node4</title>
<a xlink:href="classcorecvs_1_1Vector2d.html#a944721c41f044c1388d9dc42ca899bce" target="_top" xlink:title="corecvs::Vector2d::x">
<polygon fill="none" stroke="black" points="793.5,-158.5 793.5,-179.5 906.5,-179.5 906.5,-158.5 793.5,-158.5"/>
<text text-anchor="middle" x="850" y="-166.5" font-family="FreeSans.ttf" font-size="10.00">corecvs::Vector2d::x</text>
</a>
</g>
<!-- Node1&#45;&gt;Node4 -->
<g id="edge26" class="edge"><title>Node1&#45;&gt;Node4</title>
<path fill="none" stroke="midnightblue" d="M146.571,-139.534C168.214,-143.154 193.178,-146.837 216,-149 422.191,-168.538 667.609,-170.163 783.329,-169.65"/>
<polygon fill="midnightblue" stroke="midnightblue" points="783.466,-173.149 793.448,-169.598 783.43,-166.149 783.466,-173.149"/>
</g>
<!-- Node11 -->
<g id="node22" class="node"><title>Node11</title>
<a xlink:href="classcorecvs_1_1RectificationResult.html#abf394eca40a26887b4384a1e906fbc7b" target="_top" xlink:title="corecvs::RectificationResult::getRectifiedProjectionRight">
<polygon fill="none" stroke="black" points="216,-118.5 216,-139.5 494,-139.5 494,-118.5 216,-118.5"/>
<text text-anchor="middle" x="355" y="-126.5" font-family="FreeSans.ttf" font-size="10.00">corecvs::RectificationResult::getRectifiedProjectionRight</text>
</a>
</g>
<!-- Node1&#45;&gt;Node11 -->
<g id="edge22" class="edge"><title>Node1&#45;&gt;Node11</title>
<path fill="none" stroke="midnightblue" d="M179.717,-129C188.226,-129 197,-129 205.874,-129"/>
<polygon fill="midnightblue" stroke="midnightblue" points="205.928,-132.5 215.928,-129 205.928,-125.5 205.928,-132.5"/>
</g>
<!-- Node3 -->
<g id="node5" class="node"><title>Node3</title>
<a xlink:href="classcorecvs_1_1CameraIntrinsics.html#ab257af3187f1ae3838bee4c90c0fcc1e" target="_top" xlink:title="corecvs::CameraIntrinsics::getKMatrix33">
<polygon fill="none" stroke="black" points="530.5,-118.5 530.5,-139.5 739.5,-139.5 739.5,-118.5 530.5,-118.5"/>
<text text-anchor="middle" x="635" y="-126.5" font-family="FreeSans.ttf" font-size="10.00">corecvs::CameraIntrinsics::getKMatrix33</text>
</a>
</g>
<!-- Node2&#45;&gt;Node3 -->
<g id="edge4" class="edge"><title>Node2&#45;&gt;Node3</title>
<path fill="none" stroke="midnightblue" d="M428.567,-99.5095C466.197,-104.885 512.164,-111.452 551.162,-117.023"/>
<polygon fill="midnightblue" stroke="midnightblue" points="551.045,-120.542 561.439,-118.491 552.035,-113.612 551.045,-120.542"/>
</g>
<!-- Node6 -->
<g id="node11" class="node"><title>Node6</title>
<a xlink:href="classcorecvs_1_1Matrix44.html#a1313510f453385518a9f2c7d7f97be74" target="_top" xlink:title="Terribly ineffective.">
<polygon fill="none" stroke="black" points="562,-78.5 562,-99.5 708,-99.5 708,-78.5 562,-78.5"/>
<text text-anchor="middle" x="635" y="-86.5" font-family="FreeSans.ttf" font-size="10.00">corecvs::Matrix44::inverted</text>
</a>
</g>
<!-- Node2&#45;&gt;Node6 -->
<g id="edge10" class="edge"><title>Node2&#45;&gt;Node6</title>
<path fill="none" stroke="midnightblue" d="M491.309,-89C511.94,-89 532.678,-89 551.729,-89"/>
<polygon fill="midnightblue" stroke="midnightblue" points="551.827,-92.5001 561.827,-89 551.827,-85.5001 551.827,-92.5001"/>
</g>
<!-- Node10 -->
<g id="node20" class="node"><title>Node10</title>
<a xlink:href="classcorecvs_1_1Matrix44.html#aadd43fc5e0cfa5db54bd5c942d1ba485" target="_top" xlink:title="Constructs the matrix form affine shift.">
<polygon fill="none" stroke="black" points="571,-38.5 571,-59.5 699,-59.5 699,-38.5 571,-38.5"/>
<text text-anchor="middle" x="635" y="-46.5" font-family="FreeSans.ttf" font-size="10.00">corecvs::Matrix44::Shift</text>
</a>
</g>
<!-- Node2&#45;&gt;Node10 -->
<g id="edge20" class="edge"><title>Node2&#45;&gt;Node10</title>
<path fill="none" stroke="midnightblue" d="M428.567,-78.4905C469.431,-72.6527 520.127,-65.4105 561.052,-59.564"/>
<polygon fill="midnightblue" stroke="midnightblue" points="561.561,-63.0269 570.965,-58.1478 560.571,-56.0973 561.561,-63.0269"/>
</g>
<!-- Node3&#45;&gt;Node4 -->
<g id="edge6" class="edge"><title>Node3&#45;&gt;Node4</title>
<path fill="none" stroke="midnightblue" d="M691.489,-139.51C719.646,-144.748 753.882,-151.118 783.321,-156.595"/>
<polygon fill="midnightblue" stroke="midnightblue" points="783.044,-160.103 793.516,-158.491 784.325,-153.221 783.044,-160.103"/>
</g>
<!-- Node5 -->
<g id="node9" class="node"><title>Node5</title>
<a xlink:href="classcorecvs_1_1Vector2d.html#ae1ea2ad4c0821001408bf963cffa8413" target="_top" xlink:title="corecvs::Vector2d::y">
<polygon fill="none" stroke="black" points="793.5,-118.5 793.5,-139.5 906.5,-139.5 906.5,-118.5 793.5,-118.5"/>
<text text-anchor="middle" x="850" y="-126.5" font-family="FreeSans.ttf" font-size="10.00">corecvs::Vector2d::y</text>
</a>
</g>
<!-- Node3&#45;&gt;Node5 -->
<g id="edge8" class="edge"><title>Node3&#45;&gt;Node5</title>
<path fill="none" stroke="midnightblue" d="M739.666,-129C754.388,-129 769.182,-129 782.94,-129"/>
<polygon fill="midnightblue" stroke="midnightblue" points="783.242,-132.5 793.242,-129 783.242,-125.5 783.242,-132.5"/>
</g>
<!-- Node7 -->
<g id="node13" class="node"><title>Node7</title>
<a xlink:href="classcorecvs_1_1Matrix44.html#ad53e6a4c5f30ed13b1bd0946f0e66a06" target="_top" xlink:title="Geting Matrix element functions block.">
<polygon fill="none" stroke="black" points="960.5,-59.5 960.5,-80.5 1073.5,-80.5 1073.5,-59.5 960.5,-59.5"/>
<text text-anchor="middle" x="1017" y="-67.5" font-family="FreeSans.ttf" font-size="10.00">corecvs::Matrix44::a</text>
</a>
</g>
<!-- Node6&#45;&gt;Node7 -->
<g id="edge12" class="edge"><title>Node6&#45;&gt;Node7</title>
<path fill="none" stroke="midnightblue" d="M708.201,-85.3591C778.057,-81.8846 882.402,-76.6947 950.088,-73.3281"/>
<polygon fill="midnightblue" stroke="midnightblue" points="950.399,-76.817 960.213,-72.8245 950.051,-69.8257 950.399,-76.817"/>
</g>
<!-- Node8 -->
<g id="node15" class="node"><title>Node8</title>
<a xlink:href="classcorecvs_1_1Matrix44.html#adc38a8b1e0c78d7a809829c07734a0e5" target="_top" xlink:title="corecvs::Matrix44::det">
<polygon fill="none" stroke="black" points="789,-40.5 789,-61.5 911,-61.5 911,-40.5 789,-40.5"/>
<text text-anchor="middle" x="850" y="-48.5" font-family="FreeSans.ttf" font-size="10.00">corecvs::Matrix44::det</text>
</a>
</g>
<!-- Node6&#45;&gt;Node8 -->
<g id="edge14" class="edge"><title>Node6&#45;&gt;Node8</title>
<path fill="none" stroke="midnightblue" d="M694.604,-78.4653C721.167,-73.7704 752.635,-68.2086 780.283,-63.3221"/>
<polygon fill="midnightblue" stroke="midnightblue" points="781.042,-66.7423 790.28,-61.5551 779.824,-59.8491 781.042,-66.7423"/>
</g>
<!-- Node9 -->
<g id="node18" class="node"><title>Node9</title>
<a xlink:href="classcorecvs_1_1Matrix44.html#acf5e18b2333c493522c2d32ae8719541" target="_top" xlink:title="corecvs::Matrix44::Matrix44">
<polygon fill="none" stroke="black" points="776,-0.5 776,-21.5 924,-21.5 924,-0.5 776,-0.5"/>
<text text-anchor="middle" x="850" y="-8.5" font-family="FreeSans.ttf" font-size="10.00">corecvs::Matrix44::Matrix44</text>
</a>
</g>
<!-- Node6&#45;&gt;Node9 -->
<g id="edge18" class="edge"><title>Node6&#45;&gt;Node9</title>
<path fill="none" stroke="midnightblue" d="M708.22,-81.1735C719.273,-78.2772 730.231,-74.3411 740,-69 760.413,-57.8399 756.024,-42.925 776,-31 779.599,-28.8512 783.434,-26.9284 787.39,-25.2085"/>
<polygon fill="midnightblue" stroke="midnightblue" points="788.739,-28.4392 796.791,-21.5529 786.202,-21.9151 788.739,-28.4392"/>
</g>
<!-- Node8&#45;&gt;Node7 -->
<g id="edge16" class="edge"><title>Node8&#45;&gt;Node7</title>
<path fill="none" stroke="midnightblue" d="M911.236,-57.967C923.944,-59.4128 937.393,-60.943 950.286,-62.4098"/>
<polygon fill="midnightblue" stroke="midnightblue" points="950.15,-65.9168 960.481,-63.5697 950.941,-58.9617 950.15,-65.9168"/>
</g>
<!-- Node11&#45;&gt;Node3 -->
<g id="edge24" class="edge"><title>Node11&#45;&gt;Node3</title>
<path fill="none" stroke="midnightblue" d="M494.18,-129C502.959,-129 511.744,-129 520.394,-129"/>
<polygon fill="midnightblue" stroke="midnightblue" points="520.479,-132.5 530.479,-129 520.479,-125.5 520.479,-132.5"/>
</g>
</g>
</svg>
        <g id="navigator" transform="translate(0 0)" fill="#404254">
                <rect fill="#f2f5e9" fill-opacity="0.5" stroke="#606060" stroke-width=".5" x="0" y="0" width="60" height="60"/>
                <use id="zoomplus" xlink:href="#zoomPlus" x="17" y="9" onmousedown="handleZoom(evt,'in')"/>
                <use id="zoomminus" xlink:href="#zoomMin" x="42" y="9" onmousedown="handleZoom(evt,'out')"/>
                <use id="reset" xlink:href="#resetDef" x="30" y="36" onmousedown="handleReset()"/>
                <g id="arrowUp" xlink:href="#dirArrow" transform="translate(30 24)" onmousedown="handlePan(0,-1)">
                  <use xlink:href="#rim" fill="#404040">
                        <set attributeName="fill" to="#808080" begin="arrowUp.mouseover" end="arrowUp.mouseout"/>
                  </use>
                  <path fill="none" stroke="white" stroke-width="1.5" d="M0,-3.0v7 M-2.5,-0.5L0,-3.0L2.5,-0.5"/>
                </g>
                <g id="arrowRight" xlink:href="#dirArrow" transform="rotate(90) translate(36 -43)" onmousedown="handlePan(1,0)">
                  <use xlink:href="#rim" fill="#404040">
                        <set attributeName="fill" to="#808080" begin="arrowRight.mouseover" end="arrowRight.mouseout"/>
                  </use>
                  <path fill="none" stroke="white" stroke-width="1.5" d="M0,-3.0v7 M-2.5,-0.5L0,-3.0L2.5,-0.5"/>
                </g>
                <g id="arrowDown" xlink:href="#dirArrow" transform="rotate(180) translate(-30 -48)" onmousedown="handlePan(0,1)">
                  <use xlink:href="#rim" fill="#404040">
                        <set attributeName="fill" to="#808080" begin="arrowDown.mouseover" end="arrowDown.mouseout"/>
                  </use>
                  <path fill="none" stroke="white" stroke-width="1.5" d="M0,-3.0v7 M-2.5,-0.5L0,-3.0L2.5,-0.5"/>
                </g>
                <g id="arrowLeft" xlink:href="#dirArrow" transform="rotate(270) translate(-36 17)" onmousedown="handlePan(-1,0)">
                  <use xlink:href="#rim" fill="#404040">
                        <set attributeName="fill" to="#808080" begin="arrowLeft.mouseover" end="arrowLeft.mouseout"/>
                  </use>
                  <path fill="none" stroke="white" stroke-width="1.5" d="M0,-3.0v7 M-2.5,-0.5L0,-3.0L2.5,-0.5"/>
                </g>
        </g>
</svg>
