<?xml version="1.0" encoding="UTF-8" standalone="no"?>
<!DOCTYPE svg PUBLIC "-//W3C//DTD SVG 1.1//EN"
 "http://www.w3.org/Graphics/SVG/1.1/DTD/svg11.dtd">
<!-- Generated by graphviz version 2.26.3 (20100126.1600)
 -->
<!-- Title: G Pages: 1 -->
<!--zoomable 150 -->
<svg id="main" version="1.1" xmlns="http://www.w3.org/2000/svg" xmlns:xlink="http://www.w3.org/1999/xlink" xml:space="preserve" onload="init(evt)">
        <defs>
                <circle id="rim" cx="0" cy="0" r="7"/>
                <circle id="rim2" cx="0" cy="0" r="3.5"/>
                <g id="zoomPlus">
                        <use xlink:href="#rim" fill="#404040">
                                <set attributeName="fill" to="#808080" begin="zoomplus.mouseover" end="zoomplus.mouseout"/>
                        </use>
                        <path d="M-4,0h8M0,-4v8" fill="none" stroke="white" stroke-width="1.5" pointer-events="none"/>
                </g>
                <g id="zoomMin">
                        <use xlink:href="#rim" fill="#404040">
                                <set attributeName="fill" to="#808080" begin="zoomminus.mouseover" end="zoomminus.mouseout"/>
                        </use>
                        <path d="M-4,0h8" fill="none" stroke="white" stroke-width="1.5" pointer-events="none"/>
                </g>
                <g id="dirArrow">
                        <path fill="none" stroke="white" stroke-width="1.5" d="M0,-3.0v7 M-2.5,-0.5L0,-3.0L2.5,-0.5"/>
                </g>
               <g id="resetDef">
                       <use xlink:href="#rim2" fill="#404040">
                               <set attributeName="fill" to="#808080" begin="reset.mouseover" end="reset.mouseout"/>
                       </use>
               </g>
        </defs>

<script type="text/javascript">
var viewWidth = 964;
var viewHeight = 150;
var sectionId = 'dynsection-8';
</script>
<script xlink:href="svgpan.js"/>
<svg id="graph" class="graph">
<g id="viewport">
<title>G</title>
<!-- Node1 -->
<g id="node1" class="node"><title>Node1</title>
<polygon fill="#bfbfbf" stroke="black" points="0.5,-60.5 0.5,-81.5 125.5,-81.5 125.5,-60.5 0.5,-60.5"/>
<text text-anchor="middle" x="63" y="-68.5" font-family="FreeSans.ttf" font-size="10.00">BaseHostDialog::deinit</text>
</g>
<!-- Node2 -->
<g id="node3" class="node"><title>Node2</title>
<a xlink:href="classBaseHostDialog.html#a1e0bdb42454af68e366bf0c349a838c9" target="_top" xlink:title="BaseHostDialog::cleanupEventQueue">
<polygon fill="none" stroke="black" points="162.5,-120.5 162.5,-141.5 357.5,-141.5 357.5,-120.5 162.5,-120.5"/>
<text text-anchor="middle" x="260" y="-128.5" font-family="FreeSans.ttf" font-size="10.00">BaseHostDialog::cleanupEventQueue</text>
</a>
</g>
<!-- Node1&#45;&gt;Node2 -->
<g id="edge2" class="edge"><title>Node1&#45;&gt;Node2</title>
<path fill="none" stroke="midnightblue" d="M85.7756,-81.5919C105.571,-90.4591 135.199,-102.925 162,-111 170.791,-113.649 180.131,-116.057 189.419,-118.21"/>
<polygon fill="midnightblue" stroke="midnightblue" points="188.926,-121.686 199.448,-120.446 190.449,-114.854 188.926,-121.686"/>
</g>
<!-- Node3 -->
<g id="node5" class="node"><title>Node3</title>
<a xlink:href="classConfigManager.html#a1d08d5d83a55f715c118a19aeb41cee8" target="_top" xlink:title="ConfigManager::configName">
<polygon fill="none" stroke="black" points="184,-80.5 184,-101.5 336,-101.5 336,-80.5 184,-80.5"/>
<text text-anchor="middle" x="260" y="-88.5" font-family="FreeSans.ttf" font-size="10.00">ConfigManager::configName</text>
</a>
</g>
<!-- Node1&#45;&gt;Node3 -->
<g id="edge4" class="edge"><title>Node1&#45;&gt;Node3</title>
<path fill="none" stroke="midnightblue" d="M125.603,-77.3556C140.904,-78.909 157.544,-80.5984 173.736,-82.2423"/>
<polygon fill="midnightblue" stroke="midnightblue" points="173.442,-85.7303 183.744,-83.2583 174.149,-78.7661 173.442,-85.7303"/>
</g>
<!-- Node7 -->
<g id="node13" class="node"><title>Node7</title>
<a xlink:href="classBaseHostDialog.html#a2e1f856322f93443fc984d093adcead7" target="_top" xlink:title="BaseHostDialog::saveParams">
<polygon fill="none" stroke="black" points="181,-40.5 181,-61.5 339,-61.5 339,-40.5 181,-40.5"/>
<text text-anchor="middle" x="260" y="-48.5" font-family="FreeSans.ttf" font-size="10.00">BaseHostDialog::saveParams</text>
</a>
</g>
<!-- Node1&#45;&gt;Node7 -->
<g id="edge12" class="edge"><title>Node1&#45;&gt;Node7</title>
<path fill="none" stroke="midnightblue" d="M125.603,-64.6444C140.02,-63.1807 155.627,-61.5963 170.927,-60.043"/>
<polygon fill="midnightblue" stroke="midnightblue" points="171.326,-63.5205 180.921,-59.0283 170.619,-56.5563 171.326,-63.5205"/>
</g>
<!-- Node10 -->
<g id="node20" class="node"><title>Node10</title>
<a xlink:href="classBaseHostDialog.html#ad5da01a76fa570a1f52b46e28489f519" target="_top" xlink:title="during the process of the destruction you need to make sure that the thread object is killed before d...">
<polygon fill="none" stroke="black" points="163,-0.5 163,-21.5 357,-21.5 357,-0.5 163,-0.5"/>
<text text-anchor="middle" x="260" y="-8.5" font-family="FreeSans.ttf" font-size="10.00">BaseHostDialog::terminateCalculator</text>
</a>
</g>
<!-- Node1&#45;&gt;Node10 -->
<g id="edge20" class="edge"><title>Node1&#45;&gt;Node10</title>
<path fill="none" stroke="midnightblue" d="M85.7756,-60.4081C105.571,-51.5409 135.199,-39.0753 162,-31 170.791,-28.3512 180.131,-25.9434 189.419,-23.79"/>
<polygon fill="midnightblue" stroke="midnightblue" points="190.449,-27.1463 199.448,-21.5539 188.926,-20.3141 190.449,-27.1463"/>
</g>
<!-- Node4 -->
<g id="node7" class="node"><title>Node4</title>
<a xlink:href="classConfigManager.html#ae428a00b007e47c5d496539e25b05bcf" target="_top" xlink:title="ConfigManager::instance">
<polygon fill="none" stroke="black" points="611.5,-99.5 611.5,-120.5 746.5,-120.5 746.5,-99.5 611.5,-99.5"/>
<text text-anchor="middle" x="679" y="-107.5" font-family="FreeSans.ttf" font-size="10.00">ConfigManager::instance</text>
</a>
</g>
<!-- Node3&#45;&gt;Node4 -->
<g id="edge6" class="edge"><title>Node3&#45;&gt;Node4</title>
<path fill="none" stroke="midnightblue" d="M317.833,-101.546C341.374,-105.338 368.901,-109.137 394,-111 472.008,-116.789 491.779,-111.359 570,-111 580.11,-110.954 590.748,-110.883 601.253,-110.8"/>
<polygon fill="midnightblue" stroke="midnightblue" points="601.291,-114.3 611.262,-110.718 601.233,-107.301 601.291,-114.3"/>
</g>
<!-- Node6 -->
<g id="node11" class="node"><title>Node6</title>
<a xlink:href="classConfigManager.html#a0813cd21566579f5bdc87e317eff30a5" target="_top" xlink:title="ConfigManager::name">
<polygon fill="none" stroke="black" points="421,-80.5 421,-101.5 543,-101.5 543,-80.5 421,-80.5"/>
<text text-anchor="middle" x="482" y="-88.5" font-family="FreeSans.ttf" font-size="10.00">ConfigManager::name</text>
</a>
</g>
<!-- Node3&#45;&gt;Node6 -->
<g id="edge10" class="edge"><title>Node3&#45;&gt;Node6</title>
<path fill="none" stroke="midnightblue" d="M336.089,-91C360.251,-91 386.87,-91 410.683,-91"/>
<polygon fill="midnightblue" stroke="midnightblue" points="410.702,-94.5001 420.702,-91 410.702,-87.5001 410.702,-94.5001"/>
</g>
<!-- Node5 -->
<g id="node9" class="node"><title>Node5</title>
<a xlink:href="classConfigManager.html#a7d3d7c10423d969f7544509f6fcca32f" target="_top" xlink:title="ConfigManager::ConfigManager">
<polygon fill="none" stroke="black" points="788.5,-99.5 788.5,-120.5 955.5,-120.5 955.5,-99.5 788.5,-99.5"/>
<text text-anchor="middle" x="872" y="-107.5" font-family="FreeSans.ttf" font-size="10.00">ConfigManager::ConfigManager</text>
</a>
</g>
<!-- Node4&#45;&gt;Node5 -->
<g id="edge8" class="edge"><title>Node4&#45;&gt;Node5</title>
<path fill="none" stroke="midnightblue" d="M746.502,-110C756.717,-110 767.409,-110 778.06,-110"/>
<polygon fill="midnightblue" stroke="midnightblue" points="778.242,-113.5 788.242,-110 778.242,-106.5 778.242,-113.5"/>
</g>
<!-- Node8 -->
<g id="node15" class="node"><title>Node8</title>
<a xlink:href="classConfigManager.html#a92f4e39dff236df8bab3b6d5697420c0" target="_top" xlink:title="ConfigManager::camConfigName">
<polygon fill="none" stroke="black" points="394.5,-40.5 394.5,-61.5 569.5,-61.5 569.5,-40.5 394.5,-40.5"/>
<text text-anchor="middle" x="482" y="-48.5" font-family="FreeSans.ttf" font-size="10.00">ConfigManager::camConfigName</text>
</a>
</g>
<!-- Node7&#45;&gt;Node8 -->
<g id="edge14" class="edge"><title>Node7&#45;&gt;Node8</title>
<path fill="none" stroke="midnightblue" d="M339.207,-51C353.675,-51 368.93,-51 383.869,-51"/>
<polygon fill="midnightblue" stroke="midnightblue" points="384.148,-54.5001 394.148,-51 384.148,-47.5001 384.148,-54.5001"/>
</g>
<!-- Node8&#45;&gt;Node4 -->
<g id="edge18" class="edge"><title>Node8&#45;&gt;Node4</title>
<path fill="none" stroke="midnightblue" d="M533.453,-61.6028C545.515,-64.3891 558.267,-67.5812 570,-71 594.654,-78.1838 621.849,-87.9113 642.908,-95.8541"/>
<polygon fill="midnightblue" stroke="midnightblue" points="641.827,-99.1874 652.418,-99.4763 644.318,-92.6459 641.827,-99.1874"/>
</g>
<!-- Node9 -->
<g id="node17" class="node"><title>Node9</title>
<a xlink:href="classConfigManager.html#a312ba1a2255b5af878f5dbb7c441d1ef" target="_top" xlink:title="ConfigManager::camName">
<polygon fill="none" stroke="black" points="606.5,-40.5 606.5,-61.5 751.5,-61.5 751.5,-40.5 606.5,-40.5"/>
<text text-anchor="middle" x="679" y="-48.5" font-family="FreeSans.ttf" font-size="10.00">ConfigManager::camName</text>
</a>
</g>
<!-- Node8&#45;&gt;Node9 -->
<g id="edge16" class="edge"><title>Node8&#45;&gt;Node9</title>
<path fill="none" stroke="midnightblue" d="M569.554,-51C578.417,-51 587.4,-51 596.211,-51"/>
<polygon fill="midnightblue" stroke="midnightblue" points="596.458,-54.5001 606.458,-51 596.458,-47.5001 596.458,-54.5001"/>
</g>
</g>
</svg>
        <g id="navigator" transform="translate(0 0)" fill="#404254">
                <rect fill="#f2f5e9" fill-opacity="0.5" stroke="#606060" stroke-width=".5" x="0" y="0" width="60" height="60"/>
                <use id="zoomplus" xlink:href="#zoomPlus" x="17" y="9" onmousedown="handleZoom(evt,'in')"/>
                <use id="zoomminus" xlink:href="#zoomMin" x="42" y="9" onmousedown="handleZoom(evt,'out')"/>
                <use id="reset" xlink:href="#resetDef" x="30" y="36" onmousedown="handleReset()"/>
                <g id="arrowUp" xlink:href="#dirArrow" transform="translate(30 24)" onmousedown="handlePan(0,-1)">
                  <use xlink:href="#rim" fill="#404040">
                        <set attributeName="fill" to="#808080" begin="arrowUp.mouseover" end="arrowUp.mouseout"/>
                  </use>
                  <path fill="none" stroke="white" stroke-width="1.5" d="M0,-3.0v7 M-2.5,-0.5L0,-3.0L2.5,-0.5"/>
                </g>
                <g id="arrowRight" xlink:href="#dirArrow" transform="rotate(90) translate(36 -43)" onmousedown="handlePan(1,0)">
                  <use xlink:href="#rim" fill="#404040">
                        <set attributeName="fill" to="#808080" begin="arrowRight.mouseover" end="arrowRight.mouseout"/>
                  </use>
                  <path fill="none" stroke="white" stroke-width="1.5" d="M0,-3.0v7 M-2.5,-0.5L0,-3.0L2.5,-0.5"/>
                </g>
                <g id="arrowDown" xlink:href="#dirArrow" transform="rotate(180) translate(-30 -48)" onmousedown="handlePan(0,1)">
                  <use xlink:href="#rim" fill="#404040">
                        <set attributeName="fill" to="#808080" begin="arrowDown.mouseover" end="arrowDown.mouseout"/>
                  </use>
                  <path fill="none" stroke="white" stroke-width="1.5" d="M0,-3.0v7 M-2.5,-0.5L0,-3.0L2.5,-0.5"/>
                </g>
                <g id="arrowLeft" xlink:href="#dirArrow" transform="rotate(270) translate(-36 17)" onmousedown="handlePan(-1,0)">
                  <use xlink:href="#rim" fill="#404040">
                        <set attributeName="fill" to="#808080" begin="arrowLeft.mouseover" end="arrowLeft.mouseout"/>
                  </use>
                  <path fill="none" stroke="white" stroke-width="1.5" d="M0,-3.0v7 M-2.5,-0.5L0,-3.0L2.5,-0.5"/>
                </g>
        </g>
</svg>
