<?xml version="1.0" encoding="UTF-8" standalone="no"?>
<!DOCTYPE svg PUBLIC "-//W3C//DTD SVG 1.1//EN"
 "http://www.w3.org/Graphics/SVG/1.1/DTD/svg11.dtd">
<!-- Generated by graphviz version 2.26.3 (20100126.1600)
 -->
<!-- Title: G Pages: 1 -->
<!--zoomable 90 -->
<svg id="main" version="1.1" xmlns="http://www.w3.org/2000/svg" xmlns:xlink="http://www.w3.org/1999/xlink" xml:space="preserve" onload="init(evt)">
        <defs>
                <circle id="rim" cx="0" cy="0" r="7"/>
                <circle id="rim2" cx="0" cy="0" r="3.5"/>
                <g id="zoomPlus">
                        <use xlink:href="#rim" fill="#404040">
                                <set attributeName="fill" to="#808080" begin="zoomplus.mouseover" end="zoomplus.mouseout"/>
                        </use>
                        <path d="M-4,0h8M0,-4v8" fill="none" stroke="white" stroke-width="1.5" pointer-events="none"/>
                </g>
                <g id="zoomMin">
                        <use xlink:href="#rim" fill="#404040">
                                <set attributeName="fill" to="#808080" begin="zoomminus.mouseover" end="zoomminus.mouseout"/>
                        </use>
                        <path d="M-4,0h8" fill="none" stroke="white" stroke-width="1.5" pointer-events="none"/>
                </g>
                <g id="dirArrow">
                        <path fill="none" stroke="white" stroke-width="1.5" d="M0,-3.0v7 M-2.5,-0.5L0,-3.0L2.5,-0.5"/>
                </g>
               <g id="resetDef">
                       <use xlink:href="#rim2" fill="#404040">
                               <set attributeName="fill" to="#808080" begin="reset.mouseover" end="reset.mouseout"/>
                       </use>
               </g>
        </defs>

<script type="text/javascript">
var viewWidth = 960;
var viewHeight = 90;
var sectionId = 'dynsection-9';
</script>
<script xlink:href="svgpan.js"/>
<svg id="graph" class="graph">
<g id="viewport">
<title>G</title>
<!-- Node1 -->
<g id="node1" class="node"><title>Node1</title>
<polygon fill="#bfbfbf" stroke="black" points="0.5,-40.5 0.5,-61.5 233.5,-61.5 233.5,-40.5 0.5,-40.5"/>
<text text-anchor="middle" x="117" y="-48.5" font-family="FreeSans.ttf" font-size="10.00">CameraCalculatorWidget::objectSizeChanged</text>
</g>
<!-- Node2 -->
<g id="node3" class="node"><title>Node2</title>
<a xlink:href="classCameraCalculatorWidget.html#a28b8b0ab4b6e03529df4052196f4ad4c" target="_top" xlink:title="CameraCalculatorWidget::getPixelWidth">
<polygon fill="none" stroke="black" points="270.5,-60.5 270.5,-81.5 475.5,-81.5 475.5,-60.5 270.5,-60.5"/>
<text text-anchor="middle" x="373" y="-68.5" font-family="FreeSans.ttf" font-size="10.00">CameraCalculatorWidget::getPixelWidth</text>
</a>
</g>
<!-- Node1&#45;&gt;Node2 -->
<g id="edge2" class="edge"><title>Node1&#45;&gt;Node2</title>
<path fill="none" stroke="midnightblue" d="M233.763,-60.1221C242.483,-60.8033 251.273,-61.4901 259.969,-62.1695"/>
<polygon fill="midnightblue" stroke="midnightblue" points="259.883,-65.6733 270.126,-62.9629 260.429,-58.6946 259.883,-65.6733"/>
</g>
<!-- Node3 -->
<g id="node5" class="node"><title>Node3</title>
<a xlink:href="classCameraCalculatorWidget.html#a3a7f053f25db9a46230ad4e123f3a4eb" target="_top" xlink:title="CameraCalculatorWidget::setNewValue">
<polygon fill="none" stroke="black" points="271.5,-20.5 271.5,-41.5 474.5,-41.5 474.5,-20.5 271.5,-20.5"/>
<text text-anchor="middle" x="373" y="-28.5" font-family="FreeSans.ttf" font-size="10.00">CameraCalculatorWidget::setNewValue</text>
</a>
</g>
<!-- Node1&#45;&gt;Node3 -->
<g id="edge4" class="edge"><title>Node1&#45;&gt;Node3</title>
<path fill="none" stroke="midnightblue" d="M233.763,-41.8779C242.865,-41.1668 252.043,-40.4497 261.112,-39.7412"/>
<polygon fill="midnightblue" stroke="midnightblue" points="261.598,-43.214 271.295,-38.9457 261.053,-36.2353 261.598,-43.214"/>
</g>
<!-- Node4 -->
<g id="node7" class="node"><title>Node4</title>
<a xlink:href="classCameraCalculatorWidget.html#ab41489389279916f1657ad1f0f97aaf5" target="_top" xlink:title="CameraCalculatorWidget::setValueBlocking">
<polygon fill="none" stroke="black" points="512,-40.5 512,-61.5 734,-61.5 734,-40.5 512,-40.5"/>
<text text-anchor="middle" x="623" y="-48.5" font-family="FreeSans.ttf" font-size="10.00">CameraCalculatorWidget::setValueBlocking</text>
</a>
</g>
<!-- Node3&#45;&gt;Node4 -->
<g id="edge6" class="edge"><title>Node3&#45;&gt;Node4</title>
<path fill="none" stroke="midnightblue" d="M474.685,-39.1348C483.524,-39.8419 492.525,-40.562 501.502,-41.2802"/>
<polygon fill="midnightblue" stroke="midnightblue" points="501.37,-44.7807 511.617,-42.0894 501.928,-37.803 501.37,-44.7807"/>
</g>
<!-- Node5 -->
<g id="node9" class="node"><title>Node5</title>
<a xlink:href="classCameraCalculatorWidget.html#a03b4aa47cd739b4828067343e5402f1d" target="_top" xlink:title="CameraCalculatorWidget::startTimer">
<polygon fill="none" stroke="black" points="527.5,-0.5 527.5,-21.5 718.5,-21.5 718.5,-0.5 527.5,-0.5"/>
<text text-anchor="middle" x="623" y="-8.5" font-family="FreeSans.ttf" font-size="10.00">CameraCalculatorWidget::startTimer</text>
</a>
</g>
<!-- Node3&#45;&gt;Node5 -->
<g id="edge8" class="edge"><title>Node3&#45;&gt;Node5</title>
<path fill="none" stroke="midnightblue" d="M474.685,-22.8652C488.717,-21.7426 503.156,-20.5875 517.26,-19.4592"/>
<polygon fill="midnightblue" stroke="midnightblue" points="517.771,-22.9296 527.46,-18.6432 517.213,-15.9519 517.771,-22.9296"/>
</g>
<!-- Node6 -->
<g id="node11" class="node"><title>Node6</title>
<a xlink:href="classCameraCalculatorWidget.html#ab03fc7676689c8aa9ee47c36471e39fa" target="_top" xlink:title="CameraCalculatorWidget::setColor">
<polygon fill="none" stroke="black" points="770.5,-0.5 770.5,-21.5 951.5,-21.5 951.5,-0.5 770.5,-0.5"/>
<text text-anchor="middle" x="861" y="-8.5" font-family="FreeSans.ttf" font-size="10.00">CameraCalculatorWidget::setColor</text>
</a>
</g>
<!-- Node5&#45;&gt;Node6 -->
<g id="edge10" class="edge"><title>Node5&#45;&gt;Node6</title>
<path fill="none" stroke="midnightblue" d="M718.775,-11C732.362,-11 746.369,-11 760.05,-11"/>
<polygon fill="midnightblue" stroke="midnightblue" points="760.436,-14.5001 770.436,-11 760.436,-7.5001 760.436,-14.5001"/>
</g>
</g>
</svg>
        <g id="navigator" transform="translate(0 0)" fill="#404254">
                <rect fill="#f2f5e9" fill-opacity="0.5" stroke="#606060" stroke-width=".5" x="0" y="0" width="60" height="60"/>
                <use id="zoomplus" xlink:href="#zoomPlus" x="17" y="9" onmousedown="handleZoom(evt,'in')"/>
                <use id="zoomminus" xlink:href="#zoomMin" x="42" y="9" onmousedown="handleZoom(evt,'out')"/>
                <use id="reset" xlink:href="#resetDef" x="30" y="36" onmousedown="handleReset()"/>
                <g id="arrowUp" xlink:href="#dirArrow" transform="translate(30 24)" onmousedown="handlePan(0,-1)">
                  <use xlink:href="#rim" fill="#404040">
                        <set attributeName="fill" to="#808080" begin="arrowUp.mouseover" end="arrowUp.mouseout"/>
                  </use>
                  <path fill="none" stroke="white" stroke-width="1.5" d="M0,-3.0v7 M-2.5,-0.5L0,-3.0L2.5,-0.5"/>
                </g>
                <g id="arrowRight" xlink:href="#dirArrow" transform="rotate(90) translate(36 -43)" onmousedown="handlePan(1,0)">
                  <use xlink:href="#rim" fill="#404040">
                        <set attributeName="fill" to="#808080" begin="arrowRight.mouseover" end="arrowRight.mouseout"/>
                  </use>
                  <path fill="none" stroke="white" stroke-width="1.5" d="M0,-3.0v7 M-2.5,-0.5L0,-3.0L2.5,-0.5"/>
                </g>
                <g id="arrowDown" xlink:href="#dirArrow" transform="rotate(180) translate(-30 -48)" onmousedown="handlePan(0,1)">
                  <use xlink:href="#rim" fill="#404040">
                        <set attributeName="fill" to="#808080" begin="arrowDown.mouseover" end="arrowDown.mouseout"/>
                  </use>
                  <path fill="none" stroke="white" stroke-width="1.5" d="M0,-3.0v7 M-2.5,-0.5L0,-3.0L2.5,-0.5"/>
                </g>
                <g id="arrowLeft" xlink:href="#dirArrow" transform="rotate(270) translate(-36 17)" onmousedown="handlePan(-1,0)">
                  <use xlink:href="#rim" fill="#404040">
                        <set attributeName="fill" to="#808080" begin="arrowLeft.mouseover" end="arrowLeft.mouseout"/>
                  </use>
                  <path fill="none" stroke="white" stroke-width="1.5" d="M0,-3.0v7 M-2.5,-0.5L0,-3.0L2.5,-0.5"/>
                </g>
        </g>
</svg>
