<?xml version="1.0" encoding="UTF-8" standalone="no"?>
<!DOCTYPE svg PUBLIC "-//W3C//DTD SVG 1.1//EN"
 "http://www.w3.org/Graphics/SVG/1.1/DTD/svg11.dtd">
<!-- Generated by graphviz version 2.26.3 (20100126.1600)
 -->
<!-- Title: G Pages: 1 -->
<!--zoomable 210 -->
<svg id="main" version="1.1" xmlns="http://www.w3.org/2000/svg" xmlns:xlink="http://www.w3.org/1999/xlink" xml:space="preserve" onload="init(evt)">
        <defs>
                <circle id="rim" cx="0" cy="0" r="7"/>
                <circle id="rim2" cx="0" cy="0" r="3.5"/>
                <g id="zoomPlus">
                        <use xlink:href="#rim" fill="#404040">
                                <set attributeName="fill" to="#808080" begin="zoomplus.mouseover" end="zoomplus.mouseout"/>
                        </use>
                        <path d="M-4,0h8M0,-4v8" fill="none" stroke="white" stroke-width="1.5" pointer-events="none"/>
                </g>
                <g id="zoomMin">
                        <use xlink:href="#rim" fill="#404040">
                                <set attributeName="fill" to="#808080" begin="zoomminus.mouseover" end="zoomminus.mouseout"/>
                        </use>
                        <path d="M-4,0h8" fill="none" stroke="white" stroke-width="1.5" pointer-events="none"/>
                </g>
                <g id="dirArrow">
                        <path fill="none" stroke="white" stroke-width="1.5" d="M0,-3.0v7 M-2.5,-0.5L0,-3.0L2.5,-0.5"/>
                </g>
               <g id="resetDef">
                       <use xlink:href="#rim2" fill="#404040">
                               <set attributeName="fill" to="#808080" begin="reset.mouseover" end="reset.mouseout"/>
                       </use>
               </g>
        </defs>

<script type="text/javascript">
var viewWidth = 776;
var viewHeight = 210;
var sectionId = 'dynsection-9';
</script>
<script xlink:href="svgpan.js"/>
<svg id="graph" class="graph">
<g id="viewport">
<title>G</title>
<!-- Node1 -->
<g id="node1" class="node"><title>Node1</title>
<polygon fill="#bfbfbf" stroke="black" points="0.5,-100.5 0.5,-121.5 217.5,-121.5 217.5,-100.5 0.5,-100.5"/>
<text text-anchor="middle" x="109" y="-108.5" font-family="FreeSans.ttf" font-size="10.00">AdvancedImageWidget::childMouseMoved</text>
</g>
<!-- Node2 -->
<g id="node3" class="node"><title>Node2</title>
<a xlink:href="classAdvancedImageWidget.html#a0660da1dfe71d556c2c97ca4759404d5" target="_top" xlink:title="AdvancedImageWidget::notifyCenterPointChanged">
<polygon fill="none" stroke="black" points="254.5,-180.5 254.5,-201.5 511.5,-201.5 511.5,-180.5 254.5,-180.5"/>
<text text-anchor="middle" x="383" y="-188.5" font-family="FreeSans.ttf" font-size="10.00">AdvancedImageWidget::notifyCenterPointChanged</text>
</a>
</g>
<!-- Node1&#45;&gt;Node2 -->
<g id="edge2" class="edge"><title>Node1&#45;&gt;Node2</title>
<path fill="none" stroke="midnightblue" d="M130.05,-121.589C157.771,-135.091 208.353,-158.215 254,-171 264.359,-173.901 275.312,-176.414 286.283,-178.583"/>
<polygon fill="midnightblue" stroke="midnightblue" points="285.87,-182.067 296.346,-180.48 287.167,-175.188 285.87,-182.067"/>
</g>
<!-- Node3 -->
<g id="node5" class="node"><title>Node3</title>
<a xlink:href="classAdvancedImageWidget.html#af1b0658d7988e8862a6ad7f6ab02953f" target="_top" xlink:title="AdvancedImageWidget::pointToolMoved">
<polygon fill="none" stroke="black" points="280,-140.5 280,-161.5 486,-161.5 486,-140.5 280,-140.5"/>
<text text-anchor="middle" x="383" y="-148.5" font-family="FreeSans.ttf" font-size="10.00">AdvancedImageWidget::pointToolMoved</text>
</a>
</g>
<!-- Node1&#45;&gt;Node3 -->
<g id="edge4" class="edge"><title>Node1&#45;&gt;Node3</title>
<path fill="none" stroke="midnightblue" d="M180.99,-121.51C217.815,-126.885 262.797,-133.452 300.959,-139.023"/>
<polygon fill="midnightblue" stroke="midnightblue" points="300.615,-142.51 311.015,-140.491 301.626,-135.583 300.615,-142.51"/>
</g>
<!-- Node4 -->
<g id="node7" class="node"><title>Node4</title>
<a xlink:href="classAdvancedImageWidget.html#a09b13f3339f391764bd57dd8d06f3d4f" target="_top" xlink:title="AdvancedImageWidget::recomputeRects">
<polygon fill="none" stroke="black" points="278,-100.5 278,-121.5 488,-121.5 488,-100.5 278,-100.5"/>
<text text-anchor="middle" x="383" y="-108.5" font-family="FreeSans.ttf" font-size="10.00">AdvancedImageWidget::recomputeRects</text>
</a>
</g>
<!-- Node1&#45;&gt;Node4 -->
<g id="edge6" class="edge"><title>Node1&#45;&gt;Node4</title>
<path fill="none" stroke="midnightblue" d="M217.686,-111C234.018,-111 250.912,-111 267.384,-111"/>
<polygon fill="midnightblue" stroke="midnightblue" points="267.576,-114.5 277.576,-111 267.576,-107.5 267.576,-114.5"/>
</g>
<!-- Node6 -->
<g id="node11" class="node"><title>Node6</title>
<a xlink:href="classAdvancedImageWidget.html#aa77e18f515fc59fd569bec871d489010" target="_top" xlink:title="AdvancedImageWidget::setInfoValueLabel">
<polygon fill="none" stroke="black" points="275,-60.5 275,-81.5 491,-81.5 491,-60.5 275,-60.5"/>
<text text-anchor="middle" x="383" y="-68.5" font-family="FreeSans.ttf" font-size="10.00">AdvancedImageWidget::setInfoValueLabel</text>
</a>
</g>
<!-- Node1&#45;&gt;Node6 -->
<g id="edge10" class="edge"><title>Node1&#45;&gt;Node6</title>
<path fill="none" stroke="midnightblue" d="M180.99,-100.49C217.815,-95.1146 262.797,-88.5479 300.959,-82.9768"/>
<polygon fill="midnightblue" stroke="midnightblue" points="301.626,-86.4166 311.015,-81.5087 300.615,-79.49 301.626,-86.4166"/>
</g>
<!-- Node7 -->
<g id="node13" class="node"><title>Node7</title>
<a xlink:href="classAdvancedImageWidget.html#a6e8e9e2abdc3e3852a575596b45a24a9" target="_top" xlink:title="AdvancedImageWidget::widgetToImage">
<polygon fill="none" stroke="black" points="281.5,-20.5 281.5,-41.5 484.5,-41.5 484.5,-20.5 281.5,-20.5"/>
<text text-anchor="middle" x="383" y="-28.5" font-family="FreeSans.ttf" font-size="10.00">AdvancedImageWidget::widgetToImage</text>
</a>
</g>
<!-- Node1&#45;&gt;Node7 -->
<g id="edge12" class="edge"><title>Node1&#45;&gt;Node7</title>
<path fill="none" stroke="midnightblue" d="M130.05,-100.411C157.771,-86.9087 208.353,-63.7847 254,-51 264.359,-48.0986 275.312,-45.5855 286.283,-43.4166"/>
<polygon fill="midnightblue" stroke="midnightblue" points="287.167,-46.8116 296.346,-41.5201 285.87,-39.9327 287.167,-46.8116"/>
</g>
<!-- Node5 -->
<g id="node9" class="node"><title>Node5</title>
<a xlink:href="classAdvancedImageWidget.html#ab3c658a5e253eeef3929028a1e2e3082" target="_top" xlink:title="AdvancedImageWidget::computeInputRect">
<polygon fill="none" stroke="black" points="548.5,-100.5 548.5,-121.5 767.5,-121.5 767.5,-100.5 548.5,-100.5"/>
<text text-anchor="middle" x="658" y="-108.5" font-family="FreeSans.ttf" font-size="10.00">AdvancedImageWidget::computeInputRect</text>
</a>
</g>
<!-- Node4&#45;&gt;Node5 -->
<g id="edge8" class="edge"><title>Node4&#45;&gt;Node5</title>
<path fill="none" stroke="midnightblue" d="M488.143,-111C504.467,-111 521.435,-111 538.056,-111"/>
<polygon fill="midnightblue" stroke="midnightblue" points="538.351,-114.5 548.351,-111 538.351,-107.5 538.351,-114.5"/>
</g>
<!-- Node8 -->
<g id="node15" class="node"><title>Node8</title>
<a xlink:href="classAdvancedImageWidget.html#aad0a7fa94488db2084f9135d3721dfb7" target="_top" xlink:title="AdvancedImageWidget::widgetToImageF">
<polygon fill="none" stroke="black" points="554,-40.5 554,-61.5 762,-61.5 762,-40.5 554,-40.5"/>
<text text-anchor="middle" x="658" y="-48.5" font-family="FreeSans.ttf" font-size="10.00">AdvancedImageWidget::widgetToImageF</text>
</a>
</g>
<!-- Node7&#45;&gt;Node8 -->
<g id="edge14" class="edge"><title>Node7&#45;&gt;Node8</title>
<path fill="none" stroke="midnightblue" d="M484.619,-38.3904C503.771,-39.7834 523.923,-41.2489 543.44,-42.6683"/>
<polygon fill="midnightblue" stroke="midnightblue" points="543.352,-46.1711 553.579,-43.4058 543.86,-39.1895 543.352,-46.1711"/>
</g>
<!-- Node9 -->
<g id="node17" class="node"><title>Node9</title>
<a xlink:href="namespacecorecvs.html#a807eb76b7544bcb930b1700a58a780bd" target="_top" xlink:title="Useful round* stuff.">
<polygon fill="none" stroke="black" points="613,-0.5 613,-21.5 703,-21.5 703,-0.5 613,-0.5"/>
<text text-anchor="middle" x="658" y="-8.5" font-family="FreeSans.ttf" font-size="10.00">corecvs::fround</text>
</a>
</g>
<!-- Node7&#45;&gt;Node9 -->
<g id="edge16" class="edge"><title>Node7&#45;&gt;Node9</title>
<path fill="none" stroke="midnightblue" d="M484.619,-23.6096C524.552,-20.7053 568.827,-17.4853 602.64,-15.0262"/>
<polygon fill="midnightblue" stroke="midnightblue" points="603.062,-18.5048 612.782,-14.2886 602.554,-11.5233 603.062,-18.5048"/>
</g>
</g>
</svg>
        <g id="navigator" transform="translate(0 0)" fill="#404254">
                <rect fill="#f2f5e9" fill-opacity="0.5" stroke="#606060" stroke-width=".5" x="0" y="0" width="60" height="60"/>
                <use id="zoomplus" xlink:href="#zoomPlus" x="17" y="9" onmousedown="handleZoom(evt,'in')"/>
                <use id="zoomminus" xlink:href="#zoomMin" x="42" y="9" onmousedown="handleZoom(evt,'out')"/>
                <use id="reset" xlink:href="#resetDef" x="30" y="36" onmousedown="handleReset()"/>
                <g id="arrowUp" xlink:href="#dirArrow" transform="translate(30 24)" onmousedown="handlePan(0,-1)">
                  <use xlink:href="#rim" fill="#404040">
                        <set attributeName="fill" to="#808080" begin="arrowUp.mouseover" end="arrowUp.mouseout"/>
                  </use>
                  <path fill="none" stroke="white" stroke-width="1.5" d="M0,-3.0v7 M-2.5,-0.5L0,-3.0L2.5,-0.5"/>
                </g>
                <g id="arrowRight" xlink:href="#dirArrow" transform="rotate(90) translate(36 -43)" onmousedown="handlePan(1,0)">
                  <use xlink:href="#rim" fill="#404040">
                        <set attributeName="fill" to="#808080" begin="arrowRight.mouseover" end="arrowRight.mouseout"/>
                  </use>
                  <path fill="none" stroke="white" stroke-width="1.5" d="M0,-3.0v7 M-2.5,-0.5L0,-3.0L2.5,-0.5"/>
                </g>
                <g id="arrowDown" xlink:href="#dirArrow" transform="rotate(180) translate(-30 -48)" onmousedown="handlePan(0,1)">
                  <use xlink:href="#rim" fill="#404040">
                        <set attributeName="fill" to="#808080" begin="arrowDown.mouseover" end="arrowDown.mouseout"/>
                  </use>
                  <path fill="none" stroke="white" stroke-width="1.5" d="M0,-3.0v7 M-2.5,-0.5L0,-3.0L2.5,-0.5"/>
                </g>
                <g id="arrowLeft" xlink:href="#dirArrow" transform="rotate(270) translate(-36 17)" onmousedown="handlePan(-1,0)">
                  <use xlink:href="#rim" fill="#404040">
                        <set attributeName="fill" to="#808080" begin="arrowLeft.mouseover" end="arrowLeft.mouseout"/>
                  </use>
                  <path fill="none" stroke="white" stroke-width="1.5" d="M0,-3.0v7 M-2.5,-0.5L0,-3.0L2.5,-0.5"/>
                </g>
        </g>
</svg>
