<?xml version="1.0" encoding="UTF-8" standalone="no"?>
<!DOCTYPE svg PUBLIC "-//W3C//DTD SVG 1.1//EN"
 "http://www.w3.org/Graphics/SVG/1.1/DTD/svg11.dtd">
<!-- Generated by graphviz version 2.26.3 (20100126.1600)
 -->
<!-- Title: G Pages: 1 -->
<svg width="330pt" height="190pt"
 viewBox="0.00 0.00 330.00 190.00" xmlns="http://www.w3.org/2000/svg" xmlns:xlink="http://www.w3.org/1999/xlink">
<g id="graph1" class="graph" transform="scale(1 1) rotate(0) translate(4 186)">
<title>G</title>
<!-- Node1 -->
<g id="node1" class="node"><title>Node1</title>
<polygon fill="#bfbfbf" stroke="black" points="0.5,-80.5 0.5,-101.5 171.5,-101.5 171.5,-80.5 0.5,-80.5"/>
<text text-anchor="middle" x="86" y="-88.5" font-family="FreeSans.ttf" font-size="10.00">DistortionWidget::printVectorPair</text>
</g>
<!-- Node2 -->
<g id="node3" class="node"><title>Node2</title>
<a xlink:href="classcorecvs_1_1Vector2d.html#a944721c41f044c1388d9dc42ca899bce" target="_top" xlink:title="corecvs::Vector2d::x">
<polygon fill="none" stroke="black" points="208.5,-160.5 208.5,-181.5 321.5,-181.5 321.5,-160.5 208.5,-160.5"/>
<text text-anchor="middle" x="265" y="-168.5" font-family="FreeSans.ttf" font-size="10.00">corecvs::Vector2d::x</text>
</a>
</g>
<!-- Node1&#45;&gt;Node2 -->
<g id="edge2" class="edge"><title>Node1&#45;&gt;Node2</title>
<path fill="none" stroke="midnightblue" d="M105.527,-101.508C129.341,-114.111 170.999,-135.475 208,-151 212.832,-153.027 217.95,-155.025 223.057,-156.928"/>
<polygon fill="midnightblue" stroke="midnightblue" points="222.194,-160.338 232.788,-160.453 224.578,-153.756 222.194,-160.338"/>
</g>
<!-- Node3 -->
<g id="node5" class="node"><title>Node3</title>
<a xlink:href="classcorecvs_1_1Vector3d.html#aec83d9ad04107cd9c2bb11abf33128c0" target="_top" xlink:title="Helper functions to access elements.">
<polygon fill="none" stroke="black" points="208.5,-120.5 208.5,-141.5 321.5,-141.5 321.5,-120.5 208.5,-120.5"/>
<text text-anchor="middle" x="265" y="-128.5" font-family="FreeSans.ttf" font-size="10.00">corecvs::Vector3d::x</text>
</a>
</g>
<!-- Node1&#45;&gt;Node3 -->
<g id="edge4" class="edge"><title>Node1&#45;&gt;Node3</title>
<path fill="none" stroke="midnightblue" d="M133.03,-101.51C156.063,-106.657 183.982,-112.895 208.198,-118.307"/>
<polygon fill="midnightblue" stroke="midnightblue" points="207.451,-121.726 217.974,-120.491 208.978,-114.895 207.451,-121.726"/>
</g>
<!-- Node4 -->
<g id="node7" class="node"><title>Node4</title>
<a xlink:href="classcorecvs_1_1Vector2d.html#ae1ea2ad4c0821001408bf963cffa8413" target="_top" xlink:title="corecvs::Vector2d::y">
<polygon fill="none" stroke="black" points="208.5,-80.5 208.5,-101.5 321.5,-101.5 321.5,-80.5 208.5,-80.5"/>
<text text-anchor="middle" x="265" y="-88.5" font-family="FreeSans.ttf" font-size="10.00">corecvs::Vector2d::y</text>
</a>
</g>
<!-- Node1&#45;&gt;Node4 -->
<g id="edge6" class="edge"><title>Node1&#45;&gt;Node4</title>
<path fill="none" stroke="midnightblue" d="M171.568,-91C180.548,-91 189.581,-91 198.305,-91"/>
<polygon fill="midnightblue" stroke="midnightblue" points="198.381,-94.5001 208.381,-91 198.381,-87.5001 198.381,-94.5001"/>
</g>
<!-- Node5 -->
<g id="node9" class="node"><title>Node5</title>
<a xlink:href="classcorecvs_1_1Vector3d.html#a940d88447f20fac800d1fa510c981275" target="_top" xlink:title="corecvs::Vector3d::y">
<polygon fill="none" stroke="black" points="208.5,-40.5 208.5,-61.5 321.5,-61.5 321.5,-40.5 208.5,-40.5"/>
<text text-anchor="middle" x="265" y="-48.5" font-family="FreeSans.ttf" font-size="10.00">corecvs::Vector3d::y</text>
</a>
</g>
<!-- Node1&#45;&gt;Node5 -->
<g id="edge8" class="edge"><title>Node1&#45;&gt;Node5</title>
<path fill="none" stroke="midnightblue" d="M133.03,-80.4905C156.063,-75.3434 183.982,-69.1046 208.198,-63.6933"/>
<polygon fill="midnightblue" stroke="midnightblue" points="208.978,-67.1054 217.974,-61.5087 207.451,-60.2739 208.978,-67.1054"/>
</g>
<!-- Node6 -->
<g id="node11" class="node"><title>Node6</title>
<a xlink:href="classcorecvs_1_1Vector3d.html#a4587f5d4984576c5c4c2d44a4140ce3f" target="_top" xlink:title="corecvs::Vector3d::z">
<polygon fill="none" stroke="black" points="208.5,-0.5 208.5,-21.5 321.5,-21.5 321.5,-0.5 208.5,-0.5"/>
<text text-anchor="middle" x="265" y="-8.5" font-family="FreeSans.ttf" font-size="10.00">corecvs::Vector3d::z</text>
</a>
</g>
<!-- Node1&#45;&gt;Node6 -->
<g id="edge10" class="edge"><title>Node1&#45;&gt;Node6</title>
<path fill="none" stroke="midnightblue" d="M105.527,-80.4917C129.341,-67.8893 170.999,-46.5245 208,-31 212.832,-28.9725 217.95,-26.9745 223.057,-25.0718"/>
<polygon fill="midnightblue" stroke="midnightblue" points="224.578,-28.2436 232.788,-21.5474 222.194,-21.6619 224.578,-28.2436"/>
</g>
</g>
</svg>
