<?xml version="1.0" encoding="UTF-8" standalone="no"?>
<!DOCTYPE svg PUBLIC "-//W3C//DTD SVG 1.1//EN"
 "http://www.w3.org/Graphics/SVG/1.1/DTD/svg11.dtd">
<!-- Generated by graphviz version 2.26.3 (20100126.1600)
 -->
<!-- Title: G Pages: 1 -->
<!--zoomable 130 -->
<svg id="main" version="1.1" xmlns="http://www.w3.org/2000/svg" xmlns:xlink="http://www.w3.org/1999/xlink" xml:space="preserve" onload="init(evt)">
        <defs>
                <circle id="rim" cx="0" cy="0" r="7"/>
                <circle id="rim2" cx="0" cy="0" r="3.5"/>
                <g id="zoomPlus">
                        <use xlink:href="#rim" fill="#404040">
                                <set attributeName="fill" to="#808080" begin="zoomplus.mouseover" end="zoomplus.mouseout"/>
                        </use>
                        <path d="M-4,0h8M0,-4v8" fill="none" stroke="white" stroke-width="1.5" pointer-events="none"/>
                </g>
                <g id="zoomMin">
                        <use xlink:href="#rim" fill="#404040">
                                <set attributeName="fill" to="#808080" begin="zoomminus.mouseover" end="zoomminus.mouseout"/>
                        </use>
                        <path d="M-4,0h8" fill="none" stroke="white" stroke-width="1.5" pointer-events="none"/>
                </g>
                <g id="dirArrow">
                        <path fill="none" stroke="white" stroke-width="1.5" d="M0,-3.0v7 M-2.5,-0.5L0,-3.0L2.5,-0.5"/>
                </g>
               <g id="resetDef">
                       <use xlink:href="#rim2" fill="#404040">
                               <set attributeName="fill" to="#808080" begin="reset.mouseover" end="reset.mouseout"/>
                       </use>
               </g>
        </defs>

<script type="text/javascript">
var viewWidth = 1162;
var viewHeight = 130;
var sectionId = 'dynsection-10';
</script>
<script xlink:href="svgpan.js"/>
<svg id="graph" class="graph">
<g id="viewport">
<title>G</title>
<!-- Node1 -->
<g id="node1" class="node"><title>Node1</title>
<polygon fill="#bfbfbf" stroke="black" points="0.5,-40.5 0.5,-61.5 221.5,-61.5 221.5,-40.5 0.5,-40.5"/>
<text text-anchor="middle" x="111" y="-48.5" font-family="FreeSans.ttf" font-size="10.00">corecvs::EllipticalApproximation::getRadius</text>
</g>
<!-- Node2 -->
<g id="node3" class="node"><title>Node2</title>
<a xlink:href="classcorecvs_1_1EllipticalApproximation.html#af7f9ed17c62e390bba1b79df00d8bb50" target="_top" xlink:title="corecvs::EllipticalApproximation::getDeviationSquare">
<polygon fill="none" stroke="black" points="258.5,-40.5 258.5,-61.5 527.5,-61.5 527.5,-40.5 258.5,-40.5"/>
<text text-anchor="middle" x="393" y="-48.5" font-family="FreeSans.ttf" font-size="10.00">corecvs::EllipticalApproximation::getDeviationSquare</text>
</a>
</g>
<!-- Node1&#45;&gt;Node2 -->
<g id="edge2" class="edge"><title>Node1&#45;&gt;Node2</title>
<path fill="none" stroke="midnightblue" d="M221.644,-51C230.389,-51 239.297,-51 248.226,-51"/>
<polygon fill="midnightblue" stroke="midnightblue" points="248.307,-54.5001 258.307,-51 248.307,-47.5001 248.307,-54.5001"/>
</g>
<!-- Node3 -->
<g id="node5" class="node"><title>Node3</title>
<a xlink:href="classcorecvs_1_1EllipticalApproximation.html#a742ab54a7a28b619a9dc7639cd8b7937" target="_top" xlink:title="corecvs::EllipticalApproximation::getPerAxisDeviationSquare">
<polygon fill="none" stroke="black" points="564,-80.5 564,-101.5 868,-101.5 868,-80.5 564,-80.5"/>
<text text-anchor="middle" x="716" y="-88.5" font-family="FreeSans.ttf" font-size="10.00">corecvs::EllipticalApproximation::getPerAxisDeviationSquare</text>
</a>
</g>
<!-- Node2&#45;&gt;Node3 -->
<g id="edge4" class="edge"><title>Node2&#45;&gt;Node3</title>
<path fill="none" stroke="midnightblue" d="M477.864,-61.5095C521.828,-66.954 575.656,-73.6199 621.006,-79.236"/>
<polygon fill="midnightblue" stroke="midnightblue" points="620.788,-82.7357 631.142,-80.4913 621.648,-75.7887 620.788,-82.7357"/>
</g>
<!-- Node6 -->
<g id="node11" class="node"><title>Node6</title>
<a xlink:href="classcorecvs_1_1Vector2d.html#a944721c41f044c1388d9dc42ca899bce" target="_top" xlink:title="corecvs::Vector2d::x">
<polygon fill="none" stroke="black" points="659.5,-40.5 659.5,-61.5 772.5,-61.5 772.5,-40.5 659.5,-40.5"/>
<text text-anchor="middle" x="716" y="-48.5" font-family="FreeSans.ttf" font-size="10.00">corecvs::Vector2d::x</text>
</a>
</g>
<!-- Node2&#45;&gt;Node6 -->
<g id="edge10" class="edge"><title>Node2&#45;&gt;Node6</title>
<path fill="none" stroke="midnightblue" d="M527.642,-51C569.55,-51 613.941,-51 649.095,-51"/>
<polygon fill="midnightblue" stroke="midnightblue" points="649.225,-54.5001 659.225,-51 649.225,-47.5001 649.225,-54.5001"/>
</g>
<!-- Node7 -->
<g id="node13" class="node"><title>Node7</title>
<a xlink:href="classcorecvs_1_1Vector2d.html#ae1ea2ad4c0821001408bf963cffa8413" target="_top" xlink:title="corecvs::Vector2d::y">
<polygon fill="none" stroke="black" points="659.5,-0.5 659.5,-21.5 772.5,-21.5 772.5,-0.5 659.5,-0.5"/>
<text text-anchor="middle" x="716" y="-8.5" font-family="FreeSans.ttf" font-size="10.00">corecvs::Vector2d::y</text>
</a>
</g>
<!-- Node2&#45;&gt;Node7 -->
<g id="edge12" class="edge"><title>Node2&#45;&gt;Node7</title>
<path fill="none" stroke="midnightblue" d="M477.864,-40.4905C531.373,-33.864 599.494,-25.428 649.157,-19.2777"/>
<polygon fill="midnightblue" stroke="midnightblue" points="649.654,-22.743 659.148,-18.0405 648.794,-15.7961 649.654,-22.743"/>
</g>
<!-- Node4 -->
<g id="node7" class="node"><title>Node4</title>
<a xlink:href="classcorecvs_1_1EllipticalApproximation.html#adb02d31a88acbeca21b8517e9ce059b0" target="_top" xlink:title="Position of input points center.">
<polygon fill="none" stroke="black" points="921.5,-100.5 921.5,-121.5 1136.5,-121.5 1136.5,-100.5 921.5,-100.5"/>
<text text-anchor="middle" x="1029" y="-108.5" font-family="FreeSans.ttf" font-size="10.00">corecvs::EllipticalApproximation::getMean</text>
</a>
</g>
<!-- Node3&#45;&gt;Node4 -->
<g id="edge6" class="edge"><title>Node3&#45;&gt;Node4</title>
<path fill="none" stroke="midnightblue" d="M868.374,-100.736C882.761,-101.656 897.195,-102.578 911.188,-103.472"/>
<polygon fill="midnightblue" stroke="midnightblue" points="911.09,-106.973 921.293,-104.118 911.536,-99.9871 911.09,-106.973"/>
</g>
<!-- Node5 -->
<g id="node9" class="node"><title>Node5</title>
<a xlink:href="classcorecvs_1_1EllipticalApproximation.html#a1b57876ca04df6425373d909fa6dc2a2" target="_top" xlink:title="corecvs::EllipticalApproximation::getMeanSquare">
<polygon fill="none" stroke="black" points="904,-60.5 904,-81.5 1154,-81.5 1154,-60.5 904,-60.5"/>
<text text-anchor="middle" x="1029" y="-68.5" font-family="FreeSans.ttf" font-size="10.00">corecvs::EllipticalApproximation::getMeanSquare</text>
</a>
</g>
<!-- Node3&#45;&gt;Node5 -->
<g id="edge8" class="edge"><title>Node3&#45;&gt;Node5</title>
<path fill="none" stroke="midnightblue" d="M868.374,-81.2636C876.774,-80.7269 885.19,-80.1891 893.525,-79.6565"/>
<polygon fill="midnightblue" stroke="midnightblue" points="893.889,-83.1405 903.646,-79.0099 893.443,-76.1548 893.889,-83.1405"/>
</g>
</g>
</svg>
        <g id="navigator" transform="translate(0 0)" fill="#404254">
                <rect fill="#f2f5e9" fill-opacity="0.5" stroke="#606060" stroke-width=".5" x="0" y="0" width="60" height="60"/>
                <use id="zoomplus" xlink:href="#zoomPlus" x="17" y="9" onmousedown="handleZoom(evt,'in')"/>
                <use id="zoomminus" xlink:href="#zoomMin" x="42" y="9" onmousedown="handleZoom(evt,'out')"/>
                <use id="reset" xlink:href="#resetDef" x="30" y="36" onmousedown="handleReset()"/>
                <g id="arrowUp" xlink:href="#dirArrow" transform="translate(30 24)" onmousedown="handlePan(0,-1)">
                  <use xlink:href="#rim" fill="#404040">
                        <set attributeName="fill" to="#808080" begin="arrowUp.mouseover" end="arrowUp.mouseout"/>
                  </use>
                  <path fill="none" stroke="white" stroke-width="1.5" d="M0,-3.0v7 M-2.5,-0.5L0,-3.0L2.5,-0.5"/>
                </g>
                <g id="arrowRight" xlink:href="#dirArrow" transform="rotate(90) translate(36 -43)" onmousedown="handlePan(1,0)">
                  <use xlink:href="#rim" fill="#404040">
                        <set attributeName="fill" to="#808080" begin="arrowRight.mouseover" end="arrowRight.mouseout"/>
                  </use>
                  <path fill="none" stroke="white" stroke-width="1.5" d="M0,-3.0v7 M-2.5,-0.5L0,-3.0L2.5,-0.5"/>
                </g>
                <g id="arrowDown" xlink:href="#dirArrow" transform="rotate(180) translate(-30 -48)" onmousedown="handlePan(0,1)">
                  <use xlink:href="#rim" fill="#404040">
                        <set attributeName="fill" to="#808080" begin="arrowDown.mouseover" end="arrowDown.mouseout"/>
                  </use>
                  <path fill="none" stroke="white" stroke-width="1.5" d="M0,-3.0v7 M-2.5,-0.5L0,-3.0L2.5,-0.5"/>
                </g>
                <g id="arrowLeft" xlink:href="#dirArrow" transform="rotate(270) translate(-36 17)" onmousedown="handlePan(-1,0)">
                  <use xlink:href="#rim" fill="#404040">
                        <set attributeName="fill" to="#808080" begin="arrowLeft.mouseover" end="arrowLeft.mouseout"/>
                  </use>
                  <path fill="none" stroke="white" stroke-width="1.5" d="M0,-3.0v7 M-2.5,-0.5L0,-3.0L2.5,-0.5"/>
                </g>
        </g>
</svg>
