<?xml version="1.0" encoding="UTF-8" standalone="no"?>
<!DOCTYPE svg PUBLIC "-//W3C//DTD SVG 1.1//EN"
 "http://www.w3.org/Graphics/SVG/1.1/DTD/svg11.dtd">
<!-- Generated by graphviz version 2.26.3 (20100126.1600)
 -->
<!-- Title: G Pages: 1 -->
<svg width="380pt" height="70pt"
 viewBox="0.00 0.00 380.00 70.00" xmlns="http://www.w3.org/2000/svg" xmlns:xlink="http://www.w3.org/1999/xlink">
<g id="graph1" class="graph" transform="scale(1 1) rotate(0) translate(4 66)">
<title>G</title>
<!-- Node1 -->
<g id="node1" class="node"><title>Node1</title>
<polygon fill="#bfbfbf" stroke="black" points="0,-20.5 0,-41.5 222,-41.5 222,-20.5 0,-20.5"/>
<text text-anchor="middle" x="111" y="-28.5" font-family="FreeSans.ttf" font-size="10.00">corecvs::CameraIntrinsics::getInvKMatrix33</text>
</g>
<!-- Node2 -->
<g id="node3" class="node"><title>Node2</title>
<a xlink:href="classcorecvs_1_1Vector2d.html#a944721c41f044c1388d9dc42ca899bce" target="_top" xlink:title="corecvs::Vector2d::x">
<polygon fill="none" stroke="black" points="258.5,-40.5 258.5,-61.5 371.5,-61.5 371.5,-40.5 258.5,-40.5"/>
<text text-anchor="middle" x="315" y="-48.5" font-family="FreeSans.ttf" font-size="10.00">corecvs::Vector2d::x</text>
</a>
</g>
<!-- Node1&#45;&gt;Node2 -->
<g id="edge2" class="edge"><title>Node1&#45;&gt;Node2</title>
<path fill="none" stroke="midnightblue" d="M218.377,-41.5271C228.527,-42.5223 238.607,-43.5105 248.212,-44.4521"/>
<polygon fill="midnightblue" stroke="midnightblue" points="248.135,-47.9613 258.429,-45.4538 248.818,-40.9947 248.135,-47.9613"/>
</g>
<!-- Node3 -->
<g id="node5" class="node"><title>Node3</title>
<a xlink:href="classcorecvs_1_1Vector2d.html#ae1ea2ad4c0821001408bf963cffa8413" target="_top" xlink:title="corecvs::Vector2d::y">
<polygon fill="none" stroke="black" points="258.5,-0.5 258.5,-21.5 371.5,-21.5 371.5,-0.5 258.5,-0.5"/>
<text text-anchor="middle" x="315" y="-8.5" font-family="FreeSans.ttf" font-size="10.00">corecvs::Vector2d::y</text>
</a>
</g>
<!-- Node1&#45;&gt;Node3 -->
<g id="edge4" class="edge"><title>Node1&#45;&gt;Node3</title>
<path fill="none" stroke="midnightblue" d="M218.377,-20.4729C228.527,-19.4777 238.607,-18.4895 248.212,-17.5479"/>
<polygon fill="midnightblue" stroke="midnightblue" points="248.818,-21.0053 258.429,-16.5462 248.135,-14.0387 248.818,-21.0053"/>
</g>
</g>
</svg>
