<?xml version="1.0" encoding="UTF-8" standalone="no"?>
<!DOCTYPE svg PUBLIC "-//W3C//DTD SVG 1.1//EN"
 "http://www.w3.org/Graphics/SVG/1.1/DTD/svg11.dtd">
<!-- Generated by graphviz version 2.26.3 (20100126.1600)
 -->
<!-- Title: G Pages: 1 -->
<svg width="402pt" height="222pt"
 viewBox="0.00 0.00 402.00 222.00" xmlns="http://www.w3.org/2000/svg" xmlns:xlink="http://www.w3.org/1999/xlink">
<g id="graph1" class="graph" transform="scale(1 1) rotate(0) translate(4 218)">
<title>G</title>
<!-- Node1 -->
<g id="node1" class="node"><title>Node1</title>
<polygon fill="#bfbfbf" stroke="black" points="147.5,-0.5 147.5,-21.5 246.5,-21.5 246.5,-0.5 147.5,-0.5"/>
<text text-anchor="middle" x="197" y="-8.5" font-family="FreeSans.ttf" font-size="10.00">CaptureStatistics</text>
</g>
<!-- Node2 -->
<g id="node2" class="node"><title>Node2</title>
<a xlink:href="classcorecvs_1_1FixedVector.html" target="_top" xlink:title="corecvs::FixedVector\&lt; uint64_t, MAX_ID \&gt;">
<polygon fill="none" stroke="black" points="88,-72.5 88,-93.5 306,-93.5 306,-72.5 88,-72.5"/>
<text text-anchor="middle" x="197" y="-80.5" font-family="FreeSans.ttf" font-size="10.00">corecvs::FixedVector&lt; uint64_t, MAX_ID &gt;</text>
</a>
</g>
<!-- Node2&#45;&gt;Node1 -->
<g id="edge2" class="edge"><title>Node2&#45;&gt;Node1</title>
<path fill="none" stroke="#9a32cd" stroke-dasharray="5,2" d="M197,-62.2348C197,-48.969 197,-32.3188 197,-21.6674"/>
<polygon fill="#9a32cd" stroke="#9a32cd" points="193.5,-62.3761 197,-72.3762 200.5,-62.3762 193.5,-62.3761"/>
<text text-anchor="middle" x="214" y="-44.5" font-family="FreeSans.ttf" font-size="10.00"> values</text>
</g>
<!-- Node3 -->
<g id="node4" class="node"><title>Node3</title>
<a xlink:href="classcorecvs_1_1FixedVectorBase.html" target="_top" xlink:title="corecvs::FixedVectorBase\&lt; FixedVector\&lt; uint64_t, length \&gt;, uint64_t, length \&gt;">
<polygon fill="none" stroke="black" points="0,-132.5 0,-153.5 394,-153.5 394,-132.5 0,-132.5"/>
<text text-anchor="middle" x="197" y="-140.5" font-family="FreeSans.ttf" font-size="10.00">corecvs::FixedVectorBase&lt; FixedVector&lt; uint64_t, length &gt;, uint64_t, length &gt;</text>
</a>
</g>
<!-- Node3&#45;&gt;Node2 -->
<g id="edge4" class="edge"><title>Node3&#45;&gt;Node2</title>
<path fill="none" stroke="midnightblue" d="M197,-122.231C197,-112.592 197,-101.544 197,-93.6339"/>
<polygon fill="midnightblue" stroke="midnightblue" points="193.5,-122.273 197,-132.273 200.5,-122.273 193.5,-122.273"/>
</g>
<!-- Node4 -->
<g id="node6" class="node"><title>Node4</title>
<a xlink:href="classcorecvs_1_1VectorOperationsBase.html" target="_top" xlink:title="corecvs::VectorOperationsBase\&lt; FixedVector\&lt; uint64_t, length \&gt;, uint64_t \&gt;">
<polygon fill="none" stroke="black" points="4,-192.5 4,-213.5 390,-213.5 390,-192.5 4,-192.5"/>
<text text-anchor="middle" x="197" y="-200.5" font-family="FreeSans.ttf" font-size="10.00">corecvs::VectorOperationsBase&lt; FixedVector&lt; uint64_t, length &gt;, uint64_t &gt;</text>
</a>
</g>
<!-- Node4&#45;&gt;Node3 -->
<g id="edge6" class="edge"><title>Node4&#45;&gt;Node3</title>
<path fill="none" stroke="midnightblue" d="M197,-182.231C197,-172.592 197,-161.544 197,-153.634"/>
<polygon fill="midnightblue" stroke="midnightblue" points="193.5,-182.273 197,-192.273 200.5,-182.273 193.5,-182.273"/>
</g>
</g>
</svg>
