<?xml version="1.0" encoding="UTF-8" standalone="no"?>
<!DOCTYPE svg PUBLIC "-//W3C//DTD SVG 1.1//EN"
 "http://www.w3.org/Graphics/SVG/1.1/DTD/svg11.dtd">
<!-- Generated by graphviz version 2.26.3 (20100126.1600)
 -->
<!-- Title: G Pages: 1 -->
<!--zoomable 150 -->
<svg id="main" version="1.1" xmlns="http://www.w3.org/2000/svg" xmlns:xlink="http://www.w3.org/1999/xlink" xml:space="preserve" onload="init(evt)">
        <defs>
                <circle id="rim" cx="0" cy="0" r="7"/>
                <circle id="rim2" cx="0" cy="0" r="3.5"/>
                <g id="zoomPlus">
                        <use xlink:href="#rim" fill="#404040">
                                <set attributeName="fill" to="#808080" begin="zoomplus.mouseover" end="zoomplus.mouseout"/>
                        </use>
                        <path d="M-4,0h8M0,-4v8" fill="none" stroke="white" stroke-width="1.5" pointer-events="none"/>
                </g>
                <g id="zoomMin">
                        <use xlink:href="#rim" fill="#404040">
                                <set attributeName="fill" to="#808080" begin="zoomminus.mouseover" end="zoomminus.mouseout"/>
                        </use>
                        <path d="M-4,0h8" fill="none" stroke="white" stroke-width="1.5" pointer-events="none"/>
                </g>
                <g id="dirArrow">
                        <path fill="none" stroke="white" stroke-width="1.5" d="M0,-3.0v7 M-2.5,-0.5L0,-3.0L2.5,-0.5"/>
                </g>
               <g id="resetDef">
                       <use xlink:href="#rim2" fill="#404040">
                               <set attributeName="fill" to="#808080" begin="reset.mouseover" end="reset.mouseout"/>
                       </use>
               </g>
        </defs>

<script type="text/javascript">
var viewWidth = 534;
var viewHeight = 150;
var sectionId = 'dynsection-2';
</script>
<script xlink:href="svgpan.js"/>
<svg id="graph" class="graph">
<g id="viewport">
<title>G</title>
<!-- Node1 -->
<g id="node1" class="node"><title>Node1</title>
<polygon fill="#bfbfbf" stroke="black" points="0.5,-60.5 0.5,-81.5 123.5,-81.5 123.5,-60.5 0.5,-60.5"/>
<text text-anchor="middle" x="62" y="-68.5" font-family="FreeSans.ttf" font-size="10.00">GainOffset::GainOffset</text>
</g>
<!-- Node2 -->
<g id="node3" class="node"><title>Node2</title>
<a xlink:href="classGainOffset.html#af3a2cef2cb894359a9b43d1b18156405" target="_top" xlink:title="GainOffset::updateGainSlider">
<polygon fill="none" stroke="black" points="163.5,-120.5 163.5,-141.5 318.5,-141.5 318.5,-120.5 163.5,-120.5"/>
<text text-anchor="middle" x="241" y="-128.5" font-family="FreeSans.ttf" font-size="10.00">GainOffset::updateGainSlider</text>
</a>
</g>
<!-- Node1&#45;&gt;Node2 -->
<g id="edge2" class="edge"><title>Node1&#45;&gt;Node2</title>
<path fill="none" stroke="midnightblue" d="M85.0105,-81.5047C104.649,-90.1993 133.79,-102.465 160,-111 167.457,-113.428 175.382,-115.724 183.245,-117.834"/>
<polygon fill="midnightblue" stroke="midnightblue" points="182.572,-121.276 193.131,-120.405 184.333,-114.501 182.572,-121.276"/>
</g>
<!-- Node4 -->
<g id="node7" class="node"><title>Node4</title>
<a xlink:href="classGainOffset.html#a89ae3a69026f7422e6cf4d3b6a6a797c" target="_top" xlink:title="GainOffset::updateGainText">
<polygon fill="none" stroke="black" points="167.5,-80.5 167.5,-101.5 314.5,-101.5 314.5,-80.5 167.5,-80.5"/>
<text text-anchor="middle" x="241" y="-88.5" font-family="FreeSans.ttf" font-size="10.00">GainOffset::updateGainText</text>
</a>
</g>
<!-- Node1&#45;&gt;Node4 -->
<g id="edge6" class="edge"><title>Node1&#45;&gt;Node4</title>
<path fill="none" stroke="midnightblue" d="M123.602,-77.8829C134.364,-79.0854 145.724,-80.3547 156.969,-81.6111"/>
<polygon fill="midnightblue" stroke="midnightblue" points="156.916,-85.1269 167.243,-82.759 157.694,-78.1702 156.916,-85.1269"/>
</g>
<!-- Node5 -->
<g id="node10" class="node"><title>Node5</title>
<a xlink:href="classGainOffset.html#a592a52b0d0e853c9f911218261297d84" target="_top" xlink:title="GainOffset::updateOffsetSlider">
<polygon fill="none" stroke="black" points="160,-40.5 160,-61.5 322,-61.5 322,-40.5 160,-40.5"/>
<text text-anchor="middle" x="241" y="-48.5" font-family="FreeSans.ttf" font-size="10.00">GainOffset::updateOffsetSlider</text>
</a>
</g>
<!-- Node1&#45;&gt;Node5 -->
<g id="edge10" class="edge"><title>Node1&#45;&gt;Node5</title>
<path fill="none" stroke="midnightblue" d="M123.602,-64.1171C132.051,-63.173 140.87,-62.1877 149.712,-61.1998"/>
<polygon fill="midnightblue" stroke="midnightblue" points="150.136,-64.6742 159.686,-60.0854 149.359,-57.7175 150.136,-64.6742"/>
</g>
<!-- Node6 -->
<g id="node13" class="node"><title>Node6</title>
<a xlink:href="classGainOffset.html#a662c529593dabc9da6e28222818422e4" target="_top" xlink:title="GainOffset::updateOffsetText">
<polygon fill="none" stroke="black" points="164,-0.5 164,-21.5 318,-21.5 318,-0.5 164,-0.5"/>
<text text-anchor="middle" x="241" y="-8.5" font-family="FreeSans.ttf" font-size="10.00">GainOffset::updateOffsetText</text>
</a>
</g>
<!-- Node1&#45;&gt;Node6 -->
<g id="edge14" class="edge"><title>Node1&#45;&gt;Node6</title>
<path fill="none" stroke="midnightblue" d="M85.0105,-60.4953C104.649,-51.8007 133.79,-39.5347 160,-31 167.457,-28.5719 175.382,-26.2762 183.245,-24.1657"/>
<polygon fill="midnightblue" stroke="midnightblue" points="184.333,-27.4992 193.131,-21.5952 182.572,-20.7244 184.333,-27.4992"/>
</g>
<!-- Node3 -->
<g id="node5" class="node"><title>Node3</title>
<a xlink:href="classBaseFilter.html#a5f6ff60d8ce8d12ca475d4ca1a644460" target="_top" xlink:title="BaseFilter::parametersChanged">
<polygon fill="none" stroke="black" points="358,-60.5 358,-81.5 526,-81.5 526,-60.5 358,-60.5"/>
<text text-anchor="middle" x="442" y="-68.5" font-family="FreeSans.ttf" font-size="10.00">BaseFilter::parametersChanged</text>
</a>
</g>
<!-- Node2&#45;&gt;Node3 -->
<g id="edge4" class="edge"><title>Node2&#45;&gt;Node3</title>
<path fill="none" stroke="midnightblue" d="M286.581,-120.421C298.181,-117.544 310.591,-114.304 322,-111 349.316,-103.089 379.703,-92.9456 403.064,-84.8532"/>
<polygon fill="midnightblue" stroke="midnightblue" points="404.326,-88.1199 412.617,-81.523 402.022,-81.5101 404.326,-88.1199"/>
</g>
<!-- Node4&#45;&gt;Node3 -->
<g id="edge8" class="edge"><title>Node4&#45;&gt;Node3</title>
<path fill="none" stroke="midnightblue" d="M314.704,-83.6663C325.426,-82.5994 336.588,-81.4887 347.65,-80.388"/>
<polygon fill="midnightblue" stroke="midnightblue" points="348.161,-83.8545 357.766,-79.3815 347.468,-76.8889 348.161,-83.8545"/>
</g>
<!-- Node5&#45;&gt;Node3 -->
<g id="edge12" class="edge"><title>Node5&#45;&gt;Node3</title>
<path fill="none" stroke="midnightblue" d="M322.175,-59.0771C330.633,-59.9187 339.28,-60.7791 347.865,-61.6334"/>
<polygon fill="midnightblue" stroke="midnightblue" points="347.602,-65.1244 357.9,-62.6318 348.296,-58.1588 347.602,-65.1244"/>
</g>
<!-- Node6&#45;&gt;Node3 -->
<g id="edge16" class="edge"><title>Node6&#45;&gt;Node3</title>
<path fill="none" stroke="midnightblue" d="M286.581,-21.5791C298.181,-24.4563 310.591,-27.6958 322,-31 349.316,-38.9114 379.703,-49.0544 403.064,-57.1468"/>
<polygon fill="midnightblue" stroke="midnightblue" points="402.022,-60.4899 412.617,-60.477 404.326,-53.8801 402.022,-60.4899"/>
</g>
</g>
</svg>
        <g id="navigator" transform="translate(0 0)" fill="#404254">
                <rect fill="#f2f5e9" fill-opacity="0.5" stroke="#606060" stroke-width=".5" x="0" y="0" width="60" height="60"/>
                <use id="zoomplus" xlink:href="#zoomPlus" x="17" y="9" onmousedown="handleZoom(evt,'in')"/>
                <use id="zoomminus" xlink:href="#zoomMin" x="42" y="9" onmousedown="handleZoom(evt,'out')"/>
                <use id="reset" xlink:href="#resetDef" x="30" y="36" onmousedown="handleReset()"/>
                <g id="arrowUp" xlink:href="#dirArrow" transform="translate(30 24)" onmousedown="handlePan(0,-1)">
                  <use xlink:href="#rim" fill="#404040">
                        <set attributeName="fill" to="#808080" begin="arrowUp.mouseover" end="arrowUp.mouseout"/>
                  </use>
                  <path fill="none" stroke="white" stroke-width="1.5" d="M0,-3.0v7 M-2.5,-0.5L0,-3.0L2.5,-0.5"/>
                </g>
                <g id="arrowRight" xlink:href="#dirArrow" transform="rotate(90) translate(36 -43)" onmousedown="handlePan(1,0)">
                  <use xlink:href="#rim" fill="#404040">
                        <set attributeName="fill" to="#808080" begin="arrowRight.mouseover" end="arrowRight.mouseout"/>
                  </use>
                  <path fill="none" stroke="white" stroke-width="1.5" d="M0,-3.0v7 M-2.5,-0.5L0,-3.0L2.5,-0.5"/>
                </g>
                <g id="arrowDown" xlink:href="#dirArrow" transform="rotate(180) translate(-30 -48)" onmousedown="handlePan(0,1)">
                  <use xlink:href="#rim" fill="#404040">
                        <set attributeName="fill" to="#808080" begin="arrowDown.mouseover" end="arrowDown.mouseout"/>
                  </use>
                  <path fill="none" stroke="white" stroke-width="1.5" d="M0,-3.0v7 M-2.5,-0.5L0,-3.0L2.5,-0.5"/>
                </g>
                <g id="arrowLeft" xlink:href="#dirArrow" transform="rotate(270) translate(-36 17)" onmousedown="handlePan(-1,0)">
                  <use xlink:href="#rim" fill="#404040">
                        <set attributeName="fill" to="#808080" begin="arrowLeft.mouseover" end="arrowLeft.mouseout"/>
                  </use>
                  <path fill="none" stroke="white" stroke-width="1.5" d="M0,-3.0v7 M-2.5,-0.5L0,-3.0L2.5,-0.5"/>
                </g>
        </g>
</svg>
