<?xml version="1.0" encoding="UTF-8" standalone="no"?>
<!DOCTYPE svg PUBLIC "-//W3C//DTD SVG 1.1//EN"
 "http://www.w3.org/Graphics/SVG/1.1/DTD/svg11.dtd">
<!-- Generated by graphviz version 2.26.3 (20100126.1600)
 -->
<!-- Title: G Pages: 1 -->
<svg width="210pt" height="186pt"
 viewBox="0.00 0.00 210.00 186.00" xmlns="http://www.w3.org/2000/svg" xmlns:xlink="http://www.w3.org/1999/xlink">
<g id="graph1" class="graph" transform="scale(1 1) rotate(0) translate(4 182)">
<title>G</title>
<!-- Node1 -->
<g id="node1" class="node"><title>Node1</title>
<polygon fill="#bfbfbf" stroke="black" points="21,-0.5 21,-21.5 181,-21.5 181,-0.5 21,-0.5"/>
<text text-anchor="middle" x="101" y="-8.5" font-family="FreeSans.ttf" font-size="10.00">MjpegDecoderLazy::ScanData</text>
</g>
<!-- Node2 -->
<g id="node2" class="node"><title>Node2</title>
<a xlink:href="classMjpegDecoderLazy_1_1HuffmanTable.html" target="_top" xlink:title="MjpegDecoderLazy::HuffmanTable">
<polygon fill="none" stroke="black" points="12,-84.5 12,-105.5 190,-105.5 190,-84.5 12,-84.5"/>
<text text-anchor="middle" x="101" y="-92.5" font-family="FreeSans.ttf" font-size="10.00">MjpegDecoderLazy::HuffmanTable</text>
</a>
</g>
<!-- Node2&#45;&gt;Node1 -->
<g id="edge2" class="edge"><title>Node2&#45;&gt;Node1</title>
<path fill="none" stroke="#9a32cd" stroke-dasharray="5,2" d="M101,-73.9452C101,-57.2568 101,-34.6387 101,-21.5523"/>
<polygon fill="#9a32cd" stroke="#9a32cd" points="97.5001,-74.3613 101,-84.3613 104.5,-74.3614 97.5001,-74.3613"/>
<text text-anchor="middle" x="114.5" y="-57" font-family="FreeSans.ttf" font-size="10.00"> hudc</text>
<text text-anchor="middle" x="114.5" y="-44" font-family="FreeSans.ttf" font-size="10.00">huac</text>
</g>
<!-- Node3 -->
<g id="node4" class="node"><title>Node3</title>
<a xlink:href="classMjpegDecoderLazy_1_1HuffmanTableEntry.html" target="_top" xlink:title="MjpegDecoderLazy::HuffmanTableEntry">
<polygon fill="none" stroke="black" points="-0.5,-156.5 -0.5,-177.5 202.5,-177.5 202.5,-156.5 -0.5,-156.5"/>
<text text-anchor="middle" x="101" y="-164.5" font-family="FreeSans.ttf" font-size="10.00">MjpegDecoderLazy::HuffmanTableEntry</text>
</a>
</g>
<!-- Node3&#45;&gt;Node2 -->
<g id="edge4" class="edge"><title>Node3&#45;&gt;Node2</title>
<path fill="none" stroke="#9a32cd" stroke-dasharray="5,2" d="M101,-146.235C101,-132.969 101,-116.319 101,-105.667"/>
<polygon fill="#9a32cd" stroke="#9a32cd" points="97.5001,-146.376 101,-156.376 104.5,-146.376 97.5001,-146.376"/>
<text text-anchor="middle" x="115" y="-128.5" font-family="FreeSans.ttf" font-size="10.00"> table</text>
</g>
</g>
</svg>
