<?xml version="1.0" encoding="UTF-8" standalone="no"?>
<!DOCTYPE svg PUBLIC "-//W3C//DTD SVG 1.1//EN"
 "http://www.w3.org/Graphics/SVG/1.1/DTD/svg11.dtd">
<!-- Generated by graphviz version 2.26.3 (20100126.1600)
 -->
<!-- Title: G Pages: 1 -->
<svg width="322pt" height="70pt"
 viewBox="0.00 0.00 322.00 70.00" xmlns="http://www.w3.org/2000/svg" xmlns:xlink="http://www.w3.org/1999/xlink">
<g id="graph1" class="graph" transform="scale(1 1) rotate(0) translate(4 66)">
<title>G</title>
<!-- Node1 -->
<g id="node1" class="node"><title>Node1</title>
<polygon fill="#bfbfbf" stroke="black" points="0,-20.5 0,-41.5 164,-41.5 164,-20.5 0,-20.5"/>
<text text-anchor="middle" x="82" y="-28.5" font-family="FreeSans.ttf" font-size="10.00">corecvs::RadialFunc::operator()</text>
</g>
<!-- Node2 -->
<g id="node3" class="node"><title>Node2</title>
<a xlink:href="classcorecvs_1_1Vector2d.html#a944721c41f044c1388d9dc42ca899bce" target="_top" xlink:title="corecvs::Vector2d::x">
<polygon fill="none" stroke="black" points="200.5,-40.5 200.5,-61.5 313.5,-61.5 313.5,-40.5 200.5,-40.5"/>
<text text-anchor="middle" x="257" y="-48.5" font-family="FreeSans.ttf" font-size="10.00">corecvs::Vector2d::x</text>
</a>
</g>
<!-- Node1&#45;&gt;Node2 -->
<g id="edge2" class="edge"><title>Node1&#45;&gt;Node2</title>
<path fill="none" stroke="midnightblue" d="M164.12,-40.3851C172.928,-41.3918 181.809,-42.4068 190.405,-43.3891"/>
<polygon fill="midnightblue" stroke="midnightblue" points="190.009,-46.8666 200.342,-44.5248 190.804,-39.9119 190.009,-46.8666"/>
</g>
<!-- Node3 -->
<g id="node5" class="node"><title>Node3</title>
<a xlink:href="classcorecvs_1_1Vector2d.html#ae1ea2ad4c0821001408bf963cffa8413" target="_top" xlink:title="corecvs::Vector2d::y">
<polygon fill="none" stroke="black" points="200.5,-0.5 200.5,-21.5 313.5,-21.5 313.5,-0.5 200.5,-0.5"/>
<text text-anchor="middle" x="257" y="-8.5" font-family="FreeSans.ttf" font-size="10.00">corecvs::Vector2d::y</text>
</a>
</g>
<!-- Node1&#45;&gt;Node3 -->
<g id="edge4" class="edge"><title>Node1&#45;&gt;Node3</title>
<path fill="none" stroke="midnightblue" d="M164.12,-21.6149C172.928,-20.6082 181.809,-19.5932 190.405,-18.6109"/>
<polygon fill="midnightblue" stroke="midnightblue" points="190.804,-22.0881 200.342,-17.4752 190.009,-15.1334 190.804,-22.0881"/>
</g>
</g>
</svg>
