<?xml version="1.0" encoding="UTF-8" standalone="no"?>
<!DOCTYPE svg PUBLIC "-//W3C//DTD SVG 1.1//EN"
 "http://www.w3.org/Graphics/SVG/1.1/DTD/svg11.dtd">
<!-- Generated by graphviz version 2.26.3 (20100126.1600)
 -->
<!-- Title: G Pages: 1 -->
<svg width="498pt" height="110pt"
 viewBox="0.00 0.00 498.00 110.00" xmlns="http://www.w3.org/2000/svg" xmlns:xlink="http://www.w3.org/1999/xlink">
<g id="graph1" class="graph" transform="scale(1 1) rotate(0) translate(4 106)">
<title>G</title>
<!-- Node1 -->
<g id="node1" class="node"><title>Node1</title>
<polygon fill="#bfbfbf" stroke="black" points="0,-40.5 0,-61.5 254,-61.5 254,-40.5 0,-40.5"/>
<text text-anchor="middle" x="127" y="-48.5" font-family="FreeSans.ttf" font-size="10.00">V4L2CameraDescriptor::~V4L2CameraDescriptor</text>
</g>
<!-- Node2 -->
<g id="node3" class="node"><title>Node2</title>
<a xlink:href="classV4L2CameraDescriptor.html#a9d86faa0c6c5e6d49070906392de93ca" target="_top" xlink:title="V4L2CameraDescriptor::deinitBuffers">
<polygon fill="none" stroke="black" points="293,-80.5 293,-101.5 487,-101.5 487,-80.5 293,-80.5"/>
<text text-anchor="middle" x="390" y="-88.5" font-family="FreeSans.ttf" font-size="10.00">V4L2CameraDescriptor::deinitBuffers</text>
</a>
</g>
<!-- Node1&#45;&gt;Node2 -->
<g id="edge2" class="edge"><title>Node1&#45;&gt;Node2</title>
<path fill="none" stroke="midnightblue" d="M196.1,-61.5095C231.296,-66.8625 274.255,-73.3962 310.784,-78.952"/>
<polygon fill="midnightblue" stroke="midnightblue" points="310.493,-82.4478 320.905,-80.4913 311.545,-75.5274 310.493,-82.4478"/>
</g>
<!-- Node3 -->
<g id="node5" class="node"><title>Node3</title>
<a xlink:href="classV4L2CameraDescriptor.html#a0970c8e997bb1c7d186aab7c041cff3d" target="_top" xlink:title="V4L2CameraDescriptor::deinitCamera">
<polygon fill="none" stroke="black" points="290.5,-40.5 290.5,-61.5 489.5,-61.5 489.5,-40.5 290.5,-40.5"/>
<text text-anchor="middle" x="390" y="-48.5" font-family="FreeSans.ttf" font-size="10.00">V4L2CameraDescriptor::deinitCamera</text>
</a>
</g>
<!-- Node1&#45;&gt;Node3 -->
<g id="edge4" class="edge"><title>Node1&#45;&gt;Node3</title>
<path fill="none" stroke="midnightblue" d="M254.263,-51C262.839,-51 271.439,-51 279.916,-51"/>
<polygon fill="midnightblue" stroke="midnightblue" points="280.187,-54.5001 290.187,-51 280.187,-47.5001 280.187,-54.5001"/>
</g>
<!-- Node4 -->
<g id="node7" class="node"><title>Node4</title>
<a xlink:href="classV4L2CameraDescriptor.html#a679d072b7a4a9a5391a8d28ac15eb9e0" target="_top" xlink:title="V4L2CameraDescriptor::stop">
<polygon fill="none" stroke="black" points="312.5,-0.5 312.5,-21.5 467.5,-21.5 467.5,-0.5 312.5,-0.5"/>
<text text-anchor="middle" x="390" y="-8.5" font-family="FreeSans.ttf" font-size="10.00">V4L2CameraDescriptor::stop</text>
</a>
</g>
<!-- Node1&#45;&gt;Node4 -->
<g id="edge6" class="edge"><title>Node1&#45;&gt;Node4</title>
<path fill="none" stroke="midnightblue" d="M196.1,-40.4905C231.296,-35.1375 274.255,-28.6038 310.784,-23.048"/>
<polygon fill="midnightblue" stroke="midnightblue" points="311.545,-26.4726 320.905,-21.5087 310.493,-19.5522 311.545,-26.4726"/>
</g>
</g>
</svg>
