<?xml version="1.0" encoding="UTF-8" standalone="no"?>
<!DOCTYPE svg PUBLIC "-//W3C//DTD SVG 1.1//EN"
 "http://www.w3.org/Graphics/SVG/1.1/DTD/svg11.dtd">
<!-- Generated by graphviz version 2.26.3 (20100126.1600)
 -->
<!-- Title: G Pages: 1 -->
<!--zoomable 630 -->
<svg id="main" version="1.1" xmlns="http://www.w3.org/2000/svg" xmlns:xlink="http://www.w3.org/1999/xlink" xml:space="preserve" onload="init(evt)">
        <defs>
                <circle id="rim" cx="0" cy="0" r="7"/>
                <circle id="rim2" cx="0" cy="0" r="3.5"/>
                <g id="zoomPlus">
                        <use xlink:href="#rim" fill="#404040">
                                <set attributeName="fill" to="#808080" begin="zoomplus.mouseover" end="zoomplus.mouseout"/>
                        </use>
                        <path d="M-4,0h8M0,-4v8" fill="none" stroke="white" stroke-width="1.5" pointer-events="none"/>
                </g>
                <g id="zoomMin">
                        <use xlink:href="#rim" fill="#404040">
                                <set attributeName="fill" to="#808080" begin="zoomminus.mouseover" end="zoomminus.mouseout"/>
                        </use>
                        <path d="M-4,0h8" fill="none" stroke="white" stroke-width="1.5" pointer-events="none"/>
                </g>
                <g id="dirArrow">
                        <path fill="none" stroke="white" stroke-width="1.5" d="M0,-3.0v7 M-2.5,-0.5L0,-3.0L2.5,-0.5"/>
                </g>
               <g id="resetDef">
                       <use xlink:href="#rim2" fill="#404040">
                               <set attributeName="fill" to="#808080" begin="reset.mouseover" end="reset.mouseout"/>
                       </use>
               </g>
        </defs>

<script type="text/javascript">
var viewWidth = 1208;
var viewHeight = 630;
var sectionId = 'dynsection-7';
</script>
<script xlink:href="svgpan.js"/>
<svg id="graph" class="graph">
<g id="viewport">
<title>G</title>
<!-- Node1 -->
<g id="node1" class="node"><title>Node1</title>
<polygon fill="#bfbfbf" stroke="black" points="0.5,-318.5 0.5,-339.5 179.5,-339.5 179.5,-318.5 0.5,-318.5"/>
<text text-anchor="middle" x="90" y="-326.5" font-family="FreeSans.ttf" font-size="10.00">RecorderThread::processNewData</text>
</g>
<!-- Node2 -->
<g id="node3" class="node"><title>Node2</title>
<a xlink:href="classResultImage.html#aad214bc2bd6a5325054064e2366b9418" target="_top" xlink:title="ResultImage::addLayer">
<polygon fill="none" stroke="black" points="273.5,-560.5 273.5,-581.5 398.5,-581.5 398.5,-560.5 273.5,-560.5"/>
<text text-anchor="middle" x="336" y="-568.5" font-family="FreeSans.ttf" font-size="10.00">ResultImage::addLayer</text>
</a>
</g>
<!-- Node1&#45;&gt;Node2 -->
<g id="edge2" class="edge"><title>Node1&#45;&gt;Node2</title>
<path fill="none" stroke="midnightblue" d="M92.52,-339.55C101.778,-375.822 137.532,-496.174 216,-551 229.764,-560.617 246.552,-566.19 263.158,-569.303"/>
<polygon fill="midnightblue" stroke="midnightblue" points="263.021,-572.825 273.446,-570.937 264.119,-565.911 263.021,-572.825"/>
</g>
<!-- Node3 -->
<g id="node5" class="node"><title>Node3</title>
<a xlink:href="classcorecvs_1_1TransformationCache.html#a0f75f9a05bb80f0e909ff8481a61093f" target="_top" xlink:title="corecvs::TransformationCache::doDeformation">
<polygon fill="none" stroke="black" points="216.5,-520.5 216.5,-541.5 455.5,-541.5 455.5,-520.5 216.5,-520.5"/>
<text text-anchor="middle" x="336" y="-528.5" font-family="FreeSans.ttf" font-size="10.00">corecvs::TransformationCache::doDeformation</text>
</a>
</g>
<!-- Node1&#45;&gt;Node3 -->
<g id="edge4" class="edge"><title>Node1&#45;&gt;Node3</title>
<path fill="none" stroke="midnightblue" d="M94.101,-339.532C106.851,-370.778 149.007,-463.48 216,-507 221.866,-510.81 228.207,-514.038 234.805,-516.769"/>
<polygon fill="midnightblue" stroke="midnightblue" points="234.037,-520.217 244.63,-520.425 236.479,-513.657 234.037,-520.217"/>
</g>
<!-- Node10 -->
<g id="node20" class="node"><title>Node10</title>
<a xlink:href="classRecorderThread.html#adc0321d1390dd0a96ed5c9270d9e7608" target="_top" xlink:title="RecorderThread::errorMessage">
<polygon fill="none" stroke="black" points="254,-476.5 254,-497.5 418,-497.5 418,-476.5 254,-476.5"/>
<text text-anchor="middle" x="336" y="-484.5" font-family="FreeSans.ttf" font-size="10.00">RecorderThread::errorMessage</text>
</a>
</g>
<!-- Node1&#45;&gt;Node10 -->
<g id="edge20" class="edge"><title>Node1&#45;&gt;Node10</title>
<path fill="none" stroke="midnightblue" d="M96.2871,-339.855C112.368,-366.526 157.855,-435.387 216,-467 224.698,-471.729 234.234,-475.397 244.009,-478.233"/>
<polygon fill="midnightblue" stroke="midnightblue" points="243.283,-481.661 253.842,-480.801 245.051,-474.888 243.283,-481.661"/>
</g>
<!-- Node11 -->
<g id="node22" class="node"><title>Node11</title>
<a xlink:href="classFrames.html#a574575a77ec087df67dd270caa832edc" target="_top" xlink:title="Frames::getCurrentFrame">
<polygon fill="none" stroke="black" points="574,-440.5 574,-461.5 714,-461.5 714,-440.5 574,-440.5"/>
<text text-anchor="middle" x="644" y="-448.5" font-family="FreeSans.ttf" font-size="10.00">Frames::getCurrentFrame</text>
</a>
</g>
<!-- Node1&#45;&gt;Node11 -->
<g id="edge22" class="edge"><title>Node1&#45;&gt;Node11</title>
<path fill="none" stroke="midnightblue" d="M108.096,-339.718C131.972,-353.359 175.697,-376.634 216,-389 248.486,-398.968 449.065,-425.844 563.75,-440.729"/>
<polygon fill="midnightblue" stroke="midnightblue" points="563.525,-444.229 573.892,-442.043 564.425,-437.287 563.525,-444.229"/>
</g>
<!-- Node12 -->
<g id="node24" class="node"><title>Node12</title>
<a xlink:href="classAbstractCalculationThread.html#a0947cebe1b8817e7e50cb02f88ed9070" target="_top" xlink:title="Pauses calculation.">
<polygon fill="none" stroke="black" points="221,-436.5 221,-457.5 451,-457.5 451,-436.5 221,-436.5"/>
<text text-anchor="middle" x="336" y="-444.5" font-family="FreeSans.ttf" font-size="10.00">AbstractCalculationThread::pauseCalculation</text>
</a>
</g>
<!-- Node1&#45;&gt;Node12 -->
<g id="edge24" class="edge"><title>Node1&#45;&gt;Node12</title>
<path fill="none" stroke="midnightblue" d="M100.753,-339.535C121.299,-359.03 168.348,-400.685 216,-422 226.851,-426.854 238.68,-430.78 250.544,-433.952"/>
<polygon fill="midnightblue" stroke="midnightblue" points="249.946,-437.41 260.497,-436.442 251.645,-430.619 249.946,-437.41"/>
</g>
<!-- Node14 -->
<g id="node28" class="node"><title>Node14</title>
<a xlink:href="classBaseCalculationThread.html#af97f32c53fc3d1c35096355aeafdc146" target="_top" xlink:title="As the transformation procedure uses the inverse of the transformation matrix We first apply the rect...">
<polygon fill="none" stroke="black" points="228.5,-358.5 228.5,-379.5 443.5,-379.5 443.5,-358.5 228.5,-358.5"/>
<text text-anchor="middle" x="336" y="-366.5" font-family="FreeSans.ttf" font-size="10.00">BaseCalculationThread::recalculateCache</text>
</a>
</g>
<!-- Node1&#45;&gt;Node14 -->
<g id="edge28" class="edge"><title>Node1&#45;&gt;Node14</title>
<path fill="none" stroke="midnightblue" d="M154.634,-339.51C187.414,-344.84 227.393,-351.34 261.466,-356.881"/>
<polygon fill="midnightblue" stroke="midnightblue" points="260.939,-360.341 271.371,-358.491 262.063,-353.432 260.939,-360.341"/>
</g>
<!-- Node22 -->
<g id="node46" class="node"><title>Node22</title>
<a xlink:href="classRecorderThread.html#a73d9be2b27fabd34867707e15bdddaf1" target="_top" xlink:title="RecorderThread::recordingStateChanged">
<polygon fill="none" stroke="black" points="538,-240.5 538,-261.5 750,-261.5 750,-240.5 538,-240.5"/>
<text text-anchor="middle" x="644" y="-248.5" font-family="FreeSans.ttf" font-size="10.00">RecorderThread::recordingStateChanged</text>
</a>
</g>
<!-- Node1&#45;&gt;Node22 -->
<g id="edge48" class="edge"><title>Node1&#45;&gt;Node22</title>
<path fill="none" stroke="midnightblue" d="M154.708,-318.467C174.378,-315.336 196.062,-311.955 216,-309 331.587,-291.871 465.042,-274.105 551.784,-262.824"/>
<polygon fill="midnightblue" stroke="midnightblue" points="552.398,-266.273 561.864,-261.515 551.496,-259.332 552.398,-266.273"/>
</g>
<!-- Node23 -->
<g id="node48" class="node"><title>Node23</title>
<a xlink:href="classRecorderThread.html#a9b0f3b71843d7d64310e955dbb35f796" target="_top" xlink:title="RecorderThread::resetRecording">
<polygon fill="none" stroke="black" points="251.5,-318.5 251.5,-339.5 420.5,-339.5 420.5,-318.5 251.5,-318.5"/>
<text text-anchor="middle" x="336" y="-326.5" font-family="FreeSans.ttf" font-size="10.00">RecorderThread::resetRecording</text>
</a>
</g>
<!-- Node1&#45;&gt;Node23 -->
<g id="edge50" class="edge"><title>Node1&#45;&gt;Node23</title>
<path fill="none" stroke="midnightblue" d="M179.508,-329C199.604,-329 220.991,-329 241.292,-329"/>
<polygon fill="midnightblue" stroke="midnightblue" points="241.477,-332.5 251.477,-329 241.477,-325.5 241.477,-332.5"/>
</g>
<!-- Node24 -->
<g id="node51" class="node"><title>Node24</title>
<a xlink:href="classcorecvs_1_1PPMLoader.html#ae03da737b1a0bbe534d1859289e2aa7c" target="_top" xlink:title="corecvs::PPMLoader::save">
<polygon fill="none" stroke="black" points="265.5,-240.5 265.5,-261.5 406.5,-261.5 406.5,-240.5 265.5,-240.5"/>
<text text-anchor="middle" x="336" y="-248.5" font-family="FreeSans.ttf" font-size="10.00">corecvs::PPMLoader::save</text>
</a>
</g>
<!-- Node1&#45;&gt;Node24 -->
<g id="edge54" class="edge"><title>Node1&#45;&gt;Node24</title>
<path fill="none" stroke="midnightblue" d="M111.823,-318.296C136.573,-306.518 178.386,-287.709 216,-276 231.396,-271.207 248.192,-267.062 264.209,-263.6"/>
<polygon fill="midnightblue" stroke="midnightblue" points="264.993,-267.011 274.062,-261.533 263.556,-260.16 264.993,-267.011"/>
</g>
<!-- Node26 -->
<g id="node55" class="node"><title>Node26</title>
<a xlink:href="classResultImage.html#aa44d0461a1c0cbc6e35e9de79d43d79f" target="_top" xlink:title="ResultImage::setHeight">
<polygon fill="none" stroke="black" points="272,-200.5 272,-221.5 400,-221.5 400,-200.5 272,-200.5"/>
<text text-anchor="middle" x="336" y="-208.5" font-family="FreeSans.ttf" font-size="10.00">ResultImage::setHeight</text>
</a>
</g>
<!-- Node1&#45;&gt;Node26 -->
<g id="edge58" class="edge"><title>Node1&#45;&gt;Node26</title>
<path fill="none" stroke="midnightblue" d="M99.9272,-318.338C119.79,-297.734 166.76,-252.583 216,-231 230.202,-224.775 246.128,-220.476 261.621,-217.509"/>
<polygon fill="midnightblue" stroke="midnightblue" points="262.468,-220.914 271.717,-215.746 261.263,-214.019 262.468,-220.914"/>
</g>
<!-- Node28 -->
<g id="node59" class="node"><title>Node28</title>
<a xlink:href="classcorecvs_1_1Statistics.html#a4b37b7ec25946f49e1d0de995b953330" target="_top" xlink:title="corecvs::Statistics::setTime">
<polygon fill="none" stroke="black" points="262,-160.5 262,-181.5 410,-181.5 410,-160.5 262,-160.5"/>
<text text-anchor="middle" x="336" y="-168.5" font-family="FreeSans.ttf" font-size="10.00">corecvs::Statistics::setTime</text>
</a>
</g>
<!-- Node1&#45;&gt;Node28 -->
<g id="edge62" class="edge"><title>Node1&#45;&gt;Node28</title>
<path fill="none" stroke="midnightblue" d="M96.2871,-318.145C112.368,-291.474 157.855,-222.613 216,-191 226.981,-185.03 239.298,-180.751 251.746,-177.701"/>
<polygon fill="midnightblue" stroke="midnightblue" points="252.717,-181.071 261.735,-175.509 251.217,-174.234 252.717,-181.071"/>
</g>
<!-- Node29 -->
<g id="node61" class="node"><title>Node29</title>
<a xlink:href="classResultImage.html#ab9f6acead1b4e72296be30bf3758a6f2" target="_top" xlink:title="ResultImage::setWidth">
<polygon fill="none" stroke="black" points="275,-120.5 275,-141.5 397,-141.5 397,-120.5 275,-120.5"/>
<text text-anchor="middle" x="336" y="-128.5" font-family="FreeSans.ttf" font-size="10.00">ResultImage::setWidth</text>
</a>
</g>
<!-- Node1&#45;&gt;Node29 -->
<g id="edge64" class="edge"><title>Node1&#45;&gt;Node29</title>
<path fill="none" stroke="midnightblue" d="M94.0368,-318.367C106.608,-286.84 148.314,-193.434 216,-151 230.51,-141.903 247.867,-136.563 264.813,-133.511"/>
<polygon fill="midnightblue" stroke="midnightblue" points="265.375,-136.966 274.717,-131.968 264.298,-130.049 265.375,-136.966"/>
</g>
<!-- Node31 -->
<g id="node65" class="node"><title>Node31</title>
<a xlink:href="classcorecvs_1_1PreciseTimer.html#af4f2392d369963a6786d28754d626d1b" target="_top" xlink:title="corecvs::PreciseTimer::usecsToNow">
<polygon fill="none" stroke="black" points="243.5,-60.5 243.5,-81.5 428.5,-81.5 428.5,-60.5 243.5,-60.5"/>
<text text-anchor="middle" x="336" y="-68.5" font-family="FreeSans.ttf" font-size="10.00">corecvs::PreciseTimer::usecsToNow</text>
</a>
</g>
<!-- Node1&#45;&gt;Node31 -->
<g id="edge68" class="edge"><title>Node1&#45;&gt;Node31</title>
<path fill="none" stroke="midnightblue" d="M93.208,-318.097C104.166,-282.739 143.509,-170.13 216,-111 230.717,-98.9954 249.186,-90.5366 267.192,-84.598"/>
<polygon fill="midnightblue" stroke="midnightblue" points="268.587,-87.831 277.121,-81.5516 266.534,-81.1389 268.587,-87.831"/>
</g>
<!-- Node4 -->
<g id="node7" class="node"><title>Node4</title>
<a xlink:href="classcorecvs_1_1AbstractContiniousBuffer.html#a34af819499a45b5dd52fefdbddefe33d" target="_top" xlink:title="This function template is responsible for applying reverse transformation to the abstract buffer...">
<polygon fill="none" stroke="black" points="492.5,-560.5 492.5,-581.5 795.5,-581.5 795.5,-560.5 492.5,-560.5"/>
<text text-anchor="middle" x="644" y="-568.5" font-family="FreeSans.ttf" font-size="10.00">corecvs::AbstractContiniousBuffer::doReverseDeformationBl</text>
</a>
</g>
<!-- Node3&#45;&gt;Node4 -->
<g id="edge6" class="edge"><title>Node3&#45;&gt;Node4</title>
<path fill="none" stroke="midnightblue" d="M416.923,-541.51C458.758,-546.943 509.958,-553.592 553.145,-559.201"/>
<polygon fill="midnightblue" stroke="midnightblue" points="552.715,-562.674 563.083,-560.491 553.617,-555.732 552.715,-562.674"/>
</g>
<!-- Node5 -->
<g id="node9" class="node"><title>Node5</title>
<a xlink:href="classcorecvs_1_1DirectRemapper.html#a27768718ab56106bd18efadc9b7fbc82" target="_top" xlink:title="corecvs::DirectRemapper::remap">
<polygon fill="none" stroke="black" points="557,-520.5 557,-541.5 731,-541.5 731,-520.5 557,-520.5"/>
<text text-anchor="middle" x="644" y="-528.5" font-family="FreeSans.ttf" font-size="10.00">corecvs::DirectRemapper::remap</text>
</a>
</g>
<!-- Node3&#45;&gt;Node5 -->
<g id="edge8" class="edge"><title>Node3&#45;&gt;Node5</title>
<path fill="none" stroke="midnightblue" d="M455.522,-531C485.623,-531 517.576,-531 546.455,-531"/>
<polygon fill="midnightblue" stroke="midnightblue" points="546.534,-534.5 556.534,-531 546.534,-527.5 546.534,-534.5"/>
</g>
<!-- Node8 -->
<g id="node15" class="node"><title>Node8</title>
<a xlink:href="classcorecvs_1_1G12Buffer.html#a3976874f72151a66868cc50472e11d1f" target="_top" xlink:title="This function template is responsible for applying reverse transformation to the abstract buffer...">
<polygon fill="none" stroke="black" points="506.5,-600.5 506.5,-621.5 781.5,-621.5 781.5,-600.5 506.5,-600.5"/>
<text text-anchor="middle" x="644" y="-608.5" font-family="FreeSans.ttf" font-size="10.00">corecvs::G12Buffer::doReverseDeformationBlPrecomp</text>
</a>
</g>
<!-- Node3&#45;&gt;Node8 -->
<g id="edge14" class="edge"><title>Node3&#45;&gt;Node8</title>
<path fill="none" stroke="midnightblue" d="M433.852,-541.516C441.57,-544.07 449.055,-547.192 456,-551 476.972,-562.5 470.834,-579.862 492,-591 496.085,-593.15 500.314,-595.1 504.65,-596.868"/>
<polygon fill="midnightblue" stroke="midnightblue" points="503.702,-600.249 514.294,-600.454 506.141,-593.688 503.702,-600.249"/>
</g>
<!-- Node6 -->
<g id="node11" class="node"><title>Node6</title>
<a xlink:href="namespacecorecvs.html#a3bfefeb3d41c56bea61deddbce9632a8" target="_top" xlink:title="This template provides the parallelable call of the function over the interval with or without TBB...">
<polygon fill="none" stroke="black" points="849,-540.5 849,-561.5 981,-561.5 981,-540.5 849,-540.5"/>
<text text-anchor="middle" x="915" y="-548.5" font-family="FreeSans.ttf" font-size="10.00">corecvs::parallelable_for</text>
</a>
</g>
<!-- Node5&#45;&gt;Node6 -->
<g id="edge10" class="edge"><title>Node5&#45;&gt;Node6</title>
<path fill="none" stroke="midnightblue" d="M731.238,-537.438C765.873,-539.994 805.348,-542.908 838.81,-545.377"/>
<polygon fill="midnightblue" stroke="midnightblue" points="838.76,-548.883 848.99,-546.128 839.275,-541.902 838.76,-548.883"/>
</g>
<!-- Node7 -->
<g id="node13" class="node"><title>Node7</title>
<a xlink:href="namespacecorecvs.html#a3e447419f29c25b7a5b4bb77e283f5a3" target="_top" xlink:title="This template provides the dummy call of the function over the interval without TBB.">
<polygon fill="none" stroke="black" points="1034.5,-540.5 1034.5,-561.5 1199.5,-561.5 1199.5,-540.5 1034.5,-540.5"/>
<text text-anchor="middle" x="1117" y="-548.5" font-family="FreeSans.ttf" font-size="10.00">corecvs::parallelable_for_notbb</text>
</a>
</g>
<!-- Node6&#45;&gt;Node7 -->
<g id="edge12" class="edge"><title>Node6&#45;&gt;Node7</title>
<path fill="none" stroke="midnightblue" d="M981.142,-551C994.979,-551 1009.81,-551 1024.4,-551"/>
<polygon fill="midnightblue" stroke="midnightblue" points="1024.46,-554.5 1034.46,-551 1024.46,-547.5 1024.46,-554.5"/>
</g>
<!-- Node8&#45;&gt;Node6 -->
<g id="edge18" class="edge"><title>Node8&#45;&gt;Node6</title>
<path fill="none" stroke="midnightblue" d="M745.059,-600.488C762.163,-597.915 779.664,-594.783 796,-591 824.427,-584.418 855.666,-573.781 879.001,-565.13"/>
<polygon fill="midnightblue" stroke="midnightblue" points="880.36,-568.358 888.487,-561.562 877.895,-561.807 880.36,-568.358"/>
</g>
<!-- Node9 -->
<g id="node17" class="node"><title>Node9</title>
<a xlink:href="classcorecvs_1_1G12Buffer.html#a49f9af21dc0f3585b3838b467c1872a7" target="_top" xlink:title="This function is used as a hack to interface the C&#45;style g12Buffer.">
<polygon fill="none" stroke="black" points="834.5,-600.5 834.5,-621.5 995.5,-621.5 995.5,-600.5 834.5,-600.5"/>
<text text-anchor="middle" x="915" y="-608.5" font-family="FreeSans.ttf" font-size="10.00">corecvs::G12Buffer::G12Buffer</text>
</a>
</g>
<!-- Node8&#45;&gt;Node9 -->
<g id="edge16" class="edge"><title>Node8&#45;&gt;Node9</title>
<path fill="none" stroke="midnightblue" d="M781.882,-611C796.157,-611 810.396,-611 823.966,-611"/>
<polygon fill="midnightblue" stroke="midnightblue" points="824.203,-614.5 834.203,-611 824.203,-607.5 824.203,-614.5"/>
</g>
<!-- Node13 -->
<g id="node26" class="node"><title>Node13</title>
<a xlink:href="classAbstractCalculationThread.html#accff9f3bbf936d31d194b17756aa8ebc" target="_top" xlink:title="AbstractCalculationThread::calculationStateChanged">
<polygon fill="none" stroke="black" points="509.5,-480.5 509.5,-501.5 778.5,-501.5 778.5,-480.5 509.5,-480.5"/>
<text text-anchor="middle" x="644" y="-488.5" font-family="FreeSans.ttf" font-size="10.00">AbstractCalculationThread::calculationStateChanged</text>
</a>
</g>
<!-- Node12&#45;&gt;Node13 -->
<g id="edge26" class="edge"><title>Node12&#45;&gt;Node13</title>
<path fill="none" stroke="midnightblue" d="M402.373,-457.538C430.061,-461.849 462.567,-466.8 492,-471 511.185,-473.738 531.752,-476.536 551.363,-479.139"/>
<polygon fill="midnightblue" stroke="midnightblue" points="551.147,-482.64 561.519,-480.481 552.064,-475.701 551.147,-482.64"/>
</g>
<!-- Node14&#45;&gt;Node11 -->
<g id="edge32" class="edge"><title>Node14&#45;&gt;Node11</title>
<path fill="none" stroke="midnightblue" d="M419.002,-379.541C431.853,-383.06 444.622,-387.751 456,-394 476.11,-405.045 471.492,-420.712 492,-431 513.858,-441.965 539.604,-447.635 563.633,-450.399"/>
<polygon fill="midnightblue" stroke="midnightblue" points="563.511,-453.905 573.809,-451.413 564.205,-446.939 563.511,-453.905"/>
</g>
<!-- Node15 -->
<g id="node30" class="node"><title>Node15</title>
<a xlink:href="classcorecvs_1_1RectificationResult.html#ae06de5b30b767d50009ca10a5a9ede3a" target="_top" xlink:title="corecvs::RectificationResult::addPretransform">
<polygon fill="none" stroke="black" points="528,-400.5 528,-421.5 760,-421.5 760,-400.5 528,-400.5"/>
<text text-anchor="middle" x="644" y="-408.5" font-family="FreeSans.ttf" font-size="10.00">corecvs::RectificationResult::addPretransform</text>
</a>
</g>
<!-- Node14&#45;&gt;Node15 -->
<g id="edge30" class="edge"><title>Node14&#45;&gt;Node15</title>
<path fill="none" stroke="midnightblue" d="M409.781,-379.548C435.762,-383.224 465.17,-387.343 492,-391 511.628,-393.675 532.69,-396.485 552.694,-399.126"/>
<polygon fill="midnightblue" stroke="midnightblue" points="552.359,-402.612 562.731,-400.448 553.274,-395.672 552.359,-402.612"/>
</g>
<!-- Node16 -->
<g id="node33" class="node"><title>Node16</title>
<a xlink:href="classcorecvs_1_1AbstractBuffer.html#a6be5a0969d374904dc4ff6cd576c9332" target="_top" xlink:title="Buffer size getter.">
<polygon fill="none" stroke="black" points="559,-360.5 559,-381.5 729,-381.5 729,-360.5 559,-360.5"/>
<text text-anchor="middle" x="644" y="-368.5" font-family="FreeSans.ttf" font-size="10.00">corecvs::AbstractBuffer::getSize</text>
</a>
</g>
<!-- Node14&#45;&gt;Node16 -->
<g id="edge34" class="edge"><title>Node14&#45;&gt;Node16</title>
<path fill="none" stroke="midnightblue" d="M443.723,-369.7C477.838,-369.921 515.293,-370.164 548.489,-370.38"/>
<polygon fill="midnightblue" stroke="midnightblue" points="548.623,-373.881 558.646,-370.446 548.669,-366.881 548.623,-373.881"/>
</g>
<!-- Node17 -->
<g id="node35" class="node"><title>Node17</title>
<a xlink:href="classcorecvs_1_1AbstractBuffer.html#ab3e67b15f742aa47f24b108c6c5449b7" target="_top" xlink:title="Checks if this buffer has the same size as the other.">
<polygon fill="none" stroke="black" points="544,-320.5 544,-341.5 744,-341.5 744,-320.5 544,-320.5"/>
<text text-anchor="middle" x="644" y="-328.5" font-family="FreeSans.ttf" font-size="10.00">corecvs::AbstractBuffer::hasSameSize</text>
</a>
</g>
<!-- Node14&#45;&gt;Node17 -->
<g id="edge36" class="edge"><title>Node14&#45;&gt;Node17</title>
<path fill="none" stroke="midnightblue" d="M421.386,-358.465C460.941,-353.585 508.087,-347.769 548.787,-342.747"/>
<polygon fill="midnightblue" stroke="midnightblue" points="549.219,-346.22 558.715,-341.522 548.361,-339.273 549.219,-346.22"/>
</g>
<!-- Node18 -->
<g id="node37" class="node"><title>Node18</title>
<a xlink:href="classcorecvs_1_1Matrix33.html#a303763def6e3cd4a08222e9fa8f6faae" target="_top" xlink:title="This function returns an inverse of the matrix.">
<polygon fill="none" stroke="black" points="584,-280.5 584,-301.5 704,-301.5 704,-280.5 584,-280.5"/>
<text text-anchor="middle" x="644" y="-288.5" font-family="FreeSans.ttf" font-size="10.00">corecvs::Matrix33::inv</text>
</a>
</g>
<!-- Node14&#45;&gt;Node18 -->
<g id="edge38" class="edge"><title>Node14&#45;&gt;Node18</title>
<path fill="none" stroke="midnightblue" d="M433.127,-358.489C441.087,-355.94 448.821,-352.818 456,-349 476.54,-338.076 471.275,-321.57 492,-311 516.914,-298.293 546.984,-292.648 573.78,-290.409"/>
<polygon fill="midnightblue" stroke="midnightblue" points="574.137,-293.892 583.872,-289.709 573.654,-286.909 574.137,-293.892"/>
</g>
<!-- Node19 -->
<g id="node39" class="node"><title>Node19</title>
<a xlink:href="classcorecvs_1_1Matrix33.html#a8596ffc77b92da2876c22900c02e9bec" target="_top" xlink:title="Geting Matrix element functions block.">
<polygon fill="none" stroke="black" points="1060.5,-300.5 1060.5,-321.5 1173.5,-321.5 1173.5,-300.5 1060.5,-300.5"/>
<text text-anchor="middle" x="1117" y="-308.5" font-family="FreeSans.ttf" font-size="10.00">corecvs::Matrix33::a</text>
</a>
</g>
<!-- Node18&#45;&gt;Node19 -->
<g id="edge40" class="edge"><title>Node18&#45;&gt;Node19</title>
<path fill="none" stroke="midnightblue" d="M704.407,-299.071C741.208,-303.578 789.226,-308.731 832,-311 906.694,-314.962 992.555,-314.245 1050.35,-312.993"/>
<polygon fill="midnightblue" stroke="midnightblue" points="1050.53,-316.49 1060.45,-312.763 1050.37,-309.492 1050.53,-316.49"/>
</g>
<!-- Node20 -->
<g id="node41" class="node"><title>Node20</title>
<a xlink:href="classcorecvs_1_1Matrix33.html#a960edd556c9c44ce0b045f702153836e" target="_top" xlink:title="Computing determinant of the matrix.">
<polygon fill="none" stroke="black" points="854,-280.5 854,-301.5 976,-301.5 976,-280.5 854,-280.5"/>
<text text-anchor="middle" x="915" y="-288.5" font-family="FreeSans.ttf" font-size="10.00">corecvs::Matrix33::det</text>
</a>
</g>
<!-- Node18&#45;&gt;Node20 -->
<g id="edge42" class="edge"><title>Node18&#45;&gt;Node20</title>
<path fill="none" stroke="midnightblue" d="M704.144,-291C745.287,-291 800.021,-291 843.413,-291"/>
<polygon fill="midnightblue" stroke="midnightblue" points="843.617,-294.5 853.617,-291 843.617,-287.5 843.617,-294.5"/>
</g>
<!-- Node21 -->
<g id="node44" class="node"><title>Node21</title>
<a xlink:href="classcorecvs_1_1Matrix33.html#a47c909b671a7ae90b386b56c8706d3a5" target="_top" xlink:title="corecvs::Matrix33::Matrix33">
<polygon fill="none" stroke="black" points="841,-240.5 841,-261.5 989,-261.5 989,-240.5 841,-240.5"/>
<text text-anchor="middle" x="915" y="-248.5" font-family="FreeSans.ttf" font-size="10.00">corecvs::Matrix33::Matrix33</text>
</a>
</g>
<!-- Node18&#45;&gt;Node21 -->
<g id="edge46" class="edge"><title>Node18&#45;&gt;Node21</title>
<path fill="none" stroke="midnightblue" d="M704.355,-283.561C732.275,-279.991 765.86,-275.514 796,-271 811.871,-268.623 828.898,-265.878 844.969,-263.198"/>
<polygon fill="midnightblue" stroke="midnightblue" points="845.551,-266.649 854.833,-261.541 844.392,-259.746 845.551,-266.649"/>
</g>
<!-- Node20&#45;&gt;Node19 -->
<g id="edge44" class="edge"><title>Node20&#45;&gt;Node19</title>
<path fill="none" stroke="midnightblue" d="M976.155,-297.055C999.524,-299.369 1026.28,-302.018 1050.16,-304.382"/>
<polygon fill="midnightblue" stroke="midnightblue" points="1049.9,-307.873 1060.19,-305.375 1050.59,-300.907 1049.9,-307.873"/>
</g>
<!-- Node23&#45;&gt;Node22 -->
<g id="edge52" class="edge"><title>Node23&#45;&gt;Node22</title>
<path fill="none" stroke="midnightblue" d="M416.48,-318.472C430.108,-314.954 443.785,-310.261 456,-304 475.315,-294.099 472.329,-280.174 492,-271 503.23,-265.763 515.402,-261.769 527.803,-258.739"/>
<polygon fill="midnightblue" stroke="midnightblue" points="528.786,-262.106 537.783,-256.511 527.261,-255.274 528.786,-262.106"/>
</g>
<!-- Node25 -->
<g id="node53" class="node"><title>Node25</title>
<a xlink:href="classcorecvs_1_1AbstractBuffer.html#a98f72526738a0c4ce8a0b72a3b5c28b9" target="_top" xlink:title="The element getter.">
<polygon fill="none" stroke="black" points="557,-200.5 557,-221.5 731,-221.5 731,-200.5 557,-200.5"/>
<text text-anchor="middle" x="644" y="-208.5" font-family="FreeSans.ttf" font-size="10.00">corecvs::AbstractBuffer::element</text>
</a>
</g>
<!-- Node24&#45;&gt;Node25 -->
<g id="edge56" class="edge"><title>Node24&#45;&gt;Node25</title>
<path fill="none" stroke="midnightblue" d="M406.661,-241.823C450.095,-236.182 506.185,-228.898 552.931,-222.827"/>
<polygon fill="midnightblue" stroke="midnightblue" points="553.596,-226.27 563.062,-221.511 552.694,-219.329 553.596,-226.27"/>
</g>
<!-- Node27 -->
<g id="node57" class="node"><title>Node27</title>
<a xlink:href="classResultImage.html#aef6f554a6c7827429bb06ce3f3079886" target="_top" xlink:title="ResultImage::height">
<polygon fill="none" stroke="black" points="588.5,-160.5 588.5,-181.5 699.5,-181.5 699.5,-160.5 588.5,-160.5"/>
<text text-anchor="middle" x="644" y="-168.5" font-family="FreeSans.ttf" font-size="10.00">ResultImage::height</text>
</a>
</g>
<!-- Node26&#45;&gt;Node27 -->
<g id="edge60" class="edge"><title>Node26&#45;&gt;Node27</title>
<path fill="none" stroke="midnightblue" d="M400.192,-202.663C452.338,-195.891 525.602,-186.376 578.182,-179.548"/>
<polygon fill="midnightblue" stroke="midnightblue" points="578.943,-182.978 588.409,-178.22 578.042,-176.037 578.943,-182.978"/>
</g>
<!-- Node30 -->
<g id="node63" class="node"><title>Node30</title>
<a xlink:href="classResultImage.html#a08c6666d5f1866c8d7c821638a5d6752" target="_top" xlink:title="ResultImage::width">
<polygon fill="none" stroke="black" points="591,-120.5 591,-141.5 697,-141.5 697,-120.5 591,-120.5"/>
<text text-anchor="middle" x="644" y="-128.5" font-family="FreeSans.ttf" font-size="10.00">ResultImage::width</text>
</a>
</g>
<!-- Node29&#45;&gt;Node30 -->
<g id="edge66" class="edge"><title>Node29&#45;&gt;Node30</title>
<path fill="none" stroke="midnightblue" d="M397.219,-131C450.371,-131 527.032,-131 580.767,-131"/>
<polygon fill="midnightblue" stroke="midnightblue" points="580.858,-134.5 590.858,-131 580.858,-127.5 580.858,-134.5"/>
</g>
<!-- Node32 -->
<g id="node67" class="node"><title>Node32</title>
<a xlink:href="classcorecvs_1_1PreciseTimer.html#ab6fc71ad27d7bb8ed8fed6b837ac3065" target="_top" xlink:title="corecvs::PreciseTimer::isCorrect">
<polygon fill="none" stroke="black" points="559,-40.5 559,-61.5 729,-61.5 729,-40.5 559,-40.5"/>
<text text-anchor="middle" x="644" y="-48.5" font-family="FreeSans.ttf" font-size="10.00">corecvs::PreciseTimer::isCorrect</text>
</a>
</g>
<!-- Node31&#45;&gt;Node32 -->
<g id="edge70" class="edge"><title>Node31&#45;&gt;Node32</title>
<path fill="none" stroke="midnightblue" d="M428.828,-64.9722C466.794,-62.5069 510.683,-59.6569 548.882,-57.1765"/>
<polygon fill="midnightblue" stroke="midnightblue" points="549.226,-60.6616 558.978,-56.5209 548.772,-53.6763 549.226,-60.6616"/>
</g>
<!-- Node33 -->
<g id="node69" class="node"><title>Node33</title>
<a xlink:href="classcorecvs_1_1PreciseTimer.html#aeefca9626ed0efb419d7479f5d758966" target="_top" xlink:title="corecvs::PreciseTimer::usecsTo">
<polygon fill="none" stroke="black" points="562,-0.5 562,-21.5 726,-21.5 726,-0.5 562,-0.5"/>
<text text-anchor="middle" x="644" y="-8.5" font-family="FreeSans.ttf" font-size="10.00">corecvs::PreciseTimer::usecsTo</text>
</a>
</g>
<!-- Node31&#45;&gt;Node33 -->
<g id="edge72" class="edge"><title>Node31&#45;&gt;Node33</title>
<path fill="none" stroke="midnightblue" d="M371.971,-60.464C403.412,-51.5711 450.411,-39.0379 492,-31 511.226,-27.2842 531.955,-24.0524 551.735,-21.3332"/>
<polygon fill="midnightblue" stroke="midnightblue" points="552.223,-24.7992 561.668,-19.999 551.291,-17.8615 552.223,-24.7992"/>
</g>
<!-- Node34 -->
<g id="node71" class="node"><title>Node34</title>
<a xlink:href="classcorecvs_1_1PreciseTimer.html#ab96fc33330e59dc25e1965d692dcb3f9" target="_top" xlink:title="corecvs::PreciseTimer::currentTime">
<polygon fill="none" stroke="black" points="551.5,-80.5 551.5,-101.5 736.5,-101.5 736.5,-80.5 551.5,-80.5"/>
<text text-anchor="middle" x="644" y="-88.5" font-family="FreeSans.ttf" font-size="10.00">corecvs::PreciseTimer::currentTime</text>
</a>
</g>
<!-- Node31&#45;&gt;Node34 -->
<g id="edge74" class="edge"><title>Node31&#45;&gt;Node34</title>
<path fill="none" stroke="midnightblue" d="M428.828,-77.0278C464.285,-79.3302 504.908,-81.968 541.237,-84.3271"/>
<polygon fill="midnightblue" stroke="midnightblue" points="541.156,-87.8291 551.362,-84.9846 541.61,-80.8438 541.156,-87.8291"/>
</g>
<!-- Node35 -->
<g id="node73" class="node"><title>Node35</title>
<a xlink:href="classcorecvs_1_1PreciseTimer.html#a8426a1a35d70c5da82bf027bfb1bee69" target="_top" xlink:title="corecvs::PreciseTimer::setTime">
<polygon fill="none" stroke="black" points="832.5,-80.5 832.5,-101.5 997.5,-101.5 997.5,-80.5 832.5,-80.5"/>
<text text-anchor="middle" x="915" y="-88.5" font-family="FreeSans.ttf" font-size="10.00">corecvs::PreciseTimer::setTime</text>
</a>
</g>
<!-- Node34&#45;&gt;Node35 -->
<g id="edge76" class="edge"><title>Node34&#45;&gt;Node35</title>
<path fill="none" stroke="midnightblue" d="M736.505,-91C764.227,-91 794.628,-91 822.359,-91"/>
<polygon fill="midnightblue" stroke="midnightblue" points="822.445,-94.5001 832.445,-91 822.445,-87.5001 822.445,-94.5001"/>
</g>
</g>
</svg>
        <g id="navigator" transform="translate(0 0)" fill="#404254">
                <rect fill="#f2f5e9" fill-opacity="0.5" stroke="#606060" stroke-width=".5" x="0" y="0" width="60" height="60"/>
                <use id="zoomplus" xlink:href="#zoomPlus" x="17" y="9" onmousedown="handleZoom(evt,'in')"/>
                <use id="zoomminus" xlink:href="#zoomMin" x="42" y="9" onmousedown="handleZoom(evt,'out')"/>
                <use id="reset" xlink:href="#resetDef" x="30" y="36" onmousedown="handleReset()"/>
                <g id="arrowUp" xlink:href="#dirArrow" transform="translate(30 24)" onmousedown="handlePan(0,-1)">
                  <use xlink:href="#rim" fill="#404040">
                        <set attributeName="fill" to="#808080" begin="arrowUp.mouseover" end="arrowUp.mouseout"/>
                  </use>
                  <path fill="none" stroke="white" stroke-width="1.5" d="M0,-3.0v7 M-2.5,-0.5L0,-3.0L2.5,-0.5"/>
                </g>
                <g id="arrowRight" xlink:href="#dirArrow" transform="rotate(90) translate(36 -43)" onmousedown="handlePan(1,0)">
                  <use xlink:href="#rim" fill="#404040">
                        <set attributeName="fill" to="#808080" begin="arrowRight.mouseover" end="arrowRight.mouseout"/>
                  </use>
                  <path fill="none" stroke="white" stroke-width="1.5" d="M0,-3.0v7 M-2.5,-0.5L0,-3.0L2.5,-0.5"/>
                </g>
                <g id="arrowDown" xlink:href="#dirArrow" transform="rotate(180) translate(-30 -48)" onmousedown="handlePan(0,1)">
                  <use xlink:href="#rim" fill="#404040">
                        <set attributeName="fill" to="#808080" begin="arrowDown.mouseover" end="arrowDown.mouseout"/>
                  </use>
                  <path fill="none" stroke="white" stroke-width="1.5" d="M0,-3.0v7 M-2.5,-0.5L0,-3.0L2.5,-0.5"/>
                </g>
                <g id="arrowLeft" xlink:href="#dirArrow" transform="rotate(270) translate(-36 17)" onmousedown="handlePan(-1,0)">
                  <use xlink:href="#rim" fill="#404040">
                        <set attributeName="fill" to="#808080" begin="arrowLeft.mouseover" end="arrowLeft.mouseout"/>
                  </use>
                  <path fill="none" stroke="white" stroke-width="1.5" d="M0,-3.0v7 M-2.5,-0.5L0,-3.0L2.5,-0.5"/>
                </g>
        </g>
</svg>
