<?xml version="1.0" encoding="UTF-8" standalone="no"?>
<!DOCTYPE svg PUBLIC "-//W3C//DTD SVG 1.1//EN"
 "http://www.w3.org/Graphics/SVG/1.1/DTD/svg11.dtd">
<!-- Generated by graphviz version 2.26.3 (20100126.1600)
 -->
<!-- Title: G Pages: 1 -->
<!--zoomable 190 -->
<svg id="main" version="1.1" xmlns="http://www.w3.org/2000/svg" xmlns:xlink="http://www.w3.org/1999/xlink" xml:space="preserve" onload="init(evt)">
        <defs>
                <circle id="rim" cx="0" cy="0" r="7"/>
                <circle id="rim2" cx="0" cy="0" r="3.5"/>
                <g id="zoomPlus">
                        <use xlink:href="#rim" fill="#404040">
                                <set attributeName="fill" to="#808080" begin="zoomplus.mouseover" end="zoomplus.mouseout"/>
                        </use>
                        <path d="M-4,0h8M0,-4v8" fill="none" stroke="white" stroke-width="1.5" pointer-events="none"/>
                </g>
                <g id="zoomMin">
                        <use xlink:href="#rim" fill="#404040">
                                <set attributeName="fill" to="#808080" begin="zoomminus.mouseover" end="zoomminus.mouseout"/>
                        </use>
                        <path d="M-4,0h8" fill="none" stroke="white" stroke-width="1.5" pointer-events="none"/>
                </g>
                <g id="dirArrow">
                        <path fill="none" stroke="white" stroke-width="1.5" d="M0,-3.0v7 M-2.5,-0.5L0,-3.0L2.5,-0.5"/>
                </g>
               <g id="resetDef">
                       <use xlink:href="#rim2" fill="#404040">
                               <set attributeName="fill" to="#808080" begin="reset.mouseover" end="reset.mouseout"/>
                       </use>
               </g>
        </defs>

<script type="text/javascript">
var viewWidth = 642;
var viewHeight = 190;
var sectionId = 'dynsection-2';
</script>
<script xlink:href="svgpan.js"/>
<svg id="graph" class="graph">
<g id="viewport">
<title>G</title>
<!-- Node1 -->
<g id="node1" class="node"><title>Node1</title>
<polygon fill="#bfbfbf" stroke="black" points="0.5,-60.5 0.5,-81.5 191.5,-81.5 191.5,-60.5 0.5,-60.5"/>
<text text-anchor="middle" x="96" y="-68.5" font-family="FreeSans.ttf" font-size="10.00">HistogramWidget::mouseMoveEvent</text>
</g>
<!-- Node2 -->
<g id="node3" class="node"><title>Node2</title>
<a xlink:href="classHistogramWidget.html#a647550b001053307b0b5cf385d2e6246" target="_top" xlink:title="HistogramWidget::setZone">
<polygon fill="none" stroke="black" points="234,-80.5 234,-101.5 380,-101.5 380,-80.5 234,-80.5"/>
<text text-anchor="middle" x="307" y="-88.5" font-family="FreeSans.ttf" font-size="10.00">HistogramWidget::setZone</text>
</a>
</g>
<!-- Node1&#45;&gt;Node2 -->
<g id="edge2" class="edge"><title>Node1&#45;&gt;Node2</title>
<path fill="none" stroke="midnightblue" d="M191.622,-80.0637C202.364,-81.0819 213.244,-82.1132 223.811,-83.1148"/>
<polygon fill="midnightblue" stroke="midnightblue" points="223.546,-86.6053 233.832,-84.0646 224.207,-79.6365 223.546,-86.6053"/>
</g>
<!-- Node8 -->
<g id="node15" class="node"><title>Node8</title>
<a xlink:href="classHistogramWidget.html#addc53e0ea50fa0624999a9f04e7aa93d" target="_top" xlink:title="HistogramWidget::toAbsolute">
<polygon fill="none" stroke="black" points="228.5,-40.5 228.5,-61.5 385.5,-61.5 385.5,-40.5 228.5,-40.5"/>
<text text-anchor="middle" x="307" y="-48.5" font-family="FreeSans.ttf" font-size="10.00">HistogramWidget::toAbsolute</text>
</a>
</g>
<!-- Node1&#45;&gt;Node8 -->
<g id="edge14" class="edge"><title>Node1&#45;&gt;Node8</title>
<path fill="none" stroke="midnightblue" d="M191.622,-61.9363C200.478,-61.0968 209.428,-60.2485 218.219,-59.4153"/>
<polygon fill="midnightblue" stroke="midnightblue" points="218.825,-62.8736 228.45,-58.4455 218.164,-55.9048 218.825,-62.8736"/>
</g>
<!-- Node3 -->
<g id="node5" class="node"><title>Node3</title>
<a xlink:href="classHistogramWidget.html#afcdd018cda85774fbfa6e60c24553342" target="_top" xlink:title="HistogramWidget::getBarByX">
<polygon fill="none" stroke="black" points="450.5,-160.5 450.5,-181.5 605.5,-181.5 605.5,-160.5 450.5,-160.5"/>
<text text-anchor="middle" x="528" y="-168.5" font-family="FreeSans.ttf" font-size="10.00">HistogramWidget::getBarByX</text>
</a>
</g>
<!-- Node2&#45;&gt;Node3 -->
<g id="edge4" class="edge"><title>Node2&#45;&gt;Node3</title>
<path fill="none" stroke="midnightblue" d="M323.443,-101.574C345.155,-115.06 384.978,-138.166 422,-151 429.822,-153.711 438.102,-156.083 446.451,-158.15"/>
<polygon fill="midnightblue" stroke="midnightblue" points="445.724,-161.575 456.258,-160.441 447.316,-154.758 445.724,-161.575"/>
</g>
<!-- Node4 -->
<g id="node7" class="node"><title>Node4</title>
<a xlink:href="classHistogramWidget.html#aecccd9d4fc47a7bd6ac9e0cbc19fe55a" target="_top" xlink:title="HistogramWidget::preZoneChanged">
<polygon fill="none" stroke="black" points="433.5,-120.5 433.5,-141.5 622.5,-141.5 622.5,-120.5 433.5,-120.5"/>
<text text-anchor="middle" x="528" y="-128.5" font-family="FreeSans.ttf" font-size="10.00">HistogramWidget::preZoneChanged</text>
</a>
</g>
<!-- Node2&#45;&gt;Node4 -->
<g id="edge6" class="edge"><title>Node2&#45;&gt;Node4</title>
<path fill="none" stroke="midnightblue" d="M365.065,-101.51C394.135,-106.771 429.507,-113.173 459.856,-118.666"/>
<polygon fill="midnightblue" stroke="midnightblue" points="459.476,-122.154 469.939,-120.491 460.723,-115.266 459.476,-122.154"/>
</g>
<!-- Node5 -->
<g id="node9" class="node"><title>Node5</title>
<a xlink:href="classHistogramWidget.html#af646f6156f5ecf1e0d762638cdf2acb7" target="_top" xlink:title="HistogramWidget::zoneStartChanged">
<polygon fill="none" stroke="black" points="430.5,-80.5 430.5,-101.5 625.5,-101.5 625.5,-80.5 430.5,-80.5"/>
<text text-anchor="middle" x="528" y="-88.5" font-family="FreeSans.ttf" font-size="10.00">HistogramWidget::zoneStartChanged</text>
</a>
</g>
<!-- Node2&#45;&gt;Node5 -->
<g id="edge8" class="edge"><title>Node2&#45;&gt;Node5</title>
<path fill="none" stroke="midnightblue" d="M380.283,-91C392.999,-91 406.459,-91 419.873,-91"/>
<polygon fill="midnightblue" stroke="midnightblue" points="420.108,-94.5001 430.108,-91 420.108,-87.5001 420.108,-94.5001"/>
</g>
<!-- Node6 -->
<g id="node11" class="node"><title>Node6</title>
<a xlink:href="classHistogramWidget.html#a756668487c15603d40fcd657049bbf3c" target="_top" xlink:title="HistogramWidget::zoneEndChanged">
<polygon fill="none" stroke="black" points="433.5,-40.5 433.5,-61.5 622.5,-61.5 622.5,-40.5 433.5,-40.5"/>
<text text-anchor="middle" x="528" y="-48.5" font-family="FreeSans.ttf" font-size="10.00">HistogramWidget::zoneEndChanged</text>
</a>
</g>
<!-- Node2&#45;&gt;Node6 -->
<g id="edge10" class="edge"><title>Node2&#45;&gt;Node6</title>
<path fill="none" stroke="midnightblue" d="M365.065,-80.4905C394.135,-75.229 429.507,-68.8268 459.856,-63.3338"/>
<polygon fill="midnightblue" stroke="midnightblue" points="460.723,-66.7339 469.939,-61.5087 459.476,-59.8458 460.723,-66.7339"/>
</g>
<!-- Node7 -->
<g id="node13" class="node"><title>Node7</title>
<a xlink:href="classHistogramWidget.html#ad514c92171740129fa450649b1e40504" target="_top" xlink:title="HistogramWidget::clickZoneEndChanged">
<polygon fill="none" stroke="black" points="422,-0.5 422,-21.5 634,-21.5 634,-0.5 422,-0.5"/>
<text text-anchor="middle" x="528" y="-8.5" font-family="FreeSans.ttf" font-size="10.00">HistogramWidget::clickZoneEndChanged</text>
</a>
</g>
<!-- Node2&#45;&gt;Node7 -->
<g id="edge12" class="edge"><title>Node2&#45;&gt;Node7</title>
<path fill="none" stroke="midnightblue" d="M365.546,-80.3817C372.702,-77.8833 379.701,-74.8012 386,-71 406.478,-58.6423 401.152,-42.7226 422,-31 425.916,-28.7978 430.03,-26.8327 434.269,-25.0796"/>
<polygon fill="midnightblue" stroke="midnightblue" points="435.565,-28.332 443.722,-21.5707 433.129,-21.7695 435.565,-28.332"/>
</g>
</g>
</svg>
        <g id="navigator" transform="translate(0 0)" fill="#404254">
                <rect fill="#f2f5e9" fill-opacity="0.5" stroke="#606060" stroke-width=".5" x="0" y="0" width="60" height="60"/>
                <use id="zoomplus" xlink:href="#zoomPlus" x="17" y="9" onmousedown="handleZoom(evt,'in')"/>
                <use id="zoomminus" xlink:href="#zoomMin" x="42" y="9" onmousedown="handleZoom(evt,'out')"/>
                <use id="reset" xlink:href="#resetDef" x="30" y="36" onmousedown="handleReset()"/>
                <g id="arrowUp" xlink:href="#dirArrow" transform="translate(30 24)" onmousedown="handlePan(0,-1)">
                  <use xlink:href="#rim" fill="#404040">
                        <set attributeName="fill" to="#808080" begin="arrowUp.mouseover" end="arrowUp.mouseout"/>
                  </use>
                  <path fill="none" stroke="white" stroke-width="1.5" d="M0,-3.0v7 M-2.5,-0.5L0,-3.0L2.5,-0.5"/>
                </g>
                <g id="arrowRight" xlink:href="#dirArrow" transform="rotate(90) translate(36 -43)" onmousedown="handlePan(1,0)">
                  <use xlink:href="#rim" fill="#404040">
                        <set attributeName="fill" to="#808080" begin="arrowRight.mouseover" end="arrowRight.mouseout"/>
                  </use>
                  <path fill="none" stroke="white" stroke-width="1.5" d="M0,-3.0v7 M-2.5,-0.5L0,-3.0L2.5,-0.5"/>
                </g>
                <g id="arrowDown" xlink:href="#dirArrow" transform="rotate(180) translate(-30 -48)" onmousedown="handlePan(0,1)">
                  <use xlink:href="#rim" fill="#404040">
                        <set attributeName="fill" to="#808080" begin="arrowDown.mouseover" end="arrowDown.mouseout"/>
                  </use>
                  <path fill="none" stroke="white" stroke-width="1.5" d="M0,-3.0v7 M-2.5,-0.5L0,-3.0L2.5,-0.5"/>
                </g>
                <g id="arrowLeft" xlink:href="#dirArrow" transform="rotate(270) translate(-36 17)" onmousedown="handlePan(-1,0)">
                  <use xlink:href="#rim" fill="#404040">
                        <set attributeName="fill" to="#808080" begin="arrowLeft.mouseover" end="arrowLeft.mouseout"/>
                  </use>
                  <path fill="none" stroke="white" stroke-width="1.5" d="M0,-3.0v7 M-2.5,-0.5L0,-3.0L2.5,-0.5"/>
                </g>
        </g>
</svg>
