<?xml version="1.0" encoding="UTF-8" standalone="no"?>
<!DOCTYPE svg PUBLIC "-//W3C//DTD SVG 1.1//EN"
 "http://www.w3.org/Graphics/SVG/1.1/DTD/svg11.dtd">
<!-- Generated by graphviz version 2.26.3 (20100126.1600)
 -->
<!-- Title: G Pages: 1 -->
<!--zoomable 526 -->
<svg id="main" version="1.1" xmlns="http://www.w3.org/2000/svg" xmlns:xlink="http://www.w3.org/1999/xlink" xml:space="preserve" onload="init(evt)">
        <defs>
                <circle id="rim" cx="0" cy="0" r="7"/>
                <circle id="rim2" cx="0" cy="0" r="3.5"/>
                <g id="zoomPlus">
                        <use xlink:href="#rim" fill="#404040">
                                <set attributeName="fill" to="#808080" begin="zoomplus.mouseover" end="zoomplus.mouseout"/>
                        </use>
                        <path d="M-4,0h8M0,-4v8" fill="none" stroke="white" stroke-width="1.5" pointer-events="none"/>
                </g>
                <g id="zoomMin">
                        <use xlink:href="#rim" fill="#404040">
                                <set attributeName="fill" to="#808080" begin="zoomminus.mouseover" end="zoomminus.mouseout"/>
                        </use>
                        <path d="M-4,0h8" fill="none" stroke="white" stroke-width="1.5" pointer-events="none"/>
                </g>
                <g id="dirArrow">
                        <path fill="none" stroke="white" stroke-width="1.5" d="M0,-3.0v7 M-2.5,-0.5L0,-3.0L2.5,-0.5"/>
                </g>
               <g id="resetDef">
                       <use xlink:href="#rim2" fill="#404040">
                               <set attributeName="fill" to="#808080" begin="reset.mouseover" end="reset.mouseout"/>
                       </use>
               </g>
        </defs>

<script type="text/javascript">
var viewWidth = 1638;
var viewHeight = 526;
var sectionId = 'dynsection-8';
</script>
<script xlink:href="svgpan.js"/>
<svg id="graph" class="graph">
<g id="viewport">
<title>G</title>
<!-- Node1 -->
<g id="node1" class="node"><title>Node1</title>
<polygon fill="#bfbfbf" stroke="black" points="0.5,-385.5 0.5,-406.5 317.5,-406.5 317.5,-385.5 0.5,-385.5"/>
<text text-anchor="middle" x="159" y="-393.5" font-family="FreeSans.ttf" font-size="10.00">corecvs::HomographyReconstructor::getBestHomographyLSE1</text>
</g>
<!-- Node2 -->
<g id="node3" class="node"><title>Node2</title>
<a xlink:href="classcorecvs_1_1Matrix.html#a5b8b00c8bfc66549652e6c0610457254" target="_top" xlink:title="The element getter for a matrix that is used like vector (i.e has height or width of 1)...">
<polygon fill="none" stroke="black" points="1009.5,-417.5 1009.5,-438.5 1110.5,-438.5 1110.5,-417.5 1009.5,-417.5"/>
<text text-anchor="middle" x="1060" y="-425.5" font-family="FreeSans.ttf" font-size="10.00">corecvs::Matrix::a</text>
</a>
</g>
<!-- Node1&#45;&gt;Node2 -->
<g id="edge2" class="edge"><title>Node1&#45;&gt;Node2</title>
<path fill="none" stroke="midnightblue" d="M173.689,-406.683C204.943,-428.673 281.143,-478.408 354,-496 600.655,-555.558 907.668,-475.173 1018.05,-441.55"/>
<polygon fill="midnightblue" stroke="midnightblue" points="1019.28,-444.833 1027.81,-438.543 1017.22,-438.144 1019.28,-444.833"/>
</g>
<!-- Node4 -->
<g id="node7" class="node"><title>Node4</title>
<a xlink:href="classcorecvs_1_1HomographyReconstructor.html#a3ccdf02ca81359f09edb635876758a51" target="_top" xlink:title="Matrix is searched in form.">
<polygon fill="none" stroke="black" points="356.5,-180.5 356.5,-201.5 685.5,-201.5 685.5,-180.5 356.5,-180.5"/>
<text text-anchor="middle" x="521" y="-188.5" font-family="FreeSans.ttf" font-size="10.00">corecvs::HomographyReconstructor::addPoint2LineConstraintLSE</text>
</a>
</g>
<!-- Node1&#45;&gt;Node4 -->
<g id="edge6" class="edge"><title>Node1&#45;&gt;Node4</title>
<path fill="none" stroke="midnightblue" d="M170.908,-385.132C200.132,-358.932 278.523,-291.468 354,-251 391.809,-230.728 437.899,-214.757 472.073,-204.406"/>
<polygon fill="midnightblue" stroke="midnightblue" points="473.238,-207.711 481.826,-201.506 471.243,-201.001 473.238,-207.711"/>
</g>
<!-- Node16 -->
<g id="node31" class="node"><title>Node16</title>
<a xlink:href="classcorecvs_1_1HomographyReconstructor.html#a1b6350d24fc02433919397f7767d322b" target="_top" xlink:title="This block is devoted to LSE optimization.">
<polygon fill="none" stroke="black" points="354.5,-260.5 354.5,-281.5 687.5,-281.5 687.5,-260.5 354.5,-260.5"/>
<text text-anchor="middle" x="521" y="-268.5" font-family="FreeSans.ttf" font-size="10.00">corecvs::HomographyReconstructor::addPoint2PointConstraintLSE</text>
</a>
</g>
<!-- Node1&#45;&gt;Node16 -->
<g id="edge30" class="edge"><title>Node1&#45;&gt;Node16</title>
<path fill="none" stroke="midnightblue" d="M189.552,-385.45C254.753,-362.936 407.526,-310.183 480.633,-284.939"/>
<polygon fill="midnightblue" stroke="midnightblue" points="482.092,-288.138 490.402,-281.566 479.807,-281.521 482.092,-288.138"/>
</g>
<!-- Node17 -->
<g id="node36" class="node"><title>Node17</title>
<a xlink:href="classcorecvs_1_1Matrix.html#a152506e1afd1a9ac8ec066e7104f2f45" target="_top" xlink:title="corecvs::Matrix::frobeniusNorm">
<polygon fill="none" stroke="black" points="438,-465.5 438,-486.5 604,-486.5 604,-465.5 438,-465.5"/>
<text text-anchor="middle" x="521" y="-473.5" font-family="FreeSans.ttf" font-size="10.00">corecvs::Matrix::frobeniusNorm</text>
</a>
</g>
<!-- Node1&#45;&gt;Node17 -->
<g id="edge38" class="edge"><title>Node1&#45;&gt;Node17</title>
<path fill="none" stroke="midnightblue" d="M206.697,-406.541C272.848,-421.16 392.305,-447.559 463.364,-463.263"/>
<polygon fill="midnightblue" stroke="midnightblue" points="462.965,-466.759 473.485,-465.499 464.476,-459.924 462.965,-466.759"/>
</g>
<!-- Node18 -->
<g id="node39" class="node"><title>Node18</title>
<a xlink:href="classcorecvs_1_1Matrix.html#a67ff682212801703e75602acf3859d1f" target="_top" xlink:title="corecvs::Matrix::invSVD">
<polygon fill="none" stroke="black" points="456.5,-363.5 456.5,-384.5 585.5,-384.5 585.5,-363.5 456.5,-363.5"/>
<text text-anchor="middle" x="521" y="-371.5" font-family="FreeSans.ttf" font-size="10.00">corecvs::Matrix::invSVD</text>
</a>
</g>
<!-- Node1&#45;&gt;Node18 -->
<g id="edge42" class="edge"><title>Node1&#45;&gt;Node18</title>
<path fill="none" stroke="midnightblue" d="M317.515,-386.366C362.175,-383.652 408.69,-380.825 445.955,-378.561"/>
<polygon fill="midnightblue" stroke="midnightblue" points="446.443,-382.038 456.212,-377.937 446.018,-375.051 446.443,-382.038"/>
</g>
<!-- Node22 -->
<g id="node50" class="node"><title>Node22</title>
<a xlink:href="classcorecvs_1_1Matrix.html#ae23aa5c2e50e7913de6aa4c703d4efa4" target="_top" xlink:title="corecvs::Matrix::t">
<polygon fill="none" stroke="black" points="472,-408.5 472,-429.5 570,-429.5 570,-408.5 472,-408.5"/>
<text text-anchor="middle" x="521" y="-416.5" font-family="FreeSans.ttf" font-size="10.00">corecvs::Matrix::t</text>
</a>
</g>
<!-- Node1&#45;&gt;Node22 -->
<g id="edge56" class="edge"><title>Node1&#45;&gt;Node22</title>
<path fill="none" stroke="midnightblue" d="M317.515,-406.071C368.648,-409.32 422.213,-412.723 461.544,-415.222"/>
<polygon fill="midnightblue" stroke="midnightblue" points="461.533,-418.729 471.735,-415.87 461.977,-411.743 461.533,-418.729"/>
</g>
<!-- Node3 -->
<g id="node5" class="node"><title>Node3</title>
<a xlink:href="classcorecvs_1_1AbstractBuffer.html#a98f72526738a0c4ce8a0b72a3b5c28b9" target="_top" xlink:title="The element getter.">
<polygon fill="none" stroke="black" points="1323,-417.5 1323,-438.5 1497,-438.5 1497,-417.5 1323,-417.5"/>
<text text-anchor="middle" x="1410" y="-425.5" font-family="FreeSans.ttf" font-size="10.00">corecvs::AbstractBuffer::element</text>
</a>
</g>
<!-- Node2&#45;&gt;Node3 -->
<g id="edge4" class="edge"><title>Node2&#45;&gt;Node3</title>
<path fill="none" stroke="midnightblue" d="M1110.52,-428C1163.17,-428 1246.99,-428 1312.58,-428"/>
<polygon fill="midnightblue" stroke="midnightblue" points="1312.94,-431.5 1322.94,-428 1312.94,-424.5 1312.94,-431.5"/>
</g>
<!-- Node5 -->
<g id="node9" class="node"><title>Node5</title>
<a xlink:href="classcorecvs_1_1AbstractBuffer.html#ad4c21551df215fd88dc991b7135068ec" target="_top" xlink:title="corecvs::AbstractBuffer::fillLineWithArgs">
<polygon fill="none" stroke="black" points="724,-280.5 724,-301.5 930,-301.5 930,-280.5 724,-280.5"/>
<text text-anchor="middle" x="827" y="-288.5" font-family="FreeSans.ttf" font-size="10.00">corecvs::AbstractBuffer::fillLineWithArgs</text>
</a>
</g>
<!-- Node4&#45;&gt;Node5 -->
<g id="edge8" class="edge"><title>Node4&#45;&gt;Node5</title>
<path fill="none" stroke="midnightblue" d="M555.547,-201.596C589.776,-212.515 643.394,-230.758 688,-251 704.667,-258.564 706.803,-264.733 724,-271 731.341,-273.675 739.113,-276.015 746.966,-278.057"/>
<polygon fill="midnightblue" stroke="midnightblue" points="746.385,-281.518 756.93,-280.488 748.044,-274.718 746.385,-281.518"/>
</g>
<!-- Node6 -->
<g id="node11" class="node"><title>Node6</title>
<a xlink:href="classcorecvs_1_1Line2d.html#a2e5f496ec6b872a40d874a0fb44e29f6" target="_top" xlink:title="Return a normalized copy of vector.">
<polygon fill="none" stroke="black" points="752,-40.5 752,-61.5 902,-61.5 902,-40.5 752,-40.5"/>
<text text-anchor="middle" x="827" y="-48.5" font-family="FreeSans.ttf" font-size="10.00">corecvs::Line2d::normalised</text>
</a>
</g>
<!-- Node4&#45;&gt;Node6 -->
<g id="edge10" class="edge"><title>Node4&#45;&gt;Node6</title>
<path fill="none" stroke="midnightblue" d="M534.903,-180.458C566.608,-156.956 647.45,-100.061 724,-71 730.986,-68.3477 738.378,-66.0319 745.867,-64.0128"/>
<polygon fill="midnightblue" stroke="midnightblue" points="746.899,-67.3624 755.741,-61.5261 745.189,-60.5744 746.899,-67.3624"/>
</g>
<!-- Node11 -->
<g id="node21" class="node"><title>Node11</title>
<a xlink:href="classcorecvs_1_1Vector2d.html#a944721c41f044c1388d9dc42ca899bce" target="_top" xlink:title="corecvs::Vector2d::x">
<polygon fill="none" stroke="black" points="770.5,-240.5 770.5,-261.5 883.5,-261.5 883.5,-240.5 770.5,-240.5"/>
<text text-anchor="middle" x="827" y="-248.5" font-family="FreeSans.ttf" font-size="10.00">corecvs::Vector2d::x</text>
</a>
</g>
<!-- Node4&#45;&gt;Node11 -->
<g id="edge20" class="edge"><title>Node4&#45;&gt;Node11</title>
<path fill="none" stroke="midnightblue" d="M574.418,-201.568C615.351,-209.655 673.236,-221.07 724,-231 736.484,-233.442 749.821,-236.04 762.618,-238.527"/>
<polygon fill="midnightblue" stroke="midnightblue" points="762.253,-242.022 772.737,-240.493 763.588,-235.15 762.253,-242.022"/>
</g>
<!-- Node12 -->
<g id="node23" class="node"><title>Node12</title>
<a xlink:href="classcorecvs_1_1Vector3d.html#aec83d9ad04107cd9c2bb11abf33128c0" target="_top" xlink:title="Helper functions to access elements.">
<polygon fill="none" stroke="black" points="770.5,-160.5 770.5,-181.5 883.5,-181.5 883.5,-160.5 770.5,-160.5"/>
<text text-anchor="middle" x="827" y="-168.5" font-family="FreeSans.ttf" font-size="10.00">corecvs::Vector3d::x</text>
</a>
</g>
<!-- Node4&#45;&gt;Node12 -->
<g id="edge22" class="edge"><title>Node4&#45;&gt;Node12</title>
<path fill="none" stroke="midnightblue" d="M682.065,-180.473C709.658,-178.669 736.9,-176.889 760.189,-175.367"/>
<polygon fill="midnightblue" stroke="midnightblue" points="760.505,-178.854 770.256,-174.709 760.049,-171.869 760.505,-178.854"/>
</g>
<!-- Node13 -->
<g id="node25" class="node"><title>Node13</title>
<a xlink:href="classcorecvs_1_1Vector2d.html#ae1ea2ad4c0821001408bf963cffa8413" target="_top" xlink:title="corecvs::Vector2d::y">
<polygon fill="none" stroke="black" points="770.5,-200.5 770.5,-221.5 883.5,-221.5 883.5,-200.5 770.5,-200.5"/>
<text text-anchor="middle" x="827" y="-208.5" font-family="FreeSans.ttf" font-size="10.00">corecvs::Vector2d::y</text>
</a>
</g>
<!-- Node4&#45;&gt;Node13 -->
<g id="edge24" class="edge"><title>Node4&#45;&gt;Node13</title>
<path fill="none" stroke="midnightblue" d="M682.065,-201.527C709.658,-203.331 736.9,-205.111 760.189,-206.633"/>
<polygon fill="midnightblue" stroke="midnightblue" points="760.049,-210.131 770.256,-207.291 760.505,-203.146 760.049,-210.131"/>
</g>
<!-- Node14 -->
<g id="node27" class="node"><title>Node14</title>
<a xlink:href="classcorecvs_1_1Vector3d.html#a940d88447f20fac800d1fa510c981275" target="_top" xlink:title="corecvs::Vector3d::y">
<polygon fill="none" stroke="black" points="770.5,-120.5 770.5,-141.5 883.5,-141.5 883.5,-120.5 770.5,-120.5"/>
<text text-anchor="middle" x="827" y="-128.5" font-family="FreeSans.ttf" font-size="10.00">corecvs::Vector3d::y</text>
</a>
</g>
<!-- Node4&#45;&gt;Node14 -->
<g id="edge26" class="edge"><title>Node4&#45;&gt;Node14</title>
<path fill="none" stroke="midnightblue" d="M574.418,-180.432C615.351,-172.345 673.236,-160.93 724,-151 736.484,-148.558 749.821,-145.96 762.618,-143.473"/>
<polygon fill="midnightblue" stroke="midnightblue" points="763.588,-146.85 772.737,-141.507 762.253,-139.978 763.588,-146.85"/>
</g>
<!-- Node15 -->
<g id="node29" class="node"><title>Node15</title>
<a xlink:href="classcorecvs_1_1Vector3d.html#a4587f5d4984576c5c4c2d44a4140ce3f" target="_top" xlink:title="corecvs::Vector3d::z">
<polygon fill="none" stroke="black" points="770.5,-80.5 770.5,-101.5 883.5,-101.5 883.5,-80.5 770.5,-80.5"/>
<text text-anchor="middle" x="827" y="-88.5" font-family="FreeSans.ttf" font-size="10.00">corecvs::Vector3d::z</text>
</a>
</g>
<!-- Node4&#45;&gt;Node15 -->
<g id="edge28" class="edge"><title>Node4&#45;&gt;Node15</title>
<path fill="none" stroke="midnightblue" d="M543.657,-180.478C580.667,-163.655 656.719,-130.609 724,-111 735.613,-107.615 748.132,-104.641 760.306,-102.091"/>
<polygon fill="midnightblue" stroke="midnightblue" points="761.312,-105.459 770.423,-100.05 759.928,-98.5973 761.312,-105.459"/>
</g>
<!-- Node7 -->
<g id="node13" class="node"><title>Node7</title>
<a xlink:href="classcorecvs_1_1Line2d.html#a2bc37f087a7499fa6b28bc870fb5fd85" target="_top" xlink:title="Normalizes the normal vector without changing the line itself.">
<polygon fill="none" stroke="black" points="988,-40.5 988,-61.5 1132,-61.5 1132,-40.5 988,-40.5"/>
<text text-anchor="middle" x="1060" y="-48.5" font-family="FreeSans.ttf" font-size="10.00">corecvs::Line2d::normalise</text>
</a>
</g>
<!-- Node6&#45;&gt;Node7 -->
<g id="edge12" class="edge"><title>Node6&#45;&gt;Node7</title>
<path fill="none" stroke="midnightblue" d="M902.005,-51C926.209,-51 953.16,-51 977.851,-51"/>
<polygon fill="midnightblue" stroke="midnightblue" points="977.915,-54.5001 987.915,-51 977.915,-47.5001 977.915,-54.5001"/>
</g>
<!-- Node8 -->
<g id="node15" class="node"><title>Node8</title>
<a xlink:href="classcorecvs_1_1VectorOperationsBase.html#acfcd4bcc60d1d076b00afcfeba9f9e8b" target="_top" xlink:title="Euclidean distance.">
<polygon fill="none" stroke="black" points="1305,-80.5 1305,-101.5 1515,-101.5 1515,-80.5 1305,-80.5"/>
<text text-anchor="middle" x="1410" y="-88.5" font-family="FreeSans.ttf" font-size="10.00">corecvs::VectorOperationsBase::l2Metric</text>
</a>
</g>
<!-- Node7&#45;&gt;Node8 -->
<g id="edge14" class="edge"><title>Node7&#45;&gt;Node8</title>
<path fill="none" stroke="midnightblue" d="M1123.04,-61.5027C1144.27,-64.8259 1168.13,-68.3259 1190,-71 1223.9,-75.144 1260.83,-78.8248 1294.58,-81.8633"/>
<polygon fill="midnightblue" stroke="midnightblue" points="1294.68,-85.3856 1304.95,-82.7855 1295.3,-78.4131 1294.68,-85.3856"/>
</g>
<!-- Node9 -->
<g id="node17" class="node"><title>Node9</title>
<a xlink:href="classcorecvs_1_1Line2d.html#af2129b77f7bfa024b387a8d958deb1b3" target="_top" xlink:title="corecvs::Line2d::normal">
<polygon fill="none" stroke="black" points="1344.5,-40.5 1344.5,-61.5 1475.5,-61.5 1475.5,-40.5 1344.5,-40.5"/>
<text text-anchor="middle" x="1410" y="-48.5" font-family="FreeSans.ttf" font-size="10.00">corecvs::Line2d::normal</text>
</a>
</g>
<!-- Node7&#45;&gt;Node9 -->
<g id="edge16" class="edge"><title>Node7&#45;&gt;Node9</title>
<path fill="none" stroke="midnightblue" d="M1132.1,-51C1191.12,-51 1274.36,-51 1334.33,-51"/>
<polygon fill="midnightblue" stroke="midnightblue" points="1334.49,-54.5001 1344.49,-51 1334.49,-47.5001 1334.49,-54.5001"/>
</g>
<!-- Node10 -->
<g id="node19" class="node"><title>Node10</title>
<a xlink:href="classcorecvs_1_1VectorOperationsBase.html#aab7561ae71642d8763c871ad184b3a53" target="_top" xlink:title="corecvs::VectorOperationsBase\&lt; Vector3d\&lt; ElementType \&gt;, ElementType \&gt;::operator/=">
<polygon fill="none" stroke="black" points="1190,-0.5 1190,-21.5 1630,-21.5 1630,-0.5 1190,-0.5"/>
<text text-anchor="middle" x="1410" y="-8.5" font-family="FreeSans.ttf" font-size="10.00">corecvs::VectorOperationsBase&lt; Vector3d&lt; ElementType &gt;, ElementType &gt;::operator/=</text>
</a>
</g>
<!-- Node7&#45;&gt;Node10 -->
<g id="edge18" class="edge"><title>Node7&#45;&gt;Node10</title>
<path fill="none" stroke="midnightblue" d="M1123.04,-40.4973C1144.27,-37.1741 1168.13,-33.6741 1190,-31 1215.65,-27.8635 1243.05,-24.9924 1269.49,-22.4643"/>
<polygon fill="midnightblue" stroke="midnightblue" points="1269.94,-25.9371 1279.57,-21.5123 1269.28,-18.9681 1269.94,-25.9371"/>
</g>
<!-- Node16&#45;&gt;Node5 -->
<g id="edge32" class="edge"><title>Node16&#45;&gt;Node5</title>
<path fill="none" stroke="midnightblue" d="M682.065,-281.527C692.648,-282.219 703.179,-282.907 713.455,-283.579"/>
<polygon fill="midnightblue" stroke="midnightblue" points="713.432,-287.085 723.639,-284.244 713.889,-280.1 713.432,-287.085"/>
</g>
<!-- Node16&#45;&gt;Node11 -->
<g id="edge34" class="edge"><title>Node16&#45;&gt;Node11</title>
<path fill="none" stroke="midnightblue" d="M682.065,-260.473C709.658,-258.669 736.9,-256.889 760.189,-255.367"/>
<polygon fill="midnightblue" stroke="midnightblue" points="760.505,-258.854 770.256,-254.709 760.049,-251.869 760.505,-258.854"/>
</g>
<!-- Node16&#45;&gt;Node13 -->
<g id="edge36" class="edge"><title>Node16&#45;&gt;Node13</title>
<path fill="none" stroke="midnightblue" d="M574.418,-260.432C615.351,-252.345 673.236,-240.93 724,-231 736.484,-228.558 749.821,-225.96 762.618,-223.473"/>
<polygon fill="midnightblue" stroke="midnightblue" points="763.588,-226.85 772.737,-221.507 762.253,-219.978 763.588,-226.85"/>
</g>
<!-- Node17&#45;&gt;Node2 -->
<g id="edge40" class="edge"><title>Node17&#45;&gt;Node2</title>
<path fill="none" stroke="midnightblue" d="M604.108,-470.135C686.799,-464.102 817.272,-454.048 930,-443 952.643,-440.781 977.463,-438.003 999.293,-435.442"/>
<polygon fill="midnightblue" stroke="midnightblue" points="999.899,-438.895 1009.42,-434.245 999.077,-431.943 999.899,-438.895"/>
</g>
<!-- Node18&#45;&gt;Node2 -->
<g id="edge54" class="edge"><title>Node18&#45;&gt;Node2</title>
<path fill="none" stroke="midnightblue" d="M585.617,-371.328C666.661,-369.13 809.602,-369.069 930,-389 961.913,-394.283 996.981,-405.115 1022.65,-414.025"/>
<polygon fill="midnightblue" stroke="midnightblue" points="1021.74,-417.419 1032.34,-417.454 1024.08,-410.819 1021.74,-417.419"/>
</g>
<!-- Node19 -->
<g id="node41" class="node"><title>Node19</title>
<a xlink:href="classcorecvs_1_1Matrix.html#ab00a85b071aab144f3a2860189150e7f" target="_top" xlink:title="This method contains SVD implementation.">
<polygon fill="none" stroke="black" points="771.5,-320.5 771.5,-341.5 882.5,-341.5 882.5,-320.5 771.5,-320.5"/>
<text text-anchor="middle" x="827" y="-328.5" font-family="FreeSans.ttf" font-size="10.00">corecvs::Matrix::svd</text>
</a>
</g>
<!-- Node18&#45;&gt;Node19 -->
<g id="edge44" class="edge"><title>Node18&#45;&gt;Node19</title>
<path fill="none" stroke="midnightblue" d="M585.521,-364.933C637.138,-357.68 709.226,-347.55 761.182,-340.249"/>
<polygon fill="midnightblue" stroke="midnightblue" points="761.878,-343.686 771.293,-338.828 760.903,-336.754 761.878,-343.686"/>
</g>
<!-- Node21 -->
<g id="node46" class="node"><title>Node21</title>
<a xlink:href="classcorecvs_1_1Matrix.html#a592174ecffa431b0f6b2a47aeee2ad23" target="_top" xlink:title="corecvs::Matrix::transpose">
<polygon fill="none" stroke="black" points="755.5,-398.5 755.5,-419.5 898.5,-419.5 898.5,-398.5 755.5,-398.5"/>
<text text-anchor="middle" x="827" y="-406.5" font-family="FreeSans.ttf" font-size="10.00">corecvs::Matrix::transpose</text>
</a>
</g>
<!-- Node18&#45;&gt;Node21 -->
<g id="edge50" class="edge"><title>Node18&#45;&gt;Node21</title>
<path fill="none" stroke="midnightblue" d="M585.521,-381.38C632.027,-386.699 695.151,-393.919 745.196,-399.643"/>
<polygon fill="midnightblue" stroke="midnightblue" points="745.011,-403.145 755.344,-400.804 745.806,-396.19 745.011,-403.145"/>
</g>
<!-- Node19&#45;&gt;Node2 -->
<g id="edge46" class="edge"><title>Node19&#45;&gt;Node2</title>
<path fill="none" stroke="midnightblue" d="M882.097,-341.501C897.837,-345.267 914.829,-350.081 930,-356 968.746,-371.115 1010.24,-395.744 1035.66,-411.911"/>
<polygon fill="midnightblue" stroke="midnightblue" points="1033.96,-414.98 1044.27,-417.452 1037.75,-409.095 1033.96,-414.98"/>
</g>
<!-- Node20 -->
<g id="node44" class="node"><title>Node20</title>
<a xlink:href="classcorecvs_1_1Vector2d.html#ab49b551bd23cad02283d6506884bef72" target="_top" xlink:title="corecvs::Vector2d::getLengthStable">
<polygon fill="none" stroke="black" points="966,-320.5 966,-341.5 1154,-341.5 1154,-320.5 966,-320.5"/>
<text text-anchor="middle" x="1060" y="-328.5" font-family="FreeSans.ttf" font-size="10.00">corecvs::Vector2d::getLengthStable</text>
</a>
</g>
<!-- Node19&#45;&gt;Node20 -->
<g id="edge48" class="edge"><title>Node19&#45;&gt;Node20</title>
<path fill="none" stroke="midnightblue" d="M882.513,-331C904.399,-331 930.285,-331 955.422,-331"/>
<polygon fill="midnightblue" stroke="midnightblue" points="955.757,-334.5 965.757,-331 955.757,-327.5 955.757,-334.5"/>
</g>
<!-- Node21&#45;&gt;Node2 -->
<g id="edge52" class="edge"><title>Node21&#45;&gt;Node2</title>
<path fill="none" stroke="midnightblue" d="M898.809,-414.856C931.004,-417.481 968.567,-420.544 999.329,-423.053"/>
<polygon fill="midnightblue" stroke="midnightblue" points="999.231,-426.556 1009.48,-423.881 999.8,-419.579 999.231,-426.556"/>
</g>
<!-- Node22&#45;&gt;Node2 -->
<g id="edge58" class="edge"><title>Node22&#45;&gt;Node2</title>
<path fill="none" stroke="midnightblue" d="M570.199,-422.103C611.295,-424.531 671.44,-427.706 724,-429 815.528,-431.253 838.445,-429.352 930,-429 952.602,-428.913 977.413,-428.741 999.247,-428.564"/>
<polygon fill="midnightblue" stroke="midnightblue" points="999.406,-432.063 1009.38,-428.48 999.348,-425.063 999.406,-432.063"/>
</g>
</g>
</svg>
        <g id="navigator" transform="translate(0 0)" fill="#404254">
                <rect fill="#f2f5e9" fill-opacity="0.5" stroke="#606060" stroke-width=".5" x="0" y="0" width="60" height="60"/>
                <use id="zoomplus" xlink:href="#zoomPlus" x="17" y="9" onmousedown="handleZoom(evt,'in')"/>
                <use id="zoomminus" xlink:href="#zoomMin" x="42" y="9" onmousedown="handleZoom(evt,'out')"/>
                <use id="reset" xlink:href="#resetDef" x="30" y="36" onmousedown="handleReset()"/>
                <g id="arrowUp" xlink:href="#dirArrow" transform="translate(30 24)" onmousedown="handlePan(0,-1)">
                  <use xlink:href="#rim" fill="#404040">
                        <set attributeName="fill" to="#808080" begin="arrowUp.mouseover" end="arrowUp.mouseout"/>
                  </use>
                  <path fill="none" stroke="white" stroke-width="1.5" d="M0,-3.0v7 M-2.5,-0.5L0,-3.0L2.5,-0.5"/>
                </g>
                <g id="arrowRight" xlink:href="#dirArrow" transform="rotate(90) translate(36 -43)" onmousedown="handlePan(1,0)">
                  <use xlink:href="#rim" fill="#404040">
                        <set attributeName="fill" to="#808080" begin="arrowRight.mouseover" end="arrowRight.mouseout"/>
                  </use>
                  <path fill="none" stroke="white" stroke-width="1.5" d="M0,-3.0v7 M-2.5,-0.5L0,-3.0L2.5,-0.5"/>
                </g>
                <g id="arrowDown" xlink:href="#dirArrow" transform="rotate(180) translate(-30 -48)" onmousedown="handlePan(0,1)">
                  <use xlink:href="#rim" fill="#404040">
                        <set attributeName="fill" to="#808080" begin="arrowDown.mouseover" end="arrowDown.mouseout"/>
                  </use>
                  <path fill="none" stroke="white" stroke-width="1.5" d="M0,-3.0v7 M-2.5,-0.5L0,-3.0L2.5,-0.5"/>
                </g>
                <g id="arrowLeft" xlink:href="#dirArrow" transform="rotate(270) translate(-36 17)" onmousedown="handlePan(-1,0)">
                  <use xlink:href="#rim" fill="#404040">
                        <set attributeName="fill" to="#808080" begin="arrowLeft.mouseover" end="arrowLeft.mouseout"/>
                  </use>
                  <path fill="none" stroke="white" stroke-width="1.5" d="M0,-3.0v7 M-2.5,-0.5L0,-3.0L2.5,-0.5"/>
                </g>
        </g>
</svg>
