<?xml version="1.0" encoding="UTF-8" standalone="no"?>
<!DOCTYPE svg PUBLIC "-//W3C//DTD SVG 1.1//EN"
 "http://www.w3.org/Graphics/SVG/1.1/DTD/svg11.dtd">
<!-- Generated by graphviz version 2.26.3 (20100126.1600)
 -->
<!-- Title: G Pages: 1 -->
<!--zoomable 190 -->
<svg id="main" version="1.1" xmlns="http://www.w3.org/2000/svg" xmlns:xlink="http://www.w3.org/1999/xlink" xml:space="preserve" onload="init(evt)">
        <defs>
                <circle id="rim" cx="0" cy="0" r="7"/>
                <circle id="rim2" cx="0" cy="0" r="3.5"/>
                <g id="zoomPlus">
                        <use xlink:href="#rim" fill="#404040">
                                <set attributeName="fill" to="#808080" begin="zoomplus.mouseover" end="zoomplus.mouseout"/>
                        </use>
                        <path d="M-4,0h8M0,-4v8" fill="none" stroke="white" stroke-width="1.5" pointer-events="none"/>
                </g>
                <g id="zoomMin">
                        <use xlink:href="#rim" fill="#404040">
                                <set attributeName="fill" to="#808080" begin="zoomminus.mouseover" end="zoomminus.mouseout"/>
                        </use>
                        <path d="M-4,0h8" fill="none" stroke="white" stroke-width="1.5" pointer-events="none"/>
                </g>
                <g id="dirArrow">
                        <path fill="none" stroke="white" stroke-width="1.5" d="M0,-3.0v7 M-2.5,-0.5L0,-3.0L2.5,-0.5"/>
                </g>
               <g id="resetDef">
                       <use xlink:href="#rim2" fill="#404040">
                               <set attributeName="fill" to="#808080" begin="reset.mouseover" end="reset.mouseout"/>
                       </use>
               </g>
        </defs>

<script type="text/javascript">
var viewWidth = 718;
var viewHeight = 190;
var sectionId = 'dynsection-14';
</script>
<script xlink:href="svgpan.js"/>
<svg id="graph" class="graph">
<g id="viewport">
<title>G</title>
<!-- Node1 -->
<g id="node1" class="node"><title>Node1</title>
<polygon fill="#bfbfbf" stroke="black" points="0,-80.5 0,-101.5 194,-101.5 194,-80.5 0,-80.5"/>
<text text-anchor="middle" x="97" y="-88.5" font-family="FreeSans.ttf" font-size="10.00">corecvs::GenericQuaternion::toMatrix</text>
</g>
<!-- Node2 -->
<g id="node3" class="node"><title>Node2</title>
<a xlink:href="classcorecvs_1_1VectorOperationsBase.html#a4919b3ba481b65d7c7c2443cf1166fb3" target="_top" xlink:title="Another alias for Euclidean distance.">
<polygon fill="none" stroke="black" points="230,-160.5 230,-181.5 710,-181.5 710,-160.5 230,-160.5"/>
<text text-anchor="middle" x="470" y="-168.5" font-family="FreeSans.ttf" font-size="10.00">corecvs::VectorOperationsBase&lt; GenericQuaternion&lt; ElementType &gt;, ElementType &gt;::operator!</text>
</a>
</g>
<!-- Node1&#45;&gt;Node2 -->
<g id="edge2" class="edge"><title>Node1&#45;&gt;Node2</title>
<path fill="none" stroke="midnightblue" d="M115.203,-101.641C140.163,-115.653 186.842,-139.82 230,-151 241.463,-153.969 253.326,-156.526 265.362,-158.726"/>
<polygon fill="midnightblue" stroke="midnightblue" points="265.056,-162.225 275.508,-160.491 266.255,-155.329 265.056,-162.225"/>
</g>
<!-- Node3 -->
<g id="node5" class="node"><title>Node3</title>
<a xlink:href="classcorecvs_1_1GenericQuaternion.html#a1425fc56ee78d718b584f902e120251c" target="_top" xlink:title="corecvs::GenericQuaternion::t">
<polygon fill="none" stroke="black" points="390.5,-120.5 390.5,-141.5 549.5,-141.5 549.5,-120.5 390.5,-120.5"/>
<text text-anchor="middle" x="470" y="-128.5" font-family="FreeSans.ttf" font-size="10.00">corecvs::GenericQuaternion::t</text>
</a>
</g>
<!-- Node1&#45;&gt;Node3 -->
<g id="edge4" class="edge"><title>Node1&#45;&gt;Node3</title>
<path fill="none" stroke="midnightblue" d="M161.151,-101.523C182.96,-104.867 207.503,-108.374 230,-111 279.613,-116.791 335.186,-121.533 380.353,-124.943"/>
<polygon fill="midnightblue" stroke="midnightblue" points="380.182,-128.44 390.415,-125.694 380.703,-121.459 380.182,-128.44"/>
</g>
<!-- Node4 -->
<g id="node7" class="node"><title>Node4</title>
<a xlink:href="classcorecvs_1_1GenericQuaternion.html#a050eb3f5c915b00c484f06d7565475c8" target="_top" xlink:title="corecvs::GenericQuaternion::x">
<polygon fill="none" stroke="black" points="389.5,-80.5 389.5,-101.5 550.5,-101.5 550.5,-80.5 389.5,-80.5"/>
<text text-anchor="middle" x="470" y="-88.5" font-family="FreeSans.ttf" font-size="10.00">corecvs::GenericQuaternion::x</text>
</a>
</g>
<!-- Node1&#45;&gt;Node4 -->
<g id="edge6" class="edge"><title>Node1&#45;&gt;Node4</title>
<path fill="none" stroke="midnightblue" d="M194.028,-91C251.129,-91 322.896,-91 378.93,-91"/>
<polygon fill="midnightblue" stroke="midnightblue" points="379.203,-94.5001 389.203,-91 379.203,-87.5001 379.203,-94.5001"/>
</g>
<!-- Node5 -->
<g id="node9" class="node"><title>Node5</title>
<a xlink:href="classcorecvs_1_1GenericQuaternion.html#a700b900b3421d779243e9fba7db5b3b0" target="_top" xlink:title="corecvs::GenericQuaternion::y">
<polygon fill="none" stroke="black" points="389.5,-40.5 389.5,-61.5 550.5,-61.5 550.5,-40.5 389.5,-40.5"/>
<text text-anchor="middle" x="470" y="-48.5" font-family="FreeSans.ttf" font-size="10.00">corecvs::GenericQuaternion::y</text>
</a>
</g>
<!-- Node1&#45;&gt;Node5 -->
<g id="edge8" class="edge"><title>Node1&#45;&gt;Node5</title>
<path fill="none" stroke="midnightblue" d="M161.151,-80.4771C182.96,-77.1333 207.503,-73.6259 230,-71 279.227,-65.254 334.321,-60.5412 379.296,-57.1368"/>
<polygon fill="midnightblue" stroke="midnightblue" points="379.609,-60.6232 389.32,-56.3869 379.087,-53.6427 379.609,-60.6232"/>
</g>
<!-- Node6 -->
<g id="node11" class="node"><title>Node6</title>
<a xlink:href="classcorecvs_1_1GenericQuaternion.html#a276bb5600f5b8111a459b85aad641d6d" target="_top" xlink:title="corecvs::GenericQuaternion::z">
<polygon fill="none" stroke="black" points="389.5,-0.5 389.5,-21.5 550.5,-21.5 550.5,-0.5 389.5,-0.5"/>
<text text-anchor="middle" x="470" y="-8.5" font-family="FreeSans.ttf" font-size="10.00">corecvs::GenericQuaternion::z</text>
</a>
</g>
<!-- Node1&#45;&gt;Node6 -->
<g id="edge10" class="edge"><title>Node1&#45;&gt;Node6</title>
<path fill="none" stroke="midnightblue" d="M115.203,-80.3593C140.163,-66.3467 186.842,-42.1796 230,-31 278.354,-18.4746 333.843,-13.284 379.278,-11.3101"/>
<polygon fill="midnightblue" stroke="midnightblue" points="379.551,-14.8022 389.407,-10.9157 379.278,-7.80754 379.551,-14.8022"/>
</g>
</g>
</svg>
        <g id="navigator" transform="translate(0 0)" fill="#404254">
                <rect fill="#f2f5e9" fill-opacity="0.5" stroke="#606060" stroke-width=".5" x="0" y="0" width="60" height="60"/>
                <use id="zoomplus" xlink:href="#zoomPlus" x="17" y="9" onmousedown="handleZoom(evt,'in')"/>
                <use id="zoomminus" xlink:href="#zoomMin" x="42" y="9" onmousedown="handleZoom(evt,'out')"/>
                <use id="reset" xlink:href="#resetDef" x="30" y="36" onmousedown="handleReset()"/>
                <g id="arrowUp" xlink:href="#dirArrow" transform="translate(30 24)" onmousedown="handlePan(0,-1)">
                  <use xlink:href="#rim" fill="#404040">
                        <set attributeName="fill" to="#808080" begin="arrowUp.mouseover" end="arrowUp.mouseout"/>
                  </use>
                  <path fill="none" stroke="white" stroke-width="1.5" d="M0,-3.0v7 M-2.5,-0.5L0,-3.0L2.5,-0.5"/>
                </g>
                <g id="arrowRight" xlink:href="#dirArrow" transform="rotate(90) translate(36 -43)" onmousedown="handlePan(1,0)">
                  <use xlink:href="#rim" fill="#404040">
                        <set attributeName="fill" to="#808080" begin="arrowRight.mouseover" end="arrowRight.mouseout"/>
                  </use>
                  <path fill="none" stroke="white" stroke-width="1.5" d="M0,-3.0v7 M-2.5,-0.5L0,-3.0L2.5,-0.5"/>
                </g>
                <g id="arrowDown" xlink:href="#dirArrow" transform="rotate(180) translate(-30 -48)" onmousedown="handlePan(0,1)">
                  <use xlink:href="#rim" fill="#404040">
                        <set attributeName="fill" to="#808080" begin="arrowDown.mouseover" end="arrowDown.mouseout"/>
                  </use>
                  <path fill="none" stroke="white" stroke-width="1.5" d="M0,-3.0v7 M-2.5,-0.5L0,-3.0L2.5,-0.5"/>
                </g>
                <g id="arrowLeft" xlink:href="#dirArrow" transform="rotate(270) translate(-36 17)" onmousedown="handlePan(-1,0)">
                  <use xlink:href="#rim" fill="#404040">
                        <set attributeName="fill" to="#808080" begin="arrowLeft.mouseover" end="arrowLeft.mouseout"/>
                  </use>
                  <path fill="none" stroke="white" stroke-width="1.5" d="M0,-3.0v7 M-2.5,-0.5L0,-3.0L2.5,-0.5"/>
                </g>
        </g>
</svg>
