<?xml version="1.0" encoding="UTF-8" standalone="no"?>
<!DOCTYPE svg PUBLIC "-//W3C//DTD SVG 1.1//EN"
 "http://www.w3.org/Graphics/SVG/1.1/DTD/svg11.dtd">
<!-- Generated by graphviz version 2.26.3 (20100126.1600)
 -->
<!-- Title: G Pages: 1 -->
<svg width="462pt" height="70pt"
 viewBox="0.00 0.00 462.00 70.00" xmlns="http://www.w3.org/2000/svg" xmlns:xlink="http://www.w3.org/1999/xlink">
<g id="graph1" class="graph" transform="scale(1 1) rotate(0) translate(4 66)">
<title>G</title>
<!-- Node1 -->
<g id="node1" class="node"><title>Node1</title>
<polygon fill="#bfbfbf" stroke="black" points="0.5,-20.5 0.5,-41.5 143.5,-41.5 143.5,-20.5 0.5,-20.5"/>
<text text-anchor="middle" x="72" y="-28.5" font-family="FreeSans.ttf" font-size="10.00">BaseParameters::staticInit</text>
</g>
<!-- Node2 -->
<g id="node3" class="node"><title>Node2</title>
<a xlink:href="classcorecvs_1_1BaseReflection.html#a4b2b142f760048627401f2dc16774f6d" target="_top" xlink:title="corecvs::BaseReflection\&lt; BaseParameters \&gt;::fields">
<polygon fill="none" stroke="black" points="186,-40.5 186,-61.5 448,-61.5 448,-40.5 186,-40.5"/>
<text text-anchor="middle" x="317" y="-48.5" font-family="FreeSans.ttf" font-size="10.00">corecvs::BaseReflection&lt; BaseParameters &gt;::fields</text>
</a>
</g>
<!-- Node1&#45;&gt;Node2 -->
<g id="edge2" class="edge"><title>Node1&#45;&gt;Node2</title>
<path fill="none" stroke="midnightblue" d="M143.523,-36.8386C154.557,-37.7394 166.263,-38.695 178.179,-39.6677"/>
<polygon fill="midnightblue" stroke="midnightblue" points="177.976,-43.1626 188.228,-40.488 178.545,-36.1859 177.976,-43.1626"/>
</g>
<!-- Node3 -->
<g id="node5" class="node"><title>Node3</title>
<a xlink:href="classcorecvs_1_1BaseReflection.html#a0c92ee87b235bceae96c89909ddb928d" target="_top" xlink:title="corecvs::BaseReflection\&lt; BaseParameters \&gt;::naming">
<polygon fill="none" stroke="black" points="180.5,-0.5 180.5,-21.5 453.5,-21.5 453.5,-0.5 180.5,-0.5"/>
<text text-anchor="middle" x="317" y="-8.5" font-family="FreeSans.ttf" font-size="10.00">corecvs::BaseReflection&lt; BaseParameters &gt;::naming</text>
</a>
</g>
<!-- Node1&#45;&gt;Node3 -->
<g id="edge4" class="edge"><title>Node1&#45;&gt;Node3</title>
<path fill="none" stroke="midnightblue" d="M143.523,-25.1614C154.557,-24.2606 166.263,-23.305 178.179,-22.3323"/>
<polygon fill="midnightblue" stroke="midnightblue" points="178.545,-25.8141 188.228,-21.512 177.976,-18.8374 178.545,-25.8141"/>
</g>
</g>
</svg>
