<?xml version="1.0" encoding="UTF-8" standalone="no"?>
<!DOCTYPE svg PUBLIC "-//W3C//DTD SVG 1.1//EN"
 "http://www.w3.org/Graphics/SVG/1.1/DTD/svg11.dtd">
<!-- Generated by graphviz version 2.26.3 (20100126.1600)
 -->
<!-- Title: G Pages: 1 -->
<svg width="238pt" height="88pt"
 viewBox="0.00 0.00 238.00 88.00" xmlns="http://www.w3.org/2000/svg" xmlns:xlink="http://www.w3.org/1999/xlink">
<g id="graph1" class="graph" transform="scale(1 1) rotate(0) translate(4 84)">
<title>G</title>
<!-- Node1 -->
<g id="node1" class="node"><title>Node1</title>
<polygon fill="#bfbfbf" stroke="black" points="14.5,-58.5 14.5,-79.5 207.5,-79.5 207.5,-58.5 14.5,-58.5"/>
<text text-anchor="middle" x="111" y="-66.5" font-family="FreeSans.ttf" font-size="10.00">corecvs::BaseTimeStatisticsCollector</text>
</g>
<!-- Node2 -->
<g id="node3" class="node"><title>Node2</title>
<a xlink:href="classContentStatistics.html" target="_top" xlink:title="ContentStatistics">
<polygon fill="none" stroke="black" points="-0.5,-0.5 -0.5,-21.5 98.5,-21.5 98.5,-0.5 -0.5,-0.5"/>
<text text-anchor="middle" x="49" y="-8.5" font-family="FreeSans.ttf" font-size="10.00">ContentStatistics</text>
</a>
</g>
<!-- Node1&#45;&gt;Node2 -->
<g id="edge2" class="edge"><title>Node1&#45;&gt;Node2</title>
<path fill="none" stroke="midnightblue" d="M92.1915,-51.405C81.7834,-41.6683 69.1942,-29.8914 60.2997,-21.5707"/>
<polygon fill="midnightblue" stroke="midnightblue" points="89.9344,-54.0863 99.6282,-58.3619 94.7166,-48.9743 89.9344,-54.0863"/>
</g>
<!-- Node3 -->
<g id="node5" class="node"><title>Node3</title>
<a xlink:href="classQtStatisticsCollector.html" target="_top" xlink:title="QtStatisticsCollector">
<polygon fill="none" stroke="black" points="116,-0.5 116,-21.5 230,-21.5 230,-0.5 116,-0.5"/>
<text text-anchor="middle" x="173" y="-8.5" font-family="FreeSans.ttf" font-size="10.00">QtStatisticsCollector</text>
</a>
</g>
<!-- Node1&#45;&gt;Node3 -->
<g id="edge4" class="edge"><title>Node1&#45;&gt;Node3</title>
<path fill="none" stroke="midnightblue" d="M129.808,-51.405C140.217,-41.6683 152.806,-29.8914 161.7,-21.5707"/>
<polygon fill="midnightblue" stroke="midnightblue" points="127.283,-48.9743 122.372,-58.3619 132.066,-54.0863 127.283,-48.9743"/>
</g>
</g>
</svg>
