<?xml version="1.0" encoding="UTF-8" standalone="no"?>
<!DOCTYPE svg PUBLIC "-//W3C//DTD SVG 1.1//EN"
 "http://www.w3.org/Graphics/SVG/1.1/DTD/svg11.dtd">
<!-- Generated by graphviz version 2.26.3 (20100126.1600)
 -->
<!-- Title: G Pages: 1 -->
<!--zoomable 375 -->
<svg id="main" version="1.1" xmlns="http://www.w3.org/2000/svg" xmlns:xlink="http://www.w3.org/1999/xlink" xml:space="preserve" onload="init(evt)">
        <defs>
                <circle id="rim" cx="0" cy="0" r="7"/>
                <circle id="rim2" cx="0" cy="0" r="3.5"/>
                <g id="zoomPlus">
                        <use xlink:href="#rim" fill="#404040">
                                <set attributeName="fill" to="#808080" begin="zoomplus.mouseover" end="zoomplus.mouseout"/>
                        </use>
                        <path d="M-4,0h8M0,-4v8" fill="none" stroke="white" stroke-width="1.5" pointer-events="none"/>
                </g>
                <g id="zoomMin">
                        <use xlink:href="#rim" fill="#404040">
                                <set attributeName="fill" to="#808080" begin="zoomminus.mouseover" end="zoomminus.mouseout"/>
                        </use>
                        <path d="M-4,0h8" fill="none" stroke="white" stroke-width="1.5" pointer-events="none"/>
                </g>
                <g id="dirArrow">
                        <path fill="none" stroke="white" stroke-width="1.5" d="M0,-3.0v7 M-2.5,-0.5L0,-3.0L2.5,-0.5"/>
                </g>
               <g id="resetDef">
                       <use xlink:href="#rim2" fill="#404040">
                               <set attributeName="fill" to="#808080" begin="reset.mouseover" end="reset.mouseout"/>
                       </use>
               </g>
        </defs>

<script type="text/javascript">
var viewWidth = 2044;
var viewHeight = 375;
var sectionId = 'dynsection-1';
</script>
<script xlink:href="svgpan.js"/>
<svg id="graph" class="graph">
<g id="viewport">
<title>G</title>
<!-- Node1 -->
<g id="node1" class="node"><title>Node1</title>
<polygon fill="#bfbfbf" stroke="black" points="1538.5,-267.5 1538.5,-288.5 1631.5,-288.5 1631.5,-267.5 1538.5,-267.5"/>
<text text-anchor="middle" x="1585" y="-275.5" font-family="FreeSans.ttf" font-size="10.00">corecvs::G12Pin</text>
</g>
<!-- Node2 -->
<g id="node2" class="node"><title>Node2</title>
<a xlink:href="classcorecvs_1_1Pin.html" target="_top" xlink:title="corecvs::Pin">
<polygon fill="none" stroke="black" points="1264,-214.5 1264,-235.5 1338,-235.5 1338,-214.5 1264,-214.5"/>
<text text-anchor="middle" x="1301" y="-222.5" font-family="FreeSans.ttf" font-size="10.00">corecvs::Pin</text>
</a>
</g>
<!-- Node2&#45;&gt;Node1 -->
<g id="edge2" class="edge"><title>Node2&#45;&gt;Node1</title>
<path fill="none" stroke="midnightblue" d="M1348.24,-233.815C1401.01,-243.665 1485.93,-259.511 1538.43,-269.309"/>
<polygon fill="midnightblue" stroke="midnightblue" points="1348.6,-230.323 1338.13,-231.929 1347.32,-237.204 1348.6,-230.323"/>
</g>
<!-- Node2&#45;&gt;Node2 -->
<g id="edge4" class="edge"><title>Node2&#45;&gt;Node2</title>
<path fill="none" stroke="#9a32cd" stroke-dasharray="5,2" d="M1274.69,-245.055C1276.42,-250.164 1285.19,-254 1301,-254 1325.68,-254 1333.2,-244.653 1323.56,-235.708"/>
<polygon fill="#9a32cd" stroke="#9a32cd" points="1277.97,-246.292 1278.44,-235.708 1271.47,-243.688 1277.97,-246.292"/>
<text text-anchor="middle" x="1301" y="-258" font-family="FreeSans.ttf" font-size="10.00"> takeFrom</text>
</g>
<!-- Node15 -->
<g id="node32" class="node"><title>Node15</title>
<polygon fill="none" stroke="#bfbfbf" points="1528.5,-162.5 1528.5,-183.5 1641.5,-183.5 1641.5,-162.5 1528.5,-162.5"/>
<text text-anchor="middle" x="1585" y="-170.5" font-family="FreeSans.ttf" font-size="10.00">std::vector&lt; Pin * &gt;</text>
</g>
<!-- Node2&#45;&gt;Node15 -->
<g id="edge38" class="edge"><title>Node2&#45;&gt;Node15</title>
<path fill="none" stroke="#9a32cd" stroke-dasharray="5,2" d="M1348.08,-213.668C1367.77,-209.118 1390.93,-204.012 1412,-200 1450.67,-192.636 1494.49,-185.813 1528.35,-180.868"/>
<polygon fill="#9a32cd" stroke="#9a32cd" points="1347.07,-210.309 1338.12,-215.988 1348.66,-217.126 1347.07,-210.309"/>
<text text-anchor="middle" x="1453" y="-204" font-family="FreeSans.ttf" font-size="10.00"> elements</text>
</g>
<!-- Node3 -->
<g id="node5" class="node"><title>Node3</title>
<a xlink:href="classcorecvs_1_1FilterBlock.html" target="_top" xlink:title="corecvs::FilterBlock">
<polygon fill="none" stroke="black" points="1928.5,-162.5 1928.5,-183.5 2035.5,-183.5 2035.5,-162.5 1928.5,-162.5"/>
<text text-anchor="middle" x="1982" y="-170.5" font-family="FreeSans.ttf" font-size="10.00">corecvs::FilterBlock</text>
</a>
</g>
<!-- Node3&#45;&gt;Node2 -->
<g id="edge6" class="edge"><title>Node3&#45;&gt;Node2</title>
<path fill="none" stroke="#9a32cd" stroke-dasharray="5,2" d="M1936.18,-186.175C1912.46,-192.416 1882.9,-199.3 1856,-203 1662.55,-229.607 1427.88,-227.886 1338.24,-226.005"/>
<polygon fill="#9a32cd" stroke="#9a32cd" points="1937.21,-189.522 1945.96,-183.551 1935.4,-182.761 1937.21,-189.522"/>
<text text-anchor="middle" x="1701" y="-224" font-family="FreeSans.ttf" font-size="10.00"> parent</text>
</g>
<!-- Node4 -->
<g id="node7" class="node"><title>Node4</title>
<a xlink:href="classcorecvs_1_1FilterGraph.html" target="_top" xlink:title="corecvs::FilterGraph">
<polygon fill="none" stroke="black" points="1744.5,-84.5 1744.5,-105.5 1855.5,-105.5 1855.5,-84.5 1744.5,-84.5"/>
<text text-anchor="middle" x="1800" y="-92.5" font-family="FreeSans.ttf" font-size="10.00">corecvs::FilterGraph</text>
</a>
</g>
<!-- Node4&#45;&gt;Node3 -->
<g id="edge8" class="edge"><title>Node4&#45;&gt;Node3</title>
<path fill="none" stroke="#9a32cd" stroke-dasharray="5,2" d="M1834.09,-109.612C1869.92,-124.968 1925.42,-148.75 1957.26,-162.398"/>
<polygon fill="#9a32cd" stroke="#9a32cd" points="1835.12,-106.242 1824.55,-105.519 1832.36,-112.676 1835.12,-106.242"/>
<text text-anchor="middle" x="1892" y="-145" font-family="FreeSans.ttf" font-size="10.00"> parent</text>
</g>
<!-- Node4&#45;&gt;Node4 -->
<g id="edge34" class="edge"><title>Node4&#45;&gt;Node4</title>
<path fill="none" stroke="#9a32cd" stroke-dasharray="5,2" d="M1783.15,-115.793C1784.64,-120.529 1790.25,-124 1800,-124 1815.99,-124 1820.86,-114.653 1814.62,-105.708"/>
<polygon fill="#9a32cd" stroke="#9a32cd" points="1786.64,-116.228 1785.38,-105.708 1779.81,-114.716 1786.64,-116.228"/>
<text text-anchor="middle" x="1800" y="-128" font-family="FreeSans.ttf" font-size="10.00"> parent</text>
</g>
<!-- Node5 -->
<g id="node9" class="node"><title>Node5</title>
<a xlink:href="classcorecvs_1_1FiltersCollection.html" target="_top" xlink:title="corecvs::FiltersCollection">
<polygon fill="none" stroke="black" points="1518,-108.5 1518,-129.5 1652,-129.5 1652,-108.5 1518,-108.5"/>
<text text-anchor="middle" x="1585" y="-116.5" font-family="FreeSans.ttf" font-size="10.00">corecvs::FiltersCollection</text>
</a>
</g>
<!-- Node5&#45;&gt;Node4 -->
<g id="edge10" class="edge"><title>Node5&#45;&gt;Node4</title>
<path fill="none" stroke="#9a32cd" stroke-dasharray="5,2" d="M1630.26,-105.974C1644.74,-102.367 1660.93,-98.9186 1676,-97 1698.21,-94.1713 1722.84,-93.3108 1744.26,-93.2862"/>
<polygon fill="#9a32cd" stroke="#9a32cd" points="1629.34,-102.595 1620.53,-108.479 1631.09,-109.373 1629.34,-102.595"/>
<text text-anchor="middle" x="1701" y="-101" font-family="FreeSans.ttf" font-size="10.00"> collection</text>
</g>
<!-- Node6 -->
<g id="node11" class="node"><title>Node6</title>
<polygon fill="none" stroke="#bfbfbf" points="1208,-118.5 1208,-139.5 1394,-139.5 1394,-118.5 1208,-118.5"/>
<text text-anchor="middle" x="1301" y="-126.5" font-family="FreeSans.ttf" font-size="10.00">std::vector&lt; CompoundFilterType &gt;</text>
</g>
<!-- Node6&#45;&gt;Node5 -->
<g id="edge12" class="edge"><title>Node6&#45;&gt;Node5</title>
<path fill="none" stroke="#9a32cd" stroke-dasharray="5,2" d="M1404.4,-125.359C1442.16,-124.03 1483.85,-122.562 1517.65,-121.371"/>
<polygon fill="#9a32cd" stroke="#9a32cd" points="1404.26,-121.862 1394.39,-125.712 1404.5,-128.858 1404.26,-121.862"/>
<text text-anchor="middle" x="1453" y="-129" font-family="FreeSans.ttf" font-size="10.00"> compoundFilters</text>
</g>
<!-- Node7 -->
<g id="node13" class="node"><title>Node7</title>
<a xlink:href="classcorecvs_1_1FiltersCollection_1_1CompoundFilterType.html" target="_top" xlink:title="corecvs::FiltersCollection::CompoundFilterType">
<polygon fill="none" stroke="black" points="874,-129.5 874,-150.5 1110,-150.5 1110,-129.5 874,-129.5"/>
<text text-anchor="middle" x="992" y="-137.5" font-family="FreeSans.ttf" font-size="10.00">corecvs::FiltersCollection::CompoundFilterType</text>
</a>
</g>
<!-- Node7&#45;&gt;Node6 -->
<g id="edge14" class="edge"><title>Node7&#45;&gt;Node6</title>
<path fill="none" stroke="#9a32cd" stroke-dasharray="5,2" d="M1120.45,-135.427C1149.77,-134.383 1180.39,-133.294 1207.9,-132.314"/>
<polygon fill="#9a32cd" stroke="#9a32cd" points="1120.01,-131.941 1110.14,-135.794 1120.26,-138.936 1120.01,-131.941"/>
<text text-anchor="middle" x="1159" y="-139" font-family="FreeSans.ttf" font-size="10.00"> elements</text>
</g>
<!-- Node8 -->
<g id="node15" class="node"><title>Node8</title>
<polygon fill="none" stroke="#bfbfbf" points="594.5,-169.5 594.5,-190.5 681.5,-190.5 681.5,-169.5 594.5,-169.5"/>
<text text-anchor="middle" x="638" y="-177.5" font-family="FreeSans.ttf" font-size="10.00">std::set&lt; int &gt;</text>
</g>
<!-- Node8&#45;&gt;Node7 -->
<g id="edge16" class="edge"><title>Node8&#45;&gt;Node7</title>
<path fill="none" stroke="#9a32cd" stroke-dasharray="5,2" d="M692.106,-175.01C736.249,-170.826 800.208,-164.506 856,-158 875.399,-155.738 896.323,-153.078 915.807,-150.508"/>
<polygon fill="#9a32cd" stroke="#9a32cd" points="691.513,-171.55 681.886,-175.974 692.171,-178.519 691.513,-171.55"/>
<text text-anchor="middle" x="822" y="-183" font-family="FreeSans.ttf" font-size="10.00"> dependOnMe</text>
<text text-anchor="middle" x="822" y="-170" font-family="FreeSans.ttf" font-size="10.00">contain</text>
</g>
<!-- Node9 -->
<g id="node17" class="node"><title>Node9</title>
<a xlink:title="STL class.">
<polygon fill="none" stroke="#bfbfbf" points="605.5,-87.5 605.5,-108.5 670.5,-108.5 670.5,-87.5 605.5,-87.5"/>
<text text-anchor="middle" x="638" y="-95.5" font-family="FreeSans.ttf" font-size="10.00">std::string</text>
</a>
</g>
<!-- Node9&#45;&gt;Node7 -->
<g id="edge18" class="edge"><title>Node9&#45;&gt;Node7</title>
<path fill="none" stroke="#9a32cd" stroke-dasharray="5,2" d="M680.738,-103.071C735.599,-109.58 832.173,-121.037 903.242,-129.469"/>
<polygon fill="#9a32cd" stroke="#9a32cd" points="681.012,-99.5786 670.669,-101.876 680.187,-106.53 681.012,-99.5786"/>
<text text-anchor="middle" x="822" y="-140" font-family="FreeSans.ttf" font-size="10.00"> name</text>
<text text-anchor="middle" x="822" y="-127" font-family="FreeSans.ttf" font-size="10.00">filename</text>
</g>
<!-- Node11 -->
<g id="node21" class="node"><title>Node11</title>
<a xlink:href="classcorecvs_1_1Statistics.html" target="_top" xlink:title="corecvs::Statistics">
<polygon fill="none" stroke="black" points="1249,-48.5 1249,-69.5 1353,-69.5 1353,-48.5 1249,-48.5"/>
<text text-anchor="middle" x="1301" y="-56.5" font-family="FreeSans.ttf" font-size="10.00">corecvs::Statistics</text>
</a>
</g>
<!-- Node9&#45;&gt;Node11 -->
<g id="edge32" class="edge"><title>Node9&#45;&gt;Node11</title>
<path fill="none" stroke="#9a32cd" stroke-dasharray="5,2" d="M680.859,-97.2288C773.773,-95.3002 1000.64,-89.2036 1190,-73 1209.26,-71.3523 1230.31,-68.8705 1248.86,-66.4519"/>
<polygon fill="#9a32cd" stroke="#9a32cd" points="680.651,-93.7322 670.724,-97.4336 680.792,-100.731 680.651,-93.7322"/>
<text text-anchor="middle" x="992" y="-96" font-family="FreeSans.ttf" font-size="10.00"> prefix</text>
</g>
<!-- Node13 -->
<g id="node25" class="node"><title>Node13</title>
<polygon fill="none" stroke="#bfbfbf" points="910,-0.5 910,-21.5 1074,-21.5 1074,-0.5 910,-0.5"/>
<text text-anchor="middle" x="992" y="-8.5" font-family="FreeSans.ttf" font-size="10.00">std::map&lt; string, SingleStat &gt;</text>
</g>
<!-- Node9&#45;&gt;Node13 -->
<g id="edge30" class="edge"><title>Node9&#45;&gt;Node13</title>
<path fill="none" stroke="#9a32cd" stroke-dasharray="5,2" d="M680.362,-84.4666C727.322,-69.8182 805.494,-46.4817 874,-31 889.504,-27.4961 906.28,-24.3004 922.182,-21.5416"/>
<polygon fill="#9a32cd" stroke="#9a32cd" points="679.04,-81.2129 670.545,-87.5442 681.134,-87.8924 679.04,-81.2129"/>
<text text-anchor="middle" x="822" y="-57" font-family="FreeSans.ttf" font-size="10.00"> keys</text>
</g>
<!-- Node10 -->
<g id="node19" class="node"><title>Node10</title>
<a xlink:title="STL class.">
<polygon fill="none" stroke="#bfbfbf" points="249,-87.5 249,-108.5 387,-108.5 387,-87.5 249,-87.5"/>
<text text-anchor="middle" x="318" y="-95.5" font-family="FreeSans.ttf" font-size="10.00">std::basic_string&lt; char &gt;</text>
</a>
</g>
<!-- Node10&#45;&gt;Node9 -->
<g id="edge20" class="edge"><title>Node10&#45;&gt;Node9</title>
<path fill="none" stroke="midnightblue" d="M397.14,-98C464.092,-98 556.669,-98 605.241,-98"/>
<polygon fill="midnightblue" stroke="midnightblue" points="397.041,-94.5001 387.041,-98 397.041,-101.5 397.041,-94.5001"/>
</g>
<!-- Node11&#45;&gt;Node4 -->
<g id="edge22" class="edge"><title>Node11&#45;&gt;Node4</title>
<path fill="none" stroke="#9a32cd" stroke-dasharray="5,2" d="M1363.54,-63.5119C1461.79,-70.5999 1650.73,-84.2308 1744.46,-90.9929"/>
<polygon fill="#9a32cd" stroke="#9a32cd" points="1363.68,-60.0133 1353.46,-62.7846 1363.18,-66.9952 1363.68,-60.0133"/>
<text text-anchor="middle" x="1585" y="-89" font-family="FreeSans.ttf" font-size="10.00"> stats</text>
</g>
<!-- Node12 -->
<g id="node23" class="node"><title>Node12</title>
<a xlink:href="classcorecvs_1_1PreciseTimer.html" target="_top" xlink:title="corecvs::PreciseTimer">
<polygon fill="none" stroke="black" points="931.5,-40.5 931.5,-61.5 1052.5,-61.5 1052.5,-40.5 931.5,-40.5"/>
<text text-anchor="middle" x="992" y="-48.5" font-family="FreeSans.ttf" font-size="10.00">corecvs::PreciseTimer</text>
</a>
</g>
<!-- Node12&#45;&gt;Node11 -->
<g id="edge24" class="edge"><title>Node12&#45;&gt;Node11</title>
<path fill="none" stroke="#9a32cd" stroke-dasharray="5,2" d="M1062.99,-52.838C1119.62,-54.304 1197.64,-56.324 1248.68,-57.6455"/>
<polygon fill="#9a32cd" stroke="#9a32cd" points="1062.77,-49.3311 1052.68,-52.571 1062.59,-56.3287 1062.77,-49.3311"/>
<text text-anchor="middle" x="1159" y="-60" font-family="FreeSans.ttf" font-size="10.00"> helperTimer</text>
</g>
<!-- Node13&#45;&gt;Node11 -->
<g id="edge26" class="edge"><title>Node13&#45;&gt;Node11</title>
<path fill="none" stroke="#9a32cd" stroke-dasharray="5,2" d="M1084.23,-22.5748C1117.61,-27.0281 1155.55,-32.3968 1190,-38 1209.26,-41.1332 1230.32,-45.0032 1248.87,-48.5639"/>
<polygon fill="#9a32cd" stroke="#9a32cd" points="1084.4,-19.0668 1074.02,-21.2229 1083.48,-26.0062 1084.4,-19.0668"/>
<text text-anchor="middle" x="1159" y="-42" font-family="FreeSans.ttf" font-size="10.00"> values</text>
</g>
<!-- Node14 -->
<g id="node27" class="node"><title>Node14</title>
<a xlink:href="structcorecvs_1_1SingleStat.html" target="_top" xlink:title="corecvs::SingleStat">
<polygon fill="none" stroke="black" points="583.5,-0.5 583.5,-21.5 692.5,-21.5 692.5,-0.5 583.5,-0.5"/>
<text text-anchor="middle" x="638" y="-8.5" font-family="FreeSans.ttf" font-size="10.00">corecvs::SingleStat</text>
</a>
</g>
<!-- Node14&#45;&gt;Node13 -->
<g id="edge28" class="edge"><title>Node14&#45;&gt;Node13</title>
<path fill="none" stroke="#9a32cd" stroke-dasharray="5,2" d="M702.711,-11C760.91,-11 846.7,-11 909.748,-11"/>
<polygon fill="#9a32cd" stroke="#9a32cd" points="702.537,-7.5001 692.537,-11 702.537,-14.5001 702.537,-7.5001"/>
<text text-anchor="middle" x="822" y="-15" font-family="FreeSans.ttf" font-size="10.00"> elements</text>
</g>
<!-- Node15&#45;&gt;Node3 -->
<g id="edge42" class="edge"><title>Node15&#45;&gt;Node3</title>
<path fill="none" stroke="#9a32cd" stroke-dasharray="5,2" d="M1652.06,-173C1729.93,-173 1856.8,-173 1928.4,-173"/>
<polygon fill="#9a32cd" stroke="#9a32cd" points="1651.88,-169.5 1641.88,-173 1651.88,-176.5 1651.88,-169.5"/>
<text text-anchor="middle" x="1800" y="-190" font-family="FreeSans.ttf" font-size="10.00"> outputPins</text>
<text text-anchor="middle" x="1800" y="-177" font-family="FreeSans.ttf" font-size="10.00">inputPins</text>
</g>
<!-- Node15&#45;&gt;Node4 -->
<g id="edge36" class="edge"><title>Node15&#45;&gt;Node4</title>
<path fill="none" stroke="#9a32cd" stroke-dasharray="5,2" d="M1616.27,-158.175C1633.65,-150.207 1655.8,-140.506 1676,-133 1704.28,-122.491 1736.93,-112.573 1761.63,-105.505"/>
<polygon fill="#9a32cd" stroke="#9a32cd" points="1614.74,-155.023 1607.14,-162.399 1617.68,-161.376 1614.74,-155.023"/>
<text text-anchor="middle" x="1701" y="-150" font-family="FreeSans.ttf" font-size="10.00"> outputs</text>
<text text-anchor="middle" x="1701" y="-137" font-family="FreeSans.ttf" font-size="10.00">inputs</text>
</g>
<!-- Node16 -->
<g id="node35" class="node"><title>Node16</title>
<polygon fill="none" stroke="#bfbfbf" points="1512,-5.5 1512,-26.5 1658,-26.5 1658,-5.5 1512,-5.5"/>
<text text-anchor="middle" x="1585" y="-13.5" font-family="FreeSans.ttf" font-size="10.00">std::vector&lt; FilterBlock * &gt;</text>
</g>
<!-- Node16&#45;&gt;Node4 -->
<g id="edge40" class="edge"><title>Node16&#45;&gt;Node4</title>
<path fill="none" stroke="#9a32cd" stroke-dasharray="5,2" d="M1668.14,-20.3508C1687.67,-23.3796 1708.02,-28.249 1726,-36 1752.25,-47.3173 1777.01,-70.5067 1790.17,-84.2012"/>
<polygon fill="#9a32cd" stroke="#9a32cd" points="1668.4,-16.854 1658.01,-18.9291 1667.43,-23.786 1668.4,-16.854"/>
<text text-anchor="middle" x="1701" y="-40" font-family="FreeSans.ttf" font-size="10.00"> blocks</text>
</g>
<!-- Node17 -->
<g id="node38" class="node"><title>Node17</title>
<a xlink:href="classcorecvs_1_1G12Buffer.html" target="_top" xlink:title="TODO: Add consts where it should go.">
<polygon fill="none" stroke="black" points="1247.5,-285.5 1247.5,-306.5 1354.5,-306.5 1354.5,-285.5 1247.5,-285.5"/>
<text text-anchor="middle" x="1301" y="-293.5" font-family="FreeSans.ttf" font-size="10.00">corecvs::G12Buffer</text>
</a>
</g>
<!-- Node17&#45;&gt;Node1 -->
<g id="edge44" class="edge"><title>Node17&#45;&gt;Node1</title>
<path fill="none" stroke="#9a32cd" stroke-dasharray="5,2" d="M1364.98,-291.945C1417.54,-288.614 1490.79,-283.971 1538.06,-280.975"/>
<polygon fill="#9a32cd" stroke="#9a32cd" points="1364.51,-288.468 1354.75,-292.593 1364.95,-295.454 1364.51,-288.468"/>
<text text-anchor="middle" x="1453" y="-292" font-family="FreeSans.ttf" font-size="10.00"> inout</text>
</g>
<!-- Node18 -->
<g id="node40" class="node"><title>Node18</title>
<a xlink:href="classcorecvs_1_1AbstractContiniousBuffer.html" target="_top" xlink:title="This template class describes a buffer for which it is possible to interpolate the result between cel...">
<polygon fill="none" stroke="black" points="947.5,-285.5 947.5,-306.5 1036.5,-306.5 1036.5,-285.5 947.5,-285.5"/>
<text text-anchor="middle" x="992" y="-293.5" font-family="FreeSans.ttf" font-size="10.00">G12BufferBase</text>
</a>
</g>
<!-- Node18&#45;&gt;Node17 -->
<g id="edge46" class="edge"><title>Node18&#45;&gt;Node17</title>
<path fill="none" stroke="midnightblue" d="M1046.79,-296C1103.39,-296 1191.14,-296 1247.32,-296"/>
<polygon fill="midnightblue" stroke="midnightblue" points="1046.6,-292.5 1036.6,-296 1046.6,-299.5 1046.6,-292.5"/>
</g>
<!-- Node19 -->
<g id="node42" class="node"><title>Node19</title>
<a xlink:href="classcorecvs_1_1AbstractBuffer.html" target="_top" xlink:title="This is a common buffer template.">
<polygon fill="none" stroke="black" points="506,-285.5 506,-306.5 770,-306.5 770,-285.5 506,-285.5"/>
<text text-anchor="middle" x="638" y="-293.5" font-family="FreeSans.ttf" font-size="10.00">corecvs::AbstractBuffer&lt; ElementType, IndexType &gt;</text>
</a>
</g>
<!-- Node19&#45;&gt;Node18 -->
<g id="edge48" class="edge"><title>Node19&#45;&gt;Node18</title>
<path fill="none" stroke="midnightblue" d="M780.385,-296C840.18,-296 905.459,-296 947.469,-296"/>
<polygon fill="midnightblue" stroke="midnightblue" points="780.068,-292.5 770.068,-296 780.068,-299.5 780.068,-292.5"/>
</g>
<!-- Node20 -->
<g id="node44" class="node"><title>Node20</title>
<a xlink:href="classcorecvs_1_1AbstractBufferParams.html" target="_top" xlink:title="This is a basis part of the AbstractBuffer template &#45; serializable buffer params.">
<polygon fill="none" stroke="black" points="236,-345.5 236,-366.5 400,-366.5 400,-345.5 236,-345.5"/>
<text text-anchor="middle" x="318" y="-353.5" font-family="FreeSans.ttf" font-size="10.00">corecvs::AbstractBufferParams</text>
</a>
</g>
<!-- Node20&#45;&gt;Node19 -->
<g id="edge50" class="edge"><title>Node20&#45;&gt;Node19</title>
<path fill="none" stroke="midnightblue" d="M389.897,-343.685C420.207,-338.396 455.849,-332.051 488,-326 520.885,-319.811 557.736,-312.447 586.683,-306.563"/>
<polygon fill="midnightblue" stroke="midnightblue" points="389.087,-340.273 379.835,-345.436 390.287,-347.169 389.087,-340.273"/>
</g>
<!-- Node21 -->
<g id="node46" class="node"><title>Node21</title>
<polygon fill="none" stroke="#bfbfbf" points="279.5,-305.5 279.5,-326.5 356.5,-326.5 356.5,-305.5 279.5,-305.5"/>
<text text-anchor="middle" x="318" y="-313.5" font-family="FreeSans.ttf" font-size="10.00">ElementType</text>
</g>
<!-- Node21&#45;&gt;Node19 -->
<g id="edge52" class="edge"><title>Node21&#45;&gt;Node19</title>
<path fill="none" stroke="#9a32cd" stroke-dasharray="5,2" d="M366.608,-312.962C403.633,-310.648 456.457,-307.346 505.677,-304.27"/>
<polygon fill="#9a32cd" stroke="#9a32cd" points="366.362,-309.47 356.599,-313.588 366.798,-316.457 366.362,-309.47"/>
<text text-anchor="middle" x="453" y="-313" font-family="FreeSans.ttf" font-size="10.00"> data</text>
</g>
<!-- Node22 -->
<g id="node48" class="node"><title>Node22</title>
<a xlink:href="classcorecvs_1_1ObjectRef.html" target="_top" xlink:title="corecvs::ObjectRef\&lt; uint8_t \&gt;">
<polygon fill="none" stroke="black" points="238,-265.5 238,-286.5 398,-286.5 398,-265.5 238,-265.5"/>
<text text-anchor="middle" x="318" y="-273.5" font-family="FreeSans.ttf" font-size="10.00">corecvs::ObjectRef&lt; uint8_t &gt;</text>
</a>
</g>
<!-- Node22&#45;&gt;Node19 -->
<g id="edge54" class="edge"><title>Node22&#45;&gt;Node19</title>
<path fill="none" stroke="#9a32cd" stroke-dasharray="5,2" d="M408.439,-281.652C438.721,-283.545 473.13,-285.696 505.924,-287.745"/>
<polygon fill="#9a32cd" stroke="#9a32cd" points="408.535,-278.152 398.336,-281.021 408.099,-285.138 408.535,-278.152"/>
<text text-anchor="middle" x="453" y="-290" font-family="FreeSans.ttf" font-size="10.00"> memoryBlock</text>
</g>
<!-- Node23 -->
<g id="node50" class="node"><title>Node23</title>
<a xlink:href="classcorecvs_1_1ObjectBlock.html" target="_top" xlink:title="corecvs::ObjectBlock\&lt; uint8_t \&gt;">
<polygon fill="none" stroke="black" points="0.5,-265.5 0.5,-286.5 171.5,-286.5 171.5,-265.5 0.5,-265.5"/>
<text text-anchor="middle" x="86" y="-273.5" font-family="FreeSans.ttf" font-size="10.00">corecvs::ObjectBlock&lt; uint8_t &gt;</text>
</a>
</g>
<!-- Node23&#45;&gt;Node22 -->
<g id="edge56" class="edge"><title>Node23&#45;&gt;Node22</title>
<path fill="none" stroke="#9a32cd" stroke-dasharray="5,2" d="M181.931,-276C200.447,-276 219.666,-276 237.624,-276"/>
<polygon fill="#9a32cd" stroke="#9a32cd" points="181.729,-272.5 171.729,-276 181.729,-279.5 181.729,-272.5"/>
<text text-anchor="middle" x="204" y="-280" font-family="FreeSans.ttf" font-size="10.00"> block</text>
</g>
<!-- Node24 -->
<g id="node52" class="node"><title>Node24</title>
<polygon fill="none" stroke="#bfbfbf" points="286.5,-225.5 286.5,-246.5 349.5,-246.5 349.5,-225.5 286.5,-225.5"/>
<text text-anchor="middle" x="318" y="-233.5" font-family="FreeSans.ttf" font-size="10.00">IndexType</text>
</g>
<!-- Node24&#45;&gt;Node19 -->
<g id="edge58" class="edge"><title>Node24&#45;&gt;Node19</title>
<path fill="none" stroke="#9a32cd" stroke-dasharray="5,2" d="M359.846,-243.112C394.286,-249.031 444.359,-257.786 488,-266 520.885,-272.189 557.736,-279.553 586.683,-285.437"/>
<polygon fill="#9a32cd" stroke="#9a32cd" points="360.132,-239.61 349.684,-241.37 358.949,-246.509 360.132,-239.61"/>
<text text-anchor="middle" x="453" y="-270" font-family="FreeSans.ttf" font-size="10.00"> STRIDE_AUTO</text>
</g>
</g>
</svg>
        <g id="navigator" transform="translate(0 0)" fill="#404254">
                <rect fill="#f2f5e9" fill-opacity="0.5" stroke="#606060" stroke-width=".5" x="0" y="0" width="60" height="60"/>
                <use id="zoomplus" xlink:href="#zoomPlus" x="17" y="9" onmousedown="handleZoom(evt,'in')"/>
                <use id="zoomminus" xlink:href="#zoomMin" x="42" y="9" onmousedown="handleZoom(evt,'out')"/>
                <use id="reset" xlink:href="#resetDef" x="30" y="36" onmousedown="handleReset()"/>
                <g id="arrowUp" xlink:href="#dirArrow" transform="translate(30 24)" onmousedown="handlePan(0,-1)">
                  <use xlink:href="#rim" fill="#404040">
                        <set attributeName="fill" to="#808080" begin="arrowUp.mouseover" end="arrowUp.mouseout"/>
                  </use>
                  <path fill="none" stroke="white" stroke-width="1.5" d="M0,-3.0v7 M-2.5,-0.5L0,-3.0L2.5,-0.5"/>
                </g>
                <g id="arrowRight" xlink:href="#dirArrow" transform="rotate(90) translate(36 -43)" onmousedown="handlePan(1,0)">
                  <use xlink:href="#rim" fill="#404040">
                        <set attributeName="fill" to="#808080" begin="arrowRight.mouseover" end="arrowRight.mouseout"/>
                  </use>
                  <path fill="none" stroke="white" stroke-width="1.5" d="M0,-3.0v7 M-2.5,-0.5L0,-3.0L2.5,-0.5"/>
                </g>
                <g id="arrowDown" xlink:href="#dirArrow" transform="rotate(180) translate(-30 -48)" onmousedown="handlePan(0,1)">
                  <use xlink:href="#rim" fill="#404040">
                        <set attributeName="fill" to="#808080" begin="arrowDown.mouseover" end="arrowDown.mouseout"/>
                  </use>
                  <path fill="none" stroke="white" stroke-width="1.5" d="M0,-3.0v7 M-2.5,-0.5L0,-3.0L2.5,-0.5"/>
                </g>
                <g id="arrowLeft" xlink:href="#dirArrow" transform="rotate(270) translate(-36 17)" onmousedown="handlePan(-1,0)">
                  <use xlink:href="#rim" fill="#404040">
                        <set attributeName="fill" to="#808080" begin="arrowLeft.mouseover" end="arrowLeft.mouseout"/>
                  </use>
                  <path fill="none" stroke="white" stroke-width="1.5" d="M0,-3.0v7 M-2.5,-0.5L0,-3.0L2.5,-0.5"/>
                </g>
        </g>
</svg>
