<?xml version="1.0" encoding="UTF-8" standalone="no"?>
<!DOCTYPE svg PUBLIC "-//W3C//DTD SVG 1.1//EN"
 "http://www.w3.org/Graphics/SVG/1.1/DTD/svg11.dtd">
<!-- Generated by graphviz version 2.26.3 (20100126.1600)
 -->
<!-- Title: G Pages: 1 -->
<!--zoomable 202 -->
<svg id="main" version="1.1" xmlns="http://www.w3.org/2000/svg" xmlns:xlink="http://www.w3.org/1999/xlink" xml:space="preserve" onload="init(evt)">
        <defs>
                <circle id="rim" cx="0" cy="0" r="7"/>
                <circle id="rim2" cx="0" cy="0" r="3.5"/>
                <g id="zoomPlus">
                        <use xlink:href="#rim" fill="#404040">
                                <set attributeName="fill" to="#808080" begin="zoomplus.mouseover" end="zoomplus.mouseout"/>
                        </use>
                        <path d="M-4,0h8M0,-4v8" fill="none" stroke="white" stroke-width="1.5" pointer-events="none"/>
                </g>
                <g id="zoomMin">
                        <use xlink:href="#rim" fill="#404040">
                                <set attributeName="fill" to="#808080" begin="zoomminus.mouseover" end="zoomminus.mouseout"/>
                        </use>
                        <path d="M-4,0h8" fill="none" stroke="white" stroke-width="1.5" pointer-events="none"/>
                </g>
                <g id="dirArrow">
                        <path fill="none" stroke="white" stroke-width="1.5" d="M0,-3.0v7 M-2.5,-0.5L0,-3.0L2.5,-0.5"/>
                </g>
               <g id="resetDef">
                       <use xlink:href="#rim2" fill="#404040">
                               <set attributeName="fill" to="#808080" begin="reset.mouseover" end="reset.mouseout"/>
                       </use>
               </g>
        </defs>

<script type="text/javascript">
var viewWidth = 1274;
var viewHeight = 202;
var sectionId = 'dynsection-12';
</script>
<script xlink:href="svgpan.js"/>
<svg id="graph" class="graph">
<g id="viewport">
<title>G</title>
<!-- Node1 -->
<g id="node1" class="node"><title>Node1</title>
<polygon fill="#bfbfbf" stroke="black" points="0,-99.5 0,-120.5 194,-120.5 194,-99.5 0,-99.5"/>
<text text-anchor="middle" x="97" y="-107.5" font-family="FreeSans.ttf" font-size="10.00">corecvs::EssentialMatrix::decompose</text>
</g>
<!-- Node2 -->
<g id="node3" class="node"><title>Node2</title>
<a xlink:href="classcorecvs_1_1EssentialMatrix.html#a1d0afd7a529847524e8806c8777d2bef" target="_top" xlink:title="Calculating decomposition of essential matrix E in form .">
<polygon fill="none" stroke="black" points="230,-99.5 230,-120.5 424,-120.5 424,-99.5 230,-99.5"/>
<text text-anchor="middle" x="327" y="-107.5" font-family="FreeSans.ttf" font-size="10.00">corecvs::EssentialMatrix::decompose</text>
</a>
</g>
<!-- Node1&#45;&gt;Node2 -->
<g id="edge2" class="edge"><title>Node1&#45;&gt;Node2</title>
<path fill="none" stroke="midnightblue" d="M194.207,-110C202.575,-110 211.071,-110 219.513,-110"/>
<polygon fill="midnightblue" stroke="midnightblue" points="219.772,-113.5 229.772,-110 219.772,-106.5 219.772,-113.5"/>
</g>
<!-- Node3 -->
<g id="node5" class="node"><title>Node3</title>
<a xlink:href="classcorecvs_1_1Matrix33.html#a8596ffc77b92da2876c22900c02e9bec" target="_top" xlink:title="Geting Matrix element functions block.">
<polygon fill="none" stroke="black" points="905.5,-158.5 905.5,-179.5 1018.5,-179.5 1018.5,-158.5 905.5,-158.5"/>
<text text-anchor="middle" x="962" y="-166.5" font-family="FreeSans.ttf" font-size="10.00">corecvs::Matrix33::a</text>
</a>
</g>
<!-- Node2&#45;&gt;Node3 -->
<g id="edge4" class="edge"><title>Node2&#45;&gt;Node3</title>
<path fill="none" stroke="midnightblue" d="M359.007,-120.586C385.797,-129.214 425.131,-141.345 460,-150 621.343,-190.05 666.245,-201.676 832,-189 852.841,-187.406 875.399,-184.395 895.781,-181.184"/>
<polygon fill="midnightblue" stroke="midnightblue" points="896.594,-184.598 905.906,-179.545 895.476,-177.688 896.594,-184.598"/>
</g>
<!-- Node4 -->
<g id="node7" class="node"><title>Node4</title>
<a xlink:href="classcorecvs_1_1Matrix33.html#a3631341c46b8f2887c8a6c7e079189f4" target="_top" xlink:title="corecvs::Matrix33::Scale3">
<polygon fill="none" stroke="black" points="471.5,-39.5 471.5,-60.5 610.5,-60.5 610.5,-39.5 471.5,-39.5"/>
<text text-anchor="middle" x="541" y="-47.5" font-family="FreeSans.ttf" font-size="10.00">corecvs::Matrix33::Scale3</text>
</a>
</g>
<!-- Node2&#45;&gt;Node4 -->
<g id="edge6" class="edge"><title>Node2&#45;&gt;Node4</title>
<path fill="none" stroke="midnightblue" d="M360.483,-99.4232C387.297,-91.0755 425.929,-79.3236 460,-70 468.527,-67.6667 477.592,-65.3092 486.453,-63.0716"/>
<polygon fill="midnightblue" stroke="midnightblue" points="487.479,-66.423 496.333,-60.604 485.783,-59.6317 487.479,-66.423"/>
</g>
<!-- Node5 -->
<g id="node9" class="node"><title>Node5</title>
<a xlink:href="classcorecvs_1_1Matrix.html#a66cacd73ec0df2f145f04d963f385121" target="_top" xlink:title="corecvs::Matrix::svdDesc">
<polygon fill="none" stroke="black" points="473.5,-119.5 473.5,-140.5 608.5,-140.5 608.5,-119.5 473.5,-119.5"/>
<text text-anchor="middle" x="541" y="-127.5" font-family="FreeSans.ttf" font-size="10.00">corecvs::Matrix::svdDesc</text>
</a>
</g>
<!-- Node2&#45;&gt;Node5 -->
<g id="edge8" class="edge"><title>Node2&#45;&gt;Node5</title>
<path fill="none" stroke="midnightblue" d="M424.294,-119.093C437.362,-120.314 450.626,-121.554 463.295,-122.738"/>
<polygon fill="midnightblue" stroke="midnightblue" points="463.031,-126.228 473.313,-123.674 463.682,-119.259 463.031,-126.228"/>
</g>
<!-- Node12 -->
<g id="node24" class="node"><title>Node12</title>
<a xlink:href="classcorecvs_1_1Matrix33.html#a2a0f69195b6a28f87d39f7b4cb6711ad" target="_top" xlink:title="Returning transposed matrix.">
<polygon fill="none" stroke="black" points="460.5,-79.5 460.5,-100.5 621.5,-100.5 621.5,-79.5 460.5,-79.5"/>
<text text-anchor="middle" x="541" y="-87.5" font-family="FreeSans.ttf" font-size="10.00">corecvs::Matrix33::transposed</text>
</a>
</g>
<!-- Node2&#45;&gt;Node12 -->
<g id="edge24" class="edge"><title>Node2&#45;&gt;Node12</title>
<path fill="none" stroke="midnightblue" d="M424.294,-100.907C432.944,-100.099 441.68,-99.2823 450.272,-98.4793"/>
<polygon fill="midnightblue" stroke="midnightblue" points="450.648,-101.959 460.279,-97.5441 449.996,-94.9899 450.648,-101.959"/>
</g>
<!-- Node6 -->
<g id="node11" class="node"><title>Node6</title>
<a xlink:href="classcorecvs_1_1FixedVectorBase.html#ac481e05c5a98c6cda41137d63abe0743" target="_top" xlink:title="corecvs::FixedVectorBase::at">
<polygon fill="none" stroke="black" points="668,-118.5 668,-139.5 822,-139.5 822,-118.5 668,-118.5"/>
<text text-anchor="middle" x="745" y="-126.5" font-family="FreeSans.ttf" font-size="10.00">corecvs::FixedVectorBase::at</text>
</a>
</g>
<!-- Node5&#45;&gt;Node6 -->
<g id="edge10" class="edge"><title>Node5&#45;&gt;Node6</title>
<path fill="none" stroke="midnightblue" d="M608.646,-129.668C624.301,-129.592 641.18,-129.509 657.548,-129.429"/>
<polygon fill="midnightblue" stroke="midnightblue" points="657.675,-132.928 667.658,-129.379 657.641,-125.928 657.675,-132.928"/>
</g>
<!-- Node7 -->
<g id="node13" class="node"><title>Node7</title>
<a xlink:href="classcorecvs_1_1Matrix.html#ab00a85b071aab144f3a2860189150e7f" target="_top" xlink:title="This method contains SVD implementation.">
<polygon fill="none" stroke="black" points="689.5,-40.5 689.5,-61.5 800.5,-61.5 800.5,-40.5 689.5,-40.5"/>
<text text-anchor="middle" x="745" y="-48.5" font-family="FreeSans.ttf" font-size="10.00">corecvs::Matrix::svd</text>
</a>
</g>
<!-- Node5&#45;&gt;Node7 -->
<g id="edge12" class="edge"><title>Node5&#45;&gt;Node7</title>
<path fill="none" stroke="midnightblue" d="M590.74,-119.428C601.185,-116.734 612.048,-113.573 622,-110 655.651,-97.9197 692.386,-79.5703 716.866,-66.5462"/>
<polygon fill="midnightblue" stroke="midnightblue" points="718.784,-69.4889 725.931,-61.6682 715.467,-63.3247 718.784,-69.4889"/>
</g>
<!-- Node11 -->
<g id="node21" class="node"><title>Node11</title>
<a xlink:href="classcorecvs_1_1Matrix33.html#a1f0efa694ecb5c972ba08f66a216c2ca" target="_top" xlink:title="corecvs::Matrix33::swapColumns">
<polygon fill="none" stroke="black" points="658.5,-158.5 658.5,-179.5 831.5,-179.5 831.5,-158.5 658.5,-158.5"/>
<text text-anchor="middle" x="745" y="-166.5" font-family="FreeSans.ttf" font-size="10.00">corecvs::Matrix33::swapColumns</text>
</a>
</g>
<!-- Node5&#45;&gt;Node11 -->
<g id="edge20" class="edge"><title>Node5&#45;&gt;Node11</title>
<path fill="none" stroke="midnightblue" d="M595.937,-140.503C621.783,-145.444 652.794,-151.372 679.821,-156.539"/>
<polygon fill="midnightblue" stroke="midnightblue" points="679.486,-160.039 689.965,-158.479 680.8,-153.163 679.486,-160.039"/>
</g>
<!-- Node8 -->
<g id="node15" class="node"><title>Node8</title>
<a xlink:href="classcorecvs_1_1Matrix.html#a5b8b00c8bfc66549652e6c0610457254" target="_top" xlink:title="The element getter for a matrix that is used like vector (i.e has height or width of 1)...">
<polygon fill="none" stroke="black" points="911.5,-20.5 911.5,-41.5 1012.5,-41.5 1012.5,-20.5 911.5,-20.5"/>
<text text-anchor="middle" x="962" y="-28.5" font-family="FreeSans.ttf" font-size="10.00">corecvs::Matrix::a</text>
</a>
</g>
<!-- Node7&#45;&gt;Node8 -->
<g id="edge14" class="edge"><title>Node7&#45;&gt;Node8</title>
<path fill="none" stroke="midnightblue" d="M800.601,-45.8755C831.422,-43.0349 869.782,-39.4993 901.371,-36.5879"/>
<polygon fill="midnightblue" stroke="midnightblue" points="901.735,-40.0693 911.371,-35.6662 901.092,-33.0989 901.735,-40.0693"/>
</g>
<!-- Node10 -->
<g id="node19" class="node"><title>Node10</title>
<a xlink:href="classcorecvs_1_1Vector2d.html#ab49b551bd23cad02283d6506884bef72" target="_top" xlink:title="corecvs::Vector2d::getLengthStable">
<polygon fill="none" stroke="black" points="868,-60.5 868,-81.5 1056,-81.5 1056,-60.5 868,-60.5"/>
<text text-anchor="middle" x="962" y="-68.5" font-family="FreeSans.ttf" font-size="10.00">corecvs::Vector2d::getLengthStable</text>
</a>
</g>
<!-- Node7&#45;&gt;Node10 -->
<g id="edge18" class="edge"><title>Node7&#45;&gt;Node10</title>
<path fill="none" stroke="midnightblue" d="M800.601,-56.1245C818.111,-57.7384 838.055,-59.5765 857.808,-61.3971"/>
<polygon fill="midnightblue" stroke="midnightblue" points="857.512,-64.8845 867.791,-62.3172 858.155,-57.9141 857.512,-64.8845"/>
</g>
<!-- Node9 -->
<g id="node17" class="node"><title>Node9</title>
<a xlink:href="classcorecvs_1_1AbstractBuffer.html#a98f72526738a0c4ce8a0b72a3b5c28b9" target="_top" xlink:title="The element getter.">
<polygon fill="none" stroke="black" points="1092,-20.5 1092,-41.5 1266,-41.5 1266,-20.5 1092,-20.5"/>
<text text-anchor="middle" x="1179" y="-28.5" font-family="FreeSans.ttf" font-size="10.00">corecvs::AbstractBuffer::element</text>
</a>
</g>
<!-- Node8&#45;&gt;Node9 -->
<g id="edge16" class="edge"><title>Node8&#45;&gt;Node9</title>
<path fill="none" stroke="midnightblue" d="M1012.6,-31C1033.2,-31 1057.74,-31 1081.57,-31"/>
<polygon fill="midnightblue" stroke="midnightblue" points="1081.72,-34.5001 1091.72,-31 1081.72,-27.5001 1081.72,-34.5001"/>
</g>
<!-- Node11&#45;&gt;Node3 -->
<g id="edge22" class="edge"><title>Node11&#45;&gt;Node3</title>
<path fill="none" stroke="midnightblue" d="M831.7,-169C852.811,-169 875.07,-169 895.101,-169"/>
<polygon fill="midnightblue" stroke="midnightblue" points="895.354,-172.5 905.354,-169 895.354,-165.5 895.354,-172.5"/>
</g>
<!-- Node12&#45;&gt;Node3 -->
<g id="edge26" class="edge"><title>Node12&#45;&gt;Node3</title>
<path fill="none" stroke="midnightblue" d="M621.584,-87.4158C680.697,-87.4011 762.444,-91.3281 832,-109 869.979,-118.649 910.479,-139.166 935.994,-153.508"/>
<polygon fill="midnightblue" stroke="midnightblue" points="934.266,-156.551 944.684,-158.48 937.743,-150.476 934.266,-156.551"/>
</g>
<!-- Node13 -->
<g id="node27" class="node"><title>Node13</title>
<a xlink:href="classcorecvs_1_1Matrix33.html#a47c909b671a7ae90b386b56c8706d3a5" target="_top" xlink:title="corecvs::Matrix33::Matrix33">
<polygon fill="none" stroke="black" points="671,-0.5 671,-21.5 819,-21.5 819,-0.5 671,-0.5"/>
<text text-anchor="middle" x="745" y="-8.5" font-family="FreeSans.ttf" font-size="10.00">corecvs::Matrix33::Matrix33</text>
</a>
</g>
<!-- Node12&#45;&gt;Node13 -->
<g id="edge28" class="edge"><title>Node12&#45;&gt;Node13</title>
<path fill="none" stroke="midnightblue" d="M600.978,-79.4403C608.323,-76.9323 615.515,-73.8319 622,-70 642.308,-57.9992 637.596,-42.8368 658,-31 661.695,-28.8565 665.603,-26.9427 669.635,-25.2341"/>
<polygon fill="midnightblue" stroke="midnightblue" points="671.11,-28.4181 679.226,-21.6078 668.635,-21.8704 671.11,-28.4181"/>
</g>
</g>
</svg>
        <g id="navigator" transform="translate(0 0)" fill="#404254">
                <rect fill="#f2f5e9" fill-opacity="0.5" stroke="#606060" stroke-width=".5" x="0" y="0" width="60" height="60"/>
                <use id="zoomplus" xlink:href="#zoomPlus" x="17" y="9" onmousedown="handleZoom(evt,'in')"/>
                <use id="zoomminus" xlink:href="#zoomMin" x="42" y="9" onmousedown="handleZoom(evt,'out')"/>
                <use id="reset" xlink:href="#resetDef" x="30" y="36" onmousedown="handleReset()"/>
                <g id="arrowUp" xlink:href="#dirArrow" transform="translate(30 24)" onmousedown="handlePan(0,-1)">
                  <use xlink:href="#rim" fill="#404040">
                        <set attributeName="fill" to="#808080" begin="arrowUp.mouseover" end="arrowUp.mouseout"/>
                  </use>
                  <path fill="none" stroke="white" stroke-width="1.5" d="M0,-3.0v7 M-2.5,-0.5L0,-3.0L2.5,-0.5"/>
                </g>
                <g id="arrowRight" xlink:href="#dirArrow" transform="rotate(90) translate(36 -43)" onmousedown="handlePan(1,0)">
                  <use xlink:href="#rim" fill="#404040">
                        <set attributeName="fill" to="#808080" begin="arrowRight.mouseover" end="arrowRight.mouseout"/>
                  </use>
                  <path fill="none" stroke="white" stroke-width="1.5" d="M0,-3.0v7 M-2.5,-0.5L0,-3.0L2.5,-0.5"/>
                </g>
                <g id="arrowDown" xlink:href="#dirArrow" transform="rotate(180) translate(-30 -48)" onmousedown="handlePan(0,1)">
                  <use xlink:href="#rim" fill="#404040">
                        <set attributeName="fill" to="#808080" begin="arrowDown.mouseover" end="arrowDown.mouseout"/>
                  </use>
                  <path fill="none" stroke="white" stroke-width="1.5" d="M0,-3.0v7 M-2.5,-0.5L0,-3.0L2.5,-0.5"/>
                </g>
                <g id="arrowLeft" xlink:href="#dirArrow" transform="rotate(270) translate(-36 17)" onmousedown="handlePan(-1,0)">
                  <use xlink:href="#rim" fill="#404040">
                        <set attributeName="fill" to="#808080" begin="arrowLeft.mouseover" end="arrowLeft.mouseout"/>
                  </use>
                  <path fill="none" stroke="white" stroke-width="1.5" d="M0,-3.0v7 M-2.5,-0.5L0,-3.0L2.5,-0.5"/>
                </g>
        </g>
</svg>
