<?xml version="1.0" encoding="UTF-8" standalone="no"?>
<!DOCTYPE svg PUBLIC "-//W3C//DTD SVG 1.1//EN"
 "http://www.w3.org/Graphics/SVG/1.1/DTD/svg11.dtd">
<!-- Generated by graphviz version 2.26.3 (20100126.1600)
 -->
<!-- Title: G Pages: 1 -->
<!--zoomable 294 -->
<svg id="main" version="1.1" xmlns="http://www.w3.org/2000/svg" xmlns:xlink="http://www.w3.org/1999/xlink" xml:space="preserve" onload="init(evt)">
        <defs>
                <circle id="rim" cx="0" cy="0" r="7"/>
                <circle id="rim2" cx="0" cy="0" r="3.5"/>
                <g id="zoomPlus">
                        <use xlink:href="#rim" fill="#404040">
                                <set attributeName="fill" to="#808080" begin="zoomplus.mouseover" end="zoomplus.mouseout"/>
                        </use>
                        <path d="M-4,0h8M0,-4v8" fill="none" stroke="white" stroke-width="1.5" pointer-events="none"/>
                </g>
                <g id="zoomMin">
                        <use xlink:href="#rim" fill="#404040">
                                <set attributeName="fill" to="#808080" begin="zoomminus.mouseover" end="zoomminus.mouseout"/>
                        </use>
                        <path d="M-4,0h8" fill="none" stroke="white" stroke-width="1.5" pointer-events="none"/>
                </g>
                <g id="dirArrow">
                        <path fill="none" stroke="white" stroke-width="1.5" d="M0,-3.0v7 M-2.5,-0.5L0,-3.0L2.5,-0.5"/>
                </g>
               <g id="resetDef">
                       <use xlink:href="#rim2" fill="#404040">
                               <set attributeName="fill" to="#808080" begin="reset.mouseover" end="reset.mouseout"/>
                       </use>
               </g>
        </defs>

<script type="text/javascript">
var viewWidth = 503;
var viewHeight = 294;
var sectionId = 'dynsection-1';
</script>
<script xlink:href="svgpan.js"/>
<svg id="graph" class="graph">
<g id="viewport">
<title>G</title>
<!-- Node1 -->
<g id="node1" class="node"><title>Node1</title>
<polygon fill="#bfbfbf" stroke="black" points="230,-0.5 230,-21.5 344,-21.5 344,-0.5 230,-0.5"/>
<text text-anchor="middle" x="287" y="-8.5" font-family="FreeSans.ttf" font-size="10.00">QtStatisticsCollector</text>
</g>
<!-- Node2 -->
<g id="node2" class="node"><title>Node2</title>
<a xlink:href="classcorecvs_1_1BaseTimeStatisticsCollector.html" target="_top" xlink:title="corecvs::BaseTimeStatisticsCollector">
<polygon fill="none" stroke="black" points="190.5,-60.5 190.5,-81.5 383.5,-81.5 383.5,-60.5 190.5,-60.5"/>
<text text-anchor="middle" x="287" y="-68.5" font-family="FreeSans.ttf" font-size="10.00">corecvs::BaseTimeStatisticsCollector</text>
</a>
</g>
<!-- Node2&#45;&gt;Node1 -->
<g id="edge2" class="edge"><title>Node2&#45;&gt;Node1</title>
<path fill="none" stroke="midnightblue" d="M287,-50.2312C287,-40.5922 287,-29.5444 287,-21.6339"/>
<polygon fill="midnightblue" stroke="midnightblue" points="283.5,-50.2732 287,-60.2732 290.5,-50.2732 283.5,-50.2732"/>
</g>
<!-- Node3 -->
<g id="node4" class="node"><title>Node3</title>
<polygon fill="none" stroke="#bfbfbf" points="90.5,-132.5 90.5,-153.5 257.5,-153.5 257.5,-132.5 90.5,-132.5"/>
<text text-anchor="middle" x="174" y="-140.5" font-family="FreeSans.ttf" font-size="10.00">std::map&lt; string, UnitedStat &gt;</text>
</g>
<!-- Node3&#45;&gt;Node2 -->
<g id="edge4" class="edge"><title>Node3&#45;&gt;Node2</title>
<path fill="none" stroke="#9a32cd" stroke-dasharray="5,2" d="M199.35,-126.848C221.003,-113.051 251.535,-93.597 270.258,-81.6674"/>
<polygon fill="#9a32cd" stroke="#9a32cd" points="197.226,-124.051 190.674,-132.376 200.988,-129.954 197.226,-124.051"/>
<text text-anchor="middle" x="269" y="-104.5" font-family="FreeSans.ttf" font-size="10.00"> sumValues</text>
</g>
<!-- Node4 -->
<g id="node6" class="node"><title>Node4</title>
<a xlink:title="STL class.">
<polygon fill="none" stroke="#bfbfbf" points="36.5,-204.5 36.5,-225.5 101.5,-225.5 101.5,-204.5 36.5,-204.5"/>
<text text-anchor="middle" x="69" y="-212.5" font-family="FreeSans.ttf" font-size="10.00">std::string</text>
</a>
</g>
<!-- Node4&#45;&gt;Node3 -->
<g id="edge6" class="edge"><title>Node4&#45;&gt;Node3</title>
<path fill="none" stroke="#9a32cd" stroke-dasharray="5,2" d="M92.8248,-198.663C112.928,-184.878 141.124,-165.544 158.443,-153.667"/>
<polygon fill="#9a32cd" stroke="#9a32cd" points="90.7611,-195.834 84.4931,-204.376 94.7198,-201.607 90.7611,-195.834"/>
<text text-anchor="middle" x="143.5" y="-176.5" font-family="FreeSans.ttf" font-size="10.00"> keys</text>
</g>
<!-- Node5 -->
<g id="node8" class="node"><title>Node5</title>
<a xlink:title="STL class.">
<polygon fill="none" stroke="#bfbfbf" points="0,-264.5 0,-285.5 138,-285.5 138,-264.5 0,-264.5"/>
<text text-anchor="middle" x="69" y="-272.5" font-family="FreeSans.ttf" font-size="10.00">std::basic_string&lt; char &gt;</text>
</a>
</g>
<!-- Node5&#45;&gt;Node4 -->
<g id="edge8" class="edge"><title>Node5&#45;&gt;Node4</title>
<path fill="none" stroke="midnightblue" d="M69,-254.231C69,-244.592 69,-233.544 69,-225.634"/>
<polygon fill="midnightblue" stroke="midnightblue" points="65.5001,-254.273 69,-264.273 72.5001,-254.273 65.5001,-254.273"/>
</g>
<!-- Node6 -->
<g id="node10" class="node"><title>Node6</title>
<a xlink:href="structcorecvs_1_1UnitedStat.html" target="_top" xlink:title="corecvs::UnitedStat">
<polygon fill="none" stroke="black" points="118.5,-204.5 118.5,-225.5 229.5,-225.5 229.5,-204.5 118.5,-204.5"/>
<text text-anchor="middle" x="174" y="-212.5" font-family="FreeSans.ttf" font-size="10.00">corecvs::UnitedStat</text>
</a>
</g>
<!-- Node6&#45;&gt;Node3 -->
<g id="edge10" class="edge"><title>Node6&#45;&gt;Node3</title>
<path fill="none" stroke="#9a32cd" stroke-dasharray="5,2" d="M174,-194.235C174,-180.969 174,-164.319 174,-153.667"/>
<polygon fill="#9a32cd" stroke="#9a32cd" points="170.5,-194.376 174,-204.376 177.5,-194.376 170.5,-194.376"/>
<text text-anchor="middle" x="198.5" y="-176.5" font-family="FreeSans.ttf" font-size="10.00"> elements</text>
</g>
<!-- Node7 -->
<g id="node12" class="node"><title>Node7</title>
<polygon fill="none" stroke="#bfbfbf" points="286,-132.5 286,-153.5 434,-153.5 434,-132.5 286,-132.5"/>
<text text-anchor="middle" x="360" y="-140.5" font-family="FreeSans.ttf" font-size="10.00">std::vector&lt; OrderFilter * &gt;</text>
</g>
<!-- Node7&#45;&gt;Node2 -->
<g id="edge12" class="edge"><title>Node7&#45;&gt;Node2</title>
<path fill="none" stroke="#9a32cd" stroke-dasharray="5,2" d="M342.104,-125.349C328.236,-111.671 309.479,-93.1709 297.816,-81.6674"/>
<polygon fill="#9a32cd" stroke="#9a32cd" points="339.651,-127.846 349.229,-132.376 344.567,-122.862 339.651,-127.846"/>
<text text-anchor="middle" x="364" y="-104.5" font-family="FreeSans.ttf" font-size="10.00"> mOrderFilters</text>
</g>
<!-- Node8 -->
<g id="node14" class="node"><title>Node8</title>
<a xlink:href="classcorecvs_1_1BaseTimeStatisticsCollector_1_1OrderFilter.html" target="_top" xlink:title="corecvs::BaseTimeStatisticsCollector::OrderFilter">
<polygon fill="none" stroke="black" points="247,-204.5 247,-225.5 495,-225.5 495,-204.5 247,-204.5"/>
<text text-anchor="middle" x="371" y="-212.5" font-family="FreeSans.ttf" font-size="10.00">corecvs::BaseTimeStatisticsCollector::OrderFilter</text>
</a>
</g>
<!-- Node8&#45;&gt;Node7 -->
<g id="edge14" class="edge"><title>Node8&#45;&gt;Node7</title>
<path fill="none" stroke="#9a32cd" stroke-dasharray="5,2" d="M367.828,-194.235C365.801,-180.969 363.257,-164.319 361.63,-153.667"/>
<polygon fill="#9a32cd" stroke="#9a32cd" points="364.407,-195.019 369.377,-204.376 371.326,-193.962 364.407,-195.019"/>
<text text-anchor="middle" x="390.5" y="-176.5" font-family="FreeSans.ttf" font-size="10.00"> elements</text>
</g>
</g>
</svg>
        <g id="navigator" transform="translate(0 0)" fill="#404254">
                <rect fill="#f2f5e9" fill-opacity="0.5" stroke="#606060" stroke-width=".5" x="0" y="0" width="60" height="60"/>
                <use id="zoomplus" xlink:href="#zoomPlus" x="17" y="9" onmousedown="handleZoom(evt,'in')"/>
                <use id="zoomminus" xlink:href="#zoomMin" x="42" y="9" onmousedown="handleZoom(evt,'out')"/>
                <use id="reset" xlink:href="#resetDef" x="30" y="36" onmousedown="handleReset()"/>
                <g id="arrowUp" xlink:href="#dirArrow" transform="translate(30 24)" onmousedown="handlePan(0,-1)">
                  <use xlink:href="#rim" fill="#404040">
                        <set attributeName="fill" to="#808080" begin="arrowUp.mouseover" end="arrowUp.mouseout"/>
                  </use>
                  <path fill="none" stroke="white" stroke-width="1.5" d="M0,-3.0v7 M-2.5,-0.5L0,-3.0L2.5,-0.5"/>
                </g>
                <g id="arrowRight" xlink:href="#dirArrow" transform="rotate(90) translate(36 -43)" onmousedown="handlePan(1,0)">
                  <use xlink:href="#rim" fill="#404040">
                        <set attributeName="fill" to="#808080" begin="arrowRight.mouseover" end="arrowRight.mouseout"/>
                  </use>
                  <path fill="none" stroke="white" stroke-width="1.5" d="M0,-3.0v7 M-2.5,-0.5L0,-3.0L2.5,-0.5"/>
                </g>
                <g id="arrowDown" xlink:href="#dirArrow" transform="rotate(180) translate(-30 -48)" onmousedown="handlePan(0,1)">
                  <use xlink:href="#rim" fill="#404040">
                        <set attributeName="fill" to="#808080" begin="arrowDown.mouseover" end="arrowDown.mouseout"/>
                  </use>
                  <path fill="none" stroke="white" stroke-width="1.5" d="M0,-3.0v7 M-2.5,-0.5L0,-3.0L2.5,-0.5"/>
                </g>
                <g id="arrowLeft" xlink:href="#dirArrow" transform="rotate(270) translate(-36 17)" onmousedown="handlePan(-1,0)">
                  <use xlink:href="#rim" fill="#404040">
                        <set attributeName="fill" to="#808080" begin="arrowLeft.mouseover" end="arrowLeft.mouseout"/>
                  </use>
                  <path fill="none" stroke="white" stroke-width="1.5" d="M0,-3.0v7 M-2.5,-0.5L0,-3.0L2.5,-0.5"/>
                </g>
        </g>
</svg>
