<?xml version="1.0" encoding="UTF-8" standalone="no"?>
<!DOCTYPE svg PUBLIC "-//W3C//DTD SVG 1.1//EN"
 "http://www.w3.org/Graphics/SVG/1.1/DTD/svg11.dtd">
<!-- Generated by graphviz version 2.26.3 (20100126.1600)
 -->
<!-- Title: G Pages: 1 -->
<!--zoomable 84 -->
<svg id="main" version="1.1" xmlns="http://www.w3.org/2000/svg" xmlns:xlink="http://www.w3.org/1999/xlink" xml:space="preserve" onload="init(evt)">
        <defs>
                <circle id="rim" cx="0" cy="0" r="7"/>
                <circle id="rim2" cx="0" cy="0" r="3.5"/>
                <g id="zoomPlus">
                        <use xlink:href="#rim" fill="#404040">
                                <set attributeName="fill" to="#808080" begin="zoomplus.mouseover" end="zoomplus.mouseout"/>
                        </use>
                        <path d="M-4,0h8M0,-4v8" fill="none" stroke="white" stroke-width="1.5" pointer-events="none"/>
                </g>
                <g id="zoomMin">
                        <use xlink:href="#rim" fill="#404040">
                                <set attributeName="fill" to="#808080" begin="zoomminus.mouseover" end="zoomminus.mouseout"/>
                        </use>
                        <path d="M-4,0h8" fill="none" stroke="white" stroke-width="1.5" pointer-events="none"/>
                </g>
                <g id="dirArrow">
                        <path fill="none" stroke="white" stroke-width="1.5" d="M0,-3.0v7 M-2.5,-0.5L0,-3.0L2.5,-0.5"/>
                </g>
               <g id="resetDef">
                       <use xlink:href="#rim2" fill="#404040">
                               <set attributeName="fill" to="#808080" begin="reset.mouseover" end="reset.mouseout"/>
                       </use>
               </g>
        </defs>

<script type="text/javascript">
var viewWidth = 778;
var viewHeight = 84;
var sectionId = 'dynsection-24';
</script>
<script xlink:href="svgpan.js"/>
<svg id="graph" class="graph">
<g id="viewport">
<title>G</title>
<!-- Node1 -->
<g id="node1" class="node"><title>Node1</title>
<polygon fill="#bfbfbf" stroke="black" points="0.5,-40.5 0.5,-61.5 187.5,-61.5 187.5,-40.5 0.5,-40.5"/>
<text text-anchor="middle" x="94" y="-48.5" font-family="FreeSans.ttf" font-size="10.00">tinyxml2::XMLPrinter::PushUnknown</text>
</g>
<!-- Node2 -->
<g id="node3" class="node"><title>Node2</title>
<a xlink:href="classtinyxml2_1_1XMLPrinter.html#ab30210a7f32e45634e7a45137bf6fdf6" target="_top" xlink:title="tinyxml2::XMLPrinter::Print">
<polygon fill="none" stroke="black" points="442,-40.5 442,-61.5 584,-61.5 584,-40.5 442,-40.5"/>
<text text-anchor="middle" x="513" y="-48.5" font-family="FreeSans.ttf" font-size="10.00">tinyxml2::XMLPrinter::Print</text>
</a>
</g>
<!-- Node1&#45;&gt;Node2 -->
<g id="edge2" class="edge"><title>Node1&#45;&gt;Node2</title>
<path fill="none" stroke="midnightblue" d="M150.094,-61.5455C172.93,-65.3373 199.638,-69.1369 224,-71 304.653,-77.1678 325.456,-78.4628 406,-71 422.674,-69.4551 440.625,-66.5835 456.97,-63.4888"/>
<polygon fill="midnightblue" stroke="midnightblue" points="457.773,-66.8982 466.915,-61.5429 456.429,-60.0285 457.773,-66.8982"/>
</g>
<!-- Node4 -->
<g id="node7" class="node"><title>Node4</title>
<a xlink:href="classtinyxml2_1_1XMLPrinter.html#a1c4b2ccbe4fdb316d54f5a93f3559260" target="_top" xlink:title="tinyxml2::XMLPrinter::PrintSpace">
<polygon fill="none" stroke="black" points="229,-40.5 229,-61.5 401,-61.5 401,-40.5 229,-40.5"/>
<text text-anchor="middle" x="315" y="-48.5" font-family="FreeSans.ttf" font-size="10.00">tinyxml2::XMLPrinter::PrintSpace</text>
</a>
</g>
<!-- Node1&#45;&gt;Node4 -->
<g id="edge6" class="edge"><title>Node1&#45;&gt;Node4</title>
<path fill="none" stroke="midnightblue" d="M187.724,-51C197.959,-51 208.39,-51 218.656,-51"/>
<polygon fill="midnightblue" stroke="midnightblue" points="218.854,-54.5001 228.854,-51 218.854,-47.5001 218.854,-54.5001"/>
</g>
<!-- Node5 -->
<g id="node10" class="node"><title>Node5</title>
<a xlink:href="classtinyxml2_1_1XMLPrinter.html#a70ac2010150c8551773ffb2f96fef353" target="_top" xlink:title="tinyxml2::XMLPrinter::SealElement">
<polygon fill="none" stroke="black" points="224.5,-0.5 224.5,-21.5 405.5,-21.5 405.5,-0.5 224.5,-0.5"/>
<text text-anchor="middle" x="315" y="-8.5" font-family="FreeSans.ttf" font-size="10.00">tinyxml2::XMLPrinter::SealElement</text>
</a>
</g>
<!-- Node1&#45;&gt;Node5 -->
<g id="edge10" class="edge"><title>Node1&#45;&gt;Node5</title>
<path fill="none" stroke="midnightblue" d="M152.065,-40.4905C181.135,-35.229 216.507,-28.8268 246.856,-23.3338"/>
<polygon fill="midnightblue" stroke="midnightblue" points="247.723,-26.7339 256.939,-21.5087 246.476,-19.8458 247.723,-26.7339"/>
</g>
<!-- Node3 -->
<g id="node5" class="node"><title>Node3</title>
<a xlink:href="classtinyxml2_1_1DynArray.html#aa3c360d40addc3b05121da9f60a01b4d" target="_top" xlink:title="tinyxml2::DynArray::PushArr">
<polygon fill="none" stroke="black" points="620,-40.5 620,-61.5 770,-61.5 770,-40.5 620,-40.5"/>
<text text-anchor="middle" x="695" y="-48.5" font-family="FreeSans.ttf" font-size="10.00">tinyxml2::DynArray::PushArr</text>
</a>
</g>
<!-- Node2&#45;&gt;Node3 -->
<g id="edge4" class="edge"><title>Node2&#45;&gt;Node3</title>
<path fill="none" stroke="midnightblue" d="M584.148,-51C592.604,-51 601.3,-51 609.924,-51"/>
<polygon fill="midnightblue" stroke="midnightblue" points="609.998,-54.5001 619.998,-51 609.998,-47.5001 609.998,-54.5001"/>
</g>
<!-- Node4&#45;&gt;Node2 -->
<g id="edge8" class="edge"><title>Node4&#45;&gt;Node2</title>
<path fill="none" stroke="midnightblue" d="M401.27,-51C411.325,-51 421.558,-51 431.545,-51"/>
<polygon fill="midnightblue" stroke="midnightblue" points="431.845,-54.5001 441.845,-51 431.845,-47.5001 431.845,-54.5001"/>
</g>
<!-- Node5&#45;&gt;Node2 -->
<g id="edge12" class="edge"><title>Node5&#45;&gt;Node2</title>
<path fill="none" stroke="midnightblue" d="M367.022,-21.5095C392.727,-26.7023 423.931,-33.0064 450.882,-38.4508"/>
<polygon fill="midnightblue" stroke="midnightblue" points="450.487,-41.9417 460.982,-40.4913 451.873,-35.0803 450.487,-41.9417"/>
</g>
</g>
</svg>
        <g id="navigator" transform="translate(0 0)" fill="#404254">
                <rect fill="#f2f5e9" fill-opacity="0.5" stroke="#606060" stroke-width=".5" x="0" y="0" width="60" height="60"/>
                <use id="zoomplus" xlink:href="#zoomPlus" x="17" y="9" onmousedown="handleZoom(evt,'in')"/>
                <use id="zoomminus" xlink:href="#zoomMin" x="42" y="9" onmousedown="handleZoom(evt,'out')"/>
                <use id="reset" xlink:href="#resetDef" x="30" y="36" onmousedown="handleReset()"/>
                <g id="arrowUp" xlink:href="#dirArrow" transform="translate(30 24)" onmousedown="handlePan(0,-1)">
                  <use xlink:href="#rim" fill="#404040">
                        <set attributeName="fill" to="#808080" begin="arrowUp.mouseover" end="arrowUp.mouseout"/>
                  </use>
                  <path fill="none" stroke="white" stroke-width="1.5" d="M0,-3.0v7 M-2.5,-0.5L0,-3.0L2.5,-0.5"/>
                </g>
                <g id="arrowRight" xlink:href="#dirArrow" transform="rotate(90) translate(36 -43)" onmousedown="handlePan(1,0)">
                  <use xlink:href="#rim" fill="#404040">
                        <set attributeName="fill" to="#808080" begin="arrowRight.mouseover" end="arrowRight.mouseout"/>
                  </use>
                  <path fill="none" stroke="white" stroke-width="1.5" d="M0,-3.0v7 M-2.5,-0.5L0,-3.0L2.5,-0.5"/>
                </g>
                <g id="arrowDown" xlink:href="#dirArrow" transform="rotate(180) translate(-30 -48)" onmousedown="handlePan(0,1)">
                  <use xlink:href="#rim" fill="#404040">
                        <set attributeName="fill" to="#808080" begin="arrowDown.mouseover" end="arrowDown.mouseout"/>
                  </use>
                  <path fill="none" stroke="white" stroke-width="1.5" d="M0,-3.0v7 M-2.5,-0.5L0,-3.0L2.5,-0.5"/>
                </g>
                <g id="arrowLeft" xlink:href="#dirArrow" transform="rotate(270) translate(-36 17)" onmousedown="handlePan(-1,0)">
                  <use xlink:href="#rim" fill="#404040">
                        <set attributeName="fill" to="#808080" begin="arrowLeft.mouseover" end="arrowLeft.mouseout"/>
                  </use>
                  <path fill="none" stroke="white" stroke-width="1.5" d="M0,-3.0v7 M-2.5,-0.5L0,-3.0L2.5,-0.5"/>
                </g>
        </g>
</svg>
