<?xml version="1.0" encoding="UTF-8" standalone="no"?>
<!DOCTYPE svg PUBLIC "-//W3C//DTD SVG 1.1//EN"
 "http://www.w3.org/Graphics/SVG/1.1/DTD/svg11.dtd">
<!-- Generated by graphviz version 2.26.3 (20100126.1600)
 -->
<!-- Title: G Pages: 1 -->
<svg width="312pt" height="70pt"
 viewBox="0.00 0.00 312.00 70.00" xmlns="http://www.w3.org/2000/svg" xmlns:xlink="http://www.w3.org/1999/xlink">
<g id="graph1" class="graph" transform="scale(1 1) rotate(0) translate(4 66)">
<title>G</title>
<!-- Node1 -->
<g id="node1" class="node"><title>Node1</title>
<polygon fill="#bfbfbf" stroke="black" points="0,-20.5 0,-41.5 142,-41.5 142,-20.5 0,-20.5"/>
<text text-anchor="middle" x="71" y="-28.5" font-family="FreeSans.ttf" font-size="10.00">StdStreamLogDrain::drain</text>
</g>
<!-- Node2 -->
<g id="node3" class="node"><title>Node2</title>
<a xlink:href="classcorecvs_1_1ObjectRef.html#aaefe662e9fd5a69e237b03abf15bb796" target="_top" xlink:title="corecvs::ObjectRef::get">
<polygon fill="none" stroke="black" points="178,-40.5 178,-61.5 304,-61.5 304,-40.5 178,-40.5"/>
<text text-anchor="middle" x="241" y="-48.5" font-family="FreeSans.ttf" font-size="10.00">corecvs::ObjectRef::get</text>
</a>
</g>
<!-- Node1&#45;&gt;Node2 -->
<g id="edge2" class="edge"><title>Node1&#45;&gt;Node2</title>
<path fill="none" stroke="midnightblue" d="M142.11,-39.3659C150.519,-40.3552 159.115,-41.3664 167.555,-42.3594"/>
<polygon fill="midnightblue" stroke="midnightblue" points="167.411,-45.8665 177.751,-43.559 168.229,-38.9144 167.411,-45.8665"/>
</g>
<!-- Node3 -->
<g id="node5" class="node"><title>Node3</title>
<a xlink:href="classLogDrain.html#af0015968a5c997ea110edfced3554846" target="_top" xlink:title="LogDrain::time2str">
<polygon fill="none" stroke="black" points="188,-0.5 188,-21.5 294,-21.5 294,-0.5 188,-0.5"/>
<text text-anchor="middle" x="241" y="-8.5" font-family="FreeSans.ttf" font-size="10.00">LogDrain::time2str</text>
</a>
</g>
<!-- Node1&#45;&gt;Node3 -->
<g id="edge4" class="edge"><title>Node1&#45;&gt;Node3</title>
<path fill="none" stroke="midnightblue" d="M142.11,-22.6341C153.933,-21.2432 166.124,-19.809 177.734,-18.443"/>
<polygon fill="midnightblue" stroke="midnightblue" points="178.242,-21.9075 187.765,-17.263 177.424,-14.9554 178.242,-21.9075"/>
</g>
</g>
</svg>
