<?xml version="1.0" encoding="UTF-8" standalone="no"?>
<!DOCTYPE svg PUBLIC "-//W3C//DTD SVG 1.1//EN"
 "http://www.w3.org/Graphics/SVG/1.1/DTD/svg11.dtd">
<!-- Generated by graphviz version 2.26.3 (20100126.1600)
 -->
<!-- Title: G Pages: 1 -->
<svg width="310pt" height="150pt"
 viewBox="0.00 0.00 310.00 150.00" xmlns="http://www.w3.org/2000/svg" xmlns:xlink="http://www.w3.org/1999/xlink">
<g id="graph1" class="graph" transform="scale(1 1) rotate(0) translate(4 146)">
<title>G</title>
<!-- Node1 -->
<g id="node1" class="node"><title>Node1</title>
<polygon fill="#bfbfbf" stroke="black" points="0,-60.5 0,-81.5 146,-81.5 146,-60.5 0,-60.5"/>
<text text-anchor="middle" x="73" y="-68.5" font-family="FreeSans.ttf" font-size="10.00">FilterFabric::getFilterNames</text>
</g>
<!-- Node2 -->
<g id="node3" class="node"><title>Node2</title>
<a xlink:href="classSobelFilter.html#a860776a351bdf8d96ac5c5c7bf53dc6c" target="_top" xlink:title="SobelFilter::getName">
<polygon fill="none" stroke="black" points="183.5,-120.5 183.5,-141.5 300.5,-141.5 300.5,-120.5 183.5,-120.5"/>
<text text-anchor="middle" x="242" y="-128.5" font-family="FreeSans.ttf" font-size="10.00">SobelFilter::getName</text>
</a>
</g>
<!-- Node1&#45;&gt;Node2 -->
<g id="edge2" class="edge"><title>Node1&#45;&gt;Node2</title>
<path fill="none" stroke="midnightblue" d="M101.147,-81.5923C123.108,-89.7927 154.413,-101.343 182,-111 187.917,-113.071 194.179,-115.213 200.338,-117.292"/>
<polygon fill="midnightblue" stroke="midnightblue" points="199.273,-120.626 209.867,-120.486 201.498,-113.989 199.273,-120.626"/>
</g>
<!-- Node3 -->
<g id="node5" class="node"><title>Node3</title>
<a xlink:href="classScaleFilter.html#a6051de6f0eda797f394cf9fade58c3de" target="_top" xlink:title="ScaleFilter::getName">
<polygon fill="none" stroke="black" points="184,-80.5 184,-101.5 300,-101.5 300,-80.5 184,-80.5"/>
<text text-anchor="middle" x="242" y="-88.5" font-family="FreeSans.ttf" font-size="10.00">ScaleFilter::getName</text>
</a>
</g>
<!-- Node1&#45;&gt;Node3 -->
<g id="edge4" class="edge"><title>Node1&#45;&gt;Node3</title>
<path fill="none" stroke="midnightblue" d="M146.143,-79.656C155.282,-80.7375 164.601,-81.8404 173.663,-82.9128"/>
<polygon fill="midnightblue" stroke="midnightblue" points="173.419,-86.4083 183.761,-84.1078 174.242,-79.4568 173.419,-86.4083"/>
</g>
<!-- Node4 -->
<g id="node7" class="node"><title>Node4</title>
<a xlink:href="classBitSelector.html#ad2c8fd1f7a183786ff3b2277d25e6f2c" target="_top" xlink:title="BitSelector::getName">
<polygon fill="none" stroke="black" points="182,-40.5 182,-61.5 302,-61.5 302,-40.5 182,-40.5"/>
<text text-anchor="middle" x="242" y="-48.5" font-family="FreeSans.ttf" font-size="10.00">BitSelector::getName</text>
</a>
</g>
<!-- Node1&#45;&gt;Node4 -->
<g id="edge6" class="edge"><title>Node1&#45;&gt;Node4</title>
<path fill="none" stroke="midnightblue" d="M146.143,-62.344C154.641,-61.3383 163.296,-60.3141 171.754,-59.3131"/>
<polygon fill="midnightblue" stroke="midnightblue" points="172.431,-62.7575 181.95,-58.1065 171.608,-55.806 172.431,-62.7575"/>
</g>
<!-- Node5 -->
<g id="node9" class="node"><title>Node5</title>
<a xlink:href="classGainOffset.html#a315576efb29ef2a6836af1e934ca6a64" target="_top" xlink:title="GainOffset::getName">
<polygon fill="none" stroke="black" points="183,-0.5 183,-21.5 301,-21.5 301,-0.5 183,-0.5"/>
<text text-anchor="middle" x="242" y="-8.5" font-family="FreeSans.ttf" font-size="10.00">GainOffset::getName</text>
</a>
</g>
<!-- Node1&#45;&gt;Node5 -->
<g id="edge8" class="edge"><title>Node1&#45;&gt;Node5</title>
<path fill="none" stroke="midnightblue" d="M101.147,-60.4077C123.108,-52.2073 154.413,-40.6572 182,-31 187.917,-28.9287 194.179,-26.7865 200.338,-24.7081"/>
<polygon fill="midnightblue" stroke="midnightblue" points="201.498,-28.0107 209.867,-21.5138 199.273,-21.3737 201.498,-28.0107"/>
</g>
</g>
</svg>
