<?xml version="1.0" encoding="UTF-8" standalone="no"?>
<!DOCTYPE svg PUBLIC "-//W3C//DTD SVG 1.1//EN"
 "http://www.w3.org/Graphics/SVG/1.1/DTD/svg11.dtd">
<!-- Generated by graphviz version 2.26.3 (20100126.1600)
 -->
<!-- Title: G Pages: 1 -->
<svg width="318pt" height="110pt"
 viewBox="0.00 0.00 318.00 110.00" xmlns="http://www.w3.org/2000/svg" xmlns:xlink="http://www.w3.org/1999/xlink">
<g id="graph1" class="graph" transform="scale(1 1) rotate(0) translate(4 106)">
<title>G</title>
<!-- Node1 -->
<g id="node1" class="node"><title>Node1</title>
<polygon fill="#bfbfbf" stroke="black" points="0.5,-40.5 0.5,-61.5 159.5,-61.5 159.5,-40.5 0.5,-40.5"/>
<text text-anchor="middle" x="80" y="-48.5" font-family="FreeSans.ttf" font-size="10.00">corecvs::Line2d::intersectWith</text>
</g>
<!-- Node2 -->
<g id="node3" class="node"><title>Node2</title>
<a xlink:href="classcorecvs_1_1Vector3d.html#aec83d9ad04107cd9c2bb11abf33128c0" target="_top" xlink:title="Helper functions to access elements.">
<polygon fill="none" stroke="black" points="196.5,-80.5 196.5,-101.5 309.5,-101.5 309.5,-80.5 196.5,-80.5"/>
<text text-anchor="middle" x="253" y="-88.5" font-family="FreeSans.ttf" font-size="10.00">corecvs::Vector3d::x</text>
</a>
</g>
<!-- Node1&#45;&gt;Node2 -->
<g id="edge2" class="edge"><title>Node1&#45;&gt;Node2</title>
<path fill="none" stroke="midnightblue" d="M125.454,-61.5095C147.616,-66.6337 174.458,-72.8399 197.789,-78.2345"/>
<polygon fill="midnightblue" stroke="midnightblue" points="197.018,-81.6485 207.55,-80.4913 198.595,-74.8285 197.018,-81.6485"/>
</g>
<!-- Node3 -->
<g id="node5" class="node"><title>Node3</title>
<a xlink:href="classcorecvs_1_1Vector3d.html#a940d88447f20fac800d1fa510c981275" target="_top" xlink:title="corecvs::Vector3d::y">
<polygon fill="none" stroke="black" points="196.5,-40.5 196.5,-61.5 309.5,-61.5 309.5,-40.5 196.5,-40.5"/>
<text text-anchor="middle" x="253" y="-48.5" font-family="FreeSans.ttf" font-size="10.00">corecvs::Vector3d::y</text>
</a>
</g>
<!-- Node1&#45;&gt;Node3 -->
<g id="edge4" class="edge"><title>Node1&#45;&gt;Node3</title>
<path fill="none" stroke="midnightblue" d="M159.664,-51C168.587,-51 177.609,-51 186.344,-51"/>
<polygon fill="midnightblue" stroke="midnightblue" points="186.445,-54.5001 196.445,-51 186.445,-47.5001 186.445,-54.5001"/>
</g>
<!-- Node4 -->
<g id="node7" class="node"><title>Node4</title>
<a xlink:href="classcorecvs_1_1Vector3d.html#a4587f5d4984576c5c4c2d44a4140ce3f" target="_top" xlink:title="corecvs::Vector3d::z">
<polygon fill="none" stroke="black" points="196.5,-0.5 196.5,-21.5 309.5,-21.5 309.5,-0.5 196.5,-0.5"/>
<text text-anchor="middle" x="253" y="-8.5" font-family="FreeSans.ttf" font-size="10.00">corecvs::Vector3d::z</text>
</a>
</g>
<!-- Node1&#45;&gt;Node4 -->
<g id="edge6" class="edge"><title>Node1&#45;&gt;Node4</title>
<path fill="none" stroke="midnightblue" d="M125.454,-40.4905C147.616,-35.3663 174.458,-29.1601 197.789,-23.7655"/>
<polygon fill="midnightblue" stroke="midnightblue" points="198.595,-27.1715 207.55,-21.5087 197.018,-20.3515 198.595,-27.1715"/>
</g>
</g>
</svg>
