<?xml version="1.0" encoding="UTF-8" standalone="no"?>
<!DOCTYPE svg PUBLIC "-//W3C//DTD SVG 1.1//EN"
 "http://www.w3.org/Graphics/SVG/1.1/DTD/svg11.dtd">
<!-- Generated by graphviz version 2.26.3 (20100126.1600)
 -->
<!-- Title: G Pages: 1 -->
<!--zoomable 70 -->
<svg id="main" version="1.1" xmlns="http://www.w3.org/2000/svg" xmlns:xlink="http://www.w3.org/1999/xlink" xml:space="preserve" onload="init(evt)">
        <defs>
                <circle id="rim" cx="0" cy="0" r="7"/>
                <circle id="rim2" cx="0" cy="0" r="3.5"/>
                <g id="zoomPlus">
                        <use xlink:href="#rim" fill="#404040">
                                <set attributeName="fill" to="#808080" begin="zoomplus.mouseover" end="zoomplus.mouseout"/>
                        </use>
                        <path d="M-4,0h8M0,-4v8" fill="none" stroke="white" stroke-width="1.5" pointer-events="none"/>
                </g>
                <g id="zoomMin">
                        <use xlink:href="#rim" fill="#404040">
                                <set attributeName="fill" to="#808080" begin="zoomminus.mouseover" end="zoomminus.mouseout"/>
                        </use>
                        <path d="M-4,0h8" fill="none" stroke="white" stroke-width="1.5" pointer-events="none"/>
                </g>
                <g id="dirArrow">
                        <path fill="none" stroke="white" stroke-width="1.5" d="M0,-3.0v7 M-2.5,-0.5L0,-3.0L2.5,-0.5"/>
                </g>
               <g id="resetDef">
                       <use xlink:href="#rim2" fill="#404040">
                               <set attributeName="fill" to="#808080" begin="reset.mouseover" end="reset.mouseout"/>
                       </use>
               </g>
        </defs>

<script type="text/javascript">
var viewWidth = 1092;
var viewHeight = 70;
var sectionId = 'dynsection-0';
</script>
<script xlink:href="svgpan.js"/>
<svg id="graph" class="graph">
<g id="viewport">
<title>G</title>
<!-- Node1 -->
<g id="node1" class="node"><title>Node1</title>
<polygon fill="#bfbfbf" stroke="black" points="974,-20.5 974,-41.5 1084,-41.5 1084,-20.5 974,-20.5"/>
<text text-anchor="middle" x="1029" y="-28.5" font-family="FreeSans.ttf" font-size="10.00">corecvs::SixDBuffer</text>
</g>
<!-- Node2 -->
<g id="node2" class="node"><title>Node2</title>
<a xlink:href="classcorecvs_1_1AbstractContiniousBuffer.html" target="_top" xlink:title="This template class describes a buffer for which it is possible to interpolate the result between cel...">
<polygon fill="none" stroke="black" points="673.5,-40.5 673.5,-61.5 764.5,-61.5 764.5,-40.5 673.5,-40.5"/>
<text text-anchor="middle" x="719" y="-48.5" font-family="FreeSans.ttf" font-size="10.00">SixDBufferBase</text>
</a>
</g>
<!-- Node2&#45;&gt;Node1 -->
<g id="edge2" class="edge"><title>Node2&#45;&gt;Node1</title>
<path fill="none" stroke="midnightblue" d="M774.905,-47.3932C831.292,-43.7553 917.809,-38.1736 973.905,-34.5545"/>
<polygon fill="midnightblue" stroke="midnightblue" points="774.495,-43.9123 764.742,-48.0489 774.946,-50.8978 774.495,-43.9123"/>
</g>
<!-- Node3 -->
<g id="node4" class="node"><title>Node3</title>
<a xlink:href="classcorecvs_1_1AbstractBuffer.html" target="_top" xlink:title="This is a common buffer template.">
<polygon fill="none" stroke="black" points="200,-40.5 200,-61.5 464,-61.5 464,-40.5 200,-40.5"/>
<text text-anchor="middle" x="332" y="-48.5" font-family="FreeSans.ttf" font-size="10.00">corecvs::AbstractBuffer&lt; ElementType, IndexType &gt;</text>
</a>
</g>
<!-- Node3&#45;&gt;Node2 -->
<g id="edge4" class="edge"><title>Node3&#45;&gt;Node2</title>
<path fill="none" stroke="midnightblue" d="M474.373,-51C544.501,-51 624.281,-51 673.13,-51"/>
<polygon fill="midnightblue" stroke="midnightblue" points="474.101,-47.5001 464.101,-51 474.101,-54.5001 474.101,-47.5001"/>
</g>
<!-- Node4 -->
<g id="node6" class="node"><title>Node4</title>
<a xlink:href="classcorecvs_1_1AbstractBufferParams.html" target="_top" xlink:title="This is a basis part of the AbstractBuffer template &#45; serializable buffer params.">
<polygon fill="none" stroke="black" points="0,-40.5 0,-61.5 164,-61.5 164,-40.5 0,-40.5"/>
<text text-anchor="middle" x="82" y="-48.5" font-family="FreeSans.ttf" font-size="10.00">corecvs::AbstractBufferParams</text>
</a>
</g>
<!-- Node4&#45;&gt;Node3 -->
<g id="edge6" class="edge"><title>Node4&#45;&gt;Node3</title>
<path fill="none" stroke="midnightblue" d="M174.329,-51C182.724,-51 191.33,-51 199.982,-51"/>
<polygon fill="midnightblue" stroke="midnightblue" points="174.206,-47.5001 164.206,-51 174.206,-54.5001 174.206,-47.5001"/>
</g>
<!-- Node5 -->
<g id="node8" class="node"><title>Node5</title>
<a xlink:href="classcorecvs_1_1PunchedBufferOperations.html" target="_top" xlink:title="corecvs::PunchedBufferOperations\&lt; SixDBuffer, SixDBufferBase::InternalElementType \&gt;">
<polygon fill="none" stroke="black" points="500.5,-0.5 500.5,-21.5 937.5,-21.5 937.5,-0.5 500.5,-0.5"/>
<text text-anchor="middle" x="719" y="-8.5" font-family="FreeSans.ttf" font-size="10.00">corecvs::PunchedBufferOperations&lt; SixDBuffer, SixDBufferBase::InternalElementType &gt;</text>
</a>
</g>
<!-- Node5&#45;&gt;Node1 -->
<g id="edge8" class="edge"><title>Node5&#45;&gt;Node1</title>
<path fill="none" stroke="midnightblue" d="M892.237,-22.1766C921.839,-24.0864 950.54,-25.9381 973.942,-27.4479"/>
<polygon fill="midnightblue" stroke="midnightblue" points="892.375,-18.6783 882.17,-21.5271 891.924,-25.6638 892.375,-18.6783"/>
</g>
</g>
</svg>
        <g id="navigator" transform="translate(0 0)" fill="#404254">
                <rect fill="#f2f5e9" fill-opacity="0.5" stroke="#606060" stroke-width=".5" x="0" y="0" width="60" height="60"/>
                <use id="zoomplus" xlink:href="#zoomPlus" x="17" y="9" onmousedown="handleZoom(evt,'in')"/>
                <use id="zoomminus" xlink:href="#zoomMin" x="42" y="9" onmousedown="handleZoom(evt,'out')"/>
                <use id="reset" xlink:href="#resetDef" x="30" y="36" onmousedown="handleReset()"/>
                <g id="arrowUp" xlink:href="#dirArrow" transform="translate(30 24)" onmousedown="handlePan(0,-1)">
                  <use xlink:href="#rim" fill="#404040">
                        <set attributeName="fill" to="#808080" begin="arrowUp.mouseover" end="arrowUp.mouseout"/>
                  </use>
                  <path fill="none" stroke="white" stroke-width="1.5" d="M0,-3.0v7 M-2.5,-0.5L0,-3.0L2.5,-0.5"/>
                </g>
                <g id="arrowRight" xlink:href="#dirArrow" transform="rotate(90) translate(36 -43)" onmousedown="handlePan(1,0)">
                  <use xlink:href="#rim" fill="#404040">
                        <set attributeName="fill" to="#808080" begin="arrowRight.mouseover" end="arrowRight.mouseout"/>
                  </use>
                  <path fill="none" stroke="white" stroke-width="1.5" d="M0,-3.0v7 M-2.5,-0.5L0,-3.0L2.5,-0.5"/>
                </g>
                <g id="arrowDown" xlink:href="#dirArrow" transform="rotate(180) translate(-30 -48)" onmousedown="handlePan(0,1)">
                  <use xlink:href="#rim" fill="#404040">
                        <set attributeName="fill" to="#808080" begin="arrowDown.mouseover" end="arrowDown.mouseout"/>
                  </use>
                  <path fill="none" stroke="white" stroke-width="1.5" d="M0,-3.0v7 M-2.5,-0.5L0,-3.0L2.5,-0.5"/>
                </g>
                <g id="arrowLeft" xlink:href="#dirArrow" transform="rotate(270) translate(-36 17)" onmousedown="handlePan(-1,0)">
                  <use xlink:href="#rim" fill="#404040">
                        <set attributeName="fill" to="#808080" begin="arrowLeft.mouseover" end="arrowLeft.mouseout"/>
                  </use>
                  <path fill="none" stroke="white" stroke-width="1.5" d="M0,-3.0v7 M-2.5,-0.5L0,-3.0L2.5,-0.5"/>
                </g>
        </g>
</svg>
