<?xml version="1.0" encoding="UTF-8" standalone="no"?>
<!DOCTYPE svg PUBLIC "-//W3C//DTD SVG 1.1//EN"
 "http://www.w3.org/Graphics/SVG/1.1/DTD/svg11.dtd">
<!-- Generated by graphviz version 2.26.3 (20100126.1600)
 -->
<!-- Title: G Pages: 1 -->
<!--zoomable 230 -->
<svg id="main" version="1.1" xmlns="http://www.w3.org/2000/svg" xmlns:xlink="http://www.w3.org/1999/xlink" xml:space="preserve" onload="init(evt)">
        <defs>
                <circle id="rim" cx="0" cy="0" r="7"/>
                <circle id="rim2" cx="0" cy="0" r="3.5"/>
                <g id="zoomPlus">
                        <use xlink:href="#rim" fill="#404040">
                                <set attributeName="fill" to="#808080" begin="zoomplus.mouseover" end="zoomplus.mouseout"/>
                        </use>
                        <path d="M-4,0h8M0,-4v8" fill="none" stroke="white" stroke-width="1.5" pointer-events="none"/>
                </g>
                <g id="zoomMin">
                        <use xlink:href="#rim" fill="#404040">
                                <set attributeName="fill" to="#808080" begin="zoomminus.mouseover" end="zoomminus.mouseout"/>
                        </use>
                        <path d="M-4,0h8" fill="none" stroke="white" stroke-width="1.5" pointer-events="none"/>
                </g>
                <g id="dirArrow">
                        <path fill="none" stroke="white" stroke-width="1.5" d="M0,-3.0v7 M-2.5,-0.5L0,-3.0L2.5,-0.5"/>
                </g>
               <g id="resetDef">
                       <use xlink:href="#rim2" fill="#404040">
                               <set attributeName="fill" to="#808080" begin="reset.mouseover" end="reset.mouseout"/>
                       </use>
               </g>
        </defs>

<script type="text/javascript">
var viewWidth = 788;
var viewHeight = 230;
var sectionId = 'dynsection-2';
</script>
<script xlink:href="svgpan.js"/>
<svg id="graph" class="graph">
<g id="viewport">
<title>G</title>
<!-- Node1 -->
<g id="node1" class="node"><title>Node1</title>
<polygon fill="#bfbfbf" stroke="black" points="0,-100.5 0,-121.5 226,-121.5 226,-100.5 0,-100.5"/>
<text text-anchor="middle" x="113" y="-108.5" font-family="FreeSans.ttf" font-size="10.00">AbstractCalculationThread::newFrameReady</text>
</g>
<!-- Node2 -->
<g id="node3" class="node"><title>Node2</title>
<a xlink:href="classAbstractCalculationThread.html#accff9f3bbf936d31d194b17756aa8ebc" target="_top" xlink:title="AbstractCalculationThread::calculationStateChanged">
<polygon fill="none" stroke="black" points="262.5,-200.5 262.5,-221.5 531.5,-221.5 531.5,-200.5 262.5,-200.5"/>
<text text-anchor="middle" x="397" y="-208.5" font-family="FreeSans.ttf" font-size="10.00">AbstractCalculationThread::calculationStateChanged</text>
</a>
</g>
<!-- Node1&#45;&gt;Node2 -->
<g id="edge2" class="edge"><title>Node1&#45;&gt;Node2</title>
<path fill="none" stroke="midnightblue" d="M128.279,-121.539C154.4,-139.006 209.881,-173.734 262,-191 270.506,-193.818 279.446,-196.24 288.504,-198.321"/>
<polygon fill="midnightblue" stroke="midnightblue" points="287.853,-201.761 298.366,-200.449 289.329,-194.919 287.853,-201.761"/>
</g>
<!-- Node3 -->
<g id="node5" class="node"><title>Node3</title>
<a xlink:href="classFrames.html#a7456fca6f6756fe65dee67dd8287411e" target="_top" xlink:title="Frames::fetchNewFrames">
<polygon fill="none" stroke="black" points="328.5,-160.5 328.5,-181.5 465.5,-181.5 465.5,-160.5 328.5,-160.5"/>
<text text-anchor="middle" x="397" y="-168.5" font-family="FreeSans.ttf" font-size="10.00">Frames::fetchNewFrames</text>
</a>
</g>
<!-- Node1&#45;&gt;Node3 -->
<g id="edge4" class="edge"><title>Node1&#45;&gt;Node3</title>
<path fill="none" stroke="midnightblue" d="M147.651,-121.519C177.676,-130.34 222.4,-142.78 262,-151 280.19,-154.776 299.901,-158.115 318.496,-160.931"/>
<polygon fill="midnightblue" stroke="midnightblue" points="317.993,-164.394 328.398,-162.397 319.019,-157.47 317.993,-164.394"/>
</g>
<!-- Node6 -->
<g id="node11" class="node"><title>Node6</title>
<a xlink:href="classFrames.html#a574575a77ec087df67dd270caa832edc" target="_top" xlink:title="Frames::getCurrentFrame">
<polygon fill="none" stroke="black" points="327,-120.5 327,-141.5 467,-141.5 467,-120.5 327,-120.5"/>
<text text-anchor="middle" x="397" y="-128.5" font-family="FreeSans.ttf" font-size="10.00">Frames::getCurrentFrame</text>
</a>
</g>
<!-- Node1&#45;&gt;Node6 -->
<g id="edge10" class="edge"><title>Node1&#45;&gt;Node6</title>
<path fill="none" stroke="midnightblue" d="M226.06,-118.962C256.369,-121.096 288.514,-123.36 316.652,-125.342"/>
<polygon fill="midnightblue" stroke="midnightblue" points="316.605,-128.847 326.826,-126.058 317.097,-121.864 316.605,-128.847"/>
</g>
<!-- Node7 -->
<g id="node13" class="node"><title>Node7</title>
<a xlink:href="classAbstractCalculationThread.html#ac58abb000054cad2dbd74475277dcc3d" target="_top" xlink:title="AbstractCalculationThread::processingFinished">
<polygon fill="none" stroke="black" points="277.5,-80.5 277.5,-101.5 516.5,-101.5 516.5,-80.5 277.5,-80.5"/>
<text text-anchor="middle" x="397" y="-88.5" font-family="FreeSans.ttf" font-size="10.00">AbstractCalculationThread::processingFinished</text>
</a>
</g>
<!-- Node1&#45;&gt;Node7 -->
<g id="edge12" class="edge"><title>Node1&#45;&gt;Node7</title>
<path fill="none" stroke="midnightblue" d="M226.06,-103.038C239.628,-102.083 253.563,-101.101 267.343,-100.131"/>
<polygon fill="midnightblue" stroke="midnightblue" points="267.612,-103.621 277.341,-99.4267 267.12,-96.6379 267.612,-103.621"/>
</g>
<!-- Node8 -->
<g id="node15" class="node"><title>Node8</title>
<a xlink:href="classAbstractCalculationThread.html#a7e6948d0d2093157fc18acfdf36d35ae" target="_top" xlink:title="This is the main calculation routine called when a new frame is received.">
<polygon fill="none" stroke="black" points="282,-40.5 282,-61.5 512,-61.5 512,-40.5 282,-40.5"/>
<text text-anchor="middle" x="397" y="-48.5" font-family="FreeSans.ttf" font-size="10.00">AbstractCalculationThread::processNewData</text>
</a>
</g>
<!-- Node1&#45;&gt;Node8 -->
<g id="edge14" class="edge"><title>Node1&#45;&gt;Node8</title>
<path fill="none" stroke="midnightblue" d="M147.651,-100.481C177.676,-91.6597 222.4,-79.2202 262,-71 275.948,-68.1046 290.791,-65.466 305.34,-63.1233"/>
<polygon fill="midnightblue" stroke="midnightblue" points="306.015,-66.5603 315.35,-61.5493 304.927,-59.6452 306.015,-66.5603"/>
</g>
<!-- Node9 -->
<g id="node17" class="node"><title>Node9</title>
<a xlink:href="classFrames.html#a281e40269cffff48d34c1da9cdeb4506" target="_top" xlink:title="Frames::timestamp">
<polygon fill="none" stroke="black" points="342,-0.5 342,-21.5 452,-21.5 452,-0.5 342,-0.5"/>
<text text-anchor="middle" x="397" y="-8.5" font-family="FreeSans.ttf" font-size="10.00">Frames::timestamp</text>
</a>
</g>
<!-- Node1&#45;&gt;Node9 -->
<g id="edge16" class="edge"><title>Node1&#45;&gt;Node9</title>
<path fill="none" stroke="midnightblue" d="M128.279,-100.461C154.4,-82.9945 209.881,-48.2665 262,-31 284.137,-23.6662 309.208,-19.0153 331.684,-16.0684"/>
<polygon fill="midnightblue" stroke="midnightblue" points="332.307,-19.5184 341.808,-14.8308 331.458,-12.5701 332.307,-19.5184"/>
</g>
<!-- Node4 -->
<g id="node7" class="node"><title>Node4</title>
<a xlink:href="classImageCaptureInterface.html#a169ed60a449a8ad05b014cd6b8cd6dc3" target="_top" xlink:title="Main function to request frames from image interface.">
<polygon fill="none" stroke="black" points="584.5,-180.5 584.5,-201.5 763.5,-201.5 763.5,-180.5 584.5,-180.5"/>
<text text-anchor="middle" x="674" y="-188.5" font-family="FreeSans.ttf" font-size="10.00">ImageCaptureInterface::getFrame</text>
</a>
</g>
<!-- Node3&#45;&gt;Node4 -->
<g id="edge6" class="edge"><title>Node3&#45;&gt;Node4</title>
<path fill="none" stroke="midnightblue" d="M465.828,-175.97C498.561,-178.333 538.316,-181.203 574.277,-183.8"/>
<polygon fill="midnightblue" stroke="midnightblue" points="574.084,-187.295 584.31,-184.524 574.588,-180.313 574.084,-187.295"/>
</g>
<!-- Node5 -->
<g id="node9" class="node"><title>Node5</title>
<a xlink:href="classImageCaptureInterface.html#a6c5cc0ef779d73551a893e661dad2c9f" target="_top" xlink:title="ImageCaptureInterface::getFrameRGB24">
<polygon fill="none" stroke="black" points="568.5,-140.5 568.5,-161.5 779.5,-161.5 779.5,-140.5 568.5,-140.5"/>
<text text-anchor="middle" x="674" y="-148.5" font-family="FreeSans.ttf" font-size="10.00">ImageCaptureInterface::getFrameRGB24</text>
</a>
</g>
<!-- Node3&#45;&gt;Node5 -->
<g id="edge8" class="edge"><title>Node3&#45;&gt;Node5</title>
<path fill="none" stroke="midnightblue" d="M465.828,-166.03C493.732,-164.016 526.738,-161.633 558.147,-159.365"/>
<polygon fill="midnightblue" stroke="midnightblue" points="558.558,-162.844 568.28,-158.633 558.054,-155.863 558.558,-162.844"/>
</g>
</g>
</svg>
        <g id="navigator" transform="translate(0 0)" fill="#404254">
                <rect fill="#f2f5e9" fill-opacity="0.5" stroke="#606060" stroke-width=".5" x="0" y="0" width="60" height="60"/>
                <use id="zoomplus" xlink:href="#zoomPlus" x="17" y="9" onmousedown="handleZoom(evt,'in')"/>
                <use id="zoomminus" xlink:href="#zoomMin" x="42" y="9" onmousedown="handleZoom(evt,'out')"/>
                <use id="reset" xlink:href="#resetDef" x="30" y="36" onmousedown="handleReset()"/>
                <g id="arrowUp" xlink:href="#dirArrow" transform="translate(30 24)" onmousedown="handlePan(0,-1)">
                  <use xlink:href="#rim" fill="#404040">
                        <set attributeName="fill" to="#808080" begin="arrowUp.mouseover" end="arrowUp.mouseout"/>
                  </use>
                  <path fill="none" stroke="white" stroke-width="1.5" d="M0,-3.0v7 M-2.5,-0.5L0,-3.0L2.5,-0.5"/>
                </g>
                <g id="arrowRight" xlink:href="#dirArrow" transform="rotate(90) translate(36 -43)" onmousedown="handlePan(1,0)">
                  <use xlink:href="#rim" fill="#404040">
                        <set attributeName="fill" to="#808080" begin="arrowRight.mouseover" end="arrowRight.mouseout"/>
                  </use>
                  <path fill="none" stroke="white" stroke-width="1.5" d="M0,-3.0v7 M-2.5,-0.5L0,-3.0L2.5,-0.5"/>
                </g>
                <g id="arrowDown" xlink:href="#dirArrow" transform="rotate(180) translate(-30 -48)" onmousedown="handlePan(0,1)">
                  <use xlink:href="#rim" fill="#404040">
                        <set attributeName="fill" to="#808080" begin="arrowDown.mouseover" end="arrowDown.mouseout"/>
                  </use>
                  <path fill="none" stroke="white" stroke-width="1.5" d="M0,-3.0v7 M-2.5,-0.5L0,-3.0L2.5,-0.5"/>
                </g>
                <g id="arrowLeft" xlink:href="#dirArrow" transform="rotate(270) translate(-36 17)" onmousedown="handlePan(-1,0)">
                  <use xlink:href="#rim" fill="#404040">
                        <set attributeName="fill" to="#808080" begin="arrowLeft.mouseover" end="arrowLeft.mouseout"/>
                  </use>
                  <path fill="none" stroke="white" stroke-width="1.5" d="M0,-3.0v7 M-2.5,-0.5L0,-3.0L2.5,-0.5"/>
                </g>
        </g>
</svg>
