<?xml version="1.0" encoding="UTF-8" standalone="no"?>
<!DOCTYPE svg PUBLIC "-//W3C//DTD SVG 1.1//EN"
 "http://www.w3.org/Graphics/SVG/1.1/DTD/svg11.dtd">
<!-- Generated by graphviz version 2.26.3 (20100126.1600)
 -->
<!-- Title: G Pages: 1 -->
<!--zoomable 150 -->
<svg id="main" version="1.1" xmlns="http://www.w3.org/2000/svg" xmlns:xlink="http://www.w3.org/1999/xlink" xml:space="preserve" onload="init(evt)">
        <defs>
                <circle id="rim" cx="0" cy="0" r="7"/>
                <circle id="rim2" cx="0" cy="0" r="3.5"/>
                <g id="zoomPlus">
                        <use xlink:href="#rim" fill="#404040">
                                <set attributeName="fill" to="#808080" begin="zoomplus.mouseover" end="zoomplus.mouseout"/>
                        </use>
                        <path d="M-4,0h8M0,-4v8" fill="none" stroke="white" stroke-width="1.5" pointer-events="none"/>
                </g>
                <g id="zoomMin">
                        <use xlink:href="#rim" fill="#404040">
                                <set attributeName="fill" to="#808080" begin="zoomminus.mouseover" end="zoomminus.mouseout"/>
                        </use>
                        <path d="M-4,0h8" fill="none" stroke="white" stroke-width="1.5" pointer-events="none"/>
                </g>
                <g id="dirArrow">
                        <path fill="none" stroke="white" stroke-width="1.5" d="M0,-3.0v7 M-2.5,-0.5L0,-3.0L2.5,-0.5"/>
                </g>
               <g id="resetDef">
                       <use xlink:href="#rim2" fill="#404040">
                               <set attributeName="fill" to="#808080" begin="reset.mouseover" end="reset.mouseout"/>
                       </use>
               </g>
        </defs>

<script type="text/javascript">
var viewWidth = 1006;
var viewHeight = 150;
var sectionId = 'dynsection-14';
</script>
<script xlink:href="svgpan.js"/>
<svg id="graph" class="graph">
<g id="viewport">
<title>G</title>
<!-- Node1 -->
<g id="node1" class="node"><title>Node1</title>
<polygon fill="#bfbfbf" stroke="black" points="0.5,-60.5 0.5,-81.5 251.5,-81.5 251.5,-60.5 0.5,-60.5"/>
<text text-anchor="middle" x="126" y="-68.5" font-family="FreeSans.ttf" font-size="10.00">CameraCalculatorWidget::sensorVerticalChanged</text>
</g>
<!-- Node2 -->
<g id="node3" class="node"><title>Node2</title>
<a xlink:href="classCameraCalculatorWidget.html#a3a7f053f25db9a46230ad4e123f3a4eb" target="_top" xlink:title="CameraCalculatorWidget::setNewValue">
<polygon fill="none" stroke="black" points="303.5,-80.5 303.5,-101.5 506.5,-101.5 506.5,-80.5 303.5,-80.5"/>
<text text-anchor="middle" x="405" y="-88.5" font-family="FreeSans.ttf" font-size="10.00">CameraCalculatorWidget::setNewValue</text>
</a>
</g>
<!-- Node1&#45;&gt;Node2 -->
<g id="edge2" class="edge"><title>Node1&#45;&gt;Node2</title>
<path fill="none" stroke="midnightblue" d="M251.625,-80.0054C265.456,-80.9968 279.47,-82.0015 293.118,-82.9798"/>
<polygon fill="midnightblue" stroke="midnightblue" points="293.248,-86.498 303.473,-83.7221 293.749,-79.5159 293.248,-86.498"/>
</g>
<!-- Node6 -->
<g id="node11" class="node"><title>Node6</title>
<a xlink:href="classCameraCalculatorWidget.html#a4c5fb7b861fc5b03a3bd7122298dec4e" target="_top" xlink:title="CameraCalculatorWidget::updateSensorStats">
<polygon fill="none" stroke="black" points="288,-40.5 288,-61.5 522,-61.5 522,-40.5 288,-40.5"/>
<text text-anchor="middle" x="405" y="-48.5" font-family="FreeSans.ttf" font-size="10.00">CameraCalculatorWidget::updateSensorStats</text>
</a>
</g>
<!-- Node1&#45;&gt;Node6 -->
<g id="edge10" class="edge"><title>Node1&#45;&gt;Node6</title>
<path fill="none" stroke="midnightblue" d="M251.625,-61.9946C260.253,-61.3761 268.953,-60.7524 277.591,-60.1333"/>
<polygon fill="midnightblue" stroke="midnightblue" points="277.97,-63.6152 287.694,-59.409 277.47,-56.6331 277.97,-63.6152"/>
</g>
<!-- Node3 -->
<g id="node5" class="node"><title>Node3</title>
<a xlink:href="classCameraCalculatorWidget.html#ab41489389279916f1657ad1f0f97aaf5" target="_top" xlink:title="CameraCalculatorWidget::setValueBlocking">
<polygon fill="none" stroke="black" points="558,-120.5 558,-141.5 780,-141.5 780,-120.5 558,-120.5"/>
<text text-anchor="middle" x="669" y="-128.5" font-family="FreeSans.ttf" font-size="10.00">CameraCalculatorWidget::setValueBlocking</text>
</a>
</g>
<!-- Node2&#45;&gt;Node3 -->
<g id="edge4" class="edge"><title>Node2&#45;&gt;Node3</title>
<path fill="none" stroke="midnightblue" d="M474.363,-101.51C509.692,-106.862 552.815,-113.396 589.483,-118.952"/>
<polygon fill="midnightblue" stroke="midnightblue" points="589.231,-122.454 599.642,-120.491 590.28,-115.533 589.231,-122.454"/>
</g>
<!-- Node4 -->
<g id="node7" class="node"><title>Node4</title>
<a xlink:href="classCameraCalculatorWidget.html#a03b4aa47cd739b4828067343e5402f1d" target="_top" xlink:title="CameraCalculatorWidget::startTimer">
<polygon fill="none" stroke="black" points="573.5,-80.5 573.5,-101.5 764.5,-101.5 764.5,-80.5 573.5,-80.5"/>
<text text-anchor="middle" x="669" y="-88.5" font-family="FreeSans.ttf" font-size="10.00">CameraCalculatorWidget::startTimer</text>
</a>
</g>
<!-- Node2&#45;&gt;Node4 -->
<g id="edge6" class="edge"><title>Node2&#45;&gt;Node4</title>
<path fill="none" stroke="midnightblue" d="M506.692,-91C525.284,-91 544.723,-91 563.425,-91"/>
<polygon fill="midnightblue" stroke="midnightblue" points="563.428,-94.5001 573.428,-91 563.428,-87.5001 563.428,-94.5001"/>
</g>
<!-- Node5 -->
<g id="node9" class="node"><title>Node5</title>
<a xlink:href="classCameraCalculatorWidget.html#ab03fc7676689c8aa9ee47c36471e39fa" target="_top" xlink:title="CameraCalculatorWidget::setColor">
<polygon fill="none" stroke="black" points="816.5,-80.5 816.5,-101.5 997.5,-101.5 997.5,-80.5 816.5,-80.5"/>
<text text-anchor="middle" x="907" y="-88.5" font-family="FreeSans.ttf" font-size="10.00">CameraCalculatorWidget::setColor</text>
</a>
</g>
<!-- Node4&#45;&gt;Node5 -->
<g id="edge8" class="edge"><title>Node4&#45;&gt;Node5</title>
<path fill="none" stroke="midnightblue" d="M764.775,-91C778.362,-91 792.369,-91 806.05,-91"/>
<polygon fill="midnightblue" stroke="midnightblue" points="806.436,-94.5001 816.436,-91 806.436,-87.5001 806.436,-94.5001"/>
</g>
<!-- Node7 -->
<g id="node13" class="node"><title>Node7</title>
<a xlink:href="classCameraCalculatorWidget.html#a28b8b0ab4b6e03529df4052196f4ad4c" target="_top" xlink:title="CameraCalculatorWidget::getPixelWidth">
<polygon fill="none" stroke="black" points="566.5,-40.5 566.5,-61.5 771.5,-61.5 771.5,-40.5 566.5,-40.5"/>
<text text-anchor="middle" x="669" y="-48.5" font-family="FreeSans.ttf" font-size="10.00">CameraCalculatorWidget::getPixelWidth</text>
</a>
</g>
<!-- Node6&#45;&gt;Node7 -->
<g id="edge12" class="edge"><title>Node6&#45;&gt;Node7</title>
<path fill="none" stroke="midnightblue" d="M522.332,-51C533.508,-51 544.826,-51 555.96,-51"/>
<polygon fill="midnightblue" stroke="midnightblue" points="556.125,-54.5001 566.125,-51 556.124,-47.5001 556.125,-54.5001"/>
</g>
<!-- Node8 -->
<g id="node15" class="node"><title>Node8</title>
<a xlink:href="classCameraCalculatorWidget.html#a43d07f718f2e2207d4d7bc7ea353361e" target="_top" xlink:title="CameraCalculatorWidget::getPixelHeight">
<polygon fill="none" stroke="black" points="564,-0.5 564,-21.5 774,-21.5 774,-0.5 564,-0.5"/>
<text text-anchor="middle" x="669" y="-8.5" font-family="FreeSans.ttf" font-size="10.00">CameraCalculatorWidget::getPixelHeight</text>
</a>
</g>
<!-- Node6&#45;&gt;Node8 -->
<g id="edge14" class="edge"><title>Node6&#45;&gt;Node8</title>
<path fill="none" stroke="midnightblue" d="M474.363,-40.4905C509.692,-35.1375 552.815,-28.6038 589.483,-23.048"/>
<polygon fill="midnightblue" stroke="midnightblue" points="590.28,-26.4674 599.642,-21.5087 589.231,-19.5463 590.28,-26.4674"/>
</g>
</g>
</svg>
        <g id="navigator" transform="translate(0 0)" fill="#404254">
                <rect fill="#f2f5e9" fill-opacity="0.5" stroke="#606060" stroke-width=".5" x="0" y="0" width="60" height="60"/>
                <use id="zoomplus" xlink:href="#zoomPlus" x="17" y="9" onmousedown="handleZoom(evt,'in')"/>
                <use id="zoomminus" xlink:href="#zoomMin" x="42" y="9" onmousedown="handleZoom(evt,'out')"/>
                <use id="reset" xlink:href="#resetDef" x="30" y="36" onmousedown="handleReset()"/>
                <g id="arrowUp" xlink:href="#dirArrow" transform="translate(30 24)" onmousedown="handlePan(0,-1)">
                  <use xlink:href="#rim" fill="#404040">
                        <set attributeName="fill" to="#808080" begin="arrowUp.mouseover" end="arrowUp.mouseout"/>
                  </use>
                  <path fill="none" stroke="white" stroke-width="1.5" d="M0,-3.0v7 M-2.5,-0.5L0,-3.0L2.5,-0.5"/>
                </g>
                <g id="arrowRight" xlink:href="#dirArrow" transform="rotate(90) translate(36 -43)" onmousedown="handlePan(1,0)">
                  <use xlink:href="#rim" fill="#404040">
                        <set attributeName="fill" to="#808080" begin="arrowRight.mouseover" end="arrowRight.mouseout"/>
                  </use>
                  <path fill="none" stroke="white" stroke-width="1.5" d="M0,-3.0v7 M-2.5,-0.5L0,-3.0L2.5,-0.5"/>
                </g>
                <g id="arrowDown" xlink:href="#dirArrow" transform="rotate(180) translate(-30 -48)" onmousedown="handlePan(0,1)">
                  <use xlink:href="#rim" fill="#404040">
                        <set attributeName="fill" to="#808080" begin="arrowDown.mouseover" end="arrowDown.mouseout"/>
                  </use>
                  <path fill="none" stroke="white" stroke-width="1.5" d="M0,-3.0v7 M-2.5,-0.5L0,-3.0L2.5,-0.5"/>
                </g>
                <g id="arrowLeft" xlink:href="#dirArrow" transform="rotate(270) translate(-36 17)" onmousedown="handlePan(-1,0)">
                  <use xlink:href="#rim" fill="#404040">
                        <set attributeName="fill" to="#808080" begin="arrowLeft.mouseover" end="arrowLeft.mouseout"/>
                  </use>
                  <path fill="none" stroke="white" stroke-width="1.5" d="M0,-3.0v7 M-2.5,-0.5L0,-3.0L2.5,-0.5"/>
                </g>
        </g>
</svg>
