<?xml version="1.0" encoding="UTF-8" standalone="no"?>
<!DOCTYPE svg PUBLIC "-//W3C//DTD SVG 1.1//EN"
 "http://www.w3.org/Graphics/SVG/1.1/DTD/svg11.dtd">
<!-- Generated by graphviz version 2.26.3 (20100126.1600)
 -->
<!-- Title: G Pages: 1 -->
<!--zoomable 256 -->
<svg id="main" version="1.1" xmlns="http://www.w3.org/2000/svg" xmlns:xlink="http://www.w3.org/1999/xlink" xml:space="preserve" onload="init(evt)">
        <defs>
                <circle id="rim" cx="0" cy="0" r="7"/>
                <circle id="rim2" cx="0" cy="0" r="3.5"/>
                <g id="zoomPlus">
                        <use xlink:href="#rim" fill="#404040">
                                <set attributeName="fill" to="#808080" begin="zoomplus.mouseover" end="zoomplus.mouseout"/>
                        </use>
                        <path d="M-4,0h8M0,-4v8" fill="none" stroke="white" stroke-width="1.5" pointer-events="none"/>
                </g>
                <g id="zoomMin">
                        <use xlink:href="#rim" fill="#404040">
                                <set attributeName="fill" to="#808080" begin="zoomminus.mouseover" end="zoomminus.mouseout"/>
                        </use>
                        <path d="M-4,0h8" fill="none" stroke="white" stroke-width="1.5" pointer-events="none"/>
                </g>
                <g id="dirArrow">
                        <path fill="none" stroke="white" stroke-width="1.5" d="M0,-3.0v7 M-2.5,-0.5L0,-3.0L2.5,-0.5"/>
                </g>
               <g id="resetDef">
                       <use xlink:href="#rim2" fill="#404040">
                               <set attributeName="fill" to="#808080" begin="reset.mouseover" end="reset.mouseout"/>
                       </use>
               </g>
        </defs>

<script type="text/javascript">
var viewWidth = 986;
var viewHeight = 256;
var sectionId = 'dynsection-15';
</script>
<script xlink:href="svgpan.js"/>
<svg id="graph" class="graph">
<g id="viewport">
<title>G</title>
<!-- Node1 -->
<g id="node1" class="node"><title>Node1</title>
<polygon fill="#bfbfbf" stroke="black" points="0,-120.5 0,-141.5 164,-141.5 164,-120.5 0,-120.5"/>
<text text-anchor="middle" x="82" y="-128.5" font-family="FreeSans.ttf" font-size="10.00">CloudViewDialog::resetCamera</text>
</g>
<!-- Node2 -->
<g id="node3" class="node"><title>Node2</title>
<a xlink:href="classOpenGLTools.html#a990fb295ace9f68c82ab058add581835" target="_top" xlink:title="OpenGLTools::glMultMatrixMatrix44">
<polygon fill="none" stroke="black" points="414,-200.5 414,-221.5 596,-221.5 596,-200.5 414,-200.5"/>
<text text-anchor="middle" x="505" y="-208.5" font-family="FreeSans.ttf" font-size="10.00">OpenGLTools::glMultMatrixMatrix44</text>
</a>
</g>
<!-- Node1&#45;&gt;Node2 -->
<g id="edge2" class="edge"><title>Node1&#45;&gt;Node2</title>
<path fill="none" stroke="midnightblue" d="M89.9999,-141.584C107.23,-163.386 150.334,-212.786 200,-231 288.776,-263.557 401.737,-241.101 462.203,-224.443"/>
<polygon fill="midnightblue" stroke="midnightblue" points="463.489,-227.716 472.156,-221.621 461.58,-220.981 463.489,-227.716"/>
</g>
<!-- Node6 -->
<g id="node11" class="node"><title>Node6</title>
<a xlink:href="classOpenGLTools.html#abf0b2767139d28cd65092d95306d812d" target="_top" xlink:title="Equivalent to old function gluPerspective.">
<polygon fill="none" stroke="black" points="213,-160.5 213,-181.5 365,-181.5 365,-160.5 213,-160.5"/>
<text text-anchor="middle" x="289" y="-168.5" font-family="FreeSans.ttf" font-size="10.00">OpenGLTools::gluPerspective</text>
</a>
</g>
<!-- Node1&#45;&gt;Node6 -->
<g id="edge10" class="edge"><title>Node1&#45;&gt;Node6</title>
<path fill="none" stroke="midnightblue" d="M136.387,-141.51C163.378,-146.725 196.17,-153.062 224.43,-158.523"/>
<polygon fill="midnightblue" stroke="midnightblue" points="224.135,-162.03 234.617,-160.491 225.463,-155.158 224.135,-162.03"/>
</g>
<!-- Node8 -->
<g id="node16" class="node"><title>Node8</title>
<a xlink:href="classOpenGLTools.html#a92e6202f71c554b0b85619dd8ff04b73" target="_top" xlink:title="Same as above except for looking in positive Z direction.">
<polygon fill="none" stroke="black" points="200.5,-200.5 200.5,-221.5 377.5,-221.5 377.5,-200.5 200.5,-200.5"/>
<text text-anchor="middle" x="289" y="-208.5" font-family="FreeSans.ttf" font-size="10.00">OpenGLTools::gluPerspectivePosZ</text>
</a>
</g>
<!-- Node1&#45;&gt;Node8 -->
<g id="edge16" class="edge"><title>Node1&#45;&gt;Node8</title>
<path fill="none" stroke="midnightblue" d="M99.3722,-141.583C121.856,-154.862 162.593,-177.526 200,-191 207.045,-193.537 214.523,-195.82 222.035,-197.855"/>
<polygon fill="midnightblue" stroke="midnightblue" points="221.339,-201.29 231.895,-200.388 223.081,-194.51 221.339,-201.29"/>
</g>
<!-- Node9 -->
<g id="node20" class="node"><title>Node9</title>
<a xlink:href="namespacecorecvs.html#a319a0d46c2f53180fd1c9c477718d8b1" target="_top" xlink:title="Useful radian to degrees and back conversions.">
<polygon fill="none" stroke="black" points="237,-120.5 237,-141.5 341,-141.5 341,-120.5 237,-120.5"/>
<text text-anchor="middle" x="289" y="-128.5" font-family="FreeSans.ttf" font-size="10.00">corecvs::radToDeg</text>
</a>
</g>
<!-- Node1&#45;&gt;Node9 -->
<g id="edge22" class="edge"><title>Node1&#45;&gt;Node9</title>
<path fill="none" stroke="midnightblue" d="M164.109,-131C184.968,-131 207.038,-131 226.729,-131"/>
<polygon fill="midnightblue" stroke="midnightblue" points="226.79,-134.5 236.79,-131 226.79,-127.5 226.79,-134.5"/>
</g>
<!-- Node10 -->
<g id="node22" class="node"><title>Node10</title>
<a xlink:href="classcorecvs_1_1Vector3d.html#aec83d9ad04107cd9c2bb11abf33128c0" target="_top" xlink:title="Helper functions to access elements.">
<polygon fill="none" stroke="black" points="232.5,-80.5 232.5,-101.5 345.5,-101.5 345.5,-80.5 232.5,-80.5"/>
<text text-anchor="middle" x="289" y="-88.5" font-family="FreeSans.ttf" font-size="10.00">corecvs::Vector3d::x</text>
</a>
</g>
<!-- Node1&#45;&gt;Node10 -->
<g id="edge24" class="edge"><title>Node1&#45;&gt;Node10</title>
<path fill="none" stroke="midnightblue" d="M136.387,-120.49C163.378,-115.275 196.17,-108.938 224.43,-103.477"/>
<polygon fill="midnightblue" stroke="midnightblue" points="225.463,-106.842 234.617,-101.509 224.135,-99.9696 225.463,-106.842"/>
</g>
<!-- Node11 -->
<g id="node24" class="node"><title>Node11</title>
<a xlink:href="classcorecvs_1_1Vector3d.html#a940d88447f20fac800d1fa510c981275" target="_top" xlink:title="corecvs::Vector3d::y">
<polygon fill="none" stroke="black" points="232.5,-40.5 232.5,-61.5 345.5,-61.5 345.5,-40.5 232.5,-40.5"/>
<text text-anchor="middle" x="289" y="-48.5" font-family="FreeSans.ttf" font-size="10.00">corecvs::Vector3d::y</text>
</a>
</g>
<!-- Node1&#45;&gt;Node11 -->
<g id="edge26" class="edge"><title>Node1&#45;&gt;Node11</title>
<path fill="none" stroke="midnightblue" d="M99.3722,-120.417C121.856,-107.138 162.593,-84.4737 200,-71 207.229,-68.3963 214.914,-66.0612 222.623,-63.9863"/>
<polygon fill="midnightblue" stroke="midnightblue" points="223.546,-67.3631 232.368,-61.4967 221.813,-60.5809 223.546,-67.3631"/>
</g>
<!-- Node12 -->
<g id="node26" class="node"><title>Node12</title>
<a xlink:href="classcorecvs_1_1Vector3d.html#a4587f5d4984576c5c4c2d44a4140ce3f" target="_top" xlink:title="corecvs::Vector3d::z">
<polygon fill="none" stroke="black" points="232.5,-0.5 232.5,-21.5 345.5,-21.5 345.5,-0.5 232.5,-0.5"/>
<text text-anchor="middle" x="289" y="-8.5" font-family="FreeSans.ttf" font-size="10.00">corecvs::Vector3d::z</text>
</a>
</g>
<!-- Node1&#45;&gt;Node12 -->
<g id="edge28" class="edge"><title>Node1&#45;&gt;Node12</title>
<path fill="none" stroke="midnightblue" d="M91.2056,-120.331C109.647,-99.6763 153.367,-54.2223 200,-31 206.977,-27.5254 214.562,-24.6476 222.261,-22.2655"/>
<polygon fill="midnightblue" stroke="midnightblue" points="223.366,-25.5905 232.039,-19.5057 221.465,-18.8537 223.366,-25.5905"/>
</g>
<!-- Node3 -->
<g id="node5" class="node"><title>Node3</title>
<a xlink:href="classcorecvs_1_1Matrix44.html#a2b2199727e0ea9264105937c9aca9a1f" target="_top" xlink:title="Returning transposed matrix.">
<polygon fill="none" stroke="black" points="632.5,-200.5 632.5,-221.5 793.5,-221.5 793.5,-200.5 632.5,-200.5"/>
<text text-anchor="middle" x="713" y="-208.5" font-family="FreeSans.ttf" font-size="10.00">corecvs::Matrix44::transposed</text>
</a>
</g>
<!-- Node2&#45;&gt;Node3 -->
<g id="edge4" class="edge"><title>Node2&#45;&gt;Node3</title>
<path fill="none" stroke="midnightblue" d="M596.232,-211C604.862,-211 613.611,-211 622.237,-211"/>
<polygon fill="midnightblue" stroke="midnightblue" points="622.291,-214.5 632.291,-211 622.291,-207.5 622.291,-214.5"/>
</g>
<!-- Node4 -->
<g id="node7" class="node"><title>Node4</title>
<a xlink:href="classcorecvs_1_1Matrix44.html#acf5e18b2333c493522c2d32ae8719541" target="_top" xlink:title="corecvs::Matrix44::Matrix44">
<polygon fill="none" stroke="black" points="830,-220.5 830,-241.5 978,-241.5 978,-220.5 830,-220.5"/>
<text text-anchor="middle" x="904" y="-228.5" font-family="FreeSans.ttf" font-size="10.00">corecvs::Matrix44::Matrix44</text>
</a>
</g>
<!-- Node3&#45;&gt;Node4 -->
<g id="edge6" class="edge"><title>Node3&#45;&gt;Node4</title>
<path fill="none" stroke="midnightblue" d="M793.724,-219.453C802.359,-220.357 811.16,-221.278 819.833,-222.187"/>
<polygon fill="midnightblue" stroke="midnightblue" points="819.63,-225.684 829.94,-223.245 820.359,-218.723 819.63,-225.684"/>
</g>
<!-- Node5 -->
<g id="node9" class="node"><title>Node5</title>
<a xlink:href="classcorecvs_1_1Matrix44.html#ad53e6a4c5f30ed13b1bd0946f0e66a06" target="_top" xlink:title="Geting Matrix element functions block.">
<polygon fill="none" stroke="black" points="847.5,-180.5 847.5,-201.5 960.5,-201.5 960.5,-180.5 847.5,-180.5"/>
<text text-anchor="middle" x="904" y="-188.5" font-family="FreeSans.ttf" font-size="10.00">corecvs::Matrix44::a</text>
</a>
</g>
<!-- Node3&#45;&gt;Node5 -->
<g id="edge8" class="edge"><title>Node3&#45;&gt;Node5</title>
<path fill="none" stroke="midnightblue" d="M793.724,-202.547C808.226,-201.029 823.193,-199.462 837.244,-197.99"/>
<polygon fill="midnightblue" stroke="midnightblue" points="837.713,-201.46 847.294,-196.938 836.984,-194.498 837.713,-201.46"/>
</g>
<!-- Node6&#45;&gt;Node2 -->
<g id="edge14" class="edge"><title>Node6&#45;&gt;Node2</title>
<path fill="none" stroke="midnightblue" d="M345.751,-181.51C374.163,-186.771 408.735,-193.173 438.398,-198.666"/>
<polygon fill="midnightblue" stroke="midnightblue" points="437.783,-202.112 448.253,-200.491 439.057,-195.229 437.783,-202.112"/>
</g>
<!-- Node7 -->
<g id="node13" class="node"><title>Node7</title>
<a xlink:href="namespacecorecvs.html#a232d61cca5a815cc01f2eaa73604a48c" target="_top" xlink:title="corecvs::degToRad">
<polygon fill="none" stroke="black" points="452.5,-160.5 452.5,-181.5 557.5,-181.5 557.5,-160.5 452.5,-160.5"/>
<text text-anchor="middle" x="505" y="-168.5" font-family="FreeSans.ttf" font-size="10.00">corecvs::degToRad</text>
</a>
</g>
<!-- Node6&#45;&gt;Node7 -->
<g id="edge12" class="edge"><title>Node6&#45;&gt;Node7</title>
<path fill="none" stroke="midnightblue" d="M365.154,-171C390.341,-171 418.067,-171 442.143,-171"/>
<polygon fill="midnightblue" stroke="midnightblue" points="442.22,-174.5 452.22,-171 442.22,-167.5 442.22,-174.5"/>
</g>
<!-- Node8&#45;&gt;Node2 -->
<g id="edge20" class="edge"><title>Node8&#45;&gt;Node2</title>
<path fill="none" stroke="midnightblue" d="M377.791,-211C386.321,-211 395.017,-211 403.656,-211"/>
<polygon fill="midnightblue" stroke="midnightblue" points="403.757,-214.5 413.757,-211 403.757,-207.5 403.757,-214.5"/>
</g>
<!-- Node8&#45;&gt;Node7 -->
<g id="edge18" class="edge"><title>Node8&#45;&gt;Node7</title>
<path fill="none" stroke="midnightblue" d="M345.751,-200.49C375.399,-195 411.753,-188.268 442.238,-182.623"/>
<polygon fill="midnightblue" stroke="midnightblue" points="443.138,-186.016 452.333,-180.753 441.863,-179.133 443.138,-186.016"/>
</g>
</g>
</svg>
        <g id="navigator" transform="translate(0 0)" fill="#404254">
                <rect fill="#f2f5e9" fill-opacity="0.5" stroke="#606060" stroke-width=".5" x="0" y="0" width="60" height="60"/>
                <use id="zoomplus" xlink:href="#zoomPlus" x="17" y="9" onmousedown="handleZoom(evt,'in')"/>
                <use id="zoomminus" xlink:href="#zoomMin" x="42" y="9" onmousedown="handleZoom(evt,'out')"/>
                <use id="reset" xlink:href="#resetDef" x="30" y="36" onmousedown="handleReset()"/>
                <g id="arrowUp" xlink:href="#dirArrow" transform="translate(30 24)" onmousedown="handlePan(0,-1)">
                  <use xlink:href="#rim" fill="#404040">
                        <set attributeName="fill" to="#808080" begin="arrowUp.mouseover" end="arrowUp.mouseout"/>
                  </use>
                  <path fill="none" stroke="white" stroke-width="1.5" d="M0,-3.0v7 M-2.5,-0.5L0,-3.0L2.5,-0.5"/>
                </g>
                <g id="arrowRight" xlink:href="#dirArrow" transform="rotate(90) translate(36 -43)" onmousedown="handlePan(1,0)">
                  <use xlink:href="#rim" fill="#404040">
                        <set attributeName="fill" to="#808080" begin="arrowRight.mouseover" end="arrowRight.mouseout"/>
                  </use>
                  <path fill="none" stroke="white" stroke-width="1.5" d="M0,-3.0v7 M-2.5,-0.5L0,-3.0L2.5,-0.5"/>
                </g>
                <g id="arrowDown" xlink:href="#dirArrow" transform="rotate(180) translate(-30 -48)" onmousedown="handlePan(0,1)">
                  <use xlink:href="#rim" fill="#404040">
                        <set attributeName="fill" to="#808080" begin="arrowDown.mouseover" end="arrowDown.mouseout"/>
                  </use>
                  <path fill="none" stroke="white" stroke-width="1.5" d="M0,-3.0v7 M-2.5,-0.5L0,-3.0L2.5,-0.5"/>
                </g>
                <g id="arrowLeft" xlink:href="#dirArrow" transform="rotate(270) translate(-36 17)" onmousedown="handlePan(-1,0)">
                  <use xlink:href="#rim" fill="#404040">
                        <set attributeName="fill" to="#808080" begin="arrowLeft.mouseover" end="arrowLeft.mouseout"/>
                  </use>
                  <path fill="none" stroke="white" stroke-width="1.5" d="M0,-3.0v7 M-2.5,-0.5L0,-3.0L2.5,-0.5"/>
                </g>
        </g>
</svg>
