<?xml version="1.0" encoding="UTF-8" standalone="no"?>
<!DOCTYPE svg PUBLIC "-//W3C//DTD SVG 1.1//EN"
 "http://www.w3.org/Graphics/SVG/1.1/DTD/svg11.dtd">
<!-- Generated by graphviz version 2.26.3 (20100126.1600)
 -->
<!-- Title: G Pages: 1 -->
<svg width="320pt" height="110pt"
 viewBox="0.00 0.00 320.00 110.00" xmlns="http://www.w3.org/2000/svg" xmlns:xlink="http://www.w3.org/1999/xlink">
<g id="graph1" class="graph" transform="scale(1 1) rotate(0) translate(4 106)">
<title>G</title>
<!-- Node1 -->
<g id="node1" class="node"><title>Node1</title>
<polygon fill="#bfbfbf" stroke="black" points="0.5,-40.5 0.5,-61.5 159.5,-61.5 159.5,-40.5 0.5,-40.5"/>
<text text-anchor="middle" x="80" y="-48.5" font-family="FreeSans.ttf" font-size="10.00">corecvs::RGBColor::saturation</text>
</g>
<!-- Node2 -->
<g id="node3" class="node"><title>Node2</title>
<a xlink:href="classcorecvs_1_1RGBColor.html#a28d1778710e5ade8ab275f8ef03cdaec" target="_top" xlink:title="corecvs::RGBColor::b">
<polygon fill="none" stroke="black" points="196,-80.5 196,-101.5 312,-101.5 312,-80.5 196,-80.5"/>
<text text-anchor="middle" x="254" y="-88.5" font-family="FreeSans.ttf" font-size="10.00">corecvs::RGBColor::b</text>
</a>
</g>
<!-- Node1&#45;&gt;Node2 -->
<g id="edge2" class="edge"><title>Node1&#45;&gt;Node2</title>
<path fill="none" stroke="midnightblue" d="M125.716,-61.5095C148.007,-66.6337 175.004,-72.8399 198.47,-78.2345"/>
<polygon fill="midnightblue" stroke="midnightblue" points="197.757,-81.6618 208.287,-80.4913 199.325,-74.8398 197.757,-81.6618"/>
</g>
<!-- Node3 -->
<g id="node5" class="node"><title>Node3</title>
<a xlink:href="classcorecvs_1_1RGBColor.html#a61bb42ad3c5af64582ba22408e8bc5c4" target="_top" xlink:title="corecvs::RGBColor::g">
<polygon fill="none" stroke="black" points="196,-40.5 196,-61.5 312,-61.5 312,-40.5 196,-40.5"/>
<text text-anchor="middle" x="254" y="-48.5" font-family="FreeSans.ttf" font-size="10.00">corecvs::RGBColor::g</text>
</a>
</g>
<!-- Node1&#45;&gt;Node3 -->
<g id="edge4" class="edge"><title>Node1&#45;&gt;Node3</title>
<path fill="none" stroke="midnightblue" d="M159.616,-51C168.268,-51 177.019,-51 185.521,-51"/>
<polygon fill="midnightblue" stroke="midnightblue" points="185.747,-54.5001 195.747,-51 185.747,-47.5001 185.747,-54.5001"/>
</g>
<!-- Node4 -->
<g id="node7" class="node"><title>Node4</title>
<a xlink:href="classcorecvs_1_1RGBColor.html#a551378cc4e40775286d1200a21e3dfbc" target="_top" xlink:title="corecvs::RGBColor::r">
<polygon fill="none" stroke="black" points="197,-0.5 197,-21.5 311,-21.5 311,-0.5 197,-0.5"/>
<text text-anchor="middle" x="254" y="-8.5" font-family="FreeSans.ttf" font-size="10.00">corecvs::RGBColor::r</text>
</a>
</g>
<!-- Node1&#45;&gt;Node4 -->
<g id="edge6" class="edge"><title>Node1&#45;&gt;Node4</title>
<path fill="none" stroke="midnightblue" d="M125.716,-40.4905C148.007,-35.3663 175.004,-29.1601 198.47,-23.7655"/>
<polygon fill="midnightblue" stroke="midnightblue" points="199.325,-27.1602 208.287,-21.5087 197.757,-20.3382 199.325,-27.1602"/>
</g>
</g>
</svg>
