<?xml version="1.0" encoding="UTF-8" standalone="no"?>
<!DOCTYPE svg PUBLIC "-//W3C//DTD SVG 1.1//EN"
 "http://www.w3.org/Graphics/SVG/1.1/DTD/svg11.dtd">
<!-- Generated by graphviz version 2.26.3 (20100126.1600)
 -->
<!-- Title: G Pages: 1 -->
<!--zoomable 310 -->
<svg id="main" version="1.1" xmlns="http://www.w3.org/2000/svg" xmlns:xlink="http://www.w3.org/1999/xlink" xml:space="preserve" onload="init(evt)">
        <defs>
                <circle id="rim" cx="0" cy="0" r="7"/>
                <circle id="rim2" cx="0" cy="0" r="3.5"/>
                <g id="zoomPlus">
                        <use xlink:href="#rim" fill="#404040">
                                <set attributeName="fill" to="#808080" begin="zoomplus.mouseover" end="zoomplus.mouseout"/>
                        </use>
                        <path d="M-4,0h8M0,-4v8" fill="none" stroke="white" stroke-width="1.5" pointer-events="none"/>
                </g>
                <g id="zoomMin">
                        <use xlink:href="#rim" fill="#404040">
                                <set attributeName="fill" to="#808080" begin="zoomminus.mouseover" end="zoomminus.mouseout"/>
                        </use>
                        <path d="M-4,0h8" fill="none" stroke="white" stroke-width="1.5" pointer-events="none"/>
                </g>
                <g id="dirArrow">
                        <path fill="none" stroke="white" stroke-width="1.5" d="M0,-3.0v7 M-2.5,-0.5L0,-3.0L2.5,-0.5"/>
                </g>
               <g id="resetDef">
                       <use xlink:href="#rim2" fill="#404040">
                               <set attributeName="fill" to="#808080" begin="reset.mouseover" end="reset.mouseout"/>
                       </use>
               </g>
        </defs>

<script type="text/javascript">
var viewWidth = 520;
var viewHeight = 310;
var sectionId = 'dynsection-3';
</script>
<script xlink:href="svgpan.js"/>
<svg id="graph" class="graph">
<g id="viewport">
<title>G</title>
<!-- Node1 -->
<g id="node1" class="node"><title>Node1</title>
<polygon fill="#bfbfbf" stroke="black" points="0.5,-120.5 0.5,-141.5 143.5,-141.5 143.5,-120.5 0.5,-120.5"/>
<text text-anchor="middle" x="72" y="-128.5" font-family="FreeSans.ttf" font-size="10.00">corecvs::Mesh3D::addAOB</text>
</g>
<!-- Node2 -->
<g id="node3" class="node"><title>Node2</title>
<a xlink:href="classcorecvs_1_1Mesh3D.html#aa435809e92ec2872f108d3846d7bc743" target="_top" xlink:title="corecvs::Mesh3D::addAOB">
<polygon fill="none" stroke="black" points="199.5,-240.5 199.5,-261.5 342.5,-261.5 342.5,-240.5 199.5,-240.5"/>
<text text-anchor="middle" x="271" y="-248.5" font-family="FreeSans.ttf" font-size="10.00">corecvs::Mesh3D::addAOB</text>
</a>
</g>
<!-- Node1&#45;&gt;Node2 -->
<g id="edge2" class="edge"><title>Node1&#45;&gt;Node2</title>
<path fill="none" stroke="midnightblue" d="M80.205,-141.714C96.6975,-162.449 136.066,-208.036 180,-231 184.341,-233.269 188.928,-235.281 193.643,-237.065"/>
<polygon fill="midnightblue" stroke="midnightblue" points="192.866,-240.498 203.461,-240.417 195.127,-233.874 192.866,-240.498"/>
</g>
<!-- Node6 -->
<g id="node11" class="node"><title>Node6</title>
<a xlink:href="classAxisAlignedBoxParameters.html#a0aa8ab6138f8f12f4aa6b844b23573ba" target="_top" xlink:title="AxisAlignedBoxParameters::depth">
<polygon fill="none" stroke="black" points="181.5,-200.5 181.5,-221.5 360.5,-221.5 360.5,-200.5 181.5,-200.5"/>
<text text-anchor="middle" x="271" y="-208.5" font-family="FreeSans.ttf" font-size="10.00">AxisAlignedBoxParameters::depth</text>
</a>
</g>
<!-- Node1&#45;&gt;Node6 -->
<g id="edge10" class="edge"><title>Node1&#45;&gt;Node6</title>
<path fill="none" stroke="midnightblue" d="M87.752,-141.69C108.174,-155.084 145.294,-177.868 180,-191 186.761,-193.558 193.934,-195.832 201.17,-197.844"/>
<polygon fill="midnightblue" stroke="midnightblue" points="200.483,-201.282 211.043,-200.427 202.254,-194.51 200.483,-201.282"/>
</g>
<!-- Node7 -->
<g id="node13" class="node"><title>Node7</title>
<a xlink:href="classAxisAlignedBoxParameters.html#acb43761b2d07eea20570b8fe293e441a" target="_top" xlink:title="AxisAlignedBoxParameters::height">
<polygon fill="none" stroke="black" points="180.5,-160.5 180.5,-181.5 361.5,-181.5 361.5,-160.5 180.5,-160.5"/>
<text text-anchor="middle" x="271" y="-168.5" font-family="FreeSans.ttf" font-size="10.00">AxisAlignedBoxParameters::height</text>
</a>
</g>
<!-- Node1&#45;&gt;Node7 -->
<g id="edge12" class="edge"><title>Node1&#45;&gt;Node7</title>
<path fill="none" stroke="midnightblue" d="M124.285,-141.51C150.119,-146.702 181.482,-153.006 208.568,-158.451"/>
<polygon fill="midnightblue" stroke="midnightblue" points="208.225,-161.952 218.719,-160.491 209.605,-155.089 208.225,-161.952"/>
</g>
<!-- Node8 -->
<g id="node15" class="node"><title>Node8</title>
<a xlink:href="classAxisAlignedBoxParameters.html#a05e87180ce7199a3b108fbd3b7ec83a0" target="_top" xlink:title="AxisAlignedBoxParameters::width">
<polygon fill="none" stroke="black" points="183,-120.5 183,-141.5 359,-141.5 359,-120.5 183,-120.5"/>
<text text-anchor="middle" x="271" y="-128.5" font-family="FreeSans.ttf" font-size="10.00">AxisAlignedBoxParameters::width</text>
</a>
</g>
<!-- Node1&#45;&gt;Node8 -->
<g id="edge14" class="edge"><title>Node1&#45;&gt;Node8</title>
<path fill="none" stroke="midnightblue" d="M143.562,-131C152.99,-131 162.782,-131 172.561,-131"/>
<polygon fill="midnightblue" stroke="midnightblue" points="172.73,-134.5 182.73,-131 172.73,-127.5 172.73,-134.5"/>
</g>
<!-- Node9 -->
<g id="node17" class="node"><title>Node9</title>
<a xlink:href="classAxisAlignedBoxParameters.html#a41ec0195ee617e1ea105f3466bb7d4b1" target="_top" xlink:title="AxisAlignedBoxParameters::x">
<polygon fill="none" stroke="black" points="193,-80.5 193,-101.5 349,-101.5 349,-80.5 193,-80.5"/>
<text text-anchor="middle" x="271" y="-88.5" font-family="FreeSans.ttf" font-size="10.00">AxisAlignedBoxParameters::x</text>
</a>
</g>
<!-- Node1&#45;&gt;Node9 -->
<g id="edge16" class="edge"><title>Node1&#45;&gt;Node9</title>
<path fill="none" stroke="midnightblue" d="M124.285,-120.49C150.119,-115.298 181.482,-108.994 208.568,-103.549"/>
<polygon fill="midnightblue" stroke="midnightblue" points="209.605,-106.911 218.719,-101.509 208.225,-100.048 209.605,-106.911"/>
</g>
<!-- Node10 -->
<g id="node19" class="node"><title>Node10</title>
<a xlink:href="classAxisAlignedBoxParameters.html#a85bb954dbb5d3549402bf40d3563f4a9" target="_top" xlink:title="AxisAlignedBoxParameters::y">
<polygon fill="none" stroke="black" points="193,-40.5 193,-61.5 349,-61.5 349,-40.5 193,-40.5"/>
<text text-anchor="middle" x="271" y="-48.5" font-family="FreeSans.ttf" font-size="10.00">AxisAlignedBoxParameters::y</text>
</a>
</g>
<!-- Node1&#45;&gt;Node10 -->
<g id="edge18" class="edge"><title>Node1&#45;&gt;Node10</title>
<path fill="none" stroke="midnightblue" d="M87.752,-120.31C108.174,-106.916 145.294,-84.1316 180,-71 186.761,-68.442 193.934,-66.1675 201.17,-64.1557"/>
<polygon fill="midnightblue" stroke="midnightblue" points="202.254,-67.4899 211.043,-61.573 200.483,-60.7178 202.254,-67.4899"/>
</g>
<!-- Node11 -->
<g id="node21" class="node"><title>Node11</title>
<a xlink:href="classAxisAlignedBoxParameters.html#abb30057bdd2ab9fd1fc47b6c45eeb0f6" target="_top" xlink:title="AxisAlignedBoxParameters::z">
<polygon fill="none" stroke="black" points="193,-0.5 193,-21.5 349,-21.5 349,-0.5 193,-0.5"/>
<text text-anchor="middle" x="271" y="-8.5" font-family="FreeSans.ttf" font-size="10.00">AxisAlignedBoxParameters::z</text>
</a>
</g>
<!-- Node1&#45;&gt;Node11 -->
<g id="edge20" class="edge"><title>Node1&#45;&gt;Node11</title>
<path fill="none" stroke="midnightblue" d="M80.205,-120.286C96.6975,-99.5514 136.066,-53.9644 180,-31 184.341,-28.731 188.928,-26.7189 193.643,-24.9347"/>
<polygon fill="midnightblue" stroke="midnightblue" points="195.127,-28.1263 203.461,-21.5833 192.866,-21.5016 195.127,-28.1263"/>
</g>
<!-- Node3 -->
<g id="node5" class="node"><title>Node3</title>
<a xlink:href="classcorecvs_1_1Vector3d.html#aec83d9ad04107cd9c2bb11abf33128c0" target="_top" xlink:title="Helper functions to access elements.">
<polygon fill="none" stroke="black" points="398.5,-280.5 398.5,-301.5 511.5,-301.5 511.5,-280.5 398.5,-280.5"/>
<text text-anchor="middle" x="455" y="-288.5" font-family="FreeSans.ttf" font-size="10.00">corecvs::Vector3d::x</text>
</a>
</g>
<!-- Node2&#45;&gt;Node3 -->
<g id="edge4" class="edge"><title>Node2&#45;&gt;Node3</title>
<path fill="none" stroke="midnightblue" d="M319.344,-261.51C343.02,-266.657 371.719,-272.895 396.611,-278.307"/>
<polygon fill="midnightblue" stroke="midnightblue" points="396.145,-281.787 406.66,-280.491 397.632,-274.947 396.145,-281.787"/>
</g>
<!-- Node4 -->
<g id="node7" class="node"><title>Node4</title>
<a xlink:href="classcorecvs_1_1Vector3d.html#a940d88447f20fac800d1fa510c981275" target="_top" xlink:title="corecvs::Vector3d::y">
<polygon fill="none" stroke="black" points="398.5,-240.5 398.5,-261.5 511.5,-261.5 511.5,-240.5 398.5,-240.5"/>
<text text-anchor="middle" x="455" y="-248.5" font-family="FreeSans.ttf" font-size="10.00">corecvs::Vector3d::y</text>
</a>
</g>
<!-- Node2&#45;&gt;Node4 -->
<g id="edge6" class="edge"><title>Node2&#45;&gt;Node4</title>
<path fill="none" stroke="midnightblue" d="M342.666,-251C357.67,-251 373.433,-251 388.249,-251"/>
<polygon fill="midnightblue" stroke="midnightblue" points="388.334,-254.5 398.334,-251 388.334,-247.5 388.334,-254.5"/>
</g>
<!-- Node5 -->
<g id="node9" class="node"><title>Node5</title>
<a xlink:href="classcorecvs_1_1Vector3d.html#a4587f5d4984576c5c4c2d44a4140ce3f" target="_top" xlink:title="corecvs::Vector3d::z">
<polygon fill="none" stroke="black" points="398.5,-200.5 398.5,-221.5 511.5,-221.5 511.5,-200.5 398.5,-200.5"/>
<text text-anchor="middle" x="455" y="-208.5" font-family="FreeSans.ttf" font-size="10.00">corecvs::Vector3d::z</text>
</a>
</g>
<!-- Node2&#45;&gt;Node5 -->
<g id="edge8" class="edge"><title>Node2&#45;&gt;Node5</title>
<path fill="none" stroke="midnightblue" d="M319.344,-240.49C343.02,-235.343 371.719,-229.105 396.611,-223.693"/>
<polygon fill="midnightblue" stroke="midnightblue" points="397.632,-227.053 406.66,-221.509 396.145,-220.213 397.632,-227.053"/>
</g>
</g>
</svg>
        <g id="navigator" transform="translate(0 0)" fill="#404254">
                <rect fill="#f2f5e9" fill-opacity="0.5" stroke="#606060" stroke-width=".5" x="0" y="0" width="60" height="60"/>
                <use id="zoomplus" xlink:href="#zoomPlus" x="17" y="9" onmousedown="handleZoom(evt,'in')"/>
                <use id="zoomminus" xlink:href="#zoomMin" x="42" y="9" onmousedown="handleZoom(evt,'out')"/>
                <use id="reset" xlink:href="#resetDef" x="30" y="36" onmousedown="handleReset()"/>
                <g id="arrowUp" xlink:href="#dirArrow" transform="translate(30 24)" onmousedown="handlePan(0,-1)">
                  <use xlink:href="#rim" fill="#404040">
                        <set attributeName="fill" to="#808080" begin="arrowUp.mouseover" end="arrowUp.mouseout"/>
                  </use>
                  <path fill="none" stroke="white" stroke-width="1.5" d="M0,-3.0v7 M-2.5,-0.5L0,-3.0L2.5,-0.5"/>
                </g>
                <g id="arrowRight" xlink:href="#dirArrow" transform="rotate(90) translate(36 -43)" onmousedown="handlePan(1,0)">
                  <use xlink:href="#rim" fill="#404040">
                        <set attributeName="fill" to="#808080" begin="arrowRight.mouseover" end="arrowRight.mouseout"/>
                  </use>
                  <path fill="none" stroke="white" stroke-width="1.5" d="M0,-3.0v7 M-2.5,-0.5L0,-3.0L2.5,-0.5"/>
                </g>
                <g id="arrowDown" xlink:href="#dirArrow" transform="rotate(180) translate(-30 -48)" onmousedown="handlePan(0,1)">
                  <use xlink:href="#rim" fill="#404040">
                        <set attributeName="fill" to="#808080" begin="arrowDown.mouseover" end="arrowDown.mouseout"/>
                  </use>
                  <path fill="none" stroke="white" stroke-width="1.5" d="M0,-3.0v7 M-2.5,-0.5L0,-3.0L2.5,-0.5"/>
                </g>
                <g id="arrowLeft" xlink:href="#dirArrow" transform="rotate(270) translate(-36 17)" onmousedown="handlePan(-1,0)">
                  <use xlink:href="#rim" fill="#404040">
                        <set attributeName="fill" to="#808080" begin="arrowLeft.mouseover" end="arrowLeft.mouseout"/>
                  </use>
                  <path fill="none" stroke="white" stroke-width="1.5" d="M0,-3.0v7 M-2.5,-0.5L0,-3.0L2.5,-0.5"/>
                </g>
        </g>
</svg>
