<?xml version="1.0" encoding="UTF-8" standalone="no"?>
<!DOCTYPE svg PUBLIC "-//W3C//DTD SVG 1.1//EN"
 "http://www.w3.org/Graphics/SVG/1.1/DTD/svg11.dtd">
<!-- Generated by graphviz version 2.26.3 (20100126.1600)
 -->
<!-- Title: G Pages: 1 -->
<!--zoomable 226 -->
<svg id="main" version="1.1" xmlns="http://www.w3.org/2000/svg" xmlns:xlink="http://www.w3.org/1999/xlink" xml:space="preserve" onload="init(evt)">
        <defs>
                <circle id="rim" cx="0" cy="0" r="7"/>
                <circle id="rim2" cx="0" cy="0" r="3.5"/>
                <g id="zoomPlus">
                        <use xlink:href="#rim" fill="#404040">
                                <set attributeName="fill" to="#808080" begin="zoomplus.mouseover" end="zoomplus.mouseout"/>
                        </use>
                        <path d="M-4,0h8M0,-4v8" fill="none" stroke="white" stroke-width="1.5" pointer-events="none"/>
                </g>
                <g id="zoomMin">
                        <use xlink:href="#rim" fill="#404040">
                                <set attributeName="fill" to="#808080" begin="zoomminus.mouseover" end="zoomminus.mouseout"/>
                        </use>
                        <path d="M-4,0h8" fill="none" stroke="white" stroke-width="1.5" pointer-events="none"/>
                </g>
                <g id="dirArrow">
                        <path fill="none" stroke="white" stroke-width="1.5" d="M0,-3.0v7 M-2.5,-0.5L0,-3.0L2.5,-0.5"/>
                </g>
               <g id="resetDef">
                       <use xlink:href="#rim2" fill="#404040">
                               <set attributeName="fill" to="#808080" begin="reset.mouseover" end="reset.mouseout"/>
                       </use>
               </g>
        </defs>

<script type="text/javascript">
var viewWidth = 1292;
var viewHeight = 226;
var sectionId = 'dynsection-9';
</script>
<script xlink:href="svgpan.js"/>
<svg id="graph" class="graph">
<g id="viewport">
<title>G</title>
<!-- Node1 -->
<g id="node1" class="node"><title>Node1</title>
<polygon fill="#bfbfbf" stroke="black" points="0,-137.5 0,-158.5 204,-158.5 204,-137.5 0,-137.5"/>
<text text-anchor="middle" x="102" y="-145.5" font-family="FreeSans.ttf" font-size="10.00">corecvs::Triangulator::triangulateHelper</text>
</g>
<!-- Node2 -->
<g id="node3" class="node"><title>Node2</title>
<a xlink:href="classcorecvs_1_1Triangulator.html#a7f4db79f9ef947ad012d1359d890c394" target="_top" xlink:title="corecvs::Triangulator::triangulate">
<polygon fill="none" stroke="black" points="240.5,-157.5 240.5,-178.5 413.5,-178.5 413.5,-157.5 240.5,-157.5"/>
<text text-anchor="middle" x="327" y="-165.5" font-family="FreeSans.ttf" font-size="10.00">corecvs::Triangulator::triangulate</text>
</a>
</g>
<!-- Node1&#45;&gt;Node2 -->
<g id="edge2" class="edge"><title>Node1&#45;&gt;Node2</title>
<path fill="none" stroke="midnightblue" d="M204.295,-157.093C212.973,-157.864 221.732,-158.643 230.364,-159.41"/>
<polygon fill="midnightblue" stroke="midnightblue" points="230.156,-162.905 240.426,-160.305 230.776,-155.933 230.156,-162.905"/>
</g>
<!-- Node14 -->
<g id="node33" class="node"><title>Node14</title>
<a xlink:href="classcorecvs_1_1Vector2d.html#ae1ea2ad4c0821001408bf963cffa8413" target="_top" xlink:title="corecvs::Vector2d::y">
<polygon fill="none" stroke="black" points="270.5,-117.5 270.5,-138.5 383.5,-138.5 383.5,-117.5 270.5,-117.5"/>
<text text-anchor="middle" x="327" y="-125.5" font-family="FreeSans.ttf" font-size="10.00">corecvs::Vector2d::y</text>
</a>
</g>
<!-- Node1&#45;&gt;Node14 -->
<g id="edge38" class="edge"><title>Node1&#45;&gt;Node14</title>
<path fill="none" stroke="midnightblue" d="M204.295,-138.907C223.315,-137.216 242.728,-135.491 260.334,-133.926"/>
<polygon fill="midnightblue" stroke="midnightblue" points="260.824,-137.396 270.475,-133.024 260.204,-130.424 260.824,-137.396"/>
</g>
<!-- Node3 -->
<g id="node5" class="node"><title>Node3</title>
<a xlink:href="classcorecvs_1_1EssentialDecomposition.html#a123182db14754ef75da9388905a32702" target="_top" xlink:title="Triangulation taking as input left and right 2D projective vectors of the pixel in left ( ) and right...">
<polygon fill="none" stroke="black" points="450,-196.5 450,-217.5 688,-217.5 688,-196.5 450,-196.5"/>
<text text-anchor="middle" x="569" y="-204.5" font-family="FreeSans.ttf" font-size="10.00">corecvs::EssentialDecomposition::getDistance</text>
</a>
</g>
<!-- Node2&#45;&gt;Node3 -->
<g id="edge4" class="edge"><title>Node2&#45;&gt;Node3</title>
<path fill="none" stroke="midnightblue" d="M392.17,-178.503C423.507,-183.553 461.242,-189.634 493.791,-194.88"/>
<polygon fill="midnightblue" stroke="midnightblue" points="493.284,-198.343 503.714,-196.479 494.398,-191.432 493.284,-198.343"/>
</g>
<!-- Node4 -->
<g id="node7" class="node"><title>Node4</title>
<a xlink:href="classcorecvs_1_1VectorOperationsBase.html#a8abdcdd0819e6c08bfba71b93d0fbea8" target="_top" xlink:title="Return a normalized copy of vector.">
<polygon fill="none" stroke="black" points="724,-196.5 724,-217.5 950,-217.5 950,-196.5 724,-196.5"/>
<text text-anchor="middle" x="837" y="-204.5" font-family="FreeSans.ttf" font-size="10.00">corecvs::VectorOperationsBase::normalised</text>
</a>
</g>
<!-- Node2&#45;&gt;Node4 -->
<g id="edge36" class="edge"><title>Node2&#45;&gt;Node4</title>
<path fill="none" stroke="midnightblue" d="M413.578,-170.591C486.797,-173.253 594.423,-178.271 688,-187 710.536,-189.102 734.901,-192.075 757.271,-195.087"/>
<polygon fill="midnightblue" stroke="midnightblue" points="757.013,-198.585 767.395,-196.471 757.961,-191.649 757.013,-198.585"/>
</g>
<!-- Node5 -->
<g id="node9" class="node"><title>Node5</title>
<a xlink:href="classcorecvs_1_1EssentialDecomposition.html#aa84682ff901ec37153e580a33300317e" target="_top" xlink:title="Triangulation taking as input left and right 2D projective vectors of the pixel in left ( ) and right...">
<polygon fill="none" stroke="black" points="456,-97.5 456,-118.5 682,-118.5 682,-97.5 456,-97.5"/>
<text text-anchor="middle" x="569" y="-105.5" font-family="FreeSans.ttf" font-size="10.00">corecvs::EssentialDecomposition::getScaler</text>
</a>
</g>
<!-- Node2&#45;&gt;Node5 -->
<g id="edge8" class="edge"><title>Node2&#45;&gt;Node5</title>
<path fill="none" stroke="midnightblue" d="M374.011,-157.433C386.984,-154.452 401.051,-151.159 414,-148 449.295,-139.391 488.96,-129.144 519.329,-121.177"/>
<polygon fill="midnightblue" stroke="midnightblue" points="520.471,-124.496 529.252,-118.568 518.691,-117.726 520.471,-124.496"/>
</g>
<!-- Node3&#45;&gt;Node4 -->
<g id="edge6" class="edge"><title>Node3&#45;&gt;Node4</title>
<path fill="none" stroke="midnightblue" d="M688.109,-207C696.65,-207 705.273,-207 713.836,-207"/>
<polygon fill="midnightblue" stroke="midnightblue" points="713.852,-210.5 723.852,-207 713.852,-203.5 713.852,-210.5"/>
</g>
<!-- Node6 -->
<g id="node11" class="node"><title>Node6</title>
<a xlink:href="classcorecvs_1_1Matrix33.html#a2c9451edf48d8e58b40ceea8f0f667f0" target="_top" xlink:title="Matrix construction via 3 columns.">
<polygon fill="none" stroke="black" points="750.5,-78.5 750.5,-99.5 923.5,-99.5 923.5,-78.5 750.5,-78.5"/>
<text text-anchor="middle" x="837" y="-86.5" font-family="FreeSans.ttf" font-size="10.00">corecvs::Matrix33::FromColumns</text>
</a>
</g>
<!-- Node5&#45;&gt;Node6 -->
<g id="edge10" class="edge"><title>Node5&#45;&gt;Node6</title>
<path fill="none" stroke="midnightblue" d="M682.268,-99.9698C701.522,-98.6048 721.361,-97.1983 740.143,-95.8667"/>
<polygon fill="midnightblue" stroke="midnightblue" points="740.431,-99.3552 750.158,-95.1567 739.935,-92.3727 740.431,-99.3552"/>
</g>
<!-- Node8 -->
<g id="node15" class="node"><title>Node8</title>
<a xlink:href="classcorecvs_1_1Vector3d.html#aec83d9ad04107cd9c2bb11abf33128c0" target="_top" xlink:title="Helper functions to access elements.">
<polygon fill="none" stroke="black" points="1003.5,-80.5 1003.5,-101.5 1116.5,-101.5 1116.5,-80.5 1003.5,-80.5"/>
<text text-anchor="middle" x="1060" y="-88.5" font-family="FreeSans.ttf" font-size="10.00">corecvs::Vector3d::x</text>
</a>
</g>
<!-- Node5&#45;&gt;Node8 -->
<g id="edge30" class="edge"><title>Node5&#45;&gt;Node8</title>
<path fill="none" stroke="midnightblue" d="M682.142,-113.244C758.038,-115.547 860.172,-116.301 950,-109 965.044,-107.777 981.133,-105.629 996.233,-103.232"/>
<polygon fill="midnightblue" stroke="midnightblue" points="997.205,-106.619 1006.5,-101.541 996.068,-99.7119 997.205,-106.619"/>
</g>
<!-- Node9 -->
<g id="node17" class="node"><title>Node9</title>
<a xlink:href="classcorecvs_1_1Vector3d.html#a940d88447f20fac800d1fa510c981275" target="_top" xlink:title="corecvs::Vector3d::y">
<polygon fill="none" stroke="black" points="1003.5,-40.5 1003.5,-61.5 1116.5,-61.5 1116.5,-40.5 1003.5,-40.5"/>
<text text-anchor="middle" x="1060" y="-48.5" font-family="FreeSans.ttf" font-size="10.00">corecvs::Vector3d::y</text>
</a>
</g>
<!-- Node5&#45;&gt;Node9 -->
<g id="edge32" class="edge"><title>Node5&#45;&gt;Node9</title>
<path fill="none" stroke="midnightblue" d="M602.785,-97.4907C633.93,-88.2855 681.61,-75.407 724,-69 816.712,-54.9871 925.253,-51.47 993.327,-50.7959"/>
<polygon fill="midnightblue" stroke="midnightblue" points="993.511,-54.2946 1003.48,-50.7135 993.455,-47.2949 993.511,-54.2946"/>
</g>
<!-- Node10 -->
<g id="node19" class="node"><title>Node10</title>
<a xlink:href="classcorecvs_1_1Vector3d.html#a4587f5d4984576c5c4c2d44a4140ce3f" target="_top" xlink:title="corecvs::Vector3d::z">
<polygon fill="none" stroke="black" points="1003.5,-0.5 1003.5,-21.5 1116.5,-21.5 1116.5,-0.5 1003.5,-0.5"/>
<text text-anchor="middle" x="1060" y="-8.5" font-family="FreeSans.ttf" font-size="10.00">corecvs::Vector3d::z</text>
</a>
</g>
<!-- Node5&#45;&gt;Node10 -->
<g id="edge34" class="edge"><title>Node5&#45;&gt;Node10</title>
<path fill="none" stroke="midnightblue" d="M590.747,-97.4963C620.214,-83.7537 674.804,-60.0133 724,-48 815.644,-25.6213 924.677,-16.7582 993.128,-13.2608"/>
<polygon fill="midnightblue" stroke="midnightblue" points="993.523,-16.7458 1003.34,-12.7635 993.183,-9.75406 993.523,-16.7458"/>
</g>
<!-- Node11 -->
<g id="node21" class="node"><title>Node11</title>
<a xlink:href="classcorecvs_1_1Matrix33.html#a303763def6e3cd4a08222e9fa8f6faae" target="_top" xlink:title="This function returns an inverse of the matrix.">
<polygon fill="none" stroke="black" points="777,-156.5 777,-177.5 897,-177.5 897,-156.5 777,-156.5"/>
<text text-anchor="middle" x="837" y="-164.5" font-family="FreeSans.ttf" font-size="10.00">corecvs::Matrix33::inv</text>
</a>
</g>
<!-- Node5&#45;&gt;Node11 -->
<g id="edge20" class="edge"><title>Node5&#45;&gt;Node11</title>
<path fill="none" stroke="midnightblue" d="M616.913,-118.548C662.314,-128.543 730.58,-143.572 779.028,-154.238"/>
<polygon fill="midnightblue" stroke="midnightblue" points="778.532,-157.712 789.051,-156.444 780.037,-150.876 778.532,-157.712"/>
</g>
<!-- Node7 -->
<g id="node13" class="node"><title>Node7</title>
<a xlink:href="classcorecvs_1_1Matrix33.html#a47c909b671a7ae90b386b56c8706d3a5" target="_top" xlink:title="corecvs::Matrix33::Matrix33">
<polygon fill="none" stroke="black" points="986,-120.5 986,-141.5 1134,-141.5 1134,-120.5 986,-120.5"/>
<text text-anchor="middle" x="1060" y="-128.5" font-family="FreeSans.ttf" font-size="10.00">corecvs::Matrix33::Matrix33</text>
</a>
</g>
<!-- Node6&#45;&gt;Node7 -->
<g id="edge12" class="edge"><title>Node6&#45;&gt;Node7</title>
<path fill="none" stroke="midnightblue" d="M892.984,-99.5442C923.602,-105.311 961.719,-112.49 993.804,-118.533"/>
<polygon fill="midnightblue" stroke="midnightblue" points="993.517,-122.04 1003.99,-120.452 994.813,-115.161 993.517,-122.04"/>
</g>
<!-- Node6&#45;&gt;Node8 -->
<g id="edge14" class="edge"><title>Node6&#45;&gt;Node8</title>
<path fill="none" stroke="midnightblue" d="M923.537,-89.7761C946.683,-89.9837 971.342,-90.2049 993.241,-90.4013"/>
<polygon fill="midnightblue" stroke="midnightblue" points="993.39,-93.9026 1003.42,-90.4926 993.453,-86.9029 993.39,-93.9026"/>
</g>
<!-- Node6&#45;&gt;Node9 -->
<g id="edge16" class="edge"><title>Node6&#45;&gt;Node9</title>
<path fill="none" stroke="midnightblue" d="M898.822,-78.4653C928.237,-73.4529 963.45,-67.4525 993.449,-62.3405"/>
<polygon fill="midnightblue" stroke="midnightblue" points="994.137,-65.7739 1003.41,-60.6437 992.961,-58.8733 994.137,-65.7739"/>
</g>
<!-- Node6&#45;&gt;Node10 -->
<g id="edge18" class="edge"><title>Node6&#45;&gt;Node10</title>
<path fill="none" stroke="midnightblue" d="M861.748,-78.4235C891.073,-66.1122 941.566,-45.6063 986,-31 993.12,-28.6594 1000.69,-26.3807 1008.17,-24.2499"/>
<polygon fill="midnightblue" stroke="midnightblue" points="1009.2,-27.5953 1017.89,-21.5412 1007.32,-20.8519 1009.2,-27.5953"/>
</g>
<!-- Node11&#45;&gt;Node7 -->
<g id="edge28" class="edge"><title>Node11&#45;&gt;Node7</title>
<path fill="none" stroke="midnightblue" d="M897.053,-157.305C924.056,-152.946 956.215,-147.755 984.801,-143.14"/>
<polygon fill="midnightblue" stroke="midnightblue" points="985.434,-146.583 994.748,-141.534 984.318,-139.672 985.434,-146.583"/>
</g>
<!-- Node12 -->
<g id="node23" class="node"><title>Node12</title>
<a xlink:href="classcorecvs_1_1Matrix33.html#a8596ffc77b92da2876c22900c02e9bec" target="_top" xlink:title="Geting Matrix element functions block.">
<polygon fill="none" stroke="black" points="1170.5,-179.5 1170.5,-200.5 1283.5,-200.5 1283.5,-179.5 1170.5,-179.5"/>
<text text-anchor="middle" x="1227" y="-187.5" font-family="FreeSans.ttf" font-size="10.00">corecvs::Matrix33::a</text>
</a>
</g>
<!-- Node11&#45;&gt;Node12 -->
<g id="edge22" class="edge"><title>Node11&#45;&gt;Node12</title>
<path fill="none" stroke="midnightblue" d="M896.26,-177.533C929.982,-183.331 968.827,-189.626 986,-191 1051.57,-196.247 1068.22,-191.354 1134,-191 1142.47,-190.954 1151.38,-190.886 1160.18,-190.805"/>
<polygon fill="midnightblue" stroke="midnightblue" points="1160.48,-194.302 1170.44,-190.705 1160.41,-187.303 1160.48,-194.302"/>
</g>
<!-- Node13 -->
<g id="node25" class="node"><title>Node13</title>
<a xlink:href="classcorecvs_1_1Matrix33.html#a960edd556c9c44ce0b045f702153836e" target="_top" xlink:title="Computing determinant of the matrix.">
<polygon fill="none" stroke="black" points="999,-160.5 999,-181.5 1121,-181.5 1121,-160.5 999,-160.5"/>
<text text-anchor="middle" x="1060" y="-168.5" font-family="FreeSans.ttf" font-size="10.00">corecvs::Matrix33::det</text>
</a>
</g>
<!-- Node11&#45;&gt;Node13 -->
<g id="edge24" class="edge"><title>Node11&#45;&gt;Node13</title>
<path fill="none" stroke="midnightblue" d="M897.053,-168.077C925.21,-168.582 958.973,-169.188 988.445,-169.717"/>
<polygon fill="midnightblue" stroke="midnightblue" points="988.614,-173.22 998.675,-169.9 988.739,-166.221 988.614,-173.22"/>
</g>
<!-- Node13&#45;&gt;Node12 -->
<g id="edge26" class="edge"><title>Node13&#45;&gt;Node12</title>
<path fill="none" stroke="midnightblue" d="M1121.24,-177.967C1133.94,-179.413 1147.39,-180.943 1160.29,-182.41"/>
<polygon fill="midnightblue" stroke="midnightblue" points="1160.15,-185.917 1170.48,-183.57 1160.94,-178.962 1160.15,-185.917"/>
</g>
</g>
</svg>
        <g id="navigator" transform="translate(0 0)" fill="#404254">
                <rect fill="#f2f5e9" fill-opacity="0.5" stroke="#606060" stroke-width=".5" x="0" y="0" width="60" height="60"/>
                <use id="zoomplus" xlink:href="#zoomPlus" x="17" y="9" onmousedown="handleZoom(evt,'in')"/>
                <use id="zoomminus" xlink:href="#zoomMin" x="42" y="9" onmousedown="handleZoom(evt,'out')"/>
                <use id="reset" xlink:href="#resetDef" x="30" y="36" onmousedown="handleReset()"/>
                <g id="arrowUp" xlink:href="#dirArrow" transform="translate(30 24)" onmousedown="handlePan(0,-1)">
                  <use xlink:href="#rim" fill="#404040">
                        <set attributeName="fill" to="#808080" begin="arrowUp.mouseover" end="arrowUp.mouseout"/>
                  </use>
                  <path fill="none" stroke="white" stroke-width="1.5" d="M0,-3.0v7 M-2.5,-0.5L0,-3.0L2.5,-0.5"/>
                </g>
                <g id="arrowRight" xlink:href="#dirArrow" transform="rotate(90) translate(36 -43)" onmousedown="handlePan(1,0)">
                  <use xlink:href="#rim" fill="#404040">
                        <set attributeName="fill" to="#808080" begin="arrowRight.mouseover" end="arrowRight.mouseout"/>
                  </use>
                  <path fill="none" stroke="white" stroke-width="1.5" d="M0,-3.0v7 M-2.5,-0.5L0,-3.0L2.5,-0.5"/>
                </g>
                <g id="arrowDown" xlink:href="#dirArrow" transform="rotate(180) translate(-30 -48)" onmousedown="handlePan(0,1)">
                  <use xlink:href="#rim" fill="#404040">
                        <set attributeName="fill" to="#808080" begin="arrowDown.mouseover" end="arrowDown.mouseout"/>
                  </use>
                  <path fill="none" stroke="white" stroke-width="1.5" d="M0,-3.0v7 M-2.5,-0.5L0,-3.0L2.5,-0.5"/>
                </g>
                <g id="arrowLeft" xlink:href="#dirArrow" transform="rotate(270) translate(-36 17)" onmousedown="handlePan(-1,0)">
                  <use xlink:href="#rim" fill="#404040">
                        <set attributeName="fill" to="#808080" begin="arrowLeft.mouseover" end="arrowLeft.mouseout"/>
                  </use>
                  <path fill="none" stroke="white" stroke-width="1.5" d="M0,-3.0v7 M-2.5,-0.5L0,-3.0L2.5,-0.5"/>
                </g>
        </g>
</svg>
