<?xml version="1.0" encoding="UTF-8" standalone="no"?>
<!DOCTYPE svg PUBLIC "-//W3C//DTD SVG 1.1//EN"
 "http://www.w3.org/Graphics/SVG/1.1/DTD/svg11.dtd">
<!-- Generated by graphviz version 2.26.3 (20100126.1600)
 -->
<!-- Title: G Pages: 1 -->
<!--zoomable 230 -->
<svg id="main" version="1.1" xmlns="http://www.w3.org/2000/svg" xmlns:xlink="http://www.w3.org/1999/xlink" xml:space="preserve" onload="init(evt)">
        <defs>
                <circle id="rim" cx="0" cy="0" r="7"/>
                <circle id="rim2" cx="0" cy="0" r="3.5"/>
                <g id="zoomPlus">
                        <use xlink:href="#rim" fill="#404040">
                                <set attributeName="fill" to="#808080" begin="zoomplus.mouseover" end="zoomplus.mouseout"/>
                        </use>
                        <path d="M-4,0h8M0,-4v8" fill="none" stroke="white" stroke-width="1.5" pointer-events="none"/>
                </g>
                <g id="zoomMin">
                        <use xlink:href="#rim" fill="#404040">
                                <set attributeName="fill" to="#808080" begin="zoomminus.mouseover" end="zoomminus.mouseout"/>
                        </use>
                        <path d="M-4,0h8" fill="none" stroke="white" stroke-width="1.5" pointer-events="none"/>
                </g>
                <g id="dirArrow">
                        <path fill="none" stroke="white" stroke-width="1.5" d="M0,-3.0v7 M-2.5,-0.5L0,-3.0L2.5,-0.5"/>
                </g>
               <g id="resetDef">
                       <use xlink:href="#rim2" fill="#404040">
                               <set attributeName="fill" to="#808080" begin="reset.mouseover" end="reset.mouseout"/>
                       </use>
               </g>
        </defs>

<script type="text/javascript">
var viewWidth = 1126;
var viewHeight = 230;
var sectionId = 'dynsection-12';
</script>
<script xlink:href="svgpan.js"/>
<svg id="graph" class="graph">
<g id="viewport">
<title>G</title>
<!-- Node1 -->
<g id="node1" class="node"><title>Node1</title>
<polygon fill="#bfbfbf" stroke="black" points="0.5,-80.5 0.5,-101.5 205.5,-101.5 205.5,-80.5 0.5,-80.5"/>
<text text-anchor="middle" x="103" y="-88.5" font-family="FreeSans.ttf" font-size="10.00">V4L2CaptureInterface::getFrameRGB24</text>
</g>
<!-- Node2 -->
<g id="node3" class="node"><title>Node2</title>
<a xlink:href="classV4L2CaptureInterface.html#a6ac0d3e68a6635877214f309c87da05d" target="_top" xlink:title="V4L2CaptureInterface::decodeDataRGB24">
<polygon fill="none" stroke="black" points="245,-160.5 245,-181.5 463,-181.5 463,-160.5 245,-160.5"/>
<text text-anchor="middle" x="354" y="-168.5" font-family="FreeSans.ttf" font-size="10.00">V4L2CaptureInterface::decodeDataRGB24</text>
</a>
</g>
<!-- Node1&#45;&gt;Node2 -->
<g id="edge2" class="edge"><title>Node1&#45;&gt;Node2</title>
<path fill="none" stroke="midnightblue" d="M123.627,-101.702C150.285,-115.108 198.455,-137.906 242,-151 251.292,-153.794 261.142,-156.252 270.994,-158.401"/>
<polygon fill="midnightblue" stroke="midnightblue" points="270.323,-161.836 280.826,-160.447 271.749,-154.983 270.323,-161.836"/>
</g>
<!-- Node8 -->
<g id="node15" class="node"><title>Node8</title>
<a xlink:href="classImageCaptureInterface.html#a9f388e5583e5c13086aa9a7d3b1cfb36" target="_top" xlink:title="ImageCaptureInterface::newStatisticsReady">
<polygon fill="none" stroke="black" points="242,-120.5 242,-141.5 466,-141.5 466,-120.5 242,-120.5"/>
<text text-anchor="middle" x="354" y="-128.5" font-family="FreeSans.ttf" font-size="10.00">ImageCaptureInterface::newStatisticsReady</text>
</a>
</g>
<!-- Node1&#45;&gt;Node8 -->
<g id="edge14" class="edge"><title>Node1&#45;&gt;Node8</title>
<path fill="none" stroke="midnightblue" d="M168.947,-101.51C202.393,-106.84 243.186,-113.34 277.951,-118.881"/>
<polygon fill="midnightblue" stroke="midnightblue" points="277.632,-122.374 288.058,-120.491 278.733,-115.461 277.632,-122.374"/>
</g>
<!-- Node9 -->
<g id="node17" class="node"><title>Node9</title>
<a xlink:href="classV4L2CaptureInterface.html#a5cdd31799c41ad4d59b33f5734bc3089" target="_top" xlink:title="V4L2CaptureInterface::start">
<polygon fill="none" stroke="black" points="279.5,-80.5 279.5,-101.5 428.5,-101.5 428.5,-80.5 279.5,-80.5"/>
<text text-anchor="middle" x="354" y="-88.5" font-family="FreeSans.ttf" font-size="10.00">V4L2CaptureInterface::start</text>
</a>
</g>
<!-- Node1&#45;&gt;Node9 -->
<g id="edge16" class="edge"><title>Node1&#45;&gt;Node9</title>
<path fill="none" stroke="midnightblue" d="M205.816,-91C226.894,-91 248.856,-91 269.215,-91"/>
<polygon fill="midnightblue" stroke="midnightblue" points="269.385,-94.5001 279.385,-91 269.385,-87.5001 269.385,-94.5001"/>
</g>
<!-- Node10 -->
<g id="node19" class="node"><title>Node10</title>
<a xlink:href="classcorecvs_1_1RGB24Buffer.html#a48e0896b4b3685b9476d1c55d45a1bec" target="_top" xlink:title="corecvs::RGB24Buffer::toG12Buffer">
<polygon fill="none" stroke="black" points="262,-40.5 262,-61.5 446,-61.5 446,-40.5 262,-40.5"/>
<text text-anchor="middle" x="354" y="-48.5" font-family="FreeSans.ttf" font-size="10.00">corecvs::RGB24Buffer::toG12Buffer</text>
</a>
</g>
<!-- Node1&#45;&gt;Node10 -->
<g id="edge18" class="edge"><title>Node1&#45;&gt;Node10</title>
<path fill="none" stroke="midnightblue" d="M168.947,-80.4905C202.393,-75.1604 243.186,-68.6596 277.951,-63.1193"/>
<polygon fill="midnightblue" stroke="midnightblue" points="278.733,-66.5389 288.058,-61.5087 277.632,-59.6262 278.733,-66.5389"/>
</g>
<!-- Node15 -->
<g id="node29" class="node"><title>Node15</title>
<a xlink:href="classV4L2BufferDescriptor.html#ab7bd506603f0da864e85488062109942" target="_top" xlink:title="V4L2BufferDescriptor::usecsTimeStamp">
<polygon fill="none" stroke="black" points="250,-0.5 250,-21.5 458,-21.5 458,-0.5 250,-0.5"/>
<text text-anchor="middle" x="354" y="-8.5" font-family="FreeSans.ttf" font-size="10.00">V4L2BufferDescriptor::usecsTimeStamp</text>
</a>
</g>
<!-- Node1&#45;&gt;Node15 -->
<g id="edge28" class="edge"><title>Node1&#45;&gt;Node15</title>
<path fill="none" stroke="midnightblue" d="M123.627,-80.2978C150.285,-66.8916 198.455,-44.0942 242,-31 251.292,-28.2058 261.142,-25.7475 270.994,-23.5992"/>
<polygon fill="midnightblue" stroke="midnightblue" points="271.749,-27.0172 280.826,-21.5531 270.323,-20.164 271.749,-27.0172"/>
</g>
<!-- Node3 -->
<g id="node5" class="node"><title>Node3</title>
<a xlink:href="classcorecvs_1_1PreciseTimer.html#af4f2392d369963a6786d28754d626d1b" target="_top" xlink:title="corecvs::PreciseTimer::usecsToNow">
<polygon fill="none" stroke="black" points="505.5,-160.5 505.5,-181.5 690.5,-181.5 690.5,-160.5 505.5,-160.5"/>
<text text-anchor="middle" x="598" y="-168.5" font-family="FreeSans.ttf" font-size="10.00">corecvs::PreciseTimer::usecsToNow</text>
</a>
</g>
<!-- Node2&#45;&gt;Node3 -->
<g id="edge4" class="edge"><title>Node2&#45;&gt;Node3</title>
<path fill="none" stroke="midnightblue" d="M463.154,-171C473.827,-171 484.633,-171 495.24,-171"/>
<polygon fill="midnightblue" stroke="midnightblue" points="495.338,-174.5 505.338,-171 495.338,-167.5 495.338,-174.5"/>
</g>
<!-- Node4 -->
<g id="node7" class="node"><title>Node4</title>
<a xlink:href="classcorecvs_1_1PreciseTimer.html#ab6fc71ad27d7bb8ed8fed6b837ac3065" target="_top" xlink:title="corecvs::PreciseTimer::isCorrect">
<polygon fill="none" stroke="black" points="738,-200.5 738,-221.5 908,-221.5 908,-200.5 738,-200.5"/>
<text text-anchor="middle" x="823" y="-208.5" font-family="FreeSans.ttf" font-size="10.00">corecvs::PreciseTimer::isCorrect</text>
</a>
</g>
<!-- Node3&#45;&gt;Node4 -->
<g id="edge6" class="edge"><title>Node3&#45;&gt;Node4</title>
<path fill="none" stroke="midnightblue" d="M657.116,-181.51C686.84,-186.794 723.037,-193.229 754.025,-198.738"/>
<polygon fill="midnightblue" stroke="midnightblue" points="753.43,-202.187 763.888,-200.491 754.656,-195.295 753.43,-202.187"/>
</g>
<!-- Node5 -->
<g id="node9" class="node"><title>Node5</title>
<a xlink:href="classcorecvs_1_1PreciseTimer.html#aeefca9626ed0efb419d7479f5d758966" target="_top" xlink:title="corecvs::PreciseTimer::usecsTo">
<polygon fill="none" stroke="black" points="741,-160.5 741,-181.5 905,-181.5 905,-160.5 741,-160.5"/>
<text text-anchor="middle" x="823" y="-168.5" font-family="FreeSans.ttf" font-size="10.00">corecvs::PreciseTimer::usecsTo</text>
</a>
</g>
<!-- Node3&#45;&gt;Node5 -->
<g id="edge8" class="edge"><title>Node3&#45;&gt;Node5</title>
<path fill="none" stroke="midnightblue" d="M690.815,-171C704.031,-171 717.62,-171 730.823,-171"/>
<polygon fill="midnightblue" stroke="midnightblue" points="730.832,-174.5 740.832,-171 730.832,-167.5 730.832,-174.5"/>
</g>
<!-- Node6 -->
<g id="node11" class="node"><title>Node6</title>
<a xlink:href="classcorecvs_1_1PreciseTimer.html#ab96fc33330e59dc25e1965d692dcb3f9" target="_top" xlink:title="corecvs::PreciseTimer::currentTime">
<polygon fill="none" stroke="black" points="730.5,-120.5 730.5,-141.5 915.5,-141.5 915.5,-120.5 730.5,-120.5"/>
<text text-anchor="middle" x="823" y="-128.5" font-family="FreeSans.ttf" font-size="10.00">corecvs::PreciseTimer::currentTime</text>
</a>
</g>
<!-- Node3&#45;&gt;Node6 -->
<g id="edge10" class="edge"><title>Node3&#45;&gt;Node6</title>
<path fill="none" stroke="midnightblue" d="M657.116,-160.49C686.84,-155.206 723.037,-148.771 754.025,-143.262"/>
<polygon fill="midnightblue" stroke="midnightblue" points="754.656,-146.705 763.888,-141.509 753.43,-139.813 754.656,-146.705"/>
</g>
<!-- Node7 -->
<g id="node13" class="node"><title>Node7</title>
<a xlink:href="classcorecvs_1_1PreciseTimer.html#a8426a1a35d70c5da82bf027bfb1bee69" target="_top" xlink:title="corecvs::PreciseTimer::setTime">
<polygon fill="none" stroke="black" points="952.5,-120.5 952.5,-141.5 1117.5,-141.5 1117.5,-120.5 952.5,-120.5"/>
<text text-anchor="middle" x="1035" y="-128.5" font-family="FreeSans.ttf" font-size="10.00">corecvs::PreciseTimer::setTime</text>
</a>
</g>
<!-- Node6&#45;&gt;Node7 -->
<g id="edge12" class="edge"><title>Node6&#45;&gt;Node7</title>
<path fill="none" stroke="midnightblue" d="M915.678,-131C924.407,-131 933.258,-131 941.99,-131"/>
<polygon fill="midnightblue" stroke="midnightblue" points="942.171,-134.5 952.171,-131 942.171,-127.5 942.171,-134.5"/>
</g>
<!-- Node11 -->
<g id="node21" class="node"><title>Node11</title>
<a xlink:href="classcorecvs_1_1AbstractBuffer.html#a98f72526738a0c4ce8a0b72a3b5c28b9" target="_top" xlink:title="The element getter.">
<polygon fill="none" stroke="black" points="511,-80.5 511,-101.5 685,-101.5 685,-80.5 511,-80.5"/>
<text text-anchor="middle" x="598" y="-88.5" font-family="FreeSans.ttf" font-size="10.00">corecvs::AbstractBuffer::element</text>
</a>
</g>
<!-- Node10&#45;&gt;Node11 -->
<g id="edge20" class="edge"><title>Node10&#45;&gt;Node11</title>
<path fill="none" stroke="midnightblue" d="M418.108,-61.5095C450.482,-66.8167 489.936,-73.2846 523.637,-78.8093"/>
<polygon fill="midnightblue" stroke="midnightblue" points="523.462,-82.3274 533.897,-80.4913 524.595,-75.4196 523.462,-82.3274"/>
</g>
<!-- Node12 -->
<g id="node23" class="node"><title>Node12</title>
<a xlink:href="classcorecvs_1_1AbstractBufferParams.html#aeb4700e605ab656937deb7d76963aa62" target="_top" xlink:title="corecvs::AbstractBufferParams::read">
<polygon fill="none" stroke="black" points="502,-40.5 502,-61.5 694,-61.5 694,-40.5 502,-40.5"/>
<text text-anchor="middle" x="598" y="-48.5" font-family="FreeSans.ttf" font-size="10.00">corecvs::AbstractBufferParams::read</text>
</a>
</g>
<!-- Node10&#45;&gt;Node12 -->
<g id="edge22" class="edge"><title>Node10&#45;&gt;Node12</title>
<path fill="none" stroke="midnightblue" d="M446.246,-51C461.049,-51 476.474,-51 491.575,-51"/>
<polygon fill="midnightblue" stroke="midnightblue" points="491.967,-54.5001 501.967,-51 491.967,-47.5001 491.967,-54.5001"/>
</g>
<!-- Node14 -->
<g id="node27" class="node"><title>Node14</title>
<a xlink:href="classcorecvs_1_1Int16x8.html#ac2b1cbe147350d2bded6f7057a20b171" target="_top" xlink:title="corecvs::Int16x8::save">
<polygon fill="none" stroke="black" points="536.5,-0.5 536.5,-21.5 659.5,-21.5 659.5,-0.5 536.5,-0.5"/>
<text text-anchor="middle" x="598" y="-8.5" font-family="FreeSans.ttf" font-size="10.00">corecvs::Int16x8::save</text>
</a>
</g>
<!-- Node10&#45;&gt;Node14 -->
<g id="edge26" class="edge"><title>Node10&#45;&gt;Node14</title>
<path fill="none" stroke="midnightblue" d="M418.108,-40.4905C451.393,-35.034 492.161,-28.3506 526.467,-22.7268"/>
<polygon fill="midnightblue" stroke="midnightblue" points="527.122,-26.1662 536.424,-21.0945 525.989,-19.2584 527.122,-26.1662"/>
</g>
<!-- Node13 -->
<g id="node25" class="node"><title>Node13</title>
<a xlink:href="namespacecorecvs.html#a039a46b832cb32b1e742f20942bd2018" target="_top" xlink:title="corecvs::read_integer_bin">
<polygon fill="none" stroke="black" points="753,-40.5 753,-61.5 893,-61.5 893,-40.5 753,-40.5"/>
<text text-anchor="middle" x="823" y="-48.5" font-family="FreeSans.ttf" font-size="10.00">corecvs::read_integer_bin</text>
</a>
</g>
<!-- Node12&#45;&gt;Node13 -->
<g id="edge24" class="edge"><title>Node12&#45;&gt;Node13</title>
<path fill="none" stroke="midnightblue" d="M694.073,-51C710.24,-51 726.869,-51 742.586,-51"/>
<polygon fill="midnightblue" stroke="midnightblue" points="742.769,-54.5001 752.769,-51 742.769,-47.5001 742.769,-54.5001"/>
</g>
</g>
</svg>
        <g id="navigator" transform="translate(0 0)" fill="#404254">
                <rect fill="#f2f5e9" fill-opacity="0.5" stroke="#606060" stroke-width=".5" x="0" y="0" width="60" height="60"/>
                <use id="zoomplus" xlink:href="#zoomPlus" x="17" y="9" onmousedown="handleZoom(evt,'in')"/>
                <use id="zoomminus" xlink:href="#zoomMin" x="42" y="9" onmousedown="handleZoom(evt,'out')"/>
                <use id="reset" xlink:href="#resetDef" x="30" y="36" onmousedown="handleReset()"/>
                <g id="arrowUp" xlink:href="#dirArrow" transform="translate(30 24)" onmousedown="handlePan(0,-1)">
                  <use xlink:href="#rim" fill="#404040">
                        <set attributeName="fill" to="#808080" begin="arrowUp.mouseover" end="arrowUp.mouseout"/>
                  </use>
                  <path fill="none" stroke="white" stroke-width="1.5" d="M0,-3.0v7 M-2.5,-0.5L0,-3.0L2.5,-0.5"/>
                </g>
                <g id="arrowRight" xlink:href="#dirArrow" transform="rotate(90) translate(36 -43)" onmousedown="handlePan(1,0)">
                  <use xlink:href="#rim" fill="#404040">
                        <set attributeName="fill" to="#808080" begin="arrowRight.mouseover" end="arrowRight.mouseout"/>
                  </use>
                  <path fill="none" stroke="white" stroke-width="1.5" d="M0,-3.0v7 M-2.5,-0.5L0,-3.0L2.5,-0.5"/>
                </g>
                <g id="arrowDown" xlink:href="#dirArrow" transform="rotate(180) translate(-30 -48)" onmousedown="handlePan(0,1)">
                  <use xlink:href="#rim" fill="#404040">
                        <set attributeName="fill" to="#808080" begin="arrowDown.mouseover" end="arrowDown.mouseout"/>
                  </use>
                  <path fill="none" stroke="white" stroke-width="1.5" d="M0,-3.0v7 M-2.5,-0.5L0,-3.0L2.5,-0.5"/>
                </g>
                <g id="arrowLeft" xlink:href="#dirArrow" transform="rotate(270) translate(-36 17)" onmousedown="handlePan(-1,0)">
                  <use xlink:href="#rim" fill="#404040">
                        <set attributeName="fill" to="#808080" begin="arrowLeft.mouseover" end="arrowLeft.mouseout"/>
                  </use>
                  <path fill="none" stroke="white" stroke-width="1.5" d="M0,-3.0v7 M-2.5,-0.5L0,-3.0L2.5,-0.5"/>
                </g>
        </g>
</svg>
