<?xml version="1.0" encoding="UTF-8" standalone="no"?>
<!DOCTYPE svg PUBLIC "-//W3C//DTD SVG 1.1//EN"
 "http://www.w3.org/Graphics/SVG/1.1/DTD/svg11.dtd">
<!-- Generated by graphviz version 2.26.3 (20100126.1600)
 -->
<!-- Title: G Pages: 1 -->
<!--zoomable 150 -->
<svg id="main" version="1.1" xmlns="http://www.w3.org/2000/svg" xmlns:xlink="http://www.w3.org/1999/xlink" xml:space="preserve" onload="init(evt)">
        <defs>
                <circle id="rim" cx="0" cy="0" r="7"/>
                <circle id="rim2" cx="0" cy="0" r="3.5"/>
                <g id="zoomPlus">
                        <use xlink:href="#rim" fill="#404040">
                                <set attributeName="fill" to="#808080" begin="zoomplus.mouseover" end="zoomplus.mouseout"/>
                        </use>
                        <path d="M-4,0h8M0,-4v8" fill="none" stroke="white" stroke-width="1.5" pointer-events="none"/>
                </g>
                <g id="zoomMin">
                        <use xlink:href="#rim" fill="#404040">
                                <set attributeName="fill" to="#808080" begin="zoomminus.mouseover" end="zoomminus.mouseout"/>
                        </use>
                        <path d="M-4,0h8" fill="none" stroke="white" stroke-width="1.5" pointer-events="none"/>
                </g>
                <g id="dirArrow">
                        <path fill="none" stroke="white" stroke-width="1.5" d="M0,-3.0v7 M-2.5,-0.5L0,-3.0L2.5,-0.5"/>
                </g>
               <g id="resetDef">
                       <use xlink:href="#rim2" fill="#404040">
                               <set attributeName="fill" to="#808080" begin="reset.mouseover" end="reset.mouseout"/>
                       </use>
               </g>
        </defs>

<script type="text/javascript">
var viewWidth = 834;
var viewHeight = 150;
var sectionId = 'dynsection-30';
</script>
<script xlink:href="svgpan.js"/>
<svg id="graph" class="graph">
<g id="viewport">
<title>G</title>
<!-- Node1 -->
<g id="node1" class="node"><title>Node1</title>
<polygon fill="#bfbfbf" stroke="black" points="0,-60.5 0,-81.5 220,-81.5 220,-60.5 0,-60.5"/>
<text text-anchor="middle" x="110" y="-68.5" font-family="FreeSans.ttf" font-size="10.00">tinyxml2::XMLElement::QueryBoolAttribute</text>
</g>
<!-- Node2 -->
<g id="node3" class="node"><title>Node2</title>
<a xlink:href="classtinyxml2_1_1XMLElement.html#aaf46b0799ea419e5d070ac9a357de48f" target="_top" xlink:title="Query a specific attribute in the list.">
<polygon fill="none" stroke="black" points="264.5,-80.5 264.5,-101.5 453.5,-101.5 453.5,-80.5 264.5,-80.5"/>
<text text-anchor="middle" x="359" y="-88.5" font-family="FreeSans.ttf" font-size="10.00">tinyxml2::XMLElement::FindAttribute</text>
</a>
</g>
<!-- Node1&#45;&gt;Node2 -->
<g id="edge2" class="edge"><title>Node1&#45;&gt;Node2</title>
<path fill="none" stroke="midnightblue" d="M220.302,-79.8596C231.557,-80.7636 242.968,-81.6801 254.161,-82.5792"/>
<polygon fill="midnightblue" stroke="midnightblue" points="254.121,-86.0872 264.369,-83.3991 254.682,-79.1097 254.121,-86.0872"/>
</g>
<!-- Node6 -->
<g id="node11" class="node"><title>Node6</title>
<a xlink:href="classtinyxml2_1_1XMLAttribute.html#a9e9b94369f182df72aaac9acd04afead" target="_top" xlink:title="See QueryIntAttribute.">
<polygon fill="none" stroke="black" points="256,-40.5 256,-61.5 462,-61.5 462,-40.5 256,-40.5"/>
<text text-anchor="middle" x="359" y="-48.5" font-family="FreeSans.ttf" font-size="10.00">tinyxml2::XMLAttribute::QueryBoolValue</text>
</a>
</g>
<!-- Node1&#45;&gt;Node6 -->
<g id="edge10" class="edge"><title>Node1&#45;&gt;Node6</title>
<path fill="none" stroke="midnightblue" d="M220.302,-62.1404C228.718,-61.4644 237.222,-60.7814 245.656,-60.1039"/>
<polygon fill="midnightblue" stroke="midnightblue" points="246.213,-63.5706 255.9,-59.2811 245.652,-56.5931 246.213,-63.5706"/>
</g>
<!-- Node3 -->
<g id="node5" class="node"><title>Node3</title>
<a xlink:href="classtinyxml2_1_1XMLAttribute.html#a631990ac0d176e38fc291b17b295a62d" target="_top" xlink:title="The name of the attribute.">
<polygon fill="none" stroke="black" points="498,-120.5 498,-141.5 658,-141.5 658,-120.5 498,-120.5"/>
<text text-anchor="middle" x="578" y="-128.5" font-family="FreeSans.ttf" font-size="10.00">tinyxml2::XMLAttribute::Name</text>
</a>
</g>
<!-- Node2&#45;&gt;Node3 -->
<g id="edge4" class="edge"><title>Node2&#45;&gt;Node3</title>
<path fill="none" stroke="midnightblue" d="M416.54,-101.51C445.346,-106.771 480.398,-113.173 510.473,-118.666"/>
<polygon fill="midnightblue" stroke="midnightblue" points="509.999,-122.137 520.465,-120.491 511.256,-115.251 509.999,-122.137"/>
</g>
<!-- Node5 -->
<g id="node9" class="node"><title>Node5</title>
<a xlink:href="classtinyxml2_1_1XMLUtil.html#acfcd287cacfd2533e1bc9ea4dfb56602" target="_top" xlink:title="tinyxml2::XMLUtil::StringEqual">
<polygon fill="none" stroke="black" points="499,-80.5 499,-101.5 657,-101.5 657,-80.5 499,-80.5"/>
<text text-anchor="middle" x="578" y="-88.5" font-family="FreeSans.ttf" font-size="10.00">tinyxml2::XMLUtil::StringEqual</text>
</a>
</g>
<!-- Node2&#45;&gt;Node5 -->
<g id="edge8" class="edge"><title>Node2&#45;&gt;Node5</title>
<path fill="none" stroke="midnightblue" d="M453.783,-91C465.406,-91 477.255,-91 488.792,-91"/>
<polygon fill="midnightblue" stroke="midnightblue" points="488.837,-94.5001 498.837,-91 488.837,-87.5001 488.837,-94.5001"/>
</g>
<!-- Node4 -->
<g id="node7" class="node"><title>Node4</title>
<a xlink:href="classtinyxml2_1_1StrPair.html#ad87e3d11330f5e689ba1e7e54c023b57" target="_top" xlink:title="tinyxml2::StrPair::GetStr">
<polygon fill="none" stroke="black" points="694,-60.5 694,-81.5 826,-81.5 826,-60.5 694,-60.5"/>
<text text-anchor="middle" x="760" y="-68.5" font-family="FreeSans.ttf" font-size="10.00">tinyxml2::StrPair::GetStr</text>
</a>
</g>
<!-- Node3&#45;&gt;Node4 -->
<g id="edge6" class="edge"><title>Node3&#45;&gt;Node4</title>
<path fill="none" stroke="midnightblue" d="M624.397,-120.476C635.485,-117.666 647.227,-114.443 658,-111 681.095,-103.619 706.478,-93.6712 726.146,-85.543"/>
<polygon fill="midnightblue" stroke="midnightblue" points="727.708,-88.6838 735.587,-81.6002 725.01,-82.2245 727.708,-88.6838"/>
</g>
<!-- Node7 -->
<g id="node13" class="node"><title>Node7</title>
<a xlink:href="classtinyxml2_1_1XMLUtil.html#ae5b03e0a1ca5d42052a7ac540f7aa12a" target="_top" xlink:title="tinyxml2::XMLUtil::ToBool">
<polygon fill="none" stroke="black" points="511,-40.5 511,-61.5 645,-61.5 645,-40.5 511,-40.5"/>
<text text-anchor="middle" x="578" y="-48.5" font-family="FreeSans.ttf" font-size="10.00">tinyxml2::XMLUtil::ToBool</text>
</a>
</g>
<!-- Node6&#45;&gt;Node7 -->
<g id="edge12" class="edge"><title>Node6&#45;&gt;Node7</title>
<path fill="none" stroke="midnightblue" d="M462.087,-51C475.001,-51 488.035,-51 500.466,-51"/>
<polygon fill="midnightblue" stroke="midnightblue" points="500.751,-54.5001 510.751,-51 500.751,-47.5001 500.751,-54.5001"/>
</g>
<!-- Node8 -->
<g id="node15" class="node"><title>Node8</title>
<a xlink:href="classtinyxml2_1_1XMLAttribute.html#adf884db24f469f8a99a14ae786d4ddd7" target="_top" xlink:title="The value of the attribute.">
<polygon fill="none" stroke="black" points="499.5,-0.5 499.5,-21.5 656.5,-21.5 656.5,-0.5 499.5,-0.5"/>
<text text-anchor="middle" x="578" y="-8.5" font-family="FreeSans.ttf" font-size="10.00">tinyxml2::XMLAttribute::Value</text>
</a>
</g>
<!-- Node6&#45;&gt;Node8 -->
<g id="edge14" class="edge"><title>Node6&#45;&gt;Node8</title>
<path fill="none" stroke="midnightblue" d="M416.54,-40.4905C445.346,-35.229 480.398,-28.8268 510.473,-23.3338"/>
<polygon fill="midnightblue" stroke="midnightblue" points="511.256,-26.7486 520.465,-21.5087 509.999,-19.8625 511.256,-26.7486"/>
</g>
<!-- Node8&#45;&gt;Node4 -->
<g id="edge16" class="edge"><title>Node8&#45;&gt;Node4</title>
<path fill="none" stroke="midnightblue" d="M624.397,-21.5237C635.485,-24.3341 647.227,-27.5568 658,-31 681.095,-38.3813 706.478,-48.3288 726.146,-56.457"/>
<polygon fill="midnightblue" stroke="midnightblue" points="725.01,-59.7755 735.587,-60.3998 727.708,-53.3162 725.01,-59.7755"/>
</g>
</g>
</svg>
        <g id="navigator" transform="translate(0 0)" fill="#404254">
                <rect fill="#f2f5e9" fill-opacity="0.5" stroke="#606060" stroke-width=".5" x="0" y="0" width="60" height="60"/>
                <use id="zoomplus" xlink:href="#zoomPlus" x="17" y="9" onmousedown="handleZoom(evt,'in')"/>
                <use id="zoomminus" xlink:href="#zoomMin" x="42" y="9" onmousedown="handleZoom(evt,'out')"/>
                <use id="reset" xlink:href="#resetDef" x="30" y="36" onmousedown="handleReset()"/>
                <g id="arrowUp" xlink:href="#dirArrow" transform="translate(30 24)" onmousedown="handlePan(0,-1)">
                  <use xlink:href="#rim" fill="#404040">
                        <set attributeName="fill" to="#808080" begin="arrowUp.mouseover" end="arrowUp.mouseout"/>
                  </use>
                  <path fill="none" stroke="white" stroke-width="1.5" d="M0,-3.0v7 M-2.5,-0.5L0,-3.0L2.5,-0.5"/>
                </g>
                <g id="arrowRight" xlink:href="#dirArrow" transform="rotate(90) translate(36 -43)" onmousedown="handlePan(1,0)">
                  <use xlink:href="#rim" fill="#404040">
                        <set attributeName="fill" to="#808080" begin="arrowRight.mouseover" end="arrowRight.mouseout"/>
                  </use>
                  <path fill="none" stroke="white" stroke-width="1.5" d="M0,-3.0v7 M-2.5,-0.5L0,-3.0L2.5,-0.5"/>
                </g>
                <g id="arrowDown" xlink:href="#dirArrow" transform="rotate(180) translate(-30 -48)" onmousedown="handlePan(0,1)">
                  <use xlink:href="#rim" fill="#404040">
                        <set attributeName="fill" to="#808080" begin="arrowDown.mouseover" end="arrowDown.mouseout"/>
                  </use>
                  <path fill="none" stroke="white" stroke-width="1.5" d="M0,-3.0v7 M-2.5,-0.5L0,-3.0L2.5,-0.5"/>
                </g>
                <g id="arrowLeft" xlink:href="#dirArrow" transform="rotate(270) translate(-36 17)" onmousedown="handlePan(-1,0)">
                  <use xlink:href="#rim" fill="#404040">
                        <set attributeName="fill" to="#808080" begin="arrowLeft.mouseover" end="arrowLeft.mouseout"/>
                  </use>
                  <path fill="none" stroke="white" stroke-width="1.5" d="M0,-3.0v7 M-2.5,-0.5L0,-3.0L2.5,-0.5"/>
                </g>
        </g>
</svg>
