<?xml version="1.0" encoding="UTF-8" standalone="no"?>
<!DOCTYPE svg PUBLIC "-//W3C//DTD SVG 1.1//EN"
 "http://www.w3.org/Graphics/SVG/1.1/DTD/svg11.dtd">
<!-- Generated by graphviz version 2.26.3 (20100126.1600)
 -->
<!-- Title: G Pages: 1 -->
<!--zoomable 127 -->
<svg id="main" version="1.1" xmlns="http://www.w3.org/2000/svg" xmlns:xlink="http://www.w3.org/1999/xlink" xml:space="preserve" onload="init(evt)">
        <defs>
                <circle id="rim" cx="0" cy="0" r="7"/>
                <circle id="rim2" cx="0" cy="0" r="3.5"/>
                <g id="zoomPlus">
                        <use xlink:href="#rim" fill="#404040">
                                <set attributeName="fill" to="#808080" begin="zoomplus.mouseover" end="zoomplus.mouseout"/>
                        </use>
                        <path d="M-4,0h8M0,-4v8" fill="none" stroke="white" stroke-width="1.5" pointer-events="none"/>
                </g>
                <g id="zoomMin">
                        <use xlink:href="#rim" fill="#404040">
                                <set attributeName="fill" to="#808080" begin="zoomminus.mouseover" end="zoomminus.mouseout"/>
                        </use>
                        <path d="M-4,0h8" fill="none" stroke="white" stroke-width="1.5" pointer-events="none"/>
                </g>
                <g id="dirArrow">
                        <path fill="none" stroke="white" stroke-width="1.5" d="M0,-3.0v7 M-2.5,-0.5L0,-3.0L2.5,-0.5"/>
                </g>
               <g id="resetDef">
                       <use xlink:href="#rim2" fill="#404040">
                               <set attributeName="fill" to="#808080" begin="reset.mouseover" end="reset.mouseout"/>
                       </use>
               </g>
        </defs>

<script type="text/javascript">
var viewWidth = 776;
var viewHeight = 127;
var sectionId = 'dynsection-6';
</script>
<script xlink:href="svgpan.js"/>
<svg id="graph" class="graph">
<g id="viewport">
<title>G</title>
<!-- Node1 -->
<g id="node1" class="node"><title>Node1</title>
<polygon fill="#bfbfbf" stroke="black" points="0.5,-60.5 0.5,-81.5 185.5,-81.5 185.5,-60.5 0.5,-60.5"/>
<text text-anchor="middle" x="93" y="-68.5" font-family="FreeSans.ttf" font-size="10.00">tinyxml2::XMLPrinter::OpenElement</text>
</g>
<!-- Node2 -->
<g id="node3" class="node"><title>Node2</title>
<a xlink:href="classtinyxml2_1_1XMLPrinter.html#ab30210a7f32e45634e7a45137bf6fdf6" target="_top" xlink:title="tinyxml2::XMLPrinter::Print">
<polygon fill="none" stroke="black" points="440,-80.5 440,-101.5 582,-101.5 582,-80.5 440,-80.5"/>
<text text-anchor="middle" x="511" y="-88.5" font-family="FreeSans.ttf" font-size="10.00">tinyxml2::XMLPrinter::Print</text>
</a>
</g>
<!-- Node1&#45;&gt;Node2 -->
<g id="edge2" class="edge"><title>Node1&#45;&gt;Node2</title>
<path fill="none" stroke="midnightblue" d="M119.136,-81.6581C144.817,-91.515 185.37,-105.451 222,-111 301.977,-123.115 323.456,-118.463 404,-111 420.674,-109.455 438.625,-106.583 454.97,-103.489"/>
<polygon fill="midnightblue" stroke="midnightblue" points="455.773,-106.898 464.915,-101.543 454.429,-100.028 455.773,-106.898"/>
</g>
<!-- Node4 -->
<g id="node7" class="node"><title>Node4</title>
<a xlink:href="classtinyxml2_1_1XMLPrinter.html#a1c4b2ccbe4fdb316d54f5a93f3559260" target="_top" xlink:title="tinyxml2::XMLPrinter::PrintSpace">
<polygon fill="none" stroke="black" points="227,-80.5 227,-101.5 399,-101.5 399,-80.5 227,-80.5"/>
<text text-anchor="middle" x="313" y="-88.5" font-family="FreeSans.ttf" font-size="10.00">tinyxml2::XMLPrinter::PrintSpace</text>
</a>
</g>
<!-- Node1&#45;&gt;Node4 -->
<g id="edge6" class="edge"><title>Node1&#45;&gt;Node4</title>
<path fill="none" stroke="midnightblue" d="M185.662,-79.4238C195.879,-80.3526 206.3,-81.3 216.561,-82.2328"/>
<polygon fill="midnightblue" stroke="midnightblue" points="216.48,-85.7398 226.756,-83.1596 217.114,-78.7685 216.48,-85.7398"/>
</g>
<!-- Node5 -->
<g id="node10" class="node"><title>Node5</title>
<a xlink:href="classtinyxml2_1_1DynArray.html#a498de53808ba0151fef54ea10bf51050" target="_top" xlink:title="tinyxml2::DynArray::Push">
<polygon fill="none" stroke="black" points="245,-40.5 245,-61.5 381,-61.5 381,-40.5 245,-40.5"/>
<text text-anchor="middle" x="313" y="-48.5" font-family="FreeSans.ttf" font-size="10.00">tinyxml2::DynArray::Push</text>
</a>
</g>
<!-- Node1&#45;&gt;Node5 -->
<g id="edge10" class="edge"><title>Node1&#45;&gt;Node5</title>
<path fill="none" stroke="midnightblue" d="M185.662,-62.5762C201.942,-61.0962 218.741,-59.569 234.586,-58.1286"/>
<polygon fill="midnightblue" stroke="midnightblue" points="235.202,-61.587 244.844,-57.196 234.569,-54.6158 235.202,-61.587"/>
</g>
<!-- Node6 -->
<g id="node12" class="node"><title>Node6</title>
<a xlink:href="classtinyxml2_1_1XMLPrinter.html#a70ac2010150c8551773ffb2f96fef353" target="_top" xlink:title="tinyxml2::XMLPrinter::SealElement">
<polygon fill="none" stroke="black" points="222.5,-0.5 222.5,-21.5 403.5,-21.5 403.5,-0.5 222.5,-0.5"/>
<text text-anchor="middle" x="313" y="-8.5" font-family="FreeSans.ttf" font-size="10.00">tinyxml2::XMLPrinter::SealElement</text>
</a>
</g>
<!-- Node1&#45;&gt;Node6 -->
<g id="edge12" class="edge"><title>Node1&#45;&gt;Node6</title>
<path fill="none" stroke="midnightblue" d="M124.33,-60.4724C150.321,-51.9354 188.337,-39.9013 222,-31 231.5,-28.4879 241.616,-26.0418 251.52,-23.7718"/>
<polygon fill="midnightblue" stroke="midnightblue" points="252.337,-27.1758 261.324,-21.5647 250.799,-20.3467 252.337,-27.1758"/>
</g>
<!-- Node3 -->
<g id="node5" class="node"><title>Node3</title>
<a xlink:href="classtinyxml2_1_1DynArray.html#aa3c360d40addc3b05121da9f60a01b4d" target="_top" xlink:title="tinyxml2::DynArray::PushArr">
<polygon fill="none" stroke="black" points="618,-80.5 618,-101.5 768,-101.5 768,-80.5 618,-80.5"/>
<text text-anchor="middle" x="693" y="-88.5" font-family="FreeSans.ttf" font-size="10.00">tinyxml2::DynArray::PushArr</text>
</a>
</g>
<!-- Node2&#45;&gt;Node3 -->
<g id="edge4" class="edge"><title>Node2&#45;&gt;Node3</title>
<path fill="none" stroke="midnightblue" d="M582.148,-91C590.604,-91 599.3,-91 607.924,-91"/>
<polygon fill="midnightblue" stroke="midnightblue" points="607.998,-94.5001 617.998,-91 607.998,-87.5001 607.998,-94.5001"/>
</g>
<!-- Node4&#45;&gt;Node2 -->
<g id="edge8" class="edge"><title>Node4&#45;&gt;Node2</title>
<path fill="none" stroke="midnightblue" d="M399.27,-91C409.325,-91 419.558,-91 429.545,-91"/>
<polygon fill="midnightblue" stroke="midnightblue" points="429.845,-94.5001 439.845,-91 429.845,-87.5001 429.845,-94.5001"/>
</g>
<!-- Node6&#45;&gt;Node2 -->
<g id="edge14" class="edge"><title>Node6&#45;&gt;Node2</title>
<path fill="none" stroke="midnightblue" d="M372.969,-21.5406C383.471,-24.1295 394.174,-27.2597 404,-31 433.996,-42.4174 465.755,-61.1845 486.807,-74.6918"/>
<polygon fill="midnightblue" stroke="midnightblue" points="485.122,-77.7708 495.41,-80.3019 488.945,-71.9075 485.122,-77.7708"/>
</g>
</g>
</svg>
        <g id="navigator" transform="translate(0 0)" fill="#404254">
                <rect fill="#f2f5e9" fill-opacity="0.5" stroke="#606060" stroke-width=".5" x="0" y="0" width="60" height="60"/>
                <use id="zoomplus" xlink:href="#zoomPlus" x="17" y="9" onmousedown="handleZoom(evt,'in')"/>
                <use id="zoomminus" xlink:href="#zoomMin" x="42" y="9" onmousedown="handleZoom(evt,'out')"/>
                <use id="reset" xlink:href="#resetDef" x="30" y="36" onmousedown="handleReset()"/>
                <g id="arrowUp" xlink:href="#dirArrow" transform="translate(30 24)" onmousedown="handlePan(0,-1)">
                  <use xlink:href="#rim" fill="#404040">
                        <set attributeName="fill" to="#808080" begin="arrowUp.mouseover" end="arrowUp.mouseout"/>
                  </use>
                  <path fill="none" stroke="white" stroke-width="1.5" d="M0,-3.0v7 M-2.5,-0.5L0,-3.0L2.5,-0.5"/>
                </g>
                <g id="arrowRight" xlink:href="#dirArrow" transform="rotate(90) translate(36 -43)" onmousedown="handlePan(1,0)">
                  <use xlink:href="#rim" fill="#404040">
                        <set attributeName="fill" to="#808080" begin="arrowRight.mouseover" end="arrowRight.mouseout"/>
                  </use>
                  <path fill="none" stroke="white" stroke-width="1.5" d="M0,-3.0v7 M-2.5,-0.5L0,-3.0L2.5,-0.5"/>
                </g>
                <g id="arrowDown" xlink:href="#dirArrow" transform="rotate(180) translate(-30 -48)" onmousedown="handlePan(0,1)">
                  <use xlink:href="#rim" fill="#404040">
                        <set attributeName="fill" to="#808080" begin="arrowDown.mouseover" end="arrowDown.mouseout"/>
                  </use>
                  <path fill="none" stroke="white" stroke-width="1.5" d="M0,-3.0v7 M-2.5,-0.5L0,-3.0L2.5,-0.5"/>
                </g>
                <g id="arrowLeft" xlink:href="#dirArrow" transform="rotate(270) translate(-36 17)" onmousedown="handlePan(-1,0)">
                  <use xlink:href="#rim" fill="#404040">
                        <set attributeName="fill" to="#808080" begin="arrowLeft.mouseover" end="arrowLeft.mouseout"/>
                  </use>
                  <path fill="none" stroke="white" stroke-width="1.5" d="M0,-3.0v7 M-2.5,-0.5L0,-3.0L2.5,-0.5"/>
                </g>
        </g>
</svg>
