<?xml version="1.0" encoding="UTF-8" standalone="no"?>
<!DOCTYPE svg PUBLIC "-//W3C//DTD SVG 1.1//EN"
 "http://www.w3.org/Graphics/SVG/1.1/DTD/svg11.dtd">
<!-- Generated by graphviz version 2.26.3 (20100126.1600)
 -->
<!-- Title: G Pages: 1 -->
<!--zoomable 186 -->
<svg id="main" version="1.1" xmlns="http://www.w3.org/2000/svg" xmlns:xlink="http://www.w3.org/1999/xlink" xml:space="preserve" onload="init(evt)">
        <defs>
                <circle id="rim" cx="0" cy="0" r="7"/>
                <circle id="rim2" cx="0" cy="0" r="3.5"/>
                <g id="zoomPlus">
                        <use xlink:href="#rim" fill="#404040">
                                <set attributeName="fill" to="#808080" begin="zoomplus.mouseover" end="zoomplus.mouseout"/>
                        </use>
                        <path d="M-4,0h8M0,-4v8" fill="none" stroke="white" stroke-width="1.5" pointer-events="none"/>
                </g>
                <g id="zoomMin">
                        <use xlink:href="#rim" fill="#404040">
                                <set attributeName="fill" to="#808080" begin="zoomminus.mouseover" end="zoomminus.mouseout"/>
                        </use>
                        <path d="M-4,0h8" fill="none" stroke="white" stroke-width="1.5" pointer-events="none"/>
                </g>
                <g id="dirArrow">
                        <path fill="none" stroke="white" stroke-width="1.5" d="M0,-3.0v7 M-2.5,-0.5L0,-3.0L2.5,-0.5"/>
                </g>
               <g id="resetDef">
                       <use xlink:href="#rim2" fill="#404040">
                               <set attributeName="fill" to="#808080" begin="reset.mouseover" end="reset.mouseout"/>
                       </use>
               </g>
        </defs>

<script type="text/javascript">
var viewWidth = 1064;
var viewHeight = 186;
var sectionId = 'dynsection-1';
</script>
<script xlink:href="svgpan.js"/>
<svg id="graph" class="graph">
<g id="viewport">
<title>G</title>
<!-- Node1 -->
<g id="node1" class="node"><title>Node1</title>
<polygon fill="#bfbfbf" stroke="black" points="0.5,-97.5 0.5,-118.5 215.5,-118.5 215.5,-97.5 0.5,-97.5"/>
<text text-anchor="middle" x="108" y="-105.5" font-family="FreeSans.ttf" font-size="10.00">TreeSceneController::TreeSceneController</text>
</g>
<!-- Node2 -->
<g id="node3" class="node"><title>Node2</title>
<a xlink:href="classTreeSceneController.html#a7c6800e14789ed2c045af047892f9195" target="_top" xlink:title="TreeSceneController::generateWidget">
<polygon fill="none" stroke="black" points="272,-156.5 272,-177.5 466,-177.5 466,-156.5 272,-156.5"/>
<text text-anchor="middle" x="369" y="-164.5" font-family="FreeSans.ttf" font-size="10.00">TreeSceneController::generateWidget</text>
</a>
</g>
<!-- Node1&#45;&gt;Node2 -->
<g id="edge2" class="edge"><title>Node1&#45;&gt;Node2</title>
<path fill="none" stroke="midnightblue" d="M151.424,-118.508C179.972,-125.353 218.167,-134.392 252,-142 270.381,-146.133 290.424,-150.476 308.645,-154.361"/>
<polygon fill="midnightblue" stroke="midnightblue" points="308.048,-157.812 318.558,-156.468 309.504,-150.965 308.048,-157.812"/>
</g>
<!-- Node5 -->
<g id="node9" class="node"><title>Node5</title>
<a xlink:href="classTreeSceneController.html#a36a371af22d11af42b00d95aaaefc5d2" target="_top" xlink:title="TreeSceneController::redrawRequest">
<polygon fill="none" stroke="black" points="818.5,-97.5 818.5,-118.5 1007.5,-118.5 1007.5,-97.5 818.5,-97.5"/>
<text text-anchor="middle" x="913" y="-105.5" font-family="FreeSans.ttf" font-size="10.00">TreeSceneController::redrawRequest</text>
</a>
</g>
<!-- Node1&#45;&gt;Node5 -->
<g id="edge10" class="edge"><title>Node1&#45;&gt;Node5</title>
<path fill="none" stroke="midnightblue" d="M215.719,-111.319C227.955,-111.599 240.247,-111.837 252,-112 448.352,-114.727 677.539,-112.021 807.938,-109.927"/>
<polygon fill="midnightblue" stroke="midnightblue" points="808.37,-113.421 818.312,-109.758 808.256,-106.421 808.37,-113.421"/>
</g>
<!-- Node6 -->
<g id="node12" class="node"><title>Node6</title>
<a xlink:href="classTreeSceneController.html#a31089d9a7c0cef59cca3b0ee959d99d9" target="_top" xlink:title="TreeSceneController::transformationChanged">
<polygon fill="none" stroke="black" points="252.5,-39.5 252.5,-60.5 485.5,-60.5 485.5,-39.5 252.5,-39.5"/>
<text text-anchor="middle" x="369" y="-47.5" font-family="FreeSans.ttf" font-size="10.00">TreeSceneController::transformationChanged</text>
</a>
</g>
<!-- Node1&#45;&gt;Node6 -->
<g id="edge12" class="edge"><title>Node1&#45;&gt;Node6</title>
<path fill="none" stroke="midnightblue" d="M153.039,-97.4989C181.411,-90.9284 218.82,-82.3464 252,-75 270.48,-70.9084 290.628,-66.562 308.916,-62.6607"/>
<polygon fill="midnightblue" stroke="midnightblue" points="309.81,-66.0489 318.862,-60.5435 308.352,-59.2023 309.81,-66.0489"/>
</g>
<!-- Node9 -->
<g id="node19" class="node"><title>Node9</title>
<a xlink:href="classTreeSceneController.html#a3c957613790a97a10ca84e4cfbe3e1b4" target="_top" xlink:title="TreeSceneController::visibilityChanged">
<polygon fill="none" stroke="black" points="529,-78.5 529,-99.5 727,-99.5 727,-78.5 529,-78.5"/>
<text text-anchor="middle" x="628" y="-86.5" font-family="FreeSans.ttf" font-size="10.00">TreeSceneController::visibilityChanged</text>
</a>
</g>
<!-- Node1&#45;&gt;Node9 -->
<g id="edge20" class="edge"><title>Node1&#45;&gt;Node9</title>
<path fill="none" stroke="midnightblue" d="M215.744,-104.063C304.399,-100.824 429.518,-96.2522 518.618,-92.9967"/>
<polygon fill="midnightblue" stroke="midnightblue" points="518.889,-96.4892 528.755,-92.6263 518.634,-89.4938 518.889,-96.4892"/>
</g>
<!-- Node3 -->
<g id="node5" class="node"><title>Node3</title>
<a xlink:href="classTreeSceneController.html#a821be20a643c9e21422da74743510c01" target="_top" xlink:title="TreeSceneController::paramtersChanged">
<polygon fill="none" stroke="black" points="522,-156.5 522,-177.5 734,-177.5 734,-156.5 522,-156.5"/>
<text text-anchor="middle" x="628" y="-164.5" font-family="FreeSans.ttf" font-size="10.00">TreeSceneController::paramtersChanged</text>
</a>
</g>
<!-- Node2&#45;&gt;Node3 -->
<g id="edge4" class="edge"><title>Node2&#45;&gt;Node3</title>
<path fill="none" stroke="midnightblue" d="M466.179,-167C480.874,-167 496.162,-167 511.218,-167"/>
<polygon fill="midnightblue" stroke="midnightblue" points="511.595,-170.5 521.595,-167 511.595,-163.5 511.595,-170.5"/>
</g>
<!-- Node4 -->
<g id="node7" class="node"><title>Node4</title>
<a xlink:href="classParametersControlWidgetBase.html#a783fb4b685fe4b4e65680498e21ca5ee" target="_top" xlink:title="ParametersControlWidgetBase::createParametersVirtual">
<polygon fill="none" stroke="black" points="770,-156.5 770,-177.5 1056,-177.5 1056,-156.5 770,-156.5"/>
<text text-anchor="middle" x="913" y="-164.5" font-family="FreeSans.ttf" font-size="10.00">ParametersControlWidgetBase::createParametersVirtual</text>
</a>
</g>
<!-- Node3&#45;&gt;Node4 -->
<g id="edge6" class="edge"><title>Node3&#45;&gt;Node4</title>
<path fill="none" stroke="midnightblue" d="M734.123,-167C742.541,-167 751.14,-167 759.792,-167"/>
<polygon fill="midnightblue" stroke="midnightblue" points="759.965,-170.5 769.965,-167 759.965,-163.5 759.965,-170.5"/>
</g>
<!-- Node3&#45;&gt;Node5 -->
<g id="edge8" class="edge"><title>Node3&#45;&gt;Node5</title>
<path fill="none" stroke="midnightblue" d="M678.952,-156.452C727.435,-146.415 800.437,-131.302 851.997,-120.629"/>
<polygon fill="midnightblue" stroke="midnightblue" points="852.926,-124.011 862.009,-118.556 851.507,-117.156 852.926,-124.011"/>
</g>
<!-- Node6&#45;&gt;Node5 -->
<g id="edge18" class="edge"><title>Node6&#45;&gt;Node5</title>
<path fill="none" stroke="midnightblue" d="M485.746,-51.2549C557.609,-53.2207 651.455,-57.934 734,-69 778.185,-74.9234 827.645,-86.0517 863.359,-94.9096"/>
<polygon fill="midnightblue" stroke="midnightblue" points="862.964,-98.4189 873.515,-97.4592 864.668,-91.6296 862.964,-98.4189"/>
</g>
<!-- Node7 -->
<g id="node14" class="node"><title>Node7</title>
<a xlink:href="classTransform3DSelector.html#aad8dd8a7099f68694d2e522774882cec" target="_top" xlink:title="Transform3DSelector::getTransform">
<polygon fill="none" stroke="black" points="535,-0.5 535,-21.5 721,-21.5 721,-0.5 535,-0.5"/>
<text text-anchor="middle" x="628" y="-8.5" font-family="FreeSans.ttf" font-size="10.00">Transform3DSelector::getTransform</text>
</a>
</g>
<!-- Node6&#45;&gt;Node7 -->
<g id="edge14" class="edge"><title>Node6&#45;&gt;Node7</title>
<path fill="none" stroke="midnightblue" d="M438.748,-39.4974C472.431,-34.4255 513.021,-28.3135 547.958,-23.0526"/>
<polygon fill="midnightblue" stroke="midnightblue" points="548.76,-26.4714 558.127,-21.5213 547.718,-19.5494 548.76,-26.4714"/>
</g>
<!-- Node8 -->
<g id="node16" class="node"><title>Node8</title>
<a xlink:href="namespacecorecvs.html#a232d61cca5a815cc01f2eaa73604a48c" target="_top" xlink:title="corecvs::degToRad">
<polygon fill="none" stroke="black" points="860.5,-0.5 860.5,-21.5 965.5,-21.5 965.5,-0.5 860.5,-0.5"/>
<text text-anchor="middle" x="913" y="-8.5" font-family="FreeSans.ttf" font-size="10.00">corecvs::degToRad</text>
</a>
</g>
<!-- Node7&#45;&gt;Node8 -->
<g id="edge16" class="edge"><title>Node7&#45;&gt;Node8</title>
<path fill="none" stroke="midnightblue" d="M721.32,-11C763.462,-11 812.145,-11 849.903,-11"/>
<polygon fill="midnightblue" stroke="midnightblue" points="850.249,-14.5001 860.249,-11 850.249,-7.5001 850.249,-14.5001"/>
</g>
<!-- Node9&#45;&gt;Node5 -->
<g id="edge22" class="edge"><title>Node9&#45;&gt;Node5</title>
<path fill="none" stroke="midnightblue" d="M727.279,-95.6186C753.489,-97.366 781.855,-99.257 808.34,-101.023"/>
<polygon fill="midnightblue" stroke="midnightblue" points="808.179,-104.52 818.39,-101.693 808.645,-97.5351 808.179,-104.52"/>
</g>
</g>
</svg>
        <g id="navigator" transform="translate(0 0)" fill="#404254">
                <rect fill="#f2f5e9" fill-opacity="0.5" stroke="#606060" stroke-width=".5" x="0" y="0" width="60" height="60"/>
                <use id="zoomplus" xlink:href="#zoomPlus" x="17" y="9" onmousedown="handleZoom(evt,'in')"/>
                <use id="zoomminus" xlink:href="#zoomMin" x="42" y="9" onmousedown="handleZoom(evt,'out')"/>
                <use id="reset" xlink:href="#resetDef" x="30" y="36" onmousedown="handleReset()"/>
                <g id="arrowUp" xlink:href="#dirArrow" transform="translate(30 24)" onmousedown="handlePan(0,-1)">
                  <use xlink:href="#rim" fill="#404040">
                        <set attributeName="fill" to="#808080" begin="arrowUp.mouseover" end="arrowUp.mouseout"/>
                  </use>
                  <path fill="none" stroke="white" stroke-width="1.5" d="M0,-3.0v7 M-2.5,-0.5L0,-3.0L2.5,-0.5"/>
                </g>
                <g id="arrowRight" xlink:href="#dirArrow" transform="rotate(90) translate(36 -43)" onmousedown="handlePan(1,0)">
                  <use xlink:href="#rim" fill="#404040">
                        <set attributeName="fill" to="#808080" begin="arrowRight.mouseover" end="arrowRight.mouseout"/>
                  </use>
                  <path fill="none" stroke="white" stroke-width="1.5" d="M0,-3.0v7 M-2.5,-0.5L0,-3.0L2.5,-0.5"/>
                </g>
                <g id="arrowDown" xlink:href="#dirArrow" transform="rotate(180) translate(-30 -48)" onmousedown="handlePan(0,1)">
                  <use xlink:href="#rim" fill="#404040">
                        <set attributeName="fill" to="#808080" begin="arrowDown.mouseover" end="arrowDown.mouseout"/>
                  </use>
                  <path fill="none" stroke="white" stroke-width="1.5" d="M0,-3.0v7 M-2.5,-0.5L0,-3.0L2.5,-0.5"/>
                </g>
                <g id="arrowLeft" xlink:href="#dirArrow" transform="rotate(270) translate(-36 17)" onmousedown="handlePan(-1,0)">
                  <use xlink:href="#rim" fill="#404040">
                        <set attributeName="fill" to="#808080" begin="arrowLeft.mouseover" end="arrowLeft.mouseout"/>
                  </use>
                  <path fill="none" stroke="white" stroke-width="1.5" d="M0,-3.0v7 M-2.5,-0.5L0,-3.0L2.5,-0.5"/>
                </g>
        </g>
</svg>
