<?xml version="1.0" encoding="UTF-8" standalone="no"?>
<!DOCTYPE svg PUBLIC "-//W3C//DTD SVG 1.1//EN"
 "http://www.w3.org/Graphics/SVG/1.1/DTD/svg11.dtd">
<!-- Generated by graphviz version 2.26.3 (20100126.1600)
 -->
<!-- Title: G Pages: 1 -->
<!--zoomable 230 -->
<svg id="main" version="1.1" xmlns="http://www.w3.org/2000/svg" xmlns:xlink="http://www.w3.org/1999/xlink" xml:space="preserve" onload="init(evt)">
        <defs>
                <circle id="rim" cx="0" cy="0" r="7"/>
                <circle id="rim2" cx="0" cy="0" r="3.5"/>
                <g id="zoomPlus">
                        <use xlink:href="#rim" fill="#404040">
                                <set attributeName="fill" to="#808080" begin="zoomplus.mouseover" end="zoomplus.mouseout"/>
                        </use>
                        <path d="M-4,0h8M0,-4v8" fill="none" stroke="white" stroke-width="1.5" pointer-events="none"/>
                </g>
                <g id="zoomMin">
                        <use xlink:href="#rim" fill="#404040">
                                <set attributeName="fill" to="#808080" begin="zoomminus.mouseover" end="zoomminus.mouseout"/>
                        </use>
                        <path d="M-4,0h8" fill="none" stroke="white" stroke-width="1.5" pointer-events="none"/>
                </g>
                <g id="dirArrow">
                        <path fill="none" stroke="white" stroke-width="1.5" d="M0,-3.0v7 M-2.5,-0.5L0,-3.0L2.5,-0.5"/>
                </g>
               <g id="resetDef">
                       <use xlink:href="#rim2" fill="#404040">
                               <set attributeName="fill" to="#808080" begin="reset.mouseover" end="reset.mouseout"/>
                       </use>
               </g>
        </defs>

<script type="text/javascript">
var viewWidth = 866;
var viewHeight = 230;
var sectionId = 'dynsection-5';
</script>
<script xlink:href="svgpan.js"/>
<svg id="graph" class="graph">
<g id="viewport">
<title>G</title>
<!-- Node1 -->
<g id="node1" class="node"><title>Node1</title>
<polygon fill="#bfbfbf" stroke="black" points="0.5,-120.5 0.5,-141.5 173.5,-141.5 173.5,-120.5 0.5,-120.5"/>
<text text-anchor="middle" x="87" y="-128.5" font-family="FreeSans.ttf" font-size="10.00">UEyeCaptureInterface::getFrame</text>
</g>
<!-- Node2 -->
<g id="node3" class="node"><title>Node2</title>
<a xlink:href="classUEyeCaptureInterface.html#a9c9f03016bb718356e9d5c621829cfcc" target="_top" xlink:title="UEyeCaptureInterface::decodeData">
<polygon fill="none" stroke="black" points="229,-200.5 229,-221.5 415,-221.5 415,-200.5 229,-200.5"/>
<text text-anchor="middle" x="322" y="-208.5" font-family="FreeSans.ttf" font-size="10.00">UEyeCaptureInterface::decodeData</text>
</a>
</g>
<!-- Node1&#45;&gt;Node2 -->
<g id="edge2" class="edge"><title>Node1&#45;&gt;Node2</title>
<path fill="none" stroke="midnightblue" d="M104.677,-141.579C127.998,-155.069 170.696,-178.181 210,-191 218.55,-193.789 227.602,-196.218 236.706,-198.328"/>
<polygon fill="midnightblue" stroke="midnightblue" points="236.067,-201.771 246.584,-200.493 237.566,-194.933 236.067,-201.771"/>
</g>
<!-- Node3 -->
<g id="node5" class="node"><title>Node3</title>
<a xlink:href="classUEyeCameraDescriptor.html#a7ba5bd1801e30f2f76883830060ac167" target="_top" xlink:title="UEyeCameraDescriptor::getTemperature">
<polygon fill="none" stroke="black" points="216,-160.5 216,-181.5 428,-181.5 428,-160.5 216,-160.5"/>
<text text-anchor="middle" x="322" y="-168.5" font-family="FreeSans.ttf" font-size="10.00">UEyeCameraDescriptor::getTemperature</text>
</a>
</g>
<!-- Node1&#45;&gt;Node3 -->
<g id="edge4" class="edge"><title>Node1&#45;&gt;Node3</title>
<path fill="none" stroke="midnightblue" d="M148.743,-141.51C179.923,-146.817 217.922,-153.285 250.38,-158.809"/>
<polygon fill="midnightblue" stroke="midnightblue" points="249.816,-162.264 260.261,-160.491 250.99,-155.363 249.816,-162.264"/>
</g>
<!-- Node4 -->
<g id="node7" class="node"><title>Node4</title>
<a xlink:href="classImageCaptureInterface.html#a9f388e5583e5c13086aa9a7d3b1cfb36" target="_top" xlink:title="ImageCaptureInterface::newStatisticsReady">
<polygon fill="none" stroke="black" points="210,-120.5 210,-141.5 434,-141.5 434,-120.5 210,-120.5"/>
<text text-anchor="middle" x="322" y="-128.5" font-family="FreeSans.ttf" font-size="10.00">ImageCaptureInterface::newStatisticsReady</text>
</a>
</g>
<!-- Node1&#45;&gt;Node4 -->
<g id="edge6" class="edge"><title>Node1&#45;&gt;Node4</title>
<path fill="none" stroke="midnightblue" d="M173.504,-131C181.97,-131 190.667,-131 199.401,-131"/>
<polygon fill="midnightblue" stroke="midnightblue" points="199.661,-134.5 209.661,-131 199.661,-127.5 199.661,-134.5"/>
</g>
<!-- Node5 -->
<g id="node9" class="node"><title>Node5</title>
<a xlink:href="classBufferDescriptorType.html#a0380af10d6a37d55c31ecafa01c99384" target="_top" xlink:title="BufferDescriptorType::usecsTimeStamp">
<polygon fill="none" stroke="black" points="219.5,-80.5 219.5,-101.5 424.5,-101.5 424.5,-80.5 219.5,-80.5"/>
<text text-anchor="middle" x="322" y="-88.5" font-family="FreeSans.ttf" font-size="10.00">BufferDescriptorType::usecsTimeStamp</text>
</a>
</g>
<!-- Node1&#45;&gt;Node5 -->
<g id="edge8" class="edge"><title>Node1&#45;&gt;Node5</title>
<path fill="none" stroke="midnightblue" d="M148.743,-120.49C179.923,-115.183 217.922,-108.715 250.38,-103.191"/>
<polygon fill="midnightblue" stroke="midnightblue" points="250.99,-106.637 260.261,-101.509 249.816,-99.7364 250.99,-106.637"/>
</g>
<!-- Node6 -->
<g id="node11" class="node"><title>Node6</title>
<a xlink:href="classcorecvs_1_1PreciseTimer.html#af4f2392d369963a6786d28754d626d1b" target="_top" xlink:title="corecvs::PreciseTimer::usecsToNow">
<polygon fill="none" stroke="black" points="229.5,-40.5 229.5,-61.5 414.5,-61.5 414.5,-40.5 229.5,-40.5"/>
<text text-anchor="middle" x="322" y="-48.5" font-family="FreeSans.ttf" font-size="10.00">corecvs::PreciseTimer::usecsToNow</text>
</a>
</g>
<!-- Node1&#45;&gt;Node6 -->
<g id="edge10" class="edge"><title>Node1&#45;&gt;Node6</title>
<path fill="none" stroke="midnightblue" d="M104.677,-120.421C127.998,-106.931 170.696,-83.8191 210,-71 218.55,-68.2113 227.602,-65.782 236.706,-63.6724"/>
<polygon fill="midnightblue" stroke="midnightblue" points="237.566,-67.067 246.584,-61.5068 236.067,-60.2294 237.566,-67.067"/>
</g>
<!-- Node7 -->
<g id="node13" class="node"><title>Node7</title>
<a xlink:href="classcorecvs_1_1PreciseTimer.html#ab6fc71ad27d7bb8ed8fed6b837ac3065" target="_top" xlink:title="corecvs::PreciseTimer::isCorrect">
<polygon fill="none" stroke="black" points="478,-80.5 478,-101.5 648,-101.5 648,-80.5 478,-80.5"/>
<text text-anchor="middle" x="563" y="-88.5" font-family="FreeSans.ttf" font-size="10.00">corecvs::PreciseTimer::isCorrect</text>
</a>
</g>
<!-- Node6&#45;&gt;Node7 -->
<g id="edge12" class="edge"><title>Node6&#45;&gt;Node7</title>
<path fill="none" stroke="midnightblue" d="M385.32,-61.5095C417.296,-66.8167 456.265,-73.2846 489.551,-78.8093"/>
<polygon fill="midnightblue" stroke="midnightblue" points="489.247,-82.3066 499.685,-80.4913 490.393,-75.4011 489.247,-82.3066"/>
</g>
<!-- Node8 -->
<g id="node15" class="node"><title>Node8</title>
<a xlink:href="classcorecvs_1_1PreciseTimer.html#aeefca9626ed0efb419d7479f5d758966" target="_top" xlink:title="corecvs::PreciseTimer::usecsTo">
<polygon fill="none" stroke="black" points="481,-40.5 481,-61.5 645,-61.5 645,-40.5 481,-40.5"/>
<text text-anchor="middle" x="563" y="-48.5" font-family="FreeSans.ttf" font-size="10.00">corecvs::PreciseTimer::usecsTo</text>
</a>
</g>
<!-- Node6&#45;&gt;Node8 -->
<g id="edge14" class="edge"><title>Node6&#45;&gt;Node8</title>
<path fill="none" stroke="midnightblue" d="M414.832,-51C433.181,-51 452.434,-51 470.762,-51"/>
<polygon fill="midnightblue" stroke="midnightblue" points="470.838,-54.5001 480.838,-51 470.838,-47.5001 470.838,-54.5001"/>
</g>
<!-- Node9 -->
<g id="node17" class="node"><title>Node9</title>
<a xlink:href="classcorecvs_1_1PreciseTimer.html#ab96fc33330e59dc25e1965d692dcb3f9" target="_top" xlink:title="corecvs::PreciseTimer::currentTime">
<polygon fill="none" stroke="black" points="470.5,-0.5 470.5,-21.5 655.5,-21.5 655.5,-0.5 470.5,-0.5"/>
<text text-anchor="middle" x="563" y="-8.5" font-family="FreeSans.ttf" font-size="10.00">corecvs::PreciseTimer::currentTime</text>
</a>
</g>
<!-- Node6&#45;&gt;Node9 -->
<g id="edge16" class="edge"><title>Node6&#45;&gt;Node9</title>
<path fill="none" stroke="midnightblue" d="M385.32,-40.4905C417.296,-35.1833 456.265,-28.7154 489.551,-23.1907"/>
<polygon fill="midnightblue" stroke="midnightblue" points="490.393,-26.5989 499.685,-21.5087 489.247,-19.6934 490.393,-26.5989"/>
</g>
<!-- Node10 -->
<g id="node19" class="node"><title>Node10</title>
<a xlink:href="classcorecvs_1_1PreciseTimer.html#a8426a1a35d70c5da82bf027bfb1bee69" target="_top" xlink:title="corecvs::PreciseTimer::setTime">
<polygon fill="none" stroke="black" points="692.5,-0.5 692.5,-21.5 857.5,-21.5 857.5,-0.5 692.5,-0.5"/>
<text text-anchor="middle" x="775" y="-8.5" font-family="FreeSans.ttf" font-size="10.00">corecvs::PreciseTimer::setTime</text>
</a>
</g>
<!-- Node9&#45;&gt;Node10 -->
<g id="edge18" class="edge"><title>Node9&#45;&gt;Node10</title>
<path fill="none" stroke="midnightblue" d="M655.678,-11C664.407,-11 673.258,-11 681.99,-11"/>
<polygon fill="midnightblue" stroke="midnightblue" points="682.171,-14.5001 692.171,-11 682.171,-7.5001 682.171,-14.5001"/>
</g>
</g>
</svg>
        <g id="navigator" transform="translate(0 0)" fill="#404254">
                <rect fill="#f2f5e9" fill-opacity="0.5" stroke="#606060" stroke-width=".5" x="0" y="0" width="60" height="60"/>
                <use id="zoomplus" xlink:href="#zoomPlus" x="17" y="9" onmousedown="handleZoom(evt,'in')"/>
                <use id="zoomminus" xlink:href="#zoomMin" x="42" y="9" onmousedown="handleZoom(evt,'out')"/>
                <use id="reset" xlink:href="#resetDef" x="30" y="36" onmousedown="handleReset()"/>
                <g id="arrowUp" xlink:href="#dirArrow" transform="translate(30 24)" onmousedown="handlePan(0,-1)">
                  <use xlink:href="#rim" fill="#404040">
                        <set attributeName="fill" to="#808080" begin="arrowUp.mouseover" end="arrowUp.mouseout"/>
                  </use>
                  <path fill="none" stroke="white" stroke-width="1.5" d="M0,-3.0v7 M-2.5,-0.5L0,-3.0L2.5,-0.5"/>
                </g>
                <g id="arrowRight" xlink:href="#dirArrow" transform="rotate(90) translate(36 -43)" onmousedown="handlePan(1,0)">
                  <use xlink:href="#rim" fill="#404040">
                        <set attributeName="fill" to="#808080" begin="arrowRight.mouseover" end="arrowRight.mouseout"/>
                  </use>
                  <path fill="none" stroke="white" stroke-width="1.5" d="M0,-3.0v7 M-2.5,-0.5L0,-3.0L2.5,-0.5"/>
                </g>
                <g id="arrowDown" xlink:href="#dirArrow" transform="rotate(180) translate(-30 -48)" onmousedown="handlePan(0,1)">
                  <use xlink:href="#rim" fill="#404040">
                        <set attributeName="fill" to="#808080" begin="arrowDown.mouseover" end="arrowDown.mouseout"/>
                  </use>
                  <path fill="none" stroke="white" stroke-width="1.5" d="M0,-3.0v7 M-2.5,-0.5L0,-3.0L2.5,-0.5"/>
                </g>
                <g id="arrowLeft" xlink:href="#dirArrow" transform="rotate(270) translate(-36 17)" onmousedown="handlePan(-1,0)">
                  <use xlink:href="#rim" fill="#404040">
                        <set attributeName="fill" to="#808080" begin="arrowLeft.mouseover" end="arrowLeft.mouseout"/>
                  </use>
                  <path fill="none" stroke="white" stroke-width="1.5" d="M0,-3.0v7 M-2.5,-0.5L0,-3.0L2.5,-0.5"/>
                </g>
        </g>
</svg>
