<?xml version="1.0" encoding="UTF-8" standalone="no"?>
<!DOCTYPE svg PUBLIC "-//W3C//DTD SVG 1.1//EN"
 "http://www.w3.org/Graphics/SVG/1.1/DTD/svg11.dtd">
<!-- Generated by graphviz version 2.26.3 (20100126.1600)
 -->
<!-- Title: G Pages: 1 -->
<!--zoomable 243 -->
<svg id="main" version="1.1" xmlns="http://www.w3.org/2000/svg" xmlns:xlink="http://www.w3.org/1999/xlink" xml:space="preserve" onload="init(evt)">
        <defs>
                <circle id="rim" cx="0" cy="0" r="7"/>
                <circle id="rim2" cx="0" cy="0" r="3.5"/>
                <g id="zoomPlus">
                        <use xlink:href="#rim" fill="#404040">
                                <set attributeName="fill" to="#808080" begin="zoomplus.mouseover" end="zoomplus.mouseout"/>
                        </use>
                        <path d="M-4,0h8M0,-4v8" fill="none" stroke="white" stroke-width="1.5" pointer-events="none"/>
                </g>
                <g id="zoomMin">
                        <use xlink:href="#rim" fill="#404040">
                                <set attributeName="fill" to="#808080" begin="zoomminus.mouseover" end="zoomminus.mouseout"/>
                        </use>
                        <path d="M-4,0h8" fill="none" stroke="white" stroke-width="1.5" pointer-events="none"/>
                </g>
                <g id="dirArrow">
                        <path fill="none" stroke="white" stroke-width="1.5" d="M0,-3.0v7 M-2.5,-0.5L0,-3.0L2.5,-0.5"/>
                </g>
               <g id="resetDef">
                       <use xlink:href="#rim2" fill="#404040">
                               <set attributeName="fill" to="#808080" begin="reset.mouseover" end="reset.mouseout"/>
                       </use>
               </g>
        </defs>

<script type="text/javascript">
var viewWidth = 660;
var viewHeight = 243;
var sectionId = 'dynsection-11';
</script>
<script xlink:href="svgpan.js"/>
<svg id="graph" class="graph">
<g id="viewport">
<title>G</title>
<!-- Node1 -->
<g id="node1" class="node"><title>Node1</title>
<polygon fill="#bfbfbf" stroke="black" points="0.5,-131.5 0.5,-152.5 203.5,-152.5 203.5,-131.5 0.5,-131.5"/>
<text text-anchor="middle" x="102" y="-139.5" font-family="FreeSans.ttf" font-size="10.00">corecvs::RGB24Buffer::drawFlowBuffer1</text>
</g>
<!-- Node2 -->
<g id="node3" class="node"><title>Node2</title>
<a xlink:href="classcorecvs_1_1RGB24Buffer.html#abc609be3c25e3614285783385e53b7e9" target="_top" xlink:title="This function implements the Bresenham algorithm.">
<polygon fill="none" stroke="black" points="240.5,-191.5 240.5,-212.5 441.5,-212.5 441.5,-191.5 240.5,-191.5"/>
<text text-anchor="middle" x="341" y="-199.5" font-family="FreeSans.ttf" font-size="10.00">corecvs::RGB24Buffer::drawLineSimple</text>
</a>
</g>
<!-- Node1&#45;&gt;Node2 -->
<g id="edge2" class="edge"><title>Node1&#45;&gt;Node2</title>
<path fill="none" stroke="midnightblue" d="M135.246,-152.515C163.063,-161.1 203.888,-173.208 240,-182 250.704,-184.606 262.109,-187.116 273.255,-189.426"/>
<polygon fill="midnightblue" stroke="midnightblue" points="272.895,-192.925 283.392,-191.488 274.291,-186.065 272.895,-192.925"/>
</g>
<!-- Node3 -->
<g id="node5" class="node"><title>Node3</title>
<a xlink:href="classcorecvs_1_1AbstractBuffer.html#a98f72526738a0c4ce8a0b72a3b5c28b9" target="_top" xlink:title="The element getter.">
<polygon fill="none" stroke="black" points="478,-191.5 478,-212.5 652,-212.5 652,-191.5 478,-191.5"/>
<text text-anchor="middle" x="565" y="-199.5" font-family="FreeSans.ttf" font-size="10.00">corecvs::AbstractBuffer::element</text>
</a>
</g>
<!-- Node1&#45;&gt;Node3 -->
<g id="edge6" class="edge"><title>Node1&#45;&gt;Node3</title>
<path fill="none" stroke="midnightblue" d="M115.023,-152.778C138.325,-171.281 189.456,-208.409 240,-222 334.829,-247.499 450.603,-229.185 515.238,-214.776"/>
<polygon fill="midnightblue" stroke="midnightblue" points="516.194,-218.148 525.161,-212.504 514.632,-211.324 516.194,-218.148"/>
</g>
<!-- Node4 -->
<g id="node8" class="node"><title>Node4</title>
<a xlink:href="classcorecvs_1_1FlowBuffer.html#ab3e0bc7a8cd0eb01fd86f20de3aa5a99" target="_top" xlink:title="corecvs::FlowBuffer::isElementKnown">
<polygon fill="none" stroke="black" points="245,-151.5 245,-172.5 437,-172.5 437,-151.5 245,-151.5"/>
<text text-anchor="middle" x="341" y="-159.5" font-family="FreeSans.ttf" font-size="10.00">corecvs::FlowBuffer::isElementKnown</text>
</a>
</g>
<!-- Node1&#45;&gt;Node4 -->
<g id="edge8" class="edge"><title>Node1&#45;&gt;Node4</title>
<path fill="none" stroke="midnightblue" d="M203.704,-150.511C213.9,-151.364 224.272,-152.232 234.516,-153.089"/>
<polygon fill="midnightblue" stroke="midnightblue" points="234.448,-156.596 244.705,-153.942 235.032,-149.62 234.448,-156.596"/>
</g>
<!-- Node5 -->
<g id="node11" class="node"><title>Node5</title>
<a xlink:href="classcorecvs_1_1Vector2d.html#a944721c41f044c1388d9dc42ca899bce" target="_top" xlink:title="corecvs::Vector2d::x">
<polygon fill="none" stroke="black" points="508.5,-147.5 508.5,-168.5 621.5,-168.5 621.5,-147.5 508.5,-147.5"/>
<text text-anchor="middle" x="565" y="-155.5" font-family="FreeSans.ttf" font-size="10.00">corecvs::Vector2d::x</text>
</a>
</g>
<!-- Node1&#45;&gt;Node5 -->
<g id="edge22" class="edge"><title>Node1&#45;&gt;Node5</title>
<path fill="none" stroke="midnightblue" d="M203.65,-138.572C271.274,-137.135 362.037,-136.821 442,-142 460.313,-143.186 480.063,-145.355 498.265,-147.722"/>
<polygon fill="midnightblue" stroke="midnightblue" points="497.823,-151.194 508.199,-149.052 498.752,-144.256 497.823,-151.194"/>
</g>
<!-- Node6 -->
<g id="node13" class="node"><title>Node6</title>
<a xlink:href="classcorecvs_1_1Vector2d.html#ae1ea2ad4c0821001408bf963cffa8413" target="_top" xlink:title="corecvs::Vector2d::y">
<polygon fill="none" stroke="black" points="508.5,-98.5 508.5,-119.5 621.5,-119.5 621.5,-98.5 508.5,-98.5"/>
<text text-anchor="middle" x="565" y="-106.5" font-family="FreeSans.ttf" font-size="10.00">corecvs::Vector2d::y</text>
</a>
</g>
<!-- Node1&#45;&gt;Node6 -->
<g id="edge24" class="edge"><title>Node1&#45;&gt;Node6</title>
<path fill="none" stroke="midnightblue" d="M203.607,-134.758C293.154,-128.376 421.039,-119.261 498.227,-113.759"/>
<polygon fill="midnightblue" stroke="midnightblue" points="498.584,-117.243 508.309,-113.041 498.086,-110.26 498.584,-117.243"/>
</g>
<!-- Node7 -->
<g id="node15" class="node"><title>Node7</title>
<a xlink:href="classcorecvs_1_1RGBColor.html#a3a40b8a43b31869f5ad2eae052ebe7e2" target="_top" xlink:title="Helper method that allows to represent the double value in interval 0..1 With a color coding...">
<polygon fill="none" stroke="black" points="264.5,-35.5 264.5,-56.5 417.5,-56.5 417.5,-35.5 264.5,-35.5"/>
<text text-anchor="middle" x="341" y="-43.5" font-family="FreeSans.ttf" font-size="10.00">corecvs::RGBColor::rainbow1</text>
</a>
</g>
<!-- Node1&#45;&gt;Node7 -->
<g id="edge16" class="edge"><title>Node1&#45;&gt;Node7</title>
<path fill="none" stroke="midnightblue" d="M119.26,-131.447C144.814,-116.216 194.592,-88.0351 240,-71 252.332,-66.3736 265.832,-62.3545 278.835,-58.9721"/>
<polygon fill="midnightblue" stroke="midnightblue" points="279.806,-62.3372 288.654,-56.5101 278.103,-55.5473 279.806,-62.3372"/>
</g>
<!-- Node2&#45;&gt;Node3 -->
<g id="edge4" class="edge"><title>Node2&#45;&gt;Node3</title>
<path fill="none" stroke="midnightblue" d="M441.534,-202C450.227,-202 459.014,-202 467.682,-202"/>
<polygon fill="midnightblue" stroke="midnightblue" points="467.789,-205.5 477.789,-202 467.789,-198.5 467.789,-205.5"/>
</g>
<!-- Node4&#45;&gt;Node3 -->
<g id="edge10" class="edge"><title>Node4&#45;&gt;Node3</title>
<path fill="none" stroke="midnightblue" d="M399.853,-172.51C429.317,-177.771 465.17,-184.173 495.931,-189.666"/>
<polygon fill="midnightblue" stroke="midnightblue" points="495.692,-193.179 506.151,-191.491 496.922,-186.288 495.692,-193.179"/>
</g>
<!-- Node4&#45;&gt;Node5 -->
<g id="edge12" class="edge"><title>Node4&#45;&gt;Node5</title>
<path fill="none" stroke="midnightblue" d="M437.296,-160.28C457.801,-159.914 479.022,-159.535 498.136,-159.194"/>
<polygon fill="midnightblue" stroke="midnightblue" points="498.286,-162.692 508.222,-159.014 498.161,-155.693 498.286,-162.692"/>
</g>
<!-- Node4&#45;&gt;Node6 -->
<g id="edge14" class="edge"><title>Node4&#45;&gt;Node6</title>
<path fill="none" stroke="midnightblue" d="M385.523,-151.466C421.479,-142.958 472.229,-130.95 510.593,-121.873"/>
<polygon fill="midnightblue" stroke="midnightblue" points="511.636,-125.223 520.561,-119.515 510.024,-118.411 511.636,-125.223"/>
</g>
<!-- Node8 -->
<g id="node17" class="node"><title>Node8</title>
<a xlink:href="classcorecvs_1_1RGBColor.html#a5e8d5fe160db4c66478a86f84bfc70de" target="_top" xlink:title="corecvs::RGBColor::RGBColor">
<polygon fill="none" stroke="black" points="487.5,-0.5 487.5,-21.5 642.5,-21.5 642.5,-0.5 487.5,-0.5"/>
<text text-anchor="middle" x="565" y="-8.5" font-family="FreeSans.ttf" font-size="10.00">corecvs::RGBColor::RGBColor</text>
</a>
</g>
<!-- Node7&#45;&gt;Node8 -->
<g id="edge18" class="edge"><title>Node7&#45;&gt;Node8</title>
<path fill="none" stroke="midnightblue" d="M408.207,-35.4988C433.122,-31.6059 461.578,-27.1597 487.348,-23.1332"/>
<polygon fill="midnightblue" stroke="midnightblue" points="488.113,-26.5561 497.453,-21.5542 487.033,-19.64 488.113,-26.5561"/>
</g>
<!-- Node9 -->
<g id="node19" class="node"><title>Node9</title>
<a xlink:href="namespacecorecvs.html#a807eb76b7544bcb930b1700a58a780bd" target="_top" xlink:title="Useful round* stuff.">
<polygon fill="none" stroke="black" points="520,-40.5 520,-61.5 610,-61.5 610,-40.5 520,-40.5"/>
<text text-anchor="middle" x="565" y="-48.5" font-family="FreeSans.ttf" font-size="10.00">corecvs::fround</text>
</a>
</g>
<!-- Node7&#45;&gt;Node9 -->
<g id="edge20" class="edge"><title>Node7&#45;&gt;Node9</title>
<path fill="none" stroke="midnightblue" d="M417.775,-47.7137C447.871,-48.3855 481.746,-49.1417 509.408,-49.7591"/>
<polygon fill="midnightblue" stroke="midnightblue" points="509.609,-53.2644 519.685,-49.9885 509.766,-46.2661 509.609,-53.2644"/>
</g>
</g>
</svg>
        <g id="navigator" transform="translate(0 0)" fill="#404254">
                <rect fill="#f2f5e9" fill-opacity="0.5" stroke="#606060" stroke-width=".5" x="0" y="0" width="60" height="60"/>
                <use id="zoomplus" xlink:href="#zoomPlus" x="17" y="9" onmousedown="handleZoom(evt,'in')"/>
                <use id="zoomminus" xlink:href="#zoomMin" x="42" y="9" onmousedown="handleZoom(evt,'out')"/>
                <use id="reset" xlink:href="#resetDef" x="30" y="36" onmousedown="handleReset()"/>
                <g id="arrowUp" xlink:href="#dirArrow" transform="translate(30 24)" onmousedown="handlePan(0,-1)">
                  <use xlink:href="#rim" fill="#404040">
                        <set attributeName="fill" to="#808080" begin="arrowUp.mouseover" end="arrowUp.mouseout"/>
                  </use>
                  <path fill="none" stroke="white" stroke-width="1.5" d="M0,-3.0v7 M-2.5,-0.5L0,-3.0L2.5,-0.5"/>
                </g>
                <g id="arrowRight" xlink:href="#dirArrow" transform="rotate(90) translate(36 -43)" onmousedown="handlePan(1,0)">
                  <use xlink:href="#rim" fill="#404040">
                        <set attributeName="fill" to="#808080" begin="arrowRight.mouseover" end="arrowRight.mouseout"/>
                  </use>
                  <path fill="none" stroke="white" stroke-width="1.5" d="M0,-3.0v7 M-2.5,-0.5L0,-3.0L2.5,-0.5"/>
                </g>
                <g id="arrowDown" xlink:href="#dirArrow" transform="rotate(180) translate(-30 -48)" onmousedown="handlePan(0,1)">
                  <use xlink:href="#rim" fill="#404040">
                        <set attributeName="fill" to="#808080" begin="arrowDown.mouseover" end="arrowDown.mouseout"/>
                  </use>
                  <path fill="none" stroke="white" stroke-width="1.5" d="M0,-3.0v7 M-2.5,-0.5L0,-3.0L2.5,-0.5"/>
                </g>
                <g id="arrowLeft" xlink:href="#dirArrow" transform="rotate(270) translate(-36 17)" onmousedown="handlePan(-1,0)">
                  <use xlink:href="#rim" fill="#404040">
                        <set attributeName="fill" to="#808080" begin="arrowLeft.mouseover" end="arrowLeft.mouseout"/>
                  </use>
                  <path fill="none" stroke="white" stroke-width="1.5" d="M0,-3.0v7 M-2.5,-0.5L0,-3.0L2.5,-0.5"/>
                </g>
        </g>
</svg>
