<?xml version="1.0" encoding="UTF-8" standalone="no"?>
<!DOCTYPE svg PUBLIC "-//W3C//DTD SVG 1.1//EN"
 "http://www.w3.org/Graphics/SVG/1.1/DTD/svg11.dtd">
<!-- Generated by graphviz version 2.26.3 (20100126.1600)
 -->
<!-- Title: G Pages: 1 -->
<!--zoomable 247 -->
<svg id="main" version="1.1" xmlns="http://www.w3.org/2000/svg" xmlns:xlink="http://www.w3.org/1999/xlink" xml:space="preserve" onload="init(evt)">
        <defs>
                <circle id="rim" cx="0" cy="0" r="7"/>
                <circle id="rim2" cx="0" cy="0" r="3.5"/>
                <g id="zoomPlus">
                        <use xlink:href="#rim" fill="#404040">
                                <set attributeName="fill" to="#808080" begin="zoomplus.mouseover" end="zoomplus.mouseout"/>
                        </use>
                        <path d="M-4,0h8M0,-4v8" fill="none" stroke="white" stroke-width="1.5" pointer-events="none"/>
                </g>
                <g id="zoomMin">
                        <use xlink:href="#rim" fill="#404040">
                                <set attributeName="fill" to="#808080" begin="zoomminus.mouseover" end="zoomminus.mouseout"/>
                        </use>
                        <path d="M-4,0h8" fill="none" stroke="white" stroke-width="1.5" pointer-events="none"/>
                </g>
                <g id="dirArrow">
                        <path fill="none" stroke="white" stroke-width="1.5" d="M0,-3.0v7 M-2.5,-0.5L0,-3.0L2.5,-0.5"/>
                </g>
               <g id="resetDef">
                       <use xlink:href="#rim2" fill="#404040">
                               <set attributeName="fill" to="#808080" begin="reset.mouseover" end="reset.mouseout"/>
                       </use>
               </g>
        </defs>

<script type="text/javascript">
var viewWidth = 1712;
var viewHeight = 247;
var sectionId = 'dynsection-1';
</script>
<script xlink:href="svgpan.js"/>
<svg id="graph" class="graph">
<g id="viewport">
<title>G</title>
<!-- Node1 -->
<g id="node1" class="node"><title>Node1</title>
<polygon fill="#bfbfbf" stroke="black" points="1596,-188.5 1596,-209.5 1704,-209.5 1704,-188.5 1596,-188.5"/>
<text text-anchor="middle" x="1650" y="-196.5" font-family="FreeSans.ttf" font-size="10.00">Draw3dParameters</text>
</g>
<!-- Node2 -->
<g id="node2" class="node"><title>Node2</title>
<a xlink:href="classcorecvs_1_1BaseReflection.html" target="_top" xlink:title="corecvs::BaseReflection\&lt; Draw3dParameters \&gt;">
<polygon fill="none" stroke="black" points="937.5,-170.5 937.5,-191.5 1180.5,-191.5 1180.5,-170.5 937.5,-170.5"/>
<text text-anchor="middle" x="1059" y="-178.5" font-family="FreeSans.ttf" font-size="10.00">corecvs::BaseReflection&lt; Draw3dParameters &gt;</text>
</a>
</g>
<!-- Node2&#45;&gt;Node1 -->
<g id="edge2" class="edge"><title>Node2&#45;&gt;Node1</title>
<path fill="none" stroke="midnightblue" d="M1190.95,-185.019C1318.3,-188.897 1504.81,-194.578 1595.9,-197.352"/>
<polygon fill="midnightblue" stroke="midnightblue" points="1190.84,-181.514 1180.74,-184.708 1190.63,-188.511 1190.84,-181.514"/>
</g>
<!-- Node3 -->
<g id="node4" class="node"><title>Node3</title>
<a xlink:href="classcorecvs_1_1BaseReflectionStatic.html" target="_top" xlink:title="corecvs::BaseReflectionStatic">
<polygon fill="none" stroke="black" points="684.5,-217.5 684.5,-238.5 841.5,-238.5 841.5,-217.5 684.5,-217.5"/>
<text text-anchor="middle" x="763" y="-225.5" font-family="FreeSans.ttf" font-size="10.00">corecvs::BaseReflectionStatic</text>
</a>
</g>
<!-- Node3&#45;&gt;Node2 -->
<g id="edge4" class="edge"><title>Node3&#45;&gt;Node2</title>
<path fill="none" stroke="midnightblue" d="M839.357,-215.876C886.856,-208.334 947.331,-198.731 992.794,-191.513"/>
<polygon fill="midnightblue" stroke="midnightblue" points="838.756,-212.427 829.428,-217.452 839.853,-219.341 838.756,-212.427"/>
</g>
<!-- Node13 -->
<g id="node27" class="node"><title>Node13</title>
<a xlink:href="classcorecvs_1_1BaseReflection.html" target="_top" xlink:title="corecvs::BaseReflection\&lt; RgbColorParameters \&gt;">
<polygon fill="none" stroke="black" points="934,-210.5 934,-231.5 1184,-231.5 1184,-210.5 934,-210.5"/>
<text text-anchor="middle" x="1059" y="-218.5" font-family="FreeSans.ttf" font-size="10.00">corecvs::BaseReflection&lt; RgbColorParameters &gt;</text>
</a>
</g>
<!-- Node3&#45;&gt;Node13 -->
<g id="edge32" class="edge"><title>Node3&#45;&gt;Node13</title>
<path fill="none" stroke="midnightblue" d="M851.839,-227.951C872.876,-227.793 895.233,-227.503 916,-227 921.838,-226.858 927.809,-226.692 933.839,-226.507"/>
<polygon fill="midnightblue" stroke="midnightblue" points="851.606,-224.453 841.63,-228.019 851.653,-231.453 851.606,-224.453"/>
</g>
<!-- Node4 -->
<g id="node6" class="node"><title>Node4</title>
<a xlink:href="classcorecvs_1_1Reflection.html" target="_top" xlink:title="corecvs::Reflection">
<polygon fill="none" stroke="black" points="710.5,-116.5 710.5,-137.5 815.5,-137.5 815.5,-116.5 710.5,-116.5"/>
<text text-anchor="middle" x="763" y="-124.5" font-family="FreeSans.ttf" font-size="10.00">corecvs::Reflection</text>
</a>
</g>
<!-- Node4&#45;&gt;Node2 -->
<g id="edge6" class="edge"><title>Node4&#45;&gt;Node2</title>
<path fill="none" stroke="#9a32cd" stroke-dasharray="5,2" d="M825.76,-137.301C853.453,-141.94 886.376,-147.583 916,-153 946.111,-158.506 979.705,-165.062 1006.76,-170.446"/>
<polygon fill="#9a32cd" stroke="#9a32cd" points="826.25,-133.835 815.81,-135.64 825.097,-140.739 826.25,-133.835"/>
<text text-anchor="middle" x="888" y="-157" font-family="FreeSans.ttf" font-size="10.00"> reflection</text>
</g>
<!-- Node9 -->
<g id="node17" class="node"><title>Node9</title>
<a xlink:href="classcorecvs_1_1EmbedSubclass.html" target="_top" xlink:title="corecvs::EmbedSubclass">
<polygon fill="none" stroke="black" points="991,-54.5 991,-75.5 1127,-75.5 1127,-54.5 991,-54.5"/>
<text text-anchor="middle" x="1059" y="-62.5" font-family="FreeSans.ttf" font-size="10.00">corecvs::EmbedSubclass</text>
</a>
</g>
<!-- Node4&#45;&gt;Node9 -->
<g id="edge20" class="edge"><title>Node4&#45;&gt;Node9</title>
<path fill="none" stroke="#9a32cd" stroke-dasharray="5,2" d="M797.063,-112.708C815.42,-105.519 838.629,-97.2427 860,-92 902.834,-81.4918 951.927,-74.776 990.634,-70.6704"/>
<polygon fill="#9a32cd" stroke="#9a32cd" points="795.665,-109.497 787.675,-116.454 798.26,-115.998 795.665,-109.497"/>
<text text-anchor="middle" x="888" y="-96" font-family="FreeSans.ttf" font-size="10.00"> subclass</text>
</g>
<!-- Node4&#45;&gt;Node13 -->
<g id="edge34" class="edge"><title>Node4&#45;&gt;Node13</title>
<path fill="none" stroke="#9a32cd" stroke-dasharray="5,2" d="M792.092,-142.267C825.47,-159.143 882.273,-185.927 934,-201 946.976,-204.781 960.932,-207.9 974.648,-210.456"/>
<polygon fill="#9a32cd" stroke="#9a32cd" points="793.417,-139.014 782.92,-137.58 790.232,-145.247 793.417,-139.014"/>
<text text-anchor="middle" x="888" y="-198" font-family="FreeSans.ttf" font-size="10.00"> reflection</text>
</g>
<!-- Node5 -->
<g id="node8" class="node"><title>Node5</title>
<polygon fill="none" stroke="#bfbfbf" points="413.5,-127.5 413.5,-148.5 586.5,-148.5 586.5,-127.5 413.5,-127.5"/>
<text text-anchor="middle" x="500" y="-135.5" font-family="FreeSans.ttf" font-size="10.00">std::vector&lt; const BaseField * &gt;</text>
</g>
<!-- Node5&#45;&gt;Node4 -->
<g id="edge8" class="edge"><title>Node5&#45;&gt;Node4</title>
<path fill="none" stroke="#9a32cd" stroke-dasharray="5,2" d="M597.018,-133.942C635.382,-132.338 677.959,-130.557 710.384,-129.201"/>
<polygon fill="#9a32cd" stroke="#9a32cd" points="596.69,-130.453 586.845,-134.368 596.982,-137.447 596.69,-130.453"/>
<text text-anchor="middle" x="641" y="-136" font-family="FreeSans.ttf" font-size="10.00"> fields</text>
</g>
<!-- Node6 -->
<g id="node10" class="node"><title>Node6</title>
<a xlink:href="classcorecvs_1_1BaseField.html" target="_top" xlink:title="This class is a core class for the reflection.">
<polygon fill="none" stroke="black" points="212,-127.5 212,-148.5 316,-148.5 316,-127.5 212,-127.5"/>
<text text-anchor="middle" x="264" y="-135.5" font-family="FreeSans.ttf" font-size="10.00">corecvs::BaseField</text>
</a>
</g>
<!-- Node6&#45;&gt;Node5 -->
<g id="edge10" class="edge"><title>Node6&#45;&gt;Node5</title>
<path fill="none" stroke="#9a32cd" stroke-dasharray="5,2" d="M326.398,-138C352.994,-138 384.474,-138 413.275,-138"/>
<polygon fill="#9a32cd" stroke="#9a32cd" points="326.083,-134.5 316.083,-138 326.083,-141.5 326.083,-134.5"/>
<text text-anchor="middle" x="359" y="-142" font-family="FreeSans.ttf" font-size="10.00"> elements</text>
</g>
<!-- Node7 -->
<g id="node12" class="node"><title>Node7</title>
<a xlink:href="classcorecvs_1_1ReflectionNaming.html" target="_top" xlink:title="We have several styles of nameing.">
<polygon fill="none" stroke="black" points="0.5,-88.5 0.5,-109.5 143.5,-109.5 143.5,-88.5 0.5,-88.5"/>
<text text-anchor="middle" x="72" y="-96.5" font-family="FreeSans.ttf" font-size="10.00">corecvs::ReflectionNaming</text>
</a>
</g>
<!-- Node7&#45;&gt;Node4 -->
<g id="edge14" class="edge"><title>Node7&#45;&gt;Node4</title>
<path fill="none" stroke="#9a32cd" stroke-dasharray="5,2" d="M153.979,-101.494C257.471,-104.751 440.97,-110.882 598,-118 635.543,-119.702 677.87,-122.019 710.253,-123.875"/>
<polygon fill="#9a32cd" stroke="#9a32cd" points="154.015,-97.9939 143.91,-101.179 153.795,-104.99 154.015,-97.9939"/>
<text text-anchor="middle" x="359" y="-113" font-family="FreeSans.ttf" font-size="10.00"> name</text>
</g>
<!-- Node7&#45;&gt;Node6 -->
<g id="edge12" class="edge"><title>Node7&#45;&gt;Node6</title>
<path fill="none" stroke="#9a32cd" stroke-dasharray="5,2" d="M133.585,-111.509C158.933,-116.658 187.971,-122.557 212.203,-127.479"/>
<polygon fill="#9a32cd" stroke="#9a32cd" points="134.202,-108.063 123.705,-109.503 132.808,-114.923 134.202,-108.063"/>
<text text-anchor="middle" x="178" y="-127" font-family="FreeSans.ttf" font-size="10.00"> name</text>
</g>
<!-- Node7&#45;&gt;Node9 -->
<g id="edge22" class="edge"><title>Node7&#45;&gt;Node9</title>
<path fill="none" stroke="#9a32cd" stroke-dasharray="5,2" d="M111.944,-85.3414C150.418,-73.4153 210.496,-58 264,-58 264,-58 264,-58 763,-58 841.133,-58 930.835,-60.4678 990.822,-62.4728"/>
<polygon fill="#9a32cd" stroke="#9a32cd" points="110.642,-82.0825 102.168,-88.4415 112.758,-88.755 110.642,-82.0825"/>
<text text-anchor="middle" x="500" y="-62" font-family="FreeSans.ttf" font-size="10.00"> name</text>
</g>
<!-- Node8 -->
<g id="node15" class="node"><title>Node8</title>
<polygon fill="none" stroke="#bfbfbf" points="1270,-87.5 1270,-108.5 1474,-108.5 1474,-87.5 1270,-87.5"/>
<text text-anchor="middle" x="1372" y="-95.5" font-family="FreeSans.ttf" font-size="10.00">std::vector&lt; const EmbedSubclass * &gt;</text>
</g>
<!-- Node8&#45;&gt;Node4 -->
<g id="edge16" class="edge"><title>Node8&#45;&gt;Node4</title>
<path fill="none" stroke="#9a32cd" stroke-dasharray="5,2" d="M1259.83,-103.341C1127.82,-109.628 914.139,-119.803 815.714,-124.49"/>
<polygon fill="#9a32cd" stroke="#9a32cd" points="1260.16,-106.83 1269.98,-102.858 1259.83,-99.8378 1260.16,-106.83"/>
<text text-anchor="middle" x="1059" y="-122" font-family="FreeSans.ttf" font-size="10.00"> embeds</text>
</g>
<!-- Node9&#45;&gt;Node8 -->
<g id="edge18" class="edge"><title>Node9&#45;&gt;Node8</title>
<path fill="none" stroke="#9a32cd" stroke-dasharray="5,2" d="M1137.48,-73.274C1178.35,-77.5828 1228.75,-82.8974 1272.35,-87.4938"/>
<polygon fill="#9a32cd" stroke="#9a32cd" points="1137.61,-69.7691 1127.3,-72.2012 1136.88,-76.7305 1137.61,-69.7691"/>
<text text-anchor="middle" x="1227" y="-88" font-family="FreeSans.ttf" font-size="10.00"> elements</text>
</g>
<!-- Node10 -->
<g id="node21" class="node"><title>Node10</title>
<polygon fill="none" stroke="#bfbfbf" points="691,-4.5 691,-25.5 835,-25.5 835,-4.5 691,-4.5"/>
<text text-anchor="middle" x="763" y="-12.5" font-family="FreeSans.ttf" font-size="10.00">std::vector&lt; EmbedMap &gt;</text>
</g>
<!-- Node10&#45;&gt;Node9 -->
<g id="edge24" class="edge"><title>Node10&#45;&gt;Node9</title>
<path fill="none" stroke="#9a32cd" stroke-dasharray="5,2" d="M845.311,-21.6353C868.275,-24.0211 893.181,-27.1108 916,-31 951.847,-37.1095 992.095,-46.9523 1020.74,-54.4791"/>
<polygon fill="#9a32cd" stroke="#9a32cd" points="845.558,-18.1425 835.257,-20.622 844.856,-25.1072 845.558,-18.1425"/>
<text text-anchor="middle" x="888" y="-35" font-family="FreeSans.ttf" font-size="10.00"> renameing</text>
</g>
<!-- Node11 -->
<g id="node23" class="node"><title>Node11</title>
<a xlink:href="structcorecvs_1_1EmbedSubclass_1_1EmbedMap.html" target="_top" xlink:title="corecvs::EmbedSubclass::EmbedMap">
<polygon fill="none" stroke="black" points="402,-0.5 402,-21.5 598,-21.5 598,-0.5 402,-0.5"/>
<text text-anchor="middle" x="500" y="-8.5" font-family="FreeSans.ttf" font-size="10.00">corecvs::EmbedSubclass::EmbedMap</text>
</a>
</g>
<!-- Node11&#45;&gt;Node10 -->
<g id="edge26" class="edge"><title>Node11&#45;&gt;Node10</title>
<path fill="none" stroke="#9a32cd" stroke-dasharray="5,2" d="M608.442,-12.6493C636.154,-13.0708 665.276,-13.5137 690.676,-13.9"/>
<polygon fill="#9a32cd" stroke="#9a32cd" points="608.358,-9.14772 598.305,-12.4951 608.251,-16.1469 608.358,-9.14772"/>
<text text-anchor="middle" x="641" y="-18" font-family="FreeSans.ttf" font-size="10.00"> elements</text>
</g>
<!-- Node12 -->
<g id="node25" class="node"><title>Node12</title>
<a xlink:href="classRgbColorParameters.html" target="_top" xlink:title="rgb Color Parameters rgb Color Parameters">
<polygon fill="none" stroke="black" points="1314.5,-209.5 1314.5,-230.5 1429.5,-230.5 1429.5,-209.5 1314.5,-209.5"/>
<text text-anchor="middle" x="1372" y="-217.5" font-family="FreeSans.ttf" font-size="10.00">RgbColorParameters</text>
</a>
</g>
<!-- Node12&#45;&gt;Node1 -->
<g id="edge28" class="edge"><title>Node12&#45;&gt;Node1</title>
<path fill="none" stroke="#9a32cd" stroke-dasharray="5,2" d="M1439.59,-214.894C1487.56,-211.27 1551.12,-206.47 1595.78,-203.096"/>
<polygon fill="#9a32cd" stroke="#9a32cd" points="1439.31,-211.405 1429.6,-215.649 1439.84,-218.386 1439.31,-211.405"/>
<text text-anchor="middle" x="1535" y="-227" font-family="FreeSans.ttf" font-size="10.00"> mColor</text>
<text text-anchor="middle" x="1535" y="-214" font-family="FreeSans.ttf" font-size="10.00">mSecondaryColor</text>
</g>
<!-- Node13&#45;&gt;Node12 -->
<g id="edge30" class="edge"><title>Node13&#45;&gt;Node12</title>
<path fill="none" stroke="midnightblue" d="M1194.16,-220.568C1236.35,-220.433 1280.65,-220.292 1314.49,-220.184"/>
<polygon fill="midnightblue" stroke="midnightblue" points="1194.04,-217.068 1184.06,-220.6 1194.07,-224.068 1194.04,-217.068"/>
</g>
</g>
</svg>
        <g id="navigator" transform="translate(0 0)" fill="#404254">
                <rect fill="#f2f5e9" fill-opacity="0.5" stroke="#606060" stroke-width=".5" x="0" y="0" width="60" height="60"/>
                <use id="zoomplus" xlink:href="#zoomPlus" x="17" y="9" onmousedown="handleZoom(evt,'in')"/>
                <use id="zoomminus" xlink:href="#zoomMin" x="42" y="9" onmousedown="handleZoom(evt,'out')"/>
                <use id="reset" xlink:href="#resetDef" x="30" y="36" onmousedown="handleReset()"/>
                <g id="arrowUp" xlink:href="#dirArrow" transform="translate(30 24)" onmousedown="handlePan(0,-1)">
                  <use xlink:href="#rim" fill="#404040">
                        <set attributeName="fill" to="#808080" begin="arrowUp.mouseover" end="arrowUp.mouseout"/>
                  </use>
                  <path fill="none" stroke="white" stroke-width="1.5" d="M0,-3.0v7 M-2.5,-0.5L0,-3.0L2.5,-0.5"/>
                </g>
                <g id="arrowRight" xlink:href="#dirArrow" transform="rotate(90) translate(36 -43)" onmousedown="handlePan(1,0)">
                  <use xlink:href="#rim" fill="#404040">
                        <set attributeName="fill" to="#808080" begin="arrowRight.mouseover" end="arrowRight.mouseout"/>
                  </use>
                  <path fill="none" stroke="white" stroke-width="1.5" d="M0,-3.0v7 M-2.5,-0.5L0,-3.0L2.5,-0.5"/>
                </g>
                <g id="arrowDown" xlink:href="#dirArrow" transform="rotate(180) translate(-30 -48)" onmousedown="handlePan(0,1)">
                  <use xlink:href="#rim" fill="#404040">
                        <set attributeName="fill" to="#808080" begin="arrowDown.mouseover" end="arrowDown.mouseout"/>
                  </use>
                  <path fill="none" stroke="white" stroke-width="1.5" d="M0,-3.0v7 M-2.5,-0.5L0,-3.0L2.5,-0.5"/>
                </g>
                <g id="arrowLeft" xlink:href="#dirArrow" transform="rotate(270) translate(-36 17)" onmousedown="handlePan(-1,0)">
                  <use xlink:href="#rim" fill="#404040">
                        <set attributeName="fill" to="#808080" begin="arrowLeft.mouseover" end="arrowLeft.mouseout"/>
                  </use>
                  <path fill="none" stroke="white" stroke-width="1.5" d="M0,-3.0v7 M-2.5,-0.5L0,-3.0L2.5,-0.5"/>
                </g>
        </g>
</svg>
