<?xml version="1.0" encoding="UTF-8" standalone="no"?>
<!DOCTYPE svg PUBLIC "-//W3C//DTD SVG 1.1//EN"
 "http://www.w3.org/Graphics/SVG/1.1/DTD/svg11.dtd">
<!-- Generated by graphviz version 2.26.3 (20100126.1600)
 -->
<!-- Title: G Pages: 1 -->
<!--zoomable 110 -->
<svg id="main" version="1.1" xmlns="http://www.w3.org/2000/svg" xmlns:xlink="http://www.w3.org/1999/xlink" xml:space="preserve" onload="init(evt)">
        <defs>
                <circle id="rim" cx="0" cy="0" r="7"/>
                <circle id="rim2" cx="0" cy="0" r="3.5"/>
                <g id="zoomPlus">
                        <use xlink:href="#rim" fill="#404040">
                                <set attributeName="fill" to="#808080" begin="zoomplus.mouseover" end="zoomplus.mouseout"/>
                        </use>
                        <path d="M-4,0h8M0,-4v8" fill="none" stroke="white" stroke-width="1.5" pointer-events="none"/>
                </g>
                <g id="zoomMin">
                        <use xlink:href="#rim" fill="#404040">
                                <set attributeName="fill" to="#808080" begin="zoomminus.mouseover" end="zoomminus.mouseout"/>
                        </use>
                        <path d="M-4,0h8" fill="none" stroke="white" stroke-width="1.5" pointer-events="none"/>
                </g>
                <g id="dirArrow">
                        <path fill="none" stroke="white" stroke-width="1.5" d="M0,-3.0v7 M-2.5,-0.5L0,-3.0L2.5,-0.5"/>
                </g>
               <g id="resetDef">
                       <use xlink:href="#rim2" fill="#404040">
                               <set attributeName="fill" to="#808080" begin="reset.mouseover" end="reset.mouseout"/>
                       </use>
               </g>
        </defs>

<script type="text/javascript">
var viewWidth = 830;
var viewHeight = 110;
var sectionId = 'dynsection-5';
</script>
<script xlink:href="svgpan.js"/>
<svg id="graph" class="graph">
<g id="viewport">
<title>G</title>
<!-- Node1 -->
<g id="node1" class="node"><title>Node1</title>
<polygon fill="#bfbfbf" stroke="black" points="0,-40.5 0,-61.5 176,-61.5 176,-40.5 0,-40.5"/>
<text text-anchor="middle" x="88" y="-48.5" font-family="FreeSans.ttf" font-size="10.00">corecvs::PreciseTimerEx::elapsed</text>
</g>
<!-- Node2 -->
<g id="node3" class="node"><title>Node2</title>
<a xlink:href="classcorecvs_1_1PreciseTimer.html#af4f2392d369963a6786d28754d626d1b" target="_top" xlink:title="corecvs::PreciseTimer::usecsToNow">
<polygon fill="none" stroke="black" points="212.5,-40.5 212.5,-61.5 397.5,-61.5 397.5,-40.5 212.5,-40.5"/>
<text text-anchor="middle" x="305" y="-48.5" font-family="FreeSans.ttf" font-size="10.00">corecvs::PreciseTimer::usecsToNow</text>
</a>
</g>
<!-- Node1&#45;&gt;Node2 -->
<g id="edge2" class="edge"><title>Node1&#45;&gt;Node2</title>
<path fill="none" stroke="midnightblue" d="M176.262,-51C184.78,-51 193.471,-51 202.114,-51"/>
<polygon fill="midnightblue" stroke="midnightblue" points="202.225,-54.5001 212.225,-51 202.225,-47.5001 202.225,-54.5001"/>
</g>
<!-- Node3 -->
<g id="node5" class="node"><title>Node3</title>
<a xlink:href="classcorecvs_1_1PreciseTimer.html#ab96fc33330e59dc25e1965d692dcb3f9" target="_top" xlink:title="corecvs::PreciseTimer::currentTime">
<polygon fill="none" stroke="black" points="434.5,-80.5 434.5,-101.5 619.5,-101.5 619.5,-80.5 434.5,-80.5"/>
<text text-anchor="middle" x="527" y="-88.5" font-family="FreeSans.ttf" font-size="10.00">corecvs::PreciseTimer::currentTime</text>
</a>
</g>
<!-- Node2&#45;&gt;Node3 -->
<g id="edge4" class="edge"><title>Node2&#45;&gt;Node3</title>
<path fill="none" stroke="midnightblue" d="M363.328,-61.5095C392.529,-66.771 428.061,-73.1732 458.548,-78.6662"/>
<polygon fill="midnightblue" stroke="midnightblue" points="458.214,-82.1625 468.677,-80.4913 459.456,-75.2734 458.214,-82.1625"/>
</g>
<!-- Node5 -->
<g id="node9" class="node"><title>Node5</title>
<a xlink:href="classcorecvs_1_1PreciseTimer.html#ab6fc71ad27d7bb8ed8fed6b837ac3065" target="_top" xlink:title="corecvs::PreciseTimer::isCorrect">
<polygon fill="none" stroke="black" points="442,-40.5 442,-61.5 612,-61.5 612,-40.5 442,-40.5"/>
<text text-anchor="middle" x="527" y="-48.5" font-family="FreeSans.ttf" font-size="10.00">corecvs::PreciseTimer::isCorrect</text>
</a>
</g>
<!-- Node2&#45;&gt;Node5 -->
<g id="edge8" class="edge"><title>Node2&#45;&gt;Node5</title>
<path fill="none" stroke="midnightblue" d="M397.54,-51C408.744,-51 420.206,-51 431.453,-51"/>
<polygon fill="midnightblue" stroke="midnightblue" points="431.707,-54.5001 441.707,-51 431.707,-47.5001 431.707,-54.5001"/>
</g>
<!-- Node6 -->
<g id="node11" class="node"><title>Node6</title>
<a xlink:href="classcorecvs_1_1PreciseTimer.html#aeefca9626ed0efb419d7479f5d758966" target="_top" xlink:title="corecvs::PreciseTimer::usecsTo">
<polygon fill="none" stroke="black" points="445,-0.5 445,-21.5 609,-21.5 609,-0.5 445,-0.5"/>
<text text-anchor="middle" x="527" y="-8.5" font-family="FreeSans.ttf" font-size="10.00">corecvs::PreciseTimer::usecsTo</text>
</a>
</g>
<!-- Node2&#45;&gt;Node6 -->
<g id="edge10" class="edge"><title>Node2&#45;&gt;Node6</title>
<path fill="none" stroke="midnightblue" d="M363.328,-40.4905C392.529,-35.229 428.061,-28.8268 458.548,-23.3338"/>
<polygon fill="midnightblue" stroke="midnightblue" points="459.456,-26.7266 468.677,-21.5087 458.214,-19.8375 459.456,-26.7266"/>
</g>
<!-- Node4 -->
<g id="node7" class="node"><title>Node4</title>
<a xlink:href="classcorecvs_1_1PreciseTimer.html#a8426a1a35d70c5da82bf027bfb1bee69" target="_top" xlink:title="corecvs::PreciseTimer::setTime">
<polygon fill="none" stroke="black" points="656.5,-80.5 656.5,-101.5 821.5,-101.5 821.5,-80.5 656.5,-80.5"/>
<text text-anchor="middle" x="739" y="-88.5" font-family="FreeSans.ttf" font-size="10.00">corecvs::PreciseTimer::setTime</text>
</a>
</g>
<!-- Node3&#45;&gt;Node4 -->
<g id="edge6" class="edge"><title>Node3&#45;&gt;Node4</title>
<path fill="none" stroke="midnightblue" d="M619.678,-91C628.407,-91 637.258,-91 645.99,-91"/>
<polygon fill="midnightblue" stroke="midnightblue" points="646.171,-94.5001 656.171,-91 646.171,-87.5001 646.171,-94.5001"/>
</g>
</g>
</svg>
        <g id="navigator" transform="translate(0 0)" fill="#404254">
                <rect fill="#f2f5e9" fill-opacity="0.5" stroke="#606060" stroke-width=".5" x="0" y="0" width="60" height="60"/>
                <use id="zoomplus" xlink:href="#zoomPlus" x="17" y="9" onmousedown="handleZoom(evt,'in')"/>
                <use id="zoomminus" xlink:href="#zoomMin" x="42" y="9" onmousedown="handleZoom(evt,'out')"/>
                <use id="reset" xlink:href="#resetDef" x="30" y="36" onmousedown="handleReset()"/>
                <g id="arrowUp" xlink:href="#dirArrow" transform="translate(30 24)" onmousedown="handlePan(0,-1)">
                  <use xlink:href="#rim" fill="#404040">
                        <set attributeName="fill" to="#808080" begin="arrowUp.mouseover" end="arrowUp.mouseout"/>
                  </use>
                  <path fill="none" stroke="white" stroke-width="1.5" d="M0,-3.0v7 M-2.5,-0.5L0,-3.0L2.5,-0.5"/>
                </g>
                <g id="arrowRight" xlink:href="#dirArrow" transform="rotate(90) translate(36 -43)" onmousedown="handlePan(1,0)">
                  <use xlink:href="#rim" fill="#404040">
                        <set attributeName="fill" to="#808080" begin="arrowRight.mouseover" end="arrowRight.mouseout"/>
                  </use>
                  <path fill="none" stroke="white" stroke-width="1.5" d="M0,-3.0v7 M-2.5,-0.5L0,-3.0L2.5,-0.5"/>
                </g>
                <g id="arrowDown" xlink:href="#dirArrow" transform="rotate(180) translate(-30 -48)" onmousedown="handlePan(0,1)">
                  <use xlink:href="#rim" fill="#404040">
                        <set attributeName="fill" to="#808080" begin="arrowDown.mouseover" end="arrowDown.mouseout"/>
                  </use>
                  <path fill="none" stroke="white" stroke-width="1.5" d="M0,-3.0v7 M-2.5,-0.5L0,-3.0L2.5,-0.5"/>
                </g>
                <g id="arrowLeft" xlink:href="#dirArrow" transform="rotate(270) translate(-36 17)" onmousedown="handlePan(-1,0)">
                  <use xlink:href="#rim" fill="#404040">
                        <set attributeName="fill" to="#808080" begin="arrowLeft.mouseover" end="arrowLeft.mouseout"/>
                  </use>
                  <path fill="none" stroke="white" stroke-width="1.5" d="M0,-3.0v7 M-2.5,-0.5L0,-3.0L2.5,-0.5"/>
                </g>
        </g>
</svg>
