<?xml version="1.0" encoding="UTF-8" standalone="no"?>
<!DOCTYPE svg PUBLIC "-//W3C//DTD SVG 1.1//EN"
 "http://www.w3.org/Graphics/SVG/1.1/DTD/svg11.dtd">
<!-- Generated by graphviz version 2.26.3 (20100126.1600)
 -->
<!-- Title: G Pages: 1 -->
<!--zoomable 226 -->
<svg id="main" version="1.1" xmlns="http://www.w3.org/2000/svg" xmlns:xlink="http://www.w3.org/1999/xlink" xml:space="preserve" onload="init(evt)">
        <defs>
                <circle id="rim" cx="0" cy="0" r="7"/>
                <circle id="rim2" cx="0" cy="0" r="3.5"/>
                <g id="zoomPlus">
                        <use xlink:href="#rim" fill="#404040">
                                <set attributeName="fill" to="#808080" begin="zoomplus.mouseover" end="zoomplus.mouseout"/>
                        </use>
                        <path d="M-4,0h8M0,-4v8" fill="none" stroke="white" stroke-width="1.5" pointer-events="none"/>
                </g>
                <g id="zoomMin">
                        <use xlink:href="#rim" fill="#404040">
                                <set attributeName="fill" to="#808080" begin="zoomminus.mouseover" end="zoomminus.mouseout"/>
                        </use>
                        <path d="M-4,0h8" fill="none" stroke="white" stroke-width="1.5" pointer-events="none"/>
                </g>
                <g id="dirArrow">
                        <path fill="none" stroke="white" stroke-width="1.5" d="M0,-3.0v7 M-2.5,-0.5L0,-3.0L2.5,-0.5"/>
                </g>
               <g id="resetDef">
                       <use xlink:href="#rim2" fill="#404040">
                               <set attributeName="fill" to="#808080" begin="reset.mouseover" end="reset.mouseout"/>
                       </use>
               </g>
        </defs>

<script type="text/javascript">
var viewWidth = 1052;
var viewHeight = 226;
var sectionId = 'dynsection-5';
</script>
<script xlink:href="svgpan.js"/>
<svg id="graph" class="graph">
<g id="viewport">
<title>G</title>
<!-- Node1 -->
<g id="node1" class="node"><title>Node1</title>
<polygon fill="#bfbfbf" stroke="black" points="0.5,-157.5 0.5,-178.5 173.5,-178.5 173.5,-157.5 0.5,-157.5"/>
<text text-anchor="middle" x="87" y="-165.5" font-family="FreeSans.ttf" font-size="10.00">corecvs::Triangulator::triangulate</text>
</g>
<!-- Node2 -->
<g id="node3" class="node"><title>Node2</title>
<a xlink:href="classcorecvs_1_1EssentialDecomposition.html#a123182db14754ef75da9388905a32702" target="_top" xlink:title="Triangulation taking as input left and right 2D projective vectors of the pixel in left ( ) and right...">
<polygon fill="none" stroke="black" points="210,-196.5 210,-217.5 448,-217.5 448,-196.5 210,-196.5"/>
<text text-anchor="middle" x="329" y="-204.5" font-family="FreeSans.ttf" font-size="10.00">corecvs::EssentialDecomposition::getDistance</text>
</a>
</g>
<!-- Node1&#45;&gt;Node2 -->
<g id="edge2" class="edge"><title>Node1&#45;&gt;Node2</title>
<path fill="none" stroke="midnightblue" d="M152.17,-178.503C183.507,-183.553 221.242,-189.634 253.791,-194.88"/>
<polygon fill="midnightblue" stroke="midnightblue" points="253.284,-198.343 263.714,-196.479 254.398,-191.432 253.284,-198.343"/>
</g>
<!-- Node3 -->
<g id="node5" class="node"><title>Node3</title>
<a xlink:href="classcorecvs_1_1VectorOperationsBase.html#a8abdcdd0819e6c08bfba71b93d0fbea8" target="_top" xlink:title="Return a normalized copy of vector.">
<polygon fill="none" stroke="black" points="484,-196.5 484,-217.5 710,-217.5 710,-196.5 484,-196.5"/>
<text text-anchor="middle" x="597" y="-204.5" font-family="FreeSans.ttf" font-size="10.00">corecvs::VectorOperationsBase::normalised</text>
</a>
</g>
<!-- Node1&#45;&gt;Node3 -->
<g id="edge34" class="edge"><title>Node1&#45;&gt;Node3</title>
<path fill="none" stroke="midnightblue" d="M173.578,-170.591C246.797,-173.253 354.423,-178.271 448,-187 470.536,-189.102 494.901,-192.075 517.271,-195.087"/>
<polygon fill="midnightblue" stroke="midnightblue" points="517.013,-198.585 527.395,-196.471 517.961,-191.649 517.013,-198.585"/>
</g>
<!-- Node4 -->
<g id="node7" class="node"><title>Node4</title>
<a xlink:href="classcorecvs_1_1EssentialDecomposition.html#aa84682ff901ec37153e580a33300317e" target="_top" xlink:title="Triangulation taking as input left and right 2D projective vectors of the pixel in left ( ) and right...">
<polygon fill="none" stroke="black" points="216,-97.5 216,-118.5 442,-118.5 442,-97.5 216,-97.5"/>
<text text-anchor="middle" x="329" y="-105.5" font-family="FreeSans.ttf" font-size="10.00">corecvs::EssentialDecomposition::getScaler</text>
</a>
</g>
<!-- Node1&#45;&gt;Node4 -->
<g id="edge6" class="edge"><title>Node1&#45;&gt;Node4</title>
<path fill="none" stroke="midnightblue" d="M129.43,-157.48C170.428,-147.315 232.627,-131.894 276.674,-120.973"/>
<polygon fill="midnightblue" stroke="midnightblue" points="277.755,-124.311 286.619,-118.508 276.07,-117.517 277.755,-124.311"/>
</g>
<!-- Node2&#45;&gt;Node3 -->
<g id="edge4" class="edge"><title>Node2&#45;&gt;Node3</title>
<path fill="none" stroke="midnightblue" d="M448.109,-207C456.65,-207 465.273,-207 473.836,-207"/>
<polygon fill="midnightblue" stroke="midnightblue" points="473.852,-210.5 483.852,-207 473.852,-203.5 473.852,-210.5"/>
</g>
<!-- Node5 -->
<g id="node9" class="node"><title>Node5</title>
<a xlink:href="classcorecvs_1_1Matrix33.html#a2c9451edf48d8e58b40ceea8f0f667f0" target="_top" xlink:title="Matrix construction via 3 columns.">
<polygon fill="none" stroke="black" points="510.5,-78.5 510.5,-99.5 683.5,-99.5 683.5,-78.5 510.5,-78.5"/>
<text text-anchor="middle" x="597" y="-86.5" font-family="FreeSans.ttf" font-size="10.00">corecvs::Matrix33::FromColumns</text>
</a>
</g>
<!-- Node4&#45;&gt;Node5 -->
<g id="edge8" class="edge"><title>Node4&#45;&gt;Node5</title>
<path fill="none" stroke="midnightblue" d="M442.268,-99.9698C461.522,-98.6048 481.361,-97.1983 500.143,-95.8667"/>
<polygon fill="midnightblue" stroke="midnightblue" points="500.431,-99.3552 510.158,-95.1567 499.935,-92.3727 500.431,-99.3552"/>
</g>
<!-- Node7 -->
<g id="node13" class="node"><title>Node7</title>
<a xlink:href="classcorecvs_1_1Vector3d.html#aec83d9ad04107cd9c2bb11abf33128c0" target="_top" xlink:title="Helper functions to access elements.">
<polygon fill="none" stroke="black" points="763.5,-80.5 763.5,-101.5 876.5,-101.5 876.5,-80.5 763.5,-80.5"/>
<text text-anchor="middle" x="820" y="-88.5" font-family="FreeSans.ttf" font-size="10.00">corecvs::Vector3d::x</text>
</a>
</g>
<!-- Node4&#45;&gt;Node7 -->
<g id="edge28" class="edge"><title>Node4&#45;&gt;Node7</title>
<path fill="none" stroke="midnightblue" d="M442.142,-113.244C518.038,-115.547 620.172,-116.301 710,-109 725.044,-107.777 741.133,-105.629 756.233,-103.232"/>
<polygon fill="midnightblue" stroke="midnightblue" points="757.205,-106.619 766.503,-101.541 756.068,-99.7119 757.205,-106.619"/>
</g>
<!-- Node8 -->
<g id="node15" class="node"><title>Node8</title>
<a xlink:href="classcorecvs_1_1Vector3d.html#a940d88447f20fac800d1fa510c981275" target="_top" xlink:title="corecvs::Vector3d::y">
<polygon fill="none" stroke="black" points="763.5,-40.5 763.5,-61.5 876.5,-61.5 876.5,-40.5 763.5,-40.5"/>
<text text-anchor="middle" x="820" y="-48.5" font-family="FreeSans.ttf" font-size="10.00">corecvs::Vector3d::y</text>
</a>
</g>
<!-- Node4&#45;&gt;Node8 -->
<g id="edge30" class="edge"><title>Node4&#45;&gt;Node8</title>
<path fill="none" stroke="midnightblue" d="M362.785,-97.4907C393.93,-88.2855 441.61,-75.407 484,-69 576.712,-54.9871 685.253,-51.47 753.327,-50.7959"/>
<polygon fill="midnightblue" stroke="midnightblue" points="753.511,-54.2946 763.483,-50.7135 753.455,-47.2949 753.511,-54.2946"/>
</g>
<!-- Node9 -->
<g id="node17" class="node"><title>Node9</title>
<a xlink:href="classcorecvs_1_1Vector3d.html#a4587f5d4984576c5c4c2d44a4140ce3f" target="_top" xlink:title="corecvs::Vector3d::z">
<polygon fill="none" stroke="black" points="763.5,-0.5 763.5,-21.5 876.5,-21.5 876.5,-0.5 763.5,-0.5"/>
<text text-anchor="middle" x="820" y="-8.5" font-family="FreeSans.ttf" font-size="10.00">corecvs::Vector3d::z</text>
</a>
</g>
<!-- Node4&#45;&gt;Node9 -->
<g id="edge32" class="edge"><title>Node4&#45;&gt;Node9</title>
<path fill="none" stroke="midnightblue" d="M350.747,-97.4963C380.214,-83.7537 434.804,-60.0133 484,-48 575.644,-25.6213 684.677,-16.7582 753.128,-13.2608"/>
<polygon fill="midnightblue" stroke="midnightblue" points="753.523,-16.7458 763.341,-12.7635 753.183,-9.75406 753.523,-16.7458"/>
</g>
<!-- Node10 -->
<g id="node19" class="node"><title>Node10</title>
<a xlink:href="classcorecvs_1_1Matrix33.html#a303763def6e3cd4a08222e9fa8f6faae" target="_top" xlink:title="This function returns an inverse of the matrix.">
<polygon fill="none" stroke="black" points="537,-156.5 537,-177.5 657,-177.5 657,-156.5 537,-156.5"/>
<text text-anchor="middle" x="597" y="-164.5" font-family="FreeSans.ttf" font-size="10.00">corecvs::Matrix33::inv</text>
</a>
</g>
<!-- Node4&#45;&gt;Node10 -->
<g id="edge18" class="edge"><title>Node4&#45;&gt;Node10</title>
<path fill="none" stroke="midnightblue" d="M376.913,-118.548C422.314,-128.543 490.58,-143.572 539.028,-154.238"/>
<polygon fill="midnightblue" stroke="midnightblue" points="538.532,-157.712 549.051,-156.444 540.037,-150.876 538.532,-157.712"/>
</g>
<!-- Node6 -->
<g id="node11" class="node"><title>Node6</title>
<a xlink:href="classcorecvs_1_1Matrix33.html#a47c909b671a7ae90b386b56c8706d3a5" target="_top" xlink:title="corecvs::Matrix33::Matrix33">
<polygon fill="none" stroke="black" points="746,-120.5 746,-141.5 894,-141.5 894,-120.5 746,-120.5"/>
<text text-anchor="middle" x="820" y="-128.5" font-family="FreeSans.ttf" font-size="10.00">corecvs::Matrix33::Matrix33</text>
</a>
</g>
<!-- Node5&#45;&gt;Node6 -->
<g id="edge10" class="edge"><title>Node5&#45;&gt;Node6</title>
<path fill="none" stroke="midnightblue" d="M652.984,-99.5442C683.602,-105.311 721.719,-112.49 753.804,-118.533"/>
<polygon fill="midnightblue" stroke="midnightblue" points="753.517,-122.04 763.992,-120.452 754.813,-115.161 753.517,-122.04"/>
</g>
<!-- Node5&#45;&gt;Node7 -->
<g id="edge12" class="edge"><title>Node5&#45;&gt;Node7</title>
<path fill="none" stroke="midnightblue" d="M683.537,-89.7761C706.683,-89.9837 731.342,-90.2049 753.241,-90.4013"/>
<polygon fill="midnightblue" stroke="midnightblue" points="753.39,-93.9026 763.421,-90.4926 753.453,-86.9029 753.39,-93.9026"/>
</g>
<!-- Node5&#45;&gt;Node8 -->
<g id="edge14" class="edge"><title>Node5&#45;&gt;Node8</title>
<path fill="none" stroke="midnightblue" d="M658.822,-78.4653C688.237,-73.4529 723.45,-67.4525 753.449,-62.3405"/>
<polygon fill="midnightblue" stroke="midnightblue" points="754.137,-65.7739 763.407,-60.6437 752.961,-58.8733 754.137,-65.7739"/>
</g>
<!-- Node5&#45;&gt;Node9 -->
<g id="edge16" class="edge"><title>Node5&#45;&gt;Node9</title>
<path fill="none" stroke="midnightblue" d="M621.748,-78.4235C651.073,-66.1122 701.566,-45.6063 746,-31 753.12,-28.6594 760.689,-26.3807 768.165,-24.2499"/>
<polygon fill="midnightblue" stroke="midnightblue" points="769.199,-27.5953 777.893,-21.5412 767.321,-20.8519 769.199,-27.5953"/>
</g>
<!-- Node10&#45;&gt;Node6 -->
<g id="edge26" class="edge"><title>Node10&#45;&gt;Node6</title>
<path fill="none" stroke="midnightblue" d="M657.053,-157.305C684.056,-152.946 716.215,-147.755 744.801,-143.14"/>
<polygon fill="midnightblue" stroke="midnightblue" points="745.434,-146.583 754.748,-141.534 744.318,-139.672 745.434,-146.583"/>
</g>
<!-- Node11 -->
<g id="node21" class="node"><title>Node11</title>
<a xlink:href="classcorecvs_1_1Matrix33.html#a8596ffc77b92da2876c22900c02e9bec" target="_top" xlink:title="Geting Matrix element functions block.">
<polygon fill="none" stroke="black" points="930.5,-179.5 930.5,-200.5 1043.5,-200.5 1043.5,-179.5 930.5,-179.5"/>
<text text-anchor="middle" x="987" y="-187.5" font-family="FreeSans.ttf" font-size="10.00">corecvs::Matrix33::a</text>
</a>
</g>
<!-- Node10&#45;&gt;Node11 -->
<g id="edge20" class="edge"><title>Node10&#45;&gt;Node11</title>
<path fill="none" stroke="midnightblue" d="M656.26,-177.533C689.982,-183.331 728.827,-189.626 746,-191 811.568,-196.247 828.223,-191.354 894,-191 902.472,-190.954 911.378,-190.886 920.184,-190.805"/>
<polygon fill="midnightblue" stroke="midnightblue" points="920.478,-194.302 930.443,-190.705 920.41,-187.303 920.478,-194.302"/>
</g>
<!-- Node12 -->
<g id="node23" class="node"><title>Node12</title>
<a xlink:href="classcorecvs_1_1Matrix33.html#a960edd556c9c44ce0b045f702153836e" target="_top" xlink:title="Computing determinant of the matrix.">
<polygon fill="none" stroke="black" points="759,-160.5 759,-181.5 881,-181.5 881,-160.5 759,-160.5"/>
<text text-anchor="middle" x="820" y="-168.5" font-family="FreeSans.ttf" font-size="10.00">corecvs::Matrix33::det</text>
</a>
</g>
<!-- Node10&#45;&gt;Node12 -->
<g id="edge22" class="edge"><title>Node10&#45;&gt;Node12</title>
<path fill="none" stroke="midnightblue" d="M657.053,-168.077C685.21,-168.582 718.973,-169.188 748.445,-169.717"/>
<polygon fill="midnightblue" stroke="midnightblue" points="748.614,-173.22 758.675,-169.9 748.739,-166.221 748.614,-173.22"/>
</g>
<!-- Node12&#45;&gt;Node11 -->
<g id="edge24" class="edge"><title>Node12&#45;&gt;Node11</title>
<path fill="none" stroke="midnightblue" d="M881.236,-177.967C893.944,-179.413 907.393,-180.943 920.286,-182.41"/>
<polygon fill="midnightblue" stroke="midnightblue" points="920.15,-185.917 930.481,-183.57 920.941,-178.962 920.15,-185.917"/>
</g>
</g>
</svg>
        <g id="navigator" transform="translate(0 0)" fill="#404254">
                <rect fill="#f2f5e9" fill-opacity="0.5" stroke="#606060" stroke-width=".5" x="0" y="0" width="60" height="60"/>
                <use id="zoomplus" xlink:href="#zoomPlus" x="17" y="9" onmousedown="handleZoom(evt,'in')"/>
                <use id="zoomminus" xlink:href="#zoomMin" x="42" y="9" onmousedown="handleZoom(evt,'out')"/>
                <use id="reset" xlink:href="#resetDef" x="30" y="36" onmousedown="handleReset()"/>
                <g id="arrowUp" xlink:href="#dirArrow" transform="translate(30 24)" onmousedown="handlePan(0,-1)">
                  <use xlink:href="#rim" fill="#404040">
                        <set attributeName="fill" to="#808080" begin="arrowUp.mouseover" end="arrowUp.mouseout"/>
                  </use>
                  <path fill="none" stroke="white" stroke-width="1.5" d="M0,-3.0v7 M-2.5,-0.5L0,-3.0L2.5,-0.5"/>
                </g>
                <g id="arrowRight" xlink:href="#dirArrow" transform="rotate(90) translate(36 -43)" onmousedown="handlePan(1,0)">
                  <use xlink:href="#rim" fill="#404040">
                        <set attributeName="fill" to="#808080" begin="arrowRight.mouseover" end="arrowRight.mouseout"/>
                  </use>
                  <path fill="none" stroke="white" stroke-width="1.5" d="M0,-3.0v7 M-2.5,-0.5L0,-3.0L2.5,-0.5"/>
                </g>
                <g id="arrowDown" xlink:href="#dirArrow" transform="rotate(180) translate(-30 -48)" onmousedown="handlePan(0,1)">
                  <use xlink:href="#rim" fill="#404040">
                        <set attributeName="fill" to="#808080" begin="arrowDown.mouseover" end="arrowDown.mouseout"/>
                  </use>
                  <path fill="none" stroke="white" stroke-width="1.5" d="M0,-3.0v7 M-2.5,-0.5L0,-3.0L2.5,-0.5"/>
                </g>
                <g id="arrowLeft" xlink:href="#dirArrow" transform="rotate(270) translate(-36 17)" onmousedown="handlePan(-1,0)">
                  <use xlink:href="#rim" fill="#404040">
                        <set attributeName="fill" to="#808080" begin="arrowLeft.mouseover" end="arrowLeft.mouseout"/>
                  </use>
                  <path fill="none" stroke="white" stroke-width="1.5" d="M0,-3.0v7 M-2.5,-0.5L0,-3.0L2.5,-0.5"/>
                </g>
        </g>
</svg>
