<?xml version="1.0" encoding="UTF-8" standalone="no"?>
<!DOCTYPE svg PUBLIC "-//W3C//DTD SVG 1.1//EN"
 "http://www.w3.org/Graphics/SVG/1.1/DTD/svg11.dtd">
<!-- Generated by graphviz version 2.26.3 (20100126.1600)
 -->
<!-- Title: G Pages: 1 -->
<!--zoomable 190 -->
<svg id="main" version="1.1" xmlns="http://www.w3.org/2000/svg" xmlns:xlink="http://www.w3.org/1999/xlink" xml:space="preserve" onload="init(evt)">
        <defs>
                <circle id="rim" cx="0" cy="0" r="7"/>
                <circle id="rim2" cx="0" cy="0" r="3.5"/>
                <g id="zoomPlus">
                        <use xlink:href="#rim" fill="#404040">
                                <set attributeName="fill" to="#808080" begin="zoomplus.mouseover" end="zoomplus.mouseout"/>
                        </use>
                        <path d="M-4,0h8M0,-4v8" fill="none" stroke="white" stroke-width="1.5" pointer-events="none"/>
                </g>
                <g id="zoomMin">
                        <use xlink:href="#rim" fill="#404040">
                                <set attributeName="fill" to="#808080" begin="zoomminus.mouseover" end="zoomminus.mouseout"/>
                        </use>
                        <path d="M-4,0h8" fill="none" stroke="white" stroke-width="1.5" pointer-events="none"/>
                </g>
                <g id="dirArrow">
                        <path fill="none" stroke="white" stroke-width="1.5" d="M0,-3.0v7 M-2.5,-0.5L0,-3.0L2.5,-0.5"/>
                </g>
               <g id="resetDef">
                       <use xlink:href="#rim2" fill="#404040">
                               <set attributeName="fill" to="#808080" begin="reset.mouseover" end="reset.mouseout"/>
                       </use>
               </g>
        </defs>

<script type="text/javascript">
var viewWidth = 710;
var viewHeight = 190;
var sectionId = 'dynsection-2';
</script>
<script xlink:href="svgpan.js"/>
<svg id="graph" class="graph">
<g id="viewport">
<title>G</title>
<!-- Node1 -->
<g id="node1" class="node"><title>Node1</title>
<polygon fill="#bfbfbf" stroke="black" points="0,-80.5 0,-101.5 272,-101.5 272,-80.5 0,-80.5"/>
<text text-anchor="middle" x="136" y="-88.5" font-family="FreeSans.ttf" font-size="10.00">DirectShowCameraDescriptor::setFromCameraParam</text>
</g>
<!-- Node2 -->
<g id="node3" class="node"><title>Node2</title>
<a xlink:href="classCaptureParameter.html#adadfa7fa5b4a82d750f7d2c4e93a6101" target="_top" xlink:title="CaptureParameter::setActive">
<polygon fill="none" stroke="black" points="324.5,-160.5 324.5,-181.5 479.5,-181.5 479.5,-160.5 324.5,-160.5"/>
<text text-anchor="middle" x="402" y="-168.5" font-family="FreeSans.ttf" font-size="10.00">CaptureParameter::setActive</text>
</a>
</g>
<!-- Node1&#45;&gt;Node2 -->
<g id="edge2" class="edge"><title>Node1&#45;&gt;Node2</title>
<path fill="none" stroke="midnightblue" d="M162.775,-101.522C196.324,-114.431 255.765,-136.395 308,-151 317.183,-153.568 326.95,-155.985 336.584,-158.193"/>
<polygon fill="midnightblue" stroke="midnightblue" points="336.022,-161.653 346.544,-160.414 337.545,-154.821 336.022,-161.653"/>
</g>
<!-- Node4 -->
<g id="node7" class="node"><title>Node4</title>
<a xlink:href="classCaptureParameter.html#a2baf31448c9e2254580a5f116e68a740" target="_top" xlink:title="CaptureParameter::setDefaultValue">
<polygon fill="none" stroke="black" points="308.5,-120.5 308.5,-141.5 495.5,-141.5 495.5,-120.5 308.5,-120.5"/>
<text text-anchor="middle" x="402" y="-128.5" font-family="FreeSans.ttf" font-size="10.00">CaptureParameter::setDefaultValue</text>
</a>
</g>
<!-- Node1&#45;&gt;Node4 -->
<g id="edge6" class="edge"><title>Node1&#45;&gt;Node4</title>
<path fill="none" stroke="midnightblue" d="M205.888,-101.51C241.485,-106.862 284.935,-113.396 321.881,-118.952"/>
<polygon fill="midnightblue" stroke="midnightblue" points="321.708,-122.465 332.117,-120.491 322.749,-115.543 321.708,-122.465"/>
</g>
<!-- Node6 -->
<g id="node11" class="node"><title>Node6</title>
<a xlink:href="classCaptureParameter.html#a2e1fea1aaad74ddd12a634970ff3044b" target="_top" xlink:title="CaptureParameter::setMaximum">
<polygon fill="none" stroke="black" points="315.5,-80.5 315.5,-101.5 488.5,-101.5 488.5,-80.5 315.5,-80.5"/>
<text text-anchor="middle" x="402" y="-88.5" font-family="FreeSans.ttf" font-size="10.00">CaptureParameter::setMaximum</text>
</a>
</g>
<!-- Node1&#45;&gt;Node6 -->
<g id="edge10" class="edge"><title>Node1&#45;&gt;Node6</title>
<path fill="none" stroke="midnightblue" d="M272.117,-91C283.256,-91 294.367,-91 305.135,-91"/>
<polygon fill="midnightblue" stroke="midnightblue" points="305.344,-94.5001 315.344,-91 305.344,-87.5001 305.344,-94.5001"/>
</g>
<!-- Node8 -->
<g id="node15" class="node"><title>Node8</title>
<a xlink:href="classCaptureParameter.html#ab969e3abfe3a2f60fc33b545b7ab7790" target="_top" xlink:title="CaptureParameter::setMinimum">
<polygon fill="none" stroke="black" points="317,-40.5 317,-61.5 487,-61.5 487,-40.5 317,-40.5"/>
<text text-anchor="middle" x="402" y="-48.5" font-family="FreeSans.ttf" font-size="10.00">CaptureParameter::setMinimum</text>
</a>
</g>
<!-- Node1&#45;&gt;Node8 -->
<g id="edge14" class="edge"><title>Node1&#45;&gt;Node8</title>
<path fill="none" stroke="midnightblue" d="M205.888,-80.4905C241.485,-75.1375 284.935,-68.6038 321.881,-63.048"/>
<polygon fill="midnightblue" stroke="midnightblue" points="322.749,-66.4569 332.117,-61.5087 321.708,-59.5347 322.749,-66.4569"/>
</g>
<!-- Node10 -->
<g id="node19" class="node"><title>Node10</title>
<a xlink:href="classCaptureParameter.html#a4a8384fd43ad3a5fda0a9c01f06d306a" target="_top" xlink:title="CaptureParameter::setStep">
<polygon fill="none" stroke="black" points="327.5,-0.5 327.5,-21.5 476.5,-21.5 476.5,-0.5 327.5,-0.5"/>
<text text-anchor="middle" x="402" y="-8.5" font-family="FreeSans.ttf" font-size="10.00">CaptureParameter::setStep</text>
</a>
</g>
<!-- Node1&#45;&gt;Node10 -->
<g id="edge18" class="edge"><title>Node1&#45;&gt;Node10</title>
<path fill="none" stroke="midnightblue" d="M162.775,-80.4779C196.324,-67.5693 255.765,-45.605 308,-31 317.183,-28.4325 326.95,-26.0146 336.584,-23.8074"/>
<polygon fill="midnightblue" stroke="midnightblue" points="337.545,-27.179 346.544,-21.5863 336.022,-20.3468 337.545,-27.179"/>
</g>
<!-- Node3 -->
<g id="node5" class="node"><title>Node3</title>
<a xlink:href="classCaptureParameter.html#a78517c84a35419cd0840911c7229bf67" target="_top" xlink:title="CaptureParameter::active">
<polygon fill="none" stroke="black" points="547,-160.5 547,-181.5 687,-181.5 687,-160.5 547,-160.5"/>
<text text-anchor="middle" x="617" y="-168.5" font-family="FreeSans.ttf" font-size="10.00">CaptureParameter::active</text>
</a>
</g>
<!-- Node2&#45;&gt;Node3 -->
<g id="edge4" class="edge"><title>Node2&#45;&gt;Node3</title>
<path fill="none" stroke="midnightblue" d="M479.62,-171C498.192,-171 518.057,-171 536.745,-171"/>
<polygon fill="midnightblue" stroke="midnightblue" points="536.991,-174.5 546.991,-171 536.991,-167.5 536.991,-174.5"/>
</g>
<!-- Node5 -->
<g id="node9" class="node"><title>Node5</title>
<a xlink:href="classCaptureParameter.html#a0848010609c9a68579d1a00d4f7c1abb" target="_top" xlink:title="CaptureParameter::defaultValue">
<polygon fill="none" stroke="black" points="532,-120.5 532,-141.5 702,-141.5 702,-120.5 532,-120.5"/>
<text text-anchor="middle" x="617" y="-128.5" font-family="FreeSans.ttf" font-size="10.00">CaptureParameter::defaultValue</text>
</a>
</g>
<!-- Node4&#45;&gt;Node5 -->
<g id="edge8" class="edge"><title>Node4&#45;&gt;Node5</title>
<path fill="none" stroke="midnightblue" d="M495.677,-131C504.298,-131 513.04,-131 521.676,-131"/>
<polygon fill="midnightblue" stroke="midnightblue" points="521.751,-134.5 531.751,-131 521.751,-127.5 521.751,-134.5"/>
</g>
<!-- Node7 -->
<g id="node13" class="node"><title>Node7</title>
<a xlink:href="classCaptureParameter.html#ae8e96136a9ec0d75c254595976c55dd1" target="_top" xlink:title="CaptureParameter::maximum">
<polygon fill="none" stroke="black" points="537,-80.5 537,-101.5 697,-101.5 697,-80.5 537,-80.5"/>
<text text-anchor="middle" x="617" y="-88.5" font-family="FreeSans.ttf" font-size="10.00">CaptureParameter::maximum</text>
</a>
</g>
<!-- Node6&#45;&gt;Node7 -->
<g id="edge12" class="edge"><title>Node6&#45;&gt;Node7</title>
<path fill="none" stroke="midnightblue" d="M488.519,-91C501.133,-91 514.148,-91 526.832,-91"/>
<polygon fill="midnightblue" stroke="midnightblue" points="526.92,-94.5001 536.92,-91 526.92,-87.5001 526.92,-94.5001"/>
</g>
<!-- Node9 -->
<g id="node17" class="node"><title>Node9</title>
<a xlink:href="classCaptureParameter.html#a5f3b87a3528b27b3b9976a7741b89a21" target="_top" xlink:title="CaptureParameter::minimum">
<polygon fill="none" stroke="black" points="538.5,-40.5 538.5,-61.5 695.5,-61.5 695.5,-40.5 538.5,-40.5"/>
<text text-anchor="middle" x="617" y="-48.5" font-family="FreeSans.ttf" font-size="10.00">CaptureParameter::minimum</text>
</a>
</g>
<!-- Node8&#45;&gt;Node9 -->
<g id="edge16" class="edge"><title>Node8&#45;&gt;Node9</title>
<path fill="none" stroke="midnightblue" d="M487.282,-51C500.736,-51 514.674,-51 528.205,-51"/>
<polygon fill="midnightblue" stroke="midnightblue" points="528.458,-54.5001 538.458,-51 528.458,-47.5001 528.458,-54.5001"/>
</g>
<!-- Node11 -->
<g id="node21" class="node"><title>Node11</title>
<a xlink:href="classCaptureParameter.html#a10d64cccf4901e157fb6cec1deaeb0f3" target="_top" xlink:title="CaptureParameter::step">
<polygon fill="none" stroke="black" points="551,-0.5 551,-21.5 683,-21.5 683,-0.5 551,-0.5"/>
<text text-anchor="middle" x="617" y="-8.5" font-family="FreeSans.ttf" font-size="10.00">CaptureParameter::step</text>
</a>
</g>
<!-- Node10&#45;&gt;Node11 -->
<g id="edge20" class="edge"><title>Node10&#45;&gt;Node11</title>
<path fill="none" stroke="midnightblue" d="M476.593,-11C497.335,-11 519.885,-11 540.721,-11"/>
<polygon fill="midnightblue" stroke="midnightblue" points="540.797,-14.5001 550.797,-11 540.797,-7.5001 540.797,-14.5001"/>
</g>
</g>
</svg>
        <g id="navigator" transform="translate(0 0)" fill="#404254">
                <rect fill="#f2f5e9" fill-opacity="0.5" stroke="#606060" stroke-width=".5" x="0" y="0" width="60" height="60"/>
                <use id="zoomplus" xlink:href="#zoomPlus" x="17" y="9" onmousedown="handleZoom(evt,'in')"/>
                <use id="zoomminus" xlink:href="#zoomMin" x="42" y="9" onmousedown="handleZoom(evt,'out')"/>
                <use id="reset" xlink:href="#resetDef" x="30" y="36" onmousedown="handleReset()"/>
                <g id="arrowUp" xlink:href="#dirArrow" transform="translate(30 24)" onmousedown="handlePan(0,-1)">
                  <use xlink:href="#rim" fill="#404040">
                        <set attributeName="fill" to="#808080" begin="arrowUp.mouseover" end="arrowUp.mouseout"/>
                  </use>
                  <path fill="none" stroke="white" stroke-width="1.5" d="M0,-3.0v7 M-2.5,-0.5L0,-3.0L2.5,-0.5"/>
                </g>
                <g id="arrowRight" xlink:href="#dirArrow" transform="rotate(90) translate(36 -43)" onmousedown="handlePan(1,0)">
                  <use xlink:href="#rim" fill="#404040">
                        <set attributeName="fill" to="#808080" begin="arrowRight.mouseover" end="arrowRight.mouseout"/>
                  </use>
                  <path fill="none" stroke="white" stroke-width="1.5" d="M0,-3.0v7 M-2.5,-0.5L0,-3.0L2.5,-0.5"/>
                </g>
                <g id="arrowDown" xlink:href="#dirArrow" transform="rotate(180) translate(-30 -48)" onmousedown="handlePan(0,1)">
                  <use xlink:href="#rim" fill="#404040">
                        <set attributeName="fill" to="#808080" begin="arrowDown.mouseover" end="arrowDown.mouseout"/>
                  </use>
                  <path fill="none" stroke="white" stroke-width="1.5" d="M0,-3.0v7 M-2.5,-0.5L0,-3.0L2.5,-0.5"/>
                </g>
                <g id="arrowLeft" xlink:href="#dirArrow" transform="rotate(270) translate(-36 17)" onmousedown="handlePan(-1,0)">
                  <use xlink:href="#rim" fill="#404040">
                        <set attributeName="fill" to="#808080" begin="arrowLeft.mouseover" end="arrowLeft.mouseout"/>
                  </use>
                  <path fill="none" stroke="white" stroke-width="1.5" d="M0,-3.0v7 M-2.5,-0.5L0,-3.0L2.5,-0.5"/>
                </g>
        </g>
</svg>
