<?xml version="1.0" encoding="UTF-8" standalone="no"?>
<!DOCTYPE svg PUBLIC "-//W3C//DTD SVG 1.1//EN"
 "http://www.w3.org/Graphics/SVG/1.1/DTD/svg11.dtd">
<!-- Generated by graphviz version 2.26.3 (20100126.1600)
 -->
<!-- Title: G Pages: 1 -->
<!--zoomable 390 -->
<svg id="main" version="1.1" xmlns="http://www.w3.org/2000/svg" xmlns:xlink="http://www.w3.org/1999/xlink" xml:space="preserve" onload="init(evt)">
        <defs>
                <circle id="rim" cx="0" cy="0" r="7"/>
                <circle id="rim2" cx="0" cy="0" r="3.5"/>
                <g id="zoomPlus">
                        <use xlink:href="#rim" fill="#404040">
                                <set attributeName="fill" to="#808080" begin="zoomplus.mouseover" end="zoomplus.mouseout"/>
                        </use>
                        <path d="M-4,0h8M0,-4v8" fill="none" stroke="white" stroke-width="1.5" pointer-events="none"/>
                </g>
                <g id="zoomMin">
                        <use xlink:href="#rim" fill="#404040">
                                <set attributeName="fill" to="#808080" begin="zoomminus.mouseover" end="zoomminus.mouseout"/>
                        </use>
                        <path d="M-4,0h8" fill="none" stroke="white" stroke-width="1.5" pointer-events="none"/>
                </g>
                <g id="dirArrow">
                        <path fill="none" stroke="white" stroke-width="1.5" d="M0,-3.0v7 M-2.5,-0.5L0,-3.0L2.5,-0.5"/>
                </g>
               <g id="resetDef">
                       <use xlink:href="#rim2" fill="#404040">
                               <set attributeName="fill" to="#808080" begin="reset.mouseover" end="reset.mouseout"/>
                       </use>
               </g>
        </defs>

<script type="text/javascript">
var viewWidth = 1036;
var viewHeight = 390;
var sectionId = 'dynsection-18';
</script>
<script xlink:href="svgpan.js"/>
<svg id="graph" class="graph">
<g id="viewport">
<title>G</title>
<!-- Node1 -->
<g id="node1" class="node"><title>Node1</title>
<polygon fill="#bfbfbf" stroke="black" points="0,-140.5 0,-161.5 206,-161.5 206,-140.5 0,-140.5"/>
<text text-anchor="middle" x="103" y="-148.5" font-family="FreeSans.ttf" font-size="10.00">DistortionWidget::updateAdditionalData</text>
</g>
<!-- Node2 -->
<g id="node3" class="node"><title>Node2</title>
<a xlink:href="classGraphPlotDialog.html#aa9919d91a1219eb290eded597c3f230a" target="_top" xlink:title="GraphPlotDialog::addGraphPoint">
<polygon fill="none" stroke="black" points="261.5,-320.5 261.5,-341.5 432.5,-341.5 432.5,-320.5 261.5,-320.5"/>
<text text-anchor="middle" x="347" y="-328.5" font-family="FreeSans.ttf" font-size="10.00">GraphPlotDialog::addGraphPoint</text>
</a>
</g>
<!-- Node1&#45;&gt;Node2 -->
<g id="edge2" class="edge"><title>Node1&#45;&gt;Node2</title>
<path fill="none" stroke="midnightblue" d="M113.921,-161.739C136.608,-183.743 190.987,-234.914 242,-271 266.039,-288.005 295.252,-304.385 316.756,-315.722"/>
<polygon fill="midnightblue" stroke="midnightblue" points="315.268,-318.893 325.754,-320.409 318.502,-312.685 315.268,-318.893"/>
</g>
<!-- Node5 -->
<g id="node9" class="node"><title>Node5</title>
<a xlink:href="classcorecvs_1_1RGB24Buffer.html#af1eea99d617a211ad0e57c9f32153d7d" target="_top" xlink:title="corecvs::RGB24Buffer::drawIsolines">
<polygon fill="none" stroke="black" points="255,-240.5 255,-261.5 439,-261.5 439,-240.5 255,-240.5"/>
<text text-anchor="middle" x="347" y="-248.5" font-family="FreeSans.ttf" font-size="10.00">corecvs::RGB24Buffer::drawIsolines</text>
</a>
</g>
<!-- Node1&#45;&gt;Node5 -->
<g id="edge8" class="edge"><title>Node1&#45;&gt;Node5</title>
<path fill="none" stroke="midnightblue" d="M117.604,-161.633C142.069,-178.918 193.445,-212.988 242,-231 249.218,-233.677 256.853,-236.012 264.582,-238.045"/>
<polygon fill="midnightblue" stroke="midnightblue" points="263.85,-241.47 274.397,-240.462 265.524,-234.673 263.85,-241.47"/>
</g>
<!-- Node10 -->
<g id="node19" class="node"><title>Node10</title>
<a xlink:href="classcorecvs_1_1VectorOperationsBase.html#acfcd4bcc60d1d076b00afcfeba9f9e8b" target="_top" xlink:title="Euclidean distance.">
<polygon fill="none" stroke="black" points="242,-200.5 242,-221.5 452,-221.5 452,-200.5 242,-200.5"/>
<text text-anchor="middle" x="347" y="-208.5" font-family="FreeSans.ttf" font-size="10.00">corecvs::VectorOperationsBase::l2Metric</text>
</a>
</g>
<!-- Node1&#45;&gt;Node10 -->
<g id="edge18" class="edge"><title>Node1&#45;&gt;Node10</title>
<path fill="none" stroke="midnightblue" d="M136.476,-161.571C164.489,-170.191 205.606,-182.317 242,-191 253.099,-193.648 264.923,-196.178 276.485,-198.493"/>
<polygon fill="midnightblue" stroke="midnightblue" points="276.066,-201.978 286.553,-200.471 277.415,-195.109 276.066,-201.978"/>
</g>
<!-- Node11 -->
<g id="node21" class="node"><title>Node11</title>
<a xlink:href="classcorecvs_1_1RadialCorrection.html#a0390787ab3d7567171a68f9cf0d2d0e4" target="_top" xlink:title="corecvs::RadialCorrection::radialScale">
<polygon fill="none" stroke="black" points="249,-160.5 249,-181.5 445,-181.5 445,-160.5 249,-160.5"/>
<text text-anchor="middle" x="347" y="-168.5" font-family="FreeSans.ttf" font-size="10.00">corecvs::RadialCorrection::radialScale</text>
</a>
</g>
<!-- Node1&#45;&gt;Node11 -->
<g id="edge20" class="edge"><title>Node1&#45;&gt;Node11</title>
<path fill="none" stroke="midnightblue" d="M206.124,-159.453C216.868,-160.333 227.812,-161.23 238.611,-162.116"/>
<polygon fill="midnightblue" stroke="midnightblue" points="238.658,-165.631 248.91,-162.96 239.229,-158.655 238.658,-165.631"/>
</g>
<!-- Node12 -->
<g id="node23" class="node"><title>Node12</title>
<a xlink:href="classAdvancedImageWidget.html#a365f213bdb320f2392d2693d6931abdd" target="_top" xlink:title="AdvancedImageWidget::setImage">
<polygon fill="none" stroke="black" points="258.5,-120.5 258.5,-141.5 435.5,-141.5 435.5,-120.5 258.5,-120.5"/>
<text text-anchor="middle" x="347" y="-128.5" font-family="FreeSans.ttf" font-size="10.00">AdvancedImageWidget::setImage</text>
</a>
</g>
<!-- Node1&#45;&gt;Node12 -->
<g id="edge22" class="edge"><title>Node1&#45;&gt;Node12</title>
<path fill="none" stroke="midnightblue" d="M206.124,-142.547C220.044,-141.406 234.3,-140.238 248.143,-139.103"/>
<polygon fill="midnightblue" stroke="midnightblue" points="248.459,-142.589 258.14,-138.284 247.887,-135.612 248.459,-142.589"/>
</g>
<!-- Node19 -->
<g id="node37" class="node"><title>Node19</title>
<a xlink:href="classGraphPlotDialog.html#a7ac2613d55686a6e35815b667c77d9fd" target="_top" xlink:title="GraphPlotDialog::update">
<polygon fill="none" stroke="black" points="280,-80.5 280,-101.5 414,-101.5 414,-80.5 280,-80.5"/>
<text text-anchor="middle" x="347" y="-88.5" font-family="FreeSans.ttf" font-size="10.00">GraphPlotDialog::update</text>
</a>
</g>
<!-- Node1&#45;&gt;Node19 -->
<g id="edge36" class="edge"><title>Node1&#45;&gt;Node19</title>
<path fill="none" stroke="midnightblue" d="M136.476,-140.429C164.489,-131.809 205.606,-119.683 242,-111 253.099,-108.352 264.923,-105.822 276.485,-103.507"/>
<polygon fill="midnightblue" stroke="midnightblue" points="277.415,-106.891 286.553,-101.529 276.066,-100.022 277.415,-106.891"/>
</g>
<!-- Node20 -->
<g id="node39" class="node"><title>Node20</title>
<a xlink:href="classcorecvs_1_1Vector2d.html#a944721c41f044c1388d9dc42ca899bce" target="_top" xlink:title="corecvs::Vector2d::x">
<polygon fill="none" stroke="black" points="290.5,-40.5 290.5,-61.5 403.5,-61.5 403.5,-40.5 290.5,-40.5"/>
<text text-anchor="middle" x="347" y="-48.5" font-family="FreeSans.ttf" font-size="10.00">corecvs::Vector2d::x</text>
</a>
</g>
<!-- Node1&#45;&gt;Node20 -->
<g id="edge38" class="edge"><title>Node1&#45;&gt;Node20</title>
<path fill="none" stroke="midnightblue" d="M117.604,-140.367C142.069,-123.082 193.445,-89.0124 242,-71 254.201,-66.474 267.596,-62.9268 280.616,-60.1619"/>
<polygon fill="midnightblue" stroke="midnightblue" points="281.35,-63.5844 290.473,-58.1968 279.981,-56.7195 281.35,-63.5844"/>
</g>
<!-- Node21 -->
<g id="node41" class="node"><title>Node21</title>
<a xlink:href="classcorecvs_1_1Vector2d.html#ae1ea2ad4c0821001408bf963cffa8413" target="_top" xlink:title="corecvs::Vector2d::y">
<polygon fill="none" stroke="black" points="290.5,-0.5 290.5,-21.5 403.5,-21.5 403.5,-0.5 290.5,-0.5"/>
<text text-anchor="middle" x="347" y="-8.5" font-family="FreeSans.ttf" font-size="10.00">corecvs::Vector2d::y</text>
</a>
</g>
<!-- Node1&#45;&gt;Node21 -->
<g id="edge40" class="edge"><title>Node1&#45;&gt;Node21</title>
<path fill="none" stroke="midnightblue" d="M111.803,-140.269C132.045,-116.381 184.592,-58.7453 242,-31 253.85,-25.2731 267.192,-21.1844 280.292,-18.2657"/>
<polygon fill="midnightblue" stroke="midnightblue" points="281.125,-21.668 290.232,-16.254 279.737,-14.8071 281.125,-21.668"/>
</g>
<!-- Node3 -->
<g id="node5" class="node"><title>Node3</title>
<a xlink:href="classGraphPlotDialog.html#a52061b0779f3a0909505d1b9713827e7" target="_top" xlink:title="GraphPlotDialog::setItemColor">
<polygon fill="none" stroke="black" points="530.5,-360.5 530.5,-381.5 691.5,-381.5 691.5,-360.5 530.5,-360.5"/>
<text text-anchor="middle" x="611" y="-368.5" font-family="FreeSans.ttf" font-size="10.00">GraphPlotDialog::setItemColor</text>
</a>
</g>
<!-- Node2&#45;&gt;Node3 -->
<g id="edge4" class="edge"><title>Node2&#45;&gt;Node3</title>
<path fill="none" stroke="midnightblue" d="M416.363,-341.51C451.692,-346.862 494.815,-353.396 531.483,-358.952"/>
<polygon fill="midnightblue" stroke="midnightblue" points="531.231,-362.454 541.642,-360.491 532.28,-355.533 531.231,-362.454"/>
</g>
<!-- Node4 -->
<g id="node7" class="node"><title>Node4</title>
<a xlink:href="namespacecorecvs.html#a807eb76b7544bcb930b1700a58a780bd" target="_top" xlink:title="Useful round* stuff.">
<polygon fill="none" stroke="black" points="566,-320.5 566,-341.5 656,-341.5 656,-320.5 566,-320.5"/>
<text text-anchor="middle" x="611" y="-328.5" font-family="FreeSans.ttf" font-size="10.00">corecvs::fround</text>
</a>
</g>
<!-- Node2&#45;&gt;Node4 -->
<g id="edge6" class="edge"><title>Node2&#45;&gt;Node4</title>
<path fill="none" stroke="midnightblue" d="M432.713,-331C473.001,-331 519.875,-331 555.447,-331"/>
<polygon fill="midnightblue" stroke="midnightblue" points="555.633,-334.5 565.633,-331 555.633,-327.5 555.633,-334.5"/>
</g>
<!-- Node6 -->
<g id="node11" class="node"><title>Node6</title>
<a xlink:href="classcorecvs_1_1AbstractBuffer.html#a6be5a0969d374904dc4ff6cd576c9332" target="_top" xlink:title="Buffer size getter.">
<polygon fill="none" stroke="black" points="526,-280.5 526,-301.5 696,-301.5 696,-280.5 526,-280.5"/>
<text text-anchor="middle" x="611" y="-288.5" font-family="FreeSans.ttf" font-size="10.00">corecvs::AbstractBuffer::getSize</text>
</a>
</g>
<!-- Node5&#45;&gt;Node6 -->
<g id="edge10" class="edge"><title>Node5&#45;&gt;Node6</title>
<path fill="none" stroke="midnightblue" d="M416.363,-261.51C451.692,-266.862 494.815,-273.396 531.483,-278.952"/>
<polygon fill="midnightblue" stroke="midnightblue" points="531.231,-282.454 541.642,-280.491 532.28,-275.533 531.231,-282.454"/>
</g>
<!-- Node7 -->
<g id="node13" class="node"><title>Node7</title>
<a xlink:href="classcorecvs_1_1AbstractBuffer.html#a98f72526738a0c4ce8a0b72a3b5c28b9" target="_top" xlink:title="The element getter.">
<polygon fill="none" stroke="black" points="524,-240.5 524,-261.5 698,-261.5 698,-240.5 524,-240.5"/>
<text text-anchor="middle" x="611" y="-248.5" font-family="FreeSans.ttf" font-size="10.00">corecvs::AbstractBuffer::element</text>
</a>
</g>
<!-- Node5&#45;&gt;Node7 -->
<g id="edge12" class="edge"><title>Node5&#45;&gt;Node7</title>
<path fill="none" stroke="midnightblue" d="M439.334,-251C463.274,-251 489.132,-251 513.335,-251"/>
<polygon fill="midnightblue" stroke="midnightblue" points="513.596,-254.5 523.596,-251 513.596,-247.5 513.596,-254.5"/>
</g>
<!-- Node8 -->
<g id="node15" class="node"><title>Node8</title>
<a xlink:href="classcorecvs_1_1RGBColor.html#af71af180c1a4aa8058e56383d5cd49dd" target="_top" xlink:title="corecvs::RGBColor::gray">
<polygon fill="none" stroke="black" points="545.5,-200.5 545.5,-221.5 676.5,-221.5 676.5,-200.5 545.5,-200.5"/>
<text text-anchor="middle" x="611" y="-208.5" font-family="FreeSans.ttf" font-size="10.00">corecvs::RGBColor::gray</text>
</a>
</g>
<!-- Node5&#45;&gt;Node8 -->
<g id="edge14" class="edge"><title>Node5&#45;&gt;Node8</title>
<path fill="none" stroke="midnightblue" d="M416.363,-240.49C452.809,-234.968 497.55,-228.189 534.942,-222.524"/>
<polygon fill="midnightblue" stroke="midnightblue" points="535.918,-225.916 545.28,-220.958 534.869,-218.995 535.918,-225.916"/>
</g>
<!-- Node9 -->
<g id="node17" class="node"><title>Node9</title>
<a xlink:href="classcorecvs_1_1RGBColor.html#a5e8d5fe160db4c66478a86f84bfc70de" target="_top" xlink:title="corecvs::RGBColor::RGBColor">
<polygon fill="none" stroke="black" points="821.5,-200.5 821.5,-221.5 976.5,-221.5 976.5,-200.5 821.5,-200.5"/>
<text text-anchor="middle" x="899" y="-208.5" font-family="FreeSans.ttf" font-size="10.00">corecvs::RGBColor::RGBColor</text>
</a>
</g>
<!-- Node8&#45;&gt;Node9 -->
<g id="edge16" class="edge"><title>Node8&#45;&gt;Node9</title>
<path fill="none" stroke="midnightblue" d="M676.712,-211C716.519,-211 767.794,-211 811.064,-211"/>
<polygon fill="midnightblue" stroke="midnightblue" points="811.307,-214.5 821.307,-211 811.307,-207.5 811.307,-214.5"/>
</g>
<!-- Node13 -->
<g id="node25" class="node"><title>Node13</title>
<a xlink:href="classAdvancedImageWidget.html#aa69ecf8afc2c52de22ef54bef616c92a" target="_top" xlink:title="AdvancedImageWidget::drawResized">
<polygon fill="none" stroke="black" points="515.5,-160.5 515.5,-181.5 706.5,-181.5 706.5,-160.5 515.5,-160.5"/>
<text text-anchor="middle" x="611" y="-168.5" font-family="FreeSans.ttf" font-size="10.00">AdvancedImageWidget::drawResized</text>
</a>
</g>
<!-- Node12&#45;&gt;Node13 -->
<g id="edge24" class="edge"><title>Node12&#45;&gt;Node13</title>
<path fill="none" stroke="midnightblue" d="M416.363,-141.51C451.692,-146.862 494.815,-153.396 531.483,-158.952"/>
<polygon fill="midnightblue" stroke="midnightblue" points="531.231,-162.454 541.642,-160.491 532.28,-155.533 531.231,-162.454"/>
</g>
<!-- Node14 -->
<g id="node27" class="node"><title>Node14</title>
<a xlink:href="classAdvancedImageWidget.html#a94f67b5bfc0bcf0c119c4e6011236faf" target="_top" xlink:title="AdvancedImageWidget::recalculateZoomCenter">
<polygon fill="none" stroke="black" points="488,-120.5 488,-141.5 734,-141.5 734,-120.5 488,-120.5"/>
<text text-anchor="middle" x="611" y="-128.5" font-family="FreeSans.ttf" font-size="10.00">AdvancedImageWidget::recalculateZoomCenter</text>
</a>
</g>
<!-- Node12&#45;&gt;Node14 -->
<g id="edge26" class="edge"><title>Node12&#45;&gt;Node14</title>
<path fill="none" stroke="midnightblue" d="M435.643,-131C449.143,-131 463.324,-131 477.527,-131"/>
<polygon fill="midnightblue" stroke="midnightblue" points="477.864,-134.5 487.864,-131 477.864,-127.5 477.864,-134.5"/>
</g>
<!-- Node16 -->
<g id="node31" class="node"><title>Node16</title>
<a xlink:href="classAdvancedImageWidget.html#a09b13f3339f391764bd57dd8d06f3d4f" target="_top" xlink:title="AdvancedImageWidget::recomputeRects">
<polygon fill="none" stroke="black" points="506,-80.5 506,-101.5 716,-101.5 716,-80.5 506,-80.5"/>
<text text-anchor="middle" x="611" y="-88.5" font-family="FreeSans.ttf" font-size="10.00">AdvancedImageWidget::recomputeRects</text>
</a>
</g>
<!-- Node12&#45;&gt;Node16 -->
<g id="edge30" class="edge"><title>Node12&#45;&gt;Node16</title>
<path fill="none" stroke="midnightblue" d="M416.363,-120.49C451.692,-115.138 494.815,-108.604 531.483,-103.048"/>
<polygon fill="midnightblue" stroke="midnightblue" points="532.28,-106.467 541.642,-101.509 531.231,-99.5463 532.28,-106.467"/>
</g>
<!-- Node18 -->
<g id="node35" class="node"><title>Node18</title>
<a xlink:href="classAdvancedImageWidget.html#a722b91642b8f0f37a390edc76c3e645b" target="_top" xlink:title="AdvancedImageWidget::saveFlowImage">
<polygon fill="none" stroke="black" points="508.5,-40.5 508.5,-61.5 713.5,-61.5 713.5,-40.5 508.5,-40.5"/>
<text text-anchor="middle" x="611" y="-48.5" font-family="FreeSans.ttf" font-size="10.00">AdvancedImageWidget::saveFlowImage</text>
</a>
</g>
<!-- Node12&#45;&gt;Node18 -->
<g id="edge34" class="edge"><title>Node12&#45;&gt;Node18</title>
<path fill="none" stroke="midnightblue" d="M430.214,-120.459C437.821,-117.935 445.21,-114.826 452,-111 472.838,-99.2593 467.006,-82.458 488,-71 492.007,-68.813 496.19,-66.8506 500.491,-65.0907"/>
<polygon fill="midnightblue" stroke="midnightblue" points="501.906,-68.2991 510.076,-61.5528 499.482,-61.7322 501.906,-68.2991"/>
</g>
<!-- Node15 -->
<g id="node29" class="node"><title>Node15</title>
<a xlink:href="classAdvancedImageWidget.html#a0660da1dfe71d556c2c97ca4759404d5" target="_top" xlink:title="AdvancedImageWidget::notifyCenterPointChanged">
<polygon fill="none" stroke="black" points="770.5,-120.5 770.5,-141.5 1027.5,-141.5 1027.5,-120.5 770.5,-120.5"/>
<text text-anchor="middle" x="899" y="-128.5" font-family="FreeSans.ttf" font-size="10.00">AdvancedImageWidget::notifyCenterPointChanged</text>
</a>
</g>
<!-- Node14&#45;&gt;Node15 -->
<g id="edge28" class="edge"><title>Node14&#45;&gt;Node15</title>
<path fill="none" stroke="midnightblue" d="M734.391,-131C742.95,-131 751.609,-131 760.242,-131"/>
<polygon fill="midnightblue" stroke="midnightblue" points="760.358,-134.5 770.358,-131 760.358,-127.5 760.358,-134.5"/>
</g>
<!-- Node17 -->
<g id="node33" class="node"><title>Node17</title>
<a xlink:href="classAdvancedImageWidget.html#ab3c658a5e253eeef3929028a1e2e3082" target="_top" xlink:title="AdvancedImageWidget::computeInputRect">
<polygon fill="none" stroke="black" points="789.5,-80.5 789.5,-101.5 1008.5,-101.5 1008.5,-80.5 789.5,-80.5"/>
<text text-anchor="middle" x="899" y="-88.5" font-family="FreeSans.ttf" font-size="10.00">AdvancedImageWidget::computeInputRect</text>
</a>
</g>
<!-- Node16&#45;&gt;Node17 -->
<g id="edge32" class="edge"><title>Node16&#45;&gt;Node17</title>
<path fill="none" stroke="midnightblue" d="M716.197,-91C736.634,-91 758.198,-91 779.068,-91"/>
<polygon fill="midnightblue" stroke="midnightblue" points="779.25,-94.5001 789.25,-91 779.25,-87.5001 779.25,-94.5001"/>
</g>
</g>
</svg>
        <g id="navigator" transform="translate(0 0)" fill="#404254">
                <rect fill="#f2f5e9" fill-opacity="0.5" stroke="#606060" stroke-width=".5" x="0" y="0" width="60" height="60"/>
                <use id="zoomplus" xlink:href="#zoomPlus" x="17" y="9" onmousedown="handleZoom(evt,'in')"/>
                <use id="zoomminus" xlink:href="#zoomMin" x="42" y="9" onmousedown="handleZoom(evt,'out')"/>
                <use id="reset" xlink:href="#resetDef" x="30" y="36" onmousedown="handleReset()"/>
                <g id="arrowUp" xlink:href="#dirArrow" transform="translate(30 24)" onmousedown="handlePan(0,-1)">
                  <use xlink:href="#rim" fill="#404040">
                        <set attributeName="fill" to="#808080" begin="arrowUp.mouseover" end="arrowUp.mouseout"/>
                  </use>
                  <path fill="none" stroke="white" stroke-width="1.5" d="M0,-3.0v7 M-2.5,-0.5L0,-3.0L2.5,-0.5"/>
                </g>
                <g id="arrowRight" xlink:href="#dirArrow" transform="rotate(90) translate(36 -43)" onmousedown="handlePan(1,0)">
                  <use xlink:href="#rim" fill="#404040">
                        <set attributeName="fill" to="#808080" begin="arrowRight.mouseover" end="arrowRight.mouseout"/>
                  </use>
                  <path fill="none" stroke="white" stroke-width="1.5" d="M0,-3.0v7 M-2.5,-0.5L0,-3.0L2.5,-0.5"/>
                </g>
                <g id="arrowDown" xlink:href="#dirArrow" transform="rotate(180) translate(-30 -48)" onmousedown="handlePan(0,1)">
                  <use xlink:href="#rim" fill="#404040">
                        <set attributeName="fill" to="#808080" begin="arrowDown.mouseover" end="arrowDown.mouseout"/>
                  </use>
                  <path fill="none" stroke="white" stroke-width="1.5" d="M0,-3.0v7 M-2.5,-0.5L0,-3.0L2.5,-0.5"/>
                </g>
                <g id="arrowLeft" xlink:href="#dirArrow" transform="rotate(270) translate(-36 17)" onmousedown="handlePan(-1,0)">
                  <use xlink:href="#rim" fill="#404040">
                        <set attributeName="fill" to="#808080" begin="arrowLeft.mouseover" end="arrowLeft.mouseout"/>
                  </use>
                  <path fill="none" stroke="white" stroke-width="1.5" d="M0,-3.0v7 M-2.5,-0.5L0,-3.0L2.5,-0.5"/>
                </g>
        </g>
</svg>
