<?xml version="1.0" encoding="UTF-8" standalone="no"?>
<!DOCTYPE svg PUBLIC "-//W3C//DTD SVG 1.1//EN"
 "http://www.w3.org/Graphics/SVG/1.1/DTD/svg11.dtd">
<!-- Generated by graphviz version 2.26.3 (20100126.1600)
 -->
<!-- Title: G Pages: 1 -->
<!--zoomable 268 -->
<svg id="main" version="1.1" xmlns="http://www.w3.org/2000/svg" xmlns:xlink="http://www.w3.org/1999/xlink" xml:space="preserve" onload="init(evt)">
        <defs>
                <circle id="rim" cx="0" cy="0" r="7"/>
                <circle id="rim2" cx="0" cy="0" r="3.5"/>
                <g id="zoomPlus">
                        <use xlink:href="#rim" fill="#404040">
                                <set attributeName="fill" to="#808080" begin="zoomplus.mouseover" end="zoomplus.mouseout"/>
                        </use>
                        <path d="M-4,0h8M0,-4v8" fill="none" stroke="white" stroke-width="1.5" pointer-events="none"/>
                </g>
                <g id="zoomMin">
                        <use xlink:href="#rim" fill="#404040">
                                <set attributeName="fill" to="#808080" begin="zoomminus.mouseover" end="zoomminus.mouseout"/>
                        </use>
                        <path d="M-4,0h8" fill="none" stroke="white" stroke-width="1.5" pointer-events="none"/>
                </g>
                <g id="dirArrow">
                        <path fill="none" stroke="white" stroke-width="1.5" d="M0,-3.0v7 M-2.5,-0.5L0,-3.0L2.5,-0.5"/>
                </g>
               <g id="resetDef">
                       <use xlink:href="#rim2" fill="#404040">
                               <set attributeName="fill" to="#808080" begin="reset.mouseover" end="reset.mouseout"/>
                       </use>
               </g>
        </defs>

<script type="text/javascript">
var viewWidth = 948;
var viewHeight = 268;
var sectionId = 'dynsection-1';
</script>
<script xlink:href="svgpan.js"/>
<svg id="graph" class="graph">
<g id="viewport">
<title>G</title>
<!-- Node1 -->
<g id="node1" class="node"><title>Node1</title>
<polygon fill="#bfbfbf" stroke="black" points="0.5,-118.5 0.5,-139.5 203.5,-139.5 203.5,-118.5 0.5,-118.5"/>
<text text-anchor="middle" x="102" y="-126.5" font-family="FreeSans.ttf" font-size="10.00">UEyeCaptureInterface::SpinThread::run</text>
</g>
<!-- Node2 -->
<g id="node3" class="node"><title>Node2</title>
<a xlink:href="classUEyeCameraDescriptor.html#a6eeaf02244f8be56f9b254071d5b3c76" target="_top" xlink:title="UEyeCameraDescriptor::getDescriptorByAddress">
<polygon fill="none" stroke="black" points="240.5,-238.5 240.5,-259.5 491.5,-259.5 491.5,-238.5 240.5,-238.5"/>
<text text-anchor="middle" x="366" y="-246.5" font-family="FreeSans.ttf" font-size="10.00">UEyeCameraDescriptor::getDescriptorByAddress</text>
</a>
</g>
<!-- Node1&#45;&gt;Node2 -->
<g id="edge2" class="edge"><title>Node1&#45;&gt;Node2</title>
<path fill="none" stroke="midnightblue" d="M112.691,-139.571C134.523,-160.468 186.686,-206.945 240,-229 246.257,-231.588 252.816,-233.844 259.516,-235.809"/>
<polygon fill="midnightblue" stroke="midnightblue" points="258.848,-239.254 269.415,-238.485 260.675,-232.496 258.848,-239.254"/>
</g>
<!-- Node3 -->
<g id="node5" class="node"><title>Node3</title>
<a xlink:href="classImageCaptureInterface.html#a7e0ae4d6cacdcc46f10d5edbfdfe7fe5" target="_top" xlink:title="Internal function to trigger frame notify signal.">
<polygon fill="none" stroke="black" points="247,-198.5 247,-219.5 485,-219.5 485,-198.5 247,-198.5"/>
<text text-anchor="middle" x="366" y="-206.5" font-family="FreeSans.ttf" font-size="10.00">ImageCaptureInterface::notifyAboutNewFrame</text>
</a>
</g>
<!-- Node1&#45;&gt;Node3 -->
<g id="edge4" class="edge"><title>Node1&#45;&gt;Node3</title>
<path fill="none" stroke="midnightblue" d="M121.974,-139.607C148.291,-153.128 196.361,-176.273 240,-189 249.829,-191.867 260.217,-194.35 270.641,-196.495"/>
<polygon fill="midnightblue" stroke="midnightblue" points="270.144,-199.964 280.63,-198.45 271.488,-193.095 270.144,-199.964"/>
</g>
<!-- Node6 -->
<g id="node11" class="node"><title>Node6</title>
<a xlink:href="classUEyeCaptureInterface.html#af120d5c393933f5ec4bb4251c0f016e2" target="_top" xlink:title="UEyeCaptureInterface::ueyeTrace">
<polygon fill="none" stroke="black" points="278,-158.5 278,-179.5 454,-179.5 454,-158.5 278,-158.5"/>
<text text-anchor="middle" x="366" y="-166.5" font-family="FreeSans.ttf" font-size="10.00">UEyeCaptureInterface::ueyeTrace</text>
</a>
</g>
<!-- Node1&#45;&gt;Node6 -->
<g id="edge10" class="edge"><title>Node1&#45;&gt;Node6</title>
<path fill="none" stroke="midnightblue" d="M171.363,-139.51C206.692,-144.862 249.815,-151.396 286.483,-156.952"/>
<polygon fill="midnightblue" stroke="midnightblue" points="286.231,-160.454 296.642,-158.491 287.28,-153.533 286.231,-160.454"/>
</g>
<!-- Node7 -->
<g id="node13" class="node"><title>Node7</title>
<a xlink:href="classBufferDescriptorType.html#a0380af10d6a37d55c31ecafa01c99384" target="_top" xlink:title="BufferDescriptorType::usecsTimeStamp">
<polygon fill="none" stroke="black" points="263.5,-118.5 263.5,-139.5 468.5,-139.5 468.5,-118.5 263.5,-118.5"/>
<text text-anchor="middle" x="366" y="-126.5" font-family="FreeSans.ttf" font-size="10.00">BufferDescriptorType::usecsTimeStamp</text>
</a>
</g>
<!-- Node1&#45;&gt;Node7 -->
<g id="edge12" class="edge"><title>Node1&#45;&gt;Node7</title>
<path fill="none" stroke="midnightblue" d="M203.692,-129C219.931,-129 236.816,-129 253.292,-129"/>
<polygon fill="midnightblue" stroke="midnightblue" points="253.489,-132.5 263.489,-129 253.489,-125.5 253.489,-132.5"/>
</g>
<!-- Node8 -->
<g id="node15" class="node"><title>Node8</title>
<a xlink:href="classcorecvs_1_1PreciseTimer.html#aeefca9626ed0efb419d7479f5d758966" target="_top" xlink:title="corecvs::PreciseTimer::usecsTo">
<polygon fill="none" stroke="black" points="551,-80.5 551,-101.5 715,-101.5 715,-80.5 551,-80.5"/>
<text text-anchor="middle" x="633" y="-88.5" font-family="FreeSans.ttf" font-size="10.00">corecvs::PreciseTimer::usecsTo</text>
</a>
</g>
<!-- Node1&#45;&gt;Node8 -->
<g id="edge14" class="edge"><title>Node1&#45;&gt;Node8</title>
<path fill="none" stroke="midnightblue" d="M165.393,-118.482C188.781,-114.953 215.539,-111.327 240,-109 342.698,-99.2301 461.015,-94.7229 540.773,-92.6693"/>
<polygon fill="midnightblue" stroke="midnightblue" points="540.881,-96.1677 550.79,-92.419 540.706,-89.1699 540.881,-96.1677"/>
</g>
<!-- Node9 -->
<g id="node17" class="node"><title>Node9</title>
<a xlink:href="classcorecvs_1_1PreciseTimer.html#af4f2392d369963a6786d28754d626d1b" target="_top" xlink:title="corecvs::PreciseTimer::usecsToNow">
<polygon fill="none" stroke="black" points="273.5,-40.5 273.5,-61.5 458.5,-61.5 458.5,-40.5 273.5,-40.5"/>
<text text-anchor="middle" x="366" y="-48.5" font-family="FreeSans.ttf" font-size="10.00">corecvs::PreciseTimer::usecsToNow</text>
</a>
</g>
<!-- Node1&#45;&gt;Node9 -->
<g id="edge16" class="edge"><title>Node1&#45;&gt;Node9</title>
<path fill="none" stroke="midnightblue" d="M126,-118.339C153.197,-106.6 199.071,-87.8259 240,-76 256.567,-71.2132 274.621,-67.0373 291.753,-63.5399"/>
<polygon fill="midnightblue" stroke="midnightblue" points="292.589,-66.9422 301.715,-61.5596 291.224,-60.0766 292.589,-66.9422"/>
</g>
<!-- Node13 -->
<g id="node26" class="node"><title>Node13</title>
<a xlink:href="classUEyeCameraDescriptor.html#ae0caea3b11ad124929b7decf47d013ed" target="_top" xlink:title="This functions fixes the difference in windows and linux uEye API.">
<polygon fill="none" stroke="black" points="248,-0.5 248,-21.5 484,-21.5 484,-0.5 248,-0.5"/>
<text text-anchor="middle" x="366" y="-8.5" font-family="FreeSans.ttf" font-size="10.00">UEyeCameraDescriptor::waitUEyeFrameEvent</text>
</a>
</g>
<!-- Node1&#45;&gt;Node13 -->
<g id="edge26" class="edge"><title>Node1&#45;&gt;Node13</title>
<path fill="none" stroke="midnightblue" d="M113.075,-118.33C135.184,-97.7125 187.219,-52.5393 240,-31 246.338,-28.4136 252.982,-26.1601 259.766,-24.197"/>
<polygon fill="midnightblue" stroke="midnightblue" points="261.026,-27.4832 269.786,-21.5235 259.222,-20.7199 261.026,-27.4832"/>
</g>
<!-- Node4 -->
<g id="node7" class="node"><title>Node4</title>
<a xlink:href="classImageCaptureInterface.html#ad345e61b1b9e5837ef7ef788a09f1089" target="_top" xlink:title="ImageCaptureInterface::newFrameReady">
<polygon fill="none" stroke="black" points="528,-218.5 528,-239.5 738,-239.5 738,-218.5 528,-218.5"/>
<text text-anchor="middle" x="633" y="-226.5" font-family="FreeSans.ttf" font-size="10.00">ImageCaptureInterface::newFrameReady</text>
</a>
</g>
<!-- Node3&#45;&gt;Node4 -->
<g id="edge6" class="edge"><title>Node3&#45;&gt;Node4</title>
<path fill="none" stroke="midnightblue" d="M485.054,-217.918C495.803,-218.723 506.679,-219.538 517.397,-220.341"/>
<polygon fill="midnightblue" stroke="midnightblue" points="517.383,-223.849 527.617,-221.106 517.906,-216.869 517.383,-223.849"/>
</g>
<!-- Node5 -->
<g id="node9" class="node"><title>Node5</title>
<a xlink:href="classImageCaptureInterface.html#a89acb8d07aef913b8bb7d7971fa8c7e7" target="_top" xlink:title="ImageCaptureInterface::newImageReady">
<polygon fill="none" stroke="black" points="528,-178.5 528,-199.5 738,-199.5 738,-178.5 528,-178.5"/>
<text text-anchor="middle" x="633" y="-186.5" font-family="FreeSans.ttf" font-size="10.00">ImageCaptureInterface::newImageReady</text>
</a>
</g>
<!-- Node3&#45;&gt;Node5 -->
<g id="edge8" class="edge"><title>Node3&#45;&gt;Node5</title>
<path fill="none" stroke="midnightblue" d="M485.054,-200.082C495.803,-199.277 506.679,-198.462 517.397,-197.659"/>
<polygon fill="midnightblue" stroke="midnightblue" points="517.906,-201.131 527.617,-196.894 517.383,-194.151 517.906,-201.131"/>
</g>
<!-- Node9&#45;&gt;Node8 -->
<g id="edge20" class="edge"><title>Node9&#45;&gt;Node8</title>
<path fill="none" stroke="midnightblue" d="M436.151,-61.5095C471.882,-66.8625 515.495,-73.3962 552.58,-78.952"/>
<polygon fill="midnightblue" stroke="midnightblue" points="552.446,-82.471 562.854,-80.4913 553.483,-75.5482 552.446,-82.471"/>
</g>
<!-- Node10 -->
<g id="node19" class="node"><title>Node10</title>
<a xlink:href="classcorecvs_1_1PreciseTimer.html#ab6fc71ad27d7bb8ed8fed6b837ac3065" target="_top" xlink:title="corecvs::PreciseTimer::isCorrect">
<polygon fill="none" stroke="black" points="548,-40.5 548,-61.5 718,-61.5 718,-40.5 548,-40.5"/>
<text text-anchor="middle" x="633" y="-48.5" font-family="FreeSans.ttf" font-size="10.00">corecvs::PreciseTimer::isCorrect</text>
</a>
</g>
<!-- Node9&#45;&gt;Node10 -->
<g id="edge18" class="edge"><title>Node9&#45;&gt;Node10</title>
<path fill="none" stroke="midnightblue" d="M458.634,-51C484.164,-51 511.9,-51 537.584,-51"/>
<polygon fill="midnightblue" stroke="midnightblue" points="537.694,-54.5001 547.694,-51 537.694,-47.5001 537.694,-54.5001"/>
</g>
<!-- Node11 -->
<g id="node22" class="node"><title>Node11</title>
<a xlink:href="classcorecvs_1_1PreciseTimer.html#ab96fc33330e59dc25e1965d692dcb3f9" target="_top" xlink:title="corecvs::PreciseTimer::currentTime">
<polygon fill="none" stroke="black" points="540.5,-0.5 540.5,-21.5 725.5,-21.5 725.5,-0.5 540.5,-0.5"/>
<text text-anchor="middle" x="633" y="-8.5" font-family="FreeSans.ttf" font-size="10.00">corecvs::PreciseTimer::currentTime</text>
</a>
</g>
<!-- Node9&#45;&gt;Node11 -->
<g id="edge22" class="edge"><title>Node9&#45;&gt;Node11</title>
<path fill="none" stroke="midnightblue" d="M436.151,-40.4905C471.882,-35.1375 515.495,-28.6038 552.58,-23.048"/>
<polygon fill="midnightblue" stroke="midnightblue" points="553.483,-26.4518 562.854,-21.5087 552.446,-19.529 553.483,-26.4518"/>
</g>
<!-- Node12 -->
<g id="node24" class="node"><title>Node12</title>
<a xlink:href="classcorecvs_1_1PreciseTimer.html#a8426a1a35d70c5da82bf027bfb1bee69" target="_top" xlink:title="corecvs::PreciseTimer::setTime">
<polygon fill="none" stroke="black" points="774.5,-0.5 774.5,-21.5 939.5,-21.5 939.5,-0.5 774.5,-0.5"/>
<text text-anchor="middle" x="857" y="-8.5" font-family="FreeSans.ttf" font-size="10.00">corecvs::PreciseTimer::setTime</text>
</a>
</g>
<!-- Node11&#45;&gt;Node12 -->
<g id="edge24" class="edge"><title>Node11&#45;&gt;Node12</title>
<path fill="none" stroke="midnightblue" d="M725.726,-11C738.452,-11 751.521,-11 764.247,-11"/>
<polygon fill="midnightblue" stroke="midnightblue" points="764.367,-14.5001 774.367,-11 764.367,-7.5001 764.367,-14.5001"/>
</g>
</g>
</svg>
        <g id="navigator" transform="translate(0 0)" fill="#404254">
                <rect fill="#f2f5e9" fill-opacity="0.5" stroke="#606060" stroke-width=".5" x="0" y="0" width="60" height="60"/>
                <use id="zoomplus" xlink:href="#zoomPlus" x="17" y="9" onmousedown="handleZoom(evt,'in')"/>
                <use id="zoomminus" xlink:href="#zoomMin" x="42" y="9" onmousedown="handleZoom(evt,'out')"/>
                <use id="reset" xlink:href="#resetDef" x="30" y="36" onmousedown="handleReset()"/>
                <g id="arrowUp" xlink:href="#dirArrow" transform="translate(30 24)" onmousedown="handlePan(0,-1)">
                  <use xlink:href="#rim" fill="#404040">
                        <set attributeName="fill" to="#808080" begin="arrowUp.mouseover" end="arrowUp.mouseout"/>
                  </use>
                  <path fill="none" stroke="white" stroke-width="1.5" d="M0,-3.0v7 M-2.5,-0.5L0,-3.0L2.5,-0.5"/>
                </g>
                <g id="arrowRight" xlink:href="#dirArrow" transform="rotate(90) translate(36 -43)" onmousedown="handlePan(1,0)">
                  <use xlink:href="#rim" fill="#404040">
                        <set attributeName="fill" to="#808080" begin="arrowRight.mouseover" end="arrowRight.mouseout"/>
                  </use>
                  <path fill="none" stroke="white" stroke-width="1.5" d="M0,-3.0v7 M-2.5,-0.5L0,-3.0L2.5,-0.5"/>
                </g>
                <g id="arrowDown" xlink:href="#dirArrow" transform="rotate(180) translate(-30 -48)" onmousedown="handlePan(0,1)">
                  <use xlink:href="#rim" fill="#404040">
                        <set attributeName="fill" to="#808080" begin="arrowDown.mouseover" end="arrowDown.mouseout"/>
                  </use>
                  <path fill="none" stroke="white" stroke-width="1.5" d="M0,-3.0v7 M-2.5,-0.5L0,-3.0L2.5,-0.5"/>
                </g>
                <g id="arrowLeft" xlink:href="#dirArrow" transform="rotate(270) translate(-36 17)" onmousedown="handlePan(-1,0)">
                  <use xlink:href="#rim" fill="#404040">
                        <set attributeName="fill" to="#808080" begin="arrowLeft.mouseover" end="arrowLeft.mouseout"/>
                  </use>
                  <path fill="none" stroke="white" stroke-width="1.5" d="M0,-3.0v7 M-2.5,-0.5L0,-3.0L2.5,-0.5"/>
                </g>
        </g>
</svg>
