<?xml version="1.0" encoding="UTF-8" standalone="no"?>
<!DOCTYPE svg PUBLIC "-//W3C//DTD SVG 1.1//EN"
 "http://www.w3.org/Graphics/SVG/1.1/DTD/svg11.dtd">
<!-- Generated by graphviz version 2.26.3 (20100126.1600)
 -->
<!-- Title: G Pages: 1 -->
<!--zoomable 210 -->
<svg id="main" version="1.1" xmlns="http://www.w3.org/2000/svg" xmlns:xlink="http://www.w3.org/1999/xlink" xml:space="preserve" onload="init(evt)">
        <defs>
                <circle id="rim" cx="0" cy="0" r="7"/>
                <circle id="rim2" cx="0" cy="0" r="3.5"/>
                <g id="zoomPlus">
                        <use xlink:href="#rim" fill="#404040">
                                <set attributeName="fill" to="#808080" begin="zoomplus.mouseover" end="zoomplus.mouseout"/>
                        </use>
                        <path d="M-4,0h8M0,-4v8" fill="none" stroke="white" stroke-width="1.5" pointer-events="none"/>
                </g>
                <g id="zoomMin">
                        <use xlink:href="#rim" fill="#404040">
                                <set attributeName="fill" to="#808080" begin="zoomminus.mouseover" end="zoomminus.mouseout"/>
                        </use>
                        <path d="M-4,0h8" fill="none" stroke="white" stroke-width="1.5" pointer-events="none"/>
                </g>
                <g id="dirArrow">
                        <path fill="none" stroke="white" stroke-width="1.5" d="M0,-3.0v7 M-2.5,-0.5L0,-3.0L2.5,-0.5"/>
                </g>
               <g id="resetDef">
                       <use xlink:href="#rim2" fill="#404040">
                               <set attributeName="fill" to="#808080" begin="reset.mouseover" end="reset.mouseout"/>
                       </use>
               </g>
        </defs>

<script type="text/javascript">
var viewWidth = 1172;
var viewHeight = 210;
var sectionId = 'dynsection-8';
</script>
<script xlink:href="svgpan.js"/>
<svg id="graph" class="graph">
<g id="viewport">
<title>G</title>
<!-- Node1 -->
<g id="node1" class="node"><title>Node1</title>
<polygon fill="#bfbfbf" stroke="black" points="0.5,-120.5 0.5,-141.5 151.5,-141.5 151.5,-120.5 0.5,-120.5"/>
<text text-anchor="middle" x="76" y="-128.5" font-family="FreeSans.ttf" font-size="10.00">corecvs::InputFilter::serialize</text>
</g>
<!-- Node2 -->
<g id="node3" class="node"><title>Node2</title>
<a xlink:href="classInputFilterParameters.html#ac55c0728d348e7a1fd7b1b0823837093" target="_top" xlink:title="InputFilterParameters::accept">
<polygon fill="none" stroke="black" points="209.5,-180.5 209.5,-201.5 366.5,-201.5 366.5,-180.5 209.5,-180.5"/>
<text text-anchor="middle" x="288" y="-188.5" font-family="FreeSans.ttf" font-size="10.00">InputFilterParameters::accept</text>
</a>
</g>
<!-- Node1&#45;&gt;Node2 -->
<g id="edge2" class="edge"><title>Node1&#45;&gt;Node2</title>
<path fill="none" stroke="midnightblue" d="M102.353,-141.642C124.831,-150.421 158.153,-162.733 188,-171 197.598,-173.658 207.806,-176.114 217.892,-178.328"/>
<polygon fill="midnightblue" stroke="midnightblue" points="217.402,-181.802 227.911,-180.46 218.859,-174.955 217.402,-181.802"/>
</g>
<!-- Node3 -->
<g id="node5" class="node"><title>Node3</title>
<a xlink:href="classtinyxml2_1_1XMLNode.html#add244bca368083fa29698db8dcf147ca" target="_top" xlink:title="Get the XMLDocument that owns this XMLNode.">
<polygon fill="none" stroke="black" points="197,-140.5 197,-161.5 379,-161.5 379,-140.5 197,-140.5"/>
<text text-anchor="middle" x="288" y="-148.5" font-family="FreeSans.ttf" font-size="10.00">tinyxml2::XMLNode::GetDocument</text>
</a>
</g>
<!-- Node1&#45;&gt;Node3 -->
<g id="edge4" class="edge"><title>Node1&#45;&gt;Node3</title>
<path fill="none" stroke="midnightblue" d="M151.639,-138.136C162.952,-139.203 174.768,-140.318 186.51,-141.426"/>
<polygon fill="midnightblue" stroke="midnightblue" points="186.511,-144.941 196.796,-142.396 187.169,-137.972 186.511,-144.941"/>
</g>
<!-- Node4 -->
<g id="node7" class="node"><title>Node4</title>
<a xlink:href="classtinyxml2_1_1XMLNode.html#ae3b422e98914d6002ca99bb1d2837103" target="_top" xlink:title="Add a child node as the last (right) child.">
<polygon fill="none" stroke="black" points="197,-100.5 197,-121.5 379,-121.5 379,-100.5 197,-100.5"/>
<text text-anchor="middle" x="288" y="-108.5" font-family="FreeSans.ttf" font-size="10.00">tinyxml2::XMLNode::InsertEndChild</text>
</a>
</g>
<!-- Node1&#45;&gt;Node4 -->
<g id="edge6" class="edge"><title>Node1&#45;&gt;Node4</title>
<path fill="none" stroke="midnightblue" d="M151.639,-123.864C162.952,-122.797 174.768,-121.682 186.51,-120.574"/>
<polygon fill="midnightblue" stroke="midnightblue" points="187.169,-124.028 196.796,-119.604 186.511,-117.059 187.169,-124.028"/>
</g>
<!-- Node6 -->
<g id="node11" class="node"><title>Node6</title>
<a xlink:href="classtinyxml2_1_1XMLDocument.html#a3c335a700a43d7c363a393142a23f234" target="_top" xlink:title="Create a new Element associated with this Document.">
<polygon fill="none" stroke="black" points="188.5,-60.5 188.5,-81.5 387.5,-81.5 387.5,-60.5 188.5,-60.5"/>
<text text-anchor="middle" x="288" y="-68.5" font-family="FreeSans.ttf" font-size="10.00">tinyxml2::XMLDocument::NewElement</text>
</a>
</g>
<!-- Node1&#45;&gt;Node6 -->
<g id="edge10" class="edge"><title>Node1&#45;&gt;Node6</title>
<path fill="none" stroke="midnightblue" d="M102.353,-120.358C124.831,-111.579 158.153,-99.2672 188,-91 197.598,-88.3416 207.806,-85.8859 217.892,-83.672"/>
<polygon fill="midnightblue" stroke="midnightblue" points="218.859,-87.0448 227.911,-81.5403 217.402,-80.1981 218.859,-87.0448"/>
</g>
<!-- Node5 -->
<g id="node9" class="node"><title>Node5</title>
<a xlink:href="classtinyxml2_1_1MemPool.html#ac5804dd1387b2e4de5eef710076a0db1" target="_top" xlink:title="tinyxml2::MemPool::SetTracked">
<polygon fill="none" stroke="black" points="428,-100.5 428,-121.5 594,-121.5 594,-100.5 428,-100.5"/>
<text text-anchor="middle" x="511" y="-108.5" font-family="FreeSans.ttf" font-size="10.00">tinyxml2::MemPool::SetTracked</text>
</a>
</g>
<!-- Node4&#45;&gt;Node5 -->
<g id="edge8" class="edge"><title>Node4&#45;&gt;Node5</title>
<path fill="none" stroke="midnightblue" d="M379.024,-111C391.758,-111 404.861,-111 417.638,-111"/>
<polygon fill="midnightblue" stroke="midnightblue" points="417.801,-114.5 427.801,-111 417.801,-107.5 417.801,-114.5"/>
</g>
<!-- Node7 -->
<g id="node13" class="node"><title>Node7</title>
<a xlink:href="classtinyxml2_1_1MemPoolT.html#aa9d785a48ffe6ea1be679bab13464486" target="_top" xlink:title="tinyxml2::MemPoolT::Alloc">
<polygon fill="none" stroke="black" points="441,-60.5 441,-81.5 581,-81.5 581,-60.5 441,-60.5"/>
<text text-anchor="middle" x="511" y="-68.5" font-family="FreeSans.ttf" font-size="10.00">tinyxml2::MemPoolT::Alloc</text>
</a>
</g>
<!-- Node6&#45;&gt;Node7 -->
<g id="edge12" class="edge"><title>Node6&#45;&gt;Node7</title>
<path fill="none" stroke="midnightblue" d="M387.76,-71C402.13,-71 416.764,-71 430.692,-71"/>
<polygon fill="midnightblue" stroke="midnightblue" points="430.695,-74.5001 440.695,-71 430.695,-67.5001 430.695,-74.5001"/>
</g>
<!-- Node8 -->
<g id="node15" class="node"><title>Node8</title>
<a xlink:href="classtinyxml2_1_1XMLElement.html#a97712009a530d8cb8a63bf705f02b4f1" target="_top" xlink:title="Set the name of the element.">
<polygon fill="none" stroke="black" points="424,-20.5 424,-41.5 598,-41.5 598,-20.5 424,-20.5"/>
<text text-anchor="middle" x="511" y="-28.5" font-family="FreeSans.ttf" font-size="10.00">tinyxml2::XMLElement::SetName</text>
</a>
</g>
<!-- Node6&#45;&gt;Node8 -->
<g id="edge14" class="edge"><title>Node6&#45;&gt;Node8</title>
<path fill="none" stroke="midnightblue" d="M346.591,-60.4905C375.923,-55.229 411.615,-48.8268 442.239,-43.3338"/>
<polygon fill="midnightblue" stroke="midnightblue" points="443.189,-46.7194 452.414,-41.5087 441.953,-39.8293 443.189,-46.7194"/>
</g>
<!-- Node9 -->
<g id="node17" class="node"><title>Node9</title>
<a xlink:href="classtinyxml2_1_1XMLNode.html#a09dd68cf9eae137579f6e50f36487513" target="_top" xlink:title="Set the Value of an XML node.">
<polygon fill="none" stroke="black" points="634.5,-20.5 634.5,-41.5 791.5,-41.5 791.5,-20.5 634.5,-20.5"/>
<text text-anchor="middle" x="713" y="-28.5" font-family="FreeSans.ttf" font-size="10.00">tinyxml2::XMLNode::SetValue</text>
</a>
</g>
<!-- Node8&#45;&gt;Node9 -->
<g id="edge16" class="edge"><title>Node8&#45;&gt;Node9</title>
<path fill="none" stroke="midnightblue" d="M598.132,-31C606.804,-31 615.616,-31 624.304,-31"/>
<polygon fill="midnightblue" stroke="midnightblue" points="624.431,-34.5001 634.431,-31 624.431,-27.5001 624.431,-34.5001"/>
</g>
<!-- Node10 -->
<g id="node19" class="node"><title>Node10</title>
<a xlink:href="classtinyxml2_1_1StrPair.html#a2baf6230e18333e02ab65d0897ee3941" target="_top" xlink:title="tinyxml2::StrPair::SetInternedStr">
<polygon fill="none" stroke="black" points="828.5,-40.5 828.5,-61.5 999.5,-61.5 999.5,-40.5 828.5,-40.5"/>
<text text-anchor="middle" x="914" y="-48.5" font-family="FreeSans.ttf" font-size="10.00">tinyxml2::StrPair::SetInternedStr</text>
</a>
</g>
<!-- Node9&#45;&gt;Node10 -->
<g id="edge18" class="edge"><title>Node9&#45;&gt;Node10</title>
<path fill="none" stroke="midnightblue" d="M791.575,-38.8185C800.375,-39.6941 809.411,-40.5931 818.394,-41.487"/>
<polygon fill="midnightblue" stroke="midnightblue" points="818.202,-44.9851 828.499,-42.4925 818.895,-38.0195 818.202,-44.9851"/>
</g>
<!-- Node12 -->
<g id="node23" class="node"><title>Node12</title>
<a xlink:href="classtinyxml2_1_1StrPair.html#a1f82ec6b5bee35ee7466d8565e43b1de" target="_top" xlink:title="tinyxml2::StrPair::SetStr">
<polygon fill="none" stroke="black" points="848.5,-0.5 848.5,-21.5 979.5,-21.5 979.5,-0.5 848.5,-0.5"/>
<text text-anchor="middle" x="914" y="-8.5" font-family="FreeSans.ttf" font-size="10.00">tinyxml2::StrPair::SetStr</text>
</a>
</g>
<!-- Node9&#45;&gt;Node12 -->
<g id="edge22" class="edge"><title>Node9&#45;&gt;Node12</title>
<path fill="none" stroke="midnightblue" d="M791.575,-23.1815C806.873,-21.6594 822.884,-20.0663 838.094,-18.5529"/>
<polygon fill="midnightblue" stroke="midnightblue" points="838.872,-21.9927 848.477,-17.5197 838.179,-15.0271 838.872,-21.9927"/>
</g>
<!-- Node11 -->
<g id="node21" class="node"><title>Node11</title>
<a xlink:href="classtinyxml2_1_1StrPair.html#a80c1b3bd99bf62ae85c94a29ce537125" target="_top" xlink:title="tinyxml2::StrPair::Reset">
<polygon fill="none" stroke="black" points="1036.5,-40.5 1036.5,-61.5 1163.5,-61.5 1163.5,-40.5 1036.5,-40.5"/>
<text text-anchor="middle" x="1100" y="-48.5" font-family="FreeSans.ttf" font-size="10.00">tinyxml2::StrPair::Reset</text>
</a>
</g>
<!-- Node10&#45;&gt;Node11 -->
<g id="edge20" class="edge"><title>Node10&#45;&gt;Node11</title>
<path fill="none" stroke="midnightblue" d="M999.65,-51C1008.56,-51 1017.56,-51 1026.32,-51"/>
<polygon fill="midnightblue" stroke="midnightblue" points="1026.47,-54.5001 1036.47,-51 1026.47,-47.5001 1026.47,-54.5001"/>
</g>
</g>
</svg>
        <g id="navigator" transform="translate(0 0)" fill="#404254">
                <rect fill="#f2f5e9" fill-opacity="0.5" stroke="#606060" stroke-width=".5" x="0" y="0" width="60" height="60"/>
                <use id="zoomplus" xlink:href="#zoomPlus" x="17" y="9" onmousedown="handleZoom(evt,'in')"/>
                <use id="zoomminus" xlink:href="#zoomMin" x="42" y="9" onmousedown="handleZoom(evt,'out')"/>
                <use id="reset" xlink:href="#resetDef" x="30" y="36" onmousedown="handleReset()"/>
                <g id="arrowUp" xlink:href="#dirArrow" transform="translate(30 24)" onmousedown="handlePan(0,-1)">
                  <use xlink:href="#rim" fill="#404040">
                        <set attributeName="fill" to="#808080" begin="arrowUp.mouseover" end="arrowUp.mouseout"/>
                  </use>
                  <path fill="none" stroke="white" stroke-width="1.5" d="M0,-3.0v7 M-2.5,-0.5L0,-3.0L2.5,-0.5"/>
                </g>
                <g id="arrowRight" xlink:href="#dirArrow" transform="rotate(90) translate(36 -43)" onmousedown="handlePan(1,0)">
                  <use xlink:href="#rim" fill="#404040">
                        <set attributeName="fill" to="#808080" begin="arrowRight.mouseover" end="arrowRight.mouseout"/>
                  </use>
                  <path fill="none" stroke="white" stroke-width="1.5" d="M0,-3.0v7 M-2.5,-0.5L0,-3.0L2.5,-0.5"/>
                </g>
                <g id="arrowDown" xlink:href="#dirArrow" transform="rotate(180) translate(-30 -48)" onmousedown="handlePan(0,1)">
                  <use xlink:href="#rim" fill="#404040">
                        <set attributeName="fill" to="#808080" begin="arrowDown.mouseover" end="arrowDown.mouseout"/>
                  </use>
                  <path fill="none" stroke="white" stroke-width="1.5" d="M0,-3.0v7 M-2.5,-0.5L0,-3.0L2.5,-0.5"/>
                </g>
                <g id="arrowLeft" xlink:href="#dirArrow" transform="rotate(270) translate(-36 17)" onmousedown="handlePan(-1,0)">
                  <use xlink:href="#rim" fill="#404040">
                        <set attributeName="fill" to="#808080" begin="arrowLeft.mouseover" end="arrowLeft.mouseout"/>
                  </use>
                  <path fill="none" stroke="white" stroke-width="1.5" d="M0,-3.0v7 M-2.5,-0.5L0,-3.0L2.5,-0.5"/>
                </g>
        </g>
</svg>
