<?xml version="1.0" encoding="UTF-8" standalone="no"?>
<!DOCTYPE svg PUBLIC "-//W3C//DTD SVG 1.1//EN"
 "http://www.w3.org/Graphics/SVG/1.1/DTD/svg11.dtd">
<!-- Generated by graphviz version 2.26.3 (20100126.1600)
 -->
<!-- Title: G Pages: 1 -->
<!--zoomable 190 -->
<svg id="main" version="1.1" xmlns="http://www.w3.org/2000/svg" xmlns:xlink="http://www.w3.org/1999/xlink" xml:space="preserve" onload="init(evt)">
        <defs>
                <circle id="rim" cx="0" cy="0" r="7"/>
                <circle id="rim2" cx="0" cy="0" r="3.5"/>
                <g id="zoomPlus">
                        <use xlink:href="#rim" fill="#404040">
                                <set attributeName="fill" to="#808080" begin="zoomplus.mouseover" end="zoomplus.mouseout"/>
                        </use>
                        <path d="M-4,0h8M0,-4v8" fill="none" stroke="white" stroke-width="1.5" pointer-events="none"/>
                </g>
                <g id="zoomMin">
                        <use xlink:href="#rim" fill="#404040">
                                <set attributeName="fill" to="#808080" begin="zoomminus.mouseover" end="zoomminus.mouseout"/>
                        </use>
                        <path d="M-4,0h8" fill="none" stroke="white" stroke-width="1.5" pointer-events="none"/>
                </g>
                <g id="dirArrow">
                        <path fill="none" stroke="white" stroke-width="1.5" d="M0,-3.0v7 M-2.5,-0.5L0,-3.0L2.5,-0.5"/>
                </g>
               <g id="resetDef">
                       <use xlink:href="#rim2" fill="#404040">
                               <set attributeName="fill" to="#808080" begin="reset.mouseover" end="reset.mouseout"/>
                       </use>
               </g>
        </defs>

<script type="text/javascript">
var viewWidth = 1290;
var viewHeight = 190;
var sectionId = 'dynsection-47';
</script>
<script xlink:href="svgpan.js"/>
<svg id="graph" class="graph">
<g id="viewport">
<title>G</title>
<!-- Node1 -->
<g id="node1" class="node"><title>Node1</title>
<polygon fill="#bfbfbf" stroke="black" points="0.5,-80.5 0.5,-101.5 191.5,-101.5 191.5,-80.5 0.5,-80.5"/>
<text text-anchor="middle" x="96" y="-88.5" font-family="FreeSans.ttf" font-size="10.00">tinyxml2::XMLElement::ShallowClone</text>
</g>
<!-- Node2 -->
<g id="node3" class="node"><title>Node2</title>
<a xlink:href="classtinyxml2_1_1XMLElement.html#a67593e63558ffda0386699c3e4cc0b2c" target="_top" xlink:title="Return the first attribute in the list.">
<polygon fill="none" stroke="black" points="233,-160.5 233,-181.5 423,-181.5 423,-160.5 233,-160.5"/>
<text text-anchor="middle" x="328" y="-168.5" font-family="FreeSans.ttf" font-size="10.00">tinyxml2::XMLElement::FirstAttribute</text>
</a>
</g>
<!-- Node1&#45;&gt;Node2 -->
<g id="edge2" class="edge"><title>Node1&#45;&gt;Node2</title>
<path fill="none" stroke="midnightblue" d="M115.559,-101.616C140.843,-114.931 186.553,-137.632 228,-151 236.325,-153.685 245.161,-156.079 254.001,-158.194"/>
<polygon fill="midnightblue" stroke="midnightblue" points="253.429,-161.653 263.957,-160.463 254.985,-154.828 253.429,-161.653"/>
</g>
<!-- Node3 -->
<g id="node5" class="node"><title>Node3</title>
<a xlink:href="classtinyxml2_1_1XMLDocument.html#a3c335a700a43d7c363a393142a23f234" target="_top" xlink:title="Create a new Element associated with this Document.">
<polygon fill="none" stroke="black" points="228.5,-120.5 228.5,-141.5 427.5,-141.5 427.5,-120.5 228.5,-120.5"/>
<text text-anchor="middle" x="328" y="-128.5" font-family="FreeSans.ttf" font-size="10.00">tinyxml2::XMLDocument::NewElement</text>
</a>
</g>
<!-- Node1&#45;&gt;Node3 -->
<g id="edge4" class="edge"><title>Node1&#45;&gt;Node3</title>
<path fill="none" stroke="midnightblue" d="M156.955,-101.51C187.604,-106.794 224.927,-113.229 256.879,-118.738"/>
<polygon fill="midnightblue" stroke="midnightblue" points="256.6,-122.241 267.049,-120.491 257.79,-115.343 256.6,-122.241"/>
</g>
<!-- Node10 -->
<g id="node19" class="node"><title>Node10</title>
<a xlink:href="classtinyxml2_1_1XMLAttribute.html#a7fd852d6185af90361ec1bc9a7681ad6" target="_top" xlink:title="The next attribute in the list.">
<polygon fill="none" stroke="black" points="251.5,-80.5 251.5,-101.5 404.5,-101.5 404.5,-80.5 251.5,-80.5"/>
<text text-anchor="middle" x="328" y="-88.5" font-family="FreeSans.ttf" font-size="10.00">tinyxml2::XMLAttribute::Next</text>
</a>
</g>
<!-- Node1&#45;&gt;Node10 -->
<g id="edge18" class="edge"><title>Node1&#45;&gt;Node10</title>
<path fill="none" stroke="midnightblue" d="M191.703,-91C207.983,-91 224.813,-91 240.857,-91"/>
<polygon fill="midnightblue" stroke="midnightblue" points="241.273,-94.5001 251.273,-91 241.273,-87.5001 241.273,-94.5001"/>
</g>
<!-- Node11 -->
<g id="node21" class="node"><title>Node11</title>
<a xlink:href="classtinyxml2_1_1XMLElement.html#a11943abf2d0831548c3790dd5d9f119c" target="_top" xlink:title="Sets the named attribute to value.">
<polygon fill="none" stroke="black" points="234.5,-40.5 234.5,-61.5 421.5,-61.5 421.5,-40.5 234.5,-40.5"/>
<text text-anchor="middle" x="328" y="-48.5" font-family="FreeSans.ttf" font-size="10.00">tinyxml2::XMLElement::SetAttribute</text>
</a>
</g>
<!-- Node1&#45;&gt;Node11 -->
<g id="edge20" class="edge"><title>Node1&#45;&gt;Node11</title>
<path fill="none" stroke="midnightblue" d="M156.955,-80.4905C187.604,-75.2062 224.927,-68.7711 256.879,-63.2622"/>
<polygon fill="midnightblue" stroke="midnightblue" points="257.79,-66.657 267.049,-61.5087 256.6,-59.7588 257.79,-66.657"/>
</g>
<!-- Node16 -->
<g id="node34" class="node"><title>Node16</title>
<a xlink:href="classtinyxml2_1_1XMLNode.html#a7682be117e3b2b4ebfd517c1acaaadbf" target="_top" xlink:title="The meaning of &#39;value&#39; changes for the specific type.">
<polygon fill="none" stroke="black" points="258,-0.5 258,-21.5 398,-21.5 398,-0.5 258,-0.5"/>
<text text-anchor="middle" x="328" y="-8.5" font-family="FreeSans.ttf" font-size="10.00">tinyxml2::XMLNode::Value</text>
</a>
</g>
<!-- Node1&#45;&gt;Node16 -->
<g id="edge36" class="edge"><title>Node1&#45;&gt;Node16</title>
<path fill="none" stroke="midnightblue" d="M115.559,-80.3843C140.843,-67.0694 186.553,-44.3685 228,-31 236.325,-28.3148 245.161,-25.9211 254.001,-23.8065"/>
<polygon fill="midnightblue" stroke="midnightblue" points="254.985,-27.1721 263.957,-21.5368 253.429,-20.3472 254.985,-27.1721"/>
</g>
<!-- Node4 -->
<g id="node7" class="node"><title>Node4</title>
<a xlink:href="classtinyxml2_1_1MemPoolT.html#aa9d785a48ffe6ea1be679bab13464486" target="_top" xlink:title="tinyxml2::MemPoolT::Alloc">
<polygon fill="none" stroke="black" points="752,-120.5 752,-141.5 892,-141.5 892,-120.5 752,-120.5"/>
<text text-anchor="middle" x="822" y="-128.5" font-family="FreeSans.ttf" font-size="10.00">tinyxml2::MemPoolT::Alloc</text>
</a>
</g>
<!-- Node3&#45;&gt;Node4 -->
<g id="edge6" class="edge"><title>Node3&#45;&gt;Node4</title>
<path fill="none" stroke="midnightblue" d="M427.671,-131C520.16,-131 656.08,-131 741.764,-131"/>
<polygon fill="midnightblue" stroke="midnightblue" points="741.958,-134.5 751.958,-131 741.958,-127.5 741.958,-134.5"/>
</g>
<!-- Node5 -->
<g id="node9" class="node"><title>Node5</title>
<a xlink:href="classtinyxml2_1_1XMLElement.html#a97712009a530d8cb8a63bf705f02b4f1" target="_top" xlink:title="Set the name of the element.">
<polygon fill="none" stroke="black" points="494,-159.5 494,-180.5 668,-180.5 668,-159.5 494,-159.5"/>
<text text-anchor="middle" x="581" y="-167.5" font-family="FreeSans.ttf" font-size="10.00">tinyxml2::XMLElement::SetName</text>
</a>
</g>
<!-- Node3&#45;&gt;Node5 -->
<g id="edge8" class="edge"><title>Node3&#45;&gt;Node5</title>
<path fill="none" stroke="midnightblue" d="M396.132,-141.503C429.034,-146.574 468.684,-152.686 502.813,-157.947"/>
<polygon fill="midnightblue" stroke="midnightblue" points="502.33,-161.414 512.746,-159.479 503.396,-154.496 502.33,-161.414"/>
</g>
<!-- Node6 -->
<g id="node11" class="node"><title>Node6</title>
<a xlink:href="classtinyxml2_1_1XMLNode.html#a09dd68cf9eae137579f6e50f36487513" target="_top" xlink:title="Set the Value of an XML node.">
<polygon fill="none" stroke="black" points="743.5,-160.5 743.5,-181.5 900.5,-181.5 900.5,-160.5 743.5,-160.5"/>
<text text-anchor="middle" x="822" y="-168.5" font-family="FreeSans.ttf" font-size="10.00">tinyxml2::XMLNode::SetValue</text>
</a>
</g>
<!-- Node5&#45;&gt;Node6 -->
<g id="edge10" class="edge"><title>Node5&#45;&gt;Node6</title>
<path fill="none" stroke="midnightblue" d="M668.007,-170.361C689.094,-170.449 711.669,-170.542 732.854,-170.63"/>
<polygon fill="midnightblue" stroke="midnightblue" points="733.115,-174.131 743.129,-170.673 733.144,-167.131 733.115,-174.131"/>
</g>
<!-- Node7 -->
<g id="node13" class="node"><title>Node7</title>
<a xlink:href="classtinyxml2_1_1StrPair.html#a2baf6230e18333e02ab65d0897ee3941" target="_top" xlink:title="tinyxml2::StrPair::SetInternedStr">
<polygon fill="none" stroke="black" points="946.5,-160.5 946.5,-181.5 1117.5,-181.5 1117.5,-160.5 946.5,-160.5"/>
<text text-anchor="middle" x="1032" y="-168.5" font-family="FreeSans.ttf" font-size="10.00">tinyxml2::StrPair::SetInternedStr</text>
</a>
</g>
<!-- Node6&#45;&gt;Node7 -->
<g id="edge12" class="edge"><title>Node6&#45;&gt;Node7</title>
<path fill="none" stroke="midnightblue" d="M900.794,-171C912.316,-171 924.287,-171 936.104,-171"/>
<polygon fill="midnightblue" stroke="midnightblue" points="936.434,-174.5 946.434,-171 936.434,-167.5 936.434,-174.5"/>
</g>
<!-- Node9 -->
<g id="node17" class="node"><title>Node9</title>
<a xlink:href="classtinyxml2_1_1StrPair.html#a1f82ec6b5bee35ee7466d8565e43b1de" target="_top" xlink:title="tinyxml2::StrPair::SetStr">
<polygon fill="none" stroke="black" points="966.5,-80.5 966.5,-101.5 1097.5,-101.5 1097.5,-80.5 966.5,-80.5"/>
<text text-anchor="middle" x="1032" y="-88.5" font-family="FreeSans.ttf" font-size="10.00">tinyxml2::StrPair::SetStr</text>
</a>
</g>
<!-- Node6&#45;&gt;Node9 -->
<g id="edge16" class="edge"><title>Node6&#45;&gt;Node9</title>
<path fill="none" stroke="midnightblue" d="M877.487,-160.465C888.397,-157.814 899.662,-154.66 910,-151 943.982,-138.969 980.839,-119.938 1005.05,-106.541"/>
<polygon fill="midnightblue" stroke="midnightblue" points="1006.97,-109.476 1013.98,-101.534 1003.55,-103.37 1006.97,-109.476"/>
</g>
<!-- Node8 -->
<g id="node15" class="node"><title>Node8</title>
<a xlink:href="classtinyxml2_1_1StrPair.html#a80c1b3bd99bf62ae85c94a29ce537125" target="_top" xlink:title="tinyxml2::StrPair::Reset">
<polygon fill="none" stroke="black" points="1154.5,-160.5 1154.5,-181.5 1281.5,-181.5 1281.5,-160.5 1154.5,-160.5"/>
<text text-anchor="middle" x="1218" y="-168.5" font-family="FreeSans.ttf" font-size="10.00">tinyxml2::StrPair::Reset</text>
</a>
</g>
<!-- Node7&#45;&gt;Node8 -->
<g id="edge14" class="edge"><title>Node7&#45;&gt;Node8</title>
<path fill="none" stroke="midnightblue" d="M1117.65,-171C1126.56,-171 1135.56,-171 1144.32,-171"/>
<polygon fill="midnightblue" stroke="midnightblue" points="1144.47,-174.5 1154.47,-171 1144.47,-167.5 1144.47,-174.5"/>
</g>
<!-- Node12 -->
<g id="node23" class="node"><title>Node12</title>
<a xlink:href="classtinyxml2_1_1XMLElement.html#ac9d8fc849ec8acf46678217de011e896" target="_top" xlink:title="tinyxml2::XMLElement::FindOrCreateAttribute">
<polygon fill="none" stroke="black" points="464.5,-80.5 464.5,-101.5 697.5,-101.5 697.5,-80.5 464.5,-80.5"/>
<text text-anchor="middle" x="581" y="-88.5" font-family="FreeSans.ttf" font-size="10.00">tinyxml2::XMLElement::FindOrCreateAttribute</text>
</a>
</g>
<!-- Node11&#45;&gt;Node12 -->
<g id="edge22" class="edge"><title>Node11&#45;&gt;Node12</title>
<path fill="none" stroke="midnightblue" d="M394.473,-61.5095C428.185,-66.8396 469.303,-73.3404 504.346,-78.8807"/>
<polygon fill="midnightblue" stroke="midnightblue" points="504.108,-82.3866 514.532,-80.4913 505.202,-75.4725 504.108,-82.3866"/>
</g>
<!-- Node15 -->
<g id="node31" class="node"><title>Node15</title>
<a xlink:href="classtinyxml2_1_1XMLAttribute.html#a406d2c4a13c7af99a65edb59dd9f7581" target="_top" xlink:title="Set the attribute to a string value.">
<polygon fill="none" stroke="black" points="486.5,-40.5 486.5,-61.5 675.5,-61.5 675.5,-40.5 486.5,-40.5"/>
<text text-anchor="middle" x="581" y="-48.5" font-family="FreeSans.ttf" font-size="10.00">tinyxml2::XMLAttribute::SetAttribute</text>
</a>
</g>
<!-- Node11&#45;&gt;Node15 -->
<g id="edge32" class="edge"><title>Node11&#45;&gt;Node15</title>
<path fill="none" stroke="midnightblue" d="M421.848,-51C439.564,-51 458.197,-51 476.223,-51"/>
<polygon fill="midnightblue" stroke="midnightblue" points="476.459,-54.5001 486.459,-51 476.459,-47.5001 476.459,-54.5001"/>
</g>
<!-- Node12&#45;&gt;Node4 -->
<g id="edge24" class="edge"><title>Node12&#45;&gt;Node4</title>
<path fill="none" stroke="midnightblue" d="M644.32,-101.51C676.296,-106.817 715.265,-113.285 748.551,-118.809"/>
<polygon fill="midnightblue" stroke="midnightblue" points="748.247,-122.307 758.685,-120.491 749.393,-115.401 748.247,-122.307"/>
</g>
<!-- Node13 -->
<g id="node26" class="node"><title>Node13</title>
<a xlink:href="classtinyxml2_1_1XMLAttribute.html#a469c2363600007f49e62a8048a362d57" target="_top" xlink:title="tinyxml2::XMLAttribute::SetName">
<polygon fill="none" stroke="black" points="734,-80.5 734,-101.5 910,-101.5 910,-80.5 734,-80.5"/>
<text text-anchor="middle" x="822" y="-88.5" font-family="FreeSans.ttf" font-size="10.00">tinyxml2::XMLAttribute::SetName</text>
</a>
</g>
<!-- Node12&#45;&gt;Node13 -->
<g id="edge26" class="edge"><title>Node12&#45;&gt;Node13</title>
<path fill="none" stroke="midnightblue" d="M697.617,-91C706.339,-91 715.089,-91 723.682,-91"/>
<polygon fill="midnightblue" stroke="midnightblue" points="723.687,-94.5001 733.687,-91 723.687,-87.5001 723.687,-94.5001"/>
</g>
<!-- Node14 -->
<g id="node29" class="node"><title>Node14</title>
<a xlink:href="classtinyxml2_1_1XMLUtil.html#acfcd287cacfd2533e1bc9ea4dfb56602" target="_top" xlink:title="tinyxml2::XMLUtil::StringEqual">
<polygon fill="none" stroke="black" points="743,-40.5 743,-61.5 901,-61.5 901,-40.5 743,-40.5"/>
<text text-anchor="middle" x="822" y="-48.5" font-family="FreeSans.ttf" font-size="10.00">tinyxml2::XMLUtil::StringEqual</text>
</a>
</g>
<!-- Node12&#45;&gt;Node14 -->
<g id="edge30" class="edge"><title>Node12&#45;&gt;Node14</title>
<path fill="none" stroke="midnightblue" d="M644.32,-80.4905C676.296,-75.1833 715.265,-68.7154 748.551,-63.1907"/>
<polygon fill="midnightblue" stroke="midnightblue" points="749.393,-66.5989 758.685,-61.5087 748.247,-59.6934 749.393,-66.5989"/>
</g>
<!-- Node13&#45;&gt;Node9 -->
<g id="edge28" class="edge"><title>Node13&#45;&gt;Node9</title>
<path fill="none" stroke="midnightblue" d="M910.146,-91C925.467,-91 941.28,-91 956.234,-91"/>
<polygon fill="midnightblue" stroke="midnightblue" points="956.432,-94.5001 966.432,-91 956.432,-87.5001 956.432,-94.5001"/>
</g>
<!-- Node15&#45;&gt;Node9 -->
<g id="edge34" class="edge"><title>Node15&#45;&gt;Node9</title>
<path fill="none" stroke="midnightblue" d="M647.088,-40.453C673.975,-36.6609 705.397,-32.8616 734,-31 812.057,-25.9198 833.812,-13.2787 910,-31 946.126,-39.4029 983.87,-60.0972 1007.63,-74.827"/>
<polygon fill="midnightblue" stroke="midnightblue" points="1006,-77.9365 1016.32,-80.3349 1009.75,-72.0245 1006,-77.9365"/>
</g>
<!-- Node17 -->
<g id="node36" class="node"><title>Node17</title>
<a xlink:href="classtinyxml2_1_1StrPair.html#ad87e3d11330f5e689ba1e7e54c023b57" target="_top" xlink:title="tinyxml2::StrPair::GetStr">
<polygon fill="none" stroke="black" points="515,-0.5 515,-21.5 647,-21.5 647,-0.5 515,-0.5"/>
<text text-anchor="middle" x="581" y="-8.5" font-family="FreeSans.ttf" font-size="10.00">tinyxml2::StrPair::GetStr</text>
</a>
</g>
<!-- Node16&#45;&gt;Node17 -->
<g id="edge38" class="edge"><title>Node16&#45;&gt;Node17</title>
<path fill="none" stroke="midnightblue" d="M398.139,-11C431.138,-11 470.57,-11 504.354,-11"/>
<polygon fill="midnightblue" stroke="midnightblue" points="504.644,-14.5001 514.644,-11 504.644,-7.5001 504.644,-14.5001"/>
</g>
</g>
</svg>
        <g id="navigator" transform="translate(0 0)" fill="#404254">
                <rect fill="#f2f5e9" fill-opacity="0.5" stroke="#606060" stroke-width=".5" x="0" y="0" width="60" height="60"/>
                <use id="zoomplus" xlink:href="#zoomPlus" x="17" y="9" onmousedown="handleZoom(evt,'in')"/>
                <use id="zoomminus" xlink:href="#zoomMin" x="42" y="9" onmousedown="handleZoom(evt,'out')"/>
                <use id="reset" xlink:href="#resetDef" x="30" y="36" onmousedown="handleReset()"/>
                <g id="arrowUp" xlink:href="#dirArrow" transform="translate(30 24)" onmousedown="handlePan(0,-1)">
                  <use xlink:href="#rim" fill="#404040">
                        <set attributeName="fill" to="#808080" begin="arrowUp.mouseover" end="arrowUp.mouseout"/>
                  </use>
                  <path fill="none" stroke="white" stroke-width="1.5" d="M0,-3.0v7 M-2.5,-0.5L0,-3.0L2.5,-0.5"/>
                </g>
                <g id="arrowRight" xlink:href="#dirArrow" transform="rotate(90) translate(36 -43)" onmousedown="handlePan(1,0)">
                  <use xlink:href="#rim" fill="#404040">
                        <set attributeName="fill" to="#808080" begin="arrowRight.mouseover" end="arrowRight.mouseout"/>
                  </use>
                  <path fill="none" stroke="white" stroke-width="1.5" d="M0,-3.0v7 M-2.5,-0.5L0,-3.0L2.5,-0.5"/>
                </g>
                <g id="arrowDown" xlink:href="#dirArrow" transform="rotate(180) translate(-30 -48)" onmousedown="handlePan(0,1)">
                  <use xlink:href="#rim" fill="#404040">
                        <set attributeName="fill" to="#808080" begin="arrowDown.mouseover" end="arrowDown.mouseout"/>
                  </use>
                  <path fill="none" stroke="white" stroke-width="1.5" d="M0,-3.0v7 M-2.5,-0.5L0,-3.0L2.5,-0.5"/>
                </g>
                <g id="arrowLeft" xlink:href="#dirArrow" transform="rotate(270) translate(-36 17)" onmousedown="handlePan(-1,0)">
                  <use xlink:href="#rim" fill="#404040">
                        <set attributeName="fill" to="#808080" begin="arrowLeft.mouseover" end="arrowLeft.mouseout"/>
                  </use>
                  <path fill="none" stroke="white" stroke-width="1.5" d="M0,-3.0v7 M-2.5,-0.5L0,-3.0L2.5,-0.5"/>
                </g>
        </g>
</svg>
