<?xml version="1.0" encoding="UTF-8" standalone="no"?>
<!DOCTYPE svg PUBLIC "-//W3C//DTD SVG 1.1//EN"
 "http://www.w3.org/Graphics/SVG/1.1/DTD/svg11.dtd">
<!-- Generated by graphviz version 2.26.3 (20100126.1600)
 -->
<!-- Title: G Pages: 1 -->
<!--zoomable 169 -->
<svg id="main" version="1.1" xmlns="http://www.w3.org/2000/svg" xmlns:xlink="http://www.w3.org/1999/xlink" xml:space="preserve" onload="init(evt)">
        <defs>
                <circle id="rim" cx="0" cy="0" r="7"/>
                <circle id="rim2" cx="0" cy="0" r="3.5"/>
                <g id="zoomPlus">
                        <use xlink:href="#rim" fill="#404040">
                                <set attributeName="fill" to="#808080" begin="zoomplus.mouseover" end="zoomplus.mouseout"/>
                        </use>
                        <path d="M-4,0h8M0,-4v8" fill="none" stroke="white" stroke-width="1.5" pointer-events="none"/>
                </g>
                <g id="zoomMin">
                        <use xlink:href="#rim" fill="#404040">
                                <set attributeName="fill" to="#808080" begin="zoomminus.mouseover" end="zoomminus.mouseout"/>
                        </use>
                        <path d="M-4,0h8" fill="none" stroke="white" stroke-width="1.5" pointer-events="none"/>
                </g>
                <g id="dirArrow">
                        <path fill="none" stroke="white" stroke-width="1.5" d="M0,-3.0v7 M-2.5,-0.5L0,-3.0L2.5,-0.5"/>
                </g>
               <g id="resetDef">
                       <use xlink:href="#rim2" fill="#404040">
                               <set attributeName="fill" to="#808080" begin="reset.mouseover" end="reset.mouseout"/>
                       </use>
               </g>
        </defs>

<script type="text/javascript">
var viewWidth = 630;
var viewHeight = 169;
var sectionId = 'dynsection-4';
</script>
<script xlink:href="svgpan.js"/>
<svg id="graph" class="graph">
<g id="viewport">
<title>G</title>
<!-- Node1 -->
<g id="node1" class="node"><title>Node1</title>
<polygon fill="#bfbfbf" stroke="black" points="0,-78.5 0,-99.5 210,-99.5 210,-78.5 0,-78.5"/>
<text text-anchor="middle" x="105" y="-86.5" font-family="FreeSans.ttf" font-size="10.00">corecvs::AnglePointsFunction::operator()</text>
</g>
<!-- Node2 -->
<g id="node3" class="node"><title>Node2</title>
<a xlink:href="classcorecvs_1_1ModelToRadialCorrection.html#a45b9bd26898b785875acbde6beb3fca0" target="_top" xlink:title="corecvs::ModelToRadialCorrection::getRadial">
<polygon fill="none" stroke="black" points="246,-78.5 246,-99.5 472,-99.5 472,-78.5 246,-78.5"/>
<text text-anchor="middle" x="359" y="-86.5" font-family="FreeSans.ttf" font-size="10.00">corecvs::ModelToRadialCorrection::getRadial</text>
</a>
</g>
<!-- Node1&#45;&gt;Node2 -->
<g id="edge2" class="edge"><title>Node1&#45;&gt;Node2</title>
<path fill="none" stroke="midnightblue" d="M210.145,-89C218.581,-89 227.15,-89 235.696,-89"/>
<polygon fill="midnightblue" stroke="midnightblue" points="235.709,-92.5001 245.709,-89 235.709,-85.5001 235.709,-92.5001"/>
</g>
<!-- Node3 -->
<g id="node5" class="node"><title>Node3</title>
<a xlink:href="classcorecvs_1_1Vector2d.html#a944721c41f044c1388d9dc42ca899bce" target="_top" xlink:title="corecvs::Vector2d::x">
<polygon fill="none" stroke="black" points="508.5,-118.5 508.5,-139.5 621.5,-139.5 621.5,-118.5 508.5,-118.5"/>
<text text-anchor="middle" x="565" y="-126.5" font-family="FreeSans.ttf" font-size="10.00">corecvs::Vector2d::x</text>
</a>
</g>
<!-- Node1&#45;&gt;Node3 -->
<g id="edge16" class="edge"><title>Node1&#45;&gt;Node3</title>
<path fill="none" stroke="midnightblue" d="M123.37,-99.6809C149.558,-114.227 199.601,-139.538 246,-149 344.419,-169.069 372.118,-159.619 472,-149 486.14,-147.497 501.289,-144.742 515.168,-141.748"/>
<polygon fill="midnightblue" stroke="midnightblue" points="516.025,-145.143 525.017,-139.54 514.494,-138.313 516.025,-145.143"/>
</g>
<!-- Node4 -->
<g id="node7" class="node"><title>Node4</title>
<a xlink:href="classcorecvs_1_1Vector2d.html#ae1ea2ad4c0821001408bf963cffa8413" target="_top" xlink:title="corecvs::Vector2d::y">
<polygon fill="none" stroke="black" points="508.5,-78.5 508.5,-99.5 621.5,-99.5 621.5,-78.5 508.5,-78.5"/>
<text text-anchor="middle" x="565" y="-86.5" font-family="FreeSans.ttf" font-size="10.00">corecvs::Vector2d::y</text>
</a>
</g>
<!-- Node1&#45;&gt;Node4 -->
<g id="edge18" class="edge"><title>Node1&#45;&gt;Node4</title>
<path fill="none" stroke="midnightblue" d="M165.875,-78.4537C190.649,-74.6617 219.611,-70.8623 246,-69 346.195,-61.9293 372.118,-58.3814 472,-69 486.14,-70.5032 501.289,-73.2577 515.168,-76.2517"/>
<polygon fill="midnightblue" stroke="midnightblue" points="514.494,-79.6874 525.017,-78.4597 516.025,-72.8569 514.494,-79.6874"/>
</g>
<!-- Node5 -->
<g id="node9" class="node"><title>Node5</title>
<a xlink:href="classcorecvs_1_1RadialCorrection.html#a2f5fa4ae158f8e68bb31a9179d60c8a1" target="_top" xlink:title="corecvs::RadialCorrection::map">
<polygon fill="none" stroke="black" points="276.5,-118.5 276.5,-139.5 441.5,-139.5 441.5,-118.5 276.5,-118.5"/>
<text text-anchor="middle" x="359" y="-126.5" font-family="FreeSans.ttf" font-size="10.00">corecvs::RadialCorrection::map</text>
</a>
</g>
<!-- Node1&#45;&gt;Node5 -->
<g id="edge8" class="edge"><title>Node1&#45;&gt;Node5</title>
<path fill="none" stroke="midnightblue" d="M171.736,-99.5095C205.581,-104.84 246.861,-111.34 282.043,-116.881"/>
<polygon fill="midnightblue" stroke="midnightblue" points="281.847,-120.393 292.27,-118.491 282.936,-113.478 281.847,-120.393"/>
</g>
<!-- Node6 -->
<g id="node13" class="node"><title>Node6</title>
<a xlink:href="classcorecvs_1_1Vector2d.html#afa25e7e39878208d7685ffd61a64047c" target="_top" xlink:title="corecvs::Vector2d::sineTo">
<polygon fill="none" stroke="black" points="290.5,-0.5 290.5,-21.5 427.5,-21.5 427.5,-0.5 290.5,-0.5"/>
<text text-anchor="middle" x="359" y="-8.5" font-family="FreeSans.ttf" font-size="10.00">corecvs::Vector2d::sineTo</text>
</a>
</g>
<!-- Node1&#45;&gt;Node6 -->
<g id="edge14" class="edge"><title>Node1&#45;&gt;Node6</title>
<path fill="none" stroke="midnightblue" d="M129.849,-78.4312C157.735,-66.8614 204.51,-48.3197 246,-36 261.326,-31.4491 278.042,-27.3121 293.803,-23.7712"/>
<polygon fill="midnightblue" stroke="midnightblue" points="294.981,-27.0958 303.998,-21.532 293.48,-20.2588 294.981,-27.0958"/>
</g>
<!-- Node2&#45;&gt;Node3 -->
<g id="edge4" class="edge"><title>Node2&#45;&gt;Node3</title>
<path fill="none" stroke="midnightblue" d="M420.95,-99.5428C437.553,-102.483 455.479,-105.763 472,-109 483.649,-111.283 496.087,-113.86 507.954,-116.387"/>
<polygon fill="midnightblue" stroke="midnightblue" points="507.246,-119.814 517.758,-118.49 508.714,-112.97 507.246,-119.814"/>
</g>
<!-- Node2&#45;&gt;Node4 -->
<g id="edge6" class="edge"><title>Node2&#45;&gt;Node4</title>
<path fill="none" stroke="midnightblue" d="M472.245,-89C481.151,-89 489.955,-89 498.385,-89"/>
<polygon fill="midnightblue" stroke="midnightblue" points="498.465,-92.5001 508.465,-89 498.465,-85.5001 498.465,-92.5001"/>
</g>
<!-- Node5&#45;&gt;Node3 -->
<g id="edge12" class="edge"><title>Node5&#45;&gt;Node3</title>
<path fill="none" stroke="midnightblue" d="M441.601,-129C460.403,-129 480.149,-129 498.197,-129"/>
<polygon fill="midnightblue" stroke="midnightblue" points="498.318,-132.5 508.318,-129 498.318,-125.5 498.318,-132.5"/>
</g>
<!-- Node5&#45;&gt;Node4 -->
<g id="edge10" class="edge"><title>Node5&#45;&gt;Node4</title>
<path fill="none" stroke="midnightblue" d="M420.95,-118.457C437.553,-115.517 455.479,-112.237 472,-109 483.649,-106.717 496.087,-104.14 507.954,-101.613"/>
<polygon fill="midnightblue" stroke="midnightblue" points="508.714,-105.03 517.758,-99.5103 507.246,-98.1856 508.714,-105.03"/>
</g>
</g>
</svg>
        <g id="navigator" transform="translate(0 0)" fill="#404254">
                <rect fill="#f2f5e9" fill-opacity="0.5" stroke="#606060" stroke-width=".5" x="0" y="0" width="60" height="60"/>
                <use id="zoomplus" xlink:href="#zoomPlus" x="17" y="9" onmousedown="handleZoom(evt,'in')"/>
                <use id="zoomminus" xlink:href="#zoomMin" x="42" y="9" onmousedown="handleZoom(evt,'out')"/>
                <use id="reset" xlink:href="#resetDef" x="30" y="36" onmousedown="handleReset()"/>
                <g id="arrowUp" xlink:href="#dirArrow" transform="translate(30 24)" onmousedown="handlePan(0,-1)">
                  <use xlink:href="#rim" fill="#404040">
                        <set attributeName="fill" to="#808080" begin="arrowUp.mouseover" end="arrowUp.mouseout"/>
                  </use>
                  <path fill="none" stroke="white" stroke-width="1.5" d="M0,-3.0v7 M-2.5,-0.5L0,-3.0L2.5,-0.5"/>
                </g>
                <g id="arrowRight" xlink:href="#dirArrow" transform="rotate(90) translate(36 -43)" onmousedown="handlePan(1,0)">
                  <use xlink:href="#rim" fill="#404040">
                        <set attributeName="fill" to="#808080" begin="arrowRight.mouseover" end="arrowRight.mouseout"/>
                  </use>
                  <path fill="none" stroke="white" stroke-width="1.5" d="M0,-3.0v7 M-2.5,-0.5L0,-3.0L2.5,-0.5"/>
                </g>
                <g id="arrowDown" xlink:href="#dirArrow" transform="rotate(180) translate(-30 -48)" onmousedown="handlePan(0,1)">
                  <use xlink:href="#rim" fill="#404040">
                        <set attributeName="fill" to="#808080" begin="arrowDown.mouseover" end="arrowDown.mouseout"/>
                  </use>
                  <path fill="none" stroke="white" stroke-width="1.5" d="M0,-3.0v7 M-2.5,-0.5L0,-3.0L2.5,-0.5"/>
                </g>
                <g id="arrowLeft" xlink:href="#dirArrow" transform="rotate(270) translate(-36 17)" onmousedown="handlePan(-1,0)">
                  <use xlink:href="#rim" fill="#404040">
                        <set attributeName="fill" to="#808080" begin="arrowLeft.mouseover" end="arrowLeft.mouseout"/>
                  </use>
                  <path fill="none" stroke="white" stroke-width="1.5" d="M0,-3.0v7 M-2.5,-0.5L0,-3.0L2.5,-0.5"/>
                </g>
        </g>
</svg>
