<?xml version="1.0" encoding="UTF-8" standalone="no"?>
<!DOCTYPE svg PUBLIC "-//W3C//DTD SVG 1.1//EN"
 "http://www.w3.org/Graphics/SVG/1.1/DTD/svg11.dtd">
<!-- Generated by graphviz version 2.26.3 (20100126.1600)
 -->
<!-- Title: G Pages: 1 -->
<svg width="404pt" height="70pt"
 viewBox="0.00 0.00 404.00 70.00" xmlns="http://www.w3.org/2000/svg" xmlns:xlink="http://www.w3.org/1999/xlink">
<g id="graph1" class="graph" transform="scale(1 1) rotate(0) translate(4 66)">
<title>G</title>
<!-- Node1 -->
<g id="node1" class="node"><title>Node1</title>
<polygon fill="#bfbfbf" stroke="black" points="0.5,-20.5 0.5,-41.5 169.5,-41.5 169.5,-20.5 0.5,-20.5"/>
<text text-anchor="middle" x="85" y="-28.5" font-family="FreeSans.ttf" font-size="10.00">PaintImageWidget::deleteVertex</text>
</g>
<!-- Node2 -->
<g id="node3" class="node"><title>Node2</title>
<a xlink:href="classPaintImageWidget.html#a8ded543c268b2630bfd1daf82943678f" target="_top" xlink:title="PaintImageWidget::deleteVertex">
<polygon fill="none" stroke="black" points="216.5,-40.5 216.5,-61.5 385.5,-61.5 385.5,-40.5 216.5,-40.5"/>
<text text-anchor="middle" x="301" y="-48.5" font-family="FreeSans.ttf" font-size="10.00">PaintImageWidget::deleteVertex</text>
</a>
</g>
<!-- Node1&#45;&gt;Node2 -->
<g id="edge2" class="edge"><title>Node1&#45;&gt;Node2</title>
<path fill="none" stroke="midnightblue" d="M169.749,-38.8471C181.753,-39.9586 194.159,-41.1073 206.335,-42.2347"/>
<polygon fill="midnightblue" stroke="midnightblue" points="206.215,-45.7385 216.495,-43.1755 206.861,-38.7683 206.215,-45.7385"/>
</g>
<!-- Node3 -->
<g id="node5" class="node"><title>Node3</title>
<a xlink:href="classPaintImageWidget.html#a8c527381094a9ff5b9210793bf4fb01a" target="_top" xlink:title="PaintImageWidget::removeSelection">
<polygon fill="none" stroke="black" points="206.5,-0.5 206.5,-21.5 395.5,-21.5 395.5,-0.5 206.5,-0.5"/>
<text text-anchor="middle" x="301" y="-8.5" font-family="FreeSans.ttf" font-size="10.00">PaintImageWidget::removeSelection</text>
</a>
</g>
<!-- Node1&#45;&gt;Node3 -->
<g id="edge4" class="edge"><title>Node1&#45;&gt;Node3</title>
<path fill="none" stroke="midnightblue" d="M169.749,-23.1529C178.508,-22.3419 187.481,-21.511 196.423,-20.683"/>
<polygon fill="midnightblue" stroke="midnightblue" points="196.858,-24.1579 206.492,-19.7507 196.212,-17.1877 196.858,-24.1579"/>
</g>
</g>
</svg>
