<?xml version="1.0" encoding="UTF-8" standalone="no"?>
<!DOCTYPE svg PUBLIC "-//W3C//DTD SVG 1.1//EN"
 "http://www.w3.org/Graphics/SVG/1.1/DTD/svg11.dtd">
<!-- Generated by graphviz version 2.26.3 (20100126.1600)
 -->
<!-- Title: G Pages: 1 -->
<svg width="308pt" height="110pt"
 viewBox="0.00 0.00 308.00 110.00" xmlns="http://www.w3.org/2000/svg" xmlns:xlink="http://www.w3.org/1999/xlink">
<g id="graph1" class="graph" transform="scale(1 1) rotate(0) translate(4 106)">
<title>G</title>
<!-- Node1 -->
<g id="node1" class="node"><title>Node1</title>
<polygon fill="#bfbfbf" stroke="black" points="0.5,-40.5 0.5,-61.5 147.5,-61.5 147.5,-40.5 0.5,-40.5"/>
<text text-anchor="middle" x="74" y="-48.5" font-family="FreeSans.ttf" font-size="10.00">corecvs::RGBColor::chroma</text>
</g>
<!-- Node2 -->
<g id="node3" class="node"><title>Node2</title>
<a xlink:href="classcorecvs_1_1RGBColor.html#a28d1778710e5ade8ab275f8ef03cdaec" target="_top" xlink:title="corecvs::RGBColor::b">
<polygon fill="none" stroke="black" points="184,-80.5 184,-101.5 300,-101.5 300,-80.5 184,-80.5"/>
<text text-anchor="middle" x="242" y="-88.5" font-family="FreeSans.ttf" font-size="10.00">corecvs::RGBColor::b</text>
</a>
</g>
<!-- Node1&#45;&gt;Node2 -->
<g id="edge2" class="edge"><title>Node1&#45;&gt;Node2</title>
<path fill="none" stroke="midnightblue" d="M118.14,-61.5095C139.566,-66.6108 165.495,-72.7845 188.081,-78.1622"/>
<polygon fill="midnightblue" stroke="midnightblue" points="187.325,-81.5798 197.863,-80.4913 188.946,-74.7702 187.325,-81.5798"/>
</g>
<!-- Node3 -->
<g id="node5" class="node"><title>Node3</title>
<a xlink:href="classcorecvs_1_1RGBColor.html#a61bb42ad3c5af64582ba22408e8bc5c4" target="_top" xlink:title="corecvs::RGBColor::g">
<polygon fill="none" stroke="black" points="184,-40.5 184,-61.5 300,-61.5 300,-40.5 184,-40.5"/>
<text text-anchor="middle" x="242" y="-48.5" font-family="FreeSans.ttf" font-size="10.00">corecvs::RGBColor::g</text>
</a>
</g>
<!-- Node1&#45;&gt;Node3 -->
<g id="edge4" class="edge"><title>Node1&#45;&gt;Node3</title>
<path fill="none" stroke="midnightblue" d="M147.687,-51C156.274,-51 165.007,-51 173.52,-51"/>
<polygon fill="midnightblue" stroke="midnightblue" points="173.769,-54.5001 183.769,-51 173.769,-47.5001 173.769,-54.5001"/>
</g>
<!-- Node4 -->
<g id="node7" class="node"><title>Node4</title>
<a xlink:href="classcorecvs_1_1RGBColor.html#a551378cc4e40775286d1200a21e3dfbc" target="_top" xlink:title="corecvs::RGBColor::r">
<polygon fill="none" stroke="black" points="185,-0.5 185,-21.5 299,-21.5 299,-0.5 185,-0.5"/>
<text text-anchor="middle" x="242" y="-8.5" font-family="FreeSans.ttf" font-size="10.00">corecvs::RGBColor::r</text>
</a>
</g>
<!-- Node1&#45;&gt;Node4 -->
<g id="edge6" class="edge"><title>Node1&#45;&gt;Node4</title>
<path fill="none" stroke="midnightblue" d="M118.14,-40.4905C139.566,-35.3892 165.495,-29.2155 188.081,-23.8378"/>
<polygon fill="midnightblue" stroke="midnightblue" points="188.946,-27.2298 197.863,-21.5087 187.325,-20.4202 188.946,-27.2298"/>
</g>
</g>
</svg>
