<?xml version="1.0" encoding="UTF-8" standalone="no"?>
<!DOCTYPE svg PUBLIC "-//W3C//DTD SVG 1.1//EN"
 "http://www.w3.org/Graphics/SVG/1.1/DTD/svg11.dtd">
<!-- Generated by graphviz version 2.26.3 (20100126.1600)
 -->
<!-- Title: G Pages: 1 -->
<!--zoomable 110 -->
<svg id="main" version="1.1" xmlns="http://www.w3.org/2000/svg" xmlns:xlink="http://www.w3.org/1999/xlink" xml:space="preserve" onload="init(evt)">
        <defs>
                <circle id="rim" cx="0" cy="0" r="7"/>
                <circle id="rim2" cx="0" cy="0" r="3.5"/>
                <g id="zoomPlus">
                        <use xlink:href="#rim" fill="#404040">
                                <set attributeName="fill" to="#808080" begin="zoomplus.mouseover" end="zoomplus.mouseout"/>
                        </use>
                        <path d="M-4,0h8M0,-4v8" fill="none" stroke="white" stroke-width="1.5" pointer-events="none"/>
                </g>
                <g id="zoomMin">
                        <use xlink:href="#rim" fill="#404040">
                                <set attributeName="fill" to="#808080" begin="zoomminus.mouseover" end="zoomminus.mouseout"/>
                        </use>
                        <path d="M-4,0h8" fill="none" stroke="white" stroke-width="1.5" pointer-events="none"/>
                </g>
                <g id="dirArrow">
                        <path fill="none" stroke="white" stroke-width="1.5" d="M0,-3.0v7 M-2.5,-0.5L0,-3.0L2.5,-0.5"/>
                </g>
               <g id="resetDef">
                       <use xlink:href="#rim2" fill="#404040">
                               <set attributeName="fill" to="#808080" begin="reset.mouseover" end="reset.mouseout"/>
                       </use>
               </g>
        </defs>

<script type="text/javascript">
var viewWidth = 1000;
var viewHeight = 110;
var sectionId = 'dynsection-29';
</script>
<script xlink:href="svgpan.js"/>
<svg id="graph" class="graph">
<g id="viewport">
<title>G</title>
<!-- Node1 -->
<g id="node1" class="node"><title>Node1</title>
<polygon fill="#bfbfbf" stroke="black" points="0,-40.5 0,-61.5 200,-61.5 200,-40.5 0,-40.5"/>
<text text-anchor="middle" x="100" y="-48.5" font-family="FreeSans.ttf" font-size="10.00">tinyxml2::XMLDocument::RootElement</text>
</g>
<!-- Node2 -->
<g id="node3" class="node"><title>Node2</title>
<a xlink:href="classtinyxml2_1_1XMLNode.html#a20f48e99b03e9c17487944f229bee130" target="_top" xlink:title="Get the first child element, or optionally the first child element with the specified name...">
<polygon fill="none" stroke="black" points="236.5,-40.5 236.5,-61.5 433.5,-61.5 433.5,-40.5 236.5,-40.5"/>
<text text-anchor="middle" x="335" y="-48.5" font-family="FreeSans.ttf" font-size="10.00">tinyxml2::XMLNode::FirstChildElement</text>
</a>
</g>
<!-- Node1&#45;&gt;Node2 -->
<g id="edge2" class="edge"><title>Node1&#45;&gt;Node2</title>
<path fill="none" stroke="midnightblue" d="M200.002,-51C208.622,-51 217.37,-51 226.056,-51"/>
<polygon fill="midnightblue" stroke="midnightblue" points="226.211,-54.5001 236.211,-51 226.211,-47.5001 226.211,-54.5001"/>
</g>
<!-- Node3 -->
<g id="node5" class="node"><title>Node3</title>
<a xlink:href="classtinyxml2_1_1XMLElement.html#a8bff355472bce2c60d4b50a212bf7f5f" target="_top" xlink:title="Get the name of an element (which is the Value() of the node.)">
<polygon fill="none" stroke="black" points="480,-80.5 480,-101.5 638,-101.5 638,-80.5 480,-80.5"/>
<text text-anchor="middle" x="559" y="-88.5" font-family="FreeSans.ttf" font-size="10.00">tinyxml2::XMLElement::Name</text>
</a>
</g>
<!-- Node2&#45;&gt;Node3 -->
<g id="edge4" class="edge"><title>Node2&#45;&gt;Node3</title>
<path fill="none" stroke="midnightblue" d="M393.853,-61.5095C423.317,-66.771 459.17,-73.1732 489.931,-78.6662"/>
<polygon fill="midnightblue" stroke="midnightblue" points="489.692,-82.1788 500.151,-80.4913 490.922,-75.2878 489.692,-82.1788"/>
</g>
<!-- Node6 -->
<g id="node11" class="node"><title>Node6</title>
<a xlink:href="classtinyxml2_1_1XMLUtil.html#acfcd287cacfd2533e1bc9ea4dfb56602" target="_top" xlink:title="tinyxml2::XMLUtil::StringEqual">
<polygon fill="none" stroke="black" points="480,-40.5 480,-61.5 638,-61.5 638,-40.5 480,-40.5"/>
<text text-anchor="middle" x="559" y="-48.5" font-family="FreeSans.ttf" font-size="10.00">tinyxml2::XMLUtil::StringEqual</text>
</a>
</g>
<!-- Node2&#45;&gt;Node6 -->
<g id="edge10" class="edge"><title>Node2&#45;&gt;Node6</title>
<path fill="none" stroke="midnightblue" d="M433.576,-51C445.559,-51 457.75,-51 469.59,-51"/>
<polygon fill="midnightblue" stroke="midnightblue" points="469.891,-54.5001 479.891,-51 469.891,-47.5001 469.891,-54.5001"/>
</g>
<!-- Node7 -->
<g id="node13" class="node"><title>Node7</title>
<a xlink:href="classtinyxml2_1_1XMLElement.html#ad9ff5c2dbc15df36cf664ce1b0ea0a5d" target="_top" xlink:title="Safely cast to an Element, or null.">
<polygon fill="none" stroke="black" points="470,-0.5 470,-21.5 648,-21.5 648,-0.5 470,-0.5"/>
<text text-anchor="middle" x="559" y="-8.5" font-family="FreeSans.ttf" font-size="10.00">tinyxml2::XMLElement::ToElement</text>
</a>
</g>
<!-- Node2&#45;&gt;Node7 -->
<g id="edge12" class="edge"><title>Node2&#45;&gt;Node7</title>
<path fill="none" stroke="midnightblue" d="M393.853,-40.4905C423.317,-35.229 459.17,-28.8268 489.931,-23.3338"/>
<polygon fill="midnightblue" stroke="midnightblue" points="490.922,-26.7122 500.151,-21.5087 489.692,-19.8212 490.922,-26.7122"/>
</g>
<!-- Node4 -->
<g id="node7" class="node"><title>Node4</title>
<a xlink:href="classtinyxml2_1_1XMLNode.html#a7682be117e3b2b4ebfd517c1acaaadbf" target="_top" xlink:title="The meaning of &#39;value&#39; changes for the specific type.">
<polygon fill="none" stroke="black" points="684,-80.5 684,-101.5 824,-101.5 824,-80.5 684,-80.5"/>
<text text-anchor="middle" x="754" y="-88.5" font-family="FreeSans.ttf" font-size="10.00">tinyxml2::XMLNode::Value</text>
</a>
</g>
<!-- Node3&#45;&gt;Node4 -->
<g id="edge6" class="edge"><title>Node3&#45;&gt;Node4</title>
<path fill="none" stroke="midnightblue" d="M638.033,-91C649.791,-91 661.921,-91 673.705,-91"/>
<polygon fill="midnightblue" stroke="midnightblue" points="673.954,-94.5001 683.953,-91 673.953,-87.5001 673.954,-94.5001"/>
</g>
<!-- Node5 -->
<g id="node9" class="node"><title>Node5</title>
<a xlink:href="classtinyxml2_1_1StrPair.html#ad87e3d11330f5e689ba1e7e54c023b57" target="_top" xlink:title="tinyxml2::StrPair::GetStr">
<polygon fill="none" stroke="black" points="860,-80.5 860,-101.5 992,-101.5 992,-80.5 860,-80.5"/>
<text text-anchor="middle" x="926" y="-88.5" font-family="FreeSans.ttf" font-size="10.00">tinyxml2::StrPair::GetStr</text>
</a>
</g>
<!-- Node4&#45;&gt;Node5 -->
<g id="edge8" class="edge"><title>Node4&#45;&gt;Node5</title>
<path fill="none" stroke="midnightblue" d="M824.455,-91C832.766,-91 841.277,-91 849.663,-91"/>
<polygon fill="midnightblue" stroke="midnightblue" points="849.81,-94.5001 859.81,-91 849.81,-87.5001 849.81,-94.5001"/>
</g>
</g>
</svg>
        <g id="navigator" transform="translate(0 0)" fill="#404254">
                <rect fill="#f2f5e9" fill-opacity="0.5" stroke="#606060" stroke-width=".5" x="0" y="0" width="60" height="60"/>
                <use id="zoomplus" xlink:href="#zoomPlus" x="17" y="9" onmousedown="handleZoom(evt,'in')"/>
                <use id="zoomminus" xlink:href="#zoomMin" x="42" y="9" onmousedown="handleZoom(evt,'out')"/>
                <use id="reset" xlink:href="#resetDef" x="30" y="36" onmousedown="handleReset()"/>
                <g id="arrowUp" xlink:href="#dirArrow" transform="translate(30 24)" onmousedown="handlePan(0,-1)">
                  <use xlink:href="#rim" fill="#404040">
                        <set attributeName="fill" to="#808080" begin="arrowUp.mouseover" end="arrowUp.mouseout"/>
                  </use>
                  <path fill="none" stroke="white" stroke-width="1.5" d="M0,-3.0v7 M-2.5,-0.5L0,-3.0L2.5,-0.5"/>
                </g>
                <g id="arrowRight" xlink:href="#dirArrow" transform="rotate(90) translate(36 -43)" onmousedown="handlePan(1,0)">
                  <use xlink:href="#rim" fill="#404040">
                        <set attributeName="fill" to="#808080" begin="arrowRight.mouseover" end="arrowRight.mouseout"/>
                  </use>
                  <path fill="none" stroke="white" stroke-width="1.5" d="M0,-3.0v7 M-2.5,-0.5L0,-3.0L2.5,-0.5"/>
                </g>
                <g id="arrowDown" xlink:href="#dirArrow" transform="rotate(180) translate(-30 -48)" onmousedown="handlePan(0,1)">
                  <use xlink:href="#rim" fill="#404040">
                        <set attributeName="fill" to="#808080" begin="arrowDown.mouseover" end="arrowDown.mouseout"/>
                  </use>
                  <path fill="none" stroke="white" stroke-width="1.5" d="M0,-3.0v7 M-2.5,-0.5L0,-3.0L2.5,-0.5"/>
                </g>
                <g id="arrowLeft" xlink:href="#dirArrow" transform="rotate(270) translate(-36 17)" onmousedown="handlePan(-1,0)">
                  <use xlink:href="#rim" fill="#404040">
                        <set attributeName="fill" to="#808080" begin="arrowLeft.mouseover" end="arrowLeft.mouseout"/>
                  </use>
                  <path fill="none" stroke="white" stroke-width="1.5" d="M0,-3.0v7 M-2.5,-0.5L0,-3.0L2.5,-0.5"/>
                </g>
        </g>
</svg>
