<?xml version="1.0" encoding="UTF-8" standalone="no"?>
<!DOCTYPE svg PUBLIC "-//W3C//DTD SVG 1.1//EN"
 "http://www.w3.org/Graphics/SVG/1.1/DTD/svg11.dtd">
<!-- Generated by graphviz version 2.26.3 (20100126.1600)
 -->
<!-- Title: G Pages: 1 -->
<svg width="274pt" height="174pt"
 viewBox="0.00 0.00 274.00 174.00" xmlns="http://www.w3.org/2000/svg" xmlns:xlink="http://www.w3.org/1999/xlink">
<g id="graph1" class="graph" transform="scale(1 1) rotate(0) translate(4 170)">
<title>G</title>
<!-- Node1 -->
<g id="node1" class="node"><title>Node1</title>
<polygon fill="#bfbfbf" stroke="black" points="-0.5,-0.5 -0.5,-21.5 266.5,-21.5 266.5,-0.5 -0.5,-0.5"/>
<text text-anchor="middle" x="133" y="-8.5" font-family="FreeSans.ttf" font-size="10.00">corecvs::VoxelBufferBase&lt; RealType, ElementType &gt;</text>
</g>
<!-- Node2 -->
<g id="node2" class="node"><title>Node2</title>
<a xlink:href="classcorecvs_1_1ObjectRef.html" target="_top" xlink:title="corecvs::ObjectRef\&lt; uint8_t \&gt;">
<polygon fill="none" stroke="black" points="53,-72.5 53,-93.5 213,-93.5 213,-72.5 53,-72.5"/>
<text text-anchor="middle" x="133" y="-80.5" font-family="FreeSans.ttf" font-size="10.00">corecvs::ObjectRef&lt; uint8_t &gt;</text>
</a>
</g>
<!-- Node2&#45;&gt;Node1 -->
<g id="edge2" class="edge"><title>Node2&#45;&gt;Node1</title>
<path fill="none" stroke="#9a32cd" stroke-dasharray="5,2" d="M133,-62.2348C133,-48.969 133,-32.3188 133,-21.6674"/>
<polygon fill="#9a32cd" stroke="#9a32cd" points="129.5,-62.3761 133,-72.3762 136.5,-62.3762 129.5,-62.3761"/>
<text text-anchor="middle" x="168" y="-44.5" font-family="FreeSans.ttf" font-size="10.00"> memoryBlock</text>
</g>
<!-- Node3 -->
<g id="node4" class="node"><title>Node3</title>
<a xlink:href="classcorecvs_1_1ObjectBlock.html" target="_top" xlink:title="corecvs::ObjectBlock\&lt; uint8_t \&gt;">
<polygon fill="none" stroke="black" points="47.5,-144.5 47.5,-165.5 218.5,-165.5 218.5,-144.5 47.5,-144.5"/>
<text text-anchor="middle" x="133" y="-152.5" font-family="FreeSans.ttf" font-size="10.00">corecvs::ObjectBlock&lt; uint8_t &gt;</text>
</a>
</g>
<!-- Node3&#45;&gt;Node2 -->
<g id="edge4" class="edge"><title>Node3&#45;&gt;Node2</title>
<path fill="none" stroke="#9a32cd" stroke-dasharray="5,2" d="M133,-134.235C133,-120.969 133,-104.319 133,-93.6674"/>
<polygon fill="#9a32cd" stroke="#9a32cd" points="129.5,-134.376 133,-144.376 136.5,-134.376 129.5,-134.376"/>
<text text-anchor="middle" x="147" y="-116.5" font-family="FreeSans.ttf" font-size="10.00"> block</text>
</g>
</g>
</svg>
