<?xml version="1.0" encoding="UTF-8" standalone="no"?>
<!DOCTYPE svg PUBLIC "-//W3C//DTD SVG 1.1//EN"
 "http://www.w3.org/Graphics/SVG/1.1/DTD/svg11.dtd">
<!-- Generated by graphviz version 2.26.3 (20100126.1600)
 -->
<!-- Title: G Pages: 1 -->
<svg width="482pt" height="70pt"
 viewBox="0.00 0.00 482.00 70.00" xmlns="http://www.w3.org/2000/svg" xmlns:xlink="http://www.w3.org/1999/xlink">
<g id="graph1" class="graph" transform="scale(1 1) rotate(0) translate(4 66)">
<title>G</title>
<!-- Node1 -->
<g id="node1" class="node"><title>Node1</title>
<polygon fill="#bfbfbf" stroke="black" points="0.5,-20.5 0.5,-41.5 277.5,-41.5 277.5,-20.5 0.5,-20.5"/>
<text text-anchor="middle" x="139" y="-28.5" font-family="FreeSans.ttf" font-size="10.00">corecvs::BufferConverter::ParallelConverter::operator()</text>
</g>
<!-- Node2 -->
<g id="node3" class="node"><title>Node2</title>
<a xlink:href="classcorecvs_1_1BlockedRange.html#a6afc35b5d0d32070559723d5bb0a4f73" target="_top" xlink:title="corecvs::BlockedRange::begin">
<polygon fill="none" stroke="black" points="314.5,-40.5 314.5,-61.5 473.5,-61.5 473.5,-40.5 314.5,-40.5"/>
<text text-anchor="middle" x="394" y="-48.5" font-family="FreeSans.ttf" font-size="10.00">corecvs::BlockedRange::begin</text>
</a>
</g>
<!-- Node1&#45;&gt;Node2 -->
<g id="edge2" class="edge"><title>Node1&#45;&gt;Node2</title>
<path fill="none" stroke="midnightblue" d="M273.221,-41.5271C283.75,-42.3529 294.217,-43.1739 304.335,-43.9675"/>
<polygon fill="midnightblue" stroke="midnightblue" points="304.083,-47.4583 314.326,-44.751 304.63,-40.4798 304.083,-47.4583"/>
</g>
<!-- Node3 -->
<g id="node5" class="node"><title>Node3</title>
<a xlink:href="classcorecvs_1_1BlockedRange.html#a6f7301fc298a428dde190df3e30551f7" target="_top" xlink:title="corecvs::BlockedRange::end">
<polygon fill="none" stroke="black" points="318.5,-0.5 318.5,-21.5 469.5,-21.5 469.5,-0.5 318.5,-0.5"/>
<text text-anchor="middle" x="394" y="-8.5" font-family="FreeSans.ttf" font-size="10.00">corecvs::BlockedRange::end</text>
</a>
</g>
<!-- Node1&#45;&gt;Node3 -->
<g id="edge4" class="edge"><title>Node1&#45;&gt;Node3</title>
<path fill="none" stroke="midnightblue" d="M273.221,-20.4729C285.071,-19.5434 296.844,-18.6201 308.128,-17.735"/>
<polygon fill="midnightblue" stroke="midnightblue" points="308.647,-21.2052 318.342,-16.9339 308.099,-14.2267 308.647,-21.2052"/>
</g>
</g>
</svg>
