<?xml version="1.0" encoding="UTF-8" standalone="no"?>
<!DOCTYPE svg PUBLIC "-//W3C//DTD SVG 1.1//EN"
 "http://www.w3.org/Graphics/SVG/1.1/DTD/svg11.dtd">
<!-- Generated by graphviz version 2.26.3 (20100126.1600)
 -->
<!-- Title: G Pages: 1 -->
<svg width="354pt" height="70pt"
 viewBox="0.00 0.00 354.00 70.00" xmlns="http://www.w3.org/2000/svg" xmlns:xlink="http://www.w3.org/1999/xlink">
<g id="graph1" class="graph" transform="scale(1 1) rotate(0) translate(4 66)">
<title>G</title>
<!-- Node1 -->
<g id="node1" class="node"><title>Node1</title>
<polygon fill="#bfbfbf" stroke="black" points="0,-20.5 0,-41.5 180,-41.5 180,-20.5 0,-20.5"/>
<text text-anchor="middle" x="90" y="-28.5" font-family="FreeSans.ttf" font-size="10.00">corecvs::SSEMath::difference15bit</text>
</g>
<!-- Node2 -->
<g id="node3" class="node"><title>Node2</title>
<a xlink:href="classcorecvs_1_1SSEMath.html#a65906462609493d03d2c927c9109bdaa" target="_top" xlink:title="corecvs::SSEMath::max">
<polygon fill="none" stroke="black" points="216,-40.5 216,-61.5 346,-61.5 346,-40.5 216,-40.5"/>
<text text-anchor="middle" x="281" y="-48.5" font-family="FreeSans.ttf" font-size="10.00">corecvs::SSEMath::max</text>
</a>
</g>
<!-- Node1&#45;&gt;Node2 -->
<g id="edge2" class="edge"><title>Node1&#45;&gt;Node2</title>
<path fill="none" stroke="midnightblue" d="M180.187,-40.4436C188.77,-41.3424 197.411,-42.2472 205.831,-43.1289"/>
<polygon fill="midnightblue" stroke="midnightblue" points="205.663,-46.6304 215.973,-44.1909 206.392,-39.6684 205.663,-46.6304"/>
</g>
<!-- Node3 -->
<g id="node5" class="node"><title>Node3</title>
<a xlink:href="classcorecvs_1_1SSEMath.html#a9f5556827ea9b592942005ee0deb50ae" target="_top" xlink:title="corecvs::SSEMath::min">
<polygon fill="none" stroke="black" points="217.5,-0.5 217.5,-21.5 344.5,-21.5 344.5,-0.5 217.5,-0.5"/>
<text text-anchor="middle" x="281" y="-8.5" font-family="FreeSans.ttf" font-size="10.00">corecvs::SSEMath::min</text>
</a>
</g>
<!-- Node1&#45;&gt;Node3 -->
<g id="edge4" class="edge"><title>Node1&#45;&gt;Node3</title>
<path fill="none" stroke="midnightblue" d="M180.187,-21.5564C189.212,-20.6114 198.3,-19.6597 207.128,-18.7352"/>
<polygon fill="midnightblue" stroke="midnightblue" points="207.772,-22.1871 217.353,-17.6646 207.043,-15.2251 207.772,-22.1871"/>
</g>
</g>
</svg>
