<?xml version="1.0" encoding="UTF-8" standalone="no"?>
<!DOCTYPE svg PUBLIC "-//W3C//DTD SVG 1.1//EN"
 "http://www.w3.org/Graphics/SVG/1.1/DTD/svg11.dtd">
<!-- Generated by graphviz version 2.26.3 (20100126.1600)
 -->
<!-- Title: G Pages: 1 -->
<svg width="460pt" height="146pt"
 viewBox="0.00 0.00 460.00 146.00" xmlns="http://www.w3.org/2000/svg" xmlns:xlink="http://www.w3.org/1999/xlink">
<g id="graph1" class="graph" transform="scale(1 1) rotate(0) translate(4 142)">
<title>G</title>
<!-- Node1 -->
<g id="node1" class="node"><title>Node1</title>
<polygon fill="#bfbfbf" stroke="black" points="172.5,-58.5 172.5,-79.5 297.5,-79.5 297.5,-58.5 172.5,-58.5"/>
<text text-anchor="middle" x="235" y="-66.5" font-family="FreeSans.ttf" font-size="10.00">FilterBlockPresentation</text>
</g>
<!-- Node3 -->
<g id="node5" class="node"><title>Node3</title>
<a xlink:href="classCompoundBlockPresentation.html" target="_top" xlink:title="CompoundBlockPresentation">
<polygon fill="none" stroke="black" points="-0.5,-0.5 -0.5,-21.5 154.5,-21.5 154.5,-0.5 -0.5,-0.5"/>
<text text-anchor="middle" x="77" y="-8.5" font-family="FreeSans.ttf" font-size="10.00">CompoundBlockPresentation</text>
</a>
</g>
<!-- Node1&#45;&gt;Node3 -->
<g id="edge4" class="edge"><title>Node1&#45;&gt;Node3</title>
<path fill="none" stroke="midnightblue" d="M196.888,-55.0095C168.81,-44.7023 131.218,-30.903 105.666,-21.5231"/>
<polygon fill="midnightblue" stroke="midnightblue" points="195.794,-58.3362 206.387,-58.4966 198.206,-51.7649 195.794,-58.3362"/>
</g>
<!-- Node4 -->
<g id="node7" class="node"><title>Node4</title>
<a xlink:href="classInputBlockPresentation.html" target="_top" xlink:title="InputBlockPresentation">
<polygon fill="none" stroke="black" points="171.5,-0.5 171.5,-21.5 298.5,-21.5 298.5,-0.5 171.5,-0.5"/>
<text text-anchor="middle" x="235" y="-8.5" font-family="FreeSans.ttf" font-size="10.00">InputBlockPresentation</text>
</a>
</g>
<!-- Node1&#45;&gt;Node4 -->
<g id="edge6" class="edge"><title>Node1&#45;&gt;Node4</title>
<path fill="none" stroke="midnightblue" d="M235,-48.1906C235,-39.1684 235,-28.9941 235,-21.5707"/>
<polygon fill="midnightblue" stroke="midnightblue" points="231.5,-48.3619 235,-58.3619 238.5,-48.3619 231.5,-48.3619"/>
</g>
<!-- Node5 -->
<g id="node9" class="node"><title>Node5</title>
<a xlink:href="classOutputBlockPresentation.html" target="_top" xlink:title="OutputBlockPresentation">
<polygon fill="none" stroke="black" points="316,-0.5 316,-21.5 452,-21.5 452,-0.5 316,-0.5"/>
<text text-anchor="middle" x="384" y="-8.5" font-family="FreeSans.ttf" font-size="10.00">OutputBlockPresentation</text>
</a>
</g>
<!-- Node1&#45;&gt;Node5 -->
<g id="edge8" class="edge"><title>Node1&#45;&gt;Node5</title>
<path fill="none" stroke="midnightblue" d="M271.637,-54.7386C298.038,-44.4616 333.08,-30.821 356.967,-21.5231"/>
<polygon fill="midnightblue" stroke="midnightblue" points="270.032,-51.6075 261.983,-58.4966 272.571,-58.1307 270.032,-51.6075"/>
</g>
<!-- Node2 -->
<g id="node2" class="node"><title>Node2</title>
<a xlink:href="classDiagramItem.html" target="_top" xlink:title="[0]">
<polygon fill="none" stroke="black" points="195,-116.5 195,-137.5 275,-137.5 275,-116.5 195,-116.5"/>
<text text-anchor="middle" x="235" y="-124.5" font-family="FreeSans.ttf" font-size="10.00">DiagramItem</text>
</a>
</g>
<!-- Node2&#45;&gt;Node1 -->
<g id="edge2" class="edge"><title>Node2&#45;&gt;Node1</title>
<path fill="none" stroke="midnightblue" d="M235,-106.191C235,-97.1684 235,-86.9941 235,-79.5707"/>
<polygon fill="midnightblue" stroke="midnightblue" points="231.5,-106.362 235,-116.362 238.5,-106.362 231.5,-106.362"/>
</g>
</g>
</svg>
