<?xml version="1.0" encoding="UTF-8" standalone="no"?>
<!DOCTYPE svg PUBLIC "-//W3C//DTD SVG 1.1//EN"
 "http://www.w3.org/Graphics/SVG/1.1/DTD/svg11.dtd">
<!-- Generated by graphviz version 2.26.3 (20100126.1600)
 -->
<!-- Title: G Pages: 1 -->
<svg width="356pt" height="110pt"
 viewBox="0.00 0.00 356.00 110.00" xmlns="http://www.w3.org/2000/svg" xmlns:xlink="http://www.w3.org/1999/xlink">
<g id="graph1" class="graph" transform="scale(1 1) rotate(0) translate(4 106)">
<title>G</title>
<!-- Node1 -->
<g id="node1" class="node"><title>Node1</title>
<polygon fill="#bfbfbf" stroke="black" points="0,-40.5 0,-61.5 166,-61.5 166,-40.5 0,-40.5"/>
<text text-anchor="middle" x="83" y="-48.5" font-family="FreeSans.ttf" font-size="10.00">corecvs::Plane3d::intersectWith</text>
</g>
<!-- Node2 -->
<g id="node3" class="node"><title>Node2</title>
<a xlink:href="classcorecvs_1_1BaseRay.html#ab05c9b75ed11b1d079db61b12e222bed" target="_top" xlink:title="corecvs::BaseRay::getPoint">
<polygon fill="none" stroke="black" points="202,-80.5 202,-101.5 348,-101.5 348,-80.5 202,-80.5"/>
<text text-anchor="middle" x="275" y="-88.5" font-family="FreeSans.ttf" font-size="10.00">corecvs::BaseRay::getPoint</text>
</a>
</g>
<!-- Node1&#45;&gt;Node2 -->
<g id="edge2" class="edge"><title>Node1&#45;&gt;Node2</title>
<path fill="none" stroke="midnightblue" d="M133.446,-61.5095C158.371,-66.7023 188.63,-73.0064 214.764,-78.4508"/>
<polygon fill="midnightblue" stroke="midnightblue" points="214.055,-81.8781 224.558,-80.4913 215.482,-75.0252 214.055,-81.8781"/>
</g>
<!-- Node3 -->
<g id="node5" class="node"><title>Node3</title>
<a xlink:href="classcorecvs_1_1Plane3d.html#a8e36c35360b8c4a1d7173de99dc41e0d" target="_top" xlink:title="corecvs::Plane3d::last">
<polygon fill="none" stroke="black" points="214.5,-40.5 214.5,-61.5 335.5,-61.5 335.5,-40.5 214.5,-40.5"/>
<text text-anchor="middle" x="275" y="-48.5" font-family="FreeSans.ttf" font-size="10.00">corecvs::Plane3d::last</text>
</a>
</g>
<!-- Node1&#45;&gt;Node3 -->
<g id="edge4" class="edge"><title>Node1&#45;&gt;Node3</title>
<path fill="none" stroke="midnightblue" d="M166.097,-51C178.766,-51 191.74,-51 204.115,-51"/>
<polygon fill="midnightblue" stroke="midnightblue" points="204.349,-54.5001 214.349,-51 204.349,-47.5001 204.349,-54.5001"/>
</g>
<!-- Node4 -->
<g id="node7" class="node"><title>Node4</title>
<a xlink:href="classcorecvs_1_1Plane3d.html#a9bbe1cffcee0e32c4bd5c2c730ce001d" target="_top" xlink:title="corecvs::Plane3d::normal">
<polygon fill="none" stroke="black" points="206.5,-0.5 206.5,-21.5 343.5,-21.5 343.5,-0.5 206.5,-0.5"/>
<text text-anchor="middle" x="275" y="-8.5" font-family="FreeSans.ttf" font-size="10.00">corecvs::Plane3d::normal</text>
</a>
</g>
<!-- Node1&#45;&gt;Node4 -->
<g id="edge6" class="edge"><title>Node1&#45;&gt;Node4</title>
<path fill="none" stroke="midnightblue" d="M133.446,-40.4905C158.371,-35.2977 188.63,-28.9936 214.764,-23.5492"/>
<polygon fill="midnightblue" stroke="midnightblue" points="215.482,-26.9748 224.558,-21.5087 214.055,-20.1219 215.482,-26.9748"/>
</g>
</g>
</svg>
