<?xml version="1.0" encoding="UTF-8" standalone="no"?>
<!DOCTYPE svg PUBLIC "-//W3C//DTD SVG 1.1//EN"
 "http://www.w3.org/Graphics/SVG/1.1/DTD/svg11.dtd">
<!-- Generated by graphviz version 2.26.3 (20100126.1600)
 -->
<!-- Title: G Pages: 1 -->
<!--zoomable 526 -->
<svg id="main" version="1.1" xmlns="http://www.w3.org/2000/svg" xmlns:xlink="http://www.w3.org/1999/xlink" xml:space="preserve" onload="init(evt)">
        <defs>
                <circle id="rim" cx="0" cy="0" r="7"/>
                <circle id="rim2" cx="0" cy="0" r="3.5"/>
                <g id="zoomPlus">
                        <use xlink:href="#rim" fill="#404040">
                                <set attributeName="fill" to="#808080" begin="zoomplus.mouseover" end="zoomplus.mouseout"/>
                        </use>
                        <path d="M-4,0h8M0,-4v8" fill="none" stroke="white" stroke-width="1.5" pointer-events="none"/>
                </g>
                <g id="zoomMin">
                        <use xlink:href="#rim" fill="#404040">
                                <set attributeName="fill" to="#808080" begin="zoomminus.mouseover" end="zoomminus.mouseout"/>
                        </use>
                        <path d="M-4,0h8" fill="none" stroke="white" stroke-width="1.5" pointer-events="none"/>
                </g>
                <g id="dirArrow">
                        <path fill="none" stroke="white" stroke-width="1.5" d="M0,-3.0v7 M-2.5,-0.5L0,-3.0L2.5,-0.5"/>
                </g>
               <g id="resetDef">
                       <use xlink:href="#rim2" fill="#404040">
                               <set attributeName="fill" to="#808080" begin="reset.mouseover" end="reset.mouseout"/>
                       </use>
               </g>
        </defs>

<script type="text/javascript">
var viewWidth = 1292;
var viewHeight = 526;
var sectionId = 'dynsection-3';
</script>
<script xlink:href="svgpan.js"/>
<svg id="graph" class="graph">
<g id="viewport">
<title>G</title>
<!-- Node1 -->
<g id="node1" class="node"><title>Node1</title>
<polygon fill="#bfbfbf" stroke="black" points="0.5,-248.5 0.5,-269.5 203.5,-269.5 203.5,-248.5 0.5,-248.5"/>
<text text-anchor="middle" x="102" y="-256.5" font-family="FreeSans.ttf" font-size="10.00">BaseCalculationThread::graphChanged</text>
</g>
<!-- Node2 -->
<g id="node3" class="node"><title>Node2</title>
<a xlink:href="classcorecvs_1_1FilterGraph.html#a1b706434a0c7b0a93da994fda1a0c258" target="_top" xlink:title="corecvs::FilterGraph::deserialize">
<polygon fill="none" stroke="black" points="240,-248.5 240,-269.5 408,-269.5 408,-248.5 240,-248.5"/>
<text text-anchor="middle" x="324" y="-256.5" font-family="FreeSans.ttf" font-size="10.00">corecvs::FilterGraph::deserialize</text>
</a>
</g>
<!-- Node1&#45;&gt;Node2 -->
<g id="edge2" class="edge"><title>Node1&#45;&gt;Node2</title>
<path fill="none" stroke="midnightblue" d="M203.579,-259C212.278,-259 221.054,-259 229.692,-259"/>
<polygon fill="midnightblue" stroke="midnightblue" points="229.756,-262.5 239.756,-259 229.756,-255.5 229.756,-262.5"/>
</g>
<!-- Node3 -->
<g id="node5" class="node"><title>Node3</title>
<a xlink:href="classtinyxml2_1_1XMLDocument.html#a1819bd34f540a7304c105a6232d25a1f" target="_top" xlink:title="Parse an XML file from a character string.">
<polygon fill="none" stroke="black" points="444.5,-376.5 444.5,-397.5 609.5,-397.5 609.5,-376.5 444.5,-376.5"/>
<text text-anchor="middle" x="527" y="-384.5" font-family="FreeSans.ttf" font-size="10.00">tinyxml2::XMLDocument::Parse</text>
</a>
</g>
<!-- Node2&#45;&gt;Node3 -->
<g id="edge4" class="edge"><title>Node2&#45;&gt;Node3</title>
<path fill="none" stroke="midnightblue" d="M340.959,-269.693C376.647,-292.196 459.669,-344.545 501.682,-371.036"/>
<polygon fill="midnightblue" stroke="midnightblue" points="499.907,-374.054 510.233,-376.427 503.64,-368.133 499.907,-374.054"/>
</g>
<!-- Node14 -->
<g id="node28" class="node"><title>Node14</title>
<a xlink:href="classtinyxml2_1_1XMLDocument.html#abf0f9ac4c3aa5698a785937f71f7a69f" target="_top" xlink:title="Return true if there was an error parsing the document.">
<polygon fill="none" stroke="black" points="903,-0.5 903,-21.5 1065,-21.5 1065,-0.5 903,-0.5"/>
<text text-anchor="middle" x="984" y="-8.5" font-family="FreeSans.ttf" font-size="10.00">tinyxml2::XMLDocument::Error</text>
</a>
</g>
<!-- Node2&#45;&gt;Node14 -->
<g id="edge52" class="edge"><title>Node2&#45;&gt;Node14</title>
<path fill="none" stroke="midnightblue" d="M345.695,-248.49C419.606,-213.056 669.039,-96.5388 886,-31 894.789,-28.345 904.128,-25.9335 913.416,-23.7782"/>
<polygon fill="midnightblue" stroke="midnightblue" points="914.446,-27.1344 923.444,-21.5407 912.922,-20.3024 914.446,-27.1344"/>
</g>
<!-- Node4 -->
<g id="node7" class="node"><title>Node4</title>
<a xlink:href="classtinyxml2_1_1XMLNode.html#a0360085cc54df5bff85d5c5da13afdce" target="_top" xlink:title="Delete all the children of this node.">
<polygon fill="none" stroke="black" points="655.5,-416.5 655.5,-437.5 840.5,-437.5 840.5,-416.5 655.5,-416.5"/>
<text text-anchor="middle" x="748" y="-424.5" font-family="FreeSans.ttf" font-size="10.00">tinyxml2::XMLNode::DeleteChildren</text>
</a>
</g>
<!-- Node3&#45;&gt;Node4 -->
<g id="edge6" class="edge"><title>Node3&#45;&gt;Node4</title>
<path fill="none" stroke="midnightblue" d="M585.065,-397.51C614.135,-402.771 649.507,-409.173 679.856,-414.666"/>
<polygon fill="midnightblue" stroke="midnightblue" points="679.476,-418.154 689.939,-416.491 680.723,-411.266 679.476,-418.154"/>
</g>
<!-- Node6 -->
<g id="node11" class="node"><title>Node6</title>
<a xlink:href="classtinyxml2_1_1XMLDocument.html#adfc0e55c21a87d8a03d06b6be66d2172" target="_top" xlink:title="tinyxml2::XMLDocument::InitDocument">
<polygon fill="none" stroke="black" points="646.5,-376.5 646.5,-397.5 849.5,-397.5 849.5,-376.5 646.5,-376.5"/>
<text text-anchor="middle" x="748" y="-384.5" font-family="FreeSans.ttf" font-size="10.00">tinyxml2::XMLDocument::InitDocument</text>
</a>
</g>
<!-- Node3&#45;&gt;Node6 -->
<g id="edge10" class="edge"><title>Node3&#45;&gt;Node6</title>
<path fill="none" stroke="midnightblue" d="M609.607,-387C618.336,-387 627.314,-387 636.303,-387"/>
<polygon fill="midnightblue" stroke="midnightblue" points="636.443,-390.5 646.443,-387 636.443,-383.5 636.443,-390.5"/>
</g>
<!-- Node7 -->
<g id="node13" class="node"><title>Node7</title>
<a xlink:href="classtinyxml2_1_1XMLDocument.html#ae38d194e47336e4c96677ac77e2ac5d4" target="_top" xlink:title="tinyxml2::XMLDocument::SetError">
<polygon fill="none" stroke="black" points="894.5,-396.5 894.5,-417.5 1073.5,-417.5 1073.5,-396.5 894.5,-396.5"/>
<text text-anchor="middle" x="984" y="-404.5" font-family="FreeSans.ttf" font-size="10.00">tinyxml2::XMLDocument::SetError</text>
</a>
</g>
<!-- Node3&#45;&gt;Node7 -->
<g id="edge12" class="edge"><title>Node3&#45;&gt;Node7</title>
<path fill="none" stroke="midnightblue" d="M567.807,-376.464C629.853,-362.223 751.151,-341.386 850,-367 867.718,-371.591 868.833,-380.652 886,-387 893.157,-389.647 900.745,-391.974 908.405,-394.014"/>
<polygon fill="midnightblue" stroke="midnightblue" points="907.568,-397.412 918.118,-396.446 909.268,-390.622 907.568,-397.412"/>
</g>
<!-- Node8 -->
<g id="node15" class="node"><title>Node8</title>
<a xlink:href="classtinyxml2_1_1XMLUtil.html#a9333d20f2a34325b5115ca45849c4b2a" target="_top" xlink:title="tinyxml2::XMLUtil::SkipWhiteSpace">
<polygon fill="none" stroke="black" points="658,-496.5 658,-517.5 838,-517.5 838,-496.5 658,-496.5"/>
<text text-anchor="middle" x="748" y="-504.5" font-family="FreeSans.ttf" font-size="10.00">tinyxml2::XMLUtil::SkipWhiteSpace</text>
</a>
</g>
<!-- Node3&#45;&gt;Node8 -->
<g id="edge14" class="edge"><title>Node3&#45;&gt;Node8</title>
<path fill="none" stroke="midnightblue" d="M536.249,-397.78C554.786,-418.628 598.774,-464.406 646,-487 651.036,-489.409 656.345,-491.529 661.786,-493.392"/>
<polygon fill="midnightblue" stroke="midnightblue" points="661.106,-496.846 671.695,-496.479 663.188,-490.163 661.106,-496.846"/>
</g>
<!-- Node10 -->
<g id="node19" class="node"><title>Node10</title>
<a xlink:href="classtinyxml2_1_1XMLUtil.html#ae9bcb2bc3cd6475fdc644c8c17790555" target="_top" xlink:title="tinyxml2::XMLUtil::ReadBOM">
<polygon fill="none" stroke="black" points="673.5,-456.5 673.5,-477.5 822.5,-477.5 822.5,-456.5 673.5,-456.5"/>
<text text-anchor="middle" x="748" y="-464.5" font-family="FreeSans.ttf" font-size="10.00">tinyxml2::XMLUtil::ReadBOM</text>
</a>
</g>
<!-- Node3&#45;&gt;Node10 -->
<g id="edge18" class="edge"><title>Node3&#45;&gt;Node10</title>
<path fill="none" stroke="midnightblue" d="M544.085,-397.505C566.628,-410.917 607.918,-433.943 646,-447 653.852,-449.692 662.176,-452.063 670.548,-454.14"/>
<polygon fill="midnightblue" stroke="midnightblue" points="669.838,-457.569 680.373,-456.446 671.437,-450.754 669.838,-457.569"/>
</g>
<!-- Node11 -->
<g id="node21" class="node"><title>Node11</title>
<a xlink:href="classtinyxml2_1_1XMLNode.html#a7610d0f603e8b603d2078521811a23c1" target="_top" xlink:title="tinyxml2::XMLNode::ParseDeep">
<polygon fill="none" stroke="black" points="665,-218.5 665,-239.5 831,-239.5 831,-218.5 665,-218.5"/>
<text text-anchor="middle" x="748" y="-226.5" font-family="FreeSans.ttf" font-size="10.00">tinyxml2::XMLNode::ParseDeep</text>
</a>
</g>
<!-- Node3&#45;&gt;Node11 -->
<g id="edge20" class="edge"><title>Node3&#45;&gt;Node11</title>
<path fill="none" stroke="midnightblue" d="M541.844,-376.388C579.587,-349.404 679.446,-278.011 724.892,-245.521"/>
<polygon fill="midnightblue" stroke="midnightblue" points="727.122,-248.229 733.221,-239.566 723.051,-242.535 727.122,-248.229"/>
</g>
<!-- Node5 -->
<g id="node9" class="node"><title>Node5</title>
<a xlink:href="classtinyxml2_1_1XMLNode.html#a9546e242b6a4f232415befb1cfe0fdd4" target="_top" xlink:title="tinyxml2::XMLNode::Unlink">
<polygon fill="none" stroke="black" points="912.5,-436.5 912.5,-457.5 1055.5,-457.5 1055.5,-436.5 912.5,-436.5"/>
<text text-anchor="middle" x="984" y="-444.5" font-family="FreeSans.ttf" font-size="10.00">tinyxml2::XMLNode::Unlink</text>
</a>
</g>
<!-- Node4&#45;&gt;Node5 -->
<g id="edge8" class="edge"><title>Node4&#45;&gt;Node5</title>
<path fill="none" stroke="midnightblue" d="M840.596,-434.847C861.033,-436.579 882.537,-438.401 902.497,-440.093"/>
<polygon fill="midnightblue" stroke="midnightblue" points="902.208,-443.581 912.468,-440.938 902.799,-436.606 902.208,-443.581"/>
</g>
<!-- Node9 -->
<g id="node17" class="node"><title>Node9</title>
<a xlink:href="classtinyxml2_1_1XMLUtil.html#a24ba87b1d22528167a3d16c4f52096bf" target="_top" xlink:title="tinyxml2::XMLUtil::IsUTF8Continuation">
<polygon fill="none" stroke="black" points="886,-496.5 886,-517.5 1082,-517.5 1082,-496.5 886,-496.5"/>
<text text-anchor="middle" x="984" y="-504.5" font-family="FreeSans.ttf" font-size="10.00">tinyxml2::XMLUtil::IsUTF8Continuation</text>
</a>
</g>
<!-- Node8&#45;&gt;Node9 -->
<g id="edge16" class="edge"><title>Node8&#45;&gt;Node9</title>
<path fill="none" stroke="midnightblue" d="M838.232,-507C850.553,-507 863.302,-507 875.9,-507"/>
<polygon fill="midnightblue" stroke="midnightblue" points="875.96,-510.5 885.96,-507 875.96,-503.5 875.96,-510.5"/>
</g>
<!-- Node11&#45;&gt;Node7 -->
<g id="edge30" class="edge"><title>Node11&#45;&gt;Node7</title>
<path fill="none" stroke="midnightblue" d="M759.692,-239.743C779.39,-258.114 819.977,-297.159 850,-334 867.989,-356.074 862.302,-371.211 886,-387 888.906,-388.936 891.96,-390.692 895.121,-392.283"/>
<polygon fill="midnightblue" stroke="midnightblue" points="893.719,-395.489 904.279,-396.345 896.557,-389.091 893.719,-395.489"/>
</g>
<!-- Node11&#45;&gt;Node11 -->
<g id="edge26" class="edge"><title>Node11&#45;&gt;Node11</title>
<path fill="none" stroke="midnightblue" d="M713.299,-239.557C697.976,-248.548 709.543,-258 748,-258 775.04,-258 788.786,-253.327 789.238,-247.427"/>
<polygon fill="midnightblue" stroke="midnightblue" points="791.783,-245.013 782.701,-239.557 786.399,-249.486 791.783,-245.013"/>
</g>
<!-- Node12 -->
<g id="node23" class="node"><title>Node12</title>
<a xlink:href="classtinyxml2_1_1XMLDocument.html#a25827d1bec509ad566a107e5853ed040" target="_top" xlink:title="tinyxml2::XMLDocument::Identify">
<polygon fill="none" stroke="black" points="897.5,-80.5 897.5,-101.5 1070.5,-101.5 1070.5,-80.5 897.5,-80.5"/>
<text text-anchor="middle" x="984" y="-88.5" font-family="FreeSans.ttf" font-size="10.00">tinyxml2::XMLDocument::Identify</text>
</a>
</g>
<!-- Node11&#45;&gt;Node12 -->
<g id="edge22" class="edge"><title>Node11&#45;&gt;Node12</title>
<path fill="none" stroke="midnightblue" d="M757.095,-218.15C777.511,-194.564 829.635,-138.532 886,-111 890.925,-108.595 896.125,-106.478 901.457,-104.616"/>
<polygon fill="midnightblue" stroke="midnightblue" points="902.697,-107.895 911.168,-101.532 900.578,-101.223 902.697,-107.895"/>
</g>
<!-- Node11&#45;&gt;Node14 -->
<g id="edge28" class="edge"><title>Node11&#45;&gt;Node14</title>
<path fill="none" stroke="midnightblue" d="M761.701,-218.24C783.166,-200.753 824.861,-164.159 850,-125 874.168,-87.3534 851.875,-59.929 886,-31 888.438,-28.9332 891.032,-27.0602 893.747,-25.3639"/>
<polygon fill="midnightblue" stroke="midnightblue" points="895.621,-28.3306 902.787,-20.5262 892.318,-22.1588 895.621,-28.3306"/>
</g>
<!-- Node15 -->
<g id="node31" class="node"><title>Node15</title>
<a xlink:href="classtinyxml2_1_1XMLNode.html#aab516e699567f75cc9ab2ef2eee501e8" target="_top" xlink:title="Safely cast to an Element, or null.">
<polygon fill="none" stroke="black" points="902,-40.5 902,-61.5 1066,-61.5 1066,-40.5 902,-40.5"/>
<text text-anchor="middle" x="984" y="-48.5" font-family="FreeSans.ttf" font-size="10.00">tinyxml2::XMLNode::ToElement</text>
</a>
</g>
<!-- Node11&#45;&gt;Node15 -->
<g id="edge32" class="edge"><title>Node11&#45;&gt;Node15</title>
<path fill="none" stroke="midnightblue" d="M759.74,-218.409C779.508,-200.286 820.195,-161.718 850,-125 868.179,-102.605 862.065,-87.0971 886,-71 888.898,-69.0513 891.945,-67.2853 895.1,-65.6854"/>
<polygon fill="midnightblue" stroke="midnightblue" points="896.54,-68.8756 904.244,-61.6023 893.685,-62.4839 896.54,-68.8756"/>
</g>
<!-- Node16 -->
<g id="node33" class="node"><title>Node16</title>
<a xlink:href="classtinyxml2_1_1XMLElement.html#a2e3d9f938307a05963d7c4b8cd55754e" target="_top" xlink:title="tinyxml2::XMLElement::ClosingType">
<polygon fill="none" stroke="black" points="892,-356.5 892,-377.5 1076,-377.5 1076,-356.5 892,-356.5"/>
<text text-anchor="middle" x="984" y="-364.5" font-family="FreeSans.ttf" font-size="10.00">tinyxml2::XMLElement::ClosingType</text>
</a>
</g>
<!-- Node11&#45;&gt;Node16 -->
<g id="edge34" class="edge"><title>Node11&#45;&gt;Node16</title>
<path fill="none" stroke="midnightblue" d="M757.095,-239.85C777.511,-263.436 829.635,-319.468 886,-347 890.925,-349.405 896.125,-351.522 901.457,-353.384"/>
<polygon fill="midnightblue" stroke="midnightblue" points="900.578,-356.777 911.168,-356.468 902.697,-350.105 900.578,-356.777"/>
</g>
<!-- Node17 -->
<g id="node35" class="node"><title>Node17</title>
<a xlink:href="classtinyxml2_1_1MemPool.html#ac5804dd1387b2e4de5eef710076a0db1" target="_top" xlink:title="tinyxml2::MemPool::SetTracked">
<polygon fill="none" stroke="black" points="1118,-296.5 1118,-317.5 1284,-317.5 1284,-296.5 1118,-296.5"/>
<text text-anchor="middle" x="1201" y="-304.5" font-family="FreeSans.ttf" font-size="10.00">tinyxml2::MemPool::SetTracked</text>
</a>
</g>
<!-- Node11&#45;&gt;Node17 -->
<g id="edge36" class="edge"><title>Node11&#45;&gt;Node17</title>
<path fill="none" stroke="midnightblue" d="M778.881,-239.513C806.615,-248.578 848.604,-261.377 886,-269 959.752,-284.034 1044.52,-293.845 1107.52,-299.726"/>
<polygon fill="midnightblue" stroke="midnightblue" points="1107.56,-303.244 1117.84,-300.671 1108.2,-296.273 1107.56,-303.244"/>
</g>
<!-- Node18 -->
<g id="node37" class="node"><title>Node18</title>
<a xlink:href="classtinyxml2_1_1StrPair.html#affa1043e73a18f05d5d2faec055725a7" target="_top" xlink:title="tinyxml2::StrPair::Empty">
<polygon fill="none" stroke="black" points="918.5,-238.5 918.5,-259.5 1049.5,-259.5 1049.5,-238.5 918.5,-238.5"/>
<text text-anchor="middle" x="984" y="-246.5" font-family="FreeSans.ttf" font-size="10.00">tinyxml2::StrPair::Empty</text>
</a>
</g>
<!-- Node11&#45;&gt;Node18 -->
<g id="edge38" class="edge"><title>Node11&#45;&gt;Node18</title>
<path fill="none" stroke="midnightblue" d="M831.205,-236.051C856.282,-238.176 883.661,-240.497 908.228,-242.579"/>
<polygon fill="midnightblue" stroke="midnightblue" points="907.948,-246.067 918.208,-243.424 908.539,-239.092 907.948,-246.067"/>
</g>
<!-- Node19 -->
<g id="node39" class="node"><title>Node19</title>
<a xlink:href="classtinyxml2_1_1XMLNode.html#a7682be117e3b2b4ebfd517c1acaaadbf" target="_top" xlink:title="The meaning of &#39;value&#39; changes for the specific type.">
<polygon fill="none" stroke="black" points="914,-198.5 914,-219.5 1054,-219.5 1054,-198.5 914,-198.5"/>
<text text-anchor="middle" x="984" y="-206.5" font-family="FreeSans.ttf" font-size="10.00">tinyxml2::XMLNode::Value</text>
</a>
</g>
<!-- Node11&#45;&gt;Node19 -->
<g id="edge40" class="edge"><title>Node11&#45;&gt;Node19</title>
<path fill="none" stroke="midnightblue" d="M831.205,-221.949C854.672,-219.96 880.155,-217.8 903.462,-215.825"/>
<polygon fill="midnightblue" stroke="midnightblue" points="903.984,-219.294 913.653,-214.962 903.393,-212.319 903.984,-219.294"/>
</g>
<!-- Node20 -->
<g id="node41" class="node"><title>Node20</title>
<a xlink:href="classtinyxml2_1_1StrPair.html#ad87e3d11330f5e689ba1e7e54c023b57" target="_top" xlink:title="tinyxml2::StrPair::GetStr">
<polygon fill="none" stroke="black" points="1135,-178.5 1135,-199.5 1267,-199.5 1267,-178.5 1135,-178.5"/>
<text text-anchor="middle" x="1201" y="-186.5" font-family="FreeSans.ttf" font-size="10.00">tinyxml2::StrPair::GetStr</text>
</a>
</g>
<!-- Node11&#45;&gt;Node20 -->
<g id="edge46" class="edge"><title>Node11&#45;&gt;Node20</title>
<path fill="none" stroke="midnightblue" d="M775.771,-218.432C803.283,-208.568 846.856,-194.559 886,-189 966.947,-177.505 1060.78,-179.436 1124.84,-183.032"/>
<polygon fill="midnightblue" stroke="midnightblue" points="1124.67,-186.528 1134.86,-183.622 1125.08,-179.54 1124.67,-186.528"/>
</g>
<!-- Node21 -->
<g id="node43" class="node"><title>Node21</title>
<a xlink:href="classtinyxml2_1_1XMLUtil.html#acfcd287cacfd2533e1bc9ea4dfb56602" target="_top" xlink:title="tinyxml2::XMLUtil::StringEqual">
<polygon fill="none" stroke="black" points="905,-120.5 905,-141.5 1063,-141.5 1063,-120.5 905,-120.5"/>
<text text-anchor="middle" x="984" y="-128.5" font-family="FreeSans.ttf" font-size="10.00">tinyxml2::XMLUtil::StringEqual</text>
</a>
</g>
<!-- Node11&#45;&gt;Node21 -->
<g id="edge44" class="edge"><title>Node11&#45;&gt;Node21</title>
<path fill="none" stroke="midnightblue" d="M764.808,-218.421C790.196,-202.838 840.229,-173.656 886,-156 897.828,-151.437 910.779,-147.46 923.279,-144.1"/>
<polygon fill="midnightblue" stroke="midnightblue" points="924.373,-147.433 933.177,-141.539 922.619,-140.656 924.373,-147.433"/>
</g>
<!-- Node22 -->
<g id="node46" class="node"><title>Node22</title>
<a xlink:href="classtinyxml2_1_1XMLNode.html#ae3b422e98914d6002ca99bb1d2837103" target="_top" xlink:title="Add a child node as the last (right) child.">
<polygon fill="none" stroke="black" points="893,-316.5 893,-337.5 1075,-337.5 1075,-316.5 893,-316.5"/>
<text text-anchor="middle" x="984" y="-324.5" font-family="FreeSans.ttf" font-size="10.00">tinyxml2::XMLNode::InsertEndChild</text>
</a>
</g>
<!-- Node11&#45;&gt;Node22 -->
<g id="edge48" class="edge"><title>Node11&#45;&gt;Node22</title>
<path fill="none" stroke="midnightblue" d="M764.808,-239.579C790.196,-255.162 840.229,-284.344 886,-302 897.828,-306.563 910.779,-310.54 923.279,-313.9"/>
<polygon fill="midnightblue" stroke="midnightblue" points="922.619,-317.344 933.177,-316.461 924.373,-310.567 922.619,-317.344"/>
</g>
<!-- Node13 -->
<g id="node25" class="node"><title>Node13</title>
<a xlink:href="classtinyxml2_1_1XMLText.html#ad080357d76ab7cc59d7651249949329d" target="_top" xlink:title="Declare whether this should be CDATA or standard text.">
<polygon fill="none" stroke="black" points="1125,-80.5 1125,-101.5 1277,-101.5 1277,-80.5 1125,-80.5"/>
<text text-anchor="middle" x="1201" y="-88.5" font-family="FreeSans.ttf" font-size="10.00">tinyxml2::XMLText::SetCData</text>
</a>
</g>
<!-- Node12&#45;&gt;Node13 -->
<g id="edge24" class="edge"><title>Node12&#45;&gt;Node13</title>
<path fill="none" stroke="midnightblue" d="M1070.7,-91C1085.14,-91 1100.12,-91 1114.55,-91"/>
<polygon fill="midnightblue" stroke="midnightblue" points="1114.95,-94.5001 1124.95,-91 1114.95,-87.5001 1114.95,-94.5001"/>
</g>
<!-- Node19&#45;&gt;Node20 -->
<g id="edge42" class="edge"><title>Node19&#45;&gt;Node20</title>
<path fill="none" stroke="midnightblue" d="M1054.15,-202.534C1076.7,-200.456 1101.78,-198.145 1124.74,-196.029"/>
<polygon fill="midnightblue" stroke="midnightblue" points="1125.14,-199.507 1134.78,-195.104 1124.5,-192.536 1125.14,-199.507"/>
</g>
<!-- Node22&#45;&gt;Node17 -->
<g id="edge50" class="edge"><title>Node22&#45;&gt;Node17</title>
<path fill="none" stroke="midnightblue" d="M1075.08,-318.605C1085.81,-317.617 1096.76,-316.607 1107.52,-315.616"/>
<polygon fill="midnightblue" stroke="midnightblue" points="1108.12,-319.075 1117.76,-314.672 1107.48,-312.105 1108.12,-319.075"/>
</g>
</g>
</svg>
        <g id="navigator" transform="translate(0 0)" fill="#404254">
                <rect fill="#f2f5e9" fill-opacity="0.5" stroke="#606060" stroke-width=".5" x="0" y="0" width="60" height="60"/>
                <use id="zoomplus" xlink:href="#zoomPlus" x="17" y="9" onmousedown="handleZoom(evt,'in')"/>
                <use id="zoomminus" xlink:href="#zoomMin" x="42" y="9" onmousedown="handleZoom(evt,'out')"/>
                <use id="reset" xlink:href="#resetDef" x="30" y="36" onmousedown="handleReset()"/>
                <g id="arrowUp" xlink:href="#dirArrow" transform="translate(30 24)" onmousedown="handlePan(0,-1)">
                  <use xlink:href="#rim" fill="#404040">
                        <set attributeName="fill" to="#808080" begin="arrowUp.mouseover" end="arrowUp.mouseout"/>
                  </use>
                  <path fill="none" stroke="white" stroke-width="1.5" d="M0,-3.0v7 M-2.5,-0.5L0,-3.0L2.5,-0.5"/>
                </g>
                <g id="arrowRight" xlink:href="#dirArrow" transform="rotate(90) translate(36 -43)" onmousedown="handlePan(1,0)">
                  <use xlink:href="#rim" fill="#404040">
                        <set attributeName="fill" to="#808080" begin="arrowRight.mouseover" end="arrowRight.mouseout"/>
                  </use>
                  <path fill="none" stroke="white" stroke-width="1.5" d="M0,-3.0v7 M-2.5,-0.5L0,-3.0L2.5,-0.5"/>
                </g>
                <g id="arrowDown" xlink:href="#dirArrow" transform="rotate(180) translate(-30 -48)" onmousedown="handlePan(0,1)">
                  <use xlink:href="#rim" fill="#404040">
                        <set attributeName="fill" to="#808080" begin="arrowDown.mouseover" end="arrowDown.mouseout"/>
                  </use>
                  <path fill="none" stroke="white" stroke-width="1.5" d="M0,-3.0v7 M-2.5,-0.5L0,-3.0L2.5,-0.5"/>
                </g>
                <g id="arrowLeft" xlink:href="#dirArrow" transform="rotate(270) translate(-36 17)" onmousedown="handlePan(-1,0)">
                  <use xlink:href="#rim" fill="#404040">
                        <set attributeName="fill" to="#808080" begin="arrowLeft.mouseover" end="arrowLeft.mouseout"/>
                  </use>
                  <path fill="none" stroke="white" stroke-width="1.5" d="M0,-3.0v7 M-2.5,-0.5L0,-3.0L2.5,-0.5"/>
                </g>
        </g>
</svg>
