<?xml version="1.0" encoding="UTF-8" standalone="no"?>
<!DOCTYPE svg PUBLIC "-//W3C//DTD SVG 1.1//EN"
 "http://www.w3.org/Graphics/SVG/1.1/DTD/svg11.dtd">
<!-- Generated by graphviz version 2.26.3 (20100126.1600)
 -->
<!-- Title: G Pages: 1 -->
<!--zoomable 978 -->
<svg id="main" version="1.1" xmlns="http://www.w3.org/2000/svg" xmlns:xlink="http://www.w3.org/1999/xlink" xml:space="preserve" onload="init(evt)">
        <defs>
                <circle id="rim" cx="0" cy="0" r="7"/>
                <circle id="rim2" cx="0" cy="0" r="3.5"/>
                <g id="zoomPlus">
                        <use xlink:href="#rim" fill="#404040">
                                <set attributeName="fill" to="#808080" begin="zoomplus.mouseover" end="zoomplus.mouseout"/>
                        </use>
                        <path d="M-4,0h8M0,-4v8" fill="none" stroke="white" stroke-width="1.5" pointer-events="none"/>
                </g>
                <g id="zoomMin">
                        <use xlink:href="#rim" fill="#404040">
                                <set attributeName="fill" to="#808080" begin="zoomminus.mouseover" end="zoomminus.mouseout"/>
                        </use>
                        <path d="M-4,0h8" fill="none" stroke="white" stroke-width="1.5" pointer-events="none"/>
                </g>
                <g id="dirArrow">
                        <path fill="none" stroke="white" stroke-width="1.5" d="M0,-3.0v7 M-2.5,-0.5L0,-3.0L2.5,-0.5"/>
                </g>
               <g id="resetDef">
                       <use xlink:href="#rim2" fill="#404040">
                               <set attributeName="fill" to="#808080" begin="reset.mouseover" end="reset.mouseout"/>
                       </use>
               </g>
        </defs>

<script type="text/javascript">
var viewWidth = 1202;
var viewHeight = 978;
var sectionId = 'dynsection-4';
</script>
<script xlink:href="svgpan.js"/>
<svg id="graph" class="graph">
<g id="viewport">
<title>G</title>
<!-- Node1 -->
<g id="node1" class="node"><title>Node1</title>
<polygon fill="#bfbfbf" stroke="black" points="0.5,-475.5 0.5,-496.5 185.5,-496.5 185.5,-475.5 0.5,-475.5"/>
<text text-anchor="middle" x="93" y="-483.5" font-family="FreeSans.ttf" font-size="10.00">V4L2CaptureInterface::decodeData</text>
</g>
<!-- Node2 -->
<g id="node3" class="node"><title>Node2</title>
<a xlink:href="classMjpegDecoderLazy.html#a698eadc7519b779d223170f53d3a1e34" target="_top" xlink:title="MjpegDecoderLazy::decode">
<polygon fill="none" stroke="black" points="450,-195.5 450,-216.5 598,-216.5 598,-195.5 450,-195.5"/>
<text text-anchor="middle" x="524" y="-203.5" font-family="FreeSans.ttf" font-size="10.00">MjpegDecoderLazy::decode</text>
</a>
</g>
<!-- Node1&#45;&gt;Node2 -->
<g id="edge2" class="edge"><title>Node1&#45;&gt;Node2</title>
<path fill="none" stroke="midnightblue" d="M109.369,-475.366C174.974,-432.745 419.164,-274.107 498.748,-222.405"/>
<polygon fill="midnightblue" stroke="midnightblue" points="501.135,-225.028 507.614,-216.645 497.322,-219.158 501.135,-225.028"/>
</g>
<!-- Node18 -->
<g id="node41" class="node"><title>Node18</title>
<a xlink:href="classV4L2CaptureInterface.html#a0e042ee29d3a868647a273a8c555ca20" target="_top" xlink:title="V4L2CaptureInterface::decodeMjpeg">
<polygon fill="none" stroke="black" points="222.5,-547.5 222.5,-568.5 413.5,-568.5 413.5,-547.5 222.5,-547.5"/>
<text text-anchor="middle" x="318" y="-555.5" font-family="FreeSans.ttf" font-size="10.00">V4L2CaptureInterface::decodeMjpeg</text>
</a>
</g>
<!-- Node1&#45;&gt;Node18 -->
<g id="edge46" class="edge"><title>Node1&#45;&gt;Node18</title>
<path fill="none" stroke="midnightblue" d="M126.2,-496.624C165.779,-509.289 232.002,-530.481 275.343,-544.35"/>
<polygon fill="midnightblue" stroke="midnightblue" points="274.44,-547.736 285.031,-547.45 276.573,-541.069 274.44,-547.736"/>
</g>
<!-- Node3 -->
<g id="node5" class="node"><title>Node3</title>
<a xlink:href="classMjpegDecoderLazy.html#a08e2db34da8a454b9b3ea67ca30000a3" target="_top" xlink:title="MjpegDecoderLazy::dec_checkmarker">
<polygon fill="none" stroke="black" points="634.5,-314.5 634.5,-335.5 831.5,-335.5 831.5,-314.5 634.5,-314.5"/>
<text text-anchor="middle" x="733" y="-322.5" font-family="FreeSans.ttf" font-size="10.00">MjpegDecoderLazy::dec_checkmarker</text>
</a>
</g>
<!-- Node2&#45;&gt;Node3 -->
<g id="edge4" class="edge"><title>Node2&#45;&gt;Node3</title>
<path fill="none" stroke="midnightblue" d="M532.396,-216.666C549.261,-237.297 589.473,-282.601 634,-305 638.677,-307.353 643.61,-309.429 648.676,-311.261"/>
<polygon fill="midnightblue" stroke="midnightblue" points="647.955,-314.708 658.548,-314.491 650.132,-308.055 647.955,-314.708"/>
</g>
<!-- Node4 -->
<g id="node7" class="node"><title>Node4</title>
<a xlink:href="classMjpegDecoderLazy_1_1HuffmanParser.html#a48169e0640aeb24526c660f612f0b057" target="_top" xlink:title="MjpegDecoderLazy::HuffmanParser::readMarker">
<polygon fill="none" stroke="black" points="868.5,-293.5 868.5,-314.5 1113.5,-314.5 1113.5,-293.5 868.5,-293.5"/>
<text text-anchor="middle" x="991" y="-301.5" font-family="FreeSans.ttf" font-size="10.00">MjpegDecoderLazy::HuffmanParser::readMarker</text>
</a>
</g>
<!-- Node2&#45;&gt;Node4 -->
<g id="edge32" class="edge"><title>Node2&#45;&gt;Node4</title>
<path fill="none" stroke="midnightblue" d="M598.127,-202.406C661.352,-201.261 754.11,-204.165 832,-225 882.732,-238.57 936.362,-269.069 966.563,-287.953"/>
<polygon fill="midnightblue" stroke="midnightblue" points="964.836,-291.002 975.154,-293.409 968.589,-285.093 964.836,-291.002"/>
</g>
<!-- Node6 -->
<g id="node11" class="node"><title>Node6</title>
<a xlink:href="classMjpegDecoderLazy.html#a63111152a99892f35885c880990df7de" target="_top" xlink:title="This functions decodes JPEG Minimum Coded Unit form huffman compressed stream.">
<polygon fill="none" stroke="black" points="643.5,-354.5 643.5,-375.5 822.5,-375.5 822.5,-354.5 643.5,-354.5"/>
<text text-anchor="middle" x="733" y="-362.5" font-family="FreeSans.ttf" font-size="10.00">MjpegDecoderLazy::decode_mcus</text>
</a>
</g>
<!-- Node2&#45;&gt;Node6 -->
<g id="edge10" class="edge"><title>Node2&#45;&gt;Node6</title>
<path fill="none" stroke="midnightblue" d="M529.149,-216.811C542.411,-243.396 580.49,-312.168 634,-345 637.392,-347.081 640.961,-348.951 644.648,-350.629"/>
<polygon fill="midnightblue" stroke="midnightblue" points="643.442,-353.917 654.025,-354.422 646.067,-347.428 643.442,-353.917"/>
</g>
<!-- Node9 -->
<g id="node19" class="node"><title>Node9</title>
<a xlink:href="classMjpegDecoderLazy_1_1StreamParser.html#a38092f508a89784e2493064cb81c3b60" target="_top" xlink:title="MjpegDecoderLazy::StreamParser::getbyte">
<polygon fill="none" stroke="black" points="880.5,-111.5 880.5,-132.5 1101.5,-132.5 1101.5,-111.5 880.5,-111.5"/>
<text text-anchor="middle" x="991" y="-119.5" font-family="FreeSans.ttf" font-size="10.00">MjpegDecoderLazy::StreamParser::getbyte</text>
</a>
</g>
<!-- Node2&#45;&gt;Node9 -->
<g id="edge20" class="edge"><title>Node2&#45;&gt;Node9</title>
<path fill="none" stroke="midnightblue" d="M538.777,-195.416C559.106,-181.5 597.357,-157.581 634,-147 710.523,-124.903 799.928,-118.668 870.125,-117.949"/>
<polygon fill="midnightblue" stroke="midnightblue" points="870.362,-121.448 880.339,-117.882 870.316,-114.448 870.362,-121.448"/>
</g>
<!-- Node10 -->
<g id="node21" class="node"><title>Node10</title>
<a xlink:href="classMjpegDecoderLazy_1_1StreamParser.html#abd5c0a33a08c8f62c6fee34399cb9cdb" target="_top" xlink:title="MjpegDecoderLazy::StreamParser::getword">
<polygon fill="none" stroke="black" points="879.5,-53.5 879.5,-74.5 1102.5,-74.5 1102.5,-53.5 879.5,-53.5"/>
<text text-anchor="middle" x="991" y="-61.5" font-family="FreeSans.ttf" font-size="10.00">MjpegDecoderLazy::StreamParser::getword</text>
</a>
</g>
<!-- Node2&#45;&gt;Node10 -->
<g id="edge22" class="edge"><title>Node2&#45;&gt;Node10</title>
<path fill="none" stroke="midnightblue" d="M528.667,-195.121C541.073,-167.781 577.808,-96.4316 634,-69 732.686,-20.8241 865.762,-36.9346 938.364,-51.4252"/>
<polygon fill="midnightblue" stroke="midnightblue" points="937.696,-54.861 948.197,-53.4522 939.109,-48.0052 937.696,-54.861"/>
</g>
<!-- Node11 -->
<g id="node23" class="node"><title>Node11</title>
<a xlink:href="classMjpegDecoderLazy.html#a6a189db2953db21e04b10c4d84a2b826" target="_top" xlink:title="MjpegDecoderLazy::huffman_init">
<polygon fill="none" stroke="black" points="647,-0.5 647,-21.5 819,-21.5 819,-0.5 647,-0.5"/>
<text text-anchor="middle" x="733" y="-8.5" font-family="FreeSans.ttf" font-size="10.00">MjpegDecoderLazy::huffman_init</text>
</a>
</g>
<!-- Node2&#45;&gt;Node11 -->
<g id="edge24" class="edge"><title>Node2&#45;&gt;Node11</title>
<path fill="none" stroke="midnightblue" d="M527.723,-195.242C538.757,-165.025 574.286,-78.8041 634,-36 639.993,-31.7043 646.652,-28.1445 653.602,-25.195"/>
<polygon fill="midnightblue" stroke="midnightblue" points="655.12,-28.3624 663.225,-21.5392 652.634,-21.8187 655.12,-28.3624"/>
</g>
<!-- Node13 -->
<g id="node27" class="node"><title>Node13</title>
<a xlink:href="classMjpegDecoderLazy.html#a38db3c3867e904c667e7666faa122ab6" target="_top" xlink:title="MjpegDecoderLazy::idct">
<polygon fill="none" stroke="black" points="668,-274.5 668,-295.5 798,-295.5 798,-274.5 668,-274.5"/>
<text text-anchor="middle" x="733" y="-282.5" font-family="FreeSans.ttf" font-size="10.00">MjpegDecoderLazy::idct</text>
</a>
</g>
<!-- Node2&#45;&gt;Node13 -->
<g id="edge28" class="edge"><title>Node2&#45;&gt;Node13</title>
<path fill="none" stroke="midnightblue" d="M540.068,-216.577C560.894,-229.815 598.729,-252.292 634,-265 641.623,-267.747 649.72,-270.153 657.871,-272.253"/>
<polygon fill="midnightblue" stroke="midnightblue" points="657.269,-275.709 667.813,-274.665 658.92,-268.906 657.269,-275.709"/>
</g>
<!-- Node14 -->
<g id="node29" class="node"><title>Node14</title>
<a xlink:href="classMjpegDecoderLazy.html#a6c7875c2a7f800884032bf74e0262057" target="_top" xlink:title="MjpegDecoderLazy::idctqtab">
<polygon fill="none" stroke="black" points="657,-234.5 657,-255.5 809,-255.5 809,-234.5 657,-234.5"/>
<text text-anchor="middle" x="733" y="-242.5" font-family="FreeSans.ttf" font-size="10.00">MjpegDecoderLazy::idctqtab</text>
</a>
</g>
<!-- Node2&#45;&gt;Node14 -->
<g id="edge30" class="edge"><title>Node2&#45;&gt;Node14</title>
<path fill="none" stroke="midnightblue" d="M580.283,-216.503C606.88,-221.466 638.814,-227.425 666.589,-232.608"/>
<polygon fill="midnightblue" stroke="midnightblue" points="666.144,-236.085 676.616,-234.479 667.428,-229.204 666.144,-236.085"/>
</g>
<!-- Node15 -->
<g id="node32" class="node"><title>Node15</title>
<a xlink:href="classMjpegDecoderLazy.html#a4b406fb6bc6617ab6748f22a4bfc380b" target="_top" xlink:title="MjpegDecoderLazy::readtables">
<polygon fill="none" stroke="black" points="651,-78.5 651,-99.5 815,-99.5 815,-78.5 651,-78.5"/>
<text text-anchor="middle" x="733" y="-86.5" font-family="FreeSans.ttf" font-size="10.00">MjpegDecoderLazy::readtables</text>
</a>
</g>
<!-- Node2&#45;&gt;Node15 -->
<g id="edge34" class="edge"><title>Node2&#45;&gt;Node15</title>
<path fill="none" stroke="midnightblue" d="M533.482,-195.4C551.26,-176.19 591.646,-135.618 634,-114 643.153,-109.328 653.238,-105.49 663.363,-102.348"/>
<polygon fill="midnightblue" stroke="midnightblue" points="664.42,-105.685 673.053,-99.5438 662.475,-98.9613 664.42,-105.685"/>
</g>
<!-- Node16 -->
<g id="node37" class="node"><title>Node16</title>
<a xlink:href="classMjpegDecoderLazy.html#a3d7afe1765359dba91043f730746ae5d" target="_top" xlink:title="MjpegDecoderLazy::yuv422ptoG12">
<polygon fill="none" stroke="black" points="642,-156.5 642,-177.5 824,-177.5 824,-156.5 642,-156.5"/>
<text text-anchor="middle" x="733" y="-164.5" font-family="FreeSans.ttf" font-size="10.00">MjpegDecoderLazy::yuv422ptoG12</text>
</a>
</g>
<!-- Node2&#45;&gt;Node16 -->
<g id="edge42" class="edge"><title>Node2&#45;&gt;Node16</title>
<path fill="none" stroke="midnightblue" d="M580.283,-195.497C606.88,-190.534 638.814,-184.575 666.589,-179.392"/>
<polygon fill="midnightblue" stroke="midnightblue" points="667.428,-182.796 676.616,-177.521 666.144,-175.915 667.428,-182.796"/>
</g>
<!-- Node3&#45;&gt;Node4 -->
<g id="edge6" class="edge"><title>Node3&#45;&gt;Node4</title>
<path fill="none" stroke="midnightblue" d="M831.643,-316.971C840.325,-316.264 849.202,-315.542 858.103,-314.817"/>
<polygon fill="midnightblue" stroke="midnightblue" points="858.471,-318.299 868.154,-313.999 857.903,-311.322 858.471,-318.299"/>
</g>
<!-- Node5 -->
<g id="node9" class="node"><title>Node5</title>
<a xlink:href="mjpegDecoder_8cpp.html#a6ab3e694b9bdf6bf8e039a027c2cccad" target="_top" xlink:title="fillbits">
<polygon fill="none" stroke="black" points="1150,-353.5 1150,-374.5 1194,-374.5 1194,-353.5 1150,-353.5"/>
<text text-anchor="middle" x="1172" y="-361.5" font-family="FreeSans.ttf" font-size="10.00">fillbits</text>
</a>
</g>
<!-- Node4&#45;&gt;Node5 -->
<g id="edge8" class="edge"><title>Node4&#45;&gt;Node5</title>
<path fill="none" stroke="midnightblue" d="M1083.9,-314.558C1094.24,-317.064 1104.47,-320.165 1114,-324 1127.79,-329.547 1141.56,-338.841 1152.21,-347.074"/>
<polygon fill="midnightblue" stroke="midnightblue" points="1150.05,-349.824 1160.04,-353.358 1154.43,-344.367 1150.05,-349.824"/>
</g>
<!-- Node7 -->
<g id="node13" class="node"><title>Node7</title>
<a xlink:href="classMjpegDecoderLazy_1_1HuffmanParser.html#a9b89ee3402fc70bd2c695971ba546a19" target="_top" xlink:title="MjpegDecoderLazy::HuffmanParser::getBits">
<polygon fill="none" stroke="black" points="879,-373.5 879,-394.5 1103,-394.5 1103,-373.5 879,-373.5"/>
<text text-anchor="middle" x="991" y="-381.5" font-family="FreeSans.ttf" font-size="10.00">MjpegDecoderLazy::HuffmanParser::getBits</text>
</a>
</g>
<!-- Node6&#45;&gt;Node7 -->
<g id="edge12" class="edge"><title>Node6&#45;&gt;Node7</title>
<path fill="none" stroke="midnightblue" d="M822.512,-371.592C837.435,-372.691 853.139,-373.847 868.712,-374.994"/>
<polygon fill="midnightblue" stroke="midnightblue" points="868.688,-378.502 878.918,-375.746 869.202,-371.521 868.688,-378.502"/>
</g>
<!-- Node8 -->
<g id="node16" class="node"><title>Node8</title>
<a xlink:href="classMjpegDecoderLazy_1_1HuffmanParser.html#a239a417f89985a1b7f15f93fd659da23" target="_top" xlink:title="MjpegDecoderLazy::HuffmanParser::getValue">
<polygon fill="none" stroke="black" points="875,-333.5 875,-354.5 1107,-354.5 1107,-333.5 875,-333.5"/>
<text text-anchor="middle" x="991" y="-341.5" font-family="FreeSans.ttf" font-size="10.00">MjpegDecoderLazy::HuffmanParser::getValue</text>
</a>
</g>
<!-- Node6&#45;&gt;Node8 -->
<g id="edge16" class="edge"><title>Node6&#45;&gt;Node8</title>
<path fill="none" stroke="midnightblue" d="M822.512,-357.714C836.097,-356.608 850.329,-355.45 864.52,-354.295"/>
<polygon fill="midnightblue" stroke="midnightblue" points="865.154,-357.755 874.837,-353.455 864.586,-350.778 865.154,-357.755"/>
</g>
<!-- Node7&#45;&gt;Node5 -->
<g id="edge14" class="edge"><title>Node7&#45;&gt;Node5</title>
<path fill="none" stroke="midnightblue" d="M1086.27,-373.473C1105.46,-371.353 1124.36,-369.264 1139.51,-367.59"/>
<polygon fill="midnightblue" stroke="midnightblue" points="1140.28,-371.026 1149.83,-366.449 1139.51,-364.069 1140.28,-371.026"/>
</g>
<!-- Node8&#45;&gt;Node5 -->
<g id="edge18" class="edge"><title>Node8&#45;&gt;Node5</title>
<path fill="none" stroke="midnightblue" d="M1086.27,-354.527C1105.46,-356.647 1124.36,-358.736 1139.51,-360.41"/>
<polygon fill="midnightblue" stroke="midnightblue" points="1139.51,-363.931 1149.83,-361.551 1140.28,-356.974 1139.51,-363.931"/>
</g>
<!-- Node12 -->
<g id="node25" class="node"><title>Node12</title>
<a xlink:href="classMjpegDecoderLazy.html#a30a98c2cc798d9b7ed6766920b9028d5" target="_top" xlink:title="Construct the huffman lookup tables form the length and values.">
<polygon fill="none" stroke="black" points="901,-4.5 901,-25.5 1081,-25.5 1081,-4.5 901,-4.5"/>
<text text-anchor="middle" x="991" y="-12.5" font-family="FreeSans.ttf" font-size="10.00">MjpegDecoderLazy::dec_makehuff</text>
</a>
</g>
<!-- Node11&#45;&gt;Node12 -->
<g id="edge26" class="edge"><title>Node11&#45;&gt;Node12</title>
<path fill="none" stroke="midnightblue" d="M819.269,-12.3375C842.213,-12.6932 867.19,-13.0805 890.809,-13.4467"/>
<polygon fill="midnightblue" stroke="midnightblue" points="890.785,-16.9466 900.838,-13.6021 890.894,-9.94745 890.785,-16.9466"/>
</g>
<!-- Node15&#45;&gt;Node9 -->
<g id="edge38" class="edge"><title>Node15&#45;&gt;Node9</title>
<path fill="none" stroke="midnightblue" d="M815.342,-99.5321C841.757,-102.911 871.188,-106.675 898.292,-110.142"/>
<polygon fill="midnightblue" stroke="midnightblue" points="898.192,-113.658 908.555,-111.455 899.08,-106.714 898.192,-113.658"/>
</g>
<!-- Node15&#45;&gt;Node10 -->
<g id="edge40" class="edge"><title>Node15&#45;&gt;Node10</title>
<path fill="none" stroke="midnightblue" d="M815.342,-81.0211C833.551,-79.2566 853.194,-77.3533 872.52,-75.4806"/>
<polygon fill="midnightblue" stroke="midnightblue" points="872.972,-78.9533 882.588,-74.505 872.297,-71.9859 872.972,-78.9533"/>
</g>
<!-- Node15&#45;&gt;Node12 -->
<g id="edge36" class="edge"><title>Node15&#45;&gt;Node12</title>
<path fill="none" stroke="midnightblue" d="M761.995,-78.4908C789.174,-68.8418 831.044,-54.4928 868,-44 888.677,-38.1293 911.541,-32.5048 931.891,-27.7979"/>
<polygon fill="midnightblue" stroke="midnightblue" points="932.691,-31.2055 941.659,-25.5638 931.13,-24.3817 932.691,-31.2055"/>
</g>
<!-- Node17 -->
<g id="node39" class="node"><title>Node17</title>
<a xlink:href="classcorecvs_1_1AbstractBuffer.html#a98f72526738a0c4ce8a0b72a3b5c28b9" target="_top" xlink:title="The element getter.">
<polygon fill="none" stroke="black" points="904,-156.5 904,-177.5 1078,-177.5 1078,-156.5 904,-156.5"/>
<text text-anchor="middle" x="991" y="-164.5" font-family="FreeSans.ttf" font-size="10.00">corecvs::AbstractBuffer::element</text>
</a>
</g>
<!-- Node16&#45;&gt;Node17 -->
<g id="edge44" class="edge"><title>Node16&#45;&gt;Node17</title>
<path fill="none" stroke="midnightblue" d="M824.324,-167C846.7,-167 870.733,-167 893.391,-167"/>
<polygon fill="midnightblue" stroke="midnightblue" points="893.694,-170.5 903.694,-167 893.694,-163.5 893.694,-170.5"/>
</g>
<!-- Node19 -->
<g id="node43" class="node"><title>Node19</title>
<a xlink:href="classMjpegDecoder.html#ab6901ed403484724f48f1428813445b6" target="_top" xlink:title="MjpegDecoder::decode">
<polygon fill="none" stroke="black" points="460.5,-652.5 460.5,-673.5 587.5,-673.5 587.5,-652.5 460.5,-652.5"/>
<text text-anchor="middle" x="524" y="-660.5" font-family="FreeSans.ttf" font-size="10.00">MjpegDecoder::decode</text>
</a>
</g>
<!-- Node18&#45;&gt;Node19 -->
<g id="edge48" class="edge"><title>Node18&#45;&gt;Node19</title>
<path fill="none" stroke="midnightblue" d="M338.886,-568.646C375.688,-587.404 452.178,-626.392 494.404,-647.915"/>
<polygon fill="midnightblue" stroke="midnightblue" points="492.866,-651.059 503.365,-652.482 496.045,-644.823 492.866,-651.059"/>
</g>
<!-- Node20 -->
<g id="node45" class="node"><title>Node20</title>
<a xlink:href="mjpegDecoder_8cpp.html#a49c66c14156641198b2ad1b5e18dfa03" target="_top" xlink:title="dec_checkmarker">
<polygon fill="none" stroke="black" points="682.5,-432.5 682.5,-453.5 783.5,-453.5 783.5,-432.5 682.5,-432.5"/>
<text text-anchor="middle" x="733" y="-440.5" font-family="FreeSans.ttf" font-size="10.00">dec_checkmarker</text>
</a>
</g>
<!-- Node19&#45;&gt;Node20 -->
<g id="edge50" class="edge"><title>Node19&#45;&gt;Node20</title>
<path fill="none" stroke="midnightblue" d="M526.511,-652.197C534.999,-618.244 565.979,-512.976 634,-463 645.2,-454.771 658.955,-449.72 672.61,-446.669"/>
<polygon fill="midnightblue" stroke="midnightblue" points="673.329,-450.095 682.496,-444.783 672.017,-443.219 673.329,-450.095"/>
</g>
<!-- Node21 -->
<g id="node47" class="node"><title>Node21</title>
<a xlink:href="mjpegDecoder_8cpp.html#ac41a55c8cc37d44a58708bee12ac69fb" target="_top" xlink:title="dec_readmarker">
<polygon fill="none" stroke="black" points="943.5,-413.5 943.5,-434.5 1038.5,-434.5 1038.5,-413.5 943.5,-413.5"/>
<text text-anchor="middle" x="991" y="-421.5" font-family="FreeSans.ttf" font-size="10.00">dec_readmarker</text>
</a>
</g>
<!-- Node19&#45;&gt;Node21 -->
<g id="edge58" class="edge"><title>Node19&#45;&gt;Node21</title>
<path fill="none" stroke="midnightblue" d="M524.993,-652.273C529.267,-613.058 549.906,-476.963 634,-423 681.919,-392.251 844.934,-406.153 933.16,-416.453"/>
<polygon fill="midnightblue" stroke="midnightblue" points="932.933,-419.951 943.276,-417.657 933.76,-413 932.933,-419.951"/>
</g>
<!-- Node22 -->
<g id="node50" class="node"><title>Node22</title>
<a xlink:href="mjpegDecoder_8cpp.html#afa10b7c8e4539f90f4699f82a3edc993" target="_top" xlink:title="dec_initscans">
<polygon fill="none" stroke="black" points="692.5,-948.5 692.5,-969.5 773.5,-969.5 773.5,-948.5 692.5,-948.5"/>
<text text-anchor="middle" x="733" y="-956.5" font-family="FreeSans.ttf" font-size="10.00">dec_initscans</text>
</a>
</g>
<!-- Node19&#45;&gt;Node22 -->
<g id="edge56" class="edge"><title>Node19&#45;&gt;Node22</title>
<path fill="none" stroke="midnightblue" d="M524.745,-673.525C528.258,-714.717 546.873,-866.29 634,-939 647.267,-950.072 664.99,-955.583 681.773,-958.174"/>
<polygon fill="midnightblue" stroke="midnightblue" points="681.701,-961.691 692.052,-959.434 682.552,-954.743 681.701,-961.691"/>
</g>
<!-- Node23 -->
<g id="node53" class="node"><title>Node23</title>
<a xlink:href="mjpegDecoder_8cpp.html#a141b14aa6483ed98c69bd0ee9ff70c33" target="_top" xlink:title="decode_mcus">
<polygon fill="none" stroke="black" points="691.5,-908.5 691.5,-929.5 774.5,-929.5 774.5,-908.5 691.5,-908.5"/>
<text text-anchor="middle" x="733" y="-916.5" font-family="FreeSans.ttf" font-size="10.00">decode_mcus</text>
</a>
</g>
<!-- Node19&#45;&gt;Node23 -->
<g id="edge60" class="edge"><title>Node19&#45;&gt;Node23</title>
<path fill="none" stroke="midnightblue" d="M525.784,-673.7C532.506,-710.535 559.812,-833.16 634,-894 647.281,-904.891 664.69,-911.12 681.2,-914.654"/>
<polygon fill="midnightblue" stroke="midnightblue" points="680.849,-918.149 691.319,-916.525 682.122,-911.265 680.849,-918.149"/>
</g>
<!-- Node24 -->
<g id="node55" class="node"><title>Node24</title>
<a xlink:href="mjpegDecoder_8cpp.html#a9ccd30504f2252152b525acc1629d45b" target="_top" xlink:title="getbyte">
<polygon fill="none" stroke="black" points="964.5,-859.5 964.5,-880.5 1017.5,-880.5 1017.5,-859.5 964.5,-859.5"/>
<text text-anchor="middle" x="991" y="-867.5" font-family="FreeSans.ttf" font-size="10.00">getbyte</text>
</a>
</g>
<!-- Node19&#45;&gt;Node24 -->
<g id="edge62" class="edge"><title>Node19&#45;&gt;Node24</title>
<path fill="none" stroke="midnightblue" d="M526.422,-673.645C534.648,-707.029 564.935,-809.936 634,-852 735.835,-914.022 885.908,-893.084 954.446,-878.778"/>
<polygon fill="midnightblue" stroke="midnightblue" points="955.304,-882.173 964.339,-876.639 953.825,-875.331 955.304,-882.173"/>
</g>
<!-- Node25 -->
<g id="node57" class="node"><title>Node25</title>
<a xlink:href="mjpegDecoder_8cpp.html#a44f65b66f842d6b74e85b117130ea0df" target="_top" xlink:title="getword">
<polygon fill="none" stroke="black" points="963.5,-801.5 963.5,-822.5 1018.5,-822.5 1018.5,-801.5 963.5,-801.5"/>
<text text-anchor="middle" x="991" y="-809.5" font-family="FreeSans.ttf" font-size="10.00">getword</text>
</a>
</g>
<!-- Node19&#45;&gt;Node25 -->
<g id="edge64" class="edge"><title>Node19&#45;&gt;Node25</title>
<path fill="none" stroke="midnightblue" d="M527.457,-673.882C537.788,-704.314 571.648,-790.201 634,-823 738.66,-878.054 885.508,-844.977 953.604,-824.525"/>
<polygon fill="midnightblue" stroke="midnightblue" points="954.927,-827.779 963.452,-821.488 952.865,-821.09 954.927,-827.779"/>
</g>
<!-- Node26 -->
<g id="node59" class="node"><title>Node26</title>
<a xlink:href="mjpegDecoder_8cpp.html#a886790df723e585b6261982edf7e5daa" target="_top" xlink:title="huffman_init">
<polygon fill="none" stroke="black" points="695,-752.5 695,-773.5 771,-773.5 771,-752.5 695,-752.5"/>
<text text-anchor="middle" x="733" y="-760.5" font-family="FreeSans.ttf" font-size="10.00">huffman_init</text>
</a>
</g>
<!-- Node19&#45;&gt;Node26 -->
<g id="edge66" class="edge"><title>Node19&#45;&gt;Node26</title>
<path fill="none" stroke="midnightblue" d="M535.156,-673.71C553.942,-691.105 593.79,-725.329 634,-743 649.82,-749.952 668.13,-754.516 684.67,-757.499"/>
<polygon fill="midnightblue" stroke="midnightblue" points="684.263,-760.98 694.701,-759.16 685.407,-754.074 684.263,-760.98"/>
</g>
<!-- Node28 -->
<g id="node63" class="node"><title>Node28</title>
<a xlink:href="mjpegDecoder_8cpp.html#a0ceaae71da222f4c43c65327ed5205c9" target="_top" xlink:title="idct">
<polygon fill="none" stroke="black" points="716,-712.5 716,-733.5 750,-733.5 750,-712.5 716,-712.5"/>
<text text-anchor="middle" x="733" y="-720.5" font-family="FreeSans.ttf" font-size="10.00">idct</text>
</a>
</g>
<!-- Node19&#45;&gt;Node28 -->
<g id="edge70" class="edge"><title>Node19&#45;&gt;Node28</title>
<path fill="none" stroke="midnightblue" d="M549.867,-673.652C571.934,-682.436 604.657,-694.751 634,-703 657.896,-709.718 685.635,-715.121 705.662,-718.61"/>
<polygon fill="midnightblue" stroke="midnightblue" points="705.2,-722.082 715.645,-720.302 706.37,-715.18 705.2,-722.082"/>
</g>
<!-- Node29 -->
<g id="node65" class="node"><title>Node29</title>
<a xlink:href="mjpegDecoder_8cpp.html#a3911e422b937ec08aafbc3dd47767bdf" target="_top" xlink:title="idctqtab">
<polygon fill="none" stroke="black" points="705,-672.5 705,-693.5 761,-693.5 761,-672.5 705,-672.5"/>
<text text-anchor="middle" x="733" y="-680.5" font-family="FreeSans.ttf" font-size="10.00">idctqtab</text>
</a>
</g>
<!-- Node19&#45;&gt;Node29 -->
<g id="edge72" class="edge"><title>Node19&#45;&gt;Node29</title>
<path fill="none" stroke="midnightblue" d="M587.558,-669.082C622.58,-672.434 664.889,-676.482 694.824,-679.347"/>
<polygon fill="midnightblue" stroke="midnightblue" points="694.575,-682.839 704.863,-680.307 695.242,-675.871 694.575,-682.839"/>
</g>
<!-- Node30 -->
<g id="node67" class="node"><title>Node30</title>
<a xlink:href="mjpegDecoder_8cpp.html#a63047e52f30f4d86309767a3646184e1" target="_top" xlink:title="readtables">
<polygon fill="none" stroke="black" points="699,-792.5 699,-813.5 767,-813.5 767,-792.5 699,-792.5"/>
<text text-anchor="middle" x="733" y="-800.5" font-family="FreeSans.ttf" font-size="10.00">readtables</text>
</a>
</g>
<!-- Node19&#45;&gt;Node30 -->
<g id="edge74" class="edge"><title>Node19&#45;&gt;Node30</title>
<path fill="none" stroke="midnightblue" d="M530.423,-673.724C545.329,-697.597 584.783,-755.205 634,-783 650.542,-792.342 670.813,-797.359 688.695,-800.038"/>
<polygon fill="midnightblue" stroke="midnightblue" points="688.254,-803.51 698.622,-801.33 689.157,-796.569 688.254,-803.51"/>
</g>
<!-- Node31 -->
<g id="node72" class="node"><title>Node31</title>
<a xlink:href="mjpegDecoder_8cpp.html#a65081aac1b59f346779f69c8e0475c81" target="_top" xlink:title="setinput">
<polygon fill="none" stroke="black" points="705,-632.5 705,-653.5 761,-653.5 761,-632.5 705,-632.5"/>
<text text-anchor="middle" x="733" y="-640.5" font-family="FreeSans.ttf" font-size="10.00">setinput</text>
</a>
</g>
<!-- Node19&#45;&gt;Node31 -->
<g id="edge82" class="edge"><title>Node19&#45;&gt;Node31</title>
<path fill="none" stroke="midnightblue" d="M587.558,-656.918C622.58,-653.566 664.889,-649.518 694.824,-646.653"/>
<polygon fill="midnightblue" stroke="midnightblue" points="695.242,-650.129 704.863,-645.693 694.575,-643.161 695.242,-650.129"/>
</g>
<!-- Node32 -->
<g id="node74" class="node"><title>Node32</title>
<a xlink:href="mjpegDecoder_8cpp.html#a7649928c378f14629232e14f706c65c3" target="_top" xlink:title="yuv400pto422">
<polygon fill="none" stroke="black" points="690.5,-592.5 690.5,-613.5 775.5,-613.5 775.5,-592.5 690.5,-592.5"/>
<text text-anchor="middle" x="733" y="-600.5" font-family="FreeSans.ttf" font-size="10.00">yuv400pto422</text>
</a>
</g>
<!-- Node19&#45;&gt;Node32 -->
<g id="edge84" class="edge"><title>Node19&#45;&gt;Node32</title>
<path fill="none" stroke="midnightblue" d="M549.867,-652.348C571.934,-643.564 604.657,-631.249 634,-623 648.813,-618.836 665.102,-615.176 680.116,-612.165"/>
<polygon fill="midnightblue" stroke="midnightblue" points="681.127,-615.534 690.273,-610.186 679.788,-608.663 681.127,-615.534"/>
</g>
<!-- Node33 -->
<g id="node76" class="node"><title>Node33</title>
<a xlink:href="mjpegDecoder_8cpp.html#ae427b03bf2dc4987535c5a842413bb59" target="_top" xlink:title="yuv420pto422">
<polygon fill="none" stroke="black" points="690.5,-552.5 690.5,-573.5 775.5,-573.5 775.5,-552.5 690.5,-552.5"/>
<text text-anchor="middle" x="733" y="-560.5" font-family="FreeSans.ttf" font-size="10.00">yuv420pto422</text>
</a>
</g>
<!-- Node19&#45;&gt;Node33 -->
<g id="edge86" class="edge"><title>Node19&#45;&gt;Node33</title>
<path fill="none" stroke="midnightblue" d="M535.156,-652.29C553.942,-634.895 593.79,-600.671 634,-583 648.485,-576.634 665.059,-572.271 680.449,-569.29"/>
<polygon fill="midnightblue" stroke="midnightblue" points="681.127,-572.724 690.358,-567.523 679.899,-565.833 681.127,-572.724"/>
</g>
<!-- Node34 -->
<g id="node78" class="node"><title>Node34</title>
<a xlink:href="mjpegDecoder_8cpp.html#a33e6512c441557cc5523f39ba1e77cc4" target="_top" xlink:title="yuv422pto422">
<polygon fill="none" stroke="black" points="690.5,-512.5 690.5,-533.5 775.5,-533.5 775.5,-512.5 690.5,-512.5"/>
<text text-anchor="middle" x="733" y="-520.5" font-family="FreeSans.ttf" font-size="10.00">yuv422pto422</text>
</a>
</g>
<!-- Node19&#45;&gt;Node34 -->
<g id="edge88" class="edge"><title>Node19&#45;&gt;Node34</title>
<path fill="none" stroke="midnightblue" d="M530.423,-652.276C545.329,-628.403 584.783,-570.795 634,-543 648.028,-535.078 664.738,-530.266 680.398,-527.353"/>
<polygon fill="midnightblue" stroke="midnightblue" points="681.196,-530.769 690.499,-525.698 680.065,-523.861 681.196,-530.769"/>
</g>
<!-- Node35 -->
<g id="node80" class="node"><title>Node35</title>
<a xlink:href="mjpegDecoder_8cpp.html#a72dc082526b8197cabb5a1af75cf43ec" target="_top" xlink:title="yuv444pto422">
<polygon fill="none" stroke="black" points="690.5,-472.5 690.5,-493.5 775.5,-493.5 775.5,-472.5 690.5,-472.5"/>
<text text-anchor="middle" x="733" y="-480.5" font-family="FreeSans.ttf" font-size="10.00">yuv444pto422</text>
</a>
</g>
<!-- Node19&#45;&gt;Node35 -->
<g id="edge90" class="edge"><title>Node19&#45;&gt;Node35</title>
<path fill="none" stroke="midnightblue" d="M527.982,-652.311C539.446,-623.12 575.503,-541.655 634,-503 647.561,-494.039 664.281,-488.945 680.095,-486.093"/>
<polygon fill="midnightblue" stroke="midnightblue" points="680.96,-489.501 690.313,-484.524 679.898,-482.582 680.96,-489.501"/>
</g>
<!-- Node20&#45;&gt;Node21 -->
<g id="edge52" class="edge"><title>Node20&#45;&gt;Node21</title>
<path fill="none" stroke="midnightblue" d="M783.665,-439.269C826.687,-436.101 888.417,-431.555 933.326,-428.247"/>
<polygon fill="midnightblue" stroke="midnightblue" points="933.782,-431.723 943.498,-427.498 933.268,-424.742 933.782,-431.723"/>
</g>
<!-- Node21&#45;&gt;Node5 -->
<g id="edge54" class="edge"><title>Node21&#45;&gt;Node5</title>
<path fill="none" stroke="midnightblue" d="M1038.75,-421.17C1062.1,-418.564 1090.22,-413.568 1114,-404 1127.79,-398.453 1141.56,-389.159 1152.21,-380.926"/>
<polygon fill="midnightblue" stroke="midnightblue" points="1154.43,-383.633 1160.04,-374.642 1150.05,-378.176 1154.43,-383.633"/>
</g>
<!-- Node27 -->
<g id="node61" class="node"><title>Node27</title>
<a xlink:href="mjpegDecoder_8cpp.html#ae7f61ac1c86418c3164c0e020e1ea619" target="_top" xlink:title="dec_makehuff">
<polygon fill="none" stroke="black" points="949,-756.5 949,-777.5 1033,-777.5 1033,-756.5 949,-756.5"/>
<text text-anchor="middle" x="991" y="-764.5" font-family="FreeSans.ttf" font-size="10.00">dec_makehuff</text>
</a>
</g>
<!-- Node26&#45;&gt;Node27 -->
<g id="edge68" class="edge"><title>Node26&#45;&gt;Node27</title>
<path fill="none" stroke="midnightblue" d="M771.069,-763.59C815.431,-764.278 888.984,-765.418 938.69,-766.189"/>
<polygon fill="midnightblue" stroke="midnightblue" points="938.862,-769.692 948.915,-766.348 938.971,-762.693 938.862,-769.692"/>
</g>
<!-- Node30&#45;&gt;Node24 -->
<g id="edge78" class="edge"><title>Node30&#45;&gt;Node24</title>
<path fill="none" stroke="midnightblue" d="M767.26,-811.897C815.991,-824.552 904.919,-847.646 954.729,-860.581"/>
<polygon fill="midnightblue" stroke="midnightblue" points="953.882,-863.977 964.44,-863.103 955.641,-857.201 953.882,-863.977"/>
</g>
<!-- Node30&#45;&gt;Node25 -->
<g id="edge80" class="edge"><title>Node30&#45;&gt;Node25</title>
<path fill="none" stroke="midnightblue" d="M767.26,-804.195C815.505,-805.878 903.151,-808.935 953.228,-810.682"/>
<polygon fill="midnightblue" stroke="midnightblue" points="953.2,-814.183 963.316,-811.034 953.444,-807.188 953.2,-814.183"/>
</g>
<!-- Node30&#45;&gt;Node27 -->
<g id="edge76" class="edge"><title>Node30&#45;&gt;Node27</title>
<path fill="none" stroke="midnightblue" d="M767.26,-798.219C811.118,-792.1 887.536,-781.437 938.692,-774.299"/>
<polygon fill="midnightblue" stroke="midnightblue" points="939.466,-777.725 948.886,-772.876 938.498,-770.792 939.466,-777.725"/>
</g>
</g>
</svg>
        <g id="navigator" transform="translate(0 0)" fill="#404254">
                <rect fill="#f2f5e9" fill-opacity="0.5" stroke="#606060" stroke-width=".5" x="0" y="0" width="60" height="60"/>
                <use id="zoomplus" xlink:href="#zoomPlus" x="17" y="9" onmousedown="handleZoom(evt,'in')"/>
                <use id="zoomminus" xlink:href="#zoomMin" x="42" y="9" onmousedown="handleZoom(evt,'out')"/>
                <use id="reset" xlink:href="#resetDef" x="30" y="36" onmousedown="handleReset()"/>
                <g id="arrowUp" xlink:href="#dirArrow" transform="translate(30 24)" onmousedown="handlePan(0,-1)">
                  <use xlink:href="#rim" fill="#404040">
                        <set attributeName="fill" to="#808080" begin="arrowUp.mouseover" end="arrowUp.mouseout"/>
                  </use>
                  <path fill="none" stroke="white" stroke-width="1.5" d="M0,-3.0v7 M-2.5,-0.5L0,-3.0L2.5,-0.5"/>
                </g>
                <g id="arrowRight" xlink:href="#dirArrow" transform="rotate(90) translate(36 -43)" onmousedown="handlePan(1,0)">
                  <use xlink:href="#rim" fill="#404040">
                        <set attributeName="fill" to="#808080" begin="arrowRight.mouseover" end="arrowRight.mouseout"/>
                  </use>
                  <path fill="none" stroke="white" stroke-width="1.5" d="M0,-3.0v7 M-2.5,-0.5L0,-3.0L2.5,-0.5"/>
                </g>
                <g id="arrowDown" xlink:href="#dirArrow" transform="rotate(180) translate(-30 -48)" onmousedown="handlePan(0,1)">
                  <use xlink:href="#rim" fill="#404040">
                        <set attributeName="fill" to="#808080" begin="arrowDown.mouseover" end="arrowDown.mouseout"/>
                  </use>
                  <path fill="none" stroke="white" stroke-width="1.5" d="M0,-3.0v7 M-2.5,-0.5L0,-3.0L2.5,-0.5"/>
                </g>
                <g id="arrowLeft" xlink:href="#dirArrow" transform="rotate(270) translate(-36 17)" onmousedown="handlePan(-1,0)">
                  <use xlink:href="#rim" fill="#404040">
                        <set attributeName="fill" to="#808080" begin="arrowLeft.mouseover" end="arrowLeft.mouseout"/>
                  </use>
                  <path fill="none" stroke="white" stroke-width="1.5" d="M0,-3.0v7 M-2.5,-0.5L0,-3.0L2.5,-0.5"/>
                </g>
        </g>
</svg>
