<?xml version="1.0" encoding="UTF-8" standalone="no"?>
<!DOCTYPE svg PUBLIC "-//W3C//DTD SVG 1.1//EN"
 "http://www.w3.org/Graphics/SVG/1.1/DTD/svg11.dtd">
<!-- Generated by graphviz version 2.26.3 (20100126.1600)
 -->
<!-- Title: G Pages: 1 -->
<!--zoomable 70 -->
<svg id="main" version="1.1" xmlns="http://www.w3.org/2000/svg" xmlns:xlink="http://www.w3.org/1999/xlink" xml:space="preserve" onload="init(evt)">
        <defs>
                <circle id="rim" cx="0" cy="0" r="7"/>
                <circle id="rim2" cx="0" cy="0" r="3.5"/>
                <g id="zoomPlus">
                        <use xlink:href="#rim" fill="#404040">
                                <set attributeName="fill" to="#808080" begin="zoomplus.mouseover" end="zoomplus.mouseout"/>
                        </use>
                        <path d="M-4,0h8M0,-4v8" fill="none" stroke="white" stroke-width="1.5" pointer-events="none"/>
                </g>
                <g id="zoomMin">
                        <use xlink:href="#rim" fill="#404040">
                                <set attributeName="fill" to="#808080" begin="zoomminus.mouseover" end="zoomminus.mouseout"/>
                        </use>
                        <path d="M-4,0h8" fill="none" stroke="white" stroke-width="1.5" pointer-events="none"/>
                </g>
                <g id="dirArrow">
                        <path fill="none" stroke="white" stroke-width="1.5" d="M0,-3.0v7 M-2.5,-0.5L0,-3.0L2.5,-0.5"/>
                </g>
               <g id="resetDef">
                       <use xlink:href="#rim2" fill="#404040">
                               <set attributeName="fill" to="#808080" begin="reset.mouseover" end="reset.mouseout"/>
                       </use>
               </g>
        </defs>

<script type="text/javascript">
var viewWidth = 704;
var viewHeight = 70;
var sectionId = 'dynsection-2';
</script>
<script xlink:href="svgpan.js"/>
<svg id="graph" class="graph">
<g id="viewport">
<title>G</title>
<!-- Node1 -->
<g id="node1" class="node"><title>Node1</title>
<polygon fill="#bfbfbf" stroke="black" points="0,-20.5 0,-41.5 128,-41.5 128,-20.5 0,-20.5"/>
<text text-anchor="middle" x="64" y="-28.5" font-family="FreeSans.ttf" font-size="10.00">corecvs::Line2d::Line2d</text>
</g>
<!-- Node2 -->
<g id="node3" class="node"><title>Node2</title>
<a xlink:href="classcorecvs_1_1Line2d.html#a9a1ab0d87a6fc477feb07bc00d92bdaf" target="_top" xlink:title="corecvs::Line2d::fromSegment">
<polygon fill="none" stroke="black" points="164,-20.5 164,-41.5 328,-41.5 328,-20.5 164,-20.5"/>
<text text-anchor="middle" x="246" y="-28.5" font-family="FreeSans.ttf" font-size="10.00">corecvs::Line2d::fromSegment</text>
</a>
</g>
<!-- Node1&#45;&gt;Node2 -->
<g id="edge2" class="edge"><title>Node1&#45;&gt;Node2</title>
<path fill="none" stroke="midnightblue" d="M128.166,-31C136.478,-31 145.119,-31 153.773,-31"/>
<polygon fill="midnightblue" stroke="midnightblue" points="153.922,-34.5001 163.922,-31 153.921,-27.5001 153.922,-34.5001"/>
</g>
<!-- Node3 -->
<g id="node5" class="node"><title>Node3</title>
<a xlink:href="classcorecvs_1_1Line2d.html#a05527eb308384adaecfc6cd81a104eee" target="_top" xlink:title="corecvs::Line2d::fromRay">
<polygon fill="none" stroke="black" points="364.5,-20.5 364.5,-41.5 501.5,-41.5 501.5,-20.5 364.5,-20.5"/>
<text text-anchor="middle" x="433" y="-28.5" font-family="FreeSans.ttf" font-size="10.00">corecvs::Line2d::fromRay</text>
</a>
</g>
<!-- Node2&#45;&gt;Node3 -->
<g id="edge4" class="edge"><title>Node2&#45;&gt;Node3</title>
<path fill="none" stroke="midnightblue" d="M328.021,-31C336.767,-31 345.649,-31 354.355,-31"/>
<polygon fill="midnightblue" stroke="midnightblue" points="354.476,-34.5001 364.476,-31 354.475,-27.5001 354.476,-34.5001"/>
</g>
<!-- Node4 -->
<g id="node7" class="node"><title>Node4</title>
<a xlink:href="classcorecvs_1_1Vector2d.html#a8b1b9448eba22543b2d6a405736f4089" target="_top" xlink:title="corecvs::Vector2d::leftNormal">
<polygon fill="none" stroke="black" points="538,-40.5 538,-61.5 696,-61.5 696,-40.5 538,-40.5"/>
<text text-anchor="middle" x="617" y="-48.5" font-family="FreeSans.ttf" font-size="10.00">corecvs::Vector2d::leftNormal</text>
</a>
</g>
<!-- Node3&#45;&gt;Node4 -->
<g id="edge6" class="edge"><title>Node3&#45;&gt;Node4</title>
<path fill="none" stroke="midnightblue" d="M501.515,-38.4473C510.126,-39.3833 519.032,-40.3513 527.902,-41.3154"/>
<polygon fill="midnightblue" stroke="midnightblue" points="527.563,-44.7991 537.883,-42.4003 528.32,-37.8401 527.563,-44.7991"/>
</g>
<!-- Node5 -->
<g id="node9" class="node"><title>Node5</title>
<a xlink:href="classcorecvs_1_1Line2d.html#a1da80b5c651aecdf9ec9f47edea87d4b" target="_top" xlink:title="corecvs::Line2d::Line2d">
<polygon fill="none" stroke="black" points="553,-0.5 553,-21.5 681,-21.5 681,-0.5 553,-0.5"/>
<text text-anchor="middle" x="617" y="-8.5" font-family="FreeSans.ttf" font-size="10.00">corecvs::Line2d::Line2d</text>
</a>
</g>
<!-- Node3&#45;&gt;Node5 -->
<g id="edge8" class="edge"><title>Node3&#45;&gt;Node5</title>
<path fill="none" stroke="midnightblue" d="M501.515,-23.5527C514.949,-22.0925 529.1,-20.5544 542.713,-19.0747"/>
<polygon fill="midnightblue" stroke="midnightblue" points="543.434,-22.5171 552.997,-17.9569 542.677,-15.558 543.434,-22.5171"/>
</g>
</g>
</svg>
        <g id="navigator" transform="translate(0 0)" fill="#404254">
                <rect fill="#f2f5e9" fill-opacity="0.5" stroke="#606060" stroke-width=".5" x="0" y="0" width="60" height="60"/>
                <use id="zoomplus" xlink:href="#zoomPlus" x="17" y="9" onmousedown="handleZoom(evt,'in')"/>
                <use id="zoomminus" xlink:href="#zoomMin" x="42" y="9" onmousedown="handleZoom(evt,'out')"/>
                <use id="reset" xlink:href="#resetDef" x="30" y="36" onmousedown="handleReset()"/>
                <g id="arrowUp" xlink:href="#dirArrow" transform="translate(30 24)" onmousedown="handlePan(0,-1)">
                  <use xlink:href="#rim" fill="#404040">
                        <set attributeName="fill" to="#808080" begin="arrowUp.mouseover" end="arrowUp.mouseout"/>
                  </use>
                  <path fill="none" stroke="white" stroke-width="1.5" d="M0,-3.0v7 M-2.5,-0.5L0,-3.0L2.5,-0.5"/>
                </g>
                <g id="arrowRight" xlink:href="#dirArrow" transform="rotate(90) translate(36 -43)" onmousedown="handlePan(1,0)">
                  <use xlink:href="#rim" fill="#404040">
                        <set attributeName="fill" to="#808080" begin="arrowRight.mouseover" end="arrowRight.mouseout"/>
                  </use>
                  <path fill="none" stroke="white" stroke-width="1.5" d="M0,-3.0v7 M-2.5,-0.5L0,-3.0L2.5,-0.5"/>
                </g>
                <g id="arrowDown" xlink:href="#dirArrow" transform="rotate(180) translate(-30 -48)" onmousedown="handlePan(0,1)">
                  <use xlink:href="#rim" fill="#404040">
                        <set attributeName="fill" to="#808080" begin="arrowDown.mouseover" end="arrowDown.mouseout"/>
                  </use>
                  <path fill="none" stroke="white" stroke-width="1.5" d="M0,-3.0v7 M-2.5,-0.5L0,-3.0L2.5,-0.5"/>
                </g>
                <g id="arrowLeft" xlink:href="#dirArrow" transform="rotate(270) translate(-36 17)" onmousedown="handlePan(-1,0)">
                  <use xlink:href="#rim" fill="#404040">
                        <set attributeName="fill" to="#808080" begin="arrowLeft.mouseover" end="arrowLeft.mouseout"/>
                  </use>
                  <path fill="none" stroke="white" stroke-width="1.5" d="M0,-3.0v7 M-2.5,-0.5L0,-3.0L2.5,-0.5"/>
                </g>
        </g>
</svg>
