<?xml version="1.0" encoding="UTF-8" standalone="no"?>
<!DOCTYPE svg PUBLIC "-//W3C//DTD SVG 1.1//EN"
 "http://www.w3.org/Graphics/SVG/1.1/DTD/svg11.dtd">
<!-- Generated by graphviz version 2.26.3 (20100126.1600)
 -->
<!-- Title: G Pages: 1 -->
<!--zoomable 190 -->
<svg id="main" version="1.1" xmlns="http://www.w3.org/2000/svg" xmlns:xlink="http://www.w3.org/1999/xlink" xml:space="preserve" onload="init(evt)">
        <defs>
                <circle id="rim" cx="0" cy="0" r="7"/>
                <circle id="rim2" cx="0" cy="0" r="3.5"/>
                <g id="zoomPlus">
                        <use xlink:href="#rim" fill="#404040">
                                <set attributeName="fill" to="#808080" begin="zoomplus.mouseover" end="zoomplus.mouseout"/>
                        </use>
                        <path d="M-4,0h8M0,-4v8" fill="none" stroke="white" stroke-width="1.5" pointer-events="none"/>
                </g>
                <g id="zoomMin">
                        <use xlink:href="#rim" fill="#404040">
                                <set attributeName="fill" to="#808080" begin="zoomminus.mouseover" end="zoomminus.mouseout"/>
                        </use>
                        <path d="M-4,0h8" fill="none" stroke="white" stroke-width="1.5" pointer-events="none"/>
                </g>
                <g id="dirArrow">
                        <path fill="none" stroke="white" stroke-width="1.5" d="M0,-3.0v7 M-2.5,-0.5L0,-3.0L2.5,-0.5"/>
                </g>
               <g id="resetDef">
                       <use xlink:href="#rim2" fill="#404040">
                               <set attributeName="fill" to="#808080" begin="reset.mouseover" end="reset.mouseout"/>
                       </use>
               </g>
        </defs>

<script type="text/javascript">
var viewWidth = 512;
var viewHeight = 190;
var sectionId = 'dynsection-0';
</script>
<script xlink:href="svgpan.js"/>
<svg id="graph" class="graph">
<g id="viewport">
<title>G</title>
<!-- Node1 -->
<g id="node1" class="node"><title>Node1</title>
<polygon fill="#bfbfbf" stroke="black" points="154,-80.5 154,-101.5 288,-101.5 288,-80.5 154,-80.5"/>
<text text-anchor="middle" x="221" y="-88.5" font-family="FreeSans.ttf" font-size="10.00">corecvs::BasePathVisitor</text>
</g>
<!-- Node3 -->
<g id="node5" class="node"><title>Node3</title>
<a xlink:href="classcorecvs_1_1PropertyListReaderVisitor.html" target="_top" xlink:title="Visitor that de&#45;serializes the type hierarchy from the PropertyList &#45; the internal human readable for...">
<polygon fill="none" stroke="black" points="324.5,-160.5 324.5,-181.5 503.5,-181.5 503.5,-160.5 324.5,-160.5"/>
<text text-anchor="middle" x="414" y="-168.5" font-family="FreeSans.ttf" font-size="10.00">corecvs::PropertyListReaderVisitor</text>
</a>
</g>
<!-- Node1&#45;&gt;Node3 -->
<g id="edge4" class="edge"><title>Node1&#45;&gt;Node3</title>
<path fill="none" stroke="midnightblue" d="M244.476,-107.516C264.69,-121.025 295.089,-139.684 324,-151 333.539,-154.734 343.934,-157.851 354.16,-160.426"/>
<polygon fill="midnightblue" stroke="midnightblue" points="246.184,-104.445 235.947,-101.716 242.248,-110.234 246.184,-104.445"/>
</g>
<!-- Node4 -->
<g id="node7" class="node"><title>Node4</title>
<a xlink:href="classcorecvs_1_1PropertyListWriterVisitor.html" target="_top" xlink:title="Visitor that serializes the type hierarchy into the PropertyList &#45; the internal human readable format...">
<polygon fill="none" stroke="black" points="327.5,-120.5 327.5,-141.5 500.5,-141.5 500.5,-120.5 327.5,-120.5"/>
<text text-anchor="middle" x="414" y="-128.5" font-family="FreeSans.ttf" font-size="10.00">corecvs::PropertyListWriterVisitor</text>
</a>
</g>
<!-- Node1&#45;&gt;Node4 -->
<g id="edge6" class="edge"><title>Node1&#45;&gt;Node4</title>
<path fill="none" stroke="midnightblue" d="M281.554,-103.55C307.824,-108.995 338.241,-115.299 363.295,-120.491"/>
<polygon fill="midnightblue" stroke="midnightblue" points="282.211,-100.112 271.708,-101.51 280.79,-106.966 282.211,-100.112"/>
</g>
<!-- Node5 -->
<g id="node9" class="node"><title>Node5</title>
<a xlink:href="classDefaultSetterOld.html" target="_top" xlink:title="DefaultSetterOld">
<polygon fill="none" stroke="black" points="365.5,-80.5 365.5,-101.5 462.5,-101.5 462.5,-80.5 365.5,-80.5"/>
<text text-anchor="middle" x="414" y="-88.5" font-family="FreeSans.ttf" font-size="10.00">DefaultSetterOld</text>
</a>
</g>
<!-- Node1&#45;&gt;Node5 -->
<g id="edge8" class="edge"><title>Node1&#45;&gt;Node5</title>
<path fill="none" stroke="midnightblue" d="M298.469,-91C321.014,-91 345.002,-91 365.244,-91"/>
<polygon fill="midnightblue" stroke="midnightblue" points="298.231,-87.5001 288.231,-91 298.231,-94.5001 298.231,-87.5001"/>
</g>
<!-- Node6 -->
<g id="node11" class="node"><title>Node6</title>
<a xlink:href="classXmlGetter.html" target="_top" xlink:title="XmlGetter">
<polygon fill="none" stroke="black" points="381.5,-40.5 381.5,-61.5 446.5,-61.5 446.5,-40.5 381.5,-40.5"/>
<text text-anchor="middle" x="414" y="-48.5" font-family="FreeSans.ttf" font-size="10.00">XmlGetter</text>
</a>
</g>
<!-- Node1&#45;&gt;Node6 -->
<g id="edge10" class="edge"><title>Node1&#45;&gt;Node6</title>
<path fill="none" stroke="midnightblue" d="M281.728,-78.4138C314.755,-71.5689 354.293,-63.3744 381.489,-57.7381"/>
<polygon fill="midnightblue" stroke="midnightblue" points="280.79,-75.0338 271.708,-80.4905 282.211,-81.8882 280.79,-75.0338"/>
</g>
<!-- Node7 -->
<g id="node13" class="node"><title>Node7</title>
<a xlink:href="classXmlSetter.html" target="_top" xlink:title="XmlSetter">
<polygon fill="none" stroke="black" points="381.5,-0.5 381.5,-21.5 446.5,-21.5 446.5,-0.5 381.5,-0.5"/>
<text text-anchor="middle" x="414" y="-8.5" font-family="FreeSans.ttf" font-size="10.00">XmlSetter</text>
</a>
</g>
<!-- Node1&#45;&gt;Node7 -->
<g id="edge12" class="edge"><title>Node1&#45;&gt;Node7</title>
<path fill="none" stroke="midnightblue" d="M244.476,-74.4839C264.69,-60.9747 295.089,-42.3158 324,-31 342.333,-23.8244 363.826,-18.9271 381.21,-15.7752"/>
<polygon fill="midnightblue" stroke="midnightblue" points="242.248,-71.7661 235.947,-80.2836 246.184,-77.5546 242.248,-71.7661"/>
</g>
<!-- Node2 -->
<g id="node2" class="node"><title>Node2</title>
<a xlink:title="STL class.">
<polygon fill="none" stroke="#bfbfbf" points="0.5,-80.5 0.5,-101.5 117.5,-101.5 117.5,-80.5 0.5,-80.5"/>
<text text-anchor="middle" x="59" y="-88.5" font-family="FreeSans.ttf" font-size="10.00">std::deque&lt; string &gt;</text>
</a>
</g>
<!-- Node2&#45;&gt;Node1 -->
<g id="edge2" class="edge"><title>Node2&#45;&gt;Node1</title>
<path fill="none" stroke="midnightblue" d="M128.204,-91C136.709,-91 145.391,-91 153.865,-91"/>
<polygon fill="midnightblue" stroke="midnightblue" points="127.944,-87.5001 117.944,-91 127.944,-94.5001 127.944,-87.5001"/>
</g>
</g>
</svg>
        <g id="navigator" transform="translate(0 0)" fill="#404254">
                <rect fill="#f2f5e9" fill-opacity="0.5" stroke="#606060" stroke-width=".5" x="0" y="0" width="60" height="60"/>
                <use id="zoomplus" xlink:href="#zoomPlus" x="17" y="9" onmousedown="handleZoom(evt,'in')"/>
                <use id="zoomminus" xlink:href="#zoomMin" x="42" y="9" onmousedown="handleZoom(evt,'out')"/>
                <use id="reset" xlink:href="#resetDef" x="30" y="36" onmousedown="handleReset()"/>
                <g id="arrowUp" xlink:href="#dirArrow" transform="translate(30 24)" onmousedown="handlePan(0,-1)">
                  <use xlink:href="#rim" fill="#404040">
                        <set attributeName="fill" to="#808080" begin="arrowUp.mouseover" end="arrowUp.mouseout"/>
                  </use>
                  <path fill="none" stroke="white" stroke-width="1.5" d="M0,-3.0v7 M-2.5,-0.5L0,-3.0L2.5,-0.5"/>
                </g>
                <g id="arrowRight" xlink:href="#dirArrow" transform="rotate(90) translate(36 -43)" onmousedown="handlePan(1,0)">
                  <use xlink:href="#rim" fill="#404040">
                        <set attributeName="fill" to="#808080" begin="arrowRight.mouseover" end="arrowRight.mouseout"/>
                  </use>
                  <path fill="none" stroke="white" stroke-width="1.5" d="M0,-3.0v7 M-2.5,-0.5L0,-3.0L2.5,-0.5"/>
                </g>
                <g id="arrowDown" xlink:href="#dirArrow" transform="rotate(180) translate(-30 -48)" onmousedown="handlePan(0,1)">
                  <use xlink:href="#rim" fill="#404040">
                        <set attributeName="fill" to="#808080" begin="arrowDown.mouseover" end="arrowDown.mouseout"/>
                  </use>
                  <path fill="none" stroke="white" stroke-width="1.5" d="M0,-3.0v7 M-2.5,-0.5L0,-3.0L2.5,-0.5"/>
                </g>
                <g id="arrowLeft" xlink:href="#dirArrow" transform="rotate(270) translate(-36 17)" onmousedown="handlePan(-1,0)">
                  <use xlink:href="#rim" fill="#404040">
                        <set attributeName="fill" to="#808080" begin="arrowLeft.mouseover" end="arrowLeft.mouseout"/>
                  </use>
                  <path fill="none" stroke="white" stroke-width="1.5" d="M0,-3.0v7 M-2.5,-0.5L0,-3.0L2.5,-0.5"/>
                </g>
        </g>
</svg>
