<?xml version="1.0" encoding="UTF-8" standalone="no"?>
<!DOCTYPE svg PUBLIC "-//W3C//DTD SVG 1.1//EN"
 "http://www.w3.org/Graphics/SVG/1.1/DTD/svg11.dtd">
<!-- Generated by graphviz version 2.26.3 (20100126.1600)
 -->
<!-- Title: G Pages: 1 -->
<svg width="486pt" height="70pt"
 viewBox="0.00 0.00 486.00 70.00" xmlns="http://www.w3.org/2000/svg" xmlns:xlink="http://www.w3.org/1999/xlink">
<g id="graph1" class="graph" transform="scale(1 1) rotate(0) translate(4 66)">
<title>G</title>
<!-- Node1 -->
<g id="node1" class="node"><title>Node1</title>
<polygon fill="#bfbfbf" stroke="black" points="0.5,-20.5 0.5,-41.5 155.5,-41.5 155.5,-20.5 0.5,-20.5"/>
<text text-anchor="middle" x="78" y="-28.5" font-family="FreeSans.ttf" font-size="10.00">Draw3dParameters::staticInit</text>
</g>
<!-- Node2 -->
<g id="node3" class="node"><title>Node2</title>
<a xlink:href="classcorecvs_1_1BaseReflection.html#a4b2b142f760048627401f2dc16774f6d" target="_top" xlink:title="corecvs::BaseReflection\&lt; Draw3dParameters \&gt;::fields">
<polygon fill="none" stroke="black" points="198,-40.5 198,-61.5 472,-61.5 472,-40.5 198,-40.5"/>
<text text-anchor="middle" x="335" y="-48.5" font-family="FreeSans.ttf" font-size="10.00">corecvs::BaseReflection&lt; Draw3dParameters &gt;::fields</text>
</a>
</g>
<!-- Node1&#45;&gt;Node2 -->
<g id="edge2" class="edge"><title>Node1&#45;&gt;Node2</title>
<path fill="none" stroke="midnightblue" d="M155.806,-37.0549C166.661,-37.8997 178.091,-38.7892 189.708,-39.6932"/>
<polygon fill="midnightblue" stroke="midnightblue" points="189.713,-43.2041 199.954,-40.4906 190.256,-36.2252 189.713,-43.2041"/>
</g>
<!-- Node3 -->
<g id="node5" class="node"><title>Node3</title>
<a xlink:href="classcorecvs_1_1BaseReflection.html#a0c92ee87b235bceae96c89909ddb928d" target="_top" xlink:title="corecvs::BaseReflection\&lt; Draw3dParameters \&gt;::naming">
<polygon fill="none" stroke="black" points="192.5,-0.5 192.5,-21.5 477.5,-21.5 477.5,-0.5 192.5,-0.5"/>
<text text-anchor="middle" x="335" y="-8.5" font-family="FreeSans.ttf" font-size="10.00">corecvs::BaseReflection&lt; Draw3dParameters &gt;::naming</text>
</a>
</g>
<!-- Node1&#45;&gt;Node3 -->
<g id="edge4" class="edge"><title>Node1&#45;&gt;Node3</title>
<path fill="none" stroke="midnightblue" d="M155.806,-24.9451C166.661,-24.1003 178.091,-23.2108 189.708,-22.3068"/>
<polygon fill="midnightblue" stroke="midnightblue" points="190.256,-25.7748 199.954,-21.5094 189.713,-18.7959 190.256,-25.7748"/>
</g>
</g>
</svg>
