<?xml version="1.0" encoding="UTF-8" standalone="no"?>
<!DOCTYPE svg PUBLIC "-//W3C//DTD SVG 1.1//EN"
 "http://www.w3.org/Graphics/SVG/1.1/DTD/svg11.dtd">
<!-- Generated by graphviz version 2.26.3 (20100126.1600)
 -->
<!-- Title: G Pages: 1 -->
<!--zoomable 228 -->
<svg id="main" version="1.1" xmlns="http://www.w3.org/2000/svg" xmlns:xlink="http://www.w3.org/1999/xlink" xml:space="preserve" onload="init(evt)">
        <defs>
                <circle id="rim" cx="0" cy="0" r="7"/>
                <circle id="rim2" cx="0" cy="0" r="3.5"/>
                <g id="zoomPlus">
                        <use xlink:href="#rim" fill="#404040">
                                <set attributeName="fill" to="#808080" begin="zoomplus.mouseover" end="zoomplus.mouseout"/>
                        </use>
                        <path d="M-4,0h8M0,-4v8" fill="none" stroke="white" stroke-width="1.5" pointer-events="none"/>
                </g>
                <g id="zoomMin">
                        <use xlink:href="#rim" fill="#404040">
                                <set attributeName="fill" to="#808080" begin="zoomminus.mouseover" end="zoomminus.mouseout"/>
                        </use>
                        <path d="M-4,0h8" fill="none" stroke="white" stroke-width="1.5" pointer-events="none"/>
                </g>
                <g id="dirArrow">
                        <path fill="none" stroke="white" stroke-width="1.5" d="M0,-3.0v7 M-2.5,-0.5L0,-3.0L2.5,-0.5"/>
                </g>
               <g id="resetDef">
                       <use xlink:href="#rim2" fill="#404040">
                               <set attributeName="fill" to="#808080" begin="reset.mouseover" end="reset.mouseout"/>
                       </use>
               </g>
        </defs>

<script type="text/javascript">
var viewWidth = 1080;
var viewHeight = 228;
var sectionId = 'dynsection-4';
</script>
<script xlink:href="svgpan.js"/>
<svg id="graph" class="graph">
<g id="viewport">
<title>G</title>
<!-- Node1 -->
<g id="node1" class="node"><title>Node1</title>
<polygon fill="#bfbfbf" stroke="black" points="0,-99.5 0,-120.5 184,-120.5 184,-99.5 0,-99.5"/>
<text text-anchor="middle" x="92" y="-107.5" font-family="FreeSans.ttf" font-size="10.00">corecvs::FCostFunction::getBMatrix</text>
</g>
<!-- Node2 -->
<g id="node3" class="node"><title>Node2</title>
<a xlink:href="classcorecvs_1_1CameraIntrinsics.html#a5f4efc560d5e41ddc7bf14cc80815d62" target="_top" xlink:title="Returns inverse of K matrix.">
<polygon fill="none" stroke="black" points="236,-198.5 236,-219.5 446,-219.5 446,-198.5 236,-198.5"/>
<text text-anchor="middle" x="341" y="-206.5" font-family="FreeSans.ttf" font-size="10.00">corecvs::CameraIntrinsics::getInvKMatrix</text>
</a>
</g>
<!-- Node1&#45;&gt;Node2 -->
<g id="edge2" class="edge"><title>Node1&#45;&gt;Node2</title>
<path fill="none" stroke="midnightblue" d="M105.275,-120.668C127.555,-137.979 174.514,-171.963 220,-189 227.22,-191.704 234.819,-194.044 242.544,-196.068"/>
<polygon fill="midnightblue" stroke="midnightblue" points="241.834,-199.497 252.379,-198.466 243.492,-192.696 241.834,-199.497"/>
</g>
<!-- Node5 -->
<g id="node9" class="node"><title>Node5</title>
<a xlink:href="classcorecvs_1_1CameraIntrinsics.html#aa7d756af567dc6991d5f3324629da093" target="_top" xlink:title="We will denote it by matrix .">
<polygon fill="none" stroke="black" points="242.5,-158.5 242.5,-179.5 439.5,-179.5 439.5,-158.5 242.5,-158.5"/>
<text text-anchor="middle" x="341" y="-166.5" font-family="FreeSans.ttf" font-size="10.00">corecvs::CameraIntrinsics::getKMatrix</text>
</a>
</g>
<!-- Node1&#45;&gt;Node5 -->
<g id="edge8" class="edge"><title>Node1&#45;&gt;Node5</title>
<path fill="none" stroke="midnightblue" d="M129.387,-120.521C154.839,-127.538 189.342,-136.767 220,-144 238.32,-148.322 258.297,-152.619 276.644,-156.399"/>
<polygon fill="midnightblue" stroke="midnightblue" points="276.149,-159.87 286.647,-158.443 277.551,-153.012 276.149,-159.87"/>
</g>
<!-- Node6 -->
<g id="node13" class="node"><title>Node6</title>
<a xlink:href="classcorecvs_1_1FCostFunction.html#abc73633b33a7c457c1dd07149f2b296d" target="_top" xlink:title="Helper function that transforms Euler angels into Matrix presentation Sould be merged into ShiftRotat...">
<polygon fill="none" stroke="black" points="220.5,-80.5 220.5,-101.5 461.5,-101.5 461.5,-80.5 220.5,-80.5"/>
<text text-anchor="middle" x="341" y="-88.5" font-family="FreeSans.ttf" font-size="10.00">corecvs::FCostFunction::GetMatrixForTransform</text>
</a>
</g>
<!-- Node1&#45;&gt;Node6 -->
<g id="edge14" class="edge"><title>Node1&#45;&gt;Node6</title>
<path fill="none" stroke="midnightblue" d="M184.011,-102.979C192.475,-102.333 201.154,-101.671 209.876,-101.005"/>
<polygon fill="midnightblue" stroke="midnightblue" points="210.421,-104.474 220.126,-100.223 209.888,-97.4944 210.421,-104.474"/>
</g>
<!-- Node7 -->
<g id="node15" class="node"><title>Node7</title>
<a xlink:href="classcorecvs_1_1FCostFunction.html#aab87d6ed1d4260e43f645c7133e9fba6" target="_top" xlink:title="Rotation matrix in details:">
<polygon fill="none" stroke="black" points="498,-99.5 498,-120.5 698,-120.5 698,-99.5 498,-99.5"/>
<text text-anchor="middle" x="598" y="-107.5" font-family="FreeSans.ttf" font-size="10.00">corecvs::FCostFunction::RotationMatrix</text>
</a>
</g>
<!-- Node1&#45;&gt;Node7 -->
<g id="edge32" class="edge"><title>Node1&#45;&gt;Node7</title>
<path fill="none" stroke="midnightblue" d="M184.288,-110.807C196.302,-110.887 208.444,-110.955 220,-111 327.555,-111.42 354.445,-111.395 462,-111 470.316,-110.969 478.917,-110.928 487.569,-110.88"/>
<polygon fill="midnightblue" stroke="midnightblue" points="487.755,-114.379 497.734,-110.821 487.713,-107.379 487.755,-114.379"/>
</g>
<!-- Node12 -->
<g id="node27" class="node"><title>Node12</title>
<a xlink:href="classcorecvs_1_1FCostFunction.html#ab33581b82521ed94f5e53539055558ac" target="_top" xlink:title="Transformation form camera system to car system depending on camera.">
<polygon fill="none" stroke="black" points="240.5,-40.5 240.5,-61.5 441.5,-61.5 441.5,-40.5 240.5,-40.5"/>
<text text-anchor="middle" x="341" y="-48.5" font-family="FreeSans.ttf" font-size="10.00">corecvs::FCostFunction::NominalMatrix</text>
</a>
</g>
<!-- Node1&#45;&gt;Node12 -->
<g id="edge30" class="edge"><title>Node1&#45;&gt;Node12</title>
<path fill="none" stroke="midnightblue" d="M122.468,-99.4739C148.21,-90.882 186.183,-78.9102 220,-71 232.106,-68.1683 244.984,-65.5879 257.653,-63.2915"/>
<polygon fill="midnightblue" stroke="midnightblue" points="258.509,-66.6946 267.749,-61.5112 257.293,-59.8009 258.509,-66.6946"/>
</g>
<!-- Node13 -->
<g id="node30" class="node"><title>Node13</title>
<a xlink:href="classcorecvs_1_1Matrix44.html#a2b2199727e0ea9264105937c9aca9a1f" target="_top" xlink:title="Returning transposed matrix.">
<polygon fill="none" stroke="black" points="260.5,-0.5 260.5,-21.5 421.5,-21.5 421.5,-0.5 260.5,-0.5"/>
<text text-anchor="middle" x="341" y="-8.5" font-family="FreeSans.ttf" font-size="10.00">corecvs::Matrix44::transposed</text>
</a>
</g>
<!-- Node1&#45;&gt;Node13 -->
<g id="edge34" class="edge"><title>Node1&#45;&gt;Node13</title>
<path fill="none" stroke="midnightblue" d="M105.275,-99.3317C127.555,-82.0208 174.514,-48.0372 220,-31 229.671,-27.3778 240.02,-24.4103 250.444,-21.9793"/>
<polygon fill="midnightblue" stroke="midnightblue" points="251.411,-25.3509 260.441,-19.8091 249.926,-18.5103 251.411,-25.3509"/>
</g>
<!-- Node3 -->
<g id="node5" class="node"><title>Node3</title>
<a xlink:href="classcorecvs_1_1Vector2d.html#a944721c41f044c1388d9dc42ca899bce" target="_top" xlink:title="corecvs::Vector2d::x">
<polygon fill="none" stroke="black" points="541.5,-158.5 541.5,-179.5 654.5,-179.5 654.5,-158.5 541.5,-158.5"/>
<text text-anchor="middle" x="598" y="-166.5" font-family="FreeSans.ttf" font-size="10.00">corecvs::Vector2d::x</text>
</a>
</g>
<!-- Node2&#45;&gt;Node3 -->
<g id="edge4" class="edge"><title>Node2&#45;&gt;Node3</title>
<path fill="none" stroke="midnightblue" d="M408.524,-198.49C446.476,-192.583 493.667,-185.239 531.459,-179.357"/>
<polygon fill="midnightblue" stroke="midnightblue" points="532.009,-182.813 541.352,-177.817 530.932,-175.896 532.009,-182.813"/>
</g>
<!-- Node4 -->
<g id="node7" class="node"><title>Node4</title>
<a xlink:href="classcorecvs_1_1Vector2d.html#ae1ea2ad4c0821001408bf963cffa8413" target="_top" xlink:title="corecvs::Vector2d::y">
<polygon fill="none" stroke="black" points="541.5,-198.5 541.5,-219.5 654.5,-219.5 654.5,-198.5 541.5,-198.5"/>
<text text-anchor="middle" x="598" y="-206.5" font-family="FreeSans.ttf" font-size="10.00">corecvs::Vector2d::y</text>
</a>
</g>
<!-- Node2&#45;&gt;Node4 -->
<g id="edge6" class="edge"><title>Node2&#45;&gt;Node4</title>
<path fill="none" stroke="midnightblue" d="M446.273,-209C475.032,-209 505.396,-209 531.342,-209"/>
<polygon fill="midnightblue" stroke="midnightblue" points="531.428,-212.5 541.428,-209 531.428,-205.5 531.428,-212.5"/>
</g>
<!-- Node5&#45;&gt;Node3 -->
<g id="edge10" class="edge"><title>Node5&#45;&gt;Node3</title>
<path fill="none" stroke="midnightblue" d="M439.628,-169C470.263,-169 503.296,-169 531.227,-169"/>
<polygon fill="midnightblue" stroke="midnightblue" points="531.272,-172.5 541.272,-169 531.272,-165.5 531.272,-172.5"/>
</g>
<!-- Node5&#45;&gt;Node4 -->
<g id="edge12" class="edge"><title>Node5&#45;&gt;Node4</title>
<path fill="none" stroke="midnightblue" d="M408.524,-179.51C446.476,-185.417 493.667,-192.761 531.459,-198.643"/>
<polygon fill="midnightblue" stroke="midnightblue" points="530.932,-202.104 541.352,-200.183 532.009,-195.187 530.932,-202.104"/>
</g>
<!-- Node6&#45;&gt;Node7 -->
<g id="edge16" class="edge"><title>Node6&#45;&gt;Node7</title>
<path fill="none" stroke="midnightblue" d="M461.599,-99.9159C470.316,-100.56 479.082,-101.208 487.736,-101.848"/>
<polygon fill="midnightblue" stroke="midnightblue" points="487.602,-105.348 497.833,-102.595 488.118,-98.3668 487.602,-105.348"/>
</g>
<!-- Node8 -->
<g id="node17" class="node"><title>Node8</title>
<a xlink:href="classcorecvs_1_1Matrix33.html#a3a9a6d15467bd184a05d85a3bdd94bb6" target="_top" xlink:title="Creates a 2D projective transform for the rotation by the angle alpha or a 3d rotation transform...">
<polygon fill="none" stroke="black" points="734.5,-139.5 734.5,-160.5 887.5,-160.5 887.5,-139.5 734.5,-139.5"/>
<text text-anchor="middle" x="811" y="-147.5" font-family="FreeSans.ttf" font-size="10.00">corecvs::Matrix33::RotationZ</text>
</a>
</g>
<!-- Node7&#45;&gt;Node8 -->
<g id="edge18" class="edge"><title>Node7&#45;&gt;Node8</title>
<path fill="none" stroke="midnightblue" d="M653.963,-120.51C681.859,-125.748 715.776,-132.118 744.941,-137.595"/>
<polygon fill="midnightblue" stroke="midnightblue" points="744.567,-141.085 755.041,-139.491 745.859,-134.206 744.567,-141.085"/>
</g>
<!-- Node10 -->
<g id="node21" class="node"><title>Node10</title>
<a xlink:href="classcorecvs_1_1Matrix33.html#aa49a3a5aba1a4fb8dea74ff56bc24a7c" target="_top" xlink:title="Creates a 3D rotation matrix over the Y axis by the angle alpha.">
<polygon fill="none" stroke="black" points="735.5,-99.5 735.5,-120.5 886.5,-120.5 886.5,-99.5 735.5,-99.5"/>
<text text-anchor="middle" x="811" y="-107.5" font-family="FreeSans.ttf" font-size="10.00">corecvs::Matrix33::RotationY</text>
</a>
</g>
<!-- Node7&#45;&gt;Node10 -->
<g id="edge22" class="edge"><title>Node7&#45;&gt;Node10</title>
<path fill="none" stroke="midnightblue" d="M698.263,-110C707.357,-110 716.512,-110 725.461,-110"/>
<polygon fill="midnightblue" stroke="midnightblue" points="725.464,-113.5 735.464,-110 725.464,-106.5 725.464,-113.5"/>
</g>
<!-- Node11 -->
<g id="node24" class="node"><title>Node11</title>
<a xlink:href="classcorecvs_1_1Matrix33.html#a5739dadd953e3d8593a444c34a5d3a92" target="_top" xlink:title="Creates a 3D rotation matrix over the Y axis by the angle alpha.">
<polygon fill="none" stroke="black" points="735,-59.5 735,-80.5 887,-80.5 887,-59.5 735,-59.5"/>
<text text-anchor="middle" x="811" y="-67.5" font-family="FreeSans.ttf" font-size="10.00">corecvs::Matrix33::RotationX</text>
</a>
</g>
<!-- Node7&#45;&gt;Node11 -->
<g id="edge26" class="edge"><title>Node7&#45;&gt;Node11</title>
<path fill="none" stroke="midnightblue" d="M653.963,-99.4905C681.859,-94.2519 715.776,-87.8825 744.941,-82.4055"/>
<polygon fill="midnightblue" stroke="midnightblue" points="745.859,-85.7943 755.041,-80.5087 744.567,-78.9146 745.859,-85.7943"/>
</g>
<!-- Node9 -->
<g id="node19" class="node"><title>Node9</title>
<a xlink:href="classcorecvs_1_1Matrix33.html#a47c909b671a7ae90b386b56c8706d3a5" target="_top" xlink:title="corecvs::Matrix33::Matrix33">
<polygon fill="none" stroke="black" points="924,-99.5 924,-120.5 1072,-120.5 1072,-99.5 924,-99.5"/>
<text text-anchor="middle" x="998" y="-107.5" font-family="FreeSans.ttf" font-size="10.00">corecvs::Matrix33::Matrix33</text>
</a>
</g>
<!-- Node8&#45;&gt;Node9 -->
<g id="edge20" class="edge"><title>Node8&#45;&gt;Node9</title>
<path fill="none" stroke="midnightblue" d="M860.132,-139.49C884.302,-134.321 913.62,-128.049 938.996,-122.621"/>
<polygon fill="midnightblue" stroke="midnightblue" points="939.825,-126.023 948.872,-120.509 938.361,-119.178 939.825,-126.023"/>
</g>
<!-- Node10&#45;&gt;Node9 -->
<g id="edge24" class="edge"><title>Node10&#45;&gt;Node9</title>
<path fill="none" stroke="midnightblue" d="M886.521,-110C895.433,-110 904.57,-110 913.594,-110"/>
<polygon fill="midnightblue" stroke="midnightblue" points="913.716,-113.5 923.716,-110 913.716,-106.5 913.716,-113.5"/>
</g>
<!-- Node11&#45;&gt;Node9 -->
<g id="edge28" class="edge"><title>Node11&#45;&gt;Node9</title>
<path fill="none" stroke="midnightblue" d="M860.132,-80.5095C884.302,-85.6795 913.62,-91.9508 938.996,-97.3788"/>
<polygon fill="midnightblue" stroke="midnightblue" points="938.361,-100.822 948.872,-99.4913 939.825,-93.9769 938.361,-100.822"/>
</g>
<!-- Node14 -->
<g id="node32" class="node"><title>Node14</title>
<a xlink:href="classcorecvs_1_1Matrix44.html#acf5e18b2333c493522c2d32ae8719541" target="_top" xlink:title="corecvs::Matrix44::Matrix44">
<polygon fill="none" stroke="black" points="524,-0.5 524,-21.5 672,-21.5 672,-0.5 524,-0.5"/>
<text text-anchor="middle" x="598" y="-8.5" font-family="FreeSans.ttf" font-size="10.00">corecvs::Matrix44::Matrix44</text>
</a>
</g>
<!-- Node13&#45;&gt;Node14 -->
<g id="edge36" class="edge"><title>Node13&#45;&gt;Node14</title>
<path fill="none" stroke="midnightblue" d="M421.611,-11C450.844,-11 483.936,-11 513.496,-11"/>
<polygon fill="midnightblue" stroke="midnightblue" points="513.792,-14.5001 523.792,-11 513.792,-7.5001 513.792,-14.5001"/>
</g>
<!-- Node15 -->
<g id="node34" class="node"><title>Node15</title>
<a xlink:href="classcorecvs_1_1Matrix44.html#ad53e6a4c5f30ed13b1bd0946f0e66a06" target="_top" xlink:title="Geting Matrix element functions block.">
<polygon fill="none" stroke="black" points="541.5,-40.5 541.5,-61.5 654.5,-61.5 654.5,-40.5 541.5,-40.5"/>
<text text-anchor="middle" x="598" y="-48.5" font-family="FreeSans.ttf" font-size="10.00">corecvs::Matrix44::a</text>
</a>
</g>
<!-- Node13&#45;&gt;Node15 -->
<g id="edge38" class="edge"><title>Node13&#45;&gt;Node15</title>
<path fill="none" stroke="midnightblue" d="M408.524,-21.5095C446.476,-27.4166 493.667,-34.7615 531.459,-40.6434"/>
<polygon fill="midnightblue" stroke="midnightblue" points="530.932,-44.1035 541.352,-42.1832 532.009,-37.1868 530.932,-44.1035"/>
</g>
</g>
</svg>
        <g id="navigator" transform="translate(0 0)" fill="#404254">
                <rect fill="#f2f5e9" fill-opacity="0.5" stroke="#606060" stroke-width=".5" x="0" y="0" width="60" height="60"/>
                <use id="zoomplus" xlink:href="#zoomPlus" x="17" y="9" onmousedown="handleZoom(evt,'in')"/>
                <use id="zoomminus" xlink:href="#zoomMin" x="42" y="9" onmousedown="handleZoom(evt,'out')"/>
                <use id="reset" xlink:href="#resetDef" x="30" y="36" onmousedown="handleReset()"/>
                <g id="arrowUp" xlink:href="#dirArrow" transform="translate(30 24)" onmousedown="handlePan(0,-1)">
                  <use xlink:href="#rim" fill="#404040">
                        <set attributeName="fill" to="#808080" begin="arrowUp.mouseover" end="arrowUp.mouseout"/>
                  </use>
                  <path fill="none" stroke="white" stroke-width="1.5" d="M0,-3.0v7 M-2.5,-0.5L0,-3.0L2.5,-0.5"/>
                </g>
                <g id="arrowRight" xlink:href="#dirArrow" transform="rotate(90) translate(36 -43)" onmousedown="handlePan(1,0)">
                  <use xlink:href="#rim" fill="#404040">
                        <set attributeName="fill" to="#808080" begin="arrowRight.mouseover" end="arrowRight.mouseout"/>
                  </use>
                  <path fill="none" stroke="white" stroke-width="1.5" d="M0,-3.0v7 M-2.5,-0.5L0,-3.0L2.5,-0.5"/>
                </g>
                <g id="arrowDown" xlink:href="#dirArrow" transform="rotate(180) translate(-30 -48)" onmousedown="handlePan(0,1)">
                  <use xlink:href="#rim" fill="#404040">
                        <set attributeName="fill" to="#808080" begin="arrowDown.mouseover" end="arrowDown.mouseout"/>
                  </use>
                  <path fill="none" stroke="white" stroke-width="1.5" d="M0,-3.0v7 M-2.5,-0.5L0,-3.0L2.5,-0.5"/>
                </g>
                <g id="arrowLeft" xlink:href="#dirArrow" transform="rotate(270) translate(-36 17)" onmousedown="handlePan(-1,0)">
                  <use xlink:href="#rim" fill="#404040">
                        <set attributeName="fill" to="#808080" begin="arrowLeft.mouseover" end="arrowLeft.mouseout"/>
                  </use>
                  <path fill="none" stroke="white" stroke-width="1.5" d="M0,-3.0v7 M-2.5,-0.5L0,-3.0L2.5,-0.5"/>
                </g>
        </g>
</svg>
