<?xml version="1.0" encoding="UTF-8" standalone="no"?>
<!DOCTYPE svg PUBLIC "-//W3C//DTD SVG 1.1//EN"
 "http://www.w3.org/Graphics/SVG/1.1/DTD/svg11.dtd">
<!-- Generated by graphviz version 2.26.3 (20100126.1600)
 -->
<!-- Title: G Pages: 1 -->
<!--zoomable 213 -->
<svg id="main" version="1.1" xmlns="http://www.w3.org/2000/svg" xmlns:xlink="http://www.w3.org/1999/xlink" xml:space="preserve" onload="init(evt)">
        <defs>
                <circle id="rim" cx="0" cy="0" r="7"/>
                <circle id="rim2" cx="0" cy="0" r="3.5"/>
                <g id="zoomPlus">
                        <use xlink:href="#rim" fill="#404040">
                                <set attributeName="fill" to="#808080" begin="zoomplus.mouseover" end="zoomplus.mouseout"/>
                        </use>
                        <path d="M-4,0h8M0,-4v8" fill="none" stroke="white" stroke-width="1.5" pointer-events="none"/>
                </g>
                <g id="zoomMin">
                        <use xlink:href="#rim" fill="#404040">
                                <set attributeName="fill" to="#808080" begin="zoomminus.mouseover" end="zoomminus.mouseout"/>
                        </use>
                        <path d="M-4,0h8" fill="none" stroke="white" stroke-width="1.5" pointer-events="none"/>
                </g>
                <g id="dirArrow">
                        <path fill="none" stroke="white" stroke-width="1.5" d="M0,-3.0v7 M-2.5,-0.5L0,-3.0L2.5,-0.5"/>
                </g>
               <g id="resetDef">
                       <use xlink:href="#rim2" fill="#404040">
                               <set attributeName="fill" to="#808080" begin="reset.mouseover" end="reset.mouseout"/>
                       </use>
               </g>
        </defs>

<script type="text/javascript">
var viewWidth = 858;
var viewHeight = 213;
var sectionId = 'dynsection-5';
</script>
<script xlink:href="svgpan.js"/>
<svg id="graph" class="graph">
<g id="viewport">
<title>G</title>
<!-- Node1 -->
<g id="node1" class="node"><title>Node1</title>
<polygon fill="#bfbfbf" stroke="black" points="0.5,-100.5 0.5,-121.5 197.5,-121.5 197.5,-100.5 0.5,-100.5"/>
<text text-anchor="middle" x="99" y="-108.5" font-family="FreeSans.ttf" font-size="10.00">corecvs::Clustering3D::clusterStarting</text>
</g>
<!-- Node2 -->
<g id="node3" class="node"><title>Node2</title>
<a xlink:href="classcorecvs_1_1Clustering3D.html#a32e8ac9799cb34f2f4647f5331db72fa" target="_top" xlink:title="corecvs::Clustering3D::clustering">
<polygon fill="none" stroke="black" points="234.5,-100.5 234.5,-121.5 407.5,-121.5 407.5,-100.5 234.5,-100.5"/>
<text text-anchor="middle" x="321" y="-108.5" font-family="FreeSans.ttf" font-size="10.00">corecvs::Clustering3D::clustering</text>
</a>
</g>
<!-- Node1&#45;&gt;Node2 -->
<g id="edge2" class="edge"><title>Node1&#45;&gt;Node2</title>
<path fill="none" stroke="midnightblue" d="M197.665,-111C206.488,-111 215.416,-111 224.222,-111"/>
<polygon fill="midnightblue" stroke="midnightblue" points="224.491,-114.5 234.491,-111 224.491,-107.5 224.491,-114.5"/>
</g>
<!-- Node3 -->
<g id="node5" class="node"><title>Node3</title>
<a xlink:href="classcorecvs_1_1AbstractBuffer.html#a98f72526738a0c4ce8a0b72a3b5c28b9" target="_top" xlink:title="The element getter.">
<polygon fill="none" stroke="black" points="676,-159.5 676,-180.5 850,-180.5 850,-159.5 676,-159.5"/>
<text text-anchor="middle" x="763" y="-167.5" font-family="FreeSans.ttf" font-size="10.00">corecvs::AbstractBuffer::element</text>
</a>
</g>
<!-- Node2&#45;&gt;Node3 -->
<g id="edge4" class="edge"><title>Node2&#45;&gt;Node3</title>
<path fill="none" stroke="midnightblue" d="M332.38,-121.758C352.797,-140.229 397.842,-177.31 444,-191 537.501,-218.732 652.938,-198.5 716.146,-183.082"/>
<polygon fill="midnightblue" stroke="midnightblue" points="717.355,-186.388 726.204,-180.562 715.653,-179.598 717.355,-186.388"/>
</g>
<!-- Node4 -->
<g id="node7" class="node"><title>Node4</title>
<a xlink:href="classcorecvs_1_1BaseSegment.html#a2ea9b72d848bdfd9cde6821c52a4a35c" target="_top" xlink:title="This method returns a topmost segment in a father tree.">
<polygon fill="none" stroke="black" points="444.5,-160.5 444.5,-181.5 639.5,-181.5 639.5,-160.5 444.5,-160.5"/>
<text text-anchor="middle" x="542" y="-168.5" font-family="FreeSans.ttf" font-size="10.00">corecvs::BaseSegment::getTopFather</text>
</a>
</g>
<!-- Node2&#45;&gt;Node4 -->
<g id="edge6" class="edge"><title>Node2&#45;&gt;Node4</title>
<path fill="none" stroke="midnightblue" d="M350.546,-121.651C375.289,-130.317 411.648,-142.468 444,-151 453.925,-153.618 464.491,-156.093 474.873,-158.351"/>
<polygon fill="midnightblue" stroke="midnightblue" points="474.235,-161.794 484.744,-160.448 475.69,-154.947 474.235,-161.794"/>
</g>
<!-- Node5 -->
<g id="node9" class="node"><title>Node5</title>
<a xlink:href="classcorecvs_1_1Buffer3d.html#a21fdab0cd5b15f20fc9f805eca37d663" target="_top" xlink:title="corecvs::Buffer3d::isElementKnown">
<polygon fill="none" stroke="black" points="450,-120.5 450,-141.5 634,-141.5 634,-120.5 450,-120.5"/>
<text text-anchor="middle" x="542" y="-128.5" font-family="FreeSans.ttf" font-size="10.00">corecvs::Buffer3d::isElementKnown</text>
</a>
</g>
<!-- Node2&#45;&gt;Node5 -->
<g id="edge8" class="edge"><title>Node2&#45;&gt;Node5</title>
<path fill="none" stroke="midnightblue" d="M407.711,-118.847C418.158,-119.793 428.902,-120.765 439.547,-121.728"/>
<polygon fill="midnightblue" stroke="midnightblue" points="439.434,-125.232 449.709,-122.648 440.065,-118.261 439.434,-125.232"/>
</g>
<!-- Node6 -->
<g id="node12" class="node"><title>Node6</title>
<a xlink:href="classcorecvs_1_1BaseSegment.html#a398b2ed3de5e3f4d8de8443e8e55cfb8" target="_top" xlink:title="Checks if it is a child segment or not.">
<polygon fill="none" stroke="black" points="463.5,-80.5 463.5,-101.5 620.5,-101.5 620.5,-80.5 463.5,-80.5"/>
<text text-anchor="middle" x="542" y="-88.5" font-family="FreeSans.ttf" font-size="10.00">corecvs::BaseSegment::isTop</text>
</a>
</g>
<!-- Node2&#45;&gt;Node6 -->
<g id="edge12" class="edge"><title>Node2&#45;&gt;Node6</title>
<path fill="none" stroke="midnightblue" d="M407.711,-103.153C422.645,-101.801 438.188,-100.395 453.177,-99.0382"/>
<polygon fill="midnightblue" stroke="midnightblue" points="453.808,-102.496 463.452,-98.1084 453.177,-95.5241 453.808,-102.496"/>
</g>
<!-- Node7 -->
<g id="node14" class="node"><title>Node7</title>
<a xlink:href="classcorecvs_1_1AbstractBuffer.html#af38950daefa219f81a0e89ee186075f1" target="_top" xlink:title="Checks if coordinate lies within the buffer area.">
<polygon fill="none" stroke="black" points="445.5,-40.5 445.5,-61.5 638.5,-61.5 638.5,-40.5 445.5,-40.5"/>
<text text-anchor="middle" x="542" y="-48.5" font-family="FreeSans.ttf" font-size="10.00">corecvs::AbstractBuffer::isValidCoord</text>
</a>
</g>
<!-- Node2&#45;&gt;Node7 -->
<g id="edge14" class="edge"><title>Node2&#45;&gt;Node7</title>
<path fill="none" stroke="midnightblue" d="M350.546,-100.349C375.289,-91.6829 411.648,-79.5324 444,-71 453.925,-68.3825 464.491,-65.9074 474.873,-63.6486"/>
<polygon fill="midnightblue" stroke="midnightblue" points="475.69,-67.0534 484.744,-61.5517 474.235,-60.2062 475.69,-67.0534"/>
</g>
<!-- Node8 -->
<g id="node16" class="node"><title>Node8</title>
<a xlink:href="classcorecvs_1_1BaseSegment.html#aeb738c73dc2eb52538655bb1a254c0f1" target="_top" xlink:title="This method merges two trees of child segments.">
<polygon fill="none" stroke="black" points="448,-0.5 448,-21.5 636,-21.5 636,-0.5 448,-0.5"/>
<text text-anchor="middle" x="542" y="-8.5" font-family="FreeSans.ttf" font-size="10.00">corecvs::BaseSegment::markMerge</text>
</a>
</g>
<!-- Node2&#45;&gt;Node8 -->
<g id="edge16" class="edge"><title>Node2&#45;&gt;Node8</title>
<path fill="none" stroke="midnightblue" d="M333.726,-100.357C355.094,-83.0584 400.159,-48.9693 444,-31 450.261,-28.4337 456.887,-26.1852 463.621,-24.2174"/>
<polygon fill="midnightblue" stroke="midnightblue" points="464.8,-27.5244 473.536,-21.5306 462.969,-20.7681 464.8,-27.5244"/>
</g>
<!-- Node5&#45;&gt;Node3 -->
<g id="edge10" class="edge"><title>Node5&#45;&gt;Node3</title>
<path fill="none" stroke="midnightblue" d="M601.515,-141.503C629.762,-146.487 663.703,-152.477 693.162,-157.676"/>
<polygon fill="midnightblue" stroke="midnightblue" points="692.923,-161.187 703.379,-159.479 694.139,-154.294 692.923,-161.187"/>
</g>
</g>
</svg>
        <g id="navigator" transform="translate(0 0)" fill="#404254">
                <rect fill="#f2f5e9" fill-opacity="0.5" stroke="#606060" stroke-width=".5" x="0" y="0" width="60" height="60"/>
                <use id="zoomplus" xlink:href="#zoomPlus" x="17" y="9" onmousedown="handleZoom(evt,'in')"/>
                <use id="zoomminus" xlink:href="#zoomMin" x="42" y="9" onmousedown="handleZoom(evt,'out')"/>
                <use id="reset" xlink:href="#resetDef" x="30" y="36" onmousedown="handleReset()"/>
                <g id="arrowUp" xlink:href="#dirArrow" transform="translate(30 24)" onmousedown="handlePan(0,-1)">
                  <use xlink:href="#rim" fill="#404040">
                        <set attributeName="fill" to="#808080" begin="arrowUp.mouseover" end="arrowUp.mouseout"/>
                  </use>
                  <path fill="none" stroke="white" stroke-width="1.5" d="M0,-3.0v7 M-2.5,-0.5L0,-3.0L2.5,-0.5"/>
                </g>
                <g id="arrowRight" xlink:href="#dirArrow" transform="rotate(90) translate(36 -43)" onmousedown="handlePan(1,0)">
                  <use xlink:href="#rim" fill="#404040">
                        <set attributeName="fill" to="#808080" begin="arrowRight.mouseover" end="arrowRight.mouseout"/>
                  </use>
                  <path fill="none" stroke="white" stroke-width="1.5" d="M0,-3.0v7 M-2.5,-0.5L0,-3.0L2.5,-0.5"/>
                </g>
                <g id="arrowDown" xlink:href="#dirArrow" transform="rotate(180) translate(-30 -48)" onmousedown="handlePan(0,1)">
                  <use xlink:href="#rim" fill="#404040">
                        <set attributeName="fill" to="#808080" begin="arrowDown.mouseover" end="arrowDown.mouseout"/>
                  </use>
                  <path fill="none" stroke="white" stroke-width="1.5" d="M0,-3.0v7 M-2.5,-0.5L0,-3.0L2.5,-0.5"/>
                </g>
                <g id="arrowLeft" xlink:href="#dirArrow" transform="rotate(270) translate(-36 17)" onmousedown="handlePan(-1,0)">
                  <use xlink:href="#rim" fill="#404040">
                        <set attributeName="fill" to="#808080" begin="arrowLeft.mouseover" end="arrowLeft.mouseout"/>
                  </use>
                  <path fill="none" stroke="white" stroke-width="1.5" d="M0,-3.0v7 M-2.5,-0.5L0,-3.0L2.5,-0.5"/>
                </g>
        </g>
</svg>
