<?xml version="1.0" encoding="UTF-8" standalone="no"?>
<!DOCTYPE svg PUBLIC "-//W3C//DTD SVG 1.1//EN"
 "http://www.w3.org/Graphics/SVG/1.1/DTD/svg11.dtd">
<!-- Generated by graphviz version 2.26.3 (20100126.1600)
 -->
<!-- Title: G Pages: 1 -->
<!--zoomable 180 -->
<svg id="main" version="1.1" xmlns="http://www.w3.org/2000/svg" xmlns:xlink="http://www.w3.org/1999/xlink" xml:space="preserve" onload="init(evt)">
        <defs>
                <circle id="rim" cx="0" cy="0" r="7"/>
                <circle id="rim2" cx="0" cy="0" r="3.5"/>
                <g id="zoomPlus">
                        <use xlink:href="#rim" fill="#404040">
                                <set attributeName="fill" to="#808080" begin="zoomplus.mouseover" end="zoomplus.mouseout"/>
                        </use>
                        <path d="M-4,0h8M0,-4v8" fill="none" stroke="white" stroke-width="1.5" pointer-events="none"/>
                </g>
                <g id="zoomMin">
                        <use xlink:href="#rim" fill="#404040">
                                <set attributeName="fill" to="#808080" begin="zoomminus.mouseover" end="zoomminus.mouseout"/>
                        </use>
                        <path d="M-4,0h8" fill="none" stroke="white" stroke-width="1.5" pointer-events="none"/>
                </g>
                <g id="dirArrow">
                        <path fill="none" stroke="white" stroke-width="1.5" d="M0,-3.0v7 M-2.5,-0.5L0,-3.0L2.5,-0.5"/>
                </g>
               <g id="resetDef">
                       <use xlink:href="#rim2" fill="#404040">
                               <set attributeName="fill" to="#808080" begin="reset.mouseover" end="reset.mouseout"/>
                       </use>
               </g>
        </defs>

<script type="text/javascript">
var viewWidth = 916;
var viewHeight = 180;
var sectionId = 'dynsection-4';
</script>
<script xlink:href="svgpan.js"/>
<svg id="graph" class="graph">
<g id="viewport">
<title>G</title>
<!-- Node1 -->
<g id="node1" class="node"><title>Node1</title>
<polygon fill="#bfbfbf" stroke="black" points="0,-110.5 0,-131.5 278,-131.5 278,-110.5 0,-110.5"/>
<text text-anchor="middle" x="139" y="-118.5" font-family="FreeSans.ttf" font-size="10.00">GainOffsetParametersControlWidget::loadParamWidget</text>
</g>
<!-- Node2 -->
<g id="node3" class="node"><title>Node2</title>
<a xlink:href="classGainOffsetParametersControlWidget.html#adc28f217b8952daed1f162ae7d22177a" target="_top" xlink:title="GainOffsetParametersControlWidget::createParameters">
<polygon fill="none" stroke="black" points="314.5,-150.5 314.5,-171.5 595.5,-171.5 595.5,-150.5 314.5,-150.5"/>
<text text-anchor="middle" x="455" y="-158.5" font-family="FreeSans.ttf" font-size="10.00">GainOffsetParametersControlWidget::createParameters</text>
</a>
</g>
<!-- Node1&#45;&gt;Node2 -->
<g id="edge2" class="edge"><title>Node1&#45;&gt;Node2</title>
<path fill="none" stroke="midnightblue" d="M222.025,-131.51C264.946,-136.943 317.476,-143.592 361.785,-149.201"/>
<polygon fill="midnightblue" stroke="midnightblue" points="361.621,-152.708 371.981,-150.491 362.5,-145.763 361.621,-152.708"/>
</g>
<!-- Node3 -->
<g id="node5" class="node"><title>Node3</title>
<a xlink:href="classWidgetLoader.html#af26226b345e783f1a39c28dcdfed26c8" target="_top" xlink:title="WidgetLoader::loadParameters">
<polygon fill="none" stroke="black" points="373,-110.5 373,-131.5 537,-131.5 537,-110.5 373,-110.5"/>
<text text-anchor="middle" x="455" y="-118.5" font-family="FreeSans.ttf" font-size="10.00">WidgetLoader::loadParameters</text>
</a>
</g>
<!-- Node1&#45;&gt;Node3 -->
<g id="edge4" class="edge"><title>Node1&#45;&gt;Node3</title>
<path fill="none" stroke="midnightblue" d="M278.062,-121C306.567,-121 335.906,-121 362.297,-121"/>
<polygon fill="midnightblue" stroke="midnightblue" points="362.641,-124.5 372.641,-121 362.641,-117.5 362.641,-124.5"/>
</g>
<!-- Node5 -->
<g id="node9" class="node"><title>Node5</title>
<a xlink:href="classGainOffsetParametersControlWidget.html#a73c454e42e99d25c146f0f79bb0bc7b0" target="_top" xlink:title="GainOffsetParametersControlWidget::setParameters">
<polygon fill="none" stroke="black" points="322,-50.5 322,-71.5 588,-71.5 588,-50.5 322,-50.5"/>
<text text-anchor="middle" x="455" y="-58.5" font-family="FreeSans.ttf" font-size="10.00">GainOffsetParametersControlWidget::setParameters</text>
</a>
</g>
<!-- Node1&#45;&gt;Node5 -->
<g id="edge8" class="edge"><title>Node1&#45;&gt;Node5</title>
<path fill="none" stroke="midnightblue" d="M194.405,-110.48C248.84,-100.144 331.901,-84.3732 389.56,-73.4254"/>
<polygon fill="midnightblue" stroke="midnightblue" points="390.487,-76.8118 399.659,-71.5078 389.182,-69.9347 390.487,-76.8118"/>
</g>
<!-- Node4 -->
<g id="node7" class="node"><title>Node4</title>
<a xlink:href="classSettingsGetter.html#ad816b845b4cfc8323d3d559a0f6a13ae" target="_top" xlink:title="SettingsGetter::settings">
<polygon fill="none" stroke="black" points="704.5,-120.5 704.5,-141.5 835.5,-141.5 835.5,-120.5 704.5,-120.5"/>
<text text-anchor="middle" x="770" y="-128.5" font-family="FreeSans.ttf" font-size="10.00">SettingsGetter::settings</text>
</a>
</g>
<!-- Node3&#45;&gt;Node4 -->
<g id="edge6" class="edge"><title>Node3&#45;&gt;Node4</title>
<path fill="none" stroke="midnightblue" d="M537.351,-123.614C585.837,-125.154 646.733,-127.087 694.06,-128.589"/>
<polygon fill="midnightblue" stroke="midnightblue" points="694.142,-132.093 704.248,-128.913 694.365,-125.097 694.142,-132.093"/>
</g>
<!-- Node6 -->
<g id="node11" class="node"><title>Node6</title>
<a xlink:href="classGainOffsetParameters.html#ac05f030b9d1f1f808d0e6801b27f3eae" target="_top" xlink:title="GainOffsetParameters::gain">
<polygon fill="none" stroke="black" points="695.5,-80.5 695.5,-101.5 844.5,-101.5 844.5,-80.5 695.5,-80.5"/>
<text text-anchor="middle" x="770" y="-88.5" font-family="FreeSans.ttf" font-size="10.00">GainOffsetParameters::gain</text>
</a>
</g>
<!-- Node5&#45;&gt;Node6 -->
<g id="edge10" class="edge"><title>Node5&#45;&gt;Node6</title>
<path fill="none" stroke="midnightblue" d="M565.614,-71.5347C604.828,-75.2693 648.308,-79.4103 685.048,-82.9094"/>
<polygon fill="midnightblue" stroke="midnightblue" points="684.936,-86.4144 695.223,-83.8784 685.6,-79.446 684.936,-86.4144"/>
</g>
<!-- Node7 -->
<g id="node13" class="node"><title>Node7</title>
<a xlink:href="classGainOffsetParameters.html#afccfc6752733c6bc666db2fe12d10b55" target="_top" xlink:title="GainOffsetParameters::offset">
<polygon fill="none" stroke="black" points="692.5,-40.5 692.5,-61.5 847.5,-61.5 847.5,-40.5 692.5,-40.5"/>
<text text-anchor="middle" x="770" y="-48.5" font-family="FreeSans.ttf" font-size="10.00">GainOffsetParameters::offset</text>
</a>
</g>
<!-- Node5&#45;&gt;Node7 -->
<g id="edge12" class="edge"><title>Node5&#45;&gt;Node7</title>
<path fill="none" stroke="midnightblue" d="M588.132,-56.7736C619.824,-55.7675 652.866,-54.7185 681.955,-53.7951"/>
<polygon fill="midnightblue" stroke="midnightblue" points="682.187,-57.2896 692.071,-53.4739 681.965,-50.2931 682.187,-57.2896"/>
</g>
<!-- Node8 -->
<g id="node15" class="node"><title>Node8</title>
<a xlink:href="classGainOffsetParametersControlWidget.html#a2ad71b0231b520bb0236a0b45a223fc4" target="_top" xlink:title="GainOffsetParametersControlWidget::paramsChanged">
<polygon fill="none" stroke="black" points="632.5,-0.5 632.5,-21.5 907.5,-21.5 907.5,-0.5 632.5,-0.5"/>
<text text-anchor="middle" x="770" y="-8.5" font-family="FreeSans.ttf" font-size="10.00">GainOffsetParametersControlWidget::paramsChanged</text>
</a>
</g>
<!-- Node5&#45;&gt;Node8 -->
<g id="edge14" class="edge"><title>Node5&#45;&gt;Node8</title>
<path fill="none" stroke="midnightblue" d="M515.156,-50.4362C549.376,-44.5192 593.051,-37.1222 632,-31 649.093,-28.3133 667.398,-25.5678 684.906,-23.0058"/>
<polygon fill="midnightblue" stroke="midnightblue" points="685.716,-26.4249 695.108,-21.5204 684.708,-19.4979 685.716,-26.4249"/>
</g>
</g>
</svg>
        <g id="navigator" transform="translate(0 0)" fill="#404254">
                <rect fill="#f2f5e9" fill-opacity="0.5" stroke="#606060" stroke-width=".5" x="0" y="0" width="60" height="60"/>
                <use id="zoomplus" xlink:href="#zoomPlus" x="17" y="9" onmousedown="handleZoom(evt,'in')"/>
                <use id="zoomminus" xlink:href="#zoomMin" x="42" y="9" onmousedown="handleZoom(evt,'out')"/>
                <use id="reset" xlink:href="#resetDef" x="30" y="36" onmousedown="handleReset()"/>
                <g id="arrowUp" xlink:href="#dirArrow" transform="translate(30 24)" onmousedown="handlePan(0,-1)">
                  <use xlink:href="#rim" fill="#404040">
                        <set attributeName="fill" to="#808080" begin="arrowUp.mouseover" end="arrowUp.mouseout"/>
                  </use>
                  <path fill="none" stroke="white" stroke-width="1.5" d="M0,-3.0v7 M-2.5,-0.5L0,-3.0L2.5,-0.5"/>
                </g>
                <g id="arrowRight" xlink:href="#dirArrow" transform="rotate(90) translate(36 -43)" onmousedown="handlePan(1,0)">
                  <use xlink:href="#rim" fill="#404040">
                        <set attributeName="fill" to="#808080" begin="arrowRight.mouseover" end="arrowRight.mouseout"/>
                  </use>
                  <path fill="none" stroke="white" stroke-width="1.5" d="M0,-3.0v7 M-2.5,-0.5L0,-3.0L2.5,-0.5"/>
                </g>
                <g id="arrowDown" xlink:href="#dirArrow" transform="rotate(180) translate(-30 -48)" onmousedown="handlePan(0,1)">
                  <use xlink:href="#rim" fill="#404040">
                        <set attributeName="fill" to="#808080" begin="arrowDown.mouseover" end="arrowDown.mouseout"/>
                  </use>
                  <path fill="none" stroke="white" stroke-width="1.5" d="M0,-3.0v7 M-2.5,-0.5L0,-3.0L2.5,-0.5"/>
                </g>
                <g id="arrowLeft" xlink:href="#dirArrow" transform="rotate(270) translate(-36 17)" onmousedown="handlePan(-1,0)">
                  <use xlink:href="#rim" fill="#404040">
                        <set attributeName="fill" to="#808080" begin="arrowLeft.mouseover" end="arrowLeft.mouseout"/>
                  </use>
                  <path fill="none" stroke="white" stroke-width="1.5" d="M0,-3.0v7 M-2.5,-0.5L0,-3.0L2.5,-0.5"/>
                </g>
        </g>
</svg>
