<?xml version="1.0" encoding="UTF-8" standalone="no"?>
<!DOCTYPE svg PUBLIC "-//W3C//DTD SVG 1.1//EN"
 "http://www.w3.org/Graphics/SVG/1.1/DTD/svg11.dtd">
<!-- Generated by graphviz version 2.26.3 (20100126.1600)
 -->
<!-- Title: G Pages: 1 -->
<svg width="162pt" height="146pt"
 viewBox="0.00 0.00 162.00 146.00" xmlns="http://www.w3.org/2000/svg" xmlns:xlink="http://www.w3.org/1999/xlink">
<g id="graph1" class="graph" transform="scale(1 1) rotate(0) translate(4 142)">
<title>G</title>
<!-- Node1 -->
<g id="node1" class="node"><title>Node1</title>
<polygon fill="#bfbfbf" stroke="black" points="-0.5,-0.5 -0.5,-21.5 154.5,-21.5 154.5,-0.5 -0.5,-0.5"/>
<text text-anchor="middle" x="77" y="-8.5" font-family="FreeSans.ttf" font-size="10.00">CompoundBlockPresentation</text>
</g>
<!-- Node2 -->
<g id="node2" class="node"><title>Node2</title>
<a xlink:href="classFilterBlockPresentation.html" target="_top" xlink:title="FilterBlockPresentation">
<polygon fill="none" stroke="black" points="14.5,-58.5 14.5,-79.5 139.5,-79.5 139.5,-58.5 14.5,-58.5"/>
<text text-anchor="middle" x="77" y="-66.5" font-family="FreeSans.ttf" font-size="10.00">FilterBlockPresentation</text>
</a>
</g>
<!-- Node2&#45;&gt;Node1 -->
<g id="edge2" class="edge"><title>Node2&#45;&gt;Node1</title>
<path fill="none" stroke="midnightblue" d="M77,-48.1906C77,-39.1684 77,-28.9941 77,-21.5707"/>
<polygon fill="midnightblue" stroke="midnightblue" points="73.5001,-48.3619 77,-58.3619 80.5001,-48.3619 73.5001,-48.3619"/>
</g>
<!-- Node3 -->
<g id="node4" class="node"><title>Node3</title>
<a xlink:href="classDiagramItem.html" target="_top" xlink:title="[0]">
<polygon fill="none" stroke="black" points="37,-116.5 37,-137.5 117,-137.5 117,-116.5 37,-116.5"/>
<text text-anchor="middle" x="77" y="-124.5" font-family="FreeSans.ttf" font-size="10.00">DiagramItem</text>
</a>
</g>
<!-- Node3&#45;&gt;Node2 -->
<g id="edge4" class="edge"><title>Node3&#45;&gt;Node2</title>
<path fill="none" stroke="midnightblue" d="M77,-106.191C77,-97.1684 77,-86.9941 77,-79.5707"/>
<polygon fill="midnightblue" stroke="midnightblue" points="73.5001,-106.362 77,-116.362 80.5001,-106.362 73.5001,-106.362"/>
</g>
</g>
</svg>
