<?xml version="1.0" encoding="UTF-8" standalone="no"?>
<!DOCTYPE svg PUBLIC "-//W3C//DTD SVG 1.1//EN"
 "http://www.w3.org/Graphics/SVG/1.1/DTD/svg11.dtd">
<!-- Generated by graphviz version 2.26.3 (20100126.1600)
 -->
<!-- Title: G Pages: 1 -->
<!--zoomable 306 -->
<svg id="main" version="1.1" xmlns="http://www.w3.org/2000/svg" xmlns:xlink="http://www.w3.org/1999/xlink" xml:space="preserve" onload="init(evt)">
        <defs>
                <circle id="rim" cx="0" cy="0" r="7"/>
                <circle id="rim2" cx="0" cy="0" r="3.5"/>
                <g id="zoomPlus">
                        <use xlink:href="#rim" fill="#404040">
                                <set attributeName="fill" to="#808080" begin="zoomplus.mouseover" end="zoomplus.mouseout"/>
                        </use>
                        <path d="M-4,0h8M0,-4v8" fill="none" stroke="white" stroke-width="1.5" pointer-events="none"/>
                </g>
                <g id="zoomMin">
                        <use xlink:href="#rim" fill="#404040">
                                <set attributeName="fill" to="#808080" begin="zoomminus.mouseover" end="zoomminus.mouseout"/>
                        </use>
                        <path d="M-4,0h8" fill="none" stroke="white" stroke-width="1.5" pointer-events="none"/>
                </g>
                <g id="dirArrow">
                        <path fill="none" stroke="white" stroke-width="1.5" d="M0,-3.0v7 M-2.5,-0.5L0,-3.0L2.5,-0.5"/>
                </g>
               <g id="resetDef">
                       <use xlink:href="#rim2" fill="#404040">
                               <set attributeName="fill" to="#808080" begin="reset.mouseover" end="reset.mouseout"/>
                       </use>
               </g>
        </defs>

<script type="text/javascript">
var viewWidth = 616;
var viewHeight = 306;
var sectionId = 'dynsection-0';
</script>
<script xlink:href="svgpan.js"/>
<svg id="graph" class="graph">
<g id="viewport">
<title>G</title>
<!-- Node1 -->
<g id="node1" class="node"><title>Node1</title>
<polygon fill="#bfbfbf" stroke="black" points="0,-0.5 0,-21.5 608,-21.5 608,-0.5 0,-0.5"/>
<text text-anchor="middle" x="304" y="-8.5" font-family="FreeSans.ttf" font-size="10.00">corecvs::AbstractBuffer&lt; ElementType, IndexType &gt;::ParallelDoConvolve1&lt; ReturnType, ConvElementType, ConvIndexType &gt;</text>
</g>
<!-- Node2 -->
<g id="node2" class="node"><title>Node2</title>
<a xlink:href="classcorecvs_1_1AbstractKernel.html" target="_top" xlink:title="corecvs::AbstractKernel\&lt; ConvElementType, ConvIndexType \&gt;">
<polygon fill="none" stroke="black" points="147.5,-72.5 147.5,-93.5 460.5,-93.5 460.5,-72.5 147.5,-72.5"/>
<text text-anchor="middle" x="304" y="-80.5" font-family="FreeSans.ttf" font-size="10.00">corecvs::AbstractKernel&lt; ConvElementType, ConvIndexType &gt;</text>
</a>
</g>
<!-- Node2&#45;&gt;Node1 -->
<g id="edge2" class="edge"><title>Node2&#45;&gt;Node1</title>
<path fill="none" stroke="#9a32cd" stroke-dasharray="5,2" d="M304,-62.2348C304,-48.969 304,-32.3188 304,-21.6674"/>
<polygon fill="#9a32cd" stroke="#9a32cd" points="300.5,-62.3761 304,-72.3762 307.5,-62.3762 300.5,-62.3761"/>
<text text-anchor="middle" x="320.5" y="-44.5" font-family="FreeSans.ttf" font-size="10.00"> kernel</text>
</g>
<!-- Node3 -->
<g id="node4" class="node"><title>Node3</title>
<a xlink:href="classcorecvs_1_1AbstractBuffer.html" target="_top" xlink:title="corecvs::AbstractBuffer\&lt; ConvElementType, ConvIndexType \&gt;">
<polygon fill="none" stroke="black" points="148,-132.5 148,-153.5 460,-153.5 460,-132.5 148,-132.5"/>
<text text-anchor="middle" x="304" y="-140.5" font-family="FreeSans.ttf" font-size="10.00">corecvs::AbstractBuffer&lt; ConvElementType, ConvIndexType &gt;</text>
</a>
</g>
<!-- Node3&#45;&gt;Node2 -->
<g id="edge4" class="edge"><title>Node3&#45;&gt;Node2</title>
<path fill="none" stroke="midnightblue" d="M304,-122.231C304,-112.592 304,-101.544 304,-93.6339"/>
<polygon fill="midnightblue" stroke="midnightblue" points="300.5,-122.273 304,-132.273 307.5,-122.273 300.5,-122.273"/>
</g>
<!-- Node4 -->
<g id="node6" class="node"><title>Node4</title>
<a xlink:href="classcorecvs_1_1AbstractBufferParams.html" target="_top" xlink:title="This is a basis part of the AbstractBuffer template &#45; serializable buffer params.">
<polygon fill="none" stroke="black" points="169,-204.5 169,-225.5 333,-225.5 333,-204.5 169,-204.5"/>
<text text-anchor="middle" x="251" y="-212.5" font-family="FreeSans.ttf" font-size="10.00">corecvs::AbstractBufferParams</text>
</a>
</g>
<!-- Node4&#45;&gt;Node3 -->
<g id="edge6" class="edge"><title>Node4&#45;&gt;Node3</title>
<path fill="none" stroke="midnightblue" d="M264.84,-196.198C274.814,-182.649 287.915,-164.851 296.148,-153.667"/>
<polygon fill="midnightblue" stroke="midnightblue" points="261.93,-194.248 258.82,-204.376 267.567,-198.398 261.93,-194.248"/>
</g>
<!-- Node5 -->
<g id="node8" class="node"><title>Node5</title>
<a xlink:href="classcorecvs_1_1ObjectRef.html" target="_top" xlink:title="corecvs::ObjectRef\&lt; uint8_t \&gt;">
<polygon fill="none" stroke="black" points="351,-204.5 351,-225.5 511,-225.5 511,-204.5 351,-204.5"/>
<text text-anchor="middle" x="431" y="-212.5" font-family="FreeSans.ttf" font-size="10.00">corecvs::ObjectRef&lt; uint8_t &gt;</text>
</a>
</g>
<!-- Node5&#45;&gt;Node3 -->
<g id="edge8" class="edge"><title>Node5&#45;&gt;Node3</title>
<path fill="none" stroke="#9a32cd" stroke-dasharray="5,2" d="M403.482,-199.399C379.096,-185.574 344.14,-165.757 322.816,-153.667"/>
<polygon fill="#9a32cd" stroke="#9a32cd" points="401.835,-202.489 412.261,-204.376 405.288,-196.4 401.835,-202.489"/>
<text text-anchor="middle" x="413" y="-176.5" font-family="FreeSans.ttf" font-size="10.00"> memoryBlock</text>
</g>
<!-- Node6 -->
<g id="node10" class="node"><title>Node6</title>
<a xlink:href="classcorecvs_1_1ObjectBlock.html" target="_top" xlink:title="corecvs::ObjectBlock\&lt; uint8_t \&gt;">
<polygon fill="none" stroke="black" points="345.5,-276.5 345.5,-297.5 516.5,-297.5 516.5,-276.5 345.5,-276.5"/>
<text text-anchor="middle" x="431" y="-284.5" font-family="FreeSans.ttf" font-size="10.00">corecvs::ObjectBlock&lt; uint8_t &gt;</text>
</a>
</g>
<!-- Node6&#45;&gt;Node5 -->
<g id="edge10" class="edge"><title>Node6&#45;&gt;Node5</title>
<path fill="none" stroke="#9a32cd" stroke-dasharray="5,2" d="M431,-266.235C431,-252.969 431,-236.319 431,-225.667"/>
<polygon fill="#9a32cd" stroke="#9a32cd" points="427.5,-266.376 431,-276.376 434.5,-266.376 427.5,-266.376"/>
<text text-anchor="middle" x="445" y="-248.5" font-family="FreeSans.ttf" font-size="10.00"> block</text>
</g>
</g>
</svg>
        <g id="navigator" transform="translate(0 0)" fill="#404254">
                <rect fill="#f2f5e9" fill-opacity="0.5" stroke="#606060" stroke-width=".5" x="0" y="0" width="60" height="60"/>
                <use id="zoomplus" xlink:href="#zoomPlus" x="17" y="9" onmousedown="handleZoom(evt,'in')"/>
                <use id="zoomminus" xlink:href="#zoomMin" x="42" y="9" onmousedown="handleZoom(evt,'out')"/>
                <use id="reset" xlink:href="#resetDef" x="30" y="36" onmousedown="handleReset()"/>
                <g id="arrowUp" xlink:href="#dirArrow" transform="translate(30 24)" onmousedown="handlePan(0,-1)">
                  <use xlink:href="#rim" fill="#404040">
                        <set attributeName="fill" to="#808080" begin="arrowUp.mouseover" end="arrowUp.mouseout"/>
                  </use>
                  <path fill="none" stroke="white" stroke-width="1.5" d="M0,-3.0v7 M-2.5,-0.5L0,-3.0L2.5,-0.5"/>
                </g>
                <g id="arrowRight" xlink:href="#dirArrow" transform="rotate(90) translate(36 -43)" onmousedown="handlePan(1,0)">
                  <use xlink:href="#rim" fill="#404040">
                        <set attributeName="fill" to="#808080" begin="arrowRight.mouseover" end="arrowRight.mouseout"/>
                  </use>
                  <path fill="none" stroke="white" stroke-width="1.5" d="M0,-3.0v7 M-2.5,-0.5L0,-3.0L2.5,-0.5"/>
                </g>
                <g id="arrowDown" xlink:href="#dirArrow" transform="rotate(180) translate(-30 -48)" onmousedown="handlePan(0,1)">
                  <use xlink:href="#rim" fill="#404040">
                        <set attributeName="fill" to="#808080" begin="arrowDown.mouseover" end="arrowDown.mouseout"/>
                  </use>
                  <path fill="none" stroke="white" stroke-width="1.5" d="M0,-3.0v7 M-2.5,-0.5L0,-3.0L2.5,-0.5"/>
                </g>
                <g id="arrowLeft" xlink:href="#dirArrow" transform="rotate(270) translate(-36 17)" onmousedown="handlePan(-1,0)">
                  <use xlink:href="#rim" fill="#404040">
                        <set attributeName="fill" to="#808080" begin="arrowLeft.mouseover" end="arrowLeft.mouseout"/>
                  </use>
                  <path fill="none" stroke="white" stroke-width="1.5" d="M0,-3.0v7 M-2.5,-0.5L0,-3.0L2.5,-0.5"/>
                </g>
        </g>
</svg>
