<?xml version="1.0" encoding="UTF-8" standalone="no"?>
<!DOCTYPE svg PUBLIC "-//W3C//DTD SVG 1.1//EN"
 "http://www.w3.org/Graphics/SVG/1.1/DTD/svg11.dtd">
<!-- Generated by graphviz version 2.26.3 (20100126.1600)
 -->
<!-- Title: G Pages: 1 -->
<svg width="382pt" height="222pt"
 viewBox="0.00 0.00 382.00 222.00" xmlns="http://www.w3.org/2000/svg" xmlns:xlink="http://www.w3.org/1999/xlink">
<g id="graph1" class="graph" transform="scale(1 1) rotate(0) translate(4 218)">
<title>G</title>
<!-- Node1 -->
<g id="node1" class="node"><title>Node1</title>
<polygon fill="#bfbfbf" stroke="black" points="20.5,-0.5 20.5,-21.5 203.5,-21.5 203.5,-0.5 20.5,-0.5"/>
<text text-anchor="middle" x="112" y="-8.5" font-family="FreeSans.ttf" font-size="10.00">corecvs::ShiftRotateTransformation</text>
</g>
<!-- Node2 -->
<g id="node2" class="node"><title>Node2</title>
<a xlink:href="classcorecvs_1_1EulerAngles.html" target="_top" xlink:title="Inside the project angles are in radians.">
<polygon fill="none" stroke="black" points="0,-72.5 0,-93.5 116,-93.5 116,-72.5 0,-72.5"/>
<text text-anchor="middle" x="58" y="-80.5" font-family="FreeSans.ttf" font-size="10.00">corecvs::EulerAngles</text>
</a>
</g>
<!-- Node2&#45;&gt;Node1 -->
<g id="edge2" class="edge"><title>Node2&#45;&gt;Node1</title>
<path fill="none" stroke="#9a32cd" stroke-dasharray="5,2" d="M72.1014,-64.1981C82.2633,-50.649 95.6115,-32.8514 103.999,-21.6674"/>
<polygon fill="#9a32cd" stroke="#9a32cd" points="69.1679,-62.2761 65.9679,-72.3762 74.7679,-66.4761 69.1679,-62.2761"/>
<text text-anchor="middle" x="109.5" y="-44.5" font-family="FreeSans.ttf" font-size="10.00"> rotation</text>
</g>
<!-- Node3 -->
<g id="node4" class="node"><title>Node3</title>
<a xlink:href="classcorecvs_1_1Vector3d.html" target="_top" xlink:title="corecvs::Vector3d\&lt; double \&gt;">
<polygon fill="none" stroke="black" points="133.5,-72.5 133.5,-93.5 290.5,-93.5 290.5,-72.5 133.5,-72.5"/>
<text text-anchor="middle" x="212" y="-80.5" font-family="FreeSans.ttf" font-size="10.00">corecvs::Vector3d&lt; double &gt;</text>
</a>
</g>
<!-- Node3&#45;&gt;Node1 -->
<g id="edge4" class="edge"><title>Node3&#45;&gt;Node1</title>
<path fill="none" stroke="#9a32cd" stroke-dasharray="5,2" d="M189.052,-66.4772C169.923,-52.7046 143.237,-33.4905 126.816,-21.6674"/>
<polygon fill="#9a32cd" stroke="#9a32cd" points="187.084,-69.3734 197.245,-72.3762 191.174,-63.6927 187.084,-69.3734"/>
<text text-anchor="middle" x="197.5" y="-44.5" font-family="FreeSans.ttf" font-size="10.00"> translation</text>
</g>
<!-- Node4 -->
<g id="node6" class="node"><title>Node4</title>
<a xlink:href="classcorecvs_1_1FixedVectorBase.html" target="_top" xlink:title="corecvs::FixedVectorBase\&lt; Vector3d\&lt; double \&gt;, double, 3 \&gt;">
<polygon fill="none" stroke="black" points="58,-132.5 58,-153.5 366,-153.5 366,-132.5 58,-132.5"/>
<text text-anchor="middle" x="212" y="-140.5" font-family="FreeSans.ttf" font-size="10.00">corecvs::FixedVectorBase&lt; Vector3d&lt; double &gt;, double, 3 &gt;</text>
</a>
</g>
<!-- Node4&#45;&gt;Node3 -->
<g id="edge6" class="edge"><title>Node4&#45;&gt;Node3</title>
<path fill="none" stroke="midnightblue" d="M212,-122.231C212,-112.592 212,-101.544 212,-93.6339"/>
<polygon fill="midnightblue" stroke="midnightblue" points="208.5,-122.273 212,-132.273 215.5,-122.273 208.5,-122.273"/>
</g>
<!-- Node5 -->
<g id="node8" class="node"><title>Node5</title>
<a xlink:href="classcorecvs_1_1VectorOperationsBase.html" target="_top" xlink:title="corecvs::VectorOperationsBase\&lt; Vector3d\&lt; double \&gt;, double \&gt;">
<polygon fill="none" stroke="black" points="49.5,-192.5 49.5,-213.5 374.5,-213.5 374.5,-192.5 49.5,-192.5"/>
<text text-anchor="middle" x="212" y="-200.5" font-family="FreeSans.ttf" font-size="10.00">corecvs::VectorOperationsBase&lt; Vector3d&lt; double &gt;, double &gt;</text>
</a>
</g>
<!-- Node5&#45;&gt;Node4 -->
<g id="edge8" class="edge"><title>Node5&#45;&gt;Node4</title>
<path fill="none" stroke="midnightblue" d="M212,-182.231C212,-172.592 212,-161.544 212,-153.634"/>
<polygon fill="midnightblue" stroke="midnightblue" points="208.5,-182.273 212,-192.273 215.5,-182.273 208.5,-182.273"/>
</g>
</g>
</svg>
