<?xml version="1.0" encoding="UTF-8" standalone="no"?>
<!DOCTYPE svg PUBLIC "-//W3C//DTD SVG 1.1//EN"
 "http://www.w3.org/Graphics/SVG/1.1/DTD/svg11.dtd">
<!-- Generated by graphviz version 2.26.3 (20100126.1600)
 -->
<!-- Title: G Pages: 1 -->
<!--zoomable 540 -->
<svg id="main" version="1.1" xmlns="http://www.w3.org/2000/svg" xmlns:xlink="http://www.w3.org/1999/xlink" xml:space="preserve" onload="init(evt)">
        <defs>
                <circle id="rim" cx="0" cy="0" r="7"/>
                <circle id="rim2" cx="0" cy="0" r="3.5"/>
                <g id="zoomPlus">
                        <use xlink:href="#rim" fill="#404040">
                                <set attributeName="fill" to="#808080" begin="zoomplus.mouseover" end="zoomplus.mouseout"/>
                        </use>
                        <path d="M-4,0h8M0,-4v8" fill="none" stroke="white" stroke-width="1.5" pointer-events="none"/>
                </g>
                <g id="zoomMin">
                        <use xlink:href="#rim" fill="#404040">
                                <set attributeName="fill" to="#808080" begin="zoomminus.mouseover" end="zoomminus.mouseout"/>
                        </use>
                        <path d="M-4,0h8" fill="none" stroke="white" stroke-width="1.5" pointer-events="none"/>
                </g>
                <g id="dirArrow">
                        <path fill="none" stroke="white" stroke-width="1.5" d="M0,-3.0v7 M-2.5,-0.5L0,-3.0L2.5,-0.5"/>
                </g>
               <g id="resetDef">
                       <use xlink:href="#rim2" fill="#404040">
                               <set attributeName="fill" to="#808080" begin="reset.mouseover" end="reset.mouseout"/>
                       </use>
               </g>
        </defs>

<script type="text/javascript">
var viewWidth = 2320;
var viewHeight = 540;
var sectionId = 'dynsection-1';
</script>
<script xlink:href="svgpan.js"/>
<svg id="graph" class="graph">
<g id="viewport">
<title>G</title>
<!-- Node1 -->
<g id="node1" class="node"><title>Node1</title>
<polygon fill="#bfbfbf" stroke="black" points="1691,-337.5 1691,-358.5 1823,-358.5 1823,-337.5 1691,-337.5"/>
<text text-anchor="middle" x="1757" y="-345.5" font-family="FreeSans.ttf" font-size="10.00">corecvs::MaskFilterBlock</text>
</g>
<!-- Node2 -->
<g id="node2" class="node"><title>Node2</title>
<a xlink:href="classcorecvs_1_1FilterBlock.html" target="_top" xlink:title="corecvs::FilterBlock">
<polygon fill="none" stroke="black" points="1348.5,-403.5 1348.5,-424.5 1455.5,-424.5 1455.5,-403.5 1348.5,-403.5"/>
<text text-anchor="middle" x="1402" y="-411.5" font-family="FreeSans.ttf" font-size="10.00">corecvs::FilterBlock</text>
</a>
</g>
<!-- Node2&#45;&gt;Node1 -->
<g id="edge2" class="edge"><title>Node2&#45;&gt;Node1</title>
<path fill="none" stroke="midnightblue" d="M1449.83,-400.801C1475.78,-393.955 1508.49,-385.83 1538,-380 1588.89,-369.947 1647.01,-361.598 1690.58,-355.951"/>
<polygon fill="midnightblue" stroke="midnightblue" points="1448.64,-397.496 1439.88,-403.451 1450.44,-404.26 1448.64,-397.496"/>
</g>
<!-- Node15 -->
<g id="node31" class="node"><title>Node15</title>
<a xlink:href="classcorecvs_1_1Pin.html" target="_top" xlink:title="corecvs::Pin">
<polygon fill="none" stroke="black" points="1720,-479.5 1720,-500.5 1794,-500.5 1794,-479.5 1720,-479.5"/>
<text text-anchor="middle" x="1757" y="-487.5" font-family="FreeSans.ttf" font-size="10.00">corecvs::Pin</text>
</a>
</g>
<!-- Node2&#45;&gt;Node15 -->
<g id="edge38" class="edge"><title>Node2&#45;&gt;Node15</title>
<path fill="none" stroke="#9a32cd" stroke-dasharray="5,2" d="M1450.18,-427.236C1476.11,-434.146 1508.69,-442.492 1538,-449 1601.44,-463.085 1675.93,-476.341 1719.65,-483.79"/>
<polygon fill="#9a32cd" stroke="#9a32cd" points="1450.8,-423.778 1440.23,-424.568 1448.98,-430.539 1450.8,-423.778"/>
<text text-anchor="middle" x="1592" y="-474" font-family="FreeSans.ttf" font-size="10.00"> parent</text>
</g>
<!-- Node3 -->
<g id="node4" class="node"><title>Node3</title>
<a xlink:href="classcorecvs_1_1FilterGraph.html" target="_top" xlink:title="corecvs::FilterGraph">
<polygon fill="none" stroke="black" points="2200.5,-318.5 2200.5,-339.5 2311.5,-339.5 2311.5,-318.5 2200.5,-318.5"/>
<text text-anchor="middle" x="2256" y="-326.5" font-family="FreeSans.ttf" font-size="10.00">corecvs::FilterGraph</text>
</a>
</g>
<!-- Node3&#45;&gt;Node2 -->
<g id="edge4" class="edge"><title>Node3&#45;&gt;Node2</title>
<path fill="none" stroke="#9a32cd" stroke-dasharray="5,2" d="M2204.83,-341.724C2197.21,-343.337 2189.42,-344.829 2182,-346 1911.11,-388.713 1582.75,-406.336 1455.74,-411.887"/>
<polygon fill="#9a32cd" stroke="#9a32cd" points="2205.7,-345.118 2214.71,-339.552 2204.19,-338.281 2205.7,-345.118"/>
<text text-anchor="middle" x="1909" y="-387" font-family="FreeSans.ttf" font-size="10.00"> parent</text>
</g>
<!-- Node3&#45;&gt;Node3 -->
<g id="edge30" class="edge"><title>Node3&#45;&gt;Node3</title>
<path fill="none" stroke="#9a32cd" stroke-dasharray="5,2" d="M2237.94,-349.427C2239.33,-354.349 2245.35,-358 2256,-358 2273.04,-358 2278.23,-348.653 2271.57,-339.708"/>
<polygon fill="#9a32cd" stroke="#9a32cd" points="2241.34,-350.264 2240.43,-339.708 2234.56,-348.527 2241.34,-350.264"/>
<text text-anchor="middle" x="2256" y="-362" font-family="FreeSans.ttf" font-size="10.00"> parent</text>
</g>
<!-- Node4 -->
<g id="node6" class="node"><title>Node4</title>
<a xlink:href="classcorecvs_1_1FiltersCollection.html" target="_top" xlink:title="corecvs::FiltersCollection">
<polygon fill="none" stroke="black" points="1974,-318.5 1974,-339.5 2108,-339.5 2108,-318.5 1974,-318.5"/>
<text text-anchor="middle" x="2041" y="-326.5" font-family="FreeSans.ttf" font-size="10.00">corecvs::FiltersCollection</text>
</a>
</g>
<!-- Node4&#45;&gt;Node3 -->
<g id="edge6" class="edge"><title>Node4&#45;&gt;Node3</title>
<path fill="none" stroke="#9a32cd" stroke-dasharray="5,2" d="M2118.36,-329C2145.41,-329 2175.24,-329 2200.19,-329"/>
<polygon fill="#9a32cd" stroke="#9a32cd" points="2118.14,-325.5 2108.14,-329 2118.14,-332.5 2118.14,-325.5"/>
<text text-anchor="middle" x="2157" y="-333" font-family="FreeSans.ttf" font-size="10.00"> collection</text>
</g>
<!-- Node5 -->
<g id="node8" class="node"><title>Node5</title>
<polygon fill="none" stroke="#bfbfbf" points="1664,-292.5 1664,-313.5 1850,-313.5 1850,-292.5 1664,-292.5"/>
<text text-anchor="middle" x="1757" y="-300.5" font-family="FreeSans.ttf" font-size="10.00">std::vector&lt; CompoundFilterType &gt;</text>
</g>
<!-- Node5&#45;&gt;Node4 -->
<g id="edge8" class="edge"><title>Node5&#45;&gt;Node4</title>
<path fill="none" stroke="#9a32cd" stroke-dasharray="5,2" d="M1860.4,-312.467C1898.16,-315.923 1939.85,-319.739 1973.65,-322.834"/>
<polygon fill="#9a32cd" stroke="#9a32cd" points="1860.66,-308.976 1850.39,-311.549 1860.02,-315.947 1860.66,-308.976"/>
<text text-anchor="middle" x="1909" y="-324" font-family="FreeSans.ttf" font-size="10.00"> compoundFilters</text>
</g>
<!-- Node6 -->
<g id="node10" class="node"><title>Node6</title>
<a xlink:href="classcorecvs_1_1FiltersCollection_1_1CompoundFilterType.html" target="_top" xlink:title="corecvs::FiltersCollection::CompoundFilterType">
<polygon fill="none" stroke="black" points="1284,-291.5 1284,-312.5 1520,-312.5 1520,-291.5 1284,-291.5"/>
<text text-anchor="middle" x="1402" y="-299.5" font-family="FreeSans.ttf" font-size="10.00">corecvs::FiltersCollection::CompoundFilterType</text>
</a>
</g>
<!-- Node6&#45;&gt;Node5 -->
<g id="edge10" class="edge"><title>Node6&#45;&gt;Node5</title>
<path fill="none" stroke="#9a32cd" stroke-dasharray="5,2" d="M1530.45,-302.362C1574.62,-302.486 1623.19,-302.623 1663.99,-302.738"/>
<polygon fill="#9a32cd" stroke="#9a32cd" points="1530.22,-298.861 1520.21,-302.333 1530.2,-305.861 1530.22,-298.861"/>
<text text-anchor="middle" x="1592" y="-306" font-family="FreeSans.ttf" font-size="10.00"> elements</text>
</g>
<!-- Node7 -->
<g id="node12" class="node"><title>Node7</title>
<polygon fill="none" stroke="#bfbfbf" points="1013.5,-311.5 1013.5,-332.5 1100.5,-332.5 1100.5,-311.5 1013.5,-311.5"/>
<text text-anchor="middle" x="1057" y="-319.5" font-family="FreeSans.ttf" font-size="10.00">std::set&lt; int &gt;</text>
</g>
<!-- Node7&#45;&gt;Node6 -->
<g id="edge12" class="edge"><title>Node7&#45;&gt;Node6</title>
<path fill="none" stroke="#9a32cd" stroke-dasharray="5,2" d="M1110.78,-318.883C1156.94,-316.207 1225.12,-312.254 1283.92,-308.845"/>
<polygon fill="#9a32cd" stroke="#9a32cd" points="1110.48,-315.394 1100.69,-319.467 1110.88,-322.382 1110.48,-315.394"/>
<text text-anchor="middle" x="1232" y="-330" font-family="FreeSans.ttf" font-size="10.00"> dependOnMe</text>
<text text-anchor="middle" x="1232" y="-317" font-family="FreeSans.ttf" font-size="10.00">contain</text>
</g>
<!-- Node8 -->
<g id="node14" class="node"><title>Node8</title>
<a xlink:title="STL class.">
<polygon fill="none" stroke="#bfbfbf" points="1024.5,-229.5 1024.5,-250.5 1089.5,-250.5 1089.5,-229.5 1024.5,-229.5"/>
<text text-anchor="middle" x="1057" y="-237.5" font-family="FreeSans.ttf" font-size="10.00">std::string</text>
</a>
</g>
<!-- Node8&#45;&gt;Node6 -->
<g id="edge14" class="edge"><title>Node8&#45;&gt;Node6</title>
<path fill="none" stroke="#9a32cd" stroke-dasharray="5,2" d="M1099.89,-247.707C1161.29,-258.742 1274.44,-279.077 1343.49,-291.485"/>
<polygon fill="#9a32cd" stroke="#9a32cd" points="1100.23,-244.213 1089.77,-245.889 1098.99,-251.102 1100.23,-244.213"/>
<text text-anchor="middle" x="1232" y="-293" font-family="FreeSans.ttf" font-size="10.00"> name</text>
<text text-anchor="middle" x="1232" y="-280" font-family="FreeSans.ttf" font-size="10.00">filename</text>
</g>
<!-- Node10 -->
<g id="node18" class="node"><title>Node10</title>
<a xlink:href="classcorecvs_1_1Statistics.html" target="_top" xlink:title="corecvs::Statistics">
<polygon fill="none" stroke="black" points="1705,-206.5 1705,-227.5 1809,-227.5 1809,-206.5 1705,-206.5"/>
<text text-anchor="middle" x="1757" y="-214.5" font-family="FreeSans.ttf" font-size="10.00">corecvs::Statistics</text>
</a>
</g>
<!-- Node8&#45;&gt;Node10 -->
<g id="edge28" class="edge"><title>Node8&#45;&gt;Node10</title>
<path fill="none" stroke="#9a32cd" stroke-dasharray="5,2" d="M1099.6,-239.821C1196.62,-239.232 1441.5,-236.712 1646,-226 1665.21,-224.994 1686.26,-223.41 1704.81,-221.85"/>
<polygon fill="#9a32cd" stroke="#9a32cd" points="1099.57,-236.321 1089.59,-239.878 1099.61,-243.321 1099.57,-236.321"/>
<text text-anchor="middle" x="1402" y="-241" font-family="FreeSans.ttf" font-size="10.00"> prefix</text>
</g>
<!-- Node12 -->
<g id="node22" class="node"><title>Node12</title>
<polygon fill="none" stroke="#bfbfbf" points="1320,-142.5 1320,-163.5 1484,-163.5 1484,-142.5 1320,-142.5"/>
<text text-anchor="middle" x="1402" y="-150.5" font-family="FreeSans.ttf" font-size="10.00">std::map&lt; string, SingleStat &gt;</text>
</g>
<!-- Node8&#45;&gt;Node12 -->
<g id="edge26" class="edge"><title>Node8&#45;&gt;Node12</title>
<path fill="none" stroke="#9a32cd" stroke-dasharray="5,2" d="M1097.98,-226.297C1143.15,-211.576 1218.13,-188.247 1284,-173 1299.28,-169.463 1315.82,-166.272 1331.53,-163.532"/>
<polygon fill="#9a32cd" stroke="#9a32cd" points="1096.68,-223.042 1088.27,-229.482 1098.86,-229.693 1096.68,-223.042"/>
<text text-anchor="middle" x="1232" y="-198" font-family="FreeSans.ttf" font-size="10.00"> keys</text>
</g>
<!-- Node9 -->
<g id="node16" class="node"><title>Node9</title>
<a xlink:title="STL class.">
<polygon fill="none" stroke="#bfbfbf" points="694,-229.5 694,-250.5 832,-250.5 832,-229.5 694,-229.5"/>
<text text-anchor="middle" x="763" y="-237.5" font-family="FreeSans.ttf" font-size="10.00">std::basic_string&lt; char &gt;</text>
</a>
</g>
<!-- Node9&#45;&gt;Node8 -->
<g id="edge16" class="edge"><title>Node9&#45;&gt;Node8</title>
<path fill="none" stroke="midnightblue" d="M842.456,-240C902.123,-240 980.762,-240 1024.35,-240"/>
<polygon fill="midnightblue" stroke="midnightblue" points="842.302,-236.5 832.302,-240 842.302,-243.5 842.302,-236.5"/>
</g>
<!-- Node10&#45;&gt;Node3 -->
<g id="edge18" class="edge"><title>Node10&#45;&gt;Node3</title>
<path fill="none" stroke="#9a32cd" stroke-dasharray="5,2" d="M1815.3,-229.703C1886.01,-245.157 2008.83,-272.143 2114,-296 2146.58,-303.391 2183.32,-311.933 2211.26,-318.475"/>
<polygon fill="#9a32cd" stroke="#9a32cd" points="1815.77,-226.223 1805.25,-227.508 1814.27,-233.062 1815.77,-226.223"/>
<text text-anchor="middle" x="2041" y="-300" font-family="FreeSans.ttf" font-size="10.00"> stats</text>
</g>
<!-- Node11 -->
<g id="node20" class="node"><title>Node11</title>
<a xlink:href="classcorecvs_1_1PreciseTimer.html" target="_top" xlink:title="corecvs::PreciseTimer">
<polygon fill="none" stroke="black" points="1341.5,-182.5 1341.5,-203.5 1462.5,-203.5 1462.5,-182.5 1341.5,-182.5"/>
<text text-anchor="middle" x="1402" y="-190.5" font-family="FreeSans.ttf" font-size="10.00">corecvs::PreciseTimer</text>
</a>
</g>
<!-- Node11&#45;&gt;Node10 -->
<g id="edge20" class="edge"><title>Node11&#45;&gt;Node10</title>
<path fill="none" stroke="#9a32cd" stroke-dasharray="5,2" d="M1472.89,-197.792C1541.33,-202.419 1643.36,-209.318 1704.72,-213.466"/>
<polygon fill="#9a32cd" stroke="#9a32cd" points="1472.84,-194.281 1462.62,-197.098 1472.36,-201.265 1472.84,-194.281"/>
<text text-anchor="middle" x="1592" y="-213" font-family="FreeSans.ttf" font-size="10.00"> helperTimer</text>
</g>
<!-- Node12&#45;&gt;Node10 -->
<g id="edge22" class="edge"><title>Node12&#45;&gt;Node10</title>
<path fill="none" stroke="#9a32cd" stroke-dasharray="5,2" d="M1494.35,-161.8C1540.23,-167.009 1596.33,-174.644 1646,-185 1673.09,-190.649 1703.23,-199.506 1725.26,-206.472"/>
<polygon fill="#9a32cd" stroke="#9a32cd" points="1494.45,-158.29 1484.13,-160.66 1493.68,-165.247 1494.45,-158.29"/>
<text text-anchor="middle" x="1592" y="-189" font-family="FreeSans.ttf" font-size="10.00"> values</text>
</g>
<!-- Node13 -->
<g id="node24" class="node"><title>Node13</title>
<a xlink:href="structcorecvs_1_1SingleStat.html" target="_top" xlink:title="corecvs::SingleStat">
<polygon fill="none" stroke="black" points="1002.5,-150.5 1002.5,-171.5 1111.5,-171.5 1111.5,-150.5 1002.5,-150.5"/>
<text text-anchor="middle" x="1057" y="-158.5" font-family="FreeSans.ttf" font-size="10.00">corecvs::SingleStat</text>
</a>
</g>
<!-- Node13&#45;&gt;Node12 -->
<g id="edge24" class="edge"><title>Node13&#45;&gt;Node12</title>
<path fill="none" stroke="#9a32cd" stroke-dasharray="5,2" d="M1121.84,-159.497C1177.93,-158.196 1259.33,-156.308 1319.95,-154.903"/>
<polygon fill="#9a32cd" stroke="#9a32cd" points="1121.58,-156.001 1111.67,-159.732 1121.74,-163 1121.58,-156.001"/>
<text text-anchor="middle" x="1232" y="-161" font-family="FreeSans.ttf" font-size="10.00"> elements</text>
</g>
<!-- Node14 -->
<g id="node29" class="node"><title>Node14</title>
<polygon fill="none" stroke="#bfbfbf" points="1984.5,-424.5 1984.5,-445.5 2097.5,-445.5 2097.5,-424.5 1984.5,-424.5"/>
<text text-anchor="middle" x="2041" y="-432.5" font-family="FreeSans.ttf" font-size="10.00">std::vector&lt; Pin * &gt;</text>
</g>
<!-- Node14&#45;&gt;Node2 -->
<g id="edge42" class="edge"><title>Node14&#45;&gt;Node2</title>
<path fill="none" stroke="#9a32cd" stroke-dasharray="5,2" d="M1974.18,-432.804C1846.87,-428.62 1571.92,-419.584 1455.66,-415.763"/>
<polygon fill="#9a32cd" stroke="#9a32cd" points="1974.08,-436.302 1984.19,-433.133 1974.31,-429.306 1974.08,-436.302"/>
<text text-anchor="middle" x="1757" y="-445" font-family="FreeSans.ttf" font-size="10.00"> outputPins</text>
<text text-anchor="middle" x="1757" y="-432" font-family="FreeSans.ttf" font-size="10.00">inputPins</text>
</g>
<!-- Node14&#45;&gt;Node3 -->
<g id="edge32" class="edge"><title>Node14&#45;&gt;Node3</title>
<path fill="none" stroke="#9a32cd" stroke-dasharray="5,2" d="M2107.75,-427.736C2132.21,-423.088 2159.4,-415.472 2182,-403 2211.11,-386.935 2236.42,-356.024 2248.48,-339.701"/>
<polygon fill="#9a32cd" stroke="#9a32cd" points="2107.06,-424.304 2097.82,-429.493 2108.28,-431.197 2107.06,-424.304"/>
<text text-anchor="middle" x="2157" y="-438" font-family="FreeSans.ttf" font-size="10.00"> outputs</text>
<text text-anchor="middle" x="2157" y="-425" font-family="FreeSans.ttf" font-size="10.00">inputs</text>
</g>
<!-- Node15&#45;&gt;Node14 -->
<g id="edge34" class="edge"><title>Node15&#45;&gt;Node14</title>
<path fill="none" stroke="#9a32cd" stroke-dasharray="5,2" d="M1804.07,-480.884C1854.29,-471.158 1933.73,-455.773 1986.6,-445.536"/>
<polygon fill="#9a32cd" stroke="#9a32cd" points="1803.28,-477.472 1794.13,-482.81 1804.61,-484.344 1803.28,-477.472"/>
<text text-anchor="middle" x="1909" y="-471" font-family="FreeSans.ttf" font-size="10.00"> elements</text>
</g>
<!-- Node15&#45;&gt;Node15 -->
<g id="edge36" class="edge"><title>Node15&#45;&gt;Node15</title>
<path fill="none" stroke="#9a32cd" stroke-dasharray="5,2" d="M1728.84,-510.055C1730.69,-515.164 1740.07,-519 1757,-519 1783.42,-519 1791.47,-509.653 1781.15,-500.708"/>
<polygon fill="#9a32cd" stroke="#9a32cd" points="1732.12,-511.278 1732.85,-500.708 1725.69,-508.518 1732.12,-511.278"/>
<text text-anchor="middle" x="1757" y="-523" font-family="FreeSans.ttf" font-size="10.00"> takeFrom</text>
</g>
<!-- Node16 -->
<g id="node35" class="node"><title>Node16</title>
<polygon fill="none" stroke="#bfbfbf" points="1968,-229.5 1968,-250.5 2114,-250.5 2114,-229.5 1968,-229.5"/>
<text text-anchor="middle" x="2041" y="-237.5" font-family="FreeSans.ttf" font-size="10.00">std::vector&lt; FilterBlock * &gt;</text>
</g>
<!-- Node16&#45;&gt;Node3 -->
<g id="edge40" class="edge"><title>Node16&#45;&gt;Node3</title>
<path fill="none" stroke="#9a32cd" stroke-dasharray="5,2" d="M2124.27,-243.315C2143.88,-246.372 2164.24,-251.514 2182,-260 2210.85,-273.781 2236.08,-302.842 2248.26,-318.491"/>
<polygon fill="#9a32cd" stroke="#9a32cd" points="2124.49,-239.811 2114.1,-241.899 2123.52,-246.744 2124.49,-239.811"/>
<text text-anchor="middle" x="2157" y="-264" font-family="FreeSans.ttf" font-size="10.00"> blocks</text>
</g>
<!-- Node17 -->
<g id="node38" class="node"><title>Node17</title>
<a xlink:href="classMaskingParameters.html" target="_top" xlink:title="Masking Parameters Masking Parameters.">
<polygon fill="none" stroke="black" points="1346.5,-342.5 1346.5,-363.5 1457.5,-363.5 1457.5,-342.5 1346.5,-342.5"/>
<text text-anchor="middle" x="1402" y="-350.5" font-family="FreeSans.ttf" font-size="10.00">MaskingParameters</text>
</a>
</g>
<!-- Node17&#45;&gt;Node1 -->
<g id="edge44" class="edge"><title>Node17&#45;&gt;Node1</title>
<path fill="none" stroke="#9a32cd" stroke-dasharray="5,2" d="M1467.82,-344.85C1490.07,-342.462 1515.08,-340.177 1538,-339 1585.94,-336.539 1598.04,-337.059 1646,-339 1660.49,-339.586 1676.02,-340.602 1690.73,-341.744"/>
<polygon fill="#9a32cd" stroke="#9a32cd" points="1467.37,-341.379 1457.81,-345.951 1468.14,-348.337 1467.37,-341.379"/>
<text text-anchor="middle" x="1592" y="-343" font-family="FreeSans.ttf" font-size="10.00"> mMaskingParameters</text>
</g>
<!-- Node18 -->
<g id="node40" class="node"><title>Node18</title>
<a xlink:href="classcorecvs_1_1BaseReflection.html" target="_top" xlink:title="corecvs::BaseReflection\&lt; MaskingParameters \&gt;">
<polygon fill="none" stroke="black" points="934,-351.5 934,-372.5 1180,-372.5 1180,-351.5 934,-351.5"/>
<text text-anchor="middle" x="1057" y="-359.5" font-family="FreeSans.ttf" font-size="10.00">corecvs::BaseReflection&lt; MaskingParameters &gt;</text>
</a>
</g>
<!-- Node18&#45;&gt;Node17 -->
<g id="edge46" class="edge"><title>Node18&#45;&gt;Node17</title>
<path fill="none" stroke="midnightblue" d="M1190.13,-358.527C1244.28,-357.114 1303.89,-355.559 1346.05,-354.459"/>
<polygon fill="midnightblue" stroke="midnightblue" points="1190,-355.029 1180.09,-358.789 1190.18,-362.027 1190,-355.029"/>
</g>
<!-- Node19 -->
<g id="node42" class="node"><title>Node19</title>
<a xlink:href="classcorecvs_1_1BaseReflectionStatic.html" target="_top" xlink:title="corecvs::BaseReflectionStatic">
<polygon fill="none" stroke="black" points="684.5,-351.5 684.5,-372.5 841.5,-372.5 841.5,-351.5 684.5,-351.5"/>
<text text-anchor="middle" x="763" y="-359.5" font-family="FreeSans.ttf" font-size="10.00">corecvs::BaseReflectionStatic</text>
</a>
</g>
<!-- Node19&#45;&gt;Node18 -->
<g id="edge48" class="edge"><title>Node19&#45;&gt;Node18</title>
<path fill="none" stroke="midnightblue" d="M851.912,-362C877.741,-362 906.421,-362 933.95,-362"/>
<polygon fill="midnightblue" stroke="midnightblue" points="851.787,-358.5 841.787,-362 851.787,-365.5 851.787,-358.5"/>
</g>
<!-- Node20 -->
<g id="node44" class="node"><title>Node20</title>
<a xlink:href="classcorecvs_1_1Reflection.html" target="_top" xlink:title="corecvs::Reflection">
<polygon fill="none" stroke="black" points="710.5,-108.5 710.5,-129.5 815.5,-129.5 815.5,-108.5 710.5,-108.5"/>
<text text-anchor="middle" x="763" y="-116.5" font-family="FreeSans.ttf" font-size="10.00">corecvs::Reflection</text>
</a>
</g>
<!-- Node20&#45;&gt;Node18 -->
<g id="edge50" class="edge"><title>Node20&#45;&gt;Node18</title>
<path fill="none" stroke="#9a32cd" stroke-dasharray="5,2" d="M777.727,-137.625C793.669,-157.834 819.794,-191.087 842,-220 883.366,-273.859 875.855,-306.914 934,-342 940.205,-345.744 946.893,-348.851 953.83,-351.424"/>
<polygon fill="#9a32cd" stroke="#9a32cd" points="780.309,-135.247 771.365,-129.567 774.815,-139.585 780.309,-135.247"/>
<text text-anchor="middle" x="888" y="-333" font-family="FreeSans.ttf" font-size="10.00"> reflection</text>
</g>
<!-- Node25 -->
<g id="node55" class="node"><title>Node25</title>
<a xlink:href="classcorecvs_1_1EmbedSubclass.html" target="_top" xlink:title="corecvs::EmbedSubclass">
<polygon fill="none" stroke="black" points="989,-54.5 989,-75.5 1125,-75.5 1125,-54.5 989,-54.5"/>
<text text-anchor="middle" x="1057" y="-62.5" font-family="FreeSans.ttf" font-size="10.00">corecvs::EmbedSubclass</text>
</a>
</g>
<!-- Node20&#45;&gt;Node25 -->
<g id="edge64" class="edge"><title>Node20&#45;&gt;Node25</title>
<path fill="none" stroke="#9a32cd" stroke-dasharray="5,2" d="M806.785,-105.457C823.338,-100.697 842.421,-95.6337 860,-92 902.427,-83.2297 950.601,-76.5695 988.69,-72.0583"/>
<polygon fill="#9a32cd" stroke="#9a32cd" points="805.456,-102.199 796.842,-108.367 807.422,-108.918 805.456,-102.199"/>
<text text-anchor="middle" x="888" y="-96" font-family="FreeSans.ttf" font-size="10.00"> subclass</text>
</g>
<!-- Node21 -->
<g id="node46" class="node"><title>Node21</title>
<polygon fill="none" stroke="#bfbfbf" points="413.5,-127.5 413.5,-148.5 586.5,-148.5 586.5,-127.5 413.5,-127.5"/>
<text text-anchor="middle" x="500" y="-135.5" font-family="FreeSans.ttf" font-size="10.00">std::vector&lt; const BaseField * &gt;</text>
</g>
<!-- Node21&#45;&gt;Node20 -->
<g id="edge52" class="edge"><title>Node21&#45;&gt;Node20</title>
<path fill="none" stroke="#9a32cd" stroke-dasharray="5,2" d="M597.018,-130.991C635.382,-128.22 677.959,-125.144 710.384,-122.801"/>
<polygon fill="#9a32cd" stroke="#9a32cd" points="596.567,-127.514 586.845,-131.726 597.071,-134.496 596.567,-127.514"/>
<text text-anchor="middle" x="641" y="-133" font-family="FreeSans.ttf" font-size="10.00"> fields</text>
</g>
<!-- Node22 -->
<g id="node48" class="node"><title>Node22</title>
<a xlink:href="classcorecvs_1_1BaseField.html" target="_top" xlink:title="This class is a core class for the reflection.">
<polygon fill="none" stroke="black" points="212,-127.5 212,-148.5 316,-148.5 316,-127.5 212,-127.5"/>
<text text-anchor="middle" x="264" y="-135.5" font-family="FreeSans.ttf" font-size="10.00">corecvs::BaseField</text>
</a>
</g>
<!-- Node22&#45;&gt;Node21 -->
<g id="edge54" class="edge"><title>Node22&#45;&gt;Node21</title>
<path fill="none" stroke="#9a32cd" stroke-dasharray="5,2" d="M326.398,-138C352.994,-138 384.474,-138 413.275,-138"/>
<polygon fill="#9a32cd" stroke="#9a32cd" points="326.083,-134.5 316.083,-138 326.083,-141.5 326.083,-134.5"/>
<text text-anchor="middle" x="359" y="-142" font-family="FreeSans.ttf" font-size="10.00"> elements</text>
</g>
<!-- Node23 -->
<g id="node50" class="node"><title>Node23</title>
<a xlink:href="classcorecvs_1_1ReflectionNaming.html" target="_top" xlink:title="We have several styles of nameing.">
<polygon fill="none" stroke="black" points="0.5,-88.5 0.5,-109.5 143.5,-109.5 143.5,-88.5 0.5,-88.5"/>
<text text-anchor="middle" x="72" y="-96.5" font-family="FreeSans.ttf" font-size="10.00">corecvs::ReflectionNaming</text>
</a>
</g>
<!-- Node23&#45;&gt;Node20 -->
<g id="edge58" class="edge"><title>Node23&#45;&gt;Node20</title>
<path fill="none" stroke="#9a32cd" stroke-dasharray="5,2" d="M153.732,-101.366C297.145,-105.517 590.242,-114 710.118,-117.469"/>
<polygon fill="#9a32cd" stroke="#9a32cd" points="153.767,-97.8653 143.67,-101.074 153.564,-104.862 153.767,-97.8653"/>
<text text-anchor="middle" x="359" y="-111" font-family="FreeSans.ttf" font-size="10.00"> name</text>
</g>
<!-- Node23&#45;&gt;Node22 -->
<g id="edge56" class="edge"><title>Node23&#45;&gt;Node22</title>
<path fill="none" stroke="#9a32cd" stroke-dasharray="5,2" d="M133.585,-111.509C158.933,-116.658 187.971,-122.557 212.203,-127.479"/>
<polygon fill="#9a32cd" stroke="#9a32cd" points="134.202,-108.063 123.705,-109.503 132.808,-114.923 134.202,-108.063"/>
<text text-anchor="middle" x="178" y="-127" font-family="FreeSans.ttf" font-size="10.00"> name</text>
</g>
<!-- Node23&#45;&gt;Node25 -->
<g id="edge66" class="edge"><title>Node23&#45;&gt;Node25</title>
<path fill="none" stroke="#9a32cd" stroke-dasharray="5,2" d="M111.944,-85.3414C150.418,-73.4153 210.496,-58 264,-58 264,-58 264,-58 763,-58 840.478,-58 929.408,-60.4597 988.989,-62.4629"/>
<polygon fill="#9a32cd" stroke="#9a32cd" points="110.642,-82.0825 102.168,-88.4415 112.758,-88.755 110.642,-82.0825"/>
<text text-anchor="middle" x="500" y="-62" font-family="FreeSans.ttf" font-size="10.00"> name</text>
</g>
<!-- Node24 -->
<g id="node53" class="node"><title>Node24</title>
<polygon fill="none" stroke="#bfbfbf" points="1300,-85.5 1300,-106.5 1504,-106.5 1504,-85.5 1300,-85.5"/>
<text text-anchor="middle" x="1402" y="-93.5" font-family="FreeSans.ttf" font-size="10.00">std::vector&lt; const EmbedSubclass * &gt;</text>
</g>
<!-- Node24&#45;&gt;Node20 -->
<g id="edge60" class="edge"><title>Node24&#45;&gt;Node20</title>
<path fill="none" stroke="#9a32cd" stroke-dasharray="5,2" d="M1289.72,-100.041C1150.48,-105.053 918.886,-113.389 815.564,-117.108"/>
<polygon fill="#9a32cd" stroke="#9a32cd" points="1290.13,-103.529 1300,-99.6715 1289.88,-96.5335 1290.13,-103.529"/>
<text text-anchor="middle" x="1057" y="-116" font-family="FreeSans.ttf" font-size="10.00"> embeds</text>
</g>
<!-- Node25&#45;&gt;Node24 -->
<g id="edge62" class="edge"><title>Node25&#45;&gt;Node24</title>
<path fill="none" stroke="#9a32cd" stroke-dasharray="5,2" d="M1135.34,-72.0388C1184.09,-76.4194 1247.31,-82.1 1299.95,-86.8307"/>
<polygon fill="#9a32cd" stroke="#9a32cd" points="1135.43,-68.5337 1125.16,-71.1246 1134.81,-75.5056 1135.43,-68.5337"/>
<text text-anchor="middle" x="1232" y="-87" font-family="FreeSans.ttf" font-size="10.00"> elements</text>
</g>
<!-- Node26 -->
<g id="node59" class="node"><title>Node26</title>
<polygon fill="none" stroke="#bfbfbf" points="691,-4.5 691,-25.5 835,-25.5 835,-4.5 691,-4.5"/>
<text text-anchor="middle" x="763" y="-12.5" font-family="FreeSans.ttf" font-size="10.00">std::vector&lt; EmbedMap &gt;</text>
</g>
<!-- Node26&#45;&gt;Node25 -->
<g id="edge68" class="edge"><title>Node26&#45;&gt;Node25</title>
<path fill="none" stroke="#9a32cd" stroke-dasharray="5,2" d="M845.32,-21.5875C868.283,-23.973 893.187,-27.0744 916,-31 951.363,-37.0851 991.046,-46.9306 1019.28,-54.4647"/>
<polygon fill="#9a32cd" stroke="#9a32cd" points="845.566,-18.0947 835.265,-20.5752 844.864,-25.0595 845.566,-18.0947"/>
<text text-anchor="middle" x="888" y="-35" font-family="FreeSans.ttf" font-size="10.00"> renameing</text>
</g>
<!-- Node27 -->
<g id="node61" class="node"><title>Node27</title>
<a xlink:href="structcorecvs_1_1EmbedSubclass_1_1EmbedMap.html" target="_top" xlink:title="corecvs::EmbedSubclass::EmbedMap">
<polygon fill="none" stroke="black" points="402,-0.5 402,-21.5 598,-21.5 598,-0.5 402,-0.5"/>
<text text-anchor="middle" x="500" y="-8.5" font-family="FreeSans.ttf" font-size="10.00">corecvs::EmbedSubclass::EmbedMap</text>
</a>
</g>
<!-- Node27&#45;&gt;Node26 -->
<g id="edge70" class="edge"><title>Node27&#45;&gt;Node26</title>
<path fill="none" stroke="#9a32cd" stroke-dasharray="5,2" d="M608.442,-12.6493C636.154,-13.0708 665.276,-13.5137 690.676,-13.9"/>
<polygon fill="#9a32cd" stroke="#9a32cd" points="608.358,-9.14772 598.305,-12.4951 608.251,-16.1469 608.358,-9.14772"/>
<text text-anchor="middle" x="641" y="-18" font-family="FreeSans.ttf" font-size="10.00"> elements</text>
</g>
</g>
</svg>
        <g id="navigator" transform="translate(0 0)" fill="#404254">
                <rect fill="#f2f5e9" fill-opacity="0.5" stroke="#606060" stroke-width=".5" x="0" y="0" width="60" height="60"/>
                <use id="zoomplus" xlink:href="#zoomPlus" x="17" y="9" onmousedown="handleZoom(evt,'in')"/>
                <use id="zoomminus" xlink:href="#zoomMin" x="42" y="9" onmousedown="handleZoom(evt,'out')"/>
                <use id="reset" xlink:href="#resetDef" x="30" y="36" onmousedown="handleReset()"/>
                <g id="arrowUp" xlink:href="#dirArrow" transform="translate(30 24)" onmousedown="handlePan(0,-1)">
                  <use xlink:href="#rim" fill="#404040">
                        <set attributeName="fill" to="#808080" begin="arrowUp.mouseover" end="arrowUp.mouseout"/>
                  </use>
                  <path fill="none" stroke="white" stroke-width="1.5" d="M0,-3.0v7 M-2.5,-0.5L0,-3.0L2.5,-0.5"/>
                </g>
                <g id="arrowRight" xlink:href="#dirArrow" transform="rotate(90) translate(36 -43)" onmousedown="handlePan(1,0)">
                  <use xlink:href="#rim" fill="#404040">
                        <set attributeName="fill" to="#808080" begin="arrowRight.mouseover" end="arrowRight.mouseout"/>
                  </use>
                  <path fill="none" stroke="white" stroke-width="1.5" d="M0,-3.0v7 M-2.5,-0.5L0,-3.0L2.5,-0.5"/>
                </g>
                <g id="arrowDown" xlink:href="#dirArrow" transform="rotate(180) translate(-30 -48)" onmousedown="handlePan(0,1)">
                  <use xlink:href="#rim" fill="#404040">
                        <set attributeName="fill" to="#808080" begin="arrowDown.mouseover" end="arrowDown.mouseout"/>
                  </use>
                  <path fill="none" stroke="white" stroke-width="1.5" d="M0,-3.0v7 M-2.5,-0.5L0,-3.0L2.5,-0.5"/>
                </g>
                <g id="arrowLeft" xlink:href="#dirArrow" transform="rotate(270) translate(-36 17)" onmousedown="handlePan(-1,0)">
                  <use xlink:href="#rim" fill="#404040">
                        <set attributeName="fill" to="#808080" begin="arrowLeft.mouseover" end="arrowLeft.mouseout"/>
                  </use>
                  <path fill="none" stroke="white" stroke-width="1.5" d="M0,-3.0v7 M-2.5,-0.5L0,-3.0L2.5,-0.5"/>
                </g>
        </g>
</svg>
