<?xml version="1.0" encoding="UTF-8" standalone="no"?>
<!DOCTYPE svg PUBLIC "-//W3C//DTD SVG 1.1//EN"
 "http://www.w3.org/Graphics/SVG/1.1/DTD/svg11.dtd">
<!-- Generated by graphviz version 2.26.3 (20100126.1600)
 -->
<!-- Title: G Pages: 1 -->
<svg width="316pt" height="70pt"
 viewBox="0.00 0.00 316.00 70.00" xmlns="http://www.w3.org/2000/svg" xmlns:xlink="http://www.w3.org/1999/xlink">
<g id="graph1" class="graph" transform="scale(1 1) rotate(0) translate(4 66)">
<title>G</title>
<!-- Node1 -->
<g id="node1" class="node"><title>Node1</title>
<polygon fill="#bfbfbf" stroke="black" points="0.5,-20.5 0.5,-41.5 139.5,-41.5 139.5,-20.5 0.5,-20.5"/>
<text text-anchor="middle" x="70" y="-28.5" font-family="FreeSans.ttf" font-size="10.00">DiagramScene::addArrow</text>
</g>
<!-- Node2 -->
<g id="node3" class="node"><title>Node2</title>
<a xlink:href="classDiagramItem.html#a7eea98dfc6ec8956e0fb0e6e440fdcb0" target="_top" xlink:title="DiagramItem::addArrow">
<polygon fill="none" stroke="black" points="176.5,-40.5 176.5,-61.5 307.5,-61.5 307.5,-40.5 176.5,-40.5"/>
<text text-anchor="middle" x="242" y="-48.5" font-family="FreeSans.ttf" font-size="10.00">DiagramItem::addArrow</text>
</a>
</g>
<!-- Node1&#45;&gt;Node2 -->
<g id="edge2" class="edge"><title>Node1&#45;&gt;Node2</title>
<path fill="none" stroke="midnightblue" d="M139.959,-39.1348C148.582,-40.1375 157.429,-41.1662 166.135,-42.1785"/>
<polygon fill="midnightblue" stroke="midnightblue" points="165.931,-45.6783 176.269,-43.3568 166.74,-38.7251 165.931,-45.6783"/>
</g>
<!-- Node3 -->
<g id="node5" class="node"><title>Node3</title>
<a xlink:href="classArrow.html#ab7e7333a213b0eb310496b6f815e1824" target="_top" xlink:title="Arrow::setColor">
<polygon fill="none" stroke="black" points="197.5,-0.5 197.5,-21.5 286.5,-21.5 286.5,-0.5 197.5,-0.5"/>
<text text-anchor="middle" x="242" y="-8.5" font-family="FreeSans.ttf" font-size="10.00">Arrow::setColor</text>
</a>
</g>
<!-- Node1&#45;&gt;Node3 -->
<g id="edge4" class="edge"><title>Node1&#45;&gt;Node3</title>
<path fill="none" stroke="midnightblue" d="M139.959,-22.8652C155.677,-21.0376 172.136,-19.1237 187.135,-17.3797"/>
<polygon fill="midnightblue" stroke="midnightblue" points="187.729,-20.8342 197.258,-16.2026 186.921,-13.8811 187.729,-20.8342"/>
</g>
</g>
</svg>
