<?xml version="1.0" encoding="UTF-8" standalone="no"?>
<!DOCTYPE svg PUBLIC "-//W3C//DTD SVG 1.1//EN"
 "http://www.w3.org/Graphics/SVG/1.1/DTD/svg11.dtd">
<!-- Generated by graphviz version 2.26.3 (20100126.1600)
 -->
<!-- Title: G Pages: 1 -->
<!--zoomable 378 -->
<svg id="main" version="1.1" xmlns="http://www.w3.org/2000/svg" xmlns:xlink="http://www.w3.org/1999/xlink" xml:space="preserve" onload="init(evt)">
        <defs>
                <circle id="rim" cx="0" cy="0" r="7"/>
                <circle id="rim2" cx="0" cy="0" r="3.5"/>
                <g id="zoomPlus">
                        <use xlink:href="#rim" fill="#404040">
                                <set attributeName="fill" to="#808080" begin="zoomplus.mouseover" end="zoomplus.mouseout"/>
                        </use>
                        <path d="M-4,0h8M0,-4v8" fill="none" stroke="white" stroke-width="1.5" pointer-events="none"/>
                </g>
                <g id="zoomMin">
                        <use xlink:href="#rim" fill="#404040">
                                <set attributeName="fill" to="#808080" begin="zoomminus.mouseover" end="zoomminus.mouseout"/>
                        </use>
                        <path d="M-4,0h8" fill="none" stroke="white" stroke-width="1.5" pointer-events="none"/>
                </g>
                <g id="dirArrow">
                        <path fill="none" stroke="white" stroke-width="1.5" d="M0,-3.0v7 M-2.5,-0.5L0,-3.0L2.5,-0.5"/>
                </g>
               <g id="resetDef">
                       <use xlink:href="#rim2" fill="#404040">
                               <set attributeName="fill" to="#808080" begin="reset.mouseover" end="reset.mouseout"/>
                       </use>
               </g>
        </defs>

<script type="text/javascript">
var viewWidth = 564;
var viewHeight = 378;
var sectionId = 'dynsection-0';
</script>
<script xlink:href="svgpan.js"/>
<svg id="graph" class="graph">
<g id="viewport">
<title>G</title>
<!-- Node1 -->
<g id="node1" class="node"><title>Node1</title>
<polygon fill="#bfbfbf" stroke="black" points="388,-348.5 388,-369.5 556,-369.5 556,-348.5 388,-348.5"/>
<text text-anchor="middle" x="472" y="-356.5" font-family="FreeSans.ttf" font-size="10.00">core/clegacy/math/levenmarq.h</text>
</g>
<!-- Node2 -->
<g id="node3" class="node"><title>Node2</title>
<a xlink:href="vector2d_8h.html" target="_top" xlink:title="Add Comment Here.">
<polygon fill="none" stroke="black" points="347,-290.5 347,-311.5 415,-311.5 415,-290.5 347,-290.5"/>
<text text-anchor="middle" x="381" y="-298.5" font-family="FreeSans.ttf" font-size="10.00">vector2d.h</text>
</a>
</g>
<!-- Node1&#45;&gt;Node2 -->
<g id="edge2" class="edge"><title>Node1&#45;&gt;Node2</title>
<path fill="none" stroke="midnightblue" d="M455.309,-348.362C441.584,-339.614 421.916,-327.079 406.263,-317.101"/>
<polygon fill="midnightblue" stroke="midnightblue" points="407.899,-313.994 397.585,-311.571 404.137,-319.897 407.899,-313.994"/>
</g>
<!-- Node13 -->
<g id="node27" class="node"><title>Node13</title>
<polygon fill="none" stroke="#bfbfbf" points="448.5,-58.5 448.5,-79.5 495.5,-79.5 495.5,-58.5 448.5,-58.5"/>
<text text-anchor="middle" x="472" y="-66.5" font-family="FreeSans.ttf" font-size="10.00">vector</text>
</g>
<!-- Node1&#45;&gt;Node13 -->
<g id="edge44" class="edge"><title>Node1&#45;&gt;Node13</title>
<path fill="none" stroke="midnightblue" d="M472,-348.444C472,-328.062 472,-281.868 472,-243 472,-243 472,-243 472,-185 472,-151.598 472,-112.785 472,-89.5939"/>
<polygon fill="midnightblue" stroke="midnightblue" points="475.5,-89.5561 472,-79.5561 468.5,-89.5561 475.5,-89.5561"/>
</g>
<!-- Node17 -->
<g id="node38" class="node"><title>Node17</title>
<a xlink:href="clegacy_2math_2matrix_8h.html" target="_top" xlink:title="matrix.h">
<polygon fill="none" stroke="black" points="500,-290.5 500,-311.5 556,-311.5 556,-290.5 500,-290.5"/>
<text text-anchor="middle" x="528" y="-298.5" font-family="FreeSans.ttf" font-size="10.00">matrix.h</text>
</a>
</g>
<!-- Node1&#45;&gt;Node17 -->
<g id="edge42" class="edge"><title>Node1&#45;&gt;Node17</title>
<path fill="none" stroke="midnightblue" d="M482.271,-348.362C490.244,-340.104 501.475,-328.472 510.811,-318.803"/>
<polygon fill="midnightblue" stroke="midnightblue" points="513.366,-321.196 517.794,-311.571 508.33,-316.334 513.366,-321.196"/>
</g>
<!-- Node3 -->
<g id="node5" class="node"><title>Node3</title>
<polygon fill="none" stroke="#bfbfbf" points="355.5,-116.5 355.5,-137.5 406.5,-137.5 406.5,-116.5 355.5,-116.5"/>
<text text-anchor="middle" x="381" y="-124.5" font-family="FreeSans.ttf" font-size="10.00">math.h</text>
</g>
<!-- Node2&#45;&gt;Node3 -->
<g id="edge4" class="edge"><title>Node2&#45;&gt;Node3</title>
<path fill="none" stroke="midnightblue" d="M381,-290.377C381,-262.293 381,-185.673 381,-148.203"/>
<polygon fill="midnightblue" stroke="midnightblue" points="384.5,-147.928 381,-137.928 377.5,-147.928 384.5,-147.928"/>
</g>
<!-- Node4 -->
<g id="node7" class="node"><title>Node4</title>
<polygon fill="none" stroke="#bfbfbf" points="378.5,-58.5 378.5,-79.5 431.5,-79.5 431.5,-58.5 378.5,-58.5"/>
<text text-anchor="middle" x="405" y="-66.5" font-family="FreeSans.ttf" font-size="10.00">stdint.h</text>
</g>
<!-- Node2&#45;&gt;Node4 -->
<g id="edge6" class="edge"><title>Node2&#45;&gt;Node4</title>
<path fill="none" stroke="midnightblue" d="M385.19,-290.241C395.734,-261.925 422.038,-182.902 415,-116 414.078,-107.232 412.212,-97.6925 410.34,-89.5135"/>
<polygon fill="midnightblue" stroke="midnightblue" points="413.723,-88.6106 407.953,-79.7243 406.922,-90.2687 413.723,-88.6106"/>
</g>
<!-- Node5 -->
<g id="node9" class="node"><title>Node5</title>
<a xlink:href="global_8h.html" target="_top" xlink:title="This file holds the global includes, mostly for debuging, tracing and profiling.">
<polygon fill="none" stroke="black" points="5,-58.5 5,-79.5 59,-79.5 59,-58.5 5,-58.5"/>
<text text-anchor="middle" x="32" y="-66.5" font-family="FreeSans.ttf" font-size="10.00">global.h</text>
</a>
</g>
<!-- Node2&#45;&gt;Node5 -->
<g id="edge8" class="edge"><title>Node2&#45;&gt;Node5</title>
<path fill="none" stroke="midnightblue" d="M346.878,-296.15C295.589,-288.387 201.581,-272.182 173,-254 107.004,-212.016 60.158,-127.659 41.2637,-89.0819"/>
<polygon fill="midnightblue" stroke="midnightblue" points="44.345,-87.4123 36.8743,-79.8997 38.0295,-90.4314 44.345,-87.4123"/>
</g>
<!-- Node7 -->
<g id="node13" class="node"><title>Node7</title>
<a xlink:href="fixedVector_8h.html" target="_top" xlink:title="This file holds the description of the commonly used template &#45; a vector with the fixed number of com...">
<polygon fill="none" stroke="black" points="182,-232.5 182,-253.5 260,-253.5 260,-232.5 182,-232.5"/>
<text text-anchor="middle" x="221" y="-240.5" font-family="FreeSans.ttf" font-size="10.00">fixedVector.h</text>
</a>
</g>
<!-- Node2&#45;&gt;Node7 -->
<g id="edge12" class="edge"><title>Node2&#45;&gt;Node7</title>
<path fill="none" stroke="midnightblue" d="M352.025,-290.497C326.167,-281.123 288.101,-267.324 259.654,-257.012"/>
<polygon fill="midnightblue" stroke="midnightblue" points="260.623,-253.641 250.029,-253.523 258.238,-260.222 260.623,-253.641"/>
</g>
<!-- Node6 -->
<g id="node11" class="node"><title>Node6</title>
<polygon fill="none" stroke="#bfbfbf" points="0,-0.5 0,-21.5 64,-21.5 64,-0.5 0,-0.5"/>
<text text-anchor="middle" x="32" y="-8.5" font-family="FreeSans.ttf" font-size="10.00">inttypes.h</text>
</g>
<!-- Node5&#45;&gt;Node6 -->
<g id="edge10" class="edge"><title>Node5&#45;&gt;Node6</title>
<path fill="none" stroke="midnightblue" d="M32,-58.3619C32,-50.9219 32,-40.7427 32,-31.7276"/>
<polygon fill="midnightblue" stroke="midnightblue" points="35.5001,-31.5706 32,-21.5707 28.5001,-31.5707 35.5001,-31.5706"/>
</g>
<!-- Node8 -->
<g id="node15" class="node"><title>Node8</title>
<polygon fill="none" stroke="#bfbfbf" points="79.5,-58.5 79.5,-79.5 128.5,-79.5 128.5,-58.5 79.5,-58.5"/>
<text text-anchor="middle" x="104" y="-66.5" font-family="FreeSans.ttf" font-size="10.00">stdio.h</text>
</g>
<!-- Node7&#45;&gt;Node8 -->
<g id="edge14" class="edge"><title>Node7&#45;&gt;Node8</title>
<path fill="none" stroke="midnightblue" d="M201.363,-232.276C174.068,-216.064 125.989,-182.433 108,-138 101.818,-122.729 101.116,-103.992 101.795,-89.8982"/>
<polygon fill="midnightblue" stroke="midnightblue" points="105.298,-89.9801 102.557,-79.7462 98.3181,-89.4562 105.298,-89.9801"/>
</g>
<!-- Node9 -->
<g id="node17" class="node"><title>Node9</title>
<a xlink:href="vectorOperations_8h.html" target="_top" xlink:title="This file holds the operations that are commonly used with continuous linear data structures such as ...">
<polygon fill="none" stroke="black" points="167,-174.5 167,-195.5 275,-195.5 275,-174.5 167,-174.5"/>
<text text-anchor="middle" x="221" y="-182.5" font-family="FreeSans.ttf" font-size="10.00">vectorOperations.h</text>
</a>
</g>
<!-- Node7&#45;&gt;Node9 -->
<g id="edge16" class="edge"><title>Node7&#45;&gt;Node9</title>
<path fill="none" stroke="midnightblue" d="M221,-232.362C221,-224.922 221,-214.743 221,-205.728"/>
<polygon fill="midnightblue" stroke="midnightblue" points="224.5,-205.571 221,-195.571 217.5,-205.571 224.5,-205.571"/>
</g>
<!-- Node9&#45;&gt;Node3 -->
<g id="edge24" class="edge"><title>Node9&#45;&gt;Node3</title>
<path fill="none" stroke="midnightblue" d="M249.975,-174.497C276.881,-164.743 317.002,-150.199 345.753,-139.777"/>
<polygon fill="midnightblue" stroke="midnightblue" points="347.2,-142.976 355.408,-136.277 344.814,-136.395 347.2,-142.976"/>
</g>
<!-- Node9&#45;&gt;Node8 -->
<g id="edge22" class="edge"><title>Node9&#45;&gt;Node8</title>
<path fill="none" stroke="midnightblue" d="M180.691,-174.368C160.711,-167.166 137.763,-155.664 123,-138 111.698,-124.477 107.087,-104.756 105.223,-89.8577"/>
<polygon fill="midnightblue" stroke="midnightblue" points="108.679,-89.2196 104.267,-79.587 101.709,-89.8684 108.679,-89.2196"/>
</g>
<!-- Node10 -->
<g id="node19" class="node"><title>Node10</title>
<polygon fill="none" stroke="#bfbfbf" points="132,-116.5 132,-137.5 174,-137.5 174,-116.5 132,-116.5"/>
<text text-anchor="middle" x="153" y="-124.5" font-family="FreeSans.ttf" font-size="10.00">limits</text>
</g>
<!-- Node9&#45;&gt;Node10 -->
<g id="edge18" class="edge"><title>Node9&#45;&gt;Node10</title>
<path fill="none" stroke="midnightblue" d="M208.528,-174.362C198.655,-165.941 184.667,-154.011 173.202,-144.231"/>
<polygon fill="midnightblue" stroke="midnightblue" points="175.273,-141.397 165.393,-137.571 170.73,-146.723 175.273,-141.397"/>
</g>
<!-- Node11 -->
<g id="node21" class="node"><title>Node11</title>
<polygon fill="none" stroke="#bfbfbf" points="191.5,-116.5 191.5,-137.5 250.5,-137.5 250.5,-116.5 191.5,-116.5"/>
<text text-anchor="middle" x="221" y="-124.5" font-family="FreeSans.ttf" font-size="10.00">iostream</text>
</g>
<!-- Node9&#45;&gt;Node11 -->
<g id="edge20" class="edge"><title>Node9&#45;&gt;Node11</title>
<path fill="none" stroke="midnightblue" d="M221,-174.362C221,-166.922 221,-156.743 221,-147.728"/>
<polygon fill="midnightblue" stroke="midnightblue" points="224.5,-147.571 221,-137.571 217.5,-147.571 224.5,-147.571"/>
</g>
<!-- Node12 -->
<g id="node25" class="node"><title>Node12</title>
<a xlink:href="reflection_8h.html" target="_top" xlink:title="a header for Reflection.c">
<polygon fill="none" stroke="black" points="268,-116.5 268,-137.5 338,-137.5 338,-116.5 268,-116.5"/>
<text text-anchor="middle" x="303" y="-124.5" font-family="FreeSans.ttf" font-size="10.00">reflection.h</text>
</a>
</g>
<!-- Node9&#45;&gt;Node12 -->
<g id="edge26" class="edge"><title>Node9&#45;&gt;Node12</title>
<path fill="none" stroke="midnightblue" d="M236.04,-174.362C248.293,-165.696 265.799,-153.313 279.839,-143.382"/>
<polygon fill="midnightblue" stroke="midnightblue" points="281.912,-146.203 288.055,-137.571 277.87,-140.488 281.912,-146.203"/>
</g>
<!-- Node12&#45;&gt;Node4 -->
<g id="edge36" class="edge"><title>Node12&#45;&gt;Node4</title>
<path fill="none" stroke="midnightblue" d="M321.708,-116.362C337.381,-107.45 359.964,-94.6087 377.663,-84.5447"/>
<polygon fill="midnightblue" stroke="midnightblue" points="379.447,-87.5562 386.41,-79.5707 375.987,-81.4712 379.447,-87.5562"/>
</g>
<!-- Node12&#45;&gt;Node5 -->
<g id="edge40" class="edge"><title>Node12&#45;&gt;Node5</title>
<path fill="none" stroke="midnightblue" d="M267.977,-118.057C264.946,-117.34 261.922,-116.644 259,-116 175.923,-97.6762 153.793,-99.565 71,-80 70.4009,-79.8584 69.7973,-79.7137 69.19,-79.5662"/>
<polygon fill="midnightblue" stroke="midnightblue" points="69.7545,-76.0974 59.1976,-76.9922 68.0084,-82.8761 69.7545,-76.0974"/>
</g>
<!-- Node12&#45;&gt;Node8 -->
<g id="edge34" class="edge"><title>Node12&#45;&gt;Node8</title>
<path fill="none" stroke="midnightblue" d="M267.881,-116.764C231.368,-106.122 174.585,-89.5725 138.357,-79.0137"/>
<polygon fill="midnightblue" stroke="midnightblue" points="139.298,-75.6423 128.718,-76.2043 137.339,-82.3627 139.298,-75.6423"/>
</g>
<!-- Node12&#45;&gt;Node13 -->
<g id="edge28" class="edge"><title>Node12&#45;&gt;Node13</title>
<path fill="none" stroke="midnightblue" d="M333.744,-116.459C359.505,-107.625 397.501,-94.5922 438.583,-80.4856"/>
<polygon fill="midnightblue" stroke="midnightblue" points="439.914,-83.7292 448.235,-77.1711 437.64,-77.1087 439.914,-83.7292"/>
</g>
<!-- Node14 -->
<g id="node29" class="node"><title>Node14</title>
<polygon fill="none" stroke="#bfbfbf" points="247,-58.5 247,-79.5 291,-79.5 291,-58.5 247,-58.5"/>
<text text-anchor="middle" x="269" y="-66.5" font-family="FreeSans.ttf" font-size="10.00">string</text>
</g>
<!-- Node12&#45;&gt;Node14 -->
<g id="edge30" class="edge"><title>Node12&#45;&gt;Node14</title>
<path fill="none" stroke="midnightblue" d="M296.764,-116.362C292.163,-108.513 285.775,-97.6159 280.286,-88.2527"/>
<polygon fill="midnightblue" stroke="midnightblue" points="283.273,-86.4276 275.197,-79.5707 277.234,-89.9677 283.273,-86.4276"/>
</g>
<!-- Node15 -->
<g id="node31" class="node"><title>Node15</title>
<polygon fill="none" stroke="#bfbfbf" points="308.5,-58.5 308.5,-79.5 361.5,-79.5 361.5,-58.5 308.5,-58.5"/>
<text text-anchor="middle" x="335" y="-66.5" font-family="FreeSans.ttf" font-size="10.00">string.h</text>
</g>
<!-- Node12&#45;&gt;Node15 -->
<g id="edge32" class="edge"><title>Node12&#45;&gt;Node15</title>
<path fill="none" stroke="midnightblue" d="M308.869,-116.362C313.155,-108.595 319.087,-97.8426 324.216,-88.5458"/>
<polygon fill="midnightblue" stroke="midnightblue" points="327.402,-90.0172 329.168,-79.5707 321.273,-86.6357 327.402,-90.0172"/>
</g>
<!-- Node16 -->
<g id="node35" class="node"><title>Node16</title>
<polygon fill="none" stroke="#bfbfbf" points="173,-58.5 173,-79.5 229,-79.5 229,-58.5 173,-58.5"/>
<text text-anchor="middle" x="201" y="-66.5" font-family="FreeSans.ttf" font-size="10.00">stdarg.h</text>
</g>
<!-- Node12&#45;&gt;Node16 -->
<g id="edge38" class="edge"><title>Node12&#45;&gt;Node16</title>
<path fill="none" stroke="midnightblue" d="M284.292,-116.362C268.619,-107.45 246.036,-94.6087 228.337,-84.5447"/>
<polygon fill="midnightblue" stroke="midnightblue" points="230.013,-81.4712 219.59,-79.5707 226.553,-87.5562 230.013,-81.4712"/>
</g>
</g>
</svg>
        <g id="navigator" transform="translate(0 0)" fill="#404254">
                <rect fill="#f2f5e9" fill-opacity="0.5" stroke="#606060" stroke-width=".5" x="0" y="0" width="60" height="60"/>
                <use id="zoomplus" xlink:href="#zoomPlus" x="17" y="9" onmousedown="handleZoom(evt,'in')"/>
                <use id="zoomminus" xlink:href="#zoomMin" x="42" y="9" onmousedown="handleZoom(evt,'out')"/>
                <use id="reset" xlink:href="#resetDef" x="30" y="36" onmousedown="handleReset()"/>
                <g id="arrowUp" xlink:href="#dirArrow" transform="translate(30 24)" onmousedown="handlePan(0,-1)">
                  <use xlink:href="#rim" fill="#404040">
                        <set attributeName="fill" to="#808080" begin="arrowUp.mouseover" end="arrowUp.mouseout"/>
                  </use>
                  <path fill="none" stroke="white" stroke-width="1.5" d="M0,-3.0v7 M-2.5,-0.5L0,-3.0L2.5,-0.5"/>
                </g>
                <g id="arrowRight" xlink:href="#dirArrow" transform="rotate(90) translate(36 -43)" onmousedown="handlePan(1,0)">
                  <use xlink:href="#rim" fill="#404040">
                        <set attributeName="fill" to="#808080" begin="arrowRight.mouseover" end="arrowRight.mouseout"/>
                  </use>
                  <path fill="none" stroke="white" stroke-width="1.5" d="M0,-3.0v7 M-2.5,-0.5L0,-3.0L2.5,-0.5"/>
                </g>
                <g id="arrowDown" xlink:href="#dirArrow" transform="rotate(180) translate(-30 -48)" onmousedown="handlePan(0,1)">
                  <use xlink:href="#rim" fill="#404040">
                        <set attributeName="fill" to="#808080" begin="arrowDown.mouseover" end="arrowDown.mouseout"/>
                  </use>
                  <path fill="none" stroke="white" stroke-width="1.5" d="M0,-3.0v7 M-2.5,-0.5L0,-3.0L2.5,-0.5"/>
                </g>
                <g id="arrowLeft" xlink:href="#dirArrow" transform="rotate(270) translate(-36 17)" onmousedown="handlePan(-1,0)">
                  <use xlink:href="#rim" fill="#404040">
                        <set attributeName="fill" to="#808080" begin="arrowLeft.mouseover" end="arrowLeft.mouseout"/>
                  </use>
                  <path fill="none" stroke="white" stroke-width="1.5" d="M0,-3.0v7 M-2.5,-0.5L0,-3.0L2.5,-0.5"/>
                </g>
        </g>
</svg>
