<?xml version="1.0" encoding="UTF-8" standalone="no"?>
<!DOCTYPE svg PUBLIC "-//W3C//DTD SVG 1.1//EN"
 "http://www.w3.org/Graphics/SVG/1.1/DTD/svg11.dtd">
<!-- Generated by graphviz version 2.26.3 (20100126.1600)
 -->
<!-- Title: G Pages: 1 -->
<!--zoomable 262 -->
<svg id="main" version="1.1" xmlns="http://www.w3.org/2000/svg" xmlns:xlink="http://www.w3.org/1999/xlink" xml:space="preserve" onload="init(evt)">
        <defs>
                <circle id="rim" cx="0" cy="0" r="7"/>
                <circle id="rim2" cx="0" cy="0" r="3.5"/>
                <g id="zoomPlus">
                        <use xlink:href="#rim" fill="#404040">
                                <set attributeName="fill" to="#808080" begin="zoomplus.mouseover" end="zoomplus.mouseout"/>
                        </use>
                        <path d="M-4,0h8M0,-4v8" fill="none" stroke="white" stroke-width="1.5" pointer-events="none"/>
                </g>
                <g id="zoomMin">
                        <use xlink:href="#rim" fill="#404040">
                                <set attributeName="fill" to="#808080" begin="zoomminus.mouseover" end="zoomminus.mouseout"/>
                        </use>
                        <path d="M-4,0h8" fill="none" stroke="white" stroke-width="1.5" pointer-events="none"/>
                </g>
                <g id="dirArrow">
                        <path fill="none" stroke="white" stroke-width="1.5" d="M0,-3.0v7 M-2.5,-0.5L0,-3.0L2.5,-0.5"/>
                </g>
               <g id="resetDef">
                       <use xlink:href="#rim2" fill="#404040">
                               <set attributeName="fill" to="#808080" begin="reset.mouseover" end="reset.mouseout"/>
                       </use>
               </g>
        </defs>

<script type="text/javascript">
var viewWidth = 947;
var viewHeight = 262;
var sectionId = 'dynsection-1';
</script>
<script xlink:href="svgpan.js"/>
<svg id="graph" class="graph">
<g id="viewport">
<title>G</title>
<!-- Node1 -->
<g id="node1" class="node"><title>Node1</title>
<polygon fill="#bfbfbf" stroke="black" points="248,-232.5 248,-253.5 388,-253.5 388,-232.5 248,-232.5"/>
<text text-anchor="middle" x="318" y="-240.5" font-family="FreeSans.ttf" font-size="10.00">utils/camcalc/colorTimer.h</text>
</g>
<!-- Node2 -->
<g id="node3" class="node"><title>Node2</title>
<a xlink:href="cameraCalculatorWidget_8h.html" target="_top" xlink:title="utils/camcalc/cameraCalculatorWidget.h">
<polygon fill="none" stroke="black" points="115,-174.5 115,-195.5 323,-195.5 323,-174.5 115,-174.5"/>
<text text-anchor="middle" x="219" y="-182.5" font-family="FreeSans.ttf" font-size="10.00">utils/camcalc/cameraCalculatorWidget.h</text>
</a>
</g>
<!-- Node1&#45;&gt;Node2 -->
<g id="edge2" class="edge"><title>Node1&#45;&gt;Node2</title>
<path fill="none" stroke="midnightblue" d="M290.862,-227.101C273.733,-217.066 252.081,-204.381 237.043,-195.571"/>
<polygon fill="midnightblue" stroke="midnightblue" points="289.444,-230.327 299.842,-232.362 292.983,-224.287 289.444,-230.327"/>
</g>
<!-- Node12 -->
<g id="node25" class="node"><title>Node12</title>
<a xlink:href="colorTimer_8cpp.html" target="_top" xlink:title="utils/camcalc/colorTimer.cpp">
<polygon fill="none" stroke="black" points="341,-174.5 341,-195.5 493,-195.5 493,-174.5 341,-174.5"/>
<text text-anchor="middle" x="417" y="-182.5" font-family="FreeSans.ttf" font-size="10.00">utils/camcalc/colorTimer.cpp</text>
</a>
</g>
<!-- Node1&#45;&gt;Node12 -->
<g id="edge26" class="edge"><title>Node1&#45;&gt;Node12</title>
<path fill="none" stroke="midnightblue" d="M345.138,-227.101C362.267,-217.066 383.919,-204.381 398.957,-195.571"/>
<polygon fill="midnightblue" stroke="midnightblue" points="343.017,-224.287 336.158,-232.362 346.556,-230.327 343.017,-224.287"/>
</g>
<!-- Node3 -->
<g id="node5" class="node"><title>Node3</title>
<a xlink:href="cameraCalculatorWidget_8cpp.html" target="_top" xlink:title="utils/camcalc/cameraCalculatorWidget.cpp">
<polygon fill="none" stroke="black" points="-0.5,-116.5 -0.5,-137.5 218.5,-137.5 218.5,-116.5 -0.5,-116.5"/>
<text text-anchor="middle" x="109" y="-124.5" font-family="FreeSans.ttf" font-size="10.00">utils/camcalc/cameraCalculatorWidget.cpp</text>
</a>
</g>
<!-- Node2&#45;&gt;Node3 -->
<g id="edge4" class="edge"><title>Node2&#45;&gt;Node3</title>
<path fill="none" stroke="midnightblue" d="M190.161,-169.794C170.969,-159.675 146.236,-146.634 129.144,-137.621"/>
<polygon fill="midnightblue" stroke="midnightblue" points="188.602,-172.928 199.08,-174.497 191.867,-166.736 188.602,-172.928"/>
</g>
<!-- Node4 -->
<g id="node7" class="node"><title>Node4</title>
<a xlink:href="baseHostDialog_8h.html" target="_top" xlink:title="applications/base/baseHostDialog.h">
<polygon fill="none" stroke="black" points="236,-116.5 236,-137.5 424,-137.5 424,-116.5 236,-116.5"/>
<text text-anchor="middle" x="330" y="-124.5" font-family="FreeSans.ttf" font-size="10.00">applications/base/baseHostDialog.h</text>
</a>
</g>
<!-- Node2&#45;&gt;Node4 -->
<g id="edge6" class="edge"><title>Node2&#45;&gt;Node4</title>
<path fill="none" stroke="midnightblue" d="M248.101,-169.794C267.468,-159.675 292.425,-146.634 309.673,-137.621"/>
<polygon fill="midnightblue" stroke="midnightblue" points="246.343,-166.763 239.101,-174.497 249.585,-172.968 246.343,-166.763"/>
</g>
<!-- Node5 -->
<g id="node9" class="node"><title>Node5</title>
<a xlink:href="baseHostDialog_8cpp.html" target="_top" xlink:title="Implements a basic host dialog that uses BaseCalculationThread to process captured data Extend or rei...">
<polygon fill="none" stroke="black" points="46.5,-58.5 46.5,-79.5 245.5,-79.5 245.5,-58.5 46.5,-58.5"/>
<text text-anchor="middle" x="146" y="-66.5" font-family="FreeSans.ttf" font-size="10.00">applications/base/baseHostDialog.cpp</text>
</a>
</g>
<!-- Node4&#45;&gt;Node5 -->
<g id="edge8" class="edge"><title>Node4&#45;&gt;Node5</title>
<path fill="none" stroke="midnightblue" d="M286.896,-113.413C254.067,-103.065 209.53,-89.0258 179.384,-79.5231"/>
<polygon fill="midnightblue" stroke="midnightblue" points="286.089,-116.828 296.679,-116.497 288.194,-110.152 286.089,-116.828"/>
</g>
<!-- Node6 -->
<g id="node11" class="node"><title>Node6</title>
<a xlink:href="main__vibase_8cpp.html" target="_top" xlink:title="applications/base/main_vibase.cpp">
<polygon fill="none" stroke="black" points="94.5,-0.5 94.5,-21.5 277.5,-21.5 277.5,-0.5 94.5,-0.5"/>
<text text-anchor="middle" x="186" y="-8.5" font-family="FreeSans.ttf" font-size="10.00">applications/base/main_vibase.cpp</text>
</a>
</g>
<!-- Node4&#45;&gt;Node6 -->
<g id="edge10" class="edge"><title>Node4&#45;&gt;Node6</title>
<path fill="none" stroke="midnightblue" d="M311.759,-109.176C296.728,-94.803 274.61,-74.3607 254,-58 237.14,-44.616 216.692,-30.7802 202.649,-21.6171"/>
<polygon fill="midnightblue" stroke="midnightblue" points="309.697,-112.05 319.325,-116.472 314.556,-107.011 309.697,-112.05"/>
</g>
<!-- Node7 -->
<g id="node13" class="node"><title>Node7</title>
<a xlink:href="mainWindow_8h.html" target="_top" xlink:title="applications/base/mainWindow.h">
<polygon fill="none" stroke="black" points="301,-58.5 301,-79.5 471,-79.5 471,-58.5 301,-58.5"/>
<text text-anchor="middle" x="386" y="-66.5" font-family="FreeSans.ttf" font-size="10.00">applications/base/mainWindow.h</text>
</a>
</g>
<!-- Node4&#45;&gt;Node7 -->
<g id="edge12" class="edge"><title>Node4&#45;&gt;Node7</title>
<path fill="none" stroke="midnightblue" d="M347.265,-109.118C356.612,-99.4377 367.839,-87.8098 375.794,-79.5707"/>
<polygon fill="midnightblue" stroke="midnightblue" points="344.699,-106.737 340.271,-116.362 349.735,-111.599 344.699,-106.737"/>
</g>
<!-- Node10 -->
<g id="node20" class="node"><title>Node10</title>
<a xlink:href="recorderDialog_8h.html" target="_top" xlink:title="Defines a recorder dialog class derived from BaseHostDialog.">
<polygon fill="none" stroke="black" points="503,-58.5 503,-79.5 703,-79.5 703,-58.5 503,-58.5"/>
<text text-anchor="middle" x="603" y="-66.5" font-family="FreeSans.ttf" font-size="10.00">applications/recorder/recorderDialog.h</text>
</a>
</g>
<!-- Node4&#45;&gt;Node10 -->
<g id="edge20" class="edge"><title>Node4&#45;&gt;Node10</title>
<path fill="none" stroke="midnightblue" d="M389.286,-114.404C438.367,-103.977 507.294,-89.333 553.469,-79.5231"/>
<polygon fill="midnightblue" stroke="midnightblue" points="388.493,-110.995 379.438,-116.497 389.947,-117.842 388.493,-110.995"/>
</g>
<!-- Node7&#45;&gt;Node6 -->
<g id="edge14" class="edge"><title>Node7&#45;&gt;Node6</title>
<path fill="none" stroke="midnightblue" d="M340.067,-55.6795C304.3,-45.307 255.337,-31.1078 222.286,-21.5231"/>
<polygon fill="midnightblue" stroke="midnightblue" points="339.202,-59.0728 349.782,-58.4966 341.152,-52.3498 339.202,-59.0728"/>
</g>
<!-- Node8 -->
<g id="node16" class="node"><title>Node8</title>
<a xlink:href="mainWindow_8cpp.html" target="_top" xlink:title="applications/base/mainWindow.cpp">
<polygon fill="none" stroke="black" points="295,-0.5 295,-21.5 477,-21.5 477,-0.5 295,-0.5"/>
<text text-anchor="middle" x="386" y="-8.5" font-family="FreeSans.ttf" font-size="10.00">applications/base/mainWindow.cpp</text>
</a>
</g>
<!-- Node7&#45;&gt;Node8 -->
<g id="edge16" class="edge"><title>Node7&#45;&gt;Node8</title>
<path fill="none" stroke="midnightblue" d="M386,-48.1906C386,-39.1684 386,-28.9941 386,-21.5707"/>
<polygon fill="midnightblue" stroke="midnightblue" points="382.5,-48.3619 386,-58.3619 389.5,-48.3619 382.5,-48.3619"/>
</g>
<!-- Node9 -->
<g id="node18" class="node"><title>Node9</title>
<a xlink:href="main__virecorder_8cpp.html" target="_top" xlink:title="applications/recorder/main_virecorder.cpp">
<polygon fill="none" stroke="black" points="494.5,-0.5 494.5,-21.5 711.5,-21.5 711.5,-0.5 494.5,-0.5"/>
<text text-anchor="middle" x="603" y="-8.5" font-family="FreeSans.ttf" font-size="10.00">applications/recorder/main_virecorder.cpp</text>
</a>
</g>
<!-- Node7&#45;&gt;Node9 -->
<g id="edge18" class="edge"><title>Node7&#45;&gt;Node9</title>
<path fill="none" stroke="midnightblue" d="M435.34,-55.8123C474.19,-45.4285 527.616,-31.1487 563.629,-21.5231"/>
<polygon fill="midnightblue" stroke="midnightblue" points="434.054,-52.5331 425.297,-58.4966 435.862,-59.2957 434.054,-52.5331"/>
</g>
<!-- Node10&#45;&gt;Node9 -->
<g id="edge22" class="edge"><title>Node10&#45;&gt;Node9</title>
<path fill="none" stroke="midnightblue" d="M603,-48.1906C603,-39.1684 603,-28.9941 603,-21.5707"/>
<polygon fill="midnightblue" stroke="midnightblue" points="599.5,-48.3619 603,-58.3619 606.5,-48.3619 599.5,-48.3619"/>
</g>
<!-- Node11 -->
<g id="node23" class="node"><title>Node11</title>
<a xlink:href="recorderDialog_8cpp.html" target="_top" xlink:title="Implements frame recording dialog based on BaseHostDialog.">
<polygon fill="none" stroke="black" points="728.5,-0.5 728.5,-21.5 939.5,-21.5 939.5,-0.5 728.5,-0.5"/>
<text text-anchor="middle" x="834" y="-8.5" font-family="FreeSans.ttf" font-size="10.00">applications/recorder/recorderDialog.cpp</text>
</a>
</g>
<!-- Node10&#45;&gt;Node11 -->
<g id="edge24" class="edge"><title>Node10&#45;&gt;Node11</title>
<path fill="none" stroke="midnightblue" d="M654.733,-56.0107C696.153,-45.6109 753.508,-31.2102 792.089,-21.5231"/>
<polygon fill="midnightblue" stroke="midnightblue" points="653.679,-52.6667 644.832,-58.4966 655.384,-59.456 653.679,-52.6667"/>
</g>
</g>
</svg>
        <g id="navigator" transform="translate(0 0)" fill="#404254">
                <rect fill="#f2f5e9" fill-opacity="0.5" stroke="#606060" stroke-width=".5" x="0" y="0" width="60" height="60"/>
                <use id="zoomplus" xlink:href="#zoomPlus" x="17" y="9" onmousedown="handleZoom(evt,'in')"/>
                <use id="zoomminus" xlink:href="#zoomMin" x="42" y="9" onmousedown="handleZoom(evt,'out')"/>
                <use id="reset" xlink:href="#resetDef" x="30" y="36" onmousedown="handleReset()"/>
                <g id="arrowUp" xlink:href="#dirArrow" transform="translate(30 24)" onmousedown="handlePan(0,-1)">
                  <use xlink:href="#rim" fill="#404040">
                        <set attributeName="fill" to="#808080" begin="arrowUp.mouseover" end="arrowUp.mouseout"/>
                  </use>
                  <path fill="none" stroke="white" stroke-width="1.5" d="M0,-3.0v7 M-2.5,-0.5L0,-3.0L2.5,-0.5"/>
                </g>
                <g id="arrowRight" xlink:href="#dirArrow" transform="rotate(90) translate(36 -43)" onmousedown="handlePan(1,0)">
                  <use xlink:href="#rim" fill="#404040">
                        <set attributeName="fill" to="#808080" begin="arrowRight.mouseover" end="arrowRight.mouseout"/>
                  </use>
                  <path fill="none" stroke="white" stroke-width="1.5" d="M0,-3.0v7 M-2.5,-0.5L0,-3.0L2.5,-0.5"/>
                </g>
                <g id="arrowDown" xlink:href="#dirArrow" transform="rotate(180) translate(-30 -48)" onmousedown="handlePan(0,1)">
                  <use xlink:href="#rim" fill="#404040">
                        <set attributeName="fill" to="#808080" begin="arrowDown.mouseover" end="arrowDown.mouseout"/>
                  </use>
                  <path fill="none" stroke="white" stroke-width="1.5" d="M0,-3.0v7 M-2.5,-0.5L0,-3.0L2.5,-0.5"/>
                </g>
                <g id="arrowLeft" xlink:href="#dirArrow" transform="rotate(270) translate(-36 17)" onmousedown="handlePan(-1,0)">
                  <use xlink:href="#rim" fill="#404040">
                        <set attributeName="fill" to="#808080" begin="arrowLeft.mouseover" end="arrowLeft.mouseout"/>
                  </use>
                  <path fill="none" stroke="white" stroke-width="1.5" d="M0,-3.0v7 M-2.5,-0.5L0,-3.0L2.5,-0.5"/>
                </g>
        </g>
</svg>
