<?xml version="1.0" encoding="UTF-8" standalone="no"?>
<!DOCTYPE svg PUBLIC "-//W3C//DTD SVG 1.1//EN"
 "http://www.w3.org/Graphics/SVG/1.1/DTD/svg11.dtd">
<!-- Generated by graphviz version 2.26.3 (20100126.1600)
 -->
<!-- Title: G Pages: 1 -->
<!--zoomable 668 -->
<svg id="main" version="1.1" xmlns="http://www.w3.org/2000/svg" xmlns:xlink="http://www.w3.org/1999/xlink" xml:space="preserve" onload="init(evt)">
        <defs>
                <circle id="rim" cx="0" cy="0" r="7"/>
                <circle id="rim2" cx="0" cy="0" r="3.5"/>
                <g id="zoomPlus">
                        <use xlink:href="#rim" fill="#404040">
                                <set attributeName="fill" to="#808080" begin="zoomplus.mouseover" end="zoomplus.mouseout"/>
                        </use>
                        <path d="M-4,0h8M0,-4v8" fill="none" stroke="white" stroke-width="1.5" pointer-events="none"/>
                </g>
                <g id="zoomMin">
                        <use xlink:href="#rim" fill="#404040">
                                <set attributeName="fill" to="#808080" begin="zoomminus.mouseover" end="zoomminus.mouseout"/>
                        </use>
                        <path d="M-4,0h8" fill="none" stroke="white" stroke-width="1.5" pointer-events="none"/>
                </g>
                <g id="dirArrow">
                        <path fill="none" stroke="white" stroke-width="1.5" d="M0,-3.0v7 M-2.5,-0.5L0,-3.0L2.5,-0.5"/>
                </g>
               <g id="resetDef">
                       <use xlink:href="#rim2" fill="#404040">
                               <set attributeName="fill" to="#808080" begin="reset.mouseover" end="reset.mouseout"/>
                       </use>
               </g>
        </defs>

<script type="text/javascript">
var viewWidth = 1223;
var viewHeight = 668;
var sectionId = 'dynsection-0';
</script>
<script xlink:href="svgpan.js"/>
<svg id="graph" class="graph">
<g id="viewport">
<title>G</title>
<!-- Node1 -->
<g id="node1" class="node"><title>Node1</title>
<polygon fill="#bfbfbf" stroke="black" points="281.5,-638.5 281.5,-659.5 462.5,-659.5 462.5,-638.5 281.5,-638.5"/>
<text text-anchor="middle" x="372" y="-646.5" font-family="FreeSans.ttf" font-size="10.00">core/buffers/commonMappers.cpp</text>
</g>
<!-- Node2 -->
<g id="node3" class="node"><title>Node2</title>
<a xlink:href="commonMappers_8h.html" target="_top" xlink:title="a header for CommonMappers.cpp">
<polygon fill="none" stroke="black" points="276,-580.5 276,-601.5 386,-601.5 386,-580.5 276,-580.5"/>
<text text-anchor="middle" x="331" y="-588.5" font-family="FreeSans.ttf" font-size="10.00">commonMappers.h</text>
</a>
</g>
<!-- Node1&#45;&gt;Node2 -->
<g id="edge2" class="edge"><title>Node1&#45;&gt;Node2</title>
<path fill="none" stroke="midnightblue" d="M364.48,-638.362C358.874,-630.431 351.068,-619.389 344.403,-609.961"/>
<polygon fill="midnightblue" stroke="midnightblue" points="347.103,-607.716 338.472,-601.571 341.387,-611.757 347.103,-607.716"/>
</g>
<!-- Node27 -->
<g id="node70" class="node"><title>Node27</title>
<a xlink:href="g12Buffer_8h.html" target="_top" xlink:title="This file holds the class description for 12 bit grayscale buffer.">
<polygon fill="none" stroke="black" points="378.5,-522.5 378.5,-543.5 449.5,-543.5 449.5,-522.5 378.5,-522.5"/>
<text text-anchor="middle" x="414" y="-530.5" font-family="FreeSans.ttf" font-size="10.00">g12Buffer.h</text>
</a>
</g>
<!-- Node1&#45;&gt;Node27 -->
<g id="edge128" class="edge"><title>Node1&#45;&gt;Node27</title>
<path fill="none" stroke="midnightblue" d="M377.883,-638.426C382.919,-629.062 390.111,-614.914 395,-602 400.97,-586.229 405.951,-567.787 409.312,-553.939"/>
<polygon fill="midnightblue" stroke="midnightblue" points="412.778,-554.491 411.649,-543.956 405.962,-552.895 412.778,-554.491"/>
</g>
<!-- Node3 -->
<g id="node5" class="node"><title>Node3</title>
<polygon fill="none" stroke="#bfbfbf" points="103.5,-290.5 103.5,-311.5 166.5,-311.5 166.5,-290.5 103.5,-290.5"/>
<text text-anchor="middle" x="135" y="-298.5" font-family="FreeSans.ttf" font-size="10.00">functional</text>
</g>
<!-- Node2&#45;&gt;Node3 -->
<g id="edge4" class="edge"><title>Node2&#45;&gt;Node3</title>
<path fill="none" stroke="midnightblue" d="M275.971,-583.322C181.849,-568.631 0,-532.771 0,-475 0,-475 0,-475 0,-417 0,-366.221 55.6247,-332.836 95.4631,-315.437"/>
<polygon fill="midnightblue" stroke="midnightblue" points="96.8363,-318.657 104.703,-311.56 94.128,-312.202 96.8363,-318.657"/>
</g>
<!-- Node4 -->
<g id="node7" class="node"><title>Node4</title>
<polygon fill="none" stroke="#bfbfbf" points="610.5,-58.5 610.5,-79.5 663.5,-79.5 663.5,-58.5 610.5,-58.5"/>
<text text-anchor="middle" x="637" y="-66.5" font-family="FreeSans.ttf" font-size="10.00">stdint.h</text>
</g>
<!-- Node2&#45;&gt;Node4 -->
<g id="edge6" class="edge"><title>Node2&#45;&gt;Node4</title>
<path fill="none" stroke="midnightblue" d="M386.208,-581.406C473.104,-564.718 632,-527.083 632,-475 632,-475 632,-475 632,-301 632,-223.098 634.853,-130.516 636.249,-89.8769"/>
<polygon fill="midnightblue" stroke="midnightblue" points="639.755,-89.752 636.608,-79.6355 632.759,-89.5067 639.755,-89.752"/>
</g>
<!-- Node5 -->
<g id="node9" class="node"><title>Node5</title>
<a xlink:href="abstractBuffer_8h.html" target="_top" xlink:title="a header for AbstractBuffer.cpp">
<polygon fill="none" stroke="black" points="339.5,-348.5 339.5,-369.5 432.5,-369.5 432.5,-348.5 339.5,-348.5"/>
<text text-anchor="middle" x="386" y="-356.5" font-family="FreeSans.ttf" font-size="10.00">abstractBuffer.h</text>
</a>
</g>
<!-- Node2&#45;&gt;Node5 -->
<g id="edge8" class="edge"><title>Node2&#45;&gt;Node5</title>
<path fill="none" stroke="midnightblue" d="M333.134,-580.092C338.805,-551.416 354.984,-471.598 372,-406 374.259,-397.29 377.039,-387.761 379.525,-379.574"/>
<polygon fill="midnightblue" stroke="midnightblue" points="382.947,-380.353 382.554,-369.766 376.259,-378.288 382.947,-380.353"/>
</g>
<!-- Node2&#45;&gt;Node27 -->
<g id="edge86" class="edge"><title>Node2&#45;&gt;Node27</title>
<path fill="none" stroke="midnightblue" d="M346.223,-580.362C358.625,-571.696 376.346,-559.313 390.557,-549.382"/>
<polygon fill="midnightblue" stroke="midnightblue" points="392.681,-552.168 398.873,-543.571 388.671,-546.43 392.681,-552.168"/>
</g>
<!-- Node5&#45;&gt;Node3 -->
<g id="edge18" class="edge"><title>Node5&#45;&gt;Node3</title>
<path fill="none" stroke="midnightblue" d="M339.318,-348.565C297.534,-339.173 234.621,-324.906 180,-312 178.943,-311.75 177.873,-311.496 176.793,-311.239"/>
<polygon fill="midnightblue" stroke="midnightblue" points="177.484,-307.806 166.943,-308.873 175.849,-314.612 177.484,-307.806"/>
</g>
<!-- Node5&#45;&gt;Node4 -->
<g id="edge10" class="edge"><title>Node5&#45;&gt;Node4</title>
<path fill="none" stroke="midnightblue" d="M392.279,-348.137C412.572,-313.197 476.661,-204.235 504,-174 536.76,-137.77 582.97,-104.369 611.404,-85.3662"/>
<polygon fill="midnightblue" stroke="midnightblue" points="613.55,-88.1438 619.972,-79.7172 609.696,-82.2998 613.55,-88.1438"/>
</g>
<!-- Node6 -->
<g id="node12" class="node"><title>Node6</title>
<polygon fill="none" stroke="#bfbfbf" points="935.5,-58.5 935.5,-79.5 984.5,-79.5 984.5,-58.5 935.5,-58.5"/>
<text text-anchor="middle" x="960" y="-66.5" font-family="FreeSans.ttf" font-size="10.00">stdio.h</text>
</g>
<!-- Node5&#45;&gt;Node6 -->
<g id="edge12" class="edge"><title>Node5&#45;&gt;Node6</title>
<path fill="none" stroke="midnightblue" d="M432.753,-349.324C435.539,-348.849 438.303,-348.403 441,-348 520.954,-336.058 733.537,-353.355 803,-312 847.801,-285.327 923.199,-142.087 950.097,-88.8988"/>
<polygon fill="midnightblue" stroke="midnightblue" points="953.311,-90.2993 954.673,-79.7924 947.056,-87.1567 953.311,-90.2993"/>
</g>
<!-- Node7 -->
<g id="node14" class="node"><title>Node7</title>
<polygon fill="none" stroke="#bfbfbf" points="687,-58.5 687,-79.5 743,-79.5 743,-58.5 687,-58.5"/>
<text text-anchor="middle" x="715" y="-66.5" font-family="FreeSans.ttf" font-size="10.00">stdarg.h</text>
</g>
<!-- Node5&#45;&gt;Node7 -->
<g id="edge14" class="edge"><title>Node5&#45;&gt;Node7</title>
<path fill="none" stroke="midnightblue" d="M398.099,-348.335C447.371,-304.904 633.206,-141.098 694.932,-86.6895"/>
<polygon fill="midnightblue" stroke="midnightblue" points="697.603,-89.0002 702.791,-79.7622 692.974,-83.749 697.603,-89.0002"/>
</g>
<!-- Node8 -->
<g id="node16" class="node"><title>Node8</title>
<polygon fill="none" stroke="#bfbfbf" points="782,-58.5 782,-79.5 826,-79.5 826,-58.5 782,-58.5"/>
<text text-anchor="middle" x="804" y="-66.5" font-family="FreeSans.ttf" font-size="10.00">string</text>
</g>
<!-- Node5&#45;&gt;Node8 -->
<g id="edge16" class="edge"><title>Node5&#45;&gt;Node8</title>
<path fill="none" stroke="midnightblue" d="M411.126,-348.5C464.49,-325.53 591.788,-267.142 684,-196 706.502,-178.639 760.355,-118.651 787.608,-87.7394"/>
<polygon fill="midnightblue" stroke="midnightblue" points="790.568,-89.6732 794.541,-79.8515 785.31,-85.0519 790.568,-89.6732"/>
</g>
<!-- Node9 -->
<g id="node19" class="node"><title>Node9</title>
<a xlink:href="global_8h.html" target="_top" xlink:title="This file holds the global includes, mostly for debuging, tracing and profiling.">
<polygon fill="none" stroke="black" points="270,-58.5 270,-79.5 324,-79.5 324,-58.5 270,-58.5"/>
<text text-anchor="middle" x="297" y="-66.5" font-family="FreeSans.ttf" font-size="10.00">global.h</text>
</a>
</g>
<!-- Node5&#45;&gt;Node9 -->
<g id="edge20" class="edge"><title>Node5&#45;&gt;Node9</title>
<path fill="none" stroke="midnightblue" d="M351.252,-348.333C329.783,-340.582 302.513,-328.542 282,-312 209.07,-253.188 186.963,-228.573 163,-138 160.499,-128.547 157.345,-123.976 163,-116 174.453,-99.8461 224.297,-85.4585 259.841,-76.9814"/>
<polygon fill="midnightblue" stroke="midnightblue" points="260.948,-80.3176 269.898,-74.6478 259.366,-73.4987 260.948,-80.3176"/>
</g>
<!-- Node11 -->
<g id="node23" class="node"><title>Node11</title>
<a xlink:href="vector2d_8h.html" target="_top" xlink:title="Add Comment Here.">
<polygon fill="none" stroke="black" points="726,-290.5 726,-311.5 794,-311.5 794,-290.5 726,-290.5"/>
<text text-anchor="middle" x="760" y="-298.5" font-family="FreeSans.ttf" font-size="10.00">vector2d.h</text>
</a>
</g>
<!-- Node5&#45;&gt;Node11 -->
<g id="edge24" class="edge"><title>Node5&#45;&gt;Node11</title>
<path fill="none" stroke="midnightblue" d="M432.77,-349.43C435.551,-348.928 438.31,-348.447 441,-348 560.858,-328.075 592.432,-333.594 712,-312 713.278,-311.769 714.573,-311.527 715.879,-311.276"/>
<polygon fill="midnightblue" stroke="midnightblue" points="716.897,-314.64 725.992,-309.206 715.493,-307.782 716.897,-314.64"/>
</g>
<!-- Node20 -->
<g id="node51" class="node"><title>Node20</title>
<a xlink:href="memoryBlock_8h.html" target="_top" xlink:title="Add Comment Here.">
<polygon fill="none" stroke="black" points="204.5,-174.5 204.5,-195.5 339.5,-195.5 339.5,-174.5 204.5,-174.5"/>
<text text-anchor="middle" x="272" y="-182.5" font-family="FreeSans.ttf" font-size="10.00">memory/memoryBlock.h</text>
</a>
</g>
<!-- Node5&#45;&gt;Node20 -->
<g id="edge62" class="edge"><title>Node5&#45;&gt;Node20</title>
<path fill="none" stroke="midnightblue" d="M351.507,-348.347C333.239,-340.974 311.961,-329.318 299,-312 275.482,-280.576 271.465,-233.144 271.302,-206.019"/>
<polygon fill="midnightblue" stroke="midnightblue" points="274.805,-205.784 271.422,-195.743 267.805,-205.702 274.805,-205.784"/>
</g>
<!-- Node24 -->
<g id="node61" class="node"><title>Node24</title>
<a xlink:href="tbbWrapper_8h.html" target="_top" xlink:title="This is a class that provides common TBB interface.">
<polygon fill="none" stroke="black" points="308,-290.5 308,-311.5 388,-311.5 388,-290.5 308,-290.5"/>
<text text-anchor="middle" x="348" y="-298.5" font-family="FreeSans.ttf" font-size="10.00">tbbWrapper.h</text>
</a>
</g>
<!-- Node5&#45;&gt;Node24 -->
<g id="edge74" class="edge"><title>Node5&#45;&gt;Node24</title>
<path fill="none" stroke="midnightblue" d="M379.03,-348.362C373.834,-340.431 366.599,-329.389 360.422,-319.961"/>
<polygon fill="midnightblue" stroke="midnightblue" points="363.334,-318.017 354.926,-311.571 357.478,-321.853 363.334,-318.017"/>
</g>
<!-- Node26 -->
<g id="node65" class="node"><title>Node26</title>
<a xlink:href="mathUtils_8h.html" target="_top" xlink:title="Add Comment Here.">
<polygon fill="none" stroke="black" points="380,-174.5 380,-195.5 452,-195.5 452,-174.5 380,-174.5"/>
<text text-anchor="middle" x="416" y="-182.5" font-family="FreeSans.ttf" font-size="10.00">mathUtils.h</text>
</a>
</g>
<!-- Node5&#45;&gt;Node26 -->
<g id="edge78" class="edge"><title>Node5&#45;&gt;Node26</title>
<path fill="none" stroke="midnightblue" d="M388.785,-348.226C391.176,-338.734 394.604,-324.511 397,-312 404.127,-274.783 410.166,-231.002 413.419,-205.779"/>
<polygon fill="midnightblue" stroke="midnightblue" points="416.926,-205.947 414.712,-195.586 409.982,-205.066 416.926,-205.947"/>
</g>
<!-- Node10 -->
<g id="node21" class="node"><title>Node10</title>
<polygon fill="none" stroke="#bfbfbf" points="265,-0.5 265,-21.5 329,-21.5 329,-0.5 265,-0.5"/>
<text text-anchor="middle" x="297" y="-8.5" font-family="FreeSans.ttf" font-size="10.00">inttypes.h</text>
</g>
<!-- Node9&#45;&gt;Node10 -->
<g id="edge22" class="edge"><title>Node9&#45;&gt;Node10</title>
<path fill="none" stroke="midnightblue" d="M297,-58.3619C297,-50.9219 297,-40.7427 297,-31.7276"/>
<polygon fill="midnightblue" stroke="midnightblue" points="300.5,-31.5706 297,-21.5707 293.5,-31.5707 300.5,-31.5706"/>
</g>
<!-- Node11&#45;&gt;Node4 -->
<g id="edge28" class="edge"><title>Node11&#45;&gt;Node4</title>
<path fill="none" stroke="midnightblue" d="M757.209,-290.267C749.186,-260.67 724.038,-176.11 684,-116 676.776,-105.155 666.781,-94.7325 657.864,-86.4701"/>
<polygon fill="midnightblue" stroke="midnightblue" points="660.193,-83.8578 650.402,-79.8089 655.531,-89.0796 660.193,-83.8578"/>
</g>
<!-- Node11&#45;&gt;Node9 -->
<g id="edge30" class="edge"><title>Node11&#45;&gt;Node9</title>
<path fill="none" stroke="midnightblue" d="M748.274,-290.356C712.788,-258.728 602.329,-164.5 494,-116 441.156,-92.3412 374.786,-79.6725 334.155,-73.6443"/>
<polygon fill="midnightblue" stroke="midnightblue" points="334.549,-70.1652 324.155,-72.2182 333.561,-77.0951 334.549,-70.1652"/>
</g>
<!-- Node12 -->
<g id="node25" class="node"><title>Node12</title>
<polygon fill="none" stroke="#bfbfbf" points="773.5,-116.5 773.5,-137.5 824.5,-137.5 824.5,-116.5 773.5,-116.5"/>
<text text-anchor="middle" x="799" y="-124.5" font-family="FreeSans.ttf" font-size="10.00">math.h</text>
</g>
<!-- Node11&#45;&gt;Node12 -->
<g id="edge26" class="edge"><title>Node11&#45;&gt;Node12</title>
<path fill="none" stroke="midnightblue" d="M762.381,-290.377C768.703,-262.172 785.997,-185.012 794.356,-147.72"/>
<polygon fill="midnightblue" stroke="midnightblue" points="797.779,-148.451 796.551,-137.928 790.948,-146.92 797.779,-148.451"/>
</g>
<!-- Node13 -->
<g id="node29" class="node"><title>Node13</title>
<a xlink:href="fixedVector_8h.html" target="_top" xlink:title="This file holds the description of the commonly used template &#45; a vector with the fixed number of com...">
<polygon fill="none" stroke="black" points="941,-232.5 941,-253.5 1019,-253.5 1019,-232.5 941,-232.5"/>
<text text-anchor="middle" x="980" y="-240.5" font-family="FreeSans.ttf" font-size="10.00">fixedVector.h</text>
</a>
</g>
<!-- Node11&#45;&gt;Node13 -->
<g id="edge32" class="edge"><title>Node11&#45;&gt;Node13</title>
<path fill="none" stroke="midnightblue" d="M794.375,-291.938C830.994,-282.283 889.286,-266.916 930.771,-255.979"/>
<polygon fill="midnightblue" stroke="midnightblue" points="931.891,-259.303 940.668,-253.369 930.107,-252.534 931.891,-259.303"/>
</g>
<!-- Node13&#45;&gt;Node6 -->
<g id="edge34" class="edge"><title>Node13&#45;&gt;Node6</title>
<path fill="none" stroke="midnightblue" d="M1003.38,-232.462C1017.67,-224.636 1034.74,-212.467 1043,-196 1047.38,-187.26 1046.21,-183.236 1043,-174 1030.61,-138.346 1000.53,-105.664 980.191,-86.5368"/>
<polygon fill="midnightblue" stroke="midnightblue" points="982.414,-83.8269 972.673,-79.6612 977.69,-88.9926 982.414,-83.8269"/>
</g>
<!-- Node14 -->
<g id="node32" class="node"><title>Node14</title>
<a xlink:href="vectorOperations_8h.html" target="_top" xlink:title="This file holds the operations that are commonly used with continuous linear data structures such as ...">
<polygon fill="none" stroke="black" points="926,-174.5 926,-195.5 1034,-195.5 1034,-174.5 926,-174.5"/>
<text text-anchor="middle" x="980" y="-182.5" font-family="FreeSans.ttf" font-size="10.00">vectorOperations.h</text>
</a>
</g>
<!-- Node13&#45;&gt;Node14 -->
<g id="edge36" class="edge"><title>Node13&#45;&gt;Node14</title>
<path fill="none" stroke="midnightblue" d="M980,-232.362C980,-224.922 980,-214.743 980,-205.728"/>
<polygon fill="midnightblue" stroke="midnightblue" points="983.5,-205.571 980,-195.571 976.5,-205.571 983.5,-205.571"/>
</g>
<!-- Node14&#45;&gt;Node6 -->
<g id="edge42" class="edge"><title>Node14&#45;&gt;Node6</title>
<path fill="none" stroke="midnightblue" d="M978.154,-174.295C974.85,-155.131 967.871,-114.654 963.594,-89.8434"/>
<polygon fill="midnightblue" stroke="midnightblue" points="966.99,-88.9391 961.841,-79.6792 960.091,-90.1285 966.99,-88.9391"/>
</g>
<!-- Node14&#45;&gt;Node12 -->
<g id="edge44" class="edge"><title>Node14&#45;&gt;Node12</title>
<path fill="none" stroke="midnightblue" d="M947.003,-174.486C919.241,-165.632 878.241,-152.537 834.326,-138.421"/>
<polygon fill="midnightblue" stroke="midnightblue" points="835.208,-135.028 824.617,-135.298 833.065,-141.692 835.208,-135.028"/>
</g>
<!-- Node15 -->
<g id="node34" class="node"><title>Node15</title>
<polygon fill="none" stroke="#bfbfbf" points="1073,-116.5 1073,-137.5 1115,-137.5 1115,-116.5 1073,-116.5"/>
<text text-anchor="middle" x="1094" y="-124.5" font-family="FreeSans.ttf" font-size="10.00">limits</text>
</g>
<!-- Node14&#45;&gt;Node15 -->
<g id="edge38" class="edge"><title>Node14&#45;&gt;Node15</title>
<path fill="none" stroke="midnightblue" d="M1000.64,-174.497C1018.37,-165.479 1044.14,-152.365 1064.12,-142.201"/>
<polygon fill="midnightblue" stroke="midnightblue" points="1065.8,-145.275 1073.12,-137.621 1062.62,-139.036 1065.8,-145.275"/>
</g>
<!-- Node16 -->
<g id="node36" class="node"><title>Node16</title>
<polygon fill="none" stroke="#bfbfbf" points="1132.5,-116.5 1132.5,-137.5 1191.5,-137.5 1191.5,-116.5 1132.5,-116.5"/>
<text text-anchor="middle" x="1162" y="-124.5" font-family="FreeSans.ttf" font-size="10.00">iostream</text>
</g>
<!-- Node14&#45;&gt;Node16 -->
<g id="edge40" class="edge"><title>Node14&#45;&gt;Node16</title>
<path fill="none" stroke="midnightblue" d="M1012.96,-174.497C1043.78,-164.675 1089.84,-149.994 1122.59,-139.558"/>
<polygon fill="midnightblue" stroke="midnightblue" points="1123.83,-142.836 1132.3,-136.465 1121.71,-136.167 1123.83,-142.836"/>
</g>
<!-- Node17 -->
<g id="node40" class="node"><title>Node17</title>
<a xlink:href="reflection_8h.html" target="_top" xlink:title="a header for Reflection.c">
<polygon fill="none" stroke="black" points="842,-116.5 842,-137.5 912,-137.5 912,-116.5 842,-116.5"/>
<text text-anchor="middle" x="877" y="-124.5" font-family="FreeSans.ttf" font-size="10.00">reflection.h</text>
</a>
</g>
<!-- Node14&#45;&gt;Node17 -->
<g id="edge46" class="edge"><title>Node14&#45;&gt;Node17</title>
<path fill="none" stroke="midnightblue" d="M961.108,-174.362C945.282,-165.45 922.477,-152.609 904.605,-142.545"/>
<polygon fill="midnightblue" stroke="midnightblue" points="906.203,-139.428 895.772,-137.571 902.768,-145.527 906.203,-139.428"/>
</g>
<!-- Node17&#45;&gt;Node4 -->
<g id="edge56" class="edge"><title>Node17&#45;&gt;Node4</title>
<path fill="none" stroke="midnightblue" d="M841.949,-118.181C838.923,-117.437 835.909,-116.701 833,-116 764.248,-99.423 746.608,-97.1656 678,-80 676.57,-79.6422 675.113,-79.2733 673.643,-78.897"/>
<polygon fill="midnightblue" stroke="midnightblue" points="674.432,-75.4858 663.872,-76.3494 672.666,-82.2593 674.432,-75.4858"/>
</g>
<!-- Node17&#45;&gt;Node6 -->
<g id="edge54" class="edge"><title>Node17&#45;&gt;Node6</title>
<path fill="none" stroke="midnightblue" d="M892.223,-116.362C904.625,-107.696 922.346,-95.3126 936.557,-85.3819"/>
<polygon fill="midnightblue" stroke="midnightblue" points="938.681,-88.1676 944.873,-79.5707 934.671,-82.4297 938.681,-88.1676"/>
</g>
<!-- Node17&#45;&gt;Node7 -->
<g id="edge58" class="edge"><title>Node17&#45;&gt;Node7</title>
<path fill="none" stroke="midnightblue" d="M847.663,-116.497C821.073,-106.977 781.736,-92.8933 752.799,-82.5329"/>
<polygon fill="midnightblue" stroke="midnightblue" points="753.629,-79.1127 743.035,-79.0371 751.27,-85.7031 753.629,-79.1127"/>
</g>
<!-- Node17&#45;&gt;Node8 -->
<g id="edge50" class="edge"><title>Node17&#45;&gt;Node8</title>
<path fill="none" stroke="midnightblue" d="M863.611,-116.362C852.909,-107.859 837.704,-95.7785 825.329,-85.9466"/>
<polygon fill="midnightblue" stroke="midnightblue" points="827.311,-83.0511 817.304,-79.5707 822.957,-88.5318 827.311,-83.0511"/>
</g>
<!-- Node17&#45;&gt;Node9 -->
<g id="edge60" class="edge"><title>Node17&#45;&gt;Node9</title>
<path fill="none" stroke="midnightblue" d="M841.559,-117.631C838.675,-117.024 835.796,-116.469 833,-116 647.504,-84.8796 422.219,-73.6379 334.489,-70.2565"/>
<polygon fill="midnightblue" stroke="midnightblue" points="334.366,-66.7495 324.242,-69.8735 334.104,-73.7446 334.366,-66.7495"/>
</g>
<!-- Node18 -->
<g id="node42" class="node"><title>Node18</title>
<polygon fill="none" stroke="#bfbfbf" points="853.5,-58.5 853.5,-79.5 900.5,-79.5 900.5,-58.5 853.5,-58.5"/>
<text text-anchor="middle" x="877" y="-66.5" font-family="FreeSans.ttf" font-size="10.00">vector</text>
</g>
<!-- Node17&#45;&gt;Node18 -->
<g id="edge48" class="edge"><title>Node17&#45;&gt;Node18</title>
<path fill="none" stroke="midnightblue" d="M877,-116.362C877,-108.922 877,-98.7427 877,-89.7276"/>
<polygon fill="midnightblue" stroke="midnightblue" points="880.5,-89.5706 877,-79.5707 873.5,-89.5707 880.5,-89.5706"/>
</g>
<!-- Node19 -->
<g id="node45" class="node"><title>Node19</title>
<polygon fill="none" stroke="#bfbfbf" points="1096.5,-58.5 1096.5,-79.5 1149.5,-79.5 1149.5,-58.5 1096.5,-58.5"/>
<text text-anchor="middle" x="1123" y="-66.5" font-family="FreeSans.ttf" font-size="10.00">string.h</text>
</g>
<!-- Node17&#45;&gt;Node19 -->
<g id="edge52" class="edge"><title>Node17&#45;&gt;Node19</title>
<path fill="none" stroke="midnightblue" d="M912.246,-118.69C958.537,-107.776 1039.43,-88.7039 1086.39,-77.632"/>
<polygon fill="midnightblue" stroke="midnightblue" points="1087.22,-81.0319 1096.15,-75.3304 1085.61,-74.2187 1087.22,-81.0319"/>
</g>
<!-- Node20&#45;&gt;Node4 -->
<g id="edge66" class="edge"><title>Node20&#45;&gt;Node4</title>
<path fill="none" stroke="midnightblue" d="M281.257,-174.339C295.439,-158.765 324.161,-130.119 355,-116 398.158,-96.2406 534.243,-79.7711 600.305,-72.7054"/>
<polygon fill="midnightblue" stroke="midnightblue" points="600.704,-76.1829 610.281,-71.6531 599.969,-69.2215 600.704,-76.1829"/>
</g>
<!-- Node20&#45;&gt;Node9 -->
<g id="edge70" class="edge"><title>Node20&#45;&gt;Node9</title>
<path fill="none" stroke="midnightblue" d="M230.177,-174.418C194.551,-163.26 151.925,-143.474 171,-116 181.468,-100.923 226.609,-86.6361 259.882,-77.8566"/>
<polygon fill="midnightblue" stroke="midnightblue" points="260.962,-81.193 269.776,-75.314 259.219,-74.4133 260.962,-81.193"/>
</g>
<!-- Node21 -->
<g id="node53" class="node"><title>Node21</title>
<polygon fill="none" stroke="#bfbfbf" points="179.5,-116.5 179.5,-137.5 214.5,-137.5 214.5,-116.5 179.5,-116.5"/>
<text text-anchor="middle" x="197" y="-124.5" font-family="FreeSans.ttf" font-size="10.00">new</text>
</g>
<!-- Node20&#45;&gt;Node21 -->
<g id="edge64" class="edge"><title>Node20&#45;&gt;Node21</title>
<path fill="none" stroke="midnightblue" d="M258.244,-174.362C247.249,-165.859 231.627,-153.779 218.914,-143.947"/>
<polygon fill="midnightblue" stroke="midnightblue" points="220.721,-140.919 210.669,-137.571 216.438,-146.457 220.721,-140.919"/>
</g>
<!-- Node22 -->
<g id="node56" class="node"><title>Node22</title>
<polygon fill="none" stroke="#bfbfbf" points="363.5,-116.5 363.5,-137.5 414.5,-137.5 414.5,-116.5 363.5,-116.5"/>
<text text-anchor="middle" x="389" y="-124.5" font-family="FreeSans.ttf" font-size="10.00">stdlib.h</text>
</g>
<!-- Node20&#45;&gt;Node22 -->
<g id="edge68" class="edge"><title>Node20&#45;&gt;Node22</title>
<path fill="none" stroke="midnightblue" d="M293.188,-174.497C311.462,-165.438 338.072,-152.246 358.615,-142.063"/>
<polygon fill="midnightblue" stroke="midnightblue" points="360.169,-145.199 367.574,-137.621 357.06,-138.927 360.169,-145.199"/>
</g>
<!-- Node23 -->
<g id="node59" class="node"><title>Node23</title>
<a xlink:href="atomicOps_8h.html" target="_top" xlink:title="atomicOps.h">
<polygon fill="none" stroke="black" points="231.5,-116.5 231.5,-137.5 308.5,-137.5 308.5,-116.5 231.5,-116.5"/>
<text text-anchor="middle" x="270" y="-124.5" font-family="FreeSans.ttf" font-size="10.00">atomicOps.h</text>
</a>
</g>
<!-- Node20&#45;&gt;Node23 -->
<g id="edge72" class="edge"><title>Node20&#45;&gt;Node23</title>
<path fill="none" stroke="midnightblue" d="M271.633,-174.362C271.377,-166.922 271.026,-156.743 270.715,-147.728"/>
<polygon fill="midnightblue" stroke="midnightblue" points="274.207,-147.444 270.365,-137.571 267.211,-147.685 274.207,-147.444"/>
</g>
<!-- Node25 -->
<g id="node63" class="node"><title>Node25</title>
<polygon fill="none" stroke="#bfbfbf" points="322,-232.5 322,-253.5 374,-253.5 374,-232.5 322,-232.5"/>
<text text-anchor="middle" x="348" y="-240.5" font-family="FreeSans.ttf" font-size="10.00">cstddef</text>
</g>
<!-- Node24&#45;&gt;Node25 -->
<g id="edge76" class="edge"><title>Node24&#45;&gt;Node25</title>
<path fill="none" stroke="midnightblue" d="M348,-290.362C348,-282.922 348,-272.743 348,-263.728"/>
<polygon fill="midnightblue" stroke="midnightblue" points="351.5,-263.571 348,-253.571 344.5,-263.571 351.5,-263.571"/>
</g>
<!-- Node26&#45;&gt;Node9 -->
<g id="edge82" class="edge"><title>Node26&#45;&gt;Node9</title>
<path fill="none" stroke="midnightblue" d="M421.164,-174.096C427.245,-159.493 435.086,-133.407 423,-116 412.532,-100.923 367.391,-86.6361 334.118,-77.8566"/>
<polygon fill="midnightblue" stroke="midnightblue" points="334.781,-74.4133 324.224,-75.314 333.038,-81.193 334.781,-74.4133"/>
</g>
<!-- Node26&#45;&gt;Node12 -->
<g id="edge80" class="edge"><title>Node26&#45;&gt;Node12</title>
<path fill="none" stroke="midnightblue" d="M452.032,-179.544C525.156,-168.47 690.213,-143.474 763.169,-132.426"/>
<polygon fill="midnightblue" stroke="midnightblue" points="763.88,-135.858 773.243,-130.901 762.832,-128.937 763.88,-135.858"/>
</g>
<!-- Node26&#45;&gt;Node22 -->
<g id="edge84" class="edge"><title>Node26&#45;&gt;Node22</title>
<path fill="none" stroke="midnightblue" d="M411.048,-174.362C407.47,-166.677 402.532,-156.069 398.236,-146.84"/>
<polygon fill="midnightblue" stroke="midnightblue" points="401.314,-145.159 393.921,-137.571 394.968,-148.114 401.314,-145.159"/>
</g>
<!-- Node27&#45;&gt;Node5 -->
<g id="edge92" class="edge"><title>Node27&#45;&gt;Node5</title>
<path fill="none" stroke="midnightblue" d="M407.978,-522.398C396.452,-500.934 372.77,-450.582 377,-406 377.829,-397.259 379.508,-387.724 381.193,-379.542"/>
<polygon fill="midnightblue" stroke="midnightblue" points="384.618,-380.261 383.341,-369.744 377.781,-378.762 384.618,-380.261"/>
</g>
<!-- Node27&#45;&gt;Node9 -->
<g id="edge90" class="edge"><title>Node27&#45;&gt;Node9</title>
<path fill="none" stroke="midnightblue" d="M378.288,-529.684C284.432,-519.988 38,-487.79 38,-417 38,-417 38,-417 38,-185 38,-146.331 58.4456,-136.869 91,-116 118.664,-98.266 208.499,-82.3347 259.938,-74.3684"/>
<polygon fill="midnightblue" stroke="midnightblue" points="260.631,-77.8033 269.99,-72.8373 259.577,-70.8831 260.631,-77.8033"/>
</g>
<!-- Node27&#45;&gt;Node16 -->
<g id="edge88" class="edge"><title>Node27&#45;&gt;Node16</title>
<path fill="none" stroke="midnightblue" d="M449.783,-531.085C585.199,-522.986 1062.75,-486.42 1145,-370 1193.58,-301.235 1176.88,-192.462 1167.06,-147.496"/>
<polygon fill="midnightblue" stroke="midnightblue" points="1170.46,-146.691 1164.81,-137.732 1163.64,-148.263 1170.46,-146.691"/>
</g>
<!-- Node28 -->
<g id="node75" class="node"><title>Node28</title>
<a xlink:href="abstractContiniousBuffer_8h.html" target="_top" xlink:title="a header for AbstractContiniousBuffer.c">
<polygon fill="none" stroke="black" points="385.5,-406.5 385.5,-427.5 528.5,-427.5 528.5,-406.5 385.5,-406.5"/>
<text text-anchor="middle" x="457" y="-414.5" font-family="FreeSans.ttf" font-size="10.00">abstractContiniousBuffer.h</text>
</a>
</g>
<!-- Node27&#45;&gt;Node28 -->
<g id="edge94" class="edge"><title>Node27&#45;&gt;Node28</title>
<path fill="none" stroke="midnightblue" d="M417.968,-522.295C425.136,-502.959 440.348,-461.923 449.521,-437.177"/>
<polygon fill="midnightblue" stroke="midnightblue" points="452.847,-438.272 453.041,-427.679 446.284,-435.839 452.847,-438.272"/>
</g>
<!-- Node30 -->
<g id="node81" class="node"><title>Node30</title>
<a xlink:href="fixedPointDisplace_8h.html" target="_top" xlink:title="A header for fixedPointDisplace.c.">
<polygon fill="none" stroke="black" points="453.5,-464.5 453.5,-485.5 566.5,-485.5 566.5,-464.5 453.5,-464.5"/>
<text text-anchor="middle" x="510" y="-472.5" font-family="FreeSans.ttf" font-size="10.00">fixedPointDisplace.h</text>
</a>
</g>
<!-- Node27&#45;&gt;Node30 -->
<g id="edge102" class="edge"><title>Node27&#45;&gt;Node30</title>
<path fill="none" stroke="midnightblue" d="M431.608,-522.362C446.223,-513.532 467.224,-500.844 483.811,-490.822"/>
<polygon fill="midnightblue" stroke="midnightblue" points="485.754,-493.738 492.504,-485.571 482.135,-487.746 485.754,-493.738"/>
</g>
<!-- Node28&#45;&gt;Node5 -->
<g id="edge98" class="edge"><title>Node28&#45;&gt;Node5</title>
<path fill="none" stroke="midnightblue" d="M443.978,-406.362C433.569,-397.859 418.781,-385.779 406.745,-375.947"/>
<polygon fill="midnightblue" stroke="midnightblue" points="408.899,-373.187 398.94,-369.571 404.47,-378.608 408.899,-373.187"/>
</g>
<!-- Node28&#45;&gt;Node9 -->
<g id="edge96" class="edge"><title>Node28&#45;&gt;Node9</title>
<path fill="none" stroke="midnightblue" d="M385.337,-409.94C274.97,-397.056 76,-364.958 76,-301 76,-301 76,-301 76,-185 76,-103.075 196.538,-78.8887 259.573,-71.8416"/>
<polygon fill="midnightblue" stroke="midnightblue" points="260.31,-75.2845 269.901,-70.7828 259.596,-68.321 260.31,-75.2845"/>
</g>
<!-- Node29 -->
<g id="node79" class="node"><title>Node29</title>
<polygon fill="none" stroke="#bfbfbf" points="450,-348.5 450,-369.5 506,-369.5 506,-348.5 450,-348.5"/>
<text text-anchor="middle" x="478" y="-356.5" font-family="FreeSans.ttf" font-size="10.00">matrix.h</text>
</g>
<!-- Node28&#45;&gt;Node29 -->
<g id="edge100" class="edge"><title>Node28&#45;&gt;Node29</title>
<path fill="none" stroke="midnightblue" d="M460.852,-406.362C463.605,-398.758 467.394,-388.294 470.71,-379.135"/>
<polygon fill="midnightblue" stroke="midnightblue" points="474.059,-380.165 474.173,-369.571 467.477,-377.782 474.059,-380.165"/>
</g>
<!-- Node30&#45;&gt;Node4 -->
<g id="edge104" class="edge"><title>Node30&#45;&gt;Node4</title>
<path fill="none" stroke="midnightblue" d="M528.598,-464.434C541.809,-456.076 559.075,-443.287 570,-428 588.879,-401.584 594,-391.469 594,-359 594,-359 594,-359 594,-243 594,-185.968 616.041,-121.412 628.562,-89.3378"/>
<polygon fill="midnightblue" stroke="midnightblue" points="631.928,-90.3481 632.398,-79.7637 625.43,-87.7446 631.928,-90.3481"/>
</g>
<!-- Node30&#45;&gt;Node9 -->
<g id="edge106" class="edge"><title>Node30&#45;&gt;Node9</title>
<path fill="none" stroke="midnightblue" d="M517.391,-464.366C530.394,-444.585 556,-400.379 556,-359 556,-359 556,-359 556,-243 556,-137.414 405.857,-91.7425 334.203,-75.9581"/>
<polygon fill="midnightblue" stroke="midnightblue" points="334.737,-72.4935 324.228,-73.8426 333.284,-79.3412 334.737,-72.4935"/>
</g>
<!-- Node30&#45;&gt;Node28 -->
<g id="edge108" class="edge"><title>Node30&#45;&gt;Node28</title>
<path fill="none" stroke="midnightblue" d="M500.279,-464.362C492.808,-456.186 482.314,-444.702 473.531,-435.091"/>
<polygon fill="midnightblue" stroke="midnightblue" points="475.989,-432.592 466.659,-427.571 470.821,-437.314 475.989,-432.592"/>
</g>
<!-- Node31 -->
<g id="node86" class="node"><title>Node31</title>
<a xlink:href="matrix33_8h.html" target="_top" xlink:title="This file holds the header for the commonly used structure &#45; a 3 by 3 matrix.">
<polygon fill="none" stroke="black" points="946,-406.5 946,-427.5 1014,-427.5 1014,-406.5 946,-406.5"/>
<text text-anchor="middle" x="980" y="-414.5" font-family="FreeSans.ttf" font-size="10.00">matrix33.h</text>
</a>
</g>
<!-- Node30&#45;&gt;Node31 -->
<g id="edge110" class="edge"><title>Node30&#45;&gt;Node31</title>
<path fill="none" stroke="midnightblue" d="M566.516,-465.926C571.075,-465.253 575.612,-464.602 580,-464 708.915,-446.304 861.781,-429.499 935.651,-421.641"/>
<polygon fill="midnightblue" stroke="midnightblue" points="936.389,-425.082 945.965,-420.547 935.651,-418.121 936.389,-425.082"/>
</g>
<!-- Node31&#45;&gt;Node12 -->
<g id="edge116" class="edge"><title>Node31&#45;&gt;Node12</title>
<path fill="none" stroke="midnightblue" d="M965.34,-406.313C941.754,-387.757 898,-347.119 898,-301 898,-301 898,-301 898,-243 898,-198.611 855.539,-162.611 826.232,-143.05"/>
<polygon fill="midnightblue" stroke="midnightblue" points="827.926,-139.978 817.621,-137.516 824.142,-145.867 827.926,-139.978"/>
</g>
<!-- Node31&#45;&gt;Node13 -->
<g id="edge126" class="edge"><title>Node31&#45;&gt;Node13</title>
<path fill="none" stroke="midnightblue" d="M980,-406.377C980,-378.293 980,-301.673 980,-264.203"/>
<polygon fill="midnightblue" stroke="midnightblue" points="983.5,-263.928 980,-253.928 976.5,-263.928 983.5,-263.928"/>
</g>
<!-- Node31&#45;&gt;Node15 -->
<g id="edge114" class="edge"><title>Node31&#45;&gt;Node15</title>
<path fill="none" stroke="midnightblue" d="M1004.86,-406.469C1040.01,-389.718 1100,-353.446 1100,-301 1100,-301 1100,-301 1100,-243 1100,-209.553 1097.48,-170.754 1095.71,-147.577"/>
<polygon fill="midnightblue" stroke="midnightblue" points="1099.19,-147.238 1094.91,-137.547 1092.21,-147.792 1099.19,-147.238"/>
</g>
<!-- Node31&#45;&gt;Node16 -->
<g id="edge112" class="edge"><title>Node31&#45;&gt;Node16</title>
<path fill="none" stroke="midnightblue" d="M1014.28,-408.362C1060.75,-394.356 1138,-361.913 1138,-301 1138,-301 1138,-301 1138,-243 1138,-208.913 1148.06,-170.338 1155.15,-147.376"/>
<polygon fill="midnightblue" stroke="midnightblue" points="1158.53,-148.313 1158.25,-137.721 1151.86,-146.175 1158.53,-148.313"/>
</g>
<!-- Node31&#45;&gt;Node19 -->
<g id="edge118" class="edge"><title>Node31&#45;&gt;Node19</title>
<path fill="none" stroke="midnightblue" d="M1014.07,-413.431C1045.64,-408.511 1092.23,-396.946 1123,-370 1144.53,-351.141 1140.86,-338.768 1151,-312 1182.81,-228.031 1243.94,-194.305 1200,-116 1191.18,-100.278 1174.72,-89.1926 1159.28,-81.7522"/>
<polygon fill="midnightblue" stroke="midnightblue" points="1160.43,-78.4355 1149.87,-77.5818 1157.6,-84.8347 1160.43,-78.4355"/>
</g>
<!-- Node32 -->
<g id="node92" class="node"><title>Node32</title>
<a xlink:href="vector3d_8h.html" target="_top" xlink:title="A 3 component vector.">
<polygon fill="none" stroke="black" points="802,-348.5 802,-369.5 870,-369.5 870,-348.5 802,-348.5"/>
<text text-anchor="middle" x="836" y="-356.5" font-family="FreeSans.ttf" font-size="10.00">vector3d.h</text>
</a>
</g>
<!-- Node31&#45;&gt;Node32 -->
<g id="edge120" class="edge"><title>Node31&#45;&gt;Node32</title>
<path fill="none" stroke="midnightblue" d="M953.923,-406.497C930.925,-397.234 897.2,-383.65 871.7,-373.379"/>
<polygon fill="midnightblue" stroke="midnightblue" points="872.953,-370.111 862.37,-369.621 870.338,-376.604 872.953,-370.111"/>
</g>
<!-- Node32&#45;&gt;Node11 -->
<g id="edge124" class="edge"><title>Node32&#45;&gt;Node11</title>
<path fill="none" stroke="midnightblue" d="M822.06,-348.362C810.812,-339.777 794.784,-327.546 781.835,-317.664"/>
<polygon fill="midnightblue" stroke="midnightblue" points="783.924,-314.855 773.851,-311.571 779.677,-320.42 783.924,-314.855"/>
</g>
<!-- Node32&#45;&gt;Node12 -->
<g id="edge122" class="edge"><title>Node32&#45;&gt;Node12</title>
<path fill="none" stroke="midnightblue" d="M836.741,-348.202C837.506,-334.585 838.295,-310.476 836,-290 830.157,-237.862 814.112,-178.068 805.19,-147.437"/>
<polygon fill="midnightblue" stroke="midnightblue" points="808.454,-146.133 802.257,-137.539 801.743,-148.121 808.454,-146.133"/>
</g>
</g>
</svg>
        <g id="navigator" transform="translate(0 0)" fill="#404254">
                <rect fill="#f2f5e9" fill-opacity="0.5" stroke="#606060" stroke-width=".5" x="0" y="0" width="60" height="60"/>
                <use id="zoomplus" xlink:href="#zoomPlus" x="17" y="9" onmousedown="handleZoom(evt,'in')"/>
                <use id="zoomminus" xlink:href="#zoomMin" x="42" y="9" onmousedown="handleZoom(evt,'out')"/>
                <use id="reset" xlink:href="#resetDef" x="30" y="36" onmousedown="handleReset()"/>
                <g id="arrowUp" xlink:href="#dirArrow" transform="translate(30 24)" onmousedown="handlePan(0,-1)">
                  <use xlink:href="#rim" fill="#404040">
                        <set attributeName="fill" to="#808080" begin="arrowUp.mouseover" end="arrowUp.mouseout"/>
                  </use>
                  <path fill="none" stroke="white" stroke-width="1.5" d="M0,-3.0v7 M-2.5,-0.5L0,-3.0L2.5,-0.5"/>
                </g>
                <g id="arrowRight" xlink:href="#dirArrow" transform="rotate(90) translate(36 -43)" onmousedown="handlePan(1,0)">
                  <use xlink:href="#rim" fill="#404040">
                        <set attributeName="fill" to="#808080" begin="arrowRight.mouseover" end="arrowRight.mouseout"/>
                  </use>
                  <path fill="none" stroke="white" stroke-width="1.5" d="M0,-3.0v7 M-2.5,-0.5L0,-3.0L2.5,-0.5"/>
                </g>
                <g id="arrowDown" xlink:href="#dirArrow" transform="rotate(180) translate(-30 -48)" onmousedown="handlePan(0,1)">
                  <use xlink:href="#rim" fill="#404040">
                        <set attributeName="fill" to="#808080" begin="arrowDown.mouseover" end="arrowDown.mouseout"/>
                  </use>
                  <path fill="none" stroke="white" stroke-width="1.5" d="M0,-3.0v7 M-2.5,-0.5L0,-3.0L2.5,-0.5"/>
                </g>
                <g id="arrowLeft" xlink:href="#dirArrow" transform="rotate(270) translate(-36 17)" onmousedown="handlePan(-1,0)">
                  <use xlink:href="#rim" fill="#404040">
                        <set attributeName="fill" to="#808080" begin="arrowLeft.mouseover" end="arrowLeft.mouseout"/>
                  </use>
                  <path fill="none" stroke="white" stroke-width="1.5" d="M0,-3.0v7 M-2.5,-0.5L0,-3.0L2.5,-0.5"/>
                </g>
        </g>
</svg>
