<?xml version="1.0" encoding="UTF-8" standalone="no"?>
<!DOCTYPE svg PUBLIC "-//W3C//DTD SVG 1.1//EN"
 "http://www.w3.org/Graphics/SVG/1.1/DTD/svg11.dtd">
<!-- Generated by graphviz version 2.26.3 (20100126.1600)
 -->
<!-- Title: G Pages: 1 -->
<!--zoomable 378 -->
<svg id="main" version="1.1" xmlns="http://www.w3.org/2000/svg" xmlns:xlink="http://www.w3.org/1999/xlink" xml:space="preserve" onload="init(evt)">
        <defs>
                <circle id="rim" cx="0" cy="0" r="7"/>
                <circle id="rim2" cx="0" cy="0" r="3.5"/>
                <g id="zoomPlus">
                        <use xlink:href="#rim" fill="#404040">
                                <set attributeName="fill" to="#808080" begin="zoomplus.mouseover" end="zoomplus.mouseout"/>
                        </use>
                        <path d="M-4,0h8M0,-4v8" fill="none" stroke="white" stroke-width="1.5" pointer-events="none"/>
                </g>
                <g id="zoomMin">
                        <use xlink:href="#rim" fill="#404040">
                                <set attributeName="fill" to="#808080" begin="zoomminus.mouseover" end="zoomminus.mouseout"/>
                        </use>
                        <path d="M-4,0h8" fill="none" stroke="white" stroke-width="1.5" pointer-events="none"/>
                </g>
                <g id="dirArrow">
                        <path fill="none" stroke="white" stroke-width="1.5" d="M0,-3.0v7 M-2.5,-0.5L0,-3.0L2.5,-0.5"/>
                </g>
               <g id="resetDef">
                       <use xlink:href="#rim2" fill="#404040">
                               <set attributeName="fill" to="#808080" begin="reset.mouseover" end="reset.mouseout"/>
                       </use>
               </g>
        </defs>

<script type="text/javascript">
var viewWidth = 1556;
var viewHeight = 378;
var sectionId = 'dynsection-1';
</script>
<script xlink:href="svgpan.js"/>
<svg id="graph" class="graph">
<g id="viewport">
<title>G</title>
<!-- Node1 -->
<g id="node1" class="node"><title>Node1</title>
<polygon fill="#bfbfbf" stroke="black" points="299.5,-348.5 299.5,-369.5 484.5,-369.5 484.5,-348.5 299.5,-348.5"/>
<text text-anchor="middle" x="392" y="-356.5" font-family="FreeSans.ttf" font-size="10.00">core/filters/blocks/compoundFilter.h</text>
</g>
<!-- Node2 -->
<g id="node3" class="node"><title>Node2</title>
<a xlink:href="compoundFilter_8cpp.html" target="_top" xlink:title="core/filters/blocks/compoundFilter.cpp">
<polygon fill="none" stroke="black" points="0,-290.5 0,-311.5 196,-311.5 196,-290.5 0,-290.5"/>
<text text-anchor="middle" x="98" y="-298.5" font-family="FreeSans.ttf" font-size="10.00">core/filters/blocks/compoundFilter.cpp</text>
</a>
</g>
<!-- Node1&#45;&gt;Node2 -->
<g id="edge2" class="edge"><title>Node1&#45;&gt;Node2</title>
<path fill="none" stroke="midnightblue" d="M328.815,-346.535C275.918,-336.099 201.275,-321.374 151.341,-311.523"/>
<polygon fill="midnightblue" stroke="midnightblue" points="328.27,-349.995 338.759,-348.497 329.625,-343.127 328.27,-349.995"/>
</g>
<!-- Node3 -->
<g id="node5" class="node"><title>Node3</title>
<a xlink:href="filterGraph_8cpp.html" target="_top" xlink:title="core/filters/blocks/filterGraph.cpp">
<polygon fill="none" stroke="black" points="213.5,-290.5 213.5,-311.5 386.5,-311.5 386.5,-290.5 213.5,-290.5"/>
<text text-anchor="middle" x="300" y="-298.5" font-family="FreeSans.ttf" font-size="10.00">core/filters/blocks/filterGraph.cpp</text>
</a>
</g>
<!-- Node1&#45;&gt;Node3 -->
<g id="edge4" class="edge"><title>Node1&#45;&gt;Node3</title>
<path fill="none" stroke="midnightblue" d="M366.338,-342.821C350.491,-332.831 330.613,-320.299 316.767,-311.571"/>
<polygon fill="midnightblue" stroke="midnightblue" points="364.8,-345.99 375.126,-348.362 368.533,-340.068 364.8,-345.99"/>
</g>
<!-- Node4 -->
<g id="node7" class="node"><title>Node4</title>
<a xlink:href="filtersCollection_8cpp.html" target="_top" xlink:title="core/filters/filtersCollection.cpp">
<polygon fill="none" stroke="black" points="403.5,-290.5 403.5,-311.5 566.5,-311.5 566.5,-290.5 403.5,-290.5"/>
<text text-anchor="middle" x="485" y="-298.5" font-family="FreeSans.ttf" font-size="10.00">core/filters/filtersCollection.cpp</text>
</a>
</g>
<!-- Node1&#45;&gt;Node4 -->
<g id="edge6" class="edge"><title>Node1&#45;&gt;Node4</title>
<path fill="none" stroke="midnightblue" d="M417.941,-342.821C433.96,-332.831 454.055,-320.299 468.051,-311.571"/>
<polygon fill="midnightblue" stroke="midnightblue" points="415.691,-340.1 409.058,-348.362 419.395,-346.04 415.691,-340.1"/>
</g>
<!-- Node5 -->
<g id="node9" class="node"><title>Node5</title>
<a xlink:href="compoundBlockPresentation_8h.html" target="_top" xlink:title="utils/filters/graph/compoundBlockPresentation.h">
<polygon fill="none" stroke="black" points="583.5,-290.5 583.5,-311.5 828.5,-311.5 828.5,-290.5 583.5,-290.5"/>
<text text-anchor="middle" x="706" y="-298.5" font-family="FreeSans.ttf" font-size="10.00">utils/filters/graph/compoundBlockPresentation.h</text>
</a>
</g>
<!-- Node1&#45;&gt;Node5 -->
<g id="edge8" class="edge"><title>Node1&#45;&gt;Node5</title>
<path fill="none" stroke="midnightblue" d="M458.78,-346.665C515.316,-336.222 595.478,-321.415 649.03,-311.523"/>
<polygon fill="midnightblue" stroke="midnightblue" points="458.061,-343.238 448.863,-348.497 459.332,-350.122 458.061,-343.238"/>
</g>
<!-- Node6 -->
<g id="node11" class="node"><title>Node6</title>
<a xlink:href="compoundBlockPresentation_8cpp.html" target="_top" xlink:title="utils/filters/graph/compoundBlockPresentation.cpp">
<polygon fill="none" stroke="black" points="443.5,-232.5 443.5,-253.5 700.5,-253.5 700.5,-232.5 443.5,-232.5"/>
<text text-anchor="middle" x="572" y="-240.5" font-family="FreeSans.ttf" font-size="10.00">utils/filters/graph/compoundBlockPresentation.cpp</text>
</a>
</g>
<!-- Node5&#45;&gt;Node6 -->
<g id="edge10" class="edge"><title>Node5&#45;&gt;Node6</title>
<path fill="none" stroke="midnightblue" d="M672.452,-286.479C648.864,-276.269 617.834,-262.839 596.539,-253.621"/>
<polygon fill="midnightblue" stroke="midnightblue" points="671.166,-289.736 681.734,-290.497 673.947,-283.312 671.166,-289.736"/>
</g>
<!-- Node7 -->
<g id="node13" class="node"><title>Node7</title>
<a xlink:href="filterPresentationsCollection_8h.html" target="_top" xlink:title="utils/filters/graph/filterPresentationsCollection.h">
<polygon fill="none" stroke="black" points="718,-232.5 718,-253.5 960,-253.5 960,-232.5 718,-232.5"/>
<text text-anchor="middle" x="839" y="-240.5" font-family="FreeSans.ttf" font-size="10.00">utils/filters/graph/filterPresentationsCollection.h</text>
</a>
</g>
<!-- Node5&#45;&gt;Node7 -->
<g id="edge12" class="edge"><title>Node5&#45;&gt;Node7</title>
<path fill="none" stroke="midnightblue" d="M739.297,-286.479C762.71,-276.269 793.508,-262.839 814.644,-253.621"/>
<polygon fill="midnightblue" stroke="midnightblue" points="737.853,-283.291 730.085,-290.497 740.651,-289.707 737.853,-283.291"/>
</g>
<!-- Node8 -->
<g id="node15" class="node"><title>Node8</title>
<a xlink:href="filterGraphPresentation_8h.html" target="_top" xlink:title="utils/filters/graph/filterGraphPresentation.h">
<polygon fill="none" stroke="black" points="602.5,-174.5 602.5,-195.5 821.5,-195.5 821.5,-174.5 602.5,-174.5"/>
<text text-anchor="middle" x="712" y="-182.5" font-family="FreeSans.ttf" font-size="10.00">utils/filters/graph/filterGraphPresentation.h</text>
</a>
</g>
<!-- Node7&#45;&gt;Node8 -->
<g id="edge14" class="edge"><title>Node7&#45;&gt;Node8</title>
<path fill="none" stroke="midnightblue" d="M806.607,-228.206C784.327,-218.031 755.26,-204.757 735.257,-195.621"/>
<polygon fill="midnightblue" stroke="midnightblue" points="805.451,-231.526 816.001,-232.497 808.359,-225.159 805.451,-231.526"/>
</g>
<!-- Node19 -->
<g id="node39" class="node"><title>Node19</title>
<a xlink:href="filterPresentationsCollection_8cpp.html" target="_top" xlink:title="utils/filters/graph/filterPresentationsCollection.cpp">
<polygon fill="none" stroke="black" points="838.5,-174.5 838.5,-195.5 1091.5,-195.5 1091.5,-174.5 838.5,-174.5"/>
<text text-anchor="middle" x="965" y="-182.5" font-family="FreeSans.ttf" font-size="10.00">utils/filters/graph/filterPresentationsCollection.cpp</text>
</a>
</g>
<!-- Node7&#45;&gt;Node19 -->
<g id="edge40" class="edge"><title>Node7&#45;&gt;Node19</title>
<path fill="none" stroke="midnightblue" d="M871.138,-228.206C893.243,-218.031 922.08,-204.757 941.926,-195.621"/>
<polygon fill="midnightblue" stroke="midnightblue" points="869.438,-225.136 861.818,-232.497 872.365,-231.494 869.438,-225.136"/>
</g>
<!-- Node9 -->
<g id="node17" class="node"><title>Node9</title>
<a xlink:href="diagramscene_8cpp.html" target="_top" xlink:title="utils/filters/graph/diagramscene.cpp">
<polygon fill="none" stroke="black" points="391,-116.5 391,-137.5 579,-137.5 579,-116.5 391,-116.5"/>
<text text-anchor="middle" x="485" y="-124.5" font-family="FreeSans.ttf" font-size="10.00">utils/filters/graph/diagramscene.cpp</text>
</a>
</g>
<!-- Node8&#45;&gt;Node9 -->
<g id="edge16" class="edge"><title>Node8&#45;&gt;Node9</title>
<path fill="none" stroke="midnightblue" d="M661.162,-172.011C620.46,-161.611 564.098,-147.21 526.185,-137.523"/>
<polygon fill="midnightblue" stroke="midnightblue" points="660.337,-175.412 670.892,-174.497 662.07,-168.63 660.337,-175.412"/>
</g>
<!-- Node10 -->
<g id="node19" class="node"><title>Node10</title>
<a xlink:href="filterGraphPresentation_8cpp.html" target="_top" xlink:title="utils/filters/graph/filterGraphPresentation.cpp">
<polygon fill="none" stroke="black" points="597,-116.5 597,-137.5 827,-137.5 827,-116.5 597,-116.5"/>
<text text-anchor="middle" x="712" y="-124.5" font-family="FreeSans.ttf" font-size="10.00">utils/filters/graph/filterGraphPresentation.cpp</text>
</a>
</g>
<!-- Node8&#45;&gt;Node10 -->
<g id="edge18" class="edge"><title>Node8&#45;&gt;Node10</title>
<path fill="none" stroke="midnightblue" d="M712,-164.191C712,-155.168 712,-144.994 712,-137.571"/>
<polygon fill="midnightblue" stroke="midnightblue" points="708.5,-164.362 712,-174.362 715.5,-164.362 708.5,-164.362"/>
</g>
<!-- Node11 -->
<g id="node21" class="node"><title>Node11</title>
<a xlink:href="baseHostDialog_8h.html" target="_top" xlink:title="applications/base/baseHostDialog.h">
<polygon fill="none" stroke="black" points="845,-116.5 845,-137.5 1033,-137.5 1033,-116.5 845,-116.5"/>
<text text-anchor="middle" x="939" y="-124.5" font-family="FreeSans.ttf" font-size="10.00">applications/base/baseHostDialog.h</text>
</a>
</g>
<!-- Node8&#45;&gt;Node11 -->
<g id="edge20" class="edge"><title>Node8&#45;&gt;Node11</title>
<path fill="none" stroke="midnightblue" d="M762.838,-172.011C803.54,-161.611 859.902,-147.21 897.815,-137.523"/>
<polygon fill="midnightblue" stroke="midnightblue" points="761.93,-168.63 753.108,-174.497 763.663,-175.412 761.93,-168.63"/>
</g>
<!-- Node12 -->
<g id="node23" class="node"><title>Node12</title>
<a xlink:href="baseHostDialog_8cpp.html" target="_top" xlink:title="Implements a basic host dialog that uses BaseCalculationThread to process captured data Extend or rei...">
<polygon fill="none" stroke="black" points="655.5,-58.5 655.5,-79.5 854.5,-79.5 854.5,-58.5 655.5,-58.5"/>
<text text-anchor="middle" x="755" y="-66.5" font-family="FreeSans.ttf" font-size="10.00">applications/base/baseHostDialog.cpp</text>
</a>
</g>
<!-- Node11&#45;&gt;Node12 -->
<g id="edge22" class="edge"><title>Node11&#45;&gt;Node12</title>
<path fill="none" stroke="midnightblue" d="M895.896,-113.413C863.067,-103.065 818.53,-89.0258 788.384,-79.5231"/>
<polygon fill="midnightblue" stroke="midnightblue" points="895.089,-116.828 905.679,-116.497 897.194,-110.152 895.089,-116.828"/>
</g>
<!-- Node13 -->
<g id="node25" class="node"><title>Node13</title>
<a xlink:href="main__vibase_8cpp.html" target="_top" xlink:title="applications/base/main_vibase.cpp">
<polygon fill="none" stroke="black" points="703.5,-0.5 703.5,-21.5 886.5,-21.5 886.5,-0.5 703.5,-0.5"/>
<text text-anchor="middle" x="795" y="-8.5" font-family="FreeSans.ttf" font-size="10.00">applications/base/main_vibase.cpp</text>
</a>
</g>
<!-- Node11&#45;&gt;Node13 -->
<g id="edge24" class="edge"><title>Node11&#45;&gt;Node13</title>
<path fill="none" stroke="midnightblue" d="M920.759,-109.176C905.728,-94.803 883.61,-74.3607 863,-58 846.14,-44.616 825.692,-30.7802 811.649,-21.6171"/>
<polygon fill="midnightblue" stroke="midnightblue" points="918.697,-112.05 928.325,-116.472 923.556,-107.011 918.697,-112.05"/>
</g>
<!-- Node14 -->
<g id="node27" class="node"><title>Node14</title>
<a xlink:href="mainWindow_8h.html" target="_top" xlink:title="applications/base/mainWindow.h">
<polygon fill="none" stroke="black" points="910,-58.5 910,-79.5 1080,-79.5 1080,-58.5 910,-58.5"/>
<text text-anchor="middle" x="995" y="-66.5" font-family="FreeSans.ttf" font-size="10.00">applications/base/mainWindow.h</text>
</a>
</g>
<!-- Node11&#45;&gt;Node14 -->
<g id="edge26" class="edge"><title>Node11&#45;&gt;Node14</title>
<path fill="none" stroke="midnightblue" d="M956.265,-109.118C965.612,-99.4377 976.839,-87.8098 984.794,-79.5707"/>
<polygon fill="midnightblue" stroke="midnightblue" points="953.699,-106.737 949.271,-116.362 958.735,-111.599 953.699,-106.737"/>
</g>
<!-- Node17 -->
<g id="node34" class="node"><title>Node17</title>
<a xlink:href="recorderDialog_8h.html" target="_top" xlink:title="Defines a recorder dialog class derived from BaseHostDialog.">
<polygon fill="none" stroke="black" points="1112,-58.5 1112,-79.5 1312,-79.5 1312,-58.5 1112,-58.5"/>
<text text-anchor="middle" x="1212" y="-66.5" font-family="FreeSans.ttf" font-size="10.00">applications/recorder/recorderDialog.h</text>
</a>
</g>
<!-- Node11&#45;&gt;Node17 -->
<g id="edge34" class="edge"><title>Node11&#45;&gt;Node17</title>
<path fill="none" stroke="midnightblue" d="M998.286,-114.404C1047.37,-103.977 1116.29,-89.333 1162.47,-79.5231"/>
<polygon fill="midnightblue" stroke="midnightblue" points="997.493,-110.995 988.438,-116.497 998.947,-117.842 997.493,-110.995"/>
</g>
<!-- Node14&#45;&gt;Node13 -->
<g id="edge28" class="edge"><title>Node14&#45;&gt;Node13</title>
<path fill="none" stroke="midnightblue" d="M949.067,-55.6795C913.3,-45.307 864.337,-31.1078 831.286,-21.5231"/>
<polygon fill="midnightblue" stroke="midnightblue" points="948.202,-59.0728 958.782,-58.4966 950.152,-52.3498 948.202,-59.0728"/>
</g>
<!-- Node15 -->
<g id="node30" class="node"><title>Node15</title>
<a xlink:href="mainWindow_8cpp.html" target="_top" xlink:title="applications/base/mainWindow.cpp">
<polygon fill="none" stroke="black" points="904,-0.5 904,-21.5 1086,-21.5 1086,-0.5 904,-0.5"/>
<text text-anchor="middle" x="995" y="-8.5" font-family="FreeSans.ttf" font-size="10.00">applications/base/mainWindow.cpp</text>
</a>
</g>
<!-- Node14&#45;&gt;Node15 -->
<g id="edge30" class="edge"><title>Node14&#45;&gt;Node15</title>
<path fill="none" stroke="midnightblue" d="M995,-48.1906C995,-39.1684 995,-28.9941 995,-21.5707"/>
<polygon fill="midnightblue" stroke="midnightblue" points="991.5,-48.3619 995,-58.3619 998.5,-48.3619 991.5,-48.3619"/>
</g>
<!-- Node16 -->
<g id="node32" class="node"><title>Node16</title>
<a xlink:href="main__virecorder_8cpp.html" target="_top" xlink:title="applications/recorder/main_virecorder.cpp">
<polygon fill="none" stroke="black" points="1103.5,-0.5 1103.5,-21.5 1320.5,-21.5 1320.5,-0.5 1103.5,-0.5"/>
<text text-anchor="middle" x="1212" y="-8.5" font-family="FreeSans.ttf" font-size="10.00">applications/recorder/main_virecorder.cpp</text>
</a>
</g>
<!-- Node14&#45;&gt;Node16 -->
<g id="edge32" class="edge"><title>Node14&#45;&gt;Node16</title>
<path fill="none" stroke="midnightblue" d="M1044.34,-55.8123C1083.19,-45.4285 1136.62,-31.1487 1172.63,-21.5231"/>
<polygon fill="midnightblue" stroke="midnightblue" points="1043.05,-52.5331 1034.3,-58.4966 1044.86,-59.2957 1043.05,-52.5331"/>
</g>
<!-- Node17&#45;&gt;Node16 -->
<g id="edge36" class="edge"><title>Node17&#45;&gt;Node16</title>
<path fill="none" stroke="midnightblue" d="M1212,-48.1906C1212,-39.1684 1212,-28.9941 1212,-21.5707"/>
<polygon fill="midnightblue" stroke="midnightblue" points="1208.5,-48.3619 1212,-58.3619 1215.5,-48.3619 1208.5,-48.3619"/>
</g>
<!-- Node18 -->
<g id="node37" class="node"><title>Node18</title>
<a xlink:href="recorderDialog_8cpp.html" target="_top" xlink:title="Implements frame recording dialog based on BaseHostDialog.">
<polygon fill="none" stroke="black" points="1337.5,-0.5 1337.5,-21.5 1548.5,-21.5 1548.5,-0.5 1337.5,-0.5"/>
<text text-anchor="middle" x="1443" y="-8.5" font-family="FreeSans.ttf" font-size="10.00">applications/recorder/recorderDialog.cpp</text>
</a>
</g>
<!-- Node17&#45;&gt;Node18 -->
<g id="edge38" class="edge"><title>Node17&#45;&gt;Node18</title>
<path fill="none" stroke="midnightblue" d="M1263.73,-56.0107C1305.15,-45.6109 1362.51,-31.2102 1401.09,-21.5231"/>
<polygon fill="midnightblue" stroke="midnightblue" points="1262.68,-52.6667 1253.83,-58.4966 1264.38,-59.456 1262.68,-52.6667"/>
</g>
</g>
</svg>
        <g id="navigator" transform="translate(0 0)" fill="#404254">
                <rect fill="#f2f5e9" fill-opacity="0.5" stroke="#606060" stroke-width=".5" x="0" y="0" width="60" height="60"/>
                <use id="zoomplus" xlink:href="#zoomPlus" x="17" y="9" onmousedown="handleZoom(evt,'in')"/>
                <use id="zoomminus" xlink:href="#zoomMin" x="42" y="9" onmousedown="handleZoom(evt,'out')"/>
                <use id="reset" xlink:href="#resetDef" x="30" y="36" onmousedown="handleReset()"/>
                <g id="arrowUp" xlink:href="#dirArrow" transform="translate(30 24)" onmousedown="handlePan(0,-1)">
                  <use xlink:href="#rim" fill="#404040">
                        <set attributeName="fill" to="#808080" begin="arrowUp.mouseover" end="arrowUp.mouseout"/>
                  </use>
                  <path fill="none" stroke="white" stroke-width="1.5" d="M0,-3.0v7 M-2.5,-0.5L0,-3.0L2.5,-0.5"/>
                </g>
                <g id="arrowRight" xlink:href="#dirArrow" transform="rotate(90) translate(36 -43)" onmousedown="handlePan(1,0)">
                  <use xlink:href="#rim" fill="#404040">
                        <set attributeName="fill" to="#808080" begin="arrowRight.mouseover" end="arrowRight.mouseout"/>
                  </use>
                  <path fill="none" stroke="white" stroke-width="1.5" d="M0,-3.0v7 M-2.5,-0.5L0,-3.0L2.5,-0.5"/>
                </g>
                <g id="arrowDown" xlink:href="#dirArrow" transform="rotate(180) translate(-30 -48)" onmousedown="handlePan(0,1)">
                  <use xlink:href="#rim" fill="#404040">
                        <set attributeName="fill" to="#808080" begin="arrowDown.mouseover" end="arrowDown.mouseout"/>
                  </use>
                  <path fill="none" stroke="white" stroke-width="1.5" d="M0,-3.0v7 M-2.5,-0.5L0,-3.0L2.5,-0.5"/>
                </g>
                <g id="arrowLeft" xlink:href="#dirArrow" transform="rotate(270) translate(-36 17)" onmousedown="handlePan(-1,0)">
                  <use xlink:href="#rim" fill="#404040">
                        <set attributeName="fill" to="#808080" begin="arrowLeft.mouseover" end="arrowLeft.mouseout"/>
                  </use>
                  <path fill="none" stroke="white" stroke-width="1.5" d="M0,-3.0v7 M-2.5,-0.5L0,-3.0L2.5,-0.5"/>
                </g>
        </g>
</svg>
