<?xml version="1.0" encoding="UTF-8" standalone="no"?>
<!DOCTYPE svg PUBLIC "-//W3C//DTD SVG 1.1//EN"
 "http://www.w3.org/Graphics/SVG/1.1/DTD/svg11.dtd">
<!-- Generated by graphviz version 2.26.3 (20100126.1600)
 -->
<!-- Title: G Pages: 1 -->
<!--zoomable 146 -->
<svg id="main" version="1.1" xmlns="http://www.w3.org/2000/svg" xmlns:xlink="http://www.w3.org/1999/xlink" xml:space="preserve" onload="init(evt)">
        <defs>
                <circle id="rim" cx="0" cy="0" r="7"/>
                <circle id="rim2" cx="0" cy="0" r="3.5"/>
                <g id="zoomPlus">
                        <use xlink:href="#rim" fill="#404040">
                                <set attributeName="fill" to="#808080" begin="zoomplus.mouseover" end="zoomplus.mouseout"/>
                        </use>
                        <path d="M-4,0h8M0,-4v8" fill="none" stroke="white" stroke-width="1.5" pointer-events="none"/>
                </g>
                <g id="zoomMin">
                        <use xlink:href="#rim" fill="#404040">
                                <set attributeName="fill" to="#808080" begin="zoomminus.mouseover" end="zoomminus.mouseout"/>
                        </use>
                        <path d="M-4,0h8" fill="none" stroke="white" stroke-width="1.5" pointer-events="none"/>
                </g>
                <g id="dirArrow">
                        <path fill="none" stroke="white" stroke-width="1.5" d="M0,-3.0v7 M-2.5,-0.5L0,-3.0L2.5,-0.5"/>
                </g>
               <g id="resetDef">
                       <use xlink:href="#rim2" fill="#404040">
                               <set attributeName="fill" to="#808080" begin="reset.mouseover" end="reset.mouseout"/>
                       </use>
               </g>
        </defs>

<script type="text/javascript">
var viewWidth = 959;
var viewHeight = 146;
var sectionId = 'dynsection-1';
</script>
<script xlink:href="svgpan.js"/>
<svg id="graph" class="graph">
<g id="viewport">
<title>G</title>
<!-- Node1 -->
<g id="node1" class="node"><title>Node1</title>
<polygon fill="#bfbfbf" stroke="black" points="480.5,-116.5 480.5,-137.5 711.5,-137.5 711.5,-116.5 480.5,-116.5"/>
<text text-anchor="middle" x="596" y="-124.5" font-family="FreeSans.ttf" font-size="10.00">utils/framesources/decoders/decoupleYUYV.h</text>
</g>
<!-- Node2 -->
<g id="node3" class="node"><title>Node2</title>
<a xlink:href="decoupleYUYV_8cpp.html" target="_top" xlink:title="utils/framesources/decoders/decoupleYUYV.cpp">
<polygon fill="none" stroke="black" points="0,-58.5 0,-79.5 242,-79.5 242,-58.5 0,-58.5"/>
<text text-anchor="middle" x="121" y="-66.5" font-family="FreeSans.ttf" font-size="10.00">utils/framesources/decoders/decoupleYUYV.cpp</text>
</a>
</g>
<!-- Node1&#45;&gt;Node2 -->
<g id="edge2" class="edge"><title>Node1&#45;&gt;Node2</title>
<path fill="none" stroke="midnightblue" d="M499.984,-115.276C414.241,-104.806 289.785,-89.6095 207.18,-79.5231"/>
<polygon fill="midnightblue" stroke="midnightblue" points="499.631,-118.759 509.981,-116.497 500.479,-111.81 499.631,-118.759"/>
</g>
<!-- Node3 -->
<g id="node5" class="node"><title>Node3</title>
<a xlink:href="directShowCaptureDecouple_8h.html" target="_top" xlink:title="utils/framesources/directShow/directShowCaptureDecouple.h">
<polygon fill="none" stroke="black" points="260,-58.5 260,-79.5 568,-79.5 568,-58.5 260,-58.5"/>
<text text-anchor="middle" x="414" y="-66.5" font-family="FreeSans.ttf" font-size="10.00">utils/framesources/directShow/directShowCaptureDecouple.h</text>
</a>
</g>
<!-- Node1&#45;&gt;Node3 -->
<g id="edge4" class="edge"><title>Node1&#45;&gt;Node3</title>
<path fill="none" stroke="midnightblue" d="M553.364,-113.413C520.892,-103.065 476.84,-89.0258 447.021,-79.5231"/>
<polygon fill="midnightblue" stroke="midnightblue" points="552.451,-116.795 563.041,-116.497 554.576,-110.125 552.451,-116.795"/>
</g>
<!-- Node4 -->
<g id="node7" class="node"><title>Node4</title>
<a xlink:href="directShowCaptureDecouple_8cpp.html" target="_top" xlink:title="utils/framesources/directShow/directShowCaptureDecouple.cpp">
<polygon fill="none" stroke="black" points="267,-0.5 267,-21.5 587,-21.5 587,-0.5 267,-0.5"/>
<text text-anchor="middle" x="427" y="-8.5" font-family="FreeSans.ttf" font-size="10.00">utils/framesources/directShow/directShowCaptureDecouple.cpp</text>
</a>
</g>
<!-- Node1&#45;&gt;Node4 -->
<g id="edge8" class="edge"><title>Node1&#45;&gt;Node4</title>
<path fill="none" stroke="midnightblue" d="M595.41,-106.338C593.889,-91.1048 589.432,-70.8742 577,-58 563.114,-43.6202 515.998,-30.3066 478.232,-21.5481"/>
<polygon fill="midnightblue" stroke="midnightblue" points="591.921,-106.622 596.07,-116.37 598.906,-106.162 591.921,-106.622"/>
</g>
<!-- Node5 -->
<g id="node10" class="node"><title>Node5</title>
<a xlink:href="V4L2CaptureDecouple_8h.html" target="_top" xlink:title="utils/framesources/v4l2/V4L2CaptureDecouple.h">
<polygon fill="none" stroke="black" points="623.5,-58.5 623.5,-79.5 870.5,-79.5 870.5,-58.5 623.5,-58.5"/>
<text text-anchor="middle" x="747" y="-66.5" font-family="FreeSans.ttf" font-size="10.00">utils/framesources/v4l2/V4L2CaptureDecouple.h</text>
</a>
</g>
<!-- Node1&#45;&gt;Node5 -->
<g id="edge10" class="edge"><title>Node1&#45;&gt;Node5</title>
<path fill="none" stroke="midnightblue" d="M632.776,-112.874C659.571,-102.582 695.29,-88.862 719.604,-79.5231"/>
<polygon fill="midnightblue" stroke="midnightblue" points="631.425,-109.644 623.345,-116.497 633.935,-116.178 631.425,-109.644"/>
</g>
<!-- Node6 -->
<g id="node12" class="node"><title>Node6</title>
<a xlink:href="V4L2CaptureDecouple_8cpp.html" target="_top" xlink:title="utils/framesources/v4l2/V4L2CaptureDecouple.cpp">
<polygon fill="none" stroke="black" points="693,-0.5 693,-21.5 951,-21.5 951,-0.5 693,-0.5"/>
<text text-anchor="middle" x="822" y="-8.5" font-family="FreeSans.ttf" font-size="10.00">utils/framesources/v4l2/V4L2CaptureDecouple.cpp</text>
</a>
</g>
<!-- Node1&#45;&gt;Node6 -->
<g id="edge14" class="edge"><title>Node1&#45;&gt;Node6</title>
<path fill="none" stroke="midnightblue" d="M708.593,-115.242C782.527,-106.355 867.62,-93.4259 879,-80 896.381,-59.4945 864.24,-35.1925 841.571,-21.5897"/>
<polygon fill="midnightblue" stroke="midnightblue" points="707.762,-111.816 698.244,-116.469 708.586,-118.767 707.762,-111.816"/>
</g>
<!-- Node3&#45;&gt;Node4 -->
<g id="edge6" class="edge"><title>Node3&#45;&gt;Node4</title>
<path fill="none" stroke="midnightblue" d="M418.598,-48.4876C420.636,-39.3924 422.949,-29.0756 424.631,-21.5707"/>
<polygon fill="midnightblue" stroke="midnightblue" points="415.156,-47.8385 416.384,-58.3619 421.987,-49.3695 415.156,-47.8385"/>
</g>
<!-- Node5&#45;&gt;Node6 -->
<g id="edge12" class="edge"><title>Node5&#45;&gt;Node6</title>
<path fill="none" stroke="midnightblue" d="M769.015,-51.9753C781.744,-42.1315 797.361,-30.0545 808.331,-21.5707"/>
<polygon fill="midnightblue" stroke="midnightblue" points="766.526,-49.4757 760.756,-58.3619 770.808,-55.0131 766.526,-49.4757"/>
</g>
</g>
</svg>
        <g id="navigator" transform="translate(0 0)" fill="#404254">
                <rect fill="#f2f5e9" fill-opacity="0.5" stroke="#606060" stroke-width=".5" x="0" y="0" width="60" height="60"/>
                <use id="zoomplus" xlink:href="#zoomPlus" x="17" y="9" onmousedown="handleZoom(evt,'in')"/>
                <use id="zoomminus" xlink:href="#zoomMin" x="42" y="9" onmousedown="handleZoom(evt,'out')"/>
                <use id="reset" xlink:href="#resetDef" x="30" y="36" onmousedown="handleReset()"/>
                <g id="arrowUp" xlink:href="#dirArrow" transform="translate(30 24)" onmousedown="handlePan(0,-1)">
                  <use xlink:href="#rim" fill="#404040">
                        <set attributeName="fill" to="#808080" begin="arrowUp.mouseover" end="arrowUp.mouseout"/>
                  </use>
                  <path fill="none" stroke="white" stroke-width="1.5" d="M0,-3.0v7 M-2.5,-0.5L0,-3.0L2.5,-0.5"/>
                </g>
                <g id="arrowRight" xlink:href="#dirArrow" transform="rotate(90) translate(36 -43)" onmousedown="handlePan(1,0)">
                  <use xlink:href="#rim" fill="#404040">
                        <set attributeName="fill" to="#808080" begin="arrowRight.mouseover" end="arrowRight.mouseout"/>
                  </use>
                  <path fill="none" stroke="white" stroke-width="1.5" d="M0,-3.0v7 M-2.5,-0.5L0,-3.0L2.5,-0.5"/>
                </g>
                <g id="arrowDown" xlink:href="#dirArrow" transform="rotate(180) translate(-30 -48)" onmousedown="handlePan(0,1)">
                  <use xlink:href="#rim" fill="#404040">
                        <set attributeName="fill" to="#808080" begin="arrowDown.mouseover" end="arrowDown.mouseout"/>
                  </use>
                  <path fill="none" stroke="white" stroke-width="1.5" d="M0,-3.0v7 M-2.5,-0.5L0,-3.0L2.5,-0.5"/>
                </g>
                <g id="arrowLeft" xlink:href="#dirArrow" transform="rotate(270) translate(-36 17)" onmousedown="handlePan(-1,0)">
                  <use xlink:href="#rim" fill="#404040">
                        <set attributeName="fill" to="#808080" begin="arrowLeft.mouseover" end="arrowLeft.mouseout"/>
                  </use>
                  <path fill="none" stroke="white" stroke-width="1.5" d="M0,-3.0v7 M-2.5,-0.5L0,-3.0L2.5,-0.5"/>
                </g>
        </g>
</svg>
