<?xml version="1.0" encoding="UTF-8" standalone="no"?>
<!DOCTYPE svg PUBLIC "-//W3C//DTD SVG 1.1//EN"
 "http://www.w3.org/Graphics/SVG/1.1/DTD/svg11.dtd">
<!-- Generated by graphviz version 2.26.3 (20100126.1600)
 -->
<!-- Title: G Pages: 1 -->
<!--zoomable 204 -->
<svg id="main" version="1.1" xmlns="http://www.w3.org/2000/svg" xmlns:xlink="http://www.w3.org/1999/xlink" xml:space="preserve" onload="init(evt)">
        <defs>
                <circle id="rim" cx="0" cy="0" r="7"/>
                <circle id="rim2" cx="0" cy="0" r="3.5"/>
                <g id="zoomPlus">
                        <use xlink:href="#rim" fill="#404040">
                                <set attributeName="fill" to="#808080" begin="zoomplus.mouseover" end="zoomplus.mouseout"/>
                        </use>
                        <path d="M-4,0h8M0,-4v8" fill="none" stroke="white" stroke-width="1.5" pointer-events="none"/>
                </g>
                <g id="zoomMin">
                        <use xlink:href="#rim" fill="#404040">
                                <set attributeName="fill" to="#808080" begin="zoomminus.mouseover" end="zoomminus.mouseout"/>
                        </use>
                        <path d="M-4,0h8" fill="none" stroke="white" stroke-width="1.5" pointer-events="none"/>
                </g>
                <g id="dirArrow">
                        <path fill="none" stroke="white" stroke-width="1.5" d="M0,-3.0v7 M-2.5,-0.5L0,-3.0L2.5,-0.5"/>
                </g>
               <g id="resetDef">
                       <use xlink:href="#rim2" fill="#404040">
                               <set attributeName="fill" to="#808080" begin="reset.mouseover" end="reset.mouseout"/>
                       </use>
               </g>
        </defs>

<script type="text/javascript">
var viewWidth = 9292;
var viewHeight = 204;
var sectionId = 'dynsection-1';
</script>
<script xlink:href="svgpan.js"/>
<svg id="graph" class="graph">
<g id="viewport">
<title>G</title>
<!-- Node1 -->
<g id="node1" class="node"><title>Node1</title>
<polygon fill="#bfbfbf" stroke="black" points="5499.5,-174.5 5499.5,-195.5 5658.5,-195.5 5658.5,-174.5 5499.5,-174.5"/>
<text text-anchor="middle" x="5579" y="-182.5" font-family="FreeSans.ttf" font-size="10.00">core/reflection/defaultSetter.h</text>
</g>
<!-- Node2 -->
<g id="node3" class="node"><title>Node2</title>
<a xlink:href="backgroundFilterParameters_8h.html" target="_top" xlink:title="core/xml/generated/backgroundFilterParameters.h">
<polygon fill="none" stroke="black" points="327.5,-116.5 327.5,-137.5 584.5,-137.5 584.5,-116.5 327.5,-116.5"/>
<text text-anchor="middle" x="456" y="-124.5" font-family="FreeSans.ttf" font-size="10.00">core/xml/generated/backgroundFilterParameters.h</text>
</a>
</g>
<!-- Node1&#45;&gt;Node2 -->
<g id="edge2" class="edge"><title>Node1&#45;&gt;Node2</title>
<path fill="none" stroke="midnightblue" d="M5489.32,-184.338C5024.21,-180.85 2839.5,-163.774 1052,-138 890.961,-135.678 705.462,-132.114 584.754,-129.676"/>
<polygon fill="midnightblue" stroke="midnightblue" points="5489.31,-187.838 5499.34,-184.413 5489.36,-180.838 5489.31,-187.838"/>
</g>
<!-- Node6 -->
<g id="node11" class="node"><title>Node6</title>
<a xlink:href="binarizeParameters_8h.html" target="_top" xlink:title="core/xml/generated/binarizeParameters.h">
<polygon fill="none" stroke="black" points="1060.5,-116.5 1060.5,-137.5 1275.5,-137.5 1275.5,-116.5 1060.5,-116.5"/>
<text text-anchor="middle" x="1168" y="-124.5" font-family="FreeSans.ttf" font-size="10.00">core/xml/generated/binarizeParameters.h</text>
</a>
</g>
<!-- Node1&#45;&gt;Node6 -->
<g id="edge10" class="edge"><title>Node1&#45;&gt;Node6</title>
<path fill="none" stroke="midnightblue" d="M5489.24,-184.136C5067.19,-180.023 3237.8,-161.648 1738,-138 1576.94,-135.46 1390.29,-131.704 1275.68,-129.304"/>
<polygon fill="midnightblue" stroke="midnightblue" points="5489.21,-187.636 5499.24,-184.233 5489.28,-180.636 5489.21,-187.636"/>
</g>
<!-- Node10 -->
<g id="node19" class="node"><title>Node10</title>
<a xlink:href="bitSelectorParameters_8h.html" target="_top" xlink:title="core/xml/generated/bitSelectorParameters.h">
<polygon fill="none" stroke="black" points="1747,-116.5 1747,-137.5 1977,-137.5 1977,-116.5 1747,-116.5"/>
<text text-anchor="middle" x="1862" y="-124.5" font-family="FreeSans.ttf" font-size="10.00">core/xml/generated/bitSelectorParameters.h</text>
</a>
</g>
<!-- Node1&#45;&gt;Node10 -->
<g id="edge18" class="edge"><title>Node1&#45;&gt;Node10</title>
<path fill="none" stroke="midnightblue" d="M5489.19,-183.837C5113.48,-178.935 3630.77,-159.231 2412,-138 2261.72,-135.382 2088.36,-131.826 1977.08,-129.474"/>
<polygon fill="midnightblue" stroke="midnightblue" points="5489.41,-187.34 5499.45,-183.971 5489.5,-180.34 5489.41,-187.34"/>
</g>
<!-- Node14 -->
<g id="node27" class="node"><title>Node14</title>
<a xlink:href="cannyParameters_8h.html" target="_top" xlink:title="core/xml/generated/cannyParameters.h">
<polygon fill="none" stroke="black" points="2421,-116.5 2421,-137.5 2627,-137.5 2627,-116.5 2421,-116.5"/>
<text text-anchor="middle" x="2524" y="-124.5" font-family="FreeSans.ttf" font-size="10.00">core/xml/generated/cannyParameters.h</text>
</a>
</g>
<!-- Node1&#45;&gt;Node14 -->
<g id="edge26" class="edge"><title>Node1&#45;&gt;Node14</title>
<path fill="none" stroke="midnightblue" d="M5489.29,-183.727C5152.49,-178.883 3931.32,-160.712 2925,-138 2823.69,-135.714 2708.01,-132.473 2627.01,-130.101"/>
<polygon fill="midnightblue" stroke="midnightblue" points="5489.42,-187.23 5499.47,-183.874 5489.53,-180.23 5489.42,-187.23"/>
</g>
<!-- Node18 -->
<g id="node35" class="node"><title>Node18</title>
<a xlink:href="sobelParameters_8h.html" target="_top" xlink:title="core/xml/generated/sobelParameters.h">
<polygon fill="none" stroke="black" points="2933.5,-116.5 2933.5,-137.5 3136.5,-137.5 3136.5,-116.5 2933.5,-116.5"/>
<text text-anchor="middle" x="3035" y="-124.5" font-family="FreeSans.ttf" font-size="10.00">core/xml/generated/sobelParameters.h</text>
</a>
</g>
<!-- Node1&#45;&gt;Node18 -->
<g id="edge34" class="edge"><title>Node1&#45;&gt;Node18</title>
<path fill="none" stroke="midnightblue" d="M5489.16,-184.234C5106.95,-180.825 3614.44,-165.959 3145,-138 3142.22,-137.835 3139.41,-137.653 3136.56,-137.456"/>
<polygon fill="midnightblue" stroke="midnightblue" points="5489.3,-187.735 5499.33,-184.324 5489.36,-180.735 5489.3,-187.735"/>
</g>
<!-- Node22 -->
<g id="node43" class="node"><title>Node22</title>
<a xlink:href="gainOffsetParameters_8h.html" target="_top" xlink:title="core/xml/generated/gainOffsetParameters.h">
<polygon fill="none" stroke="black" points="3153.5,-116.5 3153.5,-137.5 3380.5,-137.5 3380.5,-116.5 3153.5,-116.5"/>
<text text-anchor="middle" x="3267" y="-124.5" font-family="FreeSans.ttf" font-size="10.00">core/xml/generated/gainOffsetParameters.h</text>
</a>
</g>
<!-- Node1&#45;&gt;Node22 -->
<g id="edge42" class="edge"><title>Node1&#45;&gt;Node22</title>
<path fill="none" stroke="midnightblue" d="M5489.42,-183.897C5132.13,-179.372 3807.99,-161.357 3389,-138 3386.24,-137.846 3383.45,-137.679 3380.63,-137.502"/>
<polygon fill="midnightblue" stroke="midnightblue" points="5489.41,-187.397 5499.45,-184.024 5489.5,-180.398 5489.41,-187.397"/>
</g>
<!-- Node26 -->
<g id="node51" class="node"><title>Node26</title>
<a xlink:href="inputFilterParameters_8h.html" target="_top" xlink:title="core/xml/generated/inputFilterParameters.h">
<polygon fill="none" stroke="red" points="3398,-116.5 3398,-137.5 3622,-137.5 3622,-116.5 3398,-116.5"/>
<text text-anchor="middle" x="3510" y="-124.5" font-family="FreeSans.ttf" font-size="10.00">core/xml/generated/inputFilterParameters.h</text>
</a>
</g>
<!-- Node1&#45;&gt;Node26 -->
<g id="edge50" class="edge"><title>Node1&#45;&gt;Node26</title>
<path fill="none" stroke="midnightblue" d="M5489.26,-183.629C5157.4,-178.436 3999.85,-159.192 3631,-138 3628.05,-137.831 3625.06,-137.647 3622.05,-137.451"/>
<polygon fill="midnightblue" stroke="midnightblue" points="5489.25,-187.129 5499.3,-183.786 5489.36,-180.13 5489.25,-187.129"/>
</g>
<!-- Node28 -->
<g id="node55" class="node"><title>Node28</title>
<a xlink:href="outputFilterParameters_8h.html" target="_top" xlink:title="core/xml/generated/outputFilterParameters.h">
<polygon fill="none" stroke="red" points="3640,-116.5 3640,-137.5 3872,-137.5 3872,-116.5 3640,-116.5"/>
<text text-anchor="middle" x="3756" y="-124.5" font-family="FreeSans.ttf" font-size="10.00">core/xml/generated/outputFilterParameters.h</text>
</a>
</g>
<!-- Node1&#45;&gt;Node28 -->
<g id="edge54" class="edge"><title>Node1&#45;&gt;Node28</title>
<path fill="none" stroke="midnightblue" d="M5489.11,-184.413C5235.91,-182.35 4495.17,-173.491 3881,-138 3878.06,-137.83 3875.09,-137.648 3872.09,-137.455"/>
<polygon fill="midnightblue" stroke="midnightblue" points="5489.33,-187.915 5499.36,-184.495 5489.39,-180.915 5489.33,-187.915"/>
</g>
<!-- Node29 -->
<g id="node57" class="node"><title>Node29</title>
<a xlink:href="thickeningParameters_8h.html" target="_top" xlink:title="core/xml/generated/thickeningParameters.h">
<polygon fill="none" stroke="red" points="3889.5,-116.5 3889.5,-137.5 4116.5,-137.5 4116.5,-116.5 3889.5,-116.5"/>
<text text-anchor="middle" x="4003" y="-124.5" font-family="FreeSans.ttf" font-size="10.00">core/xml/generated/thickeningParameters.h</text>
</a>
</g>
<!-- Node1&#45;&gt;Node29 -->
<g id="edge56" class="edge"><title>Node1&#45;&gt;Node29</title>
<path fill="none" stroke="midnightblue" d="M5489.09,-183.894C5260.89,-180.696 4640.79,-169.563 4125,-138 4122.24,-137.831 4119.45,-137.651 4116.63,-137.461"/>
<polygon fill="midnightblue" stroke="midnightblue" points="5489.28,-187.397 5499.33,-184.036 5489.38,-180.398 5489.28,-187.397"/>
</g>
<!-- Node30 -->
<g id="node59" class="node"><title>Node30</title>
<a xlink:href="maskingParameters_8h.html" target="_top" xlink:title="core/xml/generated/maskingParameters.h">
<polygon fill="none" stroke="red" points="4134,-116.5 4134,-137.5 4352,-137.5 4352,-116.5 4134,-116.5"/>
<text text-anchor="middle" x="4243" y="-124.5" font-family="FreeSans.ttf" font-size="10.00">core/xml/generated/maskingParameters.h</text>
</a>
</g>
<!-- Node1&#45;&gt;Node30 -->
<g id="edge58" class="edge"><title>Node1&#45;&gt;Node30</title>
<path fill="none" stroke="midnightblue" d="M5489.23,-183.207C5287.42,-178.809 4782.59,-165.764 4361,-138 4358.13,-137.811 4355.21,-137.609 4352.27,-137.397"/>
<polygon fill="midnightblue" stroke="midnightblue" points="5489.4,-186.711 5499.48,-183.428 5489.55,-179.713 5489.4,-186.711"/>
</g>
<!-- Node31 -->
<g id="node61" class="node"><title>Node31</title>
<a xlink:href="defaultSetter_8cpp.html" target="_top" xlink:title="core/reflection/defaultSetter.cpp">
<polygon fill="none" stroke="black" points="4370,-116.5 4370,-137.5 4540,-137.5 4540,-116.5 4370,-116.5"/>
<text text-anchor="middle" x="4455" y="-124.5" font-family="FreeSans.ttf" font-size="10.00">core/reflection/defaultSetter.cpp</text>
</a>
</g>
<!-- Node1&#45;&gt;Node31 -->
<g id="edge60" class="edge"><title>Node1&#45;&gt;Node31</title>
<path fill="none" stroke="midnightblue" d="M5489.24,-183.044C5310.19,-178.67 4895.98,-166.183 4549,-138 4546.05,-137.761 4543.05,-137.5 4540.03,-137.224"/>
<polygon fill="midnightblue" stroke="midnightblue" points="5489.32,-186.547 5499.4,-183.29 5489.49,-179.549 5489.32,-186.547"/>
</g>
<!-- Node32 -->
<g id="node63" class="node"><title>Node32</title>
<a xlink:href="axisAlignedBoxParameters_8h.html" target="_top" xlink:title="core/xml/generated/axisAlignedBoxParameters.h">
<polygon fill="none" stroke="red" points="4558,-116.5 4558,-137.5 4808,-137.5 4808,-116.5 4558,-116.5"/>
<text text-anchor="middle" x="4683" y="-124.5" font-family="FreeSans.ttf" font-size="10.00">core/xml/generated/axisAlignedBoxParameters.h</text>
</a>
</g>
<!-- Node1&#45;&gt;Node32 -->
<g id="edge62" class="edge"><title>Node1&#45;&gt;Node32</title>
<path fill="none" stroke="midnightblue" d="M5489.43,-180.066C5346.97,-172.086 5060.04,-155.469 4817,-138 4814.09,-137.791 4811.14,-137.576 4808.17,-137.356"/>
<polygon fill="midnightblue" stroke="midnightblue" points="5489.25,-183.561 5499.43,-180.625 5489.64,-176.572 5489.25,-183.561"/>
</g>
<!-- Node33 -->
<g id="node65" class="node"><title>Node33</title>
<a xlink:href="headSearchParameters_8h.html" target="_top" xlink:title="core/xml/generated/headSearchParameters.h">
<polygon fill="none" stroke="red" points="4826,-116.5 4826,-137.5 5062,-137.5 5062,-116.5 4826,-116.5"/>
<text text-anchor="middle" x="4944" y="-124.5" font-family="FreeSans.ttf" font-size="10.00">core/xml/generated/headSearchParameters.h</text>
</a>
</g>
<!-- Node1&#45;&gt;Node33 -->
<g id="edge64" class="edge"><title>Node1&#45;&gt;Node33</title>
<path fill="none" stroke="midnightblue" d="M5489.23,-176.801C5376.46,-166.5 5182.77,-148.809 5059.18,-137.52"/>
<polygon fill="midnightblue" stroke="midnightblue" points="5488.94,-180.289 5499.22,-177.713 5489.58,-173.318 5488.94,-180.289"/>
</g>
<!-- Node34 -->
<g id="node67" class="node"><title>Node34</title>
<a xlink:href="makePreciseParameters_8h.html" target="_top" xlink:title="core/xml/generated/makePreciseParameters.h">
<polygon fill="none" stroke="red" points="5079.5,-116.5 5079.5,-137.5 5318.5,-137.5 5318.5,-116.5 5079.5,-116.5"/>
<text text-anchor="middle" x="5199" y="-124.5" font-family="FreeSans.ttf" font-size="10.00">core/xml/generated/makePreciseParameters.h</text>
</a>
</g>
<!-- Node1&#45;&gt;Node34 -->
<g id="edge66" class="edge"><title>Node1&#45;&gt;Node34</title>
<path fill="none" stroke="midnightblue" d="M5500.3,-172.988C5431.78,-162.529 5333.42,-147.517 5267.94,-137.523"/>
<polygon fill="midnightblue" stroke="midnightblue" points="5499.77,-176.448 5510.18,-174.497 5500.83,-169.528 5499.77,-176.448"/>
</g>
<!-- Node35 -->
<g id="node69" class="node"><title>Node35</title>
<a xlink:href="openCVFilterParameters_8h.html" target="_top" xlink:title="core/xml/generated/openCVFilterParameters.h">
<polygon fill="none" stroke="red" points="5336,-116.5 5336,-137.5 5574,-137.5 5574,-116.5 5336,-116.5"/>
<text text-anchor="middle" x="5455" y="-124.5" font-family="FreeSans.ttf" font-size="10.00">core/xml/generated/openCVFilterParameters.h</text>
</a>
</g>
<!-- Node1&#45;&gt;Node35 -->
<g id="edge68" class="edge"><title>Node1&#45;&gt;Node35</title>
<path fill="none" stroke="midnightblue" d="M5547.37,-170.206C5525.62,-160.031 5497.24,-146.757 5477.71,-137.621"/>
<polygon fill="midnightblue" stroke="midnightblue" points="5546,-173.43 5556.54,-174.497 5548.97,-167.089 5546,-173.43"/>
</g>
<!-- Node36 -->
<g id="node71" class="node"><title>Node36</title>
<a xlink:href="operationParameters_8h.html" target="_top" xlink:title="core/xml/generated/operationParameters.h">
<polygon fill="none" stroke="red" points="5592,-116.5 5592,-137.5 5816,-137.5 5816,-116.5 5592,-116.5"/>
<text text-anchor="middle" x="5704" y="-124.5" font-family="FreeSans.ttf" font-size="10.00">core/xml/generated/operationParameters.h</text>
</a>
</g>
<!-- Node1&#45;&gt;Node36 -->
<g id="edge70" class="edge"><title>Node1&#45;&gt;Node36</title>
<path fill="none" stroke="midnightblue" d="M5610.88,-170.206C5632.81,-160.031 5661.42,-146.757 5681.11,-137.621"/>
<polygon fill="midnightblue" stroke="midnightblue" points="5609.23,-167.113 5601.64,-174.497 5612.18,-173.462 5609.23,-167.113"/>
</g>
<!-- Node37 -->
<g id="node73" class="node"><title>Node37</title>
<a xlink:href="rgbColorParameters_8h.html" target="_top" xlink:title="core/xml/generated/rgbColorParameters.h">
<polygon fill="none" stroke="red" points="5872,-116.5 5872,-137.5 6090,-137.5 6090,-116.5 5872,-116.5"/>
<text text-anchor="middle" x="5981" y="-124.5" font-family="FreeSans.ttf" font-size="10.00">core/xml/generated/rgbColorParameters.h</text>
</a>
</g>
<!-- Node1&#45;&gt;Node37 -->
<g id="edge72" class="edge"><title>Node1&#45;&gt;Node37</title>
<path fill="none" stroke="midnightblue" d="M5661.81,-173.052C5734.32,-162.591 5838.65,-147.538 5908.06,-137.523"/>
<polygon fill="midnightblue" stroke="midnightblue" points="5661.2,-169.604 5651.8,-174.497 5662.2,-176.533 5661.2,-169.604"/>
</g>
<!-- Node38 -->
<g id="node75" class="node"><title>Node38</title>
<a xlink:href="draw3dParameters_8h.html" target="_top" xlink:title="utils/3d/generated/draw3dParameters.h">
<polygon fill="none" stroke="red" points="5797,-58.5 5797,-79.5 6003,-79.5 6003,-58.5 5797,-58.5"/>
<text text-anchor="middle" x="5900" y="-66.5" font-family="FreeSans.ttf" font-size="10.00">utils/3d/generated/draw3dParameters.h</text>
</a>
</g>
<!-- Node1&#45;&gt;Node38 -->
<g id="edge80" class="edge"><title>Node1&#45;&gt;Node38</title>
<path fill="none" stroke="midnightblue" d="M5668.72,-173.117C5727.36,-164.353 5797.92,-151.628 5825,-138 5853.61,-123.603 5879.25,-95.0718 5891.83,-79.5898"/>
<polygon fill="midnightblue" stroke="midnightblue" points="5668.06,-169.677 5658.67,-174.597 5669.08,-176.602 5668.06,-169.677"/>
</g>
<!-- Node39 -->
<g id="node77" class="node"><title>Node39</title>
<a xlink:href="draw3dCameraParameters_8h.html" target="_top" xlink:title="utils/3d/generated/draw3dCameraParameters.h">
<polygon fill="none" stroke="red" points="5909,-0.5 5909,-21.5 6153,-21.5 6153,-0.5 5909,-0.5"/>
<text text-anchor="middle" x="6031" y="-8.5" font-family="FreeSans.ttf" font-size="10.00">utils/3d/generated/draw3dCameraParameters.h</text>
</a>
</g>
<!-- Node1&#45;&gt;Node39 -->
<g id="edge82" class="edge"><title>Node1&#45;&gt;Node39</title>
<path fill="none" stroke="midnightblue" d="M5668.9,-183.337C5810.06,-179.783 6070.63,-169.051 6099,-138 6132.57,-101.257 6072.86,-44.8965 6044.61,-21.62"/>
<polygon fill="midnightblue" stroke="midnightblue" points="5668.44,-179.847 5658.53,-183.59 5668.61,-186.845 5668.44,-179.847"/>
</g>
<!-- Node40 -->
<g id="node82" class="node"><title>Node40</title>
<a xlink:href="draw3dViMouseParameters_8h.html" target="_top" xlink:title="utils/3d/generated/draw3dViMouseParameters.h">
<polygon fill="none" stroke="red" points="6146,-116.5 6146,-137.5 6392,-137.5 6392,-116.5 6146,-116.5"/>
<text text-anchor="middle" x="6269" y="-124.5" font-family="FreeSans.ttf" font-size="10.00">utils/3d/generated/draw3dViMouseParameters.h</text>
</a>
</g>
<!-- Node1&#45;&gt;Node40 -->
<g id="edge84" class="edge"><title>Node1&#45;&gt;Node40</title>
<path fill="none" stroke="midnightblue" d="M5668.87,-177.446C5790.7,-167.205 6008.75,-148.876 6145.78,-137.358"/>
<polygon fill="midnightblue" stroke="midnightblue" points="5668.5,-173.965 5658.83,-178.29 5669.08,-180.94 5668.5,-173.965"/>
</g>
<!-- Node41 -->
<g id="node84" class="node"><title>Node41</title>
<a xlink:href="openCVBMParameters_8h.html" target="_top" xlink:title="utils/corestructs/libWidgets/openCVBMParameters.h">
<polygon fill="none" stroke="red" points="6410,-116.5 6410,-137.5 6674,-137.5 6674,-116.5 6410,-116.5"/>
<text text-anchor="middle" x="6542" y="-124.5" font-family="FreeSans.ttf" font-size="10.00">utils/corestructs/libWidgets/openCVBMParameters.h</text>
</a>
</g>
<!-- Node1&#45;&gt;Node41 -->
<g id="edge86" class="edge"><title>Node1&#45;&gt;Node41</title>
<path fill="none" stroke="midnightblue" d="M5668.83,-180.475C5820.02,-172.721 6134.9,-155.986 6401,-138 6403.94,-137.801 6406.91,-137.597 6409.91,-137.388"/>
<polygon fill="midnightblue" stroke="midnightblue" points="5668.48,-176.988 5658.67,-180.995 5668.84,-183.979 5668.48,-176.988"/>
</g>
<!-- Node42 -->
<g id="node86" class="node"><title>Node42</title>
<a xlink:href="openCVSGMParameters_8h.html" target="_top" xlink:title="utils/corestructs/libWidgets/openCVSGMParameters.h">
<polygon fill="none" stroke="red" points="6692,-116.5 6692,-137.5 6964,-137.5 6964,-116.5 6692,-116.5"/>
<text text-anchor="middle" x="6828" y="-124.5" font-family="FreeSans.ttf" font-size="10.00">utils/corestructs/libWidgets/openCVSGMParameters.h</text>
</a>
</g>
<!-- Node1&#45;&gt;Node42 -->
<g id="edge88" class="edge"><title>Node1&#45;&gt;Node42</title>
<path fill="none" stroke="midnightblue" d="M5668.83,-182.186C5857.02,-176.068 6306.44,-160.293 6683,-138 6685.9,-137.828 6688.83,-137.65 6691.78,-137.466"/>
<polygon fill="midnightblue" stroke="midnightblue" points="5668.59,-178.692 5658.71,-182.514 5668.82,-185.688 5668.59,-178.692"/>
</g>
<!-- Node43 -->
<g id="node88" class="node"><title>Node43</title>
<a xlink:href="rectifyParameters_8h.html" target="_top" xlink:title="utils/rectifier/rectifyParameters.h">
<polygon fill="none" stroke="red" points="6982,-116.5 6982,-137.5 7154,-137.5 7154,-116.5 6982,-116.5"/>
<text text-anchor="middle" x="7068" y="-124.5" font-family="FreeSans.ttf" font-size="10.00">utils/rectifier/rectifyParameters.h</text>
</a>
</g>
<!-- Node1&#45;&gt;Node43 -->
<g id="edge90" class="edge"><title>Node1&#45;&gt;Node43</title>
<path fill="none" stroke="midnightblue" d="M5669.17,-184.505C5891.18,-182.733 6481.84,-174.654 6973,-138 6975.9,-137.784 6978.84,-137.546 6981.82,-137.29"/>
<polygon fill="midnightblue" stroke="midnightblue" points="5668.85,-181.007 5658.88,-184.585 5668.91,-188.007 5668.85,-181.007"/>
</g>
<!-- Node44 -->
<g id="node90" class="node"><title>Node44</title>
<a xlink:href="defaultSetterOld_8cpp.html" target="_top" xlink:title="utils/visitors/defaultSetterOld.cpp">
<polygon fill="none" stroke="black" points="7171.5,-116.5 7171.5,-137.5 7346.5,-137.5 7346.5,-116.5 7171.5,-116.5"/>
<text text-anchor="middle" x="7259" y="-124.5" font-family="FreeSans.ttf" font-size="10.00">utils/visitors/defaultSetterOld.cpp</text>
</a>
</g>
<!-- Node1&#45;&gt;Node44 -->
<g id="edge92" class="edge"><title>Node1&#45;&gt;Node44</title>
<path fill="none" stroke="midnightblue" d="M5668.86,-183.334C5959.04,-177.795 6869.26,-159.149 7163,-138 7165.76,-137.801 7168.56,-137.582 7171.39,-137.347"/>
<polygon fill="midnightblue" stroke="midnightblue" points="5668.73,-179.835 5658.8,-183.525 5668.86,-186.834 5668.73,-179.835"/>
</g>
<!-- Node45 -->
<g id="node92" class="node"><title>Node45</title>
<a xlink:href="graphPlotParameters_8h.html" target="_top" xlink:title="utils/widgets/generated/graphPlotParameters.h">
<polygon fill="none" stroke="red" points="7363.5,-116.5 7363.5,-137.5 7604.5,-137.5 7604.5,-116.5 7363.5,-116.5"/>
<text text-anchor="middle" x="7484" y="-124.5" font-family="FreeSans.ttf" font-size="10.00">utils/widgets/generated/graphPlotParameters.h</text>
</a>
</g>
<!-- Node1&#45;&gt;Node45 -->
<g id="edge94" class="edge"><title>Node1&#45;&gt;Node45</title>
<path fill="none" stroke="midnightblue" d="M5668.9,-184.481C5929.73,-182.576 6709.21,-174.048 7355,-138 7357.69,-137.85 7360.42,-137.689 7363.16,-137.52"/>
<polygon fill="midnightblue" stroke="midnightblue" points="5668.7,-180.983 5658.72,-184.554 5668.75,-187.982 5668.7,-180.983"/>
</g>
<!-- Node46 -->
<g id="node94" class="node"><title>Node46</title>
<a xlink:href="baseParameters_8h.html" target="_top" xlink:title="applications/base/generatedParameters/baseParameters.h">
<polygon fill="none" stroke="red" points="7621.5,-116.5 7621.5,-137.5 7920.5,-137.5 7920.5,-116.5 7621.5,-116.5"/>
<text text-anchor="middle" x="7771" y="-124.5" font-family="FreeSans.ttf" font-size="10.00">applications/base/generatedParameters/baseParameters.h</text>
</a>
</g>
<!-- Node1&#45;&gt;Node46 -->
<g id="edge96" class="edge"><title>Node1&#45;&gt;Node46</title>
<path fill="none" stroke="midnightblue" d="M5668.79,-184.411C5953.55,-182.225 6861.91,-172.805 7613,-138 7616.3,-137.847 7619.63,-137.685 7622.99,-137.513"/>
<polygon fill="midnightblue" stroke="midnightblue" points="5668.5,-180.913 5658.52,-184.489 5668.55,-187.913 5668.5,-180.913"/>
</g>
<!-- Node47 -->
<g id="node96" class="node"><title>Node47</title>
<a xlink:href="presentationParameters_8h.html" target="_top" xlink:title="applications/base/generatedParameters/presentationParameters.h">
<polygon fill="none" stroke="red" points="7938,-116.5 7938,-137.5 8274,-137.5 8274,-116.5 7938,-116.5"/>
<text text-anchor="middle" x="8106" y="-124.5" font-family="FreeSans.ttf" font-size="10.00">applications/base/generatedParameters/presentationParameters.h</text>
</a>
</g>
<!-- Node1&#45;&gt;Node47 -->
<g id="edge98" class="edge"><title>Node1&#45;&gt;Node47</title>
<path fill="none" stroke="midnightblue" d="M5669.02,-184.562C5981.55,-182.753 7048.63,-174.144 7929,-138 7932.69,-137.848 7936.43,-137.687 7940.19,-137.517"/>
<polygon fill="midnightblue" stroke="midnightblue" points="5668.65,-181.064 5658.67,-184.622 5668.69,-188.064 5668.65,-181.064"/>
</g>
<!-- Node48 -->
<g id="node98" class="node"><title>Node48</title>
<a xlink:href="parametersMapperBase_8h.html" target="_top" xlink:title="applications/base/parametersMapper/parametersMapperBase.h">
<polygon fill="none" stroke="red" points="8291.5,-116.5 8291.5,-137.5 8614.5,-137.5 8614.5,-116.5 8291.5,-116.5"/>
<text text-anchor="middle" x="8453" y="-124.5" font-family="FreeSans.ttf" font-size="10.00">applications/base/parametersMapper/parametersMapperBase.h</text>
</a>
</g>
<!-- Node1&#45;&gt;Node48 -->
<g id="edge100" class="edge"><title>Node1&#45;&gt;Node48</title>
<path fill="none" stroke="midnightblue" d="M5668.82,-184.01C6076.65,-179.429 7756.84,-159.583 8283,-138 8286.69,-137.848 8290.43,-137.686 8294.2,-137.513"/>
<polygon fill="midnightblue" stroke="midnightblue" points="5668.52,-180.513 5658.56,-184.125 5668.6,-187.513 5668.52,-180.513"/>
</g>
<!-- Node49 -->
<g id="node100" class="node"><title>Node49</title>
<a xlink:href="recorder_8h.html" target="_top" xlink:title="applications/recorder/generatedParameters/recorder.h">
<polygon fill="none" stroke="red" points="8631.5,-116.5 8631.5,-137.5 8908.5,-137.5 8908.5,-116.5 8631.5,-116.5"/>
<text text-anchor="middle" x="8770" y="-124.5" font-family="FreeSans.ttf" font-size="10.00">applications/recorder/generatedParameters/recorder.h</text>
</a>
</g>
<!-- Node1&#45;&gt;Node49 -->
<g id="edge102" class="edge"><title>Node1&#45;&gt;Node49</title>
<path fill="none" stroke="midnightblue" d="M5668.75,-184.333C6107.09,-180.967 8025.78,-164.932 8623,-138 8626.32,-137.85 8629.69,-137.687 8633.08,-137.513"/>
<polygon fill="midnightblue" stroke="midnightblue" points="5668.65,-180.834 5658.68,-184.41 5668.7,-187.834 5668.65,-180.834"/>
</g>
<!-- Node50 -->
<g id="node102" class="node"><title>Node50</title>
<a xlink:href="parametersMapperRecorder_8h.html" target="_top" xlink:title="applications/recorder/parametersMapper/parametersMapperRecorder.h">
<polygon fill="none" stroke="red" points="8926,-116.5 8926,-137.5 9284,-137.5 9284,-116.5 8926,-116.5"/>
<text text-anchor="middle" x="9105" y="-124.5" font-family="FreeSans.ttf" font-size="10.00">applications/recorder/parametersMapper/parametersMapperRecorder.h</text>
</a>
</g>
<!-- Node1&#45;&gt;Node50 -->
<g id="edge104" class="edge"><title>Node1&#45;&gt;Node50</title>
<path fill="none" stroke="midnightblue" d="M5668.93,-184.275C6132.73,-180.452 8257.95,-161.909 8917,-138 8921.25,-137.846 8925.55,-137.679 8929.89,-137.501"/>
<polygon fill="midnightblue" stroke="midnightblue" points="5668.59,-180.777 5658.61,-184.36 5668.64,-187.777 5668.59,-180.777"/>
</g>
<!-- Node3 -->
<g id="node5" class="node"><title>Node3</title>
<a xlink:href="backgroundFilter_8h.html" target="_top" xlink:title="Add Comment Here.">
<polygon fill="none" stroke="red" points="-0.5,-58.5 -0.5,-79.5 156.5,-79.5 156.5,-58.5 -0.5,-58.5"/>
<text text-anchor="middle" x="78" y="-66.5" font-family="FreeSans.ttf" font-size="10.00">core/filters/backgroundFilter.h</text>
</a>
</g>
<!-- Node2&#45;&gt;Node3 -->
<g id="edge4" class="edge"><title>Node2&#45;&gt;Node3</title>
<path fill="none" stroke="midnightblue" d="M377.294,-114.923C309.151,-104.468 211.583,-89.4969 146.581,-79.5231"/>
<polygon fill="midnightblue" stroke="midnightblue" points="377.132,-118.439 387.547,-116.497 378.194,-111.52 377.132,-118.439"/>
</g>
<!-- Node4 -->
<g id="node7" class="node"><title>Node4</title>
<a xlink:href="backgroundFilterParameters_8cpp.html" target="_top" xlink:title="core/xml/generated/backgroundFilterParameters.cpp">
<polygon fill="none" stroke="black" points="174,-58.5 174,-79.5 442,-79.5 442,-58.5 174,-58.5"/>
<text text-anchor="middle" x="308" y="-66.5" font-family="FreeSans.ttf" font-size="10.00">core/xml/generated/backgroundFilterParameters.cpp</text>
</a>
</g>
<!-- Node2&#45;&gt;Node4 -->
<g id="edge6" class="edge"><title>Node2&#45;&gt;Node4</title>
<path fill="none" stroke="midnightblue" d="M419.64,-112.751C393.505,-102.509 358.832,-88.9206 335.102,-79.6212"/>
<polygon fill="midnightblue" stroke="midnightblue" points="418.611,-116.107 429.198,-116.497 421.165,-109.589 418.611,-116.107"/>
</g>
<!-- Node5 -->
<g id="node9" class="node"><title>Node5</title>
<a xlink:href="backgroundFilterParametersControlWidget_8h.html" target="_top" xlink:title="utils/filters/ui/backgroundFilterParametersControlWidget.h">
<polygon fill="none" stroke="red" points="460,-58.5 460,-79.5 750,-79.5 750,-58.5 460,-58.5"/>
<text text-anchor="middle" x="605" y="-66.5" font-family="FreeSans.ttf" font-size="10.00">utils/filters/ui/backgroundFilterParametersControlWidget.h</text>
</a>
</g>
<!-- Node2&#45;&gt;Node5 -->
<g id="edge8" class="edge"><title>Node2&#45;&gt;Node5</title>
<path fill="none" stroke="midnightblue" d="M492.637,-112.739C519.038,-102.462 554.08,-88.821 577.967,-79.5231"/>
<polygon fill="midnightblue" stroke="midnightblue" points="491.032,-109.607 482.983,-116.497 493.571,-116.131 491.032,-109.607"/>
</g>
<!-- Node7 -->
<g id="node13" class="node"><title>Node7</title>
<a xlink:href="binarizeBlock_8h.html" target="_top" xlink:title="Add Comment Here.">
<polygon fill="none" stroke="red" points="768,-58.5 768,-79.5 910,-79.5 910,-58.5 768,-58.5"/>
<text text-anchor="middle" x="839" y="-66.5" font-family="FreeSans.ttf" font-size="10.00">core/filters/binarizeBlock.h</text>
</a>
</g>
<!-- Node6&#45;&gt;Node7 -->
<g id="edge12" class="edge"><title>Node6&#45;&gt;Node7</title>
<path fill="none" stroke="midnightblue" d="M1098.4,-114.73C1039.14,-104.283 954.918,-89.4354 898.691,-79.5231"/>
<polygon fill="midnightblue" stroke="midnightblue" points="1097.96,-118.207 1108.42,-116.497 1099.18,-111.314 1097.96,-118.207"/>
</g>
<!-- Node8 -->
<g id="node15" class="node"><title>Node8</title>
<a xlink:href="binarizeParameters_8cpp.html" target="_top" xlink:title="core/xml/generated/binarizeParameters.cpp">
<polygon fill="none" stroke="black" points="927.5,-58.5 927.5,-79.5 1154.5,-79.5 1154.5,-58.5 927.5,-58.5"/>
<text text-anchor="middle" x="1041" y="-66.5" font-family="FreeSans.ttf" font-size="10.00">core/xml/generated/binarizeParameters.cpp</text>
</a>
</g>
<!-- Node6&#45;&gt;Node8 -->
<g id="edge14" class="edge"><title>Node6&#45;&gt;Node8</title>
<path fill="none" stroke="midnightblue" d="M1135.61,-112.206C1113.33,-102.031 1084.26,-88.7567 1064.26,-79.6212"/>
<polygon fill="midnightblue" stroke="midnightblue" points="1134.45,-115.526 1145,-116.497 1137.36,-109.159 1134.45,-115.526"/>
</g>
<!-- Node9 -->
<g id="node17" class="node"><title>Node9</title>
<a xlink:href="binarizeParametersControlWidget_8h.html" target="_top" xlink:title="utils/filters/ui/binarizeParametersControlWidget.h">
<polygon fill="none" stroke="red" points="1172,-58.5 1172,-79.5 1420,-79.5 1420,-58.5 1172,-58.5"/>
<text text-anchor="middle" x="1296" y="-66.5" font-family="FreeSans.ttf" font-size="10.00">utils/filters/ui/binarizeParametersControlWidget.h</text>
</a>
</g>
<!-- Node6&#45;&gt;Node9 -->
<g id="edge16" class="edge"><title>Node6&#45;&gt;Node9</title>
<path fill="none" stroke="midnightblue" d="M1200.35,-112.343C1222.84,-102.15 1252.31,-88.7977 1272.56,-79.6212"/>
<polygon fill="midnightblue" stroke="midnightblue" points="1198.84,-109.181 1191.18,-116.497 1201.73,-115.557 1198.84,-109.181"/>
</g>
<!-- Node11 -->
<g id="node21" class="node"><title>Node11</title>
<a xlink:href="bitSelectorFilter_8h.html" target="_top" xlink:title="Add Comment Here.">
<polygon fill="none" stroke="red" points="1438,-58.5 1438,-79.5 1590,-79.5 1590,-58.5 1438,-58.5"/>
<text text-anchor="middle" x="1514" y="-66.5" font-family="FreeSans.ttf" font-size="10.00">core/filters/bitSelectorFilter.h</text>
</a>
</g>
<!-- Node10&#45;&gt;Node11 -->
<g id="edge20" class="edge"><title>Node10&#45;&gt;Node11</title>
<path fill="none" stroke="midnightblue" d="M1788.77,-114.794C1726.07,-104.345 1636.74,-89.4559 1577.14,-79.5231"/>
<polygon fill="midnightblue" stroke="midnightblue" points="1788.54,-118.305 1798.98,-116.497 1789.69,-111.4 1788.54,-118.305"/>
</g>
<!-- Node12 -->
<g id="node23" class="node"><title>Node12</title>
<a xlink:href="bitSelectorParameters_8cpp.html" target="_top" xlink:title="core/xml/generated/bitSelectorParameters.cpp">
<polygon fill="none" stroke="black" points="1607.5,-58.5 1607.5,-79.5 1848.5,-79.5 1848.5,-58.5 1607.5,-58.5"/>
<text text-anchor="middle" x="1728" y="-66.5" font-family="FreeSans.ttf" font-size="10.00">core/xml/generated/bitSelectorParameters.cpp</text>
</a>
</g>
<!-- Node10&#45;&gt;Node12 -->
<g id="edge22" class="edge"><title>Node10&#45;&gt;Node12</title>
<path fill="none" stroke="midnightblue" d="M1828.45,-112.479C1804.86,-102.269 1773.83,-88.8386 1752.54,-79.6212"/>
<polygon fill="midnightblue" stroke="midnightblue" points="1827.17,-115.736 1837.73,-116.497 1829.95,-109.312 1827.17,-115.736"/>
</g>
<!-- Node13 -->
<g id="node25" class="node"><title>Node13</title>
<a xlink:href="bitSelectorParametersControlWidget_8h.html" target="_top" xlink:title="utils/filters/ui/bitSelectorParametersControlWidget.h">
<polygon fill="none" stroke="red" points="1865.5,-58.5 1865.5,-79.5 2128.5,-79.5 2128.5,-58.5 1865.5,-58.5"/>
<text text-anchor="middle" x="1997" y="-66.5" font-family="FreeSans.ttf" font-size="10.00">utils/filters/ui/bitSelectorParametersControlWidget.h</text>
</a>
</g>
<!-- Node10&#45;&gt;Node13 -->
<g id="edge24" class="edge"><title>Node10&#45;&gt;Node13</title>
<path fill="none" stroke="midnightblue" d="M1895.8,-112.479C1919.56,-102.269 1950.82,-88.8386 1972.28,-79.6212"/>
<polygon fill="midnightblue" stroke="midnightblue" points="1894.25,-109.333 1886.45,-116.497 1897.02,-115.765 1894.25,-109.333"/>
</g>
<!-- Node15 -->
<g id="node29" class="node"><title>Node15</title>
<a xlink:href="cannyFilter_8h.html" target="_top" xlink:title="Add Comment Here.">
<polygon fill="none" stroke="red" points="2145.5,-58.5 2145.5,-79.5 2274.5,-79.5 2274.5,-58.5 2145.5,-58.5"/>
<text text-anchor="middle" x="2210" y="-66.5" font-family="FreeSans.ttf" font-size="10.00">core/filters/cannyFilter.h</text>
</a>
</g>
<!-- Node14&#45;&gt;Node15 -->
<g id="edge28" class="edge"><title>Node14&#45;&gt;Node15</title>
<path fill="none" stroke="midnightblue" d="M2457.22,-114.665C2400.68,-104.222 2320.52,-89.415 2266.97,-79.5231"/>
<polygon fill="midnightblue" stroke="midnightblue" points="2456.67,-118.122 2467.14,-116.497 2457.94,-111.238 2456.67,-118.122"/>
</g>
<!-- Node16 -->
<g id="node31" class="node"><title>Node16</title>
<a xlink:href="cannyParameters_8cpp.html" target="_top" xlink:title="core/xml/generated/cannyParameters.cpp">
<polygon fill="none" stroke="black" points="2292,-58.5 2292,-79.5 2510,-79.5 2510,-58.5 2292,-58.5"/>
<text text-anchor="middle" x="2401" y="-66.5" font-family="FreeSans.ttf" font-size="10.00">core/xml/generated/cannyParameters.cpp</text>
</a>
</g>
<!-- Node14&#45;&gt;Node16 -->
<g id="edge30" class="edge"><title>Node14&#45;&gt;Node16</title>
<path fill="none" stroke="midnightblue" d="M2492.63,-112.206C2471.05,-102.031 2442.9,-88.7567 2423.52,-79.6212"/>
<polygon fill="midnightblue" stroke="midnightblue" points="2491.19,-115.397 2501.73,-116.497 2494.17,-109.066 2491.19,-115.397"/>
</g>
<!-- Node17 -->
<g id="node33" class="node"><title>Node17</title>
<a xlink:href="cannyParametersControlWidget_8h.html" target="_top" xlink:title="utils/filters/ui/cannyParametersControlWidget.h">
<polygon fill="none" stroke="red" points="2527.5,-58.5 2527.5,-79.5 2766.5,-79.5 2766.5,-58.5 2527.5,-58.5"/>
<text text-anchor="middle" x="2647" y="-66.5" font-family="FreeSans.ttf" font-size="10.00">utils/filters/ui/cannyParametersControlWidget.h</text>
</a>
</g>
<!-- Node14&#45;&gt;Node17 -->
<g id="edge32" class="edge"><title>Node14&#45;&gt;Node17</title>
<path fill="none" stroke="midnightblue" d="M2555.37,-112.206C2576.95,-102.031 2605.1,-88.7567 2624.48,-79.6212"/>
<polygon fill="midnightblue" stroke="midnightblue" points="2553.83,-109.066 2546.27,-116.497 2556.81,-115.397 2553.83,-109.066"/>
</g>
<!-- Node19 -->
<g id="node37" class="node"><title>Node19</title>
<a xlink:href="sobelFilter_8h.html" target="_top" xlink:title="Add Comment Here.">
<polygon fill="none" stroke="red" points="2784,-58.5 2784,-79.5 2910,-79.5 2910,-58.5 2784,-58.5"/>
<text text-anchor="middle" x="2847" y="-66.5" font-family="FreeSans.ttf" font-size="10.00">core/filters/sobelFilter.h</text>
</a>
</g>
<!-- Node18&#45;&gt;Node19 -->
<g id="edge36" class="edge"><title>Node18&#45;&gt;Node19</title>
<path fill="none" stroke="midnightblue" d="M2991.39,-113.546C2957.81,-103.186 2912.04,-89.0668 2881.11,-79.5231"/>
<polygon fill="midnightblue" stroke="midnightblue" points="2990.37,-116.893 3000.95,-116.497 2992.43,-110.204 2990.37,-116.893"/>
</g>
<!-- Node20 -->
<g id="node39" class="node"><title>Node20</title>
<a xlink:href="sobelParameters_8cpp.html" target="_top" xlink:title="core/xml/generated/sobelParameters.cpp">
<polygon fill="none" stroke="black" points="2927.5,-58.5 2927.5,-79.5 3142.5,-79.5 3142.5,-58.5 2927.5,-58.5"/>
<text text-anchor="middle" x="3035" y="-66.5" font-family="FreeSans.ttf" font-size="10.00">core/xml/generated/sobelParameters.cpp</text>
</a>
</g>
<!-- Node18&#45;&gt;Node20 -->
<g id="edge38" class="edge"><title>Node18&#45;&gt;Node20</title>
<path fill="none" stroke="midnightblue" d="M3035,-106.191C3035,-97.1684 3035,-86.9941 3035,-79.5707"/>
<polygon fill="midnightblue" stroke="midnightblue" points="3031.5,-106.362 3035,-116.362 3038.5,-106.362 3031.5,-106.362"/>
</g>
<!-- Node21 -->
<g id="node41" class="node"><title>Node21</title>
<a xlink:href="sobelParametersControlWidget_8h.html" target="_top" xlink:title="utils/filters/ui/sobelParametersControlWidget.h">
<polygon fill="none" stroke="red" points="3160,-58.5 3160,-79.5 3396,-79.5 3396,-58.5 3160,-58.5"/>
<text text-anchor="middle" x="3278" y="-66.5" font-family="FreeSans.ttf" font-size="10.00">utils/filters/ui/sobelParametersControlWidget.h</text>
</a>
</g>
<!-- Node18&#45;&gt;Node21 -->
<g id="edge40" class="edge"><title>Node18&#45;&gt;Node21</title>
<path fill="none" stroke="midnightblue" d="M3088.87,-114.142C3132.48,-103.733 3193.15,-89.2511 3233.91,-79.5231"/>
<polygon fill="midnightblue" stroke="midnightblue" points="3087.92,-110.771 3079.01,-116.497 3089.54,-117.579 3087.92,-110.771"/>
</g>
<!-- Node23 -->
<g id="node45" class="node"><title>Node23</title>
<a xlink:href="gainOffsetFilter_8h.html" target="_top" xlink:title="Add Comment Here.">
<polygon fill="none" stroke="red" points="3413.5,-58.5 3413.5,-79.5 3562.5,-79.5 3562.5,-58.5 3413.5,-58.5"/>
<text text-anchor="middle" x="3488" y="-66.5" font-family="FreeSans.ttf" font-size="10.00">core/filters/gainOffsetFilter.h</text>
</a>
</g>
<!-- Node22&#45;&gt;Node23 -->
<g id="edge44" class="edge"><title>Node22&#45;&gt;Node23</title>
<path fill="none" stroke="midnightblue" d="M3316.75,-113.945C3356.35,-103.55 3411.07,-89.1897 3447.9,-79.5231"/>
<polygon fill="midnightblue" stroke="midnightblue" points="3315.81,-110.573 3307.02,-116.497 3317.58,-117.343 3315.81,-110.573"/>
</g>
<!-- Node24 -->
<g id="node47" class="node"><title>Node24</title>
<a xlink:href="gainOffsetParameters_8cpp.html" target="_top" xlink:title="core/xml/generated/gainOffsetParameters.cpp">
<polygon fill="none" stroke="black" points="3580,-58.5 3580,-79.5 3818,-79.5 3818,-58.5 3580,-58.5"/>
<text text-anchor="middle" x="3699" y="-66.5" font-family="FreeSans.ttf" font-size="10.00">core/xml/generated/gainOffsetParameters.cpp</text>
</a>
</g>
<!-- Node22&#45;&gt;Node24 -->
<g id="edge46" class="edge"><title>Node22&#45;&gt;Node24</title>
<path fill="none" stroke="midnightblue" d="M3355.51,-115.116C3433.45,-104.652 3545.88,-89.5583 3620.62,-79.5231"/>
<polygon fill="midnightblue" stroke="midnightblue" points="3354.68,-111.697 3345.23,-116.497 3355.61,-118.635 3354.68,-111.697"/>
</g>
<!-- Node25 -->
<g id="node49" class="node"><title>Node25</title>
<a xlink:href="gainOffsetParametersControlWidget_8h.html" target="_top" xlink:title="utils/filters/ui/gainOffsetParametersControlWidget.h">
<polygon fill="none" stroke="red" points="3836,-58.5 3836,-79.5 4096,-79.5 4096,-58.5 3836,-58.5"/>
<text text-anchor="middle" x="3966" y="-66.5" font-family="FreeSans.ttf" font-size="10.00">utils/filters/ui/gainOffsetParametersControlWidget.h</text>
</a>
</g>
<!-- Node22&#45;&gt;Node25 -->
<g id="edge48" class="edge"><title>Node22&#45;&gt;Node25</title>
<path fill="none" stroke="midnightblue" d="M3390.82,-115.852C3488.07,-107.573 3698.04,-90.5787 3835.91,-79.4647"/>
<polygon fill="midnightblue" stroke="midnightblue" points="3390.31,-112.382 3380.64,-116.721 3390.9,-119.357 3390.31,-112.382"/>
</g>
<!-- Node27 -->
<g id="node53" class="node"><title>Node27</title>
<a xlink:href="inputFilter_8h.html" target="_top" xlink:title="core/filters/inputFilter.h">
<polygon fill="none" stroke="red" points="4113.5,-58.5 4113.5,-79.5 4238.5,-79.5 4238.5,-58.5 4113.5,-58.5"/>
<text text-anchor="middle" x="4176" y="-66.5" font-family="FreeSans.ttf" font-size="10.00">core/filters/inputFilter.h</text>
</a>
</g>
<!-- Node26&#45;&gt;Node27 -->
<g id="edge52" class="edge"><title>Node26&#45;&gt;Node27</title>
<path fill="none" stroke="midnightblue" d="M3632.23,-115.912C3843.25,-98.6082 3898.4,-103.814 4105,-80 4107.73,-79.6858 4110.51,-79.3443 4113.32,-78.9827"/>
<polygon fill="midnightblue" stroke="midnightblue" points="3631.74,-112.441 3622.06,-116.753 3632.32,-119.417 3631.74,-112.441"/>
</g>
<!-- Node37&#45;&gt;Node38 -->
<g id="edge74" class="edge"><title>Node37&#45;&gt;Node38</title>
<path fill="none" stroke="midnightblue" d="M5957.62,-110.259C5943.8,-100.364 5926.72,-88.1361 5914.76,-79.5707"/>
<polygon fill="midnightblue" stroke="midnightblue" points="5955.98,-113.386 5966.14,-116.362 5960.05,-107.694 5955.98,-113.386"/>
</g>
<!-- Node37&#45;&gt;Node39 -->
<g id="edge78" class="edge"><title>Node37&#45;&gt;Node39</title>
<path fill="none" stroke="midnightblue" d="M5995.39,-108.165C6001.19,-99.875 6007.55,-89.8057 6012,-80 6020.93,-60.3117 6026.5,-35.5109 6029.15,-21.6429"/>
<polygon fill="midnightblue" stroke="midnightblue" points="5992.48,-106.22 5989.43,-116.367 5998.14,-110.336 5992.48,-106.22"/>
</g>
<!-- Node38&#45;&gt;Node39 -->
<g id="edge76" class="edge"><title>Node38&#45;&gt;Node39</title>
<path fill="none" stroke="midnightblue" d="M5933.1,-54.3431C5956.13,-44.1502 5986.28,-30.7977 6007.01,-21.6212"/>
<polygon fill="midnightblue" stroke="midnightblue" points="5931.45,-51.2478 5923.72,-58.4966 5934.28,-57.6485 5931.45,-51.2478"/>
</g>
</g>
</svg>
        <g id="navigator" transform="translate(0 0)" fill="#404254">
                <rect fill="#f2f5e9" fill-opacity="0.5" stroke="#606060" stroke-width=".5" x="0" y="0" width="60" height="60"/>
                <use id="zoomplus" xlink:href="#zoomPlus" x="17" y="9" onmousedown="handleZoom(evt,'in')"/>
                <use id="zoomminus" xlink:href="#zoomMin" x="42" y="9" onmousedown="handleZoom(evt,'out')"/>
                <use id="reset" xlink:href="#resetDef" x="30" y="36" onmousedown="handleReset()"/>
                <g id="arrowUp" xlink:href="#dirArrow" transform="translate(30 24)" onmousedown="handlePan(0,-1)">
                  <use xlink:href="#rim" fill="#404040">
                        <set attributeName="fill" to="#808080" begin="arrowUp.mouseover" end="arrowUp.mouseout"/>
                  </use>
                  <path fill="none" stroke="white" stroke-width="1.5" d="M0,-3.0v7 M-2.5,-0.5L0,-3.0L2.5,-0.5"/>
                </g>
                <g id="arrowRight" xlink:href="#dirArrow" transform="rotate(90) translate(36 -43)" onmousedown="handlePan(1,0)">
                  <use xlink:href="#rim" fill="#404040">
                        <set attributeName="fill" to="#808080" begin="arrowRight.mouseover" end="arrowRight.mouseout"/>
                  </use>
                  <path fill="none" stroke="white" stroke-width="1.5" d="M0,-3.0v7 M-2.5,-0.5L0,-3.0L2.5,-0.5"/>
                </g>
                <g id="arrowDown" xlink:href="#dirArrow" transform="rotate(180) translate(-30 -48)" onmousedown="handlePan(0,1)">
                  <use xlink:href="#rim" fill="#404040">
                        <set attributeName="fill" to="#808080" begin="arrowDown.mouseover" end="arrowDown.mouseout"/>
                  </use>
                  <path fill="none" stroke="white" stroke-width="1.5" d="M0,-3.0v7 M-2.5,-0.5L0,-3.0L2.5,-0.5"/>
                </g>
                <g id="arrowLeft" xlink:href="#dirArrow" transform="rotate(270) translate(-36 17)" onmousedown="handlePan(-1,0)">
                  <use xlink:href="#rim" fill="#404040">
                        <set attributeName="fill" to="#808080" begin="arrowLeft.mouseover" end="arrowLeft.mouseout"/>
                  </use>
                  <path fill="none" stroke="white" stroke-width="1.5" d="M0,-3.0v7 M-2.5,-0.5L0,-3.0L2.5,-0.5"/>
                </g>
        </g>
</svg>
