<?xml version="1.0" encoding="UTF-8" standalone="no"?>
<!DOCTYPE svg PUBLIC "-//W3C//DTD SVG 1.1//EN"
 "http://www.w3.org/Graphics/SVG/1.1/DTD/svg11.dtd">
<!-- Generated by graphviz version 2.26.3 (20100126.1600)
 -->
<!-- Title: G Pages: 1 -->
<svg width="490pt" height="88pt"
 viewBox="0.00 0.00 490.00 88.00" xmlns="http://www.w3.org/2000/svg" xmlns:xlink="http://www.w3.org/1999/xlink">
<g id="graph1" class="graph" transform="scale(1 1) rotate(0) translate(4 84)">
<title>G</title>
<!-- Node1 -->
<g id="node1" class="node"><title>Node1</title>
<polygon fill="#bfbfbf" stroke="black" points="178,-58.5 178,-79.5 338,-79.5 338,-58.5 178,-58.5"/>
<text text-anchor="middle" x="258" y="-66.5" font-family="FreeSans.ttf" font-size="10.00">core/buffers/derivativeBuffer.h</text>
</g>
<!-- Node2 -->
<g id="node3" class="node"><title>Node2</title>
<a xlink:href="derivativeBuffer_8cpp.html" target="_top" xlink:title="Add Comment Here.">
<polygon fill="none" stroke="black" points="-0.5,-0.5 -0.5,-21.5 170.5,-21.5 170.5,-0.5 -0.5,-0.5"/>
<text text-anchor="middle" x="85" y="-8.5" font-family="FreeSans.ttf" font-size="10.00">core/buffers/derivativeBuffer.cpp</text>
</a>
</g>
<!-- Node1&#45;&gt;Node2 -->
<g id="edge2" class="edge"><title>Node1&#45;&gt;Node2</title>
<path fill="none" stroke="midnightblue" d="M217.073,-55.2787C186.246,-44.9437 144.61,-30.9849 116.388,-21.5231"/>
<polygon fill="midnightblue" stroke="midnightblue" points="216.077,-58.6363 226.671,-58.4966 218.302,-51.9994 216.077,-58.6363"/>
</g>
<!-- Node3 -->
<g id="node5" class="node"><title>Node3</title>
<a xlink:href="cannyFilter_8cpp.html" target="_top" xlink:title="Add Comment Here.">
<polygon fill="none" stroke="black" points="188,-0.5 188,-21.5 328,-21.5 328,-0.5 188,-0.5"/>
<text text-anchor="middle" x="258" y="-8.5" font-family="FreeSans.ttf" font-size="10.00">core/filters/cannyFilter.cpp</text>
</a>
</g>
<!-- Node1&#45;&gt;Node3 -->
<g id="edge4" class="edge"><title>Node1&#45;&gt;Node3</title>
<path fill="none" stroke="midnightblue" d="M258,-48.1906C258,-39.1684 258,-28.9941 258,-21.5707"/>
<polygon fill="midnightblue" stroke="midnightblue" points="254.5,-48.3619 258,-58.3619 261.5,-48.3619 254.5,-48.3619"/>
</g>
<!-- Node4 -->
<g id="node7" class="node"><title>Node4</title>
<a xlink:href="sobelFilter_8cpp.html" target="_top" xlink:title="Add Comment Here.">
<polygon fill="none" stroke="black" points="345.5,-0.5 345.5,-21.5 482.5,-21.5 482.5,-0.5 345.5,-0.5"/>
<text text-anchor="middle" x="414" y="-8.5" font-family="FreeSans.ttf" font-size="10.00">core/filters/sobelFilter.cpp</text>
</a>
</g>
<!-- Node1&#45;&gt;Node4 -->
<g id="edge6" class="edge"><title>Node1&#45;&gt;Node4</title>
<path fill="none" stroke="midnightblue" d="M295.63,-55.0095C323.352,-44.7023 360.468,-30.903 385.697,-21.5231"/>
<polygon fill="midnightblue" stroke="midnightblue" points="294.404,-51.7311 286.25,-58.4966 296.843,-58.2923 294.404,-51.7311"/>
</g>
</g>
</svg>
