<?xml version="1.0" encoding="UTF-8" standalone="no"?>
<!DOCTYPE svg PUBLIC "-//W3C//DTD SVG 1.1//EN"
 "http://www.w3.org/Graphics/SVG/1.1/DTD/svg11.dtd">
<!-- Generated by graphviz version 2.26.3 (20100126.1600)
 -->
<!-- Title: G Pages: 1 -->
<!--zoomable 610 -->
<svg id="main" version="1.1" xmlns="http://www.w3.org/2000/svg" xmlns:xlink="http://www.w3.org/1999/xlink" xml:space="preserve" onload="init(evt)">
        <defs>
                <circle id="rim" cx="0" cy="0" r="7"/>
                <circle id="rim2" cx="0" cy="0" r="3.5"/>
                <g id="zoomPlus">
                        <use xlink:href="#rim" fill="#404040">
                                <set attributeName="fill" to="#808080" begin="zoomplus.mouseover" end="zoomplus.mouseout"/>
                        </use>
                        <path d="M-4,0h8M0,-4v8" fill="none" stroke="white" stroke-width="1.5" pointer-events="none"/>
                </g>
                <g id="zoomMin">
                        <use xlink:href="#rim" fill="#404040">
                                <set attributeName="fill" to="#808080" begin="zoomminus.mouseover" end="zoomminus.mouseout"/>
                        </use>
                        <path d="M-4,0h8" fill="none" stroke="white" stroke-width="1.5" pointer-events="none"/>
                </g>
                <g id="dirArrow">
                        <path fill="none" stroke="white" stroke-width="1.5" d="M0,-3.0v7 M-2.5,-0.5L0,-3.0L2.5,-0.5"/>
                </g>
               <g id="resetDef">
                       <use xlink:href="#rim2" fill="#404040">
                               <set attributeName="fill" to="#808080" begin="reset.mouseover" end="reset.mouseout"/>
                       </use>
               </g>
        </defs>

<script type="text/javascript">
var viewWidth = 1330;
var viewHeight = 610;
var sectionId = 'dynsection-0';
</script>
<script xlink:href="svgpan.js"/>
<svg id="graph" class="graph">
<g id="viewport">
<title>G</title>
<!-- Node1 -->
<g id="node1" class="node"><title>Node1</title>
<polygon fill="#bfbfbf" stroke="black" points="665,-580.5 665,-601.5 825,-601.5 825,-580.5 665,-580.5"/>
<text text-anchor="middle" x="745" y="-588.5" font-family="FreeSans.ttf" font-size="10.00">core/buffers/derivativeBuffer.h</text>
</g>
<!-- Node2 -->
<g id="node3" class="node"><title>Node2</title>
<polygon fill="none" stroke="#bfbfbf" points="751.5,-58.5 751.5,-79.5 804.5,-79.5 804.5,-58.5 751.5,-58.5"/>
<text text-anchor="middle" x="778" y="-66.5" font-family="FreeSans.ttf" font-size="10.00">stdint.h</text>
</g>
<!-- Node1&#45;&gt;Node2 -->
<g id="edge2" class="edge"><title>Node1&#45;&gt;Node2</title>
<path fill="none" stroke="midnightblue" d="M784.568,-580.477C852.244,-561.301 983,-518.61 983,-475 983,-475 983,-475 983,-417 983,-274.569 968.075,-222.053 873,-116 857.448,-98.6528 834.043,-86.9682 814.356,-79.5883"/>
<polygon fill="midnightblue" stroke="midnightblue" points="815.346,-76.2266 804.751,-76.2098 813.023,-82.8299 815.346,-76.2266"/>
</g>
<!-- Node3 -->
<g id="node5" class="node"><title>Node3</title>
<a xlink:href="global_8h.html" target="_top" xlink:title="This file holds the global includes, mostly for debuging, tracing and profiling.">
<polygon fill="none" stroke="black" points="209,-58.5 209,-79.5 263,-79.5 263,-58.5 209,-58.5"/>
<text text-anchor="middle" x="236" y="-66.5" font-family="FreeSans.ttf" font-size="10.00">global.h</text>
</a>
</g>
<!-- Node1&#45;&gt;Node3 -->
<g id="edge4" class="edge"><title>Node1&#45;&gt;Node3</title>
<path fill="none" stroke="midnightblue" d="M664.918,-586.829C472.503,-575.74 0,-541.717 0,-475 0,-475 0,-475 0,-185 0,-141.141 132.939,-97.7743 199.267,-78.8669"/>
<polygon fill="midnightblue" stroke="midnightblue" points="200.248,-82.2268 208.928,-76.1516 198.354,-75.4879 200.248,-82.2268"/>
</g>
<!-- Node5 -->
<g id="node9" class="node"><title>Node5</title>
<a xlink:href="vector2d_8h.html" target="_top" xlink:title="Add Comment Here.">
<polygon fill="none" stroke="black" points="811,-290.5 811,-311.5 879,-311.5 879,-290.5 811,-290.5"/>
<text text-anchor="middle" x="845" y="-298.5" font-family="FreeSans.ttf" font-size="10.00">vector2d.h</text>
</a>
</g>
<!-- Node1&#45;&gt;Node5 -->
<g id="edge8" class="edge"><title>Node1&#45;&gt;Node5</title>
<path fill="none" stroke="midnightblue" d="M758.238,-580.375C780.013,-561.606 821,-520.263 821,-475 821,-475 821,-475 821,-417 821,-382.913 831.061,-344.338 838.155,-321.376"/>
<polygon fill="midnightblue" stroke="midnightblue" points="841.53,-322.313 841.25,-311.721 834.864,-320.175 841.53,-322.313"/>
</g>
<!-- Node17 -->
<g id="node40" class="node"><title>Node17</title>
<a xlink:href="abstractBuffer_8h.html" target="_top" xlink:title="a header for AbstractBuffer.cpp">
<polygon fill="none" stroke="black" points="516.5,-348.5 516.5,-369.5 609.5,-369.5 609.5,-348.5 516.5,-348.5"/>
<text text-anchor="middle" x="563" y="-356.5" font-family="FreeSans.ttf" font-size="10.00">abstractBuffer.h</text>
</a>
</g>
<!-- Node1&#45;&gt;Node17 -->
<g id="edge46" class="edge"><title>Node1&#45;&gt;Node17</title>
<path fill="none" stroke="midnightblue" d="M736.707,-580.429C708.223,-544.12 614.14,-424.19 577.647,-377.671"/>
<polygon fill="midnightblue" stroke="midnightblue" points="580.268,-375.341 571.342,-369.634 574.76,-379.662 580.268,-375.341"/>
</g>
<!-- Node26 -->
<g id="node69" class="node"><title>Node26</title>
<a xlink:href="g12Buffer_8h.html" target="_top" xlink:title="This file holds the class description for 12 bit grayscale buffer.">
<polygon fill="none" stroke="black" points="485.5,-522.5 485.5,-543.5 556.5,-543.5 556.5,-522.5 485.5,-522.5"/>
<text text-anchor="middle" x="521" y="-530.5" font-family="FreeSans.ttf" font-size="10.00">g12Buffer.h</text>
</a>
</g>
<!-- Node1&#45;&gt;Node26 -->
<g id="edge86" class="edge"><title>Node1&#45;&gt;Node26</title>
<path fill="none" stroke="midnightblue" d="M704.435,-580.497C665.616,-570.445 607.146,-555.306 566.7,-544.833"/>
<polygon fill="midnightblue" stroke="midnightblue" points="567.386,-541.395 556.828,-542.277 565.632,-548.172 567.386,-541.395"/>
</g>
<!-- Node4 -->
<g id="node7" class="node"><title>Node4</title>
<polygon fill="none" stroke="#bfbfbf" points="204,-0.5 204,-21.5 268,-21.5 268,-0.5 204,-0.5"/>
<text text-anchor="middle" x="236" y="-8.5" font-family="FreeSans.ttf" font-size="10.00">inttypes.h</text>
</g>
<!-- Node3&#45;&gt;Node4 -->
<g id="edge6" class="edge"><title>Node3&#45;&gt;Node4</title>
<path fill="none" stroke="midnightblue" d="M236,-58.3619C236,-50.9219 236,-40.7427 236,-31.7276"/>
<polygon fill="midnightblue" stroke="midnightblue" points="239.5,-31.5706 236,-21.5707 232.5,-31.5707 239.5,-31.5706"/>
</g>
<!-- Node5&#45;&gt;Node2 -->
<g id="edge12" class="edge"><title>Node5&#45;&gt;Node2</title>
<path fill="none" stroke="midnightblue" d="M849.376,-290.081C860.676,-260.008 887.741,-174.344 855,-116 846.177,-100.278 829.721,-89.1926 814.279,-81.7522"/>
<polygon fill="midnightblue" stroke="midnightblue" points="815.434,-78.4355 804.873,-77.5818 812.596,-84.8347 815.434,-78.4355"/>
</g>
<!-- Node5&#45;&gt;Node3 -->
<g id="edge14" class="edge"><title>Node5&#45;&gt;Node3</title>
<path fill="none" stroke="midnightblue" d="M833.161,-290.376C796.303,-257.97 679.102,-159.924 563,-116 510.593,-96.1733 347.693,-79.2324 273.496,-72.322"/>
<polygon fill="midnightblue" stroke="midnightblue" points="273.495,-68.8072 263.216,-71.3761 272.854,-75.7777 273.495,-68.8072"/>
</g>
<!-- Node6 -->
<g id="node11" class="node"><title>Node6</title>
<polygon fill="none" stroke="#bfbfbf" points="795.5,-116.5 795.5,-137.5 846.5,-137.5 846.5,-116.5 795.5,-116.5"/>
<text text-anchor="middle" x="821" y="-124.5" font-family="FreeSans.ttf" font-size="10.00">math.h</text>
</g>
<!-- Node5&#45;&gt;Node6 -->
<g id="edge10" class="edge"><title>Node5&#45;&gt;Node6</title>
<path fill="none" stroke="midnightblue" d="M843.535,-290.377C839.661,-262.293 829.093,-185.673 823.925,-148.203"/>
<polygon fill="midnightblue" stroke="midnightblue" points="827.341,-147.356 822.507,-137.928 820.407,-148.312 827.341,-147.356"/>
</g>
<!-- Node7 -->
<g id="node15" class="node"><title>Node7</title>
<a xlink:href="fixedVector_8h.html" target="_top" xlink:title="This file holds the description of the commonly used template &#45; a vector with the fixed number of com...">
<polygon fill="none" stroke="black" points="1077,-232.5 1077,-253.5 1155,-253.5 1155,-232.5 1077,-232.5"/>
<text text-anchor="middle" x="1116" y="-240.5" font-family="FreeSans.ttf" font-size="10.00">fixedVector.h</text>
</a>
</g>
<!-- Node5&#45;&gt;Node7 -->
<g id="edge16" class="edge"><title>Node5&#45;&gt;Node7</title>
<path fill="none" stroke="midnightblue" d="M879.048,-293.713C926.325,-283.595 1012.16,-265.225 1066.51,-253.592"/>
<polygon fill="midnightblue" stroke="midnightblue" points="1067.56,-256.946 1076.61,-251.431 1066.1,-250.101 1067.56,-256.946"/>
</g>
<!-- Node8 -->
<g id="node17" class="node"><title>Node8</title>
<polygon fill="none" stroke="#bfbfbf" points="1143.5,-58.5 1143.5,-79.5 1192.5,-79.5 1192.5,-58.5 1143.5,-58.5"/>
<text text-anchor="middle" x="1168" y="-66.5" font-family="FreeSans.ttf" font-size="10.00">stdio.h</text>
</g>
<!-- Node7&#45;&gt;Node8 -->
<g id="edge18" class="edge"><title>Node7&#45;&gt;Node8</title>
<path fill="none" stroke="midnightblue" d="M1152.04,-232.481C1169.81,-225.274 1189.6,-213.731 1200,-196 1217.98,-165.328 1210.47,-149.979 1200,-116 1196.84,-105.747 1190.6,-95.7278 1184.46,-87.5925"/>
<polygon fill="midnightblue" stroke="midnightblue" points="1186.99,-85.1612 1177.98,-79.5822 1181.55,-89.5603 1186.99,-85.1612"/>
</g>
<!-- Node9 -->
<g id="node19" class="node"><title>Node9</title>
<a xlink:href="vectorOperations_8h.html" target="_top" xlink:title="This file holds the operations that are commonly used with continuous linear data structures such as ...">
<polygon fill="none" stroke="black" points="1050,-174.5 1050,-195.5 1158,-195.5 1158,-174.5 1050,-174.5"/>
<text text-anchor="middle" x="1104" y="-182.5" font-family="FreeSans.ttf" font-size="10.00">vectorOperations.h</text>
</a>
</g>
<!-- Node7&#45;&gt;Node9 -->
<g id="edge20" class="edge"><title>Node7&#45;&gt;Node9</title>
<path fill="none" stroke="midnightblue" d="M1113.8,-232.362C1112.24,-224.84 1110.11,-214.519 1108.23,-205.431"/>
<polygon fill="midnightblue" stroke="midnightblue" points="1111.64,-204.654 1106.19,-195.571 1104.79,-206.072 1111.64,-204.654"/>
</g>
<!-- Node9&#45;&gt;Node6 -->
<g id="edge28" class="edge"><title>Node9&#45;&gt;Node6</title>
<path fill="none" stroke="midnightblue" d="M1052.75,-174.497C996.094,-162.885 906.306,-144.483 856.766,-134.33"/>
<polygon fill="midnightblue" stroke="midnightblue" points="857.331,-130.873 846.832,-132.294 855.926,-137.731 857.331,-130.873"/>
</g>
<!-- Node9&#45;&gt;Node8 -->
<g id="edge26" class="edge"><title>Node9&#45;&gt;Node8</title>
<path fill="none" stroke="midnightblue" d="M1109.91,-174.295C1120.67,-154.786 1143.62,-113.188 1157.23,-88.5177"/>
<polygon fill="midnightblue" stroke="midnightblue" points="1160.34,-90.1258 1162.11,-79.6792 1154.21,-86.7442 1160.34,-90.1258"/>
</g>
<!-- Node10 -->
<g id="node21" class="node"><title>Node10</title>
<polygon fill="none" stroke="#bfbfbf" points="1252,-116.5 1252,-137.5 1294,-137.5 1294,-116.5 1252,-116.5"/>
<text text-anchor="middle" x="1273" y="-124.5" font-family="FreeSans.ttf" font-size="10.00">limits</text>
</g>
<!-- Node9&#45;&gt;Node10 -->
<g id="edge22" class="edge"><title>Node9&#45;&gt;Node10</title>
<path fill="none" stroke="midnightblue" d="M1134.6,-174.497C1165.03,-164.055 1211.45,-148.124 1242.01,-137.637"/>
<polygon fill="midnightblue" stroke="midnightblue" points="1243.39,-140.861 1251.72,-134.304 1241.12,-134.24 1243.39,-140.861"/>
</g>
<!-- Node11 -->
<g id="node23" class="node"><title>Node11</title>
<polygon fill="none" stroke="#bfbfbf" points="973.5,-116.5 973.5,-137.5 1032.5,-137.5 1032.5,-116.5 973.5,-116.5"/>
<text text-anchor="middle" x="1003" y="-124.5" font-family="FreeSans.ttf" font-size="10.00">iostream</text>
</g>
<!-- Node9&#45;&gt;Node11 -->
<g id="edge24" class="edge"><title>Node9&#45;&gt;Node11</title>
<path fill="none" stroke="midnightblue" d="M1085.48,-174.362C1070.1,-165.532 1048,-152.844 1030.55,-142.822"/>
<polygon fill="midnightblue" stroke="midnightblue" points="1031.82,-139.515 1021.41,-137.571 1028.34,-145.586 1031.82,-139.515"/>
</g>
<!-- Node12 -->
<g id="node27" class="node"><title>Node12</title>
<a xlink:href="reflection_8h.html" target="_top" xlink:title="a header for Reflection.c">
<polygon fill="none" stroke="black" points="1050,-116.5 1050,-137.5 1120,-137.5 1120,-116.5 1050,-116.5"/>
<text text-anchor="middle" x="1085" y="-124.5" font-family="FreeSans.ttf" font-size="10.00">reflection.h</text>
</a>
</g>
<!-- Node9&#45;&gt;Node12 -->
<g id="edge30" class="edge"><title>Node9&#45;&gt;Node12</title>
<path fill="none" stroke="midnightblue" d="M1100.52,-174.362C1098.02,-166.758 1094.6,-156.294 1091.6,-147.135"/>
<polygon fill="midnightblue" stroke="midnightblue" points="1094.9,-145.984 1088.46,-137.571 1088.25,-148.163 1094.9,-145.984"/>
</g>
<!-- Node12&#45;&gt;Node2 -->
<g id="edge40" class="edge"><title>Node12&#45;&gt;Node2</title>
<path fill="none" stroke="midnightblue" d="M1049.99,-118.018C1046.95,-117.309 1043.93,-116.626 1041,-116 960.591,-98.785 865.421,-82.8729 814.497,-74.7153"/>
<polygon fill="midnightblue" stroke="midnightblue" points="815.048,-71.2589 804.621,-73.1418 813.946,-78.1717 815.048,-71.2589"/>
</g>
<!-- Node12&#45;&gt;Node3 -->
<g id="edge44" class="edge"><title>Node12&#45;&gt;Node3</title>
<path fill="none" stroke="midnightblue" d="M1049.57,-117.54C1046.69,-116.954 1043.8,-116.428 1041,-116 889.941,-92.9148 411.095,-75.0227 273.381,-70.255"/>
<polygon fill="midnightblue" stroke="midnightblue" points="273.439,-66.755 263.324,-69.9092 273.198,-73.7509 273.439,-66.755"/>
</g>
<!-- Node12&#45;&gt;Node8 -->
<g id="edge38" class="edge"><title>Node12&#45;&gt;Node8</title>
<path fill="none" stroke="midnightblue" d="M1100.22,-116.362C1112.63,-107.696 1130.35,-95.3126 1144.56,-85.3819"/>
<polygon fill="midnightblue" stroke="midnightblue" points="1146.68,-88.1676 1152.87,-79.5707 1142.67,-82.4297 1146.68,-88.1676"/>
</g>
<!-- Node13 -->
<g id="node29" class="node"><title>Node13</title>
<polygon fill="none" stroke="#bfbfbf" points="1061.5,-58.5 1061.5,-79.5 1108.5,-79.5 1108.5,-58.5 1061.5,-58.5"/>
<text text-anchor="middle" x="1085" y="-66.5" font-family="FreeSans.ttf" font-size="10.00">vector</text>
</g>
<!-- Node12&#45;&gt;Node13 -->
<g id="edge32" class="edge"><title>Node12&#45;&gt;Node13</title>
<path fill="none" stroke="midnightblue" d="M1085,-116.362C1085,-108.922 1085,-98.7427 1085,-89.7276"/>
<polygon fill="midnightblue" stroke="midnightblue" points="1088.5,-89.5706 1085,-79.5707 1081.5,-89.5707 1088.5,-89.5706"/>
</g>
<!-- Node14 -->
<g id="node31" class="node"><title>Node14</title>
<polygon fill="none" stroke="#bfbfbf" points="881,-58.5 881,-79.5 925,-79.5 925,-58.5 881,-58.5"/>
<text text-anchor="middle" x="903" y="-66.5" font-family="FreeSans.ttf" font-size="10.00">string</text>
</g>
<!-- Node12&#45;&gt;Node14 -->
<g id="edge34" class="edge"><title>Node12&#45;&gt;Node14</title>
<path fill="none" stroke="midnightblue" d="M1052.04,-116.497C1018.71,-105.876 967.562,-89.5746 934.694,-79.1004"/>
<polygon fill="midnightblue" stroke="midnightblue" points="935.712,-75.7513 925.121,-76.0497 933.586,-82.4208 935.712,-75.7513"/>
</g>
<!-- Node15 -->
<g id="node33" class="node"><title>Node15</title>
<polygon fill="none" stroke="#bfbfbf" points="1252.5,-58.5 1252.5,-79.5 1305.5,-79.5 1305.5,-58.5 1252.5,-58.5"/>
<text text-anchor="middle" x="1279" y="-66.5" font-family="FreeSans.ttf" font-size="10.00">string.h</text>
</g>
<!-- Node12&#45;&gt;Node15 -->
<g id="edge36" class="edge"><title>Node12&#45;&gt;Node15</title>
<path fill="none" stroke="midnightblue" d="M1120.13,-116.497C1154.72,-106.157 1207.31,-90.4334 1242.39,-79.944"/>
<polygon fill="midnightblue" stroke="midnightblue" points="1243.66,-83.2187 1252.24,-77.0009 1241.65,-76.512 1243.66,-83.2187"/>
</g>
<!-- Node16 -->
<g id="node37" class="node"><title>Node16</title>
<polygon fill="none" stroke="#bfbfbf" points="973,-58.5 973,-79.5 1029,-79.5 1029,-58.5 973,-58.5"/>
<text text-anchor="middle" x="1001" y="-66.5" font-family="FreeSans.ttf" font-size="10.00">stdarg.h</text>
</g>
<!-- Node12&#45;&gt;Node16 -->
<g id="edge42" class="edge"><title>Node12&#45;&gt;Node16</title>
<path fill="none" stroke="midnightblue" d="M1069.59,-116.362C1057.04,-107.696 1039.11,-95.3126 1024.73,-85.3819"/>
<polygon fill="midnightblue" stroke="midnightblue" points="1026.53,-82.3725 1016.31,-79.5707 1022.55,-88.1327 1026.53,-82.3725"/>
</g>
<!-- Node17&#45;&gt;Node2 -->
<g id="edge48" class="edge"><title>Node17&#45;&gt;Node2</title>
<path fill="none" stroke="midnightblue" d="M565.585,-348.458C576.913,-302.335 621.796,-120.403 626,-116 641.924,-99.3222 701.734,-84.4065 741.41,-76.0487"/>
<polygon fill="midnightblue" stroke="midnightblue" points="742.183,-79.4632 751.272,-74.0184 740.771,-72.607 742.183,-79.4632"/>
</g>
<!-- Node17&#45;&gt;Node3 -->
<g id="edge58" class="edge"><title>Node17&#45;&gt;Node3</title>
<path fill="none" stroke="midnightblue" d="M516.33,-355.477C454.191,-349.883 348.767,-336.953 320,-312 252.247,-253.23 239.103,-137.015 236.583,-89.7363"/>
<polygon fill="midnightblue" stroke="midnightblue" points="240.071,-89.362 236.152,-79.5185 233.077,-89.6572 240.071,-89.362"/>
</g>
<!-- Node17&#45;&gt;Node5 -->
<g id="edge60" class="edge"><title>Node17&#45;&gt;Node5</title>
<path fill="none" stroke="midnightblue" d="M609.567,-349.422C662.657,-338.503 748.806,-320.784 800.863,-310.078"/>
<polygon fill="midnightblue" stroke="midnightblue" points="801.71,-313.477 810.8,-308.034 800.3,-306.62 801.71,-313.477"/>
</g>
<!-- Node17&#45;&gt;Node8 -->
<g id="edge50" class="edge"><title>Node17&#45;&gt;Node8</title>
<path fill="none" stroke="midnightblue" d="M598.542,-348.39C645.147,-334.557 729.507,-309.795 802,-290 822.2,-284.484 1154.11,-212.499 1167,-196 1190.97,-165.324 1182.35,-116.551 1174.7,-89.2354"/>
<polygon fill="midnightblue" stroke="midnightblue" points="1178.02,-88.1424 1171.78,-79.5845 1171.32,-90.1696 1178.02,-88.1424"/>
</g>
<!-- Node17&#45;&gt;Node14 -->
<g id="edge54" class="edge"><title>Node17&#45;&gt;Node14</title>
<path fill="none" stroke="midnightblue" d="M570.565,-348.152C576.837,-338.848 585.713,-324.935 592,-312 632.57,-228.535 593.408,-176.243 664,-116 679.622,-102.668 809.158,-82.5057 870.729,-73.556"/>
<polygon fill="midnightblue" stroke="midnightblue" points="871.299,-77.0101 880.697,-72.1189 870.3,-70.0818 871.299,-77.0101"/>
</g>
<!-- Node17&#45;&gt;Node16 -->
<g id="edge52" class="edge"><title>Node17&#45;&gt;Node16</title>
<path fill="none" stroke="midnightblue" d="M574.258,-348.371C584.115,-338.972 598.738,-324.803 611,-312 691.979,-227.446 685.846,-174.949 787,-116 802.044,-107.233 905.046,-86.9628 962.486,-76.1298"/>
<polygon fill="midnightblue" stroke="midnightblue" points="963.467,-79.5069 972.649,-74.2218 962.175,-72.627 963.467,-79.5069"/>
</g>
<!-- Node18 -->
<g id="node46" class="node"><title>Node18</title>
<polygon fill="none" stroke="#bfbfbf" points="502.5,-290.5 502.5,-311.5 565.5,-311.5 565.5,-290.5 502.5,-290.5"/>
<text text-anchor="middle" x="534" y="-298.5" font-family="FreeSans.ttf" font-size="10.00">functional</text>
</g>
<!-- Node17&#45;&gt;Node18 -->
<g id="edge56" class="edge"><title>Node17&#45;&gt;Node18</title>
<path fill="none" stroke="midnightblue" d="M557.681,-348.362C553.797,-340.595 548.421,-329.843 543.773,-320.546"/>
<polygon fill="midnightblue" stroke="midnightblue" points="546.888,-318.95 539.285,-311.571 540.627,-322.08 546.888,-318.95"/>
</g>
<!-- Node19 -->
<g id="node50" class="node"><title>Node19</title>
<a xlink:href="memoryBlock_8h.html" target="_top" xlink:title="Add Comment Here.">
<polygon fill="none" stroke="black" points="340.5,-174.5 340.5,-195.5 475.5,-195.5 475.5,-174.5 340.5,-174.5"/>
<text text-anchor="middle" x="408" y="-182.5" font-family="FreeSans.ttf" font-size="10.00">memory/memoryBlock.h</text>
</a>
</g>
<!-- Node17&#45;&gt;Node19 -->
<g id="edge62" class="edge"><title>Node17&#45;&gt;Node19</title>
<path fill="none" stroke="midnightblue" d="M538.421,-348.338C521.647,-340.176 499.706,-327.666 484,-312 452.039,-280.122 428.153,-232.187 416.311,-205.246"/>
<polygon fill="midnightblue" stroke="midnightblue" points="419.387,-203.536 412.241,-195.714 412.949,-206.285 419.387,-203.536"/>
</g>
<!-- Node23 -->
<g id="node60" class="node"><title>Node23</title>
<a xlink:href="tbbWrapper_8h.html" target="_top" xlink:title="This is a class that provides common TBB interface.">
<polygon fill="none" stroke="black" points="329,-290.5 329,-311.5 409,-311.5 409,-290.5 329,-290.5"/>
<text text-anchor="middle" x="369" y="-298.5" font-family="FreeSans.ttf" font-size="10.00">tbbWrapper.h</text>
</a>
</g>
<!-- Node17&#45;&gt;Node23 -->
<g id="edge74" class="edge"><title>Node17&#45;&gt;Node23</title>
<path fill="none" stroke="midnightblue" d="M527.868,-348.497C495.967,-338.959 448.743,-324.841 414.072,-314.475"/>
<polygon fill="midnightblue" stroke="midnightblue" points="414.781,-311.034 404.198,-311.523 412.776,-317.741 414.781,-311.034"/>
</g>
<!-- Node25 -->
<g id="node64" class="node"><title>Node25</title>
<a xlink:href="mathUtils_8h.html" target="_top" xlink:title="Add Comment Here.">
<polygon fill="none" stroke="black" points="493,-174.5 493,-195.5 565,-195.5 565,-174.5 493,-174.5"/>
<text text-anchor="middle" x="529" y="-182.5" font-family="FreeSans.ttf" font-size="10.00">mathUtils.h</text>
</a>
</g>
<!-- Node17&#45;&gt;Node25 -->
<g id="edge78" class="edge"><title>Node17&#45;&gt;Node25</title>
<path fill="none" stroke="midnightblue" d="M536.061,-348.332C520.736,-340.699 502.876,-328.785 494,-312 475.242,-276.527 498.637,-230.023 515.215,-204.271"/>
<polygon fill="midnightblue" stroke="midnightblue" points="518.248,-206.033 520.924,-195.781 512.439,-202.126 518.248,-206.033"/>
</g>
<!-- Node19&#45;&gt;Node2 -->
<g id="edge66" class="edge"><title>Node19&#45;&gt;Node2</title>
<path fill="none" stroke="midnightblue" d="M415.258,-174.28C426.49,-158.632 449.664,-129.891 477,-116 522.634,-92.8109 671.341,-77.8189 741.163,-71.8854"/>
<polygon fill="midnightblue" stroke="midnightblue" points="741.593,-75.3618 751.268,-71.0433 741.012,-68.3859 741.593,-75.3618"/>
</g>
<!-- Node19&#45;&gt;Node3 -->
<g id="edge70" class="edge"><title>Node19&#45;&gt;Node3</title>
<path fill="none" stroke="midnightblue" d="M369.337,-174.474C345.793,-166.837 315.935,-154.869 293,-138 274.549,-124.429 258.448,-103.61 248.108,-88.3885"/>
<polygon fill="midnightblue" stroke="midnightblue" points="250.855,-86.1939 242.445,-79.7494 245,-90.0315 250.855,-86.1939"/>
</g>
<!-- Node20 -->
<g id="node52" class="node"><title>Node20</title>
<polygon fill="none" stroke="#bfbfbf" points="395.5,-116.5 395.5,-137.5 430.5,-137.5 430.5,-116.5 395.5,-116.5"/>
<text text-anchor="middle" x="413" y="-124.5" font-family="FreeSans.ttf" font-size="10.00">new</text>
</g>
<!-- Node19&#45;&gt;Node20 -->
<g id="edge64" class="edge"><title>Node19&#45;&gt;Node20</title>
<path fill="none" stroke="midnightblue" d="M408.917,-174.362C409.558,-166.922 410.436,-156.743 411.213,-147.728"/>
<polygon fill="midnightblue" stroke="midnightblue" points="414.717,-147.834 412.089,-137.571 407.743,-147.233 414.717,-147.834"/>
</g>
<!-- Node21 -->
<g id="node55" class="node"><title>Node21</title>
<polygon fill="none" stroke="#bfbfbf" points="485.5,-116.5 485.5,-137.5 536.5,-137.5 536.5,-116.5 485.5,-116.5"/>
<text text-anchor="middle" x="511" y="-124.5" font-family="FreeSans.ttf" font-size="10.00">stdlib.h</text>
</g>
<!-- Node19&#45;&gt;Node21 -->
<g id="edge68" class="edge"><title>Node19&#45;&gt;Node21</title>
<path fill="none" stroke="midnightblue" d="M426.892,-174.362C442.718,-165.45 465.523,-152.609 483.395,-142.545"/>
<polygon fill="midnightblue" stroke="midnightblue" points="485.232,-145.527 492.228,-137.571 481.797,-139.428 485.232,-145.527"/>
</g>
<!-- Node22 -->
<g id="node58" class="node"><title>Node22</title>
<a xlink:href="atomicOps_8h.html" target="_top" xlink:title="atomicOps.h">
<polygon fill="none" stroke="black" points="301.5,-116.5 301.5,-137.5 378.5,-137.5 378.5,-116.5 301.5,-116.5"/>
<text text-anchor="middle" x="340" y="-124.5" font-family="FreeSans.ttf" font-size="10.00">atomicOps.h</text>
</a>
</g>
<!-- Node19&#45;&gt;Node22 -->
<g id="edge72" class="edge"><title>Node19&#45;&gt;Node22</title>
<path fill="none" stroke="midnightblue" d="M395.528,-174.362C385.655,-165.941 371.667,-154.011 360.202,-144.231"/>
<polygon fill="midnightblue" stroke="midnightblue" points="362.273,-141.397 352.393,-137.571 357.73,-146.723 362.273,-141.397"/>
</g>
<!-- Node24 -->
<g id="node62" class="node"><title>Node24</title>
<polygon fill="none" stroke="#bfbfbf" points="343,-232.5 343,-253.5 395,-253.5 395,-232.5 343,-232.5"/>
<text text-anchor="middle" x="369" y="-240.5" font-family="FreeSans.ttf" font-size="10.00">cstddef</text>
</g>
<!-- Node23&#45;&gt;Node24 -->
<g id="edge76" class="edge"><title>Node23&#45;&gt;Node24</title>
<path fill="none" stroke="midnightblue" d="M369,-290.362C369,-282.922 369,-272.743 369,-263.728"/>
<polygon fill="midnightblue" stroke="midnightblue" points="372.5,-263.571 369,-253.571 365.5,-263.571 372.5,-263.571"/>
</g>
<!-- Node25&#45;&gt;Node3 -->
<g id="edge82" class="edge"><title>Node25&#45;&gt;Node3</title>
<path fill="none" stroke="midnightblue" d="M536.524,-174.31C545.958,-159.475 559.267,-132.601 545,-116 527.477,-95.6106 351.905,-78.6231 273.488,-71.9895"/>
<polygon fill="midnightblue" stroke="midnightblue" points="273.351,-68.466 263.094,-71.1229 272.769,-75.4418 273.351,-68.466"/>
</g>
<!-- Node25&#45;&gt;Node6 -->
<g id="edge80" class="edge"><title>Node25&#45;&gt;Node6</title>
<path fill="none" stroke="midnightblue" d="M565.098,-177.83C621.407,-166.645 729.487,-145.177 785.455,-134.06"/>
<polygon fill="midnightblue" stroke="midnightblue" points="786.149,-137.491 795.275,-132.11 784.785,-130.625 786.149,-137.491"/>
</g>
<!-- Node25&#45;&gt;Node21 -->
<g id="edge84" class="edge"><title>Node25&#45;&gt;Node21</title>
<path fill="none" stroke="midnightblue" d="M525.699,-174.362C523.339,-166.758 520.091,-156.294 517.249,-147.135"/>
<polygon fill="midnightblue" stroke="midnightblue" points="520.587,-146.084 514.281,-137.571 513.902,-148.159 520.587,-146.084"/>
</g>
<!-- Node26&#45;&gt;Node3 -->
<g id="edge90" class="edge"><title>Node26&#45;&gt;Node3</title>
<path fill="none" stroke="midnightblue" d="M485.199,-527.919C401.102,-514.982 198,-477.477 198,-417 198,-417 198,-417 198,-185 198,-149.741 214.051,-111.315 225.289,-88.7323"/>
<polygon fill="midnightblue" stroke="midnightblue" points="228.418,-90.3005 229.895,-79.809 222.198,-87.0901 228.418,-90.3005"/>
</g>
<!-- Node26&#45;&gt;Node11 -->
<g id="edge88" class="edge"><title>Node26&#45;&gt;Node11</title>
<path fill="none" stroke="midnightblue" d="M556.748,-528.849C635.141,-517.846 823.335,-480.754 926,-370 986.046,-305.223 999.267,-193.749 1002.18,-147.764"/>
<polygon fill="midnightblue" stroke="midnightblue" points="1005.69,-147.723 1002.72,-137.552 998.695,-147.353 1005.69,-147.723"/>
</g>
<!-- Node26&#45;&gt;Node17 -->
<g id="edge92" class="edge"><title>Node26&#45;&gt;Node17</title>
<path fill="none" stroke="midnightblue" d="M527.481,-522.191C532.749,-512.911 539.95,-499.011 544,-486 555.314,-449.657 559.988,-405.301 561.846,-379.786"/>
<polygon fill="midnightblue" stroke="midnightblue" points="565.34,-379.99 562.499,-369.783 558.355,-379.534 565.34,-379.99"/>
</g>
<!-- Node27 -->
<g id="node74" class="node"><title>Node27</title>
<a xlink:href="abstractContiniousBuffer_8h.html" target="_top" xlink:title="a header for AbstractContiniousBuffer.c">
<polygon fill="none" stroke="black" points="27.5,-406.5 27.5,-427.5 170.5,-427.5 170.5,-406.5 27.5,-406.5"/>
<text text-anchor="middle" x="99" y="-414.5" font-family="FreeSans.ttf" font-size="10.00">abstractContiniousBuffer.h</text>
</a>
</g>
<!-- Node26&#45;&gt;Node27 -->
<g id="edge94" class="edge"><title>Node26&#45;&gt;Node27</title>
<path fill="none" stroke="midnightblue" d="M485.487,-530.469C410.332,-524.723 237.698,-509.353 184,-486 156.738,-474.144 131.06,-451.019 115.206,-434.821"/>
<polygon fill="midnightblue" stroke="midnightblue" points="117.677,-432.339 108.249,-427.505 112.604,-437.163 117.677,-432.339"/>
</g>
<!-- Node29 -->
<g id="node80" class="node"><title>Node29</title>
<a xlink:href="fixedPointDisplace_8h.html" target="_top" xlink:title="A header for fixedPointDisplace.c.">
<polygon fill="none" stroke="black" points="422.5,-464.5 422.5,-485.5 535.5,-485.5 535.5,-464.5 422.5,-464.5"/>
<text text-anchor="middle" x="479" y="-472.5" font-family="FreeSans.ttf" font-size="10.00">fixedPointDisplace.h</text>
</a>
</g>
<!-- Node26&#45;&gt;Node29 -->
<g id="edge102" class="edge"><title>Node26&#45;&gt;Node29</title>
<path fill="none" stroke="midnightblue" d="M513.297,-522.362C507.554,-514.431 499.557,-503.389 492.73,-493.961"/>
<polygon fill="midnightblue" stroke="midnightblue" points="495.355,-491.617 486.655,-485.571 489.685,-495.723 495.355,-491.617"/>
</g>
<!-- Node27&#45;&gt;Node3 -->
<g id="edge96" class="edge"><title>Node27&#45;&gt;Node3</title>
<path fill="none" stroke="midnightblue" d="M102.594,-406.266C109.062,-385.96 122,-340.419 122,-301 122,-301 122,-301 122,-185 122,-152.531 124.783,-140.578 146,-116 160.06,-99.7128 181.173,-88.2721 199.417,-80.759"/>
<polygon fill="midnightblue" stroke="midnightblue" points="200.854,-83.9558 208.918,-77.0834 198.329,-77.4273 200.854,-83.9558"/>
</g>
<!-- Node27&#45;&gt;Node17 -->
<g id="edge98" class="edge"><title>Node27&#45;&gt;Node17</title>
<path fill="none" stroke="midnightblue" d="M170.737,-408.033C263.043,-396.495 421.538,-376.683 506.04,-366.12"/>
<polygon fill="midnightblue" stroke="midnightblue" points="506.728,-369.561 516.217,-364.848 505.86,-362.615 506.728,-369.561"/>
</g>
<!-- Node28 -->
<g id="node78" class="node"><title>Node28</title>
<polygon fill="none" stroke="#bfbfbf" points="38,-348.5 38,-369.5 94,-369.5 94,-348.5 38,-348.5"/>
<text text-anchor="middle" x="66" y="-356.5" font-family="FreeSans.ttf" font-size="10.00">matrix.h</text>
</g>
<!-- Node27&#45;&gt;Node28 -->
<g id="edge100" class="edge"><title>Node27&#45;&gt;Node28</title>
<path fill="none" stroke="midnightblue" d="M92.9473,-406.362C88.5281,-398.595 82.4104,-387.843 77.1209,-378.546"/>
<polygon fill="midnightblue" stroke="midnightblue" points="80.0017,-376.531 72.0143,-369.571 73.9176,-379.993 80.0017,-376.531"/>
</g>
<!-- Node29&#45;&gt;Node2 -->
<g id="edge104" class="edge"><title>Node29&#45;&gt;Node2</title>
<path fill="none" stroke="midnightblue" d="M535.652,-470.517C603.178,-461.721 707,-435.722 707,-359 707,-359 707,-359 707,-243 707,-182.978 743.666,-119.365 764.3,-88.3187"/>
<polygon fill="midnightblue" stroke="midnightblue" points="767.388,-90.0031 770.13,-79.7694 761.605,-86.059 767.388,-90.0031"/>
</g>
<!-- Node29&#45;&gt;Node3 -->
<g id="edge106" class="edge"><title>Node29&#45;&gt;Node3</title>
<path fill="none" stroke="midnightblue" d="M462.76,-464.429C408.102,-427.641 231.592,-298.664 184,-138 181.223,-128.625 180.031,-124.936 184,-116 189.402,-103.836 199.68,-93.4865 209.682,-85.6217"/>
<polygon fill="midnightblue" stroke="midnightblue" points="211.895,-88.3395 217.905,-79.6143 207.765,-82.6872 211.895,-88.3395"/>
</g>
<!-- Node29&#45;&gt;Node27 -->
<g id="edge108" class="edge"><title>Node29&#45;&gt;Node27</title>
<path fill="none" stroke="midnightblue" d="M422.11,-466.317C357.25,-456.417 250.8,-440.17 177.935,-429.048"/>
<polygon fill="midnightblue" stroke="midnightblue" points="178.298,-425.563 167.884,-427.514 177.241,-432.483 178.298,-425.563"/>
</g>
<!-- Node30 -->
<g id="node85" class="node"><title>Node30</title>
<a xlink:href="matrix33_8h.html" target="_top" xlink:title="This file holds the header for the commonly used structure &#45; a 3 by 3 matrix.">
<polygon fill="none" stroke="black" points="1015,-406.5 1015,-427.5 1083,-427.5 1083,-406.5 1015,-406.5"/>
<text text-anchor="middle" x="1049" y="-414.5" font-family="FreeSans.ttf" font-size="10.00">matrix33.h</text>
</a>
</g>
<!-- Node29&#45;&gt;Node30 -->
<g id="edge110" class="edge"><title>Node29&#45;&gt;Node30</title>
<path fill="none" stroke="midnightblue" d="M535.738,-469.227C649.262,-457.675 902.237,-431.934 1004.67,-421.511"/>
<polygon fill="midnightblue" stroke="midnightblue" points="1005.08,-424.987 1014.67,-420.493 1004.37,-418.023 1005.08,-424.987"/>
</g>
<!-- Node30&#45;&gt;Node6 -->
<g id="edge116" class="edge"><title>Node30&#45;&gt;Node6</title>
<path fill="none" stroke="midnightblue" d="M1014.95,-412.503C963.269,-405.157 868.047,-389.436 840,-370 769.347,-321.039 798.857,-196.775 814.058,-147.543"/>
<polygon fill="midnightblue" stroke="midnightblue" points="817.485,-148.316 817.211,-137.725 810.821,-146.175 817.485,-148.316"/>
</g>
<!-- Node30&#45;&gt;Node7 -->
<g id="edge126" class="edge"><title>Node30&#45;&gt;Node7</title>
<path fill="none" stroke="midnightblue" d="M1053.09,-406.377C1063.95,-378.172 1093.66,-301.012 1108.02,-263.72"/>
<polygon fill="midnightblue" stroke="midnightblue" points="1111.46,-264.518 1111.79,-253.928 1104.93,-262.002 1111.46,-264.518"/>
</g>
<!-- Node30&#45;&gt;Node10 -->
<g id="edge114" class="edge"><title>Node30&#45;&gt;Node10</title>
<path fill="none" stroke="midnightblue" d="M1083.06,-414.309C1144.38,-407.407 1267,-383.314 1267,-301 1267,-301 1267,-301 1267,-243 1267,-209.553 1269.52,-170.754 1271.29,-147.577"/>
<polygon fill="midnightblue" stroke="midnightblue" points="1274.79,-147.792 1272.09,-137.547 1267.81,-147.238 1274.79,-147.792"/>
</g>
<!-- Node30&#45;&gt;Node11 -->
<g id="edge112" class="edge"><title>Node30&#45;&gt;Node11</title>
<path fill="none" stroke="midnightblue" d="M1047.89,-406.113C1044.89,-377.487 1036.14,-297.781 1025,-232 1019.99,-202.445 1012.59,-168.55 1007.78,-147.454"/>
<polygon fill="midnightblue" stroke="midnightblue" points="1011.18,-146.638 1005.52,-137.68 1004.36,-148.21 1011.18,-146.638"/>
</g>
<!-- Node30&#45;&gt;Node15 -->
<g id="edge118" class="edge"><title>Node30&#45;&gt;Node15</title>
<path fill="none" stroke="midnightblue" d="M1083.18,-414.891C1125.45,-411.034 1198.48,-400.206 1253,-370 1290.94,-348.983 1322,-344.369 1322,-301 1322,-301 1322,-301 1322,-185 1322,-149.265 1303.84,-110.982 1291.12,-88.5573"/>
<polygon fill="midnightblue" stroke="midnightblue" points="1294,-86.5459 1285.91,-79.7033 1287.96,-90.0967 1294,-86.5459"/>
</g>
<!-- Node31 -->
<g id="node91" class="node"><title>Node31</title>
<a xlink:href="vector3d_8h.html" target="_top" xlink:title="A 3 component vector.">
<polygon fill="none" stroke="black" points="849,-348.5 849,-369.5 917,-369.5 917,-348.5 849,-348.5"/>
<text text-anchor="middle" x="883" y="-356.5" font-family="FreeSans.ttf" font-size="10.00">vector3d.h</text>
</a>
</g>
<!-- Node30&#45;&gt;Node31 -->
<g id="edge120" class="edge"><title>Node30&#45;&gt;Node31</title>
<path fill="none" stroke="midnightblue" d="M1018.94,-406.497C991.993,-397.082 952.272,-383.204 922.718,-372.877"/>
<polygon fill="midnightblue" stroke="midnightblue" points="923.713,-369.517 913.118,-369.523 921.404,-376.126 923.713,-369.517"/>
</g>
<!-- Node31&#45;&gt;Node5 -->
<g id="edge124" class="edge"><title>Node31&#45;&gt;Node5</title>
<path fill="none" stroke="midnightblue" d="M876.03,-348.362C870.834,-340.431 863.599,-329.389 857.422,-319.961"/>
<polygon fill="midnightblue" stroke="midnightblue" points="860.334,-318.017 851.926,-311.571 854.478,-321.853 860.334,-318.017"/>
</g>
<!-- Node31&#45;&gt;Node6 -->
<g id="edge122" class="edge"><title>Node31&#45;&gt;Node6</title>
<path fill="none" stroke="midnightblue" d="M885.514,-348.142C888.287,-334.464 891.876,-310.291 888,-290 877.581,-235.459 848.262,-176.33 832.077,-146.528"/>
<polygon fill="midnightblue" stroke="midnightblue" points="835.039,-144.653 827.138,-137.595 828.913,-148.04 835.039,-144.653"/>
</g>
</g>
</svg>
        <g id="navigator" transform="translate(0 0)" fill="#404254">
                <rect fill="#f2f5e9" fill-opacity="0.5" stroke="#606060" stroke-width=".5" x="0" y="0" width="60" height="60"/>
                <use id="zoomplus" xlink:href="#zoomPlus" x="17" y="9" onmousedown="handleZoom(evt,'in')"/>
                <use id="zoomminus" xlink:href="#zoomMin" x="42" y="9" onmousedown="handleZoom(evt,'out')"/>
                <use id="reset" xlink:href="#resetDef" x="30" y="36" onmousedown="handleReset()"/>
                <g id="arrowUp" xlink:href="#dirArrow" transform="translate(30 24)" onmousedown="handlePan(0,-1)">
                  <use xlink:href="#rim" fill="#404040">
                        <set attributeName="fill" to="#808080" begin="arrowUp.mouseover" end="arrowUp.mouseout"/>
                  </use>
                  <path fill="none" stroke="white" stroke-width="1.5" d="M0,-3.0v7 M-2.5,-0.5L0,-3.0L2.5,-0.5"/>
                </g>
                <g id="arrowRight" xlink:href="#dirArrow" transform="rotate(90) translate(36 -43)" onmousedown="handlePan(1,0)">
                  <use xlink:href="#rim" fill="#404040">
                        <set attributeName="fill" to="#808080" begin="arrowRight.mouseover" end="arrowRight.mouseout"/>
                  </use>
                  <path fill="none" stroke="white" stroke-width="1.5" d="M0,-3.0v7 M-2.5,-0.5L0,-3.0L2.5,-0.5"/>
                </g>
                <g id="arrowDown" xlink:href="#dirArrow" transform="rotate(180) translate(-30 -48)" onmousedown="handlePan(0,1)">
                  <use xlink:href="#rim" fill="#404040">
                        <set attributeName="fill" to="#808080" begin="arrowDown.mouseover" end="arrowDown.mouseout"/>
                  </use>
                  <path fill="none" stroke="white" stroke-width="1.5" d="M0,-3.0v7 M-2.5,-0.5L0,-3.0L2.5,-0.5"/>
                </g>
                <g id="arrowLeft" xlink:href="#dirArrow" transform="rotate(270) translate(-36 17)" onmousedown="handlePan(-1,0)">
                  <use xlink:href="#rim" fill="#404040">
                        <set attributeName="fill" to="#808080" begin="arrowLeft.mouseover" end="arrowLeft.mouseout"/>
                  </use>
                  <path fill="none" stroke="white" stroke-width="1.5" d="M0,-3.0v7 M-2.5,-0.5L0,-3.0L2.5,-0.5"/>
                </g>
        </g>
</svg>
