<?xml version="1.0" encoding="UTF-8" standalone="no"?>
<!DOCTYPE svg PUBLIC "-//W3C//DTD SVG 1.1//EN"
 "http://www.w3.org/Graphics/SVG/1.1/DTD/svg11.dtd">
<!-- Generated by graphviz version 2.26.3 (20100126.1600)
 -->
<!-- Title: G Pages: 1 -->
<!--zoomable 552 -->
<svg id="main" version="1.1" xmlns="http://www.w3.org/2000/svg" xmlns:xlink="http://www.w3.org/1999/xlink" xml:space="preserve" onload="init(evt)">
        <defs>
                <circle id="rim" cx="0" cy="0" r="7"/>
                <circle id="rim2" cx="0" cy="0" r="3.5"/>
                <g id="zoomPlus">
                        <use xlink:href="#rim" fill="#404040">
                                <set attributeName="fill" to="#808080" begin="zoomplus.mouseover" end="zoomplus.mouseout"/>
                        </use>
                        <path d="M-4,0h8M0,-4v8" fill="none" stroke="white" stroke-width="1.5" pointer-events="none"/>
                </g>
                <g id="zoomMin">
                        <use xlink:href="#rim" fill="#404040">
                                <set attributeName="fill" to="#808080" begin="zoomminus.mouseover" end="zoomminus.mouseout"/>
                        </use>
                        <path d="M-4,0h8" fill="none" stroke="white" stroke-width="1.5" pointer-events="none"/>
                </g>
                <g id="dirArrow">
                        <path fill="none" stroke="white" stroke-width="1.5" d="M0,-3.0v7 M-2.5,-0.5L0,-3.0L2.5,-0.5"/>
                </g>
               <g id="resetDef">
                       <use xlink:href="#rim2" fill="#404040">
                               <set attributeName="fill" to="#808080" begin="reset.mouseover" end="reset.mouseout"/>
                       </use>
               </g>
        </defs>

<script type="text/javascript">
var viewWidth = 1964;
var viewHeight = 552;
var sectionId = 'dynsection-1';
</script>
<script xlink:href="svgpan.js"/>
<svg id="graph" class="graph">
<g id="viewport">
<title>G</title>
<!-- Node1 -->
<g id="node1" class="node"><title>Node1</title>
<polygon fill="#bfbfbf" stroke="black" points="771,-522.5 771,-543.5 941,-543.5 941,-522.5 771,-522.5"/>
<text text-anchor="middle" x="856" y="-530.5" font-family="FreeSans.ttf" font-size="10.00">utils/filters/graph/diagramitem.h</text>
</g>
<!-- Node2 -->
<g id="node3" class="node"><title>Node2</title>
<a xlink:href="arrow_8h.html" target="_top" xlink:title="utils/filters/graph/arrow.h">
<polygon fill="none" stroke="black" points="644,-406.5 644,-427.5 778,-427.5 778,-406.5 644,-406.5"/>
<text text-anchor="middle" x="711" y="-414.5" font-family="FreeSans.ttf" font-size="10.00">utils/filters/graph/arrow.h</text>
</a>
</g>
<!-- Node1&#45;&gt;Node2 -->
<g id="edge2" class="edge"><title>Node1&#45;&gt;Node2</title>
<path fill="none" stroke="midnightblue" d="M834.757,-516.006C804.42,-491.736 749.573,-447.858 724.349,-427.679"/>
<polygon fill="midnightblue" stroke="midnightblue" points="832.623,-518.781 842.619,-522.295 836.996,-513.315 832.623,-518.781"/>
</g>
<!-- Node4 -->
<g id="node7" class="node"><title>Node4</title>
<a xlink:href="diagramitem_8cpp.html" target="_top" xlink:title="utils/filters/graph/diagramitem.cpp">
<polygon fill="none" stroke="black" points="765.5,-348.5 765.5,-369.5 946.5,-369.5 946.5,-348.5 765.5,-348.5"/>
<text text-anchor="middle" x="856" y="-356.5" font-family="FreeSans.ttf" font-size="10.00">utils/filters/graph/diagramitem.cpp</text>
</a>
</g>
<!-- Node1&#45;&gt;Node4 -->
<g id="edge84" class="edge"><title>Node1&#45;&gt;Node4</title>
<path fill="none" stroke="midnightblue" d="M856,-512.2C856,-475.013 856,-398.36 856,-369.928"/>
<polygon fill="midnightblue" stroke="midnightblue" points="852.5,-512.377 856,-522.377 859.5,-512.377 852.5,-512.377"/>
</g>
<!-- Node16 -->
<g id="node33" class="node"><title>Node16</title>
<a xlink:href="diagramscene_8h.html" target="_top" xlink:title="utils/filters/graph/diagramscene.h">
<polygon fill="none" stroke="black" points="940,-464.5 940,-485.5 1116,-485.5 1116,-464.5 940,-464.5"/>
<text text-anchor="middle" x="1028" y="-472.5" font-family="FreeSans.ttf" font-size="10.00">utils/filters/graph/diagramscene.h</text>
</a>
</g>
<!-- Node1&#45;&gt;Node16 -->
<g id="edge34" class="edge"><title>Node1&#45;&gt;Node16</title>
<path fill="none" stroke="midnightblue" d="M896.691,-519.279C927.339,-508.944 968.735,-494.985 996.794,-485.523"/>
<polygon fill="midnightblue" stroke="midnightblue" points="895.505,-515.985 887.148,-522.497 897.742,-522.618 895.505,-515.985"/>
</g>
<!-- Node3 -->
<g id="node5" class="node"><title>Node3</title>
<a xlink:href="arrow_8cpp.html" target="_top" xlink:title="utils/filters/graph/arrow.cpp">
<polygon fill="none" stroke="black" points="603.5,-348.5 603.5,-369.5 748.5,-369.5 748.5,-348.5 603.5,-348.5"/>
<text text-anchor="middle" x="676" y="-356.5" font-family="FreeSans.ttf" font-size="10.00">utils/filters/graph/arrow.cpp</text>
</a>
</g>
<!-- Node2&#45;&gt;Node3 -->
<g id="edge4" class="edge"><title>Node2&#45;&gt;Node3</title>
<path fill="none" stroke="midnightblue" d="M699.333,-397.667C693.678,-388.295 687.105,-377.402 682.379,-369.571"/>
<polygon fill="midnightblue" stroke="midnightblue" points="696.417,-399.608 704.58,-406.362 702.41,-395.992 696.417,-399.608"/>
</g>
<!-- Node2&#45;&gt;Node4 -->
<g id="edge6" class="edge"><title>Node2&#45;&gt;Node4</title>
<path fill="none" stroke="midnightblue" d="M746.623,-402.751C772.229,-392.509 806.199,-378.921 829.447,-369.621"/>
<polygon fill="midnightblue" stroke="midnightblue" points="745.243,-399.533 737.258,-406.497 747.843,-406.032 745.243,-399.533"/>
</g>
<!-- Node5 -->
<g id="node9" class="node"><title>Node5</title>
<a xlink:href="filterGraphPresentation_8h.html" target="_top" xlink:title="utils/filters/graph/filterGraphPresentation.h">
<polygon fill="none" stroke="black" points="211.5,-174.5 211.5,-195.5 430.5,-195.5 430.5,-174.5 211.5,-174.5"/>
<text text-anchor="middle" x="321" y="-182.5" font-family="FreeSans.ttf" font-size="10.00">utils/filters/graph/filterGraphPresentation.h</text>
</a>
</g>
<!-- Node2&#45;&gt;Node5 -->
<g id="edge8" class="edge"><title>Node2&#45;&gt;Node5</title>
<path fill="none" stroke="midnightblue" d="M633.851,-406.96C489.894,-386.472 189.34,-334.842 128,-254 122.09,-246.211 121.959,-239.688 128,-232 141.609,-214.679 189.698,-202.941 234.464,-195.527"/>
<polygon fill="midnightblue" stroke="midnightblue" points="633.549,-410.452 643.939,-408.381 634.526,-403.52 633.549,-410.452"/>
</g>
<!-- Node6 -->
<g id="node11" class="node"><title>Node6</title>
<a xlink:href="diagramscene_8cpp.html" target="_top" xlink:title="utils/filters/graph/diagramscene.cpp">
<polygon fill="none" stroke="black" points="0,-116.5 0,-137.5 188,-137.5 188,-116.5 0,-116.5"/>
<text text-anchor="middle" x="94" y="-124.5" font-family="FreeSans.ttf" font-size="10.00">utils/filters/graph/diagramscene.cpp</text>
</a>
</g>
<!-- Node5&#45;&gt;Node6 -->
<g id="edge10" class="edge"><title>Node5&#45;&gt;Node6</title>
<path fill="none" stroke="midnightblue" d="M270.162,-172.011C229.46,-161.611 173.098,-147.21 135.185,-137.523"/>
<polygon fill="midnightblue" stroke="midnightblue" points="269.337,-175.412 279.892,-174.497 271.07,-168.63 269.337,-175.412"/>
</g>
<!-- Node7 -->
<g id="node13" class="node"><title>Node7</title>
<a xlink:href="filterGraphPresentation_8cpp.html" target="_top" xlink:title="utils/filters/graph/filterGraphPresentation.cpp">
<polygon fill="none" stroke="black" points="206,-116.5 206,-137.5 436,-137.5 436,-116.5 206,-116.5"/>
<text text-anchor="middle" x="321" y="-124.5" font-family="FreeSans.ttf" font-size="10.00">utils/filters/graph/filterGraphPresentation.cpp</text>
</a>
</g>
<!-- Node5&#45;&gt;Node7 -->
<g id="edge12" class="edge"><title>Node5&#45;&gt;Node7</title>
<path fill="none" stroke="midnightblue" d="M321,-164.191C321,-155.168 321,-144.994 321,-137.571"/>
<polygon fill="midnightblue" stroke="midnightblue" points="317.5,-164.362 321,-174.362 324.5,-164.362 317.5,-164.362"/>
</g>
<!-- Node8 -->
<g id="node15" class="node"><title>Node8</title>
<a xlink:href="baseHostDialog_8h.html" target="_top" xlink:title="applications/base/baseHostDialog.h">
<polygon fill="none" stroke="black" points="454,-116.5 454,-137.5 642,-137.5 642,-116.5 454,-116.5"/>
<text text-anchor="middle" x="548" y="-124.5" font-family="FreeSans.ttf" font-size="10.00">applications/base/baseHostDialog.h</text>
</a>
</g>
<!-- Node5&#45;&gt;Node8 -->
<g id="edge14" class="edge"><title>Node5&#45;&gt;Node8</title>
<path fill="none" stroke="midnightblue" d="M371.838,-172.011C412.54,-161.611 468.902,-147.21 506.815,-137.523"/>
<polygon fill="midnightblue" stroke="midnightblue" points="370.93,-168.63 362.108,-174.497 372.663,-175.412 370.93,-168.63"/>
</g>
<!-- Node9 -->
<g id="node17" class="node"><title>Node9</title>
<a xlink:href="baseHostDialog_8cpp.html" target="_top" xlink:title="Implements a basic host dialog that uses BaseCalculationThread to process captured data Extend or rei...">
<polygon fill="none" stroke="black" points="264.5,-58.5 264.5,-79.5 463.5,-79.5 463.5,-58.5 264.5,-58.5"/>
<text text-anchor="middle" x="364" y="-66.5" font-family="FreeSans.ttf" font-size="10.00">applications/base/baseHostDialog.cpp</text>
</a>
</g>
<!-- Node8&#45;&gt;Node9 -->
<g id="edge16" class="edge"><title>Node8&#45;&gt;Node9</title>
<path fill="none" stroke="midnightblue" d="M504.896,-113.413C472.067,-103.065 427.53,-89.0258 397.384,-79.5231"/>
<polygon fill="midnightblue" stroke="midnightblue" points="504.089,-116.828 514.679,-116.497 506.194,-110.152 504.089,-116.828"/>
</g>
<!-- Node10 -->
<g id="node19" class="node"><title>Node10</title>
<a xlink:href="main__vibase_8cpp.html" target="_top" xlink:title="applications/base/main_vibase.cpp">
<polygon fill="none" stroke="black" points="312.5,-0.5 312.5,-21.5 495.5,-21.5 495.5,-0.5 312.5,-0.5"/>
<text text-anchor="middle" x="404" y="-8.5" font-family="FreeSans.ttf" font-size="10.00">applications/base/main_vibase.cpp</text>
</a>
</g>
<!-- Node8&#45;&gt;Node10 -->
<g id="edge18" class="edge"><title>Node8&#45;&gt;Node10</title>
<path fill="none" stroke="midnightblue" d="M529.759,-109.176C514.728,-94.803 492.61,-74.3607 472,-58 455.14,-44.616 434.692,-30.7802 420.649,-21.6171"/>
<polygon fill="midnightblue" stroke="midnightblue" points="527.697,-112.05 537.325,-116.472 532.556,-107.011 527.697,-112.05"/>
</g>
<!-- Node11 -->
<g id="node21" class="node"><title>Node11</title>
<a xlink:href="mainWindow_8h.html" target="_top" xlink:title="applications/base/mainWindow.h">
<polygon fill="none" stroke="black" points="519,-58.5 519,-79.5 689,-79.5 689,-58.5 519,-58.5"/>
<text text-anchor="middle" x="604" y="-66.5" font-family="FreeSans.ttf" font-size="10.00">applications/base/mainWindow.h</text>
</a>
</g>
<!-- Node8&#45;&gt;Node11 -->
<g id="edge20" class="edge"><title>Node8&#45;&gt;Node11</title>
<path fill="none" stroke="midnightblue" d="M565.265,-109.118C574.612,-99.4377 585.839,-87.8098 593.794,-79.5707"/>
<polygon fill="midnightblue" stroke="midnightblue" points="562.699,-106.737 558.271,-116.362 567.735,-111.599 562.699,-106.737"/>
</g>
<!-- Node14 -->
<g id="node28" class="node"><title>Node14</title>
<a xlink:href="recorderDialog_8h.html" target="_top" xlink:title="Defines a recorder dialog class derived from BaseHostDialog.">
<polygon fill="none" stroke="black" points="721,-58.5 721,-79.5 921,-79.5 921,-58.5 721,-58.5"/>
<text text-anchor="middle" x="821" y="-66.5" font-family="FreeSans.ttf" font-size="10.00">applications/recorder/recorderDialog.h</text>
</a>
</g>
<!-- Node8&#45;&gt;Node14 -->
<g id="edge28" class="edge"><title>Node8&#45;&gt;Node14</title>
<path fill="none" stroke="midnightblue" d="M607.286,-114.404C656.367,-103.977 725.294,-89.333 771.469,-79.5231"/>
<polygon fill="midnightblue" stroke="midnightblue" points="606.493,-110.995 597.438,-116.497 607.947,-117.842 606.493,-110.995"/>
</g>
<!-- Node11&#45;&gt;Node10 -->
<g id="edge22" class="edge"><title>Node11&#45;&gt;Node10</title>
<path fill="none" stroke="midnightblue" d="M558.067,-55.6795C522.3,-45.307 473.337,-31.1078 440.286,-21.5231"/>
<polygon fill="midnightblue" stroke="midnightblue" points="557.202,-59.0728 567.782,-58.4966 559.152,-52.3498 557.202,-59.0728"/>
</g>
<!-- Node12 -->
<g id="node24" class="node"><title>Node12</title>
<a xlink:href="mainWindow_8cpp.html" target="_top" xlink:title="applications/base/mainWindow.cpp">
<polygon fill="none" stroke="black" points="513,-0.5 513,-21.5 695,-21.5 695,-0.5 513,-0.5"/>
<text text-anchor="middle" x="604" y="-8.5" font-family="FreeSans.ttf" font-size="10.00">applications/base/mainWindow.cpp</text>
</a>
</g>
<!-- Node11&#45;&gt;Node12 -->
<g id="edge24" class="edge"><title>Node11&#45;&gt;Node12</title>
<path fill="none" stroke="midnightblue" d="M604,-48.1906C604,-39.1684 604,-28.9941 604,-21.5707"/>
<polygon fill="midnightblue" stroke="midnightblue" points="600.5,-48.3619 604,-58.3619 607.5,-48.3619 600.5,-48.3619"/>
</g>
<!-- Node13 -->
<g id="node26" class="node"><title>Node13</title>
<a xlink:href="main__virecorder_8cpp.html" target="_top" xlink:title="applications/recorder/main_virecorder.cpp">
<polygon fill="none" stroke="black" points="712.5,-0.5 712.5,-21.5 929.5,-21.5 929.5,-0.5 712.5,-0.5"/>
<text text-anchor="middle" x="821" y="-8.5" font-family="FreeSans.ttf" font-size="10.00">applications/recorder/main_virecorder.cpp</text>
</a>
</g>
<!-- Node11&#45;&gt;Node13 -->
<g id="edge26" class="edge"><title>Node11&#45;&gt;Node13</title>
<path fill="none" stroke="midnightblue" d="M653.34,-55.8123C692.19,-45.4285 745.616,-31.1487 781.629,-21.5231"/>
<polygon fill="midnightblue" stroke="midnightblue" points="652.054,-52.5331 643.297,-58.4966 653.862,-59.2957 652.054,-52.5331"/>
</g>
<!-- Node14&#45;&gt;Node13 -->
<g id="edge30" class="edge"><title>Node14&#45;&gt;Node13</title>
<path fill="none" stroke="midnightblue" d="M821,-48.1906C821,-39.1684 821,-28.9941 821,-21.5707"/>
<polygon fill="midnightblue" stroke="midnightblue" points="817.5,-48.3619 821,-58.3619 824.5,-48.3619 817.5,-48.3619"/>
</g>
<!-- Node15 -->
<g id="node31" class="node"><title>Node15</title>
<a xlink:href="recorderDialog_8cpp.html" target="_top" xlink:title="Implements frame recording dialog based on BaseHostDialog.">
<polygon fill="none" stroke="black" points="946.5,-0.5 946.5,-21.5 1157.5,-21.5 1157.5,-0.5 946.5,-0.5"/>
<text text-anchor="middle" x="1052" y="-8.5" font-family="FreeSans.ttf" font-size="10.00">applications/recorder/recorderDialog.cpp</text>
</a>
</g>
<!-- Node14&#45;&gt;Node15 -->
<g id="edge32" class="edge"><title>Node14&#45;&gt;Node15</title>
<path fill="none" stroke="midnightblue" d="M872.733,-56.0107C914.153,-45.6109 971.508,-31.2102 1010.09,-21.5231"/>
<polygon fill="midnightblue" stroke="midnightblue" points="871.679,-52.6667 862.832,-58.4966 873.384,-59.456 871.679,-52.6667"/>
</g>
<!-- Node17 -->
<g id="node35" class="node"><title>Node17</title>
<a xlink:href="filterPinPresentation_8h.html" target="_top" xlink:title="utils/filters/graph/filterPinPresentation.h">
<polygon fill="none" stroke="black" points="926,-406.5 926,-427.5 1130,-427.5 1130,-406.5 926,-406.5"/>
<text text-anchor="middle" x="1028" y="-414.5" font-family="FreeSans.ttf" font-size="10.00">utils/filters/graph/filterPinPresentation.h</text>
</a>
</g>
<!-- Node16&#45;&gt;Node17 -->
<g id="edge36" class="edge"><title>Node16&#45;&gt;Node17</title>
<path fill="none" stroke="midnightblue" d="M1028,-454.191C1028,-445.168 1028,-434.994 1028,-427.571"/>
<polygon fill="midnightblue" stroke="midnightblue" points="1024.5,-454.362 1028,-464.362 1031.5,-454.362 1024.5,-454.362"/>
</g>
<!-- Node33 -->
<g id="node74" class="node"><title>Node33</title>
<a xlink:href="diagramtextitem_8cpp.html" target="_top" xlink:title="utils/filters/graph/diagramtextitem.cpp">
<polygon fill="none" stroke="black" points="1148,-406.5 1148,-427.5 1348,-427.5 1348,-406.5 1148,-406.5"/>
<text text-anchor="middle" x="1248" y="-414.5" font-family="FreeSans.ttf" font-size="10.00">utils/filters/graph/diagramtextitem.cpp</text>
</a>
</g>
<!-- Node16&#45;&gt;Node33 -->
<g id="edge82" class="edge"><title>Node16&#45;&gt;Node33</title>
<path fill="none" stroke="midnightblue" d="M1077.52,-461.945C1116.95,-451.55 1171.42,-437.19 1208.08,-427.523"/>
<polygon fill="midnightblue" stroke="midnightblue" points="1076.62,-458.563 1067.84,-464.497 1078.4,-465.332 1076.62,-458.563"/>
</g>
<!-- Node17&#45;&gt;Node4 -->
<g id="edge78" class="edge"><title>Node17&#45;&gt;Node4</title>
<path fill="none" stroke="midnightblue" d="M987.309,-403.279C956.661,-392.944 915.265,-378.985 887.206,-369.523"/>
<polygon fill="midnightblue" stroke="midnightblue" points="986.258,-406.618 996.852,-406.497 988.495,-399.985 986.258,-406.618"/>
</g>
<!-- Node18 -->
<g id="node37" class="node"><title>Node18</title>
<a xlink:href="filterBlockPresentation_8h.html" target="_top" xlink:title="utils/filters/graph/filterBlockPresentation.h">
<polygon fill="none" stroke="black" points="963.5,-348.5 963.5,-369.5 1178.5,-369.5 1178.5,-348.5 963.5,-348.5"/>
<text text-anchor="middle" x="1071" y="-356.5" font-family="FreeSans.ttf" font-size="10.00">utils/filters/graph/filterBlockPresentation.h</text>
</a>
</g>
<!-- Node17&#45;&gt;Node18 -->
<g id="edge38" class="edge"><title>Node17&#45;&gt;Node18</title>
<path fill="none" stroke="midnightblue" d="M1041.9,-398.25C1048.94,-388.75 1057.24,-377.565 1063.16,-369.571"/>
<polygon fill="midnightblue" stroke="midnightblue" points="1039.03,-396.244 1035.89,-406.362 1044.65,-400.413 1039.03,-396.244"/>
</g>
<!-- Node25 -->
<g id="node53" class="node"><title>Node25</title>
<a xlink:href="filterPinPresentation_8cpp.html" target="_top" xlink:title="utils/filters/graph/filterPinPresentation.cpp">
<polygon fill="none" stroke="black" points="1741.5,-232.5 1741.5,-253.5 1956.5,-253.5 1956.5,-232.5 1741.5,-232.5"/>
<text text-anchor="middle" x="1849" y="-240.5" font-family="FreeSans.ttf" font-size="10.00">utils/filters/graph/filterPinPresentation.cpp</text>
</a>
</g>
<!-- Node17&#45;&gt;Node25 -->
<g id="edge80" class="edge"><title>Node17&#45;&gt;Node25</title>
<path fill="none" stroke="midnightblue" d="M1136.23,-405.359C1360.66,-380.973 1856.95,-325.647 1869,-312 1883.69,-295.358 1868.28,-268.5 1857.53,-253.678"/>
<polygon fill="midnightblue" stroke="midnightblue" points="1135.65,-401.903 1126.08,-406.462 1136.4,-408.862 1135.65,-401.903"/>
</g>
<!-- Node19 -->
<g id="node39" class="node"><title>Node19</title>
<a xlink:href="compoundBlockPresentation_8h.html" target="_top" xlink:title="utils/filters/graph/compoundBlockPresentation.h">
<polygon fill="none" stroke="black" points="409.5,-290.5 409.5,-311.5 654.5,-311.5 654.5,-290.5 409.5,-290.5"/>
<text text-anchor="middle" x="532" y="-298.5" font-family="FreeSans.ttf" font-size="10.00">utils/filters/graph/compoundBlockPresentation.h</text>
</a>
</g>
<!-- Node18&#45;&gt;Node19 -->
<g id="edge40" class="edge"><title>Node18&#45;&gt;Node19</title>
<path fill="none" stroke="midnightblue" d="M963.23,-347.403C865.9,-336.93 723.907,-321.65 629.792,-311.523"/>
<polygon fill="midnightblue" stroke="midnightblue" points="963.074,-350.907 973.391,-348.497 963.823,-343.947 963.074,-350.907"/>
</g>
<!-- Node21 -->
<g id="node43" class="node"><title>Node21</title>
<a xlink:href="filterPresentationsCollection_8h.html" target="_top" xlink:title="utils/filters/graph/filterPresentationsCollection.h">
<polygon fill="none" stroke="black" points="411,-232.5 411,-253.5 653,-253.5 653,-232.5 411,-232.5"/>
<text text-anchor="middle" x="532" y="-240.5" font-family="FreeSans.ttf" font-size="10.00">utils/filters/graph/filterPresentationsCollection.h</text>
</a>
</g>
<!-- Node18&#45;&gt;Node21 -->
<g id="edge50" class="edge"><title>Node18&#45;&gt;Node21</title>
<path fill="none" stroke="midnightblue" d="M955.15,-347.38C868.363,-338.001 757.281,-324.375 713,-312 689.618,-305.465 685.551,-298.994 663,-290 629.223,-276.529 589.884,-262.653 563.198,-253.504"/>
<polygon fill="midnightblue" stroke="midnightblue" points="955.022,-350.886 965.339,-348.473 955.769,-343.926 955.022,-350.886"/>
</g>
<!-- Node23 -->
<g id="node49" class="node"><title>Node23</title>
<a xlink:href="filterBlockPresentation_8cpp.html" target="_top" xlink:title="utils/filters/graph/filterBlockPresentation.cpp">
<polygon fill="none" stroke="black" points="1415.5,-290.5 1415.5,-311.5 1642.5,-311.5 1642.5,-290.5 1415.5,-290.5"/>
<text text-anchor="middle" x="1529" y="-298.5" font-family="FreeSans.ttf" font-size="10.00">utils/filters/graph/filterBlockPresentation.cpp</text>
</a>
</g>
<!-- Node18&#45;&gt;Node23 -->
<g id="edge52" class="edge"><title>Node18&#45;&gt;Node23</title>
<path fill="none" stroke="midnightblue" d="M1164.08,-347.212C1246.74,-336.745 1366.42,-321.589 1445.9,-311.523"/>
<polygon fill="midnightblue" stroke="midnightblue" points="1163.42,-343.768 1153.94,-348.497 1164.3,-350.712 1163.42,-343.768"/>
</g>
<!-- Node24 -->
<g id="node51" class="node"><title>Node24</title>
<a xlink:href="g12PinPresentation_8h.html" target="_top" xlink:title="utils/filters/graph/g12PinPresentation.h">
<polygon fill="none" stroke="black" points="1659.5,-290.5 1659.5,-311.5 1860.5,-311.5 1860.5,-290.5 1659.5,-290.5"/>
<text text-anchor="middle" x="1760" y="-298.5" font-family="FreeSans.ttf" font-size="10.00">utils/filters/graph/g12PinPresentation.h</text>
</a>
</g>
<!-- Node18&#45;&gt;Node24 -->
<g id="edge54" class="edge"><title>Node18&#45;&gt;Node24</title>
<path fill="none" stroke="midnightblue" d="M1188.83,-350.136C1306.06,-341.157 1491.04,-326.551 1651,-312 1653.75,-311.75 1656.53,-311.493 1659.34,-311.231"/>
<polygon fill="midnightblue" stroke="midnightblue" points="1188.46,-346.654 1178.75,-350.907 1188.99,-353.634 1188.46,-346.654"/>
</g>
<!-- Node27 -->
<g id="node57" class="node"><title>Node27</title>
<a xlink:href="txtPinPresentation_8h.html" target="_top" xlink:title="utils/filters/graph/txtPinPresentation.h">
<polygon fill="none" stroke="black" points="1202,-290.5 1202,-311.5 1398,-311.5 1398,-290.5 1202,-290.5"/>
<text text-anchor="middle" x="1300" y="-298.5" font-family="FreeSans.ttf" font-size="10.00">utils/filters/graph/txtPinPresentation.h</text>
</a>
</g>
<!-- Node18&#45;&gt;Node27 -->
<g id="edge60" class="edge"><title>Node18&#45;&gt;Node27</title>
<path fill="none" stroke="midnightblue" d="M1122.29,-346.011C1163.35,-335.611 1220.2,-321.21 1258.45,-311.523"/>
<polygon fill="midnightblue" stroke="midnightblue" points="1121.3,-342.648 1112.47,-348.497 1123.02,-349.434 1121.3,-342.648"/>
</g>
<!-- Node29 -->
<g id="node62" class="node"><title>Node29</title>
<a xlink:href="inputBlockPresentation_8h.html" target="_top" xlink:title="utils/filters/graph/inputBlockPresentation.h">
<polygon fill="none" stroke="black" points="722,-290.5 722,-311.5 940,-311.5 940,-290.5 722,-290.5"/>
<text text-anchor="middle" x="831" y="-298.5" font-family="FreeSans.ttf" font-size="10.00">utils/filters/graph/inputBlockPresentation.h</text>
</a>
</g>
<!-- Node18&#45;&gt;Node29 -->
<g id="edge66" class="edge"><title>Node18&#45;&gt;Node29</title>
<path fill="none" stroke="midnightblue" d="M1017.8,-346.142C974.722,-335.733 914.798,-321.251 874.544,-311.523"/>
<polygon fill="midnightblue" stroke="midnightblue" points="1017,-349.55 1027.54,-348.497 1018.64,-342.745 1017,-349.55"/>
</g>
<!-- Node31 -->
<g id="node67" class="node"><title>Node31</title>
<a xlink:href="outputBlockPresentation_8h.html" target="_top" xlink:title="utils/filters/graph/outputBlockPresentation.h">
<polygon fill="none" stroke="black" points="958,-290.5 958,-311.5 1184,-311.5 1184,-290.5 958,-290.5"/>
<text text-anchor="middle" x="1071" y="-298.5" font-family="FreeSans.ttf" font-size="10.00">utils/filters/graph/outputBlockPresentation.h</text>
</a>
</g>
<!-- Node18&#45;&gt;Node31 -->
<g id="edge72" class="edge"><title>Node18&#45;&gt;Node31</title>
<path fill="none" stroke="midnightblue" d="M1071,-338.191C1071,-329.168 1071,-318.994 1071,-311.571"/>
<polygon fill="midnightblue" stroke="midnightblue" points="1067.5,-338.362 1071,-348.362 1074.5,-338.362 1067.5,-338.362"/>
</g>
<!-- Node20 -->
<g id="node41" class="node"><title>Node20</title>
<a xlink:href="compoundBlockPresentation_8cpp.html" target="_top" xlink:title="utils/filters/graph/compoundBlockPresentation.cpp">
<polygon fill="none" stroke="black" points="136.5,-232.5 136.5,-253.5 393.5,-253.5 393.5,-232.5 136.5,-232.5"/>
<text text-anchor="middle" x="265" y="-240.5" font-family="FreeSans.ttf" font-size="10.00">utils/filters/graph/compoundBlockPresentation.cpp</text>
</a>
</g>
<!-- Node19&#45;&gt;Node20 -->
<g id="edge42" class="edge"><title>Node19&#45;&gt;Node20</title>
<path fill="none" stroke="midnightblue" d="M473.716,-288.339C425.734,-277.916 358.508,-263.313 313.442,-253.523"/>
<polygon fill="midnightblue" stroke="midnightblue" points="473.133,-291.794 483.648,-290.497 474.619,-284.954 473.133,-291.794"/>
</g>
<!-- Node19&#45;&gt;Node21 -->
<g id="edge44" class="edge"><title>Node19&#45;&gt;Node21</title>
<path fill="none" stroke="midnightblue" d="M532,-280.191C532,-271.168 532,-260.994 532,-253.571"/>
<polygon fill="midnightblue" stroke="midnightblue" points="528.5,-280.362 532,-290.362 535.5,-280.362 528.5,-280.362"/>
</g>
<!-- Node21&#45;&gt;Node5 -->
<g id="edge46" class="edge"><title>Node21&#45;&gt;Node5</title>
<path fill="none" stroke="midnightblue" d="M484.024,-229.812C446.248,-219.428 394.3,-205.149 359.282,-195.523"/>
<polygon fill="midnightblue" stroke="midnightblue" points="483.219,-233.221 493.789,-232.497 485.075,-226.471 483.219,-233.221"/>
</g>
<!-- Node22 -->
<g id="node46" class="node"><title>Node22</title>
<a xlink:href="filterPresentationsCollection_8cpp.html" target="_top" xlink:title="utils/filters/graph/filterPresentationsCollection.cpp">
<polygon fill="none" stroke="black" points="802.5,-174.5 802.5,-195.5 1055.5,-195.5 1055.5,-174.5 802.5,-174.5"/>
<text text-anchor="middle" x="929" y="-182.5" font-family="FreeSans.ttf" font-size="10.00">utils/filters/graph/filterPresentationsCollection.cpp</text>
</a>
</g>
<!-- Node21&#45;&gt;Node22 -->
<g id="edge48" class="edge"><title>Node21&#45;&gt;Node22</title>
<path fill="none" stroke="midnightblue" d="M614.222,-230.988C685.81,-220.529 788.562,-205.517 856.971,-195.523"/>
<polygon fill="midnightblue" stroke="midnightblue" points="613.283,-227.588 603.894,-232.497 614.295,-234.514 613.283,-227.588"/>
</g>
<!-- Node24&#45;&gt;Node25 -->
<g id="edge56" class="edge"><title>Node24&#45;&gt;Node25</title>
<path fill="none" stroke="midnightblue" d="M1784.83,-284.821C1800.16,-274.831 1819.39,-262.299 1832.78,-253.571"/>
<polygon fill="midnightblue" stroke="midnightblue" points="1782.79,-281.97 1776.32,-290.362 1786.61,-287.834 1782.79,-281.97"/>
</g>
<!-- Node26 -->
<g id="node55" class="node"><title>Node26</title>
<a xlink:href="g12PinPresentation_8cpp.html" target="_top" xlink:title="utils/filters/graph/g12PinPresentation.cpp">
<polygon fill="none" stroke="black" points="1512,-232.5 1512,-253.5 1724,-253.5 1724,-232.5 1512,-232.5"/>
<text text-anchor="middle" x="1618" y="-240.5" font-family="FreeSans.ttf" font-size="10.00">utils/filters/graph/g12PinPresentation.cpp</text>
</a>
</g>
<!-- Node24&#45;&gt;Node26 -->
<g id="edge58" class="edge"><title>Node24&#45;&gt;Node26</title>
<path fill="none" stroke="midnightblue" d="M1724.78,-286.615C1699.75,-276.389 1666.67,-262.88 1644,-253.621"/>
<polygon fill="midnightblue" stroke="midnightblue" points="1723.7,-289.955 1734.28,-290.497 1726.35,-283.475 1723.7,-289.955"/>
</g>
<!-- Node27&#45;&gt;Node25 -->
<g id="edge62" class="edge"><title>Node27&#45;&gt;Node25</title>
<path fill="none" stroke="midnightblue" d="M1408.2,-289.569C1507.37,-279.092 1653.02,-263.705 1749.38,-253.524"/>
<polygon fill="midnightblue" stroke="midnightblue" points="1407.73,-286.099 1398.15,-290.631 1408.46,-293.061 1407.73,-286.099"/>
</g>
<!-- Node28 -->
<g id="node60" class="node"><title>Node28</title>
<a xlink:href="txtPinPresentation_8cpp.html" target="_top" xlink:title="utils/filters/graph/txtPinPresentation.cpp">
<polygon fill="none" stroke="black" points="1248.5,-232.5 1248.5,-253.5 1455.5,-253.5 1455.5,-232.5 1248.5,-232.5"/>
<text text-anchor="middle" x="1352" y="-240.5" font-family="FreeSans.ttf" font-size="10.00">utils/filters/graph/txtPinPresentation.cpp</text>
</a>
</g>
<!-- Node27&#45;&gt;Node28 -->
<g id="edge64" class="edge"><title>Node27&#45;&gt;Node28</title>
<path fill="none" stroke="midnightblue" d="M1316.29,-282.83C1324.92,-273.208 1335.21,-261.728 1342.52,-253.571"/>
<polygon fill="midnightblue" stroke="midnightblue" points="1313.61,-280.58 1309.54,-290.362 1318.82,-285.253 1313.61,-280.58"/>
</g>
<!-- Node29&#45;&gt;Node22 -->
<g id="edge68" class="edge"><title>Node29&#45;&gt;Node22</title>
<path fill="none" stroke="midnightblue" d="M868.671,-286.055C883.475,-278.468 899.423,-267.873 910,-254 923.259,-236.61 927.267,-210.518 928.478,-195.909"/>
<polygon fill="midnightblue" stroke="midnightblue" points="867.152,-282.902 859.659,-290.392 870.188,-289.209 867.152,-282.902"/>
</g>
<!-- Node30 -->
<g id="node65" class="node"><title>Node30</title>
<a xlink:href="inputBlockPresentation_8cpp.html" target="_top" xlink:title="utils/filters/graph/inputBlockPresentation.cpp">
<polygon fill="none" stroke="black" points="671,-232.5 671,-253.5 901,-253.5 901,-232.5 671,-232.5"/>
<text text-anchor="middle" x="786" y="-240.5" font-family="FreeSans.ttf" font-size="10.00">utils/filters/graph/inputBlockPresentation.cpp</text>
</a>
</g>
<!-- Node29&#45;&gt;Node30 -->
<g id="edge70" class="edge"><title>Node29&#45;&gt;Node30</title>
<path fill="none" stroke="midnightblue" d="M816.453,-282.25C809.082,-272.75 800.404,-261.565 794.201,-253.571"/>
<polygon fill="midnightblue" stroke="midnightblue" points="813.851,-284.607 822.746,-290.362 819.382,-280.316 813.851,-284.607"/>
</g>
<!-- Node31&#45;&gt;Node22 -->
<g id="edge74" class="edge"><title>Node31&#45;&gt;Node22</title>
<path fill="none" stroke="midnightblue" d="M1142.36,-288.096C1184.33,-277.36 1225.05,-259.356 1202,-232 1190.44,-218.277 1099.56,-204.58 1025.79,-195.543"/>
<polygon fill="midnightblue" stroke="midnightblue" points="1141.45,-284.714 1132.56,-290.473 1143.1,-291.517 1141.45,-284.714"/>
</g>
<!-- Node32 -->
<g id="node70" class="node"><title>Node32</title>
<a xlink:href="outputBlockPresentation_8cpp.html" target="_top" xlink:title="utils/filters/graph/outputBlockPresentation.cpp">
<polygon fill="none" stroke="black" points="956.5,-232.5 956.5,-253.5 1193.5,-253.5 1193.5,-232.5 956.5,-232.5"/>
<text text-anchor="middle" x="1075" y="-240.5" font-family="FreeSans.ttf" font-size="10.00">utils/filters/graph/outputBlockPresentation.cpp</text>
</a>
</g>
<!-- Node31&#45;&gt;Node32 -->
<g id="edge76" class="edge"><title>Node31&#45;&gt;Node32</title>
<path fill="none" stroke="midnightblue" d="M1072.44,-280.191C1073.06,-271.168 1073.76,-260.994 1074.27,-253.571"/>
<polygon fill="midnightblue" stroke="midnightblue" points="1068.93,-280.145 1071.73,-290.362 1075.91,-280.626 1068.93,-280.145"/>
</g>
</g>
</svg>
        <g id="navigator" transform="translate(0 0)" fill="#404254">
                <rect fill="#f2f5e9" fill-opacity="0.5" stroke="#606060" stroke-width=".5" x="0" y="0" width="60" height="60"/>
                <use id="zoomplus" xlink:href="#zoomPlus" x="17" y="9" onmousedown="handleZoom(evt,'in')"/>
                <use id="zoomminus" xlink:href="#zoomMin" x="42" y="9" onmousedown="handleZoom(evt,'out')"/>
                <use id="reset" xlink:href="#resetDef" x="30" y="36" onmousedown="handleReset()"/>
                <g id="arrowUp" xlink:href="#dirArrow" transform="translate(30 24)" onmousedown="handlePan(0,-1)">
                  <use xlink:href="#rim" fill="#404040">
                        <set attributeName="fill" to="#808080" begin="arrowUp.mouseover" end="arrowUp.mouseout"/>
                  </use>
                  <path fill="none" stroke="white" stroke-width="1.5" d="M0,-3.0v7 M-2.5,-0.5L0,-3.0L2.5,-0.5"/>
                </g>
                <g id="arrowRight" xlink:href="#dirArrow" transform="rotate(90) translate(36 -43)" onmousedown="handlePan(1,0)">
                  <use xlink:href="#rim" fill="#404040">
                        <set attributeName="fill" to="#808080" begin="arrowRight.mouseover" end="arrowRight.mouseout"/>
                  </use>
                  <path fill="none" stroke="white" stroke-width="1.5" d="M0,-3.0v7 M-2.5,-0.5L0,-3.0L2.5,-0.5"/>
                </g>
                <g id="arrowDown" xlink:href="#dirArrow" transform="rotate(180) translate(-30 -48)" onmousedown="handlePan(0,1)">
                  <use xlink:href="#rim" fill="#404040">
                        <set attributeName="fill" to="#808080" begin="arrowDown.mouseover" end="arrowDown.mouseout"/>
                  </use>
                  <path fill="none" stroke="white" stroke-width="1.5" d="M0,-3.0v7 M-2.5,-0.5L0,-3.0L2.5,-0.5"/>
                </g>
                <g id="arrowLeft" xlink:href="#dirArrow" transform="rotate(270) translate(-36 17)" onmousedown="handlePan(-1,0)">
                  <use xlink:href="#rim" fill="#404040">
                        <set attributeName="fill" to="#808080" begin="arrowLeft.mouseover" end="arrowLeft.mouseout"/>
                  </use>
                  <path fill="none" stroke="white" stroke-width="1.5" d="M0,-3.0v7 M-2.5,-0.5L0,-3.0L2.5,-0.5"/>
                </g>
        </g>
</svg>
