<?xml version="1.0" encoding="UTF-8" standalone="no"?>
<!DOCTYPE svg PUBLIC "-//W3C//DTD SVG 1.1//EN"
 "http://www.w3.org/Graphics/SVG/1.1/DTD/svg11.dtd">
<!-- Generated by graphviz version 2.26.3 (20100126.1600)
 -->
<!-- Title: G Pages: 1 -->
<!--zoomable 552 -->
<svg id="main" version="1.1" xmlns="http://www.w3.org/2000/svg" xmlns:xlink="http://www.w3.org/1999/xlink" xml:space="preserve" onload="init(evt)">
        <defs>
                <circle id="rim" cx="0" cy="0" r="7"/>
                <circle id="rim2" cx="0" cy="0" r="3.5"/>
                <g id="zoomPlus">
                        <use xlink:href="#rim" fill="#404040">
                                <set attributeName="fill" to="#808080" begin="zoomplus.mouseover" end="zoomplus.mouseout"/>
                        </use>
                        <path d="M-4,0h8M0,-4v8" fill="none" stroke="white" stroke-width="1.5" pointer-events="none"/>
                </g>
                <g id="zoomMin">
                        <use xlink:href="#rim" fill="#404040">
                                <set attributeName="fill" to="#808080" begin="zoomminus.mouseover" end="zoomminus.mouseout"/>
                        </use>
                        <path d="M-4,0h8" fill="none" stroke="white" stroke-width="1.5" pointer-events="none"/>
                </g>
                <g id="dirArrow">
                        <path fill="none" stroke="white" stroke-width="1.5" d="M0,-3.0v7 M-2.5,-0.5L0,-3.0L2.5,-0.5"/>
                </g>
               <g id="resetDef">
                       <use xlink:href="#rim2" fill="#404040">
                               <set attributeName="fill" to="#808080" begin="reset.mouseover" end="reset.mouseout"/>
                       </use>
               </g>
        </defs>

<script type="text/javascript">
var viewWidth = 1042;
var viewHeight = 552;
var sectionId = 'dynsection-0';
</script>
<script xlink:href="svgpan.js"/>
<svg id="graph" class="graph">
<g id="viewport">
<title>G</title>
<!-- Node1 -->
<g id="node1" class="node"><title>Node1</title>
<polygon fill="#bfbfbf" stroke="black" points="-0.5,-522.5 -0.5,-543.5 164.5,-543.5 164.5,-522.5 -0.5,-522.5"/>
<text text-anchor="middle" x="82" y="-530.5" font-family="FreeSans.ttf" font-size="10.00">core/buffers/disparityBuffer.cpp</text>
</g>
<!-- Node2 -->
<g id="node3" class="node"><title>Node2</title>
<a xlink:href="disparityBuffer_8h.html" target="_top" xlink:title="Add Comment Here.">
<polygon fill="none" stroke="black" points="35,-464.5 35,-485.5 129,-485.5 129,-464.5 35,-464.5"/>
<text text-anchor="middle" x="82" y="-472.5" font-family="FreeSans.ttf" font-size="10.00">disparityBuffer.h</text>
</a>
</g>
<!-- Node1&#45;&gt;Node2 -->
<g id="edge2" class="edge"><title>Node1&#45;&gt;Node2</title>
<path fill="none" stroke="midnightblue" d="M82,-522.362C82,-514.922 82,-504.743 82,-495.728"/>
<polygon fill="midnightblue" stroke="midnightblue" points="85.5001,-495.571 82,-485.571 78.5001,-495.571 85.5001,-495.571"/>
</g>
<!-- Node3 -->
<g id="node5" class="node"><title>Node3</title>
<polygon fill="none" stroke="#bfbfbf" points="112.5,-58.5 112.5,-79.5 165.5,-79.5 165.5,-58.5 112.5,-58.5"/>
<text text-anchor="middle" x="139" y="-66.5" font-family="FreeSans.ttf" font-size="10.00">stdint.h</text>
</g>
<!-- Node2&#45;&gt;Node3 -->
<g id="edge4" class="edge"><title>Node2&#45;&gt;Node3</title>
<path fill="none" stroke="midnightblue" d="M72.5876,-464.346C56.398,-444.881 25,-401.634 25,-359 25,-359 25,-359 25,-185 25,-138.026 73.1415,-103.117 106.856,-84.4297"/>
<polygon fill="midnightblue" stroke="midnightblue" points="108.752,-87.385 115.93,-79.5923 105.459,-81.2078 108.752,-87.385"/>
</g>
<!-- Node4 -->
<g id="node7" class="node"><title>Node4</title>
<a xlink:href="abstractContiniousBuffer_8h.html" target="_top" xlink:title="a header for AbstractContiniousBuffer.c">
<polygon fill="none" stroke="black" points="68.5,-406.5 68.5,-427.5 211.5,-427.5 211.5,-406.5 68.5,-406.5"/>
<text text-anchor="middle" x="140" y="-414.5" font-family="FreeSans.ttf" font-size="10.00">abstractContiniousBuffer.h</text>
</a>
</g>
<!-- Node2&#45;&gt;Node4 -->
<g id="edge6" class="edge"><title>Node2&#45;&gt;Node4</title>
<path fill="none" stroke="midnightblue" d="M92.6381,-464.362C100.896,-456.104 112.528,-444.472 122.197,-434.803"/>
<polygon fill="midnightblue" stroke="midnightblue" points="124.833,-437.117 129.429,-427.571 119.883,-432.167 124.833,-437.117"/>
</g>
<!-- Node5 -->
<g id="node9" class="node"><title>Node5</title>
<a xlink:href="global_8h.html" target="_top" xlink:title="This file holds the global includes, mostly for debuging, tracing and profiling.">
<polygon fill="none" stroke="black" points="425,-58.5 425,-79.5 479,-79.5 479,-58.5 425,-58.5"/>
<text text-anchor="middle" x="452" y="-66.5" font-family="FreeSans.ttf" font-size="10.00">global.h</text>
</a>
</g>
<!-- Node4&#45;&gt;Node5 -->
<g id="edge8" class="edge"><title>Node4&#45;&gt;Node5</title>
<path fill="none" stroke="midnightblue" d="M133.734,-406.211C122.71,-386.18 101,-341.581 101,-301 101,-301 101,-301 101,-185 101,-145.223 123.469,-135.745 158,-116 201.214,-91.2895 345.832,-77.1565 414.799,-71.6727"/>
<polygon fill="midnightblue" stroke="midnightblue" points="415.1,-75.16 424.799,-70.8963 414.558,-68.181 415.1,-75.16"/>
</g>
<!-- Node7 -->
<g id="node13" class="node"><title>Node7</title>
<a xlink:href="abstractBuffer_8h.html" target="_top" xlink:title="a header for AbstractBuffer.cpp">
<polygon fill="none" stroke="black" points="446.5,-348.5 446.5,-369.5 539.5,-369.5 539.5,-348.5 446.5,-348.5"/>
<text text-anchor="middle" x="493" y="-356.5" font-family="FreeSans.ttf" font-size="10.00">abstractBuffer.h</text>
</a>
</g>
<!-- Node4&#45;&gt;Node7 -->
<g id="edge12" class="edge"><title>Node4&#45;&gt;Node7</title>
<path fill="none" stroke="midnightblue" d="M203.926,-406.497C270.173,-395.612 372.736,-378.76 436.217,-368.33"/>
<polygon fill="midnightblue" stroke="midnightblue" points="437.143,-371.725 446.443,-366.65 436.008,-364.817 437.143,-371.725"/>
</g>
<!-- Node28 -->
<g id="node72" class="node"><title>Node28</title>
<polygon fill="none" stroke="#bfbfbf" points="129,-348.5 129,-369.5 185,-369.5 185,-348.5 129,-348.5"/>
<text text-anchor="middle" x="157" y="-356.5" font-family="FreeSans.ttf" font-size="10.00">matrix.h</text>
</g>
<!-- Node4&#45;&gt;Node28 -->
<g id="edge88" class="edge"><title>Node4&#45;&gt;Node28</title>
<path fill="none" stroke="midnightblue" d="M143.118,-406.362C145.323,-398.84 148.348,-388.519 151.012,-379.431"/>
<polygon fill="midnightblue" stroke="midnightblue" points="154.448,-380.151 153.902,-369.571 147.73,-378.182 154.448,-380.151"/>
</g>
<!-- Node6 -->
<g id="node11" class="node"><title>Node6</title>
<polygon fill="none" stroke="#bfbfbf" points="420,-0.5 420,-21.5 484,-21.5 484,-0.5 420,-0.5"/>
<text text-anchor="middle" x="452" y="-8.5" font-family="FreeSans.ttf" font-size="10.00">inttypes.h</text>
</g>
<!-- Node5&#45;&gt;Node6 -->
<g id="edge10" class="edge"><title>Node5&#45;&gt;Node6</title>
<path fill="none" stroke="midnightblue" d="M452,-58.3619C452,-50.9219 452,-40.7427 452,-31.7276"/>
<polygon fill="midnightblue" stroke="midnightblue" points="455.5,-31.5706 452,-21.5707 448.5,-31.5707 455.5,-31.5706"/>
</g>
<!-- Node7&#45;&gt;Node3 -->
<g id="edge14" class="edge"><title>Node7&#45;&gt;Node3</title>
<path fill="none" stroke="midnightblue" d="M446.436,-353.92C407.088,-348.121 350.233,-336.116 306,-312 212.964,-261.276 176.829,-238.42 143,-138 137.74,-122.387 136.972,-103.675 137.39,-89.6777"/>
<polygon fill="midnightblue" stroke="midnightblue" points="140.889,-89.782 137.917,-79.6128 133.899,-89.4162 140.889,-89.782"/>
</g>
<!-- Node7&#45;&gt;Node5 -->
<g id="edge24" class="edge"><title>Node7&#45;&gt;Node5</title>
<path fill="none" stroke="midnightblue" d="M446.314,-353.193C419.912,-347.339 388.729,-335.588 371,-312 317.02,-240.182 398.688,-130.376 435.521,-87.2701"/>
<polygon fill="midnightblue" stroke="midnightblue" points="438.302,-89.4065 442.236,-79.5693 433.026,-84.8059 438.302,-89.4065"/>
</g>
<!-- Node8 -->
<g id="node16" class="node"><title>Node8</title>
<polygon fill="none" stroke="#bfbfbf" points="898.5,-58.5 898.5,-79.5 947.5,-79.5 947.5,-58.5 898.5,-58.5"/>
<text text-anchor="middle" x="923" y="-66.5" font-family="FreeSans.ttf" font-size="10.00">stdio.h</text>
</g>
<!-- Node7&#45;&gt;Node8 -->
<g id="edge16" class="edge"><title>Node7&#45;&gt;Node8</title>
<path fill="none" stroke="midnightblue" d="M539.92,-357.914C663.23,-353.796 987,-334.29 987,-243 987,-243 987,-243 987,-185 987,-146.453 959.572,-108.662 940.627,-87.1571"/>
<polygon fill="midnightblue" stroke="midnightblue" points="943.185,-84.7679 933.857,-79.7449 938.017,-89.4889 943.185,-84.7679"/>
</g>
<!-- Node9 -->
<g id="node18" class="node"><title>Node9</title>
<polygon fill="none" stroke="#bfbfbf" points="712,-58.5 712,-79.5 768,-79.5 768,-58.5 712,-58.5"/>
<text text-anchor="middle" x="740" y="-66.5" font-family="FreeSans.ttf" font-size="10.00">stdarg.h</text>
</g>
<!-- Node7&#45;&gt;Node9 -->
<g id="edge18" class="edge"><title>Node7&#45;&gt;Node9</title>
<path fill="none" stroke="midnightblue" d="M539.78,-355.046C579.148,-349.942 635.641,-338.326 678,-312 712.27,-290.701 737,-283.349 737,-243 737,-243 737,-243 737,-185 737,-151.587 738.259,-112.777 739.146,-89.5898"/>
<polygon fill="midnightblue" stroke="midnightblue" points="742.645,-89.6847 739.544,-79.5537 735.65,-89.4071 742.645,-89.6847"/>
</g>
<!-- Node10 -->
<g id="node20" class="node"><title>Node10</title>
<polygon fill="none" stroke="#bfbfbf" points="990,-58.5 990,-79.5 1034,-79.5 1034,-58.5 990,-58.5"/>
<text text-anchor="middle" x="1012" y="-66.5" font-family="FreeSans.ttf" font-size="10.00">string</text>
</g>
<!-- Node7&#45;&gt;Node10 -->
<g id="edge20" class="edge"><title>Node7&#45;&gt;Node10</title>
<path fill="none" stroke="midnightblue" d="M539.837,-357.35C638.963,-353.327 866.714,-341.126 938,-312 983.685,-293.334 1025,-292.351 1025,-243 1025,-243 1025,-243 1025,-185 1025,-151.389 1019.54,-112.638 1015.7,-89.5162"/>
<polygon fill="midnightblue" stroke="midnightblue" points="1019.12,-88.7713 1013.97,-79.5119 1012.23,-89.9614 1019.12,-88.7713"/>
</g>
<!-- Node11 -->
<g id="node22" class="node"><title>Node11</title>
<polygon fill="none" stroke="#bfbfbf" points="606.5,-290.5 606.5,-311.5 669.5,-311.5 669.5,-290.5 606.5,-290.5"/>
<text text-anchor="middle" x="638" y="-298.5" font-family="FreeSans.ttf" font-size="10.00">functional</text>
</g>
<!-- Node7&#45;&gt;Node11 -->
<g id="edge22" class="edge"><title>Node7&#45;&gt;Node11</title>
<path fill="none" stroke="midnightblue" d="M519.258,-348.497C542.416,-339.234 576.375,-325.65 602.052,-315.379"/>
<polygon fill="midnightblue" stroke="midnightblue" points="603.462,-318.585 611.447,-311.621 600.862,-312.086 603.462,-318.585"/>
</g>
<!-- Node12 -->
<g id="node25" class="node"><title>Node12</title>
<a xlink:href="vector2d_8h.html" target="_top" xlink:title="Add Comment Here.">
<polygon fill="none" stroke="black" points="521,-290.5 521,-311.5 589,-311.5 589,-290.5 521,-290.5"/>
<text text-anchor="middle" x="555" y="-298.5" font-family="FreeSans.ttf" font-size="10.00">vector2d.h</text>
</a>
</g>
<!-- Node7&#45;&gt;Node12 -->
<g id="edge26" class="edge"><title>Node7&#45;&gt;Node12</title>
<path fill="none" stroke="midnightblue" d="M504.372,-348.362C513.286,-340.023 525.879,-328.242 536.276,-318.516"/>
<polygon fill="midnightblue" stroke="midnightblue" points="538.789,-320.958 543.7,-311.571 534.007,-315.846 538.789,-320.958"/>
</g>
<!-- Node21 -->
<g id="node53" class="node"><title>Node21</title>
<a xlink:href="memoryBlock_8h.html" target="_top" xlink:title="Add Comment Here.">
<polygon fill="none" stroke="black" points="190.5,-174.5 190.5,-195.5 325.5,-195.5 325.5,-174.5 190.5,-174.5"/>
<text text-anchor="middle" x="258" y="-182.5" font-family="FreeSans.ttf" font-size="10.00">memory/memoryBlock.h</text>
</a>
</g>
<!-- Node7&#45;&gt;Node21 -->
<g id="edge64" class="edge"><title>Node7&#45;&gt;Node21</title>
<path fill="none" stroke="midnightblue" d="M446.452,-354.534C412.086,-349.2 365.781,-337.522 333,-312 296.989,-283.963 274.767,-233.407 264.589,-205.278"/>
<polygon fill="midnightblue" stroke="midnightblue" points="267.85,-203.997 261.274,-195.689 261.234,-206.284 267.85,-203.997"/>
</g>
<!-- Node25 -->
<g id="node63" class="node"><title>Node25</title>
<a xlink:href="tbbWrapper_8h.html" target="_top" xlink:title="This is a class that provides common TBB interface.">
<polygon fill="none" stroke="black" points="380,-290.5 380,-311.5 460,-311.5 460,-290.5 380,-290.5"/>
<text text-anchor="middle" x="420" y="-298.5" font-family="FreeSans.ttf" font-size="10.00">tbbWrapper.h</text>
</a>
</g>
<!-- Node7&#45;&gt;Node25 -->
<g id="edge76" class="edge"><title>Node7&#45;&gt;Node25</title>
<path fill="none" stroke="midnightblue" d="M479.611,-348.362C468.909,-339.859 453.704,-327.779 441.329,-317.947"/>
<polygon fill="midnightblue" stroke="midnightblue" points="443.311,-315.051 433.304,-311.571 438.957,-320.532 443.311,-315.051"/>
</g>
<!-- Node27 -->
<g id="node67" class="node"><title>Node27</title>
<a xlink:href="mathUtils_8h.html" target="_top" xlink:title="Add Comment Here.">
<polygon fill="none" stroke="black" points="443,-174.5 443,-195.5 515,-195.5 515,-174.5 443,-174.5"/>
<text text-anchor="middle" x="479" y="-182.5" font-family="FreeSans.ttf" font-size="10.00">mathUtils.h</text>
</a>
</g>
<!-- Node7&#45;&gt;Node27 -->
<g id="edge80" class="edge"><title>Node7&#45;&gt;Node27</title>
<path fill="none" stroke="midnightblue" d="M492.145,-348.377C489.886,-320.293 483.721,-243.673 480.706,-206.203"/>
<polygon fill="midnightblue" stroke="midnightblue" points="484.17,-205.615 479.879,-195.928 477.193,-206.176 484.17,-205.615"/>
</g>
<!-- Node12&#45;&gt;Node3 -->
<g id="edge30" class="edge"><title>Node12&#45;&gt;Node3</title>
<path fill="none" stroke="midnightblue" d="M543.485,-290.079C509.575,-258.491 406.049,-166.094 304,-116 262.323,-95.5412 210.226,-82.5717 175.851,-75.5561"/>
<polygon fill="midnightblue" stroke="midnightblue" points="176.271,-72.0716 165.782,-73.5683 174.915,-78.9391 176.271,-72.0716"/>
</g>
<!-- Node12&#45;&gt;Node5 -->
<g id="edge32" class="edge"><title>Node12&#45;&gt;Node5</title>
<path fill="none" stroke="midnightblue" d="M554.153,-290.451C551.318,-260.615 540.014,-174.033 501,-116 493.574,-104.953 483.165,-94.5073 473.85,-86.2814"/>
<polygon fill="midnightblue" stroke="midnightblue" points="475.938,-83.4633 466.048,-79.6647 471.411,-88.802 475.938,-83.4633"/>
</g>
<!-- Node13 -->
<g id="node27" class="node"><title>Node13</title>
<polygon fill="none" stroke="#bfbfbf" points="570.5,-116.5 570.5,-137.5 621.5,-137.5 621.5,-116.5 570.5,-116.5"/>
<text text-anchor="middle" x="596" y="-124.5" font-family="FreeSans.ttf" font-size="10.00">math.h</text>
</g>
<!-- Node12&#45;&gt;Node13 -->
<g id="edge28" class="edge"><title>Node12&#45;&gt;Node13</title>
<path fill="none" stroke="midnightblue" d="M557.503,-290.377C564.149,-262.172 582.33,-185.012 591.118,-147.72"/>
<polygon fill="midnightblue" stroke="midnightblue" points="594.538,-148.464 593.425,-137.928 587.725,-146.858 594.538,-148.464"/>
</g>
<!-- Node14 -->
<g id="node31" class="node"><title>Node14</title>
<a xlink:href="fixedVector_8h.html" target="_top" xlink:title="This file holds the description of the commonly used template &#45; a vector with the fixed number of com...">
<polygon fill="none" stroke="black" points="780,-232.5 780,-253.5 858,-253.5 858,-232.5 780,-232.5"/>
<text text-anchor="middle" x="819" y="-240.5" font-family="FreeSans.ttf" font-size="10.00">fixedVector.h</text>
</a>
</g>
<!-- Node12&#45;&gt;Node14 -->
<g id="edge34" class="edge"><title>Node12&#45;&gt;Node14</title>
<path fill="none" stroke="midnightblue" d="M589.237,-292.107C592.197,-291.379 595.149,-290.668 598,-290 656.819,-276.228 724.849,-262.017 769.721,-252.879"/>
<polygon fill="midnightblue" stroke="midnightblue" points="770.666,-256.258 779.77,-250.838 769.273,-249.398 770.666,-256.258"/>
</g>
<!-- Node14&#45;&gt;Node8 -->
<g id="edge36" class="edge"><title>Node14&#45;&gt;Node8</title>
<path fill="none" stroke="midnightblue" d="M837.325,-232.487C850.943,-223.982 869.287,-210.984 882,-196 900.776,-173.87 902.934,-165.569 912,-138 917.203,-122.179 919.989,-103.481 921.454,-89.5431"/>
<polygon fill="midnightblue" stroke="midnightblue" points="924.944,-89.8079 922.367,-79.5314 917.973,-89.1723 924.944,-89.8079"/>
</g>
<!-- Node15 -->
<g id="node34" class="node"><title>Node15</title>
<a xlink:href="vectorOperations_8h.html" target="_top" xlink:title="This file holds the operations that are commonly used with continuous linear data structures such as ...">
<polygon fill="none" stroke="black" points="765,-174.5 765,-195.5 873,-195.5 873,-174.5 765,-174.5"/>
<text text-anchor="middle" x="819" y="-182.5" font-family="FreeSans.ttf" font-size="10.00">vectorOperations.h</text>
</a>
</g>
<!-- Node14&#45;&gt;Node15 -->
<g id="edge38" class="edge"><title>Node14&#45;&gt;Node15</title>
<path fill="none" stroke="midnightblue" d="M819,-232.362C819,-224.922 819,-214.743 819,-205.728"/>
<polygon fill="midnightblue" stroke="midnightblue" points="822.5,-205.571 819,-195.571 815.5,-205.571 822.5,-205.571"/>
</g>
<!-- Node15&#45;&gt;Node8 -->
<g id="edge44" class="edge"><title>Node15&#45;&gt;Node8</title>
<path fill="none" stroke="midnightblue" d="M842.243,-174.474C857.988,-166.374 878.335,-153.882 892,-138 904.131,-123.901 912.327,-104.284 917.23,-89.5696"/>
<polygon fill="midnightblue" stroke="midnightblue" points="920.618,-90.458 920.227,-79.8704 913.93,-88.3915 920.618,-90.458"/>
</g>
<!-- Node15&#45;&gt;Node13 -->
<g id="edge46" class="edge"><title>Node15&#45;&gt;Node13</title>
<path fill="none" stroke="midnightblue" d="M772.935,-174.485C736.695,-166.002 684.737,-153.373 631.216,-138.233"/>
<polygon fill="midnightblue" stroke="midnightblue" points="632.138,-134.857 621.562,-135.479 630.218,-141.588 632.138,-134.857"/>
</g>
<!-- Node16 -->
<g id="node36" class="node"><title>Node16</title>
<polygon fill="none" stroke="#bfbfbf" points="765,-116.5 765,-137.5 807,-137.5 807,-116.5 765,-116.5"/>
<text text-anchor="middle" x="786" y="-124.5" font-family="FreeSans.ttf" font-size="10.00">limits</text>
</g>
<!-- Node15&#45;&gt;Node16 -->
<g id="edge40" class="edge"><title>Node15&#45;&gt;Node16</title>
<path fill="none" stroke="midnightblue" d="M812.947,-174.362C808.528,-166.595 802.41,-155.843 797.121,-146.546"/>
<polygon fill="midnightblue" stroke="midnightblue" points="800.002,-144.531 792.014,-137.571 793.918,-147.993 800.002,-144.531"/>
</g>
<!-- Node17 -->
<g id="node38" class="node"><title>Node17</title>
<polygon fill="none" stroke="#bfbfbf" points="824.5,-116.5 824.5,-137.5 883.5,-137.5 883.5,-116.5 824.5,-116.5"/>
<text text-anchor="middle" x="854" y="-124.5" font-family="FreeSans.ttf" font-size="10.00">iostream</text>
</g>
<!-- Node15&#45;&gt;Node17 -->
<g id="edge42" class="edge"><title>Node15&#45;&gt;Node17</title>
<path fill="none" stroke="midnightblue" d="M825.42,-174.362C830.156,-166.513 836.732,-155.616 842.382,-146.253"/>
<polygon fill="midnightblue" stroke="midnightblue" points="845.451,-147.941 847.621,-137.571 839.458,-144.324 845.451,-147.941"/>
</g>
<!-- Node18 -->
<g id="node42" class="node"><title>Node18</title>
<a xlink:href="reflection_8h.html" target="_top" xlink:title="a header for Reflection.c">
<polygon fill="none" stroke="black" points="639,-116.5 639,-137.5 709,-137.5 709,-116.5 639,-116.5"/>
<text text-anchor="middle" x="674" y="-124.5" font-family="FreeSans.ttf" font-size="10.00">reflection.h</text>
</a>
</g>
<!-- Node15&#45;&gt;Node18 -->
<g id="edge48" class="edge"><title>Node15&#45;&gt;Node18</title>
<path fill="none" stroke="midnightblue" d="M792.742,-174.497C769.584,-165.234 735.625,-151.65 709.948,-141.379"/>
<polygon fill="midnightblue" stroke="midnightblue" points="711.138,-138.086 700.553,-137.621 708.538,-144.585 711.138,-138.086"/>
</g>
<!-- Node18&#45;&gt;Node3 -->
<g id="edge58" class="edge"><title>Node18&#45;&gt;Node3</title>
<path fill="none" stroke="midnightblue" d="M638.555,-117.655C635.672,-117.043 632.794,-116.48 630,-116 461.627,-87.062 257.484,-74.683 175.583,-70.6287"/>
<polygon fill="midnightblue" stroke="midnightblue" points="175.688,-67.1297 165.531,-70.1428 175.35,-74.1216 175.688,-67.1297"/>
</g>
<!-- Node18&#45;&gt;Node5 -->
<g id="edge62" class="edge"><title>Node18&#45;&gt;Node5</title>
<path fill="none" stroke="midnightblue" d="M638.823,-117.81C597.936,-107.127 530.756,-89.5759 489.075,-78.6862"/>
<polygon fill="midnightblue" stroke="midnightblue" points="489.874,-75.2775 479.314,-76.136 488.104,-82.0502 489.874,-75.2775"/>
</g>
<!-- Node18&#45;&gt;Node8 -->
<g id="edge56" class="edge"><title>Node18&#45;&gt;Node8</title>
<path fill="none" stroke="midnightblue" d="M709.148,-118.813C756.732,-107.729 841.121,-88.0722 888.414,-77.0562"/>
<polygon fill="midnightblue" stroke="midnightblue" points="889.251,-80.4551 898.196,-74.7777 887.662,-73.6376 889.251,-80.4551"/>
</g>
<!-- Node18&#45;&gt;Node9 -->
<g id="edge60" class="edge"><title>Node18&#45;&gt;Node9</title>
<path fill="none" stroke="midnightblue" d="M686.105,-116.362C695.688,-107.941 709.264,-96.0105 720.393,-86.2308"/>
<polygon fill="midnightblue" stroke="midnightblue" points="722.77,-88.8009 727.971,-79.5707 718.149,-83.5427 722.77,-88.8009"/>
</g>
<!-- Node18&#45;&gt;Node10 -->
<g id="edge52" class="edge"><title>Node18&#45;&gt;Node10</title>
<path fill="none" stroke="midnightblue" d="M709.227,-121.463C762.661,-112.989 867.363,-96.0884 956,-80 963.795,-78.5851 972.184,-76.9809 980.035,-75.4437"/>
<polygon fill="midnightblue" stroke="midnightblue" points="980.821,-78.8563 989.952,-73.4831 979.463,-71.9892 980.821,-78.8563"/>
</g>
<!-- Node19 -->
<g id="node44" class="node"><title>Node19</title>
<polygon fill="none" stroke="#bfbfbf" points="647.5,-58.5 647.5,-79.5 694.5,-79.5 694.5,-58.5 647.5,-58.5"/>
<text text-anchor="middle" x="671" y="-66.5" font-family="FreeSans.ttf" font-size="10.00">vector</text>
</g>
<!-- Node18&#45;&gt;Node19 -->
<g id="edge50" class="edge"><title>Node18&#45;&gt;Node19</title>
<path fill="none" stroke="midnightblue" d="M673.45,-116.362C673.065,-108.922 672.538,-98.7427 672.072,-89.7276"/>
<polygon fill="midnightblue" stroke="midnightblue" points="675.559,-89.3765 671.547,-79.5707 668.568,-89.7381 675.559,-89.3765"/>
</g>
<!-- Node20 -->
<g id="node47" class="node"><title>Node20</title>
<polygon fill="none" stroke="#bfbfbf" points="577.5,-58.5 577.5,-79.5 630.5,-79.5 630.5,-58.5 577.5,-58.5"/>
<text text-anchor="middle" x="604" y="-66.5" font-family="FreeSans.ttf" font-size="10.00">string.h</text>
</g>
<!-- Node18&#45;&gt;Node20 -->
<g id="edge54" class="edge"><title>Node18&#45;&gt;Node20</title>
<path fill="none" stroke="midnightblue" d="M661.161,-116.362C650.998,-107.941 636.599,-96.0105 624.796,-86.2308"/>
<polygon fill="midnightblue" stroke="midnightblue" points="626.691,-83.2558 616.758,-79.5707 622.225,-88.6459 626.691,-83.2558"/>
</g>
<!-- Node21&#45;&gt;Node3 -->
<g id="edge68" class="edge"><title>Node21&#45;&gt;Node3</title>
<path fill="none" stroke="midnightblue" d="M216.63,-174.473C196.304,-167.318 173.016,-155.825 158,-138 146.645,-124.521 142.04,-104.796 140.191,-89.8841"/>
<polygon fill="midnightblue" stroke="midnightblue" points="143.647,-89.2411 139.248,-79.6025 136.676,-89.8804 143.647,-89.2411"/>
</g>
<!-- Node21&#45;&gt;Node5 -->
<g id="edge72" class="edge"><title>Node21&#45;&gt;Node5</title>
<path fill="none" stroke="midnightblue" d="M275.903,-174.295C310.277,-153.741 385.656,-108.67 425.733,-84.7059"/>
<polygon fill="midnightblue" stroke="midnightblue" points="427.634,-87.6476 434.42,-79.5117 424.041,-81.6397 427.634,-87.6476"/>
</g>
<!-- Node22 -->
<g id="node55" class="node"><title>Node22</title>
<polygon fill="none" stroke="#bfbfbf" points="166.5,-116.5 166.5,-137.5 201.5,-137.5 201.5,-116.5 166.5,-116.5"/>
<text text-anchor="middle" x="184" y="-124.5" font-family="FreeSans.ttf" font-size="10.00">new</text>
</g>
<!-- Node21&#45;&gt;Node22 -->
<g id="edge66" class="edge"><title>Node21&#45;&gt;Node22</title>
<path fill="none" stroke="midnightblue" d="M244.427,-174.362C233.579,-165.859 218.166,-153.779 205.621,-143.947"/>
<polygon fill="midnightblue" stroke="midnightblue" points="207.516,-140.985 197.487,-137.571 203.198,-146.494 207.516,-140.985"/>
</g>
<!-- Node23 -->
<g id="node58" class="node"><title>Node23</title>
<polygon fill="none" stroke="#bfbfbf" points="426.5,-116.5 426.5,-137.5 477.5,-137.5 477.5,-116.5 426.5,-116.5"/>
<text text-anchor="middle" x="452" y="-124.5" font-family="FreeSans.ttf" font-size="10.00">stdlib.h</text>
</g>
<!-- Node21&#45;&gt;Node23 -->
<g id="edge70" class="edge"><title>Node21&#45;&gt;Node23</title>
<path fill="none" stroke="midnightblue" d="M293.132,-174.497C328.114,-164.038 381.52,-148.071 416.597,-137.584"/>
<polygon fill="midnightblue" stroke="midnightblue" points="417.835,-140.867 426.413,-134.65 415.83,-134.161 417.835,-140.867"/>
</g>
<!-- Node24 -->
<g id="node61" class="node"><title>Node24</title>
<a xlink:href="atomicOps_8h.html" target="_top" xlink:title="atomicOps.h">
<polygon fill="none" stroke="black" points="218.5,-116.5 218.5,-137.5 295.5,-137.5 295.5,-116.5 218.5,-116.5"/>
<text text-anchor="middle" x="257" y="-124.5" font-family="FreeSans.ttf" font-size="10.00">atomicOps.h</text>
</a>
</g>
<!-- Node21&#45;&gt;Node24 -->
<g id="edge74" class="edge"><title>Node21&#45;&gt;Node24</title>
<path fill="none" stroke="midnightblue" d="M257.817,-174.362C257.688,-166.922 257.513,-156.743 257.357,-147.728"/>
<polygon fill="midnightblue" stroke="midnightblue" points="260.854,-147.509 257.182,-137.571 253.855,-147.63 260.854,-147.509"/>
</g>
<!-- Node26 -->
<g id="node65" class="node"><title>Node26</title>
<polygon fill="none" stroke="#bfbfbf" points="375,-232.5 375,-253.5 427,-253.5 427,-232.5 375,-232.5"/>
<text text-anchor="middle" x="401" y="-240.5" font-family="FreeSans.ttf" font-size="10.00">cstddef</text>
</g>
<!-- Node25&#45;&gt;Node26 -->
<g id="edge78" class="edge"><title>Node25&#45;&gt;Node26</title>
<path fill="none" stroke="midnightblue" d="M416.515,-290.362C414.024,-282.758 410.596,-272.294 407.596,-263.135"/>
<polygon fill="midnightblue" stroke="midnightblue" points="410.902,-261.984 404.463,-253.571 404.25,-264.163 410.902,-261.984"/>
</g>
<!-- Node27&#45;&gt;Node5 -->
<g id="edge84" class="edge"><title>Node27&#45;&gt;Node5</title>
<path fill="none" stroke="midnightblue" d="M482.681,-174.432C486.901,-160.645 492.454,-135.932 486,-116 482.638,-105.618 476.031,-95.604 469.528,-87.5068"/>
<polygon fill="midnightblue" stroke="midnightblue" points="472.101,-85.1309 462.929,-79.8274 466.792,-89.693 472.101,-85.1309"/>
</g>
<!-- Node27&#45;&gt;Node13 -->
<g id="edge82" class="edge"><title>Node27&#45;&gt;Node13</title>
<path fill="none" stroke="midnightblue" d="M500.188,-174.497C518.462,-165.438 545.072,-152.246 565.615,-142.063"/>
<polygon fill="midnightblue" stroke="midnightblue" points="567.169,-145.199 574.574,-137.621 564.06,-138.927 567.169,-145.199"/>
</g>
<!-- Node27&#45;&gt;Node23 -->
<g id="edge86" class="edge"><title>Node27&#45;&gt;Node23</title>
<path fill="none" stroke="midnightblue" d="M474.048,-174.362C470.47,-166.677 465.532,-156.069 461.236,-146.84"/>
<polygon fill="midnightblue" stroke="midnightblue" points="464.314,-145.159 456.921,-137.571 457.968,-148.114 464.314,-145.159"/>
</g>
</g>
</svg>
        <g id="navigator" transform="translate(0 0)" fill="#404254">
                <rect fill="#f2f5e9" fill-opacity="0.5" stroke="#606060" stroke-width=".5" x="0" y="0" width="60" height="60"/>
                <use id="zoomplus" xlink:href="#zoomPlus" x="17" y="9" onmousedown="handleZoom(evt,'in')"/>
                <use id="zoomminus" xlink:href="#zoomMin" x="42" y="9" onmousedown="handleZoom(evt,'out')"/>
                <use id="reset" xlink:href="#resetDef" x="30" y="36" onmousedown="handleReset()"/>
                <g id="arrowUp" xlink:href="#dirArrow" transform="translate(30 24)" onmousedown="handlePan(0,-1)">
                  <use xlink:href="#rim" fill="#404040">
                        <set attributeName="fill" to="#808080" begin="arrowUp.mouseover" end="arrowUp.mouseout"/>
                  </use>
                  <path fill="none" stroke="white" stroke-width="1.5" d="M0,-3.0v7 M-2.5,-0.5L0,-3.0L2.5,-0.5"/>
                </g>
                <g id="arrowRight" xlink:href="#dirArrow" transform="rotate(90) translate(36 -43)" onmousedown="handlePan(1,0)">
                  <use xlink:href="#rim" fill="#404040">
                        <set attributeName="fill" to="#808080" begin="arrowRight.mouseover" end="arrowRight.mouseout"/>
                  </use>
                  <path fill="none" stroke="white" stroke-width="1.5" d="M0,-3.0v7 M-2.5,-0.5L0,-3.0L2.5,-0.5"/>
                </g>
                <g id="arrowDown" xlink:href="#dirArrow" transform="rotate(180) translate(-30 -48)" onmousedown="handlePan(0,1)">
                  <use xlink:href="#rim" fill="#404040">
                        <set attributeName="fill" to="#808080" begin="arrowDown.mouseover" end="arrowDown.mouseout"/>
                  </use>
                  <path fill="none" stroke="white" stroke-width="1.5" d="M0,-3.0v7 M-2.5,-0.5L0,-3.0L2.5,-0.5"/>
                </g>
                <g id="arrowLeft" xlink:href="#dirArrow" transform="rotate(270) translate(-36 17)" onmousedown="handlePan(-1,0)">
                  <use xlink:href="#rim" fill="#404040">
                        <set attributeName="fill" to="#808080" begin="arrowLeft.mouseover" end="arrowLeft.mouseout"/>
                  </use>
                  <path fill="none" stroke="white" stroke-width="1.5" d="M0,-3.0v7 M-2.5,-0.5L0,-3.0L2.5,-0.5"/>
                </g>
        </g>
</svg>
