<?xml version="1.0" encoding="UTF-8" standalone="no"?>
<!DOCTYPE svg PUBLIC "-//W3C//DTD SVG 1.1//EN"
 "http://www.w3.org/Graphics/SVG/1.1/DTD/svg11.dtd">
<!-- Generated by graphviz version 2.26.3 (20100126.1600)
 -->
<!-- Title: G Pages: 1 -->
<!--zoomable 378 -->
<svg id="main" version="1.1" xmlns="http://www.w3.org/2000/svg" xmlns:xlink="http://www.w3.org/1999/xlink" xml:space="preserve" onload="init(evt)">
        <defs>
                <circle id="rim" cx="0" cy="0" r="7"/>
                <circle id="rim2" cx="0" cy="0" r="3.5"/>
                <g id="zoomPlus">
                        <use xlink:href="#rim" fill="#404040">
                                <set attributeName="fill" to="#808080" begin="zoomplus.mouseover" end="zoomplus.mouseout"/>
                        </use>
                        <path d="M-4,0h8M0,-4v8" fill="none" stroke="white" stroke-width="1.5" pointer-events="none"/>
                </g>
                <g id="zoomMin">
                        <use xlink:href="#rim" fill="#404040">
                                <set attributeName="fill" to="#808080" begin="zoomminus.mouseover" end="zoomminus.mouseout"/>
                        </use>
                        <path d="M-4,0h8" fill="none" stroke="white" stroke-width="1.5" pointer-events="none"/>
                </g>
                <g id="dirArrow">
                        <path fill="none" stroke="white" stroke-width="1.5" d="M0,-3.0v7 M-2.5,-0.5L0,-3.0L2.5,-0.5"/>
                </g>
               <g id="resetDef">
                       <use xlink:href="#rim2" fill="#404040">
                               <set attributeName="fill" to="#808080" begin="reset.mouseover" end="reset.mouseout"/>
                       </use>
               </g>
        </defs>

<script type="text/javascript">
var viewWidth = 1251;
var viewHeight = 378;
var sectionId = 'dynsection-1';
</script>
<script xlink:href="svgpan.js"/>
<svg id="graph" class="graph">
<g id="viewport">
<title>G</title>
<!-- Node1 -->
<g id="node1" class="node"><title>Node1</title>
<polygon fill="#bfbfbf" stroke="black" points="679,-348.5 679,-369.5 907,-369.5 907,-348.5 679,-348.5"/>
<text text-anchor="middle" x="793" y="-356.5" font-family="FreeSans.ttf" font-size="10.00">core/alignment/distortionCorrectTransform.h</text>
</g>
<!-- Node2 -->
<g id="node3" class="node"><title>Node2</title>
<a xlink:href="displacementBuffer_8h.html" target="_top" xlink:title="This file hold the class DisplacementBuffer.">
<polygon fill="none" stroke="black" points="610,-290.5 610,-311.5 788,-311.5 788,-290.5 610,-290.5"/>
<text text-anchor="middle" x="699" y="-298.5" font-family="FreeSans.ttf" font-size="10.00">core/buffers/displacementBuffer.h</text>
</a>
</g>
<!-- Node1&#45;&gt;Node2 -->
<g id="edge2" class="edge"><title>Node1&#45;&gt;Node2</title>
<path fill="none" stroke="midnightblue" d="M767.233,-343.101C750.969,-333.066 730.41,-320.381 716.132,-311.571"/>
<polygon fill="midnightblue" stroke="midnightblue" points="765.411,-346.089 775.759,-348.362 769.086,-340.132 765.411,-346.089"/>
</g>
<!-- Node8 -->
<g id="node15" class="node"><title>Node8</title>
<a xlink:href="baseHostDialog_8h.html" target="_top" xlink:title="applications/base/baseHostDialog.h">
<polygon fill="none" stroke="black" points="779,-116.5 779,-137.5 967,-137.5 967,-116.5 779,-116.5"/>
<text text-anchor="middle" x="873" y="-124.5" font-family="FreeSans.ttf" font-size="10.00">applications/base/baseHostDialog.h</text>
</a>
</g>
<!-- Node1&#45;&gt;Node8 -->
<g id="edge62" class="edge"><title>Node1&#45;&gt;Node8</title>
<path fill="none" stroke="midnightblue" d="M849.347,-345.97C923.554,-327.537 1047.74,-291.852 1074,-254 1116.59,-192.616 998.478,-154.547 925.614,-137.509"/>
<polygon fill="midnightblue" stroke="midnightblue" points="848.101,-342.672 839.223,-348.455 849.769,-349.47 848.101,-342.672"/>
</g>
<!-- Node19 -->
<g id="node40" class="node"><title>Node19</title>
<a xlink:href="distortionWidget_8h.html" target="_top" xlink:title="utils/distortioncorrector/distortionWidget.h">
<polygon fill="none" stroke="black" points="848.5,-232.5 848.5,-253.5 1065.5,-253.5 1065.5,-232.5 848.5,-232.5"/>
<text text-anchor="middle" x="957" y="-240.5" font-family="FreeSans.ttf" font-size="10.00">utils/distortioncorrector/distortionWidget.h</text>
</a>
</g>
<!-- Node1&#45;&gt;Node19 -->
<g id="edge58" class="edge"><title>Node1&#45;&gt;Node19</title>
<path fill="none" stroke="midnightblue" d="M816.588,-342.316C850.807,-318.112 913.251,-273.945 941.902,-253.679"/>
<polygon fill="midnightblue" stroke="midnightblue" points="814.278,-339.663 808.135,-348.295 818.32,-345.378 814.278,-339.663"/>
</g>
<!-- Node20 -->
<g id="node45" class="node"><title>Node20</title>
<a xlink:href="camerasConfigParameters_8h.html" target="_top" xlink:title="applications/base/camerasConfigParameters.h">
<polygon fill="none" stroke="black" points="348.5,-232.5 348.5,-253.5 587.5,-253.5 587.5,-232.5 348.5,-232.5"/>
<text text-anchor="middle" x="468" y="-240.5" font-family="FreeSans.ttf" font-size="10.00">applications/base/camerasConfigParameters.h</text>
</a>
</g>
<!-- Node1&#45;&gt;Node20 -->
<g id="edge60" class="edge"><title>Node1&#45;&gt;Node20</title>
<path fill="none" stroke="midnightblue" d="M724.145,-346.306C687.02,-338.431 640.79,-326.946 601,-312 557.411,-295.627 509.754,-268.416 485.029,-253.528"/>
<polygon fill="midnightblue" stroke="midnightblue" points="723.859,-349.822 734.362,-348.432 725.284,-342.968 723.859,-349.822"/>
</g>
<!-- Node3 -->
<g id="node5" class="node"><title>Node3</title>
<a xlink:href="displacementBuffer_8cpp.html" target="_top" xlink:title="Add Comment Here.">
<polygon fill="none" stroke="black" points="604.5,-232.5 604.5,-253.5 793.5,-253.5 793.5,-232.5 604.5,-232.5"/>
<text text-anchor="middle" x="699" y="-240.5" font-family="FreeSans.ttf" font-size="10.00">core/buffers/displacementBuffer.cpp</text>
</a>
</g>
<!-- Node2&#45;&gt;Node3 -->
<g id="edge4" class="edge"><title>Node2&#45;&gt;Node3</title>
<path fill="none" stroke="midnightblue" d="M699,-280.191C699,-271.168 699,-260.994 699,-253.571"/>
<polygon fill="midnightblue" stroke="midnightblue" points="695.5,-280.362 699,-290.362 702.5,-280.362 695.5,-280.362"/>
</g>
<!-- Node4 -->
<g id="node7" class="node"><title>Node4</title>
<a xlink:href="transformationCache_8h.html" target="_top" xlink:title="core/buffers/transformationCache.h">
<polygon fill="none" stroke="black" points="106.5,-232.5 106.5,-253.5 293.5,-253.5 293.5,-232.5 106.5,-232.5"/>
<text text-anchor="middle" x="200" y="-240.5" font-family="FreeSans.ttf" font-size="10.00">core/buffers/transformationCache.h</text>
</a>
</g>
<!-- Node2&#45;&gt;Node4 -->
<g id="edge6" class="edge"><title>Node2&#45;&gt;Node4</title>
<path fill="none" stroke="midnightblue" d="M599.834,-289.474C509.714,-278.999 377.87,-263.674 290.544,-253.524"/>
<polygon fill="midnightblue" stroke="midnightblue" points="599.452,-292.953 609.789,-290.631 600.26,-286 599.452,-292.953"/>
</g>
<!-- Node6 -->
<g id="node11" class="node"><title>Node6</title>
<a xlink:href="baseCalculationThread_8h.html" target="_top" xlink:title="applications/base/baseCalculationThread.h">
<polygon fill="none" stroke="black" points="215.5,-174.5 215.5,-195.5 436.5,-195.5 436.5,-174.5 215.5,-174.5"/>
<text text-anchor="middle" x="326" y="-182.5" font-family="FreeSans.ttf" font-size="10.00">applications/base/baseCalculationThread.h</text>
</a>
</g>
<!-- Node2&#45;&gt;Node6 -->
<g id="edge48" class="edge"><title>Node2&#45;&gt;Node6</title>
<path fill="none" stroke="midnightblue" d="M599.859,-293.907C500.243,-285.856 358.808,-271.535 340,-254 323.907,-238.996 323.524,-210.979 324.714,-195.666"/>
<polygon fill="midnightblue" stroke="midnightblue" points="599.721,-297.408 609.968,-294.715 600.278,-290.43 599.721,-297.408"/>
</g>
<!-- Node18 -->
<g id="node38" class="node"><title>Node18</title>
<a xlink:href="distortionWidget_8cpp.html" target="_top" xlink:title="utils/distortioncorrector/distortionWidget.cpp">
<polygon fill="none" stroke="black" points="760,-174.5 760,-195.5 988,-195.5 988,-174.5 760,-174.5"/>
<text text-anchor="middle" x="874" y="-182.5" font-family="FreeSans.ttf" font-size="10.00">utils/distortioncorrector/distortionWidget.cpp</text>
</a>
</g>
<!-- Node2&#45;&gt;Node18 -->
<g id="edge40" class="edge"><title>Node2&#45;&gt;Node18</title>
<path fill="none" stroke="midnightblue" d="M738.216,-286.749C758.163,-278.615 782.291,-267.372 802,-254 827.216,-236.893 851.791,-210.695 864.688,-195.991"/>
<polygon fill="midnightblue" stroke="midnightblue" points="736.8,-283.545 728.797,-290.487 739.383,-290.051 736.8,-283.545"/>
</g>
<!-- Node2&#45;&gt;Node19 -->
<g id="edge42" class="edge"><title>Node2&#45;&gt;Node19</title>
<path fill="none" stroke="midnightblue" d="M755.61,-288.274C801.956,-277.855 866.735,-263.292 910.191,-253.523"/>
<polygon fill="midnightblue" stroke="midnightblue" points="754.711,-284.888 745.722,-290.497 756.246,-291.718 754.711,-284.888"/>
</g>
<!-- Node2&#45;&gt;Node20 -->
<g id="edge50" class="edge"><title>Node2&#45;&gt;Node20</title>
<path fill="none" stroke="midnightblue" d="M647.267,-288.011C605.847,-277.611 548.492,-263.21 509.911,-253.523"/>
<polygon fill="midnightblue" stroke="midnightblue" points="646.616,-291.456 657.168,-290.497 648.321,-284.667 646.616,-291.456"/>
</g>
<!-- Node5 -->
<g id="node9" class="node"><title>Node5</title>
<a xlink:href="transformationCache_8cpp.html" target="_top" xlink:title="core/buffers/transformationCache.cpp">
<polygon fill="none" stroke="black" points="0,-174.5 0,-195.5 198,-195.5 198,-174.5 0,-174.5"/>
<text text-anchor="middle" x="99" y="-182.5" font-family="FreeSans.ttf" font-size="10.00">core/buffers/transformationCache.cpp</text>
</a>
</g>
<!-- Node4&#45;&gt;Node5 -->
<g id="edge8" class="edge"><title>Node4&#45;&gt;Node5</title>
<path fill="none" stroke="midnightblue" d="M172.798,-227.379C155.248,-217.301 132.891,-204.462 117.408,-195.571"/>
<polygon fill="midnightblue" stroke="midnightblue" points="171.06,-230.417 181.475,-232.362 174.546,-224.347 171.06,-230.417"/>
</g>
<!-- Node4&#45;&gt;Node6 -->
<g id="edge10" class="edge"><title>Node4&#45;&gt;Node6</title>
<path fill="none" stroke="midnightblue" d="M232.138,-228.206C254.243,-218.031 283.08,-204.757 302.926,-195.621"/>
<polygon fill="midnightblue" stroke="midnightblue" points="230.438,-225.136 222.818,-232.497 233.365,-231.494 230.438,-225.136"/>
</g>
<!-- Node7 -->
<g id="node13" class="node"><title>Node7</title>
<a xlink:href="baseCalculationThread_8cpp.html" target="_top" xlink:title="Implements a basic calculation thread that performs a simple transform on the captured frames and pro...">
<polygon fill="none" stroke="black" points="92,-116.5 92,-137.5 324,-137.5 324,-116.5 92,-116.5"/>
<text text-anchor="middle" x="208" y="-124.5" font-family="FreeSans.ttf" font-size="10.00">applications/base/baseCalculationThread.cpp</text>
</a>
</g>
<!-- Node6&#45;&gt;Node7 -->
<g id="edge12" class="edge"><title>Node6&#45;&gt;Node7</title>
<path fill="none" stroke="midnightblue" d="M295.624,-170.069C274.959,-159.912 248.111,-146.716 229.609,-137.621"/>
<polygon fill="midnightblue" stroke="midnightblue" points="294.113,-173.226 304.631,-174.497 297.201,-166.944 294.113,-173.226"/>
</g>
<!-- Node6&#45;&gt;Node8 -->
<g id="edge14" class="edge"><title>Node6&#45;&gt;Node8</title>
<path fill="none" stroke="midnightblue" d="M435.245,-173.416C535.774,-162.757 683.332,-147.111 778.793,-136.989"/>
<polygon fill="midnightblue" stroke="midnightblue" points="434.633,-169.962 425.058,-174.497 435.371,-176.923 434.633,-169.962"/>
</g>
<!-- Node16 -->
<g id="node33" class="node"><title>Node16</title>
<a xlink:href="recorderThread_8h.html" target="_top" xlink:title="applications/recorder/recorderThread.h">
<polygon fill="none" stroke="black" points="341.5,-116.5 341.5,-137.5 544.5,-137.5 544.5,-116.5 341.5,-116.5"/>
<text text-anchor="middle" x="443" y="-124.5" font-family="FreeSans.ttf" font-size="10.00">applications/recorder/recorderThread.h</text>
</a>
</g>
<!-- Node6&#45;&gt;Node16 -->
<g id="edge34" class="edge"><title>Node6&#45;&gt;Node16</title>
<path fill="none" stroke="midnightblue" d="M356.396,-169.932C376.848,-159.793 403.311,-146.675 421.574,-137.621"/>
<polygon fill="midnightblue" stroke="midnightblue" points="354.593,-166.919 347.188,-174.497 357.702,-173.191 354.593,-166.919"/>
</g>
<!-- Node9 -->
<g id="node17" class="node"><title>Node9</title>
<a xlink:href="baseHostDialog_8cpp.html" target="_top" xlink:title="Implements a basic host dialog that uses BaseCalculationThread to process captured data Extend or rei...">
<polygon fill="none" stroke="black" points="672.5,-58.5 672.5,-79.5 871.5,-79.5 871.5,-58.5 672.5,-58.5"/>
<text text-anchor="middle" x="772" y="-66.5" font-family="FreeSans.ttf" font-size="10.00">applications/base/baseHostDialog.cpp</text>
</a>
</g>
<!-- Node8&#45;&gt;Node9 -->
<g id="edge16" class="edge"><title>Node8&#45;&gt;Node9</title>
<path fill="none" stroke="midnightblue" d="M845.798,-111.379C828.248,-101.301 805.891,-88.4624 790.408,-79.5707"/>
<polygon fill="midnightblue" stroke="midnightblue" points="844.06,-114.417 854.475,-116.362 847.546,-108.347 844.06,-114.417"/>
</g>
<!-- Node10 -->
<g id="node19" class="node"><title>Node10</title>
<a xlink:href="main__vibase_8cpp.html" target="_top" xlink:title="applications/base/main_vibase.cpp">
<polygon fill="none" stroke="black" points="1060.5,-0.5 1060.5,-21.5 1243.5,-21.5 1243.5,-0.5 1060.5,-0.5"/>
<text text-anchor="middle" x="1152" y="-8.5" font-family="FreeSans.ttf" font-size="10.00">applications/base/main_vibase.cpp</text>
</a>
</g>
<!-- Node8&#45;&gt;Node10 -->
<g id="edge18" class="edge"><title>Node8&#45;&gt;Node10</title>
<path fill="none" stroke="midnightblue" d="M961.325,-114.458C995.822,-107.35 1034.95,-96.4618 1068,-80 1098.41,-64.8551 1127.58,-36.8952 1142.23,-21.6288"/>
<polygon fill="midnightblue" stroke="midnightblue" points="960.383,-111.076 951.254,-116.454 961.744,-117.943 960.383,-111.076"/>
</g>
<!-- Node11 -->
<g id="node21" class="node"><title>Node11</title>
<a xlink:href="mainWindow_8h.html" target="_top" xlink:title="applications/base/mainWindow.h">
<polygon fill="none" stroke="black" points="889,-58.5 889,-79.5 1059,-79.5 1059,-58.5 889,-58.5"/>
<text text-anchor="middle" x="974" y="-66.5" font-family="FreeSans.ttf" font-size="10.00">applications/base/mainWindow.h</text>
</a>
</g>
<!-- Node8&#45;&gt;Node11 -->
<g id="edge20" class="edge"><title>Node8&#45;&gt;Node11</title>
<path fill="none" stroke="midnightblue" d="M900.202,-111.379C917.752,-101.301 940.109,-88.4624 955.592,-79.5707"/>
<polygon fill="midnightblue" stroke="midnightblue" points="898.454,-108.347 891.525,-116.362 901.94,-114.417 898.454,-108.347"/>
</g>
<!-- Node14 -->
<g id="node28" class="node"><title>Node14</title>
<a xlink:href="recorderDialog_8h.html" target="_top" xlink:title="Defines a recorder dialog class derived from BaseHostDialog.">
<polygon fill="none" stroke="black" points="455,-58.5 455,-79.5 655,-79.5 655,-58.5 455,-58.5"/>
<text text-anchor="middle" x="555" y="-66.5" font-family="FreeSans.ttf" font-size="10.00">applications/recorder/recorderDialog.h</text>
</a>
</g>
<!-- Node8&#45;&gt;Node14 -->
<g id="edge28" class="edge"><title>Node8&#45;&gt;Node14</title>
<path fill="none" stroke="midnightblue" d="M805.369,-114.665C748.113,-104.222 666.93,-89.415 612.695,-79.5231"/>
<polygon fill="midnightblue" stroke="midnightblue" points="804.947,-118.145 815.413,-116.497 806.203,-111.259 804.947,-118.145"/>
</g>
<!-- Node11&#45;&gt;Node10 -->
<g id="edge22" class="edge"><title>Node11&#45;&gt;Node10</title>
<path fill="none" stroke="midnightblue" d="M1016.11,-55.2787C1047.83,-44.9437 1090.67,-30.9849 1119.71,-21.5231"/>
<polygon fill="midnightblue" stroke="midnightblue" points="1014.66,-52.0707 1006.23,-58.4966 1016.83,-58.7263 1014.66,-52.0707"/>
</g>
<!-- Node12 -->
<g id="node24" class="node"><title>Node12</title>
<a xlink:href="mainWindow_8cpp.html" target="_top" xlink:title="applications/base/mainWindow.cpp">
<polygon fill="none" stroke="black" points="861,-0.5 861,-21.5 1043,-21.5 1043,-0.5 861,-0.5"/>
<text text-anchor="middle" x="952" y="-8.5" font-family="FreeSans.ttf" font-size="10.00">applications/base/mainWindow.cpp</text>
</a>
</g>
<!-- Node11&#45;&gt;Node12 -->
<g id="edge24" class="edge"><title>Node11&#45;&gt;Node12</title>
<path fill="none" stroke="midnightblue" d="M966.332,-48.7838C962.855,-39.617 958.887,-29.1572 956.01,-21.5707"/>
<polygon fill="midnightblue" stroke="midnightblue" points="963.146,-50.2532 969.965,-58.3619 969.691,-47.7706 963.146,-50.2532"/>
</g>
<!-- Node13 -->
<g id="node26" class="node"><title>Node13</title>
<a xlink:href="main__virecorder_8cpp.html" target="_top" xlink:title="applications/recorder/main_virecorder.cpp">
<polygon fill="none" stroke="black" points="626.5,-0.5 626.5,-21.5 843.5,-21.5 843.5,-0.5 626.5,-0.5"/>
<text text-anchor="middle" x="735" y="-8.5" font-family="FreeSans.ttf" font-size="10.00">applications/recorder/main_virecorder.cpp</text>
</a>
</g>
<!-- Node11&#45;&gt;Node13 -->
<g id="edge26" class="edge"><title>Node11&#45;&gt;Node13</title>
<path fill="none" stroke="midnightblue" d="M920.747,-56.0766C877.872,-45.6718 818.364,-31.2306 778.362,-21.5231"/>
<polygon fill="midnightblue" stroke="midnightblue" points="920.176,-59.5395 930.719,-58.4966 921.826,-52.737 920.176,-59.5395"/>
</g>
<!-- Node14&#45;&gt;Node13 -->
<g id="edge30" class="edge"><title>Node14&#45;&gt;Node13</title>
<path fill="none" stroke="midnightblue" d="M597.167,-55.4127C629.282,-45.0646 672.851,-31.0258 702.342,-21.5231"/>
<polygon fill="midnightblue" stroke="midnightblue" points="596.041,-52.0983 587.597,-58.4966 598.188,-58.761 596.041,-52.0983"/>
</g>
<!-- Node15 -->
<g id="node31" class="node"><title>Node15</title>
<a xlink:href="recorderDialog_8cpp.html" target="_top" xlink:title="Implements frame recording dialog based on BaseHostDialog.">
<polygon fill="none" stroke="black" points="398.5,-0.5 398.5,-21.5 609.5,-21.5 609.5,-0.5 398.5,-0.5"/>
<text text-anchor="middle" x="504" y="-8.5" font-family="FreeSans.ttf" font-size="10.00">applications/recorder/recorderDialog.cpp</text>
</a>
</g>
<!-- Node14&#45;&gt;Node15 -->
<g id="edge32" class="edge"><title>Node14&#45;&gt;Node15</title>
<path fill="none" stroke="midnightblue" d="M539.023,-50.8299C530.562,-41.2078 520.468,-29.7282 513.295,-21.5707"/>
<polygon fill="midnightblue" stroke="midnightblue" points="536.414,-53.1634 545.646,-58.3619 541.671,-48.541 536.414,-53.1634"/>
</g>
<!-- Node16&#45;&gt;Node14 -->
<g id="edge36" class="edge"><title>Node16&#45;&gt;Node14</title>
<path fill="none" stroke="midnightblue" d="M472.363,-111.794C491.904,-101.675 517.086,-88.6338 534.49,-79.6212"/>
<polygon fill="midnightblue" stroke="midnightblue" points="470.553,-108.79 463.282,-116.497 473.772,-115.006 470.553,-108.79"/>
</g>
<!-- Node17 -->
<g id="node36" class="node"><title>Node17</title>
<a xlink:href="recorderThread_8cpp.html" target="_top" xlink:title="Implements a frame recording calculation thread based on BaseCalculationThread.">
<polygon fill="none" stroke="black" points="223,-58.5 223,-79.5 437,-79.5 437,-58.5 223,-58.5"/>
<text text-anchor="middle" x="330" y="-66.5" font-family="FreeSans.ttf" font-size="10.00">applications/recorder/recorderThread.cpp</text>
</a>
</g>
<!-- Node16&#45;&gt;Node17 -->
<g id="edge38" class="edge"><title>Node16&#45;&gt;Node17</title>
<path fill="none" stroke="midnightblue" d="M413.375,-111.794C393.659,-101.675 368.252,-88.6338 350.693,-79.6212"/>
<polygon fill="midnightblue" stroke="midnightblue" points="412.042,-115.044 422.537,-116.497 415.238,-108.816 412.042,-115.044"/>
</g>
<!-- Node19&#45;&gt;Node8 -->
<g id="edge46" class="edge"><title>Node19&#45;&gt;Node8</title>
<path fill="none" stroke="midnightblue" d="M978.515,-225.574C993.419,-211.338 1008.66,-190.884 997,-174 987.321,-159.98 947.389,-146.462 915.419,-137.551"/>
<polygon fill="midnightblue" stroke="midnightblue" points="976.009,-223.12 970.896,-232.4 980.68,-228.334 976.009,-223.12"/>
</g>
<!-- Node19&#45;&gt;Node18 -->
<g id="edge44" class="edge"><title>Node19&#45;&gt;Node18</title>
<path fill="none" stroke="midnightblue" d="M933.446,-226.541C919.217,-216.597 901.501,-204.218 889.127,-195.571"/>
<polygon fill="midnightblue" stroke="midnightblue" points="931.575,-229.503 941.777,-232.362 935.584,-223.765 931.575,-229.503"/>
</g>
<!-- Node20&#45;&gt;Node6 -->
<g id="edge52" class="edge"><title>Node20&#45;&gt;Node6</title>
<path fill="none" stroke="midnightblue" d="M432.782,-228.615C407.745,-218.389 374.671,-204.88 352.004,-195.621"/>
<polygon fill="midnightblue" stroke="midnightblue" points="431.704,-231.955 442.285,-232.497 434.351,-225.475 431.704,-231.955"/>
</g>
<!-- Node20&#45;&gt;Node8 -->
<g id="edge54" class="edge"><title>Node20&#45;&gt;Node8</title>
<path fill="none" stroke="midnightblue" d="M466.6,-222.03C466.794,-206.467 469.868,-185.951 483,-174 504.5,-154.435 670.356,-140.083 778.745,-132.679"/>
<polygon fill="midnightblue" stroke="midnightblue" points="463.108,-222.388 466.866,-232.294 470.106,-222.207 463.108,-222.388"/>
</g>
<!-- Node21 -->
<g id="node49" class="node"><title>Node21</title>
<a xlink:href="camerasConfigParameters_8cpp.html" target="_top" xlink:title="applications/base/camerasConfigParameters.cpp">
<polygon fill="none" stroke="black" points="491.5,-174.5 491.5,-195.5 742.5,-195.5 742.5,-174.5 491.5,-174.5"/>
<text text-anchor="middle" x="617" y="-182.5" font-family="FreeSans.ttf" font-size="10.00">applications/base/camerasConfigParameters.cpp</text>
</a>
</g>
<!-- Node20&#45;&gt;Node21 -->
<g id="edge56" class="edge"><title>Node20&#45;&gt;Node21</title>
<path fill="none" stroke="midnightblue" d="M504.637,-228.739C531.038,-218.462 566.08,-204.821 589.967,-195.523"/>
<polygon fill="midnightblue" stroke="midnightblue" points="503.032,-225.607 494.983,-232.497 505.571,-232.131 503.032,-225.607"/>
</g>
</g>
</svg>
        <g id="navigator" transform="translate(0 0)" fill="#404254">
                <rect fill="#f2f5e9" fill-opacity="0.5" stroke="#606060" stroke-width=".5" x="0" y="0" width="60" height="60"/>
                <use id="zoomplus" xlink:href="#zoomPlus" x="17" y="9" onmousedown="handleZoom(evt,'in')"/>
                <use id="zoomminus" xlink:href="#zoomMin" x="42" y="9" onmousedown="handleZoom(evt,'out')"/>
                <use id="reset" xlink:href="#resetDef" x="30" y="36" onmousedown="handleReset()"/>
                <g id="arrowUp" xlink:href="#dirArrow" transform="translate(30 24)" onmousedown="handlePan(0,-1)">
                  <use xlink:href="#rim" fill="#404040">
                        <set attributeName="fill" to="#808080" begin="arrowUp.mouseover" end="arrowUp.mouseout"/>
                  </use>
                  <path fill="none" stroke="white" stroke-width="1.5" d="M0,-3.0v7 M-2.5,-0.5L0,-3.0L2.5,-0.5"/>
                </g>
                <g id="arrowRight" xlink:href="#dirArrow" transform="rotate(90) translate(36 -43)" onmousedown="handlePan(1,0)">
                  <use xlink:href="#rim" fill="#404040">
                        <set attributeName="fill" to="#808080" begin="arrowRight.mouseover" end="arrowRight.mouseout"/>
                  </use>
                  <path fill="none" stroke="white" stroke-width="1.5" d="M0,-3.0v7 M-2.5,-0.5L0,-3.0L2.5,-0.5"/>
                </g>
                <g id="arrowDown" xlink:href="#dirArrow" transform="rotate(180) translate(-30 -48)" onmousedown="handlePan(0,1)">
                  <use xlink:href="#rim" fill="#404040">
                        <set attributeName="fill" to="#808080" begin="arrowDown.mouseover" end="arrowDown.mouseout"/>
                  </use>
                  <path fill="none" stroke="white" stroke-width="1.5" d="M0,-3.0v7 M-2.5,-0.5L0,-3.0L2.5,-0.5"/>
                </g>
                <g id="arrowLeft" xlink:href="#dirArrow" transform="rotate(270) translate(-36 17)" onmousedown="handlePan(-1,0)">
                  <use xlink:href="#rim" fill="#404040">
                        <set attributeName="fill" to="#808080" begin="arrowLeft.mouseover" end="arrowLeft.mouseout"/>
                  </use>
                  <path fill="none" stroke="white" stroke-width="1.5" d="M0,-3.0v7 M-2.5,-0.5L0,-3.0L2.5,-0.5"/>
                </g>
        </g>
</svg>
