<?xml version="1.0" encoding="UTF-8" standalone="no"?>
<!DOCTYPE svg PUBLIC "-//W3C//DTD SVG 1.1//EN"
 "http://www.w3.org/Graphics/SVG/1.1/DTD/svg11.dtd">
<!-- Generated by graphviz version 2.26.3 (20100126.1600)
 -->
<!-- Title: G Pages: 1 -->
<!--zoomable 320 -->
<svg id="main" version="1.1" xmlns="http://www.w3.org/2000/svg" xmlns:xlink="http://www.w3.org/1999/xlink" xml:space="preserve" onload="init(evt)">
        <defs>
                <circle id="rim" cx="0" cy="0" r="7"/>
                <circle id="rim2" cx="0" cy="0" r="3.5"/>
                <g id="zoomPlus">
                        <use xlink:href="#rim" fill="#404040">
                                <set attributeName="fill" to="#808080" begin="zoomplus.mouseover" end="zoomplus.mouseout"/>
                        </use>
                        <path d="M-4,0h8M0,-4v8" fill="none" stroke="white" stroke-width="1.5" pointer-events="none"/>
                </g>
                <g id="zoomMin">
                        <use xlink:href="#rim" fill="#404040">
                                <set attributeName="fill" to="#808080" begin="zoomminus.mouseover" end="zoomminus.mouseout"/>
                        </use>
                        <path d="M-4,0h8" fill="none" stroke="white" stroke-width="1.5" pointer-events="none"/>
                </g>
                <g id="dirArrow">
                        <path fill="none" stroke="white" stroke-width="1.5" d="M0,-3.0v7 M-2.5,-0.5L0,-3.0L2.5,-0.5"/>
                </g>
               <g id="resetDef">
                       <use xlink:href="#rim2" fill="#404040">
                               <set attributeName="fill" to="#808080" begin="reset.mouseover" end="reset.mouseout"/>
                       </use>
               </g>
        </defs>

<script type="text/javascript">
var viewWidth = 692;
var viewHeight = 320;
var sectionId = 'dynsection-0';
</script>
<script xlink:href="svgpan.js"/>
<svg id="graph" class="graph">
<g id="viewport">
<title>G</title>
<!-- Node1 -->
<g id="node1" class="node"><title>Node1</title>
<polygon fill="#bfbfbf" stroke="black" points="159.394,-290.5 159.394,-311.5 416.394,-311.5 416.394,-290.5 159.394,-290.5"/>
<text text-anchor="middle" x="287.894" y="-298.5" font-family="FreeSans.ttf" font-size="10.00">utils/3d/generated/draw3dViMouseParameters.cpp</text>
</g>
<!-- Node2 -->
<g id="node3" class="node"><title>Node2</title>
<polygon fill="none" stroke="#bfbfbf" points="94.3935,-58.5 94.3935,-79.5 141.394,-79.5 141.394,-58.5 94.3935,-58.5"/>
<text text-anchor="middle" x="117.894" y="-66.5" font-family="FreeSans.ttf" font-size="10.00">vector</text>
</g>
<!-- Node1&#45;&gt;Node2 -->
<g id="edge2" class="edge"><title>Node1&#45;&gt;Node2</title>
<path fill="none" stroke="midnightblue" d="M241.832,-290.43C169.654,-272.829 35.2841,-235.525 7.89353,-196 -22.0726,-152.759 44.785,-107.409 86.9101,-84.3852"/>
<polygon fill="midnightblue" stroke="midnightblue" points="88.8058,-87.3412 95.9909,-79.5549 85.5185,-81.1611 88.8058,-87.3412"/>
</g>
<!-- Node3 -->
<g id="node5" class="node"><title>Node3</title>
<polygon fill="none" stroke="#bfbfbf" points="383.394,-232.5 383.394,-253.5 438.394,-253.5 438.394,-232.5 383.394,-232.5"/>
<text text-anchor="middle" x="410.894" y="-240.5" font-family="FreeSans.ttf" font-size="10.00">stddef.h</text>
</g>
<!-- Node1&#45;&gt;Node3 -->
<g id="edge4" class="edge"><title>Node1&#45;&gt;Node3</title>
<path fill="none" stroke="midnightblue" d="M310.168,-290.497C329.465,-281.397 357.606,-268.127 379.242,-257.925"/>
<polygon fill="midnightblue" stroke="midnightblue" points="380.817,-261.052 388.369,-253.621 377.832,-254.721 380.817,-261.052"/>
</g>
<!-- Node4 -->
<g id="node7" class="node"><title>Node4</title>
<a xlink:href="draw3dViMouseParameters_8h.html" target="_top" xlink:title="draw3dViMouseParameters.h">
<polygon fill="none" stroke="black" points="209.894,-232.5 209.894,-253.5 365.894,-253.5 365.894,-232.5 209.894,-232.5"/>
<text text-anchor="middle" x="287.894" y="-240.5" font-family="FreeSans.ttf" font-size="10.00">draw3dViMouseParameters.h</text>
</a>
</g>
<!-- Node1&#45;&gt;Node4 -->
<g id="edge6" class="edge"><title>Node1&#45;&gt;Node4</title>
<path fill="none" stroke="midnightblue" d="M287.894,-290.362C287.894,-282.922 287.894,-272.743 287.894,-263.728"/>
<polygon fill="midnightblue" stroke="midnightblue" points="291.394,-263.571 287.894,-253.571 284.394,-263.571 291.394,-263.571"/>
</g>
<!-- Node5 -->
<g id="node9" class="node"><title>Node5</title>
<a xlink:href="reflection_8h.html" target="_top" xlink:title="a header for Reflection.c">
<polygon fill="none" stroke="black" points="418.894,-116.5 418.894,-137.5 488.894,-137.5 488.894,-116.5 418.894,-116.5"/>
<text text-anchor="middle" x="453.894" y="-124.5" font-family="FreeSans.ttf" font-size="10.00">reflection.h</text>
</a>
</g>
<!-- Node4&#45;&gt;Node5 -->
<g id="edge8" class="edge"><title>Node4&#45;&gt;Node5</title>
<path fill="none" stroke="midnightblue" d="M357.356,-232.466C417.531,-222.631 496.408,-207.748 505.894,-196 520.094,-178.412 499.556,-157.62 480.258,-143.492"/>
<polygon fill="midnightblue" stroke="midnightblue" points="482.1,-140.51 471.888,-137.689 478.112,-146.263 482.1,-140.51"/>
</g>
<!-- Node13 -->
<g id="node26" class="node"><title>Node13</title>
<a xlink:href="defaultSetter_8h.html" target="_top" xlink:title="defaultSetter.h">
<polygon fill="none" stroke="black" points="304.894,-174.5 304.894,-195.5 392.894,-195.5 392.894,-174.5 304.894,-174.5"/>
<text text-anchor="middle" x="348.894" y="-182.5" font-family="FreeSans.ttf" font-size="10.00">defaultSetter.h</text>
</a>
</g>
<!-- Node4&#45;&gt;Node13 -->
<g id="edge26" class="edge"><title>Node4&#45;&gt;Node13</title>
<path fill="none" stroke="midnightblue" d="M299.082,-232.362C307.853,-224.023 320.243,-212.242 330.471,-202.516"/>
<polygon fill="midnightblue" stroke="midnightblue" points="332.941,-204.998 337.776,-195.571 328.117,-199.925 332.941,-204.998"/>
</g>
<!-- Node15 -->
<g id="node32" class="node"><title>Node15</title>
<a xlink:href="printerVisitor_8h.html" target="_top" xlink:title="printerVisitor.h">
<polygon fill="none" stroke="black" points="410.894,-174.5 410.894,-195.5 496.894,-195.5 496.894,-174.5 410.894,-174.5"/>
<text text-anchor="middle" x="453.894" y="-182.5" font-family="FreeSans.ttf" font-size="10.00">printerVisitor.h</text>
</a>
</g>
<!-- Node4&#45;&gt;Node15 -->
<g id="edge34" class="edge"><title>Node4&#45;&gt;Node15</title>
<path fill="none" stroke="midnightblue" d="M317.955,-232.497C344.9,-223.082 384.621,-209.204 414.176,-198.877"/>
<polygon fill="midnightblue" stroke="midnightblue" points="415.49,-202.126 423.776,-195.523 413.181,-195.517 415.49,-202.126"/>
</g>
<!-- Node16 -->
<g id="node36" class="node"><title>Node16</title>
<a xlink:href="viMouse3dStereoStyle_8h.html" target="_top" xlink:title="viMouse3dStereoStyle.h">
<polygon fill="none" stroke="black" points="16.3935,-174.5 16.3935,-195.5 149.394,-195.5 149.394,-174.5 16.3935,-174.5"/>
<text text-anchor="middle" x="82.8935" y="-182.5" font-family="FreeSans.ttf" font-size="10.00">viMouse3dStereoStyle.h</text>
</a>
</g>
<!-- Node4&#45;&gt;Node16 -->
<g id="edge40" class="edge"><title>Node4&#45;&gt;Node16</title>
<path fill="none" stroke="midnightblue" d="M250.77,-232.497C216.915,-222.918 166.73,-208.72 130.05,-198.342"/>
<polygon fill="midnightblue" stroke="midnightblue" points="130.662,-194.878 120.087,-195.523 128.757,-201.613 130.662,-194.878"/>
</g>
<!-- Node17 -->
<g id="node38" class="node"><title>Node17</title>
<a xlink:href="viMouse3dFlowStyle_8h.html" target="_top" xlink:title="viMouse3dFlowStyle.h">
<polygon fill="none" stroke="black" points="166.394,-174.5 166.394,-195.5 287.394,-195.5 287.394,-174.5 166.394,-174.5"/>
<text text-anchor="middle" x="226.894" y="-182.5" font-family="FreeSans.ttf" font-size="10.00">viMouse3dFlowStyle.h</text>
</a>
</g>
<!-- Node4&#45;&gt;Node17 -->
<g id="edge42" class="edge"><title>Node4&#45;&gt;Node17</title>
<path fill="none" stroke="midnightblue" d="M276.705,-232.362C267.934,-224.023 255.544,-212.242 245.316,-202.516"/>
<polygon fill="midnightblue" stroke="midnightblue" points="247.67,-199.925 238.011,-195.571 242.846,-204.998 247.67,-199.925"/>
</g>
<!-- Node5&#45;&gt;Node2 -->
<g id="edge10" class="edge"><title>Node5&#45;&gt;Node2</title>
<path fill="none" stroke="midnightblue" d="M418.891,-117.963C415.855,-117.266 412.825,-116.601 409.894,-116 316.996,-96.9477 206.16,-80.9233 151.62,-73.4741"/>
<polygon fill="midnightblue" stroke="midnightblue" points="151.864,-69.9753 141.484,-72.1003 150.923,-76.9119 151.864,-69.9753"/>
</g>
<!-- Node6 -->
<g id="node12" class="node"><title>Node6</title>
<polygon fill="none" stroke="#bfbfbf" points="359.894,-58.5 359.894,-79.5 403.894,-79.5 403.894,-58.5 359.894,-58.5"/>
<text text-anchor="middle" x="381.894" y="-66.5" font-family="FreeSans.ttf" font-size="10.00">string</text>
</g>
<!-- Node5&#45;&gt;Node6 -->
<g id="edge12" class="edge"><title>Node5&#45;&gt;Node6</title>
<path fill="none" stroke="midnightblue" d="M440.688,-116.362C430.132,-107.859 415.136,-95.7785 402.931,-85.9466"/>
<polygon fill="midnightblue" stroke="midnightblue" points="404.999,-83.1183 395.016,-79.5707 400.608,-88.5696 404.999,-83.1183"/>
</g>
<!-- Node7 -->
<g id="node14" class="node"><title>Node7</title>
<polygon fill="none" stroke="#bfbfbf" points="421.394,-58.5 421.394,-79.5 474.394,-79.5 474.394,-58.5 421.394,-58.5"/>
<text text-anchor="middle" x="447.894" y="-66.5" font-family="FreeSans.ttf" font-size="10.00">string.h</text>
</g>
<!-- Node5&#45;&gt;Node7 -->
<g id="edge14" class="edge"><title>Node5&#45;&gt;Node7</title>
<path fill="none" stroke="midnightblue" d="M452.793,-116.362C452.023,-108.922 450.97,-98.7427 450.038,-89.7276"/>
<polygon fill="midnightblue" stroke="midnightblue" points="453.498,-89.1574 448.987,-79.5707 446.535,-89.8777 453.498,-89.1574"/>
</g>
<!-- Node8 -->
<g id="node16" class="node"><title>Node8</title>
<polygon fill="none" stroke="#bfbfbf" points="491.394,-58.5 491.394,-79.5 540.394,-79.5 540.394,-58.5 491.394,-58.5"/>
<text text-anchor="middle" x="515.894" y="-66.5" font-family="FreeSans.ttf" font-size="10.00">stdio.h</text>
</g>
<!-- Node5&#45;&gt;Node8 -->
<g id="edge16" class="edge"><title>Node5&#45;&gt;Node8</title>
<path fill="none" stroke="midnightblue" d="M465.265,-116.362C474.18,-108.023 486.773,-96.2418 497.169,-86.5162"/>
<polygon fill="midnightblue" stroke="midnightblue" points="499.682,-88.9582 504.594,-79.5707 494.9,-83.8463 499.682,-88.9582"/>
</g>
<!-- Node9 -->
<g id="node18" class="node"><title>Node9</title>
<polygon fill="none" stroke="#bfbfbf" points="557.394,-58.5 557.394,-79.5 610.394,-79.5 610.394,-58.5 557.394,-58.5"/>
<text text-anchor="middle" x="583.894" y="-66.5" font-family="FreeSans.ttf" font-size="10.00">stdint.h</text>
</g>
<!-- Node5&#45;&gt;Node9 -->
<g id="edge18" class="edge"><title>Node5&#45;&gt;Node9</title>
<path fill="none" stroke="midnightblue" d="M477.436,-116.497C497.923,-107.356 527.841,-94.0082 550.747,-83.7883"/>
<polygon fill="midnightblue" stroke="midnightblue" points="552.381,-86.892 560.087,-79.6212 549.529,-80.4994 552.381,-86.892"/>
</g>
<!-- Node10 -->
<g id="node20" class="node"><title>Node10</title>
<polygon fill="none" stroke="#bfbfbf" points="627.894,-58.5 627.894,-79.5 683.894,-79.5 683.894,-58.5 627.894,-58.5"/>
<text text-anchor="middle" x="655.894" y="-66.5" font-family="FreeSans.ttf" font-size="10.00">stdarg.h</text>
</g>
<!-- Node5&#45;&gt;Node10 -->
<g id="edge20" class="edge"><title>Node5&#45;&gt;Node10</title>
<path fill="none" stroke="midnightblue" d="M489.012,-117.123C520.414,-108.262 567.943,-94.7836 617.93,-80.2614"/>
<polygon fill="midnightblue" stroke="midnightblue" points="618.998,-83.5959 627.622,-77.4415 617.042,-76.8746 618.998,-83.5959"/>
</g>
<!-- Node11 -->
<g id="node22" class="node"><title>Node11</title>
<a xlink:href="global_8h.html" target="_top" xlink:title="This file holds the global includes, mostly for debuging, tracing and profiling.">
<polygon fill="none" stroke="black" points="287.894,-58.5 287.894,-79.5 341.894,-79.5 341.894,-58.5 287.894,-58.5"/>
<text text-anchor="middle" x="314.894" y="-66.5" font-family="FreeSans.ttf" font-size="10.00">global.h</text>
</a>
</g>
<!-- Node5&#45;&gt;Node11 -->
<g id="edge22" class="edge"><title>Node5&#45;&gt;Node11</title>
<path fill="none" stroke="midnightblue" d="M428.722,-116.497C406.62,-107.275 374.255,-93.7695 349.68,-83.5153"/>
<polygon fill="midnightblue" stroke="midnightblue" points="350.924,-80.2421 340.348,-79.6212 348.229,-86.7022 350.924,-80.2421"/>
</g>
<!-- Node12 -->
<g id="node24" class="node"><title>Node12</title>
<polygon fill="none" stroke="#bfbfbf" points="282.894,-0.5 282.894,-21.5 346.894,-21.5 346.894,-0.5 282.894,-0.5"/>
<text text-anchor="middle" x="314.894" y="-8.5" font-family="FreeSans.ttf" font-size="10.00">inttypes.h</text>
</g>
<!-- Node11&#45;&gt;Node12 -->
<g id="edge24" class="edge"><title>Node11&#45;&gt;Node12</title>
<path fill="none" stroke="midnightblue" d="M314.894,-58.3619C314.894,-50.9219 314.894,-40.7427 314.894,-31.7276"/>
<polygon fill="midnightblue" stroke="midnightblue" points="318.394,-31.5706 314.894,-21.5707 311.394,-31.5707 318.394,-31.5706"/>
</g>
<!-- Node13&#45;&gt;Node5 -->
<g id="edge32" class="edge"><title>Node13&#45;&gt;Node5</title>
<path fill="none" stroke="midnightblue" d="M368.152,-174.362C384.359,-165.409 407.746,-152.491 426.003,-142.406"/>
<polygon fill="midnightblue" stroke="midnightblue" points="427.696,-145.47 434.757,-137.571 424.311,-139.342 427.696,-145.47"/>
</g>
<!-- Node13&#45;&gt;Node11 -->
<g id="edge30" class="edge"><title>Node13&#45;&gt;Node11</title>
<path fill="none" stroke="midnightblue" d="M345.314,-174.211C342.194,-164.709 337.602,-150.48 333.894,-138 329.091,-121.835 324.04,-103.417 320.354,-89.6777"/>
<polygon fill="midnightblue" stroke="midnightblue" points="323.678,-88.5569 317.722,-79.7947 316.914,-90.3587 323.678,-88.5569"/>
</g>
<!-- Node14 -->
<g id="node28" class="node"><title>Node14</title>
<polygon fill="none" stroke="#bfbfbf" points="342.394,-116.5 342.394,-137.5 401.394,-137.5 401.394,-116.5 342.394,-116.5"/>
<text text-anchor="middle" x="371.894" y="-124.5" font-family="FreeSans.ttf" font-size="10.00">iostream</text>
</g>
<!-- Node13&#45;&gt;Node14 -->
<g id="edge28" class="edge"><title>Node13&#45;&gt;Node14</title>
<path fill="none" stroke="midnightblue" d="M353.112,-174.362C356.127,-166.758 360.277,-156.294 363.909,-147.135"/>
<polygon fill="midnightblue" stroke="midnightblue" points="367.269,-148.157 367.702,-137.571 360.762,-145.576 367.269,-148.157"/>
</g>
<!-- Node15&#45;&gt;Node5 -->
<g id="edge38" class="edge"><title>Node15&#45;&gt;Node5</title>
<path fill="none" stroke="midnightblue" d="M453.894,-174.362C453.894,-166.922 453.894,-156.743 453.894,-147.728"/>
<polygon fill="midnightblue" stroke="midnightblue" points="457.394,-147.571 453.894,-137.571 450.394,-147.571 457.394,-147.571"/>
</g>
<!-- Node15&#45;&gt;Node14 -->
<g id="edge36" class="edge"><title>Node15&#45;&gt;Node14</title>
<path fill="none" stroke="midnightblue" d="M438.853,-174.362C426.601,-165.696 409.094,-153.313 395.054,-143.382"/>
<polygon fill="midnightblue" stroke="midnightblue" points="397.024,-140.488 386.838,-137.571 392.981,-146.203 397.024,-140.488"/>
</g>
</g>
</svg>
        <g id="navigator" transform="translate(0 0)" fill="#404254">
                <rect fill="#f2f5e9" fill-opacity="0.5" stroke="#606060" stroke-width=".5" x="0" y="0" width="60" height="60"/>
                <use id="zoomplus" xlink:href="#zoomPlus" x="17" y="9" onmousedown="handleZoom(evt,'in')"/>
                <use id="zoomminus" xlink:href="#zoomMin" x="42" y="9" onmousedown="handleZoom(evt,'out')"/>
                <use id="reset" xlink:href="#resetDef" x="30" y="36" onmousedown="handleReset()"/>
                <g id="arrowUp" xlink:href="#dirArrow" transform="translate(30 24)" onmousedown="handlePan(0,-1)">
                  <use xlink:href="#rim" fill="#404040">
                        <set attributeName="fill" to="#808080" begin="arrowUp.mouseover" end="arrowUp.mouseout"/>
                  </use>
                  <path fill="none" stroke="white" stroke-width="1.5" d="M0,-3.0v7 M-2.5,-0.5L0,-3.0L2.5,-0.5"/>
                </g>
                <g id="arrowRight" xlink:href="#dirArrow" transform="rotate(90) translate(36 -43)" onmousedown="handlePan(1,0)">
                  <use xlink:href="#rim" fill="#404040">
                        <set attributeName="fill" to="#808080" begin="arrowRight.mouseover" end="arrowRight.mouseout"/>
                  </use>
                  <path fill="none" stroke="white" stroke-width="1.5" d="M0,-3.0v7 M-2.5,-0.5L0,-3.0L2.5,-0.5"/>
                </g>
                <g id="arrowDown" xlink:href="#dirArrow" transform="rotate(180) translate(-30 -48)" onmousedown="handlePan(0,1)">
                  <use xlink:href="#rim" fill="#404040">
                        <set attributeName="fill" to="#808080" begin="arrowDown.mouseover" end="arrowDown.mouseout"/>
                  </use>
                  <path fill="none" stroke="white" stroke-width="1.5" d="M0,-3.0v7 M-2.5,-0.5L0,-3.0L2.5,-0.5"/>
                </g>
                <g id="arrowLeft" xlink:href="#dirArrow" transform="rotate(270) translate(-36 17)" onmousedown="handlePan(-1,0)">
                  <use xlink:href="#rim" fill="#404040">
                        <set attributeName="fill" to="#808080" begin="arrowLeft.mouseover" end="arrowLeft.mouseout"/>
                  </use>
                  <path fill="none" stroke="white" stroke-width="1.5" d="M0,-3.0v7 M-2.5,-0.5L0,-3.0L2.5,-0.5"/>
                </g>
        </g>
</svg>
