<?xml version="1.0" encoding="UTF-8" standalone="no"?>
<!DOCTYPE svg PUBLIC "-//W3C//DTD SVG 1.1//EN"
 "http://www.w3.org/Graphics/SVG/1.1/DTD/svg11.dtd">
<!-- Generated by graphviz version 2.26.3 (20100126.1600)
 -->
<!-- Title: G Pages: 1 -->
<!--zoomable 436 -->
<svg id="main" version="1.1" xmlns="http://www.w3.org/2000/svg" xmlns:xlink="http://www.w3.org/1999/xlink" xml:space="preserve" onload="init(evt)">
        <defs>
                <circle id="rim" cx="0" cy="0" r="7"/>
                <circle id="rim2" cx="0" cy="0" r="3.5"/>
                <g id="zoomPlus">
                        <use xlink:href="#rim" fill="#404040">
                                <set attributeName="fill" to="#808080" begin="zoomplus.mouseover" end="zoomplus.mouseout"/>
                        </use>
                        <path d="M-4,0h8M0,-4v8" fill="none" stroke="white" stroke-width="1.5" pointer-events="none"/>
                </g>
                <g id="zoomMin">
                        <use xlink:href="#rim" fill="#404040">
                                <set attributeName="fill" to="#808080" begin="zoomminus.mouseover" end="zoomminus.mouseout"/>
                        </use>
                        <path d="M-4,0h8" fill="none" stroke="white" stroke-width="1.5" pointer-events="none"/>
                </g>
                <g id="dirArrow">
                        <path fill="none" stroke="white" stroke-width="1.5" d="M0,-3.0v7 M-2.5,-0.5L0,-3.0L2.5,-0.5"/>
                </g>
               <g id="resetDef">
                       <use xlink:href="#rim2" fill="#404040">
                               <set attributeName="fill" to="#808080" begin="reset.mouseover" end="reset.mouseout"/>
                       </use>
               </g>
        </defs>

<script type="text/javascript">
var viewWidth = 601;
var viewHeight = 436;
var sectionId = 'dynsection-0';
</script>
<script xlink:href="svgpan.js"/>
<svg id="graph" class="graph">
<g id="viewport">
<title>G</title>
<!-- Node1 -->
<g id="node1" class="node"><title>Node1</title>
<polygon fill="#bfbfbf" stroke="black" points="170.5,-406.5 170.5,-427.5 425.5,-427.5 425.5,-406.5 170.5,-406.5"/>
<text text-anchor="middle" x="298" y="-414.5" font-family="FreeSans.ttf" font-size="10.00">utils/3d/generated/draw3dCameraParameters.cpp</text>
</g>
<!-- Node2 -->
<g id="node3" class="node"><title>Node2</title>
<polygon fill="none" stroke="#bfbfbf" points="-0.5,-58.5 -0.5,-79.5 46.5,-79.5 46.5,-58.5 -0.5,-58.5"/>
<text text-anchor="middle" x="23" y="-66.5" font-family="FreeSans.ttf" font-size="10.00">vector</text>
</g>
<!-- Node1&#45;&gt;Node2 -->
<g id="edge2" class="edge"><title>Node1&#45;&gt;Node2</title>
<path fill="none" stroke="midnightblue" d="M241.353,-406.472C156.438,-389.051 6,-351.116 6,-301 6,-301 6,-301 6,-185 6,-151.416 13.0621,-112.935 18.0829,-89.8211"/>
<polygon fill="midnightblue" stroke="midnightblue" points="21.5576,-90.3226 20.3438,-79.7976 14.7292,-88.7824 21.5576,-90.3226"/>
</g>
<!-- Node3 -->
<g id="node5" class="node"><title>Node3</title>
<polygon fill="none" stroke="#bfbfbf" points="392.5,-348.5 392.5,-369.5 447.5,-369.5 447.5,-348.5 392.5,-348.5"/>
<text text-anchor="middle" x="420" y="-356.5" font-family="FreeSans.ttf" font-size="10.00">stddef.h</text>
</g>
<!-- Node1&#45;&gt;Node3 -->
<g id="edge4" class="edge"><title>Node1&#45;&gt;Node3</title>
<path fill="none" stroke="midnightblue" d="M320.093,-406.497C339.234,-397.397 367.146,-384.127 388.605,-373.925"/>
<polygon fill="midnightblue" stroke="midnightblue" points="390.13,-377.076 397.659,-369.621 387.125,-370.754 390.13,-377.076"/>
</g>
<!-- Node4 -->
<g id="node7" class="node"><title>Node4</title>
<a xlink:href="draw3dCameraParameters_8h.html" target="_top" xlink:title="draw3dCameraParameters.h">
<polygon fill="none" stroke="black" points="221,-348.5 221,-369.5 375,-369.5 375,-348.5 221,-348.5"/>
<text text-anchor="middle" x="298" y="-356.5" font-family="FreeSans.ttf" font-size="10.00">draw3dCameraParameters.h</text>
</a>
</g>
<!-- Node1&#45;&gt;Node4 -->
<g id="edge6" class="edge"><title>Node1&#45;&gt;Node4</title>
<path fill="none" stroke="midnightblue" d="M298,-406.362C298,-398.922 298,-388.743 298,-379.728"/>
<polygon fill="midnightblue" stroke="midnightblue" points="301.5,-379.571 298,-369.571 294.5,-379.571 301.5,-379.571"/>
</g>
<!-- Node5 -->
<g id="node9" class="node"><title>Node5</title>
<a xlink:href="reflection_8h.html" target="_top" xlink:title="a header for Reflection.c">
<polygon fill="none" stroke="black" points="215,-116.5 215,-137.5 285,-137.5 285,-116.5 215,-116.5"/>
<text text-anchor="middle" x="250" y="-124.5" font-family="FreeSans.ttf" font-size="10.00">reflection.h</text>
</a>
</g>
<!-- Node4&#45;&gt;Node5 -->
<g id="edge8" class="edge"><title>Node4&#45;&gt;Node5</title>
<path fill="none" stroke="midnightblue" d="M347.979,-348.486C423.786,-331.376 561.91,-295.244 589,-254 594.368,-245.827 594.802,-239.871 589,-232 553.73,-184.153 379.044,-148.783 295.14,-134.263"/>
<polygon fill="midnightblue" stroke="midnightblue" points="295.578,-130.787 285.131,-132.555 294.4,-137.687 295.578,-130.787"/>
</g>
<!-- Node13 -->
<g id="node26" class="node"><title>Node13</title>
<a xlink:href="defaultSetter_8h.html" target="_top" xlink:title="defaultSetter.h">
<polygon fill="none" stroke="black" points="64,-174.5 64,-195.5 152,-195.5 152,-174.5 64,-174.5"/>
<text text-anchor="middle" x="108" y="-182.5" font-family="FreeSans.ttf" font-size="10.00">defaultSetter.h</text>
</a>
</g>
<!-- Node4&#45;&gt;Node13 -->
<g id="edge26" class="edge"><title>Node4&#45;&gt;Node13</title>
<path fill="none" stroke="midnightblue" d="M244.147,-348.427C194.426,-335.499 123.391,-308.26 90,-254 80.6324,-238.778 87.5558,-218.779 95.3746,-204.233"/>
<polygon fill="midnightblue" stroke="midnightblue" points="98.4197,-205.96 100.48,-195.567 92.3884,-202.407 98.4197,-205.96"/>
</g>
<!-- Node15 -->
<g id="node32" class="node"><title>Node15</title>
<a xlink:href="printerVisitor_8h.html" target="_top" xlink:title="printerVisitor.h">
<polygon fill="none" stroke="black" points="208,-174.5 208,-195.5 294,-195.5 294,-174.5 208,-174.5"/>
<text text-anchor="middle" x="251" y="-182.5" font-family="FreeSans.ttf" font-size="10.00">printerVisitor.h</text>
</a>
</g>
<!-- Node4&#45;&gt;Node15 -->
<g id="edge34" class="edge"><title>Node4&#45;&gt;Node15</title>
<path fill="none" stroke="midnightblue" d="M291.325,-348.196C285.881,-338.919 278.397,-325.021 274,-312 261.761,-275.754 255.617,-231.366 252.882,-205.818"/>
<polygon fill="midnightblue" stroke="midnightblue" points="256.358,-205.405 251.883,-195.802 249.392,-206.1 256.358,-205.405"/>
</g>
<!-- Node16 -->
<g id="node36" class="node"><title>Node16</title>
<a xlink:href="draw3dParameters_8h.html" target="_top" xlink:title="draw3dParameters.h">
<polygon fill="none" stroke="black" points="283,-290.5 283,-311.5 399,-311.5 399,-290.5 283,-290.5"/>
<text text-anchor="middle" x="341" y="-298.5" font-family="FreeSans.ttf" font-size="10.00">draw3dParameters.h</text>
</a>
</g>
<!-- Node4&#45;&gt;Node16 -->
<g id="edge40" class="edge"><title>Node4&#45;&gt;Node16</title>
<path fill="none" stroke="midnightblue" d="M305.887,-348.362C311.827,-340.35 320.122,-329.161 327.159,-319.67"/>
<polygon fill="midnightblue" stroke="midnightblue" points="330.019,-321.688 333.163,-311.571 324.396,-317.519 330.019,-321.688"/>
</g>
<!-- Node17 -->
<g id="node41" class="node"><title>Node17</title>
<a xlink:href="rgbColorParameters_8h.html" target="_top" xlink:title="rgbColorParameters.h">
<polygon fill="none" stroke="black" points="110,-232.5 110,-253.5 232,-253.5 232,-232.5 110,-232.5"/>
<text text-anchor="middle" x="171" y="-240.5" font-family="FreeSans.ttf" font-size="10.00">rgbColorParameters.h</text>
</a>
</g>
<!-- Node4&#45;&gt;Node17 -->
<g id="edge60" class="edge"><title>Node4&#45;&gt;Node17</title>
<path fill="none" stroke="midnightblue" d="M284.59,-348.497C272.857,-339.178 255.477,-325.057 241,-312 222.396,-295.221 202.108,-274.994 188.187,-260.792"/>
<polygon fill="midnightblue" stroke="midnightblue" points="190.645,-258.3 181.158,-253.582 185.632,-263.186 190.645,-258.3"/>
</g>
<!-- Node18 -->
<g id="node46" class="node"><title>Node18</title>
<a xlink:href="draw3dStyle_8h.html" target="_top" xlink:title="draw3dStyle.h">
<polygon fill="none" stroke="black" points="364,-232.5 364,-253.5 448,-253.5 448,-232.5 364,-232.5"/>
<text text-anchor="middle" x="406" y="-240.5" font-family="FreeSans.ttf" font-size="10.00">draw3dStyle.h</text>
</a>
</g>
<!-- Node4&#45;&gt;Node18 -->
<g id="edge62" class="edge"><title>Node4&#45;&gt;Node18</title>
<path fill="none" stroke="midnightblue" d="M354.548,-348.423C374.928,-341.587 395.872,-330.371 408,-312 417.351,-297.836 415.744,-278.226 412.441,-263.53"/>
<polygon fill="midnightblue" stroke="midnightblue" points="415.818,-262.613 409.868,-253.847 409.053,-264.41 415.818,-262.613"/>
</g>
<!-- Node19 -->
<g id="node48" class="node"><title>Node19</title>
<a xlink:href="draw3dTextureGen_8h.html" target="_top" xlink:title="draw3dTextureGen.h">
<polygon fill="none" stroke="black" points="466,-232.5 466,-253.5 580,-253.5 580,-232.5 466,-232.5"/>
<text text-anchor="middle" x="523" y="-240.5" font-family="FreeSans.ttf" font-size="10.00">draw3dTextureGen.h</text>
</a>
</g>
<!-- Node4&#45;&gt;Node19 -->
<g id="edge64" class="edge"><title>Node4&#45;&gt;Node19</title>
<path fill="none" stroke="midnightblue" d="M333.819,-348.493C359.859,-340.205 395.554,-327.478 425,-312 453.431,-297.056 483.206,-275.047 502.367,-259.926"/>
<polygon fill="midnightblue" stroke="midnightblue" points="504.76,-262.494 510.381,-253.514 500.386,-257.029 504.76,-262.494"/>
</g>
<!-- Node5&#45;&gt;Node2 -->
<g id="edge10" class="edge"><title>Node5&#45;&gt;Node2</title>
<path fill="none" stroke="midnightblue" d="M214.531,-117.938C171.333,-106.9 98.9042,-88.394 56.5793,-77.5797"/>
<polygon fill="midnightblue" stroke="midnightblue" points="57.3124,-74.1547 46.7572,-75.0701 55.5794,-80.9368 57.3124,-74.1547"/>
</g>
<!-- Node6 -->
<g id="node12" class="node"><title>Node6</title>
<polygon fill="none" stroke="#bfbfbf" points="433,-58.5 433,-79.5 477,-79.5 477,-58.5 433,-58.5"/>
<text text-anchor="middle" x="455" y="-66.5" font-family="FreeSans.ttf" font-size="10.00">string</text>
</g>
<!-- Node5&#45;&gt;Node6 -->
<g id="edge12" class="edge"><title>Node5&#45;&gt;Node6</title>
<path fill="none" stroke="midnightblue" d="M285.223,-118.336C318.536,-109.954 370.098,-96.4976 423.15,-80.1193"/>
<polygon fill="midnightblue" stroke="midnightblue" points="424.212,-83.4544 432.718,-77.1381 422.129,-76.7713 424.212,-83.4544"/>
</g>
<!-- Node7 -->
<g id="node14" class="node"><title>Node7</title>
<polygon fill="none" stroke="#bfbfbf" points="152.5,-58.5 152.5,-79.5 205.5,-79.5 205.5,-58.5 152.5,-58.5"/>
<text text-anchor="middle" x="179" y="-66.5" font-family="FreeSans.ttf" font-size="10.00">string.h</text>
</g>
<!-- Node5&#45;&gt;Node7 -->
<g id="edge14" class="edge"><title>Node5&#45;&gt;Node7</title>
<path fill="none" stroke="midnightblue" d="M236.978,-116.362C226.569,-107.859 211.781,-95.7785 199.745,-85.9466"/>
<polygon fill="midnightblue" stroke="midnightblue" points="201.899,-83.1866 191.94,-79.5707 197.47,-88.6077 201.899,-83.1866"/>
</g>
<!-- Node8 -->
<g id="node16" class="node"><title>Node8</title>
<polygon fill="none" stroke="#bfbfbf" points="222.5,-58.5 222.5,-79.5 271.5,-79.5 271.5,-58.5 222.5,-58.5"/>
<text text-anchor="middle" x="247" y="-66.5" font-family="FreeSans.ttf" font-size="10.00">stdio.h</text>
</g>
<!-- Node5&#45;&gt;Node8 -->
<g id="edge16" class="edge"><title>Node5&#45;&gt;Node8</title>
<path fill="none" stroke="midnightblue" d="M249.45,-116.362C249.065,-108.922 248.538,-98.7427 248.072,-89.7276"/>
<polygon fill="midnightblue" stroke="midnightblue" points="251.559,-89.3765 247.547,-79.5707 244.568,-89.7381 251.559,-89.3765"/>
</g>
<!-- Node9 -->
<g id="node18" class="node"><title>Node9</title>
<polygon fill="none" stroke="#bfbfbf" points="288.5,-58.5 288.5,-79.5 341.5,-79.5 341.5,-58.5 288.5,-58.5"/>
<text text-anchor="middle" x="315" y="-66.5" font-family="FreeSans.ttf" font-size="10.00">stdint.h</text>
</g>
<!-- Node5&#45;&gt;Node9 -->
<g id="edge18" class="edge"><title>Node5&#45;&gt;Node9</title>
<path fill="none" stroke="midnightblue" d="M261.922,-116.362C271.359,-107.941 284.73,-96.0105 295.69,-86.2308"/>
<polygon fill="midnightblue" stroke="midnightblue" points="298.022,-88.8401 303.154,-79.5707 293.362,-83.6171 298.022,-88.8401"/>
</g>
<!-- Node10 -->
<g id="node20" class="node"><title>Node10</title>
<polygon fill="none" stroke="#bfbfbf" points="359,-58.5 359,-79.5 415,-79.5 415,-58.5 359,-58.5"/>
<text text-anchor="middle" x="387" y="-66.5" font-family="FreeSans.ttf" font-size="10.00">stdarg.h</text>
</g>
<!-- Node5&#45;&gt;Node10 -->
<g id="edge20" class="edge"><title>Node5&#45;&gt;Node10</title>
<path fill="none" stroke="midnightblue" d="M274.81,-116.497C296.496,-107.315 328.211,-93.8889 352.392,-83.6516"/>
<polygon fill="midnightblue" stroke="midnightblue" points="354.068,-86.7429 361.912,-79.6212 351.339,-80.2968 354.068,-86.7429"/>
</g>
<!-- Node11 -->
<g id="node22" class="node"><title>Node11</title>
<a xlink:href="global_8h.html" target="_top" xlink:title="This file holds the global includes, mostly for debuging, tracing and profiling.">
<polygon fill="none" stroke="black" points="81,-58.5 81,-79.5 135,-79.5 135,-58.5 81,-58.5"/>
<text text-anchor="middle" x="108" y="-66.5" font-family="FreeSans.ttf" font-size="10.00">global.h</text>
</a>
</g>
<!-- Node5&#45;&gt;Node11 -->
<g id="edge22" class="edge"><title>Node5&#45;&gt;Node11</title>
<path fill="none" stroke="midnightblue" d="M224.285,-116.497C201.707,-107.275 168.642,-93.7695 143.537,-83.5153"/>
<polygon fill="midnightblue" stroke="midnightblue" points="144.585,-80.1624 134.004,-79.6212 141.938,-86.6427 144.585,-80.1624"/>
</g>
<!-- Node12 -->
<g id="node24" class="node"><title>Node12</title>
<polygon fill="none" stroke="#bfbfbf" points="76,-0.5 76,-21.5 140,-21.5 140,-0.5 76,-0.5"/>
<text text-anchor="middle" x="108" y="-8.5" font-family="FreeSans.ttf" font-size="10.00">inttypes.h</text>
</g>
<!-- Node11&#45;&gt;Node12 -->
<g id="edge24" class="edge"><title>Node11&#45;&gt;Node12</title>
<path fill="none" stroke="midnightblue" d="M108,-58.3619C108,-50.9219 108,-40.7427 108,-31.7276"/>
<polygon fill="midnightblue" stroke="midnightblue" points="111.5,-31.5706 108,-21.5707 104.5,-31.5707 111.5,-31.5706"/>
</g>
<!-- Node13&#45;&gt;Node5 -->
<g id="edge32" class="edge"><title>Node13&#45;&gt;Node5</title>
<path fill="none" stroke="midnightblue" d="M133.715,-174.497C156.293,-165.275 189.358,-151.769 214.463,-141.515"/>
<polygon fill="midnightblue" stroke="midnightblue" points="216.062,-144.643 223.996,-137.621 213.415,-138.162 216.062,-144.643"/>
</g>
<!-- Node13&#45;&gt;Node11 -->
<g id="edge30" class="edge"><title>Node13&#45;&gt;Node11</title>
<path fill="none" stroke="midnightblue" d="M108,-174.295C108,-155.131 108,-114.654 108,-89.8434"/>
<polygon fill="midnightblue" stroke="midnightblue" points="111.5,-89.6792 108,-79.6792 104.5,-89.6792 111.5,-89.6792"/>
</g>
<!-- Node14 -->
<g id="node28" class="node"><title>Node14</title>
<polygon fill="none" stroke="#bfbfbf" points="137.5,-116.5 137.5,-137.5 196.5,-137.5 196.5,-116.5 137.5,-116.5"/>
<text text-anchor="middle" x="167" y="-124.5" font-family="FreeSans.ttf" font-size="10.00">iostream</text>
</g>
<!-- Node13&#45;&gt;Node14 -->
<g id="edge28" class="edge"><title>Node13&#45;&gt;Node14</title>
<path fill="none" stroke="midnightblue" d="M118.822,-174.362C127.221,-166.104 139.054,-154.472 148.89,-144.803"/>
<polygon fill="midnightblue" stroke="midnightblue" points="151.569,-147.077 156.247,-137.571 146.662,-142.085 151.569,-147.077"/>
</g>
<!-- Node15&#45;&gt;Node5 -->
<g id="edge38" class="edge"><title>Node15&#45;&gt;Node5</title>
<path fill="none" stroke="midnightblue" d="M250.817,-174.362C250.688,-166.922 250.513,-156.743 250.357,-147.728"/>
<polygon fill="midnightblue" stroke="midnightblue" points="253.854,-147.509 250.182,-137.571 246.855,-147.63 253.854,-147.509"/>
</g>
<!-- Node15&#45;&gt;Node14 -->
<g id="edge36" class="edge"><title>Node15&#45;&gt;Node14</title>
<path fill="none" stroke="midnightblue" d="M235.593,-174.362C223.042,-165.696 205.108,-153.313 190.725,-143.382"/>
<polygon fill="midnightblue" stroke="midnightblue" points="192.527,-140.372 182.309,-137.571 188.55,-146.133 192.527,-140.372"/>
</g>
<!-- Node16&#45;&gt;Node5 -->
<g id="edge42" class="edge"><title>Node16&#45;&gt;Node5</title>
<path fill="none" stroke="midnightblue" d="M339.807,-290.312C336.84,-267.378 327.515,-212.413 303,-174 295.557,-162.337 284.42,-151.848 274.274,-143.754"/>
<polygon fill="midnightblue" stroke="midnightblue" points="276.169,-140.799 266.086,-137.545 271.939,-146.376 276.169,-140.799"/>
</g>
<!-- Node16&#45;&gt;Node13 -->
<g id="edge44" class="edge"><title>Node16&#45;&gt;Node13</title>
<path fill="none" stroke="midnightblue" d="M282.886,-297.876C219.37,-293.103 123.599,-281.454 101,-254 89.9329,-240.555 93.6044,-220.28 98.8938,-205.182"/>
<polygon fill="midnightblue" stroke="midnightblue" points="102.219,-206.291 102.653,-195.705 95.7124,-203.71 102.219,-206.291"/>
</g>
<!-- Node16&#45;&gt;Node15 -->
<g id="edge46" class="edge"><title>Node16&#45;&gt;Node15</title>
<path fill="none" stroke="midnightblue" d="M332.694,-290.295C317.424,-270.613 284.712,-228.45 265.638,-203.867"/>
<polygon fill="midnightblue" stroke="midnightblue" points="268.181,-201.435 259.286,-195.679 262.65,-205.726 268.181,-201.435"/>
</g>
<!-- Node16&#45;&gt;Node17 -->
<g id="edge48" class="edge"><title>Node16&#45;&gt;Node17</title>
<path fill="none" stroke="midnightblue" d="M310.214,-290.497C282.62,-281.082 241.942,-267.204 211.675,-256.877"/>
<polygon fill="midnightblue" stroke="midnightblue" points="212.438,-253.44 201.843,-253.523 210.178,-260.065 212.438,-253.44"/>
</g>
<!-- Node16&#45;&gt;Node18 -->
<g id="edge56" class="edge"><title>Node16&#45;&gt;Node18</title>
<path fill="none" stroke="midnightblue" d="M352.922,-290.362C362.359,-281.941 375.73,-270.011 386.69,-260.231"/>
<polygon fill="midnightblue" stroke="midnightblue" points="389.022,-262.84 394.154,-253.571 384.362,-257.617 389.022,-262.84"/>
</g>
<!-- Node16&#45;&gt;Node19 -->
<g id="edge58" class="edge"><title>Node16&#45;&gt;Node19</title>
<path fill="none" stroke="midnightblue" d="M373.959,-290.497C403.758,-281 447.809,-266.962 480.297,-256.609"/>
<polygon fill="midnightblue" stroke="midnightblue" points="481.514,-259.894 489.979,-253.523 479.389,-253.225 481.514,-259.894"/>
</g>
<!-- Node17&#45;&gt;Node5 -->
<g id="edge50" class="edge"><title>Node17&#45;&gt;Node5</title>
<path fill="none" stroke="midnightblue" d="M173.698,-232.476C177.668,-218.303 186.043,-192.704 199,-174 206.821,-162.71 217.797,-152.151 227.564,-143.912"/>
<polygon fill="midnightblue" stroke="midnightblue" points="229.822,-146.587 235.388,-137.572 225.415,-141.148 229.822,-146.587"/>
</g>
<!-- Node17&#45;&gt;Node13 -->
<g id="edge52" class="edge"><title>Node17&#45;&gt;Node13</title>
<path fill="none" stroke="midnightblue" d="M159.445,-232.362C150.387,-224.023 137.59,-212.242 127.026,-202.516"/>
<polygon fill="midnightblue" stroke="midnightblue" points="129.21,-199.769 119.482,-195.571 124.468,-204.919 129.21,-199.769"/>
</g>
<!-- Node17&#45;&gt;Node15 -->
<g id="edge54" class="edge"><title>Node17&#45;&gt;Node15</title>
<path fill="none" stroke="midnightblue" d="M185.673,-232.362C197.514,-223.777 214.385,-211.546 228.016,-201.664"/>
<polygon fill="midnightblue" stroke="midnightblue" points="230.378,-204.274 236.42,-195.571 226.269,-198.607 230.378,-204.274"/>
</g>
</g>
</svg>
        <g id="navigator" transform="translate(0 0)" fill="#404254">
                <rect fill="#f2f5e9" fill-opacity="0.5" stroke="#606060" stroke-width=".5" x="0" y="0" width="60" height="60"/>
                <use id="zoomplus" xlink:href="#zoomPlus" x="17" y="9" onmousedown="handleZoom(evt,'in')"/>
                <use id="zoomminus" xlink:href="#zoomMin" x="42" y="9" onmousedown="handleZoom(evt,'out')"/>
                <use id="reset" xlink:href="#resetDef" x="30" y="36" onmousedown="handleReset()"/>
                <g id="arrowUp" xlink:href="#dirArrow" transform="translate(30 24)" onmousedown="handlePan(0,-1)">
                  <use xlink:href="#rim" fill="#404040">
                        <set attributeName="fill" to="#808080" begin="arrowUp.mouseover" end="arrowUp.mouseout"/>
                  </use>
                  <path fill="none" stroke="white" stroke-width="1.5" d="M0,-3.0v7 M-2.5,-0.5L0,-3.0L2.5,-0.5"/>
                </g>
                <g id="arrowRight" xlink:href="#dirArrow" transform="rotate(90) translate(36 -43)" onmousedown="handlePan(1,0)">
                  <use xlink:href="#rim" fill="#404040">
                        <set attributeName="fill" to="#808080" begin="arrowRight.mouseover" end="arrowRight.mouseout"/>
                  </use>
                  <path fill="none" stroke="white" stroke-width="1.5" d="M0,-3.0v7 M-2.5,-0.5L0,-3.0L2.5,-0.5"/>
                </g>
                <g id="arrowDown" xlink:href="#dirArrow" transform="rotate(180) translate(-30 -48)" onmousedown="handlePan(0,1)">
                  <use xlink:href="#rim" fill="#404040">
                        <set attributeName="fill" to="#808080" begin="arrowDown.mouseover" end="arrowDown.mouseout"/>
                  </use>
                  <path fill="none" stroke="white" stroke-width="1.5" d="M0,-3.0v7 M-2.5,-0.5L0,-3.0L2.5,-0.5"/>
                </g>
                <g id="arrowLeft" xlink:href="#dirArrow" transform="rotate(270) translate(-36 17)" onmousedown="handlePan(-1,0)">
                  <use xlink:href="#rim" fill="#404040">
                        <set attributeName="fill" to="#808080" begin="arrowLeft.mouseover" end="arrowLeft.mouseout"/>
                  </use>
                  <path fill="none" stroke="white" stroke-width="1.5" d="M0,-3.0v7 M-2.5,-0.5L0,-3.0L2.5,-0.5"/>
                </g>
        </g>
</svg>
