<?xml version="1.0" encoding="UTF-8" standalone="no"?>
<!DOCTYPE svg PUBLIC "-//W3C//DTD SVG 1.1//EN"
 "http://www.w3.org/Graphics/SVG/1.1/DTD/svg11.dtd">
<!-- Generated by graphviz version 2.26.3 (20100126.1600)
 -->
<!-- Title: G Pages: 1 -->
<!--zoomable 146 -->
<svg id="main" version="1.1" xmlns="http://www.w3.org/2000/svg" xmlns:xlink="http://www.w3.org/1999/xlink" xml:space="preserve" onload="init(evt)">
        <defs>
                <circle id="rim" cx="0" cy="0" r="7"/>
                <circle id="rim2" cx="0" cy="0" r="3.5"/>
                <g id="zoomPlus">
                        <use xlink:href="#rim" fill="#404040">
                                <set attributeName="fill" to="#808080" begin="zoomplus.mouseover" end="zoomplus.mouseout"/>
                        </use>
                        <path d="M-4,0h8M0,-4v8" fill="none" stroke="white" stroke-width="1.5" pointer-events="none"/>
                </g>
                <g id="zoomMin">
                        <use xlink:href="#rim" fill="#404040">
                                <set attributeName="fill" to="#808080" begin="zoomminus.mouseover" end="zoomminus.mouseout"/>
                        </use>
                        <path d="M-4,0h8" fill="none" stroke="white" stroke-width="1.5" pointer-events="none"/>
                </g>
                <g id="dirArrow">
                        <path fill="none" stroke="white" stroke-width="1.5" d="M0,-3.0v7 M-2.5,-0.5L0,-3.0L2.5,-0.5"/>
                </g>
               <g id="resetDef">
                       <use xlink:href="#rim2" fill="#404040">
                               <set attributeName="fill" to="#808080" begin="reset.mouseover" end="reset.mouseout"/>
                       </use>
               </g>
        </defs>

<script type="text/javascript">
var viewWidth = 678;
var viewHeight = 146;
var sectionId = 'dynsection-1';
</script>
<script xlink:href="svgpan.js"/>
<svg id="graph" class="graph">
<g id="viewport">
<title>G</title>
<!-- Node1 -->
<g id="node1" class="node"><title>Node1</title>
<polygon fill="#bfbfbf" stroke="black" points="285.5,-116.5 285.5,-137.5 482.5,-137.5 482.5,-116.5 285.5,-116.5"/>
<text text-anchor="middle" x="384" y="-124.5" font-family="FreeSans.ttf" font-size="10.00">core/rectification/essentialEstimator.h</text>
</g>
<!-- Node2 -->
<g id="node3" class="node"><title>Node2</title>
<a xlink:href="essentialEstimator_8cpp.html" target="_top" xlink:title="Add Comment Here.">
<polygon fill="none" stroke="black" points="0,-58.5 0,-79.5 208,-79.5 208,-58.5 0,-58.5"/>
<text text-anchor="middle" x="104" y="-66.5" font-family="FreeSans.ttf" font-size="10.00">core/rectification/essentialEstimator.cpp</text>
</a>
</g>
<!-- Node1&#45;&gt;Node2 -->
<g id="edge2" class="edge"><title>Node1&#45;&gt;Node2</title>
<path fill="none" stroke="midnightblue" d="M323.194,-114.404C272.855,-103.977 202.159,-89.333 154.801,-79.5231"/>
<polygon fill="midnightblue" stroke="midnightblue" points="322.792,-117.895 333.294,-116.497 324.212,-111.041 322.792,-117.895"/>
</g>
<!-- Node3 -->
<g id="node5" class="node"><title>Node3</title>
<a xlink:href="iterativeEstimator_8h.html" target="_top" xlink:title="Add Comment Here.">
<polygon fill="none" stroke="black" points="225.5,-58.5 225.5,-79.5 418.5,-79.5 418.5,-58.5 225.5,-58.5"/>
<text text-anchor="middle" x="322" y="-66.5" font-family="FreeSans.ttf" font-size="10.00">core/rectification/iterativeEstimator.h</text>
</a>
</g>
<!-- Node1&#45;&gt;Node3 -->
<g id="edge4" class="edge"><title>Node1&#45;&gt;Node3</title>
<path fill="none" stroke="midnightblue" d="M365.192,-109.405C354.783,-99.6683 342.194,-87.8914 333.3,-79.5707"/>
<polygon fill="midnightblue" stroke="midnightblue" points="362.934,-112.086 372.628,-116.362 367.717,-106.974 362.934,-112.086"/>
</g>
<!-- Node5 -->
<g id="node9" class="node"><title>Node5</title>
<a xlink:href="universalRectifier_8cpp.html" target="_top" xlink:title="Add Comment Here.">
<polygon fill="none" stroke="black" points="357,-0.5 357,-21.5 535,-21.5 535,-0.5 357,-0.5"/>
<text text-anchor="middle" x="446" y="-8.5" font-family="FreeSans.ttf" font-size="10.00">utils/rectifier/universalRectifier.cpp</text>
</a>
</g>
<!-- Node1&#45;&gt;Node5 -->
<g id="edge12" class="edge"><title>Node1&#45;&gt;Node5</title>
<path fill="none" stroke="midnightblue" d="M404.123,-109.107C412.247,-100.941 421.082,-90.7098 427,-80 437.457,-61.0775 442.476,-36.0015 444.619,-21.8786"/>
<polygon fill="midnightblue" stroke="midnightblue" points="401.466,-106.806 396.669,-116.252 406.31,-111.859 401.466,-106.806"/>
</g>
<!-- Node6 -->
<g id="node11" class="node"><title>Node6</title>
<a xlink:href="ransacEstimator_8cpp.html" target="_top" xlink:title="Add Comment Here.">
<polygon fill="none" stroke="black" points="473.5,-58.5 473.5,-79.5 670.5,-79.5 670.5,-58.5 473.5,-58.5"/>
<text text-anchor="middle" x="572" y="-66.5" font-family="FreeSans.ttf" font-size="10.00">core/rectification/ransacEstimator.cpp</text>
</a>
</g>
<!-- Node1&#45;&gt;Node6 -->
<g id="edge10" class="edge"><title>Node1&#45;&gt;Node6</title>
<path fill="none" stroke="midnightblue" d="M427.608,-113.546C461.191,-103.186 506.956,-89.0668 537.891,-79.5231"/>
<polygon fill="midnightblue" stroke="midnightblue" points="426.569,-110.204 418.045,-116.497 428.633,-116.893 426.569,-110.204"/>
</g>
<!-- Node4 -->
<g id="node7" class="node"><title>Node4</title>
<a xlink:href="iterativeEstimator_8cpp.html" target="_top" xlink:title="Add Comment Here.">
<polygon fill="none" stroke="black" points="135,-0.5 135,-21.5 339,-21.5 339,-0.5 135,-0.5"/>
<text text-anchor="middle" x="237" y="-8.5" font-family="FreeSans.ttf" font-size="10.00">core/rectification/iterativeEstimator.cpp</text>
</a>
</g>
<!-- Node3&#45;&gt;Node4 -->
<g id="edge6" class="edge"><title>Node3&#45;&gt;Node4</title>
<path fill="none" stroke="midnightblue" d="M297.879,-52.5407C283.306,-42.5973 265.164,-30.2177 252.491,-21.5707"/>
<polygon fill="midnightblue" stroke="midnightblue" points="296.177,-55.6166 306.41,-58.3619 300.122,-49.8344 296.177,-55.6166"/>
</g>
<!-- Node3&#45;&gt;Node5 -->
<g id="edge8" class="edge"><title>Node3&#45;&gt;Node5</title>
<path fill="none" stroke="midnightblue" d="M353.628,-54.2064C375.382,-44.031 403.762,-30.7567 423.293,-21.6212"/>
<polygon fill="midnightblue" stroke="midnightblue" points="352.031,-51.0894 344.455,-58.4966 354.996,-57.4301 352.031,-51.0894"/>
</g>
</g>
</svg>
        <g id="navigator" transform="translate(0 0)" fill="#404254">
                <rect fill="#f2f5e9" fill-opacity="0.5" stroke="#606060" stroke-width=".5" x="0" y="0" width="60" height="60"/>
                <use id="zoomplus" xlink:href="#zoomPlus" x="17" y="9" onmousedown="handleZoom(evt,'in')"/>
                <use id="zoomminus" xlink:href="#zoomMin" x="42" y="9" onmousedown="handleZoom(evt,'out')"/>
                <use id="reset" xlink:href="#resetDef" x="30" y="36" onmousedown="handleReset()"/>
                <g id="arrowUp" xlink:href="#dirArrow" transform="translate(30 24)" onmousedown="handlePan(0,-1)">
                  <use xlink:href="#rim" fill="#404040">
                        <set attributeName="fill" to="#808080" begin="arrowUp.mouseover" end="arrowUp.mouseout"/>
                  </use>
                  <path fill="none" stroke="white" stroke-width="1.5" d="M0,-3.0v7 M-2.5,-0.5L0,-3.0L2.5,-0.5"/>
                </g>
                <g id="arrowRight" xlink:href="#dirArrow" transform="rotate(90) translate(36 -43)" onmousedown="handlePan(1,0)">
                  <use xlink:href="#rim" fill="#404040">
                        <set attributeName="fill" to="#808080" begin="arrowRight.mouseover" end="arrowRight.mouseout"/>
                  </use>
                  <path fill="none" stroke="white" stroke-width="1.5" d="M0,-3.0v7 M-2.5,-0.5L0,-3.0L2.5,-0.5"/>
                </g>
                <g id="arrowDown" xlink:href="#dirArrow" transform="rotate(180) translate(-30 -48)" onmousedown="handlePan(0,1)">
                  <use xlink:href="#rim" fill="#404040">
                        <set attributeName="fill" to="#808080" begin="arrowDown.mouseover" end="arrowDown.mouseout"/>
                  </use>
                  <path fill="none" stroke="white" stroke-width="1.5" d="M0,-3.0v7 M-2.5,-0.5L0,-3.0L2.5,-0.5"/>
                </g>
                <g id="arrowLeft" xlink:href="#dirArrow" transform="rotate(270) translate(-36 17)" onmousedown="handlePan(-1,0)">
                  <use xlink:href="#rim" fill="#404040">
                        <set attributeName="fill" to="#808080" begin="arrowLeft.mouseover" end="arrowLeft.mouseout"/>
                  </use>
                  <path fill="none" stroke="white" stroke-width="1.5" d="M0,-3.0v7 M-2.5,-0.5L0,-3.0L2.5,-0.5"/>
                </g>
        </g>
</svg>
