<?xml version="1.0" encoding="UTF-8" standalone="no"?>
<!DOCTYPE svg PUBLIC "-//W3C//DTD SVG 1.1//EN"
 "http://www.w3.org/Graphics/SVG/1.1/DTD/svg11.dtd">
<!-- Generated by graphviz version 2.26.3 (20100126.1600)
 -->
<!-- Title: G Pages: 1 -->
<!--zoomable 146 -->
<svg id="main" version="1.1" xmlns="http://www.w3.org/2000/svg" xmlns:xlink="http://www.w3.org/1999/xlink" xml:space="preserve" onload="init(evt)">
        <defs>
                <circle id="rim" cx="0" cy="0" r="7"/>
                <circle id="rim2" cx="0" cy="0" r="3.5"/>
                <g id="zoomPlus">
                        <use xlink:href="#rim" fill="#404040">
                                <set attributeName="fill" to="#808080" begin="zoomplus.mouseover" end="zoomplus.mouseout"/>
                        </use>
                        <path d="M-4,0h8M0,-4v8" fill="none" stroke="white" stroke-width="1.5" pointer-events="none"/>
                </g>
                <g id="zoomMin">
                        <use xlink:href="#rim" fill="#404040">
                                <set attributeName="fill" to="#808080" begin="zoomminus.mouseover" end="zoomminus.mouseout"/>
                        </use>
                        <path d="M-4,0h8" fill="none" stroke="white" stroke-width="1.5" pointer-events="none"/>
                </g>
                <g id="dirArrow">
                        <path fill="none" stroke="white" stroke-width="1.5" d="M0,-3.0v7 M-2.5,-0.5L0,-3.0L2.5,-0.5"/>
                </g>
               <g id="resetDef">
                       <use xlink:href="#rim2" fill="#404040">
                               <set attributeName="fill" to="#808080" begin="reset.mouseover" end="reset.mouseout"/>
                       </use>
               </g>
        </defs>

<script type="text/javascript">
var viewWidth = 1326;
var viewHeight = 146;
var sectionId = 'dynsection-1';
</script>
<script xlink:href="svgpan.js"/>
<svg id="graph" class="graph">
<g id="viewport">
<title>G</title>
<!-- Node1 -->
<g id="node1" class="node"><title>Node1</title>
<polygon fill="#bfbfbf" stroke="black" points="614.5,-116.5 614.5,-137.5 835.5,-137.5 835.5,-116.5 614.5,-116.5"/>
<text text-anchor="middle" x="725" y="-124.5" font-family="FreeSans.ttf" font-size="10.00">core/buffers/kernels/fastkernel/fastKernel.h</text>
</g>
<!-- Node2 -->
<g id="node3" class="node"><title>Node2</title>
<a xlink:href="g12Buffer_8cpp.html" target="_top" xlink:title="Add Comment Here.">
<polygon fill="none" stroke="black" points="-0.5,-58.5 -0.5,-79.5 142.5,-79.5 142.5,-58.5 -0.5,-58.5"/>
<text text-anchor="middle" x="71" y="-66.5" font-family="FreeSans.ttf" font-size="10.00">core/buffers/g12Buffer.cpp</text>
</a>
</g>
<!-- Node1&#45;&gt;Node2 -->
<g id="edge2" class="edge"><title>Node1&#45;&gt;Node2</title>
<path fill="none" stroke="midnightblue" d="M604.252,-119.049C487.969,-110.936 307.212,-97.1219 151,-80 148.213,-79.6945 145.373,-79.3696 142.505,-79.0302"/>
<polygon fill="midnightblue" stroke="midnightblue" points="604.034,-122.543 614.253,-119.744 604.519,-115.56 604.034,-122.543"/>
</g>
<!-- Node3 -->
<g id="node5" class="node"><title>Node3</title>
<a xlink:href="genericFastKernel_8h.html" target="_top" xlink:title="a header for GenericFastKernel.c">
<polygon fill="none" stroke="black" points="159.5,-58.5 159.5,-79.5 366.5,-79.5 366.5,-58.5 159.5,-58.5"/>
<text text-anchor="middle" x="263" y="-66.5" font-family="FreeSans.ttf" font-size="10.00">core/buffers/kernels/genericFastKernel.h</text>
</a>
</g>
<!-- Node1&#45;&gt;Node3 -->
<g id="edge4" class="edge"><title>Node1&#45;&gt;Node3</title>
<path fill="none" stroke="midnightblue" d="M631.357,-115.244C547.97,-104.775 427.084,-89.5993 346.822,-79.5231"/>
<polygon fill="midnightblue" stroke="midnightblue" points="630.977,-118.724 641.335,-116.497 631.849,-111.778 630.977,-118.724"/>
</g>
<!-- Node4 -->
<g id="node7" class="node"><title>Node4</title>
<a xlink:href="spatialGradient_8cpp.html" target="_top" xlink:title="Add Comment Here.">
<polygon fill="none" stroke="black" points="383.5,-58.5 383.5,-79.5 590.5,-79.5 590.5,-58.5 383.5,-58.5"/>
<text text-anchor="middle" x="487" y="-66.5" font-family="FreeSans.ttf" font-size="10.00">core/buffers/kernels/spatialGradient.cpp</text>
</a>
</g>
<!-- Node1&#45;&gt;Node4 -->
<g id="edge6" class="edge"><title>Node1&#45;&gt;Node4</title>
<path fill="none" stroke="midnightblue" d="M671.969,-114.077C629.274,-103.672 570.015,-89.2306 530.181,-79.5231"/>
<polygon fill="midnightblue" stroke="midnightblue" points="671.356,-117.529 681.9,-116.497 673.013,-110.728 671.356,-117.529"/>
</g>
<!-- Node5 -->
<g id="node9" class="node"><title>Node5</title>
<a xlink:href="morphological_8cpp.html" target="_top" xlink:title="Add Comment Here.">
<polygon fill="none" stroke="black" points="607.5,-58.5 607.5,-79.5 842.5,-79.5 842.5,-58.5 607.5,-58.5"/>
<text text-anchor="middle" x="725" y="-66.5" font-family="FreeSans.ttf" font-size="10.00">core/buffers/morphological/morphological.cpp</text>
</a>
</g>
<!-- Node1&#45;&gt;Node5 -->
<g id="edge8" class="edge"><title>Node1&#45;&gt;Node5</title>
<path fill="none" stroke="midnightblue" d="M725,-106.191C725,-97.1684 725,-86.9941 725,-79.5707"/>
<polygon fill="midnightblue" stroke="midnightblue" points="721.5,-106.362 725,-116.362 728.5,-106.362 721.5,-106.362"/>
</g>
<!-- Node6 -->
<g id="node11" class="node"><title>Node6</title>
<a xlink:href="cannyFilter_8cpp.html" target="_top" xlink:title="Add Comment Here.">
<polygon fill="none" stroke="black" points="860,-58.5 860,-79.5 1000,-79.5 1000,-58.5 860,-58.5"/>
<text text-anchor="middle" x="930" y="-66.5" font-family="FreeSans.ttf" font-size="10.00">core/filters/cannyFilter.cpp</text>
</a>
</g>
<!-- Node1&#45;&gt;Node6 -->
<g id="edge10" class="edge"><title>Node1&#45;&gt;Node6</title>
<path fill="none" stroke="midnightblue" d="M772.081,-113.68C808.742,-103.307 858.929,-89.1078 892.806,-79.5231"/>
<polygon fill="midnightblue" stroke="midnightblue" points="770.793,-110.406 762.124,-116.497 772.699,-117.142 770.793,-110.406"/>
</g>
<!-- Node7 -->
<g id="node13" class="node"><title>Node7</title>
<a xlink:href="operationFilter_8h.html" target="_top" xlink:title="core/filters/operationFilter.h">
<polygon fill="none" stroke="black" points="1018,-58.5 1018,-79.5 1164,-79.5 1164,-58.5 1018,-58.5"/>
<text text-anchor="middle" x="1091" y="-66.5" font-family="FreeSans.ttf" font-size="10.00">core/filters/operationFilter.h</text>
</a>
</g>
<!-- Node1&#45;&gt;Node7 -->
<g id="edge12" class="edge"><title>Node1&#45;&gt;Node7</title>
<path fill="none" stroke="midnightblue" d="M801.208,-114.923C867.188,-104.468 961.658,-89.4969 1024.6,-79.5231"/>
<polygon fill="midnightblue" stroke="midnightblue" points="800.609,-111.475 791.28,-116.497 801.704,-118.388 800.609,-111.475"/>
</g>
<!-- Node10 -->
<g id="node19" class="node"><title>Node10</title>
<a xlink:href="sobelFilter_8cpp.html" target="_top" xlink:title="Add Comment Here.">
<polygon fill="none" stroke="black" points="1181.5,-58.5 1181.5,-79.5 1318.5,-79.5 1318.5,-58.5 1181.5,-58.5"/>
<text text-anchor="middle" x="1250" y="-66.5" font-family="FreeSans.ttf" font-size="10.00">core/filters/sobelFilter.cpp</text>
</a>
</g>
<!-- Node1&#45;&gt;Node10 -->
<g id="edge18" class="edge"><title>Node1&#45;&gt;Node10</title>
<path fill="none" stroke="midnightblue" d="M845.592,-115.581C935.85,-106.735 1062.29,-93.7109 1173,-80 1175.68,-79.6681 1178.41,-79.3209 1181.17,-78.9628"/>
<polygon fill="midnightblue" stroke="midnightblue" points="845.209,-112.102 835.597,-116.558 845.89,-119.069 845.209,-112.102"/>
</g>
<!-- Node8 -->
<g id="node15" class="node"><title>Node8</title>
<a xlink:href="filtersCollection_8cpp.html" target="_top" xlink:title="core/filters/filtersCollection.cpp">
<polygon fill="none" stroke="black" points="920.5,-0.5 920.5,-21.5 1083.5,-21.5 1083.5,-0.5 920.5,-0.5"/>
<text text-anchor="middle" x="1002" y="-8.5" font-family="FreeSans.ttf" font-size="10.00">core/filters/filtersCollection.cpp</text>
</a>
</g>
<!-- Node7&#45;&gt;Node8 -->
<g id="edge14" class="edge"><title>Node7&#45;&gt;Node8</title>
<path fill="none" stroke="midnightblue" d="M1066.17,-52.8215C1050.84,-42.8312 1031.61,-30.2993 1018.22,-21.5707"/>
<polygon fill="midnightblue" stroke="midnightblue" points="1064.39,-55.8344 1074.68,-58.3619 1068.21,-49.9698 1064.39,-55.8344"/>
</g>
<!-- Node9 -->
<g id="node17" class="node"><title>Node9</title>
<a xlink:href="operationFilter_8cpp.html" target="_top" xlink:title="core/filters/operationFilter.cpp">
<polygon fill="none" stroke="black" points="1101,-0.5 1101,-21.5 1259,-21.5 1259,-0.5 1101,-0.5"/>
<text text-anchor="middle" x="1180" y="-8.5" font-family="FreeSans.ttf" font-size="10.00">core/filters/operationFilter.cpp</text>
</a>
</g>
<!-- Node7&#45;&gt;Node9 -->
<g id="edge16" class="edge"><title>Node7&#45;&gt;Node9</title>
<path fill="none" stroke="midnightblue" d="M1115.83,-52.8215C1131.16,-42.8312 1150.39,-30.2993 1163.78,-21.5707"/>
<polygon fill="midnightblue" stroke="midnightblue" points="1113.79,-49.9698 1107.32,-58.3619 1117.61,-55.8344 1113.79,-49.9698"/>
</g>
</g>
</svg>
        <g id="navigator" transform="translate(0 0)" fill="#404254">
                <rect fill="#f2f5e9" fill-opacity="0.5" stroke="#606060" stroke-width=".5" x="0" y="0" width="60" height="60"/>
                <use id="zoomplus" xlink:href="#zoomPlus" x="17" y="9" onmousedown="handleZoom(evt,'in')"/>
                <use id="zoomminus" xlink:href="#zoomMin" x="42" y="9" onmousedown="handleZoom(evt,'out')"/>
                <use id="reset" xlink:href="#resetDef" x="30" y="36" onmousedown="handleReset()"/>
                <g id="arrowUp" xlink:href="#dirArrow" transform="translate(30 24)" onmousedown="handlePan(0,-1)">
                  <use xlink:href="#rim" fill="#404040">
                        <set attributeName="fill" to="#808080" begin="arrowUp.mouseover" end="arrowUp.mouseout"/>
                  </use>
                  <path fill="none" stroke="white" stroke-width="1.5" d="M0,-3.0v7 M-2.5,-0.5L0,-3.0L2.5,-0.5"/>
                </g>
                <g id="arrowRight" xlink:href="#dirArrow" transform="rotate(90) translate(36 -43)" onmousedown="handlePan(1,0)">
                  <use xlink:href="#rim" fill="#404040">
                        <set attributeName="fill" to="#808080" begin="arrowRight.mouseover" end="arrowRight.mouseout"/>
                  </use>
                  <path fill="none" stroke="white" stroke-width="1.5" d="M0,-3.0v7 M-2.5,-0.5L0,-3.0L2.5,-0.5"/>
                </g>
                <g id="arrowDown" xlink:href="#dirArrow" transform="rotate(180) translate(-30 -48)" onmousedown="handlePan(0,1)">
                  <use xlink:href="#rim" fill="#404040">
                        <set attributeName="fill" to="#808080" begin="arrowDown.mouseover" end="arrowDown.mouseout"/>
                  </use>
                  <path fill="none" stroke="white" stroke-width="1.5" d="M0,-3.0v7 M-2.5,-0.5L0,-3.0L2.5,-0.5"/>
                </g>
                <g id="arrowLeft" xlink:href="#dirArrow" transform="rotate(270) translate(-36 17)" onmousedown="handlePan(-1,0)">
                  <use xlink:href="#rim" fill="#404040">
                        <set attributeName="fill" to="#808080" begin="arrowLeft.mouseover" end="arrowLeft.mouseout"/>
                  </use>
                  <path fill="none" stroke="white" stroke-width="1.5" d="M0,-3.0v7 M-2.5,-0.5L0,-3.0L2.5,-0.5"/>
                </g>
        </g>
</svg>
