<?xml version="1.0" encoding="UTF-8" standalone="no"?>
<!DOCTYPE svg PUBLIC "-//W3C//DTD SVG 1.1//EN"
 "http://www.w3.org/Graphics/SVG/1.1/DTD/svg11.dtd">
<!-- Generated by graphviz version 2.26.3 (20100126.1600)
 -->
<!-- Title: G Pages: 1 -->
<svg width="390pt" height="262pt"
 viewBox="0.00 0.00 390.00 262.00" xmlns="http://www.w3.org/2000/svg" xmlns:xlink="http://www.w3.org/1999/xlink">
<g id="graph1" class="graph" transform="scale(1 1) rotate(0) translate(4 258)">
<title>G</title>
<!-- Node1 -->
<g id="node1" class="node"><title>Node1</title>
<polygon fill="#bfbfbf" stroke="black" points="0,-232.5 0,-253.5 254,-253.5 254,-232.5 0,-232.5"/>
<text text-anchor="middle" x="127" y="-240.5" font-family="FreeSans.ttf" font-size="10.00">core/buffers/kernels/fastconverter/fastConverter.h</text>
</g>
<!-- Node2 -->
<g id="node3" class="node"><title>Node2</title>
<a xlink:href="global_8h.html" target="_top" xlink:title="This file holds the global includes, mostly for debuging, tracing and profiling.">
<polygon fill="none" stroke="black" points="69,-58.5 69,-79.5 123,-79.5 123,-58.5 69,-58.5"/>
<text text-anchor="middle" x="96" y="-66.5" font-family="FreeSans.ttf" font-size="10.00">global.h</text>
</a>
</g>
<!-- Node1&#45;&gt;Node2 -->
<g id="edge2" class="edge"><title>Node1&#45;&gt;Node2</title>
<path fill="none" stroke="midnightblue" d="M79.8516,-232.491C60.3072,-225.559 39.5398,-214.253 28,-196 4.15803,-158.289 46.5638,-111.466 74.4666,-86.5416"/>
<polygon fill="midnightblue" stroke="midnightblue" points="76.9528,-89.0189 82.228,-79.8307 72.3743,-83.7238 76.9528,-89.0189"/>
</g>
<!-- Node4 -->
<g id="node7" class="node"><title>Node4</title>
<a xlink:href="baseKernel_8h.html" target="_top" xlink:title="a header for BaseKernel.c">
<polygon fill="none" stroke="black" points="37,-174.5 37,-195.5 115,-195.5 115,-174.5 37,-174.5"/>
<text text-anchor="middle" x="76" y="-182.5" font-family="FreeSans.ttf" font-size="10.00">baseKernel.h</text>
</a>
</g>
<!-- Node1&#45;&gt;Node4 -->
<g id="edge6" class="edge"><title>Node1&#45;&gt;Node4</title>
<path fill="none" stroke="midnightblue" d="M117.646,-232.362C110.457,-224.186 100.359,-212.702 91.9073,-203.091"/>
<polygon fill="midnightblue" stroke="midnightblue" points="94.5267,-200.769 85.2949,-195.571 89.2699,-205.392 94.5267,-200.769"/>
</g>
<!-- Node5 -->
<g id="node10" class="node"><title>Node5</title>
<a xlink:href="scalarAlgebra_8h.html" target="_top" xlink:title="a header for ScalarAlgebra.c">
<polygon fill="none" stroke="black" points="132.5,-174.5 132.5,-195.5 223.5,-195.5 223.5,-174.5 132.5,-174.5"/>
<text text-anchor="middle" x="178" y="-182.5" font-family="FreeSans.ttf" font-size="10.00">scalarAlgebra.h</text>
</a>
</g>
<!-- Node1&#45;&gt;Node5 -->
<g id="edge10" class="edge"><title>Node1&#45;&gt;Node5</title>
<path fill="none" stroke="midnightblue" d="M136.354,-232.362C143.543,-224.186 153.641,-212.702 162.093,-203.091"/>
<polygon fill="midnightblue" stroke="midnightblue" points="164.73,-205.392 168.705,-195.571 159.473,-200.769 164.73,-205.392"/>
</g>
<!-- Node9 -->
<g id="node21" class="node"><title>Node9</title>
<a xlink:href="tbbWrapper_8h.html" target="_top" xlink:title="This is a class that provides common TBB interface.">
<polygon fill="none" stroke="black" points="273,-174.5 273,-195.5 353,-195.5 353,-174.5 273,-174.5"/>
<text text-anchor="middle" x="313" y="-182.5" font-family="FreeSans.ttf" font-size="10.00">tbbWrapper.h</text>
</a>
</g>
<!-- Node1&#45;&gt;Node9 -->
<g id="edge24" class="edge"><title>Node1&#45;&gt;Node9</title>
<path fill="none" stroke="midnightblue" d="M160.683,-232.497C191.137,-223 236.157,-208.962 269.358,-198.609"/>
<polygon fill="midnightblue" stroke="midnightblue" points="270.749,-201.841 279.254,-195.523 268.665,-195.159 270.749,-201.841"/>
</g>
<!-- Node3 -->
<g id="node5" class="node"><title>Node3</title>
<polygon fill="none" stroke="#bfbfbf" points="64,-0.5 64,-21.5 128,-21.5 128,-0.5 64,-0.5"/>
<text text-anchor="middle" x="96" y="-8.5" font-family="FreeSans.ttf" font-size="10.00">inttypes.h</text>
</g>
<!-- Node2&#45;&gt;Node3 -->
<g id="edge4" class="edge"><title>Node2&#45;&gt;Node3</title>
<path fill="none" stroke="midnightblue" d="M96,-58.3619C96,-50.9219 96,-40.7427 96,-31.7276"/>
<polygon fill="midnightblue" stroke="midnightblue" points="99.5001,-31.5706 96,-21.5707 92.5001,-31.5707 99.5001,-31.5706"/>
</g>
<!-- Node4&#45;&gt;Node2 -->
<g id="edge8" class="edge"><title>Node4&#45;&gt;Node2</title>
<path fill="none" stroke="midnightblue" d="M76.2648,-174.151C76.7533,-160.481 78.1322,-136.317 82,-116 83.6828,-107.16 86.3623,-97.609 88.9287,-89.44"/>
<polygon fill="midnightblue" stroke="midnightblue" points="92.3413,-90.2667 92.144,-79.6737 85.6923,-88.0776 92.3413,-90.2667"/>
</g>
<!-- Node5&#45;&gt;Node2 -->
<g id="edge12" class="edge"><title>Node5&#45;&gt;Node2</title>
<path fill="none" stroke="midnightblue" d="M157.255,-174.337C143.353,-166.173 125.699,-153.663 115,-138 105.171,-123.61 100.409,-104.278 98.1121,-89.7372"/>
<polygon fill="midnightblue" stroke="midnightblue" points="101.568,-89.1711 96.7931,-79.7131 94.6277,-90.0843 101.568,-89.1711"/>
</g>
<!-- Node6 -->
<g id="node13" class="node"><title>Node6</title>
<a xlink:href="baseAlgebra_8h.html" target="_top" xlink:title="a header for BaseAlgebra.c">
<polygon fill="none" stroke="black" points="124,-116.5 124,-137.5 210,-137.5 210,-116.5 124,-116.5"/>
<text text-anchor="middle" x="167" y="-124.5" font-family="FreeSans.ttf" font-size="10.00">baseAlgebra.h</text>
</a>
</g>
<!-- Node5&#45;&gt;Node6 -->
<g id="edge14" class="edge"><title>Node5&#45;&gt;Node6</title>
<path fill="none" stroke="midnightblue" d="M175.982,-174.362C174.556,-166.84 172.598,-156.519 170.875,-147.431"/>
<polygon fill="midnightblue" stroke="midnightblue" points="174.307,-146.743 169.005,-137.571 167.429,-148.048 174.307,-146.743"/>
</g>
<!-- Node7 -->
<g id="node16" class="node"><title>Node7</title>
<a xlink:href="genericMath_8h.html" target="_top" xlink:title="genericMath.h">
<polygon fill="none" stroke="black" points="227.5,-116.5 227.5,-137.5 312.5,-137.5 312.5,-116.5 227.5,-116.5"/>
<text text-anchor="middle" x="270" y="-124.5" font-family="FreeSans.ttf" font-size="10.00">genericMath.h</text>
</a>
</g>
<!-- Node5&#45;&gt;Node7 -->
<g id="edge18" class="edge"><title>Node5&#45;&gt;Node7</title>
<path fill="none" stroke="midnightblue" d="M194.874,-174.362C208.751,-165.614 228.634,-153.079 244.46,-143.101"/>
<polygon fill="midnightblue" stroke="midnightblue" points="246.64,-145.864 253.233,-137.571 242.907,-139.943 246.64,-145.864"/>
</g>
<!-- Node6&#45;&gt;Node2 -->
<g id="edge16" class="edge"><title>Node6&#45;&gt;Node2</title>
<path fill="none" stroke="midnightblue" d="M153.978,-116.362C143.569,-107.859 128.781,-95.7785 116.745,-85.9466"/>
<polygon fill="midnightblue" stroke="midnightblue" points="118.899,-83.1866 108.94,-79.5707 114.47,-88.6077 118.899,-83.1866"/>
</g>
<!-- Node7&#45;&gt;Node2 -->
<g id="edge22" class="edge"><title>Node7&#45;&gt;Node2</title>
<path fill="none" stroke="midnightblue" d="M238.49,-116.497C208.798,-106.599 164.306,-91.7685 132.953,-81.3178"/>
<polygon fill="midnightblue" stroke="midnightblue" points="133.865,-77.9323 123.271,-78.0904 131.651,-84.5731 133.865,-77.9323"/>
</g>
<!-- Node8 -->
<g id="node18" class="node"><title>Node8</title>
<polygon fill="none" stroke="#bfbfbf" points="243.5,-58.5 243.5,-79.5 296.5,-79.5 296.5,-58.5 243.5,-58.5"/>
<text text-anchor="middle" x="270" y="-66.5" font-family="FreeSans.ttf" font-size="10.00">stdint.h</text>
</g>
<!-- Node7&#45;&gt;Node8 -->
<g id="edge20" class="edge"><title>Node7&#45;&gt;Node8</title>
<path fill="none" stroke="midnightblue" d="M270,-116.362C270,-108.922 270,-98.7427 270,-89.7276"/>
<polygon fill="midnightblue" stroke="midnightblue" points="273.5,-89.5706 270,-79.5707 266.5,-89.5707 273.5,-89.5706"/>
</g>
<!-- Node10 -->
<g id="node23" class="node"><title>Node10</title>
<polygon fill="none" stroke="#bfbfbf" points="330,-116.5 330,-137.5 382,-137.5 382,-116.5 330,-116.5"/>
<text text-anchor="middle" x="356" y="-124.5" font-family="FreeSans.ttf" font-size="10.00">cstddef</text>
</g>
<!-- Node9&#45;&gt;Node10 -->
<g id="edge26" class="edge"><title>Node9&#45;&gt;Node10</title>
<path fill="none" stroke="midnightblue" d="M320.887,-174.362C326.827,-166.35 335.122,-155.161 342.159,-145.67"/>
<polygon fill="midnightblue" stroke="midnightblue" points="345.019,-147.688 348.163,-137.571 339.396,-143.519 345.019,-147.688"/>
</g>
</g>
</svg>
