<?xml version="1.0" encoding="UTF-8" standalone="no"?>
<!DOCTYPE svg PUBLIC "-//W3C//DTD SVG 1.1//EN"
 "http://www.w3.org/Graphics/SVG/1.1/DTD/svg11.dtd">
<!-- Generated by graphviz version 2.26.3 (20100126.1600)
 -->
<!-- Title: G Pages: 1 -->
<!--zoomable 146 -->
<svg id="main" version="1.1" xmlns="http://www.w3.org/2000/svg" xmlns:xlink="http://www.w3.org/1999/xlink" xml:space="preserve" onload="init(evt)">
        <defs>
                <circle id="rim" cx="0" cy="0" r="7"/>
                <circle id="rim2" cx="0" cy="0" r="3.5"/>
                <g id="zoomPlus">
                        <use xlink:href="#rim" fill="#404040">
                                <set attributeName="fill" to="#808080" begin="zoomplus.mouseover" end="zoomplus.mouseout"/>
                        </use>
                        <path d="M-4,0h8M0,-4v8" fill="none" stroke="white" stroke-width="1.5" pointer-events="none"/>
                </g>
                <g id="zoomMin">
                        <use xlink:href="#rim" fill="#404040">
                                <set attributeName="fill" to="#808080" begin="zoomminus.mouseover" end="zoomminus.mouseout"/>
                        </use>
                        <path d="M-4,0h8" fill="none" stroke="white" stroke-width="1.5" pointer-events="none"/>
                </g>
                <g id="dirArrow">
                        <path fill="none" stroke="white" stroke-width="1.5" d="M0,-3.0v7 M-2.5,-0.5L0,-3.0L2.5,-0.5"/>
                </g>
               <g id="resetDef">
                       <use xlink:href="#rim2" fill="#404040">
                               <set attributeName="fill" to="#808080" begin="reset.mouseover" end="reset.mouseout"/>
                       </use>
               </g>
        </defs>

<script type="text/javascript">
var viewWidth = 670;
var viewHeight = 146;
var sectionId = 'dynsection-1';
</script>
<script xlink:href="svgpan.js"/>
<svg id="graph" class="graph">
<g id="viewport">
<title>G</title>
<!-- Node1 -->
<g id="node1" class="node"><title>Node1</title>
<polygon fill="#bfbfbf" stroke="black" points="220,-116.5 220,-137.5 394,-137.5 394,-116.5 220,-116.5"/>
<text text-anchor="middle" x="307" y="-124.5" font-family="FreeSans.ttf" font-size="10.00">core/automotive/FCostFunction.h</text>
</g>
<!-- Node2 -->
<g id="node3" class="node"><title>Node2</title>
<a xlink:href="FCostFunction_8cpp.html" target="_top" xlink:title="This file holds implementation of functions for compensated flow cost function.">
<polygon fill="none" stroke="black" points="-0.5,-58.5 -0.5,-79.5 184.5,-79.5 184.5,-58.5 -0.5,-58.5"/>
<text text-anchor="middle" x="92" y="-66.5" font-family="FreeSans.ttf" font-size="10.00">core/automotive/FCostFunction.cpp</text>
</a>
</g>
<!-- Node1&#45;&gt;Node2 -->
<g id="edge2" class="edge"><title>Node1&#45;&gt;Node2</title>
<path fill="none" stroke="midnightblue" d="M258.115,-113.812C219.623,-103.428 166.689,-89.1487 131.008,-79.5231"/>
<polygon fill="midnightblue" stroke="midnightblue" points="257.499,-117.271 268.065,-116.497 259.322,-110.513 257.499,-117.271"/>
</g>
<!-- Node3 -->
<g id="node5" class="node"><title>Node3</title>
<a xlink:href="flowVectorInformation_8h.html" target="_top" xlink:title="This header holds the data structures that hold classification of flow vectors.">
<polygon fill="none" stroke="black" points="201.5,-58.5 201.5,-79.5 412.5,-79.5 412.5,-58.5 201.5,-58.5"/>
<text text-anchor="middle" x="307" y="-66.5" font-family="FreeSans.ttf" font-size="10.00">core/automotive/flowVectorInformation.h</text>
</a>
</g>
<!-- Node1&#45;&gt;Node3 -->
<g id="edge4" class="edge"><title>Node1&#45;&gt;Node3</title>
<path fill="none" stroke="midnightblue" d="M307,-106.191C307,-97.1684 307,-86.9941 307,-79.5707"/>
<polygon fill="midnightblue" stroke="midnightblue" points="303.5,-106.362 307,-116.362 310.5,-106.362 303.5,-106.362"/>
</g>
<!-- Node5 -->
<g id="node9" class="node"><title>Node5</title>
<a xlink:href="flowSimuator_8cpp.html" target="_top" xlink:title="This is an implementation file to simulate flow caused by still standing objects and a moving vehicle...">
<polygon fill="none" stroke="black" points="429.5,-58.5 429.5,-79.5 662.5,-79.5 662.5,-58.5 429.5,-58.5"/>
<text text-anchor="middle" x="546" y="-66.5" font-family="FreeSans.ttf" font-size="10.00">core/automotive/simulation/flowSimuator.cpp</text>
</a>
</g>
<!-- Node1&#45;&gt;Node5 -->
<g id="edge8" class="edge"><title>Node1&#45;&gt;Node5</title>
<path fill="none" stroke="midnightblue" d="M360.253,-114.077C403.128,-103.672 462.636,-89.2306 502.638,-79.5231"/>
<polygon fill="midnightblue" stroke="midnightblue" points="359.174,-110.737 350.281,-116.497 360.824,-117.54 359.174,-110.737"/>
</g>
<!-- Node4 -->
<g id="node7" class="node"><title>Node4</title>
<a xlink:href="flowVectorInformation_8cpp.html" target="_top" xlink:title="This file holds the data structures that help classification of flow vectors.">
<polygon fill="none" stroke="black" points="196,-0.5 196,-21.5 418,-21.5 418,-0.5 196,-0.5"/>
<text text-anchor="middle" x="307" y="-8.5" font-family="FreeSans.ttf" font-size="10.00">core/automotive/flowVectorInformation.cpp</text>
</a>
</g>
<!-- Node3&#45;&gt;Node4 -->
<g id="edge6" class="edge"><title>Node3&#45;&gt;Node4</title>
<path fill="none" stroke="midnightblue" d="M307,-48.1906C307,-39.1684 307,-28.9941 307,-21.5707"/>
<polygon fill="midnightblue" stroke="midnightblue" points="303.5,-48.3619 307,-58.3619 310.5,-48.3619 303.5,-48.3619"/>
</g>
</g>
</svg>
        <g id="navigator" transform="translate(0 0)" fill="#404254">
                <rect fill="#f2f5e9" fill-opacity="0.5" stroke="#606060" stroke-width=".5" x="0" y="0" width="60" height="60"/>
                <use id="zoomplus" xlink:href="#zoomPlus" x="17" y="9" onmousedown="handleZoom(evt,'in')"/>
                <use id="zoomminus" xlink:href="#zoomMin" x="42" y="9" onmousedown="handleZoom(evt,'out')"/>
                <use id="reset" xlink:href="#resetDef" x="30" y="36" onmousedown="handleReset()"/>
                <g id="arrowUp" xlink:href="#dirArrow" transform="translate(30 24)" onmousedown="handlePan(0,-1)">
                  <use xlink:href="#rim" fill="#404040">
                        <set attributeName="fill" to="#808080" begin="arrowUp.mouseover" end="arrowUp.mouseout"/>
                  </use>
                  <path fill="none" stroke="white" stroke-width="1.5" d="M0,-3.0v7 M-2.5,-0.5L0,-3.0L2.5,-0.5"/>
                </g>
                <g id="arrowRight" xlink:href="#dirArrow" transform="rotate(90) translate(36 -43)" onmousedown="handlePan(1,0)">
                  <use xlink:href="#rim" fill="#404040">
                        <set attributeName="fill" to="#808080" begin="arrowRight.mouseover" end="arrowRight.mouseout"/>
                  </use>
                  <path fill="none" stroke="white" stroke-width="1.5" d="M0,-3.0v7 M-2.5,-0.5L0,-3.0L2.5,-0.5"/>
                </g>
                <g id="arrowDown" xlink:href="#dirArrow" transform="rotate(180) translate(-30 -48)" onmousedown="handlePan(0,1)">
                  <use xlink:href="#rim" fill="#404040">
                        <set attributeName="fill" to="#808080" begin="arrowDown.mouseover" end="arrowDown.mouseout"/>
                  </use>
                  <path fill="none" stroke="white" stroke-width="1.5" d="M0,-3.0v7 M-2.5,-0.5L0,-3.0L2.5,-0.5"/>
                </g>
                <g id="arrowLeft" xlink:href="#dirArrow" transform="rotate(270) translate(-36 17)" onmousedown="handlePan(-1,0)">
                  <use xlink:href="#rim" fill="#404040">
                        <set attributeName="fill" to="#808080" begin="arrowLeft.mouseover" end="arrowLeft.mouseout"/>
                  </use>
                  <path fill="none" stroke="white" stroke-width="1.5" d="M0,-3.0v7 M-2.5,-0.5L0,-3.0L2.5,-0.5"/>
                </g>
        </g>
</svg>
