<?xml version="1.0" encoding="UTF-8" standalone="no"?>
<!DOCTYPE svg PUBLIC "-//W3C//DTD SVG 1.1//EN"
 "http://www.w3.org/Graphics/SVG/1.1/DTD/svg11.dtd">
<!-- Generated by graphviz version 2.26.3 (20100126.1600)
 -->
<!-- Title: G Pages: 1 -->
<!--zoomable 726 -->
<svg id="main" version="1.1" xmlns="http://www.w3.org/2000/svg" xmlns:xlink="http://www.w3.org/1999/xlink" xml:space="preserve" onload="init(evt)">
        <defs>
                <circle id="rim" cx="0" cy="0" r="7"/>
                <circle id="rim2" cx="0" cy="0" r="3.5"/>
                <g id="zoomPlus">
                        <use xlink:href="#rim" fill="#404040">
                                <set attributeName="fill" to="#808080" begin="zoomplus.mouseover" end="zoomplus.mouseout"/>
                        </use>
                        <path d="M-4,0h8M0,-4v8" fill="none" stroke="white" stroke-width="1.5" pointer-events="none"/>
                </g>
                <g id="zoomMin">
                        <use xlink:href="#rim" fill="#404040">
                                <set attributeName="fill" to="#808080" begin="zoomminus.mouseover" end="zoomminus.mouseout"/>
                        </use>
                        <path d="M-4,0h8" fill="none" stroke="white" stroke-width="1.5" pointer-events="none"/>
                </g>
                <g id="dirArrow">
                        <path fill="none" stroke="white" stroke-width="1.5" d="M0,-3.0v7 M-2.5,-0.5L0,-3.0L2.5,-0.5"/>
                </g>
               <g id="resetDef">
                       <use xlink:href="#rim2" fill="#404040">
                               <set attributeName="fill" to="#808080" begin="reset.mouseover" end="reset.mouseout"/>
                       </use>
               </g>
        </defs>

<script type="text/javascript">
var viewWidth = 1496;
var viewHeight = 726;
var sectionId = 'dynsection-0';
</script>
<script xlink:href="svgpan.js"/>
<svg id="graph" class="graph">
<g id="viewport">
<title>G</title>
<!-- Node1 -->
<g id="node1" class="node"><title>Node1</title>
<polygon fill="#bfbfbf" stroke="black" points="1336,-696.5 1336,-717.5 1488,-717.5 1488,-696.5 1336,-696.5"/>
<text text-anchor="middle" x="1412" y="-704.5" font-family="FreeSans.ttf" font-size="10.00">core/filters/filtersCollection.h</text>
</g>
<!-- Node2 -->
<g id="node3" class="node"><title>Node2</title>
<a xlink:href="filterBlock_8h.html" target="_top" xlink:title="filterBlock.h">
<polygon fill="none" stroke="black" points="887,-638.5 887,-659.5 959,-659.5 959,-638.5 887,-638.5"/>
<text text-anchor="middle" x="923" y="-646.5" font-family="FreeSans.ttf" font-size="10.00">filterBlock.h</text>
</a>
</g>
<!-- Node1&#45;&gt;Node2 -->
<g id="edge2" class="edge"><title>Node1&#45;&gt;Node2</title>
<path fill="none" stroke="midnightblue" d="M1335.86,-697.969C1233.17,-685.789 1053.46,-664.473 969.14,-654.473"/>
<polygon fill="midnightblue" stroke="midnightblue" points="969.443,-650.984 959.101,-653.282 968.619,-657.935 969.443,-650.984"/>
</g>
<!-- Node36 -->
<g id="node104" class="node"><title>Node36</title>
<a xlink:href="tinyxml2_8h.html" target="_top" xlink:title="tinyxml2.h">
<polygon fill="none" stroke="black" points="1082,-522.5 1082,-543.5 1148,-543.5 1148,-522.5 1082,-522.5"/>
<text text-anchor="middle" x="1115" y="-530.5" font-family="FreeSans.ttf" font-size="10.00">tinyxml2.h</text>
</a>
</g>
<!-- Node1&#45;&gt;Node36 -->
<g id="edge152" class="edge"><title>Node1&#45;&gt;Node36</title>
<path fill="none" stroke="midnightblue" d="M1393.87,-696.377C1343.54,-666.891 1201.89,-583.905 1142.13,-548.896"/>
<polygon fill="midnightblue" stroke="midnightblue" points="1143.67,-545.74 1133.27,-543.705 1140.13,-551.78 1143.67,-545.74"/>
</g>
<!-- Node44 -->
<g id="node121" class="node"><title>Node44</title>
<polygon fill="none" stroke="#bfbfbf" points="1440,-638.5 1440,-659.5 1472,-659.5 1472,-638.5 1440,-638.5"/>
<text text-anchor="middle" x="1456" y="-646.5" font-family="FreeSans.ttf" font-size="10.00">set</text>
</g>
<!-- Node1&#45;&gt;Node44 -->
<g id="edge154" class="edge"><title>Node1&#45;&gt;Node44</title>
<path fill="none" stroke="midnightblue" d="M1420.07,-696.362C1426.15,-688.35 1434.64,-677.161 1441.84,-667.67"/>
<polygon fill="midnightblue" stroke="midnightblue" points="1444.73,-669.653 1447.98,-659.571 1439.15,-665.422 1444.73,-669.653"/>
</g>
<!-- Node3 -->
<g id="node5" class="node"><title>Node3</title>
<polygon fill="none" stroke="#bfbfbf" points="1345.5,-58.5 1345.5,-79.5 1392.5,-79.5 1392.5,-58.5 1345.5,-58.5"/>
<text text-anchor="middle" x="1369" y="-66.5" font-family="FreeSans.ttf" font-size="10.00">vector</text>
</g>
<!-- Node2&#45;&gt;Node3 -->
<g id="edge4" class="edge"><title>Node2&#45;&gt;Node3</title>
<path fill="none" stroke="midnightblue" d="M959.068,-646.65C1038.23,-641.114 1224.76,-625.892 1283,-602 1329.96,-582.736 1374,-583.756 1374,-533 1374,-533 1374,-533 1374,-185 1374,-151.567 1371.9,-112.763 1370.42,-89.5824"/>
<polygon fill="midnightblue" stroke="midnightblue" points="1373.91,-89.2966 1369.76,-79.5495 1366.93,-89.7588 1373.91,-89.2966"/>
</g>
<!-- Node4 -->
<g id="node7" class="node"><title>Node4</title>
<polygon fill="none" stroke="#bfbfbf" points="968,-580.5 968,-601.5 1030,-601.5 1030,-580.5 968,-580.5"/>
<text text-anchor="middle" x="999" y="-588.5" font-family="FreeSans.ttf" font-size="10.00">algorithm</text>
</g>
<!-- Node2&#45;&gt;Node4 -->
<g id="edge6" class="edge"><title>Node2&#45;&gt;Node4</title>
<path fill="none" stroke="midnightblue" d="M936.94,-638.362C948.188,-629.777 964.216,-617.546 977.165,-607.664"/>
<polygon fill="midnightblue" stroke="midnightblue" points="979.323,-610.42 985.149,-601.571 975.076,-604.855 979.323,-610.42"/>
</g>
<!-- Node5 -->
<g id="node9" class="node"><title>Node5</title>
<polygon fill="none" stroke="#bfbfbf" points="1271.5,-58.5 1271.5,-79.5 1324.5,-79.5 1324.5,-58.5 1271.5,-58.5"/>
<text text-anchor="middle" x="1298" y="-66.5" font-family="FreeSans.ttf" font-size="10.00">string.h</text>
</g>
<!-- Node2&#45;&gt;Node5 -->
<g id="edge8" class="edge"><title>Node2&#45;&gt;Node5</title>
<path fill="none" stroke="midnightblue" d="M959.289,-646.603C1060.07,-638.961 1336,-610.92 1336,-533 1336,-533 1336,-533 1336,-185 1336,-149.741 1319.95,-111.315 1308.71,-88.7323"/>
<polygon fill="midnightblue" stroke="midnightblue" points="1311.8,-87.0901 1304.11,-79.809 1305.58,-90.3005 1311.8,-87.0901"/>
</g>
<!-- Node6 -->
<g id="node11" class="node"><title>Node6</title>
<polygon fill="none" stroke="#bfbfbf" points="0,-580.5 0,-601.5 56,-601.5 56,-580.5 0,-580.5"/>
<text text-anchor="middle" x="28" y="-588.5" font-family="FreeSans.ttf" font-size="10.00">sstream</text>
</g>
<!-- Node2&#45;&gt;Node6 -->
<g id="edge10" class="edge"><title>Node2&#45;&gt;Node6</title>
<path fill="none" stroke="midnightblue" d="M886.701,-647.973C745.293,-643.822 231.175,-627.283 70,-602 68.7434,-601.803 67.47,-601.584 66.1874,-601.347"/>
<polygon fill="midnightblue" stroke="midnightblue" points="66.8133,-597.902 56.303,-599.238 65.3525,-604.748 66.8133,-597.902"/>
</g>
<!-- Node7 -->
<g id="node13" class="node"><title>Node7</title>
<a xlink:href="global_8h.html" target="_top" xlink:title="This file holds the global includes, mostly for debuging, tracing and profiling.">
<polygon fill="none" stroke="black" points="209,-58.5 209,-79.5 263,-79.5 263,-58.5 209,-58.5"/>
<text text-anchor="middle" x="236" y="-66.5" font-family="FreeSans.ttf" font-size="10.00">global.h</text>
</a>
</g>
<!-- Node2&#45;&gt;Node7 -->
<g id="edge12" class="edge"><title>Node2&#45;&gt;Node7</title>
<path fill="none" stroke="midnightblue" d="M886.949,-647.876C726.359,-642.399 84,-615.345 84,-533 84,-533 84,-533 84,-185 84,-127.289 154.1,-94.4642 199.09,-79.3404"/>
<polygon fill="midnightblue" stroke="midnightblue" points="200.377,-82.6031 208.825,-76.2096 198.234,-75.9392 200.377,-82.6031"/>
</g>
<!-- Node9 -->
<g id="node17" class="node"><title>Node9</title>
<a xlink:href="reflection_8h.html" target="_top" xlink:title="a header for Reflection.c">
<polygon fill="none" stroke="black" points="888,-116.5 888,-137.5 958,-137.5 958,-116.5 888,-116.5"/>
<text text-anchor="middle" x="923" y="-124.5" font-family="FreeSans.ttf" font-size="10.00">reflection.h</text>
</a>
</g>
<!-- Node2&#45;&gt;Node9 -->
<g id="edge16" class="edge"><title>Node2&#45;&gt;Node9</title>
<path fill="none" stroke="midnightblue" d="M912.799,-638.237C904.744,-629.203 893.769,-615.623 887,-602 872.846,-573.515 868,-564.808 868,-533 868,-533 868,-533 868,-301 868,-242.681 896.437,-178.266 912.416,-146.675"/>
<polygon fill="midnightblue" stroke="midnightblue" points="915.615,-148.109 917.114,-137.621 909.401,-144.885 915.615,-148.109"/>
</g>
<!-- Node14 -->
<g id="node30" class="node"><title>Node14</title>
<a xlink:href="pins_8h.html" target="_top" xlink:title="TODO.">
<polygon fill="none" stroke="black" points="795.5,-580.5 795.5,-601.5 840.5,-601.5 840.5,-580.5 795.5,-580.5"/>
<text text-anchor="middle" x="818" y="-588.5" font-family="FreeSans.ttf" font-size="10.00">pins.h</text>
</a>
</g>
<!-- Node2&#45;&gt;Node14 -->
<g id="edge32" class="edge"><title>Node2&#45;&gt;Node14</title>
<path fill="none" stroke="midnightblue" d="M903.741,-638.362C887.534,-629.409 864.147,-616.491 845.891,-606.406"/>
<polygon fill="midnightblue" stroke="midnightblue" points="847.582,-603.342 837.137,-601.571 844.198,-609.47 847.582,-603.342"/>
</g>
<!-- Node43 -->
<g id="node118" class="node"><title>Node43</title>
<polygon fill="none" stroke="#bfbfbf" points="895.5,-580.5 895.5,-601.5 950.5,-601.5 950.5,-580.5 895.5,-580.5"/>
<text text-anchor="middle" x="923" y="-588.5" font-family="FreeSans.ttf" font-size="10.00">typeinfo</text>
</g>
<!-- Node2&#45;&gt;Node43 -->
<g id="edge150" class="edge"><title>Node2&#45;&gt;Node43</title>
<path fill="none" stroke="midnightblue" d="M923,-638.362C923,-630.922 923,-620.743 923,-611.728"/>
<polygon fill="midnightblue" stroke="midnightblue" points="926.5,-611.571 923,-601.571 919.5,-611.571 926.5,-611.571"/>
</g>
<!-- Node8 -->
<g id="node15" class="node"><title>Node8</title>
<polygon fill="none" stroke="#bfbfbf" points="204,-0.5 204,-21.5 268,-21.5 268,-0.5 204,-0.5"/>
<text text-anchor="middle" x="236" y="-8.5" font-family="FreeSans.ttf" font-size="10.00">inttypes.h</text>
</g>
<!-- Node7&#45;&gt;Node8 -->
<g id="edge14" class="edge"><title>Node7&#45;&gt;Node8</title>
<path fill="none" stroke="midnightblue" d="M236,-58.3619C236,-50.9219 236,-40.7427 236,-31.7276"/>
<polygon fill="midnightblue" stroke="midnightblue" points="239.5,-31.5706 236,-21.5707 232.5,-31.5707 239.5,-31.5706"/>
</g>
<!-- Node9&#45;&gt;Node3 -->
<g id="edge18" class="edge"><title>Node9&#45;&gt;Node3</title>
<path fill="none" stroke="midnightblue" d="M958.171,-125.135C1029.5,-120.878 1196.05,-108.524 1333,-80 1333.74,-79.8451 1334.49,-79.6816 1335.25,-79.5105"/>
<polygon fill="midnightblue" stroke="midnightblue" points="1336.34,-82.8439 1345.15,-76.9535 1334.59,-76.0664 1336.34,-82.8439"/>
</g>
<!-- Node9&#45;&gt;Node5 -->
<g id="edge22" class="edge"><title>Node9&#45;&gt;Node5</title>
<path fill="none" stroke="midnightblue" d="M958.279,-121.544C1029.36,-110.55 1189.14,-85.8375 1261.34,-74.6696"/>
<polygon fill="midnightblue" stroke="midnightblue" points="1261.99,-78.1109 1271.34,-73.1235 1260.92,-71.1932 1261.99,-78.1109"/>
</g>
<!-- Node9&#45;&gt;Node7 -->
<g id="edge30" class="edge"><title>Node9&#45;&gt;Node7</title>
<path fill="none" stroke="midnightblue" d="M887.567,-117.586C884.681,-116.989 881.799,-116.449 879,-116 650.805,-79.4148 372.426,-71.2706 273.26,-69.4887"/>
<polygon fill="midnightblue" stroke="midnightblue" points="273.203,-65.9874 263.145,-69.3182 273.085,-72.9864 273.203,-65.9874"/>
</g>
<!-- Node10 -->
<g id="node20" class="node"><title>Node10</title>
<polygon fill="none" stroke="#bfbfbf" points="812,-58.5 812,-79.5 856,-79.5 856,-58.5 812,-58.5"/>
<text text-anchor="middle" x="834" y="-66.5" font-family="FreeSans.ttf" font-size="10.00">string</text>
</g>
<!-- Node9&#45;&gt;Node10 -->
<g id="edge20" class="edge"><title>Node9&#45;&gt;Node10</title>
<path fill="none" stroke="midnightblue" d="M906.676,-116.362C893.252,-107.614 874.017,-95.0786 858.707,-85.1015"/>
<polygon fill="midnightblue" stroke="midnightblue" points="860.509,-82.0982 850.22,-79.5707 856.688,-87.9628 860.509,-82.0982"/>
</g>
<!-- Node11 -->
<g id="node23" class="node"><title>Node11</title>
<polygon fill="none" stroke="#bfbfbf" points="968.5,-58.5 968.5,-79.5 1017.5,-79.5 1017.5,-58.5 968.5,-58.5"/>
<text text-anchor="middle" x="993" y="-66.5" font-family="FreeSans.ttf" font-size="10.00">stdio.h</text>
</g>
<!-- Node9&#45;&gt;Node11 -->
<g id="edge24" class="edge"><title>Node9&#45;&gt;Node11</title>
<path fill="none" stroke="midnightblue" d="M935.839,-116.362C946.002,-107.941 960.401,-96.0105 972.204,-86.2308"/>
<polygon fill="midnightblue" stroke="midnightblue" points="974.775,-88.6459 980.242,-79.5707 970.309,-83.2558 974.775,-88.6459"/>
</g>
<!-- Node12 -->
<g id="node25" class="node"><title>Node12</title>
<polygon fill="none" stroke="#bfbfbf" points="727.5,-58.5 727.5,-79.5 780.5,-79.5 780.5,-58.5 727.5,-58.5"/>
<text text-anchor="middle" x="754" y="-66.5" font-family="FreeSans.ttf" font-size="10.00">stdint.h</text>
</g>
<!-- Node9&#45;&gt;Node12 -->
<g id="edge26" class="edge"><title>Node9&#45;&gt;Node12</title>
<path fill="none" stroke="midnightblue" d="M892.395,-116.497C863.767,-106.671 820.972,-91.9846 790.56,-81.5471"/>
<polygon fill="midnightblue" stroke="midnightblue" points="791.354,-78.1192 780.759,-78.1835 789.081,-84.7402 791.354,-78.1192"/>
</g>
<!-- Node13 -->
<g id="node27" class="node"><title>Node13</title>
<polygon fill="none" stroke="#bfbfbf" points="888,-58.5 888,-79.5 944,-79.5 944,-58.5 888,-58.5"/>
<text text-anchor="middle" x="916" y="-66.5" font-family="FreeSans.ttf" font-size="10.00">stdarg.h</text>
</g>
<!-- Node9&#45;&gt;Node13 -->
<g id="edge28" class="edge"><title>Node9&#45;&gt;Node13</title>
<path fill="none" stroke="midnightblue" d="M921.716,-116.362C920.818,-108.922 919.59,-98.7427 918.502,-89.7276"/>
<polygon fill="midnightblue" stroke="midnightblue" points="921.949,-89.0792 917.276,-79.5707 914.999,-89.918 921.949,-89.0792"/>
</g>
<!-- Node15 -->
<g id="node32" class="node"><title>Node15</title>
<a xlink:href="g12Buffer_8h.html" target="_top" xlink:title="This file holds the class description for 12 bit grayscale buffer.">
<polygon fill="none" stroke="black" points="472.5,-522.5 472.5,-543.5 543.5,-543.5 543.5,-522.5 472.5,-522.5"/>
<text text-anchor="middle" x="508" y="-530.5" font-family="FreeSans.ttf" font-size="10.00">g12Buffer.h</text>
</a>
</g>
<!-- Node14&#45;&gt;Node15 -->
<g id="edge34" class="edge"><title>Node14&#45;&gt;Node15</title>
<path fill="none" stroke="midnightblue" d="M795.456,-586.782C744.765,-577.298 620.967,-554.136 553.556,-541.523"/>
<polygon fill="midnightblue" stroke="midnightblue" points="554.111,-538.067 543.638,-539.668 552.824,-544.947 554.111,-538.067"/>
</g>
<!-- Node14&#45;&gt;Node36 -->
<g id="edge136" class="edge"><title>Node14&#45;&gt;Node36</title>
<path fill="none" stroke="midnightblue" d="M840.812,-586.545C890.221,-576.896 1007.82,-553.931 1071.78,-541.441"/>
<polygon fill="midnightblue" stroke="midnightblue" points="1072.79,-544.808 1081.94,-539.457 1071.45,-537.938 1072.79,-544.808"/>
</g>
<!-- Node15&#45;&gt;Node7 -->
<g id="edge38" class="edge"><title>Node15&#45;&gt;Node7</title>
<path fill="none" stroke="midnightblue" d="M472.378,-529.97C376.82,-520.868 122,-489.774 122,-417 122,-417 122,-417 122,-185 122,-138.026 170.141,-103.117 203.856,-84.4297"/>
<polygon fill="midnightblue" stroke="midnightblue" points="205.752,-87.385 212.93,-79.5923 202.459,-81.2078 205.752,-87.385"/>
</g>
<!-- Node16 -->
<g id="node34" class="node"><title>Node16</title>
<polygon fill="none" stroke="#bfbfbf" points="1192.5,-116.5 1192.5,-137.5 1251.5,-137.5 1251.5,-116.5 1192.5,-116.5"/>
<text text-anchor="middle" x="1222" y="-124.5" font-family="FreeSans.ttf" font-size="10.00">iostream</text>
</g>
<!-- Node15&#45;&gt;Node16 -->
<g id="edge36" class="edge"><title>Node15&#45;&gt;Node16</title>
<path fill="none" stroke="midnightblue" d="M543.683,-527.194C662.376,-507.797 1039.39,-445.478 1092,-428 1146.7,-409.826 1167.82,-411.324 1208,-370 1269.35,-306.914 1248.69,-261.075 1236,-174 1234.69,-164.996 1232.03,-155.318 1229.38,-147.099"/>
<polygon fill="midnightblue" stroke="midnightblue" points="1232.69,-145.95 1226.13,-137.628 1226.07,-148.222 1232.69,-145.95"/>
</g>
<!-- Node17 -->
<g id="node37" class="node"><title>Node17</title>
<a xlink:href="abstractBuffer_8h.html" target="_top" xlink:title="a header for AbstractBuffer.cpp">
<polygon fill="none" stroke="black" points="503.5,-348.5 503.5,-369.5 596.5,-369.5 596.5,-348.5 503.5,-348.5"/>
<text text-anchor="middle" x="550" y="-356.5" font-family="FreeSans.ttf" font-size="10.00">abstractBuffer.h</text>
</a>
</g>
<!-- Node15&#45;&gt;Node17 -->
<g id="edge40" class="edge"><title>Node15&#45;&gt;Node17</title>
<path fill="none" stroke="midnightblue" d="M514.481,-522.191C519.749,-512.911 526.95,-499.011 531,-486 542.314,-449.657 546.988,-405.301 548.846,-379.786"/>
<polygon fill="midnightblue" stroke="midnightblue" points="552.34,-379.99 549.499,-369.783 545.355,-379.534 552.34,-379.99"/>
</g>
<!-- Node31 -->
<g id="node82" class="node"><title>Node31</title>
<a xlink:href="abstractContiniousBuffer_8h.html" target="_top" xlink:title="a header for AbstractContiniousBuffer.c">
<polygon fill="none" stroke="black" points="149.5,-406.5 149.5,-427.5 292.5,-427.5 292.5,-406.5 149.5,-406.5"/>
<text text-anchor="middle" x="221" y="-414.5" font-family="FreeSans.ttf" font-size="10.00">abstractContiniousBuffer.h</text>
</a>
</g>
<!-- Node15&#45;&gt;Node31 -->
<g id="edge102" class="edge"><title>Node15&#45;&gt;Node31</title>
<path fill="none" stroke="midnightblue" d="M481.77,-522.398C430.1,-501.514 315.1,-455.033 256.623,-431.398"/>
<polygon fill="midnightblue" stroke="midnightblue" points="257.648,-428.038 247.065,-427.535 255.025,-434.527 257.648,-428.038"/>
</g>
<!-- Node33 -->
<g id="node88" class="node"><title>Node33</title>
<a xlink:href="fixedPointDisplace_8h.html" target="_top" xlink:title="A header for fixedPointDisplace.c.">
<polygon fill="none" stroke="black" points="409.5,-464.5 409.5,-485.5 522.5,-485.5 522.5,-464.5 409.5,-464.5"/>
<text text-anchor="middle" x="466" y="-472.5" font-family="FreeSans.ttf" font-size="10.00">fixedPointDisplace.h</text>
</a>
</g>
<!-- Node15&#45;&gt;Node33 -->
<g id="edge110" class="edge"><title>Node15&#45;&gt;Node33</title>
<path fill="none" stroke="midnightblue" d="M500.297,-522.362C494.554,-514.431 486.557,-503.389 479.73,-493.961"/>
<polygon fill="midnightblue" stroke="midnightblue" points="482.355,-491.617 473.655,-485.571 476.685,-495.723 482.355,-491.617"/>
</g>
<!-- Node17&#45;&gt;Node7 -->
<g id="edge52" class="edge"><title>Node17&#45;&gt;Node7</title>
<path fill="none" stroke="midnightblue" d="M503.33,-351.746C415.859,-336.825 236,-299.299 236,-243 236,-243 236,-243 236,-185 236,-151.598 236,-112.785 236,-89.5939"/>
<polygon fill="midnightblue" stroke="midnightblue" points="239.5,-89.5561 236,-79.5561 232.5,-89.5561 239.5,-89.5561"/>
</g>
<!-- Node17&#45;&gt;Node10 -->
<g id="edge48" class="edge"><title>Node17&#45;&gt;Node10</title>
<path fill="none" stroke="midnightblue" d="M555.47,-348.234C577.273,-305.684 658.877,-149.914 702,-116 717.812,-103.564 768.289,-87.5797 802.039,-77.8222"/>
<polygon fill="midnightblue" stroke="midnightblue" points="803.263,-81.1129 811.92,-75.0048 801.343,-74.3812 803.263,-81.1129"/>
</g>
<!-- Node17&#45;&gt;Node11 -->
<g id="edge44" class="edge"><title>Node17&#45;&gt;Node11</title>
<path fill="none" stroke="midnightblue" d="M596.618,-355.375C669.386,-349.104 806.085,-334.682 849,-312 911.546,-278.943 923.365,-257.687 958,-196 977.312,-161.604 986.489,-115.908 990.421,-89.7512"/>
<polygon fill="midnightblue" stroke="midnightblue" points="993.933,-89.9083 991.838,-79.5226 986.999,-88.9476 993.933,-89.9083"/>
</g>
<!-- Node17&#45;&gt;Node12 -->
<g id="edge42" class="edge"><title>Node17&#45;&gt;Node12</title>
<path fill="none" stroke="midnightblue" d="M550.156,-348.379C551.277,-311.182 560.001,-185.3 626,-116 650.064,-90.7321 688.852,-78.9802 717.43,-73.5566"/>
<polygon fill="midnightblue" stroke="midnightblue" points="718.189,-76.9774 727.451,-71.8315 717.002,-70.0789 718.189,-76.9774"/>
</g>
<!-- Node17&#45;&gt;Node13 -->
<g id="edge46" class="edge"><title>Node17&#45;&gt;Node13</title>
<path fill="none" stroke="midnightblue" d="M596.079,-348.479C630.943,-339.586 674.831,-326.077 687,-312 710.658,-284.633 685.622,-264.256 702,-232 734.028,-168.92 753.368,-157.03 811,-116 831.507,-101.401 857.273,-89.7844 878.148,-81.7525"/>
<polygon fill="midnightblue" stroke="midnightblue" points="879.51,-84.9802 887.659,-78.2086 877.066,-78.4209 879.51,-84.9802"/>
</g>
<!-- Node18 -->
<g id="node43" class="node"><title>Node18</title>
<polygon fill="none" stroke="#bfbfbf" points="615.5,-290.5 615.5,-311.5 678.5,-311.5 678.5,-290.5 615.5,-290.5"/>
<text text-anchor="middle" x="647" y="-298.5" font-family="FreeSans.ttf" font-size="10.00">functional</text>
</g>
<!-- Node17&#45;&gt;Node18 -->
<g id="edge50" class="edge"><title>Node17&#45;&gt;Node18</title>
<path fill="none" stroke="midnightblue" d="M567.791,-348.362C582.559,-339.532 603.778,-326.844 620.538,-316.822"/>
<polygon fill="midnightblue" stroke="midnightblue" points="622.535,-319.707 629.321,-311.571 618.943,-313.699 622.535,-319.707"/>
</g>
<!-- Node19 -->
<g id="node46" class="node"><title>Node19</title>
<a xlink:href="vector2d_8h.html" target="_top" xlink:title="Add Comment Here.">
<polygon fill="none" stroke="black" points="772,-290.5 772,-311.5 840,-311.5 840,-290.5 772,-290.5"/>
<text text-anchor="middle" x="806" y="-298.5" font-family="FreeSans.ttf" font-size="10.00">vector2d.h</text>
</a>
</g>
<!-- Node17&#45;&gt;Node19 -->
<g id="edge54" class="edge"><title>Node17&#45;&gt;Node19</title>
<path fill="none" stroke="midnightblue" d="M596.36,-348.497C643.378,-337.844 715.62,-321.477 761.834,-311.006"/>
<polygon fill="midnightblue" stroke="midnightblue" points="762.872,-314.36 771.851,-308.737 761.325,-307.533 762.872,-314.36"/>
</g>
<!-- Node24 -->
<g id="node63" class="node"><title>Node24</title>
<a xlink:href="memoryBlock_8h.html" target="_top" xlink:title="Add Comment Here.">
<polygon fill="none" stroke="black" points="322.5,-174.5 322.5,-195.5 457.5,-195.5 457.5,-174.5 322.5,-174.5"/>
<text text-anchor="middle" x="390" y="-182.5" font-family="FreeSans.ttf" font-size="10.00">memory/memoryBlock.h</text>
</a>
</g>
<!-- Node17&#45;&gt;Node24 -->
<g id="edge78" class="edge"><title>Node17&#45;&gt;Node24</title>
<path fill="none" stroke="midnightblue" d="M503.272,-350.956C462.685,-342.925 408.368,-329.3 395,-312 371.284,-281.308 377.78,-232.887 384.179,-205.554"/>
<polygon fill="midnightblue" stroke="midnightblue" points="387.648,-206.115 386.74,-195.56 380.867,-204.378 387.648,-206.115"/>
</g>
<!-- Node28 -->
<g id="node73" class="node"><title>Node28</title>
<a xlink:href="tbbWrapper_8h.html" target="_top" xlink:title="This is a class that provides common TBB interface.">
<polygon fill="none" stroke="black" points="404,-290.5 404,-311.5 484,-311.5 484,-290.5 404,-290.5"/>
<text text-anchor="middle" x="444" y="-298.5" font-family="FreeSans.ttf" font-size="10.00">tbbWrapper.h</text>
</a>
</g>
<!-- Node17&#45;&gt;Node28 -->
<g id="edge90" class="edge"><title>Node17&#45;&gt;Node28</title>
<path fill="none" stroke="midnightblue" d="M530.558,-348.362C514.196,-339.409 490.587,-326.491 472.157,-316.406"/>
<polygon fill="midnightblue" stroke="midnightblue" points="473.771,-313.3 463.319,-311.571 470.411,-319.441 473.771,-313.3"/>
</g>
<!-- Node30 -->
<g id="node77" class="node"><title>Node30</title>
<a xlink:href="mathUtils_8h.html" target="_top" xlink:title="Add Comment Here.">
<polygon fill="none" stroke="black" points="489,-174.5 489,-195.5 561,-195.5 561,-174.5 489,-174.5"/>
<text text-anchor="middle" x="525" y="-182.5" font-family="FreeSans.ttf" font-size="10.00">mathUtils.h</text>
</a>
</g>
<!-- Node17&#45;&gt;Node30 -->
<g id="edge94" class="edge"><title>Node17&#45;&gt;Node30</title>
<path fill="none" stroke="midnightblue" d="M546.143,-348.327C542.9,-338.899 538.418,-324.713 536,-312 528.972,-275.046 526.427,-231.179 525.511,-205.868"/>
<polygon fill="midnightblue" stroke="midnightblue" points="529.002,-205.523 525.194,-195.636 522.005,-205.74 529.002,-205.523"/>
</g>
<!-- Node19&#45;&gt;Node7 -->
<g id="edge60" class="edge"><title>Node19&#45;&gt;Node7</title>
<path fill="none" stroke="midnightblue" d="M796.069,-290.336C765.076,-257.813 665.98,-159.467 562,-116 510.458,-94.4536 347.685,-78.4181 273.5,-72.0328"/>
<polygon fill="midnightblue" stroke="midnightblue" points="273.481,-68.5187 263.221,-71.1612 272.89,-75.4937 273.481,-68.5187"/>
</g>
<!-- Node19&#45;&gt;Node12 -->
<g id="edge58" class="edge"><title>Node19&#45;&gt;Node12</title>
<path fill="none" stroke="midnightblue" d="M804.173,-290.497C799.174,-262.157 784.532,-181.828 768,-116 765.808,-107.273 763.04,-97.7408 760.545,-89.5561"/>
<polygon fill="midnightblue" stroke="midnightblue" points="763.808,-88.2614 757.494,-79.7536 757.124,-90.342 763.808,-88.2614"/>
</g>
<!-- Node20 -->
<g id="node48" class="node"><title>Node20</title>
<polygon fill="none" stroke="#bfbfbf" points="819.5,-116.5 819.5,-137.5 870.5,-137.5 870.5,-116.5 819.5,-116.5"/>
<text text-anchor="middle" x="845" y="-124.5" font-family="FreeSans.ttf" font-size="10.00">math.h</text>
</g>
<!-- Node19&#45;&gt;Node20 -->
<g id="edge56" class="edge"><title>Node19&#45;&gt;Node20</title>
<path fill="none" stroke="midnightblue" d="M808.381,-290.377C814.703,-262.172 831.997,-185.012 840.356,-147.72"/>
<polygon fill="midnightblue" stroke="midnightblue" points="843.779,-148.451 842.551,-137.928 836.948,-146.92 843.779,-148.451"/>
</g>
<!-- Node21 -->
<g id="node52" class="node"><title>Node21</title>
<a xlink:href="fixedVector_8h.html" target="_top" xlink:title="This file holds the description of the commonly used template &#45; a vector with the fixed number of com...">
<polygon fill="none" stroke="black" points="1010,-232.5 1010,-253.5 1088,-253.5 1088,-232.5 1010,-232.5"/>
<text text-anchor="middle" x="1049" y="-240.5" font-family="FreeSans.ttf" font-size="10.00">fixedVector.h</text>
</a>
</g>
<!-- Node19&#45;&gt;Node21 -->
<g id="edge62" class="edge"><title>Node19&#45;&gt;Node21</title>
<path fill="none" stroke="midnightblue" d="M840.044,-292.874C881.749,-282.92 952.7,-265.985 1000.2,-254.647"/>
<polygon fill="midnightblue" stroke="midnightblue" points="1001.05,-258.044 1009.96,-252.317 999.424,-251.235 1001.05,-258.044"/>
</g>
<!-- Node21&#45;&gt;Node11 -->
<g id="edge64" class="edge"><title>Node21&#45;&gt;Node11</title>
<path fill="none" stroke="midnightblue" d="M1045.58,-232.377C1036.5,-204.172 1011.67,-127.012 999.669,-89.7203"/>
<polygon fill="midnightblue" stroke="midnightblue" points="1002.91,-88.3746 996.517,-79.9277 996.249,-90.5192 1002.91,-88.3746"/>
</g>
<!-- Node22 -->
<g id="node55" class="node"><title>Node22</title>
<a xlink:href="vectorOperations_8h.html" target="_top" xlink:title="This file holds the operations that are commonly used with continuous linear data structures such as ...">
<polygon fill="none" stroke="black" points="1048,-174.5 1048,-195.5 1156,-195.5 1156,-174.5 1048,-174.5"/>
<text text-anchor="middle" x="1102" y="-182.5" font-family="FreeSans.ttf" font-size="10.00">vectorOperations.h</text>
</a>
</g>
<!-- Node21&#45;&gt;Node22 -->
<g id="edge66" class="edge"><title>Node21&#45;&gt;Node22</title>
<path fill="none" stroke="midnightblue" d="M1058.72,-232.362C1066.19,-224.186 1076.69,-212.702 1085.47,-203.091"/>
<polygon fill="midnightblue" stroke="midnightblue" points="1088.18,-205.314 1092.34,-195.571 1083.01,-200.592 1088.18,-205.314"/>
</g>
<!-- Node22&#45;&gt;Node9 -->
<g id="edge76" class="edge"><title>Node22&#45;&gt;Node9</title>
<path fill="none" stroke="midnightblue" d="M1069.58,-174.497C1040.28,-165 996.952,-150.962 964.999,-140.609"/>
<polygon fill="midnightblue" stroke="midnightblue" points="966.068,-137.276 955.476,-137.523 963.911,-143.935 966.068,-137.276"/>
</g>
<!-- Node22&#45;&gt;Node11 -->
<g id="edge72" class="edge"><title>Node22&#45;&gt;Node11</title>
<path fill="none" stroke="midnightblue" d="M1092.08,-174.194C1079.54,-160.569 1057.27,-136.452 1038,-116 1028.98,-106.432 1018.87,-95.8508 1010.51,-87.1543"/>
<polygon fill="midnightblue" stroke="midnightblue" points="1012.87,-84.5598 1003.42,-79.7809 1007.83,-89.4135 1012.87,-84.5598"/>
</g>
<!-- Node22&#45;&gt;Node16 -->
<g id="edge70" class="edge"><title>Node22&#45;&gt;Node16</title>
<path fill="none" stroke="midnightblue" d="M1123.73,-174.497C1142.47,-165.438 1169.77,-152.246 1190.84,-142.063"/>
<polygon fill="midnightblue" stroke="midnightblue" points="1192.54,-145.124 1200.03,-137.621 1189.5,-138.822 1192.54,-145.124"/>
</g>
<!-- Node22&#45;&gt;Node20 -->
<g id="edge74" class="edge"><title>Node22&#45;&gt;Node20</title>
<path fill="none" stroke="midnightblue" d="M1047.55,-175.184C1004.47,-167.041 942.636,-154.525 880.505,-138.227"/>
<polygon fill="midnightblue" stroke="midnightblue" points="881.097,-134.763 870.534,-135.579 879.301,-141.529 881.097,-134.763"/>
</g>
<!-- Node23 -->
<g id="node57" class="node"><title>Node23</title>
<polygon fill="none" stroke="#bfbfbf" points="1122,-116.5 1122,-137.5 1164,-137.5 1164,-116.5 1122,-116.5"/>
<text text-anchor="middle" x="1143" y="-124.5" font-family="FreeSans.ttf" font-size="10.00">limits</text>
</g>
<!-- Node22&#45;&gt;Node23 -->
<g id="edge68" class="edge"><title>Node22&#45;&gt;Node23</title>
<path fill="none" stroke="midnightblue" d="M1109.52,-174.362C1115.13,-166.431 1122.93,-155.389 1129.6,-145.961"/>
<polygon fill="midnightblue" stroke="midnightblue" points="1132.61,-147.757 1135.53,-137.571 1126.9,-143.716 1132.61,-147.757"/>
</g>
<!-- Node24&#45;&gt;Node7 -->
<g id="edge86" class="edge"><title>Node24&#45;&gt;Node7</title>
<path fill="none" stroke="midnightblue" d="M396.064,-174.486C403.61,-159.86 414.01,-133.233 401,-116 385.632,-95.643 316.975,-81.4878 273.21,-74.3477"/>
<polygon fill="midnightblue" stroke="midnightblue" points="273.628,-70.8705 263.205,-72.7662 272.535,-77.7847 273.628,-70.8705"/>
</g>
<!-- Node24&#45;&gt;Node12 -->
<g id="edge82" class="edge"><title>Node24&#45;&gt;Node12</title>
<path fill="none" stroke="midnightblue" d="M399.82,-174.361C414.835,-158.816 445.13,-130.206 477,-116 519.414,-97.0948 651.964,-80.3124 717.111,-72.9527"/>
<polygon fill="midnightblue" stroke="midnightblue" points="717.786,-76.3992 727.337,-71.8125 717.011,-69.4423 717.786,-76.3992"/>
</g>
<!-- Node25 -->
<g id="node65" class="node"><title>Node25</title>
<polygon fill="none" stroke="#bfbfbf" points="263.5,-116.5 263.5,-137.5 298.5,-137.5 298.5,-116.5 263.5,-116.5"/>
<text text-anchor="middle" x="281" y="-124.5" font-family="FreeSans.ttf" font-size="10.00">new</text>
</g>
<!-- Node24&#45;&gt;Node25 -->
<g id="edge80" class="edge"><title>Node24&#45;&gt;Node25</title>
<path fill="none" stroke="midnightblue" d="M370.261,-174.497C352.757,-165.183 327.043,-151.5 307.705,-141.21"/>
<polygon fill="midnightblue" stroke="midnightblue" points="309.26,-138.073 298.788,-136.465 305.972,-144.252 309.26,-138.073"/>
</g>
<!-- Node26 -->
<g id="node68" class="node"><title>Node26</title>
<polygon fill="none" stroke="#bfbfbf" points="485.5,-116.5 485.5,-137.5 536.5,-137.5 536.5,-116.5 485.5,-116.5"/>
<text text-anchor="middle" x="511" y="-124.5" font-family="FreeSans.ttf" font-size="10.00">stdlib.h</text>
</g>
<!-- Node24&#45;&gt;Node26 -->
<g id="edge84" class="edge"><title>Node24&#45;&gt;Node26</title>
<path fill="none" stroke="midnightblue" d="M411.912,-174.497C430.811,-165.438 458.331,-152.246 479.576,-142.063"/>
<polygon fill="midnightblue" stroke="midnightblue" points="481.337,-145.1 488.842,-137.621 478.311,-138.788 481.337,-145.1"/>
</g>
<!-- Node27 -->
<g id="node71" class="node"><title>Node27</title>
<a xlink:href="atomicOps_8h.html" target="_top" xlink:title="atomicOps.h">
<polygon fill="none" stroke="black" points="315.5,-116.5 315.5,-137.5 392.5,-137.5 392.5,-116.5 315.5,-116.5"/>
<text text-anchor="middle" x="354" y="-124.5" font-family="FreeSans.ttf" font-size="10.00">atomicOps.h</text>
</a>
</g>
<!-- Node24&#45;&gt;Node27 -->
<g id="edge88" class="edge"><title>Node24&#45;&gt;Node27</title>
<path fill="none" stroke="midnightblue" d="M383.397,-174.362C378.525,-166.513 371.762,-155.616 365.95,-146.253"/>
<polygon fill="midnightblue" stroke="midnightblue" points="368.809,-144.221 360.561,-137.571 362.861,-147.913 368.809,-144.221"/>
</g>
<!-- Node29 -->
<g id="node75" class="node"><title>Node29</title>
<polygon fill="none" stroke="#bfbfbf" points="418,-232.5 418,-253.5 470,-253.5 470,-232.5 418,-232.5"/>
<text text-anchor="middle" x="444" y="-240.5" font-family="FreeSans.ttf" font-size="10.00">cstddef</text>
</g>
<!-- Node28&#45;&gt;Node29 -->
<g id="edge92" class="edge"><title>Node28&#45;&gt;Node29</title>
<path fill="none" stroke="midnightblue" d="M444,-290.362C444,-282.922 444,-272.743 444,-263.728"/>
<polygon fill="midnightblue" stroke="midnightblue" points="447.5,-263.571 444,-253.571 440.5,-263.571 447.5,-263.571"/>
</g>
<!-- Node30&#45;&gt;Node7 -->
<g id="edge98" class="edge"><title>Node30&#45;&gt;Node7</title>
<path fill="none" stroke="midnightblue" d="M533.469,-174.376C544.148,-159.619 559.47,-132.837 545,-116 527.477,-95.6106 351.905,-78.6231 273.488,-71.9895"/>
<polygon fill="midnightblue" stroke="midnightblue" points="273.351,-68.466 263.094,-71.1229 272.769,-75.4418 273.351,-68.466"/>
</g>
<!-- Node30&#45;&gt;Node20 -->
<g id="edge96" class="edge"><title>Node30&#45;&gt;Node20</title>
<path fill="none" stroke="midnightblue" d="M561.086,-178.459C622.737,-167.285 747.633,-144.648 809.134,-133.501"/>
<polygon fill="midnightblue" stroke="midnightblue" points="809.931,-136.913 819.146,-131.686 808.683,-130.026 809.931,-136.913"/>
</g>
<!-- Node30&#45;&gt;Node26 -->
<g id="edge100" class="edge"><title>Node30&#45;&gt;Node26</title>
<path fill="none" stroke="midnightblue" d="M522.432,-174.362C520.617,-166.84 518.125,-156.519 515.932,-147.431"/>
<polygon fill="midnightblue" stroke="midnightblue" points="519.3,-146.47 513.552,-137.571 512.496,-148.113 519.3,-146.47"/>
</g>
<!-- Node31&#45;&gt;Node7 -->
<g id="edge104" class="edge"><title>Node31&#45;&gt;Node7</title>
<path fill="none" stroke="midnightblue" d="M210.927,-406.465C193.601,-387.189 160,-344.232 160,-301 160,-301 160,-301 160,-185 160,-152.531 166.063,-143.064 184,-116 191.563,-104.589 202.521,-94.1303 212.43,-85.991"/>
<polygon fill="midnightblue" stroke="midnightblue" points="214.702,-88.6565 220.408,-79.7294 210.381,-83.1497 214.702,-88.6565"/>
</g>
<!-- Node31&#45;&gt;Node17 -->
<g id="edge106" class="edge"><title>Node31&#45;&gt;Node17</title>
<path fill="none" stroke="midnightblue" d="M280.579,-406.497C341.058,-395.835 434.01,-379.448 493.396,-368.979"/>
<polygon fill="midnightblue" stroke="midnightblue" points="494.112,-372.407 503.353,-367.224 492.897,-365.513 494.112,-372.407"/>
</g>
<!-- Node32 -->
<g id="node86" class="node"><title>Node32</title>
<polygon fill="none" stroke="#bfbfbf" points="193,-348.5 193,-369.5 249,-369.5 249,-348.5 193,-348.5"/>
<text text-anchor="middle" x="221" y="-356.5" font-family="FreeSans.ttf" font-size="10.00">matrix.h</text>
</g>
<!-- Node31&#45;&gt;Node32 -->
<g id="edge108" class="edge"><title>Node31&#45;&gt;Node32</title>
<path fill="none" stroke="midnightblue" d="M221,-406.362C221,-398.922 221,-388.743 221,-379.728"/>
<polygon fill="midnightblue" stroke="midnightblue" points="224.5,-379.571 221,-369.571 217.5,-379.571 224.5,-379.571"/>
</g>
<!-- Node33&#45;&gt;Node7 -->
<g id="edge114" class="edge"><title>Node33&#45;&gt;Node7</title>
<path fill="none" stroke="midnightblue" d="M448,-464.396C387.911,-428.381 198,-309.309 198,-243 198,-243 198,-243 198,-185 198,-149.741 214.051,-111.315 225.289,-88.7323"/>
<polygon fill="midnightblue" stroke="midnightblue" points="228.418,-90.3005 229.895,-79.809 222.198,-87.0901 228.418,-90.3005"/>
</g>
<!-- Node33&#45;&gt;Node12 -->
<g id="edge112" class="edge"><title>Node33&#45;&gt;Node12</title>
<path fill="none" stroke="midnightblue" d="M494.439,-464.382C545.85,-443.619 653.839,-392.509 707,-312 753.938,-240.915 756.364,-134.203 755.07,-89.6708"/>
<polygon fill="midnightblue" stroke="midnightblue" points="758.561,-89.3753 754.674,-79.5192 751.567,-89.648 758.561,-89.3753"/>
</g>
<!-- Node33&#45;&gt;Node31 -->
<g id="edge116" class="edge"><title>Node33&#45;&gt;Node31</title>
<path fill="none" stroke="midnightblue" d="M421.632,-464.497C380.567,-454.775 319.396,-440.294 275.401,-429.879"/>
<polygon fill="midnightblue" stroke="midnightblue" points="275.988,-426.421 265.451,-427.523 274.376,-433.233 275.988,-426.421"/>
</g>
<!-- Node34 -->
<g id="node93" class="node"><title>Node34</title>
<a xlink:href="matrix33_8h.html" target="_top" xlink:title="This file holds the header for the commonly used structure &#45; a 3 by 3 matrix.">
<polygon fill="none" stroke="black" points="1015,-406.5 1015,-427.5 1083,-427.5 1083,-406.5 1015,-406.5"/>
<text text-anchor="middle" x="1049" y="-414.5" font-family="FreeSans.ttf" font-size="10.00">matrix33.h</text>
</a>
</g>
<!-- Node33&#45;&gt;Node34 -->
<g id="edge118" class="edge"><title>Node33&#45;&gt;Node34</title>
<path fill="none" stroke="midnightblue" d="M522.696,-469.36C638.47,-457.842 899.933,-431.83 1004.53,-421.424"/>
<polygon fill="midnightblue" stroke="midnightblue" points="1005.13,-424.882 1014.74,-420.409 1004.44,-417.916 1005.13,-424.882"/>
</g>
<!-- Node34&#45;&gt;Node5 -->
<g id="edge126" class="edge"><title>Node34&#45;&gt;Node5</title>
<path fill="none" stroke="midnightblue" d="M1083.18,-413.478C1117.46,-408.526 1170.42,-396.876 1208,-370 1264.27,-329.756 1298,-312.181 1298,-243 1298,-243 1298,-243 1298,-185 1298,-151.598 1298,-112.785 1298,-89.5939"/>
<polygon fill="midnightblue" stroke="midnightblue" points="1301.5,-89.5561 1298,-79.5561 1294.5,-89.5561 1301.5,-89.5561"/>
</g>
<!-- Node34&#45;&gt;Node16 -->
<g id="edge120" class="edge"><title>Node34&#45;&gt;Node16</title>
<path fill="none" stroke="midnightblue" d="M1083.18,-410.225C1133.6,-398.017 1222,-367.176 1222,-301 1222,-301 1222,-301 1222,-243 1222,-209.598 1222,-170.785 1222,-147.594"/>
<polygon fill="midnightblue" stroke="midnightblue" points="1225.5,-147.556 1222,-137.556 1218.5,-147.556 1225.5,-147.556"/>
</g>
<!-- Node34&#45;&gt;Node20 -->
<g id="edge124" class="edge"><title>Node34&#45;&gt;Node20</title>
<path fill="none" stroke="midnightblue" d="M1041.71,-406.255C1018.48,-372.066 943.943,-262.835 880,-174 873.295,-164.685 865.703,-154.453 859.307,-145.92"/>
<polygon fill="midnightblue" stroke="midnightblue" points="861.972,-143.641 853.163,-137.754 856.378,-147.849 861.972,-143.641"/>
</g>
<!-- Node34&#45;&gt;Node21 -->
<g id="edge134" class="edge"><title>Node34&#45;&gt;Node21</title>
<path fill="none" stroke="midnightblue" d="M1049,-406.377C1049,-378.293 1049,-301.673 1049,-264.203"/>
<polygon fill="midnightblue" stroke="midnightblue" points="1052.5,-263.928 1049,-253.928 1045.5,-263.928 1052.5,-263.928"/>
</g>
<!-- Node34&#45;&gt;Node23 -->
<g id="edge122" class="edge"><title>Node34&#45;&gt;Node23</title>
<path fill="none" stroke="midnightblue" d="M1079.3,-406.44C1119.1,-390.405 1184,-355.85 1184,-301 1184,-301 1184,-301 1184,-243 1184,-207.462 1166.68,-169.12 1154.56,-146.63"/>
<polygon fill="midnightblue" stroke="midnightblue" points="1157.52,-144.766 1149.59,-137.747 1151.41,-148.183 1157.52,-144.766"/>
</g>
<!-- Node35 -->
<g id="node99" class="node"><title>Node35</title>
<a xlink:href="vector3d_8h.html" target="_top" xlink:title="A 3 component vector.">
<polygon fill="none" stroke="black" points="896,-348.5 896,-369.5 964,-369.5 964,-348.5 896,-348.5"/>
<text text-anchor="middle" x="930" y="-356.5" font-family="FreeSans.ttf" font-size="10.00">vector3d.h</text>
</a>
</g>
<!-- Node34&#45;&gt;Node35 -->
<g id="edge128" class="edge"><title>Node34&#45;&gt;Node35</title>
<path fill="none" stroke="midnightblue" d="M1027.45,-406.497C1008.86,-397.438 981.798,-384.246 960.905,-374.063"/>
<polygon fill="midnightblue" stroke="midnightblue" points="962.314,-370.856 951.792,-369.621 959.247,-377.149 962.314,-370.856"/>
</g>
<!-- Node35&#45;&gt;Node19 -->
<g id="edge132" class="edge"><title>Node35&#45;&gt;Node19</title>
<path fill="none" stroke="midnightblue" d="M907.545,-348.497C888.09,-339.397 859.72,-326.127 837.909,-315.925"/>
<polygon fill="midnightblue" stroke="midnightblue" points="839.248,-312.688 828.707,-311.621 836.283,-319.028 839.248,-312.688"/>
</g>
<!-- Node35&#45;&gt;Node20 -->
<g id="edge130" class="edge"><title>Node35&#45;&gt;Node20</title>
<path fill="none" stroke="midnightblue" d="M926.127,-348.429C912.962,-312.497 869.794,-194.674 852.381,-147.145"/>
<polygon fill="midnightblue" stroke="midnightblue" points="855.623,-145.819 848.896,-137.634 849.05,-148.227 855.623,-145.819"/>
</g>
<!-- Node37 -->
<g id="node106" class="node"><title>Node37</title>
<polygon fill="none" stroke="#bfbfbf" points="1260,-464.5 1260,-485.5 1308,-485.5 1308,-464.5 1260,-464.5"/>
<text text-anchor="middle" x="1284" y="-472.5" font-family="FreeSans.ttf" font-size="10.00">cctype</text>
</g>
<!-- Node36&#45;&gt;Node37 -->
<g id="edge138" class="edge"><title>Node36&#45;&gt;Node37</title>
<path fill="none" stroke="midnightblue" d="M1145.6,-522.497C1175.09,-512.378 1219.6,-497.103 1250.13,-486.624"/>
<polygon fill="midnightblue" stroke="midnightblue" points="1251.59,-489.825 1259.91,-483.268 1249.31,-483.204 1251.59,-489.825"/>
</g>
<!-- Node38 -->
<g id="node108" class="node"><title>Node38</title>
<polygon fill="none" stroke="#bfbfbf" points="933.5,-464.5 933.5,-485.5 980.5,-485.5 980.5,-464.5 933.5,-464.5"/>
<text text-anchor="middle" x="957" y="-472.5" font-family="FreeSans.ttf" font-size="10.00">climits</text>
</g>
<!-- Node36&#45;&gt;Node38 -->
<g id="edge140" class="edge"><title>Node36&#45;&gt;Node38</title>
<path fill="none" stroke="midnightblue" d="M1086.39,-522.497C1059.34,-512.568 1018.77,-497.675 990.287,-487.219"/>
<polygon fill="midnightblue" stroke="midnightblue" points="991.352,-483.882 980.758,-483.721 988.94,-490.453 991.352,-483.882"/>
</g>
<!-- Node39 -->
<g id="node110" class="node"><title>Node39</title>
<polygon fill="none" stroke="#bfbfbf" points="997.5,-464.5 997.5,-485.5 1042.5,-485.5 1042.5,-464.5 997.5,-464.5"/>
<text text-anchor="middle" x="1020" y="-472.5" font-family="FreeSans.ttf" font-size="10.00">cstdio</text>
</g>
<!-- Node36&#45;&gt;Node39 -->
<g id="edge142" class="edge"><title>Node36&#45;&gt;Node39</title>
<path fill="none" stroke="midnightblue" d="M1097.58,-522.362C1083.11,-513.532 1062.33,-500.844 1045.92,-490.822"/>
<polygon fill="midnightblue" stroke="midnightblue" points="1047.67,-487.794 1037.31,-485.571 1044.03,-493.769 1047.67,-487.794"/>
</g>
<!-- Node40 -->
<g id="node112" class="node"><title>Node40</title>
<polygon fill="none" stroke="#bfbfbf" points="1059.5,-464.5 1059.5,-485.5 1106.5,-485.5 1106.5,-464.5 1059.5,-464.5"/>
<text text-anchor="middle" x="1083" y="-472.5" font-family="FreeSans.ttf" font-size="10.00">cstdlib</text>
</g>
<!-- Node36&#45;&gt;Node40 -->
<g id="edge144" class="edge"><title>Node36&#45;&gt;Node40</title>
<path fill="none" stroke="midnightblue" d="M1109.13,-522.362C1104.85,-514.595 1098.91,-503.843 1093.78,-494.546"/>
<polygon fill="midnightblue" stroke="midnightblue" points="1096.73,-492.636 1088.83,-485.571 1090.6,-496.017 1096.73,-492.636"/>
</g>
<!-- Node41 -->
<g id="node114" class="node"><title>Node41</title>
<polygon fill="none" stroke="#bfbfbf" points="1123.5,-464.5 1123.5,-485.5 1172.5,-485.5 1172.5,-464.5 1123.5,-464.5"/>
<text text-anchor="middle" x="1148" y="-472.5" font-family="FreeSans.ttf" font-size="10.00">cstring</text>
</g>
<!-- Node36&#45;&gt;Node41 -->
<g id="edge146" class="edge"><title>Node36&#45;&gt;Node41</title>
<path fill="none" stroke="midnightblue" d="M1121.05,-522.362C1125.47,-514.595 1131.59,-503.843 1136.88,-494.546"/>
<polygon fill="midnightblue" stroke="midnightblue" points="1140.08,-495.993 1141.99,-485.571 1134,-492.531 1140.08,-495.993"/>
</g>
<!-- Node42 -->
<g id="node116" class="node"><title>Node42</title>
<polygon fill="none" stroke="#bfbfbf" points="1189.5,-464.5 1189.5,-485.5 1242.5,-485.5 1242.5,-464.5 1189.5,-464.5"/>
<text text-anchor="middle" x="1216" y="-472.5" font-family="FreeSans.ttf" font-size="10.00">cstdarg</text>
</g>
<!-- Node36&#45;&gt;Node42 -->
<g id="edge148" class="edge"><title>Node36&#45;&gt;Node42</title>
<path fill="none" stroke="midnightblue" d="M1133.52,-522.362C1148.9,-513.532 1171,-500.844 1188.45,-490.822"/>
<polygon fill="midnightblue" stroke="midnightblue" points="1190.66,-493.586 1197.59,-485.571 1187.18,-487.515 1190.66,-493.586"/>
</g>
</g>
</svg>
        <g id="navigator" transform="translate(0 0)" fill="#404254">
                <rect fill="#f2f5e9" fill-opacity="0.5" stroke="#606060" stroke-width=".5" x="0" y="0" width="60" height="60"/>
                <use id="zoomplus" xlink:href="#zoomPlus" x="17" y="9" onmousedown="handleZoom(evt,'in')"/>
                <use id="zoomminus" xlink:href="#zoomMin" x="42" y="9" onmousedown="handleZoom(evt,'out')"/>
                <use id="reset" xlink:href="#resetDef" x="30" y="36" onmousedown="handleReset()"/>
                <g id="arrowUp" xlink:href="#dirArrow" transform="translate(30 24)" onmousedown="handlePan(0,-1)">
                  <use xlink:href="#rim" fill="#404040">
                        <set attributeName="fill" to="#808080" begin="arrowUp.mouseover" end="arrowUp.mouseout"/>
                  </use>
                  <path fill="none" stroke="white" stroke-width="1.5" d="M0,-3.0v7 M-2.5,-0.5L0,-3.0L2.5,-0.5"/>
                </g>
                <g id="arrowRight" xlink:href="#dirArrow" transform="rotate(90) translate(36 -43)" onmousedown="handlePan(1,0)">
                  <use xlink:href="#rim" fill="#404040">
                        <set attributeName="fill" to="#808080" begin="arrowRight.mouseover" end="arrowRight.mouseout"/>
                  </use>
                  <path fill="none" stroke="white" stroke-width="1.5" d="M0,-3.0v7 M-2.5,-0.5L0,-3.0L2.5,-0.5"/>
                </g>
                <g id="arrowDown" xlink:href="#dirArrow" transform="rotate(180) translate(-30 -48)" onmousedown="handlePan(0,1)">
                  <use xlink:href="#rim" fill="#404040">
                        <set attributeName="fill" to="#808080" begin="arrowDown.mouseover" end="arrowDown.mouseout"/>
                  </use>
                  <path fill="none" stroke="white" stroke-width="1.5" d="M0,-3.0v7 M-2.5,-0.5L0,-3.0L2.5,-0.5"/>
                </g>
                <g id="arrowLeft" xlink:href="#dirArrow" transform="rotate(270) translate(-36 17)" onmousedown="handlePan(-1,0)">
                  <use xlink:href="#rim" fill="#404040">
                        <set attributeName="fill" to="#808080" begin="arrowLeft.mouseover" end="arrowLeft.mouseout"/>
                  </use>
                  <path fill="none" stroke="white" stroke-width="1.5" d="M0,-3.0v7 M-2.5,-0.5L0,-3.0L2.5,-0.5"/>
                </g>
        </g>
</svg>
