<?xml version="1.0" encoding="UTF-8" standalone="no"?>
<!DOCTYPE svg PUBLIC "-//W3C//DTD SVG 1.1//EN"
 "http://www.w3.org/Graphics/SVG/1.1/DTD/svg11.dtd">
<!-- Generated by graphviz version 2.26.3 (20100126.1600)
 -->
<!-- Title: G Pages: 1 -->
<!--zoomable 320 -->
<svg id="main" version="1.1" xmlns="http://www.w3.org/2000/svg" xmlns:xlink="http://www.w3.org/1999/xlink" xml:space="preserve" onload="init(evt)">
        <defs>
                <circle id="rim" cx="0" cy="0" r="7"/>
                <circle id="rim2" cx="0" cy="0" r="3.5"/>
                <g id="zoomPlus">
                        <use xlink:href="#rim" fill="#404040">
                                <set attributeName="fill" to="#808080" begin="zoomplus.mouseover" end="zoomplus.mouseout"/>
                        </use>
                        <path d="M-4,0h8M0,-4v8" fill="none" stroke="white" stroke-width="1.5" pointer-events="none"/>
                </g>
                <g id="zoomMin">
                        <use xlink:href="#rim" fill="#404040">
                                <set attributeName="fill" to="#808080" begin="zoomminus.mouseover" end="zoomminus.mouseout"/>
                        </use>
                        <path d="M-4,0h8" fill="none" stroke="white" stroke-width="1.5" pointer-events="none"/>
                </g>
                <g id="dirArrow">
                        <path fill="none" stroke="white" stroke-width="1.5" d="M0,-3.0v7 M-2.5,-0.5L0,-3.0L2.5,-0.5"/>
                </g>
               <g id="resetDef">
                       <use xlink:href="#rim2" fill="#404040">
                               <set attributeName="fill" to="#808080" begin="reset.mouseover" end="reset.mouseout"/>
                       </use>
               </g>
        </defs>

<script type="text/javascript">
var viewWidth = 935;
var viewHeight = 320;
var sectionId = 'dynsection-0';
</script>
<script xlink:href="svgpan.js"/>
<svg id="graph" class="graph">
<g id="viewport">
<title>G</title>
<!-- Node1 -->
<g id="node1" class="node"><title>Node1</title>
<polygon fill="#bfbfbf" stroke="black" points="-0.5,-290.5 -0.5,-311.5 244.5,-311.5 244.5,-290.5 -0.5,-290.5"/>
<text text-anchor="middle" x="122" y="-298.5" font-family="FreeSans.ttf" font-size="10.00">utils/filters/filterParametersControlWidgetBase.h</text>
</g>
<!-- Node2 -->
<g id="node3" class="node"><title>Node2</title>
<polygon fill="none" stroke="#bfbfbf" points="124,-174.5 124,-195.5 198,-195.5 198,-174.5 124,-174.5"/>
<text text-anchor="middle" x="161" y="-182.5" font-family="FreeSans.ttf" font-size="10.00">QtGui/QtGui</text>
</g>
<!-- Node1&#45;&gt;Node2 -->
<g id="edge2" class="edge"><title>Node1&#45;&gt;Node2</title>
<path fill="none" stroke="midnightblue" d="M125.599,-290.295C132.1,-270.959 145.897,-229.923 154.216,-205.177"/>
<polygon fill="midnightblue" stroke="midnightblue" points="157.54,-206.273 157.41,-195.679 150.905,-204.042 157.54,-206.273"/>
</g>
<!-- Node3 -->
<g id="node5" class="node"><title>Node3</title>
<a xlink:href="global_8h.html" target="_top" xlink:title="This file holds the global includes, mostly for debuging, tracing and profiling.">
<polygon fill="none" stroke="black" points="177,-58.5 177,-79.5 231,-79.5 231,-58.5 177,-58.5"/>
<text text-anchor="middle" x="204" y="-66.5" font-family="FreeSans.ttf" font-size="10.00">global.h</text>
</a>
</g>
<!-- Node1&#45;&gt;Node3 -->
<g id="edge4" class="edge"><title>Node1&#45;&gt;Node3</title>
<path fill="none" stroke="midnightblue" d="M114.417,-290.418C108.361,-281.276 100.355,-267.451 97,-254 92.8524,-237.371 93.556,-188.581 100,-174 116.886,-135.793 154.356,-103.716 179.4,-85.4244"/>
<polygon fill="midnightblue" stroke="midnightblue" points="181.558,-88.1847 187.686,-79.5418 177.506,-82.4768 181.558,-88.1847"/>
</g>
<!-- Node5 -->
<g id="node9" class="node"><title>Node5</title>
<a xlink:href="reflection_8h.html" target="_top" xlink:title="a header for Reflection.c">
<polygon fill="none" stroke="black" points="381,-116.5 381,-137.5 451,-137.5 451,-116.5 381,-116.5"/>
<text text-anchor="middle" x="416" y="-124.5" font-family="FreeSans.ttf" font-size="10.00">reflection.h</text>
</a>
</g>
<!-- Node1&#45;&gt;Node5 -->
<g id="edge8" class="edge"><title>Node1&#45;&gt;Node5</title>
<path fill="none" stroke="midnightblue" d="M116.992,-290.22C106.625,-266.122 86.0917,-207.388 115,-174 151.596,-131.733 308.955,-147.791 364,-138 366.214,-137.606 368.479,-137.188 370.763,-136.752"/>
<polygon fill="midnightblue" stroke="midnightblue" points="371.685,-140.138 380.816,-134.766 370.327,-133.271 371.685,-140.138"/>
</g>
<!-- Node12 -->
<g id="node24" class="node"><title>Node12</title>
<a xlink:href="parametersControlWidgetBase_8h.html" target="_top" xlink:title="parametersControlWidgetBase.h">
<polygon fill="none" stroke="black" points="284.5,-232.5 284.5,-253.5 457.5,-253.5 457.5,-232.5 284.5,-232.5"/>
<text text-anchor="middle" x="371" y="-240.5" font-family="FreeSans.ttf" font-size="10.00">parametersControlWidgetBase.h</text>
</a>
</g>
<!-- Node1&#45;&gt;Node12 -->
<g id="edge24" class="edge"><title>Node1&#45;&gt;Node12</title>
<path fill="none" stroke="midnightblue" d="M167.092,-290.497C208.916,-280.755 271.259,-266.233 315.993,-255.813"/>
<polygon fill="midnightblue" stroke="midnightblue" points="316.878,-259.2 325.823,-253.523 315.29,-252.383 316.878,-259.2"/>
</g>
<!-- Node4 -->
<g id="node7" class="node"><title>Node4</title>
<polygon fill="none" stroke="#bfbfbf" points="172,-0.5 172,-21.5 236,-21.5 236,-0.5 172,-0.5"/>
<text text-anchor="middle" x="204" y="-8.5" font-family="FreeSans.ttf" font-size="10.00">inttypes.h</text>
</g>
<!-- Node3&#45;&gt;Node4 -->
<g id="edge6" class="edge"><title>Node3&#45;&gt;Node4</title>
<path fill="none" stroke="midnightblue" d="M204,-58.3619C204,-50.9219 204,-40.7427 204,-31.7276"/>
<polygon fill="midnightblue" stroke="midnightblue" points="207.5,-31.5706 204,-21.5707 200.5,-31.5707 207.5,-31.5706"/>
</g>
<!-- Node5&#45;&gt;Node3 -->
<g id="edge22" class="edge"><title>Node5&#45;&gt;Node3</title>
<path fill="none" stroke="midnightblue" d="M380.836,-118.003C347.253,-109.323 294.992,-95.5907 240.863,-80.1847"/>
<polygon fill="midnightblue" stroke="midnightblue" points="241.673,-76.7762 231.096,-77.3923 239.749,-83.5065 241.673,-76.7762"/>
</g>
<!-- Node6 -->
<g id="node11" class="node"><title>Node6</title>
<polygon fill="none" stroke="#bfbfbf" points="392.5,-58.5 392.5,-79.5 439.5,-79.5 439.5,-58.5 392.5,-58.5"/>
<text text-anchor="middle" x="416" y="-66.5" font-family="FreeSans.ttf" font-size="10.00">vector</text>
</g>
<!-- Node5&#45;&gt;Node6 -->
<g id="edge10" class="edge"><title>Node5&#45;&gt;Node6</title>
<path fill="none" stroke="midnightblue" d="M416,-116.362C416,-108.922 416,-98.7427 416,-89.7276"/>
<polygon fill="midnightblue" stroke="midnightblue" points="419.5,-89.5706 416,-79.5707 412.5,-89.5707 419.5,-89.5706"/>
</g>
<!-- Node7 -->
<g id="node13" class="node"><title>Node7</title>
<polygon fill="none" stroke="#bfbfbf" points="593,-58.5 593,-79.5 637,-79.5 637,-58.5 593,-58.5"/>
<text text-anchor="middle" x="615" y="-66.5" font-family="FreeSans.ttf" font-size="10.00">string</text>
</g>
<!-- Node5&#45;&gt;Node7 -->
<g id="edge12" class="edge"><title>Node5&#45;&gt;Node7</title>
<path fill="none" stroke="midnightblue" d="M451.279,-117.88C483.35,-109.424 532.166,-96.1421 582.884,-80.2239"/>
<polygon fill="midnightblue" stroke="midnightblue" points="584.233,-83.4683 592.71,-77.1138 582.12,-76.7946 584.233,-83.4683"/>
</g>
<!-- Node8 -->
<g id="node15" class="node"><title>Node8</title>
<polygon fill="none" stroke="#bfbfbf" points="456.5,-58.5 456.5,-79.5 509.5,-79.5 509.5,-58.5 456.5,-58.5"/>
<text text-anchor="middle" x="483" y="-66.5" font-family="FreeSans.ttf" font-size="10.00">string.h</text>
</g>
<!-- Node5&#45;&gt;Node8 -->
<g id="edge14" class="edge"><title>Node5&#45;&gt;Node8</title>
<path fill="none" stroke="midnightblue" d="M428.289,-116.362C438.017,-107.941 451.798,-96.0105 463.095,-86.2308"/>
<polygon fill="midnightblue" stroke="midnightblue" points="465.519,-88.7619 470.789,-79.5707 460.938,-83.4695 465.519,-88.7619"/>
</g>
<!-- Node9 -->
<g id="node17" class="node"><title>Node9</title>
<polygon fill="none" stroke="#bfbfbf" points="526.5,-58.5 526.5,-79.5 575.5,-79.5 575.5,-58.5 526.5,-58.5"/>
<text text-anchor="middle" x="551" y="-66.5" font-family="FreeSans.ttf" font-size="10.00">stdio.h</text>
</g>
<!-- Node5&#45;&gt;Node9 -->
<g id="edge16" class="edge"><title>Node5&#45;&gt;Node9</title>
<path fill="none" stroke="midnightblue" d="M440.447,-116.497C461.818,-107.315 493.069,-93.8889 516.897,-83.6516"/>
<polygon fill="midnightblue" stroke="midnightblue" points="518.472,-86.7845 526.278,-79.6212 515.709,-80.3529 518.472,-86.7845"/>
</g>
<!-- Node10 -->
<g id="node19" class="node"><title>Node10</title>
<polygon fill="none" stroke="#bfbfbf" points="248.5,-58.5 248.5,-79.5 301.5,-79.5 301.5,-58.5 248.5,-58.5"/>
<text text-anchor="middle" x="275" y="-66.5" font-family="FreeSans.ttf" font-size="10.00">stdint.h</text>
</g>
<!-- Node5&#45;&gt;Node10 -->
<g id="edge18" class="edge"><title>Node5&#45;&gt;Node10</title>
<path fill="none" stroke="midnightblue" d="M390.466,-116.497C368.047,-107.275 335.215,-93.7695 310.287,-83.5153"/>
<polygon fill="midnightblue" stroke="midnightblue" points="311.4,-80.1886 300.821,-79.6212 308.737,-86.6623 311.4,-80.1886"/>
</g>
<!-- Node11 -->
<g id="node21" class="node"><title>Node11</title>
<polygon fill="none" stroke="#bfbfbf" points="319,-58.5 319,-79.5 375,-79.5 375,-58.5 319,-58.5"/>
<text text-anchor="middle" x="347" y="-66.5" font-family="FreeSans.ttf" font-size="10.00">stdarg.h</text>
</g>
<!-- Node5&#45;&gt;Node11 -->
<g id="edge20" class="edge"><title>Node5&#45;&gt;Node11</title>
<path fill="none" stroke="midnightblue" d="M403.344,-116.362C393.326,-107.941 379.133,-96.0105 367.499,-86.2308"/>
<polygon fill="midnightblue" stroke="midnightblue" points="369.482,-83.326 359.575,-79.5707 364.978,-88.6844 369.482,-83.326"/>
</g>
<!-- Node12&#45;&gt;Node2 -->
<g id="edge26" class="edge"><title>Node12&#45;&gt;Node2</title>
<path fill="none" stroke="midnightblue" d="M332.971,-232.497C297.817,-222.787 245.474,-208.331 207.775,-197.919"/>
<polygon fill="midnightblue" stroke="midnightblue" points="208.612,-194.519 198.042,-195.231 206.749,-201.267 208.612,-194.519"/>
</g>
<!-- Node12&#45;&gt;Node3 -->
<g id="edge28" class="edge"><title>Node12&#45;&gt;Node3</title>
<path fill="none" stroke="midnightblue" d="M311.15,-232.405C287.807,-225.54 262.507,-214.309 245,-196 216.853,-166.564 208.029,-117.674 205.263,-89.9246"/>
<polygon fill="midnightblue" stroke="midnightblue" points="208.736,-89.4454 204.43,-79.7649 201.759,-90.0175 208.736,-89.4454"/>
</g>
<!-- Node12&#45;&gt;Node5 -->
<g id="edge30" class="edge"><title>Node12&#45;&gt;Node5</title>
<path fill="none" stroke="midnightblue" d="M379.324,-232.404C386.117,-223.253 395.465,-209.424 401,-196 407.416,-180.44 411.264,-161.723 413.454,-147.711"/>
<polygon fill="midnightblue" stroke="midnightblue" points="416.944,-148.023 414.872,-137.633 410.013,-147.048 416.944,-148.023"/>
</g>
<!-- Node13 -->
<g id="node29" class="node"><title>Node13</title>
<a xlink:href="qSettingsSetter_8h.html" target="_top" xlink:title="visitors/qSettingsSetter.h">
<polygon fill="none" stroke="black" points="447.5,-174.5 447.5,-195.5 584.5,-195.5 584.5,-174.5 447.5,-174.5"/>
<text text-anchor="middle" x="516" y="-182.5" font-family="FreeSans.ttf" font-size="10.00">visitors/qSettingsSetter.h</text>
</a>
</g>
<!-- Node12&#45;&gt;Node13 -->
<g id="edge32" class="edge"><title>Node12&#45;&gt;Node13</title>
<path fill="none" stroke="midnightblue" d="M397.258,-232.497C420.416,-223.234 454.375,-209.65 480.052,-199.379"/>
<polygon fill="midnightblue" stroke="midnightblue" points="481.462,-202.585 489.447,-195.621 478.862,-196.086 481.462,-202.585"/>
</g>
<!-- Node17 -->
<g id="node39" class="node"><title>Node17</title>
<a xlink:href="xmlSetter_8h.html" target="_top" xlink:title="visitors/xmlSetter.h">
<polygon fill="none" stroke="black" points="601.5,-174.5 601.5,-195.5 710.5,-195.5 710.5,-174.5 601.5,-174.5"/>
<text text-anchor="middle" x="656" y="-182.5" font-family="FreeSans.ttf" font-size="10.00">visitors/xmlSetter.h</text>
</a>
</g>
<!-- Node12&#45;&gt;Node17 -->
<g id="edge44" class="edge"><title>Node12&#45;&gt;Node17</title>
<path fill="none" stroke="midnightblue" d="M422.611,-232.497C470.884,-222.673 543.04,-207.988 594.326,-197.551"/>
<polygon fill="midnightblue" stroke="midnightblue" points="595.191,-200.947 604.292,-195.523 593.795,-194.088 595.191,-200.947"/>
</g>
<!-- Node19 -->
<g id="node45" class="node"><title>Node19</title>
<a xlink:href="qSettingsGetter_8h.html" target="_top" xlink:title="visitors/qSettingsGetter.h">
<polygon fill="none" stroke="black" points="254,-174.5 254,-195.5 392,-195.5 392,-174.5 254,-174.5"/>
<text text-anchor="middle" x="323" y="-182.5" font-family="FreeSans.ttf" font-size="10.00">visitors/qSettingsGetter.h</text>
</a>
</g>
<!-- Node12&#45;&gt;Node19 -->
<g id="edge52" class="edge"><title>Node12&#45;&gt;Node19</title>
<path fill="none" stroke="midnightblue" d="M362.196,-232.362C355.498,-224.268 346.116,-212.932 338.211,-203.38"/>
<polygon fill="midnightblue" stroke="midnightblue" points="340.82,-201.043 331.748,-195.571 335.427,-205.506 340.82,-201.043"/>
</g>
<!-- Node21 -->
<g id="node51" class="node"><title>Node21</title>
<a xlink:href="xmlGetter_8h.html" target="_top" xlink:title="visitors/xmlGetter.h">
<polygon fill="none" stroke="black" points="728,-174.5 728,-195.5 838,-195.5 838,-174.5 728,-174.5"/>
<text text-anchor="middle" x="783" y="-182.5" font-family="FreeSans.ttf" font-size="10.00">visitors/xmlGetter.h</text>
</a>
</g>
<!-- Node12&#45;&gt;Node21 -->
<g id="edge60" class="edge"><title>Node12&#45;&gt;Node21</title>
<path fill="none" stroke="midnightblue" d="M455.152,-232.496C523.297,-223.791 622.035,-210.728 717.717,-196.159"/>
<polygon fill="midnightblue" stroke="midnightblue" points="718.507,-199.579 727.863,-194.606 717.448,-192.659 718.507,-199.579"/>
</g>
<!-- Node13&#45;&gt;Node5 -->
<g id="edge42" class="edge"><title>Node13&#45;&gt;Node5</title>
<path fill="none" stroke="midnightblue" d="M497.658,-174.362C482.434,-165.532 460.559,-152.844 443.28,-142.822"/>
<polygon fill="midnightblue" stroke="midnightblue" points="444.632,-139.56 434.225,-137.571 441.12,-145.615 444.632,-139.56"/>
</g>
<!-- Node14 -->
<g id="node31" class="node"><title>Node14</title>
<polygon fill="none" stroke="#bfbfbf" points="468.5,-116.5 468.5,-137.5 569.5,-137.5 569.5,-116.5 468.5,-116.5"/>
<text text-anchor="middle" x="519" y="-124.5" font-family="FreeSans.ttf" font-size="10.00">QtCore/QSettings</text>
</g>
<!-- Node13&#45;&gt;Node14 -->
<g id="edge34" class="edge"><title>Node13&#45;&gt;Node14</title>
<path fill="none" stroke="midnightblue" d="M516.55,-174.362C516.935,-166.922 517.462,-156.743 517.928,-147.728"/>
<polygon fill="midnightblue" stroke="midnightblue" points="521.432,-147.738 518.453,-137.571 514.441,-147.376 521.432,-147.738"/>
</g>
<!-- Node15 -->
<g id="node33" class="node"><title>Node15</title>
<a xlink:href="basePathVisitor_8h.html" target="_top" xlink:title="Add Comment Here.">
<polygon fill="none" stroke="black" points="586.5,-116.5 586.5,-137.5 685.5,-137.5 685.5,-116.5 586.5,-116.5"/>
<text text-anchor="middle" x="636" y="-124.5" font-family="FreeSans.ttf" font-size="10.00">basePathVisitor.h</text>
</a>
</g>
<!-- Node13&#45;&gt;Node15 -->
<g id="edge36" class="edge"><title>Node13&#45;&gt;Node15</title>
<path fill="none" stroke="midnightblue" d="M537.731,-174.497C556.474,-165.438 583.767,-152.246 604.836,-142.063"/>
<polygon fill="midnightblue" stroke="midnightblue" points="606.545,-145.124 614.025,-137.621 603.498,-138.822 606.545,-145.124"/>
</g>
<!-- Node15&#45;&gt;Node7 -->
<g id="edge40" class="edge"><title>Node15&#45;&gt;Node7</title>
<path fill="none" stroke="midnightblue" d="M632.148,-116.362C629.395,-108.758 625.606,-98.294 622.29,-89.1349"/>
<polygon fill="midnightblue" stroke="midnightblue" points="625.523,-87.7818 618.827,-79.5707 618.941,-90.1649 625.523,-87.7818"/>
</g>
<!-- Node16 -->
<g id="node35" class="node"><title>Node16</title>
<polygon fill="none" stroke="#bfbfbf" points="654.5,-58.5 654.5,-79.5 701.5,-79.5 701.5,-58.5 654.5,-58.5"/>
<text text-anchor="middle" x="678" y="-66.5" font-family="FreeSans.ttf" font-size="10.00">deque</text>
</g>
<!-- Node15&#45;&gt;Node16 -->
<g id="edge38" class="edge"><title>Node15&#45;&gt;Node16</title>
<path fill="none" stroke="midnightblue" d="M643.703,-116.362C649.446,-108.431 657.443,-97.3885 664.27,-87.9606"/>
<polygon fill="midnightblue" stroke="midnightblue" points="667.315,-89.7229 670.345,-79.5707 661.645,-85.6173 667.315,-89.7229"/>
</g>
<!-- Node17&#45;&gt;Node5 -->
<g id="edge50" class="edge"><title>Node17&#45;&gt;Node5</title>
<path fill="none" stroke="midnightblue" d="M611.6,-174.482C574.029,-165.552 518.488,-152.284 461.043,-138.241"/>
<polygon fill="midnightblue" stroke="midnightblue" points="461.602,-134.775 451.057,-135.797 459.938,-141.574 461.602,-134.775"/>
</g>
<!-- Node17&#45;&gt;Node15 -->
<g id="edge48" class="edge"><title>Node17&#45;&gt;Node15</title>
<path fill="none" stroke="midnightblue" d="M652.332,-174.362C649.71,-166.758 646.101,-156.294 642.943,-147.135"/>
<polygon fill="midnightblue" stroke="midnightblue" points="646.214,-145.883 639.645,-137.571 639.596,-148.165 646.214,-145.883"/>
</g>
<!-- Node18 -->
<g id="node41" class="node"><title>Node18</title>
<polygon fill="none" stroke="#bfbfbf" points="702.5,-116.5 702.5,-137.5 791.5,-137.5 791.5,-116.5 702.5,-116.5"/>
<text text-anchor="middle" x="747" y="-124.5" font-family="FreeSans.ttf" font-size="10.00">QtCore/QString</text>
</g>
<!-- Node17&#45;&gt;Node18 -->
<g id="edge46" class="edge"><title>Node17&#45;&gt;Node18</title>
<path fill="none" stroke="midnightblue" d="M672.691,-174.362C686.416,-165.614 706.084,-153.079 721.737,-143.101"/>
<polygon fill="midnightblue" stroke="midnightblue" points="723.863,-145.897 730.415,-137.571 720.101,-139.994 723.863,-145.897"/>
</g>
<!-- Node19&#45;&gt;Node5 -->
<g id="edge58" class="edge"><title>Node19&#45;&gt;Node5</title>
<path fill="none" stroke="midnightblue" d="M340.058,-174.362C354.085,-165.614 374.184,-153.079 390.182,-143.101"/>
<polygon fill="midnightblue" stroke="midnightblue" points="392.418,-145.832 399.051,-137.571 388.713,-139.893 392.418,-145.832"/>
</g>
<!-- Node19&#45;&gt;Node15 -->
<g id="edge56" class="edge"><title>Node19&#45;&gt;Node15</title>
<path fill="none" stroke="midnightblue" d="M380.489,-174.491C429.86,-165.447 503.232,-151.958 576.059,-138.357"/>
<polygon fill="midnightblue" stroke="midnightblue" points="577.142,-141.715 586.329,-136.438 575.856,-134.835 577.142,-141.715"/>
</g>
<!-- Node20 -->
<g id="node47" class="node"><title>Node20</title>
<polygon fill="none" stroke="#bfbfbf" points="291,-116.5 291,-137.5 355,-137.5 355,-116.5 291,-116.5"/>
<text text-anchor="middle" x="323" y="-124.5" font-family="FreeSans.ttf" font-size="10.00">QSettings</text>
</g>
<!-- Node19&#45;&gt;Node20 -->
<g id="edge54" class="edge"><title>Node19&#45;&gt;Node20</title>
<path fill="none" stroke="midnightblue" d="M323,-174.362C323,-166.922 323,-156.743 323,-147.728"/>
<polygon fill="midnightblue" stroke="midnightblue" points="326.5,-147.571 323,-137.571 319.5,-147.571 326.5,-147.571"/>
</g>
<!-- Node21&#45;&gt;Node5 -->
<g id="edge66" class="edge"><title>Node21&#45;&gt;Node5</title>
<path fill="none" stroke="midnightblue" d="M727.86,-175.407C724.865,-174.922 721.896,-174.45 719,-174 607.301,-156.643 575.8,-159.924 461.324,-138.113"/>
<polygon fill="midnightblue" stroke="midnightblue" points="461.951,-134.669 451.469,-136.213 460.625,-141.543 461.951,-134.669"/>
</g>
<!-- Node21&#45;&gt;Node15 -->
<g id="edge68" class="edge"><title>Node21&#45;&gt;Node15</title>
<path fill="none" stroke="midnightblue" d="M756.379,-174.497C732.903,-165.234 698.475,-151.65 672.444,-141.379"/>
<polygon fill="midnightblue" stroke="midnightblue" points="673.506,-138.036 662.919,-137.621 670.937,-144.547 673.506,-138.036"/>
</g>
<!-- Node21&#45;&gt;Node18 -->
<g id="edge62" class="edge"><title>Node21&#45;&gt;Node18</title>
<path fill="none" stroke="midnightblue" d="M776.397,-174.362C771.525,-166.513 764.762,-155.616 758.95,-146.253"/>
<polygon fill="midnightblue" stroke="midnightblue" points="761.809,-144.221 753.561,-137.571 755.861,-147.913 761.809,-144.221"/>
</g>
<!-- Node22 -->
<g id="node54" class="node"><title>Node22</title>
<polygon fill="none" stroke="#bfbfbf" points="808.5,-116.5 808.5,-137.5 927.5,-137.5 927.5,-116.5 808.5,-116.5"/>
<text text-anchor="middle" x="868" y="-124.5" font-family="FreeSans.ttf" font-size="10.00">QtXml/QDomElement</text>
</g>
<!-- Node21&#45;&gt;Node22 -->
<g id="edge64" class="edge"><title>Node21&#45;&gt;Node22</title>
<path fill="none" stroke="midnightblue" d="M798.59,-174.362C811.291,-165.696 829.438,-153.313 843.992,-143.382"/>
<polygon fill="midnightblue" stroke="midnightblue" points="846.221,-146.098 852.509,-137.571 842.276,-140.316 846.221,-146.098"/>
</g>
</g>
</svg>
        <g id="navigator" transform="translate(0 0)" fill="#404254">
                <rect fill="#f2f5e9" fill-opacity="0.5" stroke="#606060" stroke-width=".5" x="0" y="0" width="60" height="60"/>
                <use id="zoomplus" xlink:href="#zoomPlus" x="17" y="9" onmousedown="handleZoom(evt,'in')"/>
                <use id="zoomminus" xlink:href="#zoomMin" x="42" y="9" onmousedown="handleZoom(evt,'out')"/>
                <use id="reset" xlink:href="#resetDef" x="30" y="36" onmousedown="handleReset()"/>
                <g id="arrowUp" xlink:href="#dirArrow" transform="translate(30 24)" onmousedown="handlePan(0,-1)">
                  <use xlink:href="#rim" fill="#404040">
                        <set attributeName="fill" to="#808080" begin="arrowUp.mouseover" end="arrowUp.mouseout"/>
                  </use>
                  <path fill="none" stroke="white" stroke-width="1.5" d="M0,-3.0v7 M-2.5,-0.5L0,-3.0L2.5,-0.5"/>
                </g>
                <g id="arrowRight" xlink:href="#dirArrow" transform="rotate(90) translate(36 -43)" onmousedown="handlePan(1,0)">
                  <use xlink:href="#rim" fill="#404040">
                        <set attributeName="fill" to="#808080" begin="arrowRight.mouseover" end="arrowRight.mouseout"/>
                  </use>
                  <path fill="none" stroke="white" stroke-width="1.5" d="M0,-3.0v7 M-2.5,-0.5L0,-3.0L2.5,-0.5"/>
                </g>
                <g id="arrowDown" xlink:href="#dirArrow" transform="rotate(180) translate(-30 -48)" onmousedown="handlePan(0,1)">
                  <use xlink:href="#rim" fill="#404040">
                        <set attributeName="fill" to="#808080" begin="arrowDown.mouseover" end="arrowDown.mouseout"/>
                  </use>
                  <path fill="none" stroke="white" stroke-width="1.5" d="M0,-3.0v7 M-2.5,-0.5L0,-3.0L2.5,-0.5"/>
                </g>
                <g id="arrowLeft" xlink:href="#dirArrow" transform="rotate(270) translate(-36 17)" onmousedown="handlePan(-1,0)">
                  <use xlink:href="#rim" fill="#404040">
                        <set attributeName="fill" to="#808080" begin="arrowLeft.mouseover" end="arrowLeft.mouseout"/>
                  </use>
                  <path fill="none" stroke="white" stroke-width="1.5" d="M0,-3.0v7 M-2.5,-0.5L0,-3.0L2.5,-0.5"/>
                </g>
        </g>
</svg>
