<?xml version="1.0" encoding="UTF-8" standalone="no"?>
<!DOCTYPE svg PUBLIC "-//W3C//DTD SVG 1.1//EN"
 "http://www.w3.org/Graphics/SVG/1.1/DTD/svg11.dtd">
<!-- Generated by graphviz version 2.26.3 (20100126.1600)
 -->
<!-- Title: G Pages: 1 -->
<!--zoomable 262 -->
<svg id="main" version="1.1" xmlns="http://www.w3.org/2000/svg" xmlns:xlink="http://www.w3.org/1999/xlink" xml:space="preserve" onload="init(evt)">
        <defs>
                <circle id="rim" cx="0" cy="0" r="7"/>
                <circle id="rim2" cx="0" cy="0" r="3.5"/>
                <g id="zoomPlus">
                        <use xlink:href="#rim" fill="#404040">
                                <set attributeName="fill" to="#808080" begin="zoomplus.mouseover" end="zoomplus.mouseout"/>
                        </use>
                        <path d="M-4,0h8M0,-4v8" fill="none" stroke="white" stroke-width="1.5" pointer-events="none"/>
                </g>
                <g id="zoomMin">
                        <use xlink:href="#rim" fill="#404040">
                                <set attributeName="fill" to="#808080" begin="zoomminus.mouseover" end="zoomminus.mouseout"/>
                        </use>
                        <path d="M-4,0h8" fill="none" stroke="white" stroke-width="1.5" pointer-events="none"/>
                </g>
                <g id="dirArrow">
                        <path fill="none" stroke="white" stroke-width="1.5" d="M0,-3.0v7 M-2.5,-0.5L0,-3.0L2.5,-0.5"/>
                </g>
               <g id="resetDef">
                       <use xlink:href="#rim2" fill="#404040">
                               <set attributeName="fill" to="#808080" begin="reset.mouseover" end="reset.mouseout"/>
                       </use>
               </g>
        </defs>

<script type="text/javascript">
var viewWidth = 1165;
var viewHeight = 262;
var sectionId = 'dynsection-1';
</script>
<script xlink:href="svgpan.js"/>
<svg id="graph" class="graph">
<g id="viewport">
<title>G</title>
<!-- Node1 -->
<g id="node1" class="node"><title>Node1</title>
<polygon fill="#bfbfbf" stroke="black" points="326,-232.5 326,-253.5 568,-253.5 568,-232.5 326,-232.5"/>
<text text-anchor="middle" x="447" y="-240.5" font-family="FreeSans.ttf" font-size="10.00">utils/filters/graph/filterPresentationsCollection.h</text>
</g>
<!-- Node2 -->
<g id="node3" class="node"><title>Node2</title>
<a xlink:href="filterGraphPresentation_8h.html" target="_top" xlink:title="utils/filters/graph/filterGraphPresentation.h">
<polygon fill="none" stroke="black" points="211.5,-174.5 211.5,-195.5 430.5,-195.5 430.5,-174.5 211.5,-174.5"/>
<text text-anchor="middle" x="321" y="-182.5" font-family="FreeSans.ttf" font-size="10.00">utils/filters/graph/filterGraphPresentation.h</text>
</a>
</g>
<!-- Node1&#45;&gt;Node2 -->
<g id="edge2" class="edge"><title>Node1&#45;&gt;Node2</title>
<path fill="none" stroke="midnightblue" d="M414.862,-228.206C392.757,-218.031 363.92,-204.757 344.074,-195.621"/>
<polygon fill="midnightblue" stroke="midnightblue" points="413.635,-231.494 424.182,-232.497 416.562,-225.136 413.635,-231.494"/>
</g>
<!-- Node13 -->
<g id="node27" class="node"><title>Node13</title>
<a xlink:href="filterPresentationsCollection_8cpp.html" target="_top" xlink:title="utils/filters/graph/filterPresentationsCollection.cpp">
<polygon fill="none" stroke="black" points="447.5,-174.5 447.5,-195.5 700.5,-195.5 700.5,-174.5 447.5,-174.5"/>
<text text-anchor="middle" x="574" y="-182.5" font-family="FreeSans.ttf" font-size="10.00">utils/filters/graph/filterPresentationsCollection.cpp</text>
</a>
</g>
<!-- Node1&#45;&gt;Node13 -->
<g id="edge28" class="edge"><title>Node1&#45;&gt;Node13</title>
<path fill="none" stroke="midnightblue" d="M479.393,-228.206C501.673,-218.031 530.74,-204.757 550.743,-195.621"/>
<polygon fill="midnightblue" stroke="midnightblue" points="477.641,-225.159 469.999,-232.497 480.549,-231.526 477.641,-225.159"/>
</g>
<!-- Node3 -->
<g id="node5" class="node"><title>Node3</title>
<a xlink:href="diagramscene_8cpp.html" target="_top" xlink:title="utils/filters/graph/diagramscene.cpp">
<polygon fill="none" stroke="black" points="0,-116.5 0,-137.5 188,-137.5 188,-116.5 0,-116.5"/>
<text text-anchor="middle" x="94" y="-124.5" font-family="FreeSans.ttf" font-size="10.00">utils/filters/graph/diagramscene.cpp</text>
</a>
</g>
<!-- Node2&#45;&gt;Node3 -->
<g id="edge4" class="edge"><title>Node2&#45;&gt;Node3</title>
<path fill="none" stroke="midnightblue" d="M270.162,-172.011C229.46,-161.611 173.098,-147.21 135.185,-137.523"/>
<polygon fill="midnightblue" stroke="midnightblue" points="269.337,-175.412 279.892,-174.497 271.07,-168.63 269.337,-175.412"/>
</g>
<!-- Node4 -->
<g id="node7" class="node"><title>Node4</title>
<a xlink:href="filterGraphPresentation_8cpp.html" target="_top" xlink:title="utils/filters/graph/filterGraphPresentation.cpp">
<polygon fill="none" stroke="black" points="206,-116.5 206,-137.5 436,-137.5 436,-116.5 206,-116.5"/>
<text text-anchor="middle" x="321" y="-124.5" font-family="FreeSans.ttf" font-size="10.00">utils/filters/graph/filterGraphPresentation.cpp</text>
</a>
</g>
<!-- Node2&#45;&gt;Node4 -->
<g id="edge6" class="edge"><title>Node2&#45;&gt;Node4</title>
<path fill="none" stroke="midnightblue" d="M321,-164.191C321,-155.168 321,-144.994 321,-137.571"/>
<polygon fill="midnightblue" stroke="midnightblue" points="317.5,-164.362 321,-174.362 324.5,-164.362 317.5,-164.362"/>
</g>
<!-- Node5 -->
<g id="node9" class="node"><title>Node5</title>
<a xlink:href="baseHostDialog_8h.html" target="_top" xlink:title="applications/base/baseHostDialog.h">
<polygon fill="none" stroke="black" points="454,-116.5 454,-137.5 642,-137.5 642,-116.5 454,-116.5"/>
<text text-anchor="middle" x="548" y="-124.5" font-family="FreeSans.ttf" font-size="10.00">applications/base/baseHostDialog.h</text>
</a>
</g>
<!-- Node2&#45;&gt;Node5 -->
<g id="edge8" class="edge"><title>Node2&#45;&gt;Node5</title>
<path fill="none" stroke="midnightblue" d="M371.838,-172.011C412.54,-161.611 468.902,-147.21 506.815,-137.523"/>
<polygon fill="midnightblue" stroke="midnightblue" points="370.93,-168.63 362.108,-174.497 372.663,-175.412 370.93,-168.63"/>
</g>
<!-- Node6 -->
<g id="node11" class="node"><title>Node6</title>
<a xlink:href="baseHostDialog_8cpp.html" target="_top" xlink:title="Implements a basic host dialog that uses BaseCalculationThread to process captured data Extend or rei...">
<polygon fill="none" stroke="black" points="264.5,-58.5 264.5,-79.5 463.5,-79.5 463.5,-58.5 264.5,-58.5"/>
<text text-anchor="middle" x="364" y="-66.5" font-family="FreeSans.ttf" font-size="10.00">applications/base/baseHostDialog.cpp</text>
</a>
</g>
<!-- Node5&#45;&gt;Node6 -->
<g id="edge10" class="edge"><title>Node5&#45;&gt;Node6</title>
<path fill="none" stroke="midnightblue" d="M504.896,-113.413C472.067,-103.065 427.53,-89.0258 397.384,-79.5231"/>
<polygon fill="midnightblue" stroke="midnightblue" points="504.089,-116.828 514.679,-116.497 506.194,-110.152 504.089,-116.828"/>
</g>
<!-- Node7 -->
<g id="node13" class="node"><title>Node7</title>
<a xlink:href="main__vibase_8cpp.html" target="_top" xlink:title="applications/base/main_vibase.cpp">
<polygon fill="none" stroke="black" points="312.5,-0.5 312.5,-21.5 495.5,-21.5 495.5,-0.5 312.5,-0.5"/>
<text text-anchor="middle" x="404" y="-8.5" font-family="FreeSans.ttf" font-size="10.00">applications/base/main_vibase.cpp</text>
</a>
</g>
<!-- Node5&#45;&gt;Node7 -->
<g id="edge12" class="edge"><title>Node5&#45;&gt;Node7</title>
<path fill="none" stroke="midnightblue" d="M529.759,-109.176C514.728,-94.803 492.61,-74.3607 472,-58 455.14,-44.616 434.692,-30.7802 420.649,-21.6171"/>
<polygon fill="midnightblue" stroke="midnightblue" points="527.697,-112.05 537.325,-116.472 532.556,-107.011 527.697,-112.05"/>
</g>
<!-- Node8 -->
<g id="node15" class="node"><title>Node8</title>
<a xlink:href="mainWindow_8h.html" target="_top" xlink:title="applications/base/mainWindow.h">
<polygon fill="none" stroke="black" points="519,-58.5 519,-79.5 689,-79.5 689,-58.5 519,-58.5"/>
<text text-anchor="middle" x="604" y="-66.5" font-family="FreeSans.ttf" font-size="10.00">applications/base/mainWindow.h</text>
</a>
</g>
<!-- Node5&#45;&gt;Node8 -->
<g id="edge14" class="edge"><title>Node5&#45;&gt;Node8</title>
<path fill="none" stroke="midnightblue" d="M565.265,-109.118C574.612,-99.4377 585.839,-87.8098 593.794,-79.5707"/>
<polygon fill="midnightblue" stroke="midnightblue" points="562.699,-106.737 558.271,-116.362 567.735,-111.599 562.699,-106.737"/>
</g>
<!-- Node11 -->
<g id="node22" class="node"><title>Node11</title>
<a xlink:href="recorderDialog_8h.html" target="_top" xlink:title="Defines a recorder dialog class derived from BaseHostDialog.">
<polygon fill="none" stroke="black" points="721,-58.5 721,-79.5 921,-79.5 921,-58.5 721,-58.5"/>
<text text-anchor="middle" x="821" y="-66.5" font-family="FreeSans.ttf" font-size="10.00">applications/recorder/recorderDialog.h</text>
</a>
</g>
<!-- Node5&#45;&gt;Node11 -->
<g id="edge22" class="edge"><title>Node5&#45;&gt;Node11</title>
<path fill="none" stroke="midnightblue" d="M607.286,-114.404C656.367,-103.977 725.294,-89.333 771.469,-79.5231"/>
<polygon fill="midnightblue" stroke="midnightblue" points="606.493,-110.995 597.438,-116.497 607.947,-117.842 606.493,-110.995"/>
</g>
<!-- Node8&#45;&gt;Node7 -->
<g id="edge16" class="edge"><title>Node8&#45;&gt;Node7</title>
<path fill="none" stroke="midnightblue" d="M558.067,-55.6795C522.3,-45.307 473.337,-31.1078 440.286,-21.5231"/>
<polygon fill="midnightblue" stroke="midnightblue" points="557.202,-59.0728 567.782,-58.4966 559.152,-52.3498 557.202,-59.0728"/>
</g>
<!-- Node9 -->
<g id="node18" class="node"><title>Node9</title>
<a xlink:href="mainWindow_8cpp.html" target="_top" xlink:title="applications/base/mainWindow.cpp">
<polygon fill="none" stroke="black" points="513,-0.5 513,-21.5 695,-21.5 695,-0.5 513,-0.5"/>
<text text-anchor="middle" x="604" y="-8.5" font-family="FreeSans.ttf" font-size="10.00">applications/base/mainWindow.cpp</text>
</a>
</g>
<!-- Node8&#45;&gt;Node9 -->
<g id="edge18" class="edge"><title>Node8&#45;&gt;Node9</title>
<path fill="none" stroke="midnightblue" d="M604,-48.1906C604,-39.1684 604,-28.9941 604,-21.5707"/>
<polygon fill="midnightblue" stroke="midnightblue" points="600.5,-48.3619 604,-58.3619 607.5,-48.3619 600.5,-48.3619"/>
</g>
<!-- Node10 -->
<g id="node20" class="node"><title>Node10</title>
<a xlink:href="main__virecorder_8cpp.html" target="_top" xlink:title="applications/recorder/main_virecorder.cpp">
<polygon fill="none" stroke="black" points="712.5,-0.5 712.5,-21.5 929.5,-21.5 929.5,-0.5 712.5,-0.5"/>
<text text-anchor="middle" x="821" y="-8.5" font-family="FreeSans.ttf" font-size="10.00">applications/recorder/main_virecorder.cpp</text>
</a>
</g>
<!-- Node8&#45;&gt;Node10 -->
<g id="edge20" class="edge"><title>Node8&#45;&gt;Node10</title>
<path fill="none" stroke="midnightblue" d="M653.34,-55.8123C692.19,-45.4285 745.616,-31.1487 781.629,-21.5231"/>
<polygon fill="midnightblue" stroke="midnightblue" points="652.054,-52.5331 643.297,-58.4966 653.862,-59.2957 652.054,-52.5331"/>
</g>
<!-- Node11&#45;&gt;Node10 -->
<g id="edge24" class="edge"><title>Node11&#45;&gt;Node10</title>
<path fill="none" stroke="midnightblue" d="M821,-48.1906C821,-39.1684 821,-28.9941 821,-21.5707"/>
<polygon fill="midnightblue" stroke="midnightblue" points="817.5,-48.3619 821,-58.3619 824.5,-48.3619 817.5,-48.3619"/>
</g>
<!-- Node12 -->
<g id="node25" class="node"><title>Node12</title>
<a xlink:href="recorderDialog_8cpp.html" target="_top" xlink:title="Implements frame recording dialog based on BaseHostDialog.">
<polygon fill="none" stroke="black" points="946.5,-0.5 946.5,-21.5 1157.5,-21.5 1157.5,-0.5 946.5,-0.5"/>
<text text-anchor="middle" x="1052" y="-8.5" font-family="FreeSans.ttf" font-size="10.00">applications/recorder/recorderDialog.cpp</text>
</a>
</g>
<!-- Node11&#45;&gt;Node12 -->
<g id="edge26" class="edge"><title>Node11&#45;&gt;Node12</title>
<path fill="none" stroke="midnightblue" d="M872.733,-56.0107C914.153,-45.6109 971.508,-31.2102 1010.09,-21.5231"/>
<polygon fill="midnightblue" stroke="midnightblue" points="871.679,-52.6667 862.832,-58.4966 873.384,-59.456 871.679,-52.6667"/>
</g>
</g>
</svg>
        <g id="navigator" transform="translate(0 0)" fill="#404254">
                <rect fill="#f2f5e9" fill-opacity="0.5" stroke="#606060" stroke-width=".5" x="0" y="0" width="60" height="60"/>
                <use id="zoomplus" xlink:href="#zoomPlus" x="17" y="9" onmousedown="handleZoom(evt,'in')"/>
                <use id="zoomminus" xlink:href="#zoomMin" x="42" y="9" onmousedown="handleZoom(evt,'out')"/>
                <use id="reset" xlink:href="#resetDef" x="30" y="36" onmousedown="handleReset()"/>
                <g id="arrowUp" xlink:href="#dirArrow" transform="translate(30 24)" onmousedown="handlePan(0,-1)">
                  <use xlink:href="#rim" fill="#404040">
                        <set attributeName="fill" to="#808080" begin="arrowUp.mouseover" end="arrowUp.mouseout"/>
                  </use>
                  <path fill="none" stroke="white" stroke-width="1.5" d="M0,-3.0v7 M-2.5,-0.5L0,-3.0L2.5,-0.5"/>
                </g>
                <g id="arrowRight" xlink:href="#dirArrow" transform="rotate(90) translate(36 -43)" onmousedown="handlePan(1,0)">
                  <use xlink:href="#rim" fill="#404040">
                        <set attributeName="fill" to="#808080" begin="arrowRight.mouseover" end="arrowRight.mouseout"/>
                  </use>
                  <path fill="none" stroke="white" stroke-width="1.5" d="M0,-3.0v7 M-2.5,-0.5L0,-3.0L2.5,-0.5"/>
                </g>
                <g id="arrowDown" xlink:href="#dirArrow" transform="rotate(180) translate(-30 -48)" onmousedown="handlePan(0,1)">
                  <use xlink:href="#rim" fill="#404040">
                        <set attributeName="fill" to="#808080" begin="arrowDown.mouseover" end="arrowDown.mouseout"/>
                  </use>
                  <path fill="none" stroke="white" stroke-width="1.5" d="M0,-3.0v7 M-2.5,-0.5L0,-3.0L2.5,-0.5"/>
                </g>
                <g id="arrowLeft" xlink:href="#dirArrow" transform="rotate(270) translate(-36 17)" onmousedown="handlePan(-1,0)">
                  <use xlink:href="#rim" fill="#404040">
                        <set attributeName="fill" to="#808080" begin="arrowLeft.mouseover" end="arrowLeft.mouseout"/>
                  </use>
                  <path fill="none" stroke="white" stroke-width="1.5" d="M0,-3.0v7 M-2.5,-0.5L0,-3.0L2.5,-0.5"/>
                </g>
        </g>
</svg>
