<?xml version="1.0" encoding="UTF-8" standalone="no"?>
<!DOCTYPE svg PUBLIC "-//W3C//DTD SVG 1.1//EN"
 "http://www.w3.org/Graphics/SVG/1.1/DTD/svg11.dtd">
<!-- Generated by graphviz version 2.26.3 (20100126.1600)
 -->
<!-- Title: G Pages: 1 -->
<!--zoomable 320 -->
<svg id="main" version="1.1" xmlns="http://www.w3.org/2000/svg" xmlns:xlink="http://www.w3.org/1999/xlink" xml:space="preserve" onload="init(evt)">
        <defs>
                <circle id="rim" cx="0" cy="0" r="7"/>
                <circle id="rim2" cx="0" cy="0" r="3.5"/>
                <g id="zoomPlus">
                        <use xlink:href="#rim" fill="#404040">
                                <set attributeName="fill" to="#808080" begin="zoomplus.mouseover" end="zoomplus.mouseout"/>
                        </use>
                        <path d="M-4,0h8M0,-4v8" fill="none" stroke="white" stroke-width="1.5" pointer-events="none"/>
                </g>
                <g id="zoomMin">
                        <use xlink:href="#rim" fill="#404040">
                                <set attributeName="fill" to="#808080" begin="zoomminus.mouseover" end="zoomminus.mouseout"/>
                        </use>
                        <path d="M-4,0h8" fill="none" stroke="white" stroke-width="1.5" pointer-events="none"/>
                </g>
                <g id="dirArrow">
                        <path fill="none" stroke="white" stroke-width="1.5" d="M0,-3.0v7 M-2.5,-0.5L0,-3.0L2.5,-0.5"/>
                </g>
               <g id="resetDef">
                       <use xlink:href="#rim2" fill="#404040">
                               <set attributeName="fill" to="#808080" begin="reset.mouseover" end="reset.mouseout"/>
                       </use>
               </g>
        </defs>

<script type="text/javascript">
var viewWidth = 1711;
var viewHeight = 320;
var sectionId = 'dynsection-0';
</script>
<script xlink:href="svgpan.js"/>
<svg id="graph" class="graph">
<g id="viewport">
<title>G</title>
<!-- Node1 -->
<g id="node1" class="node"><title>Node1</title>
<polygon fill="#bfbfbf" stroke="black" points="706,-290.5 706,-311.5 968,-311.5 968,-290.5 706,-290.5"/>
<text text-anchor="middle" x="837" y="-298.5" font-family="FreeSans.ttf" font-size="10.00">applications/base/generatedParameters/flowStyle.h</text>
</g>
<!-- Node2 -->
<g id="node3" class="node"><title>Node2</title>
<a xlink:href="presentationParameters_8h.html" target="_top" xlink:title="applications/base/generatedParameters/presentationParameters.h">
<polygon fill="none" stroke="black" points="669,-232.5 669,-253.5 1005,-253.5 1005,-232.5 669,-232.5"/>
<text text-anchor="middle" x="837" y="-240.5" font-family="FreeSans.ttf" font-size="10.00">applications/base/generatedParameters/presentationParameters.h</text>
</a>
</g>
<!-- Node1&#45;&gt;Node2 -->
<g id="edge2" class="edge"><title>Node1&#45;&gt;Node2</title>
<path fill="none" stroke="midnightblue" d="M837,-280.191C837,-271.168 837,-260.994 837,-253.571"/>
<polygon fill="midnightblue" stroke="midnightblue" points="833.5,-280.362 837,-290.362 840.5,-280.362 833.5,-280.362"/>
</g>
<!-- Node3 -->
<g id="node5" class="node"><title>Node3</title>
<a xlink:href="baseCalculationThread_8h.html" target="_top" xlink:title="applications/base/baseCalculationThread.h">
<polygon fill="none" stroke="black" points="345.5,-174.5 345.5,-195.5 566.5,-195.5 566.5,-174.5 345.5,-174.5"/>
<text text-anchor="middle" x="456" y="-182.5" font-family="FreeSans.ttf" font-size="10.00">applications/base/baseCalculationThread.h</text>
</a>
</g>
<!-- Node2&#45;&gt;Node3 -->
<g id="edge4" class="edge"><title>Node2&#45;&gt;Node3</title>
<path fill="none" stroke="midnightblue" d="M758.092,-230.988C689.389,-220.529 590.778,-205.517 525.126,-195.523"/>
<polygon fill="midnightblue" stroke="midnightblue" points="757.591,-234.452 768.004,-232.497 758.644,-227.531 757.591,-234.452"/>
</g>
<!-- Node15 -->
<g id="node32" class="node"><title>Node15</title>
<a xlink:href="presentationParametersControlWidget_8h.html" target="_top" xlink:title="applications/base/presentationParametersControlWidget.h">
<polygon fill="none" stroke="black" points="689.5,-174.5 689.5,-195.5 984.5,-195.5 984.5,-174.5 689.5,-174.5"/>
<text text-anchor="middle" x="837" y="-182.5" font-family="FreeSans.ttf" font-size="10.00">applications/base/presentationParametersControlWidget.h</text>
</a>
</g>
<!-- Node2&#45;&gt;Node15 -->
<g id="edge34" class="edge"><title>Node2&#45;&gt;Node15</title>
<path fill="none" stroke="midnightblue" d="M837,-222.191C837,-213.168 837,-202.994 837,-195.571"/>
<polygon fill="midnightblue" stroke="midnightblue" points="833.5,-222.362 837,-232.362 840.5,-222.362 833.5,-222.362"/>
</g>
<!-- Node21 -->
<g id="node47" class="node"><title>Node21</title>
<a xlink:href="presentationParameters_8cpp.html" target="_top" xlink:title="applications/base/generatedParameters/presentationParameters.cpp">
<polygon fill="none" stroke="black" points="1001.5,-174.5 1001.5,-195.5 1348.5,-195.5 1348.5,-174.5 1001.5,-174.5"/>
<text text-anchor="middle" x="1175" y="-182.5" font-family="FreeSans.ttf" font-size="10.00">applications/base/generatedParameters/presentationParameters.cpp</text>
</a>
</g>
<!-- Node2&#45;&gt;Node21 -->
<g id="edge52" class="edge"><title>Node2&#45;&gt;Node21</title>
<path fill="none" stroke="midnightblue" d="M908.13,-230.794C969.026,-220.345 1055.79,-205.456 1113.68,-195.523"/>
<polygon fill="midnightblue" stroke="midnightblue" points="907.473,-227.356 898.209,-232.497 908.657,-234.255 907.473,-227.356"/>
</g>
<!-- Node4 -->
<g id="node7" class="node"><title>Node4</title>
<a xlink:href="baseCalculationThread_8cpp.html" target="_top" xlink:title="Implements a basic calculation thread that performs a simple transform on the captured frames and pro...">
<polygon fill="none" stroke="black" points="0,-116.5 0,-137.5 232,-137.5 232,-116.5 0,-116.5"/>
<text text-anchor="middle" x="116" y="-124.5" font-family="FreeSans.ttf" font-size="10.00">applications/base/baseCalculationThread.cpp</text>
</a>
</g>
<!-- Node3&#45;&gt;Node4 -->
<g id="edge6" class="edge"><title>Node3&#45;&gt;Node4</title>
<path fill="none" stroke="midnightblue" d="M384.45,-172.794C323.193,-162.345 235.914,-147.456 177.687,-137.523"/>
<polygon fill="midnightblue" stroke="midnightblue" points="383.982,-176.265 394.429,-174.497 385.16,-169.365 383.982,-176.265"/>
</g>
<!-- Node5 -->
<g id="node9" class="node"><title>Node5</title>
<a xlink:href="baseHostDialog_8h.html" target="_top" xlink:title="applications/base/baseHostDialog.h">
<polygon fill="none" stroke="black" points="470,-116.5 470,-137.5 658,-137.5 658,-116.5 470,-116.5"/>
<text text-anchor="middle" x="564" y="-124.5" font-family="FreeSans.ttf" font-size="10.00">applications/base/baseHostDialog.h</text>
</a>
</g>
<!-- Node3&#45;&gt;Node5 -->
<g id="edge8" class="edge"><title>Node3&#45;&gt;Node5</title>
<path fill="none" stroke="midnightblue" d="M484.572,-169.656C503.378,-159.556 527.517,-146.593 544.223,-137.621"/>
<polygon fill="midnightblue" stroke="midnightblue" points="482.712,-166.682 475.558,-174.497 486.024,-172.849 482.712,-166.682"/>
</g>
<!-- Node13 -->
<g id="node27" class="node"><title>Node13</title>
<a xlink:href="recorderThread_8h.html" target="_top" xlink:title="applications/recorder/recorderThread.h">
<polygon fill="none" stroke="black" points="249.5,-116.5 249.5,-137.5 452.5,-137.5 452.5,-116.5 249.5,-116.5"/>
<text text-anchor="middle" x="351" y="-124.5" font-family="FreeSans.ttf" font-size="10.00">applications/recorder/recorderThread.h</text>
</a>
</g>
<!-- Node3&#45;&gt;Node13 -->
<g id="edge28" class="edge"><title>Node3&#45;&gt;Node13</title>
<path fill="none" stroke="midnightblue" d="M427.971,-169.517C409.689,-159.419 386.308,-146.503 370.137,-137.571"/>
<polygon fill="midnightblue" stroke="midnightblue" points="426.296,-172.59 436.741,-174.362 429.68,-166.463 426.296,-172.59"/>
</g>
<!-- Node6 -->
<g id="node11" class="node"><title>Node6</title>
<a xlink:href="baseHostDialog_8cpp.html" target="_top" xlink:title="Implements a basic host dialog that uses BaseCalculationThread to process captured data Extend or rei...">
<polygon fill="none" stroke="black" points="719.5,-58.5 719.5,-79.5 918.5,-79.5 918.5,-58.5 719.5,-58.5"/>
<text text-anchor="middle" x="819" y="-66.5" font-family="FreeSans.ttf" font-size="10.00">applications/base/baseHostDialog.cpp</text>
</a>
</g>
<!-- Node5&#45;&gt;Node6 -->
<g id="edge10" class="edge"><title>Node5&#45;&gt;Node6</title>
<path fill="none" stroke="midnightblue" d="M619.952,-114.274C665.759,-103.855 729.785,-89.2921 772.735,-79.5231"/>
<polygon fill="midnightblue" stroke="midnightblue" points="619.153,-110.866 610.179,-116.497 620.706,-117.692 619.153,-110.866"/>
</g>
<!-- Node7 -->
<g id="node13" class="node"><title>Node7</title>
<a xlink:href="main__vibase_8cpp.html" target="_top" xlink:title="applications/base/main_vibase.cpp">
<polygon fill="none" stroke="black" points="600.5,-0.5 600.5,-21.5 783.5,-21.5 783.5,-0.5 600.5,-0.5"/>
<text text-anchor="middle" x="692" y="-8.5" font-family="FreeSans.ttf" font-size="10.00">applications/base/main_vibase.cpp</text>
</a>
</g>
<!-- Node5&#45;&gt;Node7 -->
<g id="edge12" class="edge"><title>Node5&#45;&gt;Node7</title>
<path fill="none" stroke="midnightblue" d="M621.474,-113.059C640.189,-105.949 659.578,-95.4214 673,-80 687.52,-63.3173 691.034,-36.4753 691.827,-21.6672"/>
<polygon fill="midnightblue" stroke="midnightblue" points="620.052,-109.849 611.784,-116.474 622.379,-116.451 620.052,-109.849"/>
</g>
<!-- Node8 -->
<g id="node15" class="node"><title>Node8</title>
<a xlink:href="mainWindow_8h.html" target="_top" xlink:title="applications/base/mainWindow.h">
<polygon fill="none" stroke="black" points="276,-58.5 276,-79.5 446,-79.5 446,-58.5 276,-58.5"/>
<text text-anchor="middle" x="361" y="-66.5" font-family="FreeSans.ttf" font-size="10.00">applications/base/mainWindow.h</text>
</a>
</g>
<!-- Node5&#45;&gt;Node8 -->
<g id="edge14" class="edge"><title>Node5&#45;&gt;Node8</title>
<path fill="none" stroke="midnightblue" d="M517.378,-113.68C481.075,-103.307 431.377,-89.1078 397.831,-79.5231"/>
<polygon fill="midnightblue" stroke="midnightblue" points="516.661,-117.115 527.238,-116.497 518.585,-110.384 516.661,-117.115"/>
</g>
<!-- Node11 -->
<g id="node22" class="node"><title>Node11</title>
<a xlink:href="recorderDialog_8h.html" target="_top" xlink:title="Defines a recorder dialog class derived from BaseHostDialog.">
<polygon fill="none" stroke="black" points="464,-58.5 464,-79.5 664,-79.5 664,-58.5 464,-58.5"/>
<text text-anchor="middle" x="564" y="-66.5" font-family="FreeSans.ttf" font-size="10.00">applications/recorder/recorderDialog.h</text>
</a>
</g>
<!-- Node5&#45;&gt;Node11 -->
<g id="edge22" class="edge"><title>Node5&#45;&gt;Node11</title>
<path fill="none" stroke="midnightblue" d="M564,-106.191C564,-97.1684 564,-86.9941 564,-79.5707"/>
<polygon fill="midnightblue" stroke="midnightblue" points="560.5,-106.362 564,-116.362 567.5,-106.362 560.5,-106.362"/>
</g>
<!-- Node8&#45;&gt;Node7 -->
<g id="edge16" class="edge"><title>Node8&#45;&gt;Node7</title>
<path fill="none" stroke="midnightblue" d="M431.026,-56.7296C490.642,-46.2833 575.377,-31.4354 631.946,-21.5231"/>
<polygon fill="midnightblue" stroke="midnightblue" points="430.187,-53.3231 420.942,-58.4966 431.396,-60.2181 430.187,-53.3231"/>
</g>
<!-- Node9 -->
<g id="node18" class="node"><title>Node9</title>
<a xlink:href="mainWindow_8cpp.html" target="_top" xlink:title="applications/base/mainWindow.cpp">
<polygon fill="none" stroke="black" points="167,-0.5 167,-21.5 349,-21.5 349,-0.5 167,-0.5"/>
<text text-anchor="middle" x="258" y="-8.5" font-family="FreeSans.ttf" font-size="10.00">applications/base/mainWindow.cpp</text>
</a>
</g>
<!-- Node8&#45;&gt;Node9 -->
<g id="edge18" class="edge"><title>Node8&#45;&gt;Node9</title>
<path fill="none" stroke="midnightblue" d="M333.259,-53.379C315.362,-43.3011 292.563,-30.4624 276.772,-21.5707"/>
<polygon fill="midnightblue" stroke="midnightblue" points="331.677,-56.505 342.108,-58.3619 335.112,-50.4055 331.677,-56.505"/>
</g>
<!-- Node10 -->
<g id="node20" class="node"><title>Node10</title>
<a xlink:href="main__virecorder_8cpp.html" target="_top" xlink:title="applications/recorder/main_virecorder.cpp">
<polygon fill="none" stroke="black" points="366.5,-0.5 366.5,-21.5 583.5,-21.5 583.5,-0.5 366.5,-0.5"/>
<text text-anchor="middle" x="475" y="-8.5" font-family="FreeSans.ttf" font-size="10.00">applications/recorder/main_virecorder.cpp</text>
</a>
</g>
<!-- Node8&#45;&gt;Node10 -->
<g id="edge20" class="edge"><title>Node8&#45;&gt;Node10</title>
<path fill="none" stroke="midnightblue" d="M390.617,-53.9319C410.544,-43.7932 436.329,-30.6748 454.124,-21.6212"/>
<polygon fill="midnightblue" stroke="midnightblue" points="388.97,-50.8425 381.645,-58.4966 392.144,-57.0815 388.97,-50.8425"/>
</g>
<!-- Node11&#45;&gt;Node10 -->
<g id="edge24" class="edge"><title>Node11&#45;&gt;Node10</title>
<path fill="none" stroke="midnightblue" d="M539.174,-52.8215C523.844,-42.8312 504.614,-30.2993 491.22,-21.5707"/>
<polygon fill="midnightblue" stroke="midnightblue" points="537.387,-55.8344 547.676,-58.3619 541.209,-49.9698 537.387,-55.8344"/>
</g>
<!-- Node12 -->
<g id="node25" class="node"><title>Node12</title>
<a xlink:href="recorderDialog_8cpp.html" target="_top" xlink:title="Implements frame recording dialog based on BaseHostDialog.">
<polygon fill="none" stroke="black" points="998.5,-0.5 998.5,-21.5 1209.5,-21.5 1209.5,-0.5 998.5,-0.5"/>
<text text-anchor="middle" x="1104" y="-8.5" font-family="FreeSans.ttf" font-size="10.00">applications/recorder/recorderDialog.cpp</text>
</a>
</g>
<!-- Node11&#45;&gt;Node12 -->
<g id="edge26" class="edge"><title>Node11&#45;&gt;Node12</title>
<path fill="none" stroke="midnightblue" d="M671.97,-57.4032C769.481,-46.9298 911.737,-31.6505 1006.03,-21.5231"/>
<polygon fill="midnightblue" stroke="midnightblue" points="671.359,-53.9486 661.79,-58.4966 672.107,-60.9086 671.359,-53.9486"/>
</g>
<!-- Node13&#45;&gt;Node11 -->
<g id="edge30" class="edge"><title>Node13&#45;&gt;Node11</title>
<path fill="none" stroke="midnightblue" d="M399.431,-113.812C437.564,-103.428 490.006,-89.1487 525.355,-79.5231"/>
<polygon fill="midnightblue" stroke="midnightblue" points="398.302,-110.492 389.573,-116.497 400.141,-117.246 398.302,-110.492"/>
</g>
<!-- Node14 -->
<g id="node30" class="node"><title>Node14</title>
<a xlink:href="recorderThread_8cpp.html" target="_top" xlink:title="Implements a frame recording calculation thread based on BaseCalculationThread.">
<polygon fill="none" stroke="black" points="44,-58.5 44,-79.5 258,-79.5 258,-58.5 44,-58.5"/>
<text text-anchor="middle" x="151" y="-66.5" font-family="FreeSans.ttf" font-size="10.00">applications/recorder/recorderThread.cpp</text>
</a>
</g>
<!-- Node13&#45;&gt;Node14 -->
<g id="edge32" class="edge"><title>Node13&#45;&gt;Node14</title>
<path fill="none" stroke="midnightblue" d="M305.067,-113.68C269.3,-103.307 220.337,-89.1078 187.286,-79.5231"/>
<polygon fill="midnightblue" stroke="midnightblue" points="304.202,-117.073 314.782,-116.497 306.152,-110.35 304.202,-117.073"/>
</g>
<!-- Node15&#45;&gt;Node5 -->
<g id="edge36" class="edge"><title>Node15&#45;&gt;Node5</title>
<path fill="none" stroke="midnightblue" d="M777.714,-172.404C728.633,-161.977 659.706,-147.333 613.531,-137.523"/>
<polygon fill="midnightblue" stroke="midnightblue" points="777.053,-175.842 787.562,-174.497 778.507,-168.995 777.053,-175.842"/>
</g>
<!-- Node16 -->
<g id="node35" class="node"><title>Node16</title>
<a xlink:href="parametersMapperBase_8h.html" target="_top" xlink:title="applications/base/parametersMapper/parametersMapperBase.h">
<polygon fill="none" stroke="black" points="675.5,-116.5 675.5,-137.5 998.5,-137.5 998.5,-116.5 675.5,-116.5"/>
<text text-anchor="middle" x="837" y="-124.5" font-family="FreeSans.ttf" font-size="10.00">applications/base/parametersMapper/parametersMapperBase.h</text>
</a>
</g>
<!-- Node15&#45;&gt;Node16 -->
<g id="edge38" class="edge"><title>Node15&#45;&gt;Node16</title>
<path fill="none" stroke="midnightblue" d="M837,-164.191C837,-155.168 837,-144.994 837,-137.571"/>
<polygon fill="midnightblue" stroke="midnightblue" points="833.5,-164.362 837,-174.362 840.5,-164.362 833.5,-164.362"/>
</g>
<!-- Node18 -->
<g id="node40" class="node"><title>Node18</title>
<a xlink:href="presentationParametersControlWidget_8cpp.html" target="_top" xlink:title="applications/base/presentationParametersControlWidget.cpp">
<polygon fill="none" stroke="black" points="1016,-116.5 1016,-137.5 1322,-137.5 1322,-116.5 1016,-116.5"/>
<text text-anchor="middle" x="1169" y="-124.5" font-family="FreeSans.ttf" font-size="10.00">applications/base/presentationParametersControlWidget.cpp</text>
</a>
</g>
<!-- Node15&#45;&gt;Node18 -->
<g id="edge44" class="edge"><title>Node15&#45;&gt;Node18</title>
<path fill="none" stroke="midnightblue" d="M907.237,-172.73C967.034,-162.283 1052.02,-147.435 1108.76,-137.523"/>
<polygon fill="midnightblue" stroke="midnightblue" points="906.371,-169.328 897.123,-174.497 907.576,-176.223 906.371,-169.328"/>
</g>
<!-- Node19 -->
<g id="node42" class="node"><title>Node19</title>
<a xlink:href="parametersMapperRecorder_8h.html" target="_top" xlink:title="applications/recorder/parametersMapper/parametersMapperRecorder.h">
<polygon fill="none" stroke="black" points="1340,-116.5 1340,-137.5 1698,-137.5 1698,-116.5 1340,-116.5"/>
<text text-anchor="middle" x="1519" y="-124.5" font-family="FreeSans.ttf" font-size="10.00">applications/recorder/parametersMapper/parametersMapperRecorder.h</text>
</a>
</g>
<!-- Node15&#45;&gt;Node19 -->
<g id="edge46" class="edge"><title>Node15&#45;&gt;Node19</title>
<path fill="none" stroke="midnightblue" d="M970.756,-173.625C1093.97,-163.146 1275.34,-147.722 1395.26,-137.523"/>
<polygon fill="midnightblue" stroke="midnightblue" points="970.172,-170.162 960.505,-174.497 970.766,-177.137 970.172,-170.162"/>
</g>
<!-- Node16&#45;&gt;Node6 -->
<g id="edge40" class="edge"><title>Node16&#45;&gt;Node6</title>
<path fill="none" stroke="midnightblue" d="M830.726,-106.784C827.881,-97.617 824.635,-87.1572 822.281,-79.5707"/>
<polygon fill="midnightblue" stroke="midnightblue" points="827.392,-107.849 833.699,-116.362 834.077,-105.774 827.392,-107.849"/>
</g>
<!-- Node17 -->
<g id="node38" class="node"><title>Node17</title>
<a xlink:href="parametersMapperBase_8cpp.html" target="_top" xlink:title="applications/base/parametersMapper/parametersMapperBase.cpp">
<polygon fill="none" stroke="black" points="935.5,-58.5 935.5,-79.5 1270.5,-79.5 1270.5,-58.5 935.5,-58.5"/>
<text text-anchor="middle" x="1103" y="-66.5" font-family="FreeSans.ttf" font-size="10.00">applications/base/parametersMapper/parametersMapperBase.cpp</text>
</a>
</g>
<!-- Node16&#45;&gt;Node17 -->
<g id="edge42" class="edge"><title>Node16&#45;&gt;Node17</title>
<path fill="none" stroke="midnightblue" d="M895.065,-114.339C942.868,-103.916 1009.84,-89.3126 1054.74,-79.5231"/>
<polygon fill="midnightblue" stroke="midnightblue" points="894.195,-110.947 885.171,-116.497 895.687,-117.786 894.195,-110.947"/>
</g>
<!-- Node19&#45;&gt;Node12 -->
<g id="edge50" class="edge"><title>Node19&#45;&gt;Node12</title>
<path fill="none" stroke="midnightblue" d="M1453.37,-114.412C1415.59,-106.328 1367.51,-94.6054 1326,-80 1304.24,-72.3447 1300.67,-65.9105 1279,-58 1237.04,-42.6787 1187.78,-29.8936 1152.24,-21.5451"/>
<polygon fill="midnightblue" stroke="midnightblue" points="1452.74,-117.855 1463.24,-116.492 1454.18,-111.005 1452.74,-117.855"/>
</g>
<!-- Node20 -->
<g id="node44" class="node"><title>Node20</title>
<a xlink:href="parametersMapperRecorder_8cpp.html" target="_top" xlink:title="applications/recorder/parametersMapper/parametersMapperRecorder.cpp">
<polygon fill="none" stroke="black" points="1334.5,-58.5 1334.5,-79.5 1703.5,-79.5 1703.5,-58.5 1334.5,-58.5"/>
<text text-anchor="middle" x="1519" y="-66.5" font-family="FreeSans.ttf" font-size="10.00">applications/recorder/parametersMapper/parametersMapperRecorder.cpp</text>
</a>
</g>
<!-- Node19&#45;&gt;Node20 -->
<g id="edge48" class="edge"><title>Node19&#45;&gt;Node20</title>
<path fill="none" stroke="midnightblue" d="M1519,-106.191C1519,-97.1684 1519,-86.9941 1519,-79.5707"/>
<polygon fill="midnightblue" stroke="midnightblue" points="1515.5,-106.362 1519,-116.362 1522.5,-106.362 1515.5,-106.362"/>
</g>
</g>
</svg>
        <g id="navigator" transform="translate(0 0)" fill="#404254">
                <rect fill="#f2f5e9" fill-opacity="0.5" stroke="#606060" stroke-width=".5" x="0" y="0" width="60" height="60"/>
                <use id="zoomplus" xlink:href="#zoomPlus" x="17" y="9" onmousedown="handleZoom(evt,'in')"/>
                <use id="zoomminus" xlink:href="#zoomMin" x="42" y="9" onmousedown="handleZoom(evt,'out')"/>
                <use id="reset" xlink:href="#resetDef" x="30" y="36" onmousedown="handleReset()"/>
                <g id="arrowUp" xlink:href="#dirArrow" transform="translate(30 24)" onmousedown="handlePan(0,-1)">
                  <use xlink:href="#rim" fill="#404040">
                        <set attributeName="fill" to="#808080" begin="arrowUp.mouseover" end="arrowUp.mouseout"/>
                  </use>
                  <path fill="none" stroke="white" stroke-width="1.5" d="M0,-3.0v7 M-2.5,-0.5L0,-3.0L2.5,-0.5"/>
                </g>
                <g id="arrowRight" xlink:href="#dirArrow" transform="rotate(90) translate(36 -43)" onmousedown="handlePan(1,0)">
                  <use xlink:href="#rim" fill="#404040">
                        <set attributeName="fill" to="#808080" begin="arrowRight.mouseover" end="arrowRight.mouseout"/>
                  </use>
                  <path fill="none" stroke="white" stroke-width="1.5" d="M0,-3.0v7 M-2.5,-0.5L0,-3.0L2.5,-0.5"/>
                </g>
                <g id="arrowDown" xlink:href="#dirArrow" transform="rotate(180) translate(-30 -48)" onmousedown="handlePan(0,1)">
                  <use xlink:href="#rim" fill="#404040">
                        <set attributeName="fill" to="#808080" begin="arrowDown.mouseover" end="arrowDown.mouseout"/>
                  </use>
                  <path fill="none" stroke="white" stroke-width="1.5" d="M0,-3.0v7 M-2.5,-0.5L0,-3.0L2.5,-0.5"/>
                </g>
                <g id="arrowLeft" xlink:href="#dirArrow" transform="rotate(270) translate(-36 17)" onmousedown="handlePan(-1,0)">
                  <use xlink:href="#rim" fill="#404040">
                        <set attributeName="fill" to="#808080" begin="arrowLeft.mouseover" end="arrowLeft.mouseout"/>
                  </use>
                  <path fill="none" stroke="white" stroke-width="1.5" d="M0,-3.0v7 M-2.5,-0.5L0,-3.0L2.5,-0.5"/>
                </g>
        </g>
</svg>
