<?xml version="1.0" encoding="UTF-8" standalone="no"?>
<!DOCTYPE svg PUBLIC "-//W3C//DTD SVG 1.1//EN"
 "http://www.w3.org/Graphics/SVG/1.1/DTD/svg11.dtd">
<!-- Generated by graphviz version 2.26.3 (20100126.1600)
 -->
<!-- Title: G Pages: 1 -->
<svg width="392pt" height="88pt"
 viewBox="0.00 0.00 392.00 88.00" xmlns="http://www.w3.org/2000/svg" xmlns:xlink="http://www.w3.org/1999/xlink">
<g id="graph1" class="graph" transform="scale(1 1) rotate(0) translate(4 84)">
<title>G</title>
<!-- Node1 -->
<g id="node1" class="node"><title>Node1</title>
<polygon fill="#bfbfbf" stroke="black" points="105.5,-58.5 105.5,-79.5 262.5,-79.5 262.5,-58.5 105.5,-58.5"/>
<text text-anchor="middle" x="184" y="-66.5" font-family="FreeSans.ttf" font-size="10.00">utils/widgets/foldableWidget.h</text>
</g>
<!-- Node2 -->
<g id="node3" class="node"><title>Node2</title>
<a xlink:href="foldableWidget_8cpp.html" target="_top" xlink:title="utils/widgets/foldableWidget.cpp">
<polygon fill="none" stroke="black" points="0,-0.5 0,-21.5 168,-21.5 168,-0.5 0,-0.5"/>
<text text-anchor="middle" x="84" y="-8.5" font-family="FreeSans.ttf" font-size="10.00">utils/widgets/foldableWidget.cpp</text>
</a>
</g>
<!-- Node1&#45;&gt;Node2 -->
<g id="edge2" class="edge"><title>Node1&#45;&gt;Node2</title>
<path fill="none" stroke="midnightblue" d="M156.588,-53.1009C139.286,-43.0658 117.415,-30.3808 102.225,-21.5707"/>
<polygon fill="midnightblue" stroke="midnightblue" points="155.252,-56.3723 165.658,-58.3619 158.764,-50.3171 155.252,-56.3723"/>
</g>
<!-- Node3 -->
<g id="node5" class="node"><title>Node3</title>
<a xlink:href="baseHostDialog_8cpp.html" target="_top" xlink:title="Implements a basic host dialog that uses BaseCalculationThread to process captured data Extend or rei...">
<polygon fill="none" stroke="black" points="185.5,-0.5 185.5,-21.5 384.5,-21.5 384.5,-0.5 185.5,-0.5"/>
<text text-anchor="middle" x="285" y="-8.5" font-family="FreeSans.ttf" font-size="10.00">applications/base/baseHostDialog.cpp</text>
</a>
</g>
<!-- Node1&#45;&gt;Node3 -->
<g id="edge4" class="edge"><title>Node1&#45;&gt;Node3</title>
<path fill="none" stroke="midnightblue" d="M211.202,-53.379C228.752,-43.3011 251.109,-30.4624 266.592,-21.5707"/>
<polygon fill="midnightblue" stroke="midnightblue" points="209.454,-50.3468 202.525,-58.3619 212.94,-56.4171 209.454,-50.3468"/>
</g>
</g>
</svg>
