<?xml version="1.0" encoding="UTF-8" standalone="no"?>
<!DOCTYPE svg PUBLIC "-//W3C//DTD SVG 1.1//EN"
 "http://www.w3.org/Graphics/SVG/1.1/DTD/svg11.dtd">
<!-- Generated by graphviz version 2.26.3 (20100126.1600)
 -->
<!-- Title: G Pages: 1 -->
<!--zoomable 436 -->
<svg id="main" version="1.1" xmlns="http://www.w3.org/2000/svg" xmlns:xlink="http://www.w3.org/1999/xlink" xml:space="preserve" onload="init(evt)">
        <defs>
                <circle id="rim" cx="0" cy="0" r="7"/>
                <circle id="rim2" cx="0" cy="0" r="3.5"/>
                <g id="zoomPlus">
                        <use xlink:href="#rim" fill="#404040">
                                <set attributeName="fill" to="#808080" begin="zoomplus.mouseover" end="zoomplus.mouseout"/>
                        </use>
                        <path d="M-4,0h8M0,-4v8" fill="none" stroke="white" stroke-width="1.5" pointer-events="none"/>
                </g>
                <g id="zoomMin">
                        <use xlink:href="#rim" fill="#404040">
                                <set attributeName="fill" to="#808080" begin="zoomminus.mouseover" end="zoomminus.mouseout"/>
                        </use>
                        <path d="M-4,0h8" fill="none" stroke="white" stroke-width="1.5" pointer-events="none"/>
                </g>
                <g id="dirArrow">
                        <path fill="none" stroke="white" stroke-width="1.5" d="M0,-3.0v7 M-2.5,-0.5L0,-3.0L2.5,-0.5"/>
                </g>
               <g id="resetDef">
                       <use xlink:href="#rim2" fill="#404040">
                               <set attributeName="fill" to="#808080" begin="reset.mouseover" end="reset.mouseout"/>
                       </use>
               </g>
        </defs>

<script type="text/javascript">
var viewWidth = 1020;
var viewHeight = 436;
var sectionId = 'dynsection-0';
</script>
<script xlink:href="svgpan.js"/>
<svg id="graph" class="graph">
<g id="viewport">
<title>G</title>
<!-- Node1 -->
<g id="node1" class="node"><title>Node1</title>
<polygon fill="#bfbfbf" stroke="black" points="583.844,-406.5 583.844,-427.5 854.844,-427.5 854.844,-406.5 583.844,-406.5"/>
<text text-anchor="middle" x="719.344" y="-414.5" font-family="FreeSans.ttf" font-size="10.00">utils/filters/ui/gainOffsetParametersControlWidget.cpp</text>
</g>
<!-- Node2 -->
<g id="node3" class="node"><title>Node2</title>
<a xlink:href="gainOffsetParametersControlWidget_8h.html" target="_top" xlink:title="gainOffsetParametersControlWidget.h">
<polygon fill="none" stroke="black" points="382.844,-348.5 382.844,-369.5 579.844,-369.5 579.844,-348.5 382.844,-348.5"/>
<text text-anchor="middle" x="481.344" y="-356.5" font-family="FreeSans.ttf" font-size="10.00">gainOffsetParametersControlWidget.h</text>
</a>
</g>
<!-- Node1&#45;&gt;Node2 -->
<g id="edge2" class="edge"><title>Node1&#45;&gt;Node2</title>
<path fill="none" stroke="midnightblue" d="M676.244,-406.497C636.435,-396.795 577.179,-382.355 534.461,-371.945"/>
<polygon fill="midnightblue" stroke="midnightblue" points="535.069,-368.49 524.524,-369.523 533.411,-375.291 535.069,-368.49"/>
</g>
<!-- Node15 -->
<g id="node33" class="node"><title>Node15</title>
<a xlink:href="qSettingsSetter_8h.html" target="_top" xlink:title="visitors/qSettingsSetter.h">
<polygon fill="none" stroke="black" points="719.844,-174.5 719.844,-195.5 856.844,-195.5 856.844,-174.5 719.844,-174.5"/>
<text text-anchor="middle" x="788.344" y="-182.5" font-family="FreeSans.ttf" font-size="10.00">visitors/qSettingsSetter.h</text>
</a>
</g>
<!-- Node1&#45;&gt;Node15 -->
<g id="edge98" class="edge"><title>Node1&#45;&gt;Node15</title>
<path fill="none" stroke="midnightblue" d="M722.488,-406.429C733.152,-370.573 768.069,-253.169 782.263,-205.446"/>
<polygon fill="midnightblue" stroke="midnightblue" points="785.685,-206.216 785.181,-195.634 778.976,-204.221 785.685,-206.216"/>
</g>
<!-- Node21 -->
<g id="node49" class="node"><title>Node21</title>
<a xlink:href="qSettingsGetter_8h.html" target="_top" xlink:title="visitors/qSettingsGetter.h">
<polygon fill="none" stroke="black" points="874.344,-174.5 874.344,-195.5 1012.34,-195.5 1012.34,-174.5 874.344,-174.5"/>
<text text-anchor="middle" x="943.344" y="-182.5" font-family="FreeSans.ttf" font-size="10.00">visitors/qSettingsGetter.h</text>
</a>
</g>
<!-- Node1&#45;&gt;Node21 -->
<g id="edge96" class="edge"><title>Node1&#45;&gt;Node21</title>
<path fill="none" stroke="midnightblue" d="M729.551,-406.429C764.753,-369.969 881.366,-249.191 925.873,-203.095"/>
<polygon fill="midnightblue" stroke="midnightblue" points="928.649,-205.259 933.077,-195.634 923.613,-200.396 928.649,-205.259"/>
</g>
<!-- Node29 -->
<g id="node75" class="node"><title>Node29</title>
<polygon fill="none" stroke="#bfbfbf" points="499.344,-290.5 499.344,-311.5 709.344,-311.5 709.344,-290.5 499.344,-290.5"/>
<text text-anchor="middle" x="604.344" y="-298.5" font-family="FreeSans.ttf" font-size="10.00">ui_gainOffsetParametersControlWidget.h</text>
</g>
<!-- Node1&#45;&gt;Node29 -->
<g id="edge94" class="edge"><title>Node1&#45;&gt;Node29</title>
<path fill="none" stroke="midnightblue" d="M708.731,-406.295C688.962,-386.355 646.316,-343.337 622.095,-318.906"/>
<polygon fill="midnightblue" stroke="midnightblue" points="624.457,-316.317 614.931,-311.679 619.486,-321.245 624.457,-316.317"/>
</g>
<!-- Node3 -->
<g id="node5" class="node"><title>Node3</title>
<a xlink:href="filterParametersControlWidgetBase_8h.html" target="_top" xlink:title="filterParametersControlWidgetBase.h">
<polygon fill="none" stroke="black" points="238.844,-290.5 238.844,-311.5 431.844,-311.5 431.844,-290.5 238.844,-290.5"/>
<text text-anchor="middle" x="335.344" y="-298.5" font-family="FreeSans.ttf" font-size="10.00">filterParametersControlWidgetBase.h</text>
</a>
</g>
<!-- Node2&#45;&gt;Node3 -->
<g id="edge4" class="edge"><title>Node2&#45;&gt;Node3</title>
<path fill="none" stroke="midnightblue" d="M454.904,-348.497C431.587,-339.234 397.393,-325.65 371.54,-315.379"/>
<polygon fill="midnightblue" stroke="midnightblue" points="372.666,-312.06 362.08,-311.621 370.081,-318.566 372.666,-312.06"/>
</g>
<!-- Node25 -->
<g id="node62" class="node"><title>Node25</title>
<a xlink:href="gainOffsetParameters_8h.html" target="_top" xlink:title="generated/gainOffsetParameters.h">
<polygon fill="none" stroke="black" points="60.3437,-232.5 60.3437,-253.5 242.344,-253.5 242.344,-232.5 60.3437,-232.5"/>
<text text-anchor="middle" x="151.344" y="-240.5" font-family="FreeSans.ttf" font-size="10.00">generated/gainOffsetParameters.h</text>
</a>
</g>
<!-- Node2&#45;&gt;Node25 -->
<g id="edge74" class="edge"><title>Node2&#45;&gt;Node25</title>
<path fill="none" stroke="midnightblue" d="M399.841,-348.472C338.34,-339.65 259.713,-326.242 230.344,-312 205.089,-299.753 181.607,-277.241 166.919,-261.264"/>
<polygon fill="midnightblue" stroke="midnightblue" points="169.345,-258.726 160.076,-253.594 164.121,-263.386 169.345,-258.726"/>
</g>
<!-- Node2&#45;&gt;Node29 -->
<g id="edge92" class="edge"><title>Node2&#45;&gt;Node29</title>
<path fill="none" stroke="midnightblue" d="M503.618,-348.497C522.916,-339.397 551.057,-326.127 572.692,-315.925"/>
<polygon fill="midnightblue" stroke="midnightblue" points="574.267,-319.052 581.819,-311.621 571.282,-312.721 574.267,-319.052"/>
</g>
<!-- Node4 -->
<g id="node7" class="node"><title>Node4</title>
<polygon fill="none" stroke="#bfbfbf" points="298.344,-174.5 298.344,-195.5 372.344,-195.5 372.344,-174.5 298.344,-174.5"/>
<text text-anchor="middle" x="335.344" y="-182.5" font-family="FreeSans.ttf" font-size="10.00">QtGui/QtGui</text>
</g>
<!-- Node3&#45;&gt;Node4 -->
<g id="edge6" class="edge"><title>Node3&#45;&gt;Node4</title>
<path fill="none" stroke="midnightblue" d="M335.344,-290.295C335.344,-271.131 335.344,-230.654 335.344,-205.843"/>
<polygon fill="midnightblue" stroke="midnightblue" points="338.844,-205.679 335.344,-195.679 331.844,-205.679 338.844,-205.679"/>
</g>
<!-- Node5 -->
<g id="node9" class="node"><title>Node5</title>
<a xlink:href="global_8h.html" target="_top" xlink:title="This file holds the global includes, mostly for debuging, tracing and profiling.">
<polygon fill="none" stroke="black" points="107.344,-58.5 107.344,-79.5 161.344,-79.5 161.344,-58.5 107.344,-58.5"/>
<text text-anchor="middle" x="134.344" y="-66.5" font-family="FreeSans.ttf" font-size="10.00">global.h</text>
</a>
</g>
<!-- Node3&#45;&gt;Node5 -->
<g id="edge8" class="edge"><title>Node3&#45;&gt;Node5</title>
<path fill="none" stroke="midnightblue" d="M238.824,-292.3C169.396,-284.694 82.7017,-272.027 51.3437,-254 22.3349,-237.324 14.6809,-227.481 3.34366,-196 -15.494,-143.692 53.0765,-103.412 98.0544,-83.255"/>
<polygon fill="midnightblue" stroke="midnightblue" points="99.4745,-86.4542 107.254,-79.2621 96.6875,-80.0329 99.4745,-86.4542"/>
</g>
<!-- Node7 -->
<g id="node13" class="node"><title>Node7</title>
<a xlink:href="reflection_8h.html" target="_top" xlink:title="a header for Reflection.c">
<polygon fill="none" stroke="black" points="377.344,-116.5 377.344,-137.5 447.344,-137.5 447.344,-116.5 377.344,-116.5"/>
<text text-anchor="middle" x="412.344" y="-124.5" font-family="FreeSans.ttf" font-size="10.00">reflection.h</text>
</a>
</g>
<!-- Node3&#45;&gt;Node7 -->
<g id="edge12" class="edge"><title>Node3&#45;&gt;Node7</title>
<path fill="none" stroke="midnightblue" d="M325.276,-290.286C304.931,-267.302 263.015,-212.246 289.344,-174 298.642,-160.492 336.152,-147.363 367.33,-138.43"/>
<polygon fill="midnightblue" stroke="midnightblue" points="368.494,-141.739 377.187,-135.682 366.615,-134.996 368.494,-141.739"/>
</g>
<!-- Node14 -->
<g id="node28" class="node"><title>Node14</title>
<a xlink:href="parametersControlWidgetBase_8h.html" target="_top" xlink:title="parametersControlWidgetBase.h">
<polygon fill="none" stroke="black" points="398.844,-232.5 398.844,-253.5 571.844,-253.5 571.844,-232.5 398.844,-232.5"/>
<text text-anchor="middle" x="485.344" y="-240.5" font-family="FreeSans.ttf" font-size="10.00">parametersControlWidgetBase.h</text>
</a>
</g>
<!-- Node3&#45;&gt;Node14 -->
<g id="edge28" class="edge"><title>Node3&#45;&gt;Node14</title>
<path fill="none" stroke="midnightblue" d="M362.508,-290.497C386.644,-281.164 422.125,-267.445 448.755,-257.147"/>
<polygon fill="midnightblue" stroke="midnightblue" points="450.064,-260.394 458.129,-253.523 447.54,-253.865 450.064,-260.394"/>
</g>
<!-- Node6 -->
<g id="node11" class="node"><title>Node6</title>
<polygon fill="none" stroke="#bfbfbf" points="102.344,-0.5 102.344,-21.5 166.344,-21.5 166.344,-0.5 102.344,-0.5"/>
<text text-anchor="middle" x="134.344" y="-8.5" font-family="FreeSans.ttf" font-size="10.00">inttypes.h</text>
</g>
<!-- Node5&#45;&gt;Node6 -->
<g id="edge10" class="edge"><title>Node5&#45;&gt;Node6</title>
<path fill="none" stroke="midnightblue" d="M134.344,-58.3619C134.344,-50.9219 134.344,-40.7427 134.344,-31.7276"/>
<polygon fill="midnightblue" stroke="midnightblue" points="137.844,-31.5706 134.344,-21.5707 130.844,-31.5707 137.844,-31.5706"/>
</g>
<!-- Node7&#45;&gt;Node5 -->
<g id="edge26" class="edge"><title>Node7&#45;&gt;Node5</title>
<path fill="none" stroke="midnightblue" d="M377.297,-119.05C372.609,-118.011 367.861,-116.971 363.344,-116 295.792,-101.487 216.815,-85.4917 171.481,-76.4037"/>
<polygon fill="midnightblue" stroke="midnightblue" points="172.014,-72.9409 161.521,-74.4096 170.639,-79.8047 172.014,-72.9409"/>
</g>
<!-- Node8 -->
<g id="node15" class="node"><title>Node8</title>
<polygon fill="none" stroke="#bfbfbf" points="388.844,-58.5 388.844,-79.5 435.844,-79.5 435.844,-58.5 388.844,-58.5"/>
<text text-anchor="middle" x="412.344" y="-66.5" font-family="FreeSans.ttf" font-size="10.00">vector</text>
</g>
<!-- Node7&#45;&gt;Node8 -->
<g id="edge14" class="edge"><title>Node7&#45;&gt;Node8</title>
<path fill="none" stroke="midnightblue" d="M412.344,-116.362C412.344,-108.922 412.344,-98.7427 412.344,-89.7276"/>
<polygon fill="midnightblue" stroke="midnightblue" points="415.844,-89.5706 412.344,-79.5707 408.844,-89.5707 415.844,-89.5706"/>
</g>
<!-- Node9 -->
<g id="node17" class="node"><title>Node9</title>
<polygon fill="none" stroke="#bfbfbf" points="630.344,-58.5 630.344,-79.5 674.344,-79.5 674.344,-58.5 630.344,-58.5"/>
<text text-anchor="middle" x="652.344" y="-66.5" font-family="FreeSans.ttf" font-size="10.00">string</text>
</g>
<!-- Node7&#45;&gt;Node9 -->
<g id="edge16" class="edge"><title>Node7&#45;&gt;Node9</title>
<path fill="none" stroke="midnightblue" d="M447.401,-118.203C450.424,-117.455 453.437,-116.712 456.344,-116 513.973,-101.887 581.246,-85.8506 620.106,-76.63"/>
<polygon fill="midnightblue" stroke="midnightblue" points="621.359,-79.9301 630.282,-74.2173 619.744,-73.1189 621.359,-79.9301"/>
</g>
<!-- Node10 -->
<g id="node19" class="node"><title>Node10</title>
<polygon fill="none" stroke="#bfbfbf" points="452.844,-58.5 452.844,-79.5 505.844,-79.5 505.844,-58.5 452.844,-58.5"/>
<text text-anchor="middle" x="479.344" y="-66.5" font-family="FreeSans.ttf" font-size="10.00">string.h</text>
</g>
<!-- Node7&#45;&gt;Node10 -->
<g id="edge18" class="edge"><title>Node7&#45;&gt;Node10</title>
<path fill="none" stroke="midnightblue" d="M424.632,-116.362C434.36,-107.941 448.142,-96.0105 459.439,-86.2308"/>
<polygon fill="midnightblue" stroke="midnightblue" points="461.863,-88.7619 467.133,-79.5707 457.281,-83.4695 461.863,-88.7619"/>
</g>
<!-- Node11 -->
<g id="node21" class="node"><title>Node11</title>
<polygon fill="none" stroke="#bfbfbf" points="522.844,-58.5 522.844,-79.5 571.844,-79.5 571.844,-58.5 522.844,-58.5"/>
<text text-anchor="middle" x="547.344" y="-66.5" font-family="FreeSans.ttf" font-size="10.00">stdio.h</text>
</g>
<!-- Node7&#45;&gt;Node11 -->
<g id="edge20" class="edge"><title>Node7&#45;&gt;Node11</title>
<path fill="none" stroke="midnightblue" d="M436.791,-116.497C458.161,-107.315 489.413,-93.8889 513.241,-83.6516"/>
<polygon fill="midnightblue" stroke="midnightblue" points="514.816,-86.7845 522.622,-79.6212 512.052,-80.3529 514.816,-86.7845"/>
</g>
<!-- Node12 -->
<g id="node23" class="node"><title>Node12</title>
<polygon fill="none" stroke="#bfbfbf" points="244.844,-58.5 244.844,-79.5 297.844,-79.5 297.844,-58.5 244.844,-58.5"/>
<text text-anchor="middle" x="271.344" y="-66.5" font-family="FreeSans.ttf" font-size="10.00">stdint.h</text>
</g>
<!-- Node7&#45;&gt;Node12 -->
<g id="edge22" class="edge"><title>Node7&#45;&gt;Node12</title>
<path fill="none" stroke="midnightblue" d="M386.81,-116.497C364.39,-107.275 331.559,-93.7695 306.631,-83.5153"/>
<polygon fill="midnightblue" stroke="midnightblue" points="307.744,-80.1886 297.164,-79.6212 305.081,-86.6623 307.744,-80.1886"/>
</g>
<!-- Node13 -->
<g id="node25" class="node"><title>Node13</title>
<polygon fill="none" stroke="#bfbfbf" points="315.344,-58.5 315.344,-79.5 371.344,-79.5 371.344,-58.5 315.344,-58.5"/>
<text text-anchor="middle" x="343.344" y="-66.5" font-family="FreeSans.ttf" font-size="10.00">stdarg.h</text>
</g>
<!-- Node7&#45;&gt;Node13 -->
<g id="edge24" class="edge"><title>Node7&#45;&gt;Node13</title>
<path fill="none" stroke="midnightblue" d="M399.688,-116.362C389.67,-107.941 375.477,-96.0105 363.842,-86.2308"/>
<polygon fill="midnightblue" stroke="midnightblue" points="365.826,-83.326 355.919,-79.5707 361.322,-88.6844 365.826,-83.326"/>
</g>
<!-- Node14&#45;&gt;Node4 -->
<g id="edge30" class="edge"><title>Node14&#45;&gt;Node4</title>
<path fill="none" stroke="midnightblue" d="M458.18,-232.497C434.043,-223.164 398.563,-209.445 371.932,-199.147"/>
<polygon fill="midnightblue" stroke="midnightblue" points="373.148,-195.865 362.558,-195.523 370.623,-202.394 373.148,-195.865"/>
</g>
<!-- Node14&#45;&gt;Node5 -->
<g id="edge32" class="edge"><title>Node14&#45;&gt;Node5</title>
<path fill="none" stroke="midnightblue" d="M471.06,-232.293C451.487,-217.912 414.922,-192.078 381.344,-174 309.375,-135.254 220.063,-100.307 170.966,-82.145"/>
<polygon fill="midnightblue" stroke="midnightblue" points="172.004,-78.7976 161.41,-78.6345 169.59,-85.3682 172.004,-78.7976"/>
</g>
<!-- Node14&#45;&gt;Node7 -->
<g id="edge34" class="edge"><title>Node14&#45;&gt;Node7</title>
<path fill="none" stroke="midnightblue" d="M478.607,-232.295C466.275,-212.7 439.92,-170.82 424.421,-146.191"/>
<polygon fill="midnightblue" stroke="midnightblue" points="427.353,-144.279 419.064,-137.679 421.428,-148.007 427.353,-144.279"/>
</g>
<!-- Node14&#45;&gt;Node15 -->
<g id="edge36" class="edge"><title>Node14&#45;&gt;Node15</title>
<path fill="none" stroke="midnightblue" d="M540.215,-232.497C591.75,-222.632 668.889,-207.866 723.455,-197.421"/>
<polygon fill="midnightblue" stroke="midnightblue" points="724.206,-200.841 733.37,-195.523 722.89,-193.966 724.206,-200.841"/>
</g>
<!-- Node19 -->
<g id="node43" class="node"><title>Node19</title>
<a xlink:href="xmlSetter_8h.html" target="_top" xlink:title="visitors/xmlSetter.h">
<polygon fill="none" stroke="black" points="593.844,-174.5 593.844,-195.5 702.844,-195.5 702.844,-174.5 593.844,-174.5"/>
<text text-anchor="middle" x="648.344" y="-182.5" font-family="FreeSans.ttf" font-size="10.00">visitors/xmlSetter.h</text>
</a>
</g>
<!-- Node14&#45;&gt;Node19 -->
<g id="edge48" class="edge"><title>Node14&#45;&gt;Node19</title>
<path fill="none" stroke="midnightblue" d="M514.862,-232.497C541.32,-223.082 580.323,-209.204 609.344,-198.877"/>
<polygon fill="midnightblue" stroke="midnightblue" points="610.522,-202.173 618.77,-195.523 608.176,-195.578 610.522,-202.173"/>
</g>
<!-- Node14&#45;&gt;Node21 -->
<g id="edge56" class="edge"><title>Node14&#45;&gt;Node21</title>
<path fill="none" stroke="midnightblue" d="M572.178,-232.687C646.901,-223.713 757.881,-210.152 864.097,-196.15"/>
<polygon fill="midnightblue" stroke="midnightblue" points="864.574,-199.617 874.03,-194.838 863.657,-192.678 864.574,-199.617"/>
</g>
<!-- Node23 -->
<g id="node55" class="node"><title>Node23</title>
<a xlink:href="xmlGetter_8h.html" target="_top" xlink:title="visitors/xmlGetter.h">
<polygon fill="none" stroke="black" points="466.344,-174.5 466.344,-195.5 576.344,-195.5 576.344,-174.5 466.344,-174.5"/>
<text text-anchor="middle" x="521.344" y="-182.5" font-family="FreeSans.ttf" font-size="10.00">visitors/xmlGetter.h</text>
</a>
</g>
<!-- Node14&#45;&gt;Node23 -->
<g id="edge64" class="edge"><title>Node14&#45;&gt;Node23</title>
<path fill="none" stroke="midnightblue" d="M491.947,-232.362C496.818,-224.513 503.582,-213.616 509.394,-204.253"/>
<polygon fill="midnightblue" stroke="midnightblue" points="512.483,-205.913 514.783,-195.571 506.535,-202.221 512.483,-205.913"/>
</g>
<!-- Node15&#45;&gt;Node7 -->
<g id="edge46" class="edge"><title>Node15&#45;&gt;Node7</title>
<path fill="none" stroke="midnightblue" d="M719.497,-175.159C716.744,-174.767 714.018,-174.38 711.344,-174 601.233,-158.362 570.413,-159.811 457.867,-138.159"/>
<polygon fill="midnightblue" stroke="midnightblue" points="458.298,-134.678 447.814,-136.206 456.963,-141.549 458.298,-134.678"/>
</g>
<!-- Node16 -->
<g id="node35" class="node"><title>Node16</title>
<polygon fill="none" stroke="#bfbfbf" points="822.844,-116.5 822.844,-137.5 923.844,-137.5 923.844,-116.5 822.844,-116.5"/>
<text text-anchor="middle" x="873.344" y="-124.5" font-family="FreeSans.ttf" font-size="10.00">QtCore/QSettings</text>
</g>
<!-- Node15&#45;&gt;Node16 -->
<g id="edge38" class="edge"><title>Node15&#45;&gt;Node16</title>
<path fill="none" stroke="midnightblue" d="M803.934,-174.362C816.635,-165.696 834.782,-153.313 849.336,-143.382"/>
<polygon fill="midnightblue" stroke="midnightblue" points="851.565,-146.098 857.852,-137.571 847.619,-140.316 851.565,-146.098"/>
</g>
<!-- Node17 -->
<g id="node37" class="node"><title>Node17</title>
<a xlink:href="basePathVisitor_8h.html" target="_top" xlink:title="Add Comment Here.">
<polygon fill="none" stroke="black" points="706.844,-116.5 706.844,-137.5 805.844,-137.5 805.844,-116.5 706.844,-116.5"/>
<text text-anchor="middle" x="756.344" y="-124.5" font-family="FreeSans.ttf" font-size="10.00">basePathVisitor.h</text>
</a>
</g>
<!-- Node15&#45;&gt;Node17 -->
<g id="edge40" class="edge"><title>Node15&#45;&gt;Node17</title>
<path fill="none" stroke="midnightblue" d="M782.474,-174.362C778.189,-166.595 772.257,-155.843 767.128,-146.546"/>
<polygon fill="midnightblue" stroke="midnightblue" points="770.071,-144.636 762.176,-137.571 763.942,-148.017 770.071,-144.636"/>
</g>
<!-- Node17&#45;&gt;Node9 -->
<g id="edge44" class="edge"><title>Node17&#45;&gt;Node9</title>
<path fill="none" stroke="midnightblue" d="M737.268,-116.362C721.289,-107.45 698.263,-94.6087 680.217,-84.5447"/>
<polygon fill="midnightblue" stroke="midnightblue" points="681.736,-81.3846 671.298,-79.5707 678.327,-87.4982 681.736,-81.3846"/>
</g>
<!-- Node18 -->
<g id="node39" class="node"><title>Node18</title>
<polygon fill="none" stroke="#bfbfbf" points="732.844,-58.5 732.844,-79.5 779.844,-79.5 779.844,-58.5 732.844,-58.5"/>
<text text-anchor="middle" x="756.344" y="-66.5" font-family="FreeSans.ttf" font-size="10.00">deque</text>
</g>
<!-- Node17&#45;&gt;Node18 -->
<g id="edge42" class="edge"><title>Node17&#45;&gt;Node18</title>
<path fill="none" stroke="midnightblue" d="M756.344,-116.362C756.344,-108.922 756.344,-98.7427 756.344,-89.7276"/>
<polygon fill="midnightblue" stroke="midnightblue" points="759.844,-89.5706 756.344,-79.5707 752.844,-89.5707 759.844,-89.5706"/>
</g>
<!-- Node19&#45;&gt;Node7 -->
<g id="edge54" class="edge"><title>Node19&#45;&gt;Node7</title>
<path fill="none" stroke="midnightblue" d="M604.864,-174.421C568.068,-165.454 513.666,-152.162 457.218,-138.209"/>
<polygon fill="midnightblue" stroke="midnightblue" points="457.952,-134.785 447.404,-135.782 456.271,-141.58 457.952,-134.785"/>
</g>
<!-- Node19&#45;&gt;Node17 -->
<g id="edge52" class="edge"><title>Node19&#45;&gt;Node17</title>
<path fill="none" stroke="midnightblue" d="M667.902,-174.497C684.542,-165.56 708.671,-152.602 727.524,-142.477"/>
<polygon fill="midnightblue" stroke="midnightblue" points="729.412,-145.436 736.566,-137.621 726.1,-139.269 729.412,-145.436"/>
</g>
<!-- Node20 -->
<g id="node45" class="node"><title>Node20</title>
<polygon fill="none" stroke="#bfbfbf" points="600.844,-116.5 600.844,-137.5 689.844,-137.5 689.844,-116.5 600.844,-116.5"/>
<text text-anchor="middle" x="645.344" y="-124.5" font-family="FreeSans.ttf" font-size="10.00">QtCore/QString</text>
</g>
<!-- Node19&#45;&gt;Node20 -->
<g id="edge50" class="edge"><title>Node19&#45;&gt;Node20</title>
<path fill="none" stroke="midnightblue" d="M647.793,-174.362C647.409,-166.922 646.882,-156.743 646.416,-147.728"/>
<polygon fill="midnightblue" stroke="midnightblue" points="649.902,-147.376 645.89,-137.571 642.912,-147.738 649.902,-147.376"/>
</g>
<!-- Node21&#45;&gt;Node7 -->
<g id="edge62" class="edge"><title>Node21&#45;&gt;Node7</title>
<path fill="none" stroke="midnightblue" d="M874.045,-175.035C871.107,-174.674 868.197,-174.327 865.344,-174 687.322,-153.627 638.073,-167.693 457.866,-138.05"/>
<polygon fill="midnightblue" stroke="midnightblue" points="458.224,-134.561 447.784,-136.368 457.073,-141.466 458.224,-134.561"/>
</g>
<!-- Node21&#45;&gt;Node17 -->
<g id="edge60" class="edge"><title>Node21&#45;&gt;Node17</title>
<path fill="none" stroke="midnightblue" d="M909.479,-174.497C878.861,-165 833.6,-150.962 800.22,-140.609"/>
<polygon fill="midnightblue" stroke="midnightblue" points="800.859,-137.143 790.271,-137.523 798.786,-143.828 800.859,-137.143"/>
</g>
<!-- Node22 -->
<g id="node51" class="node"><title>Node22</title>
<polygon fill="none" stroke="#bfbfbf" points="941.344,-116.5 941.344,-137.5 1005.34,-137.5 1005.34,-116.5 941.344,-116.5"/>
<text text-anchor="middle" x="973.344" y="-124.5" font-family="FreeSans.ttf" font-size="10.00">QSettings</text>
</g>
<!-- Node21&#45;&gt;Node22 -->
<g id="edge58" class="edge"><title>Node21&#45;&gt;Node22</title>
<path fill="none" stroke="midnightblue" d="M948.846,-174.362C952.864,-166.595 958.425,-155.843 963.234,-146.546"/>
<polygon fill="midnightblue" stroke="midnightblue" points="966.391,-148.061 967.876,-137.571 960.173,-144.845 966.391,-148.061"/>
</g>
<!-- Node23&#45;&gt;Node7 -->
<g id="edge70" class="edge"><title>Node23&#45;&gt;Node7</title>
<path fill="none" stroke="midnightblue" d="M501.605,-174.497C484.734,-165.519 460.235,-152.484 441.17,-142.339"/>
<polygon fill="midnightblue" stroke="midnightblue" points="442.776,-139.229 432.304,-137.621 439.488,-145.409 442.776,-139.229"/>
</g>
<!-- Node23&#45;&gt;Node17 -->
<g id="edge72" class="edge"><title>Node23&#45;&gt;Node17</title>
<path fill="none" stroke="midnightblue" d="M563.9,-174.497C603.207,-164.795 661.717,-150.355 703.896,-139.945"/>
<polygon fill="midnightblue" stroke="midnightblue" points="704.837,-143.317 713.707,-137.523 703.16,-136.521 704.837,-143.317"/>
</g>
<!-- Node23&#45;&gt;Node20 -->
<g id="edge66" class="edge"><title>Node23&#45;&gt;Node20</title>
<path fill="none" stroke="midnightblue" d="M543.799,-174.497C563.254,-165.397 591.623,-152.127 613.434,-141.925"/>
<polygon fill="midnightblue" stroke="midnightblue" points="615.061,-145.028 622.636,-137.621 612.095,-138.688 615.061,-145.028"/>
</g>
<!-- Node24 -->
<g id="node58" class="node"><title>Node24</title>
<polygon fill="none" stroke="#bfbfbf" points="464.844,-116.5 464.844,-137.5 583.844,-137.5 583.844,-116.5 464.844,-116.5"/>
<text text-anchor="middle" x="524.344" y="-124.5" font-family="FreeSans.ttf" font-size="10.00">QtXml/QDomElement</text>
</g>
<!-- Node23&#45;&gt;Node24 -->
<g id="edge68" class="edge"><title>Node23&#45;&gt;Node24</title>
<path fill="none" stroke="midnightblue" d="M521.894,-174.362C522.279,-166.922 522.805,-156.743 523.272,-147.728"/>
<polygon fill="midnightblue" stroke="midnightblue" points="526.776,-147.738 523.797,-137.571 519.785,-147.376 526.776,-147.738"/>
</g>
<!-- Node25&#45;&gt;Node7 -->
<g id="edge76" class="edge"><title>Node25&#45;&gt;Node7</title>
<path fill="none" stroke="midnightblue" d="M164.849,-232.263C184.144,-217.372 221.166,-190.433 256.344,-174 292.187,-157.256 335.429,-144.779 367.287,-136.905"/>
<polygon fill="midnightblue" stroke="midnightblue" points="368.307,-140.259 377.206,-134.51 366.664,-133.454 368.307,-140.259"/>
</g>
<!-- Node26 -->
<g id="node65" class="node"><title>Node26</title>
<a xlink:href="defaultSetter_8h.html" target="_top" xlink:title="defaultSetter.h">
<polygon fill="none" stroke="black" points="12.3437,-174.5 12.3437,-195.5 100.344,-195.5 100.344,-174.5 12.3437,-174.5"/>
<text text-anchor="middle" x="56.3437" y="-182.5" font-family="FreeSans.ttf" font-size="10.00">defaultSetter.h</text>
</a>
</g>
<!-- Node25&#45;&gt;Node26 -->
<g id="edge78" class="edge"><title>Node25&#45;&gt;Node26</title>
<path fill="none" stroke="midnightblue" d="M133.919,-232.362C119.456,-223.532 98.6743,-210.844 82.2597,-200.822"/>
<polygon fill="midnightblue" stroke="midnightblue" points="84.0165,-197.794 73.6577,-195.571 80.3689,-203.769 84.0165,-197.794"/>
</g>
<!-- Node28 -->
<g id="node71" class="node"><title>Node28</title>
<a xlink:href="printerVisitor_8h.html" target="_top" xlink:title="printerVisitor.h">
<polygon fill="none" stroke="black" points="118.344,-174.5 118.344,-195.5 204.344,-195.5 204.344,-174.5 118.344,-174.5"/>
<text text-anchor="middle" x="161.344" y="-182.5" font-family="FreeSans.ttf" font-size="10.00">printerVisitor.h</text>
</a>
</g>
<!-- Node25&#45;&gt;Node28 -->
<g id="edge86" class="edge"><title>Node25&#45;&gt;Node28</title>
<path fill="none" stroke="midnightblue" d="M153.178,-232.362C154.475,-224.84 156.254,-214.519 157.821,-205.431"/>
<polygon fill="midnightblue" stroke="midnightblue" points="161.271,-206.02 159.521,-195.571 154.373,-204.831 161.271,-206.02"/>
</g>
<!-- Node26&#45;&gt;Node5 -->
<g id="edge82" class="edge"><title>Node26&#45;&gt;Node5</title>
<path fill="none" stroke="midnightblue" d="M62.7751,-174.066C70.954,-160.309 85.6617,-136.055 99.3437,-116 105.812,-106.519 113.376,-96.267 119.814,-87.7646"/>
<polygon fill="midnightblue" stroke="midnightblue" points="122.73,-89.7134 126.023,-79.6433 117.169,-85.4621 122.73,-89.7134"/>
</g>
<!-- Node26&#45;&gt;Node7 -->
<g id="edge84" class="edge"><title>Node26&#45;&gt;Node7</title>
<path fill="none" stroke="midnightblue" d="M100.557,-175.649C103.528,-175.074 106.477,-174.519 109.344,-174 200.511,-157.479 307.771,-141.698 367.1,-133.287"/>
<polygon fill="midnightblue" stroke="midnightblue" points="367.842,-136.717 377.255,-131.853 366.863,-129.785 367.842,-136.717"/>
</g>
<!-- Node27 -->
<g id="node67" class="node"><title>Node27</title>
<polygon fill="none" stroke="#bfbfbf" points="107.844,-116.5 107.844,-137.5 166.844,-137.5 166.844,-116.5 107.844,-116.5"/>
<text text-anchor="middle" x="137.344" y="-124.5" font-family="FreeSans.ttf" font-size="10.00">iostream</text>
</g>
<!-- Node26&#45;&gt;Node27 -->
<g id="edge80" class="edge"><title>Node26&#45;&gt;Node27</title>
<path fill="none" stroke="midnightblue" d="M71.2003,-174.362C83.1892,-165.777 100.271,-153.546 114.072,-143.664"/>
<polygon fill="midnightblue" stroke="midnightblue" points="116.488,-146.238 122.581,-137.571 112.413,-140.547 116.488,-146.238"/>
</g>
<!-- Node28&#45;&gt;Node7 -->
<g id="edge90" class="edge"><title>Node28&#45;&gt;Node7</title>
<path fill="none" stroke="midnightblue" d="M204.492,-175.029C249.84,-164.551 320.871,-148.137 367.02,-137.473"/>
<polygon fill="midnightblue" stroke="midnightblue" points="368.087,-140.819 377.042,-135.157 366.511,-133.999 368.087,-140.819"/>
</g>
<!-- Node28&#45;&gt;Node27 -->
<g id="edge88" class="edge"><title>Node28&#45;&gt;Node27</title>
<path fill="none" stroke="midnightblue" d="M156.942,-174.362C153.762,-166.677 149.372,-156.069 145.553,-146.84"/>
<polygon fill="midnightblue" stroke="midnightblue" points="148.775,-145.473 141.718,-137.571 142.307,-148.149 148.775,-145.473"/>
</g>
</g>
</svg>
        <g id="navigator" transform="translate(0 0)" fill="#404254">
                <rect fill="#f2f5e9" fill-opacity="0.5" stroke="#606060" stroke-width=".5" x="0" y="0" width="60" height="60"/>
                <use id="zoomplus" xlink:href="#zoomPlus" x="17" y="9" onmousedown="handleZoom(evt,'in')"/>
                <use id="zoomminus" xlink:href="#zoomMin" x="42" y="9" onmousedown="handleZoom(evt,'out')"/>
                <use id="reset" xlink:href="#resetDef" x="30" y="36" onmousedown="handleReset()"/>
                <g id="arrowUp" xlink:href="#dirArrow" transform="translate(30 24)" onmousedown="handlePan(0,-1)">
                  <use xlink:href="#rim" fill="#404040">
                        <set attributeName="fill" to="#808080" begin="arrowUp.mouseover" end="arrowUp.mouseout"/>
                  </use>
                  <path fill="none" stroke="white" stroke-width="1.5" d="M0,-3.0v7 M-2.5,-0.5L0,-3.0L2.5,-0.5"/>
                </g>
                <g id="arrowRight" xlink:href="#dirArrow" transform="rotate(90) translate(36 -43)" onmousedown="handlePan(1,0)">
                  <use xlink:href="#rim" fill="#404040">
                        <set attributeName="fill" to="#808080" begin="arrowRight.mouseover" end="arrowRight.mouseout"/>
                  </use>
                  <path fill="none" stroke="white" stroke-width="1.5" d="M0,-3.0v7 M-2.5,-0.5L0,-3.0L2.5,-0.5"/>
                </g>
                <g id="arrowDown" xlink:href="#dirArrow" transform="rotate(180) translate(-30 -48)" onmousedown="handlePan(0,1)">
                  <use xlink:href="#rim" fill="#404040">
                        <set attributeName="fill" to="#808080" begin="arrowDown.mouseover" end="arrowDown.mouseout"/>
                  </use>
                  <path fill="none" stroke="white" stroke-width="1.5" d="M0,-3.0v7 M-2.5,-0.5L0,-3.0L2.5,-0.5"/>
                </g>
                <g id="arrowLeft" xlink:href="#dirArrow" transform="rotate(270) translate(-36 17)" onmousedown="handlePan(-1,0)">
                  <use xlink:href="#rim" fill="#404040">
                        <set attributeName="fill" to="#808080" begin="arrowLeft.mouseover" end="arrowLeft.mouseout"/>
                  </use>
                  <path fill="none" stroke="white" stroke-width="1.5" d="M0,-3.0v7 M-2.5,-0.5L0,-3.0L2.5,-0.5"/>
                </g>
        </g>
</svg>
