<?xml version="1.0" encoding="UTF-8" standalone="no"?>
<!DOCTYPE svg PUBLIC "-//W3C//DTD SVG 1.1//EN"
 "http://www.w3.org/Graphics/SVG/1.1/DTD/svg11.dtd">
<!-- Generated by graphviz version 2.26.3 (20100126.1600)
 -->
<!-- Title: G Pages: 1 -->
<!--zoomable 378 -->
<svg id="main" version="1.1" xmlns="http://www.w3.org/2000/svg" xmlns:xlink="http://www.w3.org/1999/xlink" xml:space="preserve" onload="init(evt)">
        <defs>
                <circle id="rim" cx="0" cy="0" r="7"/>
                <circle id="rim2" cx="0" cy="0" r="3.5"/>
                <g id="zoomPlus">
                        <use xlink:href="#rim" fill="#404040">
                                <set attributeName="fill" to="#808080" begin="zoomplus.mouseover" end="zoomplus.mouseout"/>
                        </use>
                        <path d="M-4,0h8M0,-4v8" fill="none" stroke="white" stroke-width="1.5" pointer-events="none"/>
                </g>
                <g id="zoomMin">
                        <use xlink:href="#rim" fill="#404040">
                                <set attributeName="fill" to="#808080" begin="zoomminus.mouseover" end="zoomminus.mouseout"/>
                        </use>
                        <path d="M-4,0h8" fill="none" stroke="white" stroke-width="1.5" pointer-events="none"/>
                </g>
                <g id="dirArrow">
                        <path fill="none" stroke="white" stroke-width="1.5" d="M0,-3.0v7 M-2.5,-0.5L0,-3.0L2.5,-0.5"/>
                </g>
               <g id="resetDef">
                       <use xlink:href="#rim2" fill="#404040">
                               <set attributeName="fill" to="#808080" begin="reset.mouseover" end="reset.mouseout"/>
                       </use>
               </g>
        </defs>

<script type="text/javascript">
var viewWidth = 1085;
var viewHeight = 378;
var sectionId = 'dynsection-0';
</script>
<script xlink:href="svgpan.js"/>
<svg id="graph" class="graph">
<g id="viewport">
<title>G</title>
<!-- Node1 -->
<g id="node1" class="node"><title>Node1</title>
<polygon fill="#bfbfbf" stroke="black" points="709,-348.5 709,-369.5 969,-369.5 969,-348.5 709,-348.5"/>
<text text-anchor="middle" x="839" y="-356.5" font-family="FreeSans.ttf" font-size="10.00">utils/filters/ui/gainOffsetParametersControlWidget.h</text>
</g>
<!-- Node2 -->
<g id="node3" class="node"><title>Node2</title>
<a xlink:href="filterParametersControlWidgetBase_8h.html" target="_top" xlink:title="filterParametersControlWidgetBase.h">
<polygon fill="none" stroke="black" points="607.5,-290.5 607.5,-311.5 800.5,-311.5 800.5,-290.5 607.5,-290.5"/>
<text text-anchor="middle" x="704" y="-298.5" font-family="FreeSans.ttf" font-size="10.00">filterParametersControlWidgetBase.h</text>
</a>
</g>
<!-- Node1&#45;&gt;Node2 -->
<g id="edge2" class="edge"><title>Node1&#45;&gt;Node2</title>
<path fill="none" stroke="midnightblue" d="M814.553,-348.497C793.182,-339.315 761.931,-325.889 738.103,-315.652"/>
<polygon fill="midnightblue" stroke="midnightblue" points="739.291,-312.353 728.722,-311.621 736.528,-318.784 739.291,-312.353"/>
</g>
<!-- Node24 -->
<g id="node60" class="node"><title>Node24</title>
<a xlink:href="gainOffsetParameters_8h.html" target="_top" xlink:title="generated/gainOffsetParameters.h">
<polygon fill="none" stroke="black" points="754,-232.5 754,-253.5 936,-253.5 936,-232.5 754,-232.5"/>
<text text-anchor="middle" x="845" y="-240.5" font-family="FreeSans.ttf" font-size="10.00">generated/gainOffsetParameters.h</text>
</a>
</g>
<!-- Node1&#45;&gt;Node24 -->
<g id="edge72" class="edge"><title>Node1&#45;&gt;Node24</title>
<path fill="none" stroke="midnightblue" d="M839.554,-348.295C840.545,-329.131 842.639,-288.654 843.922,-263.843"/>
<polygon fill="midnightblue" stroke="midnightblue" points="847.426,-263.847 844.448,-253.679 840.436,-263.485 847.426,-263.847"/>
</g>
<!-- Node28 -->
<g id="node73" class="node"><title>Node28</title>
<polygon fill="none" stroke="#bfbfbf" points="867,-290.5 867,-311.5 1077,-311.5 1077,-290.5 867,-290.5"/>
<text text-anchor="middle" x="972" y="-298.5" font-family="FreeSans.ttf" font-size="10.00">ui_gainOffsetParametersControlWidget.h</text>
</g>
<!-- Node1&#45;&gt;Node28 -->
<g id="edge90" class="edge"><title>Node1&#45;&gt;Node28</title>
<path fill="none" stroke="midnightblue" d="M863.085,-348.497C884.139,-339.315 914.927,-325.889 938.402,-315.652"/>
<polygon fill="midnightblue" stroke="midnightblue" points="939.877,-318.827 947.644,-311.621 937.079,-312.41 939.877,-318.827"/>
</g>
<!-- Node3 -->
<g id="node5" class="node"><title>Node3</title>
<polygon fill="none" stroke="#bfbfbf" points="0,-174.5 0,-195.5 74,-195.5 74,-174.5 0,-174.5"/>
<text text-anchor="middle" x="37" y="-182.5" font-family="FreeSans.ttf" font-size="10.00">QtGui/QtGui</text>
</g>
<!-- Node2&#45;&gt;Node3 -->
<g id="edge4" class="edge"><title>Node2&#45;&gt;Node3</title>
<path fill="none" stroke="midnightblue" d="M629.543,-290.438C514.495,-273.67 286.521,-238.664 84.0463,-196.147"/>
<polygon fill="midnightblue" stroke="midnightblue" points="84.6268,-192.692 74.1196,-194.052 83.1813,-199.541 84.6268,-192.692"/>
</g>
<!-- Node4 -->
<g id="node7" class="node"><title>Node4</title>
<a xlink:href="global_8h.html" target="_top" xlink:title="This file holds the global includes, mostly for debuging, tracing and profiling.">
<polygon fill="none" stroke="black" points="876,-58.5 876,-79.5 930,-79.5 930,-58.5 876,-58.5"/>
<text text-anchor="middle" x="903" y="-66.5" font-family="FreeSans.ttf" font-size="10.00">global.h</text>
</a>
</g>
<!-- Node2&#45;&gt;Node4 -->
<g id="edge6" class="edge"><title>Node2&#45;&gt;Node4</title>
<path fill="none" stroke="midnightblue" d="M781.729,-290.462C840.911,-281.585 916.844,-268.106 945,-254 979.321,-236.806 993.443,-231.094 1009,-196 1029.55,-149.649 971.347,-106.83 933.237,-84.7145"/>
<polygon fill="midnightblue" stroke="midnightblue" points="934.473,-81.3949 924.041,-79.5484 931.045,-87.4978 934.473,-81.3949"/>
</g>
<!-- Node6 -->
<g id="node11" class="node"><title>Node6</title>
<a xlink:href="reflection_8h.html" target="_top" xlink:title="a header for Reflection.c">
<polygon fill="none" stroke="black" points="631,-116.5 631,-137.5 701,-137.5 701,-116.5 631,-116.5"/>
<text text-anchor="middle" x="666" y="-124.5" font-family="FreeSans.ttf" font-size="10.00">reflection.h</text>
</a>
</g>
<!-- Node2&#45;&gt;Node6 -->
<g id="edge10" class="edge"><title>Node2&#45;&gt;Node6</title>
<path fill="none" stroke="midnightblue" d="M701.68,-290.377C695.52,-262.172 678.669,-185.012 670.525,-147.72"/>
<polygon fill="midnightblue" stroke="midnightblue" points="673.94,-146.951 668.387,-137.928 667.101,-148.444 673.94,-146.951"/>
</g>
<!-- Node13 -->
<g id="node26" class="node"><title>Node13</title>
<a xlink:href="parametersControlWidgetBase_8h.html" target="_top" xlink:title="parametersControlWidgetBase.h">
<polygon fill="none" stroke="black" points="405.5,-232.5 405.5,-253.5 578.5,-253.5 578.5,-232.5 405.5,-232.5"/>
<text text-anchor="middle" x="492" y="-240.5" font-family="FreeSans.ttf" font-size="10.00">parametersControlWidgetBase.h</text>
</a>
</g>
<!-- Node2&#45;&gt;Node13 -->
<g id="edge26" class="edge"><title>Node2&#45;&gt;Node13</title>
<path fill="none" stroke="midnightblue" d="M665.608,-290.497C630.448,-280.877 578.255,-266.598 540.281,-256.209"/>
<polygon fill="midnightblue" stroke="midnightblue" points="541.033,-252.786 530.464,-253.523 539.186,-259.538 541.033,-252.786"/>
</g>
<!-- Node5 -->
<g id="node9" class="node"><title>Node5</title>
<polygon fill="none" stroke="#bfbfbf" points="871,-0.5 871,-21.5 935,-21.5 935,-0.5 871,-0.5"/>
<text text-anchor="middle" x="903" y="-8.5" font-family="FreeSans.ttf" font-size="10.00">inttypes.h</text>
</g>
<!-- Node4&#45;&gt;Node5 -->
<g id="edge8" class="edge"><title>Node4&#45;&gt;Node5</title>
<path fill="none" stroke="midnightblue" d="M903,-58.3619C903,-50.9219 903,-40.7427 903,-31.7276"/>
<polygon fill="midnightblue" stroke="midnightblue" points="906.5,-31.5706 903,-21.5707 899.5,-31.5707 906.5,-31.5706"/>
</g>
<!-- Node6&#45;&gt;Node4 -->
<g id="edge24" class="edge"><title>Node6&#45;&gt;Node4</title>
<path fill="none" stroke="midnightblue" d="M701.225,-118.379C745.368,-107.577 820.686,-89.1444 865.755,-78.1147"/>
<polygon fill="midnightblue" stroke="midnightblue" points="866.826,-81.456 875.708,-75.6791 865.162,-74.6566 866.826,-81.456"/>
</g>
<!-- Node7 -->
<g id="node13" class="node"><title>Node7</title>
<polygon fill="none" stroke="#bfbfbf" points="783.5,-58.5 783.5,-79.5 830.5,-79.5 830.5,-58.5 783.5,-58.5"/>
<text text-anchor="middle" x="807" y="-66.5" font-family="FreeSans.ttf" font-size="10.00">vector</text>
</g>
<!-- Node6&#45;&gt;Node7 -->
<g id="edge12" class="edge"><title>Node6&#45;&gt;Node7</title>
<path fill="none" stroke="midnightblue" d="M691.534,-116.497C714.514,-107.044 748.433,-93.0915 773.567,-82.7524"/>
<polygon fill="midnightblue" stroke="midnightblue" points="775.15,-85.8862 783.066,-78.8451 772.487,-79.4125 775.15,-85.8862"/>
</g>
<!-- Node8 -->
<g id="node15" class="node"><title>Node8</title>
<polygon fill="none" stroke="#bfbfbf" points="420,-58.5 420,-79.5 464,-79.5 464,-58.5 420,-58.5"/>
<text text-anchor="middle" x="442" y="-66.5" font-family="FreeSans.ttf" font-size="10.00">string</text>
</g>
<!-- Node6&#45;&gt;Node8 -->
<g id="edge14" class="edge"><title>Node6&#45;&gt;Node8</title>
<path fill="none" stroke="midnightblue" d="M630.507,-117.81C587.405,-106.649 515.346,-87.9913 473.922,-77.2655"/>
<polygon fill="midnightblue" stroke="midnightblue" points="474.645,-73.8374 464.087,-74.719 472.89,-80.6139 474.645,-73.8374"/>
</g>
<!-- Node9 -->
<g id="node17" class="node"><title>Node9</title>
<polygon fill="none" stroke="#bfbfbf" points="503.5,-58.5 503.5,-79.5 556.5,-79.5 556.5,-58.5 503.5,-58.5"/>
<text text-anchor="middle" x="530" y="-66.5" font-family="FreeSans.ttf" font-size="10.00">string.h</text>
</g>
<!-- Node6&#45;&gt;Node9 -->
<g id="edge16" class="edge"><title>Node6&#45;&gt;Node9</title>
<path fill="none" stroke="midnightblue" d="M641.371,-116.497C619.843,-107.315 588.36,-93.8889 564.355,-83.6516"/>
<polygon fill="midnightblue" stroke="midnightblue" points="565.476,-80.3247 554.905,-79.6212 562.73,-86.7636 565.476,-80.3247"/>
</g>
<!-- Node10 -->
<g id="node19" class="node"><title>Node10</title>
<polygon fill="none" stroke="#bfbfbf" points="573.5,-58.5 573.5,-79.5 622.5,-79.5 622.5,-58.5 573.5,-58.5"/>
<text text-anchor="middle" x="598" y="-66.5" font-family="FreeSans.ttf" font-size="10.00">stdio.h</text>
</g>
<!-- Node6&#45;&gt;Node10 -->
<g id="edge18" class="edge"><title>Node6&#45;&gt;Node10</title>
<path fill="none" stroke="midnightblue" d="M653.528,-116.362C643.655,-107.941 629.667,-96.0105 618.202,-86.2308"/>
<polygon fill="midnightblue" stroke="midnightblue" points="620.273,-83.3972 610.393,-79.5707 615.73,-88.7231 620.273,-83.3972"/>
</g>
<!-- Node11 -->
<g id="node21" class="node"><title>Node11</title>
<polygon fill="none" stroke="#bfbfbf" points="639.5,-58.5 639.5,-79.5 692.5,-79.5 692.5,-58.5 639.5,-58.5"/>
<text text-anchor="middle" x="666" y="-66.5" font-family="FreeSans.ttf" font-size="10.00">stdint.h</text>
</g>
<!-- Node6&#45;&gt;Node11 -->
<g id="edge20" class="edge"><title>Node6&#45;&gt;Node11</title>
<path fill="none" stroke="midnightblue" d="M666,-116.362C666,-108.922 666,-98.7427 666,-89.7276"/>
<polygon fill="midnightblue" stroke="midnightblue" points="669.5,-89.5706 666,-79.5707 662.5,-89.5707 669.5,-89.5706"/>
</g>
<!-- Node12 -->
<g id="node23" class="node"><title>Node12</title>
<polygon fill="none" stroke="#bfbfbf" points="710,-58.5 710,-79.5 766,-79.5 766,-58.5 710,-58.5"/>
<text text-anchor="middle" x="738" y="-66.5" font-family="FreeSans.ttf" font-size="10.00">stdarg.h</text>
</g>
<!-- Node6&#45;&gt;Node12 -->
<g id="edge22" class="edge"><title>Node6&#45;&gt;Node12</title>
<path fill="none" stroke="midnightblue" d="M679.206,-116.362C689.761,-107.859 704.758,-95.7785 716.963,-85.9466"/>
<polygon fill="midnightblue" stroke="midnightblue" points="719.286,-88.5696 724.878,-79.5707 714.895,-83.1183 719.286,-88.5696"/>
</g>
<!-- Node13&#45;&gt;Node3 -->
<g id="edge28" class="edge"><title>Node13&#45;&gt;Node3</title>
<path fill="none" stroke="midnightblue" d="M405.389,-236.094C324.656,-228.959 200.767,-216.236 84.2453,-196.055"/>
<polygon fill="midnightblue" stroke="midnightblue" points="84.5314,-192.552 74.077,-194.271 83.3219,-199.446 84.5314,-192.552"/>
</g>
<!-- Node13&#45;&gt;Node4 -->
<g id="edge30" class="edge"><title>Node13&#45;&gt;Node4</title>
<path fill="none" stroke="midnightblue" d="M544.244,-232.433C579.813,-224.425 627.587,-212.058 668,-196 709.876,-179.361 823.593,-114.8 875.95,-84.6616"/>
<polygon fill="midnightblue" stroke="midnightblue" points="877.774,-87.6503 884.688,-79.623 874.277,-81.5862 877.774,-87.6503"/>
</g>
<!-- Node13&#45;&gt;Node6 -->
<g id="edge32" class="edge"><title>Node13&#45;&gt;Node6</title>
<path fill="none" stroke="midnightblue" d="M545.725,-232.478C584.604,-223.83 632.722,-210.65 647,-196 659.491,-183.183 663.941,-162.945 665.444,-147.695"/>
<polygon fill="midnightblue" stroke="midnightblue" points="668.941,-147.853 666.09,-137.649 661.955,-147.404 668.941,-147.853"/>
</g>
<!-- Node14 -->
<g id="node31" class="node"><title>Node14</title>
<a xlink:href="qSettingsSetter_8h.html" target="_top" xlink:title="visitors/qSettingsSetter.h">
<polygon fill="none" stroke="black" points="345.5,-174.5 345.5,-195.5 482.5,-195.5 482.5,-174.5 345.5,-174.5"/>
<text text-anchor="middle" x="414" y="-182.5" font-family="FreeSans.ttf" font-size="10.00">visitors/qSettingsSetter.h</text>
</a>
</g>
<!-- Node13&#45;&gt;Node14 -->
<g id="edge34" class="edge"><title>Node13&#45;&gt;Node14</title>
<path fill="none" stroke="midnightblue" d="M477.694,-232.362C466.149,-223.777 449.7,-211.546 436.41,-201.664"/>
<polygon fill="midnightblue" stroke="midnightblue" points="438.329,-198.729 428.216,-195.571 434.152,-204.346 438.329,-198.729"/>
</g>
<!-- Node18 -->
<g id="node41" class="node"><title>Node18</title>
<a xlink:href="xmlSetter_8h.html" target="_top" xlink:title="visitors/xmlSetter.h">
<polygon fill="none" stroke="black" points="219.5,-174.5 219.5,-195.5 328.5,-195.5 328.5,-174.5 219.5,-174.5"/>
<text text-anchor="middle" x="274" y="-182.5" font-family="FreeSans.ttf" font-size="10.00">visitors/xmlSetter.h</text>
</a>
</g>
<!-- Node13&#45;&gt;Node18 -->
<g id="edge46" class="edge"><title>Node13&#45;&gt;Node18</title>
<path fill="none" stroke="midnightblue" d="M452.522,-232.497C416.367,-222.877 362.696,-208.598 323.647,-198.209"/>
<polygon fill="midnightblue" stroke="midnightblue" points="324.116,-194.712 313.552,-195.523 322.316,-201.477 324.116,-194.712"/>
</g>
<!-- Node20 -->
<g id="node47" class="node"><title>Node20</title>
<a xlink:href="qSettingsGetter_8h.html" target="_top" xlink:title="visitors/qSettingsGetter.h">
<polygon fill="none" stroke="black" points="500,-174.5 500,-195.5 638,-195.5 638,-174.5 500,-174.5"/>
<text text-anchor="middle" x="569" y="-182.5" font-family="FreeSans.ttf" font-size="10.00">visitors/qSettingsGetter.h</text>
</a>
</g>
<!-- Node13&#45;&gt;Node20 -->
<g id="edge54" class="edge"><title>Node13&#45;&gt;Node20</title>
<path fill="none" stroke="midnightblue" d="M506.123,-232.362C517.52,-223.777 533.758,-211.546 546.878,-201.664"/>
<polygon fill="midnightblue" stroke="midnightblue" points="549.085,-204.383 554.967,-195.571 544.873,-198.792 549.085,-204.383"/>
</g>
<!-- Node22 -->
<g id="node53" class="node"><title>Node22</title>
<a xlink:href="xmlGetter_8h.html" target="_top" xlink:title="visitors/xmlGetter.h">
<polygon fill="none" stroke="black" points="92,-174.5 92,-195.5 202,-195.5 202,-174.5 92,-174.5"/>
<text text-anchor="middle" x="147" y="-182.5" font-family="FreeSans.ttf" font-size="10.00">visitors/xmlGetter.h</text>
</a>
</g>
<!-- Node13&#45;&gt;Node22 -->
<g id="edge62" class="edge"><title>Node13&#45;&gt;Node22</title>
<path fill="none" stroke="midnightblue" d="M428.653,-232.488C374.028,-223.404 292.737,-209.841 212.449,-196.241"/>
<polygon fill="midnightblue" stroke="midnightblue" points="212.6,-192.716 202.155,-194.496 211.43,-199.618 212.6,-192.716"/>
</g>
<!-- Node14&#45;&gt;Node6 -->
<g id="edge44" class="edge"><title>Node14&#45;&gt;Node6</title>
<path fill="none" stroke="midnightblue" d="M459.635,-174.497C505.391,-163.965 575.415,-147.849 620.959,-137.367"/>
<polygon fill="midnightblue" stroke="midnightblue" points="621.892,-140.744 630.852,-135.09 620.321,-133.922 621.892,-140.744"/>
</g>
<!-- Node15 -->
<g id="node33" class="node"><title>Node15</title>
<polygon fill="none" stroke="#bfbfbf" points="424.5,-116.5 424.5,-137.5 525.5,-137.5 525.5,-116.5 424.5,-116.5"/>
<text text-anchor="middle" x="475" y="-124.5" font-family="FreeSans.ttf" font-size="10.00">QtCore/QSettings</text>
</g>
<!-- Node14&#45;&gt;Node15 -->
<g id="edge36" class="edge"><title>Node14&#45;&gt;Node15</title>
<path fill="none" stroke="midnightblue" d="M425.188,-174.362C433.959,-166.023 446.349,-154.242 456.578,-144.516"/>
<polygon fill="midnightblue" stroke="midnightblue" points="459.047,-146.998 463.883,-137.571 454.224,-141.925 459.047,-146.998"/>
</g>
<!-- Node16 -->
<g id="node35" class="node"><title>Node16</title>
<a xlink:href="basePathVisitor_8h.html" target="_top" xlink:title="Add Comment Here.">
<polygon fill="none" stroke="black" points="308.5,-116.5 308.5,-137.5 407.5,-137.5 407.5,-116.5 308.5,-116.5"/>
<text text-anchor="middle" x="358" y="-124.5" font-family="FreeSans.ttf" font-size="10.00">basePathVisitor.h</text>
</a>
</g>
<!-- Node14&#45;&gt;Node16 -->
<g id="edge38" class="edge"><title>Node14&#45;&gt;Node16</title>
<path fill="none" stroke="midnightblue" d="M403.729,-174.362C395.756,-166.104 384.525,-154.472 375.189,-144.803"/>
<polygon fill="midnightblue" stroke="midnightblue" points="377.67,-142.334 368.206,-137.571 372.634,-147.196 377.67,-142.334"/>
</g>
<!-- Node16&#45;&gt;Node8 -->
<g id="edge42" class="edge"><title>Node16&#45;&gt;Node8</title>
<path fill="none" stroke="midnightblue" d="M373.407,-116.362C385.958,-107.696 403.892,-95.3126 418.275,-85.3819"/>
<polygon fill="midnightblue" stroke="midnightblue" points="420.45,-88.1327 426.691,-79.5707 416.473,-82.3725 420.45,-88.1327"/>
</g>
<!-- Node17 -->
<g id="node37" class="node"><title>Node17</title>
<polygon fill="none" stroke="#bfbfbf" points="334.5,-58.5 334.5,-79.5 381.5,-79.5 381.5,-58.5 334.5,-58.5"/>
<text text-anchor="middle" x="358" y="-66.5" font-family="FreeSans.ttf" font-size="10.00">deque</text>
</g>
<!-- Node16&#45;&gt;Node17 -->
<g id="edge40" class="edge"><title>Node16&#45;&gt;Node17</title>
<path fill="none" stroke="midnightblue" d="M358,-116.362C358,-108.922 358,-98.7427 358,-89.7276"/>
<polygon fill="midnightblue" stroke="midnightblue" points="361.5,-89.5706 358,-79.5707 354.5,-89.5707 361.5,-89.5706"/>
</g>
<!-- Node18&#45;&gt;Node6 -->
<g id="edge52" class="edge"><title>Node18&#45;&gt;Node6</title>
<path fill="none" stroke="midnightblue" d="M328.611,-175.311C331.447,-174.856 334.256,-174.416 337,-174 460.613,-155.243 492.826,-159.453 616,-138 617.505,-137.738 619.033,-137.461 620.575,-137.174"/>
<polygon fill="midnightblue" stroke="midnightblue" points="621.708,-140.517 630.839,-135.144 620.35,-133.65 621.708,-140.517"/>
</g>
<!-- Node18&#45;&gt;Node16 -->
<g id="edge50" class="edge"><title>Node18&#45;&gt;Node16</title>
<path fill="none" stroke="midnightblue" d="M289.407,-174.362C301.958,-165.696 319.892,-153.313 334.275,-143.382"/>
<polygon fill="midnightblue" stroke="midnightblue" points="336.45,-146.133 342.691,-137.571 332.473,-140.372 336.45,-146.133"/>
</g>
<!-- Node19 -->
<g id="node43" class="node"><title>Node19</title>
<polygon fill="none" stroke="#bfbfbf" points="202.5,-116.5 202.5,-137.5 291.5,-137.5 291.5,-116.5 202.5,-116.5"/>
<text text-anchor="middle" x="247" y="-124.5" font-family="FreeSans.ttf" font-size="10.00">QtCore/QString</text>
</g>
<!-- Node18&#45;&gt;Node19 -->
<g id="edge48" class="edge"><title>Node18&#45;&gt;Node19</title>
<path fill="none" stroke="midnightblue" d="M269.048,-174.362C265.47,-166.677 260.532,-156.069 256.236,-146.84"/>
<polygon fill="midnightblue" stroke="midnightblue" points="259.314,-145.159 251.921,-137.571 252.968,-148.114 259.314,-145.159"/>
</g>
<!-- Node20&#45;&gt;Node6 -->
<g id="edge60" class="edge"><title>Node20&#45;&gt;Node6</title>
<path fill="none" stroke="midnightblue" d="M586.791,-174.362C601.559,-165.532 622.778,-152.844 639.538,-142.822"/>
<polygon fill="midnightblue" stroke="midnightblue" points="641.535,-145.707 648.321,-137.571 637.943,-139.699 641.535,-145.707"/>
</g>
<!-- Node20&#45;&gt;Node16 -->
<g id="edge58" class="edge"><title>Node20&#45;&gt;Node16</title>
<path fill="none" stroke="midnightblue" d="M530.789,-174.497C495.795,-164.877 443.848,-150.598 406.053,-140.209"/>
<polygon fill="midnightblue" stroke="midnightblue" points="406.852,-136.799 396.282,-137.523 404.997,-143.548 406.852,-136.799"/>
</g>
<!-- Node21 -->
<g id="node49" class="node"><title>Node21</title>
<polygon fill="none" stroke="#bfbfbf" points="543,-116.5 543,-137.5 607,-137.5 607,-116.5 543,-116.5"/>
<text text-anchor="middle" x="575" y="-124.5" font-family="FreeSans.ttf" font-size="10.00">QSettings</text>
</g>
<!-- Node20&#45;&gt;Node21 -->
<g id="edge56" class="edge"><title>Node20&#45;&gt;Node21</title>
<path fill="none" stroke="midnightblue" d="M570.1,-174.362C570.87,-166.922 571.923,-156.743 572.856,-147.728"/>
<polygon fill="midnightblue" stroke="midnightblue" points="576.359,-147.878 573.906,-137.571 569.396,-147.157 576.359,-147.878"/>
</g>
<!-- Node22&#45;&gt;Node6 -->
<g id="edge68" class="edge"><title>Node22&#45;&gt;Node6</title>
<path fill="none" stroke="midnightblue" d="M202.115,-175.234C205.117,-174.793 208.093,-174.378 211,-174 390.198,-150.675 437.39,-165.47 616,-138 617.51,-137.768 619.042,-137.517 620.588,-137.252"/>
<polygon fill="midnightblue" stroke="midnightblue" points="621.686,-140.607 630.868,-135.321 620.393,-133.727 621.686,-140.607"/>
</g>
<!-- Node22&#45;&gt;Node16 -->
<g id="edge70" class="edge"><title>Node22&#45;&gt;Node16</title>
<path fill="none" stroke="midnightblue" d="M185.211,-174.497C220.205,-164.877 272.152,-150.598 309.947,-140.209"/>
<polygon fill="midnightblue" stroke="midnightblue" points="311.003,-143.548 319.718,-137.523 309.148,-136.799 311.003,-143.548"/>
</g>
<!-- Node22&#45;&gt;Node19 -->
<g id="edge64" class="edge"><title>Node22&#45;&gt;Node19</title>
<path fill="none" stroke="midnightblue" d="M165.342,-174.362C180.566,-165.532 202.441,-152.844 219.72,-142.822"/>
<polygon fill="midnightblue" stroke="midnightblue" points="221.88,-145.615 228.775,-137.571 218.368,-139.56 221.88,-145.615"/>
</g>
<!-- Node23 -->
<g id="node56" class="node"><title>Node23</title>
<polygon fill="none" stroke="#bfbfbf" points="66.5,-116.5 66.5,-137.5 185.5,-137.5 185.5,-116.5 66.5,-116.5"/>
<text text-anchor="middle" x="126" y="-124.5" font-family="FreeSans.ttf" font-size="10.00">QtXml/QDomElement</text>
</g>
<!-- Node22&#45;&gt;Node23 -->
<g id="edge66" class="edge"><title>Node22&#45;&gt;Node23</title>
<path fill="none" stroke="midnightblue" d="M143.148,-174.362C140.395,-166.758 136.606,-156.294 133.29,-147.135"/>
<polygon fill="midnightblue" stroke="midnightblue" points="136.523,-145.782 129.827,-137.571 129.941,-148.165 136.523,-145.782"/>
</g>
<!-- Node24&#45;&gt;Node6 -->
<g id="edge74" class="edge"><title>Node24&#45;&gt;Node6</title>
<path fill="none" stroke="midnightblue" d="M828.481,-232.295C796.965,-211.871 728.092,-167.238 690.94,-143.162"/>
<polygon fill="midnightblue" stroke="midnightblue" points="692.516,-140.013 682.221,-137.512 688.709,-145.887 692.516,-140.013"/>
</g>
<!-- Node25 -->
<g id="node63" class="node"><title>Node25</title>
<a xlink:href="defaultSetter_8h.html" target="_top" xlink:title="defaultSetter.h">
<polygon fill="none" stroke="black" points="912,-174.5 912,-195.5 1000,-195.5 1000,-174.5 912,-174.5"/>
<text text-anchor="middle" x="956" y="-182.5" font-family="FreeSans.ttf" font-size="10.00">defaultSetter.h</text>
</a>
</g>
<!-- Node24&#45;&gt;Node25 -->
<g id="edge76" class="edge"><title>Node24&#45;&gt;Node25</title>
<path fill="none" stroke="midnightblue" d="M865.101,-232.497C882.282,-223.519 907.23,-210.484 926.645,-200.339"/>
<polygon fill="midnightblue" stroke="midnightblue" points="928.431,-203.354 935.673,-195.621 925.189,-197.15 928.431,-203.354"/>
</g>
<!-- Node27 -->
<g id="node69" class="node"><title>Node27</title>
<a xlink:href="printerVisitor_8h.html" target="_top" xlink:title="printerVisitor.h">
<polygon fill="none" stroke="black" points="808,-174.5 808,-195.5 894,-195.5 894,-174.5 808,-174.5"/>
<text text-anchor="middle" x="851" y="-182.5" font-family="FreeSans.ttf" font-size="10.00">printerVisitor.h</text>
</a>
</g>
<!-- Node24&#45;&gt;Node27 -->
<g id="edge84" class="edge"><title>Node24&#45;&gt;Node27</title>
<path fill="none" stroke="midnightblue" d="M846.1,-232.362C846.87,-224.922 847.923,-214.743 848.856,-205.728"/>
<polygon fill="midnightblue" stroke="midnightblue" points="852.359,-205.878 849.906,-195.571 845.396,-205.157 852.359,-205.878"/>
</g>
<!-- Node25&#45;&gt;Node4 -->
<g id="edge80" class="edge"><title>Node25&#45;&gt;Node4</title>
<path fill="none" stroke="midnightblue" d="M951.109,-174.295C942.235,-154.872 923.358,-113.556 912.068,-88.8462"/>
<polygon fill="midnightblue" stroke="midnightblue" points="915.219,-87.3203 907.879,-79.6792 908.852,-90.2293 915.219,-87.3203"/>
</g>
<!-- Node25&#45;&gt;Node6 -->
<g id="edge82" class="edge"><title>Node25&#45;&gt;Node6</title>
<path fill="none" stroke="midnightblue" d="M911.76,-175.787C908.796,-175.18 905.855,-174.579 903,-174 836.36,-160.477 759.085,-145.234 711.365,-135.872"/>
<polygon fill="midnightblue" stroke="midnightblue" points="711.841,-132.399 701.354,-133.91 710.494,-139.268 711.841,-132.399"/>
</g>
<!-- Node26 -->
<g id="node65" class="node"><title>Node26</title>
<polygon fill="none" stroke="#bfbfbf" points="833.5,-116.5 833.5,-137.5 892.5,-137.5 892.5,-116.5 833.5,-116.5"/>
<text text-anchor="middle" x="863" y="-124.5" font-family="FreeSans.ttf" font-size="10.00">iostream</text>
</g>
<!-- Node25&#45;&gt;Node26 -->
<g id="edge78" class="edge"><title>Node25&#45;&gt;Node26</title>
<path fill="none" stroke="midnightblue" d="M938.942,-174.362C924.915,-165.614 904.816,-153.079 888.818,-143.101"/>
<polygon fill="midnightblue" stroke="midnightblue" points="890.287,-139.893 879.949,-137.571 886.582,-145.832 890.287,-139.893"/>
</g>
<!-- Node27&#45;&gt;Node6 -->
<g id="edge88" class="edge"><title>Node27&#45;&gt;Node6</title>
<path fill="none" stroke="midnightblue" d="M817.498,-174.497C787.207,-165 742.43,-150.962 709.407,-140.609"/>
<polygon fill="midnightblue" stroke="midnightblue" points="710.154,-137.175 699.565,-137.523 708.06,-143.854 710.154,-137.175"/>
</g>
<!-- Node27&#45;&gt;Node26 -->
<g id="edge86" class="edge"><title>Node27&#45;&gt;Node26</title>
<path fill="none" stroke="midnightblue" d="M853.201,-174.362C854.757,-166.84 856.893,-156.519 858.773,-147.431"/>
<polygon fill="midnightblue" stroke="midnightblue" points="862.214,-148.072 860.813,-137.571 855.359,-146.654 862.214,-148.072"/>
</g>
</g>
</svg>
        <g id="navigator" transform="translate(0 0)" fill="#404254">
                <rect fill="#f2f5e9" fill-opacity="0.5" stroke="#606060" stroke-width=".5" x="0" y="0" width="60" height="60"/>
                <use id="zoomplus" xlink:href="#zoomPlus" x="17" y="9" onmousedown="handleZoom(evt,'in')"/>
                <use id="zoomminus" xlink:href="#zoomMin" x="42" y="9" onmousedown="handleZoom(evt,'out')"/>
                <use id="reset" xlink:href="#resetDef" x="30" y="36" onmousedown="handleReset()"/>
                <g id="arrowUp" xlink:href="#dirArrow" transform="translate(30 24)" onmousedown="handlePan(0,-1)">
                  <use xlink:href="#rim" fill="#404040">
                        <set attributeName="fill" to="#808080" begin="arrowUp.mouseover" end="arrowUp.mouseout"/>
                  </use>
                  <path fill="none" stroke="white" stroke-width="1.5" d="M0,-3.0v7 M-2.5,-0.5L0,-3.0L2.5,-0.5"/>
                </g>
                <g id="arrowRight" xlink:href="#dirArrow" transform="rotate(90) translate(36 -43)" onmousedown="handlePan(1,0)">
                  <use xlink:href="#rim" fill="#404040">
                        <set attributeName="fill" to="#808080" begin="arrowRight.mouseover" end="arrowRight.mouseout"/>
                  </use>
                  <path fill="none" stroke="white" stroke-width="1.5" d="M0,-3.0v7 M-2.5,-0.5L0,-3.0L2.5,-0.5"/>
                </g>
                <g id="arrowDown" xlink:href="#dirArrow" transform="rotate(180) translate(-30 -48)" onmousedown="handlePan(0,1)">
                  <use xlink:href="#rim" fill="#404040">
                        <set attributeName="fill" to="#808080" begin="arrowDown.mouseover" end="arrowDown.mouseout"/>
                  </use>
                  <path fill="none" stroke="white" stroke-width="1.5" d="M0,-3.0v7 M-2.5,-0.5L0,-3.0L2.5,-0.5"/>
                </g>
                <g id="arrowLeft" xlink:href="#dirArrow" transform="rotate(270) translate(-36 17)" onmousedown="handlePan(-1,0)">
                  <use xlink:href="#rim" fill="#404040">
                        <set attributeName="fill" to="#808080" begin="arrowLeft.mouseover" end="arrowLeft.mouseout"/>
                  </use>
                  <path fill="none" stroke="white" stroke-width="1.5" d="M0,-3.0v7 M-2.5,-0.5L0,-3.0L2.5,-0.5"/>
                </g>
        </g>
</svg>
