<?xml version="1.0" encoding="UTF-8" standalone="no"?>
<!DOCTYPE svg PUBLIC "-//W3C//DTD SVG 1.1//EN"
 "http://www.w3.org/Graphics/SVG/1.1/DTD/svg11.dtd">
<!-- Generated by graphviz version 2.26.3 (20100126.1600)
 -->
<!-- Title: G Pages: 1 -->
<!--zoomable 552 -->
<svg id="main" version="1.1" xmlns="http://www.w3.org/2000/svg" xmlns:xlink="http://www.w3.org/1999/xlink" xml:space="preserve" onload="init(evt)">
        <defs>
                <circle id="rim" cx="0" cy="0" r="7"/>
                <circle id="rim2" cx="0" cy="0" r="3.5"/>
                <g id="zoomPlus">
                        <use xlink:href="#rim" fill="#404040">
                                <set attributeName="fill" to="#808080" begin="zoomplus.mouseover" end="zoomplus.mouseout"/>
                        </use>
                        <path d="M-4,0h8M0,-4v8" fill="none" stroke="white" stroke-width="1.5" pointer-events="none"/>
                </g>
                <g id="zoomMin">
                        <use xlink:href="#rim" fill="#404040">
                                <set attributeName="fill" to="#808080" begin="zoomminus.mouseover" end="zoomminus.mouseout"/>
                        </use>
                        <path d="M-4,0h8" fill="none" stroke="white" stroke-width="1.5" pointer-events="none"/>
                </g>
                <g id="dirArrow">
                        <path fill="none" stroke="white" stroke-width="1.5" d="M0,-3.0v7 M-2.5,-0.5L0,-3.0L2.5,-0.5"/>
                </g>
               <g id="resetDef">
                       <use xlink:href="#rim2" fill="#404040">
                               <set attributeName="fill" to="#808080" begin="reset.mouseover" end="reset.mouseout"/>
                       </use>
               </g>
        </defs>

<script type="text/javascript">
var viewWidth = 1129;
var viewHeight = 552;
var sectionId = 'dynsection-0';
</script>
<script xlink:href="svgpan.js"/>
<svg id="graph" class="graph">
<g id="viewport">
<title>G</title>
<!-- Node1 -->
<g id="node1" class="node"><title>Node1</title>
<polygon fill="#bfbfbf" stroke="black" points="944.5,-522.5 944.5,-543.5 1121.5,-543.5 1121.5,-522.5 944.5,-522.5"/>
<text text-anchor="middle" x="1033" y="-530.5" font-family="FreeSans.ttf" font-size="10.00">core/buffers/kernels/gaussian.cpp</text>
</g>
<!-- Node2 -->
<g id="node3" class="node"><title>Node2</title>
<a xlink:href="global_8h.html" target="_top" xlink:title="This file holds the global includes, mostly for debuging, tracing and profiling.">
<polygon fill="none" stroke="black" points="904,-58.5 904,-79.5 958,-79.5 958,-58.5 904,-58.5"/>
<text text-anchor="middle" x="931" y="-66.5" font-family="FreeSans.ttf" font-size="10.00">global.h</text>
</a>
</g>
<!-- Node1&#45;&gt;Node2 -->
<g id="edge2" class="edge"><title>Node1&#45;&gt;Node2</title>
<path fill="none" stroke="midnightblue" d="M1037.84,-522.379C1046.56,-502.262 1064,-457.024 1064,-417 1064,-417 1064,-417 1064,-185 1064,-133.735 1007.18,-99.9295 967.822,-82.6603"/>
<polygon fill="midnightblue" stroke="midnightblue" points="968.81,-79.279 958.235,-78.6255 966.095,-85.7308 968.81,-79.279"/>
</g>
<!-- Node4 -->
<g id="node7" class="node"><title>Node4</title>
<a xlink:href="gaussian_8h.html" target="_top" xlink:title="Add Comment Here.">
<polygon fill="none" stroke="black" points="968,-464.5 968,-485.5 1036,-485.5 1036,-464.5 968,-464.5"/>
<text text-anchor="middle" x="1002" y="-472.5" font-family="FreeSans.ttf" font-size="10.00">gaussian.h</text>
</a>
</g>
<!-- Node1&#45;&gt;Node4 -->
<g id="edge6" class="edge"><title>Node1&#45;&gt;Node4</title>
<path fill="none" stroke="midnightblue" d="M1027.31,-522.362C1023.16,-514.595 1017.42,-503.843 1012.45,-494.546"/>
<polygon fill="midnightblue" stroke="midnightblue" points="1015.45,-492.74 1007.65,-485.571 1009.28,-496.04 1015.45,-492.74"/>
</g>
<!-- Node3 -->
<g id="node5" class="node"><title>Node3</title>
<polygon fill="none" stroke="#bfbfbf" points="899,-0.5 899,-21.5 963,-21.5 963,-0.5 899,-0.5"/>
<text text-anchor="middle" x="931" y="-8.5" font-family="FreeSans.ttf" font-size="10.00">inttypes.h</text>
</g>
<!-- Node2&#45;&gt;Node3 -->
<g id="edge4" class="edge"><title>Node2&#45;&gt;Node3</title>
<path fill="none" stroke="midnightblue" d="M931,-58.3619C931,-50.9219 931,-40.7427 931,-31.7276"/>
<polygon fill="midnightblue" stroke="midnightblue" points="934.5,-31.5706 931,-21.5707 927.5,-31.5707 934.5,-31.5706"/>
</g>
<!-- Node4&#45;&gt;Node2 -->
<g id="edge8" class="edge"><title>Node4&#45;&gt;Node2</title>
<path fill="none" stroke="midnightblue" d="M1005.75,-464.279C1012.5,-443.993 1026,-398.486 1026,-359 1026,-359 1026,-359 1026,-185 1026,-141.546 985.605,-105.439 957.496,-85.5737"/>
<polygon fill="midnightblue" stroke="midnightblue" points="959.106,-82.4357 948.869,-79.7061 955.169,-88.224 959.106,-82.4357"/>
</g>
<!-- Node5 -->
<g id="node10" class="node"><title>Node5</title>
<a xlink:href="abstractKernel_8h.html" target="_top" xlink:title="This class holds a convolution kernel.">
<polygon fill="none" stroke="black" points="903.5,-406.5 903.5,-427.5 998.5,-427.5 998.5,-406.5 903.5,-406.5"/>
<text text-anchor="middle" x="951" y="-414.5" font-family="FreeSans.ttf" font-size="10.00">abstractKernel.h</text>
</a>
</g>
<!-- Node4&#45;&gt;Node5 -->
<g id="edge10" class="edge"><title>Node4&#45;&gt;Node5</title>
<path fill="none" stroke="midnightblue" d="M992.646,-464.362C985.457,-456.186 975.359,-444.702 966.907,-435.091"/>
<polygon fill="midnightblue" stroke="midnightblue" points="969.527,-432.769 960.295,-427.571 964.27,-437.392 969.527,-432.769"/>
</g>
<!-- Node5&#45;&gt;Node2 -->
<g id="edge12" class="edge"><title>Node5&#45;&gt;Node2</title>
<path fill="none" stroke="midnightblue" d="M956.781,-406.485C967.188,-386.543 988,-341.586 988,-301 988,-301 988,-301 988,-185 988,-147.529 963.746,-109.584 946.88,-87.7281"/>
<polygon fill="midnightblue" stroke="midnightblue" points="949.396,-85.2705 940.412,-79.6538 943.933,-89.6467 949.396,-85.2705"/>
</g>
<!-- Node6 -->
<g id="node13" class="node"><title>Node6</title>
<a xlink:href="abstractBuffer_8h.html" target="_top" xlink:title="a header for AbstractBuffer.cpp">
<polygon fill="none" stroke="black" points="541.5,-348.5 541.5,-369.5 634.5,-369.5 634.5,-348.5 541.5,-348.5"/>
<text text-anchor="middle" x="588" y="-356.5" font-family="FreeSans.ttf" font-size="10.00">abstractBuffer.h</text>
</a>
</g>
<!-- Node5&#45;&gt;Node6 -->
<g id="edge14" class="edge"><title>Node5&#45;&gt;Node6</title>
<path fill="none" stroke="midnightblue" d="M903.171,-409.358C836.562,-398.715 716.056,-379.461 644.911,-368.093"/>
<polygon fill="midnightblue" stroke="midnightblue" points="645.211,-364.597 634.784,-366.475 644.107,-371.509 645.211,-364.597"/>
</g>
<!-- Node6&#45;&gt;Node2 -->
<g id="edge26" class="edge"><title>Node6&#45;&gt;Node2</title>
<path fill="none" stroke="midnightblue" d="M634.584,-353.986C732.355,-342.167 950,-308.5 950,-243 950,-243 950,-243 950,-185 950,-151.175 942.035,-112.523 936.419,-89.474"/>
<polygon fill="midnightblue" stroke="midnightblue" points="939.812,-88.6159 933.969,-79.7784 933.026,-90.3312 939.812,-88.6159"/>
</g>
<!-- Node7 -->
<g id="node15" class="node"><title>Node7</title>
<polygon fill="none" stroke="#bfbfbf" points="397.5,-58.5 397.5,-79.5 450.5,-79.5 450.5,-58.5 397.5,-58.5"/>
<text text-anchor="middle" x="424" y="-66.5" font-family="FreeSans.ttf" font-size="10.00">stdint.h</text>
</g>
<!-- Node6&#45;&gt;Node7 -->
<g id="edge16" class="edge"><title>Node6&#45;&gt;Node7</title>
<path fill="none" stroke="midnightblue" d="M541.333,-351.822C486.362,-340.805 396.412,-314.283 348,-254 308.971,-205.4 289.488,-168.557 323,-116 337.13,-93.8398 364.718,-81.9626 387.495,-75.6956"/>
<polygon fill="midnightblue" stroke="midnightblue" points="388.376,-79.0832 397.231,-73.2668 386.681,-72.2913 388.376,-79.0832"/>
</g>
<!-- Node8 -->
<g id="node17" class="node"><title>Node8</title>
<polygon fill="none" stroke="#bfbfbf" points="141.5,-58.5 141.5,-79.5 190.5,-79.5 190.5,-58.5 141.5,-58.5"/>
<text text-anchor="middle" x="166" y="-66.5" font-family="FreeSans.ttf" font-size="10.00">stdio.h</text>
</g>
<!-- Node6&#45;&gt;Node8 -->
<g id="edge18" class="edge"><title>Node6&#45;&gt;Node8</title>
<path fill="none" stroke="midnightblue" d="M541.4,-357.745C419.758,-353.213 102,-332.781 102,-243 102,-243 102,-243 102,-185 102,-146.453 129.428,-108.662 148.373,-87.1571"/>
<polygon fill="midnightblue" stroke="midnightblue" points="150.983,-89.4889 155.143,-79.7449 145.815,-84.7679 150.983,-89.4889"/>
</g>
<!-- Node9 -->
<g id="node19" class="node"><title>Node9</title>
<polygon fill="none" stroke="#bfbfbf" points="0,-58.5 0,-79.5 56,-79.5 56,-58.5 0,-58.5"/>
<text text-anchor="middle" x="28" y="-66.5" font-family="FreeSans.ttf" font-size="10.00">stdarg.h</text>
</g>
<!-- Node6&#45;&gt;Node9 -->
<g id="edge20" class="edge"><title>Node6&#45;&gt;Node9</title>
<path fill="none" stroke="midnightblue" d="M541.127,-356.539C424.529,-350.142 127.914,-332.087 88,-312 51.1727,-293.466 26,-284.228 26,-243 26,-243 26,-243 26,-185 26,-151.593 26.8395,-112.782 27.4307,-89.5921"/>
<polygon fill="midnightblue" stroke="midnightblue" points="30.9305,-89.6441 27.6962,-79.5551 23.9329,-89.459 30.9305,-89.6441"/>
</g>
<!-- Node10 -->
<g id="node21" class="node"><title>Node10</title>
<polygon fill="none" stroke="#bfbfbf" points="78,-58.5 78,-79.5 122,-79.5 122,-58.5 78,-58.5"/>
<text text-anchor="middle" x="100" y="-66.5" font-family="FreeSans.ttf" font-size="10.00">string</text>
</g>
<!-- Node6&#45;&gt;Node10 -->
<g id="edge22" class="edge"><title>Node6&#45;&gt;Node10</title>
<path fill="none" stroke="midnightblue" d="M541.448,-357.763C441.757,-354.529 210.935,-343.749 140,-312 98.3586,-293.362 64,-288.622 64,-243 64,-243 64,-243 64,-185 64,-149.891 79.2283,-111.382 89.8762,-88.7474"/>
<polygon fill="midnightblue" stroke="midnightblue" points="93.1323,-90.0556 94.375,-79.5339 86.8421,-86.9842 93.1323,-90.0556"/>
</g>
<!-- Node11 -->
<g id="node23" class="node"><title>Node11</title>
<polygon fill="none" stroke="#bfbfbf" points="556.5,-290.5 556.5,-311.5 619.5,-311.5 619.5,-290.5 556.5,-290.5"/>
<text text-anchor="middle" x="588" y="-298.5" font-family="FreeSans.ttf" font-size="10.00">functional</text>
</g>
<!-- Node6&#45;&gt;Node11 -->
<g id="edge24" class="edge"><title>Node6&#45;&gt;Node11</title>
<path fill="none" stroke="midnightblue" d="M588,-348.362C588,-340.922 588,-330.743 588,-321.728"/>
<polygon fill="midnightblue" stroke="midnightblue" points="591.5,-321.571 588,-311.571 584.5,-321.571 591.5,-321.571"/>
</g>
<!-- Node12 -->
<g id="node26" class="node"><title>Node12</title>
<a xlink:href="vector2d_8h.html" target="_top" xlink:title="Add Comment Here.">
<polygon fill="none" stroke="black" points="471,-290.5 471,-311.5 539,-311.5 539,-290.5 471,-290.5"/>
<text text-anchor="middle" x="505" y="-298.5" font-family="FreeSans.ttf" font-size="10.00">vector2d.h</text>
</a>
</g>
<!-- Node6&#45;&gt;Node12 -->
<g id="edge28" class="edge"><title>Node6&#45;&gt;Node12</title>
<path fill="none" stroke="midnightblue" d="M572.777,-348.362C560.375,-339.696 542.654,-327.313 528.443,-317.382"/>
<polygon fill="midnightblue" stroke="midnightblue" points="530.329,-314.43 520.127,-311.571 526.319,-320.168 530.329,-314.43"/>
</g>
<!-- Node21 -->
<g id="node54" class="node"><title>Node21</title>
<a xlink:href="memoryBlock_8h.html" target="_top" xlink:title="Add Comment Here.">
<polygon fill="none" stroke="black" points="632.5,-174.5 632.5,-195.5 767.5,-195.5 767.5,-174.5 632.5,-174.5"/>
<text text-anchor="middle" x="700" y="-182.5" font-family="FreeSans.ttf" font-size="10.00">memory/memoryBlock.h</text>
</a>
</g>
<!-- Node6&#45;&gt;Node21 -->
<g id="edge66" class="edge"><title>Node6&#45;&gt;Node21</title>
<path fill="none" stroke="midnightblue" d="M598.233,-348.326C606.761,-339.128 618.936,-325.273 628,-312 650.764,-278.665 650.837,-266.97 671,-232 676.289,-222.827 682.412,-212.821 687.664,-204.409"/>
<polygon fill="midnightblue" stroke="midnightblue" points="690.77,-206.045 693.135,-195.717 684.846,-202.316 690.77,-206.045"/>
</g>
<!-- Node25 -->
<g id="node64" class="node"><title>Node25</title>
<a xlink:href="tbbWrapper_8h.html" target="_top" xlink:title="This is a class that provides common TBB interface.">
<polygon fill="none" stroke="black" points="713,-290.5 713,-311.5 793,-311.5 793,-290.5 713,-290.5"/>
<text text-anchor="middle" x="753" y="-298.5" font-family="FreeSans.ttf" font-size="10.00">tbbWrapper.h</text>
</a>
</g>
<!-- Node6&#45;&gt;Node25 -->
<g id="edge78" class="edge"><title>Node6&#45;&gt;Node25</title>
<path fill="none" stroke="midnightblue" d="M617.88,-348.497C644.663,-339.082 684.145,-325.204 713.522,-314.877"/>
<polygon fill="midnightblue" stroke="midnightblue" points="714.79,-318.141 723.064,-311.523 712.469,-311.537 714.79,-318.141"/>
</g>
<!-- Node27 -->
<g id="node68" class="node"><title>Node27</title>
<a xlink:href="mathUtils_8h.html" target="_top" xlink:title="Add Comment Here.">
<polygon fill="none" stroke="black" points="798,-174.5 798,-195.5 870,-195.5 870,-174.5 798,-174.5"/>
<text text-anchor="middle" x="834" y="-182.5" font-family="FreeSans.ttf" font-size="10.00">mathUtils.h</text>
</a>
</g>
<!-- Node6&#45;&gt;Node27 -->
<g id="edge82" class="edge"><title>Node6&#45;&gt;Node27</title>
<path fill="none" stroke="midnightblue" d="M603.478,-348.407C616.24,-339.367 634.531,-325.691 649,-312 683.105,-279.728 679.841,-259.359 718,-232 739.075,-216.89 765.709,-205.654 788.14,-197.964"/>
<polygon fill="midnightblue" stroke="midnightblue" points="789.389,-201.237 797.79,-194.781 787.197,-194.589 789.389,-201.237"/>
</g>
<!-- Node12&#45;&gt;Node2 -->
<g id="edge34" class="edge"><title>Node12&#45;&gt;Node2</title>
<path fill="none" stroke="midnightblue" d="M511.383,-290.257C533.033,-254.184 604.355,-138.406 641,-116 682.718,-90.4926 824.63,-76.8284 893.244,-71.5758"/>
<polygon fill="midnightblue" stroke="midnightblue" points="893.888,-75.0377 903.6,-70.8045 893.368,-68.057 893.888,-75.0377"/>
</g>
<!-- Node12&#45;&gt;Node7 -->
<g id="edge32" class="edge"><title>Node12&#45;&gt;Node7</title>
<path fill="none" stroke="midnightblue" d="M503.86,-290.49C500.407,-261.464 488.44,-178.227 459,-116 454.221,-105.898 447.099,-95.8124 440.525,-87.5885"/>
<polygon fill="midnightblue" stroke="midnightblue" points="443.091,-85.2005 433.994,-79.7698 437.719,-89.6882 443.091,-85.2005"/>
</g>
<!-- Node13 -->
<g id="node28" class="node"><title>Node13</title>
<polygon fill="none" stroke="#bfbfbf" points="505.5,-116.5 505.5,-137.5 556.5,-137.5 556.5,-116.5 505.5,-116.5"/>
<text text-anchor="middle" x="531" y="-124.5" font-family="FreeSans.ttf" font-size="10.00">math.h</text>
</g>
<!-- Node12&#45;&gt;Node13 -->
<g id="edge30" class="edge"><title>Node12&#45;&gt;Node13</title>
<path fill="none" stroke="midnightblue" d="M506.587,-290.377C510.784,-262.293 522.233,-185.673 527.832,-148.203"/>
<polygon fill="midnightblue" stroke="midnightblue" points="531.351,-148.335 529.367,-137.928 524.428,-147.301 531.351,-148.335"/>
</g>
<!-- Node14 -->
<g id="node32" class="node"><title>Node14</title>
<a xlink:href="fixedVector_8h.html" target="_top" xlink:title="This file holds the description of the commonly used template &#45; a vector with the fixed number of com...">
<polygon fill="none" stroke="black" points="357,-232.5 357,-253.5 435,-253.5 435,-232.5 357,-232.5"/>
<text text-anchor="middle" x="396" y="-240.5" font-family="FreeSans.ttf" font-size="10.00">fixedVector.h</text>
</a>
</g>
<!-- Node12&#45;&gt;Node14 -->
<g id="edge36" class="edge"><title>Node12&#45;&gt;Node14</title>
<path fill="none" stroke="midnightblue" d="M485.261,-290.497C468.39,-281.519 443.891,-268.484 424.826,-258.339"/>
<polygon fill="midnightblue" stroke="midnightblue" points="426.433,-255.229 415.961,-253.621 423.144,-261.409 426.433,-255.229"/>
</g>
<!-- Node14&#45;&gt;Node8 -->
<g id="edge38" class="edge"><title>Node14&#45;&gt;Node8</title>
<path fill="none" stroke="midnightblue" d="M356.921,-235.782C306.767,-224.338 220.994,-196.977 177,-138 166.828,-124.363 164.5,-104.959 164.474,-90.1988"/>
<polygon fill="midnightblue" stroke="midnightblue" points="167.979,-90.1001 164.811,-79.9899 160.983,-89.8688 167.979,-90.1001"/>
</g>
<!-- Node15 -->
<g id="node35" class="node"><title>Node15</title>
<a xlink:href="vectorOperations_8h.html" target="_top" xlink:title="This file holds the operations that are commonly used with continuous linear data structures such as ...">
<polygon fill="none" stroke="black" points="342,-174.5 342,-195.5 450,-195.5 450,-174.5 342,-174.5"/>
<text text-anchor="middle" x="396" y="-182.5" font-family="FreeSans.ttf" font-size="10.00">vectorOperations.h</text>
</a>
</g>
<!-- Node14&#45;&gt;Node15 -->
<g id="edge40" class="edge"><title>Node14&#45;&gt;Node15</title>
<path fill="none" stroke="midnightblue" d="M396,-232.362C396,-224.922 396,-214.743 396,-205.728"/>
<polygon fill="midnightblue" stroke="midnightblue" points="399.5,-205.571 396,-195.571 392.5,-205.571 399.5,-205.571"/>
</g>
<!-- Node15&#45;&gt;Node8 -->
<g id="edge46" class="edge"><title>Node15&#45;&gt;Node8</title>
<path fill="none" stroke="midnightblue" d="M341.969,-174.793C286.976,-164.001 208.24,-147.281 197,-138 182.19,-125.771 174.184,-104.995 170.042,-89.4287"/>
<polygon fill="midnightblue" stroke="midnightblue" points="173.441,-88.5933 167.755,-79.6535 166.625,-90.1879 173.441,-88.5933"/>
</g>
<!-- Node15&#45;&gt;Node13 -->
<g id="edge48" class="edge"><title>Node15&#45;&gt;Node13</title>
<path fill="none" stroke="midnightblue" d="M420.447,-174.497C441.818,-165.315 473.069,-151.889 496.897,-141.652"/>
<polygon fill="midnightblue" stroke="midnightblue" points="498.472,-144.784 506.278,-137.621 495.709,-138.353 498.472,-144.784"/>
</g>
<!-- Node16 -->
<g id="node37" class="node"><title>Node16</title>
<polygon fill="none" stroke="#bfbfbf" points="332,-116.5 332,-137.5 374,-137.5 374,-116.5 332,-116.5"/>
<text text-anchor="middle" x="353" y="-124.5" font-family="FreeSans.ttf" font-size="10.00">limits</text>
</g>
<!-- Node15&#45;&gt;Node16 -->
<g id="edge42" class="edge"><title>Node15&#45;&gt;Node16</title>
<path fill="none" stroke="midnightblue" d="M388.113,-174.362C382.173,-166.35 373.878,-155.161 366.841,-145.67"/>
<polygon fill="midnightblue" stroke="midnightblue" points="369.604,-143.519 360.837,-137.571 363.981,-147.688 369.604,-143.519"/>
</g>
<!-- Node17 -->
<g id="node39" class="node"><title>Node17</title>
<polygon fill="none" stroke="#bfbfbf" points="391.5,-116.5 391.5,-137.5 450.5,-137.5 450.5,-116.5 391.5,-116.5"/>
<text text-anchor="middle" x="421" y="-124.5" font-family="FreeSans.ttf" font-size="10.00">iostream</text>
</g>
<!-- Node15&#45;&gt;Node17 -->
<g id="edge44" class="edge"><title>Node15&#45;&gt;Node17</title>
<path fill="none" stroke="midnightblue" d="M400.585,-174.362C403.898,-166.677 408.47,-156.069 412.448,-146.84"/>
<polygon fill="midnightblue" stroke="midnightblue" points="415.699,-148.139 416.444,-137.571 409.271,-145.368 415.699,-148.139"/>
</g>
<!-- Node18 -->
<g id="node43" class="node"><title>Node18</title>
<a xlink:href="reflection_8h.html" target="_top" xlink:title="a header for Reflection.c">
<polygon fill="none" stroke="black" points="206,-116.5 206,-137.5 276,-137.5 276,-116.5 206,-116.5"/>
<text text-anchor="middle" x="241" y="-124.5" font-family="FreeSans.ttf" font-size="10.00">reflection.h</text>
</a>
</g>
<!-- Node15&#45;&gt;Node18 -->
<g id="edge50" class="edge"><title>Node15&#45;&gt;Node18</title>
<path fill="none" stroke="midnightblue" d="M367.931,-174.497C342.99,-165.164 306.326,-151.445 278.808,-141.147"/>
<polygon fill="midnightblue" stroke="midnightblue" points="279.714,-137.75 269.122,-137.523 277.261,-144.306 279.714,-137.75"/>
</g>
<!-- Node18&#45;&gt;Node2 -->
<g id="edge64" class="edge"><title>Node18&#45;&gt;Node2</title>
<path fill="none" stroke="midnightblue" d="M276.063,-121.856C290.568,-119.842 307.573,-117.63 323,-116 538.681,-93.2155 798.509,-76.7998 893.719,-71.15"/>
<polygon fill="midnightblue" stroke="midnightblue" points="894.205,-74.6276 903.982,-70.545 893.793,-67.6397 894.205,-74.6276"/>
</g>
<!-- Node18&#45;&gt;Node7 -->
<g id="edge60" class="edge"><title>Node18&#45;&gt;Node7</title>
<path fill="none" stroke="midnightblue" d="M274.14,-116.497C306.157,-106.349 354.535,-91.0164 387.606,-80.5346"/>
<polygon fill="midnightblue" stroke="midnightblue" points="388.868,-83.8063 397.344,-77.4485 386.753,-77.1334 388.868,-83.8063"/>
</g>
<!-- Node18&#45;&gt;Node8 -->
<g id="edge58" class="edge"><title>Node18&#45;&gt;Node8</title>
<path fill="none" stroke="midnightblue" d="M227.244,-116.362C216.249,-107.859 200.627,-95.7785 187.914,-85.9466"/>
<polygon fill="midnightblue" stroke="midnightblue" points="189.721,-82.9195 179.669,-79.5707 185.438,-88.4569 189.721,-82.9195"/>
</g>
<!-- Node18&#45;&gt;Node9 -->
<g id="edge62" class="edge"><title>Node18&#45;&gt;Node9</title>
<path fill="none" stroke="midnightblue" d="M205.827,-117.422C167.24,-106.915 105.531,-90.1117 65.8946,-79.3187"/>
<polygon fill="midnightblue" stroke="midnightblue" points="66.6436,-75.8953 56.0753,-76.6449 64.8044,-82.6494 66.6436,-75.8953"/>
</g>
<!-- Node18&#45;&gt;Node10 -->
<g id="edge54" class="edge"><title>Node18&#45;&gt;Node10</title>
<path fill="none" stroke="midnightblue" d="M215.466,-116.497C191.926,-106.813 156.906,-92.4082 131.609,-82.0025"/>
<polygon fill="midnightblue" stroke="midnightblue" points="132.679,-78.6578 122.099,-78.0904 130.016,-85.1315 132.679,-78.6578"/>
</g>
<!-- Node19 -->
<g id="node45" class="node"><title>Node19</title>
<polygon fill="none" stroke="#bfbfbf" points="208.5,-58.5 208.5,-79.5 255.5,-79.5 255.5,-58.5 208.5,-58.5"/>
<text text-anchor="middle" x="232" y="-66.5" font-family="FreeSans.ttf" font-size="10.00">vector</text>
</g>
<!-- Node18&#45;&gt;Node19 -->
<g id="edge52" class="edge"><title>Node18&#45;&gt;Node19</title>
<path fill="none" stroke="midnightblue" d="M239.349,-116.362C238.195,-108.922 236.615,-98.7427 235.216,-89.7276"/>
<polygon fill="midnightblue" stroke="midnightblue" points="238.632,-88.9157 233.64,-79.5707 231.715,-89.9891 238.632,-88.9157"/>
</g>
<!-- Node20 -->
<g id="node48" class="node"><title>Node20</title>
<polygon fill="none" stroke="#bfbfbf" points="272.5,-58.5 272.5,-79.5 325.5,-79.5 325.5,-58.5 272.5,-58.5"/>
<text text-anchor="middle" x="299" y="-66.5" font-family="FreeSans.ttf" font-size="10.00">string.h</text>
</g>
<!-- Node18&#45;&gt;Node20 -->
<g id="edge56" class="edge"><title>Node18&#45;&gt;Node20</title>
<path fill="none" stroke="midnightblue" d="M251.638,-116.362C259.896,-108.104 271.528,-96.4725 281.197,-86.8029"/>
<polygon fill="midnightblue" stroke="midnightblue" points="283.833,-89.1166 288.429,-79.5707 278.883,-84.1669 283.833,-89.1166"/>
</g>
<!-- Node21&#45;&gt;Node2 -->
<g id="edge74" class="edge"><title>Node21&#45;&gt;Node2</title>
<path fill="none" stroke="midnightblue" d="M708.501,-174.261C721.043,-159.117 745.96,-131.597 773,-116 811.028,-94.0656 860.213,-81.5423 893.53,-75.0273"/>
<polygon fill="midnightblue" stroke="midnightblue" points="894.567,-78.3942 903.756,-73.1188 893.283,-71.513 894.567,-78.3942"/>
</g>
<!-- Node21&#45;&gt;Node7 -->
<g id="edge70" class="edge"><title>Node21&#45;&gt;Node7</title>
<path fill="none" stroke="midnightblue" d="M681.641,-174.491C656.052,-160.106 607.963,-134.019 565,-116 530.198,-101.404 489.14,-88.1449 460.333,-79.4594"/>
<polygon fill="midnightblue" stroke="midnightblue" points="461.268,-76.0861 450.685,-76.5833 459.268,-82.7943 461.268,-76.0861"/>
</g>
<!-- Node22 -->
<g id="node56" class="node"><title>Node22</title>
<polygon fill="none" stroke="#bfbfbf" points="781.5,-116.5 781.5,-137.5 816.5,-137.5 816.5,-116.5 781.5,-116.5"/>
<text text-anchor="middle" x="799" y="-124.5" font-family="FreeSans.ttf" font-size="10.00">new</text>
</g>
<!-- Node21&#45;&gt;Node22 -->
<g id="edge68" class="edge"><title>Node21&#45;&gt;Node22</title>
<path fill="none" stroke="midnightblue" d="M718.158,-174.362C733.324,-165.477 755.158,-152.685 772.313,-142.635"/>
<polygon fill="midnightblue" stroke="midnightblue" points="774.431,-145.45 781.29,-137.376 770.893,-139.411 774.431,-145.45"/>
</g>
<!-- Node23 -->
<g id="node59" class="node"><title>Node23</title>
<polygon fill="none" stroke="#bfbfbf" points="833.5,-116.5 833.5,-137.5 884.5,-137.5 884.5,-116.5 833.5,-116.5"/>
<text text-anchor="middle" x="859" y="-124.5" font-family="FreeSans.ttf" font-size="10.00">stdlib.h</text>
</g>
<!-- Node21&#45;&gt;Node23 -->
<g id="edge72" class="edge"><title>Node21&#45;&gt;Node23</title>
<path fill="none" stroke="midnightblue" d="M728.794,-174.497C755.451,-164.773 795.163,-150.286 823.716,-139.871"/>
<polygon fill="midnightblue" stroke="midnightblue" points="825.116,-143.086 833.311,-136.371 822.717,-136.51 825.116,-143.086"/>
</g>
<!-- Node24 -->
<g id="node62" class="node"><title>Node24</title>
<a xlink:href="atomicOps_8h.html" target="_top" xlink:title="atomicOps.h">
<polygon fill="none" stroke="black" points="649.5,-116.5 649.5,-137.5 726.5,-137.5 726.5,-116.5 649.5,-116.5"/>
<text text-anchor="middle" x="688" y="-124.5" font-family="FreeSans.ttf" font-size="10.00">atomicOps.h</text>
</a>
</g>
<!-- Node21&#45;&gt;Node24 -->
<g id="edge76" class="edge"><title>Node21&#45;&gt;Node24</title>
<path fill="none" stroke="midnightblue" d="M697.799,-174.362C696.243,-166.84 694.107,-156.519 692.227,-147.431"/>
<polygon fill="midnightblue" stroke="midnightblue" points="695.641,-146.654 690.187,-137.571 688.786,-148.072 695.641,-146.654"/>
</g>
<!-- Node26 -->
<g id="node66" class="node"><title>Node26</title>
<polygon fill="none" stroke="#bfbfbf" points="727,-232.5 727,-253.5 779,-253.5 779,-232.5 727,-232.5"/>
<text text-anchor="middle" x="753" y="-240.5" font-family="FreeSans.ttf" font-size="10.00">cstddef</text>
</g>
<!-- Node25&#45;&gt;Node26 -->
<g id="edge80" class="edge"><title>Node25&#45;&gt;Node26</title>
<path fill="none" stroke="midnightblue" d="M753,-290.362C753,-282.922 753,-272.743 753,-263.728"/>
<polygon fill="midnightblue" stroke="midnightblue" points="756.5,-263.571 753,-253.571 749.5,-263.571 756.5,-263.571"/>
</g>
<!-- Node27&#45;&gt;Node2 -->
<g id="edge86" class="edge"><title>Node27&#45;&gt;Node2</title>
<path fill="none" stroke="midnightblue" d="M850.752,-174.34C863.454,-165.665 880.756,-152.514 893,-138 905.489,-123.196 915.789,-103.654 922.501,-89.1471"/>
<polygon fill="midnightblue" stroke="midnightblue" points="925.874,-90.1736 926.733,-79.6136 919.477,-87.3331 925.874,-90.1736"/>
</g>
<!-- Node27&#45;&gt;Node13 -->
<g id="edge84" class="edge"><title>Node27&#45;&gt;Node13</title>
<path fill="none" stroke="midnightblue" d="M797.752,-178.061C739.219,-166.857 624.594,-144.916 566.526,-133.8"/>
<polygon fill="midnightblue" stroke="midnightblue" points="567.182,-130.362 556.702,-131.92 565.866,-137.238 567.182,-130.362"/>
</g>
<!-- Node27&#45;&gt;Node23 -->
<g id="edge88" class="edge"><title>Node27&#45;&gt;Node23</title>
<path fill="none" stroke="midnightblue" d="M838.585,-174.362C841.898,-166.677 846.47,-156.069 850.448,-146.84"/>
<polygon fill="midnightblue" stroke="midnightblue" points="853.699,-148.139 854.444,-137.571 847.271,-145.368 853.699,-148.139"/>
</g>
</g>
</svg>
        <g id="navigator" transform="translate(0 0)" fill="#404254">
                <rect fill="#f2f5e9" fill-opacity="0.5" stroke="#606060" stroke-width=".5" x="0" y="0" width="60" height="60"/>
                <use id="zoomplus" xlink:href="#zoomPlus" x="17" y="9" onmousedown="handleZoom(evt,'in')"/>
                <use id="zoomminus" xlink:href="#zoomMin" x="42" y="9" onmousedown="handleZoom(evt,'out')"/>
                <use id="reset" xlink:href="#resetDef" x="30" y="36" onmousedown="handleReset()"/>
                <g id="arrowUp" xlink:href="#dirArrow" transform="translate(30 24)" onmousedown="handlePan(0,-1)">
                  <use xlink:href="#rim" fill="#404040">
                        <set attributeName="fill" to="#808080" begin="arrowUp.mouseover" end="arrowUp.mouseout"/>
                  </use>
                  <path fill="none" stroke="white" stroke-width="1.5" d="M0,-3.0v7 M-2.5,-0.5L0,-3.0L2.5,-0.5"/>
                </g>
                <g id="arrowRight" xlink:href="#dirArrow" transform="rotate(90) translate(36 -43)" onmousedown="handlePan(1,0)">
                  <use xlink:href="#rim" fill="#404040">
                        <set attributeName="fill" to="#808080" begin="arrowRight.mouseover" end="arrowRight.mouseout"/>
                  </use>
                  <path fill="none" stroke="white" stroke-width="1.5" d="M0,-3.0v7 M-2.5,-0.5L0,-3.0L2.5,-0.5"/>
                </g>
                <g id="arrowDown" xlink:href="#dirArrow" transform="rotate(180) translate(-30 -48)" onmousedown="handlePan(0,1)">
                  <use xlink:href="#rim" fill="#404040">
                        <set attributeName="fill" to="#808080" begin="arrowDown.mouseover" end="arrowDown.mouseout"/>
                  </use>
                  <path fill="none" stroke="white" stroke-width="1.5" d="M0,-3.0v7 M-2.5,-0.5L0,-3.0L2.5,-0.5"/>
                </g>
                <g id="arrowLeft" xlink:href="#dirArrow" transform="rotate(270) translate(-36 17)" onmousedown="handlePan(-1,0)">
                  <use xlink:href="#rim" fill="#404040">
                        <set attributeName="fill" to="#808080" begin="arrowLeft.mouseover" end="arrowLeft.mouseout"/>
                  </use>
                  <path fill="none" stroke="white" stroke-width="1.5" d="M0,-3.0v7 M-2.5,-0.5L0,-3.0L2.5,-0.5"/>
                </g>
        </g>
</svg>
