<?xml version="1.0" encoding="UTF-8" standalone="no"?>
<!DOCTYPE svg PUBLIC "-//W3C//DTD SVG 1.1//EN"
 "http://www.w3.org/Graphics/SVG/1.1/DTD/svg11.dtd">
<!-- Generated by graphviz version 2.26.3 (20100126.1600)
 -->
<!-- Title: G Pages: 1 -->
<svg width="459pt" height="320pt"
 viewBox="0.00 0.00 459.00 320.00" xmlns="http://www.w3.org/2000/svg" xmlns:xlink="http://www.w3.org/1999/xlink">
<g id="graph1" class="graph" transform="scale(1 1) rotate(0) translate(4 316)">
<title>G</title>
<!-- Node1 -->
<g id="node1" class="node"><title>Node1</title>
<polygon fill="#bfbfbf" stroke="black" points="-0.5,-290.5 -0.5,-311.5 206.5,-311.5 206.5,-290.5 -0.5,-290.5"/>
<text text-anchor="middle" x="103" y="-298.5" font-family="FreeSans.ttf" font-size="10.00">core/buffers/kernels/genericFastKernel.h</text>
</g>
<!-- Node2 -->
<g id="node3" class="node"><title>Node2</title>
<a xlink:href="global_8h.html" target="_top" xlink:title="This file holds the global includes, mostly for debuging, tracing and profiling.">
<polygon fill="none" stroke="black" points="119,-58.5 119,-79.5 173,-79.5 173,-58.5 119,-58.5"/>
<text text-anchor="middle" x="146" y="-66.5" font-family="FreeSans.ttf" font-size="10.00">global.h</text>
</a>
</g>
<!-- Node1&#45;&gt;Node2 -->
<g id="edge2" class="edge"><title>Node1&#45;&gt;Node2</title>
<path fill="none" stroke="midnightblue" d="M100.299,-290.396C93.4081,-261.129 77.5152,-177.332 104,-116 108.685,-105.15 116.892,-95.0896 124.816,-87.0838"/>
<polygon fill="midnightblue" stroke="midnightblue" points="127.646,-89.2248 132.504,-79.8096 122.835,-84.1401 127.646,-89.2248"/>
</g>
<!-- Node4 -->
<g id="node7" class="node"><title>Node4</title>
<a xlink:href="fastKernel_8h.html" target="_top" xlink:title="Add Comment Here.">
<polygon fill="none" stroke="black" points="119.5,-232.5 119.5,-253.5 192.5,-253.5 192.5,-232.5 119.5,-232.5"/>
<text text-anchor="middle" x="156" y="-240.5" font-family="FreeSans.ttf" font-size="10.00">fastKernel.h</text>
</a>
</g>
<!-- Node1&#45;&gt;Node4 -->
<g id="edge6" class="edge"><title>Node1&#45;&gt;Node4</title>
<path fill="none" stroke="midnightblue" d="M112.721,-290.362C120.192,-282.186 130.686,-270.702 139.469,-261.091"/>
<polygon fill="midnightblue" stroke="midnightblue" points="142.179,-263.314 146.341,-253.571 137.011,-258.592 142.179,-263.314"/>
</g>
<!-- Node3 -->
<g id="node5" class="node"><title>Node3</title>
<polygon fill="none" stroke="#bfbfbf" points="114,-0.5 114,-21.5 178,-21.5 178,-0.5 114,-0.5"/>
<text text-anchor="middle" x="146" y="-8.5" font-family="FreeSans.ttf" font-size="10.00">inttypes.h</text>
</g>
<!-- Node2&#45;&gt;Node3 -->
<g id="edge4" class="edge"><title>Node2&#45;&gt;Node3</title>
<path fill="none" stroke="midnightblue" d="M146,-58.3619C146,-50.9219 146,-40.7427 146,-31.7276"/>
<polygon fill="midnightblue" stroke="midnightblue" points="149.5,-31.5706 146,-21.5707 142.5,-31.5707 149.5,-31.5706"/>
</g>
<!-- Node4&#45;&gt;Node2 -->
<g id="edge8" class="edge"><title>Node4&#45;&gt;Node2</title>
<path fill="none" stroke="midnightblue" d="M139.74,-232.423C128.485,-224.058 114.418,-211.267 108,-196 92.4307,-158.965 115.763,-113.386 132.183,-88.1358"/>
<polygon fill="midnightblue" stroke="midnightblue" points="135.117,-90.0462 137.835,-79.8061 129.324,-86.1158 135.117,-90.0462"/>
</g>
<!-- Node5 -->
<g id="node10" class="node"><title>Node5</title>
<a xlink:href="baseKernel_8h.html" target="_top" xlink:title="a header for BaseKernel.c">
<polygon fill="none" stroke="black" points="117,-174.5 117,-195.5 195,-195.5 195,-174.5 117,-174.5"/>
<text text-anchor="middle" x="156" y="-182.5" font-family="FreeSans.ttf" font-size="10.00">baseKernel.h</text>
</a>
</g>
<!-- Node4&#45;&gt;Node5 -->
<g id="edge10" class="edge"><title>Node4&#45;&gt;Node5</title>
<path fill="none" stroke="midnightblue" d="M156,-232.362C156,-224.922 156,-214.743 156,-205.728"/>
<polygon fill="midnightblue" stroke="midnightblue" points="159.5,-205.571 156,-195.571 152.5,-205.571 159.5,-205.571"/>
</g>
<!-- Node6 -->
<g id="node13" class="node"><title>Node6</title>
<a xlink:href="scalarAlgebra_8h.html" target="_top" xlink:title="a header for ScalarAlgebra.c">
<polygon fill="none" stroke="black" points="212.5,-174.5 212.5,-195.5 303.5,-195.5 303.5,-174.5 212.5,-174.5"/>
<text text-anchor="middle" x="258" y="-182.5" font-family="FreeSans.ttf" font-size="10.00">scalarAlgebra.h</text>
</a>
</g>
<!-- Node4&#45;&gt;Node6 -->
<g id="edge14" class="edge"><title>Node4&#45;&gt;Node6</title>
<path fill="none" stroke="midnightblue" d="M174.708,-232.362C190.381,-223.45 212.964,-210.609 230.663,-200.545"/>
<polygon fill="midnightblue" stroke="midnightblue" points="232.447,-203.556 239.41,-195.571 228.987,-197.471 232.447,-203.556"/>
</g>
<!-- Node10 -->
<g id="node24" class="node"><title>Node10</title>
<a xlink:href="tbbWrapper_8h.html" target="_top" xlink:title="This is a class that provides common TBB interface.">
<polygon fill="none" stroke="black" points="353,-174.5 353,-195.5 433,-195.5 433,-174.5 353,-174.5"/>
<text text-anchor="middle" x="393" y="-182.5" font-family="FreeSans.ttf" font-size="10.00">tbbWrapper.h</text>
</a>
</g>
<!-- Node4&#45;&gt;Node10 -->
<g id="edge28" class="edge"><title>Node4&#45;&gt;Node10</title>
<path fill="none" stroke="midnightblue" d="M192.512,-234.065C232.831,-224.198 297.987,-208.252 343.024,-197.23"/>
<polygon fill="midnightblue" stroke="midnightblue" points="343.997,-200.596 352.878,-194.819 342.333,-193.796 343.997,-200.596"/>
</g>
<!-- Node5&#45;&gt;Node2 -->
<g id="edge12" class="edge"><title>Node5&#45;&gt;Node2</title>
<path fill="none" stroke="midnightblue" d="M154.745,-174.183C153.665,-164.663 152.111,-150.423 151,-138 149.563,-121.925 148.257,-103.714 147.34,-90.0394"/>
<polygon fill="midnightblue" stroke="midnightblue" points="150.814,-89.5155 146.668,-79.7656 143.829,-89.9729 150.814,-89.5155"/>
</g>
<!-- Node6&#45;&gt;Node2 -->
<g id="edge16" class="edge"><title>Node6&#45;&gt;Node2</title>
<path fill="none" stroke="midnightblue" d="M235.174,-174.361C219.352,-166.13 198.589,-153.53 184,-138 170.61,-123.747 160.322,-103.887 153.849,-89.132"/>
<polygon fill="midnightblue" stroke="midnightblue" points="157.064,-87.7474 149.985,-79.864 150.603,-90.4408 157.064,-87.7474"/>
</g>
<!-- Node7 -->
<g id="node16" class="node"><title>Node7</title>
<a xlink:href="baseAlgebra_8h.html" target="_top" xlink:title="a header for BaseAlgebra.c">
<polygon fill="none" stroke="black" points="193,-116.5 193,-137.5 279,-137.5 279,-116.5 193,-116.5"/>
<text text-anchor="middle" x="236" y="-124.5" font-family="FreeSans.ttf" font-size="10.00">baseAlgebra.h</text>
</a>
</g>
<!-- Node6&#45;&gt;Node7 -->
<g id="edge18" class="edge"><title>Node6&#45;&gt;Node7</title>
<path fill="none" stroke="midnightblue" d="M253.965,-174.362C251.081,-166.758 247.112,-156.294 243.637,-147.135"/>
<polygon fill="midnightblue" stroke="midnightblue" points="246.829,-145.679 240.01,-137.571 240.284,-148.162 246.829,-145.679"/>
</g>
<!-- Node8 -->
<g id="node19" class="node"><title>Node8</title>
<a xlink:href="genericMath_8h.html" target="_top" xlink:title="genericMath.h">
<polygon fill="none" stroke="black" points="296.5,-116.5 296.5,-137.5 381.5,-137.5 381.5,-116.5 296.5,-116.5"/>
<text text-anchor="middle" x="339" y="-124.5" font-family="FreeSans.ttf" font-size="10.00">genericMath.h</text>
</a>
</g>
<!-- Node6&#45;&gt;Node8 -->
<g id="edge22" class="edge"><title>Node6&#45;&gt;Node8</title>
<path fill="none" stroke="midnightblue" d="M272.857,-174.362C284.846,-165.777 301.927,-153.546 315.728,-143.664"/>
<polygon fill="midnightblue" stroke="midnightblue" points="318.145,-146.238 324.238,-137.571 314.069,-140.547 318.145,-146.238"/>
</g>
<!-- Node7&#45;&gt;Node2 -->
<g id="edge20" class="edge"><title>Node7&#45;&gt;Node2</title>
<path fill="none" stroke="midnightblue" d="M219.493,-116.362C205.918,-107.614 186.467,-95.0786 170.985,-85.1015"/>
<polygon fill="midnightblue" stroke="midnightblue" points="172.704,-82.0457 162.403,-79.5707 168.912,-87.9297 172.704,-82.0457"/>
</g>
<!-- Node8&#45;&gt;Node2 -->
<g id="edge26" class="edge"><title>Node8&#45;&gt;Node2</title>
<path fill="none" stroke="midnightblue" d="M304.049,-116.497C269.841,-106.216 217.922,-90.6139 183.021,-80.1254"/>
<polygon fill="midnightblue" stroke="midnightblue" points="183.8,-76.705 173.216,-77.1788 181.785,-83.4088 183.8,-76.705"/>
</g>
<!-- Node9 -->
<g id="node21" class="node"><title>Node9</title>
<polygon fill="none" stroke="#bfbfbf" points="312.5,-58.5 312.5,-79.5 365.5,-79.5 365.5,-58.5 312.5,-58.5"/>
<text text-anchor="middle" x="339" y="-66.5" font-family="FreeSans.ttf" font-size="10.00">stdint.h</text>
</g>
<!-- Node8&#45;&gt;Node9 -->
<g id="edge24" class="edge"><title>Node8&#45;&gt;Node9</title>
<path fill="none" stroke="midnightblue" d="M339,-116.362C339,-108.922 339,-98.7427 339,-89.7276"/>
<polygon fill="midnightblue" stroke="midnightblue" points="342.5,-89.5706 339,-79.5707 335.5,-89.5707 342.5,-89.5706"/>
</g>
<!-- Node11 -->
<g id="node26" class="node"><title>Node11</title>
<polygon fill="none" stroke="#bfbfbf" points="399,-116.5 399,-137.5 451,-137.5 451,-116.5 399,-116.5"/>
<text text-anchor="middle" x="425" y="-124.5" font-family="FreeSans.ttf" font-size="10.00">cstddef</text>
</g>
<!-- Node10&#45;&gt;Node11 -->
<g id="edge30" class="edge"><title>Node10&#45;&gt;Node11</title>
<path fill="none" stroke="midnightblue" d="M398.869,-174.362C403.155,-166.595 409.087,-155.843 414.216,-146.546"/>
<polygon fill="midnightblue" stroke="midnightblue" points="417.402,-148.017 419.168,-137.571 411.273,-144.636 417.402,-148.017"/>
</g>
</g>
</svg>
