<?xml version="1.0" encoding="UTF-8" standalone="no"?>
<!DOCTYPE svg PUBLIC "-//W3C//DTD SVG 1.1//EN"
 "http://www.w3.org/Graphics/SVG/1.1/DTD/svg11.dtd">
<!-- Generated by graphviz version 2.26.3 (20100126.1600)
 -->
<!-- Title: G Pages: 1 -->
<svg width="184pt" height="146pt"
 viewBox="0.00 0.00 184.00 146.00" xmlns="http://www.w3.org/2000/svg" xmlns:xlink="http://www.w3.org/1999/xlink">
<g id="graph1" class="graph" transform="scale(1 1) rotate(0) translate(4 142)">
<title>G</title>
<!-- Node1 -->
<g id="node1" class="node"><title>Node1</title>
<polygon fill="#bfbfbf" stroke="black" points="0,-116.5 0,-137.5 176,-137.5 176,-116.5 0,-116.5"/>
<text text-anchor="middle" x="88" y="-124.5" font-family="FreeSans.ttf" font-size="10.00">core/math/generic/genericMath.h</text>
</g>
<!-- Node2 -->
<g id="node3" class="node"><title>Node2</title>
<polygon fill="none" stroke="#bfbfbf" points="26.5,-58.5 26.5,-79.5 79.5,-79.5 79.5,-58.5 26.5,-58.5"/>
<text text-anchor="middle" x="53" y="-66.5" font-family="FreeSans.ttf" font-size="10.00">stdint.h</text>
</g>
<!-- Node1&#45;&gt;Node2 -->
<g id="edge2" class="edge"><title>Node1&#45;&gt;Node2</title>
<path fill="none" stroke="midnightblue" d="M81.5805,-116.362C76.8441,-108.513 70.2682,-97.6159 64.618,-88.2527"/>
<polygon fill="midnightblue" stroke="midnightblue" points="67.5422,-86.3242 59.3788,-79.5707 61.5489,-89.9409 67.5422,-86.3242"/>
</g>
<!-- Node3 -->
<g id="node5" class="node"><title>Node3</title>
<a xlink:href="global_8h.html" target="_top" xlink:title="This file holds the global includes, mostly for debuging, tracing and profiling.">
<polygon fill="none" stroke="black" points="97,-58.5 97,-79.5 151,-79.5 151,-58.5 97,-58.5"/>
<text text-anchor="middle" x="124" y="-66.5" font-family="FreeSans.ttf" font-size="10.00">global.h</text>
</a>
</g>
<!-- Node1&#45;&gt;Node3 -->
<g id="edge4" class="edge"><title>Node1&#45;&gt;Node3</title>
<path fill="none" stroke="midnightblue" d="M94.603,-116.362C99.4746,-108.513 106.238,-97.6159 112.05,-88.2527"/>
<polygon fill="midnightblue" stroke="midnightblue" points="115.139,-89.9129 117.439,-79.5707 109.191,-86.2213 115.139,-89.9129"/>
</g>
<!-- Node4 -->
<g id="node7" class="node"><title>Node4</title>
<polygon fill="none" stroke="#bfbfbf" points="92,-0.5 92,-21.5 156,-21.5 156,-0.5 92,-0.5"/>
<text text-anchor="middle" x="124" y="-8.5" font-family="FreeSans.ttf" font-size="10.00">inttypes.h</text>
</g>
<!-- Node3&#45;&gt;Node4 -->
<g id="edge6" class="edge"><title>Node3&#45;&gt;Node4</title>
<path fill="none" stroke="midnightblue" d="M124,-58.3619C124,-50.9219 124,-40.7427 124,-31.7276"/>
<polygon fill="midnightblue" stroke="midnightblue" points="127.5,-31.5706 124,-21.5707 120.5,-31.5707 127.5,-31.5706"/>
</g>
</g>
</svg>
