<?xml version="1.0" encoding="UTF-8" standalone="no"?>
<!DOCTYPE svg PUBLIC "-//W3C//DTD SVG 1.1//EN"
 "http://www.w3.org/Graphics/SVG/1.1/DTD/svg11.dtd">
<!-- Generated by graphviz version 2.26.3 (20100126.1600)
 -->
<!-- Title: G Pages: 1 -->
<svg width="402pt" height="88pt"
 viewBox="0.00 0.00 402.00 88.00" xmlns="http://www.w3.org/2000/svg" xmlns:xlink="http://www.w3.org/1999/xlink">
<g id="graph1" class="graph" transform="scale(1 1) rotate(0) translate(4 84)">
<title>G</title>
<!-- Node1 -->
<g id="node1" class="node"><title>Node1</title>
<polygon fill="#bfbfbf" stroke="black" points="108,-58.5 108,-79.5 266,-79.5 266,-58.5 108,-58.5"/>
<text text-anchor="middle" x="187" y="-66.5" font-family="FreeSans.ttf" font-size="10.00">core/math/gradientDescent.h</text>
</g>
<!-- Node2 -->
<g id="node3" class="node"><title>Node2</title>
<a xlink:href="gradientDescent_8cpp.html" target="_top" xlink:title="Add Comment Here.">
<polygon fill="none" stroke="black" points="-0.5,-0.5 -0.5,-21.5 168.5,-21.5 168.5,-0.5 -0.5,-0.5"/>
<text text-anchor="middle" x="84" y="-8.5" font-family="FreeSans.ttf" font-size="10.00">core/math/gradientDescent.cpp</text>
</a>
</g>
<!-- Node1&#45;&gt;Node2 -->
<g id="edge2" class="edge"><title>Node1&#45;&gt;Node2</title>
<path fill="none" stroke="midnightblue" d="M159.259,-53.379C141.362,-43.3011 118.563,-30.4624 102.772,-21.5707"/>
<polygon fill="midnightblue" stroke="midnightblue" points="157.677,-56.505 168.108,-58.3619 161.112,-50.4055 157.677,-56.505"/>
</g>
<!-- Node3 -->
<g id="node5" class="node"><title>Node3</title>
<a xlink:href="essentialEstimator_8cpp.html" target="_top" xlink:title="Add Comment Here.">
<polygon fill="none" stroke="black" points="186,-0.5 186,-21.5 394,-21.5 394,-0.5 186,-0.5"/>
<text text-anchor="middle" x="290" y="-8.5" font-family="FreeSans.ttf" font-size="10.00">core/rectification/essentialEstimator.cpp</text>
</a>
</g>
<!-- Node1&#45;&gt;Node3 -->
<g id="edge4" class="edge"><title>Node1&#45;&gt;Node3</title>
<path fill="none" stroke="midnightblue" d="M214.741,-53.379C232.638,-43.3011 255.437,-30.4624 271.228,-21.5707"/>
<polygon fill="midnightblue" stroke="midnightblue" points="212.888,-50.4055 205.892,-58.3619 216.323,-56.505 212.888,-50.4055"/>
</g>
</g>
</svg>
