<?xml version="1.0" encoding="UTF-8" standalone="no"?>
<!DOCTYPE svg PUBLIC "-//W3C//DTD SVG 1.1//EN"
 "http://www.w3.org/Graphics/SVG/1.1/DTD/svg11.dtd">
<!-- Generated by graphviz version 2.26.3 (20100126.1600)
 -->
<!-- Title: G Pages: 1 -->
<svg width="190pt" height="146pt"
 viewBox="0.00 0.00 190.00 146.00" xmlns="http://www.w3.org/2000/svg" xmlns:xlink="http://www.w3.org/1999/xlink">
<g id="graph1" class="graph" transform="scale(1 1) rotate(0) translate(4 142)">
<title>G</title>
<!-- Node1 -->
<g id="node1" class="node"><title>Node1</title>
<polygon fill="#bfbfbf" stroke="black" points="0,-116.5 0,-137.5 182,-137.5 182,-116.5 0,-116.5"/>
<text text-anchor="middle" x="91" y="-124.5" font-family="FreeSans.ttf" font-size="10.00">core/buffers/rgb24/hardcodeFont.h</text>
</g>
<!-- Node2 -->
<g id="node3" class="node"><title>Node2</title>
<polygon fill="none" stroke="#bfbfbf" points="29.5,-58.5 29.5,-79.5 82.5,-79.5 82.5,-58.5 29.5,-58.5"/>
<text text-anchor="middle" x="56" y="-66.5" font-family="FreeSans.ttf" font-size="10.00">stdint.h</text>
</g>
<!-- Node1&#45;&gt;Node2 -->
<g id="edge2" class="edge"><title>Node1&#45;&gt;Node2</title>
<path fill="none" stroke="midnightblue" d="M84.5805,-116.362C79.8441,-108.513 73.2682,-97.6159 67.618,-88.2527"/>
<polygon fill="midnightblue" stroke="midnightblue" points="70.5422,-86.3242 62.3788,-79.5707 64.5489,-89.9409 70.5422,-86.3242"/>
</g>
<!-- Node3 -->
<g id="node5" class="node"><title>Node3</title>
<a xlink:href="global_8h.html" target="_top" xlink:title="This file holds the global includes, mostly for debuging, tracing and profiling.">
<polygon fill="none" stroke="black" points="100,-58.5 100,-79.5 154,-79.5 154,-58.5 100,-58.5"/>
<text text-anchor="middle" x="127" y="-66.5" font-family="FreeSans.ttf" font-size="10.00">global.h</text>
</a>
</g>
<!-- Node1&#45;&gt;Node3 -->
<g id="edge4" class="edge"><title>Node1&#45;&gt;Node3</title>
<path fill="none" stroke="midnightblue" d="M97.603,-116.362C102.475,-108.513 109.238,-97.6159 115.05,-88.2527"/>
<polygon fill="midnightblue" stroke="midnightblue" points="118.139,-89.9129 120.439,-79.5707 112.191,-86.2213 118.139,-89.9129"/>
</g>
<!-- Node4 -->
<g id="node7" class="node"><title>Node4</title>
<polygon fill="none" stroke="#bfbfbf" points="95,-0.5 95,-21.5 159,-21.5 159,-0.5 95,-0.5"/>
<text text-anchor="middle" x="127" y="-8.5" font-family="FreeSans.ttf" font-size="10.00">inttypes.h</text>
</g>
<!-- Node3&#45;&gt;Node4 -->
<g id="edge6" class="edge"><title>Node3&#45;&gt;Node4</title>
<path fill="none" stroke="midnightblue" d="M127,-58.3619C127,-50.9219 127,-40.7427 127,-31.7276"/>
<polygon fill="midnightblue" stroke="midnightblue" points="130.5,-31.5706 127,-21.5707 123.5,-31.5707 130.5,-31.5706"/>
</g>
</g>
</svg>
