<?xml version="1.0" encoding="UTF-8" standalone="no"?>
<!DOCTYPE svg PUBLIC "-//W3C//DTD SVG 1.1//EN"
 "http://www.w3.org/Graphics/SVG/1.1/DTD/svg11.dtd">
<!-- Generated by graphviz version 2.26.3 (20100126.1600)
 -->
<!-- Title: G Pages: 1 -->
<svg width="1142pt" height="30pt"
 viewBox="0.00 0.00 1142.00 30.00" xmlns="http://www.w3.org/2000/svg" xmlns:xlink="http://www.w3.org/1999/xlink">
<g id="graph1" class="graph" transform="scale(1 1) rotate(0) translate(4 26)">
<title>G</title>
<!-- Node1 -->
<g id="node1" class="node"><title>Node1</title>
<a xlink:href="classcorecvs_1_1VectorOperationsBase.html" target="_top" xlink:title="corecvs::VectorOperationsBase\&lt; Vector3d\&lt; ElementType \&gt;, ElementType \&gt;">
<polygon fill="none" stroke="black" points="0,-0.5 0,-21.5 382,-21.5 382,-0.5 0,-0.5"/>
<text text-anchor="middle" x="191" y="-8.5" font-family="FreeSans.ttf" font-size="10.00">corecvs::VectorOperationsBase&lt; Vector3d&lt; ElementType &gt;, ElementType &gt;</text>
</a>
</g>
<!-- Node2 -->
<g id="node3" class="node"><title>Node2</title>
<a xlink:href="classcorecvs_1_1FixedVectorBase.html" target="_top" xlink:title="corecvs::FixedVectorBase\&lt; Vector3d\&lt; ElementType \&gt;, ElementType, 3 \&gt;">
<polygon fill="none" stroke="black" points="418.5,-0.5 418.5,-21.5 783.5,-21.5 783.5,-0.5 418.5,-0.5"/>
<text text-anchor="middle" x="601" y="-8.5" font-family="FreeSans.ttf" font-size="10.00">corecvs::FixedVectorBase&lt; Vector3d&lt; ElementType &gt;, ElementType, 3 &gt;</text>
</a>
</g>
<!-- Node1&#45;&gt;Node2 -->
<g id="edge2" class="edge"><title>Node1&#45;&gt;Node2</title>
<path fill="none" stroke="midnightblue" d="M392.336,-11C400.98,-11 409.633,-11 418.233,-11"/>
<polygon fill="midnightblue" stroke="midnightblue" points="392.196,-7.5001 382.196,-11 392.196,-14.5001 392.196,-7.5001"/>
</g>
<!-- Node3 -->
<g id="node5" class="node"><title>Node3</title>
<a xlink:href="classcorecvs_1_1Vector3d.html" target="_top" xlink:title="corecvs::Vector3d\&lt; ElementType \&gt;">
<polygon fill="none" stroke="black" points="820.5,-0.5 820.5,-21.5 1005.5,-21.5 1005.5,-0.5 820.5,-0.5"/>
<text text-anchor="middle" x="913" y="-8.5" font-family="FreeSans.ttf" font-size="10.00">corecvs::Vector3d&lt; ElementType &gt;</text>
</a>
</g>
<!-- Node2&#45;&gt;Node3 -->
<g id="edge4" class="edge"><title>Node2&#45;&gt;Node3</title>
<path fill="none" stroke="midnightblue" d="M794.041,-11C803.012,-11 811.809,-11 820.305,-11"/>
<polygon fill="midnightblue" stroke="midnightblue" points="793.846,-7.5001 783.845,-11 793.845,-14.5001 793.846,-7.5001"/>
</g>
<!-- Node4 -->
<g id="node7" class="node"><title>Node4</title>
<a xlink:href="classcorecvs_1_1Line2d.html" target="_top" xlink:title="This class represents the line in 2D space.">
<polygon fill="none" stroke="black" points="1042.5,-0.5 1042.5,-21.5 1133.5,-21.5 1133.5,-0.5 1042.5,-0.5"/>
<text text-anchor="middle" x="1088" y="-8.5" font-family="FreeSans.ttf" font-size="10.00">corecvs::Line2d</text>
</a>
</g>
<!-- Node3&#45;&gt;Node4 -->
<g id="edge6" class="edge"><title>Node3&#45;&gt;Node4</title>
<path fill="none" stroke="midnightblue" d="M1015.76,-11C1025.04,-11 1034.09,-11 1042.46,-11"/>
<polygon fill="midnightblue" stroke="midnightblue" points="1015.62,-7.5001 1005.62,-11 1015.62,-14.5001 1015.62,-7.5001"/>
</g>
</g>
</svg>
