<?xml version="1.0" encoding="UTF-8" standalone="no"?>
<!DOCTYPE svg PUBLIC "-//W3C//DTD SVG 1.1//EN"
 "http://www.w3.org/Graphics/SVG/1.1/DTD/svg11.dtd">
<!-- Generated by graphviz version 2.26.3 (20100126.1600)
 -->
<!-- Title: G Pages: 1 -->
<!--zoomable 610 -->
<svg id="main" version="1.1" xmlns="http://www.w3.org/2000/svg" xmlns:xlink="http://www.w3.org/1999/xlink" xml:space="preserve" onload="init(evt)">
        <defs>
                <circle id="rim" cx="0" cy="0" r="7"/>
                <circle id="rim2" cx="0" cy="0" r="3.5"/>
                <g id="zoomPlus">
                        <use xlink:href="#rim" fill="#404040">
                                <set attributeName="fill" to="#808080" begin="zoomplus.mouseover" end="zoomplus.mouseout"/>
                        </use>
                        <path d="M-4,0h8M0,-4v8" fill="none" stroke="white" stroke-width="1.5" pointer-events="none"/>
                </g>
                <g id="zoomMin">
                        <use xlink:href="#rim" fill="#404040">
                                <set attributeName="fill" to="#808080" begin="zoomminus.mouseover" end="zoomminus.mouseout"/>
                        </use>
                        <path d="M-4,0h8" fill="none" stroke="white" stroke-width="1.5" pointer-events="none"/>
                </g>
                <g id="dirArrow">
                        <path fill="none" stroke="white" stroke-width="1.5" d="M0,-3.0v7 M-2.5,-0.5L0,-3.0L2.5,-0.5"/>
                </g>
               <g id="resetDef">
                       <use xlink:href="#rim2" fill="#404040">
                               <set attributeName="fill" to="#808080" begin="reset.mouseover" end="reset.mouseout"/>
                       </use>
               </g>
        </defs>

<script type="text/javascript">
var viewWidth = 1222;
var viewHeight = 610;
var sectionId = 'dynsection-0';
</script>
<script xlink:href="svgpan.js"/>
<svg id="graph" class="graph">
<g id="viewport">
<title>G</title>
<!-- Node1 -->
<g id="node1" class="node"><title>Node1</title>
<polygon fill="#bfbfbf" stroke="black" points="127,-580.5 127,-601.5 267,-601.5 267,-580.5 127,-580.5"/>
<text text-anchor="middle" x="197" y="-588.5" font-family="FreeSans.ttf" font-size="10.00">core/buffers/interpolator.h</text>
</g>
<!-- Node2 -->
<g id="node3" class="node"><title>Node2</title>
<a xlink:href="global_8h.html" target="_top" xlink:title="This file holds the global includes, mostly for debuging, tracing and profiling.">
<polygon fill="none" stroke="black" points="193,-58.5 193,-79.5 247,-79.5 247,-58.5 193,-58.5"/>
<text text-anchor="middle" x="220" y="-66.5" font-family="FreeSans.ttf" font-size="10.00">global.h</text>
</a>
</g>
<!-- Node1&#45;&gt;Node2 -->
<g id="edge2" class="edge"><title>Node1&#45;&gt;Node2</title>
<path fill="none" stroke="midnightblue" d="M131.949,-580.459C74.5671,-567.013 0,-537.512 0,-475 0,-475 0,-475 0,-185 0,-103.57 119.393,-79.1626 182.271,-71.9551"/>
<polygon fill="midnightblue" stroke="midnightblue" points="183.003,-75.3973 192.582,-70.8691 182.27,-68.4358 183.003,-75.3973"/>
</g>
<!-- Node4 -->
<g id="node7" class="node"><title>Node4</title>
<a xlink:href="g12Buffer_8h.html" target="_top" xlink:title="This file holds the class description for 12 bit grayscale buffer.">
<polygon fill="none" stroke="black" points="416.5,-522.5 416.5,-543.5 487.5,-543.5 487.5,-522.5 416.5,-522.5"/>
<text text-anchor="middle" x="452" y="-530.5" font-family="FreeSans.ttf" font-size="10.00">g12Buffer.h</text>
</a>
</g>
<!-- Node1&#45;&gt;Node4 -->
<g id="edge6" class="edge"><title>Node1&#45;&gt;Node4</title>
<path fill="none" stroke="midnightblue" d="M243.179,-580.497C289.479,-569.965 360.336,-553.849 406.423,-543.367"/>
<polygon fill="midnightblue" stroke="midnightblue" points="407.459,-546.72 416.433,-541.09 405.906,-539.895 407.459,-546.72"/>
</g>
<!-- Node3 -->
<g id="node5" class="node"><title>Node3</title>
<polygon fill="none" stroke="#bfbfbf" points="188,-0.5 188,-21.5 252,-21.5 252,-0.5 188,-0.5"/>
<text text-anchor="middle" x="220" y="-8.5" font-family="FreeSans.ttf" font-size="10.00">inttypes.h</text>
</g>
<!-- Node2&#45;&gt;Node3 -->
<g id="edge4" class="edge"><title>Node2&#45;&gt;Node3</title>
<path fill="none" stroke="midnightblue" d="M220,-58.3619C220,-50.9219 220,-40.7427 220,-31.7276"/>
<polygon fill="midnightblue" stroke="midnightblue" points="223.5,-31.5706 220,-21.5707 216.5,-31.5707 223.5,-31.5706"/>
</g>
<!-- Node4&#45;&gt;Node2 -->
<g id="edge10" class="edge"><title>Node4&#45;&gt;Node2</title>
<path fill="none" stroke="midnightblue" d="M416.344,-530.675C315.923,-523.158 38,-495.282 38,-417 38,-417 38,-417 38,-185 38,-117.028 129.389,-87.1402 182.648,-75.4937"/>
<polygon fill="midnightblue" stroke="midnightblue" points="183.67,-78.8564 192.753,-73.4018 182.251,-72.0018 183.67,-78.8564"/>
</g>
<!-- Node5 -->
<g id="node9" class="node"><title>Node5</title>
<polygon fill="none" stroke="#bfbfbf" points="1108.5,-116.5 1108.5,-137.5 1167.5,-137.5 1167.5,-116.5 1108.5,-116.5"/>
<text text-anchor="middle" x="1138" y="-124.5" font-family="FreeSans.ttf" font-size="10.00">iostream</text>
</g>
<!-- Node4&#45;&gt;Node5 -->
<g id="edge8" class="edge"><title>Node4&#45;&gt;Node5</title>
<path fill="none" stroke="midnightblue" d="M487.731,-531.385C638.381,-524.108 1214,-491.435 1214,-417 1214,-417 1214,-417 1214,-359 1214,-276.731 1170.31,-185.843 1149.18,-146.701"/>
<polygon fill="midnightblue" stroke="midnightblue" points="1152.11,-144.766 1144.22,-137.696 1145.98,-148.143 1152.11,-144.766"/>
</g>
<!-- Node6 -->
<g id="node12" class="node"><title>Node6</title>
<a xlink:href="abstractBuffer_8h.html" target="_top" xlink:title="a header for AbstractBuffer.cpp">
<polygon fill="none" stroke="black" points="427.5,-348.5 427.5,-369.5 520.5,-369.5 520.5,-348.5 427.5,-348.5"/>
<text text-anchor="middle" x="474" y="-356.5" font-family="FreeSans.ttf" font-size="10.00">abstractBuffer.h</text>
</a>
</g>
<!-- Node4&#45;&gt;Node6 -->
<g id="edge12" class="edge"><title>Node4&#45;&gt;Node6</title>
<path fill="none" stroke="midnightblue" d="M453.343,-522.377C456.894,-494.293 466.582,-417.673 471.319,-380.203"/>
<polygon fill="midnightblue" stroke="midnightblue" points="474.836,-380.288 472.618,-369.928 467.892,-379.41 474.836,-380.288"/>
</g>
<!-- Node27 -->
<g id="node71" class="node"><title>Node27</title>
<a xlink:href="abstractContiniousBuffer_8h.html" target="_top" xlink:title="a header for AbstractContiniousBuffer.c">
<polygon fill="none" stroke="black" points="306.5,-406.5 306.5,-427.5 449.5,-427.5 449.5,-406.5 306.5,-406.5"/>
<text text-anchor="middle" x="378" y="-414.5" font-family="FreeSans.ttf" font-size="10.00">abstractContiniousBuffer.h</text>
</a>
</g>
<!-- Node4&#45;&gt;Node27 -->
<g id="edge88" class="edge"><title>Node4&#45;&gt;Node27</title>
<path fill="none" stroke="midnightblue" d="M445.171,-522.295C432.671,-502.7 405.954,-460.82 390.243,-436.191"/>
<polygon fill="midnightblue" stroke="midnightblue" points="393.142,-434.227 384.813,-427.679 387.24,-437.992 393.142,-434.227"/>
</g>
<!-- Node29 -->
<g id="node77" class="node"><title>Node29</title>
<a xlink:href="fixedPointDisplace_8h.html" target="_top" xlink:title="A header for fixedPointDisplace.c.">
<polygon fill="none" stroke="black" points="561.5,-464.5 561.5,-485.5 674.5,-485.5 674.5,-464.5 561.5,-464.5"/>
<text text-anchor="middle" x="618" y="-472.5" font-family="FreeSans.ttf" font-size="10.00">fixedPointDisplace.h</text>
</a>
</g>
<!-- Node4&#45;&gt;Node29 -->
<g id="edge96" class="edge"><title>Node4&#45;&gt;Node29</title>
<path fill="none" stroke="midnightblue" d="M482.061,-522.497C509.007,-513.082 548.728,-499.204 578.282,-488.877"/>
<polygon fill="midnightblue" stroke="midnightblue" points="579.596,-492.126 587.882,-485.523 577.287,-485.517 579.596,-492.126"/>
</g>
<!-- Node6&#45;&gt;Node2 -->
<g id="edge24" class="edge"><title>Node6&#45;&gt;Node2</title>
<path fill="none" stroke="midnightblue" d="M427.174,-350.321C321.966,-330.177 76,-279.211 76,-243 76,-243 76,-243 76,-185 76,-129.902 140.725,-96.5434 183.388,-80.5399"/>
<polygon fill="midnightblue" stroke="midnightblue" points="184.689,-83.7915 192.915,-77.114 182.32,-77.2044 184.689,-83.7915"/>
</g>
<!-- Node7 -->
<g id="node14" class="node"><title>Node7</title>
<polygon fill="none" stroke="#bfbfbf" points="618.5,-58.5 618.5,-79.5 671.5,-79.5 671.5,-58.5 618.5,-58.5"/>
<text text-anchor="middle" x="645" y="-66.5" font-family="FreeSans.ttf" font-size="10.00">stdint.h</text>
</g>
<!-- Node6&#45;&gt;Node7 -->
<g id="edge14" class="edge"><title>Node6&#45;&gt;Node7</title>
<path fill="none" stroke="midnightblue" d="M476.703,-348.39C488.354,-302.782 534.061,-125.278 542,-116 559.066,-96.0555 586.357,-84.1293 608.56,-77.2833"/>
<polygon fill="midnightblue" stroke="midnightblue" points="609.696,-80.5989 618.348,-74.4848 607.771,-73.8686 609.696,-80.5989"/>
</g>
<!-- Node8 -->
<g id="node16" class="node"><title>Node8</title>
<polygon fill="none" stroke="#bfbfbf" points="906.5,-58.5 906.5,-79.5 955.5,-79.5 955.5,-58.5 906.5,-58.5"/>
<text text-anchor="middle" x="931" y="-66.5" font-family="FreeSans.ttf" font-size="10.00">stdio.h</text>
</g>
<!-- Node6&#45;&gt;Node8 -->
<g id="edge16" class="edge"><title>Node6&#45;&gt;Node8</title>
<path fill="none" stroke="midnightblue" d="M520.515,-353.767C582.66,-346.177 688.915,-330.929 723,-312 821.807,-257.13 894.974,-135.917 920.819,-88.5292"/>
<polygon fill="midnightblue" stroke="midnightblue" points="923.971,-90.0558 925.607,-79.5881 917.801,-86.7508 923.971,-90.0558"/>
</g>
<!-- Node9 -->
<g id="node18" class="node"><title>Node9</title>
<polygon fill="none" stroke="#bfbfbf" points="689,-58.5 689,-79.5 745,-79.5 745,-58.5 689,-58.5"/>
<text text-anchor="middle" x="717" y="-66.5" font-family="FreeSans.ttf" font-size="10.00">stdarg.h</text>
</g>
<!-- Node6&#45;&gt;Node9 -->
<g id="edge18" class="edge"><title>Node6&#45;&gt;Node9</title>
<path fill="none" stroke="midnightblue" d="M480.948,-348.443C486.942,-339.09 495.616,-324.949 502,-312 522.728,-269.954 546.062,-148.338 580,-116 583.765,-112.412 639.905,-93.8248 679.137,-81.1283"/>
<polygon fill="midnightblue" stroke="midnightblue" points="680.263,-84.4426 688.704,-78.04 678.113,-77.7811 680.263,-84.4426"/>
</g>
<!-- Node10 -->
<g id="node20" class="node"><title>Node10</title>
<polygon fill="none" stroke="#bfbfbf" points="763,-58.5 763,-79.5 807,-79.5 807,-58.5 763,-58.5"/>
<text text-anchor="middle" x="785" y="-66.5" font-family="FreeSans.ttf" font-size="10.00">string</text>
</g>
<!-- Node6&#45;&gt;Node10 -->
<g id="edge20" class="edge"><title>Node6&#45;&gt;Node10</title>
<path fill="none" stroke="midnightblue" d="M484.305,-348.488C518.143,-314.105 629.286,-202.244 727,-116 738.77,-105.612 752.386,-94.5322 763.467,-85.741"/>
<polygon fill="midnightblue" stroke="midnightblue" points="765.683,-88.4507 771.373,-79.5137 761.352,-82.9515 765.683,-88.4507"/>
</g>
<!-- Node11 -->
<g id="node22" class="node"><title>Node11</title>
<polygon fill="none" stroke="#bfbfbf" points="413.5,-290.5 413.5,-311.5 476.5,-311.5 476.5,-290.5 413.5,-290.5"/>
<text text-anchor="middle" x="445" y="-298.5" font-family="FreeSans.ttf" font-size="10.00">functional</text>
</g>
<!-- Node6&#45;&gt;Node11 -->
<g id="edge22" class="edge"><title>Node6&#45;&gt;Node11</title>
<path fill="none" stroke="midnightblue" d="M468.681,-348.362C464.797,-340.595 459.421,-329.843 454.773,-320.546"/>
<polygon fill="midnightblue" stroke="midnightblue" points="457.888,-318.95 450.285,-311.571 451.627,-322.08 457.888,-318.95"/>
</g>
<!-- Node12 -->
<g id="node25" class="node"><title>Node12</title>
<a xlink:href="vector2d_8h.html" target="_top" xlink:title="Add Comment Here.">
<polygon fill="none" stroke="black" points="646,-290.5 646,-311.5 714,-311.5 714,-290.5 646,-290.5"/>
<text text-anchor="middle" x="680" y="-298.5" font-family="FreeSans.ttf" font-size="10.00">vector2d.h</text>
</a>
</g>
<!-- Node6&#45;&gt;Node12 -->
<g id="edge26" class="edge"><title>Node6&#45;&gt;Node12</title>
<path fill="none" stroke="midnightblue" d="M511.305,-348.497C546.279,-338.65 598.595,-323.92 635.681,-313.478"/>
<polygon fill="midnightblue" stroke="midnightblue" points="637.033,-316.734 645.71,-310.654 635.136,-309.996 637.033,-316.734"/>
</g>
<!-- Node20 -->
<g id="node52" class="node"><title>Node20</title>
<a xlink:href="memoryBlock_8h.html" target="_top" xlink:title="Add Comment Here.">
<polygon fill="none" stroke="black" points="220.5,-174.5 220.5,-195.5 355.5,-195.5 355.5,-174.5 220.5,-174.5"/>
<text text-anchor="middle" x="288" y="-182.5" font-family="FreeSans.ttf" font-size="10.00">memory/memoryBlock.h</text>
</a>
</g>
<!-- Node6&#45;&gt;Node20 -->
<g id="edge64" class="edge"><title>Node6&#45;&gt;Node20</title>
<path fill="none" stroke="midnightblue" d="M427.108,-348.544C380.6,-337.744 315.116,-321.207 307,-312 281.087,-282.602 281.802,-233.698 284.794,-205.936"/>
<polygon fill="midnightblue" stroke="midnightblue" points="288.297,-206.135 286.097,-195.771 281.354,-205.245 288.297,-206.135"/>
</g>
<!-- Node24 -->
<g id="node62" class="node"><title>Node24</title>
<a xlink:href="tbbWrapper_8h.html" target="_top" xlink:title="This is a class that provides common TBB interface.">
<polygon fill="none" stroke="black" points="316,-290.5 316,-311.5 396,-311.5 396,-290.5 316,-290.5"/>
<text text-anchor="middle" x="356" y="-298.5" font-family="FreeSans.ttf" font-size="10.00">tbbWrapper.h</text>
</a>
</g>
<!-- Node6&#45;&gt;Node24 -->
<g id="edge76" class="edge"><title>Node6&#45;&gt;Node24</title>
<path fill="none" stroke="midnightblue" d="M452.631,-348.497C434.201,-339.438 407.363,-326.246 386.645,-316.063"/>
<polygon fill="midnightblue" stroke="midnightblue" points="388.127,-312.891 377.609,-311.621 385.039,-319.174 388.127,-312.891"/>
</g>
<!-- Node26 -->
<g id="node66" class="node"><title>Node26</title>
<a xlink:href="mathUtils_8h.html" target="_top" xlink:title="Add Comment Here.">
<polygon fill="none" stroke="black" points="131,-174.5 131,-195.5 203,-195.5 203,-174.5 131,-174.5"/>
<text text-anchor="middle" x="167" y="-182.5" font-family="FreeSans.ttf" font-size="10.00">mathUtils.h</text>
</a>
</g>
<!-- Node6&#45;&gt;Node26 -->
<g id="edge80" class="edge"><title>Node6&#45;&gt;Node26</title>
<path fill="none" stroke="midnightblue" d="M427.402,-350.024C381.173,-340.59 314,-325.303 291,-312 242.619,-284.017 200.551,-231.938 180.135,-203.952"/>
<polygon fill="midnightblue" stroke="midnightblue" points="182.95,-201.872 174.287,-195.773 177.256,-205.943 182.95,-201.872"/>
</g>
<!-- Node12&#45;&gt;Node2 -->
<g id="edge32" class="edge"><title>Node12&#45;&gt;Node2</title>
<path fill="none" stroke="midnightblue" d="M673.009,-290.407C651.054,-258.089 579.808,-160.269 494,-116 453.369,-95.0385 322.813,-79.3614 257.683,-72.6273"/>
<polygon fill="midnightblue" stroke="midnightblue" points="257.743,-69.1155 247.44,-71.5865 257.035,-76.0797 257.743,-69.1155"/>
</g>
<!-- Node12&#45;&gt;Node7 -->
<g id="edge30" class="edge"><title>Node12&#45;&gt;Node7</title>
<path fill="none" stroke="midnightblue" d="M678.405,-290.429C673.007,-254.648 655.359,-137.663 648.13,-89.7481"/>
<polygon fill="midnightblue" stroke="midnightblue" points="651.557,-88.9995 646.604,-79.6335 644.635,-90.0438 651.557,-88.9995"/>
</g>
<!-- Node13 -->
<g id="node27" class="node"><title>Node13</title>
<polygon fill="none" stroke="#bfbfbf" points="735.5,-116.5 735.5,-137.5 786.5,-137.5 786.5,-116.5 735.5,-116.5"/>
<text text-anchor="middle" x="761" y="-124.5" font-family="FreeSans.ttf" font-size="10.00">math.h</text>
</g>
<!-- Node12&#45;&gt;Node13 -->
<g id="edge28" class="edge"><title>Node12&#45;&gt;Node13</title>
<path fill="none" stroke="midnightblue" d="M684.945,-290.377C698.131,-262.051 734.303,-184.349 751.577,-147.242"/>
<polygon fill="midnightblue" stroke="midnightblue" points="754.866,-148.471 755.913,-137.928 748.52,-145.516 754.866,-148.471"/>
</g>
<!-- Node14 -->
<g id="node31" class="node"><title>Node14</title>
<a xlink:href="fixedVector_8h.html" target="_top" xlink:title="This file holds the description of the commonly used template &#45; a vector with the fixed number of com...">
<polygon fill="none" stroke="black" points="897,-232.5 897,-253.5 975,-253.5 975,-232.5 897,-232.5"/>
<text text-anchor="middle" x="936" y="-240.5" font-family="FreeSans.ttf" font-size="10.00">fixedVector.h</text>
</a>
</g>
<!-- Node12&#45;&gt;Node14 -->
<g id="edge34" class="edge"><title>Node12&#45;&gt;Node14</title>
<path fill="none" stroke="midnightblue" d="M714.26,-293.238C758.617,-283.188 836.222,-265.606 886.855,-254.134"/>
<polygon fill="midnightblue" stroke="midnightblue" points="887.937,-257.478 896.917,-251.855 886.39,-250.651 887.937,-257.478"/>
</g>
<!-- Node14&#45;&gt;Node8 -->
<g id="edge36" class="edge"><title>Node14&#45;&gt;Node8</title>
<path fill="none" stroke="midnightblue" d="M935.695,-232.377C934.888,-204.293 932.686,-127.673 931.609,-90.2027"/>
<polygon fill="midnightblue" stroke="midnightblue" points="935.1,-89.823 931.314,-79.9277 928.103,-90.0242 935.1,-89.823"/>
</g>
<!-- Node15 -->
<g id="node34" class="node"><title>Node15</title>
<a xlink:href="vectorOperations_8h.html" target="_top" xlink:title="This file holds the operations that are commonly used with continuous linear data structures such as ...">
<polygon fill="none" stroke="black" points="964,-174.5 964,-195.5 1072,-195.5 1072,-174.5 964,-174.5"/>
<text text-anchor="middle" x="1018" y="-182.5" font-family="FreeSans.ttf" font-size="10.00">vectorOperations.h</text>
</a>
</g>
<!-- Node14&#45;&gt;Node15 -->
<g id="edge38" class="edge"><title>Node14&#45;&gt;Node15</title>
<path fill="none" stroke="midnightblue" d="M951.04,-232.362C963.293,-223.696 980.799,-211.313 994.839,-201.382"/>
<polygon fill="midnightblue" stroke="midnightblue" points="996.912,-204.203 1003.06,-195.571 992.87,-198.488 996.912,-204.203"/>
</g>
<!-- Node15&#45;&gt;Node5 -->
<g id="edge42" class="edge"><title>Node15&#45;&gt;Node5</title>
<path fill="none" stroke="midnightblue" d="M1039.73,-174.497C1058.47,-165.438 1085.77,-152.246 1106.84,-142.063"/>
<polygon fill="midnightblue" stroke="midnightblue" points="1108.54,-145.124 1116.03,-137.621 1105.5,-138.822 1108.54,-145.124"/>
</g>
<!-- Node15&#45;&gt;Node8 -->
<g id="edge44" class="edge"><title>Node15&#45;&gt;Node8</title>
<path fill="none" stroke="midnightblue" d="M1009.97,-174.295C995.21,-154.613 963.588,-112.45 945.15,-87.8668"/>
<polygon fill="midnightblue" stroke="midnightblue" points="947.809,-85.5792 939.009,-79.6792 942.209,-89.7792 947.809,-85.5792"/>
</g>
<!-- Node15&#45;&gt;Node13 -->
<g id="edge46" class="edge"><title>Node15&#45;&gt;Node13</title>
<path fill="none" stroke="midnightblue" d="M963.549,-175.184C920.469,-167.041 858.636,-154.525 796.505,-138.227"/>
<polygon fill="midnightblue" stroke="midnightblue" points="797.097,-134.763 786.534,-135.579 795.301,-141.529 797.097,-134.763"/>
</g>
<!-- Node16 -->
<g id="node36" class="node"><title>Node16</title>
<polygon fill="none" stroke="#bfbfbf" points="1038,-116.5 1038,-137.5 1080,-137.5 1080,-116.5 1038,-116.5"/>
<text text-anchor="middle" x="1059" y="-124.5" font-family="FreeSans.ttf" font-size="10.00">limits</text>
</g>
<!-- Node15&#45;&gt;Node16 -->
<g id="edge40" class="edge"><title>Node15&#45;&gt;Node16</title>
<path fill="none" stroke="midnightblue" d="M1025.52,-174.362C1031.13,-166.431 1038.93,-155.389 1045.6,-145.961"/>
<polygon fill="midnightblue" stroke="midnightblue" points="1048.61,-147.757 1051.53,-137.571 1042.9,-143.716 1048.61,-147.757"/>
</g>
<!-- Node17 -->
<g id="node41" class="node"><title>Node17</title>
<a xlink:href="reflection_8h.html" target="_top" xlink:title="a header for Reflection.c">
<polygon fill="none" stroke="black" points="804,-116.5 804,-137.5 874,-137.5 874,-116.5 804,-116.5"/>
<text text-anchor="middle" x="839" y="-124.5" font-family="FreeSans.ttf" font-size="10.00">reflection.h</text>
</a>
</g>
<!-- Node15&#45;&gt;Node17 -->
<g id="edge48" class="edge"><title>Node15&#45;&gt;Node17</title>
<path fill="none" stroke="midnightblue" d="M985.584,-174.497C956.276,-165 912.952,-150.962 880.999,-140.609"/>
<polygon fill="midnightblue" stroke="midnightblue" points="882.068,-137.276 871.476,-137.523 879.911,-143.935 882.068,-137.276"/>
</g>
<!-- Node17&#45;&gt;Node2 -->
<g id="edge62" class="edge"><title>Node17&#45;&gt;Node2</title>
<path fill="none" stroke="midnightblue" d="M803.562,-117.612C800.677,-117.009 797.797,-116.461 795,-116 593.941,-82.8786 349.302,-72.7175 257.33,-69.9415"/>
<polygon fill="midnightblue" stroke="midnightblue" points="257.233,-66.4373 247.135,-69.6455 257.029,-73.4343 257.233,-66.4373"/>
</g>
<!-- Node17&#45;&gt;Node7 -->
<g id="edge58" class="edge"><title>Node17&#45;&gt;Node7</title>
<path fill="none" stroke="midnightblue" d="M803.897,-116.811C773.724,-108.011 728.799,-94.8106 681.536,-80.4407"/>
<polygon fill="midnightblue" stroke="midnightblue" points="682.324,-77.0221 671.738,-77.4552 680.284,-83.7182 682.324,-77.0221"/>
</g>
<!-- Node17&#45;&gt;Node8 -->
<g id="edge56" class="edge"><title>Node17&#45;&gt;Node8</title>
<path fill="none" stroke="midnightblue" d="M855.874,-116.362C869.751,-107.614 889.634,-95.0786 905.46,-85.1015"/>
<polygon fill="midnightblue" stroke="midnightblue" points="907.64,-87.8645 914.233,-79.5707 903.907,-81.943 907.64,-87.8645"/>
</g>
<!-- Node17&#45;&gt;Node9 -->
<g id="edge60" class="edge"><title>Node17&#45;&gt;Node9</title>
<path fill="none" stroke="midnightblue" d="M816.907,-116.497C797.766,-107.397 769.854,-94.1273 748.395,-83.9253"/>
<polygon fill="midnightblue" stroke="midnightblue" points="749.875,-80.7539 739.341,-79.6212 746.87,-87.0758 749.875,-80.7539"/>
</g>
<!-- Node17&#45;&gt;Node10 -->
<g id="edge52" class="edge"><title>Node17&#45;&gt;Node10</title>
<path fill="none" stroke="midnightblue" d="M829.096,-116.362C821.484,-108.186 810.792,-96.7025 801.843,-87.0907"/>
<polygon fill="midnightblue" stroke="midnightblue" points="804.217,-84.5046 794.842,-79.5707 799.094,-89.2746 804.217,-84.5046"/>
</g>
<!-- Node18 -->
<g id="node43" class="node"><title>Node18</title>
<polygon fill="none" stroke="#bfbfbf" points="824.5,-58.5 824.5,-79.5 871.5,-79.5 871.5,-58.5 824.5,-58.5"/>
<text text-anchor="middle" x="848" y="-66.5" font-family="FreeSans.ttf" font-size="10.00">vector</text>
</g>
<!-- Node17&#45;&gt;Node18 -->
<g id="edge50" class="edge"><title>Node17&#45;&gt;Node18</title>
<path fill="none" stroke="midnightblue" d="M840.651,-116.362C841.805,-108.922 843.385,-98.7427 844.784,-89.7276"/>
<polygon fill="midnightblue" stroke="midnightblue" points="848.285,-89.9891 846.36,-79.5707 841.368,-88.9157 848.285,-89.9891"/>
</g>
<!-- Node19 -->
<g id="node46" class="node"><title>Node19</title>
<polygon fill="none" stroke="#bfbfbf" points="1084.5,-58.5 1084.5,-79.5 1137.5,-79.5 1137.5,-58.5 1084.5,-58.5"/>
<text text-anchor="middle" x="1111" y="-66.5" font-family="FreeSans.ttf" font-size="10.00">string.h</text>
</g>
<!-- Node17&#45;&gt;Node19 -->
<g id="edge54" class="edge"><title>Node17&#45;&gt;Node19</title>
<path fill="none" stroke="midnightblue" d="M874.002,-119.536C925.656,-108.522 1021.84,-88.0121 1074.4,-76.8052"/>
<polygon fill="midnightblue" stroke="midnightblue" points="1075.25,-80.202 1084.3,-74.6934 1073.79,-73.3559 1075.25,-80.202"/>
</g>
<!-- Node20&#45;&gt;Node2 -->
<g id="edge72" class="edge"><title>Node20&#45;&gt;Node2</title>
<path fill="none" stroke="midnightblue" d="M273.06,-174.256C262.108,-165.629 247.69,-152.581 239,-138 230.079,-123.031 225.23,-103.754 222.669,-89.3817"/>
<polygon fill="midnightblue" stroke="midnightblue" points="226.127,-88.8408 221.127,-79.5 219.21,-89.9201 226.127,-88.8408"/>
</g>
<!-- Node20&#45;&gt;Node7 -->
<g id="edge68" class="edge"><title>Node20&#45;&gt;Node7</title>
<path fill="none" stroke="midnightblue" d="M320.628,-174.398C387.236,-152.755 538.451,-103.621 608.333,-80.9143"/>
<polygon fill="midnightblue" stroke="midnightblue" points="609.604,-84.1813 618.033,-77.7623 607.441,-77.5239 609.604,-84.1813"/>
</g>
<!-- Node21 -->
<g id="node54" class="node"><title>Node21</title>
<polygon fill="none" stroke="#bfbfbf" points="341.5,-116.5 341.5,-137.5 376.5,-137.5 376.5,-116.5 341.5,-116.5"/>
<text text-anchor="middle" x="359" y="-124.5" font-family="FreeSans.ttf" font-size="10.00">new</text>
</g>
<!-- Node20&#45;&gt;Node21 -->
<g id="edge66" class="edge"><title>Node20&#45;&gt;Node21</title>
<path fill="none" stroke="midnightblue" d="M301.022,-174.362C311.431,-165.859 326.219,-153.779 338.255,-143.947"/>
<polygon fill="midnightblue" stroke="midnightblue" points="340.53,-146.608 346.06,-137.571 336.101,-141.187 340.53,-146.608"/>
</g>
<!-- Node22 -->
<g id="node57" class="node"><title>Node22</title>
<polygon fill="none" stroke="#bfbfbf" points="141.5,-116.5 141.5,-137.5 192.5,-137.5 192.5,-116.5 141.5,-116.5"/>
<text text-anchor="middle" x="167" y="-124.5" font-family="FreeSans.ttf" font-size="10.00">stdlib.h</text>
</g>
<!-- Node20&#45;&gt;Node22 -->
<g id="edge70" class="edge"><title>Node20&#45;&gt;Node22</title>
<path fill="none" stroke="midnightblue" d="M266.088,-174.497C247.189,-165.438 219.669,-152.246 198.424,-142.063"/>
<polygon fill="midnightblue" stroke="midnightblue" points="199.689,-138.788 189.158,-137.621 196.663,-145.1 199.689,-138.788"/>
</g>
<!-- Node23 -->
<g id="node60" class="node"><title>Node23</title>
<a xlink:href="atomicOps_8h.html" target="_top" xlink:title="atomicOps.h">
<polygon fill="none" stroke="black" points="247.5,-116.5 247.5,-137.5 324.5,-137.5 324.5,-116.5 247.5,-116.5"/>
<text text-anchor="middle" x="286" y="-124.5" font-family="FreeSans.ttf" font-size="10.00">atomicOps.h</text>
</a>
</g>
<!-- Node20&#45;&gt;Node23 -->
<g id="edge74" class="edge"><title>Node20&#45;&gt;Node23</title>
<path fill="none" stroke="midnightblue" d="M287.633,-174.362C287.377,-166.922 287.026,-156.743 286.715,-147.728"/>
<polygon fill="midnightblue" stroke="midnightblue" points="290.207,-147.444 286.365,-137.571 283.211,-147.685 290.207,-147.444"/>
</g>
<!-- Node25 -->
<g id="node64" class="node"><title>Node25</title>
<polygon fill="none" stroke="#bfbfbf" points="330,-232.5 330,-253.5 382,-253.5 382,-232.5 330,-232.5"/>
<text text-anchor="middle" x="356" y="-240.5" font-family="FreeSans.ttf" font-size="10.00">cstddef</text>
</g>
<!-- Node24&#45;&gt;Node25 -->
<g id="edge78" class="edge"><title>Node24&#45;&gt;Node25</title>
<path fill="none" stroke="midnightblue" d="M356,-290.362C356,-282.922 356,-272.743 356,-263.728"/>
<polygon fill="midnightblue" stroke="midnightblue" points="359.5,-263.571 356,-253.571 352.5,-263.571 359.5,-263.571"/>
</g>
<!-- Node26&#45;&gt;Node2 -->
<g id="edge84" class="edge"><title>Node26&#45;&gt;Node2</title>
<path fill="none" stroke="midnightblue" d="M155.106,-174.44C141.083,-160.661 121.098,-135.957 133,-116 143.882,-97.7526 164.575,-86.1638 183.05,-79.0601"/>
<polygon fill="midnightblue" stroke="midnightblue" points="184.457,-82.2754 192.726,-75.652 182.131,-75.6729 184.457,-82.2754"/>
</g>
<!-- Node26&#45;&gt;Node13 -->
<g id="edge82" class="edge"><title>Node26&#45;&gt;Node13</title>
<path fill="none" stroke="midnightblue" d="M203.25,-175.63C206.199,-175.023 209.143,-174.469 212,-174 403.888,-142.527 637.182,-131.402 725.144,-128.155"/>
<polygon fill="midnightblue" stroke="midnightblue" points="725.51,-131.644 735.379,-127.789 725.26,-124.648 725.51,-131.644"/>
</g>
<!-- Node26&#45;&gt;Node22 -->
<g id="edge86" class="edge"><title>Node26&#45;&gt;Node22</title>
<path fill="none" stroke="midnightblue" d="M167,-174.362C167,-166.922 167,-156.743 167,-147.728"/>
<polygon fill="midnightblue" stroke="midnightblue" points="170.5,-147.571 167,-137.571 163.5,-147.571 170.5,-147.571"/>
</g>
<!-- Node27&#45;&gt;Node2 -->
<g id="edge90" class="edge"><title>Node27&#45;&gt;Node2</title>
<path fill="none" stroke="midnightblue" d="M369.046,-406.489C361.27,-397.165 349.894,-383.041 341,-370 319.232,-338.083 302.436,-328.363 307,-290 310.133,-263.668 307.019,-254.533 321,-232 334.14,-210.821 349.71,-216.421 364,-196 385.076,-165.882 407.149,-145.339 385,-116 369.632,-95.643 300.975,-81.4878 257.21,-74.3477"/>
<polygon fill="midnightblue" stroke="midnightblue" points="257.628,-70.8705 247.205,-72.7662 256.535,-77.7847 257.628,-70.8705"/>
</g>
<!-- Node27&#45;&gt;Node6 -->
<g id="edge92" class="edge"><title>Node27&#45;&gt;Node6</title>
<path fill="none" stroke="midnightblue" d="M395.608,-406.362C410.223,-397.532 431.224,-384.844 447.811,-374.822"/>
<polygon fill="midnightblue" stroke="midnightblue" points="449.754,-377.738 456.504,-369.571 446.135,-371.746 449.754,-377.738"/>
</g>
<!-- Node28 -->
<g id="node75" class="node"><title>Node28</title>
<polygon fill="none" stroke="#bfbfbf" points="350,-348.5 350,-369.5 406,-369.5 406,-348.5 350,-348.5"/>
<text text-anchor="middle" x="378" y="-356.5" font-family="FreeSans.ttf" font-size="10.00">matrix.h</text>
</g>
<!-- Node27&#45;&gt;Node28 -->
<g id="edge94" class="edge"><title>Node27&#45;&gt;Node28</title>
<path fill="none" stroke="midnightblue" d="M378,-406.362C378,-398.922 378,-388.743 378,-379.728"/>
<polygon fill="midnightblue" stroke="midnightblue" points="381.5,-379.571 378,-369.571 374.5,-379.571 381.5,-379.571"/>
</g>
<!-- Node29&#45;&gt;Node2 -->
<g id="edge100" class="edge"><title>Node29&#45;&gt;Node2</title>
<path fill="none" stroke="midnightblue" d="M614.972,-464.463C600.508,-416.099 533.693,-213.57 403,-116 380.091,-98.8967 303.531,-83.2936 257.007,-75.0777"/>
<polygon fill="midnightblue" stroke="midnightblue" points="257.453,-71.603 247.003,-73.3429 256.257,-78.5001 257.453,-71.603"/>
</g>
<!-- Node29&#45;&gt;Node7 -->
<g id="edge98" class="edge"><title>Node29&#45;&gt;Node7</title>
<path fill="none" stroke="midnightblue" d="M628.147,-464.285C650.6,-439.744 703.998,-376.586 723,-312 747.764,-227.828 687.546,-128.477 659,-87.7933"/>
<polygon fill="midnightblue" stroke="midnightblue" points="661.793,-85.6824 653.117,-79.6013 656.107,-89.7655 661.793,-85.6824"/>
</g>
<!-- Node29&#45;&gt;Node27 -->
<g id="edge102" class="edge"><title>Node29&#45;&gt;Node27</title>
<path fill="none" stroke="midnightblue" d="M574.538,-464.497C534.31,-454.775 474.388,-440.294 431.291,-429.879"/>
<polygon fill="midnightblue" stroke="midnightblue" points="432.086,-426.47 421.544,-427.523 430.442,-433.274 432.086,-426.47"/>
</g>
<!-- Node30 -->
<g id="node82" class="node"><title>Node30</title>
<a xlink:href="matrix33_8h.html" target="_top" xlink:title="This file holds the header for the commonly used structure &#45; a 3 by 3 matrix.">
<polygon fill="none" stroke="black" points="902,-406.5 902,-427.5 970,-427.5 970,-406.5 902,-406.5"/>
<text text-anchor="middle" x="936" y="-414.5" font-family="FreeSans.ttf" font-size="10.00">matrix33.h</text>
</a>
</g>
<!-- Node29&#45;&gt;Node30 -->
<g id="edge104" class="edge"><title>Node29&#45;&gt;Node30</title>
<path fill="none" stroke="midnightblue" d="M674.852,-464.631C736.911,-453.312 834.973,-435.426 891.616,-425.095"/>
<polygon fill="midnightblue" stroke="midnightblue" points="892.483,-428.495 901.692,-423.257 891.227,-421.609 892.483,-428.495"/>
</g>
<!-- Node30&#45;&gt;Node5 -->
<g id="edge106" class="edge"><title>Node30&#45;&gt;Node5</title>
<path fill="none" stroke="midnightblue" d="M970.267,-413.028C1027.9,-404.235 1138,-377.433 1138,-301 1138,-301 1138,-301 1138,-243 1138,-209.598 1138,-170.785 1138,-147.594"/>
<polygon fill="midnightblue" stroke="midnightblue" points="1141.5,-147.556 1138,-137.556 1134.5,-147.556 1141.5,-147.556"/>
</g>
<!-- Node30&#45;&gt;Node13 -->
<g id="edge110" class="edge"><title>Node30&#45;&gt;Node13</title>
<path fill="none" stroke="midnightblue" d="M929.641,-406.314C909.387,-372.303 844.52,-263.539 790,-174 784.493,-164.956 778.341,-154.968 773.124,-146.534"/>
<polygon fill="midnightblue" stroke="midnightblue" points="775.958,-144.463 767.717,-137.805 770.008,-148.149 775.958,-144.463"/>
</g>
<!-- Node30&#45;&gt;Node14 -->
<g id="edge120" class="edge"><title>Node30&#45;&gt;Node14</title>
<path fill="none" stroke="midnightblue" d="M936,-406.377C936,-378.293 936,-301.673 936,-264.203"/>
<polygon fill="midnightblue" stroke="midnightblue" points="939.5,-263.928 936,-253.928 932.5,-263.928 939.5,-263.928"/>
</g>
<!-- Node30&#45;&gt;Node16 -->
<g id="edge108" class="edge"><title>Node30&#45;&gt;Node16</title>
<path fill="none" stroke="midnightblue" d="M970.38,-409.108C1018.47,-395.798 1100,-363.949 1100,-301 1100,-301 1100,-301 1100,-243 1100,-207.462 1082.68,-169.12 1070.56,-146.63"/>
<polygon fill="midnightblue" stroke="midnightblue" points="1073.52,-144.766 1065.59,-137.747 1067.41,-148.183 1073.52,-144.766"/>
</g>
<!-- Node30&#45;&gt;Node19 -->
<g id="edge112" class="edge"><title>Node30&#45;&gt;Node19</title>
<path fill="none" stroke="midnightblue" d="M970.092,-412.067C1017.65,-404.595 1100.71,-389.221 1124,-370 1212.87,-296.648 1228.43,-218.611 1176,-116 1169.17,-102.629 1156.56,-92.1829 1144.25,-84.5706"/>
<polygon fill="midnightblue" stroke="midnightblue" points="1145.85,-81.4523 1135.43,-79.5271 1142.38,-87.5292 1145.85,-81.4523"/>
</g>
<!-- Node31 -->
<g id="node88" class="node"><title>Node31</title>
<a xlink:href="vector3d_8h.html" target="_top" xlink:title="A 3 component vector.">
<polygon fill="none" stroke="black" points="788,-348.5 788,-369.5 856,-369.5 856,-348.5 788,-348.5"/>
<text text-anchor="middle" x="822" y="-356.5" font-family="FreeSans.ttf" font-size="10.00">vector3d.h</text>
</a>
</g>
<!-- Node30&#45;&gt;Node31 -->
<g id="edge114" class="edge"><title>Node30&#45;&gt;Node31</title>
<path fill="none" stroke="midnightblue" d="M915.355,-406.497C897.63,-397.479 871.855,-384.365 851.877,-374.201"/>
<polygon fill="midnightblue" stroke="midnightblue" points="853.376,-371.036 842.876,-369.621 850.202,-377.275 853.376,-371.036"/>
</g>
<!-- Node31&#45;&gt;Node12 -->
<g id="edge118" class="edge"><title>Node31&#45;&gt;Node12</title>
<path fill="none" stroke="midnightblue" d="M796.285,-348.497C773.707,-339.275 740.642,-325.769 715.537,-315.515"/>
<polygon fill="midnightblue" stroke="midnightblue" points="716.585,-312.162 706.004,-311.621 713.938,-318.643 716.585,-312.162"/>
</g>
<!-- Node31&#45;&gt;Node13 -->
<g id="edge116" class="edge"><title>Node31&#45;&gt;Node13</title>
<path fill="none" stroke="midnightblue" d="M819.22,-348.429C809.793,-312.573 778.924,-195.169 766.376,-147.446"/>
<polygon fill="midnightblue" stroke="midnightblue" points="769.724,-146.415 763.796,-137.634 762.954,-148.195 769.724,-146.415"/>
</g>
</g>
</svg>
        <g id="navigator" transform="translate(0 0)" fill="#404254">
                <rect fill="#f2f5e9" fill-opacity="0.5" stroke="#606060" stroke-width=".5" x="0" y="0" width="60" height="60"/>
                <use id="zoomplus" xlink:href="#zoomPlus" x="17" y="9" onmousedown="handleZoom(evt,'in')"/>
                <use id="zoomminus" xlink:href="#zoomMin" x="42" y="9" onmousedown="handleZoom(evt,'out')"/>
                <use id="reset" xlink:href="#resetDef" x="30" y="36" onmousedown="handleReset()"/>
                <g id="arrowUp" xlink:href="#dirArrow" transform="translate(30 24)" onmousedown="handlePan(0,-1)">
                  <use xlink:href="#rim" fill="#404040">
                        <set attributeName="fill" to="#808080" begin="arrowUp.mouseover" end="arrowUp.mouseout"/>
                  </use>
                  <path fill="none" stroke="white" stroke-width="1.5" d="M0,-3.0v7 M-2.5,-0.5L0,-3.0L2.5,-0.5"/>
                </g>
                <g id="arrowRight" xlink:href="#dirArrow" transform="rotate(90) translate(36 -43)" onmousedown="handlePan(1,0)">
                  <use xlink:href="#rim" fill="#404040">
                        <set attributeName="fill" to="#808080" begin="arrowRight.mouseover" end="arrowRight.mouseout"/>
                  </use>
                  <path fill="none" stroke="white" stroke-width="1.5" d="M0,-3.0v7 M-2.5,-0.5L0,-3.0L2.5,-0.5"/>
                </g>
                <g id="arrowDown" xlink:href="#dirArrow" transform="rotate(180) translate(-30 -48)" onmousedown="handlePan(0,1)">
                  <use xlink:href="#rim" fill="#404040">
                        <set attributeName="fill" to="#808080" begin="arrowDown.mouseover" end="arrowDown.mouseout"/>
                  </use>
                  <path fill="none" stroke="white" stroke-width="1.5" d="M0,-3.0v7 M-2.5,-0.5L0,-3.0L2.5,-0.5"/>
                </g>
                <g id="arrowLeft" xlink:href="#dirArrow" transform="rotate(270) translate(-36 17)" onmousedown="handlePan(-1,0)">
                  <use xlink:href="#rim" fill="#404040">
                        <set attributeName="fill" to="#808080" begin="arrowLeft.mouseover" end="arrowLeft.mouseout"/>
                  </use>
                  <path fill="none" stroke="white" stroke-width="1.5" d="M0,-3.0v7 M-2.5,-0.5L0,-3.0L2.5,-0.5"/>
                </g>
        </g>
</svg>
