<?xml version="1.0" encoding="UTF-8" standalone="no"?>
<!DOCTYPE svg PUBLIC "-//W3C//DTD SVG 1.1//EN"
 "http://www.w3.org/Graphics/SVG/1.1/DTD/svg11.dtd">
<!-- Generated by graphviz version 2.26.3 (20100126.1600)
 -->
<!-- Title: G Pages: 1 -->
<!--zoomable 320 -->
<svg id="main" version="1.1" xmlns="http://www.w3.org/2000/svg" xmlns:xlink="http://www.w3.org/1999/xlink" xml:space="preserve" onload="init(evt)">
        <defs>
                <circle id="rim" cx="0" cy="0" r="7"/>
                <circle id="rim2" cx="0" cy="0" r="3.5"/>
                <g id="zoomPlus">
                        <use xlink:href="#rim" fill="#404040">
                                <set attributeName="fill" to="#808080" begin="zoomplus.mouseover" end="zoomplus.mouseout"/>
                        </use>
                        <path d="M-4,0h8M0,-4v8" fill="none" stroke="white" stroke-width="1.5" pointer-events="none"/>
                </g>
                <g id="zoomMin">
                        <use xlink:href="#rim" fill="#404040">
                                <set attributeName="fill" to="#808080" begin="zoomminus.mouseover" end="zoomminus.mouseout"/>
                        </use>
                        <path d="M-4,0h8" fill="none" stroke="white" stroke-width="1.5" pointer-events="none"/>
                </g>
                <g id="dirArrow">
                        <path fill="none" stroke="white" stroke-width="1.5" d="M0,-3.0v7 M-2.5,-0.5L0,-3.0L2.5,-0.5"/>
                </g>
               <g id="resetDef">
                       <use xlink:href="#rim2" fill="#404040">
                               <set attributeName="fill" to="#808080" begin="reset.mouseover" end="reset.mouseout"/>
                       </use>
               </g>
        </defs>

<script type="text/javascript">
var viewWidth = 1719;
var viewHeight = 320;
var sectionId = 'dynsection-0';
</script>
<script xlink:href="svgpan.js"/>
<svg id="graph" class="graph">
<g id="viewport">
<title>G</title>
<!-- Node1 -->
<g id="node1" class="node"><title>Node1</title>
<polygon fill="#bfbfbf" stroke="black" points="367.5,-290.5 367.5,-311.5 570.5,-311.5 570.5,-290.5 367.5,-290.5"/>
<text text-anchor="middle" x="469" y="-298.5" font-family="FreeSans.ttf" font-size="10.00">core/xml/generated/interpolationType.h</text>
</g>
<!-- Node2 -->
<g id="node3" class="node"><title>Node2</title>
<a xlink:href="transformationCache_8h.html" target="_top" xlink:title="core/buffers/transformationCache.h">
<polygon fill="none" stroke="black" points="245.5,-232.5 245.5,-253.5 432.5,-253.5 432.5,-232.5 245.5,-232.5"/>
<text text-anchor="middle" x="339" y="-240.5" font-family="FreeSans.ttf" font-size="10.00">core/buffers/transformationCache.h</text>
</a>
</g>
<!-- Node1&#45;&gt;Node2 -->
<g id="edge2" class="edge"><title>Node1&#45;&gt;Node2</title>
<path fill="none" stroke="midnightblue" d="M436.148,-286.343C413.302,-276.15 383.374,-262.798 362.806,-253.621"/>
<polygon fill="midnightblue" stroke="midnightblue" points="434.9,-289.618 445.458,-290.497 437.752,-283.226 434.9,-289.618"/>
</g>
<!-- Node16 -->
<g id="node34" class="node"><title>Node16</title>
<a xlink:href="baseParameters_8h.html" target="_top" xlink:title="applications/base/generatedParameters/baseParameters.h">
<polygon fill="none" stroke="black" points="449.5,-232.5 449.5,-253.5 748.5,-253.5 748.5,-232.5 449.5,-232.5"/>
<text text-anchor="middle" x="599" y="-240.5" font-family="FreeSans.ttf" font-size="10.00">applications/base/generatedParameters/baseParameters.h</text>
</a>
</g>
<!-- Node1&#45;&gt;Node16 -->
<g id="edge36" class="edge"><title>Node1&#45;&gt;Node16</title>
<path fill="none" stroke="midnightblue" d="M501.852,-286.343C524.698,-276.15 554.626,-262.798 575.194,-253.621"/>
<polygon fill="midnightblue" stroke="midnightblue" points="500.248,-283.226 492.542,-290.497 503.1,-289.618 500.248,-283.226"/>
</g>
<!-- Node3 -->
<g id="node5" class="node"><title>Node3</title>
<a xlink:href="transformationCache_8cpp.html" target="_top" xlink:title="core/buffers/transformationCache.cpp">
<polygon fill="none" stroke="black" points="74,-174.5 74,-195.5 272,-195.5 272,-174.5 74,-174.5"/>
<text text-anchor="middle" x="173" y="-182.5" font-family="FreeSans.ttf" font-size="10.00">core/buffers/transformationCache.cpp</text>
</a>
</g>
<!-- Node2&#45;&gt;Node3 -->
<g id="edge4" class="edge"><title>Node2&#45;&gt;Node3</title>
<path fill="none" stroke="midnightblue" d="M299.344,-229.144C269.804,-218.823 230.081,-204.944 203.118,-195.523"/>
<polygon fill="midnightblue" stroke="midnightblue" points="298.344,-232.502 308.939,-232.497 300.653,-225.894 298.344,-232.502"/>
</g>
<!-- Node4 -->
<g id="node7" class="node"><title>Node4</title>
<a xlink:href="baseCalculationThread_8h.html" target="_top" xlink:title="applications/base/baseCalculationThread.h">
<polygon fill="none" stroke="black" points="289.5,-174.5 289.5,-195.5 510.5,-195.5 510.5,-174.5 289.5,-174.5"/>
<text text-anchor="middle" x="400" y="-182.5" font-family="FreeSans.ttf" font-size="10.00">applications/base/baseCalculationThread.h</text>
</a>
</g>
<!-- Node2&#45;&gt;Node4 -->
<g id="edge6" class="edge"><title>Node2&#45;&gt;Node4</title>
<path fill="none" stroke="midnightblue" d="M357.505,-225.405C367.745,-215.668 380.131,-203.891 388.883,-195.571"/>
<polygon fill="midnightblue" stroke="midnightblue" points="355.024,-222.935 350.188,-232.362 359.847,-228.008 355.024,-222.935"/>
</g>
<!-- Node5 -->
<g id="node9" class="node"><title>Node5</title>
<a xlink:href="baseCalculationThread_8cpp.html" target="_top" xlink:title="Implements a basic calculation thread that performs a simple transform on the captured frames and pro...">
<polygon fill="none" stroke="black" points="0,-116.5 0,-137.5 232,-137.5 232,-116.5 0,-116.5"/>
<text text-anchor="middle" x="116" y="-124.5" font-family="FreeSans.ttf" font-size="10.00">applications/base/baseCalculationThread.cpp</text>
</a>
</g>
<!-- Node4&#45;&gt;Node5 -->
<g id="edge8" class="edge"><title>Node4&#45;&gt;Node5</title>
<path fill="none" stroke="midnightblue" d="M338.645,-172.47C287.566,-162.038 215.662,-147.354 167.527,-137.523"/>
<polygon fill="midnightblue" stroke="midnightblue" points="338.072,-175.925 348.57,-174.497 339.472,-169.066 338.072,-175.925"/>
</g>
<!-- Node6 -->
<g id="node11" class="node"><title>Node6</title>
<a xlink:href="baseHostDialog_8h.html" target="_top" xlink:title="applications/base/baseHostDialog.h">
<polygon fill="none" stroke="black" points="470,-116.5 470,-137.5 658,-137.5 658,-116.5 470,-116.5"/>
<text text-anchor="middle" x="564" y="-124.5" font-family="FreeSans.ttf" font-size="10.00">applications/base/baseHostDialog.h</text>
</a>
</g>
<!-- Node4&#45;&gt;Node6 -->
<g id="edge10" class="edge"><title>Node4&#45;&gt;Node6</title>
<path fill="none" stroke="midnightblue" d="M439.178,-171.144C468.363,-160.823 507.607,-146.944 534.245,-137.523"/>
<polygon fill="midnightblue" stroke="midnightblue" points="437.96,-167.863 429.699,-174.497 440.294,-174.462 437.96,-167.863"/>
</g>
<!-- Node14 -->
<g id="node29" class="node"><title>Node14</title>
<a xlink:href="recorderThread_8h.html" target="_top" xlink:title="applications/recorder/recorderThread.h">
<polygon fill="none" stroke="black" points="249.5,-116.5 249.5,-137.5 452.5,-137.5 452.5,-116.5 249.5,-116.5"/>
<text text-anchor="middle" x="351" y="-124.5" font-family="FreeSans.ttf" font-size="10.00">applications/recorder/recorderThread.h</text>
</a>
</g>
<!-- Node4&#45;&gt;Node14 -->
<g id="edge30" class="edge"><title>Node4&#45;&gt;Node14</title>
<path fill="none" stroke="midnightblue" d="M384.405,-166.541C376.327,-156.979 366.753,-145.647 359.93,-137.571"/>
<polygon fill="midnightblue" stroke="midnightblue" points="381.885,-168.982 391.013,-174.362 387.233,-164.464 381.885,-168.982"/>
</g>
<!-- Node7 -->
<g id="node13" class="node"><title>Node7</title>
<a xlink:href="baseHostDialog_8cpp.html" target="_top" xlink:title="Implements a basic host dialog that uses BaseCalculationThread to process captured data Extend or rei...">
<polygon fill="none" stroke="black" points="726.5,-58.5 726.5,-79.5 925.5,-79.5 925.5,-58.5 726.5,-58.5"/>
<text text-anchor="middle" x="826" y="-66.5" font-family="FreeSans.ttf" font-size="10.00">applications/base/baseHostDialog.cpp</text>
</a>
</g>
<!-- Node6&#45;&gt;Node7 -->
<g id="edge12" class="edge"><title>Node6&#45;&gt;Node7</title>
<path fill="none" stroke="midnightblue" d="M621.488,-114.274C668.552,-103.855 734.336,-89.2921 778.465,-79.5231"/>
<polygon fill="midnightblue" stroke="midnightblue" points="620.453,-110.918 611.446,-116.497 621.966,-117.752 620.453,-110.918"/>
</g>
<!-- Node8 -->
<g id="node15" class="node"><title>Node8</title>
<a xlink:href="main__vibase_8cpp.html" target="_top" xlink:title="applications/base/main_vibase.cpp">
<polygon fill="none" stroke="black" points="602.5,-0.5 602.5,-21.5 785.5,-21.5 785.5,-0.5 602.5,-0.5"/>
<text text-anchor="middle" x="694" y="-8.5" font-family="FreeSans.ttf" font-size="10.00">applications/base/main_vibase.cpp</text>
</a>
</g>
<!-- Node6&#45;&gt;Node8 -->
<g id="edge14" class="edge"><title>Node6&#45;&gt;Node8</title>
<path fill="none" stroke="midnightblue" d="M622.745,-113.192C641.73,-106.101 661.374,-95.5525 675,-80 689.575,-63.3651 693.067,-36.5044 693.842,-21.6805"/>
<polygon fill="midnightblue" stroke="midnightblue" points="621.512,-109.914 613.21,-116.497 623.805,-116.528 621.512,-109.914"/>
</g>
<!-- Node9 -->
<g id="node17" class="node"><title>Node9</title>
<a xlink:href="mainWindow_8h.html" target="_top" xlink:title="applications/base/mainWindow.h">
<polygon fill="none" stroke="black" points="278,-58.5 278,-79.5 448,-79.5 448,-58.5 278,-58.5"/>
<text text-anchor="middle" x="363" y="-66.5" font-family="FreeSans.ttf" font-size="10.00">applications/base/mainWindow.h</text>
</a>
</g>
<!-- Node6&#45;&gt;Node9 -->
<g id="edge16" class="edge"><title>Node6&#45;&gt;Node9</title>
<path fill="none" stroke="midnightblue" d="M517.838,-113.68C481.892,-103.307 432.684,-89.1078 399.468,-79.5231"/>
<polygon fill="midnightblue" stroke="midnightblue" points="517.022,-117.087 527.6,-116.497 518.963,-110.361 517.022,-117.087"/>
</g>
<!-- Node12 -->
<g id="node24" class="node"><title>Node12</title>
<a xlink:href="recorderDialog_8h.html" target="_top" xlink:title="Defines a recorder dialog class derived from BaseHostDialog.">
<polygon fill="none" stroke="black" points="466,-58.5 466,-79.5 666,-79.5 666,-58.5 466,-58.5"/>
<text text-anchor="middle" x="566" y="-66.5" font-family="FreeSans.ttf" font-size="10.00">applications/recorder/recorderDialog.h</text>
</a>
</g>
<!-- Node6&#45;&gt;Node12 -->
<g id="edge24" class="edge"><title>Node6&#45;&gt;Node12</title>
<path fill="none" stroke="midnightblue" d="M564.718,-106.191C565.029,-97.1684 565.38,-86.9941 565.635,-79.5707"/>
<polygon fill="midnightblue" stroke="midnightblue" points="561.214,-106.247 564.367,-116.362 568.209,-106.488 561.214,-106.247"/>
</g>
<!-- Node9&#45;&gt;Node8 -->
<g id="edge18" class="edge"><title>Node9&#45;&gt;Node8</title>
<path fill="none" stroke="midnightblue" d="M433.026,-56.7296C492.642,-46.2833 577.377,-31.4354 633.946,-21.5231"/>
<polygon fill="midnightblue" stroke="midnightblue" points="432.187,-53.3231 422.942,-58.4966 433.396,-60.2181 432.187,-53.3231"/>
</g>
<!-- Node10 -->
<g id="node20" class="node"><title>Node10</title>
<a xlink:href="mainWindow_8cpp.html" target="_top" xlink:title="applications/base/mainWindow.cpp">
<polygon fill="none" stroke="black" points="169,-0.5 169,-21.5 351,-21.5 351,-0.5 169,-0.5"/>
<text text-anchor="middle" x="260" y="-8.5" font-family="FreeSans.ttf" font-size="10.00">applications/base/mainWindow.cpp</text>
</a>
</g>
<!-- Node9&#45;&gt;Node10 -->
<g id="edge20" class="edge"><title>Node9&#45;&gt;Node10</title>
<path fill="none" stroke="midnightblue" d="M335.259,-53.379C317.362,-43.3011 294.563,-30.4624 278.772,-21.5707"/>
<polygon fill="midnightblue" stroke="midnightblue" points="333.677,-56.505 344.108,-58.3619 337.112,-50.4055 333.677,-56.505"/>
</g>
<!-- Node11 -->
<g id="node22" class="node"><title>Node11</title>
<a xlink:href="main__virecorder_8cpp.html" target="_top" xlink:title="applications/recorder/main_virecorder.cpp">
<polygon fill="none" stroke="black" points="368.5,-0.5 368.5,-21.5 585.5,-21.5 585.5,-0.5 368.5,-0.5"/>
<text text-anchor="middle" x="477" y="-8.5" font-family="FreeSans.ttf" font-size="10.00">applications/recorder/main_virecorder.cpp</text>
</a>
</g>
<!-- Node9&#45;&gt;Node11 -->
<g id="edge22" class="edge"><title>Node9&#45;&gt;Node11</title>
<path fill="none" stroke="midnightblue" d="M392.617,-53.9319C412.544,-43.7932 438.329,-30.6748 456.124,-21.6212"/>
<polygon fill="midnightblue" stroke="midnightblue" points="390.97,-50.8425 383.645,-58.4966 394.144,-57.0815 390.97,-50.8425"/>
</g>
<!-- Node12&#45;&gt;Node11 -->
<g id="edge26" class="edge"><title>Node12&#45;&gt;Node11</title>
<path fill="none" stroke="midnightblue" d="M541.174,-52.8215C525.844,-42.8312 506.614,-30.2993 493.22,-21.5707"/>
<polygon fill="midnightblue" stroke="midnightblue" points="539.387,-55.8344 549.676,-58.3619 543.209,-49.9698 539.387,-55.8344"/>
</g>
<!-- Node13 -->
<g id="node27" class="node"><title>Node13</title>
<a xlink:href="recorderDialog_8cpp.html" target="_top" xlink:title="Implements frame recording dialog based on BaseHostDialog.">
<polygon fill="none" stroke="black" points="1005.5,-0.5 1005.5,-21.5 1216.5,-21.5 1216.5,-0.5 1005.5,-0.5"/>
<text text-anchor="middle" x="1111" y="-8.5" font-family="FreeSans.ttf" font-size="10.00">applications/recorder/recorderDialog.cpp</text>
</a>
</g>
<!-- Node12&#45;&gt;Node13 -->
<g id="edge28" class="edge"><title>Node12&#45;&gt;Node13</title>
<path fill="none" stroke="midnightblue" d="M674.672,-57.435C773.093,-46.9607 916.86,-31.6607 1012.12,-21.5231"/>
<polygon fill="midnightblue" stroke="midnightblue" points="674.269,-53.958 664.695,-58.4966 675.01,-60.9187 674.269,-53.958"/>
</g>
<!-- Node14&#45;&gt;Node12 -->
<g id="edge32" class="edge"><title>Node14&#45;&gt;Node12</title>
<path fill="none" stroke="midnightblue" d="M399.885,-113.812C438.377,-103.428 491.311,-89.1487 526.992,-79.5231"/>
<polygon fill="midnightblue" stroke="midnightblue" points="398.678,-110.513 389.935,-116.497 400.501,-117.271 398.678,-110.513"/>
</g>
<!-- Node15 -->
<g id="node32" class="node"><title>Node15</title>
<a xlink:href="recorderThread_8cpp.html" target="_top" xlink:title="Implements a frame recording calculation thread based on BaseCalculationThread.">
<polygon fill="none" stroke="black" points="46,-58.5 46,-79.5 260,-79.5 260,-58.5 46,-58.5"/>
<text text-anchor="middle" x="153" y="-66.5" font-family="FreeSans.ttf" font-size="10.00">applications/recorder/recorderThread.cpp</text>
</a>
</g>
<!-- Node14&#45;&gt;Node15 -->
<g id="edge34" class="edge"><title>Node14&#45;&gt;Node15</title>
<path fill="none" stroke="midnightblue" d="M305.527,-113.68C270.117,-103.307 221.644,-89.1078 188.924,-79.5231"/>
<polygon fill="midnightblue" stroke="midnightblue" points="304.563,-117.044 315.144,-116.497 306.531,-110.327 304.563,-117.044"/>
</g>
<!-- Node16&#45;&gt;Node4 -->
<g id="edge38" class="edge"><title>Node16&#45;&gt;Node4</title>
<path fill="none" stroke="midnightblue" d="M553.297,-229.68C517.709,-219.307 468.99,-205.108 436.105,-195.523"/>
<polygon fill="midnightblue" stroke="midnightblue" points="552.383,-233.059 562.963,-232.497 554.341,-226.338 552.383,-233.059"/>
</g>
<!-- Node16&#45;&gt;Node6 -->
<g id="edge58" class="edge"><title>Node16&#45;&gt;Node6</title>
<path fill="none" stroke="midnightblue" d="M592.802,-222.458C585.321,-197.663 573.024,-156.91 567.222,-137.679"/>
<polygon fill="midnightblue" stroke="midnightblue" points="589.531,-223.732 595.77,-232.295 596.232,-221.71 589.531,-223.732"/>
</g>
<!-- Node17 -->
<g id="node37" class="node"><title>Node17</title>
<a xlink:href="baseParametersControlWidget_8h.html" target="_top" xlink:title="applications/base/baseParametersControlWidget.h">
<polygon fill="none" stroke="black" points="647.5,-174.5 647.5,-195.5 904.5,-195.5 904.5,-174.5 647.5,-174.5"/>
<text text-anchor="middle" x="776" y="-182.5" font-family="FreeSans.ttf" font-size="10.00">applications/base/baseParametersControlWidget.h</text>
</a>
</g>
<!-- Node16&#45;&gt;Node17 -->
<g id="edge40" class="edge"><title>Node16&#45;&gt;Node17</title>
<path fill="none" stroke="midnightblue" d="M640.874,-229.279C672.413,-218.944 715.012,-204.985 743.887,-195.523"/>
<polygon fill="midnightblue" stroke="midnightblue" points="639.466,-226.057 631.053,-232.497 641.646,-232.709 639.466,-226.057"/>
</g>
<!-- Node23 -->
<g id="node53" class="node"><title>Node23</title>
<a xlink:href="baseParameters_8cpp.html" target="_top" xlink:title="applications/base/generatedParameters/baseParameters.cpp">
<polygon fill="none" stroke="black" points="922,-174.5 922,-195.5 1232,-195.5 1232,-174.5 922,-174.5"/>
<text text-anchor="middle" x="1077" y="-182.5" font-family="FreeSans.ttf" font-size="10.00">applications/base/generatedParameters/baseParameters.cpp</text>
</a>
</g>
<!-- Node16&#45;&gt;Node23 -->
<g id="edge60" class="edge"><title>Node16&#45;&gt;Node23</title>
<path fill="none" stroke="midnightblue" d="M695.623,-231.276C781.906,-220.806 907.149,-205.61 990.275,-195.523"/>
<polygon fill="midnightblue" stroke="midnightblue" points="695.068,-227.817 685.562,-232.497 695.911,-234.767 695.068,-227.817"/>
</g>
<!-- Node17&#45;&gt;Node6 -->
<g id="edge42" class="edge"><title>Node17&#45;&gt;Node6</title>
<path fill="none" stroke="midnightblue" d="M727.797,-171.812C689.842,-161.428 637.647,-147.149 602.464,-137.523"/>
<polygon fill="midnightblue" stroke="midnightblue" points="727.039,-175.234 737.608,-174.497 728.886,-168.482 727.039,-175.234"/>
</g>
<!-- Node18 -->
<g id="node40" class="node"><title>Node18</title>
<a xlink:href="parametersMapperBase_8h.html" target="_top" xlink:title="applications/base/parametersMapper/parametersMapperBase.h">
<polygon fill="none" stroke="black" points="961.5,-116.5 961.5,-137.5 1284.5,-137.5 1284.5,-116.5 961.5,-116.5"/>
<text text-anchor="middle" x="1123" y="-124.5" font-family="FreeSans.ttf" font-size="10.00">applications/base/parametersMapper/parametersMapperBase.h</text>
</a>
</g>
<!-- Node17&#45;&gt;Node18 -->
<g id="edge44" class="edge"><title>Node17&#45;&gt;Node18</title>
<path fill="none" stroke="midnightblue" d="M849.024,-172.794C911.541,-162.345 1000.62,-147.456 1060.04,-137.523"/>
<polygon fill="midnightblue" stroke="midnightblue" points="848.125,-169.396 838.839,-174.497 849.279,-176.3 848.125,-169.396"/>
</g>
<!-- Node20 -->
<g id="node45" class="node"><title>Node20</title>
<a xlink:href="baseParametersControlWidget_8cpp.html" target="_top" xlink:title="applications/base/baseParametersControlWidget.cpp">
<polygon fill="none" stroke="black" points="675.5,-116.5 675.5,-137.5 944.5,-137.5 944.5,-116.5 675.5,-116.5"/>
<text text-anchor="middle" x="810" y="-124.5" font-family="FreeSans.ttf" font-size="10.00">applications/base/baseParametersControlWidget.cpp</text>
</a>
</g>
<!-- Node17&#45;&gt;Node20 -->
<g id="edge50" class="edge"><title>Node17&#45;&gt;Node20</title>
<path fill="none" stroke="midnightblue" d="M787.333,-165.667C792.827,-156.295 799.213,-145.402 803.803,-137.571"/>
<polygon fill="midnightblue" stroke="midnightblue" points="784.274,-163.965 782.236,-174.362 790.313,-167.505 784.274,-163.965"/>
</g>
<!-- Node21 -->
<g id="node47" class="node"><title>Node21</title>
<a xlink:href="parametersMapperRecorder_8h.html" target="_top" xlink:title="applications/recorder/parametersMapper/parametersMapperRecorder.h">
<polygon fill="none" stroke="black" points="1302,-116.5 1302,-137.5 1660,-137.5 1660,-116.5 1302,-116.5"/>
<text text-anchor="middle" x="1481" y="-124.5" font-family="FreeSans.ttf" font-size="10.00">applications/recorder/parametersMapper/parametersMapperRecorder.h</text>
</a>
</g>
<!-- Node17&#45;&gt;Node21 -->
<g id="edge52" class="edge"><title>Node17&#45;&gt;Node21</title>
<path fill="none" stroke="midnightblue" d="M913.883,-173.656C1041.26,-163.177 1228.99,-147.732 1353.09,-137.523"/>
<polygon fill="midnightblue" stroke="midnightblue" points="913.35,-170.188 903.67,-174.497 913.924,-177.165 913.35,-170.188"/>
</g>
<!-- Node18&#45;&gt;Node7 -->
<g id="edge46" class="edge"><title>Node18&#45;&gt;Node7</title>
<path fill="none" stroke="midnightblue" d="M1059.17,-114.535C1005.73,-104.099 930.329,-89.374 879.885,-79.5231"/>
<polygon fill="midnightblue" stroke="midnightblue" points="1058.73,-118.015 1069.22,-116.497 1060.07,-111.145 1058.73,-118.015"/>
</g>
<!-- Node19 -->
<g id="node43" class="node"><title>Node19</title>
<a xlink:href="parametersMapperBase_8cpp.html" target="_top" xlink:title="applications/base/parametersMapper/parametersMapperBase.cpp">
<polygon fill="none" stroke="black" points="952.5,-58.5 952.5,-79.5 1287.5,-79.5 1287.5,-58.5 952.5,-58.5"/>
<text text-anchor="middle" x="1120" y="-66.5" font-family="FreeSans.ttf" font-size="10.00">applications/base/parametersMapper/parametersMapperBase.cpp</text>
</a>
</g>
<!-- Node18&#45;&gt;Node19 -->
<g id="edge48" class="edge"><title>Node18&#45;&gt;Node19</title>
<path fill="none" stroke="midnightblue" d="M1121.92,-106.191C1121.46,-97.1684 1120.93,-86.9941 1120.55,-79.5707"/>
<polygon fill="midnightblue" stroke="midnightblue" points="1118.44,-106.556 1122.45,-116.362 1125.43,-106.194 1118.44,-106.556"/>
</g>
<!-- Node21&#45;&gt;Node13 -->
<g id="edge56" class="edge"><title>Node21&#45;&gt;Node13</title>
<path fill="none" stroke="midnightblue" d="M1430.05,-113.643C1401.29,-105.383 1365.01,-93.7398 1334,-80 1316.16,-72.0938 1314.07,-65.3615 1296,-58 1255.03,-41.3119 1206.48,-29.2475 1169.4,-21.5227"/>
<polygon fill="midnightblue" stroke="midnightblue" points="1429.31,-117.072 1439.89,-116.422 1431.21,-110.336 1429.31,-117.072"/>
</g>
<!-- Node22 -->
<g id="node49" class="node"><title>Node22</title>
<a xlink:href="parametersMapperRecorder_8cpp.html" target="_top" xlink:title="applications/recorder/parametersMapper/parametersMapperRecorder.cpp">
<polygon fill="none" stroke="black" points="1342.5,-58.5 1342.5,-79.5 1711.5,-79.5 1711.5,-58.5 1342.5,-58.5"/>
<text text-anchor="middle" x="1527" y="-66.5" font-family="FreeSans.ttf" font-size="10.00">applications/recorder/parametersMapper/parametersMapperRecorder.cpp</text>
</a>
</g>
<!-- Node21&#45;&gt;Node22 -->
<g id="edge54" class="edge"><title>Node21&#45;&gt;Node22</title>
<path fill="none" stroke="midnightblue" d="M1495.87,-108.25C1503.41,-98.75 1512.28,-87.5651 1518.62,-79.5707"/>
<polygon fill="midnightblue" stroke="midnightblue" points="1492.91,-106.352 1489.44,-116.362 1498.39,-110.702 1492.91,-106.352"/>
</g>
</g>
</svg>
        <g id="navigator" transform="translate(0 0)" fill="#404254">
                <rect fill="#f2f5e9" fill-opacity="0.5" stroke="#606060" stroke-width=".5" x="0" y="0" width="60" height="60"/>
                <use id="zoomplus" xlink:href="#zoomPlus" x="17" y="9" onmousedown="handleZoom(evt,'in')"/>
                <use id="zoomminus" xlink:href="#zoomMin" x="42" y="9" onmousedown="handleZoom(evt,'out')"/>
                <use id="reset" xlink:href="#resetDef" x="30" y="36" onmousedown="handleReset()"/>
                <g id="arrowUp" xlink:href="#dirArrow" transform="translate(30 24)" onmousedown="handlePan(0,-1)">
                  <use xlink:href="#rim" fill="#404040">
                        <set attributeName="fill" to="#808080" begin="arrowUp.mouseover" end="arrowUp.mouseout"/>
                  </use>
                  <path fill="none" stroke="white" stroke-width="1.5" d="M0,-3.0v7 M-2.5,-0.5L0,-3.0L2.5,-0.5"/>
                </g>
                <g id="arrowRight" xlink:href="#dirArrow" transform="rotate(90) translate(36 -43)" onmousedown="handlePan(1,0)">
                  <use xlink:href="#rim" fill="#404040">
                        <set attributeName="fill" to="#808080" begin="arrowRight.mouseover" end="arrowRight.mouseout"/>
                  </use>
                  <path fill="none" stroke="white" stroke-width="1.5" d="M0,-3.0v7 M-2.5,-0.5L0,-3.0L2.5,-0.5"/>
                </g>
                <g id="arrowDown" xlink:href="#dirArrow" transform="rotate(180) translate(-30 -48)" onmousedown="handlePan(0,1)">
                  <use xlink:href="#rim" fill="#404040">
                        <set attributeName="fill" to="#808080" begin="arrowDown.mouseover" end="arrowDown.mouseout"/>
                  </use>
                  <path fill="none" stroke="white" stroke-width="1.5" d="M0,-3.0v7 M-2.5,-0.5L0,-3.0L2.5,-0.5"/>
                </g>
                <g id="arrowLeft" xlink:href="#dirArrow" transform="rotate(270) translate(-36 17)" onmousedown="handlePan(-1,0)">
                  <use xlink:href="#rim" fill="#404040">
                        <set attributeName="fill" to="#808080" begin="arrowLeft.mouseover" end="arrowLeft.mouseout"/>
                  </use>
                  <path fill="none" stroke="white" stroke-width="1.5" d="M0,-3.0v7 M-2.5,-0.5L0,-3.0L2.5,-0.5"/>
                </g>
        </g>
</svg>
