<?xml version="1.0" encoding="UTF-8" standalone="no"?>
<!DOCTYPE svg PUBLIC "-//W3C//DTD SVG 1.1//EN"
 "http://www.w3.org/Graphics/SVG/1.1/DTD/svg11.dtd">
<!-- Generated by graphviz version 2.26.3 (20100126.1600)
 -->
<!-- Title: G Pages: 1 -->
<svg width="148pt" height="146pt"
 viewBox="0.00 0.00 148.00 146.00" xmlns="http://www.w3.org/2000/svg" xmlns:xlink="http://www.w3.org/1999/xlink">
<g id="graph1" class="graph" transform="scale(1 1) rotate(0) translate(4 142)">
<title>G</title>
<!-- Node1 -->
<g id="node1" class="node"><title>Node1</title>
<polygon fill="#bfbfbf" stroke="black" points="0,-116.5 0,-137.5 140,-137.5 140,-116.5 0,-116.5"/>
<text text-anchor="middle" x="70" y="-124.5" font-family="FreeSans.ttf" font-size="10.00">core/clegacy/math/linlse.c</text>
</g>
<!-- Node2 -->
<g id="node3" class="node"><title>Node2</title>
<a xlink:href="linlse_8h.html" target="_top" xlink:title="Header for linlse.c.">
<polygon fill="none" stroke="black" points="45,-58.5 45,-79.5 95,-79.5 95,-58.5 45,-58.5"/>
<text text-anchor="middle" x="70" y="-66.5" font-family="FreeSans.ttf" font-size="10.00">linlse.h</text>
</a>
</g>
<!-- Node1&#45;&gt;Node2 -->
<g id="edge2" class="edge"><title>Node1&#45;&gt;Node2</title>
<path fill="none" stroke="midnightblue" d="M70,-116.362C70,-108.922 70,-98.7427 70,-89.7276"/>
<polygon fill="midnightblue" stroke="midnightblue" points="73.5001,-89.5706 70,-79.5707 66.5001,-89.5707 73.5001,-89.5706"/>
</g>
<!-- Node3 -->
<g id="node5" class="node"><title>Node3</title>
<a xlink:href="clegacy_2math_2matrix_8h.html" target="_top" xlink:title="matrix.h">
<polygon fill="none" stroke="black" points="42,-0.5 42,-21.5 98,-21.5 98,-0.5 42,-0.5"/>
<text text-anchor="middle" x="70" y="-8.5" font-family="FreeSans.ttf" font-size="10.00">matrix.h</text>
</a>
</g>
<!-- Node2&#45;&gt;Node3 -->
<g id="edge4" class="edge"><title>Node2&#45;&gt;Node3</title>
<path fill="none" stroke="midnightblue" d="M70,-58.3619C70,-50.9219 70,-40.7427 70,-31.7276"/>
<polygon fill="midnightblue" stroke="midnightblue" points="73.5001,-31.5706 70,-21.5707 66.5001,-31.5707 73.5001,-31.5706"/>
</g>
</g>
</svg>
