<?xml version="1.0" encoding="UTF-8" standalone="no"?>
<!DOCTYPE svg PUBLIC "-//W3C//DTD SVG 1.1//EN"
 "http://www.w3.org/Graphics/SVG/1.1/DTD/svg11.dtd">
<!-- Generated by graphviz version 2.26.3 (20100126.1600)
 -->
<!-- Title: G Pages: 1 -->
<!--zoomable 436 -->
<svg id="main" version="1.1" xmlns="http://www.w3.org/2000/svg" xmlns:xlink="http://www.w3.org/1999/xlink" xml:space="preserve" onload="init(evt)">
        <defs>
                <circle id="rim" cx="0" cy="0" r="7"/>
                <circle id="rim2" cx="0" cy="0" r="3.5"/>
                <g id="zoomPlus">
                        <use xlink:href="#rim" fill="#404040">
                                <set attributeName="fill" to="#808080" begin="zoomplus.mouseover" end="zoomplus.mouseout"/>
                        </use>
                        <path d="M-4,0h8M0,-4v8" fill="none" stroke="white" stroke-width="1.5" pointer-events="none"/>
                </g>
                <g id="zoomMin">
                        <use xlink:href="#rim" fill="#404040">
                                <set attributeName="fill" to="#808080" begin="zoomminus.mouseover" end="zoomminus.mouseout"/>
                        </use>
                        <path d="M-4,0h8" fill="none" stroke="white" stroke-width="1.5" pointer-events="none"/>
                </g>
                <g id="dirArrow">
                        <path fill="none" stroke="white" stroke-width="1.5" d="M0,-3.0v7 M-2.5,-0.5L0,-3.0L2.5,-0.5"/>
                </g>
               <g id="resetDef">
                       <use xlink:href="#rim2" fill="#404040">
                               <set attributeName="fill" to="#808080" begin="reset.mouseover" end="reset.mouseout"/>
                       </use>
               </g>
        </defs>

<script type="text/javascript">
var viewWidth = 742;
var viewHeight = 436;
var sectionId = 'dynsection-0';
</script>
<script xlink:href="svgpan.js"/>
<svg id="graph" class="graph">
<g id="viewport">
<title>G</title>
<!-- Node1 -->
<g id="node1" class="node"><title>Node1</title>
<polygon fill="#bfbfbf" stroke="black" points="193.5,-406.5 193.5,-427.5 322.5,-427.5 322.5,-406.5 193.5,-406.5"/>
<text text-anchor="middle" x="258" y="-414.5" font-family="FreeSans.ttf" font-size="10.00">core/math/levenmarq.h</text>
</g>
<!-- Node2 -->
<g id="node3" class="node"><title>Node2</title>
<polygon fill="none" stroke="#bfbfbf" points="-0.5,-58.5 -0.5,-79.5 46.5,-79.5 46.5,-58.5 -0.5,-58.5"/>
<text text-anchor="middle" x="23" y="-66.5" font-family="FreeSans.ttf" font-size="10.00">vector</text>
</g>
<!-- Node1&#45;&gt;Node2 -->
<g id="edge2" class="edge"><title>Node1&#45;&gt;Node2</title>
<path fill="none" stroke="midnightblue" d="M214.22,-406.483C141.808,-387.799 5,-346.482 5,-301 5,-301 5,-301 5,-185 5,-151.373 12.4776,-112.905 17.7937,-89.8049"/>
<polygon fill="midnightblue" stroke="midnightblue" points="21.2672,-90.3279 20.1875,-79.7882 14.4589,-88.7008 21.2672,-90.3279"/>
</g>
<!-- Node3 -->
<g id="node5" class="node"><title>Node3</title>
<a xlink:href="global_8h.html" target="_top" xlink:title="This file holds the global includes, mostly for debuging, tracing and profiling.">
<polygon fill="none" stroke="black" points="278,-58.5 278,-79.5 332,-79.5 332,-58.5 278,-58.5"/>
<text text-anchor="middle" x="305" y="-66.5" font-family="FreeSans.ttf" font-size="10.00">global.h</text>
</a>
</g>
<!-- Node1&#45;&gt;Node3 -->
<g id="edge4" class="edge"><title>Node1&#45;&gt;Node3</title>
<path fill="none" stroke="midnightblue" d="M262.686,-406.226C270.584,-387.489 286.336,-347.505 293,-312 308.204,-231.002 307.203,-132.316 305.867,-89.9545"/>
<polygon fill="midnightblue" stroke="midnightblue" points="309.358,-89.6487 305.503,-79.7802 302.363,-89.8989 309.358,-89.6487"/>
</g>
<!-- Node5 -->
<g id="node9" class="node"><title>Node5</title>
<a xlink:href="vector2d_8h.html" target="_top" xlink:title="Add Comment Here.">
<polygon fill="none" stroke="black" points="347,-290.5 347,-311.5 415,-311.5 415,-290.5 347,-290.5"/>
<text text-anchor="middle" x="381" y="-298.5" font-family="FreeSans.ttf" font-size="10.00">vector2d.h</text>
</a>
</g>
<!-- Node1&#45;&gt;Node5 -->
<g id="edge8" class="edge"><title>Node1&#45;&gt;Node5</title>
<path fill="none" stroke="midnightblue" d="M276.394,-406.346C290.724,-397.578 310.688,-384.302 326,-370 342.317,-354.759 357.882,-334.507 368.263,-319.89"/>
<polygon fill="midnightblue" stroke="midnightblue" points="371.183,-321.821 374.016,-311.612 365.435,-317.825 371.183,-321.821"/>
</g>
<!-- Node17 -->
<g id="node40" class="node"><title>Node17</title>
<polygon fill="none" stroke="#bfbfbf" points="228,-290.5 228,-311.5 284,-311.5 284,-290.5 228,-290.5"/>
<text text-anchor="middle" x="256" y="-298.5" font-family="FreeSans.ttf" font-size="10.00">matrix.h</text>
</g>
<!-- Node1&#45;&gt;Node17 -->
<g id="edge46" class="edge"><title>Node1&#45;&gt;Node17</title>
<path fill="none" stroke="midnightblue" d="M257.815,-406.295C257.485,-387.131 256.787,-346.654 256.359,-321.843"/>
<polygon fill="midnightblue" stroke="midnightblue" points="259.856,-321.617 256.184,-311.679 252.857,-321.738 259.856,-321.617"/>
</g>
<!-- Node18 -->
<g id="node42" class="node"><title>Node18</title>
<a xlink:href="function_8h.html" target="_top" xlink:title="a header that contains generic function">
<polygon fill="none" stroke="black" points="166,-348.5 166,-369.5 230,-369.5 230,-348.5 166,-348.5"/>
<text text-anchor="middle" x="198" y="-356.5" font-family="FreeSans.ttf" font-size="10.00">function.h</text>
</a>
</g>
<!-- Node1&#45;&gt;Node18 -->
<g id="edge48" class="edge"><title>Node1&#45;&gt;Node18</title>
<path fill="none" stroke="midnightblue" d="M246.995,-406.362C238.453,-398.104 226.42,-386.472 216.417,-376.803"/>
<polygon fill="midnightblue" stroke="midnightblue" points="218.558,-374.004 208.935,-369.571 213.692,-379.037 218.558,-374.004"/>
</g>
<!-- Node4 -->
<g id="node7" class="node"><title>Node4</title>
<polygon fill="none" stroke="#bfbfbf" points="273,-0.5 273,-21.5 337,-21.5 337,-0.5 273,-0.5"/>
<text text-anchor="middle" x="305" y="-8.5" font-family="FreeSans.ttf" font-size="10.00">inttypes.h</text>
</g>
<!-- Node3&#45;&gt;Node4 -->
<g id="edge6" class="edge"><title>Node3&#45;&gt;Node4</title>
<path fill="none" stroke="midnightblue" d="M305,-58.3619C305,-50.9219 305,-40.7427 305,-31.7276"/>
<polygon fill="midnightblue" stroke="midnightblue" points="308.5,-31.5706 305,-21.5707 301.5,-31.5707 308.5,-31.5706"/>
</g>
<!-- Node5&#45;&gt;Node3 -->
<g id="edge14" class="edge"><title>Node5&#45;&gt;Node3</title>
<path fill="none" stroke="midnightblue" d="M377.537,-290.429C365.766,-254.497 327.169,-136.674 311.599,-89.1453"/>
<polygon fill="midnightblue" stroke="midnightblue" points="314.923,-88.047 308.483,-79.6335 308.27,-90.2262 314.923,-88.047"/>
</g>
<!-- Node6 -->
<g id="node11" class="node"><title>Node6</title>
<polygon fill="none" stroke="#bfbfbf" points="670.5,-116.5 670.5,-137.5 721.5,-137.5 721.5,-116.5 670.5,-116.5"/>
<text text-anchor="middle" x="696" y="-124.5" font-family="FreeSans.ttf" font-size="10.00">math.h</text>
</g>
<!-- Node5&#45;&gt;Node6 -->
<g id="edge10" class="edge"><title>Node5&#45;&gt;Node6</title>
<path fill="none" stroke="midnightblue" d="M415.38,-296.073C467.07,-288.208 561.858,-271.87 591,-254 635.069,-226.977 669.239,-174.829 685.528,-146.488"/>
<polygon fill="midnightblue" stroke="midnightblue" points="688.708,-147.973 690.531,-137.536 682.597,-144.558 688.708,-147.973"/>
</g>
<!-- Node7 -->
<g id="node13" class="node"><title>Node7</title>
<polygon fill="none" stroke="#bfbfbf" points="354.5,-58.5 354.5,-79.5 407.5,-79.5 407.5,-58.5 354.5,-58.5"/>
<text text-anchor="middle" x="381" y="-66.5" font-family="FreeSans.ttf" font-size="10.00">stdint.h</text>
</g>
<!-- Node5&#45;&gt;Node7 -->
<g id="edge12" class="edge"><title>Node5&#45;&gt;Node7</title>
<path fill="none" stroke="midnightblue" d="M381,-290.429C381,-254.648 381,-137.663 381,-89.7481"/>
<polygon fill="midnightblue" stroke="midnightblue" points="384.5,-89.6335 381,-79.6335 377.5,-89.6335 384.5,-89.6335"/>
</g>
<!-- Node8 -->
<g id="node16" class="node"><title>Node8</title>
<a xlink:href="fixedVector_8h.html" target="_top" xlink:title="This file holds the description of the commonly used template &#45; a vector with the fixed number of com...">
<polygon fill="none" stroke="black" points="504,-232.5 504,-253.5 582,-253.5 582,-232.5 504,-232.5"/>
<text text-anchor="middle" x="543" y="-240.5" font-family="FreeSans.ttf" font-size="10.00">fixedVector.h</text>
</a>
</g>
<!-- Node5&#45;&gt;Node8 -->
<g id="edge16" class="edge"><title>Node5&#45;&gt;Node8</title>
<path fill="none" stroke="midnightblue" d="M410.337,-290.497C436.519,-281.123 475.06,-267.324 503.863,-257.012"/>
<polygon fill="midnightblue" stroke="midnightblue" points="505.373,-260.189 513.608,-253.523 503.013,-253.599 505.373,-260.189"/>
</g>
<!-- Node9 -->
<g id="node18" class="node"><title>Node9</title>
<polygon fill="none" stroke="#bfbfbf" points="658.5,-58.5 658.5,-79.5 707.5,-79.5 707.5,-58.5 658.5,-58.5"/>
<text text-anchor="middle" x="683" y="-66.5" font-family="FreeSans.ttf" font-size="10.00">stdio.h</text>
</g>
<!-- Node8&#45;&gt;Node9 -->
<g id="edge18" class="edge"><title>Node8&#45;&gt;Node9</title>
<path fill="none" stroke="midnightblue" d="M582.099,-233.677C626.899,-220.67 698.212,-192.304 730,-138 740.76,-119.618 723.68,-99.6032 707.176,-85.8873"/>
<polygon fill="midnightblue" stroke="midnightblue" points="709.281,-83.0904 699.245,-79.6948 704.973,-88.6078 709.281,-83.0904"/>
</g>
<!-- Node10 -->
<g id="node20" class="node"><title>Node10</title>
<a xlink:href="vectorOperations_8h.html" target="_top" xlink:title="This file holds the operations that are commonly used with continuous linear data structures such as ...">
<polygon fill="none" stroke="black" points="489,-174.5 489,-195.5 597,-195.5 597,-174.5 489,-174.5"/>
<text text-anchor="middle" x="543" y="-182.5" font-family="FreeSans.ttf" font-size="10.00">vectorOperations.h</text>
</a>
</g>
<!-- Node8&#45;&gt;Node10 -->
<g id="edge20" class="edge"><title>Node8&#45;&gt;Node10</title>
<path fill="none" stroke="midnightblue" d="M543,-232.362C543,-224.922 543,-214.743 543,-205.728"/>
<polygon fill="midnightblue" stroke="midnightblue" points="546.5,-205.571 543,-195.571 539.5,-205.571 546.5,-205.571"/>
</g>
<!-- Node10&#45;&gt;Node6 -->
<g id="edge28" class="edge"><title>Node10&#45;&gt;Node6</title>
<path fill="none" stroke="midnightblue" d="M570.707,-174.497C595.863,-164.96 633.101,-150.844 660.444,-140.479"/>
<polygon fill="midnightblue" stroke="midnightblue" points="661.919,-143.663 670.029,-136.845 659.438,-137.117 661.919,-143.663"/>
</g>
<!-- Node10&#45;&gt;Node9 -->
<g id="edge26" class="edge"><title>Node10&#45;&gt;Node9</title>
<path fill="none" stroke="midnightblue" d="M565.617,-174.488C582.631,-165.983 606.012,-152.985 624,-138 641.65,-123.297 658.327,-102.97 669.418,-88.1885"/>
<polygon fill="midnightblue" stroke="midnightblue" points="672.475,-89.9375 675.56,-79.8017 666.828,-85.8014 672.475,-89.9375"/>
</g>
<!-- Node11 -->
<g id="node22" class="node"><title>Node11</title>
<polygon fill="none" stroke="#bfbfbf" points="485,-116.5 485,-137.5 527,-137.5 527,-116.5 485,-116.5"/>
<text text-anchor="middle" x="506" y="-124.5" font-family="FreeSans.ttf" font-size="10.00">limits</text>
</g>
<!-- Node10&#45;&gt;Node11 -->
<g id="edge22" class="edge"><title>Node10&#45;&gt;Node11</title>
<path fill="none" stroke="midnightblue" d="M536.214,-174.362C531.207,-166.513 524.255,-155.616 518.282,-146.253"/>
<polygon fill="midnightblue" stroke="midnightblue" points="521.072,-144.119 512.743,-137.571 515.171,-147.884 521.072,-144.119"/>
</g>
<!-- Node12 -->
<g id="node24" class="node"><title>Node12</title>
<polygon fill="none" stroke="#bfbfbf" points="408.5,-116.5 408.5,-137.5 467.5,-137.5 467.5,-116.5 408.5,-116.5"/>
<text text-anchor="middle" x="438" y="-124.5" font-family="FreeSans.ttf" font-size="10.00">iostream</text>
</g>
<!-- Node10&#45;&gt;Node12 -->
<g id="edge24" class="edge"><title>Node10&#45;&gt;Node12</title>
<path fill="none" stroke="midnightblue" d="M523.741,-174.362C507.534,-165.409 484.147,-152.491 465.891,-142.406"/>
<polygon fill="midnightblue" stroke="midnightblue" points="467.582,-139.342 457.137,-137.571 464.198,-145.47 467.582,-139.342"/>
</g>
<!-- Node13 -->
<g id="node28" class="node"><title>Node13</title>
<a xlink:href="reflection_8h.html" target="_top" xlink:title="a header for Reflection.c">
<polygon fill="none" stroke="black" points="545,-116.5 545,-137.5 615,-137.5 615,-116.5 545,-116.5"/>
<text text-anchor="middle" x="580" y="-124.5" font-family="FreeSans.ttf" font-size="10.00">reflection.h</text>
</a>
</g>
<!-- Node10&#45;&gt;Node13 -->
<g id="edge30" class="edge"><title>Node10&#45;&gt;Node13</title>
<path fill="none" stroke="midnightblue" d="M549.786,-174.362C554.793,-166.513 561.745,-155.616 567.718,-146.253"/>
<polygon fill="midnightblue" stroke="midnightblue" points="570.829,-147.884 573.257,-137.571 564.928,-144.119 570.829,-147.884"/>
</g>
<!-- Node13&#45;&gt;Node2 -->
<g id="edge32" class="edge"><title>Node13&#45;&gt;Node2</title>
<path fill="none" stroke="midnightblue" d="M544.566,-117.591C541.68,-116.993 538.799,-116.451 536,-116 327.561,-82.396 266.811,-121.965 56.3863,-79.8594"/>
<polygon fill="midnightblue" stroke="midnightblue" points="57.0745,-76.4278 46.5769,-77.8595 55.6761,-83.2867 57.0745,-76.4278"/>
</g>
<!-- Node13&#45;&gt;Node3 -->
<g id="edge44" class="edge"><title>Node13&#45;&gt;Node3</title>
<path fill="none" stroke="midnightblue" d="M544.978,-118.051C541.947,-117.335 538.923,-116.642 536,-116 452.052,-97.5697 429.787,-99.1491 346,-80 344.747,-79.7137 343.475,-79.4153 342.191,-79.1079"/>
<polygon fill="midnightblue" stroke="midnightblue" points="342.827,-75.659 332.276,-76.623 341.125,-82.449 342.827,-75.659"/>
</g>
<!-- Node13&#45;&gt;Node7 -->
<g id="edge40" class="edge"><title>Node13&#45;&gt;Node7</title>
<path fill="none" stroke="midnightblue" d="M544.881,-116.764C508.98,-106.301 453.483,-90.1256 417.196,-79.5495"/>
<polygon fill="midnightblue" stroke="midnightblue" points="418.083,-76.1625 407.503,-76.7244 416.124,-82.8828 418.083,-76.1625"/>
</g>
<!-- Node13&#45;&gt;Node9 -->
<g id="edge38" class="edge"><title>Node13&#45;&gt;Node9</title>
<path fill="none" stroke="midnightblue" d="M598.892,-116.362C614.718,-107.45 637.523,-94.6087 655.395,-84.5447"/>
<polygon fill="midnightblue" stroke="midnightblue" points="657.232,-87.5271 664.228,-79.5707 653.797,-81.4276 657.232,-87.5271"/>
</g>
<!-- Node14 -->
<g id="node31" class="node"><title>Node14</title>
<polygon fill="none" stroke="#bfbfbf" points="597,-58.5 597,-79.5 641,-79.5 641,-58.5 597,-58.5"/>
<text text-anchor="middle" x="619" y="-66.5" font-family="FreeSans.ttf" font-size="10.00">string</text>
</g>
<!-- Node13&#45;&gt;Node14 -->
<g id="edge34" class="edge"><title>Node13&#45;&gt;Node14</title>
<path fill="none" stroke="midnightblue" d="M587.153,-116.362C592.486,-108.431 599.911,-97.3885 606.251,-87.9606"/>
<polygon fill="midnightblue" stroke="midnightblue" points="609.217,-89.8221 611.892,-79.5707 603.408,-85.9161 609.217,-89.8221"/>
</g>
<!-- Node15 -->
<g id="node33" class="node"><title>Node15</title>
<polygon fill="none" stroke="#bfbfbf" points="452.5,-58.5 452.5,-79.5 505.5,-79.5 505.5,-58.5 452.5,-58.5"/>
<text text-anchor="middle" x="479" y="-66.5" font-family="FreeSans.ttf" font-size="10.00">string.h</text>
</g>
<!-- Node13&#45;&gt;Node15 -->
<g id="edge36" class="edge"><title>Node13&#45;&gt;Node15</title>
<path fill="none" stroke="midnightblue" d="M561.475,-116.362C546.099,-107.532 524.004,-94.844 506.553,-84.8224"/>
<polygon fill="midnightblue" stroke="midnightblue" points="507.822,-81.5154 497.408,-79.5707 504.336,-87.5857 507.822,-81.5154"/>
</g>
<!-- Node16 -->
<g id="node37" class="node"><title>Node16</title>
<polygon fill="none" stroke="#bfbfbf" points="523,-58.5 523,-79.5 579,-79.5 579,-58.5 523,-58.5"/>
<text text-anchor="middle" x="551" y="-66.5" font-family="FreeSans.ttf" font-size="10.00">stdarg.h</text>
</g>
<!-- Node13&#45;&gt;Node16 -->
<g id="edge42" class="edge"><title>Node13&#45;&gt;Node16</title>
<path fill="none" stroke="midnightblue" d="M574.681,-116.362C570.797,-108.595 565.421,-97.8426 560.773,-88.5458"/>
<polygon fill="midnightblue" stroke="midnightblue" points="563.888,-86.9497 556.285,-79.5707 557.627,-90.0802 563.888,-86.9497"/>
</g>
<!-- Node18&#45;&gt;Node2 -->
<g id="edge50" class="edge"><title>Node18&#45;&gt;Node2</title>
<path fill="none" stroke="midnightblue" d="M165.884,-350.63C120.483,-336.634 43,-303.836 43,-243 43,-243 43,-243 43,-185 43,-151.127 34.6159,-112.489 28.7044,-89.4562"/>
<polygon fill="midnightblue" stroke="midnightblue" points="32.0801,-88.5309 26.125,-79.768 25.3157,-90.3319 32.0801,-88.5309"/>
</g>
<!-- Node18&#45;&gt;Node3 -->
<g id="edge52" class="edge"><title>Node18&#45;&gt;Node3</title>
<path fill="none" stroke="midnightblue" d="M201.023,-348.162C204.897,-334.504 211.954,-310.352 219,-290 244.853,-215.32 280.288,-128.381 296.399,-89.5538"/>
<polygon fill="midnightblue" stroke="midnightblue" points="299.794,-90.5056 300.407,-79.9285 293.332,-87.8147 299.794,-90.5056"/>
</g>
<!-- Node18&#45;&gt;Node17 -->
<g id="edge54" class="edge"><title>Node18&#45;&gt;Node17</title>
<path fill="none" stroke="midnightblue" d="M208.638,-348.362C216.896,-340.104 228.528,-328.472 238.197,-318.803"/>
<polygon fill="midnightblue" stroke="midnightblue" points="240.833,-321.117 245.429,-311.571 235.883,-316.167 240.833,-321.117"/>
</g>
<!-- Node19 -->
<g id="node47" class="node"><title>Node19</title>
<a xlink:href="vector_8h.html" target="_top" xlink:title="a header for vector.c">
<polygon fill="none" stroke="black" points="117.5,-290.5 117.5,-311.5 172.5,-311.5 172.5,-290.5 117.5,-290.5"/>
<text text-anchor="middle" x="145" y="-298.5" font-family="FreeSans.ttf" font-size="10.00">vector.h</text>
</a>
</g>
<!-- Node18&#45;&gt;Node19 -->
<g id="edge56" class="edge"><title>Node18&#45;&gt;Node19</title>
<path fill="none" stroke="midnightblue" d="M188.279,-348.362C180.808,-340.186 170.314,-328.702 161.531,-319.091"/>
<polygon fill="midnightblue" stroke="midnightblue" points="163.989,-316.592 154.659,-311.571 158.821,-321.314 163.989,-316.592"/>
</g>
<!-- Node20 -->
<g id="node49" class="node"><title>Node20</title>
<a xlink:href="fixedArray_8h.html" target="_top" xlink:title="a header for fixedArray.c">
<polygon fill="none" stroke="black" points="119,-232.5 119,-253.5 191,-253.5 191,-232.5 119,-232.5"/>
<text text-anchor="middle" x="155" y="-240.5" font-family="FreeSans.ttf" font-size="10.00">fixedArray.h</text>
</a>
</g>
<!-- Node19&#45;&gt;Node20 -->
<g id="edge58" class="edge"><title>Node19&#45;&gt;Node20</title>
<path fill="none" stroke="midnightblue" d="M146.834,-290.362C148.131,-282.84 149.911,-272.519 151.477,-263.431"/>
<polygon fill="midnightblue" stroke="midnightblue" points="154.927,-264.02 153.177,-253.571 148.029,-262.831 154.927,-264.02"/>
</g>
<!-- Node20&#45;&gt;Node2 -->
<g id="edge60" class="edge"><title>Node20&#45;&gt;Node2</title>
<path fill="none" stroke="midnightblue" d="M146.942,-232.377C125.269,-203.809 65.4957,-125.017 37.6413,-88.2999"/>
<polygon fill="midnightblue" stroke="midnightblue" points="40.1223,-85.7793 31.29,-79.9277 34.5455,-90.01 40.1223,-85.7793"/>
</g>
<!-- Node20&#45;&gt;Node3 -->
<g id="edge62" class="edge"><title>Node20&#45;&gt;Node3</title>
<path fill="none" stroke="midnightblue" d="M162.28,-232.29C177.793,-209.77 215.742,-156.273 253,-116 262.684,-105.532 274.399,-94.7992 284.256,-86.2374"/>
<polygon fill="midnightblue" stroke="midnightblue" points="286.684,-88.7664 292.013,-79.6095 282.136,-83.4444 286.684,-88.7664"/>
</g>
<!-- Node20&#45;&gt;Node10 -->
<g id="edge76" class="edge"><title>Node20&#45;&gt;Node10</title>
<path fill="none" stroke="midnightblue" d="M191.154,-237.596C256.89,-227.769 396.779,-206.858 478.988,-194.569"/>
<polygon fill="midnightblue" stroke="midnightblue" points="479.592,-198.018 488.964,-193.078 478.557,-191.094 479.592,-198.018"/>
</g>
<!-- Node21 -->
<g id="node53" class="node"><title>Node21</title>
<a xlink:href="memoryBlock_8h.html" target="_top" xlink:title="Add Comment Here.">
<polygon fill="none" stroke="black" points="109,-116.5 109,-137.5 201,-137.5 201,-116.5 109,-116.5"/>
<text text-anchor="middle" x="155" y="-124.5" font-family="FreeSans.ttf" font-size="10.00">memoryBlock.h</text>
</a>
</g>
<!-- Node20&#45;&gt;Node21 -->
<g id="edge64" class="edge"><title>Node20&#45;&gt;Node21</title>
<path fill="none" stroke="midnightblue" d="M155,-232.295C155,-213.131 155,-172.654 155,-147.843"/>
<polygon fill="midnightblue" stroke="midnightblue" points="158.5,-147.679 155,-137.679 151.5,-147.679 158.5,-147.679"/>
</g>
<!-- Node21&#45;&gt;Node3 -->
<g id="edge72" class="edge"><title>Node21&#45;&gt;Node3</title>
<path fill="none" stroke="midnightblue" d="M182.164,-116.497C206.3,-107.164 241.781,-93.4447 268.412,-83.1475"/>
<polygon fill="midnightblue" stroke="midnightblue" points="269.72,-86.394 277.785,-79.5231 267.196,-79.8651 269.72,-86.394"/>
</g>
<!-- Node21&#45;&gt;Node7 -->
<g id="edge68" class="edge"><title>Node21&#45;&gt;Node7</title>
<path fill="none" stroke="midnightblue" d="M197.914,-116.426C235.655,-107.062 292.049,-92.914 341,-80 342.079,-79.7152 343.175,-79.4246 344.28,-79.1299"/>
<polygon fill="midnightblue" stroke="midnightblue" points="345.598,-82.3995 354.341,-76.4145 343.774,-75.6413 345.598,-82.3995"/>
</g>
<!-- Node22 -->
<g id="node55" class="node"><title>Node22</title>
<polygon fill="none" stroke="#bfbfbf" points="157.5,-58.5 157.5,-79.5 192.5,-79.5 192.5,-58.5 157.5,-58.5"/>
<text text-anchor="middle" x="175" y="-66.5" font-family="FreeSans.ttf" font-size="10.00">new</text>
</g>
<!-- Node21&#45;&gt;Node22 -->
<g id="edge66" class="edge"><title>Node21&#45;&gt;Node22</title>
<path fill="none" stroke="midnightblue" d="M158.668,-116.362C161.29,-108.758 164.899,-98.294 168.057,-89.1349"/>
<polygon fill="midnightblue" stroke="midnightblue" points="171.404,-90.1654 171.355,-79.5707 164.786,-87.8834 171.404,-90.1654"/>
</g>
<!-- Node23 -->
<g id="node58" class="node"><title>Node23</title>
<polygon fill="none" stroke="#bfbfbf" points="209.5,-58.5 209.5,-79.5 260.5,-79.5 260.5,-58.5 209.5,-58.5"/>
<text text-anchor="middle" x="235" y="-66.5" font-family="FreeSans.ttf" font-size="10.00">stdlib.h</text>
</g>
<!-- Node21&#45;&gt;Node23 -->
<g id="edge70" class="edge"><title>Node21&#45;&gt;Node23</title>
<path fill="none" stroke="midnightblue" d="M169.673,-116.362C181.514,-107.777 198.385,-95.5459 212.016,-85.6636"/>
<polygon fill="midnightblue" stroke="midnightblue" points="214.378,-88.274 220.42,-79.5707 210.269,-82.6067 214.378,-88.274"/>
</g>
<!-- Node24 -->
<g id="node61" class="node"><title>Node24</title>
<a xlink:href="atomicOps_8h.html" target="_top" xlink:title="atomicOps.h">
<polygon fill="none" stroke="black" points="63.5,-58.5 63.5,-79.5 140.5,-79.5 140.5,-58.5 63.5,-58.5"/>
<text text-anchor="middle" x="102" y="-66.5" font-family="FreeSans.ttf" font-size="10.00">atomicOps.h</text>
</a>
</g>
<!-- Node21&#45;&gt;Node24 -->
<g id="edge74" class="edge"><title>Node21&#45;&gt;Node24</title>
<path fill="none" stroke="midnightblue" d="M145.279,-116.362C137.808,-108.186 127.314,-96.7025 118.531,-87.0907"/>
<polygon fill="midnightblue" stroke="midnightblue" points="120.989,-84.5918 111.659,-79.5707 115.821,-89.3138 120.989,-84.5918"/>
</g>
</g>
</svg>
        <g id="navigator" transform="translate(0 0)" fill="#404254">
                <rect fill="#f2f5e9" fill-opacity="0.5" stroke="#606060" stroke-width=".5" x="0" y="0" width="60" height="60"/>
                <use id="zoomplus" xlink:href="#zoomPlus" x="17" y="9" onmousedown="handleZoom(evt,'in')"/>
                <use id="zoomminus" xlink:href="#zoomMin" x="42" y="9" onmousedown="handleZoom(evt,'out')"/>
                <use id="reset" xlink:href="#resetDef" x="30" y="36" onmousedown="handleReset()"/>
                <g id="arrowUp" xlink:href="#dirArrow" transform="translate(30 24)" onmousedown="handlePan(0,-1)">
                  <use xlink:href="#rim" fill="#404040">
                        <set attributeName="fill" to="#808080" begin="arrowUp.mouseover" end="arrowUp.mouseout"/>
                  </use>
                  <path fill="none" stroke="white" stroke-width="1.5" d="M0,-3.0v7 M-2.5,-0.5L0,-3.0L2.5,-0.5"/>
                </g>
                <g id="arrowRight" xlink:href="#dirArrow" transform="rotate(90) translate(36 -43)" onmousedown="handlePan(1,0)">
                  <use xlink:href="#rim" fill="#404040">
                        <set attributeName="fill" to="#808080" begin="arrowRight.mouseover" end="arrowRight.mouseout"/>
                  </use>
                  <path fill="none" stroke="white" stroke-width="1.5" d="M0,-3.0v7 M-2.5,-0.5L0,-3.0L2.5,-0.5"/>
                </g>
                <g id="arrowDown" xlink:href="#dirArrow" transform="rotate(180) translate(-30 -48)" onmousedown="handlePan(0,1)">
                  <use xlink:href="#rim" fill="#404040">
                        <set attributeName="fill" to="#808080" begin="arrowDown.mouseover" end="arrowDown.mouseout"/>
                  </use>
                  <path fill="none" stroke="white" stroke-width="1.5" d="M0,-3.0v7 M-2.5,-0.5L0,-3.0L2.5,-0.5"/>
                </g>
                <g id="arrowLeft" xlink:href="#dirArrow" transform="rotate(270) translate(-36 17)" onmousedown="handlePan(-1,0)">
                  <use xlink:href="#rim" fill="#404040">
                        <set attributeName="fill" to="#808080" begin="arrowLeft.mouseover" end="arrowLeft.mouseout"/>
                  </use>
                  <path fill="none" stroke="white" stroke-width="1.5" d="M0,-3.0v7 M-2.5,-0.5L0,-3.0L2.5,-0.5"/>
                </g>
        </g>
</svg>
