<?xml version="1.0" encoding="UTF-8" standalone="no"?>
<!DOCTYPE svg PUBLIC "-//W3C//DTD SVG 1.1//EN"
 "http://www.w3.org/Graphics/SVG/1.1/DTD/svg11.dtd">
<!-- Generated by graphviz version 2.26.3 (20100126.1600)
 -->
<!-- Title: G Pages: 1 -->
<!--zoomable 494 -->
<svg id="main" version="1.1" xmlns="http://www.w3.org/2000/svg" xmlns:xlink="http://www.w3.org/1999/xlink" xml:space="preserve" onload="init(evt)">
        <defs>
                <circle id="rim" cx="0" cy="0" r="7"/>
                <circle id="rim2" cx="0" cy="0" r="3.5"/>
                <g id="zoomPlus">
                        <use xlink:href="#rim" fill="#404040">
                                <set attributeName="fill" to="#808080" begin="zoomplus.mouseover" end="zoomplus.mouseout"/>
                        </use>
                        <path d="M-4,0h8M0,-4v8" fill="none" stroke="white" stroke-width="1.5" pointer-events="none"/>
                </g>
                <g id="zoomMin">
                        <use xlink:href="#rim" fill="#404040">
                                <set attributeName="fill" to="#808080" begin="zoomminus.mouseover" end="zoomminus.mouseout"/>
                        </use>
                        <path d="M-4,0h8" fill="none" stroke="white" stroke-width="1.5" pointer-events="none"/>
                </g>
                <g id="dirArrow">
                        <path fill="none" stroke="white" stroke-width="1.5" d="M0,-3.0v7 M-2.5,-0.5L0,-3.0L2.5,-0.5"/>
                </g>
               <g id="resetDef">
                       <use xlink:href="#rim2" fill="#404040">
                               <set attributeName="fill" to="#808080" begin="reset.mouseover" end="reset.mouseout"/>
                       </use>
               </g>
        </defs>

<script type="text/javascript">
var viewWidth = 1120;
var viewHeight = 494;
var sectionId = 'dynsection-0';
</script>
<script xlink:href="svgpan.js"/>
<svg id="graph" class="graph">
<g id="viewport">
<title>G</title>
<!-- Node1 -->
<g id="node1" class="node"><title>Node1</title>
<polygon fill="#bfbfbf" stroke="black" points="717,-464.5 717,-485.5 857,-485.5 857,-464.5 717,-464.5"/>
<text text-anchor="middle" x="787" y="-472.5" font-family="FreeSans.ttf" font-size="10.00">core/math/levenmarq.cpp</text>
</g>
<!-- Node2 -->
<g id="node3" class="node"><title>Node2</title>
<polygon fill="none" stroke="#bfbfbf" points="875.5,-58.5 875.5,-79.5 924.5,-79.5 924.5,-58.5 875.5,-58.5"/>
<text text-anchor="middle" x="900" y="-66.5" font-family="FreeSans.ttf" font-size="10.00">stdio.h</text>
</g>
<!-- Node1&#45;&gt;Node2 -->
<g id="edge2" class="edge"><title>Node1&#45;&gt;Node2</title>
<path fill="none" stroke="midnightblue" d="M857.084,-468.577C899.708,-462.49 954.184,-450.709 998,-428 1038.51,-407.007 1074,-404.622 1074,-359 1074,-359 1074,-359 1074,-185 1074,-153.192 1077.2,-138.779 1055,-116 1038.25,-98.8181 974.962,-83.6588 934.618,-75.4602"/>
<polygon fill="midnightblue" stroke="midnightblue" points="935.14,-71.9956 924.649,-73.4807 933.776,-78.8615 935.14,-71.9956"/>
</g>
<!-- Node3 -->
<g id="node5" class="node"><title>Node3</title>
<polygon fill="none" stroke="#bfbfbf" points="1017.5,-58.5 1017.5,-79.5 1070.5,-79.5 1070.5,-58.5 1017.5,-58.5"/>
<text text-anchor="middle" x="1044" y="-66.5" font-family="FreeSans.ttf" font-size="10.00">string.h</text>
</g>
<!-- Node1&#45;&gt;Node3 -->
<g id="edge4" class="edge"><title>Node1&#45;&gt;Node3</title>
<path fill="none" stroke="midnightblue" d="M857.232,-465.978C919.241,-457.238 1004.41,-443.119 1035,-428 1076.2,-407.642 1112,-404.952 1112,-359 1112,-359 1112,-359 1112,-185 1112,-145.878 1082.86,-108.265 1062.73,-86.9512"/>
<polygon fill="midnightblue" stroke="midnightblue" points="1065.03,-84.3034 1055.54,-79.6115 1060.04,-89.2032 1065.03,-84.3034"/>
</g>
<!-- Node4 -->
<g id="node7" class="node"><title>Node4</title>
<polygon fill="none" stroke="#bfbfbf" points="935.5,-116.5 935.5,-137.5 986.5,-137.5 986.5,-116.5 935.5,-116.5"/>
<text text-anchor="middle" x="961" y="-124.5" font-family="FreeSans.ttf" font-size="10.00">math.h</text>
</g>
<!-- Node1&#45;&gt;Node4 -->
<g id="edge6" class="edge"><title>Node1&#45;&gt;Node4</title>
<path fill="none" stroke="midnightblue" d="M852.051,-464.459C909.433,-451.013 984,-421.512 984,-359 984,-359 984,-359 984,-243 984,-208.97 974.358,-170.378 967.56,-147.398"/>
<polygon fill="midnightblue" stroke="midnightblue" points="970.874,-146.267 964.594,-137.734 964.182,-148.321 970.874,-146.267"/>
</g>
<!-- Node5 -->
<g id="node9" class="node"><title>Node5</title>
<polygon fill="none" stroke="#bfbfbf" points="1004,-116.5 1004,-137.5 1046,-137.5 1046,-116.5 1004,-116.5"/>
<text text-anchor="middle" x="1025" y="-124.5" font-family="FreeSans.ttf" font-size="10.00">limits</text>
</g>
<!-- Node1&#45;&gt;Node5 -->
<g id="edge8" class="edge"><title>Node1&#45;&gt;Node5</title>
<path fill="none" stroke="midnightblue" d="M857.352,-467.302C892.717,-460.912 934.96,-449.25 968,-428 1001.22,-406.636 1024,-398.496 1024,-359 1024,-359 1024,-359 1024,-243 1024,-209.597 1024.42,-170.784 1024.72,-147.593"/>
<polygon fill="midnightblue" stroke="midnightblue" points="1028.22,-147.601 1024.85,-137.556 1021.22,-147.509 1028.22,-147.601"/>
</g>
<!-- Node6 -->
<g id="node11" class="node"><title>Node6</title>
<a xlink:href="global_8h.html" target="_top" xlink:title="This file holds the global includes, mostly for debuging, tracing and profiling.">
<polygon fill="none" stroke="black" points="275,-58.5 275,-79.5 329,-79.5 329,-58.5 275,-58.5"/>
<text text-anchor="middle" x="302" y="-66.5" font-family="FreeSans.ttf" font-size="10.00">global.h</text>
</a>
</g>
<!-- Node1&#45;&gt;Node6 -->
<g id="edge10" class="edge"><title>Node1&#45;&gt;Node6</title>
<path fill="none" stroke="midnightblue" d="M716.826,-468.963C662.035,-462.756 584.62,-450.674 520,-428 419.02,-392.569 381.738,-390.495 309,-312 264.343,-263.809 245.644,-238.88 256,-174 260.276,-147.213 263.964,-140.779 275,-116 279.173,-106.631 284.686,-96.7214 289.642,-88.429"/>
<polygon fill="midnightblue" stroke="midnightblue" points="292.648,-90.2218 294.9,-79.8689 286.684,-86.558 292.648,-90.2218"/>
</g>
<!-- Node8 -->
<g id="node15" class="node"><title>Node8</title>
<a xlink:href="math_2levenmarq_8h.html" target="_top" xlink:title="levenmarq.h">
<polygon fill="none" stroke="black" points="145.5,-406.5 145.5,-427.5 222.5,-427.5 222.5,-406.5 145.5,-406.5"/>
<text text-anchor="middle" x="184" y="-414.5" font-family="FreeSans.ttf" font-size="10.00">levenmarq.h</text>
</a>
</g>
<!-- Node1&#45;&gt;Node8 -->
<g id="edge14" class="edge"><title>Node1&#45;&gt;Node8</title>
<path fill="none" stroke="midnightblue" d="M716.831,-468.979C618.938,-460.468 435.851,-444.151 280,-428 264.68,-426.412 248.001,-424.549 232.908,-422.811"/>
<polygon fill="midnightblue" stroke="midnightblue" points="233.085,-419.308 222.749,-421.633 232.279,-426.262 233.085,-419.308"/>
</g>
<!-- Node20 -->
<g id="node54" class="node"><title>Node20</title>
<a xlink:href="vector_8h.html" target="_top" xlink:title="a header for vector.c">
<polygon fill="none" stroke="black" points="317.5,-290.5 317.5,-311.5 372.5,-311.5 372.5,-290.5 317.5,-290.5"/>
<text text-anchor="middle" x="345" y="-298.5" font-family="FreeSans.ttf" font-size="10.00">vector.h</text>
</a>
</g>
<!-- Node1&#45;&gt;Node20 -->
<g id="edge92" class="edge"><title>Node1&#45;&gt;Node20</title>
<path fill="none" stroke="midnightblue" d="M716.564,-465.254C673.338,-457.935 617.376,-446.026 570,-428 491.824,-398.254 408.154,-344.458 368.474,-317.432"/>
<polygon fill="midnightblue" stroke="midnightblue" points="370.25,-314.405 360.025,-311.627 366.286,-320.175 370.25,-314.405"/>
</g>
<!-- Node24 -->
<g id="node65" class="node"><title>Node24</title>
<polygon fill="none" stroke="#bfbfbf" points="551.5,-116.5 551.5,-137.5 602.5,-137.5 602.5,-116.5 551.5,-116.5"/>
<text text-anchor="middle" x="577" y="-124.5" font-family="FreeSans.ttf" font-size="10.00">stdlib.h</text>
</g>
<!-- Node1&#45;&gt;Node24 -->
<g id="edge90" class="edge"><title>Node1&#45;&gt;Node24</title>
<path fill="none" stroke="midnightblue" d="M717.139,-464.459C658.418,-451.17 584,-421.916 584,-359 584,-359 584,-359 584,-243 584,-209.537 581.062,-170.743 578.992,-147.571"/>
<polygon fill="midnightblue" stroke="midnightblue" points="582.471,-147.178 578.063,-137.543 575.501,-147.824 582.471,-147.178"/>
</g>
<!-- Node7 -->
<g id="node13" class="node"><title>Node7</title>
<polygon fill="none" stroke="#bfbfbf" points="270,-0.5 270,-21.5 334,-21.5 334,-0.5 270,-0.5"/>
<text text-anchor="middle" x="302" y="-8.5" font-family="FreeSans.ttf" font-size="10.00">inttypes.h</text>
</g>
<!-- Node6&#45;&gt;Node7 -->
<g id="edge12" class="edge"><title>Node6&#45;&gt;Node7</title>
<path fill="none" stroke="midnightblue" d="M302,-58.3619C302,-50.9219 302,-40.7427 302,-31.7276"/>
<polygon fill="midnightblue" stroke="midnightblue" points="305.5,-31.5706 302,-21.5707 298.5,-31.5707 305.5,-31.5706"/>
</g>
<!-- Node8&#45;&gt;Node6 -->
<g id="edge18" class="edge"><title>Node8&#45;&gt;Node6</title>
<path fill="none" stroke="midnightblue" d="M187.661,-406.203C204.317,-357.083 273.076,-154.302 295.147,-89.211"/>
<polygon fill="midnightblue" stroke="midnightblue" points="298.485,-90.265 298.382,-79.6706 291.856,-88.0171 298.485,-90.265"/>
</g>
<!-- Node9 -->
<g id="node17" class="node"><title>Node9</title>
<polygon fill="none" stroke="#bfbfbf" points="126.5,-58.5 126.5,-79.5 173.5,-79.5 173.5,-58.5 126.5,-58.5"/>
<text text-anchor="middle" x="150" y="-66.5" font-family="FreeSans.ttf" font-size="10.00">vector</text>
</g>
<!-- Node8&#45;&gt;Node9 -->
<g id="edge16" class="edge"><title>Node8&#45;&gt;Node9</title>
<path fill="none" stroke="midnightblue" d="M145.428,-410.468C91.4729,-398.872 0,-369.162 0,-301 0,-301 0,-301 0,-185 0,-126.514 72.2431,-93.337 116.457,-78.509"/>
<polygon fill="midnightblue" stroke="midnightblue" points="117.778,-81.7611 126.232,-75.3747 115.641,-75.0954 117.778,-81.7611"/>
</g>
<!-- Node10 -->
<g id="node20" class="node"><title>Node10</title>
<a xlink:href="vector2d_8h.html" target="_top" xlink:title="Add Comment Here.">
<polygon fill="none" stroke="black" points="634,-290.5 634,-311.5 702,-311.5 702,-290.5 634,-290.5"/>
<text text-anchor="middle" x="668" y="-298.5" font-family="FreeSans.ttf" font-size="10.00">vector2d.h</text>
</a>
</g>
<!-- Node8&#45;&gt;Node10 -->
<g id="edge20" class="edge"><title>Node8&#45;&gt;Node10</title>
<path fill="none" stroke="midnightblue" d="M222.79,-407.703C311.852,-386.358 530.505,-333.953 624.21,-311.495"/>
<polygon fill="midnightblue" stroke="midnightblue" points="625.034,-314.897 633.943,-309.162 623.402,-308.09 625.034,-314.897"/>
</g>
<!-- Node18 -->
<g id="node47" class="node"><title>Node18</title>
<polygon fill="none" stroke="#bfbfbf" points="28,-290.5 28,-311.5 84,-311.5 84,-290.5 28,-290.5"/>
<text text-anchor="middle" x="56" y="-298.5" font-family="FreeSans.ttf" font-size="10.00">matrix.h</text>
</g>
<!-- Node8&#45;&gt;Node18 -->
<g id="edge58" class="edge"><title>Node8&#45;&gt;Node18</title>
<path fill="none" stroke="midnightblue" d="M162.896,-406.43C147.057,-397.895 125.373,-384.884 109,-370 92.8631,-355.331 78.0705,-335.261 68.2384,-320.549"/>
<polygon fill="midnightblue" stroke="midnightblue" points="70.9134,-318.242 62.5293,-311.764 65.0441,-322.056 70.9134,-318.242"/>
</g>
<!-- Node19 -->
<g id="node49" class="node"><title>Node19</title>
<a xlink:href="function_8h.html" target="_top" xlink:title="a header that contains generic function">
<polygon fill="none" stroke="black" points="118,-348.5 118,-369.5 182,-369.5 182,-348.5 118,-348.5"/>
<text text-anchor="middle" x="150" y="-356.5" font-family="FreeSans.ttf" font-size="10.00">function.h</text>
</a>
</g>
<!-- Node8&#45;&gt;Node19 -->
<g id="edge60" class="edge"><title>Node8&#45;&gt;Node19</title>
<path fill="none" stroke="midnightblue" d="M177.764,-406.362C173.163,-398.513 166.775,-387.616 161.286,-378.253"/>
<polygon fill="midnightblue" stroke="midnightblue" points="164.273,-376.428 156.197,-369.571 158.234,-379.968 164.273,-376.428"/>
</g>
<!-- Node10&#45;&gt;Node4 -->
<g id="edge22" class="edge"><title>Node10&#45;&gt;Node4</title>
<path fill="none" stroke="midnightblue" d="M702.181,-295.642C750.949,-287.526 837.531,-271.226 864,-254 905.81,-226.79 936.739,-175.154 951.447,-146.825"/>
<polygon fill="midnightblue" stroke="midnightblue" points="954.592,-148.361 955.964,-137.855 948.34,-145.212 954.592,-148.361"/>
</g>
<!-- Node10&#45;&gt;Node6 -->
<g id="edge26" class="edge"><title>Node10&#45;&gt;Node6</title>
<path fill="none" stroke="midnightblue" d="M666.231,-290.35C660.07,-254.576 638.428,-139.644 611,-116 570.945,-81.4717 412.756,-72.2758 339.543,-69.8532"/>
<polygon fill="midnightblue" stroke="midnightblue" points="339.484,-66.3499 329.382,-69.5427 339.271,-73.3466 339.484,-66.3499"/>
</g>
<!-- Node11 -->
<g id="node23" class="node"><title>Node11</title>
<polygon fill="none" stroke="#bfbfbf" points="641.5,-58.5 641.5,-79.5 694.5,-79.5 694.5,-58.5 641.5,-58.5"/>
<text text-anchor="middle" x="668" y="-66.5" font-family="FreeSans.ttf" font-size="10.00">stdint.h</text>
</g>
<!-- Node10&#45;&gt;Node11 -->
<g id="edge24" class="edge"><title>Node10&#45;&gt;Node11</title>
<path fill="none" stroke="midnightblue" d="M668,-290.429C668,-254.648 668,-137.663 668,-89.7481"/>
<polygon fill="midnightblue" stroke="midnightblue" points="671.5,-89.6335 668,-79.6335 664.5,-89.6335 671.5,-89.6335"/>
</g>
<!-- Node12 -->
<g id="node26" class="node"><title>Node12</title>
<a xlink:href="fixedVector_8h.html" target="_top" xlink:title="This file holds the description of the commonly used template &#45; a vector with the fixed number of com...">
<polygon fill="none" stroke="black" points="777,-232.5 777,-253.5 855,-253.5 855,-232.5 777,-232.5"/>
<text text-anchor="middle" x="816" y="-240.5" font-family="FreeSans.ttf" font-size="10.00">fixedVector.h</text>
</a>
</g>
<!-- Node10&#45;&gt;Node12 -->
<g id="edge28" class="edge"><title>Node10&#45;&gt;Node12</title>
<path fill="none" stroke="midnightblue" d="M694.802,-290.497C718.438,-281.234 753.1,-267.65 779.308,-257.379"/>
<polygon fill="midnightblue" stroke="midnightblue" points="780.864,-260.529 788.898,-253.621 778.31,-254.011 780.864,-260.529"/>
</g>
<!-- Node12&#45;&gt;Node2 -->
<g id="edge30" class="edge"><title>Node12&#45;&gt;Node2</title>
<path fill="none" stroke="midnightblue" d="M837.881,-232.326C851.919,-224.306 869.279,-211.968 879,-196 899.133,-162.929 901.634,-116.454 901.147,-89.8639"/>
<polygon fill="midnightblue" stroke="midnightblue" points="904.642,-89.6557 900.798,-79.7828 897.646,-89.8979 904.642,-89.6557"/>
</g>
<!-- Node13 -->
<g id="node29" class="node"><title>Node13</title>
<a xlink:href="vectorOperations_8h.html" target="_top" xlink:title="This file holds the operations that are commonly used with continuous linear data structures such as ...">
<polygon fill="none" stroke="black" points="762,-174.5 762,-195.5 870,-195.5 870,-174.5 762,-174.5"/>
<text text-anchor="middle" x="816" y="-182.5" font-family="FreeSans.ttf" font-size="10.00">vectorOperations.h</text>
</a>
</g>
<!-- Node12&#45;&gt;Node13 -->
<g id="edge32" class="edge"><title>Node12&#45;&gt;Node13</title>
<path fill="none" stroke="midnightblue" d="M816,-232.362C816,-224.922 816,-214.743 816,-205.728"/>
<polygon fill="midnightblue" stroke="midnightblue" points="819.5,-205.571 816,-195.571 812.5,-205.571 819.5,-205.571"/>
</g>
<!-- Node13&#45;&gt;Node2 -->
<g id="edge38" class="edge"><title>Node13&#45;&gt;Node2</title>
<path fill="none" stroke="midnightblue" d="M824.132,-174.224C831.271,-164.731 841.905,-150.506 851,-138 863.193,-121.235 876.83,-101.99 886.616,-88.0917"/>
<polygon fill="midnightblue" stroke="midnightblue" points="889.549,-90.0043 892.436,-79.8103 883.822,-85.9791 889.549,-90.0043"/>
</g>
<!-- Node13&#45;&gt;Node4 -->
<g id="edge40" class="edge"><title>Node13&#45;&gt;Node4</title>
<path fill="none" stroke="midnightblue" d="M842.258,-174.497C865.705,-165.118 900.226,-151.31 926.011,-140.996"/>
<polygon fill="midnightblue" stroke="midnightblue" points="927.439,-144.194 935.424,-137.231 924.839,-137.695 927.439,-144.194"/>
</g>
<!-- Node13&#45;&gt;Node5 -->
<g id="edge34" class="edge"><title>Node13&#45;&gt;Node5</title>
<path fill="none" stroke="midnightblue" d="M860.839,-174.476C895.044,-166.167 943.481,-153.802 993.991,-138.133"/>
<polygon fill="midnightblue" stroke="midnightblue" points="995.286,-141.395 1003.78,-135.063 993.191,-134.716 995.286,-141.395"/>
</g>
<!-- Node14 -->
<g id="node32" class="node"><title>Node14</title>
<polygon fill="none" stroke="#bfbfbf" points="695.5,-116.5 695.5,-137.5 754.5,-137.5 754.5,-116.5 695.5,-116.5"/>
<text text-anchor="middle" x="725" y="-124.5" font-family="FreeSans.ttf" font-size="10.00">iostream</text>
</g>
<!-- Node13&#45;&gt;Node14 -->
<g id="edge36" class="edge"><title>Node13&#45;&gt;Node14</title>
<path fill="none" stroke="midnightblue" d="M799.309,-174.362C785.584,-165.614 765.916,-153.079 750.263,-143.101"/>
<polygon fill="midnightblue" stroke="midnightblue" points="751.899,-139.994 741.585,-137.571 748.137,-145.897 751.899,-139.994"/>
</g>
<!-- Node15 -->
<g id="node36" class="node"><title>Node15</title>
<a xlink:href="reflection_8h.html" target="_top" xlink:title="a header for Reflection.c">
<polygon fill="none" stroke="black" points="772,-116.5 772,-137.5 842,-137.5 842,-116.5 772,-116.5"/>
<text text-anchor="middle" x="807" y="-124.5" font-family="FreeSans.ttf" font-size="10.00">reflection.h</text>
</a>
</g>
<!-- Node13&#45;&gt;Node15 -->
<g id="edge42" class="edge"><title>Node13&#45;&gt;Node15</title>
<path fill="none" stroke="midnightblue" d="M814.349,-174.362C813.195,-166.922 811.615,-156.743 810.216,-147.728"/>
<polygon fill="midnightblue" stroke="midnightblue" points="813.632,-146.916 808.64,-137.571 806.715,-147.989 813.632,-146.916"/>
</g>
<!-- Node15&#45;&gt;Node2 -->
<g id="edge50" class="edge"><title>Node15&#45;&gt;Node2</title>
<path fill="none" stroke="midnightblue" d="M824.058,-116.362C838.085,-107.614 858.184,-95.0786 874.182,-85.1015"/>
<polygon fill="midnightblue" stroke="midnightblue" points="876.418,-87.8323 883.051,-79.5707 872.713,-81.8927 876.418,-87.8323"/>
</g>
<!-- Node15&#45;&gt;Node3 -->
<g id="edge48" class="edge"><title>Node15&#45;&gt;Node3</title>
<path fill="none" stroke="midnightblue" d="M842.225,-118.379C886.608,-107.518 962.503,-88.9444 1007.49,-77.936"/>
<polygon fill="midnightblue" stroke="midnightblue" points="1008.52,-81.2853 1017.41,-75.5085 1006.86,-74.486 1008.52,-81.2853"/>
</g>
<!-- Node15&#45;&gt;Node6 -->
<g id="edge56" class="edge"><title>Node15&#45;&gt;Node6</title>
<path fill="none" stroke="midnightblue" d="M771.552,-117.674C768.669,-117.058 765.792,-116.489 763,-116 607.089,-88.7085 418.535,-75.6055 339.601,-71.002"/>
<polygon fill="midnightblue" stroke="midnightblue" points="339.389,-67.4842 329.206,-70.4082 338.99,-74.4728 339.389,-67.4842"/>
</g>
<!-- Node15&#45;&gt;Node9 -->
<g id="edge44" class="edge"><title>Node15&#45;&gt;Node9</title>
<path fill="none" stroke="midnightblue" d="M771.567,-117.584C768.681,-116.987 765.799,-116.448 763,-116 544.313,-81.0128 486.697,-98.4549 266,-80 238.204,-77.6757 206.699,-74.6641 183.544,-72.3799"/>
<polygon fill="midnightblue" stroke="midnightblue" points="183.833,-68.8914 173.536,-71.3866 183.142,-75.8572 183.833,-68.8914"/>
</g>
<!-- Node15&#45;&gt;Node11 -->
<g id="edge52" class="edge"><title>Node15&#45;&gt;Node11</title>
<path fill="none" stroke="midnightblue" d="M781.828,-116.497C759.727,-107.275 727.361,-93.7695 702.787,-83.5153"/>
<polygon fill="midnightblue" stroke="midnightblue" points="704.031,-80.2421 693.454,-79.6212 701.335,-86.7022 704.031,-80.2421"/>
</g>
<!-- Node16 -->
<g id="node39" class="node"><title>Node16</title>
<polygon fill="none" stroke="#bfbfbf" points="725,-58.5 725,-79.5 769,-79.5 769,-58.5 725,-58.5"/>
<text text-anchor="middle" x="747" y="-66.5" font-family="FreeSans.ttf" font-size="10.00">string</text>
</g>
<!-- Node15&#45;&gt;Node16 -->
<g id="edge46" class="edge"><title>Node15&#45;&gt;Node16</title>
<path fill="none" stroke="midnightblue" d="M795.995,-116.362C787.453,-108.104 775.42,-96.4725 765.417,-86.8029"/>
<polygon fill="midnightblue" stroke="midnightblue" points="767.558,-84.0044 757.935,-79.5707 762.692,-89.0374 767.558,-84.0044"/>
</g>
<!-- Node17 -->
<g id="node44" class="node"><title>Node17</title>
<polygon fill="none" stroke="#bfbfbf" points="787,-58.5 787,-79.5 843,-79.5 843,-58.5 787,-58.5"/>
<text text-anchor="middle" x="815" y="-66.5" font-family="FreeSans.ttf" font-size="10.00">stdarg.h</text>
</g>
<!-- Node15&#45;&gt;Node17 -->
<g id="edge54" class="edge"><title>Node15&#45;&gt;Node17</title>
<path fill="none" stroke="midnightblue" d="M808.467,-116.362C809.494,-108.922 810.898,-98.7427 812.141,-89.7276"/>
<polygon fill="midnightblue" stroke="midnightblue" points="815.643,-89.9551 813.542,-79.5707 808.708,-88.9986 815.643,-89.9551"/>
</g>
<!-- Node19&#45;&gt;Node6 -->
<g id="edge64" class="edge"><title>Node19&#45;&gt;Node6</title>
<path fill="none" stroke="midnightblue" d="M150,-348.444C150,-328.062 150,-281.868 150,-243 150,-243 150,-243 150,-185 150,-127.289 220.1,-94.4642 265.09,-79.3404"/>
<polygon fill="midnightblue" stroke="midnightblue" points="266.377,-82.6031 274.825,-76.2096 264.234,-75.9392 266.377,-82.6031"/>
</g>
<!-- Node19&#45;&gt;Node9 -->
<g id="edge62" class="edge"><title>Node19&#45;&gt;Node9</title>
<path fill="none" stroke="midnightblue" d="M143.895,-348.191C133.153,-328.127 112,-283.477 112,-243 112,-243 112,-243 112,-185 112,-149.741 128.051,-111.315 139.289,-88.7323"/>
<polygon fill="midnightblue" stroke="midnightblue" points="142.418,-90.3005 143.895,-79.809 136.198,-87.0901 142.418,-90.3005"/>
</g>
<!-- Node19&#45;&gt;Node18 -->
<g id="edge66" class="edge"><title>Node19&#45;&gt;Node18</title>
<path fill="none" stroke="midnightblue" d="M132.759,-348.362C118.448,-339.532 97.885,-326.844 81.6432,-316.822"/>
<polygon fill="midnightblue" stroke="midnightblue" points="83.48,-313.843 73.1317,-311.571 79.8042,-319.8 83.48,-313.843"/>
</g>
<!-- Node19&#45;&gt;Node20 -->
<g id="edge68" class="edge"><title>Node19&#45;&gt;Node20</title>
<path fill="none" stroke="midnightblue" d="M182.2,-349.422C216.709,-339.158 271.415,-322.887 307.754,-312.078"/>
<polygon fill="midnightblue" stroke="midnightblue" points="308.897,-315.39 317.485,-309.184 306.902,-308.68 308.897,-315.39"/>
</g>
<!-- Node21 -->
<g id="node56" class="node"><title>Node21</title>
<a xlink:href="fixedArray_8h.html" target="_top" xlink:title="a header for fixedArray.c">
<polygon fill="none" stroke="black" points="309,-232.5 309,-253.5 381,-253.5 381,-232.5 309,-232.5"/>
<text text-anchor="middle" x="345" y="-240.5" font-family="FreeSans.ttf" font-size="10.00">fixedArray.h</text>
</a>
</g>
<!-- Node20&#45;&gt;Node21 -->
<g id="edge70" class="edge"><title>Node20&#45;&gt;Node21</title>
<path fill="none" stroke="midnightblue" d="M345,-290.362C345,-282.922 345,-272.743 345,-263.728"/>
<polygon fill="midnightblue" stroke="midnightblue" points="348.5,-263.571 345,-253.571 341.5,-263.571 348.5,-263.571"/>
</g>
<!-- Node21&#45;&gt;Node6 -->
<g id="edge74" class="edge"><title>Node21&#45;&gt;Node6</title>
<path fill="none" stroke="midnightblue" d="M342.375,-232.377C335.405,-204.172 316.336,-127.012 307.121,-89.7203"/>
<polygon fill="midnightblue" stroke="midnightblue" points="310.497,-88.796 304.701,-79.9277 303.702,-90.4754 310.497,-88.796"/>
</g>
<!-- Node21&#45;&gt;Node9 -->
<g id="edge72" class="edge"><title>Node21&#45;&gt;Node9</title>
<path fill="none" stroke="midnightblue" d="M333.095,-232.377C300.604,-203.385 210.146,-122.669 169.83,-86.6943"/>
<polygon fill="midnightblue" stroke="midnightblue" points="172.038,-83.9741 162.247,-79.9277 167.378,-89.1971 172.038,-83.9741"/>
</g>
<!-- Node21&#45;&gt;Node13 -->
<g id="edge88" class="edge"><title>Node21&#45;&gt;Node13</title>
<path fill="none" stroke="midnightblue" d="M381.177,-238.545C460.627,-228.761 651.258,-205.287 751.655,-192.924"/>
<polygon fill="midnightblue" stroke="midnightblue" points="752.174,-196.386 761.671,-191.69 751.318,-189.439 752.174,-196.386"/>
</g>
<!-- Node22 -->
<g id="node60" class="node"><title>Node22</title>
<a xlink:href="memoryBlock_8h.html" target="_top" xlink:title="Add Comment Here.">
<polygon fill="none" stroke="black" points="377,-174.5 377,-195.5 469,-195.5 469,-174.5 377,-174.5"/>
<text text-anchor="middle" x="423" y="-182.5" font-family="FreeSans.ttf" font-size="10.00">memoryBlock.h</text>
</a>
</g>
<!-- Node21&#45;&gt;Node22 -->
<g id="edge76" class="edge"><title>Node21&#45;&gt;Node22</title>
<path fill="none" stroke="midnightblue" d="M359.306,-232.362C370.851,-223.777 387.3,-211.546 400.59,-201.664"/>
<polygon fill="midnightblue" stroke="midnightblue" points="402.848,-204.346 408.784,-195.571 398.671,-198.729 402.848,-204.346"/>
</g>
<!-- Node22&#45;&gt;Node6 -->
<g id="edge84" class="edge"><title>Node22&#45;&gt;Node6</title>
<path fill="none" stroke="midnightblue" d="M406.358,-174.443C392.905,-165.529 373.832,-152.01 359,-138 342.536,-122.449 326.343,-102.24 315.449,-87.7172"/>
<polygon fill="midnightblue" stroke="midnightblue" points="318.146,-85.4763 309.396,-79.502 312.51,-89.6288 318.146,-85.4763"/>
</g>
<!-- Node22&#45;&gt;Node11 -->
<g id="edge80" class="edge"><title>Node22&#45;&gt;Node11</title>
<path fill="none" stroke="midnightblue" d="M441.576,-174.383C458.205,-164.872 483.246,-150.532 505,-138 521.91,-128.259 525.362,-124.351 543,-116 572.043,-102.248 606.279,-89.6102 631.571,-80.911"/>
<polygon fill="midnightblue" stroke="midnightblue" points="632.794,-84.1919 641.137,-77.6615 630.542,-77.5638 632.794,-84.1919"/>
</g>
<!-- Node23 -->
<g id="node62" class="node"><title>Node23</title>
<polygon fill="none" stroke="#bfbfbf" points="367.5,-116.5 367.5,-137.5 402.5,-137.5 402.5,-116.5 367.5,-116.5"/>
<text text-anchor="middle" x="385" y="-124.5" font-family="FreeSans.ttf" font-size="10.00">new</text>
</g>
<!-- Node22&#45;&gt;Node23 -->
<g id="edge78" class="edge"><title>Node22&#45;&gt;Node23</title>
<path fill="none" stroke="midnightblue" d="M416.03,-174.362C410.834,-166.431 403.599,-155.389 397.422,-145.961"/>
<polygon fill="midnightblue" stroke="midnightblue" points="400.334,-144.017 391.926,-137.571 394.478,-147.853 400.334,-144.017"/>
</g>
<!-- Node22&#45;&gt;Node24 -->
<g id="edge82" class="edge"><title>Node22&#45;&gt;Node24</title>
<path fill="none" stroke="midnightblue" d="M450.888,-174.497C476.363,-164.902 514.147,-150.672 541.714,-140.29"/>
<polygon fill="midnightblue" stroke="midnightblue" points="543.241,-143.454 551.366,-136.654 540.774,-136.904 543.241,-143.454"/>
</g>
<!-- Node25 -->
<g id="node68" class="node"><title>Node25</title>
<a xlink:href="atomicOps_8h.html" target="_top" xlink:title="atomicOps.h">
<polygon fill="none" stroke="black" points="419.5,-116.5 419.5,-137.5 496.5,-137.5 496.5,-116.5 419.5,-116.5"/>
<text text-anchor="middle" x="458" y="-124.5" font-family="FreeSans.ttf" font-size="10.00">atomicOps.h</text>
</a>
</g>
<!-- Node22&#45;&gt;Node25 -->
<g id="edge86" class="edge"><title>Node22&#45;&gt;Node25</title>
<path fill="none" stroke="midnightblue" d="M429.42,-174.362C434.156,-166.513 440.732,-155.616 446.382,-146.253"/>
<polygon fill="midnightblue" stroke="midnightblue" points="449.451,-147.941 451.621,-137.571 443.458,-144.324 449.451,-147.941"/>
</g>
</g>
</svg>
        <g id="navigator" transform="translate(0 0)" fill="#404254">
                <rect fill="#f2f5e9" fill-opacity="0.5" stroke="#606060" stroke-width=".5" x="0" y="0" width="60" height="60"/>
                <use id="zoomplus" xlink:href="#zoomPlus" x="17" y="9" onmousedown="handleZoom(evt,'in')"/>
                <use id="zoomminus" xlink:href="#zoomMin" x="42" y="9" onmousedown="handleZoom(evt,'out')"/>
                <use id="reset" xlink:href="#resetDef" x="30" y="36" onmousedown="handleReset()"/>
                <g id="arrowUp" xlink:href="#dirArrow" transform="translate(30 24)" onmousedown="handlePan(0,-1)">
                  <use xlink:href="#rim" fill="#404040">
                        <set attributeName="fill" to="#808080" begin="arrowUp.mouseover" end="arrowUp.mouseout"/>
                  </use>
                  <path fill="none" stroke="white" stroke-width="1.5" d="M0,-3.0v7 M-2.5,-0.5L0,-3.0L2.5,-0.5"/>
                </g>
                <g id="arrowRight" xlink:href="#dirArrow" transform="rotate(90) translate(36 -43)" onmousedown="handlePan(1,0)">
                  <use xlink:href="#rim" fill="#404040">
                        <set attributeName="fill" to="#808080" begin="arrowRight.mouseover" end="arrowRight.mouseout"/>
                  </use>
                  <path fill="none" stroke="white" stroke-width="1.5" d="M0,-3.0v7 M-2.5,-0.5L0,-3.0L2.5,-0.5"/>
                </g>
                <g id="arrowDown" xlink:href="#dirArrow" transform="rotate(180) translate(-30 -48)" onmousedown="handlePan(0,1)">
                  <use xlink:href="#rim" fill="#404040">
                        <set attributeName="fill" to="#808080" begin="arrowDown.mouseover" end="arrowDown.mouseout"/>
                  </use>
                  <path fill="none" stroke="white" stroke-width="1.5" d="M0,-3.0v7 M-2.5,-0.5L0,-3.0L2.5,-0.5"/>
                </g>
                <g id="arrowLeft" xlink:href="#dirArrow" transform="rotate(270) translate(-36 17)" onmousedown="handlePan(-1,0)">
                  <use xlink:href="#rim" fill="#404040">
                        <set attributeName="fill" to="#808080" begin="arrowLeft.mouseover" end="arrowLeft.mouseout"/>
                  </use>
                  <path fill="none" stroke="white" stroke-width="1.5" d="M0,-3.0v7 M-2.5,-0.5L0,-3.0L2.5,-0.5"/>
                </g>
        </g>
</svg>
