<?xml version="1.0" encoding="UTF-8" standalone="no"?>
<!DOCTYPE svg PUBLIC "-//W3C//DTD SVG 1.1//EN"
 "http://www.w3.org/Graphics/SVG/1.1/DTD/svg11.dtd">
<!-- Generated by graphviz version 2.26.3 (20100126.1600)
 -->
<!-- Title: G Pages: 1 -->
<!--zoomable 552 -->
<svg id="main" version="1.1" xmlns="http://www.w3.org/2000/svg" xmlns:xlink="http://www.w3.org/1999/xlink" xml:space="preserve" onload="init(evt)">
        <defs>
                <circle id="rim" cx="0" cy="0" r="7"/>
                <circle id="rim2" cx="0" cy="0" r="3.5"/>
                <g id="zoomPlus">
                        <use xlink:href="#rim" fill="#404040">
                                <set attributeName="fill" to="#808080" begin="zoomplus.mouseover" end="zoomplus.mouseout"/>
                        </use>
                        <path d="M-4,0h8M0,-4v8" fill="none" stroke="white" stroke-width="1.5" pointer-events="none"/>
                </g>
                <g id="zoomMin">
                        <use xlink:href="#rim" fill="#404040">
                                <set attributeName="fill" to="#808080" begin="zoomminus.mouseover" end="zoomminus.mouseout"/>
                        </use>
                        <path d="M-4,0h8" fill="none" stroke="white" stroke-width="1.5" pointer-events="none"/>
                </g>
                <g id="dirArrow">
                        <path fill="none" stroke="white" stroke-width="1.5" d="M0,-3.0v7 M-2.5,-0.5L0,-3.0L2.5,-0.5"/>
                </g>
               <g id="resetDef">
                       <use xlink:href="#rim2" fill="#404040">
                               <set attributeName="fill" to="#808080" begin="reset.mouseover" end="reset.mouseout"/>
                       </use>
               </g>
        </defs>

<script type="text/javascript">
var viewWidth = 498;
var viewHeight = 552;
var sectionId = 'dynsection-0';
</script>
<script xlink:href="svgpan.js"/>
<svg id="graph" class="graph">
<g id="viewport">
<title>G</title>
<!-- Node1 -->
<g id="node1" class="node"><title>Node1</title>
<polygon fill="#bfbfbf" stroke="black" points="84,-522.5 84,-543.5 250,-543.5 250,-522.5 84,-522.5"/>
<text text-anchor="middle" x="167" y="-530.5" font-family="FreeSans.ttf" font-size="10.00">core/math/matrix/matrix44.cpp</text>
</g>
<!-- Node2 -->
<g id="node3" class="node"><title>Node2</title>
<a xlink:href="matrix44_8h.html" target="_top" xlink:title="Add Comment Here.">
<polygon fill="none" stroke="black" points="133,-464.5 133,-485.5 201,-485.5 201,-464.5 133,-464.5"/>
<text text-anchor="middle" x="167" y="-472.5" font-family="FreeSans.ttf" font-size="10.00">matrix44.h</text>
</a>
</g>
<!-- Node1&#45;&gt;Node2 -->
<g id="edge2" class="edge"><title>Node1&#45;&gt;Node2</title>
<path fill="none" stroke="midnightblue" d="M167,-522.362C167,-514.922 167,-504.743 167,-495.728"/>
<polygon fill="midnightblue" stroke="midnightblue" points="170.5,-495.571 167,-485.571 163.5,-495.571 170.5,-495.571"/>
</g>
<!-- Node3 -->
<g id="node5" class="node"><title>Node3</title>
<a xlink:href="fixedVector_8h.html" target="_top" xlink:title="This file holds the description of the commonly used template &#45; a vector with the fixed number of com...">
<polygon fill="none" stroke="black" points="71,-232.5 71,-253.5 149,-253.5 149,-232.5 71,-232.5"/>
<text text-anchor="middle" x="110" y="-240.5" font-family="FreeSans.ttf" font-size="10.00">fixedVector.h</text>
</a>
</g>
<!-- Node2&#45;&gt;Node3 -->
<g id="edge4" class="edge"><title>Node2&#45;&gt;Node3</title>
<path fill="none" stroke="midnightblue" d="M164.107,-464.355C157.084,-438.393 138.704,-369.718 125,-312 121.156,-295.812 117.172,-277.395 114.277,-263.662"/>
<polygon fill="midnightblue" stroke="midnightblue" points="117.684,-262.857 112.212,-253.785 110.833,-264.29 117.684,-262.857"/>
</g>
<!-- Node17 -->
<g id="node35" class="node"><title>Node17</title>
<a xlink:href="matrix33_8h.html" target="_top" xlink:title="This file holds the header for the commonly used structure &#45; a 3 by 3 matrix.">
<polygon fill="none" stroke="black" points="190,-406.5 190,-427.5 258,-427.5 258,-406.5 190,-406.5"/>
<text text-anchor="middle" x="224" y="-414.5" font-family="FreeSans.ttf" font-size="10.00">matrix33.h</text>
</a>
</g>
<!-- Node2&#45;&gt;Node17 -->
<g id="edge36" class="edge"><title>Node2&#45;&gt;Node17</title>
<path fill="none" stroke="midnightblue" d="M177.455,-464.362C185.57,-456.104 197.001,-444.472 206.504,-434.803"/>
<polygon fill="midnightblue" stroke="midnightblue" points="209.099,-437.156 213.612,-427.571 204.106,-432.25 209.099,-437.156"/>
</g>
<!-- Node4 -->
<g id="node7" class="node"><title>Node4</title>
<polygon fill="none" stroke="#bfbfbf" points="-0.5,-58.5 -0.5,-79.5 48.5,-79.5 48.5,-58.5 -0.5,-58.5"/>
<text text-anchor="middle" x="24" y="-66.5" font-family="FreeSans.ttf" font-size="10.00">stdio.h</text>
</g>
<!-- Node3&#45;&gt;Node4 -->
<g id="edge6" class="edge"><title>Node3&#45;&gt;Node4</title>
<path fill="none" stroke="midnightblue" d="M84.874,-232.412C69.6274,-224.631 51.2005,-212.528 41,-196 20.7589,-163.203 20.1284,-116.631 21.8357,-89.95"/>
<polygon fill="midnightblue" stroke="midnightblue" points="25.3365,-90.0824 22.6602,-79.8311 18.3596,-89.5138 25.3365,-90.0824"/>
</g>
<!-- Node5 -->
<g id="node9" class="node"><title>Node5</title>
<a xlink:href="vectorOperations_8h.html" target="_top" xlink:title="This file holds the operations that are commonly used with continuous linear data structures such as ...">
<polygon fill="none" stroke="black" points="50,-174.5 50,-195.5 158,-195.5 158,-174.5 50,-174.5"/>
<text text-anchor="middle" x="104" y="-182.5" font-family="FreeSans.ttf" font-size="10.00">vectorOperations.h</text>
</a>
</g>
<!-- Node3&#45;&gt;Node5 -->
<g id="edge8" class="edge"><title>Node3&#45;&gt;Node5</title>
<path fill="none" stroke="midnightblue" d="M108.9,-232.362C108.13,-224.922 107.077,-214.743 106.144,-205.728"/>
<polygon fill="midnightblue" stroke="midnightblue" points="109.604,-205.157 105.094,-195.571 102.641,-205.878 109.604,-205.157"/>
</g>
<!-- Node5&#45;&gt;Node4 -->
<g id="edge14" class="edge"><title>Node5&#45;&gt;Node4</title>
<path fill="none" stroke="midnightblue" d="M93.5591,-174.318C84.8464,-165.115 72.3828,-151.258 63,-138 51.8701,-122.273 41.2484,-103.109 33.9085,-88.972"/>
<polygon fill="midnightblue" stroke="midnightblue" points="36.8384,-87.0123 29.1835,-79.6874 30.5998,-90.1872 36.8384,-87.0123"/>
</g>
<!-- Node6 -->
<g id="node11" class="node"><title>Node6</title>
<polygon fill="none" stroke="#bfbfbf" points="160,-116.5 160,-137.5 202,-137.5 202,-116.5 160,-116.5"/>
<text text-anchor="middle" x="181" y="-124.5" font-family="FreeSans.ttf" font-size="10.00">limits</text>
</g>
<!-- Node5&#45;&gt;Node6 -->
<g id="edge10" class="edge"><title>Node5&#45;&gt;Node6</title>
<path fill="none" stroke="midnightblue" d="M118.123,-174.362C129.52,-165.777 145.758,-153.546 158.878,-143.664"/>
<polygon fill="midnightblue" stroke="midnightblue" points="161.085,-146.383 166.967,-137.571 156.873,-140.792 161.085,-146.383"/>
</g>
<!-- Node7 -->
<g id="node13" class="node"><title>Node7</title>
<polygon fill="none" stroke="#bfbfbf" points="219.5,-116.5 219.5,-137.5 278.5,-137.5 278.5,-116.5 219.5,-116.5"/>
<text text-anchor="middle" x="249" y="-124.5" font-family="FreeSans.ttf" font-size="10.00">iostream</text>
</g>
<!-- Node5&#45;&gt;Node7 -->
<g id="edge12" class="edge"><title>Node5&#45;&gt;Node7</title>
<path fill="none" stroke="midnightblue" d="M130.258,-174.497C153.416,-165.234 187.375,-151.65 213.052,-141.379"/>
<polygon fill="midnightblue" stroke="midnightblue" points="214.462,-144.585 222.447,-137.621 211.862,-138.086 214.462,-144.585"/>
</g>
<!-- Node8 -->
<g id="node16" class="node"><title>Node8</title>
<polygon fill="none" stroke="#bfbfbf" points="295.5,-116.5 295.5,-137.5 346.5,-137.5 346.5,-116.5 295.5,-116.5"/>
<text text-anchor="middle" x="321" y="-124.5" font-family="FreeSans.ttf" font-size="10.00">math.h</text>
</g>
<!-- Node5&#45;&gt;Node8 -->
<g id="edge16" class="edge"><title>Node5&#45;&gt;Node8</title>
<path fill="none" stroke="midnightblue" d="M148.209,-174.454C183.222,-165.92 233.573,-153.247 285.685,-138.279"/>
<polygon fill="midnightblue" stroke="midnightblue" points="286.799,-141.6 295.432,-135.458 284.853,-134.876 286.799,-141.6"/>
</g>
<!-- Node9 -->
<g id="node18" class="node"><title>Node9</title>
<a xlink:href="reflection_8h.html" target="_top" xlink:title="a header for Reflection.c">
<polygon fill="none" stroke="black" points="72,-116.5 72,-137.5 142,-137.5 142,-116.5 72,-116.5"/>
<text text-anchor="middle" x="107" y="-124.5" font-family="FreeSans.ttf" font-size="10.00">reflection.h</text>
</a>
</g>
<!-- Node5&#45;&gt;Node9 -->
<g id="edge18" class="edge"><title>Node5&#45;&gt;Node9</title>
<path fill="none" stroke="midnightblue" d="M104.55,-174.362C104.935,-166.922 105.462,-156.743 105.928,-147.728"/>
<polygon fill="midnightblue" stroke="midnightblue" points="109.432,-147.738 106.453,-137.571 102.441,-147.376 109.432,-147.738"/>
</g>
<!-- Node9&#45;&gt;Node4 -->
<g id="edge26" class="edge"><title>Node9&#45;&gt;Node4</title>
<path fill="none" stroke="midnightblue" d="M91.7765,-116.362C79.3746,-107.696 61.6542,-95.3126 47.443,-85.3819"/>
<polygon fill="midnightblue" stroke="midnightblue" points="49.3288,-82.4297 39.127,-79.5707 45.3191,-88.1676 49.3288,-82.4297"/>
</g>
<!-- Node10 -->
<g id="node20" class="node"><title>Node10</title>
<polygon fill="none" stroke="#bfbfbf" points="65.5,-58.5 65.5,-79.5 112.5,-79.5 112.5,-58.5 65.5,-58.5"/>
<text text-anchor="middle" x="89" y="-66.5" font-family="FreeSans.ttf" font-size="10.00">vector</text>
</g>
<!-- Node9&#45;&gt;Node10 -->
<g id="edge20" class="edge"><title>Node9&#45;&gt;Node10</title>
<path fill="none" stroke="midnightblue" d="M103.699,-116.362C101.339,-108.758 98.0912,-98.294 95.2488,-89.1349"/>
<polygon fill="midnightblue" stroke="midnightblue" points="98.5873,-88.0839 92.2805,-79.5707 91.9019,-90.1587 98.5873,-88.0839"/>
</g>
<!-- Node11 -->
<g id="node22" class="node"><title>Node11</title>
<polygon fill="none" stroke="#bfbfbf" points="130,-58.5 130,-79.5 174,-79.5 174,-58.5 130,-58.5"/>
<text text-anchor="middle" x="152" y="-66.5" font-family="FreeSans.ttf" font-size="10.00">string</text>
</g>
<!-- Node9&#45;&gt;Node11 -->
<g id="edge22" class="edge"><title>Node9&#45;&gt;Node11</title>
<path fill="none" stroke="midnightblue" d="M115.254,-116.362C121.47,-108.35 130.151,-97.1605 137.515,-87.6696"/>
<polygon fill="midnightblue" stroke="midnightblue" points="140.434,-89.617 143.799,-79.5707 134.903,-85.326 140.434,-89.617"/>
</g>
<!-- Node12 -->
<g id="node24" class="node"><title>Node12</title>
<polygon fill="none" stroke="#bfbfbf" points="356.5,-58.5 356.5,-79.5 409.5,-79.5 409.5,-58.5 356.5,-58.5"/>
<text text-anchor="middle" x="383" y="-66.5" font-family="FreeSans.ttf" font-size="10.00">string.h</text>
</g>
<!-- Node9&#45;&gt;Node12 -->
<g id="edge24" class="edge"><title>Node9&#45;&gt;Node12</title>
<path fill="none" stroke="midnightblue" d="M142.022,-118.051C145.053,-117.335 148.077,-116.642 151,-116 234.948,-97.5697 257.157,-98.8989 341,-80 342.719,-79.6126 344.474,-79.2042 346.244,-78.7819"/>
<polygon fill="midnightblue" stroke="midnightblue" points="347.543,-82.0659 356.406,-76.2604 345.857,-75.2719 347.543,-82.0659"/>
</g>
<!-- Node13 -->
<g id="node27" class="node"><title>Node13</title>
<polygon fill="none" stroke="#bfbfbf" points="279.5,-58.5 279.5,-79.5 332.5,-79.5 332.5,-58.5 279.5,-58.5"/>
<text text-anchor="middle" x="306" y="-66.5" font-family="FreeSans.ttf" font-size="10.00">stdint.h</text>
</g>
<!-- Node9&#45;&gt;Node13 -->
<g id="edge28" class="edge"><title>Node9&#45;&gt;Node13</title>
<path fill="none" stroke="midnightblue" d="M142.119,-116.764C178.02,-106.301 233.517,-90.1256 269.804,-79.5495"/>
<polygon fill="midnightblue" stroke="midnightblue" points="270.876,-82.8828 279.497,-76.7244 268.917,-76.1625 270.876,-82.8828"/>
</g>
<!-- Node14 -->
<g id="node29" class="node"><title>Node14</title>
<polygon fill="none" stroke="#bfbfbf" points="192,-58.5 192,-79.5 248,-79.5 248,-58.5 192,-58.5"/>
<text text-anchor="middle" x="220" y="-66.5" font-family="FreeSans.ttf" font-size="10.00">stdarg.h</text>
</g>
<!-- Node9&#45;&gt;Node14 -->
<g id="edge30" class="edge"><title>Node9&#45;&gt;Node14</title>
<path fill="none" stroke="midnightblue" d="M127.463,-116.497C145.033,-107.479 170.582,-94.3649 190.385,-84.2006"/>
<polygon fill="midnightblue" stroke="midnightblue" points="192.009,-87.3014 199.307,-79.6212 188.812,-81.0738 192.009,-87.3014"/>
</g>
<!-- Node15 -->
<g id="node31" class="node"><title>Node15</title>
<a xlink:href="global_8h.html" target="_top" xlink:title="This file holds the global includes, mostly for debuging, tracing and profiling.">
<polygon fill="none" stroke="black" points="431,-58.5 431,-79.5 485,-79.5 485,-58.5 431,-58.5"/>
<text text-anchor="middle" x="458" y="-66.5" font-family="FreeSans.ttf" font-size="10.00">global.h</text>
</a>
</g>
<!-- Node9&#45;&gt;Node15 -->
<g id="edge32" class="edge"><title>Node9&#45;&gt;Node15</title>
<path fill="none" stroke="midnightblue" d="M142.466,-117.774C145.345,-117.135 148.216,-116.534 151,-116 268.597,-93.4446 300.675,-103.929 418,-80 418.895,-79.8174 419.8,-79.6259 420.711,-79.4267"/>
<polygon fill="midnightblue" stroke="midnightblue" points="421.665,-82.7973 430.575,-77.0638 420.034,-75.99 421.665,-82.7973"/>
</g>
<!-- Node16 -->
<g id="node33" class="node"><title>Node16</title>
<polygon fill="none" stroke="#bfbfbf" points="426,-0.5 426,-21.5 490,-21.5 490,-0.5 426,-0.5"/>
<text text-anchor="middle" x="458" y="-8.5" font-family="FreeSans.ttf" font-size="10.00">inttypes.h</text>
</g>
<!-- Node15&#45;&gt;Node16 -->
<g id="edge34" class="edge"><title>Node15&#45;&gt;Node16</title>
<path fill="none" stroke="midnightblue" d="M458,-58.3619C458,-50.9219 458,-40.7427 458,-31.7276"/>
<polygon fill="midnightblue" stroke="midnightblue" points="461.5,-31.5706 458,-21.5707 454.5,-31.5707 461.5,-31.5706"/>
</g>
<!-- Node17&#45;&gt;Node3 -->
<g id="edge60" class="edge"><title>Node17&#45;&gt;Node3</title>
<path fill="none" stroke="midnightblue" d="M209.365,-406.288C198.093,-397.488 182.681,-384.197 172,-370 146.33,-335.88 126.91,-289.462 117.104,-263.232"/>
<polygon fill="midnightblue" stroke="midnightblue" points="120.317,-261.825 113.608,-253.625 113.739,-264.219 120.317,-261.825"/>
</g>
<!-- Node17&#45;&gt;Node6 -->
<g id="edge40" class="edge"><title>Node17&#45;&gt;Node6</title>
<path fill="none" stroke="midnightblue" d="M217.895,-406.191C207.153,-386.127 186,-341.477 186,-301 186,-301 186,-301 186,-243 186,-209.567 183.901,-170.763 182.423,-147.582"/>
<polygon fill="midnightblue" stroke="midnightblue" points="185.912,-147.297 181.759,-137.55 178.927,-147.759 185.912,-147.297"/>
</g>
<!-- Node17&#45;&gt;Node7 -->
<g id="edge38" class="edge"><title>Node17&#45;&gt;Node7</title>
<path fill="none" stroke="midnightblue" d="M224,-406.444C224,-386.062 224,-339.868 224,-301 224,-301 224,-301 224,-243 224,-208.853 234.48,-170.296 241.869,-147.354"/>
<polygon fill="midnightblue" stroke="midnightblue" points="245.243,-148.302 245.094,-137.709 238.604,-146.083 245.243,-148.302"/>
</g>
<!-- Node17&#45;&gt;Node8 -->
<g id="edge42" class="edge"><title>Node17&#45;&gt;Node8</title>
<path fill="none" stroke="midnightblue" d="M230.105,-406.191C240.847,-386.127 262,-341.477 262,-301 262,-301 262,-301 262,-243 262,-205.102 287.329,-167.067 304.795,-145.345"/>
<polygon fill="midnightblue" stroke="midnightblue" points="307.541,-147.517 311.257,-137.595 302.165,-143.034 307.541,-147.517"/>
</g>
<!-- Node17&#45;&gt;Node12 -->
<g id="edge44" class="edge"><title>Node17&#45;&gt;Node12</title>
<path fill="none" stroke="midnightblue" d="M258.381,-412.84C315.564,-403.794 424,-376.664 424,-301 424,-301 424,-301 424,-185 424,-149.462 406.682,-111.12 394.556,-88.6296"/>
<polygon fill="midnightblue" stroke="midnightblue" points="397.524,-86.7655 389.587,-79.747 391.415,-90.183 397.524,-86.7655"/>
</g>
<!-- Node18 -->
<g id="node41" class="node"><title>Node18</title>
<a xlink:href="vector3d_8h.html" target="_top" xlink:title="A 3 component vector.">
<polygon fill="none" stroke="black" points="290,-348.5 290,-369.5 358,-369.5 358,-348.5 290,-348.5"/>
<text text-anchor="middle" x="324" y="-356.5" font-family="FreeSans.ttf" font-size="10.00">vector3d.h</text>
</a>
</g>
<!-- Node17&#45;&gt;Node18 -->
<g id="edge46" class="edge"><title>Node17&#45;&gt;Node18</title>
<path fill="none" stroke="midnightblue" d="M242.342,-406.362C257.566,-397.532 279.441,-384.844 296.72,-374.822"/>
<polygon fill="midnightblue" stroke="midnightblue" points="298.88,-377.615 305.775,-369.571 295.368,-371.56 298.88,-377.615"/>
</g>
<!-- Node18&#45;&gt;Node8 -->
<g id="edge48" class="edge"><title>Node18&#45;&gt;Node8</title>
<path fill="none" stroke="midnightblue" d="M322.522,-348.199C321.299,-338.689 319.661,-324.455 319,-312 315.851,-252.636 318.301,-182.413 319.9,-148.061"/>
<polygon fill="midnightblue" stroke="midnightblue" points="323.406,-148.013 320.4,-137.853 316.414,-147.67 323.406,-148.013"/>
</g>
<!-- Node19 -->
<g id="node44" class="node"><title>Node19</title>
<a xlink:href="vector2d_8h.html" target="_top" xlink:title="Add Comment Here.">
<polygon fill="none" stroke="black" points="328,-290.5 328,-311.5 396,-311.5 396,-290.5 328,-290.5"/>
<text text-anchor="middle" x="362" y="-298.5" font-family="FreeSans.ttf" font-size="10.00">vector2d.h</text>
</a>
</g>
<!-- Node18&#45;&gt;Node19 -->
<g id="edge50" class="edge"><title>Node18&#45;&gt;Node19</title>
<path fill="none" stroke="midnightblue" d="M330.97,-348.362C336.166,-340.431 343.401,-329.389 349.578,-319.961"/>
<polygon fill="midnightblue" stroke="midnightblue" points="352.522,-321.853 355.074,-311.571 346.666,-318.017 352.522,-321.853"/>
</g>
<!-- Node19&#45;&gt;Node3 -->
<g id="edge58" class="edge"><title>Node19&#45;&gt;Node3</title>
<path fill="none" stroke="midnightblue" d="M327.752,-293.118C284.191,-283.092 208.673,-265.71 159.018,-254.282"/>
<polygon fill="midnightblue" stroke="midnightblue" points="159.673,-250.841 149.143,-252.009 158.103,-257.663 159.673,-250.841"/>
</g>
<!-- Node19&#45;&gt;Node8 -->
<g id="edge52" class="edge"><title>Node19&#45;&gt;Node8</title>
<path fill="none" stroke="midnightblue" d="M359.497,-290.377C352.851,-262.172 334.67,-185.012 325.882,-147.72"/>
<polygon fill="midnightblue" stroke="midnightblue" points="329.275,-146.858 323.575,-137.928 322.462,-148.464 329.275,-146.858"/>
</g>
<!-- Node19&#45;&gt;Node13 -->
<g id="edge54" class="edge"><title>Node19&#45;&gt;Node13</title>
<path fill="none" stroke="midnightblue" d="M364.314,-290.327C370.146,-260.883 383.067,-176.677 355,-116 349.565,-104.25 339.775,-93.9313 330.366,-85.9784"/>
<polygon fill="midnightblue" stroke="midnightblue" points="332.333,-83.072 322.316,-79.6221 327.996,-88.566 332.333,-83.072"/>
</g>
<!-- Node19&#45;&gt;Node15 -->
<g id="edge56" class="edge"><title>Node19&#45;&gt;Node15</title>
<path fill="none" stroke="midnightblue" d="M367.38,-290.212C372.094,-280.711 379.096,-266.482 385,-254 409.237,-202.761 418.279,-191.141 438,-138 443.889,-122.13 449.155,-103.694 452.804,-89.8731"/>
<polygon fill="midnightblue" stroke="midnightblue" points="456.264,-90.472 455.364,-79.9155 449.484,-88.7289 456.264,-90.472"/>
</g>
</g>
</svg>
        <g id="navigator" transform="translate(0 0)" fill="#404254">
                <rect fill="#f2f5e9" fill-opacity="0.5" stroke="#606060" stroke-width=".5" x="0" y="0" width="60" height="60"/>
                <use id="zoomplus" xlink:href="#zoomPlus" x="17" y="9" onmousedown="handleZoom(evt,'in')"/>
                <use id="zoomminus" xlink:href="#zoomMin" x="42" y="9" onmousedown="handleZoom(evt,'out')"/>
                <use id="reset" xlink:href="#resetDef" x="30" y="36" onmousedown="handleReset()"/>
                <g id="arrowUp" xlink:href="#dirArrow" transform="translate(30 24)" onmousedown="handlePan(0,-1)">
                  <use xlink:href="#rim" fill="#404040">
                        <set attributeName="fill" to="#808080" begin="arrowUp.mouseover" end="arrowUp.mouseout"/>
                  </use>
                  <path fill="none" stroke="white" stroke-width="1.5" d="M0,-3.0v7 M-2.5,-0.5L0,-3.0L2.5,-0.5"/>
                </g>
                <g id="arrowRight" xlink:href="#dirArrow" transform="rotate(90) translate(36 -43)" onmousedown="handlePan(1,0)">
                  <use xlink:href="#rim" fill="#404040">
                        <set attributeName="fill" to="#808080" begin="arrowRight.mouseover" end="arrowRight.mouseout"/>
                  </use>
                  <path fill="none" stroke="white" stroke-width="1.5" d="M0,-3.0v7 M-2.5,-0.5L0,-3.0L2.5,-0.5"/>
                </g>
                <g id="arrowDown" xlink:href="#dirArrow" transform="rotate(180) translate(-30 -48)" onmousedown="handlePan(0,1)">
                  <use xlink:href="#rim" fill="#404040">
                        <set attributeName="fill" to="#808080" begin="arrowDown.mouseover" end="arrowDown.mouseout"/>
                  </use>
                  <path fill="none" stroke="white" stroke-width="1.5" d="M0,-3.0v7 M-2.5,-0.5L0,-3.0L2.5,-0.5"/>
                </g>
                <g id="arrowLeft" xlink:href="#dirArrow" transform="rotate(270) translate(-36 17)" onmousedown="handlePan(-1,0)">
                  <use xlink:href="#rim" fill="#404040">
                        <set attributeName="fill" to="#808080" begin="arrowLeft.mouseover" end="arrowLeft.mouseout"/>
                  </use>
                  <path fill="none" stroke="white" stroke-width="1.5" d="M0,-3.0v7 M-2.5,-0.5L0,-3.0L2.5,-0.5"/>
                </g>
        </g>
</svg>
