<?xml version="1.0" encoding="UTF-8" standalone="no"?>
<!DOCTYPE svg PUBLIC "-//W3C//DTD SVG 1.1//EN"
 "http://www.w3.org/Graphics/SVG/1.1/DTD/svg11.dtd">
<!-- Generated by graphviz version 2.26.3 (20100126.1600)
 -->
<!-- Title: G Pages: 1 -->
<svg width="202pt" height="146pt"
 viewBox="0.00 0.00 202.00 146.00" xmlns="http://www.w3.org/2000/svg" xmlns:xlink="http://www.w3.org/1999/xlink">
<g id="graph1" class="graph" transform="scale(1 1) rotate(0) translate(4 142)">
<title>G</title>
<!-- Node1 -->
<g id="node1" class="node"><title>Node1</title>
<polygon fill="#bfbfbf" stroke="black" points="-0.5,-116.5 -0.5,-137.5 194.5,-137.5 194.5,-116.5 -0.5,-116.5"/>
<text text-anchor="middle" x="97" y="-124.5" font-family="FreeSans.ttf" font-size="10.00">core/math/matrix/matrixOperations.h</text>
</g>
<!-- Node2 -->
<g id="node3" class="node"><title>Node2</title>
<a xlink:href="global_8h.html" target="_top" xlink:title="This file holds the global includes, mostly for debuging, tracing and profiling.">
<polygon fill="none" stroke="black" points="70,-58.5 70,-79.5 124,-79.5 124,-58.5 70,-58.5"/>
<text text-anchor="middle" x="97" y="-66.5" font-family="FreeSans.ttf" font-size="10.00">global.h</text>
</a>
</g>
<!-- Node1&#45;&gt;Node2 -->
<g id="edge2" class="edge"><title>Node1&#45;&gt;Node2</title>
<path fill="none" stroke="midnightblue" d="M97,-116.362C97,-108.922 97,-98.7427 97,-89.7276"/>
<polygon fill="midnightblue" stroke="midnightblue" points="100.5,-89.5706 97,-79.5707 93.5001,-89.5707 100.5,-89.5706"/>
</g>
<!-- Node3 -->
<g id="node5" class="node"><title>Node3</title>
<polygon fill="none" stroke="#bfbfbf" points="65,-0.5 65,-21.5 129,-21.5 129,-0.5 65,-0.5"/>
<text text-anchor="middle" x="97" y="-8.5" font-family="FreeSans.ttf" font-size="10.00">inttypes.h</text>
</g>
<!-- Node2&#45;&gt;Node3 -->
<g id="edge4" class="edge"><title>Node2&#45;&gt;Node3</title>
<path fill="none" stroke="midnightblue" d="M97,-58.3619C97,-50.9219 97,-40.7427 97,-31.7276"/>
<polygon fill="midnightblue" stroke="midnightblue" points="100.5,-31.5706 97,-21.5707 93.5001,-31.5707 100.5,-31.5706"/>
</g>
</g>
</svg>
