<?xml version="1.0" encoding="UTF-8" standalone="no"?>
<!DOCTYPE svg PUBLIC "-//W3C//DTD SVG 1.1//EN"
 "http://www.w3.org/Graphics/SVG/1.1/DTD/svg11.dtd">
<!-- Generated by graphviz version 2.26.3 (20100126.1600)
 -->
<!-- Title: G Pages: 1 -->
<svg width="424pt" height="146pt"
 viewBox="0.00 0.00 424.00 146.00" xmlns="http://www.w3.org/2000/svg" xmlns:xlink="http://www.w3.org/1999/xlink">
<g id="graph1" class="graph" transform="scale(1 1) rotate(0) translate(4 142)">
<title>G</title>
<!-- Node1 -->
<g id="node1" class="node"><title>Node1</title>
<polygon fill="#bfbfbf" stroke="black" points="118.5,-116.5 118.5,-137.5 303.5,-137.5 303.5,-116.5 118.5,-116.5"/>
<text text-anchor="middle" x="211" y="-124.5" font-family="FreeSans.ttf" font-size="10.00">core/meanshift/meanShiftWindow.h</text>
</g>
<!-- Node2 -->
<g id="node3" class="node"><title>Node2</title>
<a xlink:href="meanShiftCalculator_8h.html" target="_top" xlink:title="Add Comment Here.">
<polygon fill="none" stroke="black" points="5.5,-58.5 5.5,-79.5 202.5,-79.5 202.5,-58.5 5.5,-58.5"/>
<text text-anchor="middle" x="104" y="-66.5" font-family="FreeSans.ttf" font-size="10.00">core/meanshift/meanShiftCalculator.h</text>
</a>
</g>
<!-- Node1&#45;&gt;Node2 -->
<g id="edge2" class="edge"><title>Node1&#45;&gt;Node2</title>
<path fill="none" stroke="midnightblue" d="M182.437,-111.517C163.807,-101.419 139.98,-88.5032 123.501,-79.5707"/>
<polygon fill="midnightblue" stroke="midnightblue" points="180.915,-114.673 191.375,-116.362 184.251,-108.519 180.915,-114.673"/>
</g>
<!-- Node4 -->
<g id="node7" class="node"><title>Node4</title>
<a xlink:href="meanShiftWindow_8cpp.html" target="_top" xlink:title="Add Comment Here.">
<polygon fill="none" stroke="black" points="220,-58.5 220,-79.5 416,-79.5 416,-58.5 220,-58.5"/>
<text text-anchor="middle" x="318" y="-66.5" font-family="FreeSans.ttf" font-size="10.00">core/meanshift/meanShiftWindow.cpp</text>
</a>
</g>
<!-- Node1&#45;&gt;Node4 -->
<g id="edge6" class="edge"><title>Node1&#45;&gt;Node4</title>
<path fill="none" stroke="midnightblue" d="M239.563,-111.517C258.193,-101.419 282.02,-88.5032 298.499,-79.5707"/>
<polygon fill="midnightblue" stroke="midnightblue" points="237.749,-108.519 230.625,-116.362 241.085,-114.673 237.749,-108.519"/>
</g>
<!-- Node3 -->
<g id="node5" class="node"><title>Node3</title>
<a xlink:href="meanShiftCalculator_8cpp.html" target="_top" xlink:title="Add Comment Here.">
<polygon fill="none" stroke="black" points="-0.5,-0.5 -0.5,-21.5 208.5,-21.5 208.5,-0.5 -0.5,-0.5"/>
<text text-anchor="middle" x="104" y="-8.5" font-family="FreeSans.ttf" font-size="10.00">core/meanshift/meanShiftCalculator.cpp</text>
</a>
</g>
<!-- Node2&#45;&gt;Node3 -->
<g id="edge4" class="edge"><title>Node2&#45;&gt;Node3</title>
<path fill="none" stroke="midnightblue" d="M104,-48.1906C104,-39.1684 104,-28.9941 104,-21.5707"/>
<polygon fill="midnightblue" stroke="midnightblue" points="100.5,-48.3619 104,-58.3619 107.5,-48.3619 100.5,-48.3619"/>
</g>
</g>
</svg>
