<?xml version="1.0" encoding="UTF-8" standalone="no"?>
<!DOCTYPE svg PUBLIC "-//W3C//DTD SVG 1.1//EN"
 "http://www.w3.org/Graphics/SVG/1.1/DTD/svg11.dtd">
<!-- Generated by graphviz version 2.26.3 (20100126.1600)
 -->
<!-- Title: G Pages: 1 -->
<svg width="201pt" height="146pt"
 viewBox="0.00 0.00 201.00 146.00" xmlns="http://www.w3.org/2000/svg" xmlns:xlink="http://www.w3.org/1999/xlink">
<g id="graph1" class="graph" transform="scale(1 1) rotate(0) translate(4 142)">
<title>G</title>
<!-- Node1 -->
<g id="node1" class="node"><title>Node1</title>
<polygon fill="#bfbfbf" stroke="black" points="28.5,-116.5 28.5,-137.5 153.5,-137.5 153.5,-116.5 28.5,-116.5"/>
<text text-anchor="middle" x="91" y="-124.5" font-family="FreeSans.ttf" font-size="10.00">core/utils/memhooks.c</text>
</g>
<!-- Node2 -->
<g id="node3" class="node"><title>Node2</title>
<polygon fill="none" stroke="#bfbfbf" points="-0.5,-58.5 -0.5,-79.5 48.5,-79.5 48.5,-58.5 -0.5,-58.5"/>
<text text-anchor="middle" x="24" y="-66.5" font-family="FreeSans.ttf" font-size="10.00">stdio.h</text>
</g>
<!-- Node1&#45;&gt;Node2 -->
<g id="edge2" class="edge"><title>Node1&#45;&gt;Node2</title>
<path fill="none" stroke="midnightblue" d="M78.7112,-116.362C68.9833,-107.941 55.2018,-96.0105 43.9045,-86.2308"/>
<polygon fill="midnightblue" stroke="midnightblue" points="46.0623,-83.4695 36.2109,-79.5707 41.4808,-88.7619 46.0623,-83.4695"/>
</g>
<!-- Node3 -->
<g id="node5" class="node"><title>Node3</title>
<polygon fill="none" stroke="#bfbfbf" points="65.5,-58.5 65.5,-79.5 116.5,-79.5 116.5,-58.5 65.5,-58.5"/>
<text text-anchor="middle" x="91" y="-66.5" font-family="FreeSans.ttf" font-size="10.00">stdlib.h</text>
</g>
<!-- Node1&#45;&gt;Node3 -->
<g id="edge4" class="edge"><title>Node1&#45;&gt;Node3</title>
<path fill="none" stroke="midnightblue" d="M91,-116.362C91,-108.922 91,-98.7427 91,-89.7276"/>
<polygon fill="midnightblue" stroke="midnightblue" points="94.5001,-89.5706 91,-79.5707 87.5001,-89.5707 94.5001,-89.5706"/>
</g>
<!-- Node4 -->
<g id="node7" class="node"><title>Node4</title>
<a xlink:href="global_8h.html" target="_top" xlink:title="This file holds the global includes, mostly for debuging, tracing and profiling.">
<polygon fill="none" stroke="black" points="134,-58.5 134,-79.5 188,-79.5 188,-58.5 134,-58.5"/>
<text text-anchor="middle" x="161" y="-66.5" font-family="FreeSans.ttf" font-size="10.00">global.h</text>
</a>
</g>
<!-- Node1&#45;&gt;Node4 -->
<g id="edge6" class="edge"><title>Node1&#45;&gt;Node4</title>
<path fill="none" stroke="midnightblue" d="M103.839,-116.362C114.002,-107.941 128.401,-96.0105 140.204,-86.2308"/>
<polygon fill="midnightblue" stroke="midnightblue" points="142.775,-88.6459 148.242,-79.5707 138.309,-83.2558 142.775,-88.6459"/>
</g>
<!-- Node5 -->
<g id="node9" class="node"><title>Node5</title>
<polygon fill="none" stroke="#bfbfbf" points="129,-0.5 129,-21.5 193,-21.5 193,-0.5 129,-0.5"/>
<text text-anchor="middle" x="161" y="-8.5" font-family="FreeSans.ttf" font-size="10.00">inttypes.h</text>
</g>
<!-- Node4&#45;&gt;Node5 -->
<g id="edge8" class="edge"><title>Node4&#45;&gt;Node5</title>
<path fill="none" stroke="midnightblue" d="M161,-58.3619C161,-50.9219 161,-40.7427 161,-31.7276"/>
<polygon fill="midnightblue" stroke="midnightblue" points="164.5,-31.5706 161,-21.5707 157.5,-31.5707 164.5,-31.5706"/>
</g>
</g>
</svg>
