<?xml version="1.0" encoding="UTF-8" standalone="no"?>
<!DOCTYPE svg PUBLIC "-//W3C//DTD SVG 1.1//EN"
 "http://www.w3.org/Graphics/SVG/1.1/DTD/svg11.dtd">
<!-- Generated by graphviz version 2.26.3 (20100126.1600)
 -->
<!-- Title: G Pages: 1 -->
<!--zoomable 494 -->
<svg id="main" version="1.1" xmlns="http://www.w3.org/2000/svg" xmlns:xlink="http://www.w3.org/1999/xlink" xml:space="preserve" onload="init(evt)">
        <defs>
                <circle id="rim" cx="0" cy="0" r="7"/>
                <circle id="rim2" cx="0" cy="0" r="3.5"/>
                <g id="zoomPlus">
                        <use xlink:href="#rim" fill="#404040">
                                <set attributeName="fill" to="#808080" begin="zoomplus.mouseover" end="zoomplus.mouseout"/>
                        </use>
                        <path d="M-4,0h8M0,-4v8" fill="none" stroke="white" stroke-width="1.5" pointer-events="none"/>
                </g>
                <g id="zoomMin">
                        <use xlink:href="#rim" fill="#404040">
                                <set attributeName="fill" to="#808080" begin="zoomminus.mouseover" end="zoomminus.mouseout"/>
                        </use>
                        <path d="M-4,0h8" fill="none" stroke="white" stroke-width="1.5" pointer-events="none"/>
                </g>
                <g id="dirArrow">
                        <path fill="none" stroke="white" stroke-width="1.5" d="M0,-3.0v7 M-2.5,-0.5L0,-3.0L2.5,-0.5"/>
                </g>
               <g id="resetDef">
                       <use xlink:href="#rim2" fill="#404040">
                               <set attributeName="fill" to="#808080" begin="reset.mouseover" end="reset.mouseout"/>
                       </use>
               </g>
        </defs>

<script type="text/javascript">
var viewWidth = 707;
var viewHeight = 494;
var sectionId = 'dynsection-0';
</script>
<script xlink:href="svgpan.js"/>
<svg id="graph" class="graph">
<g id="viewport">
<title>G</title>
<!-- Node1 -->
<g id="node1" class="node"><title>Node1</title>
<polygon fill="#bfbfbf" stroke="black" points="30.5,-464.5 30.5,-485.5 179.5,-485.5 179.5,-464.5 30.5,-464.5"/>
<text text-anchor="middle" x="105" y="-472.5" font-family="FreeSans.ttf" font-size="10.00">core/geometry/mesh3d.cpp</text>
</g>
<!-- Node2 -->
<g id="node3" class="node"><title>Node2</title>
<a xlink:href="mathUtils_8h.html" target="_top" xlink:title="Add Comment Here.">
<polygon fill="none" stroke="black" points="8,-174.5 8,-195.5 80,-195.5 80,-174.5 8,-174.5"/>
<text text-anchor="middle" x="44" y="-182.5" font-family="FreeSans.ttf" font-size="10.00">mathUtils.h</text>
</a>
</g>
<!-- Node1&#45;&gt;Node2 -->
<g id="edge2" class="edge"><title>Node1&#45;&gt;Node2</title>
<path fill="none" stroke="midnightblue" d="M97.4486,-464.389C84.1628,-444.648 58,-400.503 58,-359 58,-359 58,-359 58,-301 58,-267.355 52.1234,-228.615 47.9849,-205.504"/>
<polygon fill="midnightblue" stroke="midnightblue" points="51.3949,-204.697 46.1263,-195.505 44.5128,-205.976 51.3949,-204.697"/>
</g>
<!-- Node7 -->
<g id="node13" class="node"><title>Node7</title>
<a xlink:href="mesh3d_8h.html" target="_top" xlink:title="mesh3d.h">
<polygon fill="none" stroke="black" points="119.5,-406.5 119.5,-427.5 184.5,-427.5 184.5,-406.5 119.5,-406.5"/>
<text text-anchor="middle" x="152" y="-414.5" font-family="FreeSans.ttf" font-size="10.00">mesh3d.h</text>
</a>
</g>
<!-- Node1&#45;&gt;Node7 -->
<g id="edge12" class="edge"><title>Node1&#45;&gt;Node7</title>
<path fill="none" stroke="midnightblue" d="M113.621,-464.362C120.18,-456.268 129.366,-444.932 137.106,-435.38"/>
<polygon fill="midnightblue" stroke="midnightblue" points="139.858,-437.544 143.434,-427.571 134.419,-433.136 139.858,-437.544"/>
</g>
<!-- Node3 -->
<g id="node5" class="node"><title>Node3</title>
<polygon fill="none" stroke="#bfbfbf" points="105.5,-116.5 105.5,-137.5 156.5,-137.5 156.5,-116.5 105.5,-116.5"/>
<text text-anchor="middle" x="131" y="-124.5" font-family="FreeSans.ttf" font-size="10.00">math.h</text>
</g>
<!-- Node2&#45;&gt;Node3 -->
<g id="edge4" class="edge"><title>Node2&#45;&gt;Node3</title>
<path fill="none" stroke="midnightblue" d="M59.9571,-174.362C72.9567,-165.696 91.5312,-153.313 106.427,-143.382"/>
<polygon fill="midnightblue" stroke="midnightblue" points="108.765,-146.03 115.144,-137.571 104.882,-140.206 108.765,-146.03"/>
</g>
<!-- Node4 -->
<g id="node7" class="node"><title>Node4</title>
<a xlink:href="global_8h.html" target="_top" xlink:title="This file holds the global includes, mostly for debuging, tracing and profiling.">
<polygon fill="none" stroke="black" points="173,-58.5 173,-79.5 227,-79.5 227,-58.5 173,-58.5"/>
<text text-anchor="middle" x="200" y="-66.5" font-family="FreeSans.ttf" font-size="10.00">global.h</text>
</a>
</g>
<!-- Node2&#45;&gt;Node4 -->
<g id="edge6" class="edge"><title>Node2&#45;&gt;Node4</title>
<path fill="none" stroke="midnightblue" d="M49.9021,-174.348C58.554,-159.558 75.9578,-132.738 97,-116 116.654,-100.367 142.346,-88.6312 163.153,-80.7967"/>
<polygon fill="midnightblue" stroke="midnightblue" points="164.416,-84.0619 172.628,-77.3679 162.034,-77.4797 164.416,-84.0619"/>
</g>
<!-- Node6 -->
<g id="node11" class="node"><title>Node6</title>
<polygon fill="none" stroke="#bfbfbf" points="-0.5,-116.5 -0.5,-137.5 50.5,-137.5 50.5,-116.5 -0.5,-116.5"/>
<text text-anchor="middle" x="25" y="-124.5" font-family="FreeSans.ttf" font-size="10.00">stdlib.h</text>
</g>
<!-- Node2&#45;&gt;Node6 -->
<g id="edge10" class="edge"><title>Node2&#45;&gt;Node6</title>
<path fill="none" stroke="midnightblue" d="M40.5151,-174.362C38.0243,-166.758 34.5963,-156.294 31.5959,-147.135"/>
<polygon fill="midnightblue" stroke="midnightblue" points="34.902,-145.984 28.4628,-137.571 28.2499,-148.163 34.902,-145.984"/>
</g>
<!-- Node5 -->
<g id="node9" class="node"><title>Node5</title>
<polygon fill="none" stroke="#bfbfbf" points="168,-0.5 168,-21.5 232,-21.5 232,-0.5 168,-0.5"/>
<text text-anchor="middle" x="200" y="-8.5" font-family="FreeSans.ttf" font-size="10.00">inttypes.h</text>
</g>
<!-- Node4&#45;&gt;Node5 -->
<g id="edge8" class="edge"><title>Node4&#45;&gt;Node5</title>
<path fill="none" stroke="midnightblue" d="M200,-58.3619C200,-50.9219 200,-40.7427 200,-31.7276"/>
<polygon fill="midnightblue" stroke="midnightblue" points="203.5,-31.5706 200,-21.5707 196.5,-31.5707 203.5,-31.5706"/>
</g>
<!-- Node8 -->
<g id="node15" class="node"><title>Node8</title>
<a xlink:href="axisAlignedBoxParameters_8h.html" target="_top" xlink:title="generated/axisAlignedBoxParameters.h">
<polygon fill="none" stroke="black" points="410,-232.5 410,-253.5 616,-253.5 616,-232.5 410,-232.5"/>
<text text-anchor="middle" x="513" y="-240.5" font-family="FreeSans.ttf" font-size="10.00">generated/axisAlignedBoxParameters.h</text>
</a>
</g>
<!-- Node7&#45;&gt;Node8 -->
<g id="edge14" class="edge"><title>Node7&#45;&gt;Node8</title>
<path fill="none" stroke="midnightblue" d="M174.039,-406.377C235.592,-376.709 409.517,-292.878 481.354,-258.253"/>
<polygon fill="midnightblue" stroke="midnightblue" points="483.302,-261.199 490.791,-253.705 480.263,-254.894 483.302,-261.199"/>
</g>
<!-- Node19 -->
<g id="node42" class="node"><title>Node19</title>
<a xlink:href="vector3d_8h.html" target="_top" xlink:title="A 3 component vector.">
<polygon fill="none" stroke="black" points="118,-348.5 118,-369.5 186,-369.5 186,-348.5 118,-348.5"/>
<text text-anchor="middle" x="152" y="-356.5" font-family="FreeSans.ttf" font-size="10.00">vector3d.h</text>
</a>
</g>
<!-- Node7&#45;&gt;Node19 -->
<g id="edge46" class="edge"><title>Node7&#45;&gt;Node19</title>
<path fill="none" stroke="midnightblue" d="M152,-406.362C152,-398.922 152,-388.743 152,-379.728"/>
<polygon fill="midnightblue" stroke="midnightblue" points="155.5,-379.571 152,-369.571 148.5,-379.571 155.5,-379.571"/>
</g>
<!-- Node9 -->
<g id="node17" class="node"><title>Node9</title>
<a xlink:href="reflection_8h.html" target="_top" xlink:title="a header for Reflection.c">
<polygon fill="none" stroke="black" points="528,-116.5 528,-137.5 598,-137.5 598,-116.5 528,-116.5"/>
<text text-anchor="middle" x="563" y="-124.5" font-family="FreeSans.ttf" font-size="10.00">reflection.h</text>
</a>
</g>
<!-- Node8&#45;&gt;Node9 -->
<g id="edge16" class="edge"><title>Node8&#45;&gt;Node9</title>
<path fill="none" stroke="midnightblue" d="M562.602,-232.481C582.417,-225.585 603.277,-214.309 615,-196 626.994,-177.267 607.645,-157.085 589.24,-143.417"/>
<polygon fill="midnightblue" stroke="midnightblue" points="591.165,-140.493 580.966,-137.625 587.15,-146.227 591.165,-140.493"/>
</g>
<!-- Node16 -->
<g id="node32" class="node"><title>Node16</title>
<a xlink:href="defaultSetter_8h.html" target="_top" xlink:title="defaultSetter.h">
<polygon fill="none" stroke="black" points="414,-174.5 414,-195.5 502,-195.5 502,-174.5 414,-174.5"/>
<text text-anchor="middle" x="458" y="-182.5" font-family="FreeSans.ttf" font-size="10.00">defaultSetter.h</text>
</a>
</g>
<!-- Node8&#45;&gt;Node16 -->
<g id="edge32" class="edge"><title>Node8&#45;&gt;Node16</title>
<path fill="none" stroke="midnightblue" d="M502.912,-232.362C495.159,-224.186 484.27,-212.702 475.155,-203.091"/>
<polygon fill="midnightblue" stroke="midnightblue" points="477.445,-200.419 468.024,-195.571 472.365,-205.235 477.445,-200.419"/>
</g>
<!-- Node18 -->
<g id="node38" class="node"><title>Node18</title>
<a xlink:href="printerVisitor_8h.html" target="_top" xlink:title="printerVisitor.h">
<polygon fill="none" stroke="black" points="520,-174.5 520,-195.5 606,-195.5 606,-174.5 520,-174.5"/>
<text text-anchor="middle" x="563" y="-182.5" font-family="FreeSans.ttf" font-size="10.00">printerVisitor.h</text>
</a>
</g>
<!-- Node8&#45;&gt;Node18 -->
<g id="edge40" class="edge"><title>Node8&#45;&gt;Node18</title>
<path fill="none" stroke="midnightblue" d="M522.171,-232.362C529.148,-224.268 538.921,-212.932 547.156,-203.38"/>
<polygon fill="midnightblue" stroke="midnightblue" points="550.009,-205.43 553.887,-195.571 544.707,-200.859 550.009,-205.43"/>
</g>
<!-- Node9&#45;&gt;Node4 -->
<g id="edge30" class="edge"><title>Node9&#45;&gt;Node4</title>
<path fill="none" stroke="midnightblue" d="M527.534,-117.774C524.655,-117.135 521.784,-116.534 519,-116 401.403,-93.4446 369.989,-100.405 252,-80 247.195,-79.1691 242.158,-78.2125 237.19,-77.2175"/>
<polygon fill="midnightblue" stroke="midnightblue" points="237.685,-73.746 227.184,-75.1492 236.268,-80.6011 237.685,-73.746"/>
</g>
<!-- Node10 -->
<g id="node19" class="node"><title>Node10</title>
<polygon fill="none" stroke="#bfbfbf" points="520.5,-58.5 520.5,-79.5 567.5,-79.5 567.5,-58.5 520.5,-58.5"/>
<text text-anchor="middle" x="544" y="-66.5" font-family="FreeSans.ttf" font-size="10.00">vector</text>
</g>
<!-- Node9&#45;&gt;Node10 -->
<g id="edge18" class="edge"><title>Node9&#45;&gt;Node10</title>
<path fill="none" stroke="midnightblue" d="M559.515,-116.362C557.024,-108.758 553.596,-98.294 550.596,-89.1349"/>
<polygon fill="midnightblue" stroke="midnightblue" points="553.902,-87.9841 547.463,-79.5707 547.25,-90.1634 553.902,-87.9841"/>
</g>
<!-- Node11 -->
<g id="node21" class="node"><title>Node11</title>
<polygon fill="none" stroke="#bfbfbf" points="585,-58.5 585,-79.5 629,-79.5 629,-58.5 585,-58.5"/>
<text text-anchor="middle" x="607" y="-66.5" font-family="FreeSans.ttf" font-size="10.00">string</text>
</g>
<!-- Node9&#45;&gt;Node11 -->
<g id="edge20" class="edge"><title>Node9&#45;&gt;Node11</title>
<path fill="none" stroke="midnightblue" d="M571.07,-116.362C577.149,-108.35 585.637,-97.1605 592.837,-87.6696"/>
<polygon fill="midnightblue" stroke="midnightblue" points="595.725,-89.653 598.981,-79.5707 590.149,-85.4222 595.725,-89.653"/>
</g>
<!-- Node12 -->
<g id="node23" class="node"><title>Node12</title>
<polygon fill="none" stroke="#bfbfbf" points="646.5,-58.5 646.5,-79.5 699.5,-79.5 699.5,-58.5 646.5,-58.5"/>
<text text-anchor="middle" x="673" y="-66.5" font-family="FreeSans.ttf" font-size="10.00">string.h</text>
</g>
<!-- Node9&#45;&gt;Node12 -->
<g id="edge22" class="edge"><title>Node9&#45;&gt;Node12</title>
<path fill="none" stroke="midnightblue" d="M582.92,-116.497C599.946,-107.519 624.669,-94.4835 643.909,-84.3387"/>
<polygon fill="midnightblue" stroke="midnightblue" points="645.643,-87.3814 652.856,-79.6212 642.378,-81.1894 645.643,-87.3814"/>
</g>
<!-- Node13 -->
<g id="node25" class="node"><title>Node13</title>
<polygon fill="none" stroke="#bfbfbf" points="361.5,-58.5 361.5,-79.5 410.5,-79.5 410.5,-58.5 361.5,-58.5"/>
<text text-anchor="middle" x="386" y="-66.5" font-family="FreeSans.ttf" font-size="10.00">stdio.h</text>
</g>
<!-- Node9&#45;&gt;Node13 -->
<g id="edge24" class="edge"><title>Node9&#45;&gt;Node13</title>
<path fill="none" stroke="midnightblue" d="M530.947,-116.497C499.754,-106.275 452.504,-90.7922 420.502,-80.3058"/>
<polygon fill="midnightblue" stroke="midnightblue" points="421.28,-76.8777 410.687,-77.0897 419.1,-83.5297 421.28,-76.8777"/>
</g>
<!-- Node14 -->
<g id="node27" class="node"><title>Node14</title>
<polygon fill="none" stroke="#bfbfbf" points="260.5,-58.5 260.5,-79.5 313.5,-79.5 313.5,-58.5 260.5,-58.5"/>
<text text-anchor="middle" x="287" y="-66.5" font-family="FreeSans.ttf" font-size="10.00">stdint.h</text>
</g>
<!-- Node9&#45;&gt;Node14 -->
<g id="edge26" class="edge"><title>Node9&#45;&gt;Node14</title>
<path fill="none" stroke="midnightblue" d="M527.97,-118.091C524.94,-117.367 521.918,-116.66 519,-116 450.204,-100.44 369.375,-84.6185 323.57,-75.8798"/>
<polygon fill="midnightblue" stroke="midnightblue" points="324.003,-72.3996 313.526,-73.9701 322.696,-79.2764 324.003,-72.3996"/>
</g>
<!-- Node15 -->
<g id="node29" class="node"><title>Node15</title>
<polygon fill="none" stroke="#bfbfbf" points="447,-58.5 447,-79.5 503,-79.5 503,-58.5 447,-58.5"/>
<text text-anchor="middle" x="475" y="-66.5" font-family="FreeSans.ttf" font-size="10.00">stdarg.h</text>
</g>
<!-- Node9&#45;&gt;Node15 -->
<g id="edge28" class="edge"><title>Node9&#45;&gt;Node15</title>
<path fill="none" stroke="midnightblue" d="M546.859,-116.362C533.586,-107.614 514.568,-95.0786 499.43,-85.1015"/>
<polygon fill="midnightblue" stroke="midnightblue" points="501.314,-82.1515 491.038,-79.5707 497.462,-87.9962 501.314,-82.1515"/>
</g>
<!-- Node16&#45;&gt;Node4 -->
<g id="edge36" class="edge"><title>Node16&#45;&gt;Node4</title>
<path fill="none" stroke="midnightblue" d="M440.037,-174.34C415.479,-160.012 369.811,-134.239 329,-116 298.512,-102.375 262.758,-89.5859 236.633,-80.7991"/>
<polygon fill="midnightblue" stroke="midnightblue" points="237.717,-77.4711 227.123,-77.634 235.506,-84.1129 237.717,-77.4711"/>
</g>
<!-- Node16&#45;&gt;Node9 -->
<g id="edge38" class="edge"><title>Node16&#45;&gt;Node9</title>
<path fill="none" stroke="midnightblue" d="M477.259,-174.362C493.466,-165.409 516.853,-152.491 535.109,-142.406"/>
<polygon fill="midnightblue" stroke="midnightblue" points="536.802,-145.47 543.863,-137.571 533.418,-139.342 536.802,-145.47"/>
</g>
<!-- Node17 -->
<g id="node34" class="node"><title>Node17</title>
<polygon fill="none" stroke="#bfbfbf" points="451.5,-116.5 451.5,-137.5 510.5,-137.5 510.5,-116.5 451.5,-116.5"/>
<text text-anchor="middle" x="481" y="-124.5" font-family="FreeSans.ttf" font-size="10.00">iostream</text>
</g>
<!-- Node16&#45;&gt;Node17 -->
<g id="edge34" class="edge"><title>Node16&#45;&gt;Node17</title>
<path fill="none" stroke="midnightblue" d="M462.219,-174.362C465.234,-166.758 469.383,-156.294 473.015,-147.135"/>
<polygon fill="midnightblue" stroke="midnightblue" points="476.375,-148.157 476.808,-137.571 469.868,-145.576 476.375,-148.157"/>
</g>
<!-- Node18&#45;&gt;Node9 -->
<g id="edge44" class="edge"><title>Node18&#45;&gt;Node9</title>
<path fill="none" stroke="midnightblue" d="M563,-174.362C563,-166.922 563,-156.743 563,-147.728"/>
<polygon fill="midnightblue" stroke="midnightblue" points="566.5,-147.571 563,-137.571 559.5,-147.571 566.5,-147.571"/>
</g>
<!-- Node18&#45;&gt;Node17 -->
<g id="edge42" class="edge"><title>Node18&#45;&gt;Node17</title>
<path fill="none" stroke="midnightblue" d="M547.96,-174.362C535.707,-165.696 518.201,-153.313 504.161,-143.382"/>
<polygon fill="midnightblue" stroke="midnightblue" points="506.13,-140.488 495.945,-137.571 502.088,-146.203 506.13,-140.488"/>
</g>
<!-- Node19&#45;&gt;Node3 -->
<g id="edge48" class="edge"><title>Node19&#45;&gt;Node3</title>
<path fill="none" stroke="midnightblue" d="M148.921,-348.275C146.342,-338.815 142.802,-324.61 141,-312 132.578,-253.069 131.107,-182.653 130.938,-148.16"/>
<polygon fill="midnightblue" stroke="midnightblue" points="134.438,-147.903 130.923,-137.908 127.438,-147.914 134.438,-147.903"/>
</g>
<!-- Node20 -->
<g id="node45" class="node"><title>Node20</title>
<a xlink:href="vector2d_8h.html" target="_top" xlink:title="Add Comment Here.">
<polygon fill="none" stroke="black" points="150,-290.5 150,-311.5 218,-311.5 218,-290.5 150,-290.5"/>
<text text-anchor="middle" x="184" y="-298.5" font-family="FreeSans.ttf" font-size="10.00">vector2d.h</text>
</a>
</g>
<!-- Node19&#45;&gt;Node20 -->
<g id="edge50" class="edge"><title>Node19&#45;&gt;Node20</title>
<path fill="none" stroke="midnightblue" d="M157.869,-348.362C162.155,-340.595 168.087,-329.843 173.216,-320.546"/>
<polygon fill="midnightblue" stroke="midnightblue" points="176.402,-322.017 178.168,-311.571 170.273,-318.636 176.402,-322.017"/>
</g>
<!-- Node20&#45;&gt;Node3 -->
<g id="edge52" class="edge"><title>Node20&#45;&gt;Node3</title>
<path fill="none" stroke="midnightblue" d="M180.764,-290.377C172.173,-262.172 148.67,-185.012 137.311,-147.72"/>
<polygon fill="midnightblue" stroke="midnightblue" points="140.591,-146.474 134.329,-137.928 133.894,-148.514 140.591,-146.474"/>
</g>
<!-- Node20&#45;&gt;Node4 -->
<g id="edge56" class="edge"><title>Node20&#45;&gt;Node4</title>
<path fill="none" stroke="midnightblue" d="M184.729,-290.429C187.197,-254.648 195.265,-137.663 198.569,-89.7481"/>
<polygon fill="midnightblue" stroke="midnightblue" points="202.07,-89.8506 199.267,-79.6335 195.087,-89.369 202.07,-89.8506"/>
</g>
<!-- Node20&#45;&gt;Node14 -->
<g id="edge54" class="edge"><title>Node20&#45;&gt;Node14</title>
<path fill="none" stroke="midnightblue" d="M188.693,-290.429C204.679,-254.422 257.175,-136.179 278.189,-88.8467"/>
<polygon fill="midnightblue" stroke="midnightblue" points="281.42,-90.1935 282.279,-79.6335 275.022,-87.353 281.42,-90.1935"/>
</g>
<!-- Node21 -->
<g id="node50" class="node"><title>Node21</title>
<a xlink:href="fixedVector_8h.html" target="_top" xlink:title="This file holds the description of the commonly used template &#45; a vector with the fixed number of com...">
<polygon fill="none" stroke="black" points="265,-232.5 265,-253.5 343,-253.5 343,-232.5 265,-232.5"/>
<text text-anchor="middle" x="304" y="-240.5" font-family="FreeSans.ttf" font-size="10.00">fixedVector.h</text>
</a>
</g>
<!-- Node20&#45;&gt;Node21 -->
<g id="edge58" class="edge"><title>Node20&#45;&gt;Node21</title>
<path fill="none" stroke="midnightblue" d="M205.731,-290.497C224.474,-281.438 251.767,-268.246 272.836,-258.063"/>
<polygon fill="midnightblue" stroke="midnightblue" points="274.545,-261.124 282.025,-253.621 271.498,-254.822 274.545,-261.124"/>
</g>
<!-- Node21&#45;&gt;Node13 -->
<g id="edge60" class="edge"><title>Node21&#45;&gt;Node13</title>
<path fill="none" stroke="midnightblue" d="M325.961,-232.374C340.034,-224.375 357.402,-212.043 367,-196 386.831,-162.855 388.522,-116.406 387.544,-89.8409"/>
<polygon fill="midnightblue" stroke="midnightblue" points="391.034,-89.569 387.006,-79.7699 384.044,-89.9423 391.034,-89.569"/>
</g>
<!-- Node22 -->
<g id="node53" class="node"><title>Node22</title>
<a xlink:href="vectorOperations_8h.html" target="_top" xlink:title="This file holds the operations that are commonly used with continuous linear data structures such as ...">
<polygon fill="none" stroke="black" points="250,-174.5 250,-195.5 358,-195.5 358,-174.5 250,-174.5"/>
<text text-anchor="middle" x="304" y="-182.5" font-family="FreeSans.ttf" font-size="10.00">vectorOperations.h</text>
</a>
</g>
<!-- Node21&#45;&gt;Node22 -->
<g id="edge62" class="edge"><title>Node21&#45;&gt;Node22</title>
<path fill="none" stroke="midnightblue" d="M304,-232.362C304,-224.922 304,-214.743 304,-205.728"/>
<polygon fill="midnightblue" stroke="midnightblue" points="307.5,-205.571 304,-195.571 300.5,-205.571 307.5,-205.571"/>
</g>
<!-- Node22&#45;&gt;Node3 -->
<g id="edge70" class="edge"><title>Node22&#45;&gt;Node3</title>
<path fill="none" stroke="midnightblue" d="M272.671,-174.497C242.71,-164.452 197.593,-149.326 166.358,-138.854"/>
<polygon fill="midnightblue" stroke="midnightblue" points="167.335,-135.49 156.741,-135.63 165.11,-142.127 167.335,-135.49"/>
</g>
<!-- Node22&#45;&gt;Node9 -->
<g id="edge72" class="edge"><title>Node22&#45;&gt;Node9</title>
<path fill="none" stroke="midnightblue" d="M354.055,-174.499C395.474,-165.709 456.099,-152.615 518.013,-138.187"/>
<polygon fill="midnightblue" stroke="midnightblue" points="519.019,-141.546 527.958,-135.86 517.424,-134.73 519.019,-141.546"/>
</g>
<!-- Node22&#45;&gt;Node13 -->
<g id="edge68" class="edge"><title>Node22&#45;&gt;Node13</title>
<path fill="none" stroke="midnightblue" d="M311.567,-174.295C325.48,-154.613 355.285,-112.45 372.663,-87.8668"/>
<polygon fill="midnightblue" stroke="midnightblue" points="375.537,-89.8653 378.451,-79.6792 369.82,-85.8247 375.537,-89.8653"/>
</g>
<!-- Node22&#45;&gt;Node17 -->
<g id="edge66" class="edge"><title>Node22&#45;&gt;Node17</title>
<path fill="none" stroke="midnightblue" d="M336.053,-174.497C365.628,-164.805 409.637,-150.384 441.399,-139.977"/>
<polygon fill="midnightblue" stroke="midnightblue" points="442.834,-143.19 451.247,-136.75 440.654,-136.538 442.834,-143.19"/>
</g>
<!-- Node23 -->
<g id="node55" class="node"><title>Node23</title>
<polygon fill="none" stroke="#bfbfbf" points="278,-116.5 278,-137.5 320,-137.5 320,-116.5 278,-116.5"/>
<text text-anchor="middle" x="299" y="-124.5" font-family="FreeSans.ttf" font-size="10.00">limits</text>
</g>
<!-- Node22&#45;&gt;Node23 -->
<g id="edge64" class="edge"><title>Node22&#45;&gt;Node23</title>
<path fill="none" stroke="midnightblue" d="M303.083,-174.362C302.442,-166.922 301.564,-156.743 300.787,-147.728"/>
<polygon fill="midnightblue" stroke="midnightblue" points="304.257,-147.233 299.911,-137.571 297.283,-147.834 304.257,-147.233"/>
</g>
</g>
</svg>
        <g id="navigator" transform="translate(0 0)" fill="#404254">
                <rect fill="#f2f5e9" fill-opacity="0.5" stroke="#606060" stroke-width=".5" x="0" y="0" width="60" height="60"/>
                <use id="zoomplus" xlink:href="#zoomPlus" x="17" y="9" onmousedown="handleZoom(evt,'in')"/>
                <use id="zoomminus" xlink:href="#zoomMin" x="42" y="9" onmousedown="handleZoom(evt,'out')"/>
                <use id="reset" xlink:href="#resetDef" x="30" y="36" onmousedown="handleReset()"/>
                <g id="arrowUp" xlink:href="#dirArrow" transform="translate(30 24)" onmousedown="handlePan(0,-1)">
                  <use xlink:href="#rim" fill="#404040">
                        <set attributeName="fill" to="#808080" begin="arrowUp.mouseover" end="arrowUp.mouseout"/>
                  </use>
                  <path fill="none" stroke="white" stroke-width="1.5" d="M0,-3.0v7 M-2.5,-0.5L0,-3.0L2.5,-0.5"/>
                </g>
                <g id="arrowRight" xlink:href="#dirArrow" transform="rotate(90) translate(36 -43)" onmousedown="handlePan(1,0)">
                  <use xlink:href="#rim" fill="#404040">
                        <set attributeName="fill" to="#808080" begin="arrowRight.mouseover" end="arrowRight.mouseout"/>
                  </use>
                  <path fill="none" stroke="white" stroke-width="1.5" d="M0,-3.0v7 M-2.5,-0.5L0,-3.0L2.5,-0.5"/>
                </g>
                <g id="arrowDown" xlink:href="#dirArrow" transform="rotate(180) translate(-30 -48)" onmousedown="handlePan(0,1)">
                  <use xlink:href="#rim" fill="#404040">
                        <set attributeName="fill" to="#808080" begin="arrowDown.mouseover" end="arrowDown.mouseout"/>
                  </use>
                  <path fill="none" stroke="white" stroke-width="1.5" d="M0,-3.0v7 M-2.5,-0.5L0,-3.0L2.5,-0.5"/>
                </g>
                <g id="arrowLeft" xlink:href="#dirArrow" transform="rotate(270) translate(-36 17)" onmousedown="handlePan(-1,0)">
                  <use xlink:href="#rim" fill="#404040">
                        <set attributeName="fill" to="#808080" begin="arrowLeft.mouseover" end="arrowLeft.mouseout"/>
                  </use>
                  <path fill="none" stroke="white" stroke-width="1.5" d="M0,-3.0v7 M-2.5,-0.5L0,-3.0L2.5,-0.5"/>
                </g>
        </g>
</svg>
