<?xml version="1.0" encoding="UTF-8" standalone="no"?>
<!DOCTYPE svg PUBLIC "-//W3C//DTD SVG 1.1//EN"
 "http://www.w3.org/Graphics/SVG/1.1/DTD/svg11.dtd">
<!-- Generated by graphviz version 2.26.3 (20100126.1600)
 -->
<!-- Title: G Pages: 1 -->
<!--zoomable 610 -->
<svg id="main" version="1.1" xmlns="http://www.w3.org/2000/svg" xmlns:xlink="http://www.w3.org/1999/xlink" xml:space="preserve" onload="init(evt)">
        <defs>
                <circle id="rim" cx="0" cy="0" r="7"/>
                <circle id="rim2" cx="0" cy="0" r="3.5"/>
                <g id="zoomPlus">
                        <use xlink:href="#rim" fill="#404040">
                                <set attributeName="fill" to="#808080" begin="zoomplus.mouseover" end="zoomplus.mouseout"/>
                        </use>
                        <path d="M-4,0h8M0,-4v8" fill="none" stroke="white" stroke-width="1.5" pointer-events="none"/>
                </g>
                <g id="zoomMin">
                        <use xlink:href="#rim" fill="#404040">
                                <set attributeName="fill" to="#808080" begin="zoomminus.mouseover" end="zoomminus.mouseout"/>
                        </use>
                        <path d="M-4,0h8" fill="none" stroke="white" stroke-width="1.5" pointer-events="none"/>
                </g>
                <g id="dirArrow">
                        <path fill="none" stroke="white" stroke-width="1.5" d="M0,-3.0v7 M-2.5,-0.5L0,-3.0L2.5,-0.5"/>
                </g>
               <g id="resetDef">
                       <use xlink:href="#rim2" fill="#404040">
                               <set attributeName="fill" to="#808080" begin="reset.mouseover" end="reset.mouseout"/>
                       </use>
               </g>
        </defs>

<script type="text/javascript">
var viewWidth = 1076;
var viewHeight = 610;
var sectionId = 'dynsection-0';
</script>
<script xlink:href="svgpan.js"/>
<svg id="graph" class="graph">
<g id="viewport">
<title>G</title>
<!-- Node1 -->
<g id="node1" class="node"><title>Node1</title>
<polygon fill="#bfbfbf" stroke="black" points="168,-580.5 168,-601.5 344,-601.5 344,-580.5 168,-580.5"/>
<text text-anchor="middle" x="256" y="-588.5" font-family="FreeSans.ttf" font-size="10.00">core/buffers/mipmapPyramid.cpp</text>
</g>
<!-- Node2 -->
<g id="node3" class="node"><title>Node2</title>
<a xlink:href="global_8h.html" target="_top" xlink:title="This file holds the global includes, mostly for debuging, tracing and profiling.">
<polygon fill="none" stroke="black" points="384,-58.5 384,-79.5 438,-79.5 438,-58.5 384,-58.5"/>
<text text-anchor="middle" x="411" y="-66.5" font-family="FreeSans.ttf" font-size="10.00">global.h</text>
</a>
</g>
<!-- Node1&#45;&gt;Node2 -->
<g id="edge2" class="edge"><title>Node1&#45;&gt;Node2</title>
<path fill="none" stroke="midnightblue" d="M211.582,-580.471C138.523,-561.847 1,-520.718 1,-475 1,-475 1,-475 1,-243 1,-175.326 27.8366,-152.223 85,-116 132.361,-85.9888 298.462,-74.3768 373.593,-70.586"/>
<polygon fill="midnightblue" stroke="midnightblue" points="374.174,-74.062 383.993,-70.0822 373.835,-67.0702 374.174,-74.062"/>
</g>
<!-- Node4 -->
<g id="node7" class="node"><title>Node4</title>
<a xlink:href="mipmapPyramid_8h.html" target="_top" xlink:title="a header for MidmapPyramid.cpp">
<polygon fill="none" stroke="black" points="459,-522.5 459,-543.5 563,-543.5 563,-522.5 459,-522.5"/>
<text text-anchor="middle" x="511" y="-530.5" font-family="FreeSans.ttf" font-size="10.00">mipmapPyramid.h</text>
</a>
</g>
<!-- Node1&#45;&gt;Node4 -->
<g id="edge6" class="edge"><title>Node1&#45;&gt;Node4</title>
<path fill="none" stroke="midnightblue" d="M302.179,-580.497C345.1,-570.734 409.124,-556.172 454.956,-545.747"/>
<polygon fill="midnightblue" stroke="midnightblue" points="455.76,-549.154 464.735,-543.523 454.208,-542.328 455.76,-549.154"/>
</g>
<!-- Node3 -->
<g id="node5" class="node"><title>Node3</title>
<polygon fill="none" stroke="#bfbfbf" points="379,-0.5 379,-21.5 443,-21.5 443,-0.5 379,-0.5"/>
<text text-anchor="middle" x="411" y="-8.5" font-family="FreeSans.ttf" font-size="10.00">inttypes.h</text>
</g>
<!-- Node2&#45;&gt;Node3 -->
<g id="edge4" class="edge"><title>Node2&#45;&gt;Node3</title>
<path fill="none" stroke="midnightblue" d="M411,-58.3619C411,-50.9219 411,-40.7427 411,-31.7276"/>
<polygon fill="midnightblue" stroke="midnightblue" points="414.5,-31.5706 411,-21.5707 407.5,-31.5707 414.5,-31.5706"/>
</g>
<!-- Node4&#45;&gt;Node2 -->
<g id="edge10" class="edge"><title>Node4&#45;&gt;Node2</title>
<path fill="none" stroke="midnightblue" d="M563.093,-530.776C683.134,-524.234 969,-499.947 969,-417 969,-417 969,-417 969,-359 969,-123.756 573.699,-79.0692 448.531,-70.8158"/>
<polygon fill="midnightblue" stroke="midnightblue" points="448.488,-67.3066 438.291,-70.1832 448.056,-74.2933 448.488,-67.3066"/>
</g>
<!-- Node5 -->
<g id="node9" class="node"><title>Node5</title>
<polygon fill="none" stroke="#bfbfbf" points="1021.5,-58.5 1021.5,-79.5 1068.5,-79.5 1068.5,-58.5 1021.5,-58.5"/>
<text text-anchor="middle" x="1045" y="-66.5" font-family="FreeSans.ttf" font-size="10.00">vector</text>
</g>
<!-- Node4&#45;&gt;Node5 -->
<g id="edge8" class="edge"><title>Node4&#45;&gt;Node5</title>
<path fill="none" stroke="midnightblue" d="M563.258,-529.492C657.909,-522.724 853.938,-506.687 919,-486 979.845,-466.654 1045,-480.847 1045,-417 1045,-417 1045,-417 1045,-185 1045,-151.598 1045,-112.785 1045,-89.5939"/>
<polygon fill="midnightblue" stroke="midnightblue" points="1048.5,-89.5561 1045,-79.5561 1041.5,-89.5561 1048.5,-89.5561"/>
</g>
<!-- Node6 -->
<g id="node12" class="node"><title>Node6</title>
<a xlink:href="abstractBuffer_8h.html" target="_top" xlink:title="a header for AbstractBuffer.cpp">
<polygon fill="none" stroke="black" points="464.5,-348.5 464.5,-369.5 557.5,-369.5 557.5,-348.5 464.5,-348.5"/>
<text text-anchor="middle" x="511" y="-356.5" font-family="FreeSans.ttf" font-size="10.00">abstractBuffer.h</text>
</a>
</g>
<!-- Node4&#45;&gt;Node6 -->
<g id="edge12" class="edge"><title>Node4&#45;&gt;Node6</title>
<path fill="none" stroke="midnightblue" d="M511,-522.377C511,-494.293 511,-417.673 511,-380.203"/>
<polygon fill="midnightblue" stroke="midnightblue" points="514.5,-379.928 511,-369.928 507.5,-379.928 514.5,-379.928"/>
</g>
<!-- Node27 -->
<g id="node71" class="node"><title>Node27</title>
<a xlink:href="gaussian_8h.html" target="_top" xlink:title="Add Comment Here.">
<polygon fill="none" stroke="black" points="279,-464.5 279,-485.5 347,-485.5 347,-464.5 279,-464.5"/>
<text text-anchor="middle" x="313" y="-472.5" font-family="FreeSans.ttf" font-size="10.00">gaussian.h</text>
</a>
</g>
<!-- Node4&#45;&gt;Node27 -->
<g id="edge88" class="edge"><title>Node4&#45;&gt;Node27</title>
<path fill="none" stroke="midnightblue" d="M475.144,-522.497C441.936,-512.769 392.46,-498.276 356.9,-487.86"/>
<polygon fill="midnightblue" stroke="midnightblue" points="357.845,-484.49 347.265,-485.037 355.877,-491.207 357.845,-484.49"/>
</g>
<!-- Node6&#45;&gt;Node2 -->
<g id="edge24" class="edge"><title>Node6&#45;&gt;Node2</title>
<path fill="none" stroke="midnightblue" d="M498.331,-348.252C488.698,-339.432 475.81,-326.132 468,-312 452.615,-284.16 449,-274.808 449,-243 449,-243 449,-243 449,-185 449,-149.741 432.949,-111.315 421.711,-88.7323"/>
<polygon fill="midnightblue" stroke="midnightblue" points="424.802,-87.0901 417.105,-79.809 418.582,-90.3005 424.802,-87.0901"/>
</g>
<!-- Node7 -->
<g id="node14" class="node"><title>Node7</title>
<polygon fill="none" stroke="#bfbfbf" points="-0.5,-58.5 -0.5,-79.5 52.5,-79.5 52.5,-58.5 -0.5,-58.5"/>
<text text-anchor="middle" x="26" y="-66.5" font-family="FreeSans.ttf" font-size="10.00">stdint.h</text>
</g>
<!-- Node6&#45;&gt;Node7 -->
<g id="edge14" class="edge"><title>Node6&#45;&gt;Node7</title>
<path fill="none" stroke="midnightblue" d="M464.214,-348.823C383.525,-329.559 215.644,-281.807 99,-196 71.8172,-176.003 66.7121,-167.317 50,-138 41.2908,-122.722 34.9752,-103.752 31.0153,-89.5717"/>
<polygon fill="midnightblue" stroke="midnightblue" points="34.3743,-88.5826 28.4457,-79.8017 27.6045,-90.3631 34.3743,-88.5826"/>
</g>
<!-- Node8 -->
<g id="node16" class="node"><title>Node8</title>
<polygon fill="none" stroke="#bfbfbf" points="819.5,-58.5 819.5,-79.5 868.5,-79.5 868.5,-58.5 819.5,-58.5"/>
<text text-anchor="middle" x="844" y="-66.5" font-family="FreeSans.ttf" font-size="10.00">stdio.h</text>
</g>
<!-- Node6&#45;&gt;Node8 -->
<g id="edge16" class="edge"><title>Node6&#45;&gt;Node8</title>
<path fill="none" stroke="midnightblue" d="M557.561,-353.743C617.883,-346.28 719.097,-331.344 751,-312 835.636,-260.681 857.27,-231.411 890,-138 893.233,-128.772 893.693,-125.053 890,-116 885.311,-104.507 876.309,-94.2985 867.502,-86.3571"/>
<polygon fill="midnightblue" stroke="midnightblue" points="869.51,-83.473 859.599,-79.7292 865.012,-88.8367 869.51,-83.473"/>
</g>
<!-- Node9 -->
<g id="node18" class="node"><title>Node9</title>
<polygon fill="none" stroke="#bfbfbf" points="886,-58.5 886,-79.5 942,-79.5 942,-58.5 886,-58.5"/>
<text text-anchor="middle" x="914" y="-66.5" font-family="FreeSans.ttf" font-size="10.00">stdarg.h</text>
</g>
<!-- Node6&#45;&gt;Node9 -->
<g id="edge18" class="edge"><title>Node6&#45;&gt;Node9</title>
<path fill="none" stroke="midnightblue" d="M557.702,-353.807C624.101,-345.929 742.061,-329.959 781,-312 867.232,-272.229 883.269,-230.442 905,-138 908.715,-122.197 911.009,-103.973 912.351,-90.2239"/>
<polygon fill="midnightblue" stroke="midnightblue" points="915.872,-90.1473 913.265,-79.8782 908.899,-89.5316 915.872,-90.1473"/>
</g>
<!-- Node10 -->
<g id="node20" class="node"><title>Node10</title>
<polygon fill="none" stroke="#bfbfbf" points="960,-58.5 960,-79.5 1004,-79.5 1004,-58.5 960,-58.5"/>
<text text-anchor="middle" x="982" y="-66.5" font-family="FreeSans.ttf" font-size="10.00">string</text>
</g>
<!-- Node6&#45;&gt;Node10 -->
<g id="edge20" class="edge"><title>Node6&#45;&gt;Node10</title>
<path fill="none" stroke="midnightblue" d="M557.662,-357.967C681.135,-353.975 1007,-334.751 1007,-243 1007,-243 1007,-243 1007,-185 1007,-150.853 996.52,-112.296 989.131,-89.3541"/>
<polygon fill="midnightblue" stroke="midnightblue" points="992.396,-88.083 985.906,-79.7085 985.757,-90.3023 992.396,-88.083"/>
</g>
<!-- Node11 -->
<g id="node22" class="node"><title>Node11</title>
<polygon fill="none" stroke="#bfbfbf" points="562.5,-290.5 562.5,-311.5 625.5,-311.5 625.5,-290.5 562.5,-290.5"/>
<text text-anchor="middle" x="594" y="-298.5" font-family="FreeSans.ttf" font-size="10.00">functional</text>
</g>
<!-- Node6&#45;&gt;Node11 -->
<g id="edge22" class="edge"><title>Node6&#45;&gt;Node11</title>
<path fill="none" stroke="midnightblue" d="M526.223,-348.362C538.625,-339.696 556.346,-327.313 570.557,-317.382"/>
<polygon fill="midnightblue" stroke="midnightblue" points="572.681,-320.168 578.873,-311.571 568.671,-314.43 572.681,-320.168"/>
</g>
<!-- Node12 -->
<g id="node25" class="node"><title>Node12</title>
<a xlink:href="vector2d_8h.html" target="_top" xlink:title="Add Comment Here.">
<polygon fill="none" stroke="black" points="477,-290.5 477,-311.5 545,-311.5 545,-290.5 477,-290.5"/>
<text text-anchor="middle" x="511" y="-298.5" font-family="FreeSans.ttf" font-size="10.00">vector2d.h</text>
</a>
</g>
<!-- Node6&#45;&gt;Node12 -->
<g id="edge26" class="edge"><title>Node6&#45;&gt;Node12</title>
<path fill="none" stroke="midnightblue" d="M511,-348.362C511,-340.922 511,-330.743 511,-321.728"/>
<polygon fill="midnightblue" stroke="midnightblue" points="514.5,-321.571 511,-311.571 507.5,-321.571 514.5,-321.571"/>
</g>
<!-- Node20 -->
<g id="node52" class="node"><title>Node20</title>
<a xlink:href="memoryBlock_8h.html" target="_top" xlink:title="Add Comment Here.">
<polygon fill="none" stroke="black" points="142.5,-174.5 142.5,-195.5 277.5,-195.5 277.5,-174.5 142.5,-174.5"/>
<text text-anchor="middle" x="210" y="-182.5" font-family="FreeSans.ttf" font-size="10.00">memory/memoryBlock.h</text>
</a>
</g>
<!-- Node6&#45;&gt;Node20 -->
<g id="edge64" class="edge"><title>Node6&#45;&gt;Node20</title>
<path fill="none" stroke="midnightblue" d="M487.783,-348.425C468.133,-339.288 439.361,-325.466 415,-312 348.004,-274.967 272.134,-226.049 234.242,-201.114"/>
<polygon fill="midnightblue" stroke="midnightblue" points="236.16,-198.186 225.886,-195.598 232.303,-204.028 236.16,-198.186"/>
</g>
<!-- Node24 -->
<g id="node62" class="node"><title>Node24</title>
<a xlink:href="tbbWrapper_8h.html" target="_top" xlink:title="This is a class that provides common TBB interface.">
<polygon fill="none" stroke="black" points="662,-290.5 662,-311.5 742,-311.5 742,-290.5 662,-290.5"/>
<text text-anchor="middle" x="702" y="-298.5" font-family="FreeSans.ttf" font-size="10.00">tbbWrapper.h</text>
</a>
</g>
<!-- Node6&#45;&gt;Node24 -->
<g id="edge76" class="edge"><title>Node6&#45;&gt;Node24</title>
<path fill="none" stroke="midnightblue" d="M545.589,-348.497C576.996,-338.959 623.49,-324.841 657.625,-314.475"/>
<polygon fill="midnightblue" stroke="midnightblue" points="658.795,-317.778 667.346,-311.523 656.761,-311.08 658.795,-317.778"/>
</g>
<!-- Node26 -->
<g id="node66" class="node"><title>Node26</title>
<a xlink:href="mathUtils_8h.html" target="_top" xlink:title="Add Comment Here.">
<polygon fill="none" stroke="black" points="349,-174.5 349,-195.5 421,-195.5 421,-174.5 349,-174.5"/>
<text text-anchor="middle" x="385" y="-182.5" font-family="FreeSans.ttf" font-size="10.00">mathUtils.h</text>
</a>
</g>
<!-- Node6&#45;&gt;Node26 -->
<g id="edge80" class="edge"><title>Node6&#45;&gt;Node26</title>
<path fill="none" stroke="midnightblue" d="M485.475,-348.373C469.131,-340.444 448.527,-328.191 435,-312 408.428,-280.195 394.825,-232.568 388.874,-205.585"/>
<polygon fill="midnightblue" stroke="midnightblue" points="392.284,-204.79 386.836,-195.703 385.428,-206.203 392.284,-204.79"/>
</g>
<!-- Node12&#45;&gt;Node2 -->
<g id="edge32" class="edge"><title>Node12&#45;&gt;Node2</title>
<path fill="none" stroke="midnightblue" d="M517.118,-290.214C533.495,-259.755 574.558,-171.692 536,-116 525.624,-101.014 480.839,-86.7066 447.827,-77.8974"/>
<polygon fill="midnightblue" stroke="midnightblue" points="448.57,-74.4743 438.011,-75.3454 446.809,-81.2491 448.57,-74.4743"/>
</g>
<!-- Node12&#45;&gt;Node7 -->
<g id="edge30" class="edge"><title>Node12&#45;&gt;Node7</title>
<path fill="none" stroke="midnightblue" d="M476.968,-296.966C408.316,-287.697 249.914,-260.513 134,-196 88.1025,-170.455 53.0028,-117.302 36.4581,-88.5235"/>
<polygon fill="midnightblue" stroke="midnightblue" points="39.5024,-86.7964 31.5698,-79.7733 33.3913,-90.2103 39.5024,-86.7964"/>
</g>
<!-- Node13 -->
<g id="node27" class="node"><title>Node13</title>
<polygon fill="none" stroke="#bfbfbf" points="476.5,-116.5 476.5,-137.5 527.5,-137.5 527.5,-116.5 476.5,-116.5"/>
<text text-anchor="middle" x="502" y="-124.5" font-family="FreeSans.ttf" font-size="10.00">math.h</text>
</g>
<!-- Node12&#45;&gt;Node13 -->
<g id="edge28" class="edge"><title>Node12&#45;&gt;Node13</title>
<path fill="none" stroke="midnightblue" d="M510.451,-290.377C508.998,-262.293 505.035,-185.673 503.097,-148.203"/>
<polygon fill="midnightblue" stroke="midnightblue" points="506.577,-147.734 502.565,-137.928 499.587,-148.095 506.577,-147.734"/>
</g>
<!-- Node14 -->
<g id="node31" class="node"><title>Node14</title>
<a xlink:href="fixedVector_8h.html" target="_top" xlink:title="This file holds the description of the commonly used template &#45; a vector with the fixed number of com...">
<polygon fill="none" stroke="black" points="599,-232.5 599,-253.5 677,-253.5 677,-232.5 599,-232.5"/>
<text text-anchor="middle" x="638" y="-240.5" font-family="FreeSans.ttf" font-size="10.00">fixedVector.h</text>
</a>
</g>
<!-- Node12&#45;&gt;Node14 -->
<g id="edge34" class="edge"><title>Node12&#45;&gt;Node14</title>
<path fill="none" stroke="midnightblue" d="M533.999,-290.497C554.013,-281.356 583.241,-268.008 605.619,-257.788"/>
<polygon fill="midnightblue" stroke="midnightblue" points="607.101,-260.959 614.743,-253.621 604.193,-254.592 607.101,-260.959"/>
</g>
<!-- Node14&#45;&gt;Node8 -->
<g id="edge36" class="edge"><title>Node14&#45;&gt;Node8</title>
<path fill="none" stroke="midnightblue" d="M673.29,-232.491C733.282,-213.833 850.915,-173.538 874,-138 884.35,-122.067 873.254,-101.965 861.741,-87.5742"/>
<polygon fill="midnightblue" stroke="midnightblue" points="864.252,-85.127 855.073,-79.8362 858.95,-89.6965 864.252,-85.127"/>
</g>
<!-- Node15 -->
<g id="node34" class="node"><title>Node15</title>
<a xlink:href="vectorOperations_8h.html" target="_top" xlink:title="This file holds the operations that are commonly used with continuous linear data structures such as ...">
<polygon fill="none" stroke="black" points="600,-174.5 600,-195.5 708,-195.5 708,-174.5 600,-174.5"/>
<text text-anchor="middle" x="654" y="-182.5" font-family="FreeSans.ttf" font-size="10.00">vectorOperations.h</text>
</a>
</g>
<!-- Node14&#45;&gt;Node15 -->
<g id="edge38" class="edge"><title>Node14&#45;&gt;Node15</title>
<path fill="none" stroke="midnightblue" d="M640.935,-232.362C643.01,-224.84 645.857,-214.519 648.364,-205.431"/>
<polygon fill="midnightblue" stroke="midnightblue" points="651.799,-206.141 651.084,-195.571 645.051,-204.28 651.799,-206.141"/>
</g>
<!-- Node15&#45;&gt;Node8 -->
<g id="edge44" class="edge"><title>Node15&#45;&gt;Node8</title>
<path fill="none" stroke="midnightblue" d="M671.534,-174.295C705.129,-153.785 778.713,-108.859 818.027,-84.8575"/>
<polygon fill="midnightblue" stroke="midnightblue" points="820.071,-87.7098 826.783,-79.5117 816.424,-81.7353 820.071,-87.7098"/>
</g>
<!-- Node15&#45;&gt;Node13 -->
<g id="edge46" class="edge"><title>Node15&#45;&gt;Node13</title>
<path fill="none" stroke="midnightblue" d="M626.474,-174.497C601.482,-164.96 564.488,-150.844 537.324,-140.479"/>
<polygon fill="midnightblue" stroke="midnightblue" points="538.392,-137.14 527.801,-136.845 535.896,-143.68 538.392,-137.14"/>
</g>
<!-- Node16 -->
<g id="node36" class="node"><title>Node16</title>
<polygon fill="none" stroke="#bfbfbf" points="583,-116.5 583,-137.5 625,-137.5 625,-116.5 583,-116.5"/>
<text text-anchor="middle" x="604" y="-124.5" font-family="FreeSans.ttf" font-size="10.00">limits</text>
</g>
<!-- Node15&#45;&gt;Node16 -->
<g id="edge40" class="edge"><title>Node15&#45;&gt;Node16</title>
<path fill="none" stroke="midnightblue" d="M644.829,-174.362C637.852,-166.268 628.079,-154.932 619.844,-145.38"/>
<polygon fill="midnightblue" stroke="midnightblue" points="622.293,-142.859 613.113,-137.571 616.991,-147.43 622.293,-142.859"/>
</g>
<!-- Node17 -->
<g id="node38" class="node"><title>Node17</title>
<polygon fill="none" stroke="#bfbfbf" points="642.5,-116.5 642.5,-137.5 701.5,-137.5 701.5,-116.5 642.5,-116.5"/>
<text text-anchor="middle" x="672" y="-124.5" font-family="FreeSans.ttf" font-size="10.00">iostream</text>
</g>
<!-- Node15&#45;&gt;Node17 -->
<g id="edge42" class="edge"><title>Node15&#45;&gt;Node17</title>
<path fill="none" stroke="midnightblue" d="M657.301,-174.362C659.661,-166.758 662.909,-156.294 665.751,-147.135"/>
<polygon fill="midnightblue" stroke="midnightblue" points="669.098,-148.159 668.719,-137.571 662.413,-146.084 669.098,-148.159"/>
</g>
<!-- Node18 -->
<g id="node42" class="node"><title>Node18</title>
<a xlink:href="reflection_8h.html" target="_top" xlink:title="a header for Reflection.c">
<polygon fill="none" stroke="black" points="795,-116.5 795,-137.5 865,-137.5 865,-116.5 795,-116.5"/>
<text text-anchor="middle" x="830" y="-124.5" font-family="FreeSans.ttf" font-size="10.00">reflection.h</text>
</a>
</g>
<!-- Node15&#45;&gt;Node18 -->
<g id="edge48" class="edge"><title>Node15&#45;&gt;Node18</title>
<path fill="none" stroke="midnightblue" d="M685.872,-174.497C714.565,-165.041 756.921,-151.083 788.298,-140.743"/>
<polygon fill="midnightblue" stroke="midnightblue" points="789.666,-143.977 798.068,-137.523 787.475,-137.329 789.666,-143.977"/>
</g>
<!-- Node18&#45;&gt;Node2 -->
<g id="edge62" class="edge"><title>Node18&#45;&gt;Node2</title>
<path fill="none" stroke="midnightblue" d="M794.997,-122.155C716.786,-111.328 528.437,-85.2563 448.205,-74.1501"/>
<polygon fill="midnightblue" stroke="midnightblue" points="448.457,-70.6517 438.072,-72.7474 447.497,-77.5856 448.457,-70.6517"/>
</g>
<!-- Node18&#45;&gt;Node5 -->
<g id="edge50" class="edge"><title>Node18&#45;&gt;Node5</title>
<path fill="none" stroke="midnightblue" d="M865.312,-118.815C900.312,-110.507 955.63,-96.8561 1011.59,-80.2859"/>
<polygon fill="midnightblue" stroke="midnightblue" points="1012.72,-83.5994 1021.3,-77.3813 1010.72,-76.8928 1012.72,-83.5994"/>
</g>
<!-- Node18&#45;&gt;Node7 -->
<g id="edge58" class="edge"><title>Node18&#45;&gt;Node7</title>
<path fill="none" stroke="midnightblue" d="M794.838,-123.564C770.928,-121.28 738.57,-118.291 710,-116 463.05,-96.1997 165.523,-77.5282 62.8955,-71.2382"/>
<polygon fill="midnightblue" stroke="midnightblue" points="62.9379,-67.7344 52.7429,-70.6175 62.5107,-74.7213 62.9379,-67.7344"/>
</g>
<!-- Node18&#45;&gt;Node8 -->
<g id="edge56" class="edge"><title>Node18&#45;&gt;Node8</title>
<path fill="none" stroke="midnightblue" d="M832.568,-116.362C834.383,-108.84 836.875,-98.5187 839.068,-89.4308"/>
<polygon fill="midnightblue" stroke="midnightblue" points="842.504,-90.1127 841.448,-79.5707 835.7,-88.4702 842.504,-90.1127"/>
</g>
<!-- Node18&#45;&gt;Node9 -->
<g id="edge60" class="edge"><title>Node18&#45;&gt;Node9</title>
<path fill="none" stroke="midnightblue" d="M845.407,-116.362C857.958,-107.696 875.892,-95.3126 890.275,-85.3819"/>
<polygon fill="midnightblue" stroke="midnightblue" points="892.45,-88.1327 898.691,-79.5707 888.473,-82.3725 892.45,-88.1327"/>
</g>
<!-- Node18&#45;&gt;Node10 -->
<g id="edge52" class="edge"><title>Node18&#45;&gt;Node10</title>
<path fill="none" stroke="midnightblue" d="M857.526,-116.497C883.584,-106.553 922.692,-91.6309 950.099,-81.1727"/>
<polygon fill="midnightblue" stroke="midnightblue" points="951.527,-84.3743 959.622,-77.5391 949.031,-77.8342 951.527,-84.3743"/>
</g>
<!-- Node19 -->
<g id="node46" class="node"><title>Node19</title>
<polygon fill="none" stroke="#bfbfbf" points="749.5,-58.5 749.5,-79.5 802.5,-79.5 802.5,-58.5 749.5,-58.5"/>
<text text-anchor="middle" x="776" y="-66.5" font-family="FreeSans.ttf" font-size="10.00">string.h</text>
</g>
<!-- Node18&#45;&gt;Node19 -->
<g id="edge54" class="edge"><title>Node18&#45;&gt;Node19</title>
<path fill="none" stroke="midnightblue" d="M820.096,-116.362C812.484,-108.186 801.792,-96.7025 792.843,-87.0907"/>
<polygon fill="midnightblue" stroke="midnightblue" points="795.217,-84.5046 785.842,-79.5707 790.094,-89.2746 795.217,-84.5046"/>
</g>
<!-- Node20&#45;&gt;Node2 -->
<g id="edge72" class="edge"><title>Node20&#45;&gt;Node2</title>
<path fill="none" stroke="midnightblue" d="M220.119,-174.391C234.648,-159.651 262.787,-132.89 291,-116 317.152,-100.344 349.453,-88.0407 373.952,-79.9558"/>
<polygon fill="midnightblue" stroke="midnightblue" points="375.148,-83.2479 383.598,-76.8565 373.006,-76.5834 375.148,-83.2479"/>
</g>
<!-- Node20&#45;&gt;Node7 -->
<g id="edge68" class="edge"><title>Node20&#45;&gt;Node7</title>
<path fill="none" stroke="midnightblue" d="M178.381,-174.367C156.089,-166.14 126.043,-153.54 102,-138 79.5216,-123.471 57.2602,-102.241 42.6978,-87.173"/>
<polygon fill="midnightblue" stroke="midnightblue" points="44.8649,-84.3712 35.4472,-79.5176 39.7826,-89.1848 44.8649,-84.3712"/>
</g>
<!-- Node21 -->
<g id="node54" class="node"><title>Node21</title>
<polygon fill="none" stroke="#bfbfbf" points="110.5,-116.5 110.5,-137.5 145.5,-137.5 145.5,-116.5 110.5,-116.5"/>
<text text-anchor="middle" x="128" y="-124.5" font-family="FreeSans.ttf" font-size="10.00">new</text>
</g>
<!-- Node20&#45;&gt;Node21 -->
<g id="edge66" class="edge"><title>Node20&#45;&gt;Node21</title>
<path fill="none" stroke="midnightblue" d="M194.96,-174.362C182.707,-165.696 165.201,-153.313 151.161,-143.382"/>
<polygon fill="midnightblue" stroke="midnightblue" points="153.13,-140.488 142.945,-137.571 149.088,-146.203 153.13,-140.488"/>
</g>
<!-- Node22 -->
<g id="node57" class="node"><title>Node22</title>
<polygon fill="none" stroke="#bfbfbf" points="332.5,-116.5 332.5,-137.5 383.5,-137.5 383.5,-116.5 332.5,-116.5"/>
<text text-anchor="middle" x="358" y="-124.5" font-family="FreeSans.ttf" font-size="10.00">stdlib.h</text>
</g>
<!-- Node20&#45;&gt;Node22 -->
<g id="edge70" class="edge"><title>Node20&#45;&gt;Node22</title>
<path fill="none" stroke="midnightblue" d="M236.802,-174.497C260.881,-165.06 296.404,-151.139 322.773,-140.805"/>
<polygon fill="midnightblue" stroke="midnightblue" points="324.355,-143.945 332.388,-137.037 321.8,-137.427 324.355,-143.945"/>
</g>
<!-- Node23 -->
<g id="node60" class="node"><title>Node23</title>
<a xlink:href="atomicOps_8h.html" target="_top" xlink:title="atomicOps.h">
<polygon fill="none" stroke="black" points="162.5,-116.5 162.5,-137.5 239.5,-137.5 239.5,-116.5 162.5,-116.5"/>
<text text-anchor="middle" x="201" y="-124.5" font-family="FreeSans.ttf" font-size="10.00">atomicOps.h</text>
</a>
</g>
<!-- Node20&#45;&gt;Node23 -->
<g id="edge74" class="edge"><title>Node20&#45;&gt;Node23</title>
<path fill="none" stroke="midnightblue" d="M208.349,-174.362C207.195,-166.922 205.615,-156.743 204.216,-147.728"/>
<polygon fill="midnightblue" stroke="midnightblue" points="207.632,-146.916 202.64,-137.571 200.715,-147.989 207.632,-146.916"/>
</g>
<!-- Node25 -->
<g id="node64" class="node"><title>Node25</title>
<polygon fill="none" stroke="#bfbfbf" points="695,-232.5 695,-253.5 747,-253.5 747,-232.5 695,-232.5"/>
<text text-anchor="middle" x="721" y="-240.5" font-family="FreeSans.ttf" font-size="10.00">cstddef</text>
</g>
<!-- Node24&#45;&gt;Node25 -->
<g id="edge78" class="edge"><title>Node24&#45;&gt;Node25</title>
<path fill="none" stroke="midnightblue" d="M705.485,-290.362C707.976,-282.758 711.404,-272.294 714.404,-263.135"/>
<polygon fill="midnightblue" stroke="midnightblue" points="717.75,-264.163 717.537,-253.571 711.098,-261.984 717.75,-264.163"/>
</g>
<!-- Node26&#45;&gt;Node2 -->
<g id="edge84" class="edge"><title>Node26&#45;&gt;Node2</title>
<path fill="none" stroke="midnightblue" d="M387.399,-174.295C391.714,-155.045 400.849,-114.289 406.403,-89.5091"/>
<polygon fill="midnightblue" stroke="midnightblue" points="409.834,-90.2026 408.606,-79.6792 403.004,-88.6716 409.834,-90.2026"/>
</g>
<!-- Node26&#45;&gt;Node13 -->
<g id="edge82" class="edge"><title>Node26&#45;&gt;Node13</title>
<path fill="none" stroke="midnightblue" d="M406.188,-174.497C424.462,-165.438 451.072,-152.246 471.615,-142.063"/>
<polygon fill="midnightblue" stroke="midnightblue" points="473.169,-145.199 480.574,-137.621 470.06,-138.927 473.169,-145.199"/>
</g>
<!-- Node26&#45;&gt;Node22 -->
<g id="edge86" class="edge"><title>Node26&#45;&gt;Node22</title>
<path fill="none" stroke="midnightblue" d="M380.048,-174.362C376.47,-166.677 371.532,-156.069 367.236,-146.84"/>
<polygon fill="midnightblue" stroke="midnightblue" points="370.314,-145.159 362.921,-137.571 363.968,-148.114 370.314,-145.159"/>
</g>
<!-- Node27&#45;&gt;Node2 -->
<g id="edge90" class="edge"><title>Node27&#45;&gt;Node2</title>
<path fill="none" stroke="midnightblue" d="M278.963,-470.722C222.351,-461.495 115,-434.098 115,-359 115,-359 115,-359 115,-243 115,-186.261 65.0186,-159.032 102,-116 119.523,-95.6106 295.095,-78.6231 373.512,-71.9895"/>
<polygon fill="midnightblue" stroke="midnightblue" points="374.231,-75.4418 383.906,-71.1229 373.649,-68.466 374.231,-75.4418"/>
</g>
<!-- Node28 -->
<g id="node74" class="node"><title>Node28</title>
<a xlink:href="abstractKernel_8h.html" target="_top" xlink:title="This class holds a convolution kernel.">
<polygon fill="none" stroke="black" points="265.5,-406.5 265.5,-427.5 360.5,-427.5 360.5,-406.5 265.5,-406.5"/>
<text text-anchor="middle" x="313" y="-414.5" font-family="FreeSans.ttf" font-size="10.00">abstractKernel.h</text>
</a>
</g>
<!-- Node27&#45;&gt;Node28 -->
<g id="edge92" class="edge"><title>Node27&#45;&gt;Node28</title>
<path fill="none" stroke="midnightblue" d="M313,-464.362C313,-456.922 313,-446.743 313,-437.728"/>
<polygon fill="midnightblue" stroke="midnightblue" points="316.5,-437.571 313,-427.571 309.5,-437.571 316.5,-437.571"/>
</g>
<!-- Node28&#45;&gt;Node2 -->
<g id="edge94" class="edge"><title>Node28&#45;&gt;Node2</title>
<path fill="none" stroke="midnightblue" d="M309.913,-406.334C298.638,-365.087 263.419,-213.491 324,-116 335.214,-97.9544 355.917,-86.3722 374.315,-79.2216"/>
<polygon fill="midnightblue" stroke="midnightblue" points="375.702,-82.4429 383.943,-75.7839 373.348,-75.8506 375.702,-82.4429"/>
</g>
<!-- Node28&#45;&gt;Node6 -->
<g id="edge96" class="edge"><title>Node28&#45;&gt;Node6</title>
<path fill="none" stroke="midnightblue" d="M348.856,-406.497C381.555,-396.918 430.026,-382.72 465.454,-372.342"/>
<polygon fill="midnightblue" stroke="midnightblue" points="466.464,-375.693 475.076,-369.523 464.496,-368.975 466.464,-375.693"/>
</g>
</g>
</svg>
        <g id="navigator" transform="translate(0 0)" fill="#404254">
                <rect fill="#f2f5e9" fill-opacity="0.5" stroke="#606060" stroke-width=".5" x="0" y="0" width="60" height="60"/>
                <use id="zoomplus" xlink:href="#zoomPlus" x="17" y="9" onmousedown="handleZoom(evt,'in')"/>
                <use id="zoomminus" xlink:href="#zoomMin" x="42" y="9" onmousedown="handleZoom(evt,'out')"/>
                <use id="reset" xlink:href="#resetDef" x="30" y="36" onmousedown="handleReset()"/>
                <g id="arrowUp" xlink:href="#dirArrow" transform="translate(30 24)" onmousedown="handlePan(0,-1)">
                  <use xlink:href="#rim" fill="#404040">
                        <set attributeName="fill" to="#808080" begin="arrowUp.mouseover" end="arrowUp.mouseout"/>
                  </use>
                  <path fill="none" stroke="white" stroke-width="1.5" d="M0,-3.0v7 M-2.5,-0.5L0,-3.0L2.5,-0.5"/>
                </g>
                <g id="arrowRight" xlink:href="#dirArrow" transform="rotate(90) translate(36 -43)" onmousedown="handlePan(1,0)">
                  <use xlink:href="#rim" fill="#404040">
                        <set attributeName="fill" to="#808080" begin="arrowRight.mouseover" end="arrowRight.mouseout"/>
                  </use>
                  <path fill="none" stroke="white" stroke-width="1.5" d="M0,-3.0v7 M-2.5,-0.5L0,-3.0L2.5,-0.5"/>
                </g>
                <g id="arrowDown" xlink:href="#dirArrow" transform="rotate(180) translate(-30 -48)" onmousedown="handlePan(0,1)">
                  <use xlink:href="#rim" fill="#404040">
                        <set attributeName="fill" to="#808080" begin="arrowDown.mouseover" end="arrowDown.mouseout"/>
                  </use>
                  <path fill="none" stroke="white" stroke-width="1.5" d="M0,-3.0v7 M-2.5,-0.5L0,-3.0L2.5,-0.5"/>
                </g>
                <g id="arrowLeft" xlink:href="#dirArrow" transform="rotate(270) translate(-36 17)" onmousedown="handlePan(-1,0)">
                  <use xlink:href="#rim" fill="#404040">
                        <set attributeName="fill" to="#808080" begin="arrowLeft.mouseover" end="arrowLeft.mouseout"/>
                  </use>
                  <path fill="none" stroke="white" stroke-width="1.5" d="M0,-3.0v7 M-2.5,-0.5L0,-3.0L2.5,-0.5"/>
                </g>
        </g>
</svg>
