<?xml version="1.0" encoding="UTF-8" standalone="no"?>
<!DOCTYPE svg PUBLIC "-//W3C//DTD SVG 1.1//EN"
 "http://www.w3.org/Graphics/SVG/1.1/DTD/svg11.dtd">
<!-- Generated by graphviz version 2.26.3 (20100126.1600)
 -->
<!-- Title: G Pages: 1 -->
<svg width="322pt" height="30pt"
 viewBox="0.00 0.00 322.00 30.00" xmlns="http://www.w3.org/2000/svg" xmlns:xlink="http://www.w3.org/1999/xlink">
<g id="graph1" class="graph" transform="scale(1 1) rotate(0) translate(4 26)">
<title>G</title>
<!-- Node1 -->
<g id="node1" class="node"><title>Node1</title>
<polygon fill="#bfbfbf" stroke="black" points="0.5,-0.5 0.5,-21.5 101.5,-21.5 101.5,-0.5 0.5,-0.5"/>
<text text-anchor="middle" x="51" y="-8.5" font-family="FreeSans.ttf" font-size="10.00">dec_checkmarker</text>
</g>
<!-- Node2 -->
<g id="node3" class="node"><title>Node2</title>
<a xlink:href="mjpegDecoder_8cpp.html#ac41a55c8cc37d44a58708bee12ac69fb" target="_top" xlink:title="dec_readmarker">
<polygon fill="none" stroke="black" points="138.5,-0.5 138.5,-21.5 233.5,-21.5 233.5,-0.5 138.5,-0.5"/>
<text text-anchor="middle" x="186" y="-8.5" font-family="FreeSans.ttf" font-size="10.00">dec_readmarker</text>
</a>
</g>
<!-- Node1&#45;&gt;Node2 -->
<g id="edge2" class="edge"><title>Node1&#45;&gt;Node2</title>
<path fill="none" stroke="midnightblue" d="M101.653,-11C110.257,-11 119.251,-11 128.026,-11"/>
<polygon fill="midnightblue" stroke="midnightblue" points="128.19,-14.5001 138.19,-11 128.19,-7.5001 128.19,-14.5001"/>
</g>
<!-- Node3 -->
<g id="node5" class="node"><title>Node3</title>
<a xlink:href="mjpegDecoder_8cpp.html#a6ab3e694b9bdf6bf8e039a027c2cccad" target="_top" xlink:title="fillbits">
<polygon fill="none" stroke="black" points="270,-0.5 270,-21.5 314,-21.5 314,-0.5 270,-0.5"/>
<text text-anchor="middle" x="292" y="-8.5" font-family="FreeSans.ttf" font-size="10.00">fillbits</text>
</a>
</g>
<!-- Node2&#45;&gt;Node3 -->
<g id="edge4" class="edge"><title>Node2&#45;&gt;Node3</title>
<path fill="none" stroke="midnightblue" d="M233.728,-11C242.516,-11 251.5,-11 259.699,-11"/>
<polygon fill="midnightblue" stroke="midnightblue" points="259.943,-14.5001 269.943,-11 259.943,-7.5001 259.943,-14.5001"/>
</g>
</g>
</svg>
