<?xml version="1.0" encoding="UTF-8" standalone="no"?>
<!DOCTYPE svg PUBLIC "-//W3C//DTD SVG 1.1//EN"
 "http://www.w3.org/Graphics/SVG/1.1/DTD/svg11.dtd">
<!-- Generated by graphviz version 2.26.3 (20100126.1600)
 -->
<!-- Title: G Pages: 1 -->
<!--zoomable 110 -->
<svg id="main" version="1.1" xmlns="http://www.w3.org/2000/svg" xmlns:xlink="http://www.w3.org/1999/xlink" xml:space="preserve" onload="init(evt)">
        <defs>
                <circle id="rim" cx="0" cy="0" r="7"/>
                <circle id="rim2" cx="0" cy="0" r="3.5"/>
                <g id="zoomPlus">
                        <use xlink:href="#rim" fill="#404040">
                                <set attributeName="fill" to="#808080" begin="zoomplus.mouseover" end="zoomplus.mouseout"/>
                        </use>
                        <path d="M-4,0h8M0,-4v8" fill="none" stroke="white" stroke-width="1.5" pointer-events="none"/>
                </g>
                <g id="zoomMin">
                        <use xlink:href="#rim" fill="#404040">
                                <set attributeName="fill" to="#808080" begin="zoomminus.mouseover" end="zoomminus.mouseout"/>
                        </use>
                        <path d="M-4,0h8" fill="none" stroke="white" stroke-width="1.5" pointer-events="none"/>
                </g>
                <g id="dirArrow">
                        <path fill="none" stroke="white" stroke-width="1.5" d="M0,-3.0v7 M-2.5,-0.5L0,-3.0L2.5,-0.5"/>
                </g>
               <g id="resetDef">
                       <use xlink:href="#rim2" fill="#404040">
                               <set attributeName="fill" to="#808080" begin="reset.mouseover" end="reset.mouseout"/>
                       </use>
               </g>
        </defs>

<script type="text/javascript">
var viewWidth = 518;
var viewHeight = 110;
var sectionId = 'dynsection-4';
</script>
<script xlink:href="svgpan.js"/>
<svg id="graph" class="graph">
<g id="viewport">
<title>G</title>
<!-- Node1 -->
<g id="node1" class="node"><title>Node1</title>
<polygon fill="#bfbfbf" stroke="black" points="0,-40.5 0,-61.5 106,-61.5 106,-40.5 0,-40.5"/>
<text text-anchor="middle" x="53" y="-48.5" font-family="FreeSans.ttf" font-size="10.00">corecvs::operator*</text>
</g>
<!-- Node2 -->
<g id="node3" class="node"><title>Node2</title>
<a xlink:href="classcorecvs_1_1Matrix.html#a5b8b00c8bfc66549652e6c0610457254" target="_top" xlink:title="The element getter for a matrix that is used like vector (i.e has height or width of 1)...">
<polygon fill="none" stroke="black" points="170.5,-80.5 170.5,-101.5 271.5,-101.5 271.5,-80.5 170.5,-80.5"/>
<text text-anchor="middle" x="221" y="-88.5" font-family="FreeSans.ttf" font-size="10.00">corecvs::Matrix::a</text>
</a>
</g>
<!-- Node1&#45;&gt;Node2 -->
<g id="edge2" class="edge"><title>Node1&#45;&gt;Node2</title>
<path fill="none" stroke="midnightblue" d="M97.14,-61.5095C118.566,-66.6108 144.495,-72.7845 167.081,-78.1622"/>
<polygon fill="midnightblue" stroke="midnightblue" points="166.325,-81.5798 176.863,-80.4913 167.946,-74.7702 166.325,-81.5798"/>
</g>
<!-- Node4 -->
<g id="node7" class="node"><title>Node4</title>
<a xlink:href="classcorecvs_1_1FixedArrayBase.html#ad7c89ede3622a41e4dfd179cf499f205" target="_top" xlink:title="corecvs::FixedArrayBase::at">
<polygon fill="none" stroke="black" points="146.5,-40.5 146.5,-61.5 295.5,-61.5 295.5,-40.5 146.5,-40.5"/>
<text text-anchor="middle" x="221" y="-48.5" font-family="FreeSans.ttf" font-size="10.00">corecvs::FixedArrayBase::at</text>
</a>
</g>
<!-- Node1&#45;&gt;Node4 -->
<g id="edge6" class="edge"><title>Node1&#45;&gt;Node4</title>
<path fill="none" stroke="midnightblue" d="M106.156,-51C115.745,-51 125.957,-51 136.185,-51"/>
<polygon fill="midnightblue" stroke="midnightblue" points="136.396,-54.5001 146.396,-51 136.396,-47.5001 136.396,-54.5001"/>
</g>
<!-- Node5 -->
<g id="node9" class="node"><title>Node5</title>
<a xlink:href="classcorecvs_1_1FixedArrayBase.html#abea4ed304b5caa5355e5707cbe408468" target="_top" xlink:title="corecvs::FixedArrayBase::size">
<polygon fill="none" stroke="black" points="142,-0.5 142,-21.5 300,-21.5 300,-0.5 142,-0.5"/>
<text text-anchor="middle" x="221" y="-8.5" font-family="FreeSans.ttf" font-size="10.00">corecvs::FixedArrayBase::size</text>
</a>
</g>
<!-- Node1&#45;&gt;Node5 -->
<g id="edge8" class="edge"><title>Node1&#45;&gt;Node5</title>
<path fill="none" stroke="midnightblue" d="M97.14,-40.4905C118.566,-35.3892 144.495,-29.2155 167.081,-23.8378"/>
<polygon fill="midnightblue" stroke="midnightblue" points="167.946,-27.2298 176.863,-21.5087 166.325,-20.4202 167.946,-27.2298"/>
</g>
<!-- Node3 -->
<g id="node5" class="node"><title>Node3</title>
<a xlink:href="classcorecvs_1_1AbstractBuffer.html#a98f72526738a0c4ce8a0b72a3b5c28b9" target="_top" xlink:title="The element getter.">
<polygon fill="none" stroke="black" points="336,-80.5 336,-101.5 510,-101.5 510,-80.5 336,-80.5"/>
<text text-anchor="middle" x="423" y="-88.5" font-family="FreeSans.ttf" font-size="10.00">corecvs::AbstractBuffer::element</text>
</a>
</g>
<!-- Node2&#45;&gt;Node3 -->
<g id="edge4" class="edge"><title>Node2&#45;&gt;Node3</title>
<path fill="none" stroke="midnightblue" d="M271.712,-91C288.157,-91 306.989,-91 325.655,-91"/>
<polygon fill="midnightblue" stroke="midnightblue" points="325.688,-94.5001 335.688,-91 325.688,-87.5001 325.688,-94.5001"/>
</g>
</g>
</svg>
        <g id="navigator" transform="translate(0 0)" fill="#404254">
                <rect fill="#f2f5e9" fill-opacity="0.5" stroke="#606060" stroke-width=".5" x="0" y="0" width="60" height="60"/>
                <use id="zoomplus" xlink:href="#zoomPlus" x="17" y="9" onmousedown="handleZoom(evt,'in')"/>
                <use id="zoomminus" xlink:href="#zoomMin" x="42" y="9" onmousedown="handleZoom(evt,'out')"/>
                <use id="reset" xlink:href="#resetDef" x="30" y="36" onmousedown="handleReset()"/>
                <g id="arrowUp" xlink:href="#dirArrow" transform="translate(30 24)" onmousedown="handlePan(0,-1)">
                  <use xlink:href="#rim" fill="#404040">
                        <set attributeName="fill" to="#808080" begin="arrowUp.mouseover" end="arrowUp.mouseout"/>
                  </use>
                  <path fill="none" stroke="white" stroke-width="1.5" d="M0,-3.0v7 M-2.5,-0.5L0,-3.0L2.5,-0.5"/>
                </g>
                <g id="arrowRight" xlink:href="#dirArrow" transform="rotate(90) translate(36 -43)" onmousedown="handlePan(1,0)">
                  <use xlink:href="#rim" fill="#404040">
                        <set attributeName="fill" to="#808080" begin="arrowRight.mouseover" end="arrowRight.mouseout"/>
                  </use>
                  <path fill="none" stroke="white" stroke-width="1.5" d="M0,-3.0v7 M-2.5,-0.5L0,-3.0L2.5,-0.5"/>
                </g>
                <g id="arrowDown" xlink:href="#dirArrow" transform="rotate(180) translate(-30 -48)" onmousedown="handlePan(0,1)">
                  <use xlink:href="#rim" fill="#404040">
                        <set attributeName="fill" to="#808080" begin="arrowDown.mouseover" end="arrowDown.mouseout"/>
                  </use>
                  <path fill="none" stroke="white" stroke-width="1.5" d="M0,-3.0v7 M-2.5,-0.5L0,-3.0L2.5,-0.5"/>
                </g>
                <g id="arrowLeft" xlink:href="#dirArrow" transform="rotate(270) translate(-36 17)" onmousedown="handlePan(-1,0)">
                  <use xlink:href="#rim" fill="#404040">
                        <set attributeName="fill" to="#808080" begin="arrowLeft.mouseover" end="arrowLeft.mouseout"/>
                  </use>
                  <path fill="none" stroke="white" stroke-width="1.5" d="M0,-3.0v7 M-2.5,-0.5L0,-3.0L2.5,-0.5"/>
                </g>
        </g>
</svg>
