<?xml version="1.0" encoding="UTF-8" standalone="no"?>
<!DOCTYPE svg PUBLIC "-//W3C//DTD SVG 1.1//EN"
 "http://www.w3.org/Graphics/SVG/1.1/DTD/svg11.dtd">
<!-- Generated by graphviz version 2.26.3 (20100126.1600)
 -->
<!-- Title: G Pages: 1 -->
<svg width="248pt" height="110pt"
 viewBox="0.00 0.00 248.00 110.00" xmlns="http://www.w3.org/2000/svg" xmlns:xlink="http://www.w3.org/1999/xlink">
<g id="graph1" class="graph" transform="scale(1 1) rotate(0) translate(4 106)">
<title>G</title>
<!-- Node1 -->
<g id="node1" class="node"><title>Node1</title>
<polygon fill="#bfbfbf" stroke="black" points="0,-40.5 0,-61.5 90,-61.5 90,-40.5 0,-40.5"/>
<text text-anchor="middle" x="45" y="-48.5" font-family="FreeSans.ttf" font-size="10.00">corecvs::Rotate</text>
</g>
<!-- Node2 -->
<g id="node3" class="node"><title>Node2</title>
<a xlink:href="classcorecvs_1_1Vector3d.html#aec83d9ad04107cd9c2bb11abf33128c0" target="_top" xlink:title="Helper functions to access elements.">
<polygon fill="none" stroke="black" points="126.5,-80.5 126.5,-101.5 239.5,-101.5 239.5,-80.5 126.5,-80.5"/>
<text text-anchor="middle" x="183" y="-88.5" font-family="FreeSans.ttf" font-size="10.00">corecvs::Vector3d::x</text>
</a>
</g>
<!-- Node1&#45;&gt;Node2 -->
<g id="edge2" class="edge"><title>Node1&#45;&gt;Node2</title>
<path fill="none" stroke="midnightblue" d="M81.2579,-61.5095C98.2376,-66.4312 118.661,-72.351 136.74,-77.5912"/>
<polygon fill="midnightblue" stroke="midnightblue" points="135.926,-80.9994 146.505,-80.4218 137.875,-74.2761 135.926,-80.9994"/>
</g>
<!-- Node3 -->
<g id="node5" class="node"><title>Node3</title>
<a xlink:href="classcorecvs_1_1Vector3d.html#a940d88447f20fac800d1fa510c981275" target="_top" xlink:title="corecvs::Vector3d::y">
<polygon fill="none" stroke="black" points="126.5,-40.5 126.5,-61.5 239.5,-61.5 239.5,-40.5 126.5,-40.5"/>
<text text-anchor="middle" x="183" y="-48.5" font-family="FreeSans.ttf" font-size="10.00">corecvs::Vector3d::y</text>
</a>
</g>
<!-- Node1&#45;&gt;Node3 -->
<g id="edge4" class="edge"><title>Node1&#45;&gt;Node3</title>
<path fill="none" stroke="midnightblue" d="M90.1864,-51C98.4352,-51 107.201,-51 115.927,-51"/>
<polygon fill="midnightblue" stroke="midnightblue" points="116.117,-54.5001 126.117,-51 116.117,-47.5001 116.117,-54.5001"/>
</g>
<!-- Node4 -->
<g id="node7" class="node"><title>Node4</title>
<a xlink:href="classcorecvs_1_1Vector3d.html#a4587f5d4984576c5c4c2d44a4140ce3f" target="_top" xlink:title="corecvs::Vector3d::z">
<polygon fill="none" stroke="black" points="126.5,-0.5 126.5,-21.5 239.5,-21.5 239.5,-0.5 126.5,-0.5"/>
<text text-anchor="middle" x="183" y="-8.5" font-family="FreeSans.ttf" font-size="10.00">corecvs::Vector3d::z</text>
</a>
</g>
<!-- Node1&#45;&gt;Node4 -->
<g id="edge6" class="edge"><title>Node1&#45;&gt;Node4</title>
<path fill="none" stroke="midnightblue" d="M81.2579,-40.4905C98.2376,-35.5688 118.661,-29.649 136.74,-24.4088"/>
<polygon fill="midnightblue" stroke="midnightblue" points="137.875,-27.7239 146.505,-21.5782 135.926,-21.0006 137.875,-27.7239"/>
</g>
</g>
</svg>
