<?xml version="1.0" encoding="UTF-8" standalone="no"?>
<!DOCTYPE svg PUBLIC "-//W3C//DTD SVG 1.1//EN"
 "http://www.w3.org/Graphics/SVG/1.1/DTD/svg11.dtd">
<!-- Generated by graphviz version 2.26.3 (20100126.1600)
 -->
<!-- Title: G Pages: 1 -->
<svg width="392pt" height="70pt"
 viewBox="0.00 0.00 392.00 70.00" xmlns="http://www.w3.org/2000/svg" xmlns:xlink="http://www.w3.org/1999/xlink">
<g id="graph1" class="graph" transform="scale(1 1) rotate(0) translate(4 66)">
<title>G</title>
<!-- Node1 -->
<g id="node1" class="node"><title>Node1</title>
<polygon fill="#bfbfbf" stroke="black" points="0,-20.5 0,-41.5 234,-41.5 234,-20.5 0,-20.5"/>
<text text-anchor="middle" x="117" y="-28.5" font-family="FreeSans.ttf" font-size="10.00">corecvs::getInputDisparity&lt; DisparityBuffer &gt;</text>
</g>
<!-- Node2 -->
<g id="node3" class="node"><title>Node2</title>
<a xlink:href="classcorecvs_1_1Vector2d.html#a944721c41f044c1388d9dc42ca899bce" target="_top" xlink:title="corecvs::Vector2d::x">
<polygon fill="none" stroke="black" points="270.5,-40.5 270.5,-61.5 383.5,-61.5 383.5,-40.5 270.5,-40.5"/>
<text text-anchor="middle" x="327" y="-48.5" font-family="FreeSans.ttf" font-size="10.00">corecvs::Vector2d::x</text>
</a>
</g>
<!-- Node1&#45;&gt;Node2 -->
<g id="edge2" class="edge"><title>Node1&#45;&gt;Node2</title>
<path fill="none" stroke="midnightblue" d="M227.535,-41.5271C238.651,-42.5858 249.685,-43.6366 260.135,-44.6319"/>
<polygon fill="midnightblue" stroke="midnightblue" points="260.085,-48.1429 270.372,-45.6069 260.749,-41.1744 260.085,-48.1429"/>
</g>
<!-- Node3 -->
<g id="node5" class="node"><title>Node3</title>
<a xlink:href="classcorecvs_1_1Vector2d.html#ae1ea2ad4c0821001408bf963cffa8413" target="_top" xlink:title="corecvs::Vector2d::y">
<polygon fill="none" stroke="black" points="270.5,-0.5 270.5,-21.5 383.5,-21.5 383.5,-0.5 270.5,-0.5"/>
<text text-anchor="middle" x="327" y="-8.5" font-family="FreeSans.ttf" font-size="10.00">corecvs::Vector2d::y</text>
</a>
</g>
<!-- Node1&#45;&gt;Node3 -->
<g id="edge4" class="edge"><title>Node1&#45;&gt;Node3</title>
<path fill="none" stroke="midnightblue" d="M227.535,-20.4729C238.651,-19.4142 249.685,-18.3634 260.135,-17.3681"/>
<polygon fill="midnightblue" stroke="midnightblue" points="260.749,-20.8256 270.372,-16.3931 260.085,-13.8571 260.749,-20.8256"/>
</g>
</g>
</svg>
