<?xml version="1.0" encoding="UTF-8" standalone="no"?>
<!DOCTYPE svg PUBLIC "-//W3C//DTD SVG 1.1//EN"
 "http://www.w3.org/Graphics/SVG/1.1/DTD/svg11.dtd">
<!-- Generated by graphviz version 2.26.3 (20100126.1600)
 -->
<!-- Title: G Pages: 1 -->
<svg width="476pt" height="378pt"
 viewBox="0.00 0.00 476.00 378.00" xmlns="http://www.w3.org/2000/svg" xmlns:xlink="http://www.w3.org/1999/xlink">
<g id="graph1" class="graph" transform="scale(1 1) rotate(0) translate(4 374)">
<title>G</title>
<!-- Node1 -->
<g id="node1" class="node"><title>Node1</title>
<polygon fill="#bfbfbf" stroke="black" points="328,-348.5 328,-369.5 468,-369.5 468,-348.5 328,-348.5"/>
<text text-anchor="middle" x="398" y="-356.5" font-family="FreeSans.ttf" font-size="10.00">core/math/neon/int32x8.h</text>
</g>
<!-- Node2 -->
<g id="node3" class="node"><title>Node2</title>
<a xlink:href="global_8h.html" target="_top" xlink:title="This file holds the global includes, mostly for debuging, tracing and profiling.">
<polygon fill="none" stroke="black" points="406,-58.5 406,-79.5 460,-79.5 460,-58.5 406,-58.5"/>
<text text-anchor="middle" x="433" y="-66.5" font-family="FreeSans.ttf" font-size="10.00">global.h</text>
</a>
</g>
<!-- Node1&#45;&gt;Node2 -->
<g id="edge2" class="edge"><title>Node1&#45;&gt;Node2</title>
<path fill="none" stroke="midnightblue" d="M404.105,-348.191C414.847,-328.127 436,-283.477 436,-243 436,-243 436,-243 436,-185 436,-151.587 434.741,-112.777 433.854,-89.5898"/>
<polygon fill="midnightblue" stroke="midnightblue" points="437.35,-89.4071 433.456,-79.5537 430.355,-89.6847 437.35,-89.4071"/>
</g>
<!-- Node4 -->
<g id="node7" class="node"><title>Node4</title>
<a xlink:href="vector2d_8h.html" target="_top" xlink:title="Add Comment Here.">
<polygon fill="none" stroke="black" points="326,-290.5 326,-311.5 394,-311.5 394,-290.5 326,-290.5"/>
<text text-anchor="middle" x="360" y="-298.5" font-family="FreeSans.ttf" font-size="10.00">vector2d.h</text>
</a>
</g>
<!-- Node1&#45;&gt;Node4 -->
<g id="edge6" class="edge"><title>Node1&#45;&gt;Node4</title>
<path fill="none" stroke="midnightblue" d="M391.03,-348.362C385.834,-340.431 378.599,-329.389 372.422,-319.961"/>
<polygon fill="midnightblue" stroke="midnightblue" points="375.334,-318.017 366.926,-311.571 369.478,-321.853 375.334,-318.017"/>
</g>
<!-- Node3 -->
<g id="node5" class="node"><title>Node3</title>
<polygon fill="none" stroke="#bfbfbf" points="401,-0.5 401,-21.5 465,-21.5 465,-0.5 401,-0.5"/>
<text text-anchor="middle" x="433" y="-8.5" font-family="FreeSans.ttf" font-size="10.00">inttypes.h</text>
</g>
<!-- Node2&#45;&gt;Node3 -->
<g id="edge4" class="edge"><title>Node2&#45;&gt;Node3</title>
<path fill="none" stroke="midnightblue" d="M433,-58.3619C433,-50.9219 433,-40.7427 433,-31.7276"/>
<polygon fill="midnightblue" stroke="midnightblue" points="436.5,-31.5706 433,-21.5707 429.5,-31.5707 436.5,-31.5706"/>
</g>
<!-- Node4&#45;&gt;Node2 -->
<g id="edge12" class="edge"><title>Node4&#45;&gt;Node2</title>
<path fill="none" stroke="midnightblue" d="M363.471,-290.178C366.522,-280.655 371.073,-266.413 375,-254 393.87,-194.346 415.916,-123.785 426.577,-89.6074"/>
<polygon fill="midnightblue" stroke="midnightblue" points="429.984,-90.4378 429.62,-79.8492 423.302,-88.3539 429.984,-90.4378"/>
</g>
<!-- Node5 -->
<g id="node9" class="node"><title>Node5</title>
<polygon fill="none" stroke="#bfbfbf" points="281.5,-116.5 281.5,-137.5 332.5,-137.5 332.5,-116.5 281.5,-116.5"/>
<text text-anchor="middle" x="307" y="-124.5" font-family="FreeSans.ttf" font-size="10.00">math.h</text>
</g>
<!-- Node4&#45;&gt;Node5 -->
<g id="edge8" class="edge"><title>Node4&#45;&gt;Node5</title>
<path fill="none" stroke="midnightblue" d="M356.764,-290.377C348.173,-262.172 324.67,-185.012 313.311,-147.72"/>
<polygon fill="midnightblue" stroke="midnightblue" points="316.591,-146.474 310.329,-137.928 309.894,-148.514 316.591,-146.474"/>
</g>
<!-- Node6 -->
<g id="node11" class="node"><title>Node6</title>
<polygon fill="none" stroke="#bfbfbf" points="335.5,-58.5 335.5,-79.5 388.5,-79.5 388.5,-58.5 335.5,-58.5"/>
<text text-anchor="middle" x="362" y="-66.5" font-family="FreeSans.ttf" font-size="10.00">stdint.h</text>
</g>
<!-- Node4&#45;&gt;Node6 -->
<g id="edge10" class="edge"><title>Node4&#45;&gt;Node6</title>
<path fill="none" stroke="midnightblue" d="M360.091,-290.429C360.4,-254.648 361.408,-137.663 361.821,-89.7481"/>
<polygon fill="midnightblue" stroke="midnightblue" points="365.322,-89.6633 361.908,-79.6335 358.322,-89.6029 365.322,-89.6633"/>
</g>
<!-- Node7 -->
<g id="node14" class="node"><title>Node7</title>
<a xlink:href="fixedVector_8h.html" target="_top" xlink:title="This file holds the description of the commonly used template &#45; a vector with the fixed number of com...">
<polygon fill="none" stroke="black" points="108,-232.5 108,-253.5 186,-253.5 186,-232.5 108,-232.5"/>
<text text-anchor="middle" x="147" y="-240.5" font-family="FreeSans.ttf" font-size="10.00">fixedVector.h</text>
</a>
</g>
<!-- Node4&#45;&gt;Node7 -->
<g id="edge14" class="edge"><title>Node4&#45;&gt;Node7</title>
<path fill="none" stroke="midnightblue" d="M325.778,-291.681C290.544,-282.087 235.328,-267.052 195.58,-256.228"/>
<polygon fill="midnightblue" stroke="midnightblue" points="196.398,-252.824 185.829,-253.573 194.559,-259.578 196.398,-252.824"/>
</g>
<!-- Node8 -->
<g id="node16" class="node"><title>Node8</title>
<polygon fill="none" stroke="#bfbfbf" points="-0.5,-58.5 -0.5,-79.5 48.5,-79.5 48.5,-58.5 -0.5,-58.5"/>
<text text-anchor="middle" x="24" y="-66.5" font-family="FreeSans.ttf" font-size="10.00">stdio.h</text>
</g>
<!-- Node7&#45;&gt;Node8 -->
<g id="edge16" class="edge"><title>Node7&#45;&gt;Node8</title>
<path fill="none" stroke="midnightblue" d="M127.895,-232.464C100.72,-216.256 51.9838,-182.371 32,-138 25.2008,-122.903 23.3936,-104.153 23.1794,-90.0104"/>
<polygon fill="midnightblue" stroke="midnightblue" points="26.6812,-89.8495 23.2843,-79.814 19.6815,-89.7774 26.6812,-89.8495"/>
</g>
<!-- Node9 -->
<g id="node18" class="node"><title>Node9</title>
<a xlink:href="vectorOperations_8h.html" target="_top" xlink:title="This file holds the operations that are commonly used with continuous linear data structures such as ...">
<polygon fill="none" stroke="black" points="93,-174.5 93,-195.5 201,-195.5 201,-174.5 93,-174.5"/>
<text text-anchor="middle" x="147" y="-182.5" font-family="FreeSans.ttf" font-size="10.00">vectorOperations.h</text>
</a>
</g>
<!-- Node7&#45;&gt;Node9 -->
<g id="edge18" class="edge"><title>Node7&#45;&gt;Node9</title>
<path fill="none" stroke="midnightblue" d="M147,-232.362C147,-224.922 147,-214.743 147,-205.728"/>
<polygon fill="midnightblue" stroke="midnightblue" points="150.5,-205.571 147,-195.571 143.5,-205.571 150.5,-205.571"/>
</g>
<!-- Node9&#45;&gt;Node5 -->
<g id="edge26" class="edge"><title>Node9&#45;&gt;Node5</title>
<path fill="none" stroke="midnightblue" d="M175.975,-174.497C202.881,-164.743 243.002,-150.199 271.753,-139.777"/>
<polygon fill="midnightblue" stroke="midnightblue" points="273.2,-142.976 281.408,-136.277 270.814,-136.395 273.2,-142.976"/>
</g>
<!-- Node9&#45;&gt;Node8 -->
<g id="edge24" class="edge"><title>Node9&#45;&gt;Node8</title>
<path fill="none" stroke="midnightblue" d="M108.711,-174.412C88.5636,-167.103 64.8276,-155.488 49,-138 36.7537,-124.469 30.385,-104.479 27.1504,-89.4936"/>
<polygon fill="midnightblue" stroke="midnightblue" points="30.5849,-88.8185 25.3098,-79.6303 23.7037,-90.1027 30.5849,-88.8185"/>
</g>
<!-- Node10 -->
<g id="node20" class="node"><title>Node10</title>
<polygon fill="none" stroke="#bfbfbf" points="58,-116.5 58,-137.5 100,-137.5 100,-116.5 58,-116.5"/>
<text text-anchor="middle" x="79" y="-124.5" font-family="FreeSans.ttf" font-size="10.00">limits</text>
</g>
<!-- Node9&#45;&gt;Node10 -->
<g id="edge20" class="edge"><title>Node9&#45;&gt;Node10</title>
<path fill="none" stroke="midnightblue" d="M134.528,-174.362C124.655,-165.941 110.667,-154.011 99.2016,-144.231"/>
<polygon fill="midnightblue" stroke="midnightblue" points="101.273,-141.397 91.3932,-137.571 96.7302,-146.723 101.273,-141.397"/>
</g>
<!-- Node11 -->
<g id="node22" class="node"><title>Node11</title>
<polygon fill="none" stroke="#bfbfbf" points="117.5,-116.5 117.5,-137.5 176.5,-137.5 176.5,-116.5 117.5,-116.5"/>
<text text-anchor="middle" x="147" y="-124.5" font-family="FreeSans.ttf" font-size="10.00">iostream</text>
</g>
<!-- Node9&#45;&gt;Node11 -->
<g id="edge22" class="edge"><title>Node9&#45;&gt;Node11</title>
<path fill="none" stroke="midnightblue" d="M147,-174.362C147,-166.922 147,-156.743 147,-147.728"/>
<polygon fill="midnightblue" stroke="midnightblue" points="150.5,-147.571 147,-137.571 143.5,-147.571 150.5,-147.571"/>
</g>
<!-- Node12 -->
<g id="node26" class="node"><title>Node12</title>
<a xlink:href="reflection_8h.html" target="_top" xlink:title="a header for Reflection.c">
<polygon fill="none" stroke="black" points="194,-116.5 194,-137.5 264,-137.5 264,-116.5 194,-116.5"/>
<text text-anchor="middle" x="229" y="-124.5" font-family="FreeSans.ttf" font-size="10.00">reflection.h</text>
</a>
</g>
<!-- Node9&#45;&gt;Node12 -->
<g id="edge28" class="edge"><title>Node9&#45;&gt;Node12</title>
<path fill="none" stroke="midnightblue" d="M162.04,-174.362C174.293,-165.696 191.799,-153.313 205.839,-143.382"/>
<polygon fill="midnightblue" stroke="midnightblue" points="207.912,-146.203 214.055,-137.571 203.87,-140.488 207.912,-146.203"/>
</g>
<!-- Node12&#45;&gt;Node2 -->
<g id="edge42" class="edge"><title>Node12&#45;&gt;Node2</title>
<path fill="none" stroke="midnightblue" d="M264.142,-117.43C296.119,-108.664 344.865,-95.157 395.984,-80.2555"/>
<polygon fill="midnightblue" stroke="midnightblue" points="397.278,-83.5238 405.894,-77.3578 395.313,-76.8052 397.278,-83.5238"/>
</g>
<!-- Node12&#45;&gt;Node6 -->
<g id="edge38" class="edge"><title>Node12&#45;&gt;Node6</title>
<path fill="none" stroke="midnightblue" d="M253.085,-116.497C274.139,-107.315 304.927,-93.8889 328.402,-83.6516"/>
<polygon fill="midnightblue" stroke="midnightblue" points="329.877,-86.8268 337.644,-79.6212 327.079,-80.4104 329.877,-86.8268"/>
</g>
<!-- Node12&#45;&gt;Node8 -->
<g id="edge36" class="edge"><title>Node12&#45;&gt;Node8</title>
<path fill="none" stroke="midnightblue" d="M193.92,-118.018C161.09,-109.48 110.474,-95.975 58.53,-80.3727"/>
<polygon fill="midnightblue" stroke="midnightblue" points="59.4045,-76.9807 48.8195,-77.4357 57.378,-83.6809 59.4045,-76.9807"/>
</g>
<!-- Node13 -->
<g id="node28" class="node"><title>Node13</title>
<polygon fill="none" stroke="#bfbfbf" points="139.5,-58.5 139.5,-79.5 186.5,-79.5 186.5,-58.5 139.5,-58.5"/>
<text text-anchor="middle" x="163" y="-66.5" font-family="FreeSans.ttf" font-size="10.00">vector</text>
</g>
<!-- Node12&#45;&gt;Node13 -->
<g id="edge30" class="edge"><title>Node12&#45;&gt;Node13</title>
<path fill="none" stroke="midnightblue" d="M216.895,-116.362C207.312,-107.941 193.736,-96.0105 182.607,-86.2308"/>
<polygon fill="midnightblue" stroke="midnightblue" points="184.851,-83.5427 175.029,-79.5707 180.23,-88.8009 184.851,-83.5427"/>
</g>
<!-- Node14 -->
<g id="node30" class="node"><title>Node14</title>
<polygon fill="none" stroke="#bfbfbf" points="204,-58.5 204,-79.5 248,-79.5 248,-58.5 204,-58.5"/>
<text text-anchor="middle" x="226" y="-66.5" font-family="FreeSans.ttf" font-size="10.00">string</text>
</g>
<!-- Node12&#45;&gt;Node14 -->
<g id="edge32" class="edge"><title>Node12&#45;&gt;Node14</title>
<path fill="none" stroke="midnightblue" d="M228.45,-116.362C228.065,-108.922 227.538,-98.7427 227.072,-89.7276"/>
<polygon fill="midnightblue" stroke="midnightblue" points="230.559,-89.3765 226.547,-79.5707 223.568,-89.7381 230.559,-89.3765"/>
</g>
<!-- Node15 -->
<g id="node32" class="node"><title>Node15</title>
<polygon fill="none" stroke="#bfbfbf" points="265.5,-58.5 265.5,-79.5 318.5,-79.5 318.5,-58.5 265.5,-58.5"/>
<text text-anchor="middle" x="292" y="-66.5" font-family="FreeSans.ttf" font-size="10.00">string.h</text>
</g>
<!-- Node12&#45;&gt;Node15 -->
<g id="edge34" class="edge"><title>Node12&#45;&gt;Node15</title>
<path fill="none" stroke="midnightblue" d="M240.555,-116.362C249.613,-108.023 262.41,-96.2418 272.974,-86.5162"/>
<polygon fill="midnightblue" stroke="midnightblue" points="275.532,-88.9187 280.518,-79.5707 270.79,-83.7688 275.532,-88.9187"/>
</g>
<!-- Node16 -->
<g id="node36" class="node"><title>Node16</title>
<polygon fill="none" stroke="#bfbfbf" points="66,-58.5 66,-79.5 122,-79.5 122,-58.5 66,-58.5"/>
<text text-anchor="middle" x="94" y="-66.5" font-family="FreeSans.ttf" font-size="10.00">stdarg.h</text>
</g>
<!-- Node12&#45;&gt;Node16 -->
<g id="edge40" class="edge"><title>Node12&#45;&gt;Node16</title>
<path fill="none" stroke="midnightblue" d="M204.553,-116.497C183.182,-107.315 151.931,-93.8889 128.103,-83.6516"/>
<polygon fill="midnightblue" stroke="midnightblue" points="129.291,-80.3529 118.722,-79.6212 126.528,-86.7845 129.291,-80.3529"/>
</g>
</g>
</svg>
