<?xml version="1.0" encoding="UTF-8" standalone="no"?>
<!DOCTYPE svg PUBLIC "-//W3C//DTD SVG 1.1//EN"
 "http://www.w3.org/Graphics/SVG/1.1/DTD/svg11.dtd">
<!-- Generated by graphviz version 2.26.3 (20100126.1600)
 -->
<!-- Title: G Pages: 1 -->
<!--zoomable 378 -->
<svg id="main" version="1.1" xmlns="http://www.w3.org/2000/svg" xmlns:xlink="http://www.w3.org/1999/xlink" xml:space="preserve" onload="init(evt)">
        <defs>
                <circle id="rim" cx="0" cy="0" r="7"/>
                <circle id="rim2" cx="0" cy="0" r="3.5"/>
                <g id="zoomPlus">
                        <use xlink:href="#rim" fill="#404040">
                                <set attributeName="fill" to="#808080" begin="zoomplus.mouseover" end="zoomplus.mouseout"/>
                        </use>
                        <path d="M-4,0h8M0,-4v8" fill="none" stroke="white" stroke-width="1.5" pointer-events="none"/>
                </g>
                <g id="zoomMin">
                        <use xlink:href="#rim" fill="#404040">
                                <set attributeName="fill" to="#808080" begin="zoomminus.mouseover" end="zoomminus.mouseout"/>
                        </use>
                        <path d="M-4,0h8" fill="none" stroke="white" stroke-width="1.5" pointer-events="none"/>
                </g>
                <g id="dirArrow">
                        <path fill="none" stroke="white" stroke-width="1.5" d="M0,-3.0v7 M-2.5,-0.5L0,-3.0L2.5,-0.5"/>
                </g>
               <g id="resetDef">
                       <use xlink:href="#rim2" fill="#404040">
                               <set attributeName="fill" to="#808080" begin="reset.mouseover" end="reset.mouseout"/>
                       </use>
               </g>
        </defs>

<script type="text/javascript">
var viewWidth = 970;
var viewHeight = 378;
var sectionId = 'dynsection-0';
</script>
<script xlink:href="svgpan.js"/>
<svg id="graph" class="graph">
<g id="viewport">
<title>G</title>
<!-- Node1 -->
<g id="node1" class="node"><title>Node1</title>
<polygon fill="#bfbfbf" stroke="black" points="523,-348.5 523,-369.5 865,-369.5 865,-348.5 523,-348.5"/>
<text text-anchor="middle" x="694" y="-356.5" font-family="FreeSans.ttf" font-size="10.00">utils/corestructs/libWidgets/openCVBMParametersControlWidget.cpp</text>
</g>
<!-- Node2 -->
<g id="node3" class="node"><title>Node2</title>
<a xlink:href="openCVBMParametersControlWidget_8h.html" target="_top" xlink:title="openCVBMParametersControlWidget.h">
<polygon fill="none" stroke="black" points="292,-290.5 292,-311.5 492,-311.5 492,-290.5 292,-290.5"/>
<text text-anchor="middle" x="392" y="-298.5" font-family="FreeSans.ttf" font-size="10.00">openCVBMParametersControlWidget.h</text>
</a>
</g>
<!-- Node1&#45;&gt;Node2 -->
<g id="edge2" class="edge"><title>Node1&#45;&gt;Node2</title>
<path fill="none" stroke="midnightblue" d="M639.31,-348.497C587.945,-338.632 511.061,-323.866 456.675,-313.421"/>
<polygon fill="midnightblue" stroke="midnightblue" points="457.273,-309.972 446.792,-311.523 455.953,-316.846 457.273,-309.972"/>
</g>
<!-- Node17 -->
<g id="node37" class="node"><title>Node17</title>
<polygon fill="none" stroke="#bfbfbf" points="496,-232.5 496,-253.5 710,-253.5 710,-232.5 496,-232.5"/>
<text text-anchor="middle" x="603" y="-240.5" font-family="FreeSans.ttf" font-size="10.00">ui_openCVBMParametersControlWidget.h</text>
</g>
<!-- Node1&#45;&gt;Node17 -->
<g id="edge88" class="edge"><title>Node1&#45;&gt;Node17</title>
<path fill="none" stroke="midnightblue" d="M685.602,-348.295C670.162,-328.613 637.086,-286.45 617.801,-261.867"/>
<polygon fill="midnightblue" stroke="midnightblue" points="620.304,-259.387 611.378,-253.679 614.796,-263.707 620.304,-259.387"/>
</g>
<!-- Node20 -->
<g id="node45" class="node"><title>Node20</title>
<a xlink:href="qSettingsSetter_8h.html" target="_top" xlink:title="visitors/qSettingsSetter.h">
<polygon fill="none" stroke="black" points="669.5,-174.5 669.5,-195.5 806.5,-195.5 806.5,-174.5 669.5,-174.5"/>
<text text-anchor="middle" x="738" y="-182.5" font-family="FreeSans.ttf" font-size="10.00">visitors/qSettingsSetter.h</text>
</a>
</g>
<!-- Node1&#45;&gt;Node20 -->
<g id="edge92" class="edge"><title>Node1&#45;&gt;Node20</title>
<path fill="none" stroke="midnightblue" d="M696.686,-348.377C703.819,-320.172 723.33,-243.012 732.76,-205.72"/>
<polygon fill="midnightblue" stroke="midnightblue" points="736.178,-206.481 735.237,-195.928 729.392,-204.764 736.178,-206.481"/>
</g>
<!-- Node26 -->
<g id="node61" class="node"><title>Node26</title>
<a xlink:href="qSettingsGetter_8h.html" target="_top" xlink:title="visitors/qSettingsGetter.h">
<polygon fill="none" stroke="black" points="824,-174.5 824,-195.5 962,-195.5 962,-174.5 824,-174.5"/>
<text text-anchor="middle" x="893" y="-182.5" font-family="FreeSans.ttf" font-size="10.00">visitors/qSettingsGetter.h</text>
</a>
</g>
<!-- Node1&#45;&gt;Node26 -->
<g id="edge90" class="edge"><title>Node1&#45;&gt;Node26</title>
<path fill="none" stroke="midnightblue" d="M706.149,-348.377C739.386,-319.316 832.06,-238.284 873.056,-202.438"/>
<polygon fill="midnightblue" stroke="midnightblue" points="875.533,-204.922 880.757,-195.705 870.925,-199.652 875.533,-204.922"/>
</g>
<!-- Node3 -->
<g id="node5" class="node"><title>Node3</title>
<polygon fill="none" stroke="#bfbfbf" points="49,-232.5 49,-253.5 135,-253.5 135,-232.5 49,-232.5"/>
<text text-anchor="middle" x="92" y="-240.5" font-family="FreeSans.ttf" font-size="10.00">QtGui/QWidget</text>
</g>
<!-- Node2&#45;&gt;Node3 -->
<g id="edge4" class="edge"><title>Node2&#45;&gt;Node3</title>
<path fill="none" stroke="midnightblue" d="M334.305,-290.423C286.259,-281.534 215.775,-268.306 145.089,-254.191"/>
<polygon fill="midnightblue" stroke="midnightblue" points="145.608,-250.726 135.116,-252.194 144.234,-257.59 145.608,-250.726"/>
</g>
<!-- Node4 -->
<g id="node7" class="node"><title>Node4</title>
<a xlink:href="openCVBMParameters_8h.html" target="_top" xlink:title="openCVBMParameters.h">
<polygon fill="none" stroke="black" points="153,-232.5 153,-253.5 287,-253.5 287,-232.5 153,-232.5"/>
<text text-anchor="middle" x="220" y="-240.5" font-family="FreeSans.ttf" font-size="10.00">openCVBMParameters.h</text>
</a>
</g>
<!-- Node2&#45;&gt;Node4 -->
<g id="edge6" class="edge"><title>Node2&#45;&gt;Node4</title>
<path fill="none" stroke="midnightblue" d="M360.852,-290.497C332.811,-281.041 291.418,-267.083 260.755,-256.743"/>
<polygon fill="midnightblue" stroke="midnightblue" points="261.8,-253.402 251.206,-253.523 259.564,-260.035 261.8,-253.402"/>
</g>
<!-- Node2&#45;&gt;Node17 -->
<g id="edge40" class="edge"><title>Node2&#45;&gt;Node17</title>
<path fill="none" stroke="midnightblue" d="M430.211,-290.497C465.205,-280.877 517.152,-266.598 554.947,-256.209"/>
<polygon fill="midnightblue" stroke="midnightblue" points="556.003,-259.548 564.718,-253.523 554.148,-252.799 556.003,-259.548"/>
</g>
<!-- Node18 -->
<g id="node39" class="node"><title>Node18</title>
<a xlink:href="parametersControlWidgetBase_8h.html" target="_top" xlink:title="parametersControlWidgetBase.h">
<polygon fill="none" stroke="black" points="305.5,-232.5 305.5,-253.5 478.5,-253.5 478.5,-232.5 305.5,-232.5"/>
<text text-anchor="middle" x="392" y="-240.5" font-family="FreeSans.ttf" font-size="10.00">parametersControlWidgetBase.h</text>
</a>
</g>
<!-- Node2&#45;&gt;Node18 -->
<g id="edge42" class="edge"><title>Node2&#45;&gt;Node18</title>
<path fill="none" stroke="midnightblue" d="M392,-290.362C392,-282.922 392,-272.743 392,-263.728"/>
<polygon fill="midnightblue" stroke="midnightblue" points="395.5,-263.571 392,-253.571 388.5,-263.571 395.5,-263.571"/>
</g>
<!-- Node5 -->
<g id="node9" class="node"><title>Node5</title>
<a xlink:href="reflection_8h.html" target="_top" xlink:title="a header for Reflection.c">
<polygon fill="none" stroke="black" points="292,-116.5 292,-137.5 362,-137.5 362,-116.5 292,-116.5"/>
<text text-anchor="middle" x="327" y="-124.5" font-family="FreeSans.ttf" font-size="10.00">reflection.h</text>
</a>
</g>
<!-- Node4&#45;&gt;Node5 -->
<g id="edge8" class="edge"><title>Node4&#45;&gt;Node5</title>
<path fill="none" stroke="midnightblue" d="M229.875,-232.295C248.188,-212.441 287.605,-169.709 310.19,-145.224"/>
<polygon fill="midnightblue" stroke="midnightblue" points="312.942,-147.403 317.149,-137.679 307.796,-142.657 312.942,-147.403"/>
</g>
<!-- Node14 -->
<g id="node27" class="node"><title>Node14</title>
<a xlink:href="defaultSetter_8h.html" target="_top" xlink:title="defaultSetter.h">
<polygon fill="none" stroke="black" points="0,-174.5 0,-195.5 88,-195.5 88,-174.5 0,-174.5"/>
<text text-anchor="middle" x="44" y="-182.5" font-family="FreeSans.ttf" font-size="10.00">defaultSetter.h</text>
</a>
</g>
<!-- Node4&#45;&gt;Node14 -->
<g id="edge26" class="edge"><title>Node4&#45;&gt;Node14</title>
<path fill="none" stroke="midnightblue" d="M188.128,-232.497C159.435,-223.041 117.079,-209.083 85.7023,-198.743"/>
<polygon fill="midnightblue" stroke="midnightblue" points="86.5251,-195.329 75.932,-195.523 84.3341,-201.977 86.5251,-195.329"/>
</g>
<!-- Node16 -->
<g id="node33" class="node"><title>Node16</title>
<a xlink:href="printerVisitor_8h.html" target="_top" xlink:title="printerVisitor.h">
<polygon fill="none" stroke="black" points="106,-174.5 106,-195.5 192,-195.5 192,-174.5 106,-174.5"/>
<text text-anchor="middle" x="149" y="-182.5" font-family="FreeSans.ttf" font-size="10.00">printerVisitor.h</text>
</a>
</g>
<!-- Node4&#45;&gt;Node16 -->
<g id="edge34" class="edge"><title>Node4&#45;&gt;Node16</title>
<path fill="none" stroke="midnightblue" d="M206.978,-232.362C196.569,-223.859 181.781,-211.779 169.745,-201.947"/>
<polygon fill="midnightblue" stroke="midnightblue" points="171.899,-199.187 161.94,-195.571 167.47,-204.608 171.899,-199.187"/>
</g>
<!-- Node6 -->
<g id="node11" class="node"><title>Node6</title>
<polygon fill="none" stroke="#bfbfbf" points="270.5,-58.5 270.5,-79.5 317.5,-79.5 317.5,-58.5 270.5,-58.5"/>
<text text-anchor="middle" x="294" y="-66.5" font-family="FreeSans.ttf" font-size="10.00">vector</text>
</g>
<!-- Node5&#45;&gt;Node6 -->
<g id="edge10" class="edge"><title>Node5&#45;&gt;Node6</title>
<path fill="none" stroke="midnightblue" d="M320.947,-116.362C316.528,-108.595 310.41,-97.8426 305.121,-88.5458"/>
<polygon fill="midnightblue" stroke="midnightblue" points="308.002,-86.5315 300.014,-79.5707 301.918,-89.9932 308.002,-86.5315"/>
</g>
<!-- Node7 -->
<g id="node13" class="node"><title>Node7</title>
<polygon fill="none" stroke="#bfbfbf" points="564,-58.5 564,-79.5 608,-79.5 608,-58.5 564,-58.5"/>
<text text-anchor="middle" x="586" y="-66.5" font-family="FreeSans.ttf" font-size="10.00">string</text>
</g>
<!-- Node5&#45;&gt;Node7 -->
<g id="edge12" class="edge"><title>Node5&#45;&gt;Node7</title>
<path fill="none" stroke="midnightblue" d="M362.042,-118.14C365.069,-117.405 368.087,-116.682 371,-116 435.817,-100.817 511.997,-84.5297 554.048,-75.6745"/>
<polygon fill="midnightblue" stroke="midnightblue" points="554.91,-79.07 563.976,-73.5885 553.47,-72.2196 554.91,-79.07"/>
</g>
<!-- Node8 -->
<g id="node15" class="node"><title>Node8</title>
<polygon fill="none" stroke="#bfbfbf" points="334.5,-58.5 334.5,-79.5 387.5,-79.5 387.5,-58.5 334.5,-58.5"/>
<text text-anchor="middle" x="361" y="-66.5" font-family="FreeSans.ttf" font-size="10.00">string.h</text>
</g>
<!-- Node5&#45;&gt;Node8 -->
<g id="edge14" class="edge"><title>Node5&#45;&gt;Node8</title>
<path fill="none" stroke="midnightblue" d="M333.236,-116.362C337.837,-108.513 344.225,-97.6159 349.714,-88.2527"/>
<polygon fill="midnightblue" stroke="midnightblue" points="352.766,-89.9677 354.803,-79.5707 346.727,-86.4276 352.766,-89.9677"/>
</g>
<!-- Node9 -->
<g id="node17" class="node"><title>Node9</title>
<polygon fill="none" stroke="#bfbfbf" points="404.5,-58.5 404.5,-79.5 453.5,-79.5 453.5,-58.5 404.5,-58.5"/>
<text text-anchor="middle" x="429" y="-66.5" font-family="FreeSans.ttf" font-size="10.00">stdio.h</text>
</g>
<!-- Node5&#45;&gt;Node9 -->
<g id="edge16" class="edge"><title>Node5&#45;&gt;Node9</title>
<path fill="none" stroke="midnightblue" d="M345.708,-116.362C361.381,-107.45 383.964,-94.6087 401.663,-84.5447"/>
<polygon fill="midnightblue" stroke="midnightblue" points="403.447,-87.5562 410.41,-79.5707 399.987,-81.4712 403.447,-87.5562"/>
</g>
<!-- Node10 -->
<g id="node19" class="node"><title>Node10</title>
<polygon fill="none" stroke="#bfbfbf" points="470.5,-58.5 470.5,-79.5 523.5,-79.5 523.5,-58.5 470.5,-58.5"/>
<text text-anchor="middle" x="497" y="-66.5" font-family="FreeSans.ttf" font-size="10.00">stdint.h</text>
</g>
<!-- Node5&#45;&gt;Node10 -->
<g id="edge18" class="edge"><title>Node5&#45;&gt;Node10</title>
<path fill="none" stroke="midnightblue" d="M357.786,-116.497C386.67,-106.642 429.889,-91.8969 460.498,-81.4538"/>
<polygon fill="midnightblue" stroke="midnightblue" points="462.022,-84.632 470.356,-78.0904 459.761,-78.0069 462.022,-84.632"/>
</g>
<!-- Node11 -->
<g id="node21" class="node"><title>Node11</title>
<polygon fill="none" stroke="#bfbfbf" points="197,-58.5 197,-79.5 253,-79.5 253,-58.5 197,-58.5"/>
<text text-anchor="middle" x="225" y="-66.5" font-family="FreeSans.ttf" font-size="10.00">stdarg.h</text>
</g>
<!-- Node5&#45;&gt;Node11 -->
<g id="edge20" class="edge"><title>Node5&#45;&gt;Node11</title>
<path fill="none" stroke="midnightblue" d="M308.292,-116.362C292.619,-107.45 270.036,-94.6087 252.337,-84.5447"/>
<polygon fill="midnightblue" stroke="midnightblue" points="254.013,-81.4712 243.59,-79.5707 250.553,-87.5562 254.013,-81.4712"/>
</g>
<!-- Node12 -->
<g id="node23" class="node"><title>Node12</title>
<a xlink:href="global_8h.html" target="_top" xlink:title="This file holds the global includes, mostly for debuging, tracing and profiling.">
<polygon fill="none" stroke="black" points="125,-58.5 125,-79.5 179,-79.5 179,-58.5 125,-58.5"/>
<text text-anchor="middle" x="152" y="-66.5" font-family="FreeSans.ttf" font-size="10.00">global.h</text>
</a>
</g>
<!-- Node5&#45;&gt;Node12 -->
<g id="edge22" class="edge"><title>Node5&#45;&gt;Node12</title>
<path fill="none" stroke="midnightblue" d="M295.309,-116.497C265.357,-106.57 220.432,-91.6802 188.885,-81.2246"/>
<polygon fill="midnightblue" stroke="midnightblue" points="189.741,-77.8214 179.148,-77.9976 187.539,-84.466 189.741,-77.8214"/>
</g>
<!-- Node13 -->
<g id="node25" class="node"><title>Node13</title>
<polygon fill="none" stroke="#bfbfbf" points="120,-0.5 120,-21.5 184,-21.5 184,-0.5 120,-0.5"/>
<text text-anchor="middle" x="152" y="-8.5" font-family="FreeSans.ttf" font-size="10.00">inttypes.h</text>
</g>
<!-- Node12&#45;&gt;Node13 -->
<g id="edge24" class="edge"><title>Node12&#45;&gt;Node13</title>
<path fill="none" stroke="midnightblue" d="M152,-58.3619C152,-50.9219 152,-40.7427 152,-31.7276"/>
<polygon fill="midnightblue" stroke="midnightblue" points="155.5,-31.5706 152,-21.5707 148.5,-31.5707 155.5,-31.5706"/>
</g>
<!-- Node14&#45;&gt;Node5 -->
<g id="edge32" class="edge"><title>Node14&#45;&gt;Node5</title>
<path fill="none" stroke="midnightblue" d="M88.2443,-175.807C91.2072,-175.194 94.1467,-174.588 97,-174 161.202,-160.778 235.518,-145.618 281.897,-136.174"/>
<polygon fill="midnightblue" stroke="midnightblue" points="282.823,-139.558 291.924,-134.133 281.427,-132.698 282.823,-139.558"/>
</g>
<!-- Node14&#45;&gt;Node12 -->
<g id="edge30" class="edge"><title>Node14&#45;&gt;Node12</title>
<path fill="none" stroke="midnightblue" d="M51.6668,-174.249C61.8378,-160.264 80.653,-135.336 99,-116 108.92,-105.545 120.864,-94.8133 130.9,-86.2488"/>
<polygon fill="midnightblue" stroke="midnightblue" points="133.389,-88.7294 138.796,-79.6181 128.887,-83.369 133.389,-88.7294"/>
</g>
<!-- Node15 -->
<g id="node29" class="node"><title>Node15</title>
<polygon fill="none" stroke="#bfbfbf" points="107.5,-116.5 107.5,-137.5 166.5,-137.5 166.5,-116.5 107.5,-116.5"/>
<text text-anchor="middle" x="137" y="-124.5" font-family="FreeSans.ttf" font-size="10.00">iostream</text>
</g>
<!-- Node14&#45;&gt;Node15 -->
<g id="edge28" class="edge"><title>Node14&#45;&gt;Node15</title>
<path fill="none" stroke="midnightblue" d="M61.0576,-174.362C75.0848,-165.614 95.1843,-153.079 111.182,-143.101"/>
<polygon fill="midnightblue" stroke="midnightblue" points="113.418,-145.832 120.051,-137.571 109.713,-139.893 113.418,-145.832"/>
</g>
<!-- Node16&#45;&gt;Node5 -->
<g id="edge38" class="edge"><title>Node16&#45;&gt;Node5</title>
<path fill="none" stroke="midnightblue" d="M181.234,-174.497C210.253,-165.041 253.09,-151.083 284.824,-140.743"/>
<polygon fill="midnightblue" stroke="midnightblue" points="286.281,-143.949 294.705,-137.523 284.113,-137.293 286.281,-143.949"/>
</g>
<!-- Node16&#45;&gt;Node15 -->
<g id="edge36" class="edge"><title>Node16&#45;&gt;Node15</title>
<path fill="none" stroke="midnightblue" d="M146.799,-174.362C145.243,-166.84 143.107,-156.519 141.227,-147.431"/>
<polygon fill="midnightblue" stroke="midnightblue" points="144.641,-146.654 139.187,-137.571 137.786,-148.072 144.641,-146.654"/>
</g>
<!-- Node18&#45;&gt;Node5 -->
<g id="edge48" class="edge"><title>Node18&#45;&gt;Node5</title>
<path fill="none" stroke="midnightblue" d="M360.464,-232.438C343.76,-225.048 324.734,-213.346 315,-196 306.573,-180.983 311.142,-161.464 316.908,-147.02"/>
<polygon fill="midnightblue" stroke="midnightblue" points="320.262,-148.094 321.149,-137.536 313.871,-145.236 320.262,-148.094"/>
</g>
<!-- Node18&#45;&gt;Node12 -->
<g id="edge46" class="edge"><title>Node18&#45;&gt;Node12</title>
<path fill="none" stroke="midnightblue" d="M370.409,-232.44C352.839,-223.525 327.657,-210.004 307,-196 255.107,-160.82 199.465,-112.236 171.067,-86.5523"/>
<polygon fill="midnightblue" stroke="midnightblue" points="173.235,-83.793 163.484,-79.6508 168.524,-88.9701 173.235,-83.793"/>
</g>
<!-- Node19 -->
<g id="node41" class="node"><title>Node19</title>
<polygon fill="none" stroke="#bfbfbf" points="324,-174.5 324,-195.5 398,-195.5 398,-174.5 324,-174.5"/>
<text text-anchor="middle" x="361" y="-182.5" font-family="FreeSans.ttf" font-size="10.00">QtGui/QtGui</text>
</g>
<!-- Node18&#45;&gt;Node19 -->
<g id="edge44" class="edge"><title>Node18&#45;&gt;Node19</title>
<path fill="none" stroke="midnightblue" d="M386.314,-232.362C382.163,-224.595 376.416,-213.843 371.447,-204.546"/>
<polygon fill="midnightblue" stroke="midnightblue" points="374.45,-202.74 366.65,-195.571 368.277,-206.04 374.45,-202.74"/>
</g>
<!-- Node18&#45;&gt;Node20 -->
<g id="edge50" class="edge"><title>Node18&#45;&gt;Node20</title>
<path fill="none" stroke="midnightblue" d="M454.658,-232.497C513.874,-222.57 602.691,-207.682 665.063,-197.226"/>
<polygon fill="midnightblue" stroke="midnightblue" points="665.941,-200.628 675.224,-195.523 664.783,-193.725 665.941,-200.628"/>
</g>
<!-- Node24 -->
<g id="node55" class="node"><title>Node24</title>
<a xlink:href="xmlSetter_8h.html" target="_top" xlink:title="visitors/xmlSetter.h">
<polygon fill="none" stroke="black" points="543.5,-174.5 543.5,-195.5 652.5,-195.5 652.5,-174.5 543.5,-174.5"/>
<text text-anchor="middle" x="598" y="-182.5" font-family="FreeSans.ttf" font-size="10.00">visitors/xmlSetter.h</text>
</a>
</g>
<!-- Node18&#45;&gt;Node24 -->
<g id="edge62" class="edge"><title>Node18&#45;&gt;Node24</title>
<path fill="none" stroke="midnightblue" d="M429.305,-232.497C463.325,-222.918 513.755,-208.72 550.614,-198.342"/>
<polygon fill="midnightblue" stroke="midnightblue" points="551.948,-201.602 560.625,-195.523 550.051,-194.864 551.948,-201.602"/>
</g>
<!-- Node18&#45;&gt;Node26 -->
<g id="edge70" class="edge"><title>Node18&#45;&gt;Node26</title>
<path fill="none" stroke="midnightblue" d="M478.719,-232.937C481.512,-232.62 484.278,-232.307 487,-232 629.456,-215.935 667.78,-214.309 813.477,-196.164"/>
<polygon fill="midnightblue" stroke="midnightblue" points="814.204,-199.601 823.692,-194.887 813.335,-192.655 814.204,-199.601"/>
</g>
<!-- Node28 -->
<g id="node67" class="node"><title>Node28</title>
<a xlink:href="xmlGetter_8h.html" target="_top" xlink:title="visitors/xmlGetter.h">
<polygon fill="none" stroke="black" points="416,-174.5 416,-195.5 526,-195.5 526,-174.5 416,-174.5"/>
<text text-anchor="middle" x="471" y="-182.5" font-family="FreeSans.ttf" font-size="10.00">visitors/xmlGetter.h</text>
</a>
</g>
<!-- Node18&#45;&gt;Node28 -->
<g id="edge78" class="edge"><title>Node18&#45;&gt;Node28</title>
<path fill="none" stroke="midnightblue" d="M406.49,-232.362C418.183,-223.777 434.843,-211.546 448.303,-201.664"/>
<polygon fill="midnightblue" stroke="midnightblue" points="450.613,-204.31 456.602,-195.571 446.47,-198.667 450.613,-204.31"/>
</g>
<!-- Node20&#45;&gt;Node5 -->
<g id="edge60" class="edge"><title>Node20&#45;&gt;Node5</title>
<path fill="none" stroke="midnightblue" d="M669.162,-175.102C666.406,-174.726 663.677,-174.357 661,-174 535.532,-157.252 500.447,-161.555 372.641,-138.145"/>
<polygon fill="midnightblue" stroke="midnightblue" points="372.931,-134.639 362.46,-136.258 371.655,-141.522 372.931,-134.639"/>
</g>
<!-- Node21 -->
<g id="node47" class="node"><title>Node21</title>
<polygon fill="none" stroke="#bfbfbf" points="737.5,-116.5 737.5,-137.5 838.5,-137.5 838.5,-116.5 737.5,-116.5"/>
<text text-anchor="middle" x="788" y="-124.5" font-family="FreeSans.ttf" font-size="10.00">QtCore/QSettings</text>
</g>
<!-- Node20&#45;&gt;Node21 -->
<g id="edge52" class="edge"><title>Node20&#45;&gt;Node21</title>
<path fill="none" stroke="midnightblue" d="M747.171,-174.362C754.148,-166.268 763.921,-154.932 772.156,-145.38"/>
<polygon fill="midnightblue" stroke="midnightblue" points="775.009,-147.43 778.887,-137.571 769.707,-142.859 775.009,-147.43"/>
</g>
<!-- Node22 -->
<g id="node49" class="node"><title>Node22</title>
<a xlink:href="basePathVisitor_8h.html" target="_top" xlink:title="Add Comment Here.">
<polygon fill="none" stroke="black" points="621.5,-116.5 621.5,-137.5 720.5,-137.5 720.5,-116.5 621.5,-116.5"/>
<text text-anchor="middle" x="671" y="-124.5" font-family="FreeSans.ttf" font-size="10.00">basePathVisitor.h</text>
</a>
</g>
<!-- Node20&#45;&gt;Node22 -->
<g id="edge54" class="edge"><title>Node20&#45;&gt;Node22</title>
<path fill="none" stroke="midnightblue" d="M725.711,-174.362C715.983,-165.941 702.202,-154.011 690.905,-144.231"/>
<polygon fill="midnightblue" stroke="midnightblue" points="693.062,-141.469 683.211,-137.571 688.481,-146.762 693.062,-141.469"/>
</g>
<!-- Node22&#45;&gt;Node7 -->
<g id="edge58" class="edge"><title>Node22&#45;&gt;Node7</title>
<path fill="none" stroke="midnightblue" d="M655.41,-116.362C642.709,-107.696 624.562,-95.3126 610.008,-85.3819"/>
<polygon fill="midnightblue" stroke="midnightblue" points="611.724,-82.316 601.491,-79.5707 607.779,-88.0982 611.724,-82.316"/>
</g>
<!-- Node23 -->
<g id="node51" class="node"><title>Node23</title>
<polygon fill="none" stroke="#bfbfbf" points="647.5,-58.5 647.5,-79.5 694.5,-79.5 694.5,-58.5 647.5,-58.5"/>
<text text-anchor="middle" x="671" y="-66.5" font-family="FreeSans.ttf" font-size="10.00">deque</text>
</g>
<!-- Node22&#45;&gt;Node23 -->
<g id="edge56" class="edge"><title>Node22&#45;&gt;Node23</title>
<path fill="none" stroke="midnightblue" d="M671,-116.362C671,-108.922 671,-98.7427 671,-89.7276"/>
<polygon fill="midnightblue" stroke="midnightblue" points="674.5,-89.5706 671,-79.5707 667.5,-89.5707 674.5,-89.5706"/>
</g>
<!-- Node24&#45;&gt;Node5 -->
<g id="edge68" class="edge"><title>Node24&#45;&gt;Node5</title>
<path fill="none" stroke="midnightblue" d="M543.744,-174.413C499.921,-165.715 436.424,-152.782 371.965,-138.16"/>
<polygon fill="midnightblue" stroke="midnightblue" points="372.561,-134.706 362.034,-135.895 371.005,-141.531 372.561,-134.706"/>
</g>
<!-- Node24&#45;&gt;Node22 -->
<g id="edge66" class="edge"><title>Node24&#45;&gt;Node22</title>
<path fill="none" stroke="midnightblue" d="M611.389,-174.362C622.091,-165.859 637.296,-153.779 649.671,-143.947"/>
<polygon fill="midnightblue" stroke="midnightblue" points="652.043,-146.532 657.696,-137.571 647.689,-141.051 652.043,-146.532"/>
</g>
<!-- Node25 -->
<g id="node57" class="node"><title>Node25</title>
<polygon fill="none" stroke="#bfbfbf" points="515.5,-116.5 515.5,-137.5 604.5,-137.5 604.5,-116.5 515.5,-116.5"/>
<text text-anchor="middle" x="560" y="-124.5" font-family="FreeSans.ttf" font-size="10.00">QtCore/QString</text>
</g>
<!-- Node24&#45;&gt;Node25 -->
<g id="edge64" class="edge"><title>Node24&#45;&gt;Node25</title>
<path fill="none" stroke="midnightblue" d="M591.03,-174.362C585.834,-166.431 578.599,-155.389 572.422,-145.961"/>
<polygon fill="midnightblue" stroke="midnightblue" points="575.334,-144.017 566.926,-137.571 569.478,-147.853 575.334,-144.017"/>
</g>
<!-- Node26&#45;&gt;Node5 -->
<g id="edge76" class="edge"><title>Node26&#45;&gt;Node5</title>
<path fill="none" stroke="midnightblue" d="M823.704,-175.011C820.765,-174.655 817.854,-174.317 815,-174 621.493,-152.529 568.121,-169.532 372.469,-138.027"/>
<polygon fill="midnightblue" stroke="midnightblue" points="372.87,-134.547 362.437,-136.39 371.743,-141.455 372.87,-134.547"/>
</g>
<!-- Node26&#45;&gt;Node22 -->
<g id="edge74" class="edge"><title>Node26&#45;&gt;Node22</title>
<path fill="none" stroke="midnightblue" d="M852.797,-174.497C815.822,-164.836 760.858,-150.477 721.052,-140.077"/>
<polygon fill="midnightblue" stroke="midnightblue" points="721.838,-136.665 711.278,-137.523 720.068,-143.437 721.838,-136.665"/>
</g>
<!-- Node27 -->
<g id="node63" class="node"><title>Node27</title>
<polygon fill="none" stroke="#bfbfbf" points="861,-116.5 861,-137.5 925,-137.5 925,-116.5 861,-116.5"/>
<text text-anchor="middle" x="893" y="-124.5" font-family="FreeSans.ttf" font-size="10.00">QSettings</text>
</g>
<!-- Node26&#45;&gt;Node27 -->
<g id="edge72" class="edge"><title>Node26&#45;&gt;Node27</title>
<path fill="none" stroke="midnightblue" d="M893,-174.362C893,-166.922 893,-156.743 893,-147.728"/>
<polygon fill="midnightblue" stroke="midnightblue" points="896.5,-147.571 893,-137.571 889.5,-147.571 896.5,-147.571"/>
</g>
<!-- Node28&#45;&gt;Node5 -->
<g id="edge84" class="edge"><title>Node28&#45;&gt;Node5</title>
<path fill="none" stroke="midnightblue" d="M444.923,-174.497C421.925,-165.234 388.2,-151.65 362.7,-141.379"/>
<polygon fill="midnightblue" stroke="midnightblue" points="363.953,-138.111 353.37,-137.621 361.338,-144.604 363.953,-138.111"/>
</g>
<!-- Node28&#45;&gt;Node22 -->
<g id="edge86" class="edge"><title>Node28&#45;&gt;Node22</title>
<path fill="none" stroke="midnightblue" d="M507.218,-174.497C540.247,-164.918 589.208,-150.72 624.994,-140.342"/>
<polygon fill="midnightblue" stroke="midnightblue" points="626.084,-143.67 634.714,-137.523 624.134,-136.947 626.084,-143.67"/>
</g>
<!-- Node28&#45;&gt;Node25 -->
<g id="edge80" class="edge"><title>Node28&#45;&gt;Node25</title>
<path fill="none" stroke="midnightblue" d="M487.324,-174.362C500.748,-165.614 519.983,-153.079 535.293,-143.101"/>
<polygon fill="midnightblue" stroke="midnightblue" points="537.312,-145.963 543.78,-137.571 533.491,-140.098 537.312,-145.963"/>
</g>
<!-- Node29 -->
<g id="node70" class="node"><title>Node29</title>
<polygon fill="none" stroke="#bfbfbf" points="379.5,-116.5 379.5,-137.5 498.5,-137.5 498.5,-116.5 379.5,-116.5"/>
<text text-anchor="middle" x="439" y="-124.5" font-family="FreeSans.ttf" font-size="10.00">QtXml/QDomElement</text>
</g>
<!-- Node28&#45;&gt;Node29 -->
<g id="edge82" class="edge"><title>Node28&#45;&gt;Node29</title>
<path fill="none" stroke="midnightblue" d="M465.131,-174.362C460.845,-166.595 454.913,-155.843 449.784,-146.546"/>
<polygon fill="midnightblue" stroke="midnightblue" points="452.727,-144.636 444.832,-137.571 446.598,-148.017 452.727,-144.636"/>
</g>
</g>
</svg>
        <g id="navigator" transform="translate(0 0)" fill="#404254">
                <rect fill="#f2f5e9" fill-opacity="0.5" stroke="#606060" stroke-width=".5" x="0" y="0" width="60" height="60"/>
                <use id="zoomplus" xlink:href="#zoomPlus" x="17" y="9" onmousedown="handleZoom(evt,'in')"/>
                <use id="zoomminus" xlink:href="#zoomMin" x="42" y="9" onmousedown="handleZoom(evt,'out')"/>
                <use id="reset" xlink:href="#resetDef" x="30" y="36" onmousedown="handleReset()"/>
                <g id="arrowUp" xlink:href="#dirArrow" transform="translate(30 24)" onmousedown="handlePan(0,-1)">
                  <use xlink:href="#rim" fill="#404040">
                        <set attributeName="fill" to="#808080" begin="arrowUp.mouseover" end="arrowUp.mouseout"/>
                  </use>
                  <path fill="none" stroke="white" stroke-width="1.5" d="M0,-3.0v7 M-2.5,-0.5L0,-3.0L2.5,-0.5"/>
                </g>
                <g id="arrowRight" xlink:href="#dirArrow" transform="rotate(90) translate(36 -43)" onmousedown="handlePan(1,0)">
                  <use xlink:href="#rim" fill="#404040">
                        <set attributeName="fill" to="#808080" begin="arrowRight.mouseover" end="arrowRight.mouseout"/>
                  </use>
                  <path fill="none" stroke="white" stroke-width="1.5" d="M0,-3.0v7 M-2.5,-0.5L0,-3.0L2.5,-0.5"/>
                </g>
                <g id="arrowDown" xlink:href="#dirArrow" transform="rotate(180) translate(-30 -48)" onmousedown="handlePan(0,1)">
                  <use xlink:href="#rim" fill="#404040">
                        <set attributeName="fill" to="#808080" begin="arrowDown.mouseover" end="arrowDown.mouseout"/>
                  </use>
                  <path fill="none" stroke="white" stroke-width="1.5" d="M0,-3.0v7 M-2.5,-0.5L0,-3.0L2.5,-0.5"/>
                </g>
                <g id="arrowLeft" xlink:href="#dirArrow" transform="rotate(270) translate(-36 17)" onmousedown="handlePan(-1,0)">
                  <use xlink:href="#rim" fill="#404040">
                        <set attributeName="fill" to="#808080" begin="arrowLeft.mouseover" end="arrowLeft.mouseout"/>
                  </use>
                  <path fill="none" stroke="white" stroke-width="1.5" d="M0,-3.0v7 M-2.5,-0.5L0,-3.0L2.5,-0.5"/>
                </g>
        </g>
</svg>
