<?xml version="1.0" encoding="UTF-8" standalone="no"?>
<!DOCTYPE svg PUBLIC "-//W3C//DTD SVG 1.1//EN"
 "http://www.w3.org/Graphics/SVG/1.1/DTD/svg11.dtd">
<!-- Generated by graphviz version 2.26.3 (20100126.1600)
 -->
<!-- Title: G Pages: 1 -->
<svg width="456pt" height="88pt"
 viewBox="0.00 0.00 456.00 88.00" xmlns="http://www.w3.org/2000/svg" xmlns:xlink="http://www.w3.org/1999/xlink">
<g id="graph1" class="graph" transform="scale(1 1) rotate(0) translate(4 84)">
<title>G</title>
<!-- Node1 -->
<g id="node1" class="node"><title>Node1</title>
<polygon fill="#bfbfbf" stroke="black" points="54.5,-58.5 54.5,-79.5 325.5,-79.5 325.5,-58.5 54.5,-58.5"/>
<text text-anchor="middle" x="190" y="-66.5" font-family="FreeSans.ttf" font-size="10.00">utils/filters/ui/openCVFilterParametersControlWidget.h</text>
</g>
<!-- Node2 -->
<g id="node3" class="node"><title>Node2</title>
<a xlink:href="filterSelector_8cpp.html" target="_top" xlink:title="utils/filters/filterSelector.cpp">
<polygon fill="none" stroke="black" points="-0.5,-0.5 -0.5,-21.5 148.5,-21.5 148.5,-0.5 -0.5,-0.5"/>
<text text-anchor="middle" x="74" y="-8.5" font-family="FreeSans.ttf" font-size="10.00">utils/filters/filterSelector.cpp</text>
</a>
</g>
<!-- Node1&#45;&gt;Node2 -->
<g id="edge2" class="edge"><title>Node1&#45;&gt;Node2</title>
<path fill="none" stroke="midnightblue" d="M159.864,-53.9319C139.586,-43.7932 113.35,-30.6748 95.2424,-21.6212"/>
<polygon fill="midnightblue" stroke="midnightblue" points="158.484,-57.1549 168.993,-58.4966 161.614,-50.8939 158.484,-57.1549"/>
</g>
<!-- Node3 -->
<g id="node5" class="node"><title>Node3</title>
<a xlink:href="openCVFilterParametersControlWidget_8cpp.html" target="_top" xlink:title="utils/filters/ui/openCVFilterParametersControlWidget.cpp">
<polygon fill="none" stroke="black" points="166,-0.5 166,-21.5 448,-21.5 448,-0.5 166,-0.5"/>
<text text-anchor="middle" x="307" y="-8.5" font-family="FreeSans.ttf" font-size="10.00">utils/filters/ui/openCVFilterParametersControlWidget.cpp</text>
</a>
</g>
<!-- Node1&#45;&gt;Node3 -->
<g id="edge4" class="edge"><title>Node1&#45;&gt;Node3</title>
<path fill="none" stroke="midnightblue" d="M220.396,-53.9319C240.848,-43.7932 267.311,-30.6748 285.574,-21.6212"/>
<polygon fill="midnightblue" stroke="midnightblue" points="218.593,-50.9193 211.188,-58.4966 221.702,-57.1909 218.593,-50.9193"/>
</g>
</g>
</svg>
