<?xml version="1.0" encoding="UTF-8" standalone="no"?>
<!DOCTYPE svg PUBLIC "-//W3C//DTD SVG 1.1//EN"
 "http://www.w3.org/Graphics/SVG/1.1/DTD/svg11.dtd">
<!-- Generated by graphviz version 2.26.3 (20100126.1600)
 -->
<!-- Title: G Pages: 1 -->
<!--zoomable 378 -->
<svg id="main" version="1.1" xmlns="http://www.w3.org/2000/svg" xmlns:xlink="http://www.w3.org/1999/xlink" xml:space="preserve" onload="init(evt)">
        <defs>
                <circle id="rim" cx="0" cy="0" r="7"/>
                <circle id="rim2" cx="0" cy="0" r="3.5"/>
                <g id="zoomPlus">
                        <use xlink:href="#rim" fill="#404040">
                                <set attributeName="fill" to="#808080" begin="zoomplus.mouseover" end="zoomplus.mouseout"/>
                        </use>
                        <path d="M-4,0h8M0,-4v8" fill="none" stroke="white" stroke-width="1.5" pointer-events="none"/>
                </g>
                <g id="zoomMin">
                        <use xlink:href="#rim" fill="#404040">
                                <set attributeName="fill" to="#808080" begin="zoomminus.mouseover" end="zoomminus.mouseout"/>
                        </use>
                        <path d="M-4,0h8" fill="none" stroke="white" stroke-width="1.5" pointer-events="none"/>
                </g>
                <g id="dirArrow">
                        <path fill="none" stroke="white" stroke-width="1.5" d="M0,-3.0v7 M-2.5,-0.5L0,-3.0L2.5,-0.5"/>
                </g>
               <g id="resetDef">
                       <use xlink:href="#rim2" fill="#404040">
                               <set attributeName="fill" to="#808080" begin="reset.mouseover" end="reset.mouseout"/>
                       </use>
               </g>
        </defs>

<script type="text/javascript">
var viewWidth = 1178;
var viewHeight = 378;
var sectionId = 'dynsection-0';
</script>
<script xlink:href="svgpan.js"/>
<svg id="graph" class="graph">
<g id="viewport">
<title>G</title>
<!-- Node1 -->
<g id="node1" class="node"><title>Node1</title>
<polygon fill="#bfbfbf" stroke="black" points="116.5,-348.5 116.5,-369.5 373.5,-369.5 373.5,-348.5 116.5,-348.5"/>
<text text-anchor="middle" x="245" y="-356.5" font-family="FreeSans.ttf" font-size="10.00">utils/filters/ui/operationParametersControlWidget.h</text>
</g>
<!-- Node2 -->
<g id="node3" class="node"><title>Node2</title>
<polygon fill="none" stroke="#bfbfbf" points="0,-290.5 0,-311.5 86,-311.5 86,-290.5 0,-290.5"/>
<text text-anchor="middle" x="43" y="-298.5" font-family="FreeSans.ttf" font-size="10.00">QtGui/QWidget</text>
</g>
<!-- Node1&#45;&gt;Node2 -->
<g id="edge2" class="edge"><title>Node1&#45;&gt;Node2</title>
<path fill="none" stroke="midnightblue" d="M208.419,-348.497C175.06,-338.918 125.61,-324.72 89.4662,-314.342"/>
<polygon fill="midnightblue" stroke="midnightblue" points="90.2269,-310.919 79.6493,-311.523 88.295,-317.647 90.2269,-310.919"/>
</g>
<!-- Node3 -->
<g id="node5" class="node"><title>Node3</title>
<a xlink:href="operationParameters_8h.html" target="_top" xlink:title="generated/operationParameters.h">
<polygon fill="none" stroke="black" points="55.5,-232.5 55.5,-253.5 234.5,-253.5 234.5,-232.5 55.5,-232.5"/>
<text text-anchor="middle" x="145" y="-240.5" font-family="FreeSans.ttf" font-size="10.00">generated/operationParameters.h</text>
</a>
</g>
<!-- Node1&#45;&gt;Node3 -->
<g id="edge4" class="edge"><title>Node1&#45;&gt;Node3</title>
<path fill="none" stroke="midnightblue" d="M186.864,-348.479C166.303,-341.658 145.259,-330.438 133,-312 123.374,-297.521 128.246,-277.688 134.423,-263"/>
<polygon fill="midnightblue" stroke="midnightblue" points="137.669,-264.322 138.746,-253.783 131.331,-261.35 137.669,-264.322"/>
</g>
<!-- Node17 -->
<g id="node37" class="node"><title>Node17</title>
<polygon fill="none" stroke="#bfbfbf" points="141.5,-290.5 141.5,-311.5 348.5,-311.5 348.5,-290.5 141.5,-290.5"/>
<text text-anchor="middle" x="245" y="-298.5" font-family="FreeSans.ttf" font-size="10.00">ui_operationParametersControlWidget.h</text>
</g>
<!-- Node1&#45;&gt;Node17 -->
<g id="edge40" class="edge"><title>Node1&#45;&gt;Node17</title>
<path fill="none" stroke="midnightblue" d="M245,-348.362C245,-340.922 245,-330.743 245,-321.728"/>
<polygon fill="midnightblue" stroke="midnightblue" points="248.5,-321.571 245,-311.571 241.5,-321.571 248.5,-321.571"/>
</g>
<!-- Node18 -->
<g id="node39" class="node"><title>Node18</title>
<a xlink:href="parametersControlWidgetBase_8h.html" target="_top" xlink:title="parametersControlWidgetBase.h">
<polygon fill="none" stroke="black" points="499.5,-232.5 499.5,-253.5 672.5,-253.5 672.5,-232.5 499.5,-232.5"/>
<text text-anchor="middle" x="586" y="-240.5" font-family="FreeSans.ttf" font-size="10.00">parametersControlWidgetBase.h</text>
</a>
</g>
<!-- Node1&#45;&gt;Node18 -->
<g id="edge42" class="edge"><title>Node1&#45;&gt;Node18</title>
<path fill="none" stroke="midnightblue" d="M358.903,-348.488C445.091,-339.522 551.254,-325.909 567,-312 580.488,-300.086 584.796,-279.565 585.993,-263.991"/>
<polygon fill="midnightblue" stroke="midnightblue" points="589.502,-263.85 586.403,-253.718 582.507,-263.571 589.502,-263.85"/>
</g>
<!-- Node30 -->
<g id="node74" class="node"><title>Node30</title>
<a xlink:href="filterParametersControlWidgetBase_8h.html" target="_top" xlink:title="filterParametersControlWidgetBase.h">
<polygon fill="none" stroke="black" points="365.5,-290.5 365.5,-311.5 558.5,-311.5 558.5,-290.5 365.5,-290.5"/>
<text text-anchor="middle" x="462" y="-298.5" font-family="FreeSans.ttf" font-size="10.00">filterParametersControlWidgetBase.h</text>
</a>
</g>
<!-- Node1&#45;&gt;Node30 -->
<g id="edge88" class="edge"><title>Node1&#45;&gt;Node30</title>
<path fill="none" stroke="midnightblue" d="M284.297,-348.497C320.287,-338.877 373.71,-324.598 412.58,-314.209"/>
<polygon fill="midnightblue" stroke="midnightblue" points="413.872,-317.487 422.629,-311.523 412.065,-310.724 413.872,-317.487"/>
</g>
<!-- Node4 -->
<g id="node7" class="node"><title>Node4</title>
<a xlink:href="reflection_8h.html" target="_top" xlink:title="a header for Reflection.c">
<polygon fill="none" stroke="black" points="542,-116.5 542,-137.5 612,-137.5 612,-116.5 542,-116.5"/>
<text text-anchor="middle" x="577" y="-124.5" font-family="FreeSans.ttf" font-size="10.00">reflection.h</text>
</a>
</g>
<!-- Node3&#45;&gt;Node4 -->
<g id="edge6" class="edge"><title>Node3&#45;&gt;Node4</title>
<path fill="none" stroke="midnightblue" d="M179.551,-232.459C225.741,-218.489 310.243,-193.35 383,-174 433.835,-160.48 492.589,-146.47 532,-137.303"/>
<polygon fill="midnightblue" stroke="midnightblue" points="532.884,-140.692 541.835,-135.023 531.303,-133.872 532.884,-140.692"/>
</g>
<!-- Node13 -->
<g id="node25" class="node"><title>Node13</title>
<a xlink:href="defaultSetter_8h.html" target="_top" xlink:title="defaultSetter.h">
<polygon fill="none" stroke="black" points="101,-174.5 101,-195.5 189,-195.5 189,-174.5 101,-174.5"/>
<text text-anchor="middle" x="145" y="-182.5" font-family="FreeSans.ttf" font-size="10.00">defaultSetter.h</text>
</a>
</g>
<!-- Node3&#45;&gt;Node13 -->
<g id="edge24" class="edge"><title>Node3&#45;&gt;Node13</title>
<path fill="none" stroke="midnightblue" d="M145,-232.362C145,-224.922 145,-214.743 145,-205.728"/>
<polygon fill="midnightblue" stroke="midnightblue" points="148.5,-205.571 145,-195.571 141.5,-205.571 148.5,-205.571"/>
</g>
<!-- Node15 -->
<g id="node31" class="node"><title>Node15</title>
<a xlink:href="printerVisitor_8h.html" target="_top" xlink:title="printerVisitor.h">
<polygon fill="none" stroke="black" points="207,-174.5 207,-195.5 293,-195.5 293,-174.5 207,-174.5"/>
<text text-anchor="middle" x="250" y="-182.5" font-family="FreeSans.ttf" font-size="10.00">printerVisitor.h</text>
</a>
</g>
<!-- Node3&#45;&gt;Node15 -->
<g id="edge32" class="edge"><title>Node3&#45;&gt;Node15</title>
<path fill="none" stroke="midnightblue" d="M164.259,-232.362C180.466,-223.409 203.853,-210.491 222.109,-200.406"/>
<polygon fill="midnightblue" stroke="midnightblue" points="223.802,-203.47 230.863,-195.571 220.418,-197.342 223.802,-203.47"/>
</g>
<!-- Node16 -->
<g id="node35" class="node"><title>Node16</title>
<a xlink:href="operation_8h.html" target="_top" xlink:title="operation.h">
<polygon fill="none" stroke="black" points="12.5,-174.5 12.5,-195.5 83.5,-195.5 83.5,-174.5 12.5,-174.5"/>
<text text-anchor="middle" x="48" y="-182.5" font-family="FreeSans.ttf" font-size="10.00">operation.h</text>
</a>
</g>
<!-- Node3&#45;&gt;Node16 -->
<g id="edge38" class="edge"><title>Node3&#45;&gt;Node16</title>
<path fill="none" stroke="midnightblue" d="M127.209,-232.362C112.441,-223.532 91.2218,-210.844 74.4616,-200.822"/>
<polygon fill="midnightblue" stroke="midnightblue" points="76.0574,-197.699 65.6785,-195.571 72.4651,-203.707 76.0574,-197.699"/>
</g>
<!-- Node5 -->
<g id="node9" class="node"><title>Node5</title>
<polygon fill="none" stroke="#bfbfbf" points="553.5,-58.5 553.5,-79.5 600.5,-79.5 600.5,-58.5 553.5,-58.5"/>
<text text-anchor="middle" x="577" y="-66.5" font-family="FreeSans.ttf" font-size="10.00">vector</text>
</g>
<!-- Node4&#45;&gt;Node5 -->
<g id="edge8" class="edge"><title>Node4&#45;&gt;Node5</title>
<path fill="none" stroke="midnightblue" d="M577,-116.362C577,-108.922 577,-98.7427 577,-89.7276"/>
<polygon fill="midnightblue" stroke="midnightblue" points="580.5,-89.5706 577,-79.5707 573.5,-89.5707 580.5,-89.5706"/>
</g>
<!-- Node6 -->
<g id="node11" class="node"><title>Node6</title>
<polygon fill="none" stroke="#bfbfbf" points="774,-58.5 774,-79.5 818,-79.5 818,-58.5 774,-58.5"/>
<text text-anchor="middle" x="796" y="-66.5" font-family="FreeSans.ttf" font-size="10.00">string</text>
</g>
<!-- Node4&#45;&gt;Node6 -->
<g id="edge10" class="edge"><title>Node4&#45;&gt;Node6</title>
<path fill="none" stroke="midnightblue" d="M612.186,-117.681C654.119,-106.576 723.582,-88.1791 764.04,-77.4643"/>
<polygon fill="midnightblue" stroke="midnightblue" points="765.138,-80.7943 773.909,-74.8507 763.346,-74.0276 765.138,-80.7943"/>
</g>
<!-- Node7 -->
<g id="node13" class="node"><title>Node7</title>
<polygon fill="none" stroke="#bfbfbf" points="617.5,-58.5 617.5,-79.5 670.5,-79.5 670.5,-58.5 617.5,-58.5"/>
<text text-anchor="middle" x="644" y="-66.5" font-family="FreeSans.ttf" font-size="10.00">string.h</text>
</g>
<!-- Node4&#45;&gt;Node7 -->
<g id="edge12" class="edge"><title>Node4&#45;&gt;Node7</title>
<path fill="none" stroke="midnightblue" d="M589.289,-116.362C599.017,-107.941 612.798,-96.0105 624.095,-86.2308"/>
<polygon fill="midnightblue" stroke="midnightblue" points="626.519,-88.7619 631.789,-79.5707 621.938,-83.4695 626.519,-88.7619"/>
</g>
<!-- Node8 -->
<g id="node15" class="node"><title>Node8</title>
<polygon fill="none" stroke="#bfbfbf" points="687.5,-58.5 687.5,-79.5 736.5,-79.5 736.5,-58.5 687.5,-58.5"/>
<text text-anchor="middle" x="712" y="-66.5" font-family="FreeSans.ttf" font-size="10.00">stdio.h</text>
</g>
<!-- Node4&#45;&gt;Node8 -->
<g id="edge14" class="edge"><title>Node4&#45;&gt;Node8</title>
<path fill="none" stroke="midnightblue" d="M601.447,-116.497C622.818,-107.315 654.069,-93.8889 677.897,-83.6516"/>
<polygon fill="midnightblue" stroke="midnightblue" points="679.472,-86.7845 687.278,-79.6212 676.709,-80.3529 679.472,-86.7845"/>
</g>
<!-- Node9 -->
<g id="node17" class="node"><title>Node9</title>
<polygon fill="none" stroke="#bfbfbf" points="409.5,-58.5 409.5,-79.5 462.5,-79.5 462.5,-58.5 409.5,-58.5"/>
<text text-anchor="middle" x="436" y="-66.5" font-family="FreeSans.ttf" font-size="10.00">stdint.h</text>
</g>
<!-- Node4&#45;&gt;Node9 -->
<g id="edge16" class="edge"><title>Node4&#45;&gt;Node9</title>
<path fill="none" stroke="midnightblue" d="M551.466,-116.497C529.047,-107.275 496.215,-93.7695 471.287,-83.5153"/>
<polygon fill="midnightblue" stroke="midnightblue" points="472.4,-80.1886 461.821,-79.6212 469.737,-86.6623 472.4,-80.1886"/>
</g>
<!-- Node10 -->
<g id="node19" class="node"><title>Node10</title>
<polygon fill="none" stroke="#bfbfbf" points="480,-58.5 480,-79.5 536,-79.5 536,-58.5 480,-58.5"/>
<text text-anchor="middle" x="508" y="-66.5" font-family="FreeSans.ttf" font-size="10.00">stdarg.h</text>
</g>
<!-- Node4&#45;&gt;Node10 -->
<g id="edge18" class="edge"><title>Node4&#45;&gt;Node10</title>
<path fill="none" stroke="midnightblue" d="M564.344,-116.362C554.326,-107.941 540.133,-96.0105 528.499,-86.2308"/>
<polygon fill="midnightblue" stroke="midnightblue" points="530.482,-83.326 520.575,-79.5707 525.978,-88.6844 530.482,-83.326"/>
</g>
<!-- Node11 -->
<g id="node21" class="node"><title>Node11</title>
<a xlink:href="global_8h.html" target="_top" xlink:title="This file holds the global includes, mostly for debuging, tracing and profiling.">
<polygon fill="none" stroke="black" points="310,-58.5 310,-79.5 364,-79.5 364,-58.5 310,-58.5"/>
<text text-anchor="middle" x="337" y="-66.5" font-family="FreeSans.ttf" font-size="10.00">global.h</text>
</a>
</g>
<!-- Node4&#45;&gt;Node11 -->
<g id="edge20" class="edge"><title>Node4&#45;&gt;Node11</title>
<path fill="none" stroke="midnightblue" d="M541.845,-118.504C496.937,-107.651 419.572,-88.9549 373.86,-77.9079"/>
<polygon fill="midnightblue" stroke="midnightblue" points="374.602,-74.4864 364.06,-75.5394 372.958,-81.2906 374.602,-74.4864"/>
</g>
<!-- Node12 -->
<g id="node23" class="node"><title>Node12</title>
<polygon fill="none" stroke="#bfbfbf" points="305,-0.5 305,-21.5 369,-21.5 369,-0.5 305,-0.5"/>
<text text-anchor="middle" x="337" y="-8.5" font-family="FreeSans.ttf" font-size="10.00">inttypes.h</text>
</g>
<!-- Node11&#45;&gt;Node12 -->
<g id="edge22" class="edge"><title>Node11&#45;&gt;Node12</title>
<path fill="none" stroke="midnightblue" d="M337,-58.3619C337,-50.9219 337,-40.7427 337,-31.7276"/>
<polygon fill="midnightblue" stroke="midnightblue" points="340.5,-31.5706 337,-21.5707 333.5,-31.5707 340.5,-31.5706"/>
</g>
<!-- Node13&#45;&gt;Node4 -->
<g id="edge30" class="edge"><title>Node13&#45;&gt;Node4</title>
<path fill="none" stroke="midnightblue" d="M189.196,-175.547C192.171,-174.997 195.126,-174.476 198,-174 318.017,-154.137 460.68,-138.604 531.879,-131.397"/>
<polygon fill="midnightblue" stroke="midnightblue" points="532.254,-134.877 541.854,-130.394 531.554,-127.912 532.254,-134.877"/>
</g>
<!-- Node13&#45;&gt;Node11 -->
<g id="edge28" class="edge"><title>Node13&#45;&gt;Node11</title>
<path fill="none" stroke="midnightblue" d="M150.852,-174.317C159.629,-159.24 177.59,-131.802 200,-116 230.24,-94.6771 270.981,-82.3384 300.159,-75.7007"/>
<polygon fill="midnightblue" stroke="midnightblue" points="300.925,-79.116 309.962,-73.5852 299.448,-72.2736 300.925,-79.116"/>
</g>
<!-- Node14 -->
<g id="node27" class="node"><title>Node14</title>
<polygon fill="none" stroke="#bfbfbf" points="208.5,-116.5 208.5,-137.5 267.5,-137.5 267.5,-116.5 208.5,-116.5"/>
<text text-anchor="middle" x="238" y="-124.5" font-family="FreeSans.ttf" font-size="10.00">iostream</text>
</g>
<!-- Node13&#45;&gt;Node14 -->
<g id="edge26" class="edge"><title>Node13&#45;&gt;Node14</title>
<path fill="none" stroke="midnightblue" d="M162.058,-174.362C176.085,-165.614 196.184,-153.079 212.182,-143.101"/>
<polygon fill="midnightblue" stroke="midnightblue" points="214.418,-145.832 221.051,-137.571 210.713,-139.893 214.418,-145.832"/>
</g>
<!-- Node15&#45;&gt;Node4 -->
<g id="edge36" class="edge"><title>Node15&#45;&gt;Node4</title>
<path fill="none" stroke="midnightblue" d="M293.086,-177.358C355.02,-166.373 468.682,-146.212 531.78,-135.021"/>
<polygon fill="midnightblue" stroke="midnightblue" points="532.595,-138.431 541.83,-133.238 531.372,-131.538 532.595,-138.431"/>
</g>
<!-- Node15&#45;&gt;Node14 -->
<g id="edge34" class="edge"><title>Node15&#45;&gt;Node14</title>
<path fill="none" stroke="midnightblue" d="M247.799,-174.362C246.243,-166.84 244.107,-156.519 242.227,-147.431"/>
<polygon fill="midnightblue" stroke="midnightblue" points="245.641,-146.654 240.187,-137.571 238.786,-148.072 245.641,-146.654"/>
</g>
<!-- Node18&#45;&gt;Node4 -->
<g id="edge48" class="edge"><title>Node18&#45;&gt;Node4</title>
<path fill="none" stroke="midnightblue" d="M585.169,-232.295C583.683,-213.131 580.542,-172.654 578.617,-147.843"/>
<polygon fill="midnightblue" stroke="midnightblue" points="582.092,-147.378 577.829,-137.679 575.113,-147.92 582.092,-147.378"/>
</g>
<!-- Node18&#45;&gt;Node11 -->
<g id="edge46" class="edge"><title>Node18&#45;&gt;Node11</title>
<path fill="none" stroke="midnightblue" d="M575.151,-232.304C560.539,-218.16 533.426,-192.831 508,-174 460.403,-138.749 400.605,-104.009 365.806,-84.6487"/>
<polygon fill="midnightblue" stroke="midnightblue" points="367.129,-81.3815 356.684,-79.6083 363.744,-87.5083 367.129,-81.3815"/>
</g>
<!-- Node19 -->
<g id="node41" class="node"><title>Node19</title>
<polygon fill="none" stroke="#bfbfbf" points="425,-174.5 425,-195.5 499,-195.5 499,-174.5 425,-174.5"/>
<text text-anchor="middle" x="462" y="-182.5" font-family="FreeSans.ttf" font-size="10.00">QtGui/QtGui</text>
</g>
<!-- Node18&#45;&gt;Node19 -->
<g id="edge44" class="edge"><title>Node18&#45;&gt;Node19</title>
<path fill="none" stroke="midnightblue" d="M563.545,-232.497C544.09,-223.397 515.72,-210.127 493.909,-199.925"/>
<polygon fill="midnightblue" stroke="midnightblue" points="495.248,-196.688 484.707,-195.621 492.283,-203.028 495.248,-196.688"/>
</g>
<!-- Node20 -->
<g id="node45" class="node"><title>Node20</title>
<a xlink:href="qSettingsSetter_8h.html" target="_top" xlink:title="visitors/qSettingsSetter.h">
<polygon fill="none" stroke="black" points="592.5,-174.5 592.5,-195.5 729.5,-195.5 729.5,-174.5 592.5,-174.5"/>
<text text-anchor="middle" x="661" y="-182.5" font-family="FreeSans.ttf" font-size="10.00">visitors/qSettingsSetter.h</text>
</a>
</g>
<!-- Node18&#45;&gt;Node20 -->
<g id="edge50" class="edge"><title>Node18&#45;&gt;Node20</title>
<path fill="none" stroke="midnightblue" d="M599.756,-232.362C610.751,-223.859 626.373,-211.779 639.086,-201.947"/>
<polygon fill="midnightblue" stroke="midnightblue" points="641.562,-204.457 647.331,-195.571 637.279,-198.919 641.562,-204.457"/>
</g>
<!-- Node24 -->
<g id="node55" class="node"><title>Node24</title>
<a xlink:href="xmlSetter_8h.html" target="_top" xlink:title="visitors/xmlSetter.h">
<polygon fill="none" stroke="black" points="902.5,-174.5 902.5,-195.5 1011.5,-195.5 1011.5,-174.5 902.5,-174.5"/>
<text text-anchor="middle" x="957" y="-182.5" font-family="FreeSans.ttf" font-size="10.00">visitors/xmlSetter.h</text>
</a>
</g>
<!-- Node18&#45;&gt;Node24 -->
<g id="edge62" class="edge"><title>Node18&#45;&gt;Node24</title>
<path fill="none" stroke="midnightblue" d="M657.948,-232.466C718.095,-223.558 806.411,-210.241 892.442,-196.234"/>
<polygon fill="midnightblue" stroke="midnightblue" points="893.071,-199.677 902.376,-194.611 891.943,-192.769 893.071,-199.677"/>
</g>
<!-- Node26 -->
<g id="node61" class="node"><title>Node26</title>
<a xlink:href="qSettingsGetter_8h.html" target="_top" xlink:title="visitors/qSettingsGetter.h">
<polygon fill="none" stroke="black" points="747,-174.5 747,-195.5 885,-195.5 885,-174.5 747,-174.5"/>
<text text-anchor="middle" x="816" y="-182.5" font-family="FreeSans.ttf" font-size="10.00">visitors/qSettingsGetter.h</text>
</a>
</g>
<!-- Node18&#45;&gt;Node26 -->
<g id="edge70" class="edge"><title>Node18&#45;&gt;Node26</title>
<path fill="none" stroke="midnightblue" d="M627.651,-232.497C666.04,-222.816 723.145,-208.416 764.407,-198.01"/>
<polygon fill="midnightblue" stroke="midnightblue" points="765.43,-201.362 774.271,-195.523 763.718,-194.575 765.43,-201.362"/>
</g>
<!-- Node28 -->
<g id="node67" class="node"><title>Node28</title>
<a xlink:href="xmlGetter_8h.html" target="_top" xlink:title="visitors/xmlGetter.h">
<polygon fill="none" stroke="black" points="1029,-174.5 1029,-195.5 1139,-195.5 1139,-174.5 1029,-174.5"/>
<text text-anchor="middle" x="1084" y="-182.5" font-family="FreeSans.ttf" font-size="10.00">visitors/xmlGetter.h</text>
</a>
</g>
<!-- Node18&#45;&gt;Node28 -->
<g id="edge78" class="edge"><title>Node18&#45;&gt;Node28</title>
<path fill="none" stroke="midnightblue" d="M672.657,-235.219C758.088,-227.182 892.589,-213.549 1018.65,-196.123"/>
<polygon fill="midnightblue" stroke="midnightblue" points="1019.45,-199.545 1028.88,-194.699 1018.49,-192.612 1019.45,-199.545"/>
</g>
<!-- Node20&#45;&gt;Node4 -->
<g id="edge60" class="edge"><title>Node20&#45;&gt;Node4</title>
<path fill="none" stroke="midnightblue" d="M645.593,-174.362C633.042,-165.696 615.108,-153.313 600.725,-143.382"/>
<polygon fill="midnightblue" stroke="midnightblue" points="602.527,-140.372 592.309,-137.571 598.55,-146.133 602.527,-140.372"/>
</g>
<!-- Node21 -->
<g id="node47" class="node"><title>Node21</title>
<polygon fill="none" stroke="#bfbfbf" points="629.5,-116.5 629.5,-137.5 730.5,-137.5 730.5,-116.5 629.5,-116.5"/>
<text text-anchor="middle" x="680" y="-124.5" font-family="FreeSans.ttf" font-size="10.00">QtCore/QSettings</text>
</g>
<!-- Node20&#45;&gt;Node21 -->
<g id="edge52" class="edge"><title>Node20&#45;&gt;Node21</title>
<path fill="none" stroke="midnightblue" d="M664.485,-174.362C666.976,-166.758 670.404,-156.294 673.404,-147.135"/>
<polygon fill="midnightblue" stroke="midnightblue" points="676.75,-148.163 676.537,-137.571 670.098,-145.984 676.75,-148.163"/>
</g>
<!-- Node22 -->
<g id="node49" class="node"><title>Node22</title>
<a xlink:href="basePathVisitor_8h.html" target="_top" xlink:title="Add Comment Here.">
<polygon fill="none" stroke="black" points="829.5,-116.5 829.5,-137.5 928.5,-137.5 928.5,-116.5 829.5,-116.5"/>
<text text-anchor="middle" x="879" y="-124.5" font-family="FreeSans.ttf" font-size="10.00">basePathVisitor.h</text>
</a>
</g>
<!-- Node20&#45;&gt;Node22 -->
<g id="edge54" class="edge"><title>Node20&#45;&gt;Node22</title>
<path fill="none" stroke="midnightblue" d="M700.478,-174.497C736.633,-164.877 790.304,-150.598 829.353,-140.209"/>
<polygon fill="midnightblue" stroke="midnightblue" points="830.684,-143.477 839.448,-137.523 828.884,-136.712 830.684,-143.477"/>
</g>
<!-- Node22&#45;&gt;Node6 -->
<g id="edge58" class="edge"><title>Node22&#45;&gt;Node6</title>
<path fill="none" stroke="midnightblue" d="M863.777,-116.362C851.375,-107.696 833.654,-95.3126 819.443,-85.3819"/>
<polygon fill="midnightblue" stroke="midnightblue" points="821.329,-82.4297 811.127,-79.5707 817.319,-88.1676 821.329,-82.4297"/>
</g>
<!-- Node23 -->
<g id="node51" class="node"><title>Node23</title>
<polygon fill="none" stroke="#bfbfbf" points="855.5,-58.5 855.5,-79.5 902.5,-79.5 902.5,-58.5 855.5,-58.5"/>
<text text-anchor="middle" x="879" y="-66.5" font-family="FreeSans.ttf" font-size="10.00">deque</text>
</g>
<!-- Node22&#45;&gt;Node23 -->
<g id="edge56" class="edge"><title>Node22&#45;&gt;Node23</title>
<path fill="none" stroke="midnightblue" d="M879,-116.362C879,-108.922 879,-98.7427 879,-89.7276"/>
<polygon fill="midnightblue" stroke="midnightblue" points="882.5,-89.5706 879,-79.5707 875.5,-89.5707 882.5,-89.5706"/>
</g>
<!-- Node24&#45;&gt;Node4 -->
<g id="edge68" class="edge"><title>Node24&#45;&gt;Node4</title>
<path fill="none" stroke="midnightblue" d="M902.387,-175.321C899.552,-174.863 896.744,-174.42 894,-174 776.217,-155.959 742.965,-160.61 622.451,-138.122"/>
<polygon fill="midnightblue" stroke="midnightblue" points="622.941,-134.653 612.465,-136.235 621.641,-141.531 622.941,-134.653"/>
</g>
<!-- Node24&#45;&gt;Node22 -->
<g id="edge66" class="edge"><title>Node24&#45;&gt;Node22</title>
<path fill="none" stroke="midnightblue" d="M942.694,-174.362C931.149,-165.777 914.7,-153.546 901.41,-143.664"/>
<polygon fill="midnightblue" stroke="midnightblue" points="903.329,-140.729 893.216,-137.571 899.152,-146.346 903.329,-140.729"/>
</g>
<!-- Node25 -->
<g id="node57" class="node"><title>Node25</title>
<polygon fill="none" stroke="#bfbfbf" points="945.5,-116.5 945.5,-137.5 1034.5,-137.5 1034.5,-116.5 945.5,-116.5"/>
<text text-anchor="middle" x="990" y="-124.5" font-family="FreeSans.ttf" font-size="10.00">QtCore/QString</text>
</g>
<!-- Node24&#45;&gt;Node25 -->
<g id="edge64" class="edge"><title>Node24&#45;&gt;Node25</title>
<path fill="none" stroke="midnightblue" d="M963.053,-174.362C967.472,-166.595 973.59,-155.843 978.879,-146.546"/>
<polygon fill="midnightblue" stroke="midnightblue" points="982.082,-147.993 983.986,-137.571 975.998,-144.531 982.082,-147.993"/>
</g>
<!-- Node26&#45;&gt;Node4 -->
<g id="edge76" class="edge"><title>Node26&#45;&gt;Node4</title>
<path fill="none" stroke="midnightblue" d="M771.83,-174.467C734.452,-165.528 679.197,-152.254 622.001,-138.233"/>
<polygon fill="midnightblue" stroke="midnightblue" points="622.604,-134.777 612.058,-135.793 620.935,-141.575 622.604,-134.777"/>
</g>
<!-- Node26&#45;&gt;Node22 -->
<g id="edge74" class="edge"><title>Node26&#45;&gt;Node22</title>
<path fill="none" stroke="midnightblue" d="M827.555,-174.362C836.613,-166.023 849.41,-154.242 859.974,-144.516"/>
<polygon fill="midnightblue" stroke="midnightblue" points="862.532,-146.919 867.518,-137.571 857.79,-141.769 862.532,-146.919"/>
</g>
<!-- Node27 -->
<g id="node63" class="node"><title>Node27</title>
<polygon fill="none" stroke="#bfbfbf" points="748,-116.5 748,-137.5 812,-137.5 812,-116.5 748,-116.5"/>
<text text-anchor="middle" x="780" y="-124.5" font-family="FreeSans.ttf" font-size="10.00">QSettings</text>
</g>
<!-- Node26&#45;&gt;Node27 -->
<g id="edge72" class="edge"><title>Node26&#45;&gt;Node27</title>
<path fill="none" stroke="midnightblue" d="M809.397,-174.362C804.525,-166.513 797.762,-155.616 791.95,-146.253"/>
<polygon fill="midnightblue" stroke="midnightblue" points="794.809,-144.221 786.561,-137.571 788.861,-147.913 794.809,-144.221"/>
</g>
<!-- Node28&#45;&gt;Node4 -->
<g id="edge84" class="edge"><title>Node28&#45;&gt;Node4</title>
<path fill="none" stroke="midnightblue" d="M1028.88,-175.238C1025.88,-174.797 1022.91,-174.38 1020,-174 846.727,-151.33 798.347,-167.072 622.551,-138.056"/>
<polygon fill="midnightblue" stroke="midnightblue" points="622.883,-134.563 612.442,-136.362 621.726,-141.467 622.883,-134.563"/>
</g>
<!-- Node28&#45;&gt;Node22 -->
<g id="edge86" class="edge"><title>Node28&#45;&gt;Node22</title>
<path fill="none" stroke="midnightblue" d="M1046.88,-174.497C1013.02,-164.918 962.836,-150.72 926.156,-140.342"/>
<polygon fill="midnightblue" stroke="midnightblue" points="926.769,-136.878 916.194,-137.523 924.863,-143.613 926.769,-136.878"/>
</g>
<!-- Node28&#45;&gt;Node25 -->
<g id="edge80" class="edge"><title>Node28&#45;&gt;Node25</title>
<path fill="none" stroke="midnightblue" d="M1066.76,-174.362C1052.45,-165.532 1031.89,-152.844 1015.64,-142.822"/>
<polygon fill="midnightblue" stroke="midnightblue" points="1017.48,-139.843 1007.13,-137.571 1013.8,-145.8 1017.48,-139.843"/>
</g>
<!-- Node29 -->
<g id="node70" class="node"><title>Node29</title>
<polygon fill="none" stroke="#bfbfbf" points="1051.5,-116.5 1051.5,-137.5 1170.5,-137.5 1170.5,-116.5 1051.5,-116.5"/>
<text text-anchor="middle" x="1111" y="-124.5" font-family="FreeSans.ttf" font-size="10.00">QtXml/QDomElement</text>
</g>
<!-- Node28&#45;&gt;Node29 -->
<g id="edge82" class="edge"><title>Node28&#45;&gt;Node29</title>
<path fill="none" stroke="midnightblue" d="M1088.95,-174.362C1092.53,-166.677 1097.47,-156.069 1101.76,-146.84"/>
<polygon fill="midnightblue" stroke="midnightblue" points="1105.03,-148.114 1106.08,-137.571 1098.69,-145.159 1105.03,-148.114"/>
</g>
<!-- Node30&#45;&gt;Node4 -->
<g id="edge94" class="edge"><title>Node30&#45;&gt;Node4</title>
<path fill="none" stroke="midnightblue" d="M452.01,-290.468C431.329,-267.368 388.005,-211.336 416,-174 429.988,-155.344 489.49,-141.635 532.082,-133.986"/>
<polygon fill="midnightblue" stroke="midnightblue" points="532.716,-137.428 541.967,-132.263 531.515,-130.532 532.716,-137.428"/>
</g>
<!-- Node30&#45;&gt;Node11 -->
<g id="edge92" class="edge"><title>Node30&#45;&gt;Node11</title>
<path fill="none" stroke="midnightblue" d="M446.254,-290.229C434.624,-281.588 419.12,-268.533 409,-254 371.877,-200.685 350.386,-125.582 341.635,-89.6829"/>
<polygon fill="midnightblue" stroke="midnightblue" points="345.022,-88.8 339.324,-79.868 338.209,-90.404 345.022,-88.8"/>
</g>
<!-- Node30&#45;&gt;Node18 -->
<g id="edge96" class="edge"><title>Node30&#45;&gt;Node18</title>
<path fill="none" stroke="midnightblue" d="M484.455,-290.497C503.91,-281.397 532.28,-268.127 554.091,-257.925"/>
<polygon fill="midnightblue" stroke="midnightblue" points="555.717,-261.028 563.293,-253.621 552.752,-254.688 555.717,-261.028"/>
</g>
<!-- Node30&#45;&gt;Node19 -->
<g id="edge90" class="edge"><title>Node30&#45;&gt;Node19</title>
<path fill="none" stroke="midnightblue" d="M462,-290.295C462,-271.131 462,-230.654 462,-205.843"/>
<polygon fill="midnightblue" stroke="midnightblue" points="465.5,-205.679 462,-195.679 458.5,-205.679 465.5,-205.679"/>
</g>
</g>
</svg>
        <g id="navigator" transform="translate(0 0)" fill="#404254">
                <rect fill="#f2f5e9" fill-opacity="0.5" stroke="#606060" stroke-width=".5" x="0" y="0" width="60" height="60"/>
                <use id="zoomplus" xlink:href="#zoomPlus" x="17" y="9" onmousedown="handleZoom(evt,'in')"/>
                <use id="zoomminus" xlink:href="#zoomMin" x="42" y="9" onmousedown="handleZoom(evt,'out')"/>
                <use id="reset" xlink:href="#resetDef" x="30" y="36" onmousedown="handleReset()"/>
                <g id="arrowUp" xlink:href="#dirArrow" transform="translate(30 24)" onmousedown="handlePan(0,-1)">
                  <use xlink:href="#rim" fill="#404040">
                        <set attributeName="fill" to="#808080" begin="arrowUp.mouseover" end="arrowUp.mouseout"/>
                  </use>
                  <path fill="none" stroke="white" stroke-width="1.5" d="M0,-3.0v7 M-2.5,-0.5L0,-3.0L2.5,-0.5"/>
                </g>
                <g id="arrowRight" xlink:href="#dirArrow" transform="rotate(90) translate(36 -43)" onmousedown="handlePan(1,0)">
                  <use xlink:href="#rim" fill="#404040">
                        <set attributeName="fill" to="#808080" begin="arrowRight.mouseover" end="arrowRight.mouseout"/>
                  </use>
                  <path fill="none" stroke="white" stroke-width="1.5" d="M0,-3.0v7 M-2.5,-0.5L0,-3.0L2.5,-0.5"/>
                </g>
                <g id="arrowDown" xlink:href="#dirArrow" transform="rotate(180) translate(-30 -48)" onmousedown="handlePan(0,1)">
                  <use xlink:href="#rim" fill="#404040">
                        <set attributeName="fill" to="#808080" begin="arrowDown.mouseover" end="arrowDown.mouseout"/>
                  </use>
                  <path fill="none" stroke="white" stroke-width="1.5" d="M0,-3.0v7 M-2.5,-0.5L0,-3.0L2.5,-0.5"/>
                </g>
                <g id="arrowLeft" xlink:href="#dirArrow" transform="rotate(270) translate(-36 17)" onmousedown="handlePan(-1,0)">
                  <use xlink:href="#rim" fill="#404040">
                        <set attributeName="fill" to="#808080" begin="arrowLeft.mouseover" end="arrowLeft.mouseout"/>
                  </use>
                  <path fill="none" stroke="white" stroke-width="1.5" d="M0,-3.0v7 M-2.5,-0.5L0,-3.0L2.5,-0.5"/>
                </g>
        </g>
</svg>
