<?xml version="1.0" encoding="UTF-8" standalone="no"?>
<!DOCTYPE svg PUBLIC "-//W3C//DTD SVG 1.1//EN"
 "http://www.w3.org/Graphics/SVG/1.1/DTD/svg11.dtd">
<!-- Generated by graphviz version 2.26.3 (20100126.1600)
 -->
<!-- Title: G Pages: 1 -->
<!--zoomable 320 -->
<svg id="main" version="1.1" xmlns="http://www.w3.org/2000/svg" xmlns:xlink="http://www.w3.org/1999/xlink" xml:space="preserve" onload="init(evt)">
        <defs>
                <circle id="rim" cx="0" cy="0" r="7"/>
                <circle id="rim2" cx="0" cy="0" r="3.5"/>
                <g id="zoomPlus">
                        <use xlink:href="#rim" fill="#404040">
                                <set attributeName="fill" to="#808080" begin="zoomplus.mouseover" end="zoomplus.mouseout"/>
                        </use>
                        <path d="M-4,0h8M0,-4v8" fill="none" stroke="white" stroke-width="1.5" pointer-events="none"/>
                </g>
                <g id="zoomMin">
                        <use xlink:href="#rim" fill="#404040">
                                <set attributeName="fill" to="#808080" begin="zoomminus.mouseover" end="zoomminus.mouseout"/>
                        </use>
                        <path d="M-4,0h8" fill="none" stroke="white" stroke-width="1.5" pointer-events="none"/>
                </g>
                <g id="dirArrow">
                        <path fill="none" stroke="white" stroke-width="1.5" d="M0,-3.0v7 M-2.5,-0.5L0,-3.0L2.5,-0.5"/>
                </g>
               <g id="resetDef">
                       <use xlink:href="#rim2" fill="#404040">
                               <set attributeName="fill" to="#808080" begin="reset.mouseover" end="reset.mouseout"/>
                       </use>
               </g>
        </defs>

<script type="text/javascript">
var viewWidth = 2001;
var viewHeight = 320;
var sectionId = 'dynsection-0';
</script>
<script xlink:href="svgpan.js"/>
<svg id="graph" class="graph">
<g id="viewport">
<title>G</title>
<!-- Node1 -->
<g id="node1" class="node"><title>Node1</title>
<polygon fill="#bfbfbf" stroke="black" points="1300.5,-290.5 1300.5,-311.5 1575.5,-311.5 1575.5,-290.5 1300.5,-290.5"/>
<text text-anchor="middle" x="1438" y="-298.5" font-family="FreeSans.ttf" font-size="10.00">applications/base/generatedParameters/outputStyle.h</text>
</g>
<!-- Node2 -->
<g id="node3" class="node"><title>Node2</title>
<a xlink:href="presentationParameters_8h.html" target="_top" xlink:title="applications/base/generatedParameters/presentationParameters.h">
<polygon fill="none" stroke="black" points="1070,-232.5 1070,-253.5 1406,-253.5 1406,-232.5 1070,-232.5"/>
<text text-anchor="middle" x="1238" y="-240.5" font-family="FreeSans.ttf" font-size="10.00">applications/base/generatedParameters/presentationParameters.h</text>
</a>
</g>
<!-- Node1&#45;&gt;Node2 -->
<g id="edge2" class="edge"><title>Node1&#45;&gt;Node2</title>
<path fill="none" stroke="midnightblue" d="M1392.07,-287.68C1356.3,-277.307 1307.34,-263.108 1274.29,-253.523"/>
<polygon fill="midnightblue" stroke="midnightblue" points="1391.2,-291.073 1401.78,-290.497 1393.15,-284.35 1391.2,-291.073"/>
</g>
<!-- Node22 -->
<g id="node49" class="node"><title>Node22</title>
<a xlink:href="imageResultLayer_8h.html" target="_top" xlink:title="applications/base/layers/imageResultLayer.h">
<polygon fill="none" stroke="black" points="1627.5,-174.5 1627.5,-195.5 1854.5,-195.5 1854.5,-174.5 1627.5,-174.5"/>
<text text-anchor="middle" x="1741" y="-182.5" font-family="FreeSans.ttf" font-size="10.00">applications/base/layers/imageResultLayer.h</text>
</a>
</g>
<!-- Node1&#45;&gt;Node22 -->
<g id="edge54" class="edge"><title>Node1&#45;&gt;Node22</title>
<path fill="none" stroke="midnightblue" d="M1475.04,-286.819C1536.67,-263.227 1658.85,-216.451 1713.48,-195.535"/>
<polygon fill="midnightblue" stroke="midnightblue" points="1473.78,-283.554 1465.69,-290.398 1476.28,-290.092 1473.78,-283.554"/>
</g>
<!-- Node3 -->
<g id="node5" class="node"><title>Node3</title>
<a xlink:href="baseCalculationThread_8h.html" target="_top" xlink:title="applications/base/baseCalculationThread.h">
<polygon fill="none" stroke="black" points="1025.5,-174.5 1025.5,-195.5 1246.5,-195.5 1246.5,-174.5 1025.5,-174.5"/>
<text text-anchor="middle" x="1136" y="-182.5" font-family="FreeSans.ttf" font-size="10.00">applications/base/baseCalculationThread.h</text>
</a>
</g>
<!-- Node2&#45;&gt;Node3 -->
<g id="edge4" class="edge"><title>Node2&#45;&gt;Node3</title>
<path fill="none" stroke="midnightblue" d="M1210.53,-227.379C1192.81,-217.301 1170.23,-204.462 1154.59,-195.571"/>
<polygon fill="midnightblue" stroke="midnightblue" points="1208.87,-230.461 1219.29,-232.362 1212.33,-224.376 1208.87,-230.461"/>
</g>
<!-- Node15 -->
<g id="node32" class="node"><title>Node15</title>
<a xlink:href="presentationParametersControlWidget_8h.html" target="_top" xlink:title="applications/base/presentationParametersControlWidget.h">
<polygon fill="none" stroke="black" points="713.5,-174.5 713.5,-195.5 1008.5,-195.5 1008.5,-174.5 713.5,-174.5"/>
<text text-anchor="middle" x="861" y="-182.5" font-family="FreeSans.ttf" font-size="10.00">applications/base/presentationParametersControlWidget.h</text>
</a>
</g>
<!-- Node2&#45;&gt;Node15 -->
<g id="edge34" class="edge"><title>Node2&#45;&gt;Node15</title>
<path fill="none" stroke="midnightblue" d="M1159.5,-230.923C1091.54,-220.468 994.23,-205.497 929.4,-195.523"/>
<polygon fill="midnightblue" stroke="midnightblue" points="1159.31,-234.435 1169.73,-232.497 1160.38,-227.517 1159.31,-234.435"/>
</g>
<!-- Node21 -->
<g id="node47" class="node"><title>Node21</title>
<a xlink:href="presentationParameters_8cpp.html" target="_top" xlink:title="applications/base/generatedParameters/presentationParameters.cpp">
<polygon fill="none" stroke="black" points="1263.5,-174.5 1263.5,-195.5 1610.5,-195.5 1610.5,-174.5 1263.5,-174.5"/>
<text text-anchor="middle" x="1437" y="-182.5" font-family="FreeSans.ttf" font-size="10.00">applications/base/generatedParameters/presentationParameters.cpp</text>
</a>
</g>
<!-- Node2&#45;&gt;Node21 -->
<g id="edge52" class="edge"><title>Node2&#45;&gt;Node21</title>
<path fill="none" stroke="midnightblue" d="M1283.7,-229.68C1319.29,-219.307 1368.01,-205.108 1400.9,-195.523"/>
<polygon fill="midnightblue" stroke="midnightblue" points="1282.66,-226.338 1274.04,-232.497 1284.62,-233.059 1282.66,-226.338"/>
</g>
<!-- Node4 -->
<g id="node7" class="node"><title>Node4</title>
<a xlink:href="baseCalculationThread_8cpp.html" target="_top" xlink:title="Implements a basic calculation thread that performs a simple transform on the captured frames and pro...">
<polygon fill="none" stroke="black" points="1467,-116.5 1467,-137.5 1699,-137.5 1699,-116.5 1467,-116.5"/>
<text text-anchor="middle" x="1583" y="-124.5" font-family="FreeSans.ttf" font-size="10.00">applications/base/baseCalculationThread.cpp</text>
</a>
</g>
<!-- Node3&#45;&gt;Node4 -->
<g id="edge6" class="edge"><title>Node3&#45;&gt;Node4</title>
<path fill="none" stroke="midnightblue" d="M1227.09,-173.18C1307.76,-162.714 1424.4,-147.579 1501.9,-137.523"/>
<polygon fill="midnightblue" stroke="midnightblue" points="1226.41,-169.739 1216.95,-174.497 1227.32,-176.681 1226.41,-169.739"/>
</g>
<!-- Node5 -->
<g id="node9" class="node"><title>Node5</title>
<a xlink:href="baseHostDialog_8h.html" target="_top" xlink:title="applications/base/baseHostDialog.h">
<polygon fill="none" stroke="black" points="1041,-116.5 1041,-137.5 1229,-137.5 1229,-116.5 1041,-116.5"/>
<text text-anchor="middle" x="1135" y="-124.5" font-family="FreeSans.ttf" font-size="10.00">applications/base/baseHostDialog.h</text>
</a>
</g>
<!-- Node3&#45;&gt;Node5 -->
<g id="edge8" class="edge"><title>Node3&#45;&gt;Node5</title>
<path fill="none" stroke="midnightblue" d="M1135.64,-164.191C1135.49,-155.168 1135.31,-144.994 1135.18,-137.571"/>
<polygon fill="midnightblue" stroke="midnightblue" points="1132.14,-164.424 1135.82,-174.362 1139.14,-164.303 1132.14,-164.424"/>
</g>
<!-- Node13 -->
<g id="node27" class="node"><title>Node13</title>
<a xlink:href="recorderThread_8h.html" target="_top" xlink:title="applications/recorder/recorderThread.h">
<polygon fill="none" stroke="black" points="1246.5,-116.5 1246.5,-137.5 1449.5,-137.5 1449.5,-116.5 1246.5,-116.5"/>
<text text-anchor="middle" x="1348" y="-124.5" font-family="FreeSans.ttf" font-size="10.00">applications/recorder/recorderThread.h</text>
</a>
</g>
<!-- Node3&#45;&gt;Node13 -->
<g id="edge28" class="edge"><title>Node3&#45;&gt;Node13</title>
<path fill="none" stroke="midnightblue" d="M1184.2,-171.812C1222.16,-161.428 1274.35,-147.149 1309.54,-137.523"/>
<polygon fill="midnightblue" stroke="midnightblue" points="1183.11,-168.482 1174.39,-174.497 1184.96,-175.234 1183.11,-168.482"/>
</g>
<!-- Node6 -->
<g id="node11" class="node"><title>Node6</title>
<a xlink:href="baseHostDialog_8cpp.html" target="_top" xlink:title="Implements a basic host dialog that uses BaseCalculationThread to process captured data Extend or rei...">
<polygon fill="none" stroke="black" points="882.5,-58.5 882.5,-79.5 1081.5,-79.5 1081.5,-58.5 882.5,-58.5"/>
<text text-anchor="middle" x="982" y="-66.5" font-family="FreeSans.ttf" font-size="10.00">applications/base/baseHostDialog.cpp</text>
</a>
</g>
<!-- Node5&#45;&gt;Node6 -->
<g id="edge10" class="edge"><title>Node5&#45;&gt;Node6</title>
<path fill="none" stroke="midnightblue" d="M1097.74,-112.874C1070.59,-102.582 1034.39,-88.862 1009.76,-79.5231"/>
<polygon fill="midnightblue" stroke="midnightblue" points="1096.7,-116.225 1107.29,-116.497 1099.18,-109.679 1096.7,-116.225"/>
</g>
<!-- Node7 -->
<g id="node13" class="node"><title>Node7</title>
<a xlink:href="main__vibase_8cpp.html" target="_top" xlink:title="applications/base/main_vibase.cpp">
<polygon fill="none" stroke="black" points="1510.5,-0.5 1510.5,-21.5 1693.5,-21.5 1693.5,-0.5 1510.5,-0.5"/>
<text text-anchor="middle" x="1602" y="-8.5" font-family="FreeSans.ttf" font-size="10.00">applications/base/main_vibase.cpp</text>
</a>
</g>
<!-- Node5&#45;&gt;Node7 -->
<g id="edge12" class="edge"><title>Node5&#45;&gt;Node7</title>
<path fill="none" stroke="midnightblue" d="M1239.21,-115.82C1337.19,-104.92 1472.28,-88.7463 1496,-80 1533.29,-66.2504 1570.84,-37.451 1589.64,-21.7564"/>
<polygon fill="midnightblue" stroke="midnightblue" points="1238.8,-112.343 1229.25,-116.923 1239.57,-119.3 1238.8,-112.343"/>
</g>
<!-- Node8 -->
<g id="node15" class="node"><title>Node8</title>
<a xlink:href="mainWindow_8h.html" target="_top" xlink:title="applications/base/mainWindow.h">
<polygon fill="none" stroke="black" points="1317,-58.5 1317,-79.5 1487,-79.5 1487,-58.5 1317,-58.5"/>
<text text-anchor="middle" x="1402" y="-66.5" font-family="FreeSans.ttf" font-size="10.00">applications/base/mainWindow.h</text>
</a>
</g>
<!-- Node5&#45;&gt;Node8 -->
<g id="edge14" class="edge"><title>Node5&#45;&gt;Node8</title>
<path fill="none" stroke="midnightblue" d="M1193.28,-114.339C1241.27,-103.916 1308.49,-89.3126 1353.56,-79.5231"/>
<polygon fill="midnightblue" stroke="midnightblue" points="1192.38,-110.954 1183.35,-116.497 1193.87,-117.794 1192.38,-110.954"/>
</g>
<!-- Node11 -->
<g id="node22" class="node"><title>Node11</title>
<a xlink:href="recorderDialog_8h.html" target="_top" xlink:title="Defines a recorder dialog class derived from BaseHostDialog.">
<polygon fill="none" stroke="black" points="1099,-58.5 1099,-79.5 1299,-79.5 1299,-58.5 1099,-58.5"/>
<text text-anchor="middle" x="1199" y="-66.5" font-family="FreeSans.ttf" font-size="10.00">applications/recorder/recorderDialog.h</text>
</a>
</g>
<!-- Node5&#45;&gt;Node11 -->
<g id="edge22" class="edge"><title>Node5&#45;&gt;Node11</title>
<path fill="none" stroke="midnightblue" d="M1154.42,-109.405C1165.16,-99.6683 1178.15,-87.8914 1187.34,-79.5707"/>
<polygon fill="midnightblue" stroke="midnightblue" points="1151.8,-107.053 1146.74,-116.362 1156.5,-112.24 1151.8,-107.053"/>
</g>
<!-- Node8&#45;&gt;Node7 -->
<g id="edge16" class="edge"><title>Node8&#45;&gt;Node7</title>
<path fill="none" stroke="midnightblue" d="M1447.93,-55.6795C1483.7,-45.307 1532.66,-31.1078 1565.71,-21.5231"/>
<polygon fill="midnightblue" stroke="midnightblue" points="1446.85,-52.3498 1438.22,-58.4966 1448.8,-59.0728 1446.85,-52.3498"/>
</g>
<!-- Node9 -->
<g id="node18" class="node"><title>Node9</title>
<a xlink:href="mainWindow_8cpp.html" target="_top" xlink:title="applications/base/mainWindow.cpp">
<polygon fill="none" stroke="black" points="1311,-0.5 1311,-21.5 1493,-21.5 1493,-0.5 1311,-0.5"/>
<text text-anchor="middle" x="1402" y="-8.5" font-family="FreeSans.ttf" font-size="10.00">applications/base/mainWindow.cpp</text>
</a>
</g>
<!-- Node8&#45;&gt;Node9 -->
<g id="edge18" class="edge"><title>Node8&#45;&gt;Node9</title>
<path fill="none" stroke="midnightblue" d="M1402,-48.1906C1402,-39.1684 1402,-28.9941 1402,-21.5707"/>
<polygon fill="midnightblue" stroke="midnightblue" points="1398.5,-48.3619 1402,-58.3619 1405.5,-48.3619 1398.5,-48.3619"/>
</g>
<!-- Node10 -->
<g id="node20" class="node"><title>Node10</title>
<a xlink:href="main__virecorder_8cpp.html" target="_top" xlink:title="applications/recorder/main_virecorder.cpp">
<polygon fill="none" stroke="black" points="1076.5,-0.5 1076.5,-21.5 1293.5,-21.5 1293.5,-0.5 1076.5,-0.5"/>
<text text-anchor="middle" x="1185" y="-8.5" font-family="FreeSans.ttf" font-size="10.00">applications/recorder/main_virecorder.cpp</text>
</a>
</g>
<!-- Node8&#45;&gt;Node10 -->
<g id="edge20" class="edge"><title>Node8&#45;&gt;Node10</title>
<path fill="none" stroke="midnightblue" d="M1352.66,-55.8123C1313.81,-45.4285 1260.38,-31.1487 1224.37,-21.5231"/>
<polygon fill="midnightblue" stroke="midnightblue" points="1352.14,-59.2957 1362.7,-58.4966 1353.95,-52.5331 1352.14,-59.2957"/>
</g>
<!-- Node11&#45;&gt;Node10 -->
<g id="edge24" class="edge"><title>Node11&#45;&gt;Node10</title>
<path fill="none" stroke="midnightblue" d="M1194.05,-48.4876C1191.85,-39.3924 1189.36,-29.0756 1187.55,-21.5707"/>
<polygon fill="midnightblue" stroke="midnightblue" points="1190.68,-49.4623 1196.43,-58.3619 1197.49,-47.8198 1190.68,-49.4623"/>
</g>
<!-- Node12 -->
<g id="node25" class="node"><title>Node12</title>
<a xlink:href="recorderDialog_8cpp.html" target="_top" xlink:title="Implements frame recording dialog based on BaseHostDialog.">
<polygon fill="none" stroke="black" points="623.5,-0.5 623.5,-21.5 834.5,-21.5 834.5,-0.5 623.5,-0.5"/>
<text text-anchor="middle" x="729" y="-8.5" font-family="FreeSans.ttf" font-size="10.00">applications/recorder/recorderDialog.cpp</text>
</a>
</g>
<!-- Node11&#45;&gt;Node12 -->
<g id="edge26" class="edge"><title>Node11&#45;&gt;Node12</title>
<path fill="none" stroke="midnightblue" d="M1103.74,-57.244C1018.9,-46.7755 895.925,-31.5993 814.273,-21.5231"/>
<polygon fill="midnightblue" stroke="midnightblue" points="1103.53,-60.7455 1113.89,-58.4966 1104.39,-53.7981 1103.53,-60.7455"/>
</g>
<!-- Node13&#45;&gt;Node11 -->
<g id="edge30" class="edge"><title>Node13&#45;&gt;Node11</title>
<path fill="none" stroke="midnightblue" d="M1311.36,-112.739C1284.96,-102.462 1249.92,-88.821 1226.03,-79.5231"/>
<polygon fill="midnightblue" stroke="midnightblue" points="1310.43,-116.131 1321.02,-116.497 1312.97,-109.607 1310.43,-116.131"/>
</g>
<!-- Node14 -->
<g id="node30" class="node"><title>Node14</title>
<a xlink:href="recorderThread_8cpp.html" target="_top" xlink:title="Implements a frame recording calculation thread based on BaseCalculationThread.">
<polygon fill="none" stroke="black" points="1601,-58.5 1601,-79.5 1815,-79.5 1815,-58.5 1601,-58.5"/>
<text text-anchor="middle" x="1708" y="-66.5" font-family="FreeSans.ttf" font-size="10.00">applications/recorder/recorderThread.cpp</text>
</a>
</g>
<!-- Node13&#45;&gt;Node14 -->
<g id="edge32" class="edge"><title>Node13&#45;&gt;Node14</title>
<path fill="none" stroke="midnightblue" d="M1423.36,-114.859C1488.24,-104.406 1580.91,-89.4764 1642.68,-79.5231"/>
<polygon fill="midnightblue" stroke="midnightblue" points="1422.51,-111.451 1413.19,-116.497 1423.62,-118.361 1422.51,-111.451"/>
</g>
<!-- Node15&#45;&gt;Node5 -->
<g id="edge36" class="edge"><title>Node15&#45;&gt;Node5</title>
<path fill="none" stroke="midnightblue" d="M920.503,-172.404C969.764,-161.977 1038.94,-147.333 1085.29,-137.523"/>
<polygon fill="midnightblue" stroke="midnightblue" points="919.678,-169.002 910.619,-174.497 921.127,-175.85 919.678,-169.002"/>
</g>
<!-- Node16 -->
<g id="node35" class="node"><title>Node16</title>
<a xlink:href="parametersMapperBase_8h.html" target="_top" xlink:title="applications/base/parametersMapper/parametersMapperBase.h">
<polygon fill="none" stroke="black" points="699.5,-116.5 699.5,-137.5 1022.5,-137.5 1022.5,-116.5 699.5,-116.5"/>
<text text-anchor="middle" x="861" y="-124.5" font-family="FreeSans.ttf" font-size="10.00">applications/base/parametersMapper/parametersMapperBase.h</text>
</a>
</g>
<!-- Node15&#45;&gt;Node16 -->
<g id="edge38" class="edge"><title>Node15&#45;&gt;Node16</title>
<path fill="none" stroke="midnightblue" d="M861,-164.191C861,-155.168 861,-144.994 861,-137.571"/>
<polygon fill="midnightblue" stroke="midnightblue" points="857.5,-164.362 861,-174.362 864.5,-164.362 857.5,-164.362"/>
</g>
<!-- Node18 -->
<g id="node40" class="node"><title>Node18</title>
<a xlink:href="presentationParametersControlWidget_8cpp.html" target="_top" xlink:title="applications/base/presentationParametersControlWidget.cpp">
<polygon fill="none" stroke="black" points="0,-116.5 0,-137.5 306,-137.5 306,-116.5 0,-116.5"/>
<text text-anchor="middle" x="153" y="-124.5" font-family="FreeSans.ttf" font-size="10.00">applications/base/presentationParametersControlWidget.cpp</text>
</a>
</g>
<!-- Node15&#45;&gt;Node18 -->
<g id="edge44" class="edge"><title>Node15&#45;&gt;Node18</title>
<path fill="none" stroke="midnightblue" d="M722.53,-173.656C594.613,-163.177 406.078,-147.732 281.454,-137.523"/>
<polygon fill="midnightblue" stroke="midnightblue" points="722.534,-177.168 732.787,-174.497 723.106,-170.192 722.534,-177.168"/>
</g>
<!-- Node19 -->
<g id="node42" class="node"><title>Node19</title>
<a xlink:href="parametersMapperRecorder_8h.html" target="_top" xlink:title="applications/recorder/parametersMapper/parametersMapperRecorder.h">
<polygon fill="none" stroke="black" points="324,-116.5 324,-137.5 682,-137.5 682,-116.5 324,-116.5"/>
<text text-anchor="middle" x="503" y="-124.5" font-family="FreeSans.ttf" font-size="10.00">applications/recorder/parametersMapper/parametersMapperRecorder.h</text>
</a>
</g>
<!-- Node15&#45;&gt;Node19 -->
<g id="edge46" class="edge"><title>Node15&#45;&gt;Node19</title>
<path fill="none" stroke="midnightblue" d="M786.06,-172.859C721.541,-162.406 629.389,-147.476 567.953,-137.523"/>
<polygon fill="midnightblue" stroke="midnightblue" points="785.738,-176.352 796.169,-174.497 786.857,-169.442 785.738,-176.352"/>
</g>
<!-- Node16&#45;&gt;Node6 -->
<g id="edge40" class="edge"><title>Node16&#45;&gt;Node6</title>
<path fill="none" stroke="midnightblue" d="M892.149,-112.069C913.339,-101.912 940.869,-88.7157 959.842,-79.6212"/>
<polygon fill="midnightblue" stroke="midnightblue" points="890.417,-109.018 882.912,-116.497 893.443,-115.33 890.417,-109.018"/>
</g>
<!-- Node17 -->
<g id="node38" class="node"><title>Node17</title>
<a xlink:href="parametersMapperBase_8cpp.html" target="_top" xlink:title="applications/base/parametersMapper/parametersMapperBase.cpp">
<polygon fill="none" stroke="black" points="530.5,-58.5 530.5,-79.5 865.5,-79.5 865.5,-58.5 530.5,-58.5"/>
<text text-anchor="middle" x="698" y="-66.5" font-family="FreeSans.ttf" font-size="10.00">applications/base/parametersMapper/parametersMapperBase.cpp</text>
</a>
</g>
<!-- Node16&#45;&gt;Node17 -->
<g id="edge42" class="edge"><title>Node16&#45;&gt;Node17</title>
<path fill="none" stroke="midnightblue" d="M821.682,-113.009C792.715,-102.702 753.934,-88.903 727.573,-79.5231"/>
<polygon fill="midnightblue" stroke="midnightblue" points="820.887,-116.442 831.482,-116.497 823.234,-109.847 820.887,-116.442"/>
</g>
<!-- Node19&#45;&gt;Node12 -->
<g id="edge50" class="edge"><title>Node19&#45;&gt;Node12</title>
<path fill="none" stroke="midnightblue" d="M503.276,-106.303C504.618,-90.8859 508.988,-70.4334 522,-58 539.618,-41.1647 594.277,-29.1805 643.004,-21.5281"/>
<polygon fill="midnightblue" stroke="midnightblue" points="499.773,-106.286 502.754,-116.452 506.763,-106.645 499.773,-106.286"/>
</g>
<!-- Node20 -->
<g id="node44" class="node"><title>Node20</title>
<a xlink:href="parametersMapperRecorder_8cpp.html" target="_top" xlink:title="applications/recorder/parametersMapper/parametersMapperRecorder.cpp">
<polygon fill="none" stroke="black" points="106.5,-58.5 106.5,-79.5 475.5,-79.5 475.5,-58.5 106.5,-58.5"/>
<text text-anchor="middle" x="291" y="-66.5" font-family="FreeSans.ttf" font-size="10.00">applications/recorder/parametersMapper/parametersMapperRecorder.cpp</text>
</a>
</g>
<!-- Node19&#45;&gt;Node20 -->
<g id="edge48" class="edge"><title>Node19&#45;&gt;Node20</title>
<path fill="none" stroke="midnightblue" d="M454.797,-113.812C416.842,-103.428 364.647,-89.1487 329.464,-79.5231"/>
<polygon fill="midnightblue" stroke="midnightblue" points="454.039,-117.234 464.608,-116.497 455.886,-110.482 454.039,-117.234"/>
</g>
<!-- Node22&#45;&gt;Node4 -->
<g id="edge56" class="edge"><title>Node22&#45;&gt;Node4</title>
<path fill="none" stroke="midnightblue" d="M1702.89,-171.009C1674.81,-160.702 1637.22,-146.903 1611.67,-137.523"/>
<polygon fill="midnightblue" stroke="midnightblue" points="1701.79,-174.336 1712.39,-174.497 1704.21,-167.765 1701.79,-174.336"/>
</g>
<!-- Node22&#45;&gt;Node14 -->
<g id="edge60" class="edge"><title>Node22&#45;&gt;Node14</title>
<path fill="none" stroke="midnightblue" d="M1735.16,-164.458C1728.1,-139.663 1716.51,-98.9098 1711.04,-79.6792"/>
<polygon fill="midnightblue" stroke="midnightblue" points="1731.85,-165.634 1737.95,-174.295 1738.58,-163.719 1731.85,-165.634"/>
</g>
<!-- Node23 -->
<g id="node52" class="node"><title>Node23</title>
<a xlink:href="imageResultLayer_8cpp.html" target="_top" xlink:title="applications/base/layers/imageResultLayer.cpp">
<polygon fill="none" stroke="black" points="1754.5,-116.5 1754.5,-137.5 1993.5,-137.5 1993.5,-116.5 1754.5,-116.5"/>
<text text-anchor="middle" x="1874" y="-124.5" font-family="FreeSans.ttf" font-size="10.00">applications/base/layers/imageResultLayer.cpp</text>
</a>
</g>
<!-- Node22&#45;&gt;Node23 -->
<g id="edge58" class="edge"><title>Node22&#45;&gt;Node23</title>
<path fill="none" stroke="midnightblue" d="M1774.3,-170.479C1797.71,-160.269 1828.51,-146.839 1849.64,-137.621"/>
<polygon fill="midnightblue" stroke="midnightblue" points="1772.85,-167.291 1765.09,-174.497 1775.65,-173.707 1772.85,-167.291"/>
</g>
</g>
</svg>
        <g id="navigator" transform="translate(0 0)" fill="#404254">
                <rect fill="#f2f5e9" fill-opacity="0.5" stroke="#606060" stroke-width=".5" x="0" y="0" width="60" height="60"/>
                <use id="zoomplus" xlink:href="#zoomPlus" x="17" y="9" onmousedown="handleZoom(evt,'in')"/>
                <use id="zoomminus" xlink:href="#zoomMin" x="42" y="9" onmousedown="handleZoom(evt,'out')"/>
                <use id="reset" xlink:href="#resetDef" x="30" y="36" onmousedown="handleReset()"/>
                <g id="arrowUp" xlink:href="#dirArrow" transform="translate(30 24)" onmousedown="handlePan(0,-1)">
                  <use xlink:href="#rim" fill="#404040">
                        <set attributeName="fill" to="#808080" begin="arrowUp.mouseover" end="arrowUp.mouseout"/>
                  </use>
                  <path fill="none" stroke="white" stroke-width="1.5" d="M0,-3.0v7 M-2.5,-0.5L0,-3.0L2.5,-0.5"/>
                </g>
                <g id="arrowRight" xlink:href="#dirArrow" transform="rotate(90) translate(36 -43)" onmousedown="handlePan(1,0)">
                  <use xlink:href="#rim" fill="#404040">
                        <set attributeName="fill" to="#808080" begin="arrowRight.mouseover" end="arrowRight.mouseout"/>
                  </use>
                  <path fill="none" stroke="white" stroke-width="1.5" d="M0,-3.0v7 M-2.5,-0.5L0,-3.0L2.5,-0.5"/>
                </g>
                <g id="arrowDown" xlink:href="#dirArrow" transform="rotate(180) translate(-30 -48)" onmousedown="handlePan(0,1)">
                  <use xlink:href="#rim" fill="#404040">
                        <set attributeName="fill" to="#808080" begin="arrowDown.mouseover" end="arrowDown.mouseout"/>
                  </use>
                  <path fill="none" stroke="white" stroke-width="1.5" d="M0,-3.0v7 M-2.5,-0.5L0,-3.0L2.5,-0.5"/>
                </g>
                <g id="arrowLeft" xlink:href="#dirArrow" transform="rotate(270) translate(-36 17)" onmousedown="handlePan(-1,0)">
                  <use xlink:href="#rim" fill="#404040">
                        <set attributeName="fill" to="#808080" begin="arrowLeft.mouseover" end="arrowLeft.mouseout"/>
                  </use>
                  <path fill="none" stroke="white" stroke-width="1.5" d="M0,-3.0v7 M-2.5,-0.5L0,-3.0L2.5,-0.5"/>
                </g>
        </g>
</svg>
