<?xml version="1.0" encoding="UTF-8" standalone="no"?>
<!DOCTYPE svg PUBLIC "-//W3C//DTD SVG 1.1//EN"
 "http://www.w3.org/Graphics/SVG/1.1/DTD/svg11.dtd">
<!-- Generated by graphviz version 2.26.3 (20100126.1600)
 -->
<!-- Title: G Pages: 1 -->
<!--zoomable 494 -->
<svg id="main" version="1.1" xmlns="http://www.w3.org/2000/svg" xmlns:xlink="http://www.w3.org/1999/xlink" xml:space="preserve" onload="init(evt)">
        <defs>
                <circle id="rim" cx="0" cy="0" r="7"/>
                <circle id="rim2" cx="0" cy="0" r="3.5"/>
                <g id="zoomPlus">
                        <use xlink:href="#rim" fill="#404040">
                                <set attributeName="fill" to="#808080" begin="zoomplus.mouseover" end="zoomplus.mouseout"/>
                        </use>
                        <path d="M-4,0h8M0,-4v8" fill="none" stroke="white" stroke-width="1.5" pointer-events="none"/>
                </g>
                <g id="zoomMin">
                        <use xlink:href="#rim" fill="#404040">
                                <set attributeName="fill" to="#808080" begin="zoomminus.mouseover" end="zoomminus.mouseout"/>
                        </use>
                        <path d="M-4,0h8" fill="none" stroke="white" stroke-width="1.5" pointer-events="none"/>
                </g>
                <g id="dirArrow">
                        <path fill="none" stroke="white" stroke-width="1.5" d="M0,-3.0v7 M-2.5,-0.5L0,-3.0L2.5,-0.5"/>
                </g>
               <g id="resetDef">
                       <use xlink:href="#rim2" fill="#404040">
                               <set attributeName="fill" to="#808080" begin="reset.mouseover" end="reset.mouseout"/>
                       </use>
               </g>
        </defs>

<script type="text/javascript">
var viewWidth = 1673;
var viewHeight = 494;
var sectionId = 'dynsection-0';
</script>
<script xlink:href="svgpan.js"/>
<svg id="graph" class="graph">
<g id="viewport">
<title>G</title>
<!-- Node1 -->
<g id="node1" class="node"><title>Node1</title>
<polygon fill="#bfbfbf" stroke="black" points="315.5,-464.5 315.5,-485.5 466.5,-485.5 466.5,-464.5 315.5,-464.5"/>
<text text-anchor="middle" x="391" y="-472.5" font-family="FreeSans.ttf" font-size="10.00">utils/uis/paintImageWidget.h</text>
</g>
<!-- Node2 -->
<g id="node3" class="node"><title>Node2</title>
<polygon fill="none" stroke="#bfbfbf" points="118,-174.5 118,-195.5 204,-195.5 204,-174.5 118,-174.5"/>
<text text-anchor="middle" x="161" y="-182.5" font-family="FreeSans.ttf" font-size="10.00">QtGui/QWidget</text>
</g>
<!-- Node1&#45;&gt;Node2 -->
<g id="edge2" class="edge"><title>Node1&#45;&gt;Node2</title>
<path fill="none" stroke="midnightblue" d="M315.326,-466.162C252.025,-454.055 172,-425.581 172,-359 172,-359 172,-359 172,-301 172,-267.448 167.383,-228.68 164.131,-205.538"/>
<polygon fill="midnightblue" stroke="midnightblue" points="167.577,-204.915 162.671,-195.524 160.65,-205.925 167.577,-204.915"/>
</g>
<!-- Node3 -->
<g id="node5" class="node"><title>Node3</title>
<a xlink:href="advancedImageWidget_8h.html" target="_top" xlink:title="advancedImageWidget.h">
<polygon fill="none" stroke="black" points="324,-290.5 324,-311.5 458,-311.5 458,-290.5 324,-290.5"/>
<text text-anchor="middle" x="391" y="-298.5" font-family="FreeSans.ttf" font-size="10.00">advancedImageWidget.h</text>
</a>
</g>
<!-- Node1&#45;&gt;Node3 -->
<g id="edge4" class="edge"><title>Node1&#45;&gt;Node3</title>
<path fill="none" stroke="midnightblue" d="M391,-464.377C391,-436.293 391,-359.673 391,-322.203"/>
<polygon fill="midnightblue" stroke="midnightblue" points="394.5,-321.928 391,-311.928 387.5,-321.928 394.5,-321.928"/>
</g>
<!-- Node30 -->
<g id="node74" class="node"><title>Node30</title>
<a xlink:href="polygons_8h.html" target="_top" xlink:title="Add Comment Here.">
<polygon fill="none" stroke="black" points="1159,-406.5 1159,-427.5 1227,-427.5 1227,-406.5 1159,-406.5"/>
<text text-anchor="middle" x="1193" y="-414.5" font-family="FreeSans.ttf" font-size="10.00">polygons.h</text>
</a>
</g>
<!-- Node1&#45;&gt;Node30 -->
<g id="edge88" class="edge"><title>Node1&#45;&gt;Node30</title>
<path fill="none" stroke="midnightblue" d="M466.811,-469.517C631.617,-457.599 1018.2,-429.642 1148.91,-420.188"/>
<polygon fill="midnightblue" stroke="midnightblue" points="1149.24,-423.674 1158.96,-419.462 1148.73,-416.692 1149.24,-423.674"/>
</g>
<!-- Node3&#45;&gt;Node2 -->
<g id="edge8" class="edge"><title>Node3&#45;&gt;Node2</title>
<path fill="none" stroke="midnightblue" d="M327.582,-290.445C296.356,-283.349 259.06,-271.918 229,-254 207.059,-240.921 187.218,-219.076 174.708,-203.468"/>
<polygon fill="midnightblue" stroke="midnightblue" points="177.444,-201.285 168.545,-195.535 171.916,-205.579 177.444,-201.285"/>
</g>
<!-- Node4 -->
<g id="node7" class="node"><title>Node4</title>
<polygon fill="none" stroke="#bfbfbf" points="1118.5,-58.5 1118.5,-79.5 1165.5,-79.5 1165.5,-58.5 1118.5,-58.5"/>
<text text-anchor="middle" x="1142" y="-66.5" font-family="FreeSans.ttf" font-size="10.00">vector</text>
</g>
<!-- Node3&#45;&gt;Node4 -->
<g id="edge6" class="edge"><title>Node3&#45;&gt;Node4</title>
<path fill="none" stroke="midnightblue" d="M458.087,-296.988C543.44,-291.132 695.133,-278.209 823,-254 919.401,-235.749 948.036,-239.457 1036,-196 1074.1,-177.18 1085.8,-171.449 1112,-138 1123.41,-123.437 1131.38,-103.869 1136.22,-89.2914"/>
<polygon fill="midnightblue" stroke="midnightblue" points="1139.57,-90.2894 1139.2,-79.7013 1132.89,-88.2136 1139.57,-90.2894"/>
</g>
<!-- Node5 -->
<g id="node10" class="node"><title>Node5</title>
<polygon fill="none" stroke="#bfbfbf" points="362,-174.5 362,-195.5 436,-195.5 436,-174.5 362,-174.5"/>
<text text-anchor="middle" x="399" y="-182.5" font-family="FreeSans.ttf" font-size="10.00">QtGui/QtGui</text>
</g>
<!-- Node3&#45;&gt;Node5 -->
<g id="edge10" class="edge"><title>Node3&#45;&gt;Node5</title>
<path fill="none" stroke="midnightblue" d="M391.738,-290.295C393.06,-271.131 395.851,-230.654 397.563,-205.843"/>
<polygon fill="midnightblue" stroke="midnightblue" points="401.067,-205.896 398.264,-195.679 394.084,-205.415 401.067,-205.896"/>
</g>
<!-- Node6 -->
<g id="node12" class="node"><title>Node6</title>
<a xlink:href="viAreaWidget_8h.html" target="_top" xlink:title="viAreaWidget.h">
<polygon fill="none" stroke="black" points="56,-232.5 56,-253.5 144,-253.5 144,-232.5 56,-232.5"/>
<text text-anchor="middle" x="100" y="-240.5" font-family="FreeSans.ttf" font-size="10.00">viAreaWidget.h</text>
</a>
</g>
<!-- Node3&#45;&gt;Node6 -->
<g id="edge12" class="edge"><title>Node3&#45;&gt;Node6</title>
<path fill="none" stroke="midnightblue" d="M338.302,-290.497C286.141,-280.1 206.669,-264.26 154.044,-253.772"/>
<polygon fill="midnightblue" stroke="midnightblue" points="154.709,-250.335 144.218,-251.813 153.341,-257.2 154.709,-250.335"/>
</g>
<!-- Node8 -->
<g id="node17" class="node"><title>Node8</title>
<a xlink:href="saveFlowSettings_8h.html" target="_top" xlink:title="saveFlowSettings.h">
<polygon fill="none" stroke="black" points="238,-232.5 238,-253.5 346,-253.5 346,-232.5 238,-232.5"/>
<text text-anchor="middle" x="292" y="-240.5" font-family="FreeSans.ttf" font-size="10.00">saveFlowSettings.h</text>
</a>
</g>
<!-- Node3&#45;&gt;Node8 -->
<g id="edge18" class="edge"><title>Node3&#45;&gt;Node8</title>
<path fill="none" stroke="midnightblue" d="M372.842,-290.362C357.77,-281.532 336.113,-268.844 319.007,-258.822"/>
<polygon fill="midnightblue" stroke="midnightblue" points="320.441,-255.606 310.043,-253.571 316.902,-261.646 320.441,-255.606"/>
</g>
<!-- Node10 -->
<g id="node22" class="node"><title>Node10</title>
<polygon fill="none" stroke="#bfbfbf" points="419,-232.5 419,-253.5 567,-253.5 567,-232.5 419,-232.5"/>
<text text-anchor="middle" x="493" y="-240.5" font-family="FreeSans.ttf" font-size="10.00">ui_advancedImageWidget.h</text>
</g>
<!-- Node3&#45;&gt;Node10 -->
<g id="edge24" class="edge"><title>Node3&#45;&gt;Node10</title>
<path fill="none" stroke="midnightblue" d="M409.708,-290.362C425.381,-281.45 447.964,-268.609 465.663,-258.545"/>
<polygon fill="midnightblue" stroke="midnightblue" points="467.447,-261.556 474.41,-253.571 463.987,-255.471 467.447,-261.556"/>
</g>
<!-- Node11 -->
<g id="node24" class="node"><title>Node11</title>
<a xlink:href="parametersControlWidgetBase_8h.html" target="_top" xlink:title="parametersControlWidgetBase.h">
<polygon fill="none" stroke="black" points="641.5,-232.5 641.5,-253.5 814.5,-253.5 814.5,-232.5 641.5,-232.5"/>
<text text-anchor="middle" x="728" y="-240.5" font-family="FreeSans.ttf" font-size="10.00">parametersControlWidgetBase.h</text>
</a>
</g>
<!-- Node3&#45;&gt;Node11 -->
<g id="edge26" class="edge"><title>Node3&#45;&gt;Node11</title>
<path fill="none" stroke="midnightblue" d="M452.028,-290.497C509.703,-280.57 596.21,-265.682 656.96,-255.226"/>
<polygon fill="midnightblue" stroke="midnightblue" points="657.596,-258.669 666.857,-253.523 656.409,-251.77 657.596,-258.669"/>
</g>
<!-- Node6&#45;&gt;Node2 -->
<g id="edge14" class="edge"><title>Node6&#45;&gt;Node2</title>
<path fill="none" stroke="midnightblue" d="M111.188,-232.362C119.959,-224.023 132.349,-212.242 142.578,-202.516"/>
<polygon fill="midnightblue" stroke="midnightblue" points="145.047,-204.998 149.883,-195.571 140.224,-199.925 145.047,-204.998"/>
</g>
<!-- Node7 -->
<g id="node15" class="node"><title>Node7</title>
<polygon fill="none" stroke="#bfbfbf" points="-0.5,-174.5 -0.5,-195.5 100.5,-195.5 100.5,-174.5 -0.5,-174.5"/>
<text text-anchor="middle" x="50" y="-182.5" font-family="FreeSans.ttf" font-size="10.00">ui_viAreaWidget.h</text>
</g>
<!-- Node6&#45;&gt;Node7 -->
<g id="edge16" class="edge"><title>Node6&#45;&gt;Node7</title>
<path fill="none" stroke="midnightblue" d="M90.8292,-232.362C83.8516,-224.268 74.0792,-212.932 65.8445,-203.38"/>
<polygon fill="midnightblue" stroke="midnightblue" points="68.293,-200.859 59.1126,-195.571 62.9911,-205.43 68.293,-200.859"/>
</g>
<!-- Node8&#45;&gt;Node2 -->
<g id="edge20" class="edge"><title>Node8&#45;&gt;Node2</title>
<path fill="none" stroke="midnightblue" d="M268.277,-232.497C247.632,-223.356 217.484,-210.008 194.401,-199.788"/>
<polygon fill="midnightblue" stroke="midnightblue" points="195.55,-196.469 184.989,-195.621 192.716,-202.87 195.55,-196.469"/>
</g>
<!-- Node9 -->
<g id="node20" class="node"><title>Node9</title>
<polygon fill="none" stroke="#bfbfbf" points="222,-174.5 222,-195.5 344,-195.5 344,-174.5 222,-174.5"/>
<text text-anchor="middle" x="283" y="-182.5" font-family="FreeSans.ttf" font-size="10.00">ui_saveFlowSettings.h</text>
</g>
<!-- Node8&#45;&gt;Node9 -->
<g id="edge22" class="edge"><title>Node8&#45;&gt;Node9</title>
<path fill="none" stroke="midnightblue" d="M290.349,-232.362C289.195,-224.922 287.615,-214.743 286.216,-205.728"/>
<polygon fill="midnightblue" stroke="midnightblue" points="289.632,-204.916 284.64,-195.571 282.715,-205.989 289.632,-204.916"/>
</g>
<!-- Node11&#45;&gt;Node5 -->
<g id="edge28" class="edge"><title>Node11&#45;&gt;Node5</title>
<path fill="none" stroke="midnightblue" d="M655.922,-232.457C600.929,-224.084 523.093,-211.528 445.994,-196.104"/>
<polygon fill="midnightblue" stroke="midnightblue" points="446.602,-192.657 436.108,-194.11 445.218,-199.518 446.602,-192.657"/>
</g>
<!-- Node12 -->
<g id="node27" class="node"><title>Node12</title>
<a xlink:href="global_8h.html" target="_top" xlink:title="This file holds the global includes, mostly for debuging, tracing and profiling.">
<polygon fill="none" stroke="black" points="1210,-58.5 1210,-79.5 1264,-79.5 1264,-58.5 1210,-58.5"/>
<text text-anchor="middle" x="1237" y="-66.5" font-family="FreeSans.ttf" font-size="10.00">global.h</text>
</a>
</g>
<!-- Node11&#45;&gt;Node12 -->
<g id="edge30" class="edge"><title>Node11&#45;&gt;Node12</title>
<path fill="none" stroke="midnightblue" d="M814.55,-233.803C891.088,-224.941 996.539,-210.739 1036,-196 1108.01,-169.104 1181.61,-114.137 1216.39,-86.1693"/>
<polygon fill="midnightblue" stroke="midnightblue" points="1218.82,-88.7012 1224.37,-79.6741 1214.4,-83.2721 1218.82,-88.7012"/>
</g>
<!-- Node14 -->
<g id="node31" class="node"><title>Node14</title>
<a xlink:href="reflection_8h.html" target="_top" xlink:title="a header for Reflection.c">
<polygon fill="none" stroke="black" points="1033,-116.5 1033,-137.5 1103,-137.5 1103,-116.5 1033,-116.5"/>
<text text-anchor="middle" x="1068" y="-124.5" font-family="FreeSans.ttf" font-size="10.00">reflection.h</text>
</a>
</g>
<!-- Node11&#45;&gt;Node14 -->
<g id="edge34" class="edge"><title>Node11&#45;&gt;Node14</title>
<path fill="none" stroke="midnightblue" d="M814.632,-235.041C884.568,-227.428 976.491,-214.378 1009,-196 1029.76,-184.264 1046.59,-162.297 1056.88,-146.293"/>
<polygon fill="midnightblue" stroke="midnightblue" points="1059.92,-148.035 1062.17,-137.682 1053.96,-144.373 1059.92,-148.035"/>
</g>
<!-- Node20 -->
<g id="node45" class="node"><title>Node20</title>
<a xlink:href="qSettingsSetter_8h.html" target="_top" xlink:title="visitors/qSettingsSetter.h">
<polygon fill="none" stroke="black" points="863.5,-174.5 863.5,-195.5 1000.5,-195.5 1000.5,-174.5 863.5,-174.5"/>
<text text-anchor="middle" x="932" y="-182.5" font-family="FreeSans.ttf" font-size="10.00">visitors/qSettingsSetter.h</text>
</a>
</g>
<!-- Node11&#45;&gt;Node20 -->
<g id="edge50" class="edge"><title>Node11&#45;&gt;Node20</title>
<path fill="none" stroke="midnightblue" d="M764.943,-232.497C798.632,-222.918 848.573,-208.72 885.074,-198.342"/>
<polygon fill="midnightblue" stroke="midnightblue" points="886.326,-201.624 894.988,-195.523 884.412,-194.891 886.326,-201.624"/>
</g>
<!-- Node24 -->
<g id="node55" class="node"><title>Node24</title>
<a xlink:href="xmlSetter_8h.html" target="_top" xlink:title="visitors/xmlSetter.h">
<polygon fill="none" stroke="black" points="581.5,-174.5 581.5,-195.5 690.5,-195.5 690.5,-174.5 581.5,-174.5"/>
<text text-anchor="middle" x="636" y="-182.5" font-family="FreeSans.ttf" font-size="10.00">visitors/xmlSetter.h</text>
</a>
</g>
<!-- Node11&#45;&gt;Node24 -->
<g id="edge62" class="edge"><title>Node11&#45;&gt;Node24</title>
<path fill="none" stroke="midnightblue" d="M711.126,-232.362C697.249,-223.614 677.366,-211.079 661.54,-201.101"/>
<polygon fill="midnightblue" stroke="midnightblue" points="663.093,-197.943 652.767,-195.571 659.36,-203.864 663.093,-197.943"/>
</g>
<!-- Node26 -->
<g id="node61" class="node"><title>Node26</title>
<a xlink:href="qSettingsGetter_8h.html" target="_top" xlink:title="visitors/qSettingsGetter.h">
<polygon fill="none" stroke="black" points="708,-174.5 708,-195.5 846,-195.5 846,-174.5 708,-174.5"/>
<text text-anchor="middle" x="777" y="-182.5" font-family="FreeSans.ttf" font-size="10.00">visitors/qSettingsGetter.h</text>
</a>
</g>
<!-- Node11&#45;&gt;Node26 -->
<g id="edge70" class="edge"><title>Node11&#45;&gt;Node26</title>
<path fill="none" stroke="midnightblue" d="M736.987,-232.362C743.825,-224.268 753.402,-212.932 761.472,-203.38"/>
<polygon fill="midnightblue" stroke="midnightblue" points="764.29,-205.468 768.07,-195.571 758.942,-200.951 764.29,-205.468"/>
</g>
<!-- Node28 -->
<g id="node67" class="node"><title>Node28</title>
<a xlink:href="xmlGetter_8h.html" target="_top" xlink:title="visitors/xmlGetter.h">
<polygon fill="none" stroke="black" points="454,-174.5 454,-195.5 564,-195.5 564,-174.5 454,-174.5"/>
<text text-anchor="middle" x="509" y="-182.5" font-family="FreeSans.ttf" font-size="10.00">visitors/xmlGetter.h</text>
</a>
</g>
<!-- Node11&#45;&gt;Node28 -->
<g id="edge78" class="edge"><title>Node11&#45;&gt;Node28</title>
<path fill="none" stroke="midnightblue" d="M688.341,-232.497C651.942,-222.857 597.874,-208.537 558.625,-198.143"/>
<polygon fill="midnightblue" stroke="midnightblue" points="559.296,-194.7 548.734,-195.523 557.504,-201.467 559.296,-194.7"/>
</g>
<!-- Node13 -->
<g id="node29" class="node"><title>Node13</title>
<polygon fill="none" stroke="#bfbfbf" points="1205,-0.5 1205,-21.5 1269,-21.5 1269,-0.5 1205,-0.5"/>
<text text-anchor="middle" x="1237" y="-8.5" font-family="FreeSans.ttf" font-size="10.00">inttypes.h</text>
</g>
<!-- Node12&#45;&gt;Node13 -->
<g id="edge32" class="edge"><title>Node12&#45;&gt;Node13</title>
<path fill="none" stroke="midnightblue" d="M1237,-58.3619C1237,-50.9219 1237,-40.7427 1237,-31.7276"/>
<polygon fill="midnightblue" stroke="midnightblue" points="1240.5,-31.5706 1237,-21.5707 1233.5,-31.5707 1240.5,-31.5706"/>
</g>
<!-- Node14&#45;&gt;Node4 -->
<g id="edge36" class="edge"><title>Node14&#45;&gt;Node4</title>
<path fill="none" stroke="midnightblue" d="M1081.57,-116.362C1092.42,-107.859 1107.83,-95.7785 1120.38,-85.9466"/>
<polygon fill="midnightblue" stroke="midnightblue" points="1122.8,-88.4942 1128.51,-79.5707 1118.48,-82.9848 1122.8,-88.4942"/>
</g>
<!-- Node14&#45;&gt;Node12 -->
<g id="edge48" class="edge"><title>Node14&#45;&gt;Node12</title>
<path fill="none" stroke="midnightblue" d="M1098.6,-116.497C1127.15,-106.701 1169.77,-92.0722 1200.17,-81.6407"/>
<polygon fill="midnightblue" stroke="midnightblue" points="1201.65,-84.8336 1209.97,-78.277 1199.37,-78.2127 1201.65,-84.8336"/>
</g>
<!-- Node15 -->
<g id="node34" class="node"><title>Node15</title>
<polygon fill="none" stroke="#bfbfbf" points="841,-58.5 841,-79.5 885,-79.5 885,-58.5 841,-58.5"/>
<text text-anchor="middle" x="863" y="-66.5" font-family="FreeSans.ttf" font-size="10.00">string</text>
</g>
<!-- Node14&#45;&gt;Node15 -->
<g id="edge38" class="edge"><title>Node14&#45;&gt;Node15</title>
<path fill="none" stroke="midnightblue" d="M1032.76,-117.029C994.043,-106.075 932.404,-88.6361 895.018,-78.0589"/>
<polygon fill="midnightblue" stroke="midnightblue" points="895.731,-74.6233 885.156,-75.2686 893.826,-81.3589 895.731,-74.6233"/>
</g>
<!-- Node16 -->
<g id="node36" class="node"><title>Node16</title>
<polygon fill="none" stroke="#bfbfbf" points="1045.5,-58.5 1045.5,-79.5 1098.5,-79.5 1098.5,-58.5 1045.5,-58.5"/>
<text text-anchor="middle" x="1072" y="-66.5" font-family="FreeSans.ttf" font-size="10.00">string.h</text>
</g>
<!-- Node14&#45;&gt;Node16 -->
<g id="edge40" class="edge"><title>Node14&#45;&gt;Node16</title>
<path fill="none" stroke="midnightblue" d="M1068.73,-116.362C1069.25,-108.922 1069.95,-98.7427 1070.57,-89.7276"/>
<polygon fill="midnightblue" stroke="midnightblue" points="1074.07,-89.7878 1071.27,-79.5707 1067.09,-89.3061 1074.07,-89.7878"/>
</g>
<!-- Node17 -->
<g id="node38" class="node"><title>Node17</title>
<polygon fill="none" stroke="#bfbfbf" points="1613.5,-58.5 1613.5,-79.5 1662.5,-79.5 1662.5,-58.5 1613.5,-58.5"/>
<text text-anchor="middle" x="1638" y="-66.5" font-family="FreeSans.ttf" font-size="10.00">stdio.h</text>
</g>
<!-- Node14&#45;&gt;Node17 -->
<g id="edge42" class="edge"><title>Node14&#45;&gt;Node17</title>
<path fill="none" stroke="midnightblue" d="M1103.23,-123.416C1205.55,-113.003 1501.94,-82.845 1603.43,-72.5177"/>
<polygon fill="midnightblue" stroke="midnightblue" points="1603.86,-75.992 1613.46,-71.4975 1603.15,-69.0279 1603.86,-75.992"/>
</g>
<!-- Node18 -->
<g id="node40" class="node"><title>Node18</title>
<polygon fill="none" stroke="#bfbfbf" points="1421.5,-58.5 1421.5,-79.5 1474.5,-79.5 1474.5,-58.5 1421.5,-58.5"/>
<text text-anchor="middle" x="1448" y="-66.5" font-family="FreeSans.ttf" font-size="10.00">stdint.h</text>
</g>
<!-- Node14&#45;&gt;Node18 -->
<g id="edge44" class="edge"><title>Node14&#45;&gt;Node18</title>
<path fill="none" stroke="midnightblue" d="M1103.07,-121.647C1174.87,-110.688 1338,-85.7889 1411.23,-74.613"/>
<polygon fill="midnightblue" stroke="midnightblue" points="1412,-78.0358 1421.35,-73.0669 1410.94,-71.1159 1412,-78.0358"/>
</g>
<!-- Node19 -->
<g id="node42" class="node"><title>Node19</title>
<polygon fill="none" stroke="#bfbfbf" points="972,-58.5 972,-79.5 1028,-79.5 1028,-58.5 972,-58.5"/>
<text text-anchor="middle" x="1000" y="-66.5" font-family="FreeSans.ttf" font-size="10.00">stdarg.h</text>
</g>
<!-- Node14&#45;&gt;Node19 -->
<g id="edge46" class="edge"><title>Node14&#45;&gt;Node19</title>
<path fill="none" stroke="midnightblue" d="M1055.53,-116.362C1045.65,-107.941 1031.67,-96.0105 1020.2,-86.2308"/>
<polygon fill="midnightblue" stroke="midnightblue" points="1022.27,-83.3972 1012.39,-79.5707 1017.73,-88.7231 1022.27,-83.3972"/>
</g>
<!-- Node20&#45;&gt;Node14 -->
<g id="edge60" class="edge"><title>Node20&#45;&gt;Node14</title>
<path fill="none" stroke="midnightblue" d="M956.629,-174.497C978.157,-165.315 1009.64,-151.889 1033.64,-141.652"/>
<polygon fill="midnightblue" stroke="midnightblue" points="1035.27,-144.764 1043.1,-137.621 1032.52,-138.325 1035.27,-144.764"/>
</g>
<!-- Node21 -->
<g id="node47" class="node"><title>Node21</title>
<polygon fill="none" stroke="#bfbfbf" points="885.5,-116.5 885.5,-137.5 986.5,-137.5 986.5,-116.5 885.5,-116.5"/>
<text text-anchor="middle" x="936" y="-124.5" font-family="FreeSans.ttf" font-size="10.00">QtCore/QSettings</text>
</g>
<!-- Node20&#45;&gt;Node21 -->
<g id="edge52" class="edge"><title>Node20&#45;&gt;Node21</title>
<path fill="none" stroke="midnightblue" d="M932.734,-174.362C933.247,-166.922 933.949,-156.743 934.571,-147.728"/>
<polygon fill="midnightblue" stroke="midnightblue" points="938.075,-147.788 935.271,-137.571 931.091,-147.306 938.075,-147.788"/>
</g>
<!-- Node22 -->
<g id="node49" class="node"><title>Node22</title>
<a xlink:href="basePathVisitor_8h.html" target="_top" xlink:title="Add Comment Here.">
<polygon fill="none" stroke="black" points="687.5,-116.5 687.5,-137.5 786.5,-137.5 786.5,-116.5 687.5,-116.5"/>
<text text-anchor="middle" x="737" y="-124.5" font-family="FreeSans.ttf" font-size="10.00">basePathVisitor.h</text>
</a>
</g>
<!-- Node20&#45;&gt;Node22 -->
<g id="edge54" class="edge"><title>Node20&#45;&gt;Node22</title>
<path fill="none" stroke="midnightblue" d="M896.687,-174.497C864.621,-164.959 817.155,-150.841 782.304,-140.475"/>
<polygon fill="midnightblue" stroke="midnightblue" points="782.962,-137.019 772.379,-137.523 780.966,-143.729 782.962,-137.019"/>
</g>
<!-- Node22&#45;&gt;Node15 -->
<g id="edge58" class="edge"><title>Node22&#45;&gt;Node15</title>
<path fill="none" stroke="midnightblue" d="M759.818,-116.497C779.833,-107.283 809.135,-93.7949 831.404,-83.5442"/>
<polygon fill="midnightblue" stroke="midnightblue" points="833.155,-86.5914 840.775,-79.2305 830.228,-80.2327 833.155,-86.5914"/>
</g>
<!-- Node23 -->
<g id="node51" class="node"><title>Node23</title>
<polygon fill="none" stroke="#bfbfbf" points="713.5,-58.5 713.5,-79.5 760.5,-79.5 760.5,-58.5 713.5,-58.5"/>
<text text-anchor="middle" x="737" y="-66.5" font-family="FreeSans.ttf" font-size="10.00">deque</text>
</g>
<!-- Node22&#45;&gt;Node23 -->
<g id="edge56" class="edge"><title>Node22&#45;&gt;Node23</title>
<path fill="none" stroke="midnightblue" d="M737,-116.362C737,-108.922 737,-98.7427 737,-89.7276"/>
<polygon fill="midnightblue" stroke="midnightblue" points="740.5,-89.5706 737,-79.5707 733.5,-89.5707 740.5,-89.5706"/>
</g>
<!-- Node24&#45;&gt;Node14 -->
<g id="edge68" class="edge"><title>Node24&#45;&gt;Node14</title>
<path fill="none" stroke="midnightblue" d="M690.608,-175.287C693.444,-174.838 696.254,-174.406 699,-174 830.097,-154.596 863.686,-155.875 995,-138 1003.95,-136.782 1013.51,-135.4 1022.65,-134.038"/>
<polygon fill="midnightblue" stroke="midnightblue" points="1023.39,-137.467 1032.76,-132.518 1022.35,-130.545 1023.39,-137.467"/>
</g>
<!-- Node24&#45;&gt;Node22 -->
<g id="edge66" class="edge"><title>Node24&#45;&gt;Node22</title>
<path fill="none" stroke="midnightblue" d="M654.525,-174.362C669.901,-165.532 691.996,-152.844 709.447,-142.822"/>
<polygon fill="midnightblue" stroke="midnightblue" points="711.664,-145.586 718.592,-137.571 708.178,-139.515 711.664,-145.586"/>
</g>
<!-- Node25 -->
<g id="node57" class="node"><title>Node25</title>
<polygon fill="none" stroke="#bfbfbf" points="581.5,-116.5 581.5,-137.5 670.5,-137.5 670.5,-116.5 581.5,-116.5"/>
<text text-anchor="middle" x="626" y="-124.5" font-family="FreeSans.ttf" font-size="10.00">QtCore/QString</text>
</g>
<!-- Node24&#45;&gt;Node25 -->
<g id="edge64" class="edge"><title>Node24&#45;&gt;Node25</title>
<path fill="none" stroke="midnightblue" d="M634.166,-174.362C632.869,-166.84 631.089,-156.519 629.523,-147.431"/>
<polygon fill="midnightblue" stroke="midnightblue" points="632.971,-146.831 627.823,-137.571 626.073,-148.02 632.971,-146.831"/>
</g>
<!-- Node26&#45;&gt;Node14 -->
<g id="edge76" class="edge"><title>Node26&#45;&gt;Node14</title>
<path fill="none" stroke="midnightblue" d="M829.698,-174.497C884.822,-163.51 970.447,-146.444 1022.65,-136.038"/>
<polygon fill="midnightblue" stroke="midnightblue" points="1023.51,-139.437 1032.63,-134.05 1022.14,-132.572 1023.51,-139.437"/>
</g>
<!-- Node26&#45;&gt;Node22 -->
<g id="edge74" class="edge"><title>Node26&#45;&gt;Node22</title>
<path fill="none" stroke="midnightblue" d="M769.663,-174.362C764.194,-166.431 756.578,-155.389 750.076,-145.961"/>
<polygon fill="midnightblue" stroke="midnightblue" points="752.849,-143.816 744.29,-137.571 747.086,-147.79 752.849,-143.816"/>
</g>
<!-- Node27 -->
<g id="node63" class="node"><title>Node27</title>
<polygon fill="none" stroke="#bfbfbf" points="804,-116.5 804,-137.5 868,-137.5 868,-116.5 804,-116.5"/>
<text text-anchor="middle" x="836" y="-124.5" font-family="FreeSans.ttf" font-size="10.00">QSettings</text>
</g>
<!-- Node26&#45;&gt;Node27 -->
<g id="edge72" class="edge"><title>Node26&#45;&gt;Node27</title>
<path fill="none" stroke="midnightblue" d="M787.822,-174.362C796.221,-166.104 808.054,-154.472 817.89,-144.803"/>
<polygon fill="midnightblue" stroke="midnightblue" points="820.569,-147.077 825.247,-137.571 815.662,-142.085 820.569,-147.077"/>
</g>
<!-- Node28&#45;&gt;Node14 -->
<g id="edge84" class="edge"><title>Node28&#45;&gt;Node14</title>
<path fill="none" stroke="midnightblue" d="M564.113,-175.221C567.116,-174.784 570.093,-174.373 573,-174 759.705,-150.035 808.057,-160.035 995,-138 1003.97,-136.943 1013.53,-135.634 1022.69,-134.292"/>
<polygon fill="midnightblue" stroke="midnightblue" points="1023.42,-137.721 1032.79,-132.775 1022.38,-130.799 1023.42,-137.721"/>
</g>
<!-- Node28&#45;&gt;Node22 -->
<g id="edge86" class="edge"><title>Node28&#45;&gt;Node22</title>
<path fill="none" stroke="midnightblue" d="M550.289,-174.497C588.344,-164.816 644.952,-150.416 685.855,-140.01"/>
<polygon fill="midnightblue" stroke="midnightblue" points="686.805,-143.38 695.633,-137.523 685.079,-136.597 686.805,-143.38"/>
</g>
<!-- Node28&#45;&gt;Node25 -->
<g id="edge80" class="edge"><title>Node28&#45;&gt;Node25</title>
<path fill="none" stroke="midnightblue" d="M530.188,-174.497C548.462,-165.438 575.072,-152.246 595.615,-142.063"/>
<polygon fill="midnightblue" stroke="midnightblue" points="597.169,-145.199 604.574,-137.621 594.06,-138.927 597.169,-145.199"/>
</g>
<!-- Node29 -->
<g id="node70" class="node"><title>Node29</title>
<polygon fill="none" stroke="#bfbfbf" points="445.5,-116.5 445.5,-137.5 564.5,-137.5 564.5,-116.5 445.5,-116.5"/>
<text text-anchor="middle" x="505" y="-124.5" font-family="FreeSans.ttf" font-size="10.00">QtXml/QDomElement</text>
</g>
<!-- Node28&#45;&gt;Node29 -->
<g id="edge82" class="edge"><title>Node28&#45;&gt;Node29</title>
<path fill="none" stroke="midnightblue" d="M508.266,-174.362C507.753,-166.922 507.051,-156.743 506.429,-147.728"/>
<polygon fill="midnightblue" stroke="midnightblue" points="509.909,-147.306 505.729,-137.571 502.925,-147.788 509.909,-147.306"/>
</g>
<!-- Node30&#45;&gt;Node4 -->
<g id="edge90" class="edge"><title>Node30&#45;&gt;Node4</title>
<path fill="none" stroke="midnightblue" d="M1191.42,-406.203C1184.23,-357.184 1154.62,-155.137 1145.02,-89.6154"/>
<polygon fill="midnightblue" stroke="midnightblue" points="1148.48,-89.0574 1143.56,-79.6706 1141.55,-90.0725 1148.48,-89.0574"/>
</g>
<!-- Node31 -->
<g id="node77" class="node"><title>Node31</title>
<a xlink:href="vector3d_8h.html" target="_top" xlink:title="A 3 component vector.">
<polygon fill="none" stroke="black" points="1402,-348.5 1402,-369.5 1470,-369.5 1470,-348.5 1402,-348.5"/>
<text text-anchor="middle" x="1436" y="-356.5" font-family="FreeSans.ttf" font-size="10.00">vector3d.h</text>
</a>
</g>
<!-- Node30&#45;&gt;Node31 -->
<g id="edge92" class="edge"><title>Node30&#45;&gt;Node31</title>
<path fill="none" stroke="midnightblue" d="M1227.04,-408.874C1270.12,-398.592 1344.4,-380.863 1391.82,-369.546"/>
<polygon fill="midnightblue" stroke="midnightblue" points="1392.88,-372.89 1401.79,-367.164 1391.26,-366.082 1392.88,-372.89"/>
</g>
<!-- Node38 -->
<g id="node98" class="node"><title>Node38</title>
<a xlink:href="axisAlignedBoxParameters_8h.html" target="_top" xlink:title="generated/axisAlignedBoxParameters.h">
<polygon fill="none" stroke="black" points="1202,-232.5 1202,-253.5 1408,-253.5 1408,-232.5 1202,-232.5"/>
<text text-anchor="middle" x="1305" y="-240.5" font-family="FreeSans.ttf" font-size="10.00">generated/axisAlignedBoxParameters.h</text>
</a>
</g>
<!-- Node30&#45;&gt;Node38 -->
<g id="edge120" class="edge"><title>Node30&#45;&gt;Node38</title>
<path fill="none" stroke="midnightblue" d="M1199.84,-406.377C1218.15,-377.93 1268.51,-299.684 1292.28,-262.769"/>
<polygon fill="midnightblue" stroke="midnightblue" points="1295.5,-264.231 1297.97,-253.928 1289.61,-260.442 1295.5,-264.231"/>
</g>
<!-- Node32 -->
<g id="node79" class="node"><title>Node32</title>
<polygon fill="none" stroke="#bfbfbf" points="1499.5,-116.5 1499.5,-137.5 1550.5,-137.5 1550.5,-116.5 1499.5,-116.5"/>
<text text-anchor="middle" x="1525" y="-124.5" font-family="FreeSans.ttf" font-size="10.00">math.h</text>
</g>
<!-- Node31&#45;&gt;Node32 -->
<g id="edge94" class="edge"><title>Node31&#45;&gt;Node32</title>
<path fill="none" stroke="midnightblue" d="M1440.06,-348.429C1453.84,-312.497 1499.04,-194.674 1517.27,-147.145"/>
<polygon fill="midnightblue" stroke="midnightblue" points="1520.61,-148.224 1520.92,-137.634 1514.07,-145.716 1520.61,-148.224"/>
</g>
<!-- Node33 -->
<g id="node81" class="node"><title>Node33</title>
<a xlink:href="vector2d_8h.html" target="_top" xlink:title="Add Comment Here.">
<polygon fill="none" stroke="black" points="1478,-290.5 1478,-311.5 1546,-311.5 1546,-290.5 1478,-290.5"/>
<text text-anchor="middle" x="1512" y="-298.5" font-family="FreeSans.ttf" font-size="10.00">vector2d.h</text>
</a>
</g>
<!-- Node31&#45;&gt;Node33 -->
<g id="edge96" class="edge"><title>Node31&#45;&gt;Node33</title>
<path fill="none" stroke="midnightblue" d="M1449.94,-348.362C1461.19,-339.777 1477.22,-327.546 1490.16,-317.664"/>
<polygon fill="midnightblue" stroke="midnightblue" points="1492.32,-320.42 1498.15,-311.571 1488.08,-314.855 1492.32,-320.42"/>
</g>
<!-- Node33&#45;&gt;Node12 -->
<g id="edge102" class="edge"><title>Node33&#45;&gt;Node12</title>
<path fill="none" stroke="midnightblue" d="M1508.48,-290.338C1497.45,-258.658 1460.52,-164.302 1397,-116 1360.97,-88.6035 1309.28,-77.1404 1274.49,-72.3671"/>
<polygon fill="midnightblue" stroke="midnightblue" points="1274.63,-68.8573 1264.27,-71.0903 1273.76,-75.8033 1274.63,-68.8573"/>
</g>
<!-- Node33&#45;&gt;Node18 -->
<g id="edge100" class="edge"><title>Node33&#45;&gt;Node18</title>
<path fill="none" stroke="midnightblue" d="M1546.2,-297.484C1575.67,-292.638 1617.28,-281.153 1642,-254 1666.35,-227.249 1667.34,-208.665 1657,-174 1648.19,-144.469 1643.91,-134.144 1619,-116 1579.02,-86.8808 1521.88,-75.7996 1484.86,-71.5847"/>
<polygon fill="midnightblue" stroke="midnightblue" points="1484.83,-68.0629 1474.52,-70.5264 1484.11,-75.0265 1484.83,-68.0629"/>
</g>
<!-- Node33&#45;&gt;Node32 -->
<g id="edge98" class="edge"><title>Node33&#45;&gt;Node32</title>
<path fill="none" stroke="midnightblue" d="M1512.79,-290.377C1514.89,-262.293 1520.62,-185.673 1523.42,-148.203"/>
<polygon fill="midnightblue" stroke="midnightblue" points="1526.93,-148.161 1524.18,-137.928 1519.95,-147.639 1526.93,-148.161"/>
</g>
<!-- Node34 -->
<g id="node86" class="node"><title>Node34</title>
<a xlink:href="fixedVector_8h.html" target="_top" xlink:title="This file holds the description of the commonly used template &#45; a vector with the fixed number of com...">
<polygon fill="none" stroke="black" points="1555,-232.5 1555,-253.5 1633,-253.5 1633,-232.5 1555,-232.5"/>
<text text-anchor="middle" x="1594" y="-240.5" font-family="FreeSans.ttf" font-size="10.00">fixedVector.h</text>
</a>
</g>
<!-- Node33&#45;&gt;Node34 -->
<g id="edge104" class="edge"><title>Node33&#45;&gt;Node34</title>
<path fill="none" stroke="midnightblue" d="M1527.04,-290.362C1539.29,-281.696 1556.8,-269.313 1570.84,-259.382"/>
<polygon fill="midnightblue" stroke="midnightblue" points="1572.91,-262.203 1579.06,-253.571 1568.87,-256.488 1572.91,-262.203"/>
</g>
<!-- Node34&#45;&gt;Node17 -->
<g id="edge106" class="edge"><title>Node34&#45;&gt;Node17</title>
<path fill="none" stroke="midnightblue" d="M1617.38,-232.462C1631.67,-224.636 1648.74,-212.467 1657,-196 1674.47,-161.167 1659.23,-114.693 1647.8,-88.7139"/>
<polygon fill="midnightblue" stroke="midnightblue" points="1650.92,-87.1237 1643.53,-79.527 1644.57,-90.0711 1650.92,-87.1237"/>
</g>
<!-- Node35 -->
<g id="node89" class="node"><title>Node35</title>
<a xlink:href="vectorOperations_8h.html" target="_top" xlink:title="This file holds the operations that are commonly used with continuous linear data structures such as ...">
<polygon fill="none" stroke="black" points="1540,-174.5 1540,-195.5 1648,-195.5 1648,-174.5 1540,-174.5"/>
<text text-anchor="middle" x="1594" y="-182.5" font-family="FreeSans.ttf" font-size="10.00">vectorOperations.h</text>
</a>
</g>
<!-- Node34&#45;&gt;Node35 -->
<g id="edge108" class="edge"><title>Node34&#45;&gt;Node35</title>
<path fill="none" stroke="midnightblue" d="M1594,-232.362C1594,-224.922 1594,-214.743 1594,-205.728"/>
<polygon fill="midnightblue" stroke="midnightblue" points="1597.5,-205.571 1594,-195.571 1590.5,-205.571 1597.5,-205.571"/>
</g>
<!-- Node35&#45;&gt;Node14 -->
<g id="edge118" class="edge"><title>Node35&#45;&gt;Node14</title>
<path fill="none" stroke="midnightblue" d="M1539.69,-179.011C1435.6,-167.534 1209.8,-142.635 1113.26,-131.99"/>
<polygon fill="midnightblue" stroke="midnightblue" points="1113.55,-128.502 1103.23,-130.885 1112.79,-135.46 1113.55,-128.502"/>
</g>
<!-- Node35&#45;&gt;Node17 -->
<g id="edge114" class="edge"><title>Node35&#45;&gt;Node17</title>
<path fill="none" stroke="midnightblue" d="M1600.45,-174.494C1605.97,-165.174 1613.81,-151.052 1619,-138 1625.31,-122.15 1630.32,-103.454 1633.6,-89.5245"/>
<polygon fill="midnightblue" stroke="midnightblue" points="1637.07,-90.0455 1635.86,-79.5202 1630.24,-88.5035 1637.07,-90.0455"/>
</g>
<!-- Node35&#45;&gt;Node32 -->
<g id="edge116" class="edge"><title>Node35&#45;&gt;Node32</title>
<path fill="none" stroke="midnightblue" d="M1581.34,-174.362C1571.33,-165.941 1557.13,-154.011 1545.5,-144.231"/>
<polygon fill="midnightblue" stroke="midnightblue" points="1547.48,-141.326 1537.58,-137.571 1542.98,-146.684 1547.48,-141.326"/>
</g>
<!-- Node36 -->
<g id="node91" class="node"><title>Node36</title>
<polygon fill="none" stroke="#bfbfbf" points="1568,-116.5 1568,-137.5 1610,-137.5 1610,-116.5 1568,-116.5"/>
<text text-anchor="middle" x="1589" y="-124.5" font-family="FreeSans.ttf" font-size="10.00">limits</text>
</g>
<!-- Node35&#45;&gt;Node36 -->
<g id="edge110" class="edge"><title>Node35&#45;&gt;Node36</title>
<path fill="none" stroke="midnightblue" d="M1593.08,-174.362C1592.44,-166.922 1591.56,-156.743 1590.79,-147.728"/>
<polygon fill="midnightblue" stroke="midnightblue" points="1594.26,-147.233 1589.91,-137.571 1587.28,-147.834 1594.26,-147.233"/>
</g>
<!-- Node37 -->
<g id="node93" class="node"><title>Node37</title>
<polygon fill="none" stroke="#bfbfbf" points="1329.5,-116.5 1329.5,-137.5 1388.5,-137.5 1388.5,-116.5 1329.5,-116.5"/>
<text text-anchor="middle" x="1359" y="-124.5" font-family="FreeSans.ttf" font-size="10.00">iostream</text>
</g>
<!-- Node35&#45;&gt;Node37 -->
<g id="edge112" class="edge"><title>Node35&#45;&gt;Node37</title>
<path fill="none" stroke="midnightblue" d="M1551.44,-174.497C1507.94,-163.76 1440.92,-147.219 1398.55,-136.761"/>
<polygon fill="midnightblue" stroke="midnightblue" points="1399.14,-133.303 1388.6,-134.304 1397.47,-140.099 1399.14,-133.303"/>
</g>
<!-- Node38&#45;&gt;Node14 -->
<g id="edge122" class="edge"><title>Node38&#45;&gt;Node14</title>
<path fill="none" stroke="midnightblue" d="M1280.45,-232.354C1259.27,-223.061 1227.92,-209.054 1201,-196 1164.57,-178.334 1123.27,-156.643 1096.49,-142.352"/>
<polygon fill="midnightblue" stroke="midnightblue" points="1098.13,-139.257 1087.66,-137.624 1094.83,-145.428 1098.13,-139.257"/>
</g>
<!-- Node39 -->
<g id="node101" class="node"><title>Node39</title>
<a xlink:href="defaultSetter_8h.html" target="_top" xlink:title="defaultSetter.h">
<polygon fill="none" stroke="black" points="1210,-174.5 1210,-195.5 1298,-195.5 1298,-174.5 1210,-174.5"/>
<text text-anchor="middle" x="1254" y="-182.5" font-family="FreeSans.ttf" font-size="10.00">defaultSetter.h</text>
</a>
</g>
<!-- Node38&#45;&gt;Node39 -->
<g id="edge124" class="edge"><title>Node38&#45;&gt;Node39</title>
<path fill="none" stroke="midnightblue" d="M1295.65,-232.362C1288.46,-224.186 1278.36,-212.702 1269.91,-203.091"/>
<polygon fill="midnightblue" stroke="midnightblue" points="1272.53,-200.769 1263.29,-195.571 1267.27,-205.392 1272.53,-200.769"/>
</g>
<!-- Node40 -->
<g id="node106" class="node"><title>Node40</title>
<a xlink:href="printerVisitor_8h.html" target="_top" xlink:title="printerVisitor.h">
<polygon fill="none" stroke="black" points="1316,-174.5 1316,-195.5 1402,-195.5 1402,-174.5 1316,-174.5"/>
<text text-anchor="middle" x="1359" y="-182.5" font-family="FreeSans.ttf" font-size="10.00">printerVisitor.h</text>
</a>
</g>
<!-- Node38&#45;&gt;Node40 -->
<g id="edge132" class="edge"><title>Node38&#45;&gt;Node40</title>
<path fill="none" stroke="midnightblue" d="M1314.9,-232.362C1322.52,-224.186 1333.21,-212.702 1342.16,-203.091"/>
<polygon fill="midnightblue" stroke="midnightblue" points="1344.91,-205.275 1349.16,-195.571 1339.78,-200.505 1344.91,-205.275"/>
</g>
<!-- Node39&#45;&gt;Node12 -->
<g id="edge128" class="edge"><title>Node39&#45;&gt;Node12</title>
<path fill="none" stroke="midnightblue" d="M1252.43,-174.295C1249.62,-155.131 1243.69,-114.654 1240.05,-89.8434"/>
<polygon fill="midnightblue" stroke="midnightblue" points="1243.48,-89.066 1238.57,-79.6792 1236.55,-90.0811 1243.48,-89.066"/>
</g>
<!-- Node39&#45;&gt;Node14 -->
<g id="edge130" class="edge"><title>Node39&#45;&gt;Node14</title>
<path fill="none" stroke="midnightblue" d="M1220.32,-174.497C1189.86,-165 1144.84,-150.962 1111.64,-140.609"/>
<polygon fill="midnightblue" stroke="midnightblue" points="1112.33,-137.159 1101.75,-137.523 1110.25,-143.841 1112.33,-137.159"/>
</g>
<!-- Node39&#45;&gt;Node37 -->
<g id="edge126" class="edge"><title>Node39&#45;&gt;Node37</title>
<path fill="none" stroke="midnightblue" d="M1273.26,-174.362C1289.47,-165.409 1312.85,-152.491 1331.11,-142.406"/>
<polygon fill="midnightblue" stroke="midnightblue" points="1332.8,-145.47 1339.86,-137.571 1329.42,-139.342 1332.8,-145.47"/>
</g>
<!-- Node40&#45;&gt;Node14 -->
<g id="edge136" class="edge"><title>Node40&#45;&gt;Node14</title>
<path fill="none" stroke="midnightblue" d="M1315.88,-175.829C1312.88,-175.205 1309.89,-174.59 1307,-174 1239.64,-160.253 1161.45,-145.012 1113.35,-135.718"/>
<polygon fill="midnightblue" stroke="midnightblue" points="1113.74,-132.23 1103.26,-133.771 1112.42,-139.103 1113.74,-132.23"/>
</g>
<!-- Node40&#45;&gt;Node37 -->
<g id="edge134" class="edge"><title>Node40&#45;&gt;Node37</title>
<path fill="none" stroke="midnightblue" d="M1359,-174.362C1359,-166.922 1359,-156.743 1359,-147.728"/>
<polygon fill="midnightblue" stroke="midnightblue" points="1362.5,-147.571 1359,-137.571 1355.5,-147.571 1362.5,-147.571"/>
</g>
</g>
</svg>
        <g id="navigator" transform="translate(0 0)" fill="#404254">
                <rect fill="#f2f5e9" fill-opacity="0.5" stroke="#606060" stroke-width=".5" x="0" y="0" width="60" height="60"/>
                <use id="zoomplus" xlink:href="#zoomPlus" x="17" y="9" onmousedown="handleZoom(evt,'in')"/>
                <use id="zoomminus" xlink:href="#zoomMin" x="42" y="9" onmousedown="handleZoom(evt,'out')"/>
                <use id="reset" xlink:href="#resetDef" x="30" y="36" onmousedown="handleReset()"/>
                <g id="arrowUp" xlink:href="#dirArrow" transform="translate(30 24)" onmousedown="handlePan(0,-1)">
                  <use xlink:href="#rim" fill="#404040">
                        <set attributeName="fill" to="#808080" begin="arrowUp.mouseover" end="arrowUp.mouseout"/>
                  </use>
                  <path fill="none" stroke="white" stroke-width="1.5" d="M0,-3.0v7 M-2.5,-0.5L0,-3.0L2.5,-0.5"/>
                </g>
                <g id="arrowRight" xlink:href="#dirArrow" transform="rotate(90) translate(36 -43)" onmousedown="handlePan(1,0)">
                  <use xlink:href="#rim" fill="#404040">
                        <set attributeName="fill" to="#808080" begin="arrowRight.mouseover" end="arrowRight.mouseout"/>
                  </use>
                  <path fill="none" stroke="white" stroke-width="1.5" d="M0,-3.0v7 M-2.5,-0.5L0,-3.0L2.5,-0.5"/>
                </g>
                <g id="arrowDown" xlink:href="#dirArrow" transform="rotate(180) translate(-30 -48)" onmousedown="handlePan(0,1)">
                  <use xlink:href="#rim" fill="#404040">
                        <set attributeName="fill" to="#808080" begin="arrowDown.mouseover" end="arrowDown.mouseout"/>
                  </use>
                  <path fill="none" stroke="white" stroke-width="1.5" d="M0,-3.0v7 M-2.5,-0.5L0,-3.0L2.5,-0.5"/>
                </g>
                <g id="arrowLeft" xlink:href="#dirArrow" transform="rotate(270) translate(-36 17)" onmousedown="handlePan(-1,0)">
                  <use xlink:href="#rim" fill="#404040">
                        <set attributeName="fill" to="#808080" begin="arrowLeft.mouseover" end="arrowLeft.mouseout"/>
                  </use>
                  <path fill="none" stroke="white" stroke-width="1.5" d="M0,-3.0v7 M-2.5,-0.5L0,-3.0L2.5,-0.5"/>
                </g>
        </g>
</svg>
