<?xml version="1.0" encoding="UTF-8" standalone="no"?>
<!DOCTYPE svg PUBLIC "-//W3C//DTD SVG 1.1//EN"
 "http://www.w3.org/Graphics/SVG/1.1/DTD/svg11.dtd">
<!-- Generated by graphviz version 2.26.3 (20100126.1600)
 -->
<!-- Title: G Pages: 1 -->
<!--zoomable 436 -->
<svg id="main" version="1.1" xmlns="http://www.w3.org/2000/svg" xmlns:xlink="http://www.w3.org/1999/xlink" xml:space="preserve" onload="init(evt)">
        <defs>
                <circle id="rim" cx="0" cy="0" r="7"/>
                <circle id="rim2" cx="0" cy="0" r="3.5"/>
                <g id="zoomPlus">
                        <use xlink:href="#rim" fill="#404040">
                                <set attributeName="fill" to="#808080" begin="zoomplus.mouseover" end="zoomplus.mouseout"/>
                        </use>
                        <path d="M-4,0h8M0,-4v8" fill="none" stroke="white" stroke-width="1.5" pointer-events="none"/>
                </g>
                <g id="zoomMin">
                        <use xlink:href="#rim" fill="#404040">
                                <set attributeName="fill" to="#808080" begin="zoomminus.mouseover" end="zoomminus.mouseout"/>
                        </use>
                        <path d="M-4,0h8" fill="none" stroke="white" stroke-width="1.5" pointer-events="none"/>
                </g>
                <g id="dirArrow">
                        <path fill="none" stroke="white" stroke-width="1.5" d="M0,-3.0v7 M-2.5,-0.5L0,-3.0L2.5,-0.5"/>
                </g>
               <g id="resetDef">
                       <use xlink:href="#rim2" fill="#404040">
                               <set attributeName="fill" to="#808080" begin="reset.mouseover" end="reset.mouseout"/>
                       </use>
               </g>
        </defs>

<script type="text/javascript">
var viewWidth = 826;
var viewHeight = 436;
var sectionId = 'dynsection-0';
</script>
<script xlink:href="svgpan.js"/>
<svg id="graph" class="graph">
<g id="viewport">
<title>G</title>
<!-- Node1 -->
<g id="node1" class="node"><title>Node1</title>
<polygon fill="#bfbfbf" stroke="black" points="394,-406.5 394,-427.5 570,-427.5 570,-406.5 394,-406.5"/>
<text text-anchor="middle" x="482" y="-414.5" font-family="FreeSans.ttf" font-size="10.00">utils/corestructs/painterHelpers.h</text>
</g>
<!-- Node2 -->
<g id="node3" class="node"><title>Node2</title>
<polygon fill="none" stroke="#bfbfbf" points="418.5,-58.5 418.5,-79.5 471.5,-79.5 471.5,-58.5 418.5,-58.5"/>
<text text-anchor="middle" x="445" y="-66.5" font-family="FreeSans.ttf" font-size="10.00">stdint.h</text>
</g>
<!-- Node1&#45;&gt;Node2 -->
<g id="edge2" class="edge"><title>Node1&#45;&gt;Node2</title>
<path fill="none" stroke="midnightblue" d="M482,-406.444C482,-386.062 482,-339.868 482,-301 482,-301 482,-301 482,-185 482,-149.804 466.349,-111.322 455.405,-88.7156"/>
<polygon fill="midnightblue" stroke="midnightblue" points="458.399,-86.8786 450.781,-79.5151 452.144,-90.0219 458.399,-86.8786"/>
</g>
<!-- Node3 -->
<g id="node5" class="node"><title>Node3</title>
<polygon fill="none" stroke="#bfbfbf" points="509.5,-348.5 509.5,-369.5 590.5,-369.5 590.5,-348.5 509.5,-348.5"/>
<text text-anchor="middle" x="550" y="-356.5" font-family="FreeSans.ttf" font-size="10.00">QtCore/QRect</text>
</g>
<!-- Node1&#45;&gt;Node3 -->
<g id="edge4" class="edge"><title>Node1&#45;&gt;Node3</title>
<path fill="none" stroke="midnightblue" d="M494.472,-406.362C504.345,-397.941 518.333,-386.011 529.798,-376.231"/>
<polygon fill="midnightblue" stroke="midnightblue" points="532.27,-378.723 537.607,-369.571 527.727,-373.397 532.27,-378.723"/>
</g>
<!-- Node4 -->
<g id="node7" class="node"><title>Node4</title>
<polygon fill="none" stroke="#bfbfbf" points="607.5,-348.5 607.5,-369.5 694.5,-369.5 694.5,-348.5 607.5,-348.5"/>
<text text-anchor="middle" x="651" y="-356.5" font-family="FreeSans.ttf" font-size="10.00">QtGui/QPainter</text>
</g>
<!-- Node1&#45;&gt;Node4 -->
<g id="edge6" class="edge"><title>Node1&#45;&gt;Node4</title>
<path fill="none" stroke="midnightblue" d="M512.605,-406.497C540.037,-397.082 580.476,-383.204 610.564,-372.877"/>
<polygon fill="midnightblue" stroke="midnightblue" points="612.016,-376.08 620.338,-369.523 609.743,-369.459 612.016,-376.08"/>
</g>
<!-- Node5 -->
<g id="node9" class="node"><title>Node5</title>
<polygon fill="none" stroke="#bfbfbf" points="711.5,-348.5 711.5,-369.5 818.5,-369.5 818.5,-348.5 711.5,-348.5"/>
<text text-anchor="middle" x="765" y="-356.5" font-family="FreeSans.ttf" font-size="10.00">QtGui/QComboBox</text>
</g>
<!-- Node1&#45;&gt;Node5 -->
<g id="edge8" class="edge"><title>Node1&#45;&gt;Node5</title>
<path fill="none" stroke="midnightblue" d="M533.249,-406.497C581.183,-396.673 652.833,-381.988 703.759,-371.551"/>
<polygon fill="midnightblue" stroke="midnightblue" points="704.561,-374.96 713.655,-369.523 703.156,-368.102 704.561,-374.96"/>
</g>
<!-- Node6 -->
<g id="node11" class="node"><title>Node6</title>
<a xlink:href="global_8h.html" target="_top" xlink:title="This file holds the global includes, mostly for debuging, tracing and profiling.">
<polygon fill="none" stroke="black" points="11,-58.5 11,-79.5 65,-79.5 65,-58.5 11,-58.5"/>
<text text-anchor="middle" x="38" y="-66.5" font-family="FreeSans.ttf" font-size="10.00">global.h</text>
</a>
</g>
<!-- Node1&#45;&gt;Node6 -->
<g id="edge10" class="edge"><title>Node1&#45;&gt;Node6</title>
<path fill="none" stroke="midnightblue" d="M393.874,-413.694C254.787,-406.044 0,-381.099 0,-301 0,-301 0,-301 0,-185 0,-149.741 16.0509,-111.315 27.2892,-88.7323"/>
<polygon fill="midnightblue" stroke="midnightblue" points="30.4185,-90.3005 31.8946,-79.809 24.1981,-87.0901 30.4185,-90.3005"/>
</g>
<!-- Node8 -->
<g id="node15" class="node"><title>Node8</title>
<a xlink:href="vector2d_8h.html" target="_top" xlink:title="Add Comment Here.">
<polygon fill="none" stroke="black" points="299,-290.5 299,-311.5 367,-311.5 367,-290.5 299,-290.5"/>
<text text-anchor="middle" x="333" y="-298.5" font-family="FreeSans.ttf" font-size="10.00">vector2d.h</text>
</a>
</g>
<!-- Node1&#45;&gt;Node8 -->
<g id="edge14" class="edge"><title>Node1&#45;&gt;Node8</title>
<path fill="none" stroke="midnightblue" d="M443.413,-406.415C421.502,-398.946 394.619,-387.171 375,-370 359.738,-356.642 348.315,-336.355 341.265,-321.232"/>
<polygon fill="midnightblue" stroke="midnightblue" points="344.319,-319.48 337.09,-311.735 337.911,-322.298 344.319,-319.48"/>
</g>
<!-- Node20 -->
<g id="node46" class="node"><title>Node20</title>
<a xlink:href="rectangle_8h.html" target="_top" xlink:title="Add Comment Here.">
<polygon fill="none" stroke="black" points="383.5,-348.5 383.5,-369.5 454.5,-369.5 454.5,-348.5 383.5,-348.5"/>
<text text-anchor="middle" x="419" y="-356.5" font-family="FreeSans.ttf" font-size="10.00">rectangle.h</text>
</a>
</g>
<!-- Node1&#45;&gt;Node20 -->
<g id="edge52" class="edge"><title>Node1&#45;&gt;Node20</title>
<path fill="none" stroke="midnightblue" d="M470.445,-406.362C461.387,-398.023 448.59,-386.242 438.026,-376.516"/>
<polygon fill="midnightblue" stroke="midnightblue" points="440.21,-373.769 430.482,-369.571 435.468,-378.919 440.21,-373.769"/>
</g>
<!-- Node7 -->
<g id="node13" class="node"><title>Node7</title>
<polygon fill="none" stroke="#bfbfbf" points="6,-0.5 6,-21.5 70,-21.5 70,-0.5 6,-0.5"/>
<text text-anchor="middle" x="38" y="-8.5" font-family="FreeSans.ttf" font-size="10.00">inttypes.h</text>
</g>
<!-- Node6&#45;&gt;Node7 -->
<g id="edge12" class="edge"><title>Node6&#45;&gt;Node7</title>
<path fill="none" stroke="midnightblue" d="M38,-58.3619C38,-50.9219 38,-40.7427 38,-31.7276"/>
<polygon fill="midnightblue" stroke="midnightblue" points="41.5001,-31.5706 38,-21.5707 34.5001,-31.5707 41.5001,-31.5706"/>
</g>
<!-- Node8&#45;&gt;Node2 -->
<g id="edge18" class="edge"><title>Node8&#45;&gt;Node2</title>
<path fill="none" stroke="midnightblue" d="M335.283,-290.102C342.76,-255.058 367.175,-145.81 387,-116 395.042,-103.908 407.155,-93.3975 418.235,-85.4002"/>
<polygon fill="midnightblue" stroke="midnightblue" points="420.522,-88.0764 426.802,-79.5433 416.571,-82.2978 420.522,-88.0764"/>
</g>
<!-- Node8&#45;&gt;Node6 -->
<g id="edge20" class="edge"><title>Node8&#45;&gt;Node6</title>
<path fill="none" stroke="midnightblue" d="M298.989,-295.313C268.267,-288.975 222.82,-276.518 189,-254 122.159,-209.496 70.022,-126.432 48.6023,-88.6341"/>
<polygon fill="midnightblue" stroke="midnightblue" points="51.524,-86.6863 43.6073,-79.6453 45.4053,-90.0865 51.524,-86.6863"/>
</g>
<!-- Node9 -->
<g id="node17" class="node"><title>Node9</title>
<polygon fill="none" stroke="#bfbfbf" points="289.5,-116.5 289.5,-137.5 340.5,-137.5 340.5,-116.5 289.5,-116.5"/>
<text text-anchor="middle" x="315" y="-124.5" font-family="FreeSans.ttf" font-size="10.00">math.h</text>
</g>
<!-- Node8&#45;&gt;Node9 -->
<g id="edge16" class="edge"><title>Node8&#45;&gt;Node9</title>
<path fill="none" stroke="midnightblue" d="M331.901,-290.377C328.996,-262.293 321.07,-185.673 317.193,-148.203"/>
<polygon fill="midnightblue" stroke="midnightblue" points="320.641,-147.514 316.13,-137.928 313.678,-148.235 320.641,-147.514"/>
</g>
<!-- Node10 -->
<g id="node21" class="node"><title>Node10</title>
<a xlink:href="fixedVector_8h.html" target="_top" xlink:title="This file holds the description of the commonly used template &#45; a vector with the fixed number of com...">
<polygon fill="none" stroke="black" points="198,-232.5 198,-253.5 276,-253.5 276,-232.5 198,-232.5"/>
<text text-anchor="middle" x="237" y="-240.5" font-family="FreeSans.ttf" font-size="10.00">fixedVector.h</text>
</a>
</g>
<!-- Node8&#45;&gt;Node10 -->
<g id="edge22" class="edge"><title>Node8&#45;&gt;Node10</title>
<path fill="none" stroke="midnightblue" d="M315.392,-290.362C300.777,-281.532 279.776,-268.844 263.189,-258.822"/>
<polygon fill="midnightblue" stroke="midnightblue" points="264.865,-255.746 254.496,-253.571 261.246,-261.738 264.865,-255.746"/>
</g>
<!-- Node11 -->
<g id="node23" class="node"><title>Node11</title>
<polygon fill="none" stroke="#bfbfbf" points="82.5,-58.5 82.5,-79.5 131.5,-79.5 131.5,-58.5 82.5,-58.5"/>
<text text-anchor="middle" x="107" y="-66.5" font-family="FreeSans.ttf" font-size="10.00">stdio.h</text>
</g>
<!-- Node10&#45;&gt;Node11 -->
<g id="edge24" class="edge"><title>Node10&#45;&gt;Node11</title>
<path fill="none" stroke="midnightblue" d="M216.714,-232.339C188.388,-216.204 137.993,-182.665 116,-138 108.673,-123.12 106.616,-104.354 106.285,-90.15"/>
<polygon fill="midnightblue" stroke="midnightblue" points="109.785,-89.9107 106.32,-79.8984 102.785,-89.8861 109.785,-89.9107"/>
</g>
<!-- Node12 -->
<g id="node25" class="node"><title>Node12</title>
<a xlink:href="vectorOperations_8h.html" target="_top" xlink:title="This file holds the operations that are commonly used with continuous linear data structures such as ...">
<polygon fill="none" stroke="black" points="183,-174.5 183,-195.5 291,-195.5 291,-174.5 183,-174.5"/>
<text text-anchor="middle" x="237" y="-182.5" font-family="FreeSans.ttf" font-size="10.00">vectorOperations.h</text>
</a>
</g>
<!-- Node10&#45;&gt;Node12 -->
<g id="edge26" class="edge"><title>Node10&#45;&gt;Node12</title>
<path fill="none" stroke="midnightblue" d="M237,-232.362C237,-224.922 237,-214.743 237,-205.728"/>
<polygon fill="midnightblue" stroke="midnightblue" points="240.5,-205.571 237,-195.571 233.5,-205.571 240.5,-205.571"/>
</g>
<!-- Node12&#45;&gt;Node9 -->
<g id="edge34" class="edge"><title>Node12&#45;&gt;Node9</title>
<path fill="none" stroke="midnightblue" d="M251.306,-174.362C262.851,-165.777 279.3,-153.546 292.59,-143.664"/>
<polygon fill="midnightblue" stroke="midnightblue" points="294.848,-146.346 300.784,-137.571 290.671,-140.729 294.848,-146.346"/>
</g>
<!-- Node12&#45;&gt;Node11 -->
<g id="edge32" class="edge"><title>Node12&#45;&gt;Node11</title>
<path fill="none" stroke="midnightblue" d="M195.197,-174.43C174.131,-167.227 149.604,-155.704 133,-138 120.457,-124.626 113.81,-104.617 110.389,-89.5848"/>
<polygon fill="midnightblue" stroke="midnightblue" points="113.804,-88.8145 108.429,-79.6845 106.937,-90.1738 113.804,-88.8145"/>
</g>
<!-- Node13 -->
<g id="node27" class="node"><title>Node13</title>
<polygon fill="none" stroke="#bfbfbf" points="142,-116.5 142,-137.5 184,-137.5 184,-116.5 142,-116.5"/>
<text text-anchor="middle" x="163" y="-124.5" font-family="FreeSans.ttf" font-size="10.00">limits</text>
</g>
<!-- Node12&#45;&gt;Node13 -->
<g id="edge28" class="edge"><title>Node12&#45;&gt;Node13</title>
<path fill="none" stroke="midnightblue" d="M223.427,-174.362C212.579,-165.859 197.166,-153.779 184.621,-143.947"/>
<polygon fill="midnightblue" stroke="midnightblue" points="186.516,-140.985 176.487,-137.571 182.198,-146.494 186.516,-140.985"/>
</g>
<!-- Node14 -->
<g id="node29" class="node"><title>Node14</title>
<polygon fill="none" stroke="#bfbfbf" points="395.5,-116.5 395.5,-137.5 454.5,-137.5 454.5,-116.5 395.5,-116.5"/>
<text text-anchor="middle" x="425" y="-124.5" font-family="FreeSans.ttf" font-size="10.00">iostream</text>
</g>
<!-- Node12&#45;&gt;Node14 -->
<g id="edge30" class="edge"><title>Node12&#45;&gt;Node14</title>
<path fill="none" stroke="midnightblue" d="M271.045,-174.497C303.308,-164.543 351.743,-149.601 385.647,-139.141"/>
<polygon fill="midnightblue" stroke="midnightblue" points="386.709,-142.476 395.233,-136.184 384.645,-135.787 386.709,-142.476"/>
</g>
<!-- Node15 -->
<g id="node33" class="node"><title>Node15</title>
<a xlink:href="reflection_8h.html" target="_top" xlink:title="a header for Reflection.c">
<polygon fill="none" stroke="black" points="202,-116.5 202,-137.5 272,-137.5 272,-116.5 202,-116.5"/>
<text text-anchor="middle" x="237" y="-124.5" font-family="FreeSans.ttf" font-size="10.00">reflection.h</text>
</a>
</g>
<!-- Node12&#45;&gt;Node15 -->
<g id="edge36" class="edge"><title>Node12&#45;&gt;Node15</title>
<path fill="none" stroke="midnightblue" d="M237,-174.362C237,-166.922 237,-156.743 237,-147.728"/>
<polygon fill="midnightblue" stroke="midnightblue" points="240.5,-147.571 237,-137.571 233.5,-147.571 240.5,-147.571"/>
</g>
<!-- Node15&#45;&gt;Node2 -->
<g id="edge46" class="edge"><title>Node15&#45;&gt;Node2</title>
<path fill="none" stroke="midnightblue" d="M272.236,-117.861C305.221,-109.209 356.105,-95.6191 408.486,-80.3801"/>
<polygon fill="midnightblue" stroke="midnightblue" points="409.664,-83.6822 418.28,-77.5163 407.699,-76.9636 409.664,-83.6822"/>
</g>
<!-- Node15&#45;&gt;Node6 -->
<g id="edge50" class="edge"><title>Node15&#45;&gt;Node6</title>
<path fill="none" stroke="midnightblue" d="M201.977,-117.075C170.938,-108.239 124.141,-94.8259 74.7014,-80.1807"/>
<polygon fill="midnightblue" stroke="midnightblue" points="75.6955,-76.8249 65.1129,-77.3347 73.7036,-83.5356 75.6955,-76.8249"/>
</g>
<!-- Node15&#45;&gt;Node11 -->
<g id="edge44" class="edge"><title>Node15&#45;&gt;Node11</title>
<path fill="none" stroke="midnightblue" d="M213.458,-116.497C192.971,-107.356 163.053,-94.0082 140.146,-83.7883"/>
<polygon fill="midnightblue" stroke="midnightblue" points="141.365,-80.4994 130.806,-79.6212 138.512,-86.892 141.365,-80.4994"/>
</g>
<!-- Node16 -->
<g id="node35" class="node"><title>Node16</title>
<polygon fill="none" stroke="#bfbfbf" points="354.5,-58.5 354.5,-79.5 401.5,-79.5 401.5,-58.5 354.5,-58.5"/>
<text text-anchor="middle" x="378" y="-66.5" font-family="FreeSans.ttf" font-size="10.00">vector</text>
</g>
<!-- Node15&#45;&gt;Node16 -->
<g id="edge38" class="edge"><title>Node15&#45;&gt;Node16</title>
<path fill="none" stroke="midnightblue" d="M262.534,-116.497C285.514,-107.044 319.433,-93.0915 344.567,-82.7524"/>
<polygon fill="midnightblue" stroke="midnightblue" points="346.15,-85.8862 354.066,-78.8451 343.487,-79.4125 346.15,-85.8862"/>
</g>
<!-- Node17 -->
<g id="node37" class="node"><title>Node17</title>
<polygon fill="none" stroke="#bfbfbf" points="149,-58.5 149,-79.5 193,-79.5 193,-58.5 149,-58.5"/>
<text text-anchor="middle" x="171" y="-66.5" font-family="FreeSans.ttf" font-size="10.00">string</text>
</g>
<!-- Node15&#45;&gt;Node17 -->
<g id="edge40" class="edge"><title>Node15&#45;&gt;Node17</title>
<path fill="none" stroke="midnightblue" d="M224.895,-116.362C215.312,-107.941 201.736,-96.0105 190.607,-86.2308"/>
<polygon fill="midnightblue" stroke="midnightblue" points="192.851,-83.5427 183.029,-79.5707 188.23,-88.8009 192.851,-83.5427"/>
</g>
<!-- Node18 -->
<g id="node39" class="node"><title>Node18</title>
<polygon fill="none" stroke="#bfbfbf" points="210.5,-58.5 210.5,-79.5 263.5,-79.5 263.5,-58.5 210.5,-58.5"/>
<text text-anchor="middle" x="237" y="-66.5" font-family="FreeSans.ttf" font-size="10.00">string.h</text>
</g>
<!-- Node15&#45;&gt;Node18 -->
<g id="edge42" class="edge"><title>Node15&#45;&gt;Node18</title>
<path fill="none" stroke="midnightblue" d="M237,-116.362C237,-108.922 237,-98.7427 237,-89.7276"/>
<polygon fill="midnightblue" stroke="midnightblue" points="240.5,-89.5706 237,-79.5707 233.5,-89.5707 240.5,-89.5706"/>
</g>
<!-- Node19 -->
<g id="node43" class="node"><title>Node19</title>
<polygon fill="none" stroke="#bfbfbf" points="281,-58.5 281,-79.5 337,-79.5 337,-58.5 281,-58.5"/>
<text text-anchor="middle" x="309" y="-66.5" font-family="FreeSans.ttf" font-size="10.00">stdarg.h</text>
</g>
<!-- Node15&#45;&gt;Node19 -->
<g id="edge48" class="edge"><title>Node15&#45;&gt;Node19</title>
<path fill="none" stroke="midnightblue" d="M250.206,-116.362C260.761,-107.859 275.758,-95.7785 287.963,-85.9466"/>
<polygon fill="midnightblue" stroke="midnightblue" points="290.286,-88.5696 295.878,-79.5707 285.895,-83.1183 290.286,-88.5696"/>
</g>
<!-- Node20&#45;&gt;Node8 -->
<g id="edge56" class="edge"><title>Node20&#45;&gt;Node8</title>
<path fill="none" stroke="midnightblue" d="M403.226,-348.362C390.376,-339.696 372.015,-327.313 357.29,-317.382"/>
<polygon fill="midnightblue" stroke="midnightblue" points="358.921,-314.26 348.674,-311.571 355.007,-320.064 358.921,-314.26"/>
</g>
<!-- Node20&#45;&gt;Node14 -->
<g id="edge54" class="edge"><title>Node20&#45;&gt;Node14</title>
<path fill="none" stroke="midnightblue" d="M419.273,-348.429C420.199,-312.648 423.224,-195.663 424.463,-147.748"/>
<polygon fill="midnightblue" stroke="midnightblue" points="427.965,-147.721 424.725,-137.634 420.968,-147.54 427.965,-147.721"/>
</g>
</g>
</svg>
        <g id="navigator" transform="translate(0 0)" fill="#404254">
                <rect fill="#f2f5e9" fill-opacity="0.5" stroke="#606060" stroke-width=".5" x="0" y="0" width="60" height="60"/>
                <use id="zoomplus" xlink:href="#zoomPlus" x="17" y="9" onmousedown="handleZoom(evt,'in')"/>
                <use id="zoomminus" xlink:href="#zoomMin" x="42" y="9" onmousedown="handleZoom(evt,'out')"/>
                <use id="reset" xlink:href="#resetDef" x="30" y="36" onmousedown="handleReset()"/>
                <g id="arrowUp" xlink:href="#dirArrow" transform="translate(30 24)" onmousedown="handlePan(0,-1)">
                  <use xlink:href="#rim" fill="#404040">
                        <set attributeName="fill" to="#808080" begin="arrowUp.mouseover" end="arrowUp.mouseout"/>
                  </use>
                  <path fill="none" stroke="white" stroke-width="1.5" d="M0,-3.0v7 M-2.5,-0.5L0,-3.0L2.5,-0.5"/>
                </g>
                <g id="arrowRight" xlink:href="#dirArrow" transform="rotate(90) translate(36 -43)" onmousedown="handlePan(1,0)">
                  <use xlink:href="#rim" fill="#404040">
                        <set attributeName="fill" to="#808080" begin="arrowRight.mouseover" end="arrowRight.mouseout"/>
                  </use>
                  <path fill="none" stroke="white" stroke-width="1.5" d="M0,-3.0v7 M-2.5,-0.5L0,-3.0L2.5,-0.5"/>
                </g>
                <g id="arrowDown" xlink:href="#dirArrow" transform="rotate(180) translate(-30 -48)" onmousedown="handlePan(0,1)">
                  <use xlink:href="#rim" fill="#404040">
                        <set attributeName="fill" to="#808080" begin="arrowDown.mouseover" end="arrowDown.mouseout"/>
                  </use>
                  <path fill="none" stroke="white" stroke-width="1.5" d="M0,-3.0v7 M-2.5,-0.5L0,-3.0L2.5,-0.5"/>
                </g>
                <g id="arrowLeft" xlink:href="#dirArrow" transform="rotate(270) translate(-36 17)" onmousedown="handlePan(-1,0)">
                  <use xlink:href="#rim" fill="#404040">
                        <set attributeName="fill" to="#808080" begin="arrowLeft.mouseover" end="arrowLeft.mouseout"/>
                  </use>
                  <path fill="none" stroke="white" stroke-width="1.5" d="M0,-3.0v7 M-2.5,-0.5L0,-3.0L2.5,-0.5"/>
                </g>
        </g>
</svg>
