<?xml version="1.0" encoding="UTF-8" standalone="no"?>
<!DOCTYPE svg PUBLIC "-//W3C//DTD SVG 1.1//EN"
 "http://www.w3.org/Graphics/SVG/1.1/DTD/svg11.dtd">
<!-- Generated by graphviz version 2.26.3 (20100126.1600)
 -->
<!-- Title: G Pages: 1 -->
<!--zoomable 494 -->
<svg id="main" version="1.1" xmlns="http://www.w3.org/2000/svg" xmlns:xlink="http://www.w3.org/1999/xlink" xml:space="preserve" onload="init(evt)">
        <defs>
                <circle id="rim" cx="0" cy="0" r="7"/>
                <circle id="rim2" cx="0" cy="0" r="3.5"/>
                <g id="zoomPlus">
                        <use xlink:href="#rim" fill="#404040">
                                <set attributeName="fill" to="#808080" begin="zoomplus.mouseover" end="zoomplus.mouseout"/>
                        </use>
                        <path d="M-4,0h8M0,-4v8" fill="none" stroke="white" stroke-width="1.5" pointer-events="none"/>
                </g>
                <g id="zoomMin">
                        <use xlink:href="#rim" fill="#404040">
                                <set attributeName="fill" to="#808080" begin="zoomminus.mouseover" end="zoomminus.mouseout"/>
                        </use>
                        <path d="M-4,0h8" fill="none" stroke="white" stroke-width="1.5" pointer-events="none"/>
                </g>
                <g id="dirArrow">
                        <path fill="none" stroke="white" stroke-width="1.5" d="M0,-3.0v7 M-2.5,-0.5L0,-3.0L2.5,-0.5"/>
                </g>
               <g id="resetDef">
                       <use xlink:href="#rim2" fill="#404040">
                               <set attributeName="fill" to="#808080" begin="reset.mouseover" end="reset.mouseout"/>
                       </use>
               </g>
        </defs>

<script type="text/javascript">
var viewWidth = 644;
var viewHeight = 494;
var sectionId = 'dynsection-0';
</script>
<script xlink:href="svgpan.js"/>
<svg id="graph" class="graph">
<g id="viewport">
<title>G</title>
<!-- Node1 -->
<g id="node1" class="node"><title>Node1</title>
<polygon fill="#bfbfbf" stroke="black" points="210.5,-464.5 210.5,-485.5 397.5,-485.5 397.5,-464.5 210.5,-464.5"/>
<text text-anchor="middle" x="304" y="-472.5" font-family="FreeSans.ttf" font-size="10.00">utils/corestructs/painterHelpers.cpp</text>
</g>
<!-- Node2 -->
<g id="node3" class="node"><title>Node2</title>
<polygon fill="none" stroke="#bfbfbf" points="11.5,-58.5 11.5,-79.5 64.5,-79.5 64.5,-58.5 11.5,-58.5"/>
<text text-anchor="middle" x="38" y="-66.5" font-family="FreeSans.ttf" font-size="10.00">stdint.h</text>
</g>
<!-- Node1&#45;&gt;Node2 -->
<g id="edge2" class="edge"><title>Node1&#45;&gt;Node2</title>
<path fill="none" stroke="midnightblue" d="M242.847,-464.482C154.074,-447.45 0,-410.476 0,-359 0,-359 0,-359 0,-185 0,-149.741 16.0509,-111.315 27.2892,-88.7323"/>
<polygon fill="midnightblue" stroke="midnightblue" points="30.4185,-90.3005 31.8946,-79.809 24.1981,-87.0901 30.4185,-90.3005"/>
</g>
<!-- Node3 -->
<g id="node5" class="node"><title>Node3</title>
<a xlink:href="painterHelpers_8h.html" target="_top" xlink:title="Add Comment Here.">
<polygon fill="none" stroke="black" points="256,-406.5 256,-427.5 352,-427.5 352,-406.5 256,-406.5"/>
<text text-anchor="middle" x="304" y="-414.5" font-family="FreeSans.ttf" font-size="10.00">painterHelpers.h</text>
</a>
</g>
<!-- Node1&#45;&gt;Node3 -->
<g id="edge4" class="edge"><title>Node1&#45;&gt;Node3</title>
<path fill="none" stroke="midnightblue" d="M304,-464.362C304,-456.922 304,-446.743 304,-437.728"/>
<polygon fill="midnightblue" stroke="midnightblue" points="307.5,-437.571 304,-427.571 300.5,-437.571 307.5,-437.571"/>
</g>
<!-- Node22 -->
<g id="node53" class="node"><title>Node22</title>
<a xlink:href="mathUtils_8h.html" target="_top" xlink:title="Add Comment Here.">
<polygon fill="none" stroke="black" points="560,-174.5 560,-195.5 632,-195.5 632,-174.5 560,-174.5"/>
<text text-anchor="middle" x="596" y="-182.5" font-family="FreeSans.ttf" font-size="10.00">mathUtils.h</text>
</a>
</g>
<!-- Node1&#45;&gt;Node22 -->
<g id="edge62" class="edge"><title>Node1&#45;&gt;Node22</title>
<path fill="none" stroke="midnightblue" d="M370.454,-464.484C463.408,-447.864 621,-411.89 621,-359 621,-359 621,-359 621,-301 621,-266.853 610.52,-228.296 603.131,-205.354"/>
<polygon fill="midnightblue" stroke="midnightblue" points="606.396,-204.083 599.906,-195.709 599.757,-206.302 606.396,-204.083"/>
</g>
<!-- Node3&#45;&gt;Node2 -->
<g id="edge6" class="edge"><title>Node3&#45;&gt;Node2</title>
<path fill="none" stroke="midnightblue" d="M255.871,-412.882C194.914,-406.772 94.3787,-393.429 66,-370 40.4781,-348.93 38,-334.095 38,-301 38,-301 38,-301 38,-185 38,-151.598 38,-112.785 38,-89.5939"/>
<polygon fill="midnightblue" stroke="midnightblue" points="41.5001,-89.5561 38,-79.5561 34.5001,-89.5561 41.5001,-89.5561"/>
</g>
<!-- Node4 -->
<g id="node8" class="node"><title>Node4</title>
<polygon fill="none" stroke="#bfbfbf" points="162.5,-348.5 162.5,-369.5 243.5,-369.5 243.5,-348.5 162.5,-348.5"/>
<text text-anchor="middle" x="203" y="-356.5" font-family="FreeSans.ttf" font-size="10.00">QtCore/QRect</text>
</g>
<!-- Node3&#45;&gt;Node4 -->
<g id="edge8" class="edge"><title>Node3&#45;&gt;Node4</title>
<path fill="none" stroke="midnightblue" d="M285.475,-406.362C270.099,-397.532 248.004,-384.844 230.553,-374.822"/>
<polygon fill="midnightblue" stroke="midnightblue" points="231.822,-371.515 221.408,-369.571 228.336,-377.586 231.822,-371.515"/>
</g>
<!-- Node5 -->
<g id="node10" class="node"><title>Node5</title>
<polygon fill="none" stroke="#bfbfbf" points="260.5,-348.5 260.5,-369.5 347.5,-369.5 347.5,-348.5 260.5,-348.5"/>
<text text-anchor="middle" x="304" y="-356.5" font-family="FreeSans.ttf" font-size="10.00">QtGui/QPainter</text>
</g>
<!-- Node3&#45;&gt;Node5 -->
<g id="edge10" class="edge"><title>Node3&#45;&gt;Node5</title>
<path fill="none" stroke="midnightblue" d="M304,-406.362C304,-398.922 304,-388.743 304,-379.728"/>
<polygon fill="midnightblue" stroke="midnightblue" points="307.5,-379.571 304,-369.571 300.5,-379.571 307.5,-379.571"/>
</g>
<!-- Node6 -->
<g id="node12" class="node"><title>Node6</title>
<polygon fill="none" stroke="#bfbfbf" points="486.5,-348.5 486.5,-369.5 593.5,-369.5 593.5,-348.5 486.5,-348.5"/>
<text text-anchor="middle" x="540" y="-356.5" font-family="FreeSans.ttf" font-size="10.00">QtGui/QComboBox</text>
</g>
<!-- Node3&#45;&gt;Node6 -->
<g id="edge12" class="edge"><title>Node3&#45;&gt;Node6</title>
<path fill="none" stroke="midnightblue" d="M346.738,-406.497C386.212,-396.795 444.97,-382.355 487.329,-371.945"/>
<polygon fill="midnightblue" stroke="midnightblue" points="488.306,-375.309 497.182,-369.523 486.636,-368.511 488.306,-375.309"/>
</g>
<!-- Node7 -->
<g id="node14" class="node"><title>Node7</title>
<a xlink:href="global_8h.html" target="_top" xlink:title="This file holds the global includes, mostly for debuging, tracing and profiling.">
<polygon fill="none" stroke="black" points="474,-58.5 474,-79.5 528,-79.5 528,-58.5 474,-58.5"/>
<text text-anchor="middle" x="501" y="-66.5" font-family="FreeSans.ttf" font-size="10.00">global.h</text>
</a>
</g>
<!-- Node3&#45;&gt;Node7 -->
<g id="edge14" class="edge"><title>Node3&#45;&gt;Node7</title>
<path fill="none" stroke="midnightblue" d="M324.299,-406.338C339.205,-397.845 359.328,-384.929 374,-370 437.636,-305.251 444.138,-278.965 481,-196 492.072,-171.082 496.494,-164.892 501,-138 503.66,-122.124 503.528,-103.904 502.801,-90.1745"/>
<polygon fill="midnightblue" stroke="midnightblue" points="506.27,-89.5878 502.1,-79.848 499.286,-90.0623 506.27,-89.5878"/>
</g>
<!-- Node9 -->
<g id="node18" class="node"><title>Node9</title>
<a xlink:href="vector2d_8h.html" target="_top" xlink:title="Add Comment Here.">
<polygon fill="none" stroke="black" points="334,-290.5 334,-311.5 402,-311.5 402,-290.5 334,-290.5"/>
<text text-anchor="middle" x="368" y="-298.5" font-family="FreeSans.ttf" font-size="10.00">vector2d.h</text>
</a>
</g>
<!-- Node3&#45;&gt;Node9 -->
<g id="edge18" class="edge"><title>Node3&#45;&gt;Node9</title>
<path fill="none" stroke="midnightblue" d="M320.787,-406.342C332.568,-397.937 347.655,-385.131 356,-370 364.155,-355.214 366.994,-336.165 367.884,-321.829"/>
<polygon fill="midnightblue" stroke="midnightblue" points="371.393,-321.63 368.245,-311.514 364.397,-321.385 371.393,-321.63"/>
</g>
<!-- Node21 -->
<g id="node49" class="node"><title>Node21</title>
<a xlink:href="rectangle_8h.html" target="_top" xlink:title="Add Comment Here.">
<polygon fill="none" stroke="black" points="74.5,-348.5 74.5,-369.5 145.5,-369.5 145.5,-348.5 74.5,-348.5"/>
<text text-anchor="middle" x="110" y="-356.5" font-family="FreeSans.ttf" font-size="10.00">rectangle.h</text>
</a>
</g>
<!-- Node3&#45;&gt;Node21 -->
<g id="edge56" class="edge"><title>Node3&#45;&gt;Node21</title>
<path fill="none" stroke="midnightblue" d="M268.868,-406.497C236.967,-396.959 189.743,-382.841 155.072,-372.475"/>
<polygon fill="midnightblue" stroke="midnightblue" points="155.781,-369.034 145.198,-369.523 153.776,-375.741 155.781,-369.034"/>
</g>
<!-- Node8 -->
<g id="node16" class="node"><title>Node8</title>
<polygon fill="none" stroke="#bfbfbf" points="469,-0.5 469,-21.5 533,-21.5 533,-0.5 469,-0.5"/>
<text text-anchor="middle" x="501" y="-8.5" font-family="FreeSans.ttf" font-size="10.00">inttypes.h</text>
</g>
<!-- Node7&#45;&gt;Node8 -->
<g id="edge16" class="edge"><title>Node7&#45;&gt;Node8</title>
<path fill="none" stroke="midnightblue" d="M501,-58.3619C501,-50.9219 501,-40.7427 501,-31.7276"/>
<polygon fill="midnightblue" stroke="midnightblue" points="504.5,-31.5706 501,-21.5707 497.5,-31.5707 504.5,-31.5706"/>
</g>
<!-- Node9&#45;&gt;Node2 -->
<g id="edge22" class="edge"><title>Node9&#45;&gt;Node2</title>
<path fill="none" stroke="midnightblue" d="M353.078,-290.234C327.255,-271.511 272.71,-231.545 228,-196 184.792,-161.649 179.182,-146.235 133,-116 113.99,-103.555 91.2176,-92.1807 72.7342,-83.7399"/>
<polygon fill="midnightblue" stroke="midnightblue" points="74.0592,-80.4983 63.5022,-79.6031 71.1967,-86.8863 74.0592,-80.4983"/>
</g>
<!-- Node9&#45;&gt;Node7 -->
<g id="edge24" class="edge"><title>Node9&#45;&gt;Node7</title>
<path fill="none" stroke="midnightblue" d="M386.136,-290.476C399.288,-282.053 416.684,-269.165 428,-254 467.112,-201.586 488.309,-125.461 496.69,-89.4027"/>
<polygon fill="midnightblue" stroke="midnightblue" points="500.123,-90.0915 498.886,-79.5691 493.291,-88.5662 500.123,-90.0915"/>
</g>
<!-- Node10 -->
<g id="node20" class="node"><title>Node10</title>
<polygon fill="none" stroke="#bfbfbf" points="403.5,-116.5 403.5,-137.5 454.5,-137.5 454.5,-116.5 403.5,-116.5"/>
<text text-anchor="middle" x="429" y="-124.5" font-family="FreeSans.ttf" font-size="10.00">math.h</text>
</g>
<!-- Node9&#45;&gt;Node10 -->
<g id="edge20" class="edge"><title>Node9&#45;&gt;Node10</title>
<path fill="none" stroke="midnightblue" d="M380.839,-290.435C390.505,-281.716 403.211,-268.463 410,-254 426.257,-219.368 429.256,-174.099 429.467,-148.015"/>
<polygon fill="midnightblue" stroke="midnightblue" points="432.966,-147.773 429.411,-137.793 425.966,-147.812 432.966,-147.773"/>
</g>
<!-- Node11 -->
<g id="node24" class="node"><title>Node11</title>
<a xlink:href="fixedVector_8h.html" target="_top" xlink:title="This file holds the description of the commonly used template &#45; a vector with the fixed number of com...">
<polygon fill="none" stroke="black" points="323,-232.5 323,-253.5 401,-253.5 401,-232.5 323,-232.5"/>
<text text-anchor="middle" x="362" y="-240.5" font-family="FreeSans.ttf" font-size="10.00">fixedVector.h</text>
</a>
</g>
<!-- Node9&#45;&gt;Node11 -->
<g id="edge26" class="edge"><title>Node9&#45;&gt;Node11</title>
<path fill="none" stroke="midnightblue" d="M366.9,-290.362C366.13,-282.922 365.077,-272.743 364.144,-263.728"/>
<polygon fill="midnightblue" stroke="midnightblue" points="367.604,-263.157 363.094,-253.571 360.641,-263.878 367.604,-263.157"/>
</g>
<!-- Node12 -->
<g id="node26" class="node"><title>Node12</title>
<polygon fill="none" stroke="#bfbfbf" points="351.5,-58.5 351.5,-79.5 400.5,-79.5 400.5,-58.5 351.5,-58.5"/>
<text text-anchor="middle" x="376" y="-66.5" font-family="FreeSans.ttf" font-size="10.00">stdio.h</text>
</g>
<!-- Node11&#45;&gt;Node12 -->
<g id="edge28" class="edge"><title>Node11&#45;&gt;Node12</title>
<path fill="none" stroke="midnightblue" d="M362.855,-232.377C365.114,-204.293 371.279,-127.673 374.294,-90.2027"/>
<polygon fill="midnightblue" stroke="midnightblue" points="377.807,-90.1762 375.121,-79.9277 370.83,-89.6148 377.807,-90.1762"/>
</g>
<!-- Node13 -->
<g id="node28" class="node"><title>Node13</title>
<a xlink:href="vectorOperations_8h.html" target="_top" xlink:title="This file holds the operations that are commonly used with continuous linear data structures such as ...">
<polygon fill="none" stroke="black" points="237,-174.5 237,-195.5 345,-195.5 345,-174.5 237,-174.5"/>
<text text-anchor="middle" x="291" y="-182.5" font-family="FreeSans.ttf" font-size="10.00">vectorOperations.h</text>
</a>
</g>
<!-- Node11&#45;&gt;Node13 -->
<g id="edge30" class="edge"><title>Node11&#45;&gt;Node13</title>
<path fill="none" stroke="midnightblue" d="M348.978,-232.362C338.569,-223.859 323.781,-211.779 311.745,-201.947"/>
<polygon fill="midnightblue" stroke="midnightblue" points="313.899,-199.187 303.94,-195.571 309.47,-204.608 313.899,-199.187"/>
</g>
<!-- Node13&#45;&gt;Node10 -->
<g id="edge38" class="edge"><title>Node13&#45;&gt;Node10</title>
<path fill="none" stroke="midnightblue" d="M315.991,-174.497C337.933,-165.275 370.066,-151.769 394.464,-141.515"/>
<polygon fill="midnightblue" stroke="midnightblue" points="395.866,-144.722 403.729,-137.621 393.154,-138.269 395.866,-144.722"/>
</g>
<!-- Node13&#45;&gt;Node12 -->
<g id="edge36" class="edge"><title>Node13&#45;&gt;Node12</title>
<path fill="none" stroke="midnightblue" d="M298.844,-174.295C313.266,-154.613 344.161,-112.45 362.175,-87.8668"/>
<polygon fill="midnightblue" stroke="midnightblue" points="365.087,-89.8142 368.175,-79.6792 359.441,-85.6768 365.087,-89.8142"/>
</g>
<!-- Node14 -->
<g id="node30" class="node"><title>Node14</title>
<polygon fill="none" stroke="#bfbfbf" points="268,-116.5 268,-137.5 310,-137.5 310,-116.5 268,-116.5"/>
<text text-anchor="middle" x="289" y="-124.5" font-family="FreeSans.ttf" font-size="10.00">limits</text>
</g>
<!-- Node13&#45;&gt;Node14 -->
<g id="edge32" class="edge"><title>Node13&#45;&gt;Node14</title>
<path fill="none" stroke="midnightblue" d="M290.633,-174.362C290.377,-166.922 290.026,-156.743 289.715,-147.728"/>
<polygon fill="midnightblue" stroke="midnightblue" points="293.207,-147.444 289.365,-137.571 286.211,-147.685 293.207,-147.444"/>
</g>
<!-- Node15 -->
<g id="node32" class="node"><title>Node15</title>
<polygon fill="none" stroke="#bfbfbf" points="65.5,-116.5 65.5,-137.5 124.5,-137.5 124.5,-116.5 65.5,-116.5"/>
<text text-anchor="middle" x="95" y="-124.5" font-family="FreeSans.ttf" font-size="10.00">iostream</text>
</g>
<!-- Node13&#45;&gt;Node15 -->
<g id="edge34" class="edge"><title>Node13&#45;&gt;Node15</title>
<path fill="none" stroke="midnightblue" d="M255.506,-174.497C221.469,-164.424 170.166,-149.243 134.768,-138.768"/>
<polygon fill="midnightblue" stroke="midnightblue" points="135.364,-135.295 124.782,-135.813 133.378,-142.007 135.364,-135.295"/>
</g>
<!-- Node16 -->
<g id="node36" class="node"><title>Node16</title>
<a xlink:href="reflection_8h.html" target="_top" xlink:title="a header for Reflection.c">
<polygon fill="none" stroke="black" points="180,-116.5 180,-137.5 250,-137.5 250,-116.5 180,-116.5"/>
<text text-anchor="middle" x="215" y="-124.5" font-family="FreeSans.ttf" font-size="10.00">reflection.h</text>
</a>
</g>
<!-- Node13&#45;&gt;Node16 -->
<g id="edge40" class="edge"><title>Node13&#45;&gt;Node16</title>
<path fill="none" stroke="midnightblue" d="M277.06,-174.362C265.812,-165.777 249.784,-153.546 236.835,-143.664"/>
<polygon fill="midnightblue" stroke="midnightblue" points="238.924,-140.855 228.851,-137.571 234.677,-146.42 238.924,-140.855"/>
</g>
<!-- Node16&#45;&gt;Node2 -->
<g id="edge50" class="edge"><title>Node16&#45;&gt;Node2</title>
<path fill="none" stroke="midnightblue" d="M182.947,-116.497C152.383,-106.481 106.404,-91.4147 74.4572,-80.9464"/>
<polygon fill="midnightblue" stroke="midnightblue" points="75.2081,-77.5094 64.6154,-77.7214 73.0283,-84.1614 75.2081,-77.5094"/>
</g>
<!-- Node16&#45;&gt;Node7 -->
<g id="edge54" class="edge"><title>Node16&#45;&gt;Node7</title>
<path fill="none" stroke="midnightblue" d="M250.025,-118.066C253.056,-117.347 256.079,-116.648 259,-116 331.208,-99.974 416.21,-84.1664 463.825,-75.5857"/>
<polygon fill="midnightblue" stroke="midnightblue" points="464.459,-79.0281 473.683,-73.8164 463.222,-72.1382 464.459,-79.0281"/>
</g>
<!-- Node16&#45;&gt;Node12 -->
<g id="edge48" class="edge"><title>Node16&#45;&gt;Node12</title>
<path fill="none" stroke="midnightblue" d="M244.156,-116.497C271.554,-106.627 312.571,-91.8503 341.567,-81.4043"/>
<polygon fill="midnightblue" stroke="midnightblue" points="343.059,-84.5874 351.28,-77.9052 340.686,-78.0017 343.059,-84.5874"/>
</g>
<!-- Node17 -->
<g id="node38" class="node"><title>Node17</title>
<polygon fill="none" stroke="#bfbfbf" points="287.5,-58.5 287.5,-79.5 334.5,-79.5 334.5,-58.5 287.5,-58.5"/>
<text text-anchor="middle" x="311" y="-66.5" font-family="FreeSans.ttf" font-size="10.00">vector</text>
</g>
<!-- Node16&#45;&gt;Node17 -->
<g id="edge42" class="edge"><title>Node16&#45;&gt;Node17</title>
<path fill="none" stroke="midnightblue" d="M232.608,-116.362C247.223,-107.532 268.224,-94.844 284.811,-84.8224"/>
<polygon fill="midnightblue" stroke="midnightblue" points="286.754,-87.7376 293.504,-79.5707 283.135,-81.7461 286.754,-87.7376"/>
</g>
<!-- Node18 -->
<g id="node40" class="node"><title>Node18</title>
<polygon fill="none" stroke="#bfbfbf" points="82,-58.5 82,-79.5 126,-79.5 126,-58.5 82,-58.5"/>
<text text-anchor="middle" x="104" y="-66.5" font-family="FreeSans.ttf" font-size="10.00">string</text>
</g>
<!-- Node16&#45;&gt;Node18 -->
<g id="edge44" class="edge"><title>Node16&#45;&gt;Node18</title>
<path fill="none" stroke="midnightblue" d="M194.899,-116.497C177.718,-107.519 152.77,-94.4835 133.355,-84.3387"/>
<polygon fill="midnightblue" stroke="midnightblue" points="134.811,-81.1503 124.327,-79.6212 131.569,-87.3544 134.811,-81.1503"/>
</g>
<!-- Node19 -->
<g id="node42" class="node"><title>Node19</title>
<polygon fill="none" stroke="#bfbfbf" points="143.5,-58.5 143.5,-79.5 196.5,-79.5 196.5,-58.5 143.5,-58.5"/>
<text text-anchor="middle" x="170" y="-66.5" font-family="FreeSans.ttf" font-size="10.00">string.h</text>
</g>
<!-- Node16&#45;&gt;Node19 -->
<g id="edge46" class="edge"><title>Node16&#45;&gt;Node19</title>
<path fill="none" stroke="midnightblue" d="M206.746,-116.362C200.53,-108.35 191.849,-97.1605 184.485,-87.6696"/>
<polygon fill="midnightblue" stroke="midnightblue" points="187.097,-85.326 178.201,-79.5707 181.566,-89.617 187.097,-85.326"/>
</g>
<!-- Node20 -->
<g id="node46" class="node"><title>Node20</title>
<polygon fill="none" stroke="#bfbfbf" points="214,-58.5 214,-79.5 270,-79.5 270,-58.5 214,-58.5"/>
<text text-anchor="middle" x="242" y="-66.5" font-family="FreeSans.ttf" font-size="10.00">stdarg.h</text>
</g>
<!-- Node16&#45;&gt;Node20 -->
<g id="edge52" class="edge"><title>Node16&#45;&gt;Node20</title>
<path fill="none" stroke="midnightblue" d="M219.952,-116.362C223.53,-108.677 228.468,-98.0686 232.764,-88.8399"/>
<polygon fill="midnightblue" stroke="midnightblue" points="236.032,-90.1136 237.079,-79.5707 229.686,-87.1594 236.032,-90.1136"/>
</g>
<!-- Node21&#45;&gt;Node9 -->
<g id="edge60" class="edge"><title>Node21&#45;&gt;Node9</title>
<path fill="none" stroke="midnightblue" d="M145.52,-350.027C148.387,-349.331 151.24,-348.648 154,-348 212.624,-334.237 280.578,-319.523 323.905,-310.297"/>
<polygon fill="midnightblue" stroke="midnightblue" points="324.779,-313.689 333.833,-308.187 323.324,-306.842 324.779,-313.689"/>
</g>
<!-- Node21&#45;&gt;Node15 -->
<g id="edge58" class="edge"><title>Node21&#45;&gt;Node15</title>
<path fill="none" stroke="midnightblue" d="M109.317,-348.429C107.003,-312.648 99.4394,-195.663 96.3415,-147.748"/>
<polygon fill="midnightblue" stroke="midnightblue" points="99.8255,-147.387 95.6875,-137.634 92.8401,-147.839 99.8255,-147.387"/>
</g>
<!-- Node22&#45;&gt;Node7 -->
<g id="edge66" class="edge"><title>Node22&#45;&gt;Node7</title>
<path fill="none" stroke="midnightblue" d="M587.233,-174.295C571.044,-154.527 536.281,-112.08 516.187,-87.5443"/>
<polygon fill="midnightblue" stroke="midnightblue" points="518.79,-85.1982 509.746,-79.6792 513.374,-89.6334 518.79,-85.1982"/>
</g>
<!-- Node22&#45;&gt;Node10 -->
<g id="edge64" class="edge"><title>Node22&#45;&gt;Node10</title>
<path fill="none" stroke="midnightblue" d="M565.758,-174.497C537.214,-164.583 494.421,-149.721 464.323,-139.268"/>
<polygon fill="midnightblue" stroke="midnightblue" points="465.236,-135.88 454.641,-135.905 462.939,-142.492 465.236,-135.88"/>
</g>
<!-- Node23 -->
<g id="node57" class="node"><title>Node23</title>
<polygon fill="none" stroke="#bfbfbf" points="585.5,-116.5 585.5,-137.5 636.5,-137.5 636.5,-116.5 585.5,-116.5"/>
<text text-anchor="middle" x="611" y="-124.5" font-family="FreeSans.ttf" font-size="10.00">stdlib.h</text>
</g>
<!-- Node22&#45;&gt;Node23 -->
<g id="edge68" class="edge"><title>Node22&#45;&gt;Node23</title>
<path fill="none" stroke="midnightblue" d="M598.751,-174.362C600.697,-166.84 603.366,-156.519 605.716,-147.431"/>
<polygon fill="midnightblue" stroke="midnightblue" points="609.151,-148.128 608.266,-137.571 602.374,-146.376 609.151,-148.128"/>
</g>
</g>
</svg>
        <g id="navigator" transform="translate(0 0)" fill="#404254">
                <rect fill="#f2f5e9" fill-opacity="0.5" stroke="#606060" stroke-width=".5" x="0" y="0" width="60" height="60"/>
                <use id="zoomplus" xlink:href="#zoomPlus" x="17" y="9" onmousedown="handleZoom(evt,'in')"/>
                <use id="zoomminus" xlink:href="#zoomMin" x="42" y="9" onmousedown="handleZoom(evt,'out')"/>
                <use id="reset" xlink:href="#resetDef" x="30" y="36" onmousedown="handleReset()"/>
                <g id="arrowUp" xlink:href="#dirArrow" transform="translate(30 24)" onmousedown="handlePan(0,-1)">
                  <use xlink:href="#rim" fill="#404040">
                        <set attributeName="fill" to="#808080" begin="arrowUp.mouseover" end="arrowUp.mouseout"/>
                  </use>
                  <path fill="none" stroke="white" stroke-width="1.5" d="M0,-3.0v7 M-2.5,-0.5L0,-3.0L2.5,-0.5"/>
                </g>
                <g id="arrowRight" xlink:href="#dirArrow" transform="rotate(90) translate(36 -43)" onmousedown="handlePan(1,0)">
                  <use xlink:href="#rim" fill="#404040">
                        <set attributeName="fill" to="#808080" begin="arrowRight.mouseover" end="arrowRight.mouseout"/>
                  </use>
                  <path fill="none" stroke="white" stroke-width="1.5" d="M0,-3.0v7 M-2.5,-0.5L0,-3.0L2.5,-0.5"/>
                </g>
                <g id="arrowDown" xlink:href="#dirArrow" transform="rotate(180) translate(-30 -48)" onmousedown="handlePan(0,1)">
                  <use xlink:href="#rim" fill="#404040">
                        <set attributeName="fill" to="#808080" begin="arrowDown.mouseover" end="arrowDown.mouseout"/>
                  </use>
                  <path fill="none" stroke="white" stroke-width="1.5" d="M0,-3.0v7 M-2.5,-0.5L0,-3.0L2.5,-0.5"/>
                </g>
                <g id="arrowLeft" xlink:href="#dirArrow" transform="rotate(270) translate(-36 17)" onmousedown="handlePan(-1,0)">
                  <use xlink:href="#rim" fill="#404040">
                        <set attributeName="fill" to="#808080" begin="arrowLeft.mouseover" end="arrowLeft.mouseout"/>
                  </use>
                  <path fill="none" stroke="white" stroke-width="1.5" d="M0,-3.0v7 M-2.5,-0.5L0,-3.0L2.5,-0.5"/>
                </g>
        </g>
</svg>
