<?xml version="1.0" encoding="UTF-8" standalone="no"?>
<!DOCTYPE svg PUBLIC "-//W3C//DTD SVG 1.1//EN"
 "http://www.w3.org/Graphics/SVG/1.1/DTD/svg11.dtd">
<!-- Generated by graphviz version 2.26.3 (20100126.1600)
 -->
<!-- Title: G Pages: 1 -->
<svg width="376pt" height="88pt"
 viewBox="0.00 0.00 376.00 88.00" xmlns="http://www.w3.org/2000/svg" xmlns:xlink="http://www.w3.org/1999/xlink">
<g id="graph1" class="graph" transform="scale(1 1) rotate(0) translate(4 84)">
<title>G</title>
<!-- Node1 -->
<g id="node1" class="node"><title>Node1</title>
<polygon fill="#bfbfbf" stroke="black" points="88.5,-58.5 88.5,-79.5 265.5,-79.5 265.5,-58.5 88.5,-58.5"/>
<text text-anchor="middle" x="177" y="-66.5" font-family="FreeSans.ttf" font-size="10.00">utils/widgets/parameterSelector.h</text>
</g>
<!-- Node2 -->
<g id="node3" class="node"><title>Node2</title>
<a xlink:href="capSettingsDialog_8cpp.html" target="_top" xlink:title="utils/uis/capSettingsDialog.cpp">
<polygon fill="none" stroke="black" points="-0.5,-0.5 -0.5,-21.5 162.5,-21.5 162.5,-0.5 -0.5,-0.5"/>
<text text-anchor="middle" x="81" y="-8.5" font-family="FreeSans.ttf" font-size="10.00">utils/uis/capSettingsDialog.cpp</text>
</a>
</g>
<!-- Node1&#45;&gt;Node2 -->
<g id="edge2" class="edge"><title>Node1&#45;&gt;Node2</title>
<path fill="none" stroke="midnightblue" d="M150.684,-53.1009C134.074,-43.0658 113.079,-30.3808 98.4963,-21.5707"/>
<polygon fill="midnightblue" stroke="midnightblue" points="149.023,-56.1864 159.392,-58.3619 152.643,-50.195 149.023,-56.1864"/>
</g>
<!-- Node3 -->
<g id="node5" class="node"><title>Node3</title>
<a xlink:href="parameterSelector_8cpp.html" target="_top" xlink:title="utils/widgets/parameterSelector.cpp">
<polygon fill="none" stroke="black" points="180,-0.5 180,-21.5 368,-21.5 368,-0.5 180,-0.5"/>
<text text-anchor="middle" x="274" y="-8.5" font-family="FreeSans.ttf" font-size="10.00">utils/widgets/parameterSelector.cpp</text>
</a>
</g>
<!-- Node1&#45;&gt;Node3 -->
<g id="edge4" class="edge"><title>Node1&#45;&gt;Node3</title>
<path fill="none" stroke="midnightblue" d="M203.59,-53.1009C220.373,-43.0658 241.587,-30.3808 256.321,-21.5707"/>
<polygon fill="midnightblue" stroke="midnightblue" points="201.578,-50.226 194.791,-58.3619 205.17,-56.2339 201.578,-50.226"/>
</g>
</g>
</svg>
