<?xml version="1.0" encoding="UTF-8" standalone="no"?>
<!DOCTYPE svg PUBLIC "-//W3C//DTD SVG 1.1//EN"
 "http://www.w3.org/Graphics/SVG/1.1/DTD/svg11.dtd">
<!-- Generated by graphviz version 2.26.3 (20100126.1600)
 -->
<!-- Title: G Pages: 1 -->
<!--zoomable 262 -->
<svg id="main" version="1.1" xmlns="http://www.w3.org/2000/svg" xmlns:xlink="http://www.w3.org/1999/xlink" xml:space="preserve" onload="init(evt)">
        <defs>
                <circle id="rim" cx="0" cy="0" r="7"/>
                <circle id="rim2" cx="0" cy="0" r="3.5"/>
                <g id="zoomPlus">
                        <use xlink:href="#rim" fill="#404040">
                                <set attributeName="fill" to="#808080" begin="zoomplus.mouseover" end="zoomplus.mouseout"/>
                        </use>
                        <path d="M-4,0h8M0,-4v8" fill="none" stroke="white" stroke-width="1.5" pointer-events="none"/>
                </g>
                <g id="zoomMin">
                        <use xlink:href="#rim" fill="#404040">
                                <set attributeName="fill" to="#808080" begin="zoomminus.mouseover" end="zoomminus.mouseout"/>
                        </use>
                        <path d="M-4,0h8" fill="none" stroke="white" stroke-width="1.5" pointer-events="none"/>
                </g>
                <g id="dirArrow">
                        <path fill="none" stroke="white" stroke-width="1.5" d="M0,-3.0v7 M-2.5,-0.5L0,-3.0L2.5,-0.5"/>
                </g>
               <g id="resetDef">
                       <use xlink:href="#rim2" fill="#404040">
                               <set attributeName="fill" to="#808080" begin="reset.mouseover" end="reset.mouseout"/>
                       </use>
               </g>
        </defs>

<script type="text/javascript">
var viewWidth = 822;
var viewHeight = 262;
var sectionId = 'dynsection-0';
</script>
<script xlink:href="svgpan.js"/>
<svg id="graph" class="graph">
<g id="viewport">
<title>G</title>
<!-- Node1 -->
<g id="node1" class="node"><title>Node1</title>
<polygon fill="#bfbfbf" stroke="black" points="227,-232.5 227,-253.5 479,-253.5 479,-232.5 227,-232.5"/>
<text text-anchor="middle" x="353" y="-240.5" font-family="FreeSans.ttf" font-size="10.00">utils/corestructs/parametersControlWidgetBase.h</text>
</g>
<!-- Node2 -->
<g id="node3" class="node"><title>Node2</title>
<polygon fill="none" stroke="#bfbfbf" points="0,-174.5 0,-195.5 74,-195.5 74,-174.5 0,-174.5"/>
<text text-anchor="middle" x="37" y="-182.5" font-family="FreeSans.ttf" font-size="10.00">QtGui/QtGui</text>
</g>
<!-- Node1&#45;&gt;Node2 -->
<g id="edge2" class="edge"><title>Node1&#45;&gt;Node2</title>
<path fill="none" stroke="midnightblue" d="M289.965,-232.494C236.197,-223.371 156.887,-209.533 88,-196 86.7251,-195.75 85.433,-195.493 84.1296,-195.231"/>
<polygon fill="midnightblue" stroke="midnightblue" points="84.5141,-191.737 74.0142,-193.151 83.1045,-198.593 84.5141,-191.737"/>
</g>
<!-- Node3 -->
<g id="node5" class="node"><title>Node3</title>
<a xlink:href="global_8h.html" target="_top" xlink:title="This file holds the global includes, mostly for debuging, tracing and profiling.">
<polygon fill="none" stroke="black" points="80,-58.5 80,-79.5 134,-79.5 134,-58.5 80,-58.5"/>
<text text-anchor="middle" x="107" y="-66.5" font-family="FreeSans.ttf" font-size="10.00">global.h</text>
</a>
</g>
<!-- Node1&#45;&gt;Node3 -->
<g id="edge4" class="edge"><title>Node1&#45;&gt;Node3</title>
<path fill="none" stroke="midnightblue" d="M238.641,-232.49C188.569,-225.428 137.46,-214.013 121,-196 94.5664,-167.071 97.9484,-117.59 102.584,-89.6983"/>
<polygon fill="midnightblue" stroke="midnightblue" points="106.091,-89.9835 104.496,-79.5095 99.2114,-88.6921 106.091,-89.9835"/>
</g>
<!-- Node5 -->
<g id="node9" class="node"><title>Node5</title>
<a xlink:href="reflection_8h.html" target="_top" xlink:title="a header for Reflection.c">
<polygon fill="none" stroke="black" points="356,-116.5 356,-137.5 426,-137.5 426,-116.5 356,-116.5"/>
<text text-anchor="middle" x="391" y="-124.5" font-family="FreeSans.ttf" font-size="10.00">reflection.h</text>
</a>
</g>
<!-- Node1&#45;&gt;Node5 -->
<g id="edge8" class="edge"><title>Node1&#45;&gt;Node5</title>
<path fill="none" stroke="midnightblue" d="M385.334,-232.367C402.153,-225.001 421.201,-213.344 431,-196 440.884,-178.504 426.707,-158.67 412.573,-144.772"/>
<polygon fill="midnightblue" stroke="midnightblue" points="414.613,-141.894 404.877,-137.714 409.881,-147.053 414.613,-141.894"/>
</g>
<!-- Node12 -->
<g id="node24" class="node"><title>Node12</title>
<a xlink:href="qSettingsSetter_8h.html" target="_top" xlink:title="visitors/qSettingsSetter.h">
<polygon fill="none" stroke="black" points="129.5,-174.5 129.5,-195.5 266.5,-195.5 266.5,-174.5 129.5,-174.5"/>
<text text-anchor="middle" x="198" y="-182.5" font-family="FreeSans.ttf" font-size="10.00">visitors/qSettingsSetter.h</text>
</a>
</g>
<!-- Node1&#45;&gt;Node12 -->
<g id="edge24" class="edge"><title>Node1&#45;&gt;Node12</title>
<path fill="none" stroke="midnightblue" d="M324.931,-232.497C299.99,-223.164 263.326,-209.445 235.808,-199.147"/>
<polygon fill="midnightblue" stroke="midnightblue" points="236.714,-195.75 226.122,-195.523 234.261,-202.306 236.714,-195.75"/>
</g>
<!-- Node16 -->
<g id="node34" class="node"><title>Node16</title>
<a xlink:href="xmlSetter_8h.html" target="_top" xlink:title="visitors/xmlSetter.h">
<polygon fill="none" stroke="black" points="477.5,-174.5 477.5,-195.5 586.5,-195.5 586.5,-174.5 477.5,-174.5"/>
<text text-anchor="middle" x="532" y="-182.5" font-family="FreeSans.ttf" font-size="10.00">visitors/xmlSetter.h</text>
</a>
</g>
<!-- Node1&#45;&gt;Node16 -->
<g id="edge36" class="edge"><title>Node1&#45;&gt;Node16</title>
<path fill="none" stroke="midnightblue" d="M385.416,-232.497C414.724,-223 458.048,-208.962 490.001,-198.609"/>
<polygon fill="midnightblue" stroke="midnightblue" points="491.089,-201.935 499.524,-195.523 488.932,-195.276 491.089,-201.935"/>
</g>
<!-- Node18 -->
<g id="node40" class="node"><title>Node18</title>
<a xlink:href="qSettingsGetter_8h.html" target="_top" xlink:title="visitors/qSettingsGetter.h">
<polygon fill="none" stroke="black" points="284,-174.5 284,-195.5 422,-195.5 422,-174.5 284,-174.5"/>
<text text-anchor="middle" x="353" y="-182.5" font-family="FreeSans.ttf" font-size="10.00">visitors/qSettingsGetter.h</text>
</a>
</g>
<!-- Node1&#45;&gt;Node18 -->
<g id="edge44" class="edge"><title>Node1&#45;&gt;Node18</title>
<path fill="none" stroke="midnightblue" d="M353,-232.362C353,-224.922 353,-214.743 353,-205.728"/>
<polygon fill="midnightblue" stroke="midnightblue" points="356.5,-205.571 353,-195.571 349.5,-205.571 356.5,-205.571"/>
</g>
<!-- Node20 -->
<g id="node46" class="node"><title>Node20</title>
<a xlink:href="xmlGetter_8h.html" target="_top" xlink:title="visitors/xmlGetter.h">
<polygon fill="none" stroke="black" points="604,-174.5 604,-195.5 714,-195.5 714,-174.5 604,-174.5"/>
<text text-anchor="middle" x="659" y="-182.5" font-family="FreeSans.ttf" font-size="10.00">visitors/xmlGetter.h</text>
</a>
</g>
<!-- Node1&#45;&gt;Node20 -->
<g id="edge52" class="edge"><title>Node1&#45;&gt;Node20</title>
<path fill="none" stroke="midnightblue" d="M408.414,-232.497C460.622,-222.601 538.848,-207.774 593.983,-197.323"/>
<polygon fill="midnightblue" stroke="midnightblue" points="594.825,-200.726 603.998,-195.425 593.521,-193.849 594.825,-200.726"/>
</g>
<!-- Node4 -->
<g id="node7" class="node"><title>Node4</title>
<polygon fill="none" stroke="#bfbfbf" points="75,-0.5 75,-21.5 139,-21.5 139,-0.5 75,-0.5"/>
<text text-anchor="middle" x="107" y="-8.5" font-family="FreeSans.ttf" font-size="10.00">inttypes.h</text>
</g>
<!-- Node3&#45;&gt;Node4 -->
<g id="edge6" class="edge"><title>Node3&#45;&gt;Node4</title>
<path fill="none" stroke="midnightblue" d="M107,-58.3619C107,-50.9219 107,-40.7427 107,-31.7276"/>
<polygon fill="midnightblue" stroke="midnightblue" points="110.5,-31.5706 107,-21.5707 103.5,-31.5707 110.5,-31.5706"/>
</g>
<!-- Node5&#45;&gt;Node3 -->
<g id="edge22" class="edge"><title>Node5&#45;&gt;Node3</title>
<path fill="none" stroke="midnightblue" d="M355.984,-118.025C352.951,-117.315 349.925,-116.63 347,-116 259.132,-97.0901 235.703,-99.6622 148,-80 146.746,-79.7189 145.473,-79.425 144.188,-79.1214"/>
<polygon fill="midnightblue" stroke="midnightblue" points="144.818,-75.6715 134.269,-76.6548 143.129,-82.4646 144.818,-75.6715"/>
</g>
<!-- Node6 -->
<g id="node11" class="node"><title>Node6</title>
<polygon fill="none" stroke="#bfbfbf" points="300.5,-58.5 300.5,-79.5 347.5,-79.5 347.5,-58.5 300.5,-58.5"/>
<text text-anchor="middle" x="324" y="-66.5" font-family="FreeSans.ttf" font-size="10.00">vector</text>
</g>
<!-- Node5&#45;&gt;Node6 -->
<g id="edge10" class="edge"><title>Node5&#45;&gt;Node6</title>
<path fill="none" stroke="midnightblue" d="M378.711,-116.362C368.983,-107.941 355.202,-96.0105 343.905,-86.2308"/>
<polygon fill="midnightblue" stroke="midnightblue" points="346.062,-83.4695 336.211,-79.5707 341.481,-88.7619 346.062,-83.4695"/>
</g>
<!-- Node7 -->
<g id="node13" class="node"><title>Node7</title>
<polygon fill="none" stroke="#bfbfbf" points="501,-58.5 501,-79.5 545,-79.5 545,-58.5 501,-58.5"/>
<text text-anchor="middle" x="523" y="-66.5" font-family="FreeSans.ttf" font-size="10.00">string</text>
</g>
<!-- Node5&#45;&gt;Node7 -->
<g id="edge12" class="edge"><title>Node5&#45;&gt;Node7</title>
<path fill="none" stroke="midnightblue" d="M414.904,-116.497C436.322,-107.086 467.89,-93.2149 491.389,-82.8899"/>
<polygon fill="midnightblue" stroke="midnightblue" points="492.847,-86.0722 500.594,-78.8451 490.031,-79.6635 492.847,-86.0722"/>
</g>
<!-- Node8 -->
<g id="node15" class="node"><title>Node8</title>
<polygon fill="none" stroke="#bfbfbf" points="364.5,-58.5 364.5,-79.5 417.5,-79.5 417.5,-58.5 364.5,-58.5"/>
<text text-anchor="middle" x="391" y="-66.5" font-family="FreeSans.ttf" font-size="10.00">string.h</text>
</g>
<!-- Node5&#45;&gt;Node8 -->
<g id="edge14" class="edge"><title>Node5&#45;&gt;Node8</title>
<path fill="none" stroke="midnightblue" d="M391,-116.362C391,-108.922 391,-98.7427 391,-89.7276"/>
<polygon fill="midnightblue" stroke="midnightblue" points="394.5,-89.5706 391,-79.5707 387.5,-89.5707 394.5,-89.5706"/>
</g>
<!-- Node9 -->
<g id="node17" class="node"><title>Node9</title>
<polygon fill="none" stroke="#bfbfbf" points="434.5,-58.5 434.5,-79.5 483.5,-79.5 483.5,-58.5 434.5,-58.5"/>
<text text-anchor="middle" x="459" y="-66.5" font-family="FreeSans.ttf" font-size="10.00">stdio.h</text>
</g>
<!-- Node5&#45;&gt;Node9 -->
<g id="edge16" class="edge"><title>Node5&#45;&gt;Node9</title>
<path fill="none" stroke="midnightblue" d="M403.472,-116.362C413.345,-107.941 427.333,-96.0105 438.798,-86.2308"/>
<polygon fill="midnightblue" stroke="midnightblue" points="441.27,-88.7231 446.607,-79.5707 436.727,-83.3972 441.27,-88.7231"/>
</g>
<!-- Node10 -->
<g id="node19" class="node"><title>Node10</title>
<polygon fill="none" stroke="#bfbfbf" points="156.5,-58.5 156.5,-79.5 209.5,-79.5 209.5,-58.5 156.5,-58.5"/>
<text text-anchor="middle" x="183" y="-66.5" font-family="FreeSans.ttf" font-size="10.00">stdint.h</text>
</g>
<!-- Node5&#45;&gt;Node10 -->
<g id="edge18" class="edge"><title>Node5&#45;&gt;Node10</title>
<path fill="none" stroke="midnightblue" d="M355.764,-117.861C322.779,-109.209 271.895,-95.6191 219.514,-80.3801"/>
<polygon fill="midnightblue" stroke="midnightblue" points="220.301,-76.9636 209.72,-77.5163 218.336,-83.6822 220.301,-76.9636"/>
</g>
<!-- Node11 -->
<g id="node21" class="node"><title>Node11</title>
<polygon fill="none" stroke="#bfbfbf" points="227,-58.5 227,-79.5 283,-79.5 283,-58.5 227,-58.5"/>
<text text-anchor="middle" x="255" y="-66.5" font-family="FreeSans.ttf" font-size="10.00">stdarg.h</text>
</g>
<!-- Node5&#45;&gt;Node11 -->
<g id="edge20" class="edge"><title>Node5&#45;&gt;Node11</title>
<path fill="none" stroke="midnightblue" d="M366.371,-116.497C344.843,-107.315 313.36,-93.8889 289.355,-83.6516"/>
<polygon fill="midnightblue" stroke="midnightblue" points="290.476,-80.3247 279.905,-79.6212 287.73,-86.7636 290.476,-80.3247"/>
</g>
<!-- Node12&#45;&gt;Node5 -->
<g id="edge34" class="edge"><title>Node12&#45;&gt;Node5</title>
<path fill="none" stroke="midnightblue" d="M232.951,-174.497C264.687,-164.959 311.668,-150.841 346.161,-140.475"/>
<polygon fill="midnightblue" stroke="midnightblue" points="347.414,-143.753 355.984,-137.523 345.399,-137.049 347.414,-143.753"/>
</g>
<!-- Node13 -->
<g id="node26" class="node"><title>Node13</title>
<polygon fill="none" stroke="#bfbfbf" points="147.5,-116.5 147.5,-137.5 248.5,-137.5 248.5,-116.5 147.5,-116.5"/>
<text text-anchor="middle" x="198" y="-124.5" font-family="FreeSans.ttf" font-size="10.00">QtCore/QSettings</text>
</g>
<!-- Node12&#45;&gt;Node13 -->
<g id="edge26" class="edge"><title>Node12&#45;&gt;Node13</title>
<path fill="none" stroke="midnightblue" d="M198,-174.362C198,-166.922 198,-156.743 198,-147.728"/>
<polygon fill="midnightblue" stroke="midnightblue" points="201.5,-147.571 198,-137.571 194.5,-147.571 201.5,-147.571"/>
</g>
<!-- Node14 -->
<g id="node28" class="node"><title>Node14</title>
<a xlink:href="basePathVisitor_8h.html" target="_top" xlink:title="Add Comment Here.">
<polygon fill="none" stroke="black" points="473.5,-116.5 473.5,-137.5 572.5,-137.5 572.5,-116.5 473.5,-116.5"/>
<text text-anchor="middle" x="523" y="-124.5" font-family="FreeSans.ttf" font-size="10.00">basePathVisitor.h</text>
</a>
</g>
<!-- Node12&#45;&gt;Node14 -->
<g id="edge28" class="edge"><title>Node12&#45;&gt;Node14</title>
<path fill="none" stroke="midnightblue" d="M256.855,-174.497C315.388,-164.051 404.713,-148.11 463.478,-137.622"/>
<polygon fill="midnightblue" stroke="midnightblue" points="464.129,-141.062 473.358,-135.859 462.899,-134.171 464.129,-141.062"/>
</g>
<!-- Node14&#45;&gt;Node7 -->
<g id="edge32" class="edge"><title>Node14&#45;&gt;Node7</title>
<path fill="none" stroke="midnightblue" d="M523,-116.362C523,-108.922 523,-98.7427 523,-89.7276"/>
<polygon fill="midnightblue" stroke="midnightblue" points="526.5,-89.5706 523,-79.5707 519.5,-89.5707 526.5,-89.5706"/>
</g>
<!-- Node15 -->
<g id="node30" class="node"><title>Node15</title>
<polygon fill="none" stroke="#bfbfbf" points="562.5,-58.5 562.5,-79.5 609.5,-79.5 609.5,-58.5 562.5,-58.5"/>
<text text-anchor="middle" x="586" y="-66.5" font-family="FreeSans.ttf" font-size="10.00">deque</text>
</g>
<!-- Node14&#45;&gt;Node15 -->
<g id="edge30" class="edge"><title>Node14&#45;&gt;Node15</title>
<path fill="none" stroke="midnightblue" d="M534.555,-116.362C543.613,-108.023 556.41,-96.2418 566.974,-86.5162"/>
<polygon fill="midnightblue" stroke="midnightblue" points="569.532,-88.9187 574.518,-79.5707 564.79,-83.7688 569.532,-88.9187"/>
</g>
<!-- Node16&#45;&gt;Node5 -->
<g id="edge42" class="edge"><title>Node16&#45;&gt;Node5</title>
<path fill="none" stroke="midnightblue" d="M506.466,-174.497C484.047,-165.275 451.215,-151.769 426.287,-141.515"/>
<polygon fill="midnightblue" stroke="midnightblue" points="427.4,-138.189 416.821,-137.621 424.737,-144.662 427.4,-138.189"/>
</g>
<!-- Node16&#45;&gt;Node14 -->
<g id="edge40" class="edge"><title>Node16&#45;&gt;Node14</title>
<path fill="none" stroke="midnightblue" d="M530.349,-174.362C529.195,-166.922 527.615,-156.743 526.216,-147.728"/>
<polygon fill="midnightblue" stroke="midnightblue" points="529.632,-146.916 524.64,-137.571 522.715,-147.989 529.632,-146.916"/>
</g>
<!-- Node17 -->
<g id="node36" class="node"><title>Node17</title>
<polygon fill="none" stroke="#bfbfbf" points="589.5,-116.5 589.5,-137.5 678.5,-137.5 678.5,-116.5 589.5,-116.5"/>
<text text-anchor="middle" x="634" y="-124.5" font-family="FreeSans.ttf" font-size="10.00">QtCore/QString</text>
</g>
<!-- Node16&#45;&gt;Node17 -->
<g id="edge38" class="edge"><title>Node16&#45;&gt;Node17</title>
<path fill="none" stroke="midnightblue" d="M550.708,-174.362C566.381,-165.45 588.964,-152.609 606.663,-142.545"/>
<polygon fill="midnightblue" stroke="midnightblue" points="608.447,-145.556 615.41,-137.571 604.987,-139.471 608.447,-145.556"/>
</g>
<!-- Node18&#45;&gt;Node5 -->
<g id="edge50" class="edge"><title>Node18&#45;&gt;Node5</title>
<path fill="none" stroke="midnightblue" d="M359.97,-174.362C365.166,-166.431 372.401,-155.389 378.578,-145.961"/>
<polygon fill="midnightblue" stroke="midnightblue" points="381.522,-147.853 384.074,-137.571 375.666,-144.017 381.522,-147.853"/>
</g>
<!-- Node18&#45;&gt;Node14 -->
<g id="edge48" class="edge"><title>Node18&#45;&gt;Node14</title>
<path fill="none" stroke="midnightblue" d="M383.786,-174.497C411.38,-165.082 452.058,-151.204 482.325,-140.877"/>
<polygon fill="midnightblue" stroke="midnightblue" points="483.822,-144.065 492.157,-137.523 481.562,-137.44 483.822,-144.065"/>
</g>
<!-- Node19 -->
<g id="node42" class="node"><title>Node19</title>
<polygon fill="none" stroke="#bfbfbf" points="274,-116.5 274,-137.5 338,-137.5 338,-116.5 274,-116.5"/>
<text text-anchor="middle" x="306" y="-124.5" font-family="FreeSans.ttf" font-size="10.00">QSettings</text>
</g>
<!-- Node18&#45;&gt;Node19 -->
<g id="edge46" class="edge"><title>Node18&#45;&gt;Node19</title>
<path fill="none" stroke="midnightblue" d="M344.379,-174.362C337.82,-166.268 328.634,-154.932 320.894,-145.38"/>
<polygon fill="midnightblue" stroke="midnightblue" points="323.581,-143.136 314.566,-137.571 318.142,-147.544 323.581,-143.136"/>
</g>
<!-- Node20&#45;&gt;Node5 -->
<g id="edge58" class="edge"><title>Node20&#45;&gt;Node5</title>
<path fill="none" stroke="midnightblue" d="M610.467,-174.497C560.897,-163.769 484.547,-147.245 436.215,-136.785"/>
<polygon fill="midnightblue" stroke="midnightblue" points="436.861,-133.344 426.346,-134.65 435.38,-140.186 436.861,-133.344"/>
</g>
<!-- Node20&#45;&gt;Node14 -->
<g id="edge60" class="edge"><title>Node20&#45;&gt;Node14</title>
<path fill="none" stroke="midnightblue" d="M634.371,-174.497C612.843,-165.315 581.36,-151.889 557.355,-141.652"/>
<polygon fill="midnightblue" stroke="midnightblue" points="558.476,-138.325 547.905,-137.621 555.73,-144.764 558.476,-138.325"/>
</g>
<!-- Node20&#45;&gt;Node17 -->
<g id="edge54" class="edge"><title>Node20&#45;&gt;Node17</title>
<path fill="none" stroke="midnightblue" d="M654.415,-174.362C651.102,-166.677 646.53,-156.069 642.552,-146.84"/>
<polygon fill="midnightblue" stroke="midnightblue" points="645.729,-145.368 638.556,-137.571 639.301,-148.139 645.729,-145.368"/>
</g>
<!-- Node21 -->
<g id="node49" class="node"><title>Node21</title>
<polygon fill="none" stroke="#bfbfbf" points="695.5,-116.5 695.5,-137.5 814.5,-137.5 814.5,-116.5 695.5,-116.5"/>
<text text-anchor="middle" x="755" y="-124.5" font-family="FreeSans.ttf" font-size="10.00">QtXml/QDomElement</text>
</g>
<!-- Node20&#45;&gt;Node21 -->
<g id="edge56" class="edge"><title>Node20&#45;&gt;Node21</title>
<path fill="none" stroke="midnightblue" d="M676.608,-174.362C691.223,-165.532 712.224,-152.844 728.811,-142.822"/>
<polygon fill="midnightblue" stroke="midnightblue" points="730.754,-145.738 737.504,-137.571 727.135,-139.746 730.754,-145.738"/>
</g>
</g>
</svg>
        <g id="navigator" transform="translate(0 0)" fill="#404254">
                <rect fill="#f2f5e9" fill-opacity="0.5" stroke="#606060" stroke-width=".5" x="0" y="0" width="60" height="60"/>
                <use id="zoomplus" xlink:href="#zoomPlus" x="17" y="9" onmousedown="handleZoom(evt,'in')"/>
                <use id="zoomminus" xlink:href="#zoomMin" x="42" y="9" onmousedown="handleZoom(evt,'out')"/>
                <use id="reset" xlink:href="#resetDef" x="30" y="36" onmousedown="handleReset()"/>
                <g id="arrowUp" xlink:href="#dirArrow" transform="translate(30 24)" onmousedown="handlePan(0,-1)">
                  <use xlink:href="#rim" fill="#404040">
                        <set attributeName="fill" to="#808080" begin="arrowUp.mouseover" end="arrowUp.mouseout"/>
                  </use>
                  <path fill="none" stroke="white" stroke-width="1.5" d="M0,-3.0v7 M-2.5,-0.5L0,-3.0L2.5,-0.5"/>
                </g>
                <g id="arrowRight" xlink:href="#dirArrow" transform="rotate(90) translate(36 -43)" onmousedown="handlePan(1,0)">
                  <use xlink:href="#rim" fill="#404040">
                        <set attributeName="fill" to="#808080" begin="arrowRight.mouseover" end="arrowRight.mouseout"/>
                  </use>
                  <path fill="none" stroke="white" stroke-width="1.5" d="M0,-3.0v7 M-2.5,-0.5L0,-3.0L2.5,-0.5"/>
                </g>
                <g id="arrowDown" xlink:href="#dirArrow" transform="rotate(180) translate(-30 -48)" onmousedown="handlePan(0,1)">
                  <use xlink:href="#rim" fill="#404040">
                        <set attributeName="fill" to="#808080" begin="arrowDown.mouseover" end="arrowDown.mouseout"/>
                  </use>
                  <path fill="none" stroke="white" stroke-width="1.5" d="M0,-3.0v7 M-2.5,-0.5L0,-3.0L2.5,-0.5"/>
                </g>
                <g id="arrowLeft" xlink:href="#dirArrow" transform="rotate(270) translate(-36 17)" onmousedown="handlePan(-1,0)">
                  <use xlink:href="#rim" fill="#404040">
                        <set attributeName="fill" to="#808080" begin="arrowLeft.mouseover" end="arrowLeft.mouseout"/>
                  </use>
                  <path fill="none" stroke="white" stroke-width="1.5" d="M0,-3.0v7 M-2.5,-0.5L0,-3.0L2.5,-0.5"/>
                </g>
        </g>
</svg>
