<?xml version="1.0" encoding="UTF-8" standalone="no"?>
<!DOCTYPE svg PUBLIC "-//W3C//DTD SVG 1.1//EN"
 "http://www.w3.org/Graphics/SVG/1.1/DTD/svg11.dtd">
<!-- Generated by graphviz version 2.26.3 (20100126.1600)
 -->
<!-- Title: G Pages: 1 -->
<svg width="473pt" height="262pt"
 viewBox="0.00 0.00 473.00 262.00" xmlns="http://www.w3.org/2000/svg" xmlns:xlink="http://www.w3.org/1999/xlink">
<g id="graph1" class="graph" transform="scale(1 1) rotate(0) translate(4 258)">
<title>G</title>
<!-- Node1 -->
<g id="node1" class="node"><title>Node1</title>
<polygon fill="#bfbfbf" stroke="black" points="94.5,-232.5 94.5,-253.5 263.5,-253.5 263.5,-232.5 94.5,-232.5"/>
<text text-anchor="middle" x="179" y="-240.5" font-family="FreeSans.ttf" font-size="10.00">core/reflection/printerVisitor.cpp</text>
</g>
<!-- Node2 -->
<g id="node3" class="node"><title>Node2</title>
<a xlink:href="printerVisitor_8h.html" target="_top" xlink:title="printerVisitor.h">
<polygon fill="none" stroke="black" points="136,-174.5 136,-195.5 222,-195.5 222,-174.5 136,-174.5"/>
<text text-anchor="middle" x="179" y="-182.5" font-family="FreeSans.ttf" font-size="10.00">printerVisitor.h</text>
</a>
</g>
<!-- Node1&#45;&gt;Node2 -->
<g id="edge2" class="edge"><title>Node1&#45;&gt;Node2</title>
<path fill="none" stroke="midnightblue" d="M179,-232.362C179,-224.922 179,-214.743 179,-205.728"/>
<polygon fill="midnightblue" stroke="midnightblue" points="182.5,-205.571 179,-195.571 175.5,-205.571 182.5,-205.571"/>
</g>
<!-- Node3 -->
<g id="node5" class="node"><title>Node3</title>
<polygon fill="none" stroke="#bfbfbf" points="108.5,-116.5 108.5,-137.5 167.5,-137.5 167.5,-116.5 108.5,-116.5"/>
<text text-anchor="middle" x="138" y="-124.5" font-family="FreeSans.ttf" font-size="10.00">iostream</text>
</g>
<!-- Node2&#45;&gt;Node3 -->
<g id="edge4" class="edge"><title>Node2&#45;&gt;Node3</title>
<path fill="none" stroke="midnightblue" d="M171.48,-174.362C165.874,-166.431 158.068,-155.389 151.403,-145.961"/>
<polygon fill="midnightblue" stroke="midnightblue" points="154.103,-143.716 145.472,-137.571 148.387,-147.757 154.103,-143.716"/>
</g>
<!-- Node4 -->
<g id="node7" class="node"><title>Node4</title>
<a xlink:href="reflection_8h.html" target="_top" xlink:title="a header for Reflection.c">
<polygon fill="none" stroke="black" points="185,-116.5 185,-137.5 255,-137.5 255,-116.5 185,-116.5"/>
<text text-anchor="middle" x="220" y="-124.5" font-family="FreeSans.ttf" font-size="10.00">reflection.h</text>
</a>
</g>
<!-- Node2&#45;&gt;Node4 -->
<g id="edge6" class="edge"><title>Node2&#45;&gt;Node4</title>
<path fill="none" stroke="midnightblue" d="M186.52,-174.362C192.126,-166.431 199.932,-155.389 206.597,-145.961"/>
<polygon fill="midnightblue" stroke="midnightblue" points="209.613,-147.757 212.528,-137.571 203.897,-143.716 209.613,-147.757"/>
</g>
<!-- Node5 -->
<g id="node9" class="node"><title>Node5</title>
<polygon fill="none" stroke="#bfbfbf" points="-0.5,-58.5 -0.5,-79.5 46.5,-79.5 46.5,-58.5 -0.5,-58.5"/>
<text text-anchor="middle" x="23" y="-66.5" font-family="FreeSans.ttf" font-size="10.00">vector</text>
</g>
<!-- Node4&#45;&gt;Node5 -->
<g id="edge8" class="edge"><title>Node4&#45;&gt;Node5</title>
<path fill="none" stroke="midnightblue" d="M184.753,-117.549C153.264,-108.974 105.674,-95.6975 56.2863,-80.3119"/>
<polygon fill="midnightblue" stroke="midnightblue" points="57.308,-76.9643 46.7189,-77.3116 55.2134,-83.6436 57.308,-76.9643"/>
</g>
<!-- Node6 -->
<g id="node11" class="node"><title>Node6</title>
<polygon fill="none" stroke="#bfbfbf" points="64,-58.5 64,-79.5 108,-79.5 108,-58.5 64,-58.5"/>
<text text-anchor="middle" x="86" y="-66.5" font-family="FreeSans.ttf" font-size="10.00">string</text>
</g>
<!-- Node4&#45;&gt;Node6 -->
<g id="edge10" class="edge"><title>Node4&#45;&gt;Node6</title>
<path fill="none" stroke="midnightblue" d="M195.734,-116.497C173.859,-107.028 141.554,-93.0456 117.655,-82.7014"/>
<polygon fill="midnightblue" stroke="midnightblue" points="118.872,-79.4146 108.305,-78.6543 116.092,-85.8387 118.872,-79.4146"/>
</g>
<!-- Node7 -->
<g id="node13" class="node"><title>Node7</title>
<polygon fill="none" stroke="#bfbfbf" points="125.5,-58.5 125.5,-79.5 178.5,-79.5 178.5,-58.5 125.5,-58.5"/>
<text text-anchor="middle" x="152" y="-66.5" font-family="FreeSans.ttf" font-size="10.00">string.h</text>
</g>
<!-- Node4&#45;&gt;Node7 -->
<g id="edge12" class="edge"><title>Node4&#45;&gt;Node7</title>
<path fill="none" stroke="midnightblue" d="M207.528,-116.362C197.655,-107.941 183.667,-96.0105 172.202,-86.2308"/>
<polygon fill="midnightblue" stroke="midnightblue" points="174.273,-83.3972 164.393,-79.5707 169.73,-88.7231 174.273,-83.3972"/>
</g>
<!-- Node8 -->
<g id="node15" class="node"><title>Node8</title>
<polygon fill="none" stroke="#bfbfbf" points="195.5,-58.5 195.5,-79.5 244.5,-79.5 244.5,-58.5 195.5,-58.5"/>
<text text-anchor="middle" x="220" y="-66.5" font-family="FreeSans.ttf" font-size="10.00">stdio.h</text>
</g>
<!-- Node4&#45;&gt;Node8 -->
<g id="edge14" class="edge"><title>Node4&#45;&gt;Node8</title>
<path fill="none" stroke="midnightblue" d="M220,-116.362C220,-108.922 220,-98.7427 220,-89.7276"/>
<polygon fill="midnightblue" stroke="midnightblue" points="223.5,-89.5706 220,-79.5707 216.5,-89.5707 223.5,-89.5706"/>
</g>
<!-- Node9 -->
<g id="node17" class="node"><title>Node9</title>
<polygon fill="none" stroke="#bfbfbf" points="261.5,-58.5 261.5,-79.5 314.5,-79.5 314.5,-58.5 261.5,-58.5"/>
<text text-anchor="middle" x="288" y="-66.5" font-family="FreeSans.ttf" font-size="10.00">stdint.h</text>
</g>
<!-- Node4&#45;&gt;Node9 -->
<g id="edge16" class="edge"><title>Node4&#45;&gt;Node9</title>
<path fill="none" stroke="midnightblue" d="M232.472,-116.362C242.345,-107.941 256.333,-96.0105 267.798,-86.2308"/>
<polygon fill="midnightblue" stroke="midnightblue" points="270.27,-88.7231 275.607,-79.5707 265.727,-83.3972 270.27,-88.7231"/>
</g>
<!-- Node10 -->
<g id="node19" class="node"><title>Node10</title>
<polygon fill="none" stroke="#bfbfbf" points="332,-58.5 332,-79.5 388,-79.5 388,-58.5 332,-58.5"/>
<text text-anchor="middle" x="360" y="-66.5" font-family="FreeSans.ttf" font-size="10.00">stdarg.h</text>
</g>
<!-- Node4&#45;&gt;Node10 -->
<g id="edge18" class="edge"><title>Node4&#45;&gt;Node10</title>
<path fill="none" stroke="midnightblue" d="M245.353,-116.497C267.613,-107.275 300.212,-93.7695 324.963,-83.5153"/>
<polygon fill="midnightblue" stroke="midnightblue" points="326.464,-86.6822 334.363,-79.6212 323.784,-80.2152 326.464,-86.6822"/>
</g>
<!-- Node11 -->
<g id="node21" class="node"><title>Node11</title>
<a xlink:href="global_8h.html" target="_top" xlink:title="This file holds the global includes, mostly for debuging, tracing and profiling.">
<polygon fill="none" stroke="black" points="406,-58.5 406,-79.5 460,-79.5 460,-58.5 406,-58.5"/>
<text text-anchor="middle" x="433" y="-66.5" font-family="FreeSans.ttf" font-size="10.00">global.h</text>
</a>
</g>
<!-- Node4&#45;&gt;Node11 -->
<g id="edge20" class="edge"><title>Node4&#45;&gt;Node11</title>
<path fill="none" stroke="midnightblue" d="M255.032,-118.105C288.789,-109.444 341.529,-95.678 396.066,-80.2018"/>
<polygon fill="midnightblue" stroke="midnightblue" points="397.248,-83.5043 405.905,-77.3964 395.329,-76.7726 397.248,-83.5043"/>
</g>
<!-- Node12 -->
<g id="node23" class="node"><title>Node12</title>
<polygon fill="none" stroke="#bfbfbf" points="401,-0.5 401,-21.5 465,-21.5 465,-0.5 401,-0.5"/>
<text text-anchor="middle" x="433" y="-8.5" font-family="FreeSans.ttf" font-size="10.00">inttypes.h</text>
</g>
<!-- Node11&#45;&gt;Node12 -->
<g id="edge22" class="edge"><title>Node11&#45;&gt;Node12</title>
<path fill="none" stroke="midnightblue" d="M433,-58.3619C433,-50.9219 433,-40.7427 433,-31.7276"/>
<polygon fill="midnightblue" stroke="midnightblue" points="436.5,-31.5706 433,-21.5707 429.5,-31.5707 436.5,-31.5706"/>
</g>
</g>
</svg>
