<?xml version="1.0" encoding="UTF-8" standalone="no"?>
<!DOCTYPE svg PUBLIC "-//W3C//DTD SVG 1.1//EN"
 "http://www.w3.org/Graphics/SVG/1.1/DTD/svg11.dtd">
<!-- Generated by graphviz version 2.26.3 (20100126.1600)
 -->
<!-- Title: G Pages: 1 -->
<!--zoomable 146 -->
<svg id="main" version="1.1" xmlns="http://www.w3.org/2000/svg" xmlns:xlink="http://www.w3.org/1999/xlink" xml:space="preserve" onload="init(evt)">
        <defs>
                <circle id="rim" cx="0" cy="0" r="7"/>
                <circle id="rim2" cx="0" cy="0" r="3.5"/>
                <g id="zoomPlus">
                        <use xlink:href="#rim" fill="#404040">
                                <set attributeName="fill" to="#808080" begin="zoomplus.mouseover" end="zoomplus.mouseout"/>
                        </use>
                        <path d="M-4,0h8M0,-4v8" fill="none" stroke="white" stroke-width="1.5" pointer-events="none"/>
                </g>
                <g id="zoomMin">
                        <use xlink:href="#rim" fill="#404040">
                                <set attributeName="fill" to="#808080" begin="zoomminus.mouseover" end="zoomminus.mouseout"/>
                        </use>
                        <path d="M-4,0h8" fill="none" stroke="white" stroke-width="1.5" pointer-events="none"/>
                </g>
                <g id="dirArrow">
                        <path fill="none" stroke="white" stroke-width="1.5" d="M0,-3.0v7 M-2.5,-0.5L0,-3.0L2.5,-0.5"/>
                </g>
               <g id="resetDef">
                       <use xlink:href="#rim2" fill="#404040">
                               <set attributeName="fill" to="#808080" begin="reset.mouseover" end="reset.mouseout"/>
                       </use>
               </g>
        </defs>

<script type="text/javascript">
var viewWidth = 601;
var viewHeight = 146;
var sectionId = 'dynsection-0';
</script>
<script xlink:href="svgpan.js"/>
<svg id="graph" class="graph">
<g id="viewport">
<title>G</title>
<!-- Node1 -->
<g id="node1" class="node"><title>Node1</title>
<polygon fill="#bfbfbf" stroke="black" points="220.5,-116.5 220.5,-137.5 349.5,-137.5 349.5,-116.5 220.5,-116.5"/>
<text text-anchor="middle" x="285" y="-124.5" font-family="FreeSans.ttf" font-size="10.00">core/utils/propertyList.h</text>
</g>
<!-- Node2 -->
<g id="node3" class="node"><title>Node2</title>
<polygon fill="none" stroke="#bfbfbf" points="-0.5,-58.5 -0.5,-79.5 46.5,-79.5 46.5,-58.5 -0.5,-58.5"/>
<text text-anchor="middle" x="23" y="-66.5" font-family="FreeSans.ttf" font-size="10.00">vector</text>
</g>
<!-- Node1&#45;&gt;Node2 -->
<g id="edge2" class="edge"><title>Node1&#45;&gt;Node2</title>
<path fill="none" stroke="midnightblue" d="M222.498,-116.49C178.311,-108.542 117.575,-96.5773 56.4673,-80.1841"/>
<polygon fill="midnightblue" stroke="midnightblue" points="57.2274,-76.7637 46.6592,-77.515 55.3892,-83.5181 57.2274,-76.7637"/>
</g>
<!-- Node3 -->
<g id="node5" class="node"><title>Node3</title>
<polygon fill="none" stroke="#bfbfbf" points="64,-58.5 64,-79.5 102,-79.5 102,-58.5 64,-58.5"/>
<text text-anchor="middle" x="83" y="-66.5" font-family="FreeSans.ttf" font-size="10.00">map</text>
</g>
<!-- Node1&#45;&gt;Node3 -->
<g id="edge4" class="edge"><title>Node1&#45;&gt;Node3</title>
<path fill="none" stroke="midnightblue" d="M240.621,-116.452C207.432,-108.241 160.804,-96.0263 111.97,-80.0928"/>
<polygon fill="midnightblue" stroke="midnightblue" points="112.771,-76.6712 102.178,-76.8566 110.574,-83.3177 112.771,-76.6712"/>
</g>
<!-- Node4 -->
<g id="node7" class="node"><title>Node4</title>
<polygon fill="none" stroke="#bfbfbf" points="120,-58.5 120,-79.5 164,-79.5 164,-58.5 120,-58.5"/>
<text text-anchor="middle" x="142" y="-66.5" font-family="FreeSans.ttf" font-size="10.00">string</text>
</g>
<!-- Node1&#45;&gt;Node4 -->
<g id="edge6" class="edge"><title>Node1&#45;&gt;Node4</title>
<path fill="none" stroke="midnightblue" d="M259.104,-116.497C235.124,-106.771 199.399,-92.2807 173.718,-81.8646"/>
<polygon fill="midnightblue" stroke="midnightblue" points="174.995,-78.6056 164.413,-78.0904 172.364,-85.0924 174.995,-78.6056"/>
</g>
<!-- Node5 -->
<g id="node9" class="node"><title>Node5</title>
<polygon fill="none" stroke="#bfbfbf" points="181.5,-58.5 181.5,-79.5 240.5,-79.5 240.5,-58.5 181.5,-58.5"/>
<text text-anchor="middle" x="211" y="-66.5" font-family="FreeSans.ttf" font-size="10.00">iostream</text>
</g>
<!-- Node1&#45;&gt;Node5 -->
<g id="edge8" class="edge"><title>Node1&#45;&gt;Node5</title>
<path fill="none" stroke="midnightblue" d="M271.427,-116.362C260.579,-107.859 245.166,-95.7785 232.621,-85.9466"/>
<polygon fill="midnightblue" stroke="midnightblue" points="234.516,-82.9848 224.487,-79.5707 230.198,-88.4942 234.516,-82.9848"/>
</g>
<!-- Node6 -->
<g id="node11" class="node"><title>Node6</title>
<polygon fill="none" stroke="#bfbfbf" points="258,-58.5 258,-79.5 312,-79.5 312,-58.5 258,-58.5"/>
<text text-anchor="middle" x="285" y="-66.5" font-family="FreeSans.ttf" font-size="10.00">fstream</text>
</g>
<!-- Node1&#45;&gt;Node6 -->
<g id="edge10" class="edge"><title>Node1&#45;&gt;Node6</title>
<path fill="none" stroke="midnightblue" d="M285,-116.362C285,-108.922 285,-98.7427 285,-89.7276"/>
<polygon fill="midnightblue" stroke="midnightblue" points="288.5,-89.5706 285,-79.5707 281.5,-89.5707 288.5,-89.5706"/>
</g>
<!-- Node7 -->
<g id="node13" class="node"><title>Node7</title>
<polygon fill="none" stroke="#bfbfbf" points="330,-58.5 330,-79.5 386,-79.5 386,-58.5 330,-58.5"/>
<text text-anchor="middle" x="358" y="-66.5" font-family="FreeSans.ttf" font-size="10.00">sstream</text>
</g>
<!-- Node1&#45;&gt;Node7 -->
<g id="edge12" class="edge"><title>Node1&#45;&gt;Node7</title>
<path fill="none" stroke="midnightblue" d="M298.389,-116.362C309.091,-107.859 324.296,-95.7785 336.671,-85.9466"/>
<polygon fill="midnightblue" stroke="midnightblue" points="339.043,-88.5318 344.696,-79.5707 334.689,-83.0511 339.043,-88.5318"/>
</g>
<!-- Node8 -->
<g id="node15" class="node"><title>Node8</title>
<polygon fill="none" stroke="#bfbfbf" points="403.5,-58.5 403.5,-79.5 456.5,-79.5 456.5,-58.5 403.5,-58.5"/>
<text text-anchor="middle" x="430" y="-66.5" font-family="FreeSans.ttf" font-size="10.00">string.h</text>
</g>
<!-- Node1&#45;&gt;Node8 -->
<g id="edge14" class="edge"><title>Node1&#45;&gt;Node8</title>
<path fill="none" stroke="midnightblue" d="M311.258,-116.497C334.416,-107.234 368.375,-93.6499 394.052,-83.3793"/>
<polygon fill="midnightblue" stroke="midnightblue" points="395.462,-86.5849 403.447,-79.6212 392.862,-80.0855 395.462,-86.5849"/>
</g>
<!-- Node9 -->
<g id="node17" class="node"><title>Node9</title>
<polygon fill="none" stroke="#bfbfbf" points="474,-58.5 474,-79.5 516,-79.5 516,-58.5 474,-58.5"/>
<text text-anchor="middle" x="495" y="-66.5" font-family="FreeSans.ttf" font-size="10.00">limits</text>
</g>
<!-- Node1&#45;&gt;Node9 -->
<g id="edge16" class="edge"><title>Node1&#45;&gt;Node9</title>
<path fill="none" stroke="midnightblue" d="M330.093,-116.499C364.491,-108.203 413.199,-95.8441 463.947,-80.1434"/>
<polygon fill="midnightblue" stroke="midnightblue" points="465.283,-83.3929 473.781,-77.0663 463.192,-76.7124 465.283,-83.3929"/>
</g>
<!-- Node10 -->
<g id="node19" class="node"><title>Node10</title>
<a xlink:href="global_8h.html" target="_top" xlink:title="This file holds the global includes, mostly for debuging, tracing and profiling.">
<polygon fill="none" stroke="black" points="534,-58.5 534,-79.5 588,-79.5 588,-58.5 534,-58.5"/>
<text text-anchor="middle" x="561" y="-66.5" font-family="FreeSans.ttf" font-size="10.00">global.h</text>
</a>
</g>
<!-- Node1&#45;&gt;Node10 -->
<g id="edge18" class="edge"><title>Node1&#45;&gt;Node10</title>
<path fill="none" stroke="midnightblue" d="M348.052,-116.487C394.312,-108.353 458.81,-96.1436 523.926,-80.0926"/>
<polygon fill="midnightblue" stroke="midnightblue" points="525.101,-83.4068 533.957,-77.5903 523.407,-76.6149 525.101,-83.4068"/>
</g>
<!-- Node11 -->
<g id="node21" class="node"><title>Node11</title>
<polygon fill="none" stroke="#bfbfbf" points="529,-0.5 529,-21.5 593,-21.5 593,-0.5 529,-0.5"/>
<text text-anchor="middle" x="561" y="-8.5" font-family="FreeSans.ttf" font-size="10.00">inttypes.h</text>
</g>
<!-- Node10&#45;&gt;Node11 -->
<g id="edge20" class="edge"><title>Node10&#45;&gt;Node11</title>
<path fill="none" stroke="midnightblue" d="M561,-58.3619C561,-50.9219 561,-40.7427 561,-31.7276"/>
<polygon fill="midnightblue" stroke="midnightblue" points="564.5,-31.5706 561,-21.5707 557.5,-31.5707 564.5,-31.5706"/>
</g>
</g>
</svg>
        <g id="navigator" transform="translate(0 0)" fill="#404254">
                <rect fill="#f2f5e9" fill-opacity="0.5" stroke="#606060" stroke-width=".5" x="0" y="0" width="60" height="60"/>
                <use id="zoomplus" xlink:href="#zoomPlus" x="17" y="9" onmousedown="handleZoom(evt,'in')"/>
                <use id="zoomminus" xlink:href="#zoomMin" x="42" y="9" onmousedown="handleZoom(evt,'out')"/>
                <use id="reset" xlink:href="#resetDef" x="30" y="36" onmousedown="handleReset()"/>
                <g id="arrowUp" xlink:href="#dirArrow" transform="translate(30 24)" onmousedown="handlePan(0,-1)">
                  <use xlink:href="#rim" fill="#404040">
                        <set attributeName="fill" to="#808080" begin="arrowUp.mouseover" end="arrowUp.mouseout"/>
                  </use>
                  <path fill="none" stroke="white" stroke-width="1.5" d="M0,-3.0v7 M-2.5,-0.5L0,-3.0L2.5,-0.5"/>
                </g>
                <g id="arrowRight" xlink:href="#dirArrow" transform="rotate(90) translate(36 -43)" onmousedown="handlePan(1,0)">
                  <use xlink:href="#rim" fill="#404040">
                        <set attributeName="fill" to="#808080" begin="arrowRight.mouseover" end="arrowRight.mouseout"/>
                  </use>
                  <path fill="none" stroke="white" stroke-width="1.5" d="M0,-3.0v7 M-2.5,-0.5L0,-3.0L2.5,-0.5"/>
                </g>
                <g id="arrowDown" xlink:href="#dirArrow" transform="rotate(180) translate(-30 -48)" onmousedown="handlePan(0,1)">
                  <use xlink:href="#rim" fill="#404040">
                        <set attributeName="fill" to="#808080" begin="arrowDown.mouseover" end="arrowDown.mouseout"/>
                  </use>
                  <path fill="none" stroke="white" stroke-width="1.5" d="M0,-3.0v7 M-2.5,-0.5L0,-3.0L2.5,-0.5"/>
                </g>
                <g id="arrowLeft" xlink:href="#dirArrow" transform="rotate(270) translate(-36 17)" onmousedown="handlePan(-1,0)">
                  <use xlink:href="#rim" fill="#404040">
                        <set attributeName="fill" to="#808080" begin="arrowLeft.mouseover" end="arrowLeft.mouseout"/>
                  </use>
                  <path fill="none" stroke="white" stroke-width="1.5" d="M0,-3.0v7 M-2.5,-0.5L0,-3.0L2.5,-0.5"/>
                </g>
        </g>
</svg>
