<?xml version="1.0" encoding="UTF-8" standalone="no"?>
<!DOCTYPE svg PUBLIC "-//W3C//DTD SVG 1.1//EN"
 "http://www.w3.org/Graphics/SVG/1.1/DTD/svg11.dtd">
<!-- Generated by graphviz version 2.26.3 (20100126.1600)
 -->
<!-- Title: G Pages: 1 -->
<svg width="430pt" height="88pt"
 viewBox="0.00 0.00 430.00 88.00" xmlns="http://www.w3.org/2000/svg" xmlns:xlink="http://www.w3.org/1999/xlink">
<g id="graph1" class="graph" transform="scale(1 1) rotate(0) translate(4 84)">
<title>G</title>
<!-- Node1 -->
<g id="node1" class="node"><title>Node1</title>
<polygon fill="#bfbfbf" stroke="black" points="115.5,-58.5 115.5,-79.5 310.5,-79.5 310.5,-58.5 115.5,-58.5"/>
<text text-anchor="middle" x="213" y="-66.5" font-family="FreeSans.ttf" font-size="10.00">core/utils/visitors/propertyListVisitor.h</text>
</g>
<!-- Node2 -->
<g id="node3" class="node"><title>Node2</title>
<a xlink:href="propertyListVisitor_8cpp.html" target="_top" xlink:title="Add Comment Here.">
<polygon fill="none" stroke="black" points="0,-0.5 0,-21.5 206,-21.5 206,-0.5 0,-0.5"/>
<text text-anchor="middle" x="103" y="-8.5" font-family="FreeSans.ttf" font-size="10.00">core/utils/visitors/propertyListVisitor.cpp</text>
</a>
</g>
<!-- Node1&#45;&gt;Node2 -->
<g id="edge2" class="edge"><title>Node1&#45;&gt;Node2</title>
<path fill="none" stroke="midnightblue" d="M184.161,-53.794C164.969,-43.6746 140.236,-30.6338 123.144,-21.6212"/>
<polygon fill="midnightblue" stroke="midnightblue" points="182.602,-56.9285 193.08,-58.4966 185.867,-50.7365 182.602,-56.9285"/>
</g>
<!-- Node3 -->
<g id="node5" class="node"><title>Node3</title>
<a xlink:href="baseHostDialog_8cpp.html" target="_top" xlink:title="Implements a basic host dialog that uses BaseCalculationThread to process captured data Extend or rei...">
<polygon fill="none" stroke="black" points="223.5,-0.5 223.5,-21.5 422.5,-21.5 422.5,-0.5 223.5,-0.5"/>
<text text-anchor="middle" x="323" y="-8.5" font-family="FreeSans.ttf" font-size="10.00">applications/base/baseHostDialog.cpp</text>
</a>
</g>
<!-- Node1&#45;&gt;Node3 -->
<g id="edge4" class="edge"><title>Node1&#45;&gt;Node3</title>
<path fill="none" stroke="midnightblue" d="M241.839,-53.794C261.031,-43.6746 285.764,-30.6338 302.856,-21.6212"/>
<polygon fill="midnightblue" stroke="midnightblue" points="240.133,-50.7365 232.92,-58.4966 243.398,-56.9285 240.133,-50.7365"/>
</g>
</g>
</svg>
