<?xml version="1.0" encoding="UTF-8" standalone="no"?>
<!DOCTYPE svg PUBLIC "-//W3C//DTD SVG 1.1//EN"
 "http://www.w3.org/Graphics/SVG/1.1/DTD/svg11.dtd">
<!-- Generated by graphviz version 2.26.3 (20100126.1600)
 -->
<!-- Title: G Pages: 1 -->
<!--zoomable 262 -->
<svg id="main" version="1.1" xmlns="http://www.w3.org/2000/svg" xmlns:xlink="http://www.w3.org/1999/xlink" xml:space="preserve" onload="init(evt)">
        <defs>
                <circle id="rim" cx="0" cy="0" r="7"/>
                <circle id="rim2" cx="0" cy="0" r="3.5"/>
                <g id="zoomPlus">
                        <use xlink:href="#rim" fill="#404040">
                                <set attributeName="fill" to="#808080" begin="zoomplus.mouseover" end="zoomplus.mouseout"/>
                        </use>
                        <path d="M-4,0h8M0,-4v8" fill="none" stroke="white" stroke-width="1.5" pointer-events="none"/>
                </g>
                <g id="zoomMin">
                        <use xlink:href="#rim" fill="#404040">
                                <set attributeName="fill" to="#808080" begin="zoomminus.mouseover" end="zoomminus.mouseout"/>
                        </use>
                        <path d="M-4,0h8" fill="none" stroke="white" stroke-width="1.5" pointer-events="none"/>
                </g>
                <g id="dirArrow">
                        <path fill="none" stroke="white" stroke-width="1.5" d="M0,-3.0v7 M-2.5,-0.5L0,-3.0L2.5,-0.5"/>
                </g>
               <g id="resetDef">
                       <use xlink:href="#rim2" fill="#404040">
                               <set attributeName="fill" to="#808080" begin="reset.mouseover" end="reset.mouseout"/>
                       </use>
               </g>
        </defs>

<script type="text/javascript">
var viewWidth = 979;
var viewHeight = 262;
var sectionId = 'dynsection-1';
</script>
<script xlink:href="svgpan.js"/>
<svg id="graph" class="graph">
<g id="viewport">
<title>G</title>
<!-- Node1 -->
<g id="node1" class="node"><title>Node1</title>
<polygon fill="#bfbfbf" stroke="black" points="199.5,-232.5 199.5,-253.5 288.5,-253.5 288.5,-232.5 199.5,-232.5"/>
<text text-anchor="middle" x="244" y="-240.5" font-family="FreeSans.ttf" font-size="10.00">utils/qtHelper.h</text>
</g>
<!-- Node2 -->
<g id="node3" class="node"><title>Node2</title>
<a xlink:href="qtHelper_8cpp.html" target="_top" xlink:title="utils/qtHelper.cpp">
<polygon fill="none" stroke="black" points="7,-174.5 7,-195.5 107,-195.5 107,-174.5 7,-174.5"/>
<text text-anchor="middle" x="57" y="-182.5" font-family="FreeSans.ttf" font-size="10.00">utils/qtHelper.cpp</text>
</a>
</g>
<!-- Node1&#45;&gt;Node2 -->
<g id="edge2" class="edge"><title>Node1&#45;&gt;Node2</title>
<path fill="none" stroke="midnightblue" d="M200.193,-229.413C166.829,-219.065 121.566,-205.026 90.9278,-195.523"/>
<polygon fill="midnightblue" stroke="midnightblue" points="199.548,-232.877 210.136,-232.497 201.621,-226.191 199.548,-232.877"/>
</g>
<!-- Node3 -->
<g id="node5" class="node"><title>Node3</title>
<a xlink:href="rectifyParametersControlWidget_8h.html" target="_top" xlink:title="utils/rectifier/rectifyParametersControlWidget.h">
<polygon fill="none" stroke="black" points="124.5,-174.5 124.5,-195.5 363.5,-195.5 363.5,-174.5 124.5,-174.5"/>
<text text-anchor="middle" x="244" y="-182.5" font-family="FreeSans.ttf" font-size="10.00">utils/rectifier/rectifyParametersControlWidget.h</text>
</a>
</g>
<!-- Node1&#45;&gt;Node3 -->
<g id="edge4" class="edge"><title>Node1&#45;&gt;Node3</title>
<path fill="none" stroke="midnightblue" d="M244,-222.191C244,-213.168 244,-202.994 244,-195.571"/>
<polygon fill="midnightblue" stroke="midnightblue" points="240.5,-222.362 244,-232.362 247.5,-222.362 240.5,-222.362"/>
</g>
<!-- Node13 -->
<g id="node27" class="node"><title>Node13</title>
<a xlink:href="angleEditBox_8cpp.html" target="_top" xlink:title="utils/widgets/angleEditBox.cpp">
<polygon fill="none" stroke="black" points="380.5,-174.5 380.5,-195.5 541.5,-195.5 541.5,-174.5 380.5,-174.5"/>
<text text-anchor="middle" x="461" y="-182.5" font-family="FreeSans.ttf" font-size="10.00">utils/widgets/angleEditBox.cpp</text>
</a>
</g>
<!-- Node1&#45;&gt;Node13 -->
<g id="edge28" class="edge"><title>Node1&#45;&gt;Node13</title>
<path fill="none" stroke="midnightblue" d="M293.34,-229.812C332.19,-219.428 385.616,-205.149 421.629,-195.523"/>
<polygon fill="midnightblue" stroke="midnightblue" points="292.054,-226.533 283.297,-232.497 293.862,-233.296 292.054,-226.533"/>
</g>
<!-- Node4 -->
<g id="node7" class="node"><title>Node4</title>
<a xlink:href="rectifyParametersControlWidget_8cpp.html" target="_top" xlink:title="utils/rectifier/rectifyParametersControlWidget.cpp">
<polygon fill="none" stroke="black" points="0,-116.5 0,-137.5 250,-137.5 250,-116.5 0,-116.5"/>
<text text-anchor="middle" x="125" y="-124.5" font-family="FreeSans.ttf" font-size="10.00">utils/rectifier/rectifyParametersControlWidget.cpp</text>
</a>
</g>
<!-- Node3&#45;&gt;Node4 -->
<g id="edge6" class="edge"><title>Node3&#45;&gt;Node4</title>
<path fill="none" stroke="midnightblue" d="M213.366,-170.069C192.526,-159.912 165.451,-146.716 146.792,-137.621"/>
<polygon fill="midnightblue" stroke="midnightblue" points="211.927,-173.262 222.45,-174.497 214.994,-166.969 211.927,-173.262"/>
</g>
<!-- Node5 -->
<g id="node9" class="node"><title>Node5</title>
<a xlink:href="baseHostDialog_8h.html" target="_top" xlink:title="applications/base/baseHostDialog.h">
<polygon fill="none" stroke="black" points="268,-116.5 268,-137.5 456,-137.5 456,-116.5 268,-116.5"/>
<text text-anchor="middle" x="362" y="-124.5" font-family="FreeSans.ttf" font-size="10.00">applications/base/baseHostDialog.h</text>
</a>
</g>
<!-- Node3&#45;&gt;Node5 -->
<g id="edge8" class="edge"><title>Node3&#45;&gt;Node5</title>
<path fill="none" stroke="midnightblue" d="M274.376,-170.069C295.041,-159.912 321.889,-146.716 340.391,-137.621"/>
<polygon fill="midnightblue" stroke="midnightblue" points="272.799,-166.944 265.369,-174.497 275.887,-173.226 272.799,-166.944"/>
</g>
<!-- Node6 -->
<g id="node11" class="node"><title>Node6</title>
<a xlink:href="baseHostDialog_8cpp.html" target="_top" xlink:title="Implements a basic host dialog that uses BaseCalculationThread to process captured data Extend or rei...">
<polygon fill="none" stroke="black" points="78.5,-58.5 78.5,-79.5 277.5,-79.5 277.5,-58.5 78.5,-58.5"/>
<text text-anchor="middle" x="178" y="-66.5" font-family="FreeSans.ttf" font-size="10.00">applications/base/baseHostDialog.cpp</text>
</a>
</g>
<!-- Node5&#45;&gt;Node6 -->
<g id="edge10" class="edge"><title>Node5&#45;&gt;Node6</title>
<path fill="none" stroke="midnightblue" d="M318.896,-113.413C286.067,-103.065 241.53,-89.0258 211.384,-79.5231"/>
<polygon fill="midnightblue" stroke="midnightblue" points="318.089,-116.828 328.679,-116.497 320.194,-110.152 318.089,-116.828"/>
</g>
<!-- Node7 -->
<g id="node13" class="node"><title>Node7</title>
<a xlink:href="main__vibase_8cpp.html" target="_top" xlink:title="applications/base/main_vibase.cpp">
<polygon fill="none" stroke="black" points="126.5,-0.5 126.5,-21.5 309.5,-21.5 309.5,-0.5 126.5,-0.5"/>
<text text-anchor="middle" x="218" y="-8.5" font-family="FreeSans.ttf" font-size="10.00">applications/base/main_vibase.cpp</text>
</a>
</g>
<!-- Node5&#45;&gt;Node7 -->
<g id="edge12" class="edge"><title>Node5&#45;&gt;Node7</title>
<path fill="none" stroke="midnightblue" d="M343.759,-109.176C328.728,-94.803 306.61,-74.3607 286,-58 269.14,-44.616 248.692,-30.7802 234.649,-21.6171"/>
<polygon fill="midnightblue" stroke="midnightblue" points="341.697,-112.05 351.325,-116.472 346.556,-107.011 341.697,-112.05"/>
</g>
<!-- Node8 -->
<g id="node15" class="node"><title>Node8</title>
<a xlink:href="mainWindow_8h.html" target="_top" xlink:title="applications/base/mainWindow.h">
<polygon fill="none" stroke="black" points="333,-58.5 333,-79.5 503,-79.5 503,-58.5 333,-58.5"/>
<text text-anchor="middle" x="418" y="-66.5" font-family="FreeSans.ttf" font-size="10.00">applications/base/mainWindow.h</text>
</a>
</g>
<!-- Node5&#45;&gt;Node8 -->
<g id="edge14" class="edge"><title>Node5&#45;&gt;Node8</title>
<path fill="none" stroke="midnightblue" d="M379.265,-109.118C388.612,-99.4377 399.839,-87.8098 407.794,-79.5707"/>
<polygon fill="midnightblue" stroke="midnightblue" points="376.699,-106.737 372.271,-116.362 381.735,-111.599 376.699,-106.737"/>
</g>
<!-- Node11 -->
<g id="node22" class="node"><title>Node11</title>
<a xlink:href="recorderDialog_8h.html" target="_top" xlink:title="Defines a recorder dialog class derived from BaseHostDialog.">
<polygon fill="none" stroke="black" points="535,-58.5 535,-79.5 735,-79.5 735,-58.5 535,-58.5"/>
<text text-anchor="middle" x="635" y="-66.5" font-family="FreeSans.ttf" font-size="10.00">applications/recorder/recorderDialog.h</text>
</a>
</g>
<!-- Node5&#45;&gt;Node11 -->
<g id="edge22" class="edge"><title>Node5&#45;&gt;Node11</title>
<path fill="none" stroke="midnightblue" d="M421.286,-114.404C470.367,-103.977 539.294,-89.333 585.469,-79.5231"/>
<polygon fill="midnightblue" stroke="midnightblue" points="420.493,-110.995 411.438,-116.497 421.947,-117.842 420.493,-110.995"/>
</g>
<!-- Node8&#45;&gt;Node7 -->
<g id="edge16" class="edge"><title>Node8&#45;&gt;Node7</title>
<path fill="none" stroke="midnightblue" d="M372.067,-55.6795C336.3,-45.307 287.337,-31.1078 254.286,-21.5231"/>
<polygon fill="midnightblue" stroke="midnightblue" points="371.202,-59.0728 381.782,-58.4966 373.152,-52.3498 371.202,-59.0728"/>
</g>
<!-- Node9 -->
<g id="node18" class="node"><title>Node9</title>
<a xlink:href="mainWindow_8cpp.html" target="_top" xlink:title="applications/base/mainWindow.cpp">
<polygon fill="none" stroke="black" points="327,-0.5 327,-21.5 509,-21.5 509,-0.5 327,-0.5"/>
<text text-anchor="middle" x="418" y="-8.5" font-family="FreeSans.ttf" font-size="10.00">applications/base/mainWindow.cpp</text>
</a>
</g>
<!-- Node8&#45;&gt;Node9 -->
<g id="edge18" class="edge"><title>Node8&#45;&gt;Node9</title>
<path fill="none" stroke="midnightblue" d="M418,-48.1906C418,-39.1684 418,-28.9941 418,-21.5707"/>
<polygon fill="midnightblue" stroke="midnightblue" points="414.5,-48.3619 418,-58.3619 421.5,-48.3619 414.5,-48.3619"/>
</g>
<!-- Node10 -->
<g id="node20" class="node"><title>Node10</title>
<a xlink:href="main__virecorder_8cpp.html" target="_top" xlink:title="applications/recorder/main_virecorder.cpp">
<polygon fill="none" stroke="black" points="526.5,-0.5 526.5,-21.5 743.5,-21.5 743.5,-0.5 526.5,-0.5"/>
<text text-anchor="middle" x="635" y="-8.5" font-family="FreeSans.ttf" font-size="10.00">applications/recorder/main_virecorder.cpp</text>
</a>
</g>
<!-- Node8&#45;&gt;Node10 -->
<g id="edge20" class="edge"><title>Node8&#45;&gt;Node10</title>
<path fill="none" stroke="midnightblue" d="M467.34,-55.8123C506.19,-45.4285 559.616,-31.1487 595.629,-21.5231"/>
<polygon fill="midnightblue" stroke="midnightblue" points="466.054,-52.5331 457.297,-58.4966 467.862,-59.2957 466.054,-52.5331"/>
</g>
<!-- Node11&#45;&gt;Node10 -->
<g id="edge24" class="edge"><title>Node11&#45;&gt;Node10</title>
<path fill="none" stroke="midnightblue" d="M635,-48.1906C635,-39.1684 635,-28.9941 635,-21.5707"/>
<polygon fill="midnightblue" stroke="midnightblue" points="631.5,-48.3619 635,-58.3619 638.5,-48.3619 631.5,-48.3619"/>
</g>
<!-- Node12 -->
<g id="node25" class="node"><title>Node12</title>
<a xlink:href="recorderDialog_8cpp.html" target="_top" xlink:title="Implements frame recording dialog based on BaseHostDialog.">
<polygon fill="none" stroke="black" points="760.5,-0.5 760.5,-21.5 971.5,-21.5 971.5,-0.5 760.5,-0.5"/>
<text text-anchor="middle" x="866" y="-8.5" font-family="FreeSans.ttf" font-size="10.00">applications/recorder/recorderDialog.cpp</text>
</a>
</g>
<!-- Node11&#45;&gt;Node12 -->
<g id="edge26" class="edge"><title>Node11&#45;&gt;Node12</title>
<path fill="none" stroke="midnightblue" d="M686.733,-56.0107C728.153,-45.6109 785.508,-31.2102 824.089,-21.5231"/>
<polygon fill="midnightblue" stroke="midnightblue" points="685.679,-52.6667 676.832,-58.4966 687.384,-59.456 685.679,-52.6667"/>
</g>
</g>
</svg>
        <g id="navigator" transform="translate(0 0)" fill="#404254">
                <rect fill="#f2f5e9" fill-opacity="0.5" stroke="#606060" stroke-width=".5" x="0" y="0" width="60" height="60"/>
                <use id="zoomplus" xlink:href="#zoomPlus" x="17" y="9" onmousedown="handleZoom(evt,'in')"/>
                <use id="zoomminus" xlink:href="#zoomMin" x="42" y="9" onmousedown="handleZoom(evt,'out')"/>
                <use id="reset" xlink:href="#resetDef" x="30" y="36" onmousedown="handleReset()"/>
                <g id="arrowUp" xlink:href="#dirArrow" transform="translate(30 24)" onmousedown="handlePan(0,-1)">
                  <use xlink:href="#rim" fill="#404040">
                        <set attributeName="fill" to="#808080" begin="arrowUp.mouseover" end="arrowUp.mouseout"/>
                  </use>
                  <path fill="none" stroke="white" stroke-width="1.5" d="M0,-3.0v7 M-2.5,-0.5L0,-3.0L2.5,-0.5"/>
                </g>
                <g id="arrowRight" xlink:href="#dirArrow" transform="rotate(90) translate(36 -43)" onmousedown="handlePan(1,0)">
                  <use xlink:href="#rim" fill="#404040">
                        <set attributeName="fill" to="#808080" begin="arrowRight.mouseover" end="arrowRight.mouseout"/>
                  </use>
                  <path fill="none" stroke="white" stroke-width="1.5" d="M0,-3.0v7 M-2.5,-0.5L0,-3.0L2.5,-0.5"/>
                </g>
                <g id="arrowDown" xlink:href="#dirArrow" transform="rotate(180) translate(-30 -48)" onmousedown="handlePan(0,1)">
                  <use xlink:href="#rim" fill="#404040">
                        <set attributeName="fill" to="#808080" begin="arrowDown.mouseover" end="arrowDown.mouseout"/>
                  </use>
                  <path fill="none" stroke="white" stroke-width="1.5" d="M0,-3.0v7 M-2.5,-0.5L0,-3.0L2.5,-0.5"/>
                </g>
                <g id="arrowLeft" xlink:href="#dirArrow" transform="rotate(270) translate(-36 17)" onmousedown="handlePan(-1,0)">
                  <use xlink:href="#rim" fill="#404040">
                        <set attributeName="fill" to="#808080" begin="arrowLeft.mouseover" end="arrowLeft.mouseout"/>
                  </use>
                  <path fill="none" stroke="white" stroke-width="1.5" d="M0,-3.0v7 M-2.5,-0.5L0,-3.0L2.5,-0.5"/>
                </g>
        </g>
</svg>
