<?xml version="1.0" encoding="UTF-8" standalone="no"?>
<!DOCTYPE svg PUBLIC "-//W3C//DTD SVG 1.1//EN"
 "http://www.w3.org/Graphics/SVG/1.1/DTD/svg11.dtd">
<!-- Generated by graphviz version 2.26.3 (20100126.1600)
 -->
<!-- Title: G Pages: 1 -->
<!--zoomable 146 -->
<svg id="main" version="1.1" xmlns="http://www.w3.org/2000/svg" xmlns:xlink="http://www.w3.org/1999/xlink" xml:space="preserve" onload="init(evt)">
        <defs>
                <circle id="rim" cx="0" cy="0" r="7"/>
                <circle id="rim2" cx="0" cy="0" r="3.5"/>
                <g id="zoomPlus">
                        <use xlink:href="#rim" fill="#404040">
                                <set attributeName="fill" to="#808080" begin="zoomplus.mouseover" end="zoomplus.mouseout"/>
                        </use>
                        <path d="M-4,0h8M0,-4v8" fill="none" stroke="white" stroke-width="1.5" pointer-events="none"/>
                </g>
                <g id="zoomMin">
                        <use xlink:href="#rim" fill="#404040">
                                <set attributeName="fill" to="#808080" begin="zoomminus.mouseover" end="zoomminus.mouseout"/>
                        </use>
                        <path d="M-4,0h8" fill="none" stroke="white" stroke-width="1.5" pointer-events="none"/>
                </g>
                <g id="dirArrow">
                        <path fill="none" stroke="white" stroke-width="1.5" d="M0,-3.0v7 M-2.5,-0.5L0,-3.0L2.5,-0.5"/>
                </g>
               <g id="resetDef">
                       <use xlink:href="#rim2" fill="#404040">
                               <set attributeName="fill" to="#808080" begin="reset.mouseover" end="reset.mouseout"/>
                       </use>
               </g>
        </defs>

<script type="text/javascript">
var viewWidth = 1016;
var viewHeight = 146;
var sectionId = 'dynsection-1';
</script>
<script xlink:href="svgpan.js"/>
<svg id="graph" class="graph">
<g id="viewport">
<title>G</title>
<!-- Node1 -->
<g id="node1" class="node"><title>Node1</title>
<polygon fill="#bfbfbf" stroke="black" points="403.5,-116.5 403.5,-137.5 552.5,-137.5 552.5,-116.5 403.5,-116.5"/>
<text text-anchor="middle" x="478" y="-124.5" font-family="FreeSans.ttf" font-size="10.00">core/alignment/radialFunc.h</text>
</g>
<!-- Node2 -->
<g id="node3" class="node"><title>Node2</title>
<a xlink:href="angleFunction_8cpp.html" target="_top" xlink:title="core/alignment/angleFunction.cpp">
<polygon fill="none" stroke="black" points="0,-58.5 0,-79.5 178,-79.5 178,-58.5 0,-58.5"/>
<text text-anchor="middle" x="89" y="-66.5" font-family="FreeSans.ttf" font-size="10.00">core/alignment/angleFunction.cpp</text>
</a>
</g>
<!-- Node1&#45;&gt;Node2 -->
<g id="edge2" class="edge"><title>Node1&#45;&gt;Node2</title>
<path fill="none" stroke="midnightblue" d="M397.435,-114.988C327.29,-104.529 226.608,-89.5174 159.577,-79.5231"/>
<polygon fill="midnightblue" stroke="midnightblue" points="397.148,-118.484 407.555,-116.497 398.181,-111.56 397.148,-118.484"/>
</g>
<!-- Node3 -->
<g id="node5" class="node"><title>Node3</title>
<a xlink:href="anglePointsFunction_8h.html" target="_top" xlink:title="core/alignment/anglePointsFunction.h">
<polygon fill="none" stroke="black" points="196,-58.5 196,-79.5 392,-79.5 392,-58.5 196,-58.5"/>
<text text-anchor="middle" x="294" y="-66.5" font-family="FreeSans.ttf" font-size="10.00">core/alignment/anglePointsFunction.h</text>
</a>
</g>
<!-- Node1&#45;&gt;Node3 -->
<g id="edge4" class="edge"><title>Node1&#45;&gt;Node3</title>
<path fill="none" stroke="midnightblue" d="M434.896,-113.413C402.067,-103.065 357.53,-89.0258 327.384,-79.5231"/>
<polygon fill="midnightblue" stroke="midnightblue" points="434.089,-116.828 444.679,-116.497 436.194,-110.152 434.089,-116.828"/>
</g>
<!-- Node5 -->
<g id="node9" class="node"><title>Node5</title>
<a xlink:href="distortionWidget_8cpp.html" target="_top" xlink:title="utils/distortioncorrector/distortionWidget.cpp">
<polygon fill="none" stroke="black" points="349,-0.5 349,-21.5 577,-21.5 577,-0.5 349,-0.5"/>
<text text-anchor="middle" x="463" y="-8.5" font-family="FreeSans.ttf" font-size="10.00">utils/distortioncorrector/distortionWidget.cpp</text>
</a>
</g>
<!-- Node1&#45;&gt;Node5 -->
<g id="edge20" class="edge"><title>Node1&#45;&gt;Node5</title>
<path fill="none" stroke="midnightblue" d="M458.174,-109.17C450.646,-101.098 442.941,-90.921 439,-80 431.595,-59.4802 444.975,-35.3862 454.552,-21.7838"/>
<polygon fill="midnightblue" stroke="midnightblue" points="455.95,-111.896 465.497,-116.49 460.898,-106.945 455.95,-111.896"/>
</g>
<!-- Node6 -->
<g id="node11" class="node"><title>Node6</title>
<a xlink:href="curvatureFunc_8cpp.html" target="_top" xlink:title="core/alignment/curvatureFunc.cpp">
<polygon fill="none" stroke="black" points="447.5,-58.5 447.5,-79.5 626.5,-79.5 626.5,-58.5 447.5,-58.5"/>
<text text-anchor="middle" x="537" y="-66.5" font-family="FreeSans.ttf" font-size="10.00">core/alignment/curvatureFunc.cpp</text>
</a>
</g>
<!-- Node1&#45;&gt;Node6 -->
<g id="edge10" class="edge"><title>Node1&#45;&gt;Node6</title>
<path fill="none" stroke="midnightblue" d="M496.19,-109.118C506.037,-99.4377 517.866,-87.8098 526.247,-79.5707"/>
<polygon fill="midnightblue" stroke="midnightblue" points="493.499,-106.856 488.822,-116.362 498.406,-111.847 493.499,-106.856"/>
</g>
<!-- Node7 -->
<g id="node13" class="node"><title>Node7</title>
<a xlink:href="distPointsFunction_8h.html" target="_top" xlink:title="core/alignment/distPointsFunction.h">
<polygon fill="none" stroke="black" points="643.5,-58.5 643.5,-79.5 830.5,-79.5 830.5,-58.5 643.5,-58.5"/>
<text text-anchor="middle" x="737" y="-66.5" font-family="FreeSans.ttf" font-size="10.00">core/alignment/distPointsFunction.h</text>
</a>
</g>
<!-- Node1&#45;&gt;Node7 -->
<g id="edge12" class="edge"><title>Node1&#45;&gt;Node7</title>
<path fill="none" stroke="midnightblue" d="M534.83,-114.274C581.355,-103.855 646.385,-89.2921 690.009,-79.5231"/>
<polygon fill="midnightblue" stroke="midnightblue" points="533.896,-110.896 524.903,-116.497 535.426,-117.727 533.896,-110.896"/>
</g>
<!-- Node9 -->
<g id="node18" class="node"><title>Node9</title>
<a xlink:href="radialFunc_8cpp.html" target="_top" xlink:title="core/alignment/radialFunc.cpp">
<polygon fill="none" stroke="black" points="848,-58.5 848,-79.5 1008,-79.5 1008,-58.5 848,-58.5"/>
<text text-anchor="middle" x="928" y="-66.5" font-family="FreeSans.ttf" font-size="10.00">core/alignment/radialFunc.cpp</text>
</a>
</g>
<!-- Node1&#45;&gt;Node9 -->
<g id="edge18" class="edge"><title>Node1&#45;&gt;Node9</title>
<path fill="none" stroke="midnightblue" d="M562.585,-116.098C644.466,-105.544 767.678,-89.6637 847.979,-79.3138"/>
<polygon fill="midnightblue" stroke="midnightblue" points="562.031,-112.64 552.561,-117.39 562.926,-119.583 562.031,-112.64"/>
</g>
<!-- Node4 -->
<g id="node7" class="node"><title>Node4</title>
<a xlink:href="anglePointsFunction_8cpp.html" target="_top" xlink:title="core/alignment/anglePointsFunction.cpp">
<polygon fill="none" stroke="black" points="124.5,-0.5 124.5,-21.5 331.5,-21.5 331.5,-0.5 124.5,-0.5"/>
<text text-anchor="middle" x="228" y="-8.5" font-family="FreeSans.ttf" font-size="10.00">core/alignment/anglePointsFunction.cpp</text>
</a>
</g>
<!-- Node3&#45;&gt;Node4 -->
<g id="edge6" class="edge"><title>Node3&#45;&gt;Node4</title>
<path fill="none" stroke="midnightblue" d="M274.303,-51.6908C263.162,-41.8996 249.59,-29.973 240.029,-21.5707"/>
<polygon fill="midnightblue" stroke="midnightblue" points="272.072,-54.3898 281.895,-58.3619 276.693,-49.1316 272.072,-54.3898"/>
</g>
<!-- Node3&#45;&gt;Node5 -->
<g id="edge8" class="edge"><title>Node3&#45;&gt;Node5</title>
<path fill="none" stroke="midnightblue" d="M334.373,-55.1443C364.447,-44.8229 404.888,-30.9439 432.338,-21.5231"/>
<polygon fill="midnightblue" stroke="midnightblue" points="332.927,-51.94 324.605,-58.4966 335.199,-58.5609 332.927,-51.94"/>
</g>
<!-- Node7&#45;&gt;Node5 -->
<g id="edge16" class="edge"><title>Node7&#45;&gt;Node5</title>
<path fill="none" stroke="midnightblue" d="M677.497,-56.4045C628.236,-45.977 559.056,-31.333 512.712,-21.5231"/>
<polygon fill="midnightblue" stroke="midnightblue" points="676.873,-59.8498 687.381,-58.4966 678.322,-53.0015 676.873,-59.8498"/>
</g>
<!-- Node8 -->
<g id="node15" class="node"><title>Node8</title>
<a xlink:href="distPointsFunction_8cpp.html" target="_top" xlink:title="core/alignment/distPointsFunction.cpp">
<polygon fill="none" stroke="black" points="638,-0.5 638,-21.5 836,-21.5 836,-0.5 638,-0.5"/>
<text text-anchor="middle" x="737" y="-8.5" font-family="FreeSans.ttf" font-size="10.00">core/alignment/distPointsFunction.cpp</text>
</a>
</g>
<!-- Node7&#45;&gt;Node8 -->
<g id="edge14" class="edge"><title>Node7&#45;&gt;Node8</title>
<path fill="none" stroke="midnightblue" d="M737,-48.1906C737,-39.1684 737,-28.9941 737,-21.5707"/>
<polygon fill="midnightblue" stroke="midnightblue" points="733.5,-48.3619 737,-58.3619 740.5,-48.3619 733.5,-48.3619"/>
</g>
</g>
</svg>
        <g id="navigator" transform="translate(0 0)" fill="#404254">
                <rect fill="#f2f5e9" fill-opacity="0.5" stroke="#606060" stroke-width=".5" x="0" y="0" width="60" height="60"/>
                <use id="zoomplus" xlink:href="#zoomPlus" x="17" y="9" onmousedown="handleZoom(evt,'in')"/>
                <use id="zoomminus" xlink:href="#zoomMin" x="42" y="9" onmousedown="handleZoom(evt,'out')"/>
                <use id="reset" xlink:href="#resetDef" x="30" y="36" onmousedown="handleReset()"/>
                <g id="arrowUp" xlink:href="#dirArrow" transform="translate(30 24)" onmousedown="handlePan(0,-1)">
                  <use xlink:href="#rim" fill="#404040">
                        <set attributeName="fill" to="#808080" begin="arrowUp.mouseover" end="arrowUp.mouseout"/>
                  </use>
                  <path fill="none" stroke="white" stroke-width="1.5" d="M0,-3.0v7 M-2.5,-0.5L0,-3.0L2.5,-0.5"/>
                </g>
                <g id="arrowRight" xlink:href="#dirArrow" transform="rotate(90) translate(36 -43)" onmousedown="handlePan(1,0)">
                  <use xlink:href="#rim" fill="#404040">
                        <set attributeName="fill" to="#808080" begin="arrowRight.mouseover" end="arrowRight.mouseout"/>
                  </use>
                  <path fill="none" stroke="white" stroke-width="1.5" d="M0,-3.0v7 M-2.5,-0.5L0,-3.0L2.5,-0.5"/>
                </g>
                <g id="arrowDown" xlink:href="#dirArrow" transform="rotate(180) translate(-30 -48)" onmousedown="handlePan(0,1)">
                  <use xlink:href="#rim" fill="#404040">
                        <set attributeName="fill" to="#808080" begin="arrowDown.mouseover" end="arrowDown.mouseout"/>
                  </use>
                  <path fill="none" stroke="white" stroke-width="1.5" d="M0,-3.0v7 M-2.5,-0.5L0,-3.0L2.5,-0.5"/>
                </g>
                <g id="arrowLeft" xlink:href="#dirArrow" transform="rotate(270) translate(-36 17)" onmousedown="handlePan(-1,0)">
                  <use xlink:href="#rim" fill="#404040">
                        <set attributeName="fill" to="#808080" begin="arrowLeft.mouseover" end="arrowLeft.mouseout"/>
                  </use>
                  <path fill="none" stroke="white" stroke-width="1.5" d="M0,-3.0v7 M-2.5,-0.5L0,-3.0L2.5,-0.5"/>
                </g>
        </g>
</svg>
