<?xml version="1.0" encoding="UTF-8" standalone="no"?>
<!DOCTYPE svg PUBLIC "-//W3C//DTD SVG 1.1//EN"
 "http://www.w3.org/Graphics/SVG/1.1/DTD/svg11.dtd">
<!-- Generated by graphviz version 2.26.3 (20100126.1600)
 -->
<!-- Title: G Pages: 1 -->
<!--zoomable 610 -->
<svg id="main" version="1.1" xmlns="http://www.w3.org/2000/svg" xmlns:xlink="http://www.w3.org/1999/xlink" xml:space="preserve" onload="init(evt)">
        <defs>
                <circle id="rim" cx="0" cy="0" r="7"/>
                <circle id="rim2" cx="0" cy="0" r="3.5"/>
                <g id="zoomPlus">
                        <use xlink:href="#rim" fill="#404040">
                                <set attributeName="fill" to="#808080" begin="zoomplus.mouseover" end="zoomplus.mouseout"/>
                        </use>
                        <path d="M-4,0h8M0,-4v8" fill="none" stroke="white" stroke-width="1.5" pointer-events="none"/>
                </g>
                <g id="zoomMin">
                        <use xlink:href="#rim" fill="#404040">
                                <set attributeName="fill" to="#808080" begin="zoomminus.mouseover" end="zoomminus.mouseout"/>
                        </use>
                        <path d="M-4,0h8" fill="none" stroke="white" stroke-width="1.5" pointer-events="none"/>
                </g>
                <g id="dirArrow">
                        <path fill="none" stroke="white" stroke-width="1.5" d="M0,-3.0v7 M-2.5,-0.5L0,-3.0L2.5,-0.5"/>
                </g>
               <g id="resetDef">
                       <use xlink:href="#rim2" fill="#404040">
                               <set attributeName="fill" to="#808080" begin="reset.mouseover" end="reset.mouseout"/>
                       </use>
               </g>
        </defs>

<script type="text/javascript">
var viewWidth = 1381;
var viewHeight = 610;
var sectionId = 'dynsection-0';
</script>
<script xlink:href="svgpan.js"/>
<svg id="graph" class="graph">
<g id="viewport">
<title>G</title>
<!-- Node1 -->
<g id="node1" class="node"><title>Node1</title>
<polygon fill="#bfbfbf" stroke="black" points="899.519,-580.5 899.519,-601.5 1075.52,-601.5 1075.52,-580.5 899.519,-580.5"/>
<text text-anchor="middle" x="987.519" y="-588.5" font-family="FreeSans.ttf" font-size="10.00">core/alignment/radialCorrection.h</text>
</g>
<!-- Node2 -->
<g id="node3" class="node"><title>Node2</title>
<a xlink:href="global_8h.html" target="_top" xlink:title="This file holds the global includes, mostly for debuging, tracing and profiling.">
<polygon fill="none" stroke="black" points="919.519,-58.5 919.519,-79.5 973.519,-79.5 973.519,-58.5 919.519,-58.5"/>
<text text-anchor="middle" x="946.519" y="-66.5" font-family="FreeSans.ttf" font-size="10.00">global.h</text>
</a>
</g>
<!-- Node1&#45;&gt;Node2 -->
<g id="edge2" class="edge"><title>Node1&#45;&gt;Node2</title>
<path fill="none" stroke="midnightblue" d="M1075.85,-582.211C1189.51,-568.403 1372.52,-536.606 1372.52,-475 1372.52,-475 1372.52,-475 1372.52,-301 1372.52,-200.762 1328.48,-169.195 1243.52,-116 1200.8,-89.2531 1053.56,-76.116 983.774,-71.2743"/>
<polygon fill="midnightblue" stroke="midnightblue" points="983.875,-67.7734 973.663,-70.5936 983.405,-74.7575 983.875,-67.7734"/>
</g>
<!-- Node4 -->
<g id="node7" class="node"><title>Node4</title>
<a xlink:href="vector2d_8h.html" target="_top" xlink:title="Add Comment Here.">
<polygon fill="none" stroke="black" points="364.519,-290.5 364.519,-311.5 432.519,-311.5 432.519,-290.5 364.519,-290.5"/>
<text text-anchor="middle" x="398.519" y="-298.5" font-family="FreeSans.ttf" font-size="10.00">vector2d.h</text>
</a>
</g>
<!-- Node1&#45;&gt;Node4 -->
<g id="edge6" class="edge"><title>Node1&#45;&gt;Node4</title>
<path fill="none" stroke="midnightblue" d="M899.248,-587.998C758.396,-580.775 498.519,-556.417 498.519,-475 498.519,-475 498.519,-475 498.519,-417 498.519,-372.663 456.091,-336.869 426.507,-317.3"/>
<polygon fill="midnightblue" stroke="midnightblue" points="428.115,-314.174 417.8,-311.756 424.355,-320.079 428.115,-314.174"/>
</g>
<!-- Node17 -->
<g id="node39" class="node"><title>Node17</title>
<a xlink:href="g12Buffer_8h.html" target="_top" xlink:title="This file holds the class description for 12 bit grayscale buffer.">
<polygon fill="none" stroke="black" points="808.019,-522.5 808.019,-543.5 879.019,-543.5 879.019,-522.5 808.019,-522.5"/>
<text text-anchor="middle" x="843.519" y="-530.5" font-family="FreeSans.ttf" font-size="10.00">g12Buffer.h</text>
</a>
</g>
<!-- Node1&#45;&gt;Node17 -->
<g id="edge44" class="edge"><title>Node1&#45;&gt;Node17</title>
<path fill="none" stroke="midnightblue" d="M961.441,-580.497C938.444,-571.234 904.718,-557.65 879.219,-547.379"/>
<polygon fill="midnightblue" stroke="midnightblue" points="880.472,-544.111 869.889,-543.621 877.857,-550.604 880.472,-544.111"/>
</g>
<!-- Node32 -->
<g id="node94" class="node"><title>Node32</title>
<a xlink:href="function_8h.html" target="_top" xlink:title="a header that contains generic function">
<polygon fill="none" stroke="black" points="1174.52,-348.5 1174.52,-369.5 1238.52,-369.5 1238.52,-348.5 1174.52,-348.5"/>
<text text-anchor="middle" x="1206.52" y="-356.5" font-family="FreeSans.ttf" font-size="10.00">function.h</text>
</a>
</g>
<!-- Node1&#45;&gt;Node32 -->
<g id="edge124" class="edge"><title>Node1&#45;&gt;Node32</title>
<path fill="none" stroke="midnightblue" d="M1001.37,-580.471C1024.71,-562.414 1072.81,-523.82 1108.52,-486 1142.06,-450.469 1175.66,-403.987 1193.48,-378.254"/>
<polygon fill="midnightblue" stroke="midnightblue" points="1196.53,-379.996 1199.3,-369.771 1190.76,-376.035 1196.53,-379.996"/>
</g>
<!-- Node3 -->
<g id="node5" class="node"><title>Node3</title>
<polygon fill="none" stroke="#bfbfbf" points="914.519,-0.5 914.519,-21.5 978.519,-21.5 978.519,-0.5 914.519,-0.5"/>
<text text-anchor="middle" x="946.519" y="-8.5" font-family="FreeSans.ttf" font-size="10.00">inttypes.h</text>
</g>
<!-- Node2&#45;&gt;Node3 -->
<g id="edge4" class="edge"><title>Node2&#45;&gt;Node3</title>
<path fill="none" stroke="midnightblue" d="M946.519,-58.3619C946.519,-50.9219 946.519,-40.7427 946.519,-31.7276"/>
<polygon fill="midnightblue" stroke="midnightblue" points="950.019,-31.5706 946.519,-21.5707 943.019,-31.5707 950.019,-31.5706"/>
</g>
<!-- Node4&#45;&gt;Node2 -->
<g id="edge12" class="edge"><title>Node4&#45;&gt;Node2</title>
<path fill="none" stroke="midnightblue" d="M412.969,-290.376C445.089,-267.091 525.364,-210.714 598.519,-174 663.143,-141.567 681.44,-137.364 750.519,-116 804.99,-99.1538 869.522,-84.7121 909.242,-76.4385"/>
<polygon fill="midnightblue" stroke="midnightblue" points="910.184,-79.8181 919.271,-74.371 908.77,-72.9623 910.184,-79.8181"/>
</g>
<!-- Node5 -->
<g id="node9" class="node"><title>Node5</title>
<polygon fill="none" stroke="#bfbfbf" points="256.019,-116.5 256.019,-137.5 307.019,-137.5 307.019,-116.5 256.019,-116.5"/>
<text text-anchor="middle" x="281.519" y="-124.5" font-family="FreeSans.ttf" font-size="10.00">math.h</text>
</g>
<!-- Node4&#45;&gt;Node5 -->
<g id="edge8" class="edge"><title>Node4&#45;&gt;Node5</title>
<path fill="none" stroke="midnightblue" d="M395.434,-290.095C390.865,-275.491 381.116,-249.404 365.519,-232 345.27,-209.406 326.78,-219.441 307.519,-196 296.12,-182.128 289.408,-162.746 285.667,-148.055"/>
<polygon fill="midnightblue" stroke="midnightblue" points="288.989,-146.878 283.358,-137.904 282.164,-148.431 288.989,-146.878"/>
</g>
<!-- Node6 -->
<g id="node11" class="node"><title>Node6</title>
<polygon fill="none" stroke="#bfbfbf" points="460.019,-58.5 460.019,-79.5 513.019,-79.5 513.019,-58.5 460.019,-58.5"/>
<text text-anchor="middle" x="486.519" y="-66.5" font-family="FreeSans.ttf" font-size="10.00">stdint.h</text>
</g>
<!-- Node4&#45;&gt;Node6 -->
<g id="edge10" class="edge"><title>Node4&#45;&gt;Node6</title>
<path fill="none" stroke="midnightblue" d="M406.239,-290.395C421.47,-268.074 452.345,-214.933 433.519,-174 423.245,-151.664 401.792,-160.336 391.519,-138 387.433,-129.117 386.361,-124.307 391.519,-116 404.34,-95.3523 429.22,-83.4994 450.303,-76.8624"/>
<polygon fill="midnightblue" stroke="midnightblue" points="451.324,-80.2106 459.97,-74.0873 449.393,-73.4822 451.324,-80.2106"/>
</g>
<!-- Node7 -->
<g id="node14" class="node"><title>Node7</title>
<a xlink:href="fixedVector_8h.html" target="_top" xlink:title="This file holds the description of the commonly used template &#45; a vector with the fixed number of com...">
<polygon fill="none" stroke="black" points="278.519,-232.5 278.519,-253.5 356.519,-253.5 356.519,-232.5 278.519,-232.5"/>
<text text-anchor="middle" x="317.519" y="-240.5" font-family="FreeSans.ttf" font-size="10.00">fixedVector.h</text>
</a>
</g>
<!-- Node4&#45;&gt;Node7 -->
<g id="edge14" class="edge"><title>Node4&#45;&gt;Node7</title>
<path fill="none" stroke="midnightblue" d="M383.662,-290.362C371.673,-281.777 354.591,-269.546 340.79,-259.664"/>
<polygon fill="midnightblue" stroke="midnightblue" points="342.449,-256.547 332.281,-253.571 338.374,-262.238 342.449,-256.547"/>
</g>
<!-- Node8 -->
<g id="node16" class="node"><title>Node8</title>
<polygon fill="none" stroke="#bfbfbf" points="249.019,-58.5 249.019,-79.5 298.019,-79.5 298.019,-58.5 249.019,-58.5"/>
<text text-anchor="middle" x="273.519" y="-66.5" font-family="FreeSans.ttf" font-size="10.00">stdio.h</text>
</g>
<!-- Node7&#45;&gt;Node8 -->
<g id="edge16" class="edge"><title>Node7&#45;&gt;Node8</title>
<path fill="none" stroke="midnightblue" d="M278.335,-232.674C247.395,-223.635 207.92,-209.821 198.519,-196 178.521,-166.601 181.301,-147.109 198.519,-116 207.33,-100.079 224.039,-88.8301 239.452,-81.338"/>
<polygon fill="midnightblue" stroke="midnightblue" points="241.105,-84.4329 248.8,-77.1503 238.243,-78.0447 241.105,-84.4329"/>
</g>
<!-- Node9 -->
<g id="node18" class="node"><title>Node9</title>
<a xlink:href="vectorOperations_8h.html" target="_top" xlink:title="This file holds the operations that are commonly used with continuous linear data structures such as ...">
<polygon fill="none" stroke="black" points="316.519,-174.5 316.519,-195.5 424.519,-195.5 424.519,-174.5 316.519,-174.5"/>
<text text-anchor="middle" x="370.519" y="-182.5" font-family="FreeSans.ttf" font-size="10.00">vectorOperations.h</text>
</a>
</g>
<!-- Node7&#45;&gt;Node9 -->
<g id="edge18" class="edge"><title>Node7&#45;&gt;Node9</title>
<path fill="none" stroke="midnightblue" d="M327.24,-232.362C334.711,-224.186 345.204,-212.702 353.988,-203.091"/>
<polygon fill="midnightblue" stroke="midnightblue" points="356.697,-205.314 360.859,-195.571 351.53,-200.592 356.697,-205.314"/>
</g>
<!-- Node9&#45;&gt;Node5 -->
<g id="edge26" class="edge"><title>Node9&#45;&gt;Node5</title>
<path fill="none" stroke="midnightblue" d="M354.195,-174.362C340.771,-165.614 321.536,-153.079 306.226,-143.101"/>
<polygon fill="midnightblue" stroke="midnightblue" points="308.028,-140.098 297.739,-137.571 304.206,-145.963 308.028,-140.098"/>
</g>
<!-- Node9&#45;&gt;Node8 -->
<g id="edge24" class="edge"><title>Node9&#45;&gt;Node8</title>
<path fill="none" stroke="midnightblue" d="M362.13,-174.092C351.501,-160.36 332.516,-136.134 315.519,-116 307.387,-106.368 298.07,-95.8888 290.281,-87.2744"/>
<polygon fill="midnightblue" stroke="midnightblue" points="292.687,-84.718 283.369,-79.6752 287.508,-89.428 292.687,-84.718"/>
</g>
<!-- Node10 -->
<g id="node20" class="node"><title>Node10</title>
<polygon fill="none" stroke="#bfbfbf" points="28.5187,-116.5 28.5187,-137.5 70.5187,-137.5 70.5187,-116.5 28.5187,-116.5"/>
<text text-anchor="middle" x="49.5187" y="-124.5" font-family="FreeSans.ttf" font-size="10.00">limits</text>
</g>
<!-- Node9&#45;&gt;Node10 -->
<g id="edge20" class="edge"><title>Node9&#45;&gt;Node10</title>
<path fill="none" stroke="midnightblue" d="M316.428,-175.227C248.922,-163.029 135.706,-142.573 80.9989,-132.688"/>
<polygon fill="midnightblue" stroke="midnightblue" points="81.3314,-129.191 70.8684,-130.858 80.0867,-136.08 81.3314,-129.191"/>
</g>
<!-- Node11 -->
<g id="node22" class="node"><title>Node11</title>
<polygon fill="none" stroke="#bfbfbf" points="400.019,-116.5 400.019,-137.5 459.019,-137.5 459.019,-116.5 400.019,-116.5"/>
<text text-anchor="middle" x="429.519" y="-124.5" font-family="FreeSans.ttf" font-size="10.00">iostream</text>
</g>
<!-- Node9&#45;&gt;Node11 -->
<g id="edge22" class="edge"><title>Node9&#45;&gt;Node11</title>
<path fill="none" stroke="midnightblue" d="M381.34,-174.362C389.74,-166.104 401.572,-154.472 411.409,-144.803"/>
<polygon fill="midnightblue" stroke="midnightblue" points="414.088,-147.077 418.766,-137.571 409.181,-142.085 414.088,-147.077"/>
</g>
<!-- Node12 -->
<g id="node26" class="node"><title>Node12</title>
<a xlink:href="reflection_8h.html" target="_top" xlink:title="a header for Reflection.c">
<polygon fill="none" stroke="black" points="552.519,-116.5 552.519,-137.5 622.519,-137.5 622.519,-116.5 552.519,-116.5"/>
<text text-anchor="middle" x="587.519" y="-124.5" font-family="FreeSans.ttf" font-size="10.00">reflection.h</text>
</a>
</g>
<!-- Node9&#45;&gt;Node12 -->
<g id="edge28" class="edge"><title>Node9&#45;&gt;Node12</title>
<path fill="none" stroke="midnightblue" d="M409.816,-174.497C447.23,-164.497 503.487,-149.46 542.645,-138.994"/>
<polygon fill="midnightblue" stroke="midnightblue" points="543.702,-142.334 552.459,-136.371 541.894,-135.572 543.702,-142.334"/>
</g>
<!-- Node12&#45;&gt;Node2 -->
<g id="edge42" class="edge"><title>Node12&#45;&gt;Node2</title>
<path fill="none" stroke="midnightblue" d="M622.521,-118.828C627.216,-117.824 631.977,-116.853 636.519,-116 734.477,-97.6023 850.896,-81.4782 909.254,-73.7872"/>
<polygon fill="midnightblue" stroke="midnightblue" points="909.997,-77.2199 919.458,-72.4506 909.088,-70.2792 909.997,-77.2199"/>
</g>
<!-- Node12&#45;&gt;Node6 -->
<g id="edge38" class="edge"><title>Node12&#45;&gt;Node6</title>
<path fill="none" stroke="midnightblue" d="M568.994,-116.362C553.617,-107.532 531.523,-94.844 514.071,-84.8224"/>
<polygon fill="midnightblue" stroke="midnightblue" points="515.341,-81.5154 504.926,-79.5707 511.855,-87.5857 515.341,-81.5154"/>
</g>
<!-- Node12&#45;&gt;Node8 -->
<g id="edge36" class="edge"><title>Node12&#45;&gt;Node8</title>
<path fill="none" stroke="midnightblue" d="M552.413,-120.515C491.874,-109.333 368.548,-86.5531 308.261,-75.4174"/>
<polygon fill="midnightblue" stroke="midnightblue" points="308.581,-71.9173 298.111,-73.5426 307.309,-78.8008 308.581,-71.9173"/>
</g>
<!-- Node13 -->
<g id="node28" class="node"><title>Node13</title>
<polygon fill="none" stroke="#bfbfbf" points="1297.02,-58.5 1297.02,-79.5 1344.02,-79.5 1344.02,-58.5 1297.02,-58.5"/>
<text text-anchor="middle" x="1320.52" y="-66.5" font-family="FreeSans.ttf" font-size="10.00">vector</text>
</g>
<!-- Node12&#45;&gt;Node13 -->
<g id="edge30" class="edge"><title>Node12&#45;&gt;Node13</title>
<path fill="none" stroke="midnightblue" d="M622.873,-124.203C747.375,-114.351 1164.57,-81.34 1286.67,-71.6781"/>
<polygon fill="midnightblue" stroke="midnightblue" points="1287.21,-75.1464 1296.91,-70.8684 1286.66,-68.1682 1287.21,-75.1464"/>
</g>
<!-- Node14 -->
<g id="node30" class="node"><title>Node14</title>
<polygon fill="none" stroke="#bfbfbf" points="583.519,-58.5 583.519,-79.5 627.519,-79.5 627.519,-58.5 583.519,-58.5"/>
<text text-anchor="middle" x="605.519" y="-66.5" font-family="FreeSans.ttf" font-size="10.00">string</text>
</g>
<!-- Node12&#45;&gt;Node14 -->
<g id="edge32" class="edge"><title>Node12&#45;&gt;Node14</title>
<path fill="none" stroke="midnightblue" d="M590.82,-116.362C593.18,-108.758 596.427,-98.294 599.27,-89.1349"/>
<polygon fill="midnightblue" stroke="midnightblue" points="602.617,-90.1587 602.238,-79.5707 595.931,-88.0839 602.617,-90.1587"/>
</g>
<!-- Node15 -->
<g id="node32" class="node"><title>Node15</title>
<polygon fill="none" stroke="#bfbfbf" points="107.019,-58.5 107.019,-79.5 160.019,-79.5 160.019,-58.5 107.019,-58.5"/>
<text text-anchor="middle" x="133.519" y="-66.5" font-family="FreeSans.ttf" font-size="10.00">string.h</text>
</g>
<!-- Node12&#45;&gt;Node15 -->
<g id="edge34" class="edge"><title>Node12&#45;&gt;Node15</title>
<path fill="none" stroke="midnightblue" d="M552.272,-122.497C468.073,-111.74 255.888,-84.6331 170.228,-73.6898"/>
<polygon fill="midnightblue" stroke="midnightblue" points="170.552,-70.2027 160.189,-72.4072 169.665,-77.1463 170.552,-70.2027"/>
</g>
<!-- Node16 -->
<g id="node36" class="node"><title>Node16</title>
<polygon fill="none" stroke="#bfbfbf" points="663.519,-58.5 663.519,-79.5 719.519,-79.5 719.519,-58.5 663.519,-58.5"/>
<text text-anchor="middle" x="691.519" y="-66.5" font-family="FreeSans.ttf" font-size="10.00">stdarg.h</text>
</g>
<!-- Node12&#45;&gt;Node16 -->
<g id="edge40" class="edge"><title>Node12&#45;&gt;Node16</title>
<path fill="none" stroke="midnightblue" d="M606.594,-116.362C622.573,-107.45 645.6,-94.6087 663.645,-84.5447"/>
<polygon fill="midnightblue" stroke="midnightblue" points="665.535,-87.4982 672.564,-79.5707 662.126,-81.3846 665.535,-87.4982"/>
</g>
<!-- Node17&#45;&gt;Node2 -->
<g id="edge48" class="edge"><title>Node17&#45;&gt;Node2</title>
<path fill="none" stroke="midnightblue" d="M879.214,-524.421C948.511,-506.72 1094.52,-463.865 1094.52,-417 1094.52,-417 1094.52,-417 1094.52,-359 1094.52,-250.009 1197.85,-199.265 1127.52,-116 1109.17,-94.2793 1031.21,-80.2797 983.787,-73.6033"/>
<polygon fill="midnightblue" stroke="midnightblue" points="984.26,-70.1354 973.878,-72.2518 983.313,-77.0712 984.26,-70.1354"/>
</g>
<!-- Node17&#45;&gt;Node11 -->
<g id="edge46" class="edge"><title>Node17&#45;&gt;Node11</title>
<path fill="none" stroke="midnightblue" d="M832.445,-522.14C775.861,-466.649 518.913,-214.667 447.805,-144.933"/>
<polygon fill="midnightblue" stroke="midnightblue" points="450.024,-142.207 440.434,-137.704 445.123,-147.205 450.024,-142.207"/>
</g>
<!-- Node18 -->
<g id="node43" class="node"><title>Node18</title>
<a xlink:href="abstractBuffer_8h.html" target="_top" xlink:title="a header for AbstractBuffer.cpp">
<polygon fill="none" stroke="black" points="748.019,-348.5 748.019,-369.5 841.019,-369.5 841.019,-348.5 748.019,-348.5"/>
<text text-anchor="middle" x="794.519" y="-356.5" font-family="FreeSans.ttf" font-size="10.00">abstractBuffer.h</text>
</a>
</g>
<!-- Node17&#45;&gt;Node18 -->
<g id="edge50" class="edge"><title>Node17&#45;&gt;Node18</title>
<path fill="none" stroke="midnightblue" d="M840.418,-522.278C834.936,-503.29 823.197,-462.5 813.519,-428 808.964,-411.764 803.898,-393.35 800.144,-379.63"/>
<polygon fill="midnightblue" stroke="midnightblue" points="803.461,-378.489 797.449,-369.765 796.708,-380.334 803.461,-378.489"/>
</g>
<!-- Node27 -->
<g id="node72" class="node"><title>Node27</title>
<a xlink:href="abstractContiniousBuffer_8h.html" target="_top" xlink:title="a header for AbstractContiniousBuffer.c">
<polygon fill="none" stroke="black" points="822.019,-406.5 822.019,-427.5 965.019,-427.5 965.019,-406.5 822.019,-406.5"/>
<text text-anchor="middle" x="893.519" y="-414.5" font-family="FreeSans.ttf" font-size="10.00">abstractContiniousBuffer.h</text>
</a>
</g>
<!-- Node17&#45;&gt;Node27 -->
<g id="edge90" class="edge"><title>Node17&#45;&gt;Node27</title>
<path fill="none" stroke="midnightblue" d="M848.133,-522.295C856.467,-502.959 874.155,-461.923 884.822,-437.177"/>
<polygon fill="midnightblue" stroke="midnightblue" points="888.171,-438.248 888.916,-427.679 881.743,-435.477 888.171,-438.248"/>
</g>
<!-- Node29 -->
<g id="node78" class="node"><title>Node29</title>
<a xlink:href="fixedPointDisplace_8h.html" target="_top" xlink:title="A header for fixedPointDisplace.c.">
<polygon fill="none" stroke="black" points="526.019,-464.5 526.019,-485.5 639.019,-485.5 639.019,-464.5 526.019,-464.5"/>
<text text-anchor="middle" x="582.519" y="-472.5" font-family="FreeSans.ttf" font-size="10.00">fixedPointDisplace.h</text>
</a>
</g>
<!-- Node17&#45;&gt;Node29 -->
<g id="edge98" class="edge"><title>Node17&#45;&gt;Node29</title>
<path fill="none" stroke="midnightblue" d="M807.775,-525.057C764.583,-515.459 691.343,-499.183 640.139,-487.805"/>
<polygon fill="midnightblue" stroke="midnightblue" points="640.729,-484.35 630.207,-485.598 639.21,-491.184 640.729,-484.35"/>
</g>
<!-- Node18&#45;&gt;Node2 -->
<g id="edge62" class="edge"><title>Node18&#45;&gt;Node2</title>
<path fill="none" stroke="midnightblue" d="M819.649,-348.393C834.467,-340.665 851.946,-328.629 860.519,-312 870.498,-292.643 848.364,-134.704 859.519,-116 870.401,-97.7526 891.094,-86.1638 909.568,-79.0601"/>
<polygon fill="midnightblue" stroke="midnightblue" points="910.975,-82.2754 919.245,-75.652 908.65,-75.6729 910.975,-82.2754"/>
</g>
<!-- Node18&#45;&gt;Node4 -->
<g id="edge64" class="edge"><title>Node18&#45;&gt;Node4</title>
<path fill="none" stroke="midnightblue" d="M747.928,-352.176C670.895,-340.893 518.019,-318.503 442.641,-307.462"/>
<polygon fill="midnightblue" stroke="midnightblue" points="442.937,-303.968 432.535,-305.982 441.922,-310.895 442.937,-303.968"/>
</g>
<!-- Node18&#45;&gt;Node6 -->
<g id="edge52" class="edge"><title>Node18&#45;&gt;Node6</title>
<path fill="none" stroke="midnightblue" d="M769.27,-348.357C750.175,-339.784 723.715,-326.758 702.519,-312 696.662,-307.922 517.547,-143.89 513.519,-138 503.334,-123.108 496.205,-103.824 491.84,-89.4292"/>
<polygon fill="midnightblue" stroke="midnightblue" points="495.129,-88.1965 489.037,-79.5285 488.394,-90.1038 495.129,-88.1965"/>
</g>
<!-- Node18&#45;&gt;Node8 -->
<g id="edge54" class="edge"><title>Node18&#45;&gt;Node8</title>
<path fill="none" stroke="midnightblue" d="M747.979,-350.609C657.757,-332.848 454.983,-285.544 307.519,-196 275.816,-176.75 262.002,-172.144 247.519,-138 240.465,-121.372 249.085,-102.113 258.243,-88.1747"/>
<polygon fill="midnightblue" stroke="midnightblue" points="261.215,-90.0358 264.181,-79.8644 255.52,-85.9666 261.215,-90.0358"/>
</g>
<!-- Node18&#45;&gt;Node14 -->
<g id="edge58" class="edge"><title>Node18&#45;&gt;Node14</title>
<path fill="none" stroke="midnightblue" d="M773.829,-348.404C742.981,-330.955 688.519,-293.06 688.519,-243 688.519,-243 688.519,-243 688.519,-185 688.519,-143.396 652.77,-106.438 628.195,-85.947"/>
<polygon fill="midnightblue" stroke="midnightblue" points="630.344,-83.1838 620.357,-79.6462 625.958,-88.6395 630.344,-83.1838"/>
</g>
<!-- Node18&#45;&gt;Node16 -->
<g id="edge56" class="edge"><title>Node18&#45;&gt;Node16</title>
<path fill="none" stroke="midnightblue" d="M779.579,-348.256C768.626,-339.629 754.209,-326.581 745.519,-312 729.234,-284.677 726.519,-274.808 726.519,-243 726.519,-243 726.519,-243 726.519,-185 726.519,-149.976 711.713,-111.441 701.361,-88.7784"/>
<polygon fill="midnightblue" stroke="midnightblue" points="704.434,-87.0889 696.987,-79.5522 698.109,-90.0875 704.434,-87.0889"/>
</g>
<!-- Node19 -->
<g id="node49" class="node"><title>Node19</title>
<polygon fill="none" stroke="#bfbfbf" points="928.019,-290.5 928.019,-311.5 991.019,-311.5 991.019,-290.5 928.019,-290.5"/>
<text text-anchor="middle" x="959.519" y="-298.5" font-family="FreeSans.ttf" font-size="10.00">functional</text>
</g>
<!-- Node18&#45;&gt;Node19 -->
<g id="edge60" class="edge"><title>Node18&#45;&gt;Node19</title>
<path fill="none" stroke="midnightblue" d="M824.399,-348.497C851.182,-339.082 890.663,-325.204 920.04,-314.877"/>
<polygon fill="midnightblue" stroke="midnightblue" points="921.309,-318.141 929.582,-311.523 918.988,-311.537 921.309,-318.141"/>
</g>
<!-- Node20 -->
<g id="node53" class="node"><title>Node20</title>
<a xlink:href="memoryBlock_8h.html" target="_top" xlink:title="Add Comment Here.">
<polygon fill="none" stroke="black" points="989.019,-174.5 989.019,-195.5 1124.02,-195.5 1124.02,-174.5 989.019,-174.5"/>
<text text-anchor="middle" x="1056.52" y="-182.5" font-family="FreeSans.ttf" font-size="10.00">memory/memoryBlock.h</text>
</a>
</g>
<!-- Node18&#45;&gt;Node20 -->
<g id="edge66" class="edge"><title>Node18&#45;&gt;Node20</title>
<path fill="none" stroke="midnightblue" d="M841.191,-353.186C893.966,-345.786 975.667,-331.572 999.519,-312 1032.67,-284.797 1047.25,-234.288 1053.08,-205.852"/>
<polygon fill="midnightblue" stroke="midnightblue" points="1056.56,-206.273 1054.96,-195.8 1049.68,-204.986 1056.56,-206.273"/>
</g>
<!-- Node24 -->
<g id="node63" class="node"><title>Node24</title>
<a xlink:href="tbbWrapper_8h.html" target="_top" xlink:title="This is a class that provides common TBB interface.">
<polygon fill="none" stroke="black" points="754.519,-290.5 754.519,-311.5 834.519,-311.5 834.519,-290.5 754.519,-290.5"/>
<text text-anchor="middle" x="794.519" y="-298.5" font-family="FreeSans.ttf" font-size="10.00">tbbWrapper.h</text>
</a>
</g>
<!-- Node18&#45;&gt;Node24 -->
<g id="edge78" class="edge"><title>Node18&#45;&gt;Node24</title>
<path fill="none" stroke="midnightblue" d="M794.519,-348.362C794.519,-340.922 794.519,-330.743 794.519,-321.728"/>
<polygon fill="midnightblue" stroke="midnightblue" points="798.019,-321.571 794.519,-311.571 791.019,-321.571 798.019,-321.571"/>
</g>
<!-- Node26 -->
<g id="node67" class="node"><title>Node26</title>
<a xlink:href="mathUtils_8h.html" target="_top" xlink:title="Add Comment Here.">
<polygon fill="none" stroke="black" points="775.519,-174.5 775.519,-195.5 847.519,-195.5 847.519,-174.5 775.519,-174.5"/>
<text text-anchor="middle" x="811.519" y="-182.5" font-family="FreeSans.ttf" font-size="10.00">mathUtils.h</text>
</a>
</g>
<!-- Node18&#45;&gt;Node26 -->
<g id="edge82" class="edge"><title>Node18&#45;&gt;Node26</title>
<path fill="none" stroke="midnightblue" d="M811.109,-348.5C822.594,-340.174 836.952,-327.397 843.519,-312 859.1,-275.465 838.518,-229.657 823.87,-204.242"/>
<polygon fill="midnightblue" stroke="midnightblue" points="826.796,-202.317 818.634,-195.562 820.802,-205.933 826.796,-202.317"/>
</g>
<!-- Node20&#45;&gt;Node2 -->
<g id="edge74" class="edge"><title>Node20&#45;&gt;Node2</title>
<path fill="none" stroke="midnightblue" d="M1075.53,-174.381C1097.11,-160.948 1127.39,-137.029 1111.52,-116 1096.15,-95.643 1027.49,-81.4878 983.729,-74.3477"/>
<polygon fill="midnightblue" stroke="midnightblue" points="984.147,-70.8705 973.723,-72.7662 983.054,-77.7847 984.147,-70.8705"/>
</g>
<!-- Node20&#45;&gt;Node6 -->
<g id="edge70" class="edge"><title>Node20&#45;&gt;Node6</title>
<path fill="none" stroke="midnightblue" d="M988.897,-180.188C854.054,-170.403 562.919,-148.245 543.519,-138 522.615,-126.961 506.425,-104.673 496.73,-88.405"/>
<polygon fill="midnightblue" stroke="midnightblue" points="499.751,-86.6378 491.785,-79.653 493.657,-90.0812 499.751,-86.6378"/>
</g>
<!-- Node21 -->
<g id="node55" class="node"><title>Node21</title>
<polygon fill="none" stroke="#bfbfbf" points="974.019,-116.5 974.019,-137.5 1009.02,-137.5 1009.02,-116.5 974.019,-116.5"/>
<text text-anchor="middle" x="991.519" y="-124.5" font-family="FreeSans.ttf" font-size="10.00">new</text>
</g>
<!-- Node20&#45;&gt;Node21 -->
<g id="edge68" class="edge"><title>Node20&#45;&gt;Node21</title>
<path fill="none" stroke="midnightblue" d="M1044.6,-174.362C1035.16,-165.941 1021.79,-154.011 1010.83,-144.231"/>
<polygon fill="midnightblue" stroke="midnightblue" points="1013.16,-141.617 1003.37,-137.571 1008.5,-146.84 1013.16,-141.617"/>
</g>
<!-- Node22 -->
<g id="node58" class="node"><title>Node22</title>
<polygon fill="none" stroke="#bfbfbf" points="868.019,-116.5 868.019,-137.5 919.019,-137.5 919.019,-116.5 868.019,-116.5"/>
<text text-anchor="middle" x="893.519" y="-124.5" font-family="FreeSans.ttf" font-size="10.00">stdlib.h</text>
</g>
<!-- Node20&#45;&gt;Node22 -->
<g id="edge72" class="edge"><title>Node20&#45;&gt;Node22</title>
<path fill="none" stroke="midnightblue" d="M1027,-174.497C999.306,-164.642 957.867,-149.897 928.518,-139.454"/>
<polygon fill="midnightblue" stroke="midnightblue" points="929.66,-136.145 919.066,-136.09 927.314,-142.74 929.66,-136.145"/>
</g>
<!-- Node23 -->
<g id="node61" class="node"><title>Node23</title>
<a xlink:href="atomicOps_8h.html" target="_top" xlink:title="atomicOps.h">
<polygon fill="none" stroke="black" points="1026.02,-116.5 1026.02,-137.5 1103.02,-137.5 1103.02,-116.5 1026.02,-116.5"/>
<text text-anchor="middle" x="1064.52" y="-124.5" font-family="FreeSans.ttf" font-size="10.00">atomicOps.h</text>
</a>
</g>
<!-- Node20&#45;&gt;Node23 -->
<g id="edge76" class="edge"><title>Node20&#45;&gt;Node23</title>
<path fill="none" stroke="midnightblue" d="M1057.99,-174.362C1059.01,-166.922 1060.42,-156.743 1061.66,-147.728"/>
<polygon fill="midnightblue" stroke="midnightblue" points="1065.16,-147.955 1063.06,-137.571 1058.23,-146.999 1065.16,-147.955"/>
</g>
<!-- Node25 -->
<g id="node65" class="node"><title>Node25</title>
<polygon fill="none" stroke="#bfbfbf" points="768.519,-232.5 768.519,-253.5 820.519,-253.5 820.519,-232.5 768.519,-232.5"/>
<text text-anchor="middle" x="794.519" y="-240.5" font-family="FreeSans.ttf" font-size="10.00">cstddef</text>
</g>
<!-- Node24&#45;&gt;Node25 -->
<g id="edge80" class="edge"><title>Node24&#45;&gt;Node25</title>
<path fill="none" stroke="midnightblue" d="M794.519,-290.362C794.519,-282.922 794.519,-272.743 794.519,-263.728"/>
<polygon fill="midnightblue" stroke="midnightblue" points="798.019,-263.571 794.519,-253.571 791.019,-263.571 798.019,-263.571"/>
</g>
<!-- Node26&#45;&gt;Node2 -->
<g id="edge86" class="edge"><title>Node26&#45;&gt;Node2</title>
<path fill="none" stroke="midnightblue" d="M810.906,-174.312C810.642,-159.479 812.365,-132.608 826.519,-116 847.366,-91.5378 882.601,-79.7298 909.513,-74.077"/>
<polygon fill="midnightblue" stroke="midnightblue" points="910.204,-77.5084 919.372,-72.1984 908.894,-70.6321 910.204,-77.5084"/>
</g>
<!-- Node26&#45;&gt;Node5 -->
<g id="edge84" class="edge"><title>Node26&#45;&gt;Node5</title>
<path fill="none" stroke="midnightblue" d="M775.506,-181.059C678.718,-170.467 413.783,-141.474 317.283,-130.914"/>
<polygon fill="midnightblue" stroke="midnightblue" points="317.479,-127.415 307.158,-129.806 316.718,-134.373 317.479,-127.415"/>
</g>
<!-- Node26&#45;&gt;Node22 -->
<g id="edge88" class="edge"><title>Node26&#45;&gt;Node22</title>
<path fill="none" stroke="midnightblue" d="M826.559,-174.362C838.811,-165.696 856.318,-153.313 870.358,-143.382"/>
<polygon fill="midnightblue" stroke="midnightblue" points="872.431,-146.203 878.574,-137.571 868.389,-140.488 872.431,-146.203"/>
</g>
<!-- Node27&#45;&gt;Node2 -->
<g id="edge92" class="edge"><title>Node27&#45;&gt;Node2</title>
<path fill="none" stroke="midnightblue" d="M910.836,-406.386C935.957,-389.844 981.474,-355.273 999.519,-312 1003.28,-302.975 1000.67,-299.71 999.519,-290 994.854,-250.551 964.738,-136.435 952.094,-89.516"/>
<polygon fill="midnightblue" stroke="midnightblue" points="955.402,-88.3398 949.412,-79.6006 948.645,-90.1676 955.402,-88.3398"/>
</g>
<!-- Node27&#45;&gt;Node18 -->
<g id="edge94" class="edge"><title>Node27&#45;&gt;Node18</title>
<path fill="none" stroke="midnightblue" d="M875.361,-406.362C860.289,-397.532 838.632,-384.844 821.526,-374.822"/>
<polygon fill="midnightblue" stroke="midnightblue" points="822.959,-371.606 812.562,-369.571 819.421,-377.646 822.959,-371.606"/>
</g>
<!-- Node28 -->
<g id="node76" class="node"><title>Node28</title>
<polygon fill="none" stroke="#bfbfbf" points="1122.52,-290.5 1122.52,-311.5 1178.52,-311.5 1178.52,-290.5 1122.52,-290.5"/>
<text text-anchor="middle" x="1150.52" y="-298.5" font-family="FreeSans.ttf" font-size="10.00">matrix.h</text>
</g>
<!-- Node27&#45;&gt;Node28 -->
<g id="edge96" class="edge"><title>Node27&#45;&gt;Node28</title>
<path fill="none" stroke="midnightblue" d="M931.482,-406.442C959.883,-398.001 999.37,-385.106 1032.52,-370 1066.26,-354.623 1102.78,-332.31 1126.11,-317.258"/>
<polygon fill="midnightblue" stroke="midnightblue" points="1128.2,-320.074 1134.66,-311.681 1124.37,-314.209 1128.2,-320.074"/>
</g>
<!-- Node29&#45;&gt;Node2 -->
<g id="edge102" class="edge"><title>Node29&#45;&gt;Node2</title>
<path fill="none" stroke="midnightblue" d="M587.206,-464.364C595.644,-444.219 612.519,-398.939 612.519,-359 612.519,-359 612.519,-359 612.519,-243 612.519,-176.569 822.961,-105.968 909.761,-79.673"/>
<polygon fill="midnightblue" stroke="midnightblue" points="910.896,-82.9866 919.469,-76.761 908.885,-76.2817 910.896,-82.9866"/>
</g>
<!-- Node29&#45;&gt;Node6 -->
<g id="edge100" class="edge"><title>Node29&#45;&gt;Node6</title>
<path fill="none" stroke="midnightblue" d="M525.902,-473.057C427.927,-468.955 231.317,-457.261 169.519,-428 129.749,-409.17 98.5187,-403.002 98.5187,-359 98.5187,-359 98.5187,-359 98.5187,-185 98.5187,-112.151 352.77,-81.2309 449.641,-72.094"/>
<polygon fill="midnightblue" stroke="midnightblue" points="450.212,-75.5564 459.85,-71.1572 449.572,-68.5857 450.212,-75.5564"/>
</g>
<!-- Node29&#45;&gt;Node27 -->
<g id="edge104" class="edge"><title>Node29&#45;&gt;Node27</title>
<path fill="none" stroke="midnightblue" d="M638.838,-464.497C691.735,-454.632 770.91,-439.866 826.917,-429.421"/>
<polygon fill="midnightblue" stroke="midnightblue" points="827.904,-432.797 837.093,-427.523 826.621,-425.916 827.904,-432.797"/>
</g>
<!-- Node30 -->
<g id="node83" class="node"><title>Node30</title>
<a xlink:href="matrix33_8h.html" target="_top" xlink:title="This file holds the header for the commonly used structure &#45; a 3 by 3 matrix.">
<polygon fill="none" stroke="black" points="178.519,-406.5 178.519,-427.5 246.519,-427.5 246.519,-406.5 178.519,-406.5"/>
<text text-anchor="middle" x="212.519" y="-414.5" font-family="FreeSans.ttf" font-size="10.00">matrix33.h</text>
</a>
</g>
<!-- Node29&#45;&gt;Node30 -->
<g id="edge106" class="edge"><title>Node29&#45;&gt;Node30</title>
<path fill="none" stroke="midnightblue" d="M525.921,-466.128C452.132,-454.561 324.567,-434.564 257.191,-424.003"/>
<polygon fill="midnightblue" stroke="midnightblue" points="257.334,-420.482 246.912,-422.391 256.25,-427.398 257.334,-420.482"/>
</g>
<!-- Node30&#45;&gt;Node5 -->
<g id="edge112" class="edge"><title>Node30&#45;&gt;Node5</title>
<path fill="none" stroke="midnightblue" d="M206.413,-406.191C195.672,-386.127 174.519,-341.477 174.519,-301 174.519,-301 174.519,-301 174.519,-243 174.519,-197.241 220.06,-161.816 251.721,-142.717"/>
<polygon fill="midnightblue" stroke="midnightblue" points="253.742,-145.591 260.634,-137.544 250.228,-139.537 253.742,-145.591"/>
</g>
<!-- Node30&#45;&gt;Node7 -->
<g id="edge122" class="edge"><title>Node30&#45;&gt;Node7</title>
<path fill="none" stroke="midnightblue" d="M214.06,-406.207C216.377,-392.177 221.584,-367.202 231.519,-348 249.299,-313.636 279.652,-280.156 299.134,-260.565"/>
<polygon fill="midnightblue" stroke="midnightblue" points="301.605,-263.044 306.263,-253.527 296.687,-258.062 301.605,-263.044"/>
</g>
<!-- Node30&#45;&gt;Node10 -->
<g id="edge110" class="edge"><title>Node30&#45;&gt;Node10</title>
<path fill="none" stroke="midnightblue" d="M204.538,-406.422C197.606,-397.056 187.462,-382.906 179.519,-370 130.173,-289.82 79.879,-189.33 59.2495,-147.125"/>
<polygon fill="midnightblue" stroke="midnightblue" points="62.2919,-145.379 54.7688,-137.918 55.9977,-148.442 62.2919,-145.379"/>
</g>
<!-- Node30&#45;&gt;Node11 -->
<g id="edge108" class="edge"><title>Node30&#45;&gt;Node11</title>
<path fill="none" stroke="midnightblue" d="M246.651,-412.311C298.524,-403.191 395.972,-377.816 441.519,-312 476.495,-261.459 463.337,-234.112 450.519,-174 448.531,-164.679 444.555,-154.968 440.593,-146.809"/>
<polygon fill="midnightblue" stroke="midnightblue" points="443.61,-145.025 435.9,-137.758 437.395,-148.246 443.61,-145.025"/>
</g>
<!-- Node30&#45;&gt;Node15 -->
<g id="edge114" class="edge"><title>Node30&#45;&gt;Node15</title>
<path fill="none" stroke="midnightblue" d="M178.457,-413.861C118.53,-406.265 0.518653,-381.134 0.518653,-301 0.518653,-301 0.518653,-301 0.518653,-185 0.518653,-153.192 -1.55596,-139.825 19.5187,-116 39.34,-93.5922 71.4917,-81.643 96.6054,-75.4114"/>
<polygon fill="midnightblue" stroke="midnightblue" points="97.5619,-78.7832 106.534,-73.1488 96.0066,-71.9582 97.5619,-78.7832"/>
</g>
<!-- Node31 -->
<g id="node89" class="node"><title>Node31</title>
<a xlink:href="vector3d_8h.html" target="_top" xlink:title="A 3 component vector.">
<polygon fill="none" stroke="black" points="240.519,-348.5 240.519,-369.5 308.519,-369.5 308.519,-348.5 240.519,-348.5"/>
<text text-anchor="middle" x="274.519" y="-356.5" font-family="FreeSans.ttf" font-size="10.00">vector3d.h</text>
</a>
</g>
<!-- Node30&#45;&gt;Node31 -->
<g id="edge116" class="edge"><title>Node30&#45;&gt;Node31</title>
<path fill="none" stroke="midnightblue" d="M223.89,-406.362C232.805,-398.023 245.398,-386.242 255.794,-376.516"/>
<polygon fill="midnightblue" stroke="midnightblue" points="258.307,-378.958 263.219,-369.571 253.525,-373.846 258.307,-378.958"/>
</g>
<!-- Node31&#45;&gt;Node4 -->
<g id="edge120" class="edge"><title>Node31&#45;&gt;Node4</title>
<path fill="none" stroke="midnightblue" d="M296.974,-348.497C316.429,-339.397 344.798,-326.127 366.609,-315.925"/>
<polygon fill="midnightblue" stroke="midnightblue" points="368.236,-319.028 375.811,-311.621 365.27,-312.688 368.236,-319.028"/>
</g>
<!-- Node31&#45;&gt;Node5 -->
<g id="edge118" class="edge"><title>Node31&#45;&gt;Node5</title>
<path fill="none" stroke="midnightblue" d="M273.418,-348.457C271.297,-326.685 267.059,-275.179 269.519,-232 271.19,-202.653 275.469,-168.915 278.438,-147.776"/>
<polygon fill="midnightblue" stroke="midnightblue" points="281.928,-148.094 279.888,-137.697 274.999,-147.097 281.928,-148.094"/>
</g>
<!-- Node32&#45;&gt;Node2 -->
<g id="edge128" class="edge"><title>Node32&#45;&gt;Node2</title>
<path fill="none" stroke="midnightblue" d="M1206.52,-348.444C1206.52,-328.062 1206.52,-281.868 1206.52,-243 1206.52,-243 1206.52,-243 1206.52,-185 1206.52,-152.531 1207.01,-137.319 1182.52,-116 1153.31,-90.5753 1042.66,-77.3276 983.83,-71.9528"/>
<polygon fill="midnightblue" stroke="midnightblue" points="984.091,-68.4623 973.822,-71.0689 983.475,-75.4352 984.091,-68.4623"/>
</g>
<!-- Node32&#45;&gt;Node13 -->
<g id="edge126" class="edge"><title>Node32&#45;&gt;Node13</title>
<path fill="none" stroke="midnightblue" d="M1238.79,-351.063C1260,-344.191 1286.66,-332.104 1302.52,-312 1354.81,-245.73 1336.52,-135.128 1325.91,-89.5709"/>
<polygon fill="midnightblue" stroke="midnightblue" points="1329.26,-88.5681 1323.48,-79.6899 1322.47,-90.2358 1329.26,-88.5681"/>
</g>
<!-- Node32&#45;&gt;Node28 -->
<g id="edge130" class="edge"><title>Node32&#45;&gt;Node28</title>
<path fill="none" stroke="midnightblue" d="M1196.25,-348.362C1188.27,-340.104 1177.04,-328.472 1167.71,-318.803"/>
<polygon fill="midnightblue" stroke="midnightblue" points="1170.19,-316.334 1160.72,-311.571 1165.15,-321.196 1170.19,-316.334"/>
</g>
<!-- Node33 -->
<g id="node99" class="node"><title>Node33</title>
<a xlink:href="vector_8h.html" target="_top" xlink:title="a header for vector.c">
<polygon fill="none" stroke="black" points="1239.02,-290.5 1239.02,-311.5 1294.02,-311.5 1294.02,-290.5 1239.02,-290.5"/>
<text text-anchor="middle" x="1266.52" y="-298.5" font-family="FreeSans.ttf" font-size="10.00">vector.h</text>
</a>
</g>
<!-- Node32&#45;&gt;Node33 -->
<g id="edge132" class="edge"><title>Node32&#45;&gt;Node33</title>
<path fill="none" stroke="midnightblue" d="M1217.52,-348.362C1226.07,-340.104 1238.1,-328.472 1248.1,-318.803"/>
<polygon fill="midnightblue" stroke="midnightblue" points="1250.83,-321.037 1255.58,-311.571 1245.96,-316.004 1250.83,-321.037"/>
</g>
<!-- Node34 -->
<g id="node101" class="node"><title>Node34</title>
<a xlink:href="fixedArray_8h.html" target="_top" xlink:title="a header for fixedArray.c">
<polygon fill="none" stroke="black" points="1234.52,-232.5 1234.52,-253.5 1306.52,-253.5 1306.52,-232.5 1234.52,-232.5"/>
<text text-anchor="middle" x="1270.52" y="-240.5" font-family="FreeSans.ttf" font-size="10.00">fixedArray.h</text>
</a>
</g>
<!-- Node33&#45;&gt;Node34 -->
<g id="edge134" class="edge"><title>Node33&#45;&gt;Node34</title>
<path fill="none" stroke="midnightblue" d="M1267.25,-290.362C1267.77,-282.922 1268.47,-272.743 1269.09,-263.728"/>
<polygon fill="midnightblue" stroke="midnightblue" points="1272.59,-263.788 1269.79,-253.571 1265.61,-263.306 1272.59,-263.788"/>
</g>
<!-- Node34&#45;&gt;Node2 -->
<g id="edge138" class="edge"><title>Node34&#45;&gt;Node2</title>
<path fill="none" stroke="midnightblue" d="M1269.74,-232.463C1267.32,-207.814 1257.65,-146.202 1220.52,-116 1184.8,-86.9486 1050.13,-75.0942 983.841,-70.9401"/>
<polygon fill="midnightblue" stroke="midnightblue" points="984.007,-67.4438 973.815,-70.338 983.587,-74.4312 984.007,-67.4438"/>
</g>
<!-- Node34&#45;&gt;Node9 -->
<g id="edge142" class="edge"><title>Node34&#45;&gt;Node9</title>
<path fill="none" stroke="midnightblue" d="M1234.4,-240.673C1097.77,-231.867 611.321,-200.518 434.966,-189.153"/>
<polygon fill="midnightblue" stroke="midnightblue" points="435.005,-185.649 424.801,-188.498 434.555,-192.634 435.005,-185.649"/>
</g>
<!-- Node34&#45;&gt;Node13 -->
<g id="edge136" class="edge"><title>Node34&#45;&gt;Node13</title>
<path fill="none" stroke="midnightblue" d="M1273.57,-232.377C1281.68,-204.172 1303.85,-127.012 1314.56,-89.7203"/>
<polygon fill="midnightblue" stroke="midnightblue" points="1317.98,-90.5054 1317.38,-79.9277 1311.25,-88.5721 1317.98,-90.5054"/>
</g>
<!-- Node34&#45;&gt;Node20 -->
<g id="edge140" class="edge"><title>Node34&#45;&gt;Node20</title>
<path fill="none" stroke="midnightblue" d="M1234.22,-233.161C1198.78,-223.558 1144.63,-208.88 1105.42,-198.253"/>
<polygon fill="midnightblue" stroke="midnightblue" points="1106.11,-194.813 1095.54,-195.575 1104.27,-201.569 1106.11,-194.813"/>
</g>
</g>
</svg>
        <g id="navigator" transform="translate(0 0)" fill="#404254">
                <rect fill="#f2f5e9" fill-opacity="0.5" stroke="#606060" stroke-width=".5" x="0" y="0" width="60" height="60"/>
                <use id="zoomplus" xlink:href="#zoomPlus" x="17" y="9" onmousedown="handleZoom(evt,'in')"/>
                <use id="zoomminus" xlink:href="#zoomMin" x="42" y="9" onmousedown="handleZoom(evt,'out')"/>
                <use id="reset" xlink:href="#resetDef" x="30" y="36" onmousedown="handleReset()"/>
                <g id="arrowUp" xlink:href="#dirArrow" transform="translate(30 24)" onmousedown="handlePan(0,-1)">
                  <use xlink:href="#rim" fill="#404040">
                        <set attributeName="fill" to="#808080" begin="arrowUp.mouseover" end="arrowUp.mouseout"/>
                  </use>
                  <path fill="none" stroke="white" stroke-width="1.5" d="M0,-3.0v7 M-2.5,-0.5L0,-3.0L2.5,-0.5"/>
                </g>
                <g id="arrowRight" xlink:href="#dirArrow" transform="rotate(90) translate(36 -43)" onmousedown="handlePan(1,0)">
                  <use xlink:href="#rim" fill="#404040">
                        <set attributeName="fill" to="#808080" begin="arrowRight.mouseover" end="arrowRight.mouseout"/>
                  </use>
                  <path fill="none" stroke="white" stroke-width="1.5" d="M0,-3.0v7 M-2.5,-0.5L0,-3.0L2.5,-0.5"/>
                </g>
                <g id="arrowDown" xlink:href="#dirArrow" transform="rotate(180) translate(-30 -48)" onmousedown="handlePan(0,1)">
                  <use xlink:href="#rim" fill="#404040">
                        <set attributeName="fill" to="#808080" begin="arrowDown.mouseover" end="arrowDown.mouseout"/>
                  </use>
                  <path fill="none" stroke="white" stroke-width="1.5" d="M0,-3.0v7 M-2.5,-0.5L0,-3.0L2.5,-0.5"/>
                </g>
                <g id="arrowLeft" xlink:href="#dirArrow" transform="rotate(270) translate(-36 17)" onmousedown="handlePan(-1,0)">
                  <use xlink:href="#rim" fill="#404040">
                        <set attributeName="fill" to="#808080" begin="arrowLeft.mouseover" end="arrowLeft.mouseout"/>
                  </use>
                  <path fill="none" stroke="white" stroke-width="1.5" d="M0,-3.0v7 M-2.5,-0.5L0,-3.0L2.5,-0.5"/>
                </g>
        </g>
</svg>
