<?xml version="1.0" encoding="UTF-8" standalone="no"?>
<!DOCTYPE svg PUBLIC "-//W3C//DTD SVG 1.1//EN"
 "http://www.w3.org/Graphics/SVG/1.1/DTD/svg11.dtd">
<!-- Generated by graphviz version 2.26.3 (20100126.1600)
 -->
<!-- Title: G Pages: 1 -->
<svg width="404pt" height="88pt"
 viewBox="0.00 0.00 404.00 88.00" xmlns="http://www.w3.org/2000/svg" xmlns:xlink="http://www.w3.org/1999/xlink">
<g id="graph1" class="graph" transform="scale(1 1) rotate(0) translate(4 84)">
<title>G</title>
<!-- Node1 -->
<g id="node1" class="node"><title>Node1</title>
<polygon fill="#bfbfbf" stroke="black" points="131,-58.5 131,-79.5 271,-79.5 271,-58.5 131,-58.5"/>
<text text-anchor="middle" x="201" y="-66.5" font-family="FreeSans.ttf" font-size="10.00">core/rectification/ransac.h</text>
</g>
<!-- Node2 -->
<g id="node3" class="node"><title>Node2</title>
<a xlink:href="ransacEstimator_8cpp.html" target="_top" xlink:title="Add Comment Here.">
<polygon fill="none" stroke="black" points="-0.5,-0.5 -0.5,-21.5 196.5,-21.5 196.5,-0.5 -0.5,-0.5"/>
<text text-anchor="middle" x="98" y="-8.5" font-family="FreeSans.ttf" font-size="10.00">core/rectification/ransacEstimator.cpp</text>
</a>
</g>
<!-- Node1&#45;&gt;Node2 -->
<g id="edge2" class="edge"><title>Node1&#45;&gt;Node2</title>
<path fill="none" stroke="midnightblue" d="M173.259,-53.379C155.362,-43.3011 132.563,-30.4624 116.772,-21.5707"/>
<polygon fill="midnightblue" stroke="midnightblue" points="171.677,-56.505 182.108,-58.3619 175.112,-50.4055 171.677,-56.505"/>
</g>
<!-- Node3 -->
<g id="node5" class="node"><title>Node3</title>
<a xlink:href="stereoAligner_8cpp.html" target="_top" xlink:title="Add Comment Here.">
<polygon fill="none" stroke="black" points="214,-0.5 214,-21.5 396,-21.5 396,-0.5 214,-0.5"/>
<text text-anchor="middle" x="305" y="-8.5" font-family="FreeSans.ttf" font-size="10.00">core/rectification/stereoAligner.cpp</text>
</a>
</g>
<!-- Node1&#45;&gt;Node3 -->
<g id="edge4" class="edge"><title>Node1&#45;&gt;Node3</title>
<path fill="none" stroke="midnightblue" d="M229.01,-53.379C247.081,-43.3011 270.102,-30.4624 286.046,-21.5707"/>
<polygon fill="midnightblue" stroke="midnightblue" points="227.104,-50.4344 220.075,-58.3619 230.514,-56.548 227.104,-50.4344"/>
</g>
</g>
</svg>
