<?xml version="1.0" encoding="UTF-8" standalone="no"?>
<!DOCTYPE svg PUBLIC "-//W3C//DTD SVG 1.1//EN"
 "http://www.w3.org/Graphics/SVG/1.1/DTD/svg11.dtd">
<!-- Generated by graphviz version 2.26.3 (20100126.1600)
 -->
<!-- Title: G Pages: 1 -->
<svg width="348pt" height="88pt"
 viewBox="0.00 0.00 348.00 88.00" xmlns="http://www.w3.org/2000/svg" xmlns:xlink="http://www.w3.org/1999/xlink">
<g id="graph1" class="graph" transform="scale(1 1) rotate(0) translate(4 84)">
<title>G</title>
<!-- Node1 -->
<g id="node1" class="node"><title>Node1</title>
<polygon fill="#bfbfbf" stroke="black" points="92,-58.5 92,-79.5 244,-79.5 244,-58.5 92,-58.5"/>
<text text-anchor="middle" x="168" y="-66.5" font-family="FreeSans.ttf" font-size="10.00">core/fileformats/rawLoader.h</text>
</g>
<!-- Node2 -->
<g id="node3" class="node"><title>Node2</title>
<a xlink:href="bufferFactory_8cpp.html" target="_top" xlink:title="Holds the implementation of the factory for the loadable buffer.">
<polygon fill="none" stroke="black" points="0,-0.5 0,-21.5 158,-21.5 158,-0.5 0,-0.5"/>
<text text-anchor="middle" x="79" y="-8.5" font-family="FreeSans.ttf" font-size="10.00">core/buffers/bufferFactory.cpp</text>
</a>
</g>
<!-- Node1&#45;&gt;Node2 -->
<g id="edge2" class="edge"><title>Node1&#45;&gt;Node2</title>
<path fill="none" stroke="midnightblue" d="M143.174,-52.8215C127.844,-42.8312 108.614,-30.2993 95.2205,-21.5707"/>
<polygon fill="midnightblue" stroke="midnightblue" points="141.387,-55.8344 151.676,-58.3619 145.209,-49.9698 141.387,-55.8344"/>
</g>
<!-- Node3 -->
<g id="node5" class="node"><title>Node3</title>
<a xlink:href="rawLoader_8cpp.html" target="_top" xlink:title="Add Comment Here.">
<polygon fill="none" stroke="black" points="176,-0.5 176,-21.5 340,-21.5 340,-0.5 176,-0.5"/>
<text text-anchor="middle" x="258" y="-8.5" font-family="FreeSans.ttf" font-size="10.00">core/fileformats/rawLoader.cpp</text>
</a>
</g>
<!-- Node1&#45;&gt;Node3 -->
<g id="edge4" class="edge"><title>Node1&#45;&gt;Node3</title>
<path fill="none" stroke="midnightblue" d="M193.105,-52.8215C208.607,-42.8312 228.053,-30.2993 241.597,-21.5707"/>
<polygon fill="midnightblue" stroke="midnightblue" points="191.017,-50.0028 184.507,-58.3619 194.809,-55.8869 191.017,-50.0028"/>
</g>
</g>
</svg>
