<?xml version="1.0" encoding="UTF-8" standalone="no"?>
<!DOCTYPE svg PUBLIC "-//W3C//DTD SVG 1.1//EN"
 "http://www.w3.org/Graphics/SVG/1.1/DTD/svg11.dtd">
<!-- Generated by graphviz version 2.26.3 (20100126.1600)
 -->
<!-- Title: G Pages: 1 -->
<svg width="452pt" height="88pt"
 viewBox="0.00 0.00 452.00 88.00" xmlns="http://www.w3.org/2000/svg" xmlns:xlink="http://www.w3.org/1999/xlink">
<g id="graph1" class="graph" transform="scale(1 1) rotate(0) translate(4 84)">
<title>G</title>
<!-- Node1 -->
<g id="node1" class="node"><title>Node1</title>
<polygon fill="#bfbfbf" stroke="black" points="123,-58.5 123,-79.5 323,-79.5 323,-58.5 123,-58.5"/>
<text text-anchor="middle" x="223" y="-66.5" font-family="FreeSans.ttf" font-size="10.00">applications/recorder/recorderDialog.h</text>
</g>
<!-- Node2 -->
<g id="node3" class="node"><title>Node2</title>
<a xlink:href="main__virecorder_8cpp.html" target="_top" xlink:title="applications/recorder/main_virecorder.cpp">
<polygon fill="none" stroke="black" points="-0.5,-0.5 -0.5,-21.5 216.5,-21.5 216.5,-0.5 -0.5,-0.5"/>
<text text-anchor="middle" x="108" y="-8.5" font-family="FreeSans.ttf" font-size="10.00">applications/recorder/main_virecorder.cpp</text>
</a>
</g>
<!-- Node1&#45;&gt;Node2 -->
<g id="edge2" class="edge"><title>Node1&#45;&gt;Node2</title>
<path fill="none" stroke="midnightblue" d="M193.124,-53.9319C173.021,-43.7932 147.01,-30.6748 129.059,-21.6212"/>
<polygon fill="midnightblue" stroke="midnightblue" points="191.67,-57.1185 202.174,-58.4966 194.822,-50.8684 191.67,-57.1185"/>
</g>
<!-- Node3 -->
<g id="node5" class="node"><title>Node3</title>
<a xlink:href="recorderDialog_8cpp.html" target="_top" xlink:title="Implements frame recording dialog based on BaseHostDialog.">
<polygon fill="none" stroke="black" points="233.5,-0.5 233.5,-21.5 444.5,-21.5 444.5,-0.5 233.5,-0.5"/>
<text text-anchor="middle" x="339" y="-8.5" font-family="FreeSans.ttf" font-size="10.00">applications/recorder/recorderDialog.cpp</text>
</a>
</g>
<!-- Node1&#45;&gt;Node3 -->
<g id="edge4" class="edge"><title>Node1&#45;&gt;Node3</title>
<path fill="none" stroke="midnightblue" d="M253.136,-53.9319C273.414,-43.7932 299.65,-30.6748 317.758,-21.6212"/>
<polygon fill="midnightblue" stroke="midnightblue" points="251.386,-50.8939 244.007,-58.4966 254.516,-57.1549 251.386,-50.8939"/>
</g>
</g>
</svg>
