<?xml version="1.0" encoding="UTF-8" standalone="no"?>
<!DOCTYPE svg PUBLIC "-//W3C//DTD SVG 1.1//EN"
 "http://www.w3.org/Graphics/SVG/1.1/DTD/svg11.dtd">
<!-- Generated by graphviz version 2.26.3 (20100126.1600)
 -->
<!-- Title: G Pages: 1 -->
<svg width="233pt" height="146pt"
 viewBox="0.00 0.00 233.00 146.00" xmlns="http://www.w3.org/2000/svg" xmlns:xlink="http://www.w3.org/1999/xlink">
<g id="graph1" class="graph" transform="scale(1 1) rotate(0) translate(4 142)">
<title>G</title>
<!-- Node1 -->
<g id="node1" class="node"><title>Node1</title>
<polygon fill="#bfbfbf" stroke="black" points="6,-116.5 6,-137.5 206,-137.5 206,-116.5 6,-116.5"/>
<text text-anchor="middle" x="106" y="-124.5" font-family="FreeSans.ttf" font-size="10.00">applications/base/layers/resultImage.h</text>
</g>
<!-- Node2 -->
<g id="node3" class="node"><title>Node2</title>
<polygon fill="none" stroke="#bfbfbf" points="-0.5,-58.5 -0.5,-79.5 46.5,-79.5 46.5,-58.5 -0.5,-58.5"/>
<text text-anchor="middle" x="23" y="-66.5" font-family="FreeSans.ttf" font-size="10.00">vector</text>
</g>
<!-- Node1&#45;&gt;Node2 -->
<g id="edge2" class="edge"><title>Node1&#45;&gt;Node2</title>
<path fill="none" stroke="midnightblue" d="M90.7765,-116.362C78.3746,-107.696 60.6542,-95.3126 46.443,-85.3819"/>
<polygon fill="midnightblue" stroke="midnightblue" points="48.3288,-82.4297 38.127,-79.5707 44.3191,-88.1676 48.3288,-82.4297"/>
</g>
<!-- Node3 -->
<g id="node5" class="node"><title>Node3</title>
<polygon fill="none" stroke="#bfbfbf" points="64,-58.5 64,-79.5 148,-79.5 148,-58.5 64,-58.5"/>
<text text-anchor="middle" x="106" y="-66.5" font-family="FreeSans.ttf" font-size="10.00">QtGui/QImage</text>
</g>
<!-- Node1&#45;&gt;Node3 -->
<g id="edge4" class="edge"><title>Node1&#45;&gt;Node3</title>
<path fill="none" stroke="midnightblue" d="M106,-116.362C106,-108.922 106,-98.7427 106,-89.7276"/>
<polygon fill="midnightblue" stroke="midnightblue" points="109.5,-89.5706 106,-79.5707 102.5,-89.5707 109.5,-89.5706"/>
</g>
<!-- Node4 -->
<g id="node7" class="node"><title>Node4</title>
<a xlink:href="global_8h.html" target="_top" xlink:title="This file holds the global includes, mostly for debuging, tracing and profiling.">
<polygon fill="none" stroke="black" points="166,-58.5 166,-79.5 220,-79.5 220,-58.5 166,-58.5"/>
<text text-anchor="middle" x="193" y="-66.5" font-family="FreeSans.ttf" font-size="10.00">global.h</text>
</a>
</g>
<!-- Node1&#45;&gt;Node4 -->
<g id="edge6" class="edge"><title>Node1&#45;&gt;Node4</title>
<path fill="none" stroke="midnightblue" d="M121.957,-116.362C134.957,-107.696 153.531,-95.3126 168.427,-85.3819"/>
<polygon fill="midnightblue" stroke="midnightblue" points="170.765,-88.0299 177.144,-79.5707 166.882,-82.2055 170.765,-88.0299"/>
</g>
<!-- Node5 -->
<g id="node9" class="node"><title>Node5</title>
<polygon fill="none" stroke="#bfbfbf" points="161,-0.5 161,-21.5 225,-21.5 225,-0.5 161,-0.5"/>
<text text-anchor="middle" x="193" y="-8.5" font-family="FreeSans.ttf" font-size="10.00">inttypes.h</text>
</g>
<!-- Node4&#45;&gt;Node5 -->
<g id="edge8" class="edge"><title>Node4&#45;&gt;Node5</title>
<path fill="none" stroke="midnightblue" d="M193,-58.3619C193,-50.9219 193,-40.7427 193,-31.7276"/>
<polygon fill="midnightblue" stroke="midnightblue" points="196.5,-31.5706 193,-21.5707 189.5,-31.5707 196.5,-31.5706"/>
</g>
</g>
</svg>
