<?xml version="1.0" encoding="UTF-8" standalone="no"?>
<!DOCTYPE svg PUBLIC "-//W3C//DTD SVG 1.1//EN"
 "http://www.w3.org/Graphics/SVG/1.1/DTD/svg11.dtd">
<!-- Generated by graphviz version 2.26.3 (20100126.1600)
 -->
<!-- Title: G Pages: 1 -->
<!--zoomable 494 -->
<svg id="main" version="1.1" xmlns="http://www.w3.org/2000/svg" xmlns:xlink="http://www.w3.org/1999/xlink" xml:space="preserve" onload="init(evt)">
        <defs>
                <circle id="rim" cx="0" cy="0" r="7"/>
                <circle id="rim2" cx="0" cy="0" r="3.5"/>
                <g id="zoomPlus">
                        <use xlink:href="#rim" fill="#404040">
                                <set attributeName="fill" to="#808080" begin="zoomplus.mouseover" end="zoomplus.mouseout"/>
                        </use>
                        <path d="M-4,0h8M0,-4v8" fill="none" stroke="white" stroke-width="1.5" pointer-events="none"/>
                </g>
                <g id="zoomMin">
                        <use xlink:href="#rim" fill="#404040">
                                <set attributeName="fill" to="#808080" begin="zoomminus.mouseover" end="zoomminus.mouseout"/>
                        </use>
                        <path d="M-4,0h8" fill="none" stroke="white" stroke-width="1.5" pointer-events="none"/>
                </g>
                <g id="dirArrow">
                        <path fill="none" stroke="white" stroke-width="1.5" d="M0,-3.0v7 M-2.5,-0.5L0,-3.0L2.5,-0.5"/>
                </g>
               <g id="resetDef">
                       <use xlink:href="#rim2" fill="#404040">
                               <set attributeName="fill" to="#808080" begin="reset.mouseover" end="reset.mouseout"/>
                       </use>
               </g>
        </defs>

<script type="text/javascript">
var viewWidth = 670;
var viewHeight = 494;
var sectionId = 'dynsection-0';
</script>
<script xlink:href="svgpan.js"/>
<svg id="graph" class="graph">
<g id="viewport">
<title>G</title>
<!-- Node1 -->
<g id="node1" class="node"><title>Node1</title>
<polygon fill="#bfbfbf" stroke="black" points="-0.5,-464.5 -0.5,-485.5 166.5,-485.5 166.5,-464.5 -0.5,-464.5"/>
<text text-anchor="middle" x="83" y="-472.5" font-family="FreeSans.ttf" font-size="10.00">core/buffers/rgb24/rgbColor.cpp</text>
</g>
<!-- Node2 -->
<g id="node3" class="node"><title>Node2</title>
<a xlink:href="global_8h.html" target="_top" xlink:title="This file holds the global includes, mostly for debuging, tracing and profiling.">
<polygon fill="none" stroke="black" points="113,-58.5 113,-79.5 167,-79.5 167,-58.5 113,-58.5"/>
<text text-anchor="middle" x="140" y="-66.5" font-family="FreeSans.ttf" font-size="10.00">global.h</text>
</a>
</g>
<!-- Node1&#45;&gt;Node2 -->
<g id="edge2" class="edge"><title>Node1&#45;&gt;Node2</title>
<path fill="none" stroke="midnightblue" d="M71.4647,-464.388C52.064,-445.321 15,-403.12 15,-359 15,-359 15,-359 15,-185 15,-136.08 67.0752,-101.985 104.002,-83.9574"/>
<polygon fill="midnightblue" stroke="midnightblue" points="105.921,-86.9233 113.491,-79.5102 102.951,-80.5849 105.921,-86.9233"/>
</g>
<!-- Node4 -->
<g id="node7" class="node"><title>Node4</title>
<a xlink:href="rgbColor_8h.html" target="_top" xlink:title="a header for rgbColor.c">
<polygon fill="none" stroke="black" points="130.5,-406.5 130.5,-427.5 195.5,-427.5 195.5,-406.5 130.5,-406.5"/>
<text text-anchor="middle" x="163" y="-414.5" font-family="FreeSans.ttf" font-size="10.00">rgbColor.h</text>
</a>
</g>
<!-- Node1&#45;&gt;Node4 -->
<g id="edge6" class="edge"><title>Node1&#45;&gt;Node4</title>
<path fill="none" stroke="midnightblue" d="M97.6732,-464.362C109.514,-455.777 126.385,-443.546 140.016,-433.664"/>
<polygon fill="midnightblue" stroke="midnightblue" points="142.378,-436.274 148.42,-427.571 138.269,-430.607 142.378,-436.274"/>
</g>
<!-- Node3 -->
<g id="node5" class="node"><title>Node3</title>
<polygon fill="none" stroke="#bfbfbf" points="108,-0.5 108,-21.5 172,-21.5 172,-0.5 108,-0.5"/>
<text text-anchor="middle" x="140" y="-8.5" font-family="FreeSans.ttf" font-size="10.00">inttypes.h</text>
</g>
<!-- Node2&#45;&gt;Node3 -->
<g id="edge4" class="edge"><title>Node2&#45;&gt;Node3</title>
<path fill="none" stroke="midnightblue" d="M140,-58.3619C140,-50.9219 140,-40.7427 140,-31.7276"/>
<polygon fill="midnightblue" stroke="midnightblue" points="143.5,-31.5706 140,-21.5707 136.5,-31.5707 143.5,-31.5706"/>
</g>
<!-- Node5 -->
<g id="node9" class="node"><title>Node5</title>
<polygon fill="none" stroke="#bfbfbf" points="609.5,-58.5 609.5,-79.5 662.5,-79.5 662.5,-58.5 609.5,-58.5"/>
<text text-anchor="middle" x="636" y="-66.5" font-family="FreeSans.ttf" font-size="10.00">stdint.h</text>
</g>
<!-- Node4&#45;&gt;Node5 -->
<g id="edge8" class="edge"><title>Node4&#45;&gt;Node5</title>
<path fill="none" stroke="midnightblue" d="M195.537,-415.936C301.669,-411.595 631,-390.882 631,-301 631,-301 631,-301 631,-185 631,-151.567 633.099,-112.763 634.577,-89.5824"/>
<polygon fill="midnightblue" stroke="midnightblue" points="638.073,-89.7588 635.241,-79.5495 631.088,-89.2966 638.073,-89.7588"/>
</g>
<!-- Node6 -->
<g id="node11" class="node"><title>Node6</title>
<a xlink:href="fixedVector_8h.html" target="_top" xlink:title="This file holds the description of the commonly used template &#45; a vector with the fixed number of com...">
<polygon fill="none" stroke="black" points="255,-232.5 255,-253.5 333,-253.5 333,-232.5 255,-232.5"/>
<text text-anchor="middle" x="294" y="-240.5" font-family="FreeSans.ttf" font-size="10.00">fixedVector.h</text>
</a>
</g>
<!-- Node4&#45;&gt;Node6 -->
<g id="edge10" class="edge"><title>Node4&#45;&gt;Node6</title>
<path fill="none" stroke="midnightblue" d="M177.548,-406.354C200.306,-388.997 244.368,-352.452 270,-312 279.413,-297.145 285.67,-278.14 289.428,-263.838"/>
<polygon fill="midnightblue" stroke="midnightblue" points="292.867,-264.509 291.826,-253.965 286.065,-262.857 292.867,-264.509"/>
</g>
<!-- Node17 -->
<g id="node37" class="node"><title>Node17</title>
<a xlink:href="vector3d_8h.html" target="_top" xlink:title="A 3 component vector.">
<polygon fill="none" stroke="black" points="129,-348.5 129,-369.5 197,-369.5 197,-348.5 129,-348.5"/>
<text text-anchor="middle" x="163" y="-356.5" font-family="FreeSans.ttf" font-size="10.00">vector3d.h</text>
</a>
</g>
<!-- Node4&#45;&gt;Node17 -->
<g id="edge40" class="edge"><title>Node4&#45;&gt;Node17</title>
<path fill="none" stroke="midnightblue" d="M163,-406.362C163,-398.922 163,-388.743 163,-379.728"/>
<polygon fill="midnightblue" stroke="midnightblue" points="166.5,-379.571 163,-369.571 159.5,-379.571 166.5,-379.571"/>
</g>
<!-- Node19 -->
<g id="node46" class="node"><title>Node19</title>
<a xlink:href="mathUtils_8h.html" target="_top" xlink:title="Add Comment Here.">
<polygon fill="none" stroke="black" points="51,-174.5 51,-195.5 123,-195.5 123,-174.5 51,-174.5"/>
<text text-anchor="middle" x="87" y="-182.5" font-family="FreeSans.ttf" font-size="10.00">mathUtils.h</text>
</a>
</g>
<!-- Node4&#45;&gt;Node19 -->
<g id="edge54" class="edge"><title>Node4&#45;&gt;Node19</title>
<path fill="none" stroke="midnightblue" d="M149.966,-406.443C140.131,-397.728 127.15,-384.477 120,-370 92.8842,-315.098 87.7905,-241.259 87.0029,-205.761"/>
<polygon fill="midnightblue" stroke="midnightblue" points="90.5014,-205.611 86.876,-195.656 83.5019,-205.699 90.5014,-205.611"/>
</g>
<!-- Node7 -->
<g id="node13" class="node"><title>Node7</title>
<polygon fill="none" stroke="#bfbfbf" points="273.5,-58.5 273.5,-79.5 322.5,-79.5 322.5,-58.5 273.5,-58.5"/>
<text text-anchor="middle" x="298" y="-66.5" font-family="FreeSans.ttf" font-size="10.00">stdio.h</text>
</g>
<!-- Node6&#45;&gt;Node7 -->
<g id="edge12" class="edge"><title>Node6&#45;&gt;Node7</title>
<path fill="none" stroke="midnightblue" d="M291.931,-232.224C290.22,-222.73 287.926,-208.505 287,-196 284.222,-158.487 289.982,-114.803 294.167,-89.6787"/>
<polygon fill="midnightblue" stroke="midnightblue" points="297.667,-89.9836 295.943,-79.53 290.771,-88.7771 297.667,-89.9836"/>
</g>
<!-- Node8 -->
<g id="node15" class="node"><title>Node8</title>
<a xlink:href="vectorOperations_8h.html" target="_top" xlink:title="This file holds the operations that are commonly used with continuous linear data structures such as ...">
<polygon fill="none" stroke="black" points="296,-174.5 296,-195.5 404,-195.5 404,-174.5 296,-174.5"/>
<text text-anchor="middle" x="350" y="-182.5" font-family="FreeSans.ttf" font-size="10.00">vectorOperations.h</text>
</a>
</g>
<!-- Node6&#45;&gt;Node8 -->
<g id="edge14" class="edge"><title>Node6&#45;&gt;Node8</title>
<path fill="none" stroke="midnightblue" d="M304.271,-232.362C312.244,-224.104 323.475,-212.472 332.811,-202.803"/>
<polygon fill="midnightblue" stroke="midnightblue" points="335.366,-205.196 339.794,-195.571 330.33,-200.334 335.366,-205.196"/>
</g>
<!-- Node8&#45;&gt;Node7 -->
<g id="edge20" class="edge"><title>Node8&#45;&gt;Node7</title>
<path fill="none" stroke="midnightblue" d="M342.669,-174.141C336.596,-164.831 328.017,-150.914 322,-138 314.573,-122.059 308.151,-103.145 303.824,-89.1539"/>
<polygon fill="midnightblue" stroke="midnightblue" points="307.167,-88.1182 300.941,-79.5457 300.462,-90.1298 307.167,-88.1182"/>
</g>
<!-- Node9 -->
<g id="node17" class="node"><title>Node9</title>
<polygon fill="none" stroke="#bfbfbf" points="331,-116.5 331,-137.5 373,-137.5 373,-116.5 331,-116.5"/>
<text text-anchor="middle" x="352" y="-124.5" font-family="FreeSans.ttf" font-size="10.00">limits</text>
</g>
<!-- Node8&#45;&gt;Node9 -->
<g id="edge16" class="edge"><title>Node8&#45;&gt;Node9</title>
<path fill="none" stroke="midnightblue" d="M350.367,-174.362C350.623,-166.922 350.974,-156.743 351.285,-147.728"/>
<polygon fill="midnightblue" stroke="midnightblue" points="354.789,-147.685 351.635,-137.571 347.793,-147.444 354.789,-147.685"/>
</g>
<!-- Node10 -->
<g id="node19" class="node"><title>Node10</title>
<polygon fill="none" stroke="#bfbfbf" points="390.5,-116.5 390.5,-137.5 449.5,-137.5 449.5,-116.5 390.5,-116.5"/>
<text text-anchor="middle" x="420" y="-124.5" font-family="FreeSans.ttf" font-size="10.00">iostream</text>
</g>
<!-- Node8&#45;&gt;Node10 -->
<g id="edge18" class="edge"><title>Node8&#45;&gt;Node10</title>
<path fill="none" stroke="midnightblue" d="M362.839,-174.362C373.002,-165.941 387.401,-154.011 399.204,-144.231"/>
<polygon fill="midnightblue" stroke="midnightblue" points="401.775,-146.646 407.242,-137.571 397.309,-141.256 401.775,-146.646"/>
</g>
<!-- Node11 -->
<g id="node22" class="node"><title>Node11</title>
<polygon fill="none" stroke="#bfbfbf" points="148.5,-116.5 148.5,-137.5 199.5,-137.5 199.5,-116.5 148.5,-116.5"/>
<text text-anchor="middle" x="174" y="-124.5" font-family="FreeSans.ttf" font-size="10.00">math.h</text>
</g>
<!-- Node8&#45;&gt;Node11 -->
<g id="edge22" class="edge"><title>Node8&#45;&gt;Node11</title>
<path fill="none" stroke="midnightblue" d="M318.128,-174.497C287.468,-164.393 241.209,-149.148 209.414,-138.67"/>
<polygon fill="midnightblue" stroke="midnightblue" points="210.23,-135.254 199.637,-135.448 208.039,-141.903 210.23,-135.254"/>
</g>
<!-- Node12 -->
<g id="node24" class="node"><title>Node12</title>
<a xlink:href="reflection_8h.html" target="_top" xlink:title="a header for Reflection.c">
<polygon fill="none" stroke="black" points="467,-116.5 467,-137.5 537,-137.5 537,-116.5 467,-116.5"/>
<text text-anchor="middle" x="502" y="-124.5" font-family="FreeSans.ttf" font-size="10.00">reflection.h</text>
</a>
</g>
<!-- Node8&#45;&gt;Node12 -->
<g id="edge24" class="edge"><title>Node8&#45;&gt;Node12</title>
<path fill="none" stroke="midnightblue" d="M377.526,-174.497C401.984,-165.164 437.938,-151.445 464.924,-141.147"/>
<polygon fill="midnightblue" stroke="midnightblue" points="466.327,-144.358 474.422,-137.523 463.832,-137.818 466.327,-144.358"/>
</g>
<!-- Node12&#45;&gt;Node2 -->
<g id="edge38" class="edge"><title>Node12&#45;&gt;Node2</title>
<path fill="none" stroke="midnightblue" d="M466.526,-117.814C463.649,-117.166 460.78,-116.552 458,-116 357.301,-96.0212 237.122,-80.4865 177.455,-73.3251"/>
<polygon fill="midnightblue" stroke="midnightblue" points="177.723,-69.8323 167.379,-72.1266 176.896,-76.7833 177.723,-69.8323"/>
</g>
<!-- Node12&#45;&gt;Node5 -->
<g id="edge34" class="edge"><title>Node12&#45;&gt;Node5</title>
<path fill="none" stroke="midnightblue" d="M526.266,-116.497C547.478,-107.315 578.498,-93.8889 602.15,-83.6516"/>
<polygon fill="midnightblue" stroke="midnightblue" points="603.674,-86.8055 611.461,-79.6212 600.894,-80.3815 603.674,-86.8055"/>
</g>
<!-- Node12&#45;&gt;Node7 -->
<g id="edge32" class="edge"><title>Node12&#45;&gt;Node7</title>
<path fill="none" stroke="midnightblue" d="M466.8,-117.914C434.149,-109.356 384.002,-95.8837 332.458,-80.3546"/>
<polygon fill="midnightblue" stroke="midnightblue" points="333.406,-76.9849 322.821,-77.4317 331.374,-83.6836 333.406,-76.9849"/>
</g>
<!-- Node13 -->
<g id="node26" class="node"><title>Node13</title>
<polygon fill="none" stroke="#bfbfbf" points="339.5,-58.5 339.5,-79.5 386.5,-79.5 386.5,-58.5 339.5,-58.5"/>
<text text-anchor="middle" x="363" y="-66.5" font-family="FreeSans.ttf" font-size="10.00">vector</text>
</g>
<!-- Node12&#45;&gt;Node13 -->
<g id="edge26" class="edge"><title>Node12&#45;&gt;Node13</title>
<path fill="none" stroke="midnightblue" d="M476.828,-116.497C454.174,-107.044 420.737,-93.0915 395.958,-82.7524"/>
<polygon fill="midnightblue" stroke="midnightblue" points="397.171,-79.4659 386.594,-78.8451 394.475,-85.9261 397.171,-79.4659"/>
</g>
<!-- Node14 -->
<g id="node28" class="node"><title>Node14</title>
<polygon fill="none" stroke="#bfbfbf" points="404,-58.5 404,-79.5 448,-79.5 448,-58.5 404,-58.5"/>
<text text-anchor="middle" x="426" y="-66.5" font-family="FreeSans.ttf" font-size="10.00">string</text>
</g>
<!-- Node12&#45;&gt;Node14 -->
<g id="edge28" class="edge"><title>Node12&#45;&gt;Node14</title>
<path fill="none" stroke="midnightblue" d="M488.06,-116.362C476.812,-107.777 460.784,-95.5459 447.835,-85.6636"/>
<polygon fill="midnightblue" stroke="midnightblue" points="449.924,-82.8551 439.851,-79.5707 445.677,-88.4198 449.924,-82.8551"/>
</g>
<!-- Node15 -->
<g id="node30" class="node"><title>Node15</title>
<polygon fill="none" stroke="#bfbfbf" points="465.5,-58.5 465.5,-79.5 518.5,-79.5 518.5,-58.5 465.5,-58.5"/>
<text text-anchor="middle" x="492" y="-66.5" font-family="FreeSans.ttf" font-size="10.00">string.h</text>
</g>
<!-- Node12&#45;&gt;Node15 -->
<g id="edge30" class="edge"><title>Node12&#45;&gt;Node15</title>
<path fill="none" stroke="midnightblue" d="M500.166,-116.362C498.869,-108.84 497.089,-98.5187 495.523,-89.4308"/>
<polygon fill="midnightblue" stroke="midnightblue" points="498.971,-88.8306 493.823,-79.5707 492.073,-90.02 498.971,-88.8306"/>
</g>
<!-- Node16 -->
<g id="node34" class="node"><title>Node16</title>
<polygon fill="none" stroke="#bfbfbf" points="536,-58.5 536,-79.5 592,-79.5 592,-58.5 536,-58.5"/>
<text text-anchor="middle" x="564" y="-66.5" font-family="FreeSans.ttf" font-size="10.00">stdarg.h</text>
</g>
<!-- Node12&#45;&gt;Node16 -->
<g id="edge36" class="edge"><title>Node12&#45;&gt;Node16</title>
<path fill="none" stroke="midnightblue" d="M513.372,-116.362C522.286,-108.023 534.879,-96.2418 545.276,-86.5162"/>
<polygon fill="midnightblue" stroke="midnightblue" points="547.789,-88.9582 552.7,-79.5707 543.007,-83.8463 547.789,-88.9582"/>
</g>
<!-- Node17&#45;&gt;Node11 -->
<g id="edge42" class="edge"><title>Node17&#45;&gt;Node11</title>
<path fill="none" stroke="midnightblue" d="M163.501,-348.429C165.198,-312.648 170.744,-195.663 173.016,-147.748"/>
<polygon fill="midnightblue" stroke="midnightblue" points="176.518,-147.788 173.496,-137.634 169.526,-147.456 176.518,-147.788"/>
</g>
<!-- Node18 -->
<g id="node40" class="node"><title>Node18</title>
<a xlink:href="vector2d_8h.html" target="_top" xlink:title="Add Comment Here.">
<polygon fill="none" stroke="black" points="193,-290.5 193,-311.5 261,-311.5 261,-290.5 193,-290.5"/>
<text text-anchor="middle" x="227" y="-298.5" font-family="FreeSans.ttf" font-size="10.00">vector2d.h</text>
</a>
</g>
<!-- Node17&#45;&gt;Node18 -->
<g id="edge44" class="edge"><title>Node17&#45;&gt;Node18</title>
<path fill="none" stroke="midnightblue" d="M174.739,-348.362C183.941,-340.023 196.94,-328.242 207.672,-318.516"/>
<polygon fill="midnightblue" stroke="midnightblue" points="210.276,-320.879 215.336,-311.571 205.576,-315.692 210.276,-320.879"/>
</g>
<!-- Node18&#45;&gt;Node2 -->
<g id="edge50" class="edge"><title>Node18&#45;&gt;Node2</title>
<path fill="none" stroke="midnightblue" d="M228.788,-290.455C233.279,-260.632 242.356,-174.079 208,-116 200.121,-102.681 186.816,-92.244 174.053,-84.6237"/>
<polygon fill="midnightblue" stroke="midnightblue" points="175.383,-81.3595 164.94,-79.5719 171.989,-87.4817 175.383,-81.3595"/>
</g>
<!-- Node18&#45;&gt;Node5 -->
<g id="edge48" class="edge"><title>Node18&#45;&gt;Node5</title>
<path fill="none" stroke="midnightblue" d="M255.805,-290.415C279.341,-281.485 313.292,-267.957 342,-254 435.802,-208.398 459.076,-195.643 546,-138 570.677,-121.636 597.42,-100.685 615.286,-86.1849"/>
<polygon fill="midnightblue" stroke="midnightblue" points="617.771,-88.6738 623.295,-79.633 613.339,-83.2557 617.771,-88.6738"/>
</g>
<!-- Node18&#45;&gt;Node6 -->
<g id="edge52" class="edge"><title>Node18&#45;&gt;Node6</title>
<path fill="none" stroke="midnightblue" d="M239.289,-290.362C249.017,-281.941 262.798,-270.011 274.095,-260.231"/>
<polygon fill="midnightblue" stroke="midnightblue" points="276.519,-262.762 281.789,-253.571 271.938,-257.469 276.519,-262.762"/>
</g>
<!-- Node18&#45;&gt;Node11 -->
<g id="edge46" class="edge"><title>Node18&#45;&gt;Node11</title>
<path fill="none" stroke="midnightblue" d="M223.764,-290.377C215.173,-262.172 191.67,-185.012 180.311,-147.72"/>
<polygon fill="midnightblue" stroke="midnightblue" points="183.591,-146.474 177.329,-137.928 176.894,-148.514 183.591,-146.474"/>
</g>
<!-- Node19&#45;&gt;Node2 -->
<g id="edge58" class="edge"><title>Node19&#45;&gt;Node2</title>
<path fill="none" stroke="midnightblue" d="M80.3196,-174.111C72.583,-159.978 62.0931,-134.89 72,-116 79.0798,-102.5 91.9911,-92.1118 104.676,-84.5768"/>
<polygon fill="midnightblue" stroke="midnightblue" points="106.694,-87.4621 113.786,-79.5907 103.333,-81.3217 106.694,-87.4621"/>
</g>
<!-- Node19&#45;&gt;Node11 -->
<g id="edge56" class="edge"><title>Node19&#45;&gt;Node11</title>
<path fill="none" stroke="midnightblue" d="M102.957,-174.362C115.957,-165.696 134.531,-153.313 149.427,-143.382"/>
<polygon fill="midnightblue" stroke="midnightblue" points="151.765,-146.03 158.144,-137.571 147.882,-140.206 151.765,-146.03"/>
</g>
<!-- Node20 -->
<g id="node50" class="node"><title>Node20</title>
<polygon fill="none" stroke="#bfbfbf" points="80.5,-116.5 80.5,-137.5 131.5,-137.5 131.5,-116.5 80.5,-116.5"/>
<text text-anchor="middle" x="106" y="-124.5" font-family="FreeSans.ttf" font-size="10.00">stdlib.h</text>
</g>
<!-- Node19&#45;&gt;Node20 -->
<g id="edge60" class="edge"><title>Node19&#45;&gt;Node20</title>
<path fill="none" stroke="midnightblue" d="M90.4849,-174.362C92.9757,-166.758 96.4037,-156.294 99.4041,-147.135"/>
<polygon fill="midnightblue" stroke="midnightblue" points="102.75,-148.163 102.537,-137.571 96.098,-145.984 102.75,-148.163"/>
</g>
</g>
</svg>
        <g id="navigator" transform="translate(0 0)" fill="#404254">
                <rect fill="#f2f5e9" fill-opacity="0.5" stroke="#606060" stroke-width=".5" x="0" y="0" width="60" height="60"/>
                <use id="zoomplus" xlink:href="#zoomPlus" x="17" y="9" onmousedown="handleZoom(evt,'in')"/>
                <use id="zoomminus" xlink:href="#zoomMin" x="42" y="9" onmousedown="handleZoom(evt,'out')"/>
                <use id="reset" xlink:href="#resetDef" x="30" y="36" onmousedown="handleReset()"/>
                <g id="arrowUp" xlink:href="#dirArrow" transform="translate(30 24)" onmousedown="handlePan(0,-1)">
                  <use xlink:href="#rim" fill="#404040">
                        <set attributeName="fill" to="#808080" begin="arrowUp.mouseover" end="arrowUp.mouseout"/>
                  </use>
                  <path fill="none" stroke="white" stroke-width="1.5" d="M0,-3.0v7 M-2.5,-0.5L0,-3.0L2.5,-0.5"/>
                </g>
                <g id="arrowRight" xlink:href="#dirArrow" transform="rotate(90) translate(36 -43)" onmousedown="handlePan(1,0)">
                  <use xlink:href="#rim" fill="#404040">
                        <set attributeName="fill" to="#808080" begin="arrowRight.mouseover" end="arrowRight.mouseout"/>
                  </use>
                  <path fill="none" stroke="white" stroke-width="1.5" d="M0,-3.0v7 M-2.5,-0.5L0,-3.0L2.5,-0.5"/>
                </g>
                <g id="arrowDown" xlink:href="#dirArrow" transform="rotate(180) translate(-30 -48)" onmousedown="handlePan(0,1)">
                  <use xlink:href="#rim" fill="#404040">
                        <set attributeName="fill" to="#808080" begin="arrowDown.mouseover" end="arrowDown.mouseout"/>
                  </use>
                  <path fill="none" stroke="white" stroke-width="1.5" d="M0,-3.0v7 M-2.5,-0.5L0,-3.0L2.5,-0.5"/>
                </g>
                <g id="arrowLeft" xlink:href="#dirArrow" transform="rotate(270) translate(-36 17)" onmousedown="handlePan(-1,0)">
                  <use xlink:href="#rim" fill="#404040">
                        <set attributeName="fill" to="#808080" begin="arrowLeft.mouseover" end="arrowLeft.mouseout"/>
                  </use>
                  <path fill="none" stroke="white" stroke-width="1.5" d="M0,-3.0v7 M-2.5,-0.5L0,-3.0L2.5,-0.5"/>
                </g>
        </g>
</svg>
