<?xml version="1.0" encoding="UTF-8" standalone="no"?>
<!DOCTYPE svg PUBLIC "-//W3C//DTD SVG 1.1//EN"
 "http://www.w3.org/Graphics/SVG/1.1/DTD/svg11.dtd">
<!-- Generated by graphviz version 2.26.3 (20100126.1600)
 -->
<!-- Title: G Pages: 1 -->
<!--zoomable 436 -->
<svg id="main" version="1.1" xmlns="http://www.w3.org/2000/svg" xmlns:xlink="http://www.w3.org/1999/xlink" xml:space="preserve" onload="init(evt)">
        <defs>
                <circle id="rim" cx="0" cy="0" r="7"/>
                <circle id="rim2" cx="0" cy="0" r="3.5"/>
                <g id="zoomPlus">
                        <use xlink:href="#rim" fill="#404040">
                                <set attributeName="fill" to="#808080" begin="zoomplus.mouseover" end="zoomplus.mouseout"/>
                        </use>
                        <path d="M-4,0h8M0,-4v8" fill="none" stroke="white" stroke-width="1.5" pointer-events="none"/>
                </g>
                <g id="zoomMin">
                        <use xlink:href="#rim" fill="#404040">
                                <set attributeName="fill" to="#808080" begin="zoomminus.mouseover" end="zoomminus.mouseout"/>
                        </use>
                        <path d="M-4,0h8" fill="none" stroke="white" stroke-width="1.5" pointer-events="none"/>
                </g>
                <g id="dirArrow">
                        <path fill="none" stroke="white" stroke-width="1.5" d="M0,-3.0v7 M-2.5,-0.5L0,-3.0L2.5,-0.5"/>
                </g>
               <g id="resetDef">
                       <use xlink:href="#rim2" fill="#404040">
                               <set attributeName="fill" to="#808080" begin="reset.mouseover" end="reset.mouseout"/>
                       </use>
               </g>
        </defs>

<script type="text/javascript">
var viewWidth = 621;
var viewHeight = 436;
var sectionId = 'dynsection-0';
</script>
<script xlink:href="svgpan.js"/>
<svg id="graph" class="graph">
<g id="viewport">
<title>G</title>
<!-- Node1 -->
<g id="node1" class="node"><title>Node1</title>
<polygon fill="#bfbfbf" stroke="black" points="309,-406.5 309,-427.5 465,-427.5 465,-406.5 309,-406.5"/>
<text text-anchor="middle" x="387" y="-414.5" font-family="FreeSans.ttf" font-size="10.00">core/buffers/rgb24/rgbColor.h</text>
</g>
<!-- Node2 -->
<g id="node3" class="node"><title>Node2</title>
<polygon fill="none" stroke="#bfbfbf" points="335.5,-58.5 335.5,-79.5 388.5,-79.5 388.5,-58.5 335.5,-58.5"/>
<text text-anchor="middle" x="362" y="-66.5" font-family="FreeSans.ttf" font-size="10.00">stdint.h</text>
</g>
<!-- Node1&#45;&gt;Node2 -->
<g id="edge2" class="edge"><title>Node1&#45;&gt;Node2</title>
<path fill="none" stroke="midnightblue" d="M381.688,-406.43C372.125,-386.397 353,-341.293 353,-301 353,-301 353,-301 353,-185 353,-151.497 356.778,-112.715 359.438,-89.5566"/>
<polygon fill="midnightblue" stroke="midnightblue" points="362.925,-89.8789 360.633,-79.5349 355.974,-89.0502 362.925,-89.8789"/>
</g>
<!-- Node3 -->
<g id="node5" class="node"><title>Node3</title>
<a xlink:href="fixedVector_8h.html" target="_top" xlink:title="This file holds the description of the commonly used template &#45; a vector with the fixed number of com...">
<polygon fill="none" stroke="black" points="218,-232.5 218,-253.5 296,-253.5 296,-232.5 218,-232.5"/>
<text text-anchor="middle" x="257" y="-240.5" font-family="FreeSans.ttf" font-size="10.00">fixedVector.h</text>
</a>
</g>
<!-- Node1&#45;&gt;Node3 -->
<g id="edge4" class="edge"><title>Node1&#45;&gt;Node3</title>
<path fill="none" stroke="midnightblue" d="M374.817,-406.469C364.641,-397.359 350.063,-383.552 339,-370 310.008,-334.485 282.402,-288.305 267.789,-262.551"/>
<polygon fill="midnightblue" stroke="midnightblue" points="270.794,-260.754 262.849,-253.746 264.689,-264.179 270.794,-260.754"/>
</g>
<!-- Node16 -->
<g id="node34" class="node"><title>Node16</title>
<a xlink:href="vector3d_8h.html" target="_top" xlink:title="A 3 component vector.">
<polygon fill="none" stroke="black" points="388,-348.5 388,-369.5 456,-369.5 456,-348.5 388,-348.5"/>
<text text-anchor="middle" x="422" y="-356.5" font-family="FreeSans.ttf" font-size="10.00">vector3d.h</text>
</a>
</g>
<!-- Node1&#45;&gt;Node16 -->
<g id="edge36" class="edge"><title>Node1&#45;&gt;Node16</title>
<path fill="none" stroke="midnightblue" d="M393.42,-406.362C398.156,-398.513 404.732,-387.616 410.382,-378.253"/>
<polygon fill="midnightblue" stroke="midnightblue" points="413.451,-379.941 415.621,-369.571 407.458,-376.324 413.451,-379.941"/>
</g>
<!-- Node18 -->
<g id="node43" class="node"><title>Node18</title>
<a xlink:href="mathUtils_8h.html" target="_top" xlink:title="Add Comment Here.">
<polygon fill="none" stroke="black" points="533,-174.5 533,-195.5 605,-195.5 605,-174.5 533,-174.5"/>
<text text-anchor="middle" x="569" y="-182.5" font-family="FreeSans.ttf" font-size="10.00">mathUtils.h</text>
</a>
</g>
<!-- Node1&#45;&gt;Node18 -->
<g id="edge50" class="edge"><title>Node1&#45;&gt;Node18</title>
<path fill="none" stroke="midnightblue" d="M411.396,-406.405C428.016,-398.273 449.697,-385.772 465,-370 513.806,-319.698 547.503,-242.006 561.597,-205.402"/>
<polygon fill="midnightblue" stroke="midnightblue" points="564.953,-206.421 565.193,-195.829 558.4,-203.959 564.953,-206.421"/>
</g>
<!-- Node4 -->
<g id="node7" class="node"><title>Node4</title>
<polygon fill="none" stroke="#bfbfbf" points="-0.5,-58.5 -0.5,-79.5 48.5,-79.5 48.5,-58.5 -0.5,-58.5"/>
<text text-anchor="middle" x="24" y="-66.5" font-family="FreeSans.ttf" font-size="10.00">stdio.h</text>
</g>
<!-- Node3&#45;&gt;Node4 -->
<g id="edge6" class="edge"><title>Node3&#45;&gt;Node4</title>
<path fill="none" stroke="midnightblue" d="M231.154,-232.388C193.583,-216.084 123.029,-182.082 74,-138 58.1174,-123.72 44.2464,-103.601 35.1697,-88.7707"/>
<polygon fill="midnightblue" stroke="midnightblue" points="38.0281,-86.7283 29.9243,-79.9034 32.0033,-90.2923 38.0281,-86.7283"/>
</g>
<!-- Node5 -->
<g id="node9" class="node"><title>Node5</title>
<a xlink:href="vectorOperations_8h.html" target="_top" xlink:title="This file holds the operations that are commonly used with continuous linear data structures such as ...">
<polygon fill="none" stroke="black" points="188,-174.5 188,-195.5 296,-195.5 296,-174.5 188,-174.5"/>
<text text-anchor="middle" x="242" y="-182.5" font-family="FreeSans.ttf" font-size="10.00">vectorOperations.h</text>
</a>
</g>
<!-- Node3&#45;&gt;Node5 -->
<g id="edge8" class="edge"><title>Node3&#45;&gt;Node5</title>
<path fill="none" stroke="midnightblue" d="M254.249,-232.362C252.303,-224.84 249.634,-214.519 247.284,-205.431"/>
<polygon fill="midnightblue" stroke="midnightblue" points="250.626,-204.376 244.734,-195.571 243.849,-206.128 250.626,-204.376"/>
</g>
<!-- Node5&#45;&gt;Node4 -->
<g id="edge14" class="edge"><title>Node5&#45;&gt;Node4</title>
<path fill="none" stroke="midnightblue" d="M201.518,-174.417C174.597,-166.472 138.994,-154.184 110,-138 84.432,-123.728 58.7135,-101.876 42.1533,-86.5981"/>
<polygon fill="midnightblue" stroke="midnightblue" points="44.4843,-83.9857 34.8002,-79.6882 39.6907,-89.0868 44.4843,-83.9857"/>
</g>
<!-- Node6 -->
<g id="node11" class="node"><title>Node6</title>
<polygon fill="none" stroke="#bfbfbf" points="207,-116.5 207,-137.5 249,-137.5 249,-116.5 207,-116.5"/>
<text text-anchor="middle" x="228" y="-124.5" font-family="FreeSans.ttf" font-size="10.00">limits</text>
</g>
<!-- Node5&#45;&gt;Node6 -->
<g id="edge10" class="edge"><title>Node5&#45;&gt;Node6</title>
<path fill="none" stroke="midnightblue" d="M239.432,-174.362C237.617,-166.84 235.125,-156.519 232.932,-147.431"/>
<polygon fill="midnightblue" stroke="midnightblue" points="236.3,-146.47 230.552,-137.571 229.496,-148.113 236.3,-146.47"/>
</g>
<!-- Node7 -->
<g id="node13" class="node"><title>Node7</title>
<polygon fill="none" stroke="#bfbfbf" points="266.5,-116.5 266.5,-137.5 325.5,-137.5 325.5,-116.5 266.5,-116.5"/>
<text text-anchor="middle" x="296" y="-124.5" font-family="FreeSans.ttf" font-size="10.00">iostream</text>
</g>
<!-- Node5&#45;&gt;Node7 -->
<g id="edge12" class="edge"><title>Node5&#45;&gt;Node7</title>
<path fill="none" stroke="midnightblue" d="M251.904,-174.362C259.516,-166.186 270.208,-154.702 279.157,-145.091"/>
<polygon fill="midnightblue" stroke="midnightblue" points="281.906,-147.275 286.158,-137.571 276.783,-142.505 281.906,-147.275"/>
</g>
<!-- Node8 -->
<g id="node16" class="node"><title>Node8</title>
<polygon fill="none" stroke="#bfbfbf" points="456.5,-116.5 456.5,-137.5 507.5,-137.5 507.5,-116.5 456.5,-116.5"/>
<text text-anchor="middle" x="482" y="-124.5" font-family="FreeSans.ttf" font-size="10.00">math.h</text>
</g>
<!-- Node5&#45;&gt;Node8 -->
<g id="edge16" class="edge"><title>Node5&#45;&gt;Node8</title>
<path fill="none" stroke="midnightblue" d="M285.462,-174.497C331.51,-163.368 403.365,-146.003 446.249,-135.64"/>
<polygon fill="midnightblue" stroke="midnightblue" points="447.337,-138.978 456.235,-133.227 445.692,-132.174 447.337,-138.978"/>
</g>
<!-- Node9 -->
<g id="node18" class="node"><title>Node9</title>
<a xlink:href="reflection_8h.html" target="_top" xlink:title="a header for Reflection.c">
<polygon fill="none" stroke="black" points="119,-116.5 119,-137.5 189,-137.5 189,-116.5 119,-116.5"/>
<text text-anchor="middle" x="154" y="-124.5" font-family="FreeSans.ttf" font-size="10.00">reflection.h</text>
</a>
</g>
<!-- Node5&#45;&gt;Node9 -->
<g id="edge18" class="edge"><title>Node5&#45;&gt;Node9</title>
<path fill="none" stroke="midnightblue" d="M225.859,-174.362C212.586,-165.614 193.568,-153.079 178.43,-143.101"/>
<polygon fill="midnightblue" stroke="midnightblue" points="180.314,-140.151 170.038,-137.571 176.462,-145.996 180.314,-140.151"/>
</g>
<!-- Node9&#45;&gt;Node2 -->
<g id="edge28" class="edge"><title>Node9&#45;&gt;Node2</title>
<path fill="none" stroke="midnightblue" d="M189.236,-117.861C222.221,-109.209 273.105,-95.6191 325.486,-80.3801"/>
<polygon fill="midnightblue" stroke="midnightblue" points="326.664,-83.6822 335.28,-77.5163 324.699,-76.9636 326.664,-83.6822"/>
</g>
<!-- Node9&#45;&gt;Node4 -->
<g id="edge26" class="edge"><title>Node9&#45;&gt;Node4</title>
<path fill="none" stroke="midnightblue" d="M130.458,-116.497C109.971,-107.356 80.0528,-94.0082 57.1461,-83.7883"/>
<polygon fill="midnightblue" stroke="midnightblue" points="58.3646,-80.4994 47.8062,-79.6212 55.5124,-86.892 58.3646,-80.4994"/>
</g>
<!-- Node10 -->
<g id="node20" class="node"><title>Node10</title>
<polygon fill="none" stroke="#bfbfbf" points="271.5,-58.5 271.5,-79.5 318.5,-79.5 318.5,-58.5 271.5,-58.5"/>
<text text-anchor="middle" x="295" y="-66.5" font-family="FreeSans.ttf" font-size="10.00">vector</text>
</g>
<!-- Node9&#45;&gt;Node10 -->
<g id="edge20" class="edge"><title>Node9&#45;&gt;Node10</title>
<path fill="none" stroke="midnightblue" d="M179.534,-116.497C202.514,-107.044 236.433,-93.0915 261.567,-82.7524"/>
<polygon fill="midnightblue" stroke="midnightblue" points="263.15,-85.8862 271.066,-78.8451 260.487,-79.4125 263.15,-85.8862"/>
</g>
<!-- Node11 -->
<g id="node22" class="node"><title>Node11</title>
<polygon fill="none" stroke="#bfbfbf" points="66,-58.5 66,-79.5 110,-79.5 110,-58.5 66,-58.5"/>
<text text-anchor="middle" x="88" y="-66.5" font-family="FreeSans.ttf" font-size="10.00">string</text>
</g>
<!-- Node9&#45;&gt;Node11 -->
<g id="edge22" class="edge"><title>Node9&#45;&gt;Node11</title>
<path fill="none" stroke="midnightblue" d="M141.895,-116.362C132.312,-107.941 118.736,-96.0105 107.607,-86.2308"/>
<polygon fill="midnightblue" stroke="midnightblue" points="109.851,-83.5427 100.029,-79.5707 105.23,-88.8009 109.851,-83.5427"/>
</g>
<!-- Node12 -->
<g id="node24" class="node"><title>Node12</title>
<polygon fill="none" stroke="#bfbfbf" points="127.5,-58.5 127.5,-79.5 180.5,-79.5 180.5,-58.5 127.5,-58.5"/>
<text text-anchor="middle" x="154" y="-66.5" font-family="FreeSans.ttf" font-size="10.00">string.h</text>
</g>
<!-- Node9&#45;&gt;Node12 -->
<g id="edge24" class="edge"><title>Node9&#45;&gt;Node12</title>
<path fill="none" stroke="midnightblue" d="M154,-116.362C154,-108.922 154,-98.7427 154,-89.7276"/>
<polygon fill="midnightblue" stroke="midnightblue" points="157.5,-89.5706 154,-79.5707 150.5,-89.5707 157.5,-89.5706"/>
</g>
<!-- Node13 -->
<g id="node28" class="node"><title>Node13</title>
<polygon fill="none" stroke="#bfbfbf" points="198,-58.5 198,-79.5 254,-79.5 254,-58.5 198,-58.5"/>
<text text-anchor="middle" x="226" y="-66.5" font-family="FreeSans.ttf" font-size="10.00">stdarg.h</text>
</g>
<!-- Node9&#45;&gt;Node13 -->
<g id="edge30" class="edge"><title>Node9&#45;&gt;Node13</title>
<path fill="none" stroke="midnightblue" d="M167.206,-116.362C177.761,-107.859 192.758,-95.7785 204.963,-85.9466"/>
<polygon fill="midnightblue" stroke="midnightblue" points="207.286,-88.5696 212.878,-79.5707 202.895,-83.1183 207.286,-88.5696"/>
</g>
<!-- Node14 -->
<g id="node30" class="node"><title>Node14</title>
<a xlink:href="global_8h.html" target="_top" xlink:title="This file holds the global includes, mostly for debuging, tracing and profiling.">
<polygon fill="none" stroke="black" points="406,-58.5 406,-79.5 460,-79.5 460,-58.5 406,-58.5"/>
<text text-anchor="middle" x="433" y="-66.5" font-family="FreeSans.ttf" font-size="10.00">global.h</text>
</a>
</g>
<!-- Node9&#45;&gt;Node14 -->
<g id="edge32" class="edge"><title>Node9&#45;&gt;Node14</title>
<path fill="none" stroke="midnightblue" d="M189.016,-118.025C192.049,-117.315 195.075,-116.63 198,-116 282.779,-97.7549 307.897,-100.911 396.072,-80.0149"/>
<polygon fill="midnightblue" stroke="midnightblue" points="397.064,-83.3761 405.967,-77.6328 395.426,-76.5705 397.064,-83.3761"/>
</g>
<!-- Node15 -->
<g id="node32" class="node"><title>Node15</title>
<polygon fill="none" stroke="#bfbfbf" points="401,-0.5 401,-21.5 465,-21.5 465,-0.5 401,-0.5"/>
<text text-anchor="middle" x="433" y="-8.5" font-family="FreeSans.ttf" font-size="10.00">inttypes.h</text>
</g>
<!-- Node14&#45;&gt;Node15 -->
<g id="edge34" class="edge"><title>Node14&#45;&gt;Node15</title>
<path fill="none" stroke="midnightblue" d="M433,-58.3619C433,-50.9219 433,-40.7427 433,-31.7276"/>
<polygon fill="midnightblue" stroke="midnightblue" points="436.5,-31.5706 433,-21.5707 429.5,-31.5707 436.5,-31.5706"/>
</g>
<!-- Node16&#45;&gt;Node8 -->
<g id="edge38" class="edge"><title>Node16&#45;&gt;Node8</title>
<path fill="none" stroke="midnightblue" d="M435.638,-348.177C445.525,-339.509 458.292,-326.444 465,-312 490.499,-257.097 487.746,-183.258 484.462,-147.761"/>
<polygon fill="midnightblue" stroke="midnightblue" points="487.926,-147.24 483.412,-137.655 480.964,-147.964 487.926,-147.24"/>
</g>
<!-- Node17 -->
<g id="node37" class="node"><title>Node17</title>
<a xlink:href="vector2d_8h.html" target="_top" xlink:title="Add Comment Here.">
<polygon fill="none" stroke="black" points="388,-290.5 388,-311.5 456,-311.5 456,-290.5 388,-290.5"/>
<text text-anchor="middle" x="422" y="-298.5" font-family="FreeSans.ttf" font-size="10.00">vector2d.h</text>
</a>
</g>
<!-- Node16&#45;&gt;Node17 -->
<g id="edge40" class="edge"><title>Node16&#45;&gt;Node17</title>
<path fill="none" stroke="midnightblue" d="M422,-348.362C422,-340.922 422,-330.743 422,-321.728"/>
<polygon fill="midnightblue" stroke="midnightblue" points="425.5,-321.571 422,-311.571 418.5,-321.571 425.5,-321.571"/>
</g>
<!-- Node17&#45;&gt;Node2 -->
<g id="edge44" class="edge"><title>Node17&#45;&gt;Node2</title>
<path fill="none" stroke="midnightblue" d="M419.266,-290.429C409.993,-254.573 379.63,-137.169 367.288,-89.4458"/>
<polygon fill="midnightblue" stroke="midnightblue" points="370.642,-88.4386 364.75,-79.6335 363.865,-90.1913 370.642,-88.4386"/>
</g>
<!-- Node17&#45;&gt;Node3 -->
<g id="edge48" class="edge"><title>Node17&#45;&gt;Node3</title>
<path fill="none" stroke="midnightblue" d="M392.12,-290.497C365.337,-281.082 325.855,-267.204 296.478,-256.877"/>
<polygon fill="midnightblue" stroke="midnightblue" points="297.531,-253.537 286.936,-253.523 295.21,-260.141 297.531,-253.537"/>
</g>
<!-- Node17&#45;&gt;Node8 -->
<g id="edge42" class="edge"><title>Node17&#45;&gt;Node8</title>
<path fill="none" stroke="midnightblue" d="M427.218,-290.329C431.718,-280.903 438.226,-266.718 443,-254 456.838,-217.132 469.565,-172.952 476.508,-147.611"/>
<polygon fill="midnightblue" stroke="midnightblue" points="479.961,-148.251 479.195,-137.684 473.204,-146.422 479.961,-148.251"/>
</g>
<!-- Node17&#45;&gt;Node14 -->
<g id="edge46" class="edge"><title>Node17&#45;&gt;Node14</title>
<path fill="none" stroke="midnightblue" d="M422.501,-290.429C424.198,-254.648 429.744,-137.663 432.016,-89.7481"/>
<polygon fill="midnightblue" stroke="midnightblue" points="435.518,-89.7881 432.496,-79.6335 428.526,-89.4565 435.518,-89.7881"/>
</g>
<!-- Node18&#45;&gt;Node8 -->
<g id="edge52" class="edge"><title>Node18&#45;&gt;Node8</title>
<path fill="none" stroke="midnightblue" d="M553.043,-174.362C540.043,-165.696 521.469,-153.313 506.573,-143.382"/>
<polygon fill="midnightblue" stroke="midnightblue" points="508.118,-140.206 497.856,-137.571 504.235,-146.03 508.118,-140.206"/>
</g>
<!-- Node18&#45;&gt;Node14 -->
<g id="edge54" class="edge"><title>Node18&#45;&gt;Node14</title>
<path fill="none" stroke="midnightblue" d="M562.586,-174.106C553.591,-159.513 536.065,-133.44 516,-116 501.269,-103.196 482.508,-92.2188 466.55,-84.1008"/>
<polygon fill="midnightblue" stroke="midnightblue" points="468.048,-80.9371 457.531,-79.6593 464.956,-87.217 468.048,-80.9371"/>
</g>
<!-- Node19 -->
<g id="node47" class="node"><title>Node19</title>
<polygon fill="none" stroke="#bfbfbf" points="562.5,-116.5 562.5,-137.5 613.5,-137.5 613.5,-116.5 562.5,-116.5"/>
<text text-anchor="middle" x="588" y="-124.5" font-family="FreeSans.ttf" font-size="10.00">stdlib.h</text>
</g>
<!-- Node18&#45;&gt;Node19 -->
<g id="edge56" class="edge"><title>Node18&#45;&gt;Node19</title>
<path fill="none" stroke="midnightblue" d="M572.485,-174.362C574.976,-166.758 578.404,-156.294 581.404,-147.135"/>
<polygon fill="midnightblue" stroke="midnightblue" points="584.75,-148.163 584.537,-137.571 578.098,-145.984 584.75,-148.163"/>
</g>
</g>
</svg>
        <g id="navigator" transform="translate(0 0)" fill="#404254">
                <rect fill="#f2f5e9" fill-opacity="0.5" stroke="#606060" stroke-width=".5" x="0" y="0" width="60" height="60"/>
                <use id="zoomplus" xlink:href="#zoomPlus" x="17" y="9" onmousedown="handleZoom(evt,'in')"/>
                <use id="zoomminus" xlink:href="#zoomMin" x="42" y="9" onmousedown="handleZoom(evt,'out')"/>
                <use id="reset" xlink:href="#resetDef" x="30" y="36" onmousedown="handleReset()"/>
                <g id="arrowUp" xlink:href="#dirArrow" transform="translate(30 24)" onmousedown="handlePan(0,-1)">
                  <use xlink:href="#rim" fill="#404040">
                        <set attributeName="fill" to="#808080" begin="arrowUp.mouseover" end="arrowUp.mouseout"/>
                  </use>
                  <path fill="none" stroke="white" stroke-width="1.5" d="M0,-3.0v7 M-2.5,-0.5L0,-3.0L2.5,-0.5"/>
                </g>
                <g id="arrowRight" xlink:href="#dirArrow" transform="rotate(90) translate(36 -43)" onmousedown="handlePan(1,0)">
                  <use xlink:href="#rim" fill="#404040">
                        <set attributeName="fill" to="#808080" begin="arrowRight.mouseover" end="arrowRight.mouseout"/>
                  </use>
                  <path fill="none" stroke="white" stroke-width="1.5" d="M0,-3.0v7 M-2.5,-0.5L0,-3.0L2.5,-0.5"/>
                </g>
                <g id="arrowDown" xlink:href="#dirArrow" transform="rotate(180) translate(-30 -48)" onmousedown="handlePan(0,1)">
                  <use xlink:href="#rim" fill="#404040">
                        <set attributeName="fill" to="#808080" begin="arrowDown.mouseover" end="arrowDown.mouseout"/>
                  </use>
                  <path fill="none" stroke="white" stroke-width="1.5" d="M0,-3.0v7 M-2.5,-0.5L0,-3.0L2.5,-0.5"/>
                </g>
                <g id="arrowLeft" xlink:href="#dirArrow" transform="rotate(270) translate(-36 17)" onmousedown="handlePan(-1,0)">
                  <use xlink:href="#rim" fill="#404040">
                        <set attributeName="fill" to="#808080" begin="arrowLeft.mouseover" end="arrowLeft.mouseout"/>
                  </use>
                  <path fill="none" stroke="white" stroke-width="1.5" d="M0,-3.0v7 M-2.5,-0.5L0,-3.0L2.5,-0.5"/>
                </g>
        </g>
</svg>
