<?xml version="1.0" encoding="UTF-8" standalone="no"?>
<!DOCTYPE svg PUBLIC "-//W3C//DTD SVG 1.1//EN"
 "http://www.w3.org/Graphics/SVG/1.1/DTD/svg11.dtd">
<!-- Generated by graphviz version 2.26.3 (20100126.1600)
 -->
<!-- Title: G Pages: 1 -->
<svg width="272pt" height="204pt"
 viewBox="0.00 0.00 272.00 204.00" xmlns="http://www.w3.org/2000/svg" xmlns:xlink="http://www.w3.org/1999/xlink">
<g id="graph1" class="graph" transform="scale(1 1) rotate(0) translate(4 200)">
<title>G</title>
<!-- Node1 -->
<g id="node1" class="node"><title>Node1</title>
<polygon fill="#bfbfbf" stroke="black" points="-0.5,-174.5 -0.5,-195.5 238.5,-195.5 238.5,-174.5 -0.5,-174.5"/>
<text text-anchor="middle" x="119" y="-182.5" font-family="FreeSans.ttf" font-size="10.00">core/buffers/kernels/fastkernel/scalarAlgebra.h</text>
</g>
<!-- Node2 -->
<g id="node3" class="node"><title>Node2</title>
<a xlink:href="global_8h.html" target="_top" xlink:title="This file holds the global includes, mostly for debuging, tracing and profiling.">
<polygon fill="none" stroke="black" points="92,-58.5 92,-79.5 146,-79.5 146,-58.5 92,-58.5"/>
<text text-anchor="middle" x="119" y="-66.5" font-family="FreeSans.ttf" font-size="10.00">global.h</text>
</a>
</g>
<!-- Node1&#45;&gt;Node2 -->
<g id="edge2" class="edge"><title>Node1&#45;&gt;Node2</title>
<path fill="none" stroke="midnightblue" d="M100.905,-174.386C88.8181,-166.167 73.9146,-153.57 67,-138 58.2104,-118.208 75.8737,-98.7938 92.9486,-85.6266"/>
<polygon fill="midnightblue" stroke="midnightblue" points="95.1091,-88.3836 101.165,-79.6902 91.0096,-82.7096 95.1091,-88.3836"/>
</g>
<!-- Node4 -->
<g id="node7" class="node"><title>Node4</title>
<a xlink:href="baseAlgebra_8h.html" target="_top" xlink:title="a header for BaseAlgebra.c">
<polygon fill="none" stroke="black" points="76,-116.5 76,-137.5 162,-137.5 162,-116.5 76,-116.5"/>
<text text-anchor="middle" x="119" y="-124.5" font-family="FreeSans.ttf" font-size="10.00">baseAlgebra.h</text>
</a>
</g>
<!-- Node1&#45;&gt;Node4 -->
<g id="edge6" class="edge"><title>Node1&#45;&gt;Node4</title>
<path fill="none" stroke="midnightblue" d="M119,-174.362C119,-166.922 119,-156.743 119,-147.728"/>
<polygon fill="midnightblue" stroke="midnightblue" points="122.5,-147.571 119,-137.571 115.5,-147.571 122.5,-147.571"/>
</g>
<!-- Node5 -->
<g id="node10" class="node"><title>Node5</title>
<a xlink:href="genericMath_8h.html" target="_top" xlink:title="genericMath.h">
<polygon fill="none" stroke="black" points="179.5,-116.5 179.5,-137.5 264.5,-137.5 264.5,-116.5 179.5,-116.5"/>
<text text-anchor="middle" x="222" y="-124.5" font-family="FreeSans.ttf" font-size="10.00">genericMath.h</text>
</a>
</g>
<!-- Node1&#45;&gt;Node5 -->
<g id="edge10" class="edge"><title>Node1&#45;&gt;Node5</title>
<path fill="none" stroke="midnightblue" d="M137.892,-174.362C153.718,-165.45 176.523,-152.609 194.395,-142.545"/>
<polygon fill="midnightblue" stroke="midnightblue" points="196.232,-145.527 203.228,-137.571 192.797,-139.428 196.232,-145.527"/>
</g>
<!-- Node3 -->
<g id="node5" class="node"><title>Node3</title>
<polygon fill="none" stroke="#bfbfbf" points="87,-0.5 87,-21.5 151,-21.5 151,-0.5 87,-0.5"/>
<text text-anchor="middle" x="119" y="-8.5" font-family="FreeSans.ttf" font-size="10.00">inttypes.h</text>
</g>
<!-- Node2&#45;&gt;Node3 -->
<g id="edge4" class="edge"><title>Node2&#45;&gt;Node3</title>
<path fill="none" stroke="midnightblue" d="M119,-58.3619C119,-50.9219 119,-40.7427 119,-31.7276"/>
<polygon fill="midnightblue" stroke="midnightblue" points="122.5,-31.5706 119,-21.5707 115.5,-31.5707 122.5,-31.5706"/>
</g>
<!-- Node4&#45;&gt;Node2 -->
<g id="edge8" class="edge"><title>Node4&#45;&gt;Node2</title>
<path fill="none" stroke="midnightblue" d="M119,-116.362C119,-108.922 119,-98.7427 119,-89.7276"/>
<polygon fill="midnightblue" stroke="midnightblue" points="122.5,-89.5706 119,-79.5707 115.5,-89.5707 122.5,-89.5706"/>
</g>
<!-- Node5&#45;&gt;Node2 -->
<g id="edge14" class="edge"><title>Node5&#45;&gt;Node2</title>
<path fill="none" stroke="midnightblue" d="M203.108,-116.362C187.282,-107.45 164.477,-94.6087 146.605,-84.5447"/>
<polygon fill="midnightblue" stroke="midnightblue" points="148.203,-81.4276 137.772,-79.5707 144.768,-87.5271 148.203,-81.4276"/>
</g>
<!-- Node6 -->
<g id="node12" class="node"><title>Node6</title>
<polygon fill="none" stroke="#bfbfbf" points="195.5,-58.5 195.5,-79.5 248.5,-79.5 248.5,-58.5 195.5,-58.5"/>
<text text-anchor="middle" x="222" y="-66.5" font-family="FreeSans.ttf" font-size="10.00">stdint.h</text>
</g>
<!-- Node5&#45;&gt;Node6 -->
<g id="edge12" class="edge"><title>Node5&#45;&gt;Node6</title>
<path fill="none" stroke="midnightblue" d="M222,-116.362C222,-108.922 222,-98.7427 222,-89.7276"/>
<polygon fill="midnightblue" stroke="midnightblue" points="225.5,-89.5706 222,-79.5707 218.5,-89.5707 225.5,-89.5706"/>
</g>
</g>
</svg>
