<?xml version="1.0" encoding="UTF-8" standalone="no"?>
<!DOCTYPE svg PUBLIC "-//W3C//DTD SVG 1.1//EN"
 "http://www.w3.org/Graphics/SVG/1.1/DTD/svg11.dtd">
<!-- Generated by graphviz version 2.26.3 (20100126.1600)
 -->
<!-- Title: G Pages: 1 -->
<!--zoomable 262 -->
<svg id="main" version="1.1" xmlns="http://www.w3.org/2000/svg" xmlns:xlink="http://www.w3.org/1999/xlink" xml:space="preserve" onload="init(evt)">
        <defs>
                <circle id="rim" cx="0" cy="0" r="7"/>
                <circle id="rim2" cx="0" cy="0" r="3.5"/>
                <g id="zoomPlus">
                        <use xlink:href="#rim" fill="#404040">
                                <set attributeName="fill" to="#808080" begin="zoomplus.mouseover" end="zoomplus.mouseout"/>
                        </use>
                        <path d="M-4,0h8M0,-4v8" fill="none" stroke="white" stroke-width="1.5" pointer-events="none"/>
                </g>
                <g id="zoomMin">
                        <use xlink:href="#rim" fill="#404040">
                                <set attributeName="fill" to="#808080" begin="zoomminus.mouseover" end="zoomminus.mouseout"/>
                        </use>
                        <path d="M-4,0h8" fill="none" stroke="white" stroke-width="1.5" pointer-events="none"/>
                </g>
                <g id="dirArrow">
                        <path fill="none" stroke="white" stroke-width="1.5" d="M0,-3.0v7 M-2.5,-0.5L0,-3.0L2.5,-0.5"/>
                </g>
               <g id="resetDef">
                       <use xlink:href="#rim2" fill="#404040">
                               <set attributeName="fill" to="#808080" begin="reset.mouseover" end="reset.mouseout"/>
                       </use>
               </g>
        </defs>

<script type="text/javascript">
var viewWidth = 1754;
var viewHeight = 262;
var sectionId = 'dynsection-1';
</script>
<script xlink:href="svgpan.js"/>
<svg id="graph" class="graph">
<g id="viewport">
<title>G</title>
<!-- Node1 -->
<g id="node1" class="node"><title>Node1</title>
<polygon fill="#bfbfbf" stroke="black" points="488.5,-232.5 488.5,-253.5 669.5,-253.5 669.5,-232.5 488.5,-232.5"/>
<text text-anchor="middle" x="579" y="-240.5" font-family="FreeSans.ttf" font-size="10.00">core/segmentation/segmentator.h</text>
</g>
<!-- Node2 -->
<g id="node3" class="node"><title>Node2</title>
<a xlink:href="cloudCluster_8h.html" target="_top" xlink:title="core/clustering3d/cloudCluster.h">
<polygon fill="none" stroke="black" points="198,-174.5 198,-195.5 368,-195.5 368,-174.5 198,-174.5"/>
<text text-anchor="middle" x="283" y="-182.5" font-family="FreeSans.ttf" font-size="10.00">core/clustering3d/cloudCluster.h</text>
</a>
</g>
<!-- Node1&#45;&gt;Node2 -->
<g id="edge2" class="edge"><title>Node1&#45;&gt;Node2</title>
<path fill="none" stroke="midnightblue" d="M515.385,-230.535C462.128,-220.099 386.978,-205.374 336.704,-195.523"/>
<polygon fill="midnightblue" stroke="midnightblue" points="514.91,-234.008 525.397,-232.497 516.256,-227.139 514.91,-234.008"/>
</g>
<!-- Node6 -->
<g id="node11" class="node"><title>Node6</title>
<a xlink:href="segmentator_8cpp.html" target="_top" xlink:title="Add Comment Here.">
<polygon fill="none" stroke="black" points="388,-174.5 388,-195.5 580,-195.5 580,-174.5 388,-174.5"/>
<text text-anchor="middle" x="484" y="-182.5" font-family="FreeSans.ttf" font-size="10.00">core/segmentation/segmentator.cpp</text>
</a>
</g>
<!-- Node1&#45;&gt;Node6 -->
<g id="edge10" class="edge"><title>Node1&#45;&gt;Node6</title>
<path fill="none" stroke="midnightblue" d="M552.958,-227.101C536.522,-217.066 515.744,-204.381 501.314,-195.571"/>
<polygon fill="midnightblue" stroke="midnightblue" points="551.217,-230.138 561.576,-232.362 554.864,-224.164 551.217,-230.138"/>
</g>
<!-- Node7 -->
<g id="node13" class="node"><title>Node7</title>
<a xlink:href="tileGrid_8h.html" target="_top" xlink:title="Add Comment Here.">
<polygon fill="none" stroke="black" points="597.5,-174.5 597.5,-195.5 750.5,-195.5 750.5,-174.5 597.5,-174.5"/>
<text text-anchor="middle" x="674" y="-182.5" font-family="FreeSans.ttf" font-size="10.00">core/segmentation/tileGrid.h</text>
</a>
</g>
<!-- Node1&#45;&gt;Node7 -->
<g id="edge12" class="edge"><title>Node1&#45;&gt;Node7</title>
<path fill="none" stroke="midnightblue" d="M605.042,-227.101C621.478,-217.066 642.256,-204.381 656.686,-195.571"/>
<polygon fill="midnightblue" stroke="midnightblue" points="603.136,-224.164 596.424,-232.362 606.783,-230.138 603.136,-224.164"/>
</g>
<!-- Node13 -->
<g id="node25" class="node"><title>Node13</title>
<a xlink:href="distortionWidget_8h.html" target="_top" xlink:title="utils/distortioncorrector/distortionWidget.h">
<polygon fill="none" stroke="black" points="783.5,-174.5 783.5,-195.5 1000.5,-195.5 1000.5,-174.5 783.5,-174.5"/>
<text text-anchor="middle" x="892" y="-182.5" font-family="FreeSans.ttf" font-size="10.00">utils/distortioncorrector/distortionWidget.h</text>
</a>
</g>
<!-- Node1&#45;&gt;Node13 -->
<g id="edge24" class="edge"><title>Node1&#45;&gt;Node13</title>
<path fill="none" stroke="midnightblue" d="M645.567,-230.665C701.923,-220.222 781.83,-205.415 835.212,-195.523"/>
<polygon fill="midnightblue" stroke="midnightblue" points="644.877,-227.233 635.682,-232.497 646.152,-234.116 644.877,-227.233"/>
</g>
<!-- Node3 -->
<g id="node5" class="node"><title>Node3</title>
<a xlink:href="cloudCluster_8cpp.html" target="_top" xlink:title="core/clustering3d/cloudCluster.cpp">
<polygon fill="none" stroke="black" points="-0.5,-116.5 -0.5,-137.5 180.5,-137.5 180.5,-116.5 -0.5,-116.5"/>
<text text-anchor="middle" x="90" y="-124.5" font-family="FreeSans.ttf" font-size="10.00">core/clustering3d/cloudCluster.cpp</text>
</a>
</g>
<!-- Node2&#45;&gt;Node3 -->
<g id="edge4" class="edge"><title>Node2&#45;&gt;Node3</title>
<path fill="none" stroke="midnightblue" d="M238.232,-171.546C203.756,-161.186 156.774,-147.067 125.016,-137.523"/>
<polygon fill="midnightblue" stroke="midnightblue" points="237.465,-174.97 248.049,-174.497 239.48,-168.267 237.465,-174.97"/>
</g>
<!-- Node4 -->
<g id="node7" class="node"><title>Node4</title>
<a xlink:href="clustering3d_8h.html" target="_top" xlink:title="core/clustering3d/clustering3d.h">
<polygon fill="none" stroke="black" points="198,-116.5 198,-137.5 368,-137.5 368,-116.5 198,-116.5"/>
<text text-anchor="middle" x="283" y="-124.5" font-family="FreeSans.ttf" font-size="10.00">core/clustering3d/clustering3d.h</text>
</a>
</g>
<!-- Node2&#45;&gt;Node4 -->
<g id="edge6" class="edge"><title>Node2&#45;&gt;Node4</title>
<path fill="none" stroke="midnightblue" d="M283,-164.191C283,-155.168 283,-144.994 283,-137.571"/>
<polygon fill="midnightblue" stroke="midnightblue" points="279.5,-164.362 283,-174.362 286.5,-164.362 279.5,-164.362"/>
</g>
<!-- Node5 -->
<g id="node9" class="node"><title>Node5</title>
<a xlink:href="clustering3d_8cpp.html" target="_top" xlink:title="core/clustering3d/clustering3d.cpp">
<polygon fill="none" stroke="black" points="189.5,-58.5 189.5,-79.5 370.5,-79.5 370.5,-58.5 189.5,-58.5"/>
<text text-anchor="middle" x="280" y="-66.5" font-family="FreeSans.ttf" font-size="10.00">core/clustering3d/clustering3d.cpp</text>
</a>
</g>
<!-- Node4&#45;&gt;Node5 -->
<g id="edge8" class="edge"><title>Node4&#45;&gt;Node5</title>
<path fill="none" stroke="midnightblue" d="M281.924,-106.191C281.457,-97.1684 280.931,-86.9941 280.547,-79.5707"/>
<polygon fill="midnightblue" stroke="midnightblue" points="278.438,-106.556 282.45,-116.362 285.428,-106.194 278.438,-106.556"/>
</g>
<!-- Node8 -->
<g id="node15" class="node"><title>Node8</title>
<a xlink:href="meanShiftWindow_8h.html" target="_top" xlink:title="Add Comment Here.">
<polygon fill="none" stroke="black" points="393.5,-116.5 393.5,-137.5 578.5,-137.5 578.5,-116.5 393.5,-116.5"/>
<text text-anchor="middle" x="486" y="-124.5" font-family="FreeSans.ttf" font-size="10.00">core/meanshift/meanShiftWindow.h</text>
</a>
</g>
<!-- Node7&#45;&gt;Node8 -->
<g id="edge14" class="edge"><title>Node7&#45;&gt;Node8</title>
<path fill="none" stroke="midnightblue" d="M630.392,-171.546C596.809,-161.186 551.044,-147.067 520.109,-137.523"/>
<polygon fill="midnightblue" stroke="midnightblue" points="629.367,-174.893 639.955,-174.497 631.431,-168.204 629.367,-174.893"/>
</g>
<!-- Node12 -->
<g id="node23" class="node"><title>Node12</title>
<a xlink:href="tileGrid_8cpp.html" target="_top" xlink:title="Add Comment Here.">
<polygon fill="none" stroke="black" points="596,-116.5 596,-137.5 760,-137.5 760,-116.5 596,-116.5"/>
<text text-anchor="middle" x="678" y="-124.5" font-family="FreeSans.ttf" font-size="10.00">core/segmentation/tileGrid.cpp</text>
</a>
</g>
<!-- Node7&#45;&gt;Node12 -->
<g id="edge22" class="edge"><title>Node7&#45;&gt;Node12</title>
<path fill="none" stroke="midnightblue" d="M675.435,-164.191C676.057,-155.168 676.759,-144.994 677.271,-137.571"/>
<polygon fill="midnightblue" stroke="midnightblue" points="671.93,-164.145 674.734,-174.362 678.913,-164.626 671.93,-164.145"/>
</g>
<!-- Node9 -->
<g id="node17" class="node"><title>Node9</title>
<a xlink:href="meanShiftCalculator_8h.html" target="_top" xlink:title="Add Comment Here.">
<polygon fill="none" stroke="black" points="387.5,-58.5 387.5,-79.5 584.5,-79.5 584.5,-58.5 387.5,-58.5"/>
<text text-anchor="middle" x="486" y="-66.5" font-family="FreeSans.ttf" font-size="10.00">core/meanshift/meanShiftCalculator.h</text>
</a>
</g>
<!-- Node8&#45;&gt;Node9 -->
<g id="edge16" class="edge"><title>Node8&#45;&gt;Node9</title>
<path fill="none" stroke="midnightblue" d="M486,-106.191C486,-97.1684 486,-86.9941 486,-79.5707"/>
<polygon fill="midnightblue" stroke="midnightblue" points="482.5,-106.362 486,-116.362 489.5,-106.362 482.5,-106.362"/>
</g>
<!-- Node11 -->
<g id="node21" class="node"><title>Node11</title>
<a xlink:href="meanShiftWindow_8cpp.html" target="_top" xlink:title="Add Comment Here.">
<polygon fill="none" stroke="black" points="602,-58.5 602,-79.5 798,-79.5 798,-58.5 602,-58.5"/>
<text text-anchor="middle" x="700" y="-66.5" font-family="FreeSans.ttf" font-size="10.00">core/meanshift/meanShiftWindow.cpp</text>
</a>
</g>
<!-- Node8&#45;&gt;Node11 -->
<g id="edge20" class="edge"><title>Node8&#45;&gt;Node11</title>
<path fill="none" stroke="midnightblue" d="M534.658,-113.812C572.971,-103.428 625.658,-89.1487 661.174,-79.5231"/>
<polygon fill="midnightblue" stroke="midnightblue" points="533.49,-110.503 524.754,-116.497 535.321,-117.259 533.49,-110.503"/>
</g>
<!-- Node10 -->
<g id="node19" class="node"><title>Node10</title>
<a xlink:href="meanShiftCalculator_8cpp.html" target="_top" xlink:title="Add Comment Here.">
<polygon fill="none" stroke="black" points="381.5,-0.5 381.5,-21.5 590.5,-21.5 590.5,-0.5 381.5,-0.5"/>
<text text-anchor="middle" x="486" y="-8.5" font-family="FreeSans.ttf" font-size="10.00">core/meanshift/meanShiftCalculator.cpp</text>
</a>
</g>
<!-- Node9&#45;&gt;Node10 -->
<g id="edge18" class="edge"><title>Node9&#45;&gt;Node10</title>
<path fill="none" stroke="midnightblue" d="M486,-48.1906C486,-39.1684 486,-28.9941 486,-21.5707"/>
<polygon fill="midnightblue" stroke="midnightblue" points="482.5,-48.3619 486,-58.3619 489.5,-48.3619 482.5,-48.3619"/>
</g>
<!-- Node14 -->
<g id="node27" class="node"><title>Node14</title>
<a xlink:href="distortionWidget_8cpp.html" target="_top" xlink:title="utils/distortioncorrector/distortionWidget.cpp">
<polygon fill="none" stroke="black" points="778,-116.5 778,-137.5 1006,-137.5 1006,-116.5 778,-116.5"/>
<text text-anchor="middle" x="892" y="-124.5" font-family="FreeSans.ttf" font-size="10.00">utils/distortioncorrector/distortionWidget.cpp</text>
</a>
</g>
<!-- Node13&#45;&gt;Node14 -->
<g id="edge26" class="edge"><title>Node13&#45;&gt;Node14</title>
<path fill="none" stroke="midnightblue" d="M892,-164.191C892,-155.168 892,-144.994 892,-137.571"/>
<polygon fill="midnightblue" stroke="midnightblue" points="888.5,-164.362 892,-174.362 895.5,-164.362 888.5,-164.362"/>
</g>
<!-- Node15 -->
<g id="node29" class="node"><title>Node15</title>
<a xlink:href="baseHostDialog_8h.html" target="_top" xlink:title="applications/base/baseHostDialog.h">
<polygon fill="none" stroke="black" points="1024,-116.5 1024,-137.5 1212,-137.5 1212,-116.5 1024,-116.5"/>
<text text-anchor="middle" x="1118" y="-124.5" font-family="FreeSans.ttf" font-size="10.00">applications/base/baseHostDialog.h</text>
</a>
</g>
<!-- Node13&#45;&gt;Node15 -->
<g id="edge28" class="edge"><title>Node13&#45;&gt;Node15</title>
<path fill="none" stroke="midnightblue" d="M942.614,-172.011C983.137,-161.611 1039.25,-147.21 1077,-137.523"/>
<polygon fill="midnightblue" stroke="midnightblue" points="941.743,-168.621 932.927,-174.497 943.483,-175.401 941.743,-168.621"/>
</g>
<!-- Node16 -->
<g id="node31" class="node"><title>Node16</title>
<a xlink:href="baseHostDialog_8cpp.html" target="_top" xlink:title="Implements a basic host dialog that uses BaseCalculationThread to process captured data Extend or rei...">
<polygon fill="none" stroke="black" points="853.5,-58.5 853.5,-79.5 1052.5,-79.5 1052.5,-58.5 853.5,-58.5"/>
<text text-anchor="middle" x="953" y="-66.5" font-family="FreeSans.ttf" font-size="10.00">applications/base/baseHostDialog.cpp</text>
</a>
</g>
<!-- Node15&#45;&gt;Node16 -->
<g id="edge30" class="edge"><title>Node15&#45;&gt;Node16</title>
<path fill="none" stroke="midnightblue" d="M1078.58,-113.144C1049.22,-102.823 1009.74,-88.9439 982.936,-79.5231"/>
<polygon fill="midnightblue" stroke="midnightblue" points="1077.52,-116.482 1088.12,-116.497 1079.85,-109.878 1077.52,-116.482"/>
</g>
<!-- Node17 -->
<g id="node33" class="node"><title>Node17</title>
<a xlink:href="main__vibase_8cpp.html" target="_top" xlink:title="applications/base/main_vibase.cpp">
<polygon fill="none" stroke="black" points="901.5,-0.5 901.5,-21.5 1084.5,-21.5 1084.5,-0.5 901.5,-0.5"/>
<text text-anchor="middle" x="993" y="-8.5" font-family="FreeSans.ttf" font-size="10.00">applications/base/main_vibase.cpp</text>
</a>
</g>
<!-- Node15&#45;&gt;Node17 -->
<g id="edge32" class="edge"><title>Node15&#45;&gt;Node17</title>
<path fill="none" stroke="midnightblue" d="M1104.67,-108.151C1093.85,-93.5555 1077.68,-73.3131 1061,-58 1045.46,-43.7353 1025.34,-30.3555 1011.03,-21.5479"/>
<polygon fill="midnightblue" stroke="midnightblue" points="1101.97,-110.384 1110.68,-116.414 1107.63,-106.268 1101.97,-110.384"/>
</g>
<!-- Node18 -->
<g id="node35" class="node"><title>Node18</title>
<a xlink:href="mainWindow_8h.html" target="_top" xlink:title="applications/base/mainWindow.h">
<polygon fill="none" stroke="black" points="1108,-58.5 1108,-79.5 1278,-79.5 1278,-58.5 1108,-58.5"/>
<text text-anchor="middle" x="1193" y="-66.5" font-family="FreeSans.ttf" font-size="10.00">applications/base/mainWindow.h</text>
</a>
</g>
<!-- Node15&#45;&gt;Node18 -->
<g id="edge34" class="edge"><title>Node15&#45;&gt;Node18</title>
<path fill="none" stroke="midnightblue" d="M1140.01,-109.975C1152.74,-100.132 1168.36,-88.0545 1179.33,-79.5707"/>
<polygon fill="midnightblue" stroke="midnightblue" points="1137.53,-107.476 1131.76,-116.362 1141.81,-113.013 1137.53,-107.476"/>
</g>
<!-- Node21 -->
<g id="node42" class="node"><title>Node21</title>
<a xlink:href="recorderDialog_8h.html" target="_top" xlink:title="Defines a recorder dialog class derived from BaseHostDialog.">
<polygon fill="none" stroke="black" points="1310,-58.5 1310,-79.5 1510,-79.5 1510,-58.5 1310,-58.5"/>
<text text-anchor="middle" x="1410" y="-66.5" font-family="FreeSans.ttf" font-size="10.00">applications/recorder/recorderDialog.h</text>
</a>
</g>
<!-- Node15&#45;&gt;Node21 -->
<g id="edge42" class="edge"><title>Node15&#45;&gt;Node21</title>
<path fill="none" stroke="midnightblue" d="M1180.76,-114.535C1233.29,-104.099 1307.43,-89.374 1357.02,-79.5231"/>
<polygon fill="midnightblue" stroke="midnightblue" points="1180.01,-111.115 1170.88,-116.497 1181.37,-117.981 1180.01,-111.115"/>
</g>
<!-- Node18&#45;&gt;Node17 -->
<g id="edge36" class="edge"><title>Node18&#45;&gt;Node17</title>
<path fill="none" stroke="midnightblue" d="M1147.07,-55.6795C1111.3,-45.307 1062.34,-31.1078 1029.29,-21.5231"/>
<polygon fill="midnightblue" stroke="midnightblue" points="1146.2,-59.0728 1156.78,-58.4966 1148.15,-52.3498 1146.2,-59.0728"/>
</g>
<!-- Node19 -->
<g id="node38" class="node"><title>Node19</title>
<a xlink:href="mainWindow_8cpp.html" target="_top" xlink:title="applications/base/mainWindow.cpp">
<polygon fill="none" stroke="black" points="1102,-0.5 1102,-21.5 1284,-21.5 1284,-0.5 1102,-0.5"/>
<text text-anchor="middle" x="1193" y="-8.5" font-family="FreeSans.ttf" font-size="10.00">applications/base/mainWindow.cpp</text>
</a>
</g>
<!-- Node18&#45;&gt;Node19 -->
<g id="edge38" class="edge"><title>Node18&#45;&gt;Node19</title>
<path fill="none" stroke="midnightblue" d="M1193,-48.1906C1193,-39.1684 1193,-28.9941 1193,-21.5707"/>
<polygon fill="midnightblue" stroke="midnightblue" points="1189.5,-48.3619 1193,-58.3619 1196.5,-48.3619 1189.5,-48.3619"/>
</g>
<!-- Node20 -->
<g id="node40" class="node"><title>Node20</title>
<a xlink:href="main__virecorder_8cpp.html" target="_top" xlink:title="applications/recorder/main_virecorder.cpp">
<polygon fill="none" stroke="black" points="1301.5,-0.5 1301.5,-21.5 1518.5,-21.5 1518.5,-0.5 1301.5,-0.5"/>
<text text-anchor="middle" x="1410" y="-8.5" font-family="FreeSans.ttf" font-size="10.00">applications/recorder/main_virecorder.cpp</text>
</a>
</g>
<!-- Node18&#45;&gt;Node20 -->
<g id="edge40" class="edge"><title>Node18&#45;&gt;Node20</title>
<path fill="none" stroke="midnightblue" d="M1242.34,-55.8123C1281.19,-45.4285 1334.62,-31.1487 1370.63,-21.5231"/>
<polygon fill="midnightblue" stroke="midnightblue" points="1241.05,-52.5331 1232.3,-58.4966 1242.86,-59.2957 1241.05,-52.5331"/>
</g>
<!-- Node21&#45;&gt;Node20 -->
<g id="edge44" class="edge"><title>Node21&#45;&gt;Node20</title>
<path fill="none" stroke="midnightblue" d="M1410,-48.1906C1410,-39.1684 1410,-28.9941 1410,-21.5707"/>
<polygon fill="midnightblue" stroke="midnightblue" points="1406.5,-48.3619 1410,-58.3619 1413.5,-48.3619 1406.5,-48.3619"/>
</g>
<!-- Node22 -->
<g id="node45" class="node"><title>Node22</title>
<a xlink:href="recorderDialog_8cpp.html" target="_top" xlink:title="Implements frame recording dialog based on BaseHostDialog.">
<polygon fill="none" stroke="black" points="1535.5,-0.5 1535.5,-21.5 1746.5,-21.5 1746.5,-0.5 1535.5,-0.5"/>
<text text-anchor="middle" x="1641" y="-8.5" font-family="FreeSans.ttf" font-size="10.00">applications/recorder/recorderDialog.cpp</text>
</a>
</g>
<!-- Node21&#45;&gt;Node22 -->
<g id="edge46" class="edge"><title>Node21&#45;&gt;Node22</title>
<path fill="none" stroke="midnightblue" d="M1461.73,-56.0107C1503.15,-45.6109 1560.51,-31.2102 1599.09,-21.5231"/>
<polygon fill="midnightblue" stroke="midnightblue" points="1460.68,-52.6667 1451.83,-58.4966 1462.38,-59.456 1460.68,-52.6667"/>
</g>
</g>
</svg>
        <g id="navigator" transform="translate(0 0)" fill="#404254">
                <rect fill="#f2f5e9" fill-opacity="0.5" stroke="#606060" stroke-width=".5" x="0" y="0" width="60" height="60"/>
                <use id="zoomplus" xlink:href="#zoomPlus" x="17" y="9" onmousedown="handleZoom(evt,'in')"/>
                <use id="zoomminus" xlink:href="#zoomMin" x="42" y="9" onmousedown="handleZoom(evt,'out')"/>
                <use id="reset" xlink:href="#resetDef" x="30" y="36" onmousedown="handleReset()"/>
                <g id="arrowUp" xlink:href="#dirArrow" transform="translate(30 24)" onmousedown="handlePan(0,-1)">
                  <use xlink:href="#rim" fill="#404040">
                        <set attributeName="fill" to="#808080" begin="arrowUp.mouseover" end="arrowUp.mouseout"/>
                  </use>
                  <path fill="none" stroke="white" stroke-width="1.5" d="M0,-3.0v7 M-2.5,-0.5L0,-3.0L2.5,-0.5"/>
                </g>
                <g id="arrowRight" xlink:href="#dirArrow" transform="rotate(90) translate(36 -43)" onmousedown="handlePan(1,0)">
                  <use xlink:href="#rim" fill="#404040">
                        <set attributeName="fill" to="#808080" begin="arrowRight.mouseover" end="arrowRight.mouseout"/>
                  </use>
                  <path fill="none" stroke="white" stroke-width="1.5" d="M0,-3.0v7 M-2.5,-0.5L0,-3.0L2.5,-0.5"/>
                </g>
                <g id="arrowDown" xlink:href="#dirArrow" transform="rotate(180) translate(-30 -48)" onmousedown="handlePan(0,1)">
                  <use xlink:href="#rim" fill="#404040">
                        <set attributeName="fill" to="#808080" begin="arrowDown.mouseover" end="arrowDown.mouseout"/>
                  </use>
                  <path fill="none" stroke="white" stroke-width="1.5" d="M0,-3.0v7 M-2.5,-0.5L0,-3.0L2.5,-0.5"/>
                </g>
                <g id="arrowLeft" xlink:href="#dirArrow" transform="rotate(270) translate(-36 17)" onmousedown="handlePan(-1,0)">
                  <use xlink:href="#rim" fill="#404040">
                        <set attributeName="fill" to="#808080" begin="arrowLeft.mouseover" end="arrowLeft.mouseout"/>
                  </use>
                  <path fill="none" stroke="white" stroke-width="1.5" d="M0,-3.0v7 M-2.5,-0.5L0,-3.0L2.5,-0.5"/>
                </g>
        </g>
</svg>
