<?xml version="1.0" encoding="UTF-8" standalone="no"?>
<!DOCTYPE svg PUBLIC "-//W3C//DTD SVG 1.1//EN"
 "http://www.w3.org/Graphics/SVG/1.1/DTD/svg11.dtd">
<!-- Generated by graphviz version 2.26.3 (20100126.1600)
 -->
<!-- Title: G Pages: 1 -->
<!--zoomable 204 -->
<svg id="main" version="1.1" xmlns="http://www.w3.org/2000/svg" xmlns:xlink="http://www.w3.org/1999/xlink" xml:space="preserve" onload="init(evt)">
        <defs>
                <circle id="rim" cx="0" cy="0" r="7"/>
                <circle id="rim2" cx="0" cy="0" r="3.5"/>
                <g id="zoomPlus">
                        <use xlink:href="#rim" fill="#404040">
                                <set attributeName="fill" to="#808080" begin="zoomplus.mouseover" end="zoomplus.mouseout"/>
                        </use>
                        <path d="M-4,0h8M0,-4v8" fill="none" stroke="white" stroke-width="1.5" pointer-events="none"/>
                </g>
                <g id="zoomMin">
                        <use xlink:href="#rim" fill="#404040">
                                <set attributeName="fill" to="#808080" begin="zoomminus.mouseover" end="zoomminus.mouseout"/>
                        </use>
                        <path d="M-4,0h8" fill="none" stroke="white" stroke-width="1.5" pointer-events="none"/>
                </g>
                <g id="dirArrow">
                        <path fill="none" stroke="white" stroke-width="1.5" d="M0,-3.0v7 M-2.5,-0.5L0,-3.0L2.5,-0.5"/>
                </g>
               <g id="resetDef">
                       <use xlink:href="#rim2" fill="#404040">
                               <set attributeName="fill" to="#808080" begin="reset.mouseover" end="reset.mouseout"/>
                       </use>
               </g>
        </defs>

<script type="text/javascript">
var viewWidth = 860;
var viewHeight = 204;
var sectionId = 'dynsection-0';
</script>
<script xlink:href="svgpan.js"/>
<svg id="graph" class="graph">
<g id="viewport">
<title>G</title>
<!-- Node1 -->
<g id="node1" class="node"><title>Node1</title>
<polygon fill="#bfbfbf" stroke="black" points="374.5,-174.5 374.5,-195.5 543.5,-195.5 543.5,-174.5 374.5,-174.5"/>
<text text-anchor="middle" x="459" y="-182.5" font-family="FreeSans.ttf" font-size="10.00">core/reflection/serializerVisitor.h</text>
</g>
<!-- Node2 -->
<g id="node3" class="node"><title>Node2</title>
<a xlink:href="reflection_8h.html" target="_top" xlink:title="a header for Reflection.c">
<polygon fill="none" stroke="black" points="219,-116.5 219,-137.5 289,-137.5 289,-116.5 219,-116.5"/>
<text text-anchor="middle" x="254" y="-124.5" font-family="FreeSans.ttf" font-size="10.00">reflection.h</text>
</a>
</g>
<!-- Node1&#45;&gt;Node2 -->
<g id="edge2" class="edge"><title>Node1&#45;&gt;Node2</title>
<path fill="none" stroke="midnightblue" d="M421.876,-174.497C387.389,-164.739 335.955,-150.187 299.114,-139.764"/>
<polygon fill="midnightblue" stroke="midnightblue" points="299.711,-136.296 289.136,-136.941 297.805,-143.031 299.711,-136.296"/>
</g>
<!-- Node11 -->
<g id="node21" class="node"><title>Node11</title>
<a xlink:href="tinyxml2_8h.html" target="_top" xlink:title="tinyxml2.h">
<polygon fill="none" stroke="black" points="597,-116.5 597,-137.5 663,-137.5 663,-116.5 597,-116.5"/>
<text text-anchor="middle" x="630" y="-124.5" font-family="FreeSans.ttf" font-size="10.00">tinyxml2.h</text>
</a>
</g>
<!-- Node1&#45;&gt;Node11 -->
<g id="edge20" class="edge"><title>Node1&#45;&gt;Node11</title>
<path fill="none" stroke="midnightblue" d="M489.967,-174.497C517.844,-165.041 558.997,-151.083 589.482,-140.743"/>
<polygon fill="midnightblue" stroke="midnightblue" points="590.629,-144.05 598.975,-137.523 588.381,-137.421 590.629,-144.05"/>
</g>
<!-- Node3 -->
<g id="node5" class="node"><title>Node3</title>
<polygon fill="none" stroke="#bfbfbf" points="-0.5,-58.5 -0.5,-79.5 46.5,-79.5 46.5,-58.5 -0.5,-58.5"/>
<text text-anchor="middle" x="23" y="-66.5" font-family="FreeSans.ttf" font-size="10.00">vector</text>
</g>
<!-- Node2&#45;&gt;Node3 -->
<g id="edge4" class="edge"><title>Node2&#45;&gt;Node3</title>
<path fill="none" stroke="midnightblue" d="M218.858,-119.804C180.91,-111.791 118.524,-97.9211 56.611,-80.2943"/>
<polygon fill="midnightblue" stroke="midnightblue" points="57.2603,-76.8391 46.6821,-77.4334 55.3221,-83.5654 57.2603,-76.8391"/>
</g>
<!-- Node4 -->
<g id="node7" class="node"><title>Node4</title>
<polygon fill="none" stroke="#bfbfbf" points="64,-58.5 64,-79.5 108,-79.5 108,-58.5 64,-58.5"/>
<text text-anchor="middle" x="86" y="-66.5" font-family="FreeSans.ttf" font-size="10.00">string</text>
</g>
<!-- Node2&#45;&gt;Node4 -->
<g id="edge6" class="edge"><title>Node2&#45;&gt;Node4</title>
<path fill="none" stroke="midnightblue" d="M222.954,-116.453C197.119,-107.653 159.139,-94.6639 117.51,-80.1568"/>
<polygon fill="midnightblue" stroke="midnightblue" points="118.6,-76.8305 108.005,-76.8404 116.294,-83.4397 118.6,-76.8305"/>
</g>
<!-- Node5 -->
<g id="node9" class="node"><title>Node5</title>
<polygon fill="none" stroke="#bfbfbf" points="125.5,-58.5 125.5,-79.5 178.5,-79.5 178.5,-58.5 125.5,-58.5"/>
<text text-anchor="middle" x="152" y="-66.5" font-family="FreeSans.ttf" font-size="10.00">string.h</text>
</g>
<!-- Node2&#45;&gt;Node5 -->
<g id="edge8" class="edge"><title>Node2&#45;&gt;Node5</title>
<path fill="none" stroke="midnightblue" d="M235.292,-116.362C219.619,-107.45 197.036,-94.6087 179.337,-84.5447"/>
<polygon fill="midnightblue" stroke="midnightblue" points="181.013,-81.4712 170.59,-79.5707 177.553,-87.5562 181.013,-81.4712"/>
</g>
<!-- Node6 -->
<g id="node11" class="node"><title>Node6</title>
<polygon fill="none" stroke="#bfbfbf" points="195.5,-58.5 195.5,-79.5 244.5,-79.5 244.5,-58.5 195.5,-58.5"/>
<text text-anchor="middle" x="220" y="-66.5" font-family="FreeSans.ttf" font-size="10.00">stdio.h</text>
</g>
<!-- Node2&#45;&gt;Node6 -->
<g id="edge10" class="edge"><title>Node2&#45;&gt;Node6</title>
<path fill="none" stroke="midnightblue" d="M247.764,-116.362C243.163,-108.513 236.775,-97.6159 231.286,-88.2527"/>
<polygon fill="midnightblue" stroke="midnightblue" points="234.273,-86.4276 226.197,-79.5707 228.234,-89.9677 234.273,-86.4276"/>
</g>
<!-- Node7 -->
<g id="node13" class="node"><title>Node7</title>
<polygon fill="none" stroke="#bfbfbf" points="261.5,-58.5 261.5,-79.5 314.5,-79.5 314.5,-58.5 261.5,-58.5"/>
<text text-anchor="middle" x="288" y="-66.5" font-family="FreeSans.ttf" font-size="10.00">stdint.h</text>
</g>
<!-- Node2&#45;&gt;Node7 -->
<g id="edge12" class="edge"><title>Node2&#45;&gt;Node7</title>
<path fill="none" stroke="midnightblue" d="M260.236,-116.362C264.837,-108.513 271.225,-97.6159 276.714,-88.2527"/>
<polygon fill="midnightblue" stroke="midnightblue" points="279.766,-89.9677 281.803,-79.5707 273.727,-86.4276 279.766,-89.9677"/>
</g>
<!-- Node8 -->
<g id="node15" class="node"><title>Node8</title>
<polygon fill="none" stroke="#bfbfbf" points="332,-58.5 332,-79.5 388,-79.5 388,-58.5 332,-58.5"/>
<text text-anchor="middle" x="360" y="-66.5" font-family="FreeSans.ttf" font-size="10.00">stdarg.h</text>
</g>
<!-- Node2&#45;&gt;Node8 -->
<g id="edge14" class="edge"><title>Node2&#45;&gt;Node8</title>
<path fill="none" stroke="midnightblue" d="M273.442,-116.362C289.804,-107.409 313.413,-94.4908 331.843,-84.4064"/>
<polygon fill="midnightblue" stroke="midnightblue" points="333.589,-87.4412 340.681,-79.5707 330.229,-81.3004 333.589,-87.4412"/>
</g>
<!-- Node9 -->
<g id="node17" class="node"><title>Node9</title>
<a xlink:href="global_8h.html" target="_top" xlink:title="This file holds the global includes, mostly for debuging, tracing and profiling.">
<polygon fill="none" stroke="black" points="406,-58.5 406,-79.5 460,-79.5 460,-58.5 406,-58.5"/>
<text text-anchor="middle" x="433" y="-66.5" font-family="FreeSans.ttf" font-size="10.00">global.h</text>
</a>
</g>
<!-- Node2&#45;&gt;Node9 -->
<g id="edge16" class="edge"><title>Node2&#45;&gt;Node9</title>
<path fill="none" stroke="midnightblue" d="M286.416,-116.497C317.367,-106.468 363.951,-91.3733 396.264,-80.9033"/>
<polygon fill="midnightblue" stroke="midnightblue" points="397.367,-84.2252 405.801,-77.8131 395.209,-77.5661 397.367,-84.2252"/>
</g>
<!-- Node10 -->
<g id="node19" class="node"><title>Node10</title>
<polygon fill="none" stroke="#bfbfbf" points="401,-0.5 401,-21.5 465,-21.5 465,-0.5 401,-0.5"/>
<text text-anchor="middle" x="433" y="-8.5" font-family="FreeSans.ttf" font-size="10.00">inttypes.h</text>
</g>
<!-- Node9&#45;&gt;Node10 -->
<g id="edge18" class="edge"><title>Node9&#45;&gt;Node10</title>
<path fill="none" stroke="midnightblue" d="M433,-58.3619C433,-50.9219 433,-40.7427 433,-31.7276"/>
<polygon fill="midnightblue" stroke="midnightblue" points="436.5,-31.5706 433,-21.5707 429.5,-31.5707 436.5,-31.5706"/>
</g>
<!-- Node12 -->
<g id="node23" class="node"><title>Node12</title>
<polygon fill="none" stroke="#bfbfbf" points="478,-58.5 478,-79.5 526,-79.5 526,-58.5 478,-58.5"/>
<text text-anchor="middle" x="502" y="-66.5" font-family="FreeSans.ttf" font-size="10.00">cctype</text>
</g>
<!-- Node11&#45;&gt;Node12 -->
<g id="edge22" class="edge"><title>Node11&#45;&gt;Node12</title>
<path fill="none" stroke="midnightblue" d="M606.82,-116.497C586.648,-107.356 557.19,-94.0082 534.636,-83.7883"/>
<polygon fill="midnightblue" stroke="midnightblue" points="535.993,-80.5606 525.44,-79.6212 533.104,-86.9366 535.993,-80.5606"/>
</g>
<!-- Node13 -->
<g id="node25" class="node"><title>Node13</title>
<polygon fill="none" stroke="#bfbfbf" points="543.5,-58.5 543.5,-79.5 590.5,-79.5 590.5,-58.5 543.5,-58.5"/>
<text text-anchor="middle" x="567" y="-66.5" font-family="FreeSans.ttf" font-size="10.00">climits</text>
</g>
<!-- Node11&#45;&gt;Node13 -->
<g id="edge24" class="edge"><title>Node11&#45;&gt;Node13</title>
<path fill="none" stroke="midnightblue" d="M618.445,-116.362C609.387,-108.023 596.59,-96.2418 586.026,-86.5162"/>
<polygon fill="midnightblue" stroke="midnightblue" points="588.21,-83.7688 578.482,-79.5707 583.468,-88.9187 588.21,-83.7688"/>
</g>
<!-- Node14 -->
<g id="node27" class="node"><title>Node14</title>
<polygon fill="none" stroke="#bfbfbf" points="607.5,-58.5 607.5,-79.5 652.5,-79.5 652.5,-58.5 607.5,-58.5"/>
<text text-anchor="middle" x="630" y="-66.5" font-family="FreeSans.ttf" font-size="10.00">cstdio</text>
</g>
<!-- Node11&#45;&gt;Node14 -->
<g id="edge26" class="edge"><title>Node11&#45;&gt;Node14</title>
<path fill="none" stroke="midnightblue" d="M630,-116.362C630,-108.922 630,-98.7427 630,-89.7276"/>
<polygon fill="midnightblue" stroke="midnightblue" points="633.5,-89.5706 630,-79.5707 626.5,-89.5707 633.5,-89.5706"/>
</g>
<!-- Node15 -->
<g id="node29" class="node"><title>Node15</title>
<polygon fill="none" stroke="#bfbfbf" points="669.5,-58.5 669.5,-79.5 716.5,-79.5 716.5,-58.5 669.5,-58.5"/>
<text text-anchor="middle" x="693" y="-66.5" font-family="FreeSans.ttf" font-size="10.00">cstdlib</text>
</g>
<!-- Node11&#45;&gt;Node15 -->
<g id="edge28" class="edge"><title>Node11&#45;&gt;Node15</title>
<path fill="none" stroke="midnightblue" d="M641.555,-116.362C650.613,-108.023 663.41,-96.2418 673.974,-86.5162"/>
<polygon fill="midnightblue" stroke="midnightblue" points="676.532,-88.9187 681.518,-79.5707 671.79,-83.7688 676.532,-88.9187"/>
</g>
<!-- Node16 -->
<g id="node31" class="node"><title>Node16</title>
<polygon fill="none" stroke="#bfbfbf" points="733.5,-58.5 733.5,-79.5 782.5,-79.5 782.5,-58.5 733.5,-58.5"/>
<text text-anchor="middle" x="758" y="-66.5" font-family="FreeSans.ttf" font-size="10.00">cstring</text>
</g>
<!-- Node11&#45;&gt;Node16 -->
<g id="edge30" class="edge"><title>Node11&#45;&gt;Node16</title>
<path fill="none" stroke="midnightblue" d="M653.18,-116.497C673.352,-107.356 702.81,-94.0082 725.364,-83.7883"/>
<polygon fill="midnightblue" stroke="midnightblue" points="726.896,-86.9366 734.56,-79.6212 724.007,-80.5606 726.896,-86.9366"/>
</g>
<!-- Node17 -->
<g id="node33" class="node"><title>Node17</title>
<polygon fill="none" stroke="#bfbfbf" points="799.5,-58.5 799.5,-79.5 852.5,-79.5 852.5,-58.5 799.5,-58.5"/>
<text text-anchor="middle" x="826" y="-66.5" font-family="FreeSans.ttf" font-size="10.00">cstdarg</text>
</g>
<!-- Node11&#45;&gt;Node17 -->
<g id="edge32" class="edge"><title>Node11&#45;&gt;Node17</title>
<path fill="none" stroke="midnightblue" d="M663.052,-117.566C693.603,-108.798 740.505,-95.2181 789.452,-80.4359"/>
<polygon fill="midnightblue" stroke="midnightblue" points="790.708,-83.7126 799.264,-77.4645 788.679,-77.013 790.708,-83.7126"/>
</g>
</g>
</svg>
        <g id="navigator" transform="translate(0 0)" fill="#404254">
                <rect fill="#f2f5e9" fill-opacity="0.5" stroke="#606060" stroke-width=".5" x="0" y="0" width="60" height="60"/>
                <use id="zoomplus" xlink:href="#zoomPlus" x="17" y="9" onmousedown="handleZoom(evt,'in')"/>
                <use id="zoomminus" xlink:href="#zoomMin" x="42" y="9" onmousedown="handleZoom(evt,'out')"/>
                <use id="reset" xlink:href="#resetDef" x="30" y="36" onmousedown="handleReset()"/>
                <g id="arrowUp" xlink:href="#dirArrow" transform="translate(30 24)" onmousedown="handlePan(0,-1)">
                  <use xlink:href="#rim" fill="#404040">
                        <set attributeName="fill" to="#808080" begin="arrowUp.mouseover" end="arrowUp.mouseout"/>
                  </use>
                  <path fill="none" stroke="white" stroke-width="1.5" d="M0,-3.0v7 M-2.5,-0.5L0,-3.0L2.5,-0.5"/>
                </g>
                <g id="arrowRight" xlink:href="#dirArrow" transform="rotate(90) translate(36 -43)" onmousedown="handlePan(1,0)">
                  <use xlink:href="#rim" fill="#404040">
                        <set attributeName="fill" to="#808080" begin="arrowRight.mouseover" end="arrowRight.mouseout"/>
                  </use>
                  <path fill="none" stroke="white" stroke-width="1.5" d="M0,-3.0v7 M-2.5,-0.5L0,-3.0L2.5,-0.5"/>
                </g>
                <g id="arrowDown" xlink:href="#dirArrow" transform="rotate(180) translate(-30 -48)" onmousedown="handlePan(0,1)">
                  <use xlink:href="#rim" fill="#404040">
                        <set attributeName="fill" to="#808080" begin="arrowDown.mouseover" end="arrowDown.mouseout"/>
                  </use>
                  <path fill="none" stroke="white" stroke-width="1.5" d="M0,-3.0v7 M-2.5,-0.5L0,-3.0L2.5,-0.5"/>
                </g>
                <g id="arrowLeft" xlink:href="#dirArrow" transform="rotate(270) translate(-36 17)" onmousedown="handlePan(-1,0)">
                  <use xlink:href="#rim" fill="#404040">
                        <set attributeName="fill" to="#808080" begin="arrowLeft.mouseover" end="arrowLeft.mouseout"/>
                  </use>
                  <path fill="none" stroke="white" stroke-width="1.5" d="M0,-3.0v7 M-2.5,-0.5L0,-3.0L2.5,-0.5"/>
                </g>
        </g>
</svg>
