<?xml version="1.0" encoding="UTF-8" standalone="no"?>
<!DOCTYPE svg PUBLIC "-//W3C//DTD SVG 1.1//EN"
 "http://www.w3.org/Graphics/SVG/1.1/DTD/svg11.dtd">
<!-- Generated by graphviz version 2.26.3 (20100126.1600)
 -->
<!-- Title: G Pages: 1 -->
<svg width="424pt" height="146pt"
 viewBox="0.00 0.00 424.00 146.00" xmlns="http://www.w3.org/2000/svg" xmlns:xlink="http://www.w3.org/1999/xlink">
<g id="graph1" class="graph" transform="scale(1 1) rotate(0) translate(4 142)">
<title>G</title>
<!-- Node1 -->
<g id="node1" class="node"><title>Node1</title>
<polygon fill="#bfbfbf" stroke="black" points="143.5,-116.5 143.5,-137.5 252.5,-137.5 252.5,-116.5 143.5,-116.5"/>
<text text-anchor="middle" x="198" y="-124.5" font-family="FreeSans.ttf" font-size="10.00">core/clegacy/sgm.c</text>
</g>
<!-- Node2 -->
<g id="node3" class="node"><title>Node2</title>
<polygon fill="none" stroke="#bfbfbf" points="-0.5,-58.5 -0.5,-79.5 50.5,-79.5 50.5,-58.5 -0.5,-58.5"/>
<text text-anchor="middle" x="25" y="-66.5" font-family="FreeSans.ttf" font-size="10.00">stdlib.h</text>
</g>
<!-- Node1&#45;&gt;Node2 -->
<g id="edge2" class="edge"><title>Node1&#45;&gt;Node2</title>
<path fill="none" stroke="midnightblue" d="M166.671,-116.497C136.71,-106.452 91.5932,-91.3261 60.3581,-80.8542"/>
<polygon fill="midnightblue" stroke="midnightblue" points="61.3354,-77.4904 50.7415,-77.6301 59.1102,-84.1273 61.3354,-77.4904"/>
</g>
<!-- Node3 -->
<g id="node5" class="node"><title>Node3</title>
<polygon fill="none" stroke="#bfbfbf" points="67.5,-58.5 67.5,-79.5 120.5,-79.5 120.5,-58.5 67.5,-58.5"/>
<text text-anchor="middle" x="94" y="-66.5" font-family="FreeSans.ttf" font-size="10.00">stdint.h</text>
</g>
<!-- Node1&#45;&gt;Node3 -->
<g id="edge4" class="edge"><title>Node1&#45;&gt;Node3</title>
<path fill="none" stroke="midnightblue" d="M178.925,-116.362C162.945,-107.45 139.919,-94.6087 121.873,-84.5447"/>
<polygon fill="midnightblue" stroke="midnightblue" points="123.393,-81.3846 112.954,-79.5707 119.983,-87.4982 123.393,-81.3846"/>
</g>
<!-- Node4 -->
<g id="node7" class="node"><title>Node4</title>
<polygon fill="none" stroke="#bfbfbf" points="137.5,-58.5 137.5,-79.5 190.5,-79.5 190.5,-58.5 137.5,-58.5"/>
<text text-anchor="middle" x="164" y="-66.5" font-family="FreeSans.ttf" font-size="10.00">string.h</text>
</g>
<!-- Node1&#45;&gt;Node4 -->
<g id="edge6" class="edge"><title>Node1&#45;&gt;Node4</title>
<path fill="none" stroke="midnightblue" d="M191.764,-116.362C187.163,-108.513 180.775,-97.6159 175.286,-88.2527"/>
<polygon fill="midnightblue" stroke="midnightblue" points="178.273,-86.4276 170.197,-79.5707 172.234,-89.9677 178.273,-86.4276"/>
</g>
<!-- Node5 -->
<g id="node9" class="node"><title>Node5</title>
<polygon fill="none" stroke="#bfbfbf" points="207.5,-58.5 207.5,-79.5 256.5,-79.5 256.5,-58.5 207.5,-58.5"/>
<text text-anchor="middle" x="232" y="-66.5" font-family="FreeSans.ttf" font-size="10.00">stdio.h</text>
</g>
<!-- Node1&#45;&gt;Node5 -->
<g id="edge8" class="edge"><title>Node1&#45;&gt;Node5</title>
<path fill="none" stroke="midnightblue" d="M204.236,-116.362C208.837,-108.513 215.225,-97.6159 220.714,-88.2527"/>
<polygon fill="midnightblue" stroke="midnightblue" points="223.766,-89.9677 225.803,-79.5707 217.727,-86.4276 223.766,-89.9677"/>
</g>
<!-- Node6 -->
<g id="node11" class="node"><title>Node6</title>
<a xlink:href="global_8h.html" target="_top" xlink:title="This file holds the global includes, mostly for debuging, tracing and profiling.">
<polygon fill="none" stroke="black" points="274,-58.5 274,-79.5 328,-79.5 328,-58.5 274,-58.5"/>
<text text-anchor="middle" x="301" y="-66.5" font-family="FreeSans.ttf" font-size="10.00">global.h</text>
</a>
</g>
<!-- Node1&#45;&gt;Node6 -->
<g id="edge10" class="edge"><title>Node1&#45;&gt;Node6</title>
<path fill="none" stroke="midnightblue" d="M216.892,-116.362C232.718,-107.45 255.523,-94.6087 273.395,-84.5447"/>
<polygon fill="midnightblue" stroke="midnightblue" points="275.232,-87.5271 282.228,-79.5707 271.797,-81.4276 275.232,-87.5271"/>
</g>
<!-- Node8 -->
<g id="node15" class="node"><title>Node8</title>
<a xlink:href="sgm_8h.html" target="_top" xlink:title="This is a header file for the sgm.c.">
<polygon fill="none" stroke="black" points="353.5,-58.5 353.5,-79.5 400.5,-79.5 400.5,-58.5 353.5,-58.5"/>
<text text-anchor="middle" x="377" y="-66.5" font-family="FreeSans.ttf" font-size="10.00">sgm.h</text>
</a>
</g>
<!-- Node1&#45;&gt;Node8 -->
<g id="edge14" class="edge"><title>Node1&#45;&gt;Node8</title>
<path fill="none" stroke="midnightblue" d="M230.416,-116.497C262.416,-106.128 311.125,-90.3449 343.497,-79.8556"/>
<polygon fill="midnightblue" stroke="midnightblue" points="344.958,-83.0617 353.392,-76.6496 342.8,-76.4025 344.958,-83.0617"/>
</g>
<!-- Node7 -->
<g id="node13" class="node"><title>Node7</title>
<polygon fill="none" stroke="#bfbfbf" points="264,-0.5 264,-21.5 328,-21.5 328,-0.5 264,-0.5"/>
<text text-anchor="middle" x="296" y="-8.5" font-family="FreeSans.ttf" font-size="10.00">inttypes.h</text>
</g>
<!-- Node6&#45;&gt;Node7 -->
<g id="edge12" class="edge"><title>Node6&#45;&gt;Node7</title>
<path fill="none" stroke="midnightblue" d="M300.083,-58.3619C299.442,-50.9219 298.564,-40.7427 297.787,-31.7276"/>
<polygon fill="midnightblue" stroke="midnightblue" points="301.257,-31.2331 296.911,-21.5707 294.283,-31.8343 301.257,-31.2331"/>
</g>
<!-- Node9 -->
<g id="node17" class="node"><title>Node9</title>
<polygon fill="none" stroke="#bfbfbf" points="345.5,-0.5 345.5,-21.5 416.5,-21.5 416.5,-0.5 345.5,-0.5"/>
<text text-anchor="middle" x="381" y="-8.5" font-family="FreeSans.ttf" font-size="10.00">g12buffer.h</text>
</g>
<!-- Node8&#45;&gt;Node9 -->
<g id="edge16" class="edge"><title>Node8&#45;&gt;Node9</title>
<path fill="none" stroke="midnightblue" d="M377.734,-58.3619C378.247,-50.9219 378.949,-40.7427 379.571,-31.7276"/>
<polygon fill="midnightblue" stroke="midnightblue" points="383.075,-31.7878 380.271,-21.5707 376.091,-31.3061 383.075,-31.7878"/>
</g>
</g>
</svg>
