<?xml version="1.0" encoding="UTF-8" standalone="no"?>
<!DOCTYPE svg PUBLIC "-//W3C//DTD SVG 1.1//EN"
 "http://www.w3.org/Graphics/SVG/1.1/DTD/svg11.dtd">
<!-- Generated by graphviz version 2.26.3 (20100126.1600)
 -->
<!-- Title: G Pages: 1 -->
<svg width="216pt" height="88pt"
 viewBox="0.00 0.00 216.00 88.00" xmlns="http://www.w3.org/2000/svg" xmlns:xlink="http://www.w3.org/1999/xlink">
<g id="graph1" class="graph" transform="scale(1 1) rotate(0) translate(4 84)">
<title>G</title>
<!-- Node1 -->
<g id="node1" class="node"><title>Node1</title>
<polygon fill="#bfbfbf" stroke="black" points="23,-58.5 23,-79.5 175,-79.5 175,-58.5 23,-58.5"/>
<text text-anchor="middle" x="99" y="-66.5" font-family="FreeSans.ttf" font-size="10.00">utils/widgets/shift3dWidget.h</text>
</g>
<!-- Node2 -->
<g id="node3" class="node"><title>Node2</title>
<polygon fill="none" stroke="#bfbfbf" points="0,-0.5 0,-21.5 86,-21.5 86,-0.5 0,-0.5"/>
<text text-anchor="middle" x="43" y="-8.5" font-family="FreeSans.ttf" font-size="10.00">QtGui/QWidget</text>
</g>
<!-- Node1&#45;&gt;Node2 -->
<g id="edge2" class="edge"><title>Node1&#45;&gt;Node2</title>
<path fill="none" stroke="midnightblue" d="M88.7287,-58.3619C80.7559,-50.1043 69.5252,-38.4725 60.189,-28.8029"/>
<polygon fill="midnightblue" stroke="midnightblue" points="62.67,-26.3336 53.2061,-21.5707 57.6342,-31.1958 62.67,-26.3336"/>
</g>
<!-- Node3 -->
<g id="node5" class="node"><title>Node3</title>
<polygon fill="none" stroke="#bfbfbf" points="104,-0.5 104,-21.5 208,-21.5 208,-0.5 104,-0.5"/>
<text text-anchor="middle" x="156" y="-8.5" font-family="FreeSans.ttf" font-size="10.00">ui_shift3dWidget.h</text>
</g>
<!-- Node1&#45;&gt;Node3 -->
<g id="edge4" class="edge"><title>Node1&#45;&gt;Node3</title>
<path fill="none" stroke="midnightblue" d="M109.455,-58.3619C117.57,-50.1043 129.001,-38.4725 138.504,-28.8029"/>
<polygon fill="midnightblue" stroke="midnightblue" points="141.099,-31.1562 145.612,-21.5707 136.106,-26.2497 141.099,-31.1562"/>
</g>
</g>
</svg>
