<?xml version="1.0" encoding="UTF-8" standalone="no"?>
<!DOCTYPE svg PUBLIC "-//W3C//DTD SVG 1.1//EN"
 "http://www.w3.org/Graphics/SVG/1.1/DTD/svg11.dtd">
<!-- Generated by graphviz version 2.26.3 (20100126.1600)
 -->
<!-- Title: G Pages: 1 -->
<svg width="360pt" height="88pt"
 viewBox="0.00 0.00 360.00 88.00" xmlns="http://www.w3.org/2000/svg" xmlns:xlink="http://www.w3.org/1999/xlink">
<g id="graph1" class="graph" transform="scale(1 1) rotate(0) translate(4 84)">
<title>G</title>
<!-- Node1 -->
<g id="node1" class="node"><title>Node1</title>
<polygon fill="#bfbfbf" stroke="black" points="96.5,-58.5 96.5,-79.5 253.5,-79.5 253.5,-58.5 96.5,-58.5"/>
<text text-anchor="middle" x="175" y="-66.5" font-family="FreeSans.ttf" font-size="10.00">utils/filters/legacy/sobelfilter.h</text>
</g>
<!-- Node2 -->
<g id="node3" class="node"><title>Node2</title>
<a xlink:href="basefilter_8cpp.html" target="_top" xlink:title="utils/filters/legacy/basefilter.cpp">
<polygon fill="none" stroke="black" points="0,-0.5 0,-21.5 166,-21.5 166,-0.5 0,-0.5"/>
<text text-anchor="middle" x="83" y="-8.5" font-family="FreeSans.ttf" font-size="10.00">utils/filters/legacy/basefilter.cpp</text>
</a>
</g>
<!-- Node1&#45;&gt;Node2 -->
<g id="edge2" class="edge"><title>Node1&#45;&gt;Node2</title>
<path fill="none" stroke="midnightblue" d="M149.338,-52.8215C133.491,-42.8312 113.613,-30.2993 99.7672,-21.5707"/>
<polygon fill="midnightblue" stroke="midnightblue" points="147.8,-55.9896 158.126,-58.3619 151.533,-50.0681 147.8,-55.9896"/>
</g>
<!-- Node3 -->
<g id="node5" class="node"><title>Node3</title>
<a xlink:href="sobelfilter_8cpp.html" target="_top" xlink:title="utils/filters/legacy/sobelfilter.cpp">
<polygon fill="none" stroke="black" points="184,-0.5 184,-21.5 352,-21.5 352,-0.5 184,-0.5"/>
<text text-anchor="middle" x="268" y="-8.5" font-family="FreeSans.ttf" font-size="10.00">utils/filters/legacy/sobelfilter.cpp</text>
</a>
</g>
<!-- Node1&#45;&gt;Node3 -->
<g id="edge4" class="edge"><title>Node1&#45;&gt;Node3</title>
<path fill="none" stroke="midnightblue" d="M200.941,-52.8215C216.96,-42.8312 237.055,-30.2993 251.051,-21.5707"/>
<polygon fill="midnightblue" stroke="midnightblue" points="198.691,-50.1003 192.058,-58.3619 202.395,-56.0399 198.691,-50.1003"/>
</g>
</g>
</svg>
