<?xml version="1.0" encoding="UTF-8" standalone="no"?>
<!DOCTYPE svg PUBLIC "-//W3C//DTD SVG 1.1//EN"
 "http://www.w3.org/Graphics/SVG/1.1/DTD/svg11.dtd">
<!-- Generated by graphviz version 2.26.3 (20100126.1600)
 -->
<!-- Title: G Pages: 1 -->
<!--zoomable 668 -->
<svg id="main" version="1.1" xmlns="http://www.w3.org/2000/svg" xmlns:xlink="http://www.w3.org/1999/xlink" xml:space="preserve" onload="init(evt)">
        <defs>
                <circle id="rim" cx="0" cy="0" r="7"/>
                <circle id="rim2" cx="0" cy="0" r="3.5"/>
                <g id="zoomPlus">
                        <use xlink:href="#rim" fill="#404040">
                                <set attributeName="fill" to="#808080" begin="zoomplus.mouseover" end="zoomplus.mouseout"/>
                        </use>
                        <path d="M-4,0h8M0,-4v8" fill="none" stroke="white" stroke-width="1.5" pointer-events="none"/>
                </g>
                <g id="zoomMin">
                        <use xlink:href="#rim" fill="#404040">
                                <set attributeName="fill" to="#808080" begin="zoomminus.mouseover" end="zoomminus.mouseout"/>
                        </use>
                        <path d="M-4,0h8" fill="none" stroke="white" stroke-width="1.5" pointer-events="none"/>
                </g>
                <g id="dirArrow">
                        <path fill="none" stroke="white" stroke-width="1.5" d="M0,-3.0v7 M-2.5,-0.5L0,-3.0L2.5,-0.5"/>
                </g>
               <g id="resetDef">
                       <use xlink:href="#rim2" fill="#404040">
                               <set attributeName="fill" to="#808080" begin="reset.mouseover" end="reset.mouseout"/>
                       </use>
               </g>
        </defs>

<script type="text/javascript">
var viewWidth = 1304;
var viewHeight = 668;
var sectionId = 'dynsection-0';
</script>
<script xlink:href="svgpan.js"/>
<svg id="graph" class="graph">
<g id="viewport">
<title>G</title>
<!-- Node1 -->
<g id="node1" class="node"><title>Node1</title>
<polygon fill="#bfbfbf" stroke="black" points="97.5,-638.5 97.5,-659.5 254.5,-659.5 254.5,-638.5 97.5,-638.5"/>
<text text-anchor="middle" x="176" y="-646.5" font-family="FreeSans.ttf" font-size="10.00">utils/filters/legacy/sobelfilter.h</text>
</g>
<!-- Node2 -->
<g id="node3" class="node"><title>Node2</title>
<polygon fill="none" stroke="#bfbfbf" points="0,-522.5 0,-543.5 86,-543.5 86,-522.5 0,-522.5"/>
<text text-anchor="middle" x="43" y="-530.5" font-family="FreeSans.ttf" font-size="10.00">QtGui/QWidget</text>
</g>
<!-- Node1&#45;&gt;Node2 -->
<g id="edge2" class="edge"><title>Node1&#45;&gt;Node2</title>
<path fill="none" stroke="midnightblue" d="M156.05,-638.49C140.493,-629.801 118.784,-616.562 102,-602 84.648,-586.946 67.9298,-566.668 56.7482,-551.993"/>
<polygon fill="midnightblue" stroke="midnightblue" points="59.3299,-549.601 50.5454,-543.678 53.7189,-553.786 59.3299,-549.601"/>
</g>
<!-- Node3 -->
<g id="node5" class="node"><title>Node3</title>
<polygon fill="none" stroke="#bfbfbf" points="234.5,-580.5 234.5,-601.5 319.5,-601.5 319.5,-580.5 234.5,-580.5"/>
<text text-anchor="middle" x="277" y="-588.5" font-family="FreeSans.ttf" font-size="10.00">ui_sobelfilter.h</text>
</g>
<!-- Node1&#45;&gt;Node3 -->
<g id="edge4" class="edge"><title>Node1&#45;&gt;Node3</title>
<path fill="none" stroke="midnightblue" d="M194.525,-638.362C209.901,-629.532 231.996,-616.844 249.447,-606.822"/>
<polygon fill="midnightblue" stroke="midnightblue" points="251.664,-609.586 258.592,-601.571 248.178,-603.515 251.664,-609.586"/>
</g>
<!-- Node4 -->
<g id="node7" class="node"><title>Node4</title>
<a xlink:href="g12Buffer_8h.html" target="_top" xlink:title="This file holds the class description for 12 bit grayscale buffer.">
<polygon fill="none" stroke="black" points="203.5,-522.5 203.5,-543.5 274.5,-543.5 274.5,-522.5 203.5,-522.5"/>
<text text-anchor="middle" x="239" y="-530.5" font-family="FreeSans.ttf" font-size="10.00">g12Buffer.h</text>
</a>
</g>
<!-- Node1&#45;&gt;Node4 -->
<g id="edge6" class="edge"><title>Node1&#45;&gt;Node4</title>
<path fill="none" stroke="midnightblue" d="M181.814,-638.295C192.409,-618.786 215.001,-577.188 228.4,-552.518"/>
<polygon fill="midnightblue" stroke="midnightblue" points="231.503,-554.137 233.2,-543.679 225.352,-550.796 231.503,-554.137"/>
</g>
<!-- Node34 -->
<g id="node96" class="node"><title>Node34</title>
<a xlink:href="basefilter_8h.html" target="_top" xlink:title="basefilter.h">
<polygon fill="none" stroke="black" points="110.5,-580.5 110.5,-601.5 179.5,-601.5 179.5,-580.5 110.5,-580.5"/>
<text text-anchor="middle" x="145" y="-588.5" font-family="FreeSans.ttf" font-size="10.00">basefilter.h</text>
</a>
</g>
<!-- Node1&#45;&gt;Node34 -->
<g id="edge124" class="edge"><title>Node1&#45;&gt;Node34</title>
<path fill="none" stroke="midnightblue" d="M170.314,-638.362C166.163,-630.595 160.416,-619.843 155.447,-610.546"/>
<polygon fill="midnightblue" stroke="midnightblue" points="158.45,-608.74 150.65,-601.571 152.277,-612.04 158.45,-608.74"/>
</g>
<!-- Node5 -->
<g id="node9" class="node"><title>Node5</title>
<polygon fill="none" stroke="#bfbfbf" points="1237.5,-116.5 1237.5,-137.5 1296.5,-137.5 1296.5,-116.5 1237.5,-116.5"/>
<text text-anchor="middle" x="1267" y="-124.5" font-family="FreeSans.ttf" font-size="10.00">iostream</text>
</g>
<!-- Node4&#45;&gt;Node5 -->
<g id="edge8" class="edge"><title>Node4&#45;&gt;Node5</title>
<path fill="none" stroke="midnightblue" d="M274.737,-530.958C458.236,-520.246 1286,-469.036 1286,-417 1286,-417 1286,-417 1286,-243 1286,-209.175 1278.04,-170.523 1272.42,-147.474"/>
<polygon fill="midnightblue" stroke="midnightblue" points="1275.81,-146.616 1269.97,-137.778 1269.03,-148.331 1275.81,-146.616"/>
</g>
<!-- Node6 -->
<g id="node11" class="node"><title>Node6</title>
<a xlink:href="global_8h.html" target="_top" xlink:title="This file holds the global includes, mostly for debuging, tracing and profiling.">
<polygon fill="none" stroke="black" points="481,-58.5 481,-79.5 535,-79.5 535,-58.5 481,-58.5"/>
<text text-anchor="middle" x="508" y="-66.5" font-family="FreeSans.ttf" font-size="10.00">global.h</text>
</a>
</g>
<!-- Node4&#45;&gt;Node6 -->
<g id="edge10" class="edge"><title>Node4&#45;&gt;Node6</title>
<path fill="none" stroke="midnightblue" d="M203.171,-522.423C140.134,-502.736 16,-458.676 16,-417 16,-417 16,-417 16,-185 16,-91.6007 356.136,-73.3231 470.786,-69.8153"/>
<polygon fill="midnightblue" stroke="midnightblue" points="470.951,-73.3121 480.847,-69.5281 470.751,-66.3149 470.951,-73.3121"/>
</g>
<!-- Node8 -->
<g id="node15" class="node"><title>Node8</title>
<a xlink:href="abstractBuffer_8h.html" target="_top" xlink:title="a header for AbstractBuffer.cpp">
<polygon fill="none" stroke="black" points="548.5,-348.5 548.5,-369.5 641.5,-369.5 641.5,-348.5 548.5,-348.5"/>
<text text-anchor="middle" x="595" y="-356.5" font-family="FreeSans.ttf" font-size="10.00">abstractBuffer.h</text>
</a>
</g>
<!-- Node4&#45;&gt;Node8 -->
<g id="edge14" class="edge"><title>Node4&#45;&gt;Node8</title>
<path fill="none" stroke="midnightblue" d="M260.733,-522.377C321.434,-492.709 492.95,-408.878 563.793,-374.253"/>
<polygon fill="midnightblue" stroke="midnightblue" points="565.651,-377.24 573.099,-369.705 562.577,-370.951 565.651,-377.24"/>
</g>
<!-- Node29 -->
<g id="node74" class="node"><title>Node29</title>
<a xlink:href="abstractContiniousBuffer_8h.html" target="_top" xlink:title="a header for AbstractContiniousBuffer.c">
<polygon fill="none" stroke="black" points="43.5,-406.5 43.5,-427.5 186.5,-427.5 186.5,-406.5 43.5,-406.5"/>
<text text-anchor="middle" x="115" y="-414.5" font-family="FreeSans.ttf" font-size="10.00">abstractContiniousBuffer.h</text>
</a>
</g>
<!-- Node4&#45;&gt;Node29 -->
<g id="edge90" class="edge"><title>Node4&#45;&gt;Node29</title>
<path fill="none" stroke="midnightblue" d="M222.147,-522.421C208.511,-513.495 189.154,-499.969 174,-486 157.301,-470.607 140.708,-450.682 129.393,-436.204"/>
<polygon fill="midnightblue" stroke="midnightblue" points="131.944,-433.779 123.075,-427.982 126.393,-438.044 131.944,-433.779"/>
</g>
<!-- Node31 -->
<g id="node80" class="node"><title>Node31</title>
<a xlink:href="fixedPointDisplace_8h.html" target="_top" xlink:title="A header for fixedPointDisplace.c.">
<polygon fill="none" stroke="black" points="182.5,-464.5 182.5,-485.5 295.5,-485.5 295.5,-464.5 182.5,-464.5"/>
<text text-anchor="middle" x="239" y="-472.5" font-family="FreeSans.ttf" font-size="10.00">fixedPointDisplace.h</text>
</a>
</g>
<!-- Node4&#45;&gt;Node31 -->
<g id="edge98" class="edge"><title>Node4&#45;&gt;Node31</title>
<path fill="none" stroke="midnightblue" d="M239,-522.362C239,-514.922 239,-504.743 239,-495.728"/>
<polygon fill="midnightblue" stroke="midnightblue" points="242.5,-495.571 239,-485.571 235.5,-495.571 242.5,-495.571"/>
</g>
<!-- Node7 -->
<g id="node13" class="node"><title>Node7</title>
<polygon fill="none" stroke="#bfbfbf" points="476,-0.5 476,-21.5 540,-21.5 540,-0.5 476,-0.5"/>
<text text-anchor="middle" x="508" y="-8.5" font-family="FreeSans.ttf" font-size="10.00">inttypes.h</text>
</g>
<!-- Node6&#45;&gt;Node7 -->
<g id="edge12" class="edge"><title>Node6&#45;&gt;Node7</title>
<path fill="none" stroke="midnightblue" d="M508,-58.3619C508,-50.9219 508,-40.7427 508,-31.7276"/>
<polygon fill="midnightblue" stroke="midnightblue" points="511.5,-31.5706 508,-21.5707 504.5,-31.5707 511.5,-31.5706"/>
</g>
<!-- Node8&#45;&gt;Node6 -->
<g id="edge26" class="edge"><title>Node8&#45;&gt;Node6</title>
<path fill="none" stroke="midnightblue" d="M595.788,-348.425C598.238,-314.371 605.197,-207.811 599,-174 594.03,-146.882 594.07,-137.649 577,-116 566.865,-103.146 552.243,-92.4859 539.066,-84.5859"/>
<polygon fill="midnightblue" stroke="midnightblue" points="540.669,-81.471 530.247,-79.5645 537.205,-87.5541 540.669,-81.471"/>
</g>
<!-- Node9 -->
<g id="node17" class="node"><title>Node9</title>
<polygon fill="none" stroke="#bfbfbf" points="667.5,-58.5 667.5,-79.5 720.5,-79.5 720.5,-58.5 667.5,-58.5"/>
<text text-anchor="middle" x="694" y="-66.5" font-family="FreeSans.ttf" font-size="10.00">stdint.h</text>
</g>
<!-- Node8&#45;&gt;Node9 -->
<g id="edge16" class="edge"><title>Node8&#45;&gt;Node9</title>
<path fill="none" stroke="midnightblue" d="M598.641,-348.335C613.225,-305.615 667.569,-146.426 687.02,-89.4467"/>
<polygon fill="midnightblue" stroke="midnightblue" points="690.408,-90.3567 690.326,-79.7622 683.783,-88.0951 690.408,-90.3567"/>
</g>
<!-- Node10 -->
<g id="node19" class="node"><title>Node10</title>
<polygon fill="none" stroke="#bfbfbf" points="1015.5,-58.5 1015.5,-79.5 1064.5,-79.5 1064.5,-58.5 1015.5,-58.5"/>
<text text-anchor="middle" x="1040" y="-66.5" font-family="FreeSans.ttf" font-size="10.00">stdio.h</text>
</g>
<!-- Node8&#45;&gt;Node10 -->
<g id="edge18" class="edge"><title>Node8&#45;&gt;Node10</title>
<path fill="none" stroke="midnightblue" d="M641.744,-354.209C704.444,-344.905 808,-318.162 808,-243 808,-243 808,-243 808,-185 808,-145.223 831.39,-137.274 865,-116 917.434,-82.81 942.155,-96.8151 1005.55,-80.1724"/>
<polygon fill="midnightblue" stroke="midnightblue" points="1006.5,-83.5414 1015.2,-77.4853 1004.62,-76.7983 1006.5,-83.5414"/>
</g>
<!-- Node11 -->
<g id="node21" class="node"><title>Node11</title>
<polygon fill="none" stroke="#bfbfbf" points="758,-58.5 758,-79.5 814,-79.5 814,-58.5 758,-58.5"/>
<text text-anchor="middle" x="786" y="-66.5" font-family="FreeSans.ttf" font-size="10.00">stdarg.h</text>
</g>
<!-- Node8&#45;&gt;Node11 -->
<g id="edge20" class="edge"><title>Node8&#45;&gt;Node11</title>
<path fill="none" stroke="midnightblue" d="M641.63,-350.806C666.049,-344.223 694.614,-332.536 713,-312 734.217,-288.302 732,-274.808 732,-243 732,-243 732,-243 732,-185 732,-147.904 754.978,-109.845 770.956,-87.8642"/>
<polygon fill="midnightblue" stroke="midnightblue" points="773.857,-89.8306 777.083,-79.7389 768.268,-85.6159 773.857,-89.8306"/>
</g>
<!-- Node12 -->
<g id="node23" class="node"><title>Node12</title>
<polygon fill="none" stroke="#bfbfbf" points="871,-58.5 871,-79.5 915,-79.5 915,-58.5 871,-58.5"/>
<text text-anchor="middle" x="893" y="-66.5" font-family="FreeSans.ttf" font-size="10.00">string</text>
</g>
<!-- Node8&#45;&gt;Node12 -->
<g id="edge22" class="edge"><title>Node8&#45;&gt;Node12</title>
<path fill="none" stroke="midnightblue" d="M641.622,-352.345C670.924,-346.123 707.972,-334.281 734,-312 760.277,-289.506 770,-277.59 770,-243 770,-243 770,-243 770,-185 770,-152.531 772.32,-140.17 794,-116 811.657,-96.3148 839.323,-84.1507 860.925,-77.1435"/>
<polygon fill="midnightblue" stroke="midnightblue" points="862.112,-80.4411 870.669,-74.1929 860.083,-73.7416 862.112,-80.4411"/>
</g>
<!-- Node13 -->
<g id="node25" class="node"><title>Node13</title>
<polygon fill="none" stroke="#bfbfbf" points="641.5,-290.5 641.5,-311.5 704.5,-311.5 704.5,-290.5 641.5,-290.5"/>
<text text-anchor="middle" x="673" y="-298.5" font-family="FreeSans.ttf" font-size="10.00">functional</text>
</g>
<!-- Node8&#45;&gt;Node13 -->
<g id="edge24" class="edge"><title>Node8&#45;&gt;Node13</title>
<path fill="none" stroke="midnightblue" d="M609.306,-348.362C620.851,-339.777 637.3,-327.546 650.59,-317.664"/>
<polygon fill="midnightblue" stroke="midnightblue" points="652.848,-320.346 658.784,-311.571 648.671,-314.729 652.848,-320.346"/>
</g>
<!-- Node14 -->
<g id="node28" class="node"><title>Node14</title>
<a xlink:href="vector2d_8h.html" target="_top" xlink:title="Add Comment Here.">
<polygon fill="none" stroke="black" points="836,-290.5 836,-311.5 904,-311.5 904,-290.5 836,-290.5"/>
<text text-anchor="middle" x="870" y="-298.5" font-family="FreeSans.ttf" font-size="10.00">vector2d.h</text>
</a>
</g>
<!-- Node8&#45;&gt;Node14 -->
<g id="edge28" class="edge"><title>Node8&#45;&gt;Node14</title>
<path fill="none" stroke="midnightblue" d="M641.579,-349.655C687.509,-340.37 759.676,-325.592 822,-312 823.269,-311.723 824.556,-311.441 825.854,-311.154"/>
<polygon fill="midnightblue" stroke="midnightblue" points="826.936,-314.499 835.931,-308.901 825.409,-307.667 826.936,-314.499"/>
</g>
<!-- Node22 -->
<g id="node55" class="node"><title>Node22</title>
<a xlink:href="memoryBlock_8h.html" target="_top" xlink:title="Add Comment Here.">
<polygon fill="none" stroke="black" points="365.5,-174.5 365.5,-195.5 500.5,-195.5 500.5,-174.5 365.5,-174.5"/>
<text text-anchor="middle" x="433" y="-182.5" font-family="FreeSans.ttf" font-size="10.00">memory/memoryBlock.h</text>
</a>
</g>
<!-- Node8&#45;&gt;Node22 -->
<g id="edge66" class="edge"><title>Node8&#45;&gt;Node22</title>
<path fill="none" stroke="midnightblue" d="M585.11,-348.377C558.286,-319.567 483.907,-239.678 450.108,-203.376"/>
<polygon fill="midnightblue" stroke="midnightblue" points="452.55,-200.862 443.174,-195.928 447.427,-205.632 452.55,-200.862"/>
</g>
<!-- Node26 -->
<g id="node65" class="node"><title>Node26</title>
<a xlink:href="tbbWrapper_8h.html" target="_top" xlink:title="This is a class that provides common TBB interface.">
<polygon fill="none" stroke="black" points="392,-290.5 392,-311.5 472,-311.5 472,-290.5 392,-290.5"/>
<text text-anchor="middle" x="432" y="-298.5" font-family="FreeSans.ttf" font-size="10.00">tbbWrapper.h</text>
</a>
</g>
<!-- Node8&#45;&gt;Node26 -->
<g id="edge78" class="edge"><title>Node8&#45;&gt;Node26</title>
<path fill="none" stroke="midnightblue" d="M565.482,-348.497C539.024,-339.082 500.021,-325.204 471,-314.877"/>
<polygon fill="midnightblue" stroke="midnightblue" points="472.168,-311.578 461.573,-311.523 469.821,-318.173 472.168,-311.578"/>
</g>
<!-- Node28 -->
<g id="node69" class="node"><title>Node28</title>
<a xlink:href="mathUtils_8h.html" target="_top" xlink:title="Add Comment Here.">
<polygon fill="none" stroke="black" points="518,-174.5 518,-195.5 590,-195.5 590,-174.5 518,-174.5"/>
<text text-anchor="middle" x="554" y="-182.5" font-family="FreeSans.ttf" font-size="10.00">mathUtils.h</text>
</a>
</g>
<!-- Node8&#45;&gt;Node28 -->
<g id="edge82" class="edge"><title>Node8&#45;&gt;Node28</title>
<path fill="none" stroke="midnightblue" d="M584.945,-348.397C577.153,-339.456 566.887,-325.923 562,-312 549.445,-276.228 550.127,-231.347 551.942,-205.643"/>
<polygon fill="midnightblue" stroke="midnightblue" points="555.437,-205.841 552.782,-195.584 548.462,-205.258 555.437,-205.841"/>
</g>
<!-- Node14&#45;&gt;Node6 -->
<g id="edge34" class="edge"><title>Node14&#45;&gt;Node6</title>
<path fill="none" stroke="midnightblue" d="M857.416,-290.403C815.584,-255.309 681.058,-143.539 632,-116 604.175,-100.38 570.132,-87.8969 544.76,-79.7324"/>
<polygon fill="midnightblue" stroke="midnightblue" points="545.739,-76.3713 535.149,-76.7121 543.64,-83.0493 545.739,-76.3713"/>
</g>
<!-- Node14&#45;&gt;Node9 -->
<g id="edge32" class="edge"><title>Node14&#45;&gt;Node9</title>
<path fill="none" stroke="midnightblue" d="M862.708,-290.107C853.462,-276.391 836.924,-252.181 822,-232 782.472,-178.549 733.327,-117.347 709.037,-87.4244"/>
<polygon fill="midnightblue" stroke="midnightblue" points="711.628,-85.0641 702.603,-79.5151 706.198,-89.4813 711.628,-85.0641"/>
</g>
<!-- Node15 -->
<g id="node30" class="node"><title>Node15</title>
<polygon fill="none" stroke="#bfbfbf" points="873.5,-116.5 873.5,-137.5 924.5,-137.5 924.5,-116.5 873.5,-116.5"/>
<text text-anchor="middle" x="899" y="-124.5" font-family="FreeSans.ttf" font-size="10.00">math.h</text>
</g>
<!-- Node14&#45;&gt;Node15 -->
<g id="edge30" class="edge"><title>Node14&#45;&gt;Node15</title>
<path fill="none" stroke="midnightblue" d="M871.77,-290.377C876.451,-262.293 889.221,-185.673 895.466,-148.203"/>
<polygon fill="midnightblue" stroke="midnightblue" points="898.987,-148.367 897.179,-137.928 892.082,-147.216 898.987,-148.367"/>
</g>
<!-- Node16 -->
<g id="node34" class="node"><title>Node16</title>
<a xlink:href="fixedVector_8h.html" target="_top" xlink:title="This file holds the description of the commonly used template &#45; a vector with the fixed number of com...">
<polygon fill="none" stroke="black" points="998,-232.5 998,-253.5 1076,-253.5 1076,-232.5 998,-232.5"/>
<text text-anchor="middle" x="1037" y="-240.5" font-family="FreeSans.ttf" font-size="10.00">fixedVector.h</text>
</a>
</g>
<!-- Node14&#45;&gt;Node16 -->
<g id="edge36" class="edge"><title>Node14&#45;&gt;Node16</title>
<path fill="none" stroke="midnightblue" d="M900.242,-290.497C927.35,-281.082 967.31,-267.204 997.043,-256.877"/>
<polygon fill="midnightblue" stroke="midnightblue" points="998.403,-260.11 1006.7,-253.523 996.106,-253.498 998.403,-260.11"/>
</g>
<!-- Node16&#45;&gt;Node10 -->
<g id="edge38" class="edge"><title>Node16&#45;&gt;Node10</title>
<path fill="none" stroke="midnightblue" d="M1034.05,-232.276C1031.6,-222.816 1028.33,-208.611 1027,-196 1023.04,-158.366 1030.14,-114.442 1035.32,-89.3565"/>
<polygon fill="midnightblue" stroke="midnightblue" points="1038.75,-90.0536 1037.44,-79.5392 1031.91,-88.5714 1038.75,-90.0536"/>
</g>
<!-- Node17 -->
<g id="node37" class="node"><title>Node17</title>
<a xlink:href="vectorOperations_8h.html" target="_top" xlink:title="This file holds the operations that are commonly used with continuous linear data structures such as ...">
<polygon fill="none" stroke="black" points="1036,-174.5 1036,-195.5 1144,-195.5 1144,-174.5 1036,-174.5"/>
<text text-anchor="middle" x="1090" y="-182.5" font-family="FreeSans.ttf" font-size="10.00">vectorOperations.h</text>
</a>
</g>
<!-- Node16&#45;&gt;Node17 -->
<g id="edge40" class="edge"><title>Node16&#45;&gt;Node17</title>
<path fill="none" stroke="midnightblue" d="M1046.72,-232.362C1054.19,-224.186 1064.69,-212.702 1073.47,-203.091"/>
<polygon fill="midnightblue" stroke="midnightblue" points="1076.18,-205.314 1080.34,-195.571 1071.01,-200.592 1076.18,-205.314"/>
</g>
<!-- Node17&#45;&gt;Node5 -->
<g id="edge44" class="edge"><title>Node17&#45;&gt;Node5</title>
<path fill="none" stroke="midnightblue" d="M1122.05,-174.497C1151.63,-164.805 1195.64,-150.384 1227.4,-139.977"/>
<polygon fill="midnightblue" stroke="midnightblue" points="1228.83,-143.19 1237.25,-136.75 1226.65,-136.538 1228.83,-143.19"/>
</g>
<!-- Node17&#45;&gt;Node10 -->
<g id="edge46" class="edge"><title>Node17&#45;&gt;Node10</title>
<path fill="none" stroke="midnightblue" d="M1085.39,-174.295C1077.05,-154.959 1059.36,-113.923 1048.7,-89.1767"/>
<polygon fill="midnightblue" stroke="midnightblue" points="1051.78,-87.477 1044.6,-79.6792 1045.35,-90.2479 1051.78,-87.477"/>
</g>
<!-- Node17&#45;&gt;Node15 -->
<g id="edge48" class="edge"><title>Node17&#45;&gt;Node15</title>
<path fill="none" stroke="midnightblue" d="M1054.08,-174.491C1024.27,-165.715 980.521,-152.712 934.206,-138.339"/>
<polygon fill="midnightblue" stroke="midnightblue" points="935.189,-134.979 924.601,-135.349 933.109,-141.663 935.189,-134.979"/>
</g>
<!-- Node18 -->
<g id="node39" class="node"><title>Node18</title>
<polygon fill="none" stroke="#bfbfbf" points="1126,-116.5 1126,-137.5 1168,-137.5 1168,-116.5 1126,-116.5"/>
<text text-anchor="middle" x="1147" y="-124.5" font-family="FreeSans.ttf" font-size="10.00">limits</text>
</g>
<!-- Node17&#45;&gt;Node18 -->
<g id="edge42" class="edge"><title>Node17&#45;&gt;Node18</title>
<path fill="none" stroke="midnightblue" d="M1100.45,-174.362C1108.57,-166.104 1120,-154.472 1129.5,-144.803"/>
<polygon fill="midnightblue" stroke="midnightblue" points="1132.1,-147.156 1136.61,-137.571 1127.11,-142.25 1132.1,-147.156"/>
</g>
<!-- Node19 -->
<g id="node44" class="node"><title>Node19</title>
<a xlink:href="reflection_8h.html" target="_top" xlink:title="a header for Reflection.c">
<polygon fill="none" stroke="black" points="942,-116.5 942,-137.5 1012,-137.5 1012,-116.5 942,-116.5"/>
<text text-anchor="middle" x="977" y="-124.5" font-family="FreeSans.ttf" font-size="10.00">reflection.h</text>
</a>
</g>
<!-- Node17&#45;&gt;Node19 -->
<g id="edge50" class="edge"><title>Node17&#45;&gt;Node19</title>
<path fill="none" stroke="midnightblue" d="M1069.54,-174.497C1051.97,-165.479 1026.42,-152.365 1006.61,-142.201"/>
<polygon fill="midnightblue" stroke="midnightblue" points="1008.19,-139.074 997.693,-137.621 1004.99,-145.301 1008.19,-139.074"/>
</g>
<!-- Node19&#45;&gt;Node6 -->
<g id="edge64" class="edge"><title>Node19&#45;&gt;Node6</title>
<path fill="none" stroke="midnightblue" d="M941.547,-117.701C938.666,-117.078 935.79,-116.501 933,-116 790.93,-90.5055 619.499,-76.6252 545.265,-71.4237"/>
<polygon fill="midnightblue" stroke="midnightblue" points="545.249,-67.9145 535.032,-70.7189 544.768,-74.8979 545.249,-67.9145"/>
</g>
<!-- Node19&#45;&gt;Node9 -->
<g id="edge60" class="edge"><title>Node19&#45;&gt;Node9</title>
<path fill="none" stroke="midnightblue" d="M941.974,-118.07C938.944,-117.35 935.921,-116.65 933,-116 851.664,-97.8889 830.744,-96.171 749,-80 743.064,-78.8257 736.769,-77.5734 730.639,-76.3501"/>
<polygon fill="midnightblue" stroke="midnightblue" points="731.064,-72.8657 720.572,-74.3376 729.692,-79.7299 731.064,-72.8657"/>
</g>
<!-- Node19&#45;&gt;Node10 -->
<g id="edge58" class="edge"><title>Node19&#45;&gt;Node10</title>
<path fill="none" stroke="midnightblue" d="M988.555,-116.362C997.613,-108.023 1010.41,-96.2418 1020.97,-86.5162"/>
<polygon fill="midnightblue" stroke="midnightblue" points="1023.53,-88.9187 1028.52,-79.5707 1018.79,-83.7688 1023.53,-88.9187"/>
</g>
<!-- Node19&#45;&gt;Node11 -->
<g id="edge62" class="edge"><title>Node19&#45;&gt;Node11</title>
<path fill="none" stroke="midnightblue" d="M942.411,-116.497C908.949,-106.335 858.363,-90.974 823.842,-80.4912"/>
<polygon fill="midnightblue" stroke="midnightblue" points="824.706,-77.0958 814.12,-77.5391 822.672,-83.7938 824.706,-77.0958"/>
</g>
<!-- Node19&#45;&gt;Node12 -->
<g id="edge54" class="edge"><title>Node19&#45;&gt;Node12</title>
<path fill="none" stroke="midnightblue" d="M961.593,-116.362C949.042,-107.696 931.108,-95.3126 916.725,-85.3819"/>
<polygon fill="midnightblue" stroke="midnightblue" points="918.527,-82.3725 908.309,-79.5707 914.55,-88.1327 918.527,-82.3725"/>
</g>
<!-- Node20 -->
<g id="node46" class="node"><title>Node20</title>
<polygon fill="none" stroke="#bfbfbf" points="951.5,-58.5 951.5,-79.5 998.5,-79.5 998.5,-58.5 951.5,-58.5"/>
<text text-anchor="middle" x="975" y="-66.5" font-family="FreeSans.ttf" font-size="10.00">vector</text>
</g>
<!-- Node19&#45;&gt;Node20 -->
<g id="edge52" class="edge"><title>Node19&#45;&gt;Node20</title>
<path fill="none" stroke="midnightblue" d="M976.633,-116.362C976.377,-108.922 976.026,-98.7427 975.715,-89.7276"/>
<polygon fill="midnightblue" stroke="midnightblue" points="979.207,-89.4441 975.365,-79.5707 972.211,-89.6854 979.207,-89.4441"/>
</g>
<!-- Node21 -->
<g id="node49" class="node"><title>Node21</title>
<polygon fill="none" stroke="#bfbfbf" points="1132.5,-58.5 1132.5,-79.5 1185.5,-79.5 1185.5,-58.5 1132.5,-58.5"/>
<text text-anchor="middle" x="1159" y="-66.5" font-family="FreeSans.ttf" font-size="10.00">string.h</text>
</g>
<!-- Node19&#45;&gt;Node21 -->
<g id="edge56" class="edge"><title>Node19&#45;&gt;Node21</title>
<path fill="none" stroke="midnightblue" d="M1009.96,-116.497C1041.8,-106.349 1089.91,-91.0164 1122.81,-80.5346"/>
<polygon fill="midnightblue" stroke="midnightblue" points="1124.02,-83.8197 1132.49,-77.4485 1121.9,-77.1501 1124.02,-83.8197"/>
</g>
<!-- Node22&#45;&gt;Node6 -->
<g id="edge74" class="edge"><title>Node22&#45;&gt;Node6</title>
<path fill="none" stroke="midnightblue" d="M435.735,-174.043C439.615,-159.835 447.65,-134.667 460,-116 467.267,-105.016 477.462,-94.5773 486.588,-86.34"/>
<polygon fill="midnightblue" stroke="midnightblue" points="488.972,-88.9058 494.233,-79.7095 484.385,-83.6177 488.972,-88.9058"/>
</g>
<!-- Node22&#45;&gt;Node9 -->
<g id="edge70" class="edge"><title>Node22&#45;&gt;Node9</title>
<path fill="none" stroke="midnightblue" d="M439.254,-174.267C448.806,-158.87 468.526,-130.749 493,-116 520.366,-99.5073 607.13,-83.1871 657.267,-74.801"/>
<polygon fill="midnightblue" stroke="midnightblue" points="658.078,-78.2147 667.375,-73.1347 656.939,-71.3079 658.078,-78.2147"/>
</g>
<!-- Node23 -->
<g id="node57" class="node"><title>Node23</title>
<polygon fill="none" stroke="#bfbfbf" points="279.5,-116.5 279.5,-137.5 314.5,-137.5 314.5,-116.5 279.5,-116.5"/>
<text text-anchor="middle" x="297" y="-124.5" font-family="FreeSans.ttf" font-size="10.00">new</text>
</g>
<!-- Node22&#45;&gt;Node23 -->
<g id="edge68" class="edge"><title>Node22&#45;&gt;Node23</title>
<path fill="none" stroke="midnightblue" d="M408.371,-174.497C384.556,-164.34 348.558,-148.988 323.978,-138.505"/>
<polygon fill="midnightblue" stroke="midnightblue" points="325.102,-135.18 314.53,-134.476 322.356,-141.619 325.102,-135.18"/>
</g>
<!-- Node24 -->
<g id="node60" class="node"><title>Node24</title>
<polygon fill="none" stroke="#bfbfbf" points="501.5,-116.5 501.5,-137.5 552.5,-137.5 552.5,-116.5 501.5,-116.5"/>
<text text-anchor="middle" x="527" y="-124.5" font-family="FreeSans.ttf" font-size="10.00">stdlib.h</text>
</g>
<!-- Node22&#45;&gt;Node24 -->
<g id="edge72" class="edge"><title>Node22&#45;&gt;Node24</title>
<path fill="none" stroke="midnightblue" d="M450.241,-174.362C464.552,-165.532 485.115,-152.844 501.357,-142.822"/>
<polygon fill="midnightblue" stroke="midnightblue" points="503.196,-145.8 509.868,-137.571 499.52,-139.843 503.196,-145.8"/>
</g>
<!-- Node25 -->
<g id="node63" class="node"><title>Node25</title>
<a xlink:href="atomicOps_8h.html" target="_top" xlink:title="atomicOps.h">
<polygon fill="none" stroke="black" points="331.5,-116.5 331.5,-137.5 408.5,-137.5 408.5,-116.5 331.5,-116.5"/>
<text text-anchor="middle" x="370" y="-124.5" font-family="FreeSans.ttf" font-size="10.00">atomicOps.h</text>
</a>
</g>
<!-- Node22&#45;&gt;Node25 -->
<g id="edge76" class="edge"><title>Node22&#45;&gt;Node25</title>
<path fill="none" stroke="midnightblue" d="M421.445,-174.362C412.387,-166.023 399.59,-154.242 389.026,-144.516"/>
<polygon fill="midnightblue" stroke="midnightblue" points="391.21,-141.769 381.482,-137.571 386.468,-146.919 391.21,-141.769"/>
</g>
<!-- Node27 -->
<g id="node67" class="node"><title>Node27</title>
<polygon fill="none" stroke="#bfbfbf" points="406,-232.5 406,-253.5 458,-253.5 458,-232.5 406,-232.5"/>
<text text-anchor="middle" x="432" y="-240.5" font-family="FreeSans.ttf" font-size="10.00">cstddef</text>
</g>
<!-- Node26&#45;&gt;Node27 -->
<g id="edge80" class="edge"><title>Node26&#45;&gt;Node27</title>
<path fill="none" stroke="midnightblue" d="M432,-290.362C432,-282.922 432,-272.743 432,-263.728"/>
<polygon fill="midnightblue" stroke="midnightblue" points="435.5,-263.571 432,-253.571 428.5,-263.571 435.5,-263.571"/>
</g>
<!-- Node28&#45;&gt;Node6 -->
<g id="edge86" class="edge"><title>Node28&#45;&gt;Node6</title>
<path fill="none" stroke="midnightblue" d="M558.34,-174.178C563.272,-160.117 569.594,-135.107 561,-116 555.482,-103.733 545.005,-93.3682 534.813,-85.52"/>
<polygon fill="midnightblue" stroke="midnightblue" points="536.605,-82.499 526.434,-79.5328 532.536,-88.1944 536.605,-82.499"/>
</g>
<!-- Node28&#45;&gt;Node15 -->
<g id="edge84" class="edge"><title>Node28&#45;&gt;Node15</title>
<path fill="none" stroke="midnightblue" d="M590.269,-178.903C656.777,-167.722 797.464,-144.07 863.441,-132.978"/>
<polygon fill="midnightblue" stroke="midnightblue" points="864.084,-136.419 873.365,-131.31 862.923,-129.516 864.084,-136.419"/>
</g>
<!-- Node28&#45;&gt;Node24 -->
<g id="edge88" class="edge"><title>Node28&#45;&gt;Node24</title>
<path fill="none" stroke="midnightblue" d="M549.048,-174.362C545.47,-166.677 540.532,-156.069 536.236,-146.84"/>
<polygon fill="midnightblue" stroke="midnightblue" points="539.314,-145.159 531.921,-137.571 532.968,-148.114 539.314,-145.159"/>
</g>
<!-- Node29&#45;&gt;Node6 -->
<g id="edge92" class="edge"><title>Node29&#45;&gt;Node6</title>
<path fill="none" stroke="midnightblue" d="M113.026,-406.488C109.389,-386.182 102,-340.111 102,-301 102,-301 102,-301 102,-185 102,-108.712 370.37,-79.7949 470.727,-71.6485"/>
<polygon fill="midnightblue" stroke="midnightblue" points="471.037,-75.135 480.731,-70.8604 470.487,-68.1566 471.037,-75.135"/>
</g>
<!-- Node29&#45;&gt;Node8 -->
<g id="edge94" class="edge"><title>Node29&#45;&gt;Node8</title>
<path fill="none" stroke="midnightblue" d="M186.602,-408.348C282.507,-396.76 450.735,-376.432 538.344,-365.846"/>
<polygon fill="midnightblue" stroke="midnightblue" points="538.854,-369.31 548.362,-364.635 538.014,-362.36 538.854,-369.31"/>
</g>
<!-- Node30 -->
<g id="node78" class="node"><title>Node30</title>
<polygon fill="none" stroke="#bfbfbf" points="130,-348.5 130,-369.5 186,-369.5 186,-348.5 130,-348.5"/>
<text text-anchor="middle" x="158" y="-356.5" font-family="FreeSans.ttf" font-size="10.00">matrix.h</text>
</g>
<!-- Node29&#45;&gt;Node30 -->
<g id="edge96" class="edge"><title>Node29&#45;&gt;Node30</title>
<path fill="none" stroke="midnightblue" d="M122.887,-406.362C128.827,-398.35 137.122,-387.161 144.159,-377.67"/>
<polygon fill="midnightblue" stroke="midnightblue" points="147.019,-379.688 150.163,-369.571 141.396,-375.519 147.019,-379.688"/>
</g>
<!-- Node31&#45;&gt;Node6 -->
<g id="edge102" class="edge"><title>Node31&#45;&gt;Node6</title>
<path fill="none" stroke="midnightblue" d="M235.094,-464.291C228.062,-444.027 214,-398.554 214,-359 214,-359 214,-359 214,-185 214,-152.531 213.255,-137.021 238,-116 272.436,-86.747 404.388,-75.0301 470.208,-70.9305"/>
<polygon fill="midnightblue" stroke="midnightblue" points="470.783,-74.4026 480.558,-70.3149 470.367,-67.4149 470.783,-74.4026"/>
</g>
<!-- Node31&#45;&gt;Node9 -->
<g id="edge100" class="edge"><title>Node31&#45;&gt;Node9</title>
<path fill="none" stroke="midnightblue" d="M240.974,-464.488C244.611,-444.182 252,-398.111 252,-359 252,-359 252,-359 252,-185 252,-153.192 246.803,-136.646 271,-116 285.643,-103.506 556.783,-80.2057 657.093,-71.9739"/>
<polygon fill="midnightblue" stroke="midnightblue" points="657.676,-75.4381 667.357,-71.1354 657.106,-68.4614 657.676,-75.4381"/>
</g>
<!-- Node31&#45;&gt;Node29 -->
<g id="edge104" class="edge"><title>Node31&#45;&gt;Node29</title>
<path fill="none" stroke="midnightblue" d="M216.545,-464.497C197.09,-455.397 168.72,-442.127 146.909,-431.925"/>
<polygon fill="midnightblue" stroke="midnightblue" points="148.248,-428.688 137.707,-427.621 145.283,-435.028 148.248,-428.688"/>
</g>
<!-- Node32 -->
<g id="node85" class="node"><title>Node32</title>
<a xlink:href="matrix33_8h.html" target="_top" xlink:title="This file holds the header for the commonly used structure &#45; a 3 by 3 matrix.">
<polygon fill="none" stroke="black" points="1003,-406.5 1003,-427.5 1071,-427.5 1071,-406.5 1003,-406.5"/>
<text text-anchor="middle" x="1037" y="-414.5" font-family="FreeSans.ttf" font-size="10.00">matrix33.h</text>
</a>
</g>
<!-- Node31&#45;&gt;Node32 -->
<g id="edge106" class="edge"><title>Node31&#45;&gt;Node32</title>
<path fill="none" stroke="midnightblue" d="M295.75,-470.875C446.884,-459.891 856.845,-430.094 992.641,-420.224"/>
<polygon fill="midnightblue" stroke="midnightblue" points="992.967,-423.71 1002.69,-419.494 992.459,-416.728 992.967,-423.71"/>
</g>
<!-- Node32&#45;&gt;Node5 -->
<g id="edge108" class="edge"><title>Node32&#45;&gt;Node5</title>
<path fill="none" stroke="midnightblue" d="M1071.18,-412.351C1118.82,-405.23 1201.84,-390.284 1224,-370 1247.95,-348.079 1248,-333.469 1248,-301 1248,-301 1248,-301 1248,-243 1248,-209.175 1255.96,-170.523 1261.58,-147.474"/>
<polygon fill="midnightblue" stroke="midnightblue" points="1264.97,-148.331 1264.03,-137.778 1258.19,-146.616 1264.97,-148.331"/>
</g>
<!-- Node32&#45;&gt;Node15 -->
<g id="edge112" class="edge"><title>Node32&#45;&gt;Node15</title>
<path fill="none" stroke="midnightblue" d="M1025.63,-406.355C1006.52,-387.235 970,-344.955 970,-301 970,-301 970,-301 970,-243 970,-203.255 939.303,-165.625 918.278,-144.512"/>
<polygon fill="midnightblue" stroke="midnightblue" points="920.663,-141.949 911.044,-137.508 915.794,-146.978 920.663,-141.949"/>
</g>
<!-- Node32&#45;&gt;Node16 -->
<g id="edge122" class="edge"><title>Node32&#45;&gt;Node16</title>
<path fill="none" stroke="midnightblue" d="M1037,-406.377C1037,-378.293 1037,-301.673 1037,-264.203"/>
<polygon fill="midnightblue" stroke="midnightblue" points="1040.5,-263.928 1037,-253.928 1033.5,-263.928 1040.5,-263.928"/>
</g>
<!-- Node32&#45;&gt;Node18 -->
<g id="edge110" class="edge"><title>Node32&#45;&gt;Node18</title>
<path fill="none" stroke="midnightblue" d="M1067.3,-406.44C1107.1,-390.405 1172,-355.85 1172,-301 1172,-301 1172,-301 1172,-243 1172,-208.853 1161.52,-170.296 1154.13,-147.354"/>
<polygon fill="midnightblue" stroke="midnightblue" points="1157.4,-146.083 1150.91,-137.709 1150.76,-148.302 1157.4,-146.083"/>
</g>
<!-- Node32&#45;&gt;Node21 -->
<g id="edge114" class="edge"><title>Node32&#45;&gt;Node21</title>
<path fill="none" stroke="midnightblue" d="M1071.18,-410.225C1121.6,-398.017 1210,-367.176 1210,-301 1210,-301 1210,-301 1210,-185 1210,-148.234 1188.26,-110.034 1173.17,-87.9415"/>
<polygon fill="midnightblue" stroke="midnightblue" points="1175.83,-85.6434 1167.19,-79.5108 1170.12,-89.6926 1175.83,-85.6434"/>
</g>
<!-- Node33 -->
<g id="node91" class="node"><title>Node33</title>
<a xlink:href="vector3d_8h.html" target="_top" xlink:title="A 3 component vector.">
<polygon fill="none" stroke="black" points="874,-348.5 874,-369.5 942,-369.5 942,-348.5 874,-348.5"/>
<text text-anchor="middle" x="908" y="-356.5" font-family="FreeSans.ttf" font-size="10.00">vector3d.h</text>
</a>
</g>
<!-- Node32&#45;&gt;Node33 -->
<g id="edge116" class="edge"><title>Node32&#45;&gt;Node33</title>
<path fill="none" stroke="midnightblue" d="M1013.64,-406.497C993.309,-397.356 963.622,-384.008 940.891,-373.788"/>
<polygon fill="midnightblue" stroke="midnightblue" points="942.179,-370.53 931.623,-369.621 939.308,-376.914 942.179,-370.53"/>
</g>
<!-- Node33&#45;&gt;Node14 -->
<g id="edge120" class="edge"><title>Node33&#45;&gt;Node14</title>
<path fill="none" stroke="midnightblue" d="M901.03,-348.362C895.834,-340.431 888.599,-329.389 882.422,-319.961"/>
<polygon fill="midnightblue" stroke="midnightblue" points="885.334,-318.017 876.926,-311.571 879.478,-321.853 885.334,-318.017"/>
</g>
<!-- Node33&#45;&gt;Node15 -->
<g id="edge118" class="edge"><title>Node33&#45;&gt;Node15</title>
<path fill="none" stroke="midnightblue" d="M909.478,-348.199C910.701,-338.689 912.339,-324.455 913,-312 916.158,-252.47 907.432,-182.321 902.355,-148.022"/>
<polygon fill="midnightblue" stroke="midnightblue" points="905.768,-147.188 900.796,-137.832 898.849,-148.246 905.768,-147.188"/>
</g>
<!-- Node34&#45;&gt;Node2 -->
<g id="edge126" class="edge"><title>Node34&#45;&gt;Node2</title>
<path fill="none" stroke="midnightblue" d="M126.292,-580.362C110.619,-571.45 88.0359,-558.609 70.3373,-548.545"/>
<polygon fill="midnightblue" stroke="midnightblue" points="72.0128,-545.471 61.5898,-543.571 68.5526,-551.556 72.0128,-545.471"/>
</g>
<!-- Node34&#45;&gt;Node4 -->
<g id="edge130" class="edge"><title>Node34&#45;&gt;Node4</title>
<path fill="none" stroke="midnightblue" d="M162.241,-580.362C176.552,-571.532 197.115,-558.844 213.357,-548.822"/>
<polygon fill="midnightblue" stroke="midnightblue" points="215.196,-551.8 221.868,-543.571 211.52,-545.843 215.196,-551.8"/>
</g>
<!-- Node35 -->
<g id="node99" class="node"><title>Node35</title>
<polygon fill="none" stroke="#bfbfbf" points="103.5,-522.5 103.5,-543.5 186.5,-543.5 186.5,-522.5 103.5,-522.5"/>
<text text-anchor="middle" x="145" y="-530.5" font-family="FreeSans.ttf" font-size="10.00">ui_basefilter.h</text>
</g>
<!-- Node34&#45;&gt;Node35 -->
<g id="edge128" class="edge"><title>Node34&#45;&gt;Node35</title>
<path fill="none" stroke="midnightblue" d="M145,-580.362C145,-572.922 145,-562.743 145,-553.728"/>
<polygon fill="midnightblue" stroke="midnightblue" points="148.5,-553.571 145,-543.571 141.5,-553.571 148.5,-553.571"/>
</g>
</g>
</svg>
        <g id="navigator" transform="translate(0 0)" fill="#404254">
                <rect fill="#f2f5e9" fill-opacity="0.5" stroke="#606060" stroke-width=".5" x="0" y="0" width="60" height="60"/>
                <use id="zoomplus" xlink:href="#zoomPlus" x="17" y="9" onmousedown="handleZoom(evt,'in')"/>
                <use id="zoomminus" xlink:href="#zoomMin" x="42" y="9" onmousedown="handleZoom(evt,'out')"/>
                <use id="reset" xlink:href="#resetDef" x="30" y="36" onmousedown="handleReset()"/>
                <g id="arrowUp" xlink:href="#dirArrow" transform="translate(30 24)" onmousedown="handlePan(0,-1)">
                  <use xlink:href="#rim" fill="#404040">
                        <set attributeName="fill" to="#808080" begin="arrowUp.mouseover" end="arrowUp.mouseout"/>
                  </use>
                  <path fill="none" stroke="white" stroke-width="1.5" d="M0,-3.0v7 M-2.5,-0.5L0,-3.0L2.5,-0.5"/>
                </g>
                <g id="arrowRight" xlink:href="#dirArrow" transform="rotate(90) translate(36 -43)" onmousedown="handlePan(1,0)">
                  <use xlink:href="#rim" fill="#404040">
                        <set attributeName="fill" to="#808080" begin="arrowRight.mouseover" end="arrowRight.mouseout"/>
                  </use>
                  <path fill="none" stroke="white" stroke-width="1.5" d="M0,-3.0v7 M-2.5,-0.5L0,-3.0L2.5,-0.5"/>
                </g>
                <g id="arrowDown" xlink:href="#dirArrow" transform="rotate(180) translate(-30 -48)" onmousedown="handlePan(0,1)">
                  <use xlink:href="#rim" fill="#404040">
                        <set attributeName="fill" to="#808080" begin="arrowDown.mouseover" end="arrowDown.mouseout"/>
                  </use>
                  <path fill="none" stroke="white" stroke-width="1.5" d="M0,-3.0v7 M-2.5,-0.5L0,-3.0L2.5,-0.5"/>
                </g>
                <g id="arrowLeft" xlink:href="#dirArrow" transform="rotate(270) translate(-36 17)" onmousedown="handlePan(-1,0)">
                  <use xlink:href="#rim" fill="#404040">
                        <set attributeName="fill" to="#808080" begin="arrowLeft.mouseover" end="arrowLeft.mouseout"/>
                  </use>
                  <path fill="none" stroke="white" stroke-width="1.5" d="M0,-3.0v7 M-2.5,-0.5L0,-3.0L2.5,-0.5"/>
                </g>
        </g>
</svg>
