<?xml version="1.0" encoding="UTF-8" standalone="no"?>
<!DOCTYPE svg PUBLIC "-//W3C//DTD SVG 1.1//EN"
 "http://www.w3.org/Graphics/SVG/1.1/DTD/svg11.dtd">
<!-- Generated by graphviz version 2.26.3 (20100126.1600)
 -->
<!-- Title: G Pages: 1 -->
<svg width="490pt" height="88pt"
 viewBox="0.00 0.00 490.00 88.00" xmlns="http://www.w3.org/2000/svg" xmlns:xlink="http://www.w3.org/1999/xlink">
<g id="graph1" class="graph" transform="scale(1 1) rotate(0) translate(4 84)">
<title>G</title>
<!-- Node1 -->
<g id="node1" class="node"><title>Node1</title>
<polygon fill="#bfbfbf" stroke="black" points="185,-58.5 185,-79.5 311,-79.5 311,-58.5 185,-58.5"/>
<text text-anchor="middle" x="248" y="-66.5" font-family="FreeSans.ttf" font-size="10.00">core/filters/sobelFilter.h</text>
</g>
<!-- Node2 -->
<g id="node3" class="node"><title>Node2</title>
<a xlink:href="filtersCollection_8cpp.html" target="_top" xlink:title="core/filters/filtersCollection.cpp">
<polygon fill="none" stroke="black" points="-0.5,-0.5 -0.5,-21.5 162.5,-21.5 162.5,-0.5 -0.5,-0.5"/>
<text text-anchor="middle" x="81" y="-8.5" font-family="FreeSans.ttf" font-size="10.00">core/filters/filtersCollection.cpp</text>
</a>
</g>
<!-- Node1&#45;&gt;Node2 -->
<g id="edge2" class="edge"><title>Node1&#45;&gt;Node2</title>
<path fill="none" stroke="midnightblue" d="M208.105,-55.1443C178.387,-44.8229 138.425,-30.9439 111.299,-21.5231"/>
<polygon fill="midnightblue" stroke="midnightblue" points="207.163,-58.522 217.758,-58.4966 209.459,-51.9095 207.163,-58.522"/>
</g>
<!-- Node3 -->
<g id="node5" class="node"><title>Node3</title>
<a xlink:href="sobelFilter_8cpp.html" target="_top" xlink:title="Add Comment Here.">
<polygon fill="none" stroke="black" points="179.5,-0.5 179.5,-21.5 316.5,-21.5 316.5,-0.5 179.5,-0.5"/>
<text text-anchor="middle" x="248" y="-8.5" font-family="FreeSans.ttf" font-size="10.00">core/filters/sobelFilter.cpp</text>
</a>
</g>
<!-- Node1&#45;&gt;Node3 -->
<g id="edge4" class="edge"><title>Node1&#45;&gt;Node3</title>
<path fill="none" stroke="midnightblue" d="M248,-48.1906C248,-39.1684 248,-28.9941 248,-21.5707"/>
<polygon fill="midnightblue" stroke="midnightblue" points="244.5,-48.3619 248,-58.3619 251.5,-48.3619 244.5,-48.3619"/>
</g>
<!-- Node4 -->
<g id="node7" class="node"><title>Node4</title>
<a xlink:href="filterSelector_8cpp.html" target="_top" xlink:title="utils/filters/filterSelector.cpp">
<polygon fill="none" stroke="black" points="333.5,-0.5 333.5,-21.5 482.5,-21.5 482.5,-0.5 333.5,-0.5"/>
<text text-anchor="middle" x="408" y="-8.5" font-family="FreeSans.ttf" font-size="10.00">utils/filters/filterSelector.cpp</text>
</a>
</g>
<!-- Node1&#45;&gt;Node4 -->
<g id="edge6" class="edge"><title>Node1&#45;&gt;Node4</title>
<path fill="none" stroke="midnightblue" d="M286.595,-55.0095C315.028,-44.7023 353.095,-30.903 378.971,-21.5231"/>
<polygon fill="midnightblue" stroke="midnightblue" points="285.183,-51.7981 276.975,-58.4966 287.569,-58.3791 285.183,-51.7981"/>
</g>
</g>
</svg>
