<?xml version="1.0" encoding="UTF-8" standalone="no"?>
<!DOCTYPE svg PUBLIC "-//W3C//DTD SVG 1.1//EN"
 "http://www.w3.org/Graphics/SVG/1.1/DTD/svg11.dtd">
<!-- Generated by graphviz version 2.26.3 (20100126.1600)
 -->
<!-- Title: G Pages: 1 -->
<!--zoomable 378 -->
<svg id="main" version="1.1" xmlns="http://www.w3.org/2000/svg" xmlns:xlink="http://www.w3.org/1999/xlink" xml:space="preserve" onload="init(evt)">
        <defs>
                <circle id="rim" cx="0" cy="0" r="7"/>
                <circle id="rim2" cx="0" cy="0" r="3.5"/>
                <g id="zoomPlus">
                        <use xlink:href="#rim" fill="#404040">
                                <set attributeName="fill" to="#808080" begin="zoomplus.mouseover" end="zoomplus.mouseout"/>
                        </use>
                        <path d="M-4,0h8M0,-4v8" fill="none" stroke="white" stroke-width="1.5" pointer-events="none"/>
                </g>
                <g id="zoomMin">
                        <use xlink:href="#rim" fill="#404040">
                                <set attributeName="fill" to="#808080" begin="zoomminus.mouseover" end="zoomminus.mouseout"/>
                        </use>
                        <path d="M-4,0h8" fill="none" stroke="white" stroke-width="1.5" pointer-events="none"/>
                </g>
                <g id="dirArrow">
                        <path fill="none" stroke="white" stroke-width="1.5" d="M0,-3.0v7 M-2.5,-0.5L0,-3.0L2.5,-0.5"/>
                </g>
               <g id="resetDef">
                       <use xlink:href="#rim2" fill="#404040">
                               <set attributeName="fill" to="#808080" begin="reset.mouseover" end="reset.mouseout"/>
                       </use>
               </g>
        </defs>

<script type="text/javascript">
var viewWidth = 1197;
var viewHeight = 378;
var sectionId = 'dynsection-0';
</script>
<script xlink:href="svgpan.js"/>
<svg id="graph" class="graph">
<g id="viewport">
<title>G</title>
<!-- Node1 -->
<g id="node1" class="node"><title>Node1</title>
<polygon fill="#bfbfbf" stroke="black" points="95,-348.5 95,-369.5 331,-369.5 331,-348.5 95,-348.5"/>
<text text-anchor="middle" x="213" y="-356.5" font-family="FreeSans.ttf" font-size="10.00">utils/filters/ui/sobelParametersControlWidget.h</text>
</g>
<!-- Node2 -->
<g id="node3" class="node"><title>Node2</title>
<polygon fill="none" stroke="#bfbfbf" points="39,-290.5 39,-311.5 125,-311.5 125,-290.5 39,-290.5"/>
<text text-anchor="middle" x="82" y="-298.5" font-family="FreeSans.ttf" font-size="10.00">QtGui/QWidget</text>
</g>
<!-- Node1&#45;&gt;Node2 -->
<g id="edge2" class="edge"><title>Node1&#45;&gt;Node2</title>
<path fill="none" stroke="midnightblue" d="M189.277,-348.497C168.632,-339.356 138.484,-326.008 115.401,-315.788"/>
<polygon fill="midnightblue" stroke="midnightblue" points="116.55,-312.469 105.989,-311.621 113.716,-318.87 116.55,-312.469"/>
</g>
<!-- Node3 -->
<g id="node5" class="node"><title>Node3</title>
<a xlink:href="sobelParameters_8h.html" target="_top" xlink:title="generated/sobelParameters.h">
<polygon fill="none" stroke="black" points="84.5,-232.5 84.5,-253.5 243.5,-253.5 243.5,-232.5 84.5,-232.5"/>
<text text-anchor="middle" x="164" y="-240.5" font-family="FreeSans.ttf" font-size="10.00">generated/sobelParameters.h</text>
</a>
</g>
<!-- Node1&#45;&gt;Node3 -->
<g id="edge4" class="edge"><title>Node1&#45;&gt;Node3</title>
<path fill="none" stroke="midnightblue" d="M200.337,-348.433C190.83,-339.712 178.394,-326.458 172,-312 165.303,-296.857 163.489,-278.11 163.246,-263.981"/>
<polygon fill="midnightblue" stroke="midnightblue" points="166.747,-263.823 163.324,-253.796 159.747,-263.769 166.747,-263.823"/>
</g>
<!-- Node17 -->
<g id="node37" class="node"><title>Node17</title>
<polygon fill="none" stroke="#bfbfbf" points="180.5,-290.5 180.5,-311.5 367.5,-311.5 367.5,-290.5 180.5,-290.5"/>
<text text-anchor="middle" x="274" y="-298.5" font-family="FreeSans.ttf" font-size="10.00">ui_sobelParametersControlWidget.h</text>
</g>
<!-- Node1&#45;&gt;Node17 -->
<g id="edge40" class="edge"><title>Node1&#45;&gt;Node17</title>
<path fill="none" stroke="midnightblue" d="M224.188,-348.362C232.959,-340.023 245.349,-328.242 255.578,-318.516"/>
<polygon fill="midnightblue" stroke="midnightblue" points="258.047,-320.998 262.883,-311.571 253.224,-315.925 258.047,-320.998"/>
</g>
<!-- Node18 -->
<g id="node39" class="node"><title>Node18</title>
<a xlink:href="filterParametersControlWidgetBase_8h.html" target="_top" xlink:title="filterParametersControlWidgetBase.h">
<polygon fill="none" stroke="black" points="384.5,-290.5 384.5,-311.5 577.5,-311.5 577.5,-290.5 384.5,-290.5"/>
<text text-anchor="middle" x="481" y="-298.5" font-family="FreeSans.ttf" font-size="10.00">filterParametersControlWidgetBase.h</text>
</a>
</g>
<!-- Node1&#45;&gt;Node18 -->
<g id="edge42" class="edge"><title>Node1&#45;&gt;Node18</title>
<path fill="none" stroke="midnightblue" d="M261.533,-348.497C306.737,-338.714 374.213,-324.111 422.401,-313.682"/>
<polygon fill="midnightblue" stroke="midnightblue" points="423.343,-317.059 432.376,-311.523 421.862,-310.218 423.343,-317.059"/>
</g>
<!-- Node4 -->
<g id="node7" class="node"><title>Node4</title>
<a xlink:href="reflection_8h.html" target="_top" xlink:title="a header for Reflection.c">
<polygon fill="none" stroke="black" points="561,-116.5 561,-137.5 631,-137.5 631,-116.5 561,-116.5"/>
<text text-anchor="middle" x="596" y="-124.5" font-family="FreeSans.ttf" font-size="10.00">reflection.h</text>
</a>
</g>
<!-- Node3&#45;&gt;Node4 -->
<g id="edge6" class="edge"><title>Node3&#45;&gt;Node4</title>
<path fill="none" stroke="midnightblue" d="M198.551,-232.459C244.741,-218.489 329.243,-193.35 402,-174 452.835,-160.48 511.589,-146.47 551,-137.303"/>
<polygon fill="midnightblue" stroke="midnightblue" points="551.884,-140.692 560.835,-135.023 550.303,-133.872 551.884,-140.692"/>
</g>
<!-- Node13 -->
<g id="node25" class="node"><title>Node13</title>
<a xlink:href="defaultSetter_8h.html" target="_top" xlink:title="defaultSetter.h">
<polygon fill="none" stroke="black" points="120,-174.5 120,-195.5 208,-195.5 208,-174.5 120,-174.5"/>
<text text-anchor="middle" x="164" y="-182.5" font-family="FreeSans.ttf" font-size="10.00">defaultSetter.h</text>
</a>
</g>
<!-- Node3&#45;&gt;Node13 -->
<g id="edge24" class="edge"><title>Node3&#45;&gt;Node13</title>
<path fill="none" stroke="midnightblue" d="M164,-232.362C164,-224.922 164,-214.743 164,-205.728"/>
<polygon fill="midnightblue" stroke="midnightblue" points="167.5,-205.571 164,-195.571 160.5,-205.571 167.5,-205.571"/>
</g>
<!-- Node15 -->
<g id="node31" class="node"><title>Node15</title>
<a xlink:href="printerVisitor_8h.html" target="_top" xlink:title="printerVisitor.h">
<polygon fill="none" stroke="black" points="226,-174.5 226,-195.5 312,-195.5 312,-174.5 226,-174.5"/>
<text text-anchor="middle" x="269" y="-182.5" font-family="FreeSans.ttf" font-size="10.00">printerVisitor.h</text>
</a>
</g>
<!-- Node3&#45;&gt;Node15 -->
<g id="edge32" class="edge"><title>Node3&#45;&gt;Node15</title>
<path fill="none" stroke="midnightblue" d="M183.259,-232.362C199.466,-223.409 222.853,-210.491 241.109,-200.406"/>
<polygon fill="midnightblue" stroke="midnightblue" points="242.802,-203.47 249.863,-195.571 239.418,-197.342 242.802,-203.47"/>
</g>
<!-- Node16 -->
<g id="node35" class="node"><title>Node16</title>
<a xlink:href="sobelMixingType_8h.html" target="_top" xlink:title="sobelMixingType.h">
<polygon fill="none" stroke="black" points="0,-174.5 0,-195.5 102,-195.5 102,-174.5 0,-174.5"/>
<text text-anchor="middle" x="51" y="-182.5" font-family="FreeSans.ttf" font-size="10.00">sobelMixingType.h</text>
</a>
</g>
<!-- Node3&#45;&gt;Node16 -->
<g id="edge38" class="edge"><title>Node3&#45;&gt;Node16</title>
<path fill="none" stroke="midnightblue" d="M143.537,-232.497C125.967,-223.479 100.418,-210.365 80.6149,-200.201"/>
<polygon fill="midnightblue" stroke="midnightblue" points="82.1879,-197.074 71.6931,-195.621 78.9914,-203.301 82.1879,-197.074"/>
</g>
<!-- Node5 -->
<g id="node9" class="node"><title>Node5</title>
<polygon fill="none" stroke="#bfbfbf" points="572.5,-58.5 572.5,-79.5 619.5,-79.5 619.5,-58.5 572.5,-58.5"/>
<text text-anchor="middle" x="596" y="-66.5" font-family="FreeSans.ttf" font-size="10.00">vector</text>
</g>
<!-- Node4&#45;&gt;Node5 -->
<g id="edge8" class="edge"><title>Node4&#45;&gt;Node5</title>
<path fill="none" stroke="midnightblue" d="M596,-116.362C596,-108.922 596,-98.7427 596,-89.7276"/>
<polygon fill="midnightblue" stroke="midnightblue" points="599.5,-89.5706 596,-79.5707 592.5,-89.5707 599.5,-89.5706"/>
</g>
<!-- Node6 -->
<g id="node11" class="node"><title>Node6</title>
<polygon fill="none" stroke="#bfbfbf" points="793,-58.5 793,-79.5 837,-79.5 837,-58.5 793,-58.5"/>
<text text-anchor="middle" x="815" y="-66.5" font-family="FreeSans.ttf" font-size="10.00">string</text>
</g>
<!-- Node4&#45;&gt;Node6 -->
<g id="edge10" class="edge"><title>Node4&#45;&gt;Node6</title>
<path fill="none" stroke="midnightblue" d="M631.186,-117.681C673.119,-106.576 742.582,-88.1791 783.04,-77.4643"/>
<polygon fill="midnightblue" stroke="midnightblue" points="784.138,-80.7943 792.909,-74.8507 782.346,-74.0276 784.138,-80.7943"/>
</g>
<!-- Node7 -->
<g id="node13" class="node"><title>Node7</title>
<polygon fill="none" stroke="#bfbfbf" points="636.5,-58.5 636.5,-79.5 689.5,-79.5 689.5,-58.5 636.5,-58.5"/>
<text text-anchor="middle" x="663" y="-66.5" font-family="FreeSans.ttf" font-size="10.00">string.h</text>
</g>
<!-- Node4&#45;&gt;Node7 -->
<g id="edge12" class="edge"><title>Node4&#45;&gt;Node7</title>
<path fill="none" stroke="midnightblue" d="M608.289,-116.362C618.017,-107.941 631.798,-96.0105 643.095,-86.2308"/>
<polygon fill="midnightblue" stroke="midnightblue" points="645.519,-88.7619 650.789,-79.5707 640.938,-83.4695 645.519,-88.7619"/>
</g>
<!-- Node8 -->
<g id="node15" class="node"><title>Node8</title>
<polygon fill="none" stroke="#bfbfbf" points="706.5,-58.5 706.5,-79.5 755.5,-79.5 755.5,-58.5 706.5,-58.5"/>
<text text-anchor="middle" x="731" y="-66.5" font-family="FreeSans.ttf" font-size="10.00">stdio.h</text>
</g>
<!-- Node4&#45;&gt;Node8 -->
<g id="edge14" class="edge"><title>Node4&#45;&gt;Node8</title>
<path fill="none" stroke="midnightblue" d="M620.447,-116.497C641.818,-107.315 673.069,-93.8889 696.897,-83.6516"/>
<polygon fill="midnightblue" stroke="midnightblue" points="698.472,-86.7845 706.278,-79.6212 695.709,-80.3529 698.472,-86.7845"/>
</g>
<!-- Node9 -->
<g id="node17" class="node"><title>Node9</title>
<polygon fill="none" stroke="#bfbfbf" points="428.5,-58.5 428.5,-79.5 481.5,-79.5 481.5,-58.5 428.5,-58.5"/>
<text text-anchor="middle" x="455" y="-66.5" font-family="FreeSans.ttf" font-size="10.00">stdint.h</text>
</g>
<!-- Node4&#45;&gt;Node9 -->
<g id="edge16" class="edge"><title>Node4&#45;&gt;Node9</title>
<path fill="none" stroke="midnightblue" d="M570.466,-116.497C548.047,-107.275 515.215,-93.7695 490.287,-83.5153"/>
<polygon fill="midnightblue" stroke="midnightblue" points="491.4,-80.1886 480.821,-79.6212 488.737,-86.6623 491.4,-80.1886"/>
</g>
<!-- Node10 -->
<g id="node19" class="node"><title>Node10</title>
<polygon fill="none" stroke="#bfbfbf" points="499,-58.5 499,-79.5 555,-79.5 555,-58.5 499,-58.5"/>
<text text-anchor="middle" x="527" y="-66.5" font-family="FreeSans.ttf" font-size="10.00">stdarg.h</text>
</g>
<!-- Node4&#45;&gt;Node10 -->
<g id="edge18" class="edge"><title>Node4&#45;&gt;Node10</title>
<path fill="none" stroke="midnightblue" d="M583.344,-116.362C573.326,-107.941 559.133,-96.0105 547.499,-86.2308"/>
<polygon fill="midnightblue" stroke="midnightblue" points="549.482,-83.326 539.575,-79.5707 544.978,-88.6844 549.482,-83.326"/>
</g>
<!-- Node11 -->
<g id="node21" class="node"><title>Node11</title>
<a xlink:href="global_8h.html" target="_top" xlink:title="This file holds the global includes, mostly for debuging, tracing and profiling.">
<polygon fill="none" stroke="black" points="329,-58.5 329,-79.5 383,-79.5 383,-58.5 329,-58.5"/>
<text text-anchor="middle" x="356" y="-66.5" font-family="FreeSans.ttf" font-size="10.00">global.h</text>
</a>
</g>
<!-- Node4&#45;&gt;Node11 -->
<g id="edge20" class="edge"><title>Node4&#45;&gt;Node11</title>
<path fill="none" stroke="midnightblue" d="M560.845,-118.504C515.937,-107.651 438.572,-88.9549 392.86,-77.9079"/>
<polygon fill="midnightblue" stroke="midnightblue" points="393.602,-74.4864 383.06,-75.5394 391.958,-81.2906 393.602,-74.4864"/>
</g>
<!-- Node12 -->
<g id="node23" class="node"><title>Node12</title>
<polygon fill="none" stroke="#bfbfbf" points="324,-0.5 324,-21.5 388,-21.5 388,-0.5 324,-0.5"/>
<text text-anchor="middle" x="356" y="-8.5" font-family="FreeSans.ttf" font-size="10.00">inttypes.h</text>
</g>
<!-- Node11&#45;&gt;Node12 -->
<g id="edge22" class="edge"><title>Node11&#45;&gt;Node12</title>
<path fill="none" stroke="midnightblue" d="M356,-58.3619C356,-50.9219 356,-40.7427 356,-31.7276"/>
<polygon fill="midnightblue" stroke="midnightblue" points="359.5,-31.5706 356,-21.5707 352.5,-31.5707 359.5,-31.5706"/>
</g>
<!-- Node13&#45;&gt;Node4 -->
<g id="edge30" class="edge"><title>Node13&#45;&gt;Node4</title>
<path fill="none" stroke="midnightblue" d="M208.196,-175.547C211.171,-174.997 214.126,-174.476 217,-174 337.017,-154.137 479.68,-138.604 550.879,-131.397"/>
<polygon fill="midnightblue" stroke="midnightblue" points="551.254,-134.877 560.854,-130.394 550.554,-127.912 551.254,-134.877"/>
</g>
<!-- Node13&#45;&gt;Node11 -->
<g id="edge28" class="edge"><title>Node13&#45;&gt;Node11</title>
<path fill="none" stroke="midnightblue" d="M169.852,-174.317C178.629,-159.24 196.59,-131.802 219,-116 249.24,-94.6771 289.981,-82.3384 319.159,-75.7007"/>
<polygon fill="midnightblue" stroke="midnightblue" points="319.925,-79.116 328.962,-73.5852 318.448,-72.2736 319.925,-79.116"/>
</g>
<!-- Node14 -->
<g id="node27" class="node"><title>Node14</title>
<polygon fill="none" stroke="#bfbfbf" points="227.5,-116.5 227.5,-137.5 286.5,-137.5 286.5,-116.5 227.5,-116.5"/>
<text text-anchor="middle" x="257" y="-124.5" font-family="FreeSans.ttf" font-size="10.00">iostream</text>
</g>
<!-- Node13&#45;&gt;Node14 -->
<g id="edge26" class="edge"><title>Node13&#45;&gt;Node14</title>
<path fill="none" stroke="midnightblue" d="M181.058,-174.362C195.085,-165.614 215.184,-153.079 231.182,-143.101"/>
<polygon fill="midnightblue" stroke="midnightblue" points="233.418,-145.832 240.051,-137.571 229.713,-139.893 233.418,-145.832"/>
</g>
<!-- Node15&#45;&gt;Node4 -->
<g id="edge36" class="edge"><title>Node15&#45;&gt;Node4</title>
<path fill="none" stroke="midnightblue" d="M312.086,-177.358C374.02,-166.373 487.682,-146.212 550.78,-135.021"/>
<polygon fill="midnightblue" stroke="midnightblue" points="551.595,-138.431 560.83,-133.238 550.372,-131.538 551.595,-138.431"/>
</g>
<!-- Node15&#45;&gt;Node14 -->
<g id="edge34" class="edge"><title>Node15&#45;&gt;Node14</title>
<path fill="none" stroke="midnightblue" d="M266.799,-174.362C265.243,-166.84 263.107,-156.519 261.227,-147.431"/>
<polygon fill="midnightblue" stroke="midnightblue" points="264.641,-146.654 259.187,-137.571 257.786,-148.072 264.641,-146.654"/>
</g>
<!-- Node18&#45;&gt;Node4 -->
<g id="edge48" class="edge"><title>Node18&#45;&gt;Node4</title>
<path fill="none" stroke="midnightblue" d="M471.01,-290.468C450.329,-267.368 407.005,-211.336 435,-174 448.988,-155.344 508.49,-141.635 551.082,-133.986"/>
<polygon fill="midnightblue" stroke="midnightblue" points="551.716,-137.428 560.967,-132.263 550.515,-130.532 551.716,-137.428"/>
</g>
<!-- Node18&#45;&gt;Node11 -->
<g id="edge46" class="edge"><title>Node18&#45;&gt;Node11</title>
<path fill="none" stroke="midnightblue" d="M465.254,-290.229C453.624,-281.588 438.12,-268.533 428,-254 390.877,-200.685 369.386,-125.582 360.635,-89.6829"/>
<polygon fill="midnightblue" stroke="midnightblue" points="364.022,-88.8 358.324,-79.868 357.209,-90.404 364.022,-88.8"/>
</g>
<!-- Node19 -->
<g id="node41" class="node"><title>Node19</title>
<polygon fill="none" stroke="#bfbfbf" points="444,-174.5 444,-195.5 518,-195.5 518,-174.5 444,-174.5"/>
<text text-anchor="middle" x="481" y="-182.5" font-family="FreeSans.ttf" font-size="10.00">QtGui/QtGui</text>
</g>
<!-- Node18&#45;&gt;Node19 -->
<g id="edge44" class="edge"><title>Node18&#45;&gt;Node19</title>
<path fill="none" stroke="midnightblue" d="M481,-290.295C481,-271.131 481,-230.654 481,-205.843"/>
<polygon fill="midnightblue" stroke="midnightblue" points="484.5,-205.679 481,-195.679 477.5,-205.679 484.5,-205.679"/>
</g>
<!-- Node20 -->
<g id="node45" class="node"><title>Node20</title>
<a xlink:href="parametersControlWidgetBase_8h.html" target="_top" xlink:title="parametersControlWidgetBase.h">
<polygon fill="none" stroke="black" points="550.5,-232.5 550.5,-253.5 723.5,-253.5 723.5,-232.5 550.5,-232.5"/>
<text text-anchor="middle" x="637" y="-240.5" font-family="FreeSans.ttf" font-size="10.00">parametersControlWidgetBase.h</text>
</a>
</g>
<!-- Node18&#45;&gt;Node20 -->
<g id="edge50" class="edge"><title>Node18&#45;&gt;Node20</title>
<path fill="none" stroke="midnightblue" d="M509.25,-290.497C534.462,-281.123 571.576,-267.324 599.312,-257.012"/>
<polygon fill="midnightblue" stroke="midnightblue" points="600.543,-260.289 608.697,-253.523 598.104,-253.727 600.543,-260.289"/>
</g>
<!-- Node20&#45;&gt;Node4 -->
<g id="edge56" class="edge"><title>Node20&#45;&gt;Node4</title>
<path fill="none" stroke="midnightblue" d="M626.783,-232.401C618.837,-223.462 608.302,-209.93 603,-196 597.119,-180.55 595.533,-161.825 595.326,-147.782"/>
<polygon fill="midnightblue" stroke="midnightblue" points="598.827,-147.702 595.401,-137.676 591.827,-147.65 598.827,-147.702"/>
</g>
<!-- Node20&#45;&gt;Node11 -->
<g id="edge54" class="edge"><title>Node20&#45;&gt;Node11</title>
<path fill="none" stroke="midnightblue" d="M620.259,-232.429C598.722,-218.847 560.137,-194.566 527,-174 475.864,-142.263 415.871,-105.543 382.262,-85.0189"/>
<polygon fill="midnightblue" stroke="midnightblue" points="383.871,-81.9003 373.512,-79.677 380.223,-87.8749 383.871,-81.9003"/>
</g>
<!-- Node20&#45;&gt;Node19 -->
<g id="edge52" class="edge"><title>Node20&#45;&gt;Node19</title>
<path fill="none" stroke="midnightblue" d="M608.75,-232.497C583.538,-223.123 546.424,-209.324 518.688,-199.012"/>
<polygon fill="midnightblue" stroke="midnightblue" points="519.896,-195.727 509.303,-195.523 517.457,-202.289 519.896,-195.727"/>
</g>
<!-- Node21 -->
<g id="node50" class="node"><title>Node21</title>
<a xlink:href="qSettingsSetter_8h.html" target="_top" xlink:title="visitors/qSettingsSetter.h">
<polygon fill="none" stroke="black" points="611.5,-174.5 611.5,-195.5 748.5,-195.5 748.5,-174.5 611.5,-174.5"/>
<text text-anchor="middle" x="680" y="-182.5" font-family="FreeSans.ttf" font-size="10.00">visitors/qSettingsSetter.h</text>
</a>
</g>
<!-- Node20&#45;&gt;Node21 -->
<g id="edge58" class="edge"><title>Node20&#45;&gt;Node21</title>
<path fill="none" stroke="midnightblue" d="M644.887,-232.362C650.827,-224.35 659.122,-213.161 666.159,-203.67"/>
<polygon fill="midnightblue" stroke="midnightblue" points="669.019,-205.688 672.163,-195.571 663.396,-201.519 669.019,-205.688"/>
</g>
<!-- Node25 -->
<g id="node60" class="node"><title>Node25</title>
<a xlink:href="xmlSetter_8h.html" target="_top" xlink:title="visitors/xmlSetter.h">
<polygon fill="none" stroke="black" points="921.5,-174.5 921.5,-195.5 1030.5,-195.5 1030.5,-174.5 921.5,-174.5"/>
<text text-anchor="middle" x="976" y="-182.5" font-family="FreeSans.ttf" font-size="10.00">visitors/xmlSetter.h</text>
</a>
</g>
<!-- Node20&#45;&gt;Node25 -->
<g id="edge70" class="edge"><title>Node20&#45;&gt;Node25</title>
<path fill="none" stroke="midnightblue" d="M699.22,-232.481C752.872,-223.393 832.716,-209.827 911.294,-196.29"/>
<polygon fill="midnightblue" stroke="midnightblue" points="912.107,-199.702 921.367,-194.554 910.917,-192.803 912.107,-199.702"/>
</g>
<!-- Node27 -->
<g id="node66" class="node"><title>Node27</title>
<a xlink:href="qSettingsGetter_8h.html" target="_top" xlink:title="visitors/qSettingsGetter.h">
<polygon fill="none" stroke="black" points="766,-174.5 766,-195.5 904,-195.5 904,-174.5 766,-174.5"/>
<text text-anchor="middle" x="835" y="-182.5" font-family="FreeSans.ttf" font-size="10.00">visitors/qSettingsGetter.h</text>
</a>
</g>
<!-- Node20&#45;&gt;Node27 -->
<g id="edge78" class="edge"><title>Node20&#45;&gt;Node27</title>
<path fill="none" stroke="midnightblue" d="M672.856,-232.497C705.555,-222.918 754.026,-208.72 789.454,-198.342"/>
<polygon fill="midnightblue" stroke="midnightblue" points="790.464,-201.693 799.076,-195.523 788.496,-194.975 790.464,-201.693"/>
</g>
<!-- Node29 -->
<g id="node72" class="node"><title>Node29</title>
<a xlink:href="xmlGetter_8h.html" target="_top" xlink:title="visitors/xmlGetter.h">
<polygon fill="none" stroke="black" points="1048,-174.5 1048,-195.5 1158,-195.5 1158,-174.5 1048,-174.5"/>
<text text-anchor="middle" x="1103" y="-182.5" font-family="FreeSans.ttf" font-size="10.00">visitors/xmlGetter.h</text>
</a>
</g>
<!-- Node20&#45;&gt;Node29 -->
<g id="edge86" class="edge"><title>Node20&#45;&gt;Node29</title>
<path fill="none" stroke="midnightblue" d="M723.827,-234.213C803.055,-225.881 923.618,-212.418 1037.9,-196.103"/>
<polygon fill="midnightblue" stroke="midnightblue" points="1038.47,-199.556 1047.87,-194.669 1037.48,-192.627 1038.47,-199.556"/>
</g>
<!-- Node21&#45;&gt;Node4 -->
<g id="edge68" class="edge"><title>Node21&#45;&gt;Node4</title>
<path fill="none" stroke="midnightblue" d="M664.593,-174.362C652.042,-165.696 634.108,-153.313 619.725,-143.382"/>
<polygon fill="midnightblue" stroke="midnightblue" points="621.527,-140.372 611.309,-137.571 617.55,-146.133 621.527,-140.372"/>
</g>
<!-- Node22 -->
<g id="node52" class="node"><title>Node22</title>
<polygon fill="none" stroke="#bfbfbf" points="648.5,-116.5 648.5,-137.5 749.5,-137.5 749.5,-116.5 648.5,-116.5"/>
<text text-anchor="middle" x="699" y="-124.5" font-family="FreeSans.ttf" font-size="10.00">QtCore/QSettings</text>
</g>
<!-- Node21&#45;&gt;Node22 -->
<g id="edge60" class="edge"><title>Node21&#45;&gt;Node22</title>
<path fill="none" stroke="midnightblue" d="M683.485,-174.362C685.976,-166.758 689.404,-156.294 692.404,-147.135"/>
<polygon fill="midnightblue" stroke="midnightblue" points="695.75,-148.163 695.537,-137.571 689.098,-145.984 695.75,-148.163"/>
</g>
<!-- Node23 -->
<g id="node54" class="node"><title>Node23</title>
<a xlink:href="basePathVisitor_8h.html" target="_top" xlink:title="Add Comment Here.">
<polygon fill="none" stroke="black" points="848.5,-116.5 848.5,-137.5 947.5,-137.5 947.5,-116.5 848.5,-116.5"/>
<text text-anchor="middle" x="898" y="-124.5" font-family="FreeSans.ttf" font-size="10.00">basePathVisitor.h</text>
</a>
</g>
<!-- Node21&#45;&gt;Node23 -->
<g id="edge62" class="edge"><title>Node21&#45;&gt;Node23</title>
<path fill="none" stroke="midnightblue" d="M719.478,-174.497C755.633,-164.877 809.304,-150.598 848.353,-140.209"/>
<polygon fill="midnightblue" stroke="midnightblue" points="849.684,-143.477 858.448,-137.523 847.884,-136.712 849.684,-143.477"/>
</g>
<!-- Node23&#45;&gt;Node6 -->
<g id="edge66" class="edge"><title>Node23&#45;&gt;Node6</title>
<path fill="none" stroke="midnightblue" d="M882.777,-116.362C870.375,-107.696 852.654,-95.3126 838.443,-85.3819"/>
<polygon fill="midnightblue" stroke="midnightblue" points="840.329,-82.4297 830.127,-79.5707 836.319,-88.1676 840.329,-82.4297"/>
</g>
<!-- Node24 -->
<g id="node56" class="node"><title>Node24</title>
<polygon fill="none" stroke="#bfbfbf" points="874.5,-58.5 874.5,-79.5 921.5,-79.5 921.5,-58.5 874.5,-58.5"/>
<text text-anchor="middle" x="898" y="-66.5" font-family="FreeSans.ttf" font-size="10.00">deque</text>
</g>
<!-- Node23&#45;&gt;Node24 -->
<g id="edge64" class="edge"><title>Node23&#45;&gt;Node24</title>
<path fill="none" stroke="midnightblue" d="M898,-116.362C898,-108.922 898,-98.7427 898,-89.7276"/>
<polygon fill="midnightblue" stroke="midnightblue" points="901.5,-89.5706 898,-79.5707 894.5,-89.5707 901.5,-89.5706"/>
</g>
<!-- Node25&#45;&gt;Node4 -->
<g id="edge76" class="edge"><title>Node25&#45;&gt;Node4</title>
<path fill="none" stroke="midnightblue" d="M921.387,-175.321C918.552,-174.863 915.744,-174.42 913,-174 795.217,-155.959 761.965,-160.61 641.451,-138.122"/>
<polygon fill="midnightblue" stroke="midnightblue" points="641.941,-134.653 631.465,-136.235 640.641,-141.531 641.941,-134.653"/>
</g>
<!-- Node25&#45;&gt;Node23 -->
<g id="edge74" class="edge"><title>Node25&#45;&gt;Node23</title>
<path fill="none" stroke="midnightblue" d="M961.694,-174.362C950.149,-165.777 933.7,-153.546 920.41,-143.664"/>
<polygon fill="midnightblue" stroke="midnightblue" points="922.329,-140.729 912.216,-137.571 918.152,-146.346 922.329,-140.729"/>
</g>
<!-- Node26 -->
<g id="node62" class="node"><title>Node26</title>
<polygon fill="none" stroke="#bfbfbf" points="964.5,-116.5 964.5,-137.5 1053.5,-137.5 1053.5,-116.5 964.5,-116.5"/>
<text text-anchor="middle" x="1009" y="-124.5" font-family="FreeSans.ttf" font-size="10.00">QtCore/QString</text>
</g>
<!-- Node25&#45;&gt;Node26 -->
<g id="edge72" class="edge"><title>Node25&#45;&gt;Node26</title>
<path fill="none" stroke="midnightblue" d="M982.053,-174.362C986.472,-166.595 992.59,-155.843 997.879,-146.546"/>
<polygon fill="midnightblue" stroke="midnightblue" points="1001.08,-147.993 1002.99,-137.571 994.998,-144.531 1001.08,-147.993"/>
</g>
<!-- Node27&#45;&gt;Node4 -->
<g id="edge84" class="edge"><title>Node27&#45;&gt;Node4</title>
<path fill="none" stroke="midnightblue" d="M790.83,-174.467C753.452,-165.528 698.197,-152.254 641.001,-138.233"/>
<polygon fill="midnightblue" stroke="midnightblue" points="641.604,-134.777 631.058,-135.793 639.935,-141.575 641.604,-134.777"/>
</g>
<!-- Node27&#45;&gt;Node23 -->
<g id="edge82" class="edge"><title>Node27&#45;&gt;Node23</title>
<path fill="none" stroke="midnightblue" d="M846.555,-174.362C855.613,-166.023 868.41,-154.242 878.974,-144.516"/>
<polygon fill="midnightblue" stroke="midnightblue" points="881.532,-146.919 886.518,-137.571 876.79,-141.769 881.532,-146.919"/>
</g>
<!-- Node28 -->
<g id="node68" class="node"><title>Node28</title>
<polygon fill="none" stroke="#bfbfbf" points="767,-116.5 767,-137.5 831,-137.5 831,-116.5 767,-116.5"/>
<text text-anchor="middle" x="799" y="-124.5" font-family="FreeSans.ttf" font-size="10.00">QSettings</text>
</g>
<!-- Node27&#45;&gt;Node28 -->
<g id="edge80" class="edge"><title>Node27&#45;&gt;Node28</title>
<path fill="none" stroke="midnightblue" d="M828.397,-174.362C823.525,-166.513 816.762,-155.616 810.95,-146.253"/>
<polygon fill="midnightblue" stroke="midnightblue" points="813.809,-144.221 805.561,-137.571 807.861,-147.913 813.809,-144.221"/>
</g>
<!-- Node29&#45;&gt;Node4 -->
<g id="edge92" class="edge"><title>Node29&#45;&gt;Node4</title>
<path fill="none" stroke="midnightblue" d="M1047.88,-175.238C1044.88,-174.797 1041.91,-174.38 1039,-174 865.727,-151.33 817.347,-167.072 641.551,-138.056"/>
<polygon fill="midnightblue" stroke="midnightblue" points="641.883,-134.563 631.442,-136.362 640.726,-141.467 641.883,-134.563"/>
</g>
<!-- Node29&#45;&gt;Node23 -->
<g id="edge94" class="edge"><title>Node29&#45;&gt;Node23</title>
<path fill="none" stroke="midnightblue" d="M1065.88,-174.497C1032.02,-164.918 981.836,-150.72 945.156,-140.342"/>
<polygon fill="midnightblue" stroke="midnightblue" points="945.769,-136.878 935.194,-137.523 943.863,-143.613 945.769,-136.878"/>
</g>
<!-- Node29&#45;&gt;Node26 -->
<g id="edge88" class="edge"><title>Node29&#45;&gt;Node26</title>
<path fill="none" stroke="midnightblue" d="M1085.76,-174.362C1071.45,-165.532 1050.89,-152.844 1034.64,-142.822"/>
<polygon fill="midnightblue" stroke="midnightblue" points="1036.48,-139.843 1026.13,-137.571 1032.8,-145.8 1036.48,-139.843"/>
</g>
<!-- Node30 -->
<g id="node75" class="node"><title>Node30</title>
<polygon fill="none" stroke="#bfbfbf" points="1070.5,-116.5 1070.5,-137.5 1189.5,-137.5 1189.5,-116.5 1070.5,-116.5"/>
<text text-anchor="middle" x="1130" y="-124.5" font-family="FreeSans.ttf" font-size="10.00">QtXml/QDomElement</text>
</g>
<!-- Node29&#45;&gt;Node30 -->
<g id="edge90" class="edge"><title>Node29&#45;&gt;Node30</title>
<path fill="none" stroke="midnightblue" d="M1107.95,-174.362C1111.53,-166.677 1116.47,-156.069 1120.76,-146.84"/>
<polygon fill="midnightblue" stroke="midnightblue" points="1124.03,-148.114 1125.08,-137.571 1117.69,-145.159 1124.03,-148.114"/>
</g>
</g>
</svg>
        <g id="navigator" transform="translate(0 0)" fill="#404254">
                <rect fill="#f2f5e9" fill-opacity="0.5" stroke="#606060" stroke-width=".5" x="0" y="0" width="60" height="60"/>
                <use id="zoomplus" xlink:href="#zoomPlus" x="17" y="9" onmousedown="handleZoom(evt,'in')"/>
                <use id="zoomminus" xlink:href="#zoomMin" x="42" y="9" onmousedown="handleZoom(evt,'out')"/>
                <use id="reset" xlink:href="#resetDef" x="30" y="36" onmousedown="handleReset()"/>
                <g id="arrowUp" xlink:href="#dirArrow" transform="translate(30 24)" onmousedown="handlePan(0,-1)">
                  <use xlink:href="#rim" fill="#404040">
                        <set attributeName="fill" to="#808080" begin="arrowUp.mouseover" end="arrowUp.mouseout"/>
                  </use>
                  <path fill="none" stroke="white" stroke-width="1.5" d="M0,-3.0v7 M-2.5,-0.5L0,-3.0L2.5,-0.5"/>
                </g>
                <g id="arrowRight" xlink:href="#dirArrow" transform="rotate(90) translate(36 -43)" onmousedown="handlePan(1,0)">
                  <use xlink:href="#rim" fill="#404040">
                        <set attributeName="fill" to="#808080" begin="arrowRight.mouseover" end="arrowRight.mouseout"/>
                  </use>
                  <path fill="none" stroke="white" stroke-width="1.5" d="M0,-3.0v7 M-2.5,-0.5L0,-3.0L2.5,-0.5"/>
                </g>
                <g id="arrowDown" xlink:href="#dirArrow" transform="rotate(180) translate(-30 -48)" onmousedown="handlePan(0,1)">
                  <use xlink:href="#rim" fill="#404040">
                        <set attributeName="fill" to="#808080" begin="arrowDown.mouseover" end="arrowDown.mouseout"/>
                  </use>
                  <path fill="none" stroke="white" stroke-width="1.5" d="M0,-3.0v7 M-2.5,-0.5L0,-3.0L2.5,-0.5"/>
                </g>
                <g id="arrowLeft" xlink:href="#dirArrow" transform="rotate(270) translate(-36 17)" onmousedown="handlePan(-1,0)">
                  <use xlink:href="#rim" fill="#404040">
                        <set attributeName="fill" to="#808080" begin="arrowLeft.mouseover" end="arrowLeft.mouseout"/>
                  </use>
                  <path fill="none" stroke="white" stroke-width="1.5" d="M0,-3.0v7 M-2.5,-0.5L0,-3.0L2.5,-0.5"/>
                </g>
        </g>
</svg>
