<?xml version="1.0" encoding="UTF-8" standalone="no"?>
<!DOCTYPE svg PUBLIC "-//W3C//DTD SVG 1.1//EN"
 "http://www.w3.org/Graphics/SVG/1.1/DTD/svg11.dtd">
<!-- Generated by graphviz version 2.26.3 (20100126.1600)
 -->
<!-- Title: G Pages: 1 -->
<svg width="473pt" height="262pt"
 viewBox="0.00 0.00 473.00 262.00" xmlns="http://www.w3.org/2000/svg" xmlns:xlink="http://www.w3.org/1999/xlink">
<g id="graph1" class="graph" transform="scale(1 1) rotate(0) translate(4 258)">
<title>G</title>
<!-- Node1 -->
<g id="node1" class="node"><title>Node1</title>
<polygon fill="#bfbfbf" stroke="black" points="121.5,-232.5 121.5,-253.5 324.5,-253.5 324.5,-232.5 121.5,-232.5"/>
<text text-anchor="middle" x="223" y="-240.5" font-family="FreeSans.ttf" font-size="10.00">core/xml/generated/sobelParameters.h</text>
</g>
<!-- Node2 -->
<g id="node3" class="node"><title>Node2</title>
<a xlink:href="reflection_8h.html" target="_top" xlink:title="a header for Reflection.c">
<polygon fill="none" stroke="black" points="184,-116.5 184,-137.5 254,-137.5 254,-116.5 184,-116.5"/>
<text text-anchor="middle" x="219" y="-124.5" font-family="FreeSans.ttf" font-size="10.00">reflection.h</text>
</a>
</g>
<!-- Node1&#45;&gt;Node2 -->
<g id="edge2" class="edge"><title>Node1&#45;&gt;Node2</title>
<path fill="none" stroke="midnightblue" d="M228.719,-232.292C235.23,-218.767 244.426,-194.754 240,-174 238.012,-164.679 234.037,-154.968 230.074,-146.809"/>
<polygon fill="midnightblue" stroke="midnightblue" points="233.091,-145.025 225.382,-137.758 226.877,-148.246 233.091,-145.025"/>
</g>
<!-- Node11 -->
<g id="node21" class="node"><title>Node11</title>
<a xlink:href="defaultSetter_8h.html" target="_top" xlink:title="defaultSetter.h">
<polygon fill="none" stroke="black" points="39,-174.5 39,-195.5 127,-195.5 127,-174.5 39,-174.5"/>
<text text-anchor="middle" x="83" y="-182.5" font-family="FreeSans.ttf" font-size="10.00">defaultSetter.h</text>
</a>
</g>
<!-- Node1&#45;&gt;Node11 -->
<g id="edge20" class="edge"><title>Node1&#45;&gt;Node11</title>
<path fill="none" stroke="midnightblue" d="M197.647,-232.497C175.387,-223.275 142.788,-209.769 118.037,-199.515"/>
<polygon fill="midnightblue" stroke="midnightblue" points="119.216,-196.215 108.637,-195.621 116.536,-202.682 119.216,-196.215"/>
</g>
<!-- Node13 -->
<g id="node27" class="node"><title>Node13</title>
<a xlink:href="printerVisitor_8h.html" target="_top" xlink:title="printerVisitor.h">
<polygon fill="none" stroke="black" points="145,-174.5 145,-195.5 231,-195.5 231,-174.5 145,-174.5"/>
<text text-anchor="middle" x="188" y="-182.5" font-family="FreeSans.ttf" font-size="10.00">printerVisitor.h</text>
</a>
</g>
<!-- Node1&#45;&gt;Node13 -->
<g id="edge28" class="edge"><title>Node1&#45;&gt;Node13</title>
<path fill="none" stroke="midnightblue" d="M216.58,-232.362C211.844,-224.513 205.268,-213.616 199.618,-204.253"/>
<polygon fill="midnightblue" stroke="midnightblue" points="202.542,-202.324 194.379,-195.571 196.549,-205.941 202.542,-202.324"/>
</g>
<!-- Node14 -->
<g id="node31" class="node"><title>Node14</title>
<a xlink:href="sobelMixingType_8h.html" target="_top" xlink:title="sobelMixingType.h">
<polygon fill="none" stroke="black" points="287,-174.5 287,-195.5 389,-195.5 389,-174.5 287,-174.5"/>
<text text-anchor="middle" x="338" y="-182.5" font-family="FreeSans.ttf" font-size="10.00">sobelMixingType.h</text>
</a>
</g>
<!-- Node1&#45;&gt;Node14 -->
<g id="edge34" class="edge"><title>Node1&#45;&gt;Node14</title>
<path fill="none" stroke="midnightblue" d="M243.826,-232.497C261.706,-223.479 287.707,-210.365 307.861,-200.201"/>
<polygon fill="midnightblue" stroke="midnightblue" points="309.588,-203.249 316.941,-195.621 306.436,-196.999 309.588,-203.249"/>
</g>
<!-- Node3 -->
<g id="node5" class="node"><title>Node3</title>
<polygon fill="none" stroke="#bfbfbf" points="286.5,-58.5 286.5,-79.5 333.5,-79.5 333.5,-58.5 286.5,-58.5"/>
<text text-anchor="middle" x="310" y="-66.5" font-family="FreeSans.ttf" font-size="10.00">vector</text>
</g>
<!-- Node2&#45;&gt;Node3 -->
<g id="edge4" class="edge"><title>Node2&#45;&gt;Node3</title>
<path fill="none" stroke="midnightblue" d="M235.691,-116.362C249.416,-107.614 269.084,-95.0786 284.737,-85.1015"/>
<polygon fill="midnightblue" stroke="midnightblue" points="286.863,-87.8969 293.415,-79.5707 283.101,-81.994 286.863,-87.8969"/>
</g>
<!-- Node4 -->
<g id="node7" class="node"><title>Node4</title>
<polygon fill="none" stroke="#bfbfbf" points="351,-58.5 351,-79.5 395,-79.5 395,-58.5 351,-58.5"/>
<text text-anchor="middle" x="373" y="-66.5" font-family="FreeSans.ttf" font-size="10.00">string</text>
</g>
<!-- Node2&#45;&gt;Node4 -->
<g id="edge6" class="edge"><title>Node2&#45;&gt;Node4</title>
<path fill="none" stroke="midnightblue" d="M246.888,-116.497C273.444,-106.495 313.375,-91.4562 341.165,-80.9896"/>
<polygon fill="midnightblue" stroke="midnightblue" points="342.683,-84.1582 350.807,-77.3582 340.216,-77.6074 342.683,-84.1582"/>
</g>
<!-- Node5 -->
<g id="node9" class="node"><title>Node5</title>
<polygon fill="none" stroke="#bfbfbf" points="412.5,-58.5 412.5,-79.5 465.5,-79.5 465.5,-58.5 412.5,-58.5"/>
<text text-anchor="middle" x="439" y="-66.5" font-family="FreeSans.ttf" font-size="10.00">string.h</text>
</g>
<!-- Node2&#45;&gt;Node5 -->
<g id="edge8" class="edge"><title>Node2&#45;&gt;Node5</title>
<path fill="none" stroke="midnightblue" d="M254.277,-118.657C289.576,-110.172 345.641,-96.328 402.433,-80.3549"/>
<polygon fill="midnightblue" stroke="midnightblue" points="403.626,-83.655 412.293,-77.562 401.718,-76.92 403.626,-83.655"/>
</g>
<!-- Node6 -->
<g id="node11" class="node"><title>Node6</title>
<polygon fill="none" stroke="#bfbfbf" points="76.5,-58.5 76.5,-79.5 125.5,-79.5 125.5,-58.5 76.5,-58.5"/>
<text text-anchor="middle" x="101" y="-66.5" font-family="FreeSans.ttf" font-size="10.00">stdio.h</text>
</g>
<!-- Node2&#45;&gt;Node6 -->
<g id="edge10" class="edge"><title>Node2&#45;&gt;Node6</title>
<path fill="none" stroke="midnightblue" d="M197.631,-116.497C179.201,-107.438 152.363,-94.2462 131.645,-84.0628"/>
<polygon fill="midnightblue" stroke="midnightblue" points="133.127,-80.8914 122.609,-79.6212 130.039,-87.1735 133.127,-80.8914"/>
</g>
<!-- Node7 -->
<g id="node13" class="node"><title>Node7</title>
<polygon fill="none" stroke="#bfbfbf" points="142.5,-58.5 142.5,-79.5 195.5,-79.5 195.5,-58.5 142.5,-58.5"/>
<text text-anchor="middle" x="169" y="-66.5" font-family="FreeSans.ttf" font-size="10.00">stdint.h</text>
</g>
<!-- Node2&#45;&gt;Node7 -->
<g id="edge12" class="edge"><title>Node2&#45;&gt;Node7</title>
<path fill="none" stroke="midnightblue" d="M209.829,-116.362C202.852,-108.268 193.079,-96.9318 184.844,-87.3796"/>
<polygon fill="midnightblue" stroke="midnightblue" points="187.293,-84.8595 178.113,-79.5707 181.991,-89.4301 187.293,-84.8595"/>
</g>
<!-- Node8 -->
<g id="node15" class="node"><title>Node8</title>
<polygon fill="none" stroke="#bfbfbf" points="213,-58.5 213,-79.5 269,-79.5 269,-58.5 213,-58.5"/>
<text text-anchor="middle" x="241" y="-66.5" font-family="FreeSans.ttf" font-size="10.00">stdarg.h</text>
</g>
<!-- Node2&#45;&gt;Node8 -->
<g id="edge14" class="edge"><title>Node2&#45;&gt;Node8</title>
<path fill="none" stroke="midnightblue" d="M223.035,-116.362C225.919,-108.758 229.888,-98.294 233.363,-89.1349"/>
<polygon fill="midnightblue" stroke="midnightblue" points="236.716,-90.1619 236.99,-79.5707 230.171,-87.6793 236.716,-90.1619"/>
</g>
<!-- Node9 -->
<g id="node17" class="node"><title>Node9</title>
<a xlink:href="global_8h.html" target="_top" xlink:title="This file holds the global includes, mostly for debuging, tracing and profiling.">
<polygon fill="none" stroke="black" points="5,-58.5 5,-79.5 59,-79.5 59,-58.5 5,-58.5"/>
<text text-anchor="middle" x="32" y="-66.5" font-family="FreeSans.ttf" font-size="10.00">global.h</text>
</a>
</g>
<!-- Node2&#45;&gt;Node9 -->
<g id="edge16" class="edge"><title>Node2&#45;&gt;Node9</title>
<path fill="none" stroke="midnightblue" d="M185.136,-116.497C152.419,-106.349 102.984,-91.0164 69.1891,-80.5346"/>
<polygon fill="midnightblue" stroke="midnightblue" points="69.8271,-77.068 59.2391,-77.4485 67.7534,-83.7538 69.8271,-77.068"/>
</g>
<!-- Node10 -->
<g id="node19" class="node"><title>Node10</title>
<polygon fill="none" stroke="#bfbfbf" points="0,-0.5 0,-21.5 64,-21.5 64,-0.5 0,-0.5"/>
<text text-anchor="middle" x="32" y="-8.5" font-family="FreeSans.ttf" font-size="10.00">inttypes.h</text>
</g>
<!-- Node9&#45;&gt;Node10 -->
<g id="edge18" class="edge"><title>Node9&#45;&gt;Node10</title>
<path fill="none" stroke="midnightblue" d="M32,-58.3619C32,-50.9219 32,-40.7427 32,-31.7276"/>
<polygon fill="midnightblue" stroke="midnightblue" points="35.5001,-31.5706 32,-21.5707 28.5001,-31.5707 35.5001,-31.5706"/>
</g>
<!-- Node11&#45;&gt;Node2 -->
<g id="edge26" class="edge"><title>Node11&#45;&gt;Node2</title>
<path fill="none" stroke="midnightblue" d="M107.629,-174.497C129.157,-165.315 160.64,-151.889 184.645,-141.652"/>
<polygon fill="midnightblue" stroke="midnightblue" points="186.27,-144.764 194.095,-137.621 183.524,-138.325 186.27,-144.764"/>
</g>
<!-- Node11&#45;&gt;Node9 -->
<g id="edge24" class="edge"><title>Node11&#45;&gt;Node9</title>
<path fill="none" stroke="midnightblue" d="M78.2935,-174.295C69.7543,-154.872 51.5893,-113.556 40.7255,-88.8462"/>
<polygon fill="midnightblue" stroke="midnightblue" points="43.924,-87.4248 36.6952,-79.6792 37.516,-90.2422 43.924,-87.4248"/>
</g>
<!-- Node12 -->
<g id="node23" class="node"><title>Node12</title>
<polygon fill="none" stroke="#bfbfbf" points="89.5,-116.5 89.5,-137.5 148.5,-137.5 148.5,-116.5 89.5,-116.5"/>
<text text-anchor="middle" x="119" y="-124.5" font-family="FreeSans.ttf" font-size="10.00">iostream</text>
</g>
<!-- Node11&#45;&gt;Node12 -->
<g id="edge22" class="edge"><title>Node11&#45;&gt;Node12</title>
<path fill="none" stroke="midnightblue" d="M89.603,-174.362C94.4746,-166.513 101.238,-155.616 107.05,-146.253"/>
<polygon fill="midnightblue" stroke="midnightblue" points="110.139,-147.913 112.439,-137.571 104.191,-144.221 110.139,-147.913"/>
</g>
<!-- Node13&#45;&gt;Node2 -->
<g id="edge32" class="edge"><title>Node13&#45;&gt;Node2</title>
<path fill="none" stroke="midnightblue" d="M193.686,-174.362C197.837,-166.595 203.584,-155.843 208.553,-146.546"/>
<polygon fill="midnightblue" stroke="midnightblue" points="211.723,-148.04 213.35,-137.571 205.55,-144.74 211.723,-148.04"/>
</g>
<!-- Node13&#45;&gt;Node12 -->
<g id="edge30" class="edge"><title>Node13&#45;&gt;Node12</title>
<path fill="none" stroke="midnightblue" d="M175.344,-174.362C165.326,-165.941 151.133,-154.011 139.499,-144.231"/>
<polygon fill="midnightblue" stroke="midnightblue" points="141.482,-141.326 131.575,-137.571 136.978,-146.684 141.482,-141.326"/>
</g>
</g>
</svg>
