<?xml version="1.0" encoding="UTF-8" standalone="no"?>
<!DOCTYPE svg PUBLIC "-//W3C//DTD SVG 1.1//EN"
 "http://www.w3.org/Graphics/SVG/1.1/DTD/svg11.dtd">
<!-- Generated by graphviz version 2.26.3 (20100126.1600)
 -->
<!-- Title: G Pages: 1 -->
<!--zoomable 204 -->
<svg id="main" version="1.1" xmlns="http://www.w3.org/2000/svg" xmlns:xlink="http://www.w3.org/1999/xlink" xml:space="preserve" onload="init(evt)">
        <defs>
                <circle id="rim" cx="0" cy="0" r="7"/>
                <circle id="rim2" cx="0" cy="0" r="3.5"/>
                <g id="zoomPlus">
                        <use xlink:href="#rim" fill="#404040">
                                <set attributeName="fill" to="#808080" begin="zoomplus.mouseover" end="zoomplus.mouseout"/>
                        </use>
                        <path d="M-4,0h8M0,-4v8" fill="none" stroke="white" stroke-width="1.5" pointer-events="none"/>
                </g>
                <g id="zoomMin">
                        <use xlink:href="#rim" fill="#404040">
                                <set attributeName="fill" to="#808080" begin="zoomminus.mouseover" end="zoomminus.mouseout"/>
                        </use>
                        <path d="M-4,0h8" fill="none" stroke="white" stroke-width="1.5" pointer-events="none"/>
                </g>
                <g id="dirArrow">
                        <path fill="none" stroke="white" stroke-width="1.5" d="M0,-3.0v7 M-2.5,-0.5L0,-3.0L2.5,-0.5"/>
                </g>
               <g id="resetDef">
                       <use xlink:href="#rim2" fill="#404040">
                               <set attributeName="fill" to="#808080" begin="reset.mouseover" end="reset.mouseout"/>
                       </use>
               </g>
        </defs>

<script type="text/javascript">
var viewWidth = 2071;
var viewHeight = 204;
var sectionId = 'dynsection-0';
</script>
<script xlink:href="svgpan.js"/>
<svg id="graph" class="graph">
<g id="viewport">
<title>G</title>
<!-- Node1 -->
<g id="node1" class="node"><title>Node1</title>
<polygon fill="#bfbfbf" stroke="black" points="737,-174.5 737,-195.5 889,-195.5 889,-174.5 737,-174.5"/>
<text text-anchor="middle" x="813" y="-182.5" font-family="FreeSans.ttf" font-size="10.00">core/math/sse/sseWrapper.h</text>
</g>
<!-- Node2 -->
<g id="node3" class="node"><title>Node2</title>
<a xlink:href="flowBuffer_8cpp.html" target="_top" xlink:title="Add Comment Here.">
<polygon fill="none" stroke="black" points="410,-116.5 410,-137.5 574,-137.5 574,-116.5 410,-116.5"/>
<text text-anchor="middle" x="492" y="-124.5" font-family="FreeSans.ttf" font-size="10.00">core/buffers/flow/flowBuffer.cpp</text>
</a>
</g>
<!-- Node1&#45;&gt;Node2 -->
<g id="edge2" class="edge"><title>Node1&#45;&gt;Node2</title>
<path fill="none" stroke="midnightblue" d="M744.731,-172.665C686.935,-162.222 604.986,-147.415 550.24,-137.523"/>
<polygon fill="midnightblue" stroke="midnightblue" points="744.406,-176.163 754.869,-174.497 745.651,-169.274 744.406,-176.163"/>
</g>
<!-- Node3 -->
<g id="node5" class="node"><title>Node3</title>
<a xlink:href="vectorTraits_8h.html" target="_top" xlink:title="core/buffers/kernels/fastkernel/vectorTraits.h">
<polygon fill="none" stroke="black" points="592,-116.5 592,-137.5 820,-137.5 820,-116.5 592,-116.5"/>
<text text-anchor="middle" x="706" y="-124.5" font-family="FreeSans.ttf" font-size="10.00">core/buffers/kernels/fastkernel/vectorTraits.h</text>
</a>
</g>
<!-- Node1&#45;&gt;Node3 -->
<g id="edge4" class="edge"><title>Node1&#45;&gt;Node3</title>
<path fill="none" stroke="midnightblue" d="M784.437,-169.517C765.807,-159.419 741.98,-146.503 725.501,-137.571"/>
<polygon fill="midnightblue" stroke="midnightblue" points="782.915,-172.673 793.375,-174.362 786.251,-166.519 782.915,-172.673"/>
</g>
<!-- Node12 -->
<g id="node23" class="node"><title>Node12</title>
<a xlink:href="sse_2sseWrapper_8cpp.html" target="_top" xlink:title="core/math/sse/sseWrapper.cpp">
<polygon fill="none" stroke="black" points="838,-116.5 838,-137.5 1002,-137.5 1002,-116.5 838,-116.5"/>
<text text-anchor="middle" x="920" y="-124.5" font-family="FreeSans.ttf" font-size="10.00">core/math/sse/sseWrapper.cpp</text>
</a>
</g>
<!-- Node1&#45;&gt;Node12 -->
<g id="edge22" class="edge"><title>Node1&#45;&gt;Node12</title>
<path fill="none" stroke="midnightblue" d="M841.563,-169.517C860.193,-159.419 884.02,-146.503 900.499,-137.571"/>
<polygon fill="midnightblue" stroke="midnightblue" points="839.749,-166.519 832.625,-174.362 843.085,-172.673 839.749,-166.519"/>
</g>
<!-- Node13 -->
<g id="node25" class="node"><title>Node13</title>
<a xlink:href="decoupleYUYV_8h.html" target="_top" xlink:title="utils/framesources/decoders/decoupleYUYV.h">
<polygon fill="none" stroke="black" points="1501.5,-116.5 1501.5,-137.5 1732.5,-137.5 1732.5,-116.5 1501.5,-116.5"/>
<text text-anchor="middle" x="1617" y="-124.5" font-family="FreeSans.ttf" font-size="10.00">utils/framesources/decoders/decoupleYUYV.h</text>
</a>
</g>
<!-- Node1&#45;&gt;Node13 -->
<g id="edge24" class="edge"><title>Node1&#45;&gt;Node13</title>
<path fill="none" stroke="midnightblue" d="M899.201,-178.782C1044.48,-168.301 1338.18,-147.114 1501.26,-135.349"/>
<polygon fill="midnightblue" stroke="midnightblue" points="898.723,-175.307 889,-179.517 899.226,-182.289 898.723,-175.307"/>
</g>
<!-- Node4 -->
<g id="node7" class="node"><title>Node4</title>
<a xlink:href="g12Buffer_8cpp.html" target="_top" xlink:title="Add Comment Here.">
<polygon fill="none" stroke="black" points="-0.5,-58.5 -0.5,-79.5 142.5,-79.5 142.5,-58.5 -0.5,-58.5"/>
<text text-anchor="middle" x="71" y="-66.5" font-family="FreeSans.ttf" font-size="10.00">core/buffers/g12Buffer.cpp</text>
</a>
</g>
<!-- Node3&#45;&gt;Node4 -->
<g id="edge6" class="edge"><title>Node3&#45;&gt;Node4</title>
<path fill="none" stroke="midnightblue" d="M581.594,-115.887C389.348,-99.4708 339.231,-100.769 151,-80 148.213,-79.6925 145.373,-79.3659 142.506,-79.0251"/>
<polygon fill="midnightblue" stroke="midnightblue" points="581.49,-119.39 591.752,-116.759 582.089,-112.416 581.49,-119.39"/>
</g>
<!-- Node5 -->
<g id="node9" class="node"><title>Node5</title>
<a xlink:href="spatialGradient_8cpp.html" target="_top" xlink:title="Add Comment Here.">
<polygon fill="none" stroke="black" points="159.5,-58.5 159.5,-79.5 366.5,-79.5 366.5,-58.5 159.5,-58.5"/>
<text text-anchor="middle" x="263" y="-66.5" font-family="FreeSans.ttf" font-size="10.00">core/buffers/kernels/spatialGradient.cpp</text>
</a>
</g>
<!-- Node3&#45;&gt;Node5 -->
<g id="edge8" class="edge"><title>Node3&#45;&gt;Node5</title>
<path fill="none" stroke="midnightblue" d="M615.72,-115.18C535.78,-104.714 420.179,-89.5788 343.374,-79.5231"/>
<polygon fill="midnightblue" stroke="midnightblue" points="615.406,-118.669 625.776,-116.497 616.315,-111.728 615.406,-118.669"/>
</g>
<!-- Node6 -->
<g id="node11" class="node"><title>Node6</title>
<a xlink:href="morphological_8cpp.html" target="_top" xlink:title="Add Comment Here.">
<polygon fill="none" stroke="black" points="383.5,-58.5 383.5,-79.5 618.5,-79.5 618.5,-58.5 383.5,-58.5"/>
<text text-anchor="middle" x="501" y="-66.5" font-family="FreeSans.ttf" font-size="10.00">core/buffers/morphological/morphological.cpp</text>
</a>
</g>
<!-- Node3&#45;&gt;Node6 -->
<g id="edge10" class="edge"><title>Node3&#45;&gt;Node6</title>
<path fill="none" stroke="midnightblue" d="M658.919,-113.68C622.258,-103.307 572.071,-89.1078 538.194,-79.5231"/>
<polygon fill="midnightblue" stroke="midnightblue" points="658.301,-117.142 668.876,-116.497 660.207,-110.406 658.301,-117.142"/>
</g>
<!-- Node7 -->
<g id="node13" class="node"><title>Node7</title>
<a xlink:href="cannyFilter_8cpp.html" target="_top" xlink:title="Add Comment Here.">
<polygon fill="none" stroke="black" points="636,-58.5 636,-79.5 776,-79.5 776,-58.5 636,-58.5"/>
<text text-anchor="middle" x="706" y="-66.5" font-family="FreeSans.ttf" font-size="10.00">core/filters/cannyFilter.cpp</text>
</a>
</g>
<!-- Node3&#45;&gt;Node7 -->
<g id="edge12" class="edge"><title>Node3&#45;&gt;Node7</title>
<path fill="none" stroke="midnightblue" d="M706,-106.191C706,-97.1684 706,-86.9941 706,-79.5707"/>
<polygon fill="midnightblue" stroke="midnightblue" points="702.5,-106.362 706,-116.362 709.5,-106.362 702.5,-106.362"/>
</g>
<!-- Node8 -->
<g id="node15" class="node"><title>Node8</title>
<a xlink:href="operationFilter_8h.html" target="_top" xlink:title="core/filters/operationFilter.h">
<polygon fill="none" stroke="black" points="794,-58.5 794,-79.5 940,-79.5 940,-58.5 794,-58.5"/>
<text text-anchor="middle" x="867" y="-66.5" font-family="FreeSans.ttf" font-size="10.00">core/filters/operationFilter.h</text>
</a>
</g>
<!-- Node3&#45;&gt;Node8 -->
<g id="edge14" class="edge"><title>Node3&#45;&gt;Node8</title>
<path fill="none" stroke="midnightblue" d="M744.836,-113.009C773.447,-102.702 811.752,-88.903 837.789,-79.5231"/>
<polygon fill="midnightblue" stroke="midnightblue" points="743.378,-109.814 735.156,-116.497 745.75,-116.4 743.378,-109.814"/>
</g>
<!-- Node11 -->
<g id="node21" class="node"><title>Node11</title>
<a xlink:href="sobelFilter_8cpp.html" target="_top" xlink:title="Add Comment Here.">
<polygon fill="none" stroke="black" points="957.5,-58.5 957.5,-79.5 1094.5,-79.5 1094.5,-58.5 957.5,-58.5"/>
<text text-anchor="middle" x="1026" y="-66.5" font-family="FreeSans.ttf" font-size="10.00">core/filters/sobelFilter.cpp</text>
</a>
</g>
<!-- Node3&#45;&gt;Node11 -->
<g id="edge20" class="edge"><title>Node3&#45;&gt;Node11</title>
<path fill="none" stroke="midnightblue" d="M774.056,-114.665C831.672,-104.222 913.366,-89.415 967.942,-79.5231"/>
<polygon fill="midnightblue" stroke="midnightblue" points="773.165,-111.269 763.95,-116.497 774.414,-118.157 773.165,-111.269"/>
</g>
<!-- Node9 -->
<g id="node17" class="node"><title>Node9</title>
<a xlink:href="filtersCollection_8cpp.html" target="_top" xlink:title="core/filters/filtersCollection.cpp">
<polygon fill="none" stroke="black" points="696.5,-0.5 696.5,-21.5 859.5,-21.5 859.5,-0.5 696.5,-0.5"/>
<text text-anchor="middle" x="778" y="-8.5" font-family="FreeSans.ttf" font-size="10.00">core/filters/filtersCollection.cpp</text>
</a>
</g>
<!-- Node8&#45;&gt;Node9 -->
<g id="edge16" class="edge"><title>Node8&#45;&gt;Node9</title>
<path fill="none" stroke="midnightblue" d="M842.174,-52.8215C826.844,-42.8312 807.614,-30.2993 794.22,-21.5707"/>
<polygon fill="midnightblue" stroke="midnightblue" points="840.387,-55.8344 850.676,-58.3619 844.209,-49.9698 840.387,-55.8344"/>
</g>
<!-- Node10 -->
<g id="node19" class="node"><title>Node10</title>
<a xlink:href="operationFilter_8cpp.html" target="_top" xlink:title="core/filters/operationFilter.cpp">
<polygon fill="none" stroke="black" points="877,-0.5 877,-21.5 1035,-21.5 1035,-0.5 877,-0.5"/>
<text text-anchor="middle" x="956" y="-8.5" font-family="FreeSans.ttf" font-size="10.00">core/filters/operationFilter.cpp</text>
</a>
</g>
<!-- Node8&#45;&gt;Node10 -->
<g id="edge18" class="edge"><title>Node8&#45;&gt;Node10</title>
<path fill="none" stroke="midnightblue" d="M891.826,-52.8215C907.156,-42.8312 926.386,-30.2993 939.78,-21.5707"/>
<polygon fill="midnightblue" stroke="midnightblue" points="889.791,-49.9698 883.324,-58.3619 893.613,-55.8344 889.791,-49.9698"/>
</g>
<!-- Node14 -->
<g id="node27" class="node"><title>Node14</title>
<a xlink:href="decoupleYUYV_8cpp.html" target="_top" xlink:title="utils/framesources/decoders/decoupleYUYV.cpp">
<polygon fill="none" stroke="black" points="1112,-58.5 1112,-79.5 1354,-79.5 1354,-58.5 1112,-58.5"/>
<text text-anchor="middle" x="1233" y="-66.5" font-family="FreeSans.ttf" font-size="10.00">utils/framesources/decoders/decoupleYUYV.cpp</text>
</a>
</g>
<!-- Node13&#45;&gt;Node14 -->
<g id="edge26" class="edge"><title>Node13&#45;&gt;Node14</title>
<path fill="none" stroke="midnightblue" d="M1537.47,-114.988C1468.23,-104.529 1368.84,-89.5174 1302.67,-79.5231"/>
<polygon fill="midnightblue" stroke="midnightblue" points="1537.05,-118.464 1547.46,-116.497 1538.1,-111.542 1537.05,-118.464"/>
</g>
<!-- Node15 -->
<g id="node29" class="node"><title>Node15</title>
<a xlink:href="directShowCaptureDecouple_8h.html" target="_top" xlink:title="utils/framesources/directShow/directShowCaptureDecouple.h">
<polygon fill="none" stroke="black" points="1372,-58.5 1372,-79.5 1680,-79.5 1680,-58.5 1372,-58.5"/>
<text text-anchor="middle" x="1526" y="-66.5" font-family="FreeSans.ttf" font-size="10.00">utils/framesources/directShow/directShowCaptureDecouple.h</text>
</a>
</g>
<!-- Node13&#45;&gt;Node15 -->
<g id="edge28" class="edge"><title>Node13&#45;&gt;Node15</title>
<path fill="none" stroke="midnightblue" d="M1591.62,-110.821C1575.94,-100.831 1556.28,-88.2993 1542.58,-79.5707"/>
<polygon fill="midnightblue" stroke="midnightblue" points="1590,-113.939 1600.31,-116.362 1593.76,-108.036 1590,-113.939"/>
</g>
<!-- Node16 -->
<g id="node31" class="node"><title>Node16</title>
<a xlink:href="directShowCaptureDecouple_8cpp.html" target="_top" xlink:title="utils/framesources/directShow/directShowCaptureDecouple.cpp">
<polygon fill="none" stroke="black" points="1379,-0.5 1379,-21.5 1699,-21.5 1699,-0.5 1379,-0.5"/>
<text text-anchor="middle" x="1539" y="-8.5" font-family="FreeSans.ttf" font-size="10.00">utils/framesources/directShow/directShowCaptureDecouple.cpp</text>
</a>
</g>
<!-- Node13&#45;&gt;Node16 -->
<g id="edge32" class="edge"><title>Node13&#45;&gt;Node16</title>
<path fill="none" stroke="midnightblue" d="M1651.91,-111.974C1677.15,-98.9211 1704.34,-78.8773 1689,-58 1677.61,-42.4946 1633.26,-29.8114 1595.72,-21.5454"/>
<polygon fill="midnightblue" stroke="midnightblue" points="1650.21,-108.907 1642.78,-116.455 1653.3,-115.191 1650.21,-108.907"/>
</g>
<!-- Node17 -->
<g id="node34" class="node"><title>Node17</title>
<a xlink:href="V4L2CaptureDecouple_8h.html" target="_top" xlink:title="utils/framesources/v4l2/V4L2CaptureDecouple.h">
<polygon fill="none" stroke="black" points="1735.5,-58.5 1735.5,-79.5 1982.5,-79.5 1982.5,-58.5 1735.5,-58.5"/>
<text text-anchor="middle" x="1859" y="-66.5" font-family="FreeSans.ttf" font-size="10.00">utils/framesources/v4l2/V4L2CaptureDecouple.h</text>
</a>
</g>
<!-- Node13&#45;&gt;Node17 -->
<g id="edge34" class="edge"><title>Node13&#45;&gt;Node17</title>
<path fill="none" stroke="midnightblue" d="M1670.65,-114.142C1714.08,-103.733 1774.5,-89.2511 1815.09,-79.5231"/>
<polygon fill="midnightblue" stroke="midnightblue" points="1669.73,-110.762 1660.82,-116.497 1671.36,-117.569 1669.73,-110.762"/>
</g>
<!-- Node18 -->
<g id="node36" class="node"><title>Node18</title>
<a xlink:href="V4L2CaptureDecouple_8cpp.html" target="_top" xlink:title="utils/framesources/v4l2/V4L2CaptureDecouple.cpp">
<polygon fill="none" stroke="black" points="1805,-0.5 1805,-21.5 2063,-21.5 2063,-0.5 1805,-0.5"/>
<text text-anchor="middle" x="1934" y="-8.5" font-family="FreeSans.ttf" font-size="10.00">utils/framesources/v4l2/V4L2CaptureDecouple.cpp</text>
</a>
</g>
<!-- Node13&#45;&gt;Node18 -->
<g id="edge38" class="edge"><title>Node13&#45;&gt;Node18</title>
<path fill="none" stroke="midnightblue" d="M1743.02,-119.328C1845.06,-111.794 1974.5,-98.7002 1991,-80 2008.78,-59.8423 1976.5,-35.4181 1953.7,-21.6994"/>
<polygon fill="midnightblue" stroke="midnightblue" points="1742.65,-115.846 1732.93,-120.062 1743.15,-122.828 1742.65,-115.846"/>
</g>
<!-- Node15&#45;&gt;Node16 -->
<g id="edge30" class="edge"><title>Node15&#45;&gt;Node16</title>
<path fill="none" stroke="midnightblue" d="M1530.6,-48.4876C1532.64,-39.3924 1534.95,-29.0756 1536.63,-21.5707"/>
<polygon fill="midnightblue" stroke="midnightblue" points="1527.16,-47.8385 1528.38,-58.3619 1533.99,-49.3695 1527.16,-47.8385"/>
</g>
<!-- Node17&#45;&gt;Node18 -->
<g id="edge36" class="edge"><title>Node17&#45;&gt;Node18</title>
<path fill="none" stroke="midnightblue" d="M1881.01,-51.9753C1893.74,-42.1315 1909.36,-30.0545 1920.33,-21.5707"/>
<polygon fill="midnightblue" stroke="midnightblue" points="1878.53,-49.4757 1872.76,-58.3619 1882.81,-55.0131 1878.53,-49.4757"/>
</g>
</g>
</svg>
        <g id="navigator" transform="translate(0 0)" fill="#404254">
                <rect fill="#f2f5e9" fill-opacity="0.5" stroke="#606060" stroke-width=".5" x="0" y="0" width="60" height="60"/>
                <use id="zoomplus" xlink:href="#zoomPlus" x="17" y="9" onmousedown="handleZoom(evt,'in')"/>
                <use id="zoomminus" xlink:href="#zoomMin" x="42" y="9" onmousedown="handleZoom(evt,'out')"/>
                <use id="reset" xlink:href="#resetDef" x="30" y="36" onmousedown="handleReset()"/>
                <g id="arrowUp" xlink:href="#dirArrow" transform="translate(30 24)" onmousedown="handlePan(0,-1)">
                  <use xlink:href="#rim" fill="#404040">
                        <set attributeName="fill" to="#808080" begin="arrowUp.mouseover" end="arrowUp.mouseout"/>
                  </use>
                  <path fill="none" stroke="white" stroke-width="1.5" d="M0,-3.0v7 M-2.5,-0.5L0,-3.0L2.5,-0.5"/>
                </g>
                <g id="arrowRight" xlink:href="#dirArrow" transform="rotate(90) translate(36 -43)" onmousedown="handlePan(1,0)">
                  <use xlink:href="#rim" fill="#404040">
                        <set attributeName="fill" to="#808080" begin="arrowRight.mouseover" end="arrowRight.mouseout"/>
                  </use>
                  <path fill="none" stroke="white" stroke-width="1.5" d="M0,-3.0v7 M-2.5,-0.5L0,-3.0L2.5,-0.5"/>
                </g>
                <g id="arrowDown" xlink:href="#dirArrow" transform="rotate(180) translate(-30 -48)" onmousedown="handlePan(0,1)">
                  <use xlink:href="#rim" fill="#404040">
                        <set attributeName="fill" to="#808080" begin="arrowDown.mouseover" end="arrowDown.mouseout"/>
                  </use>
                  <path fill="none" stroke="white" stroke-width="1.5" d="M0,-3.0v7 M-2.5,-0.5L0,-3.0L2.5,-0.5"/>
                </g>
                <g id="arrowLeft" xlink:href="#dirArrow" transform="rotate(270) translate(-36 17)" onmousedown="handlePan(-1,0)">
                  <use xlink:href="#rim" fill="#404040">
                        <set attributeName="fill" to="#808080" begin="arrowLeft.mouseover" end="arrowLeft.mouseout"/>
                  </use>
                  <path fill="none" stroke="white" stroke-width="1.5" d="M0,-3.0v7 M-2.5,-0.5L0,-3.0L2.5,-0.5"/>
                </g>
        </g>
</svg>
