<?xml version="1.0" encoding="UTF-8" standalone="no"?>
<!DOCTYPE svg PUBLIC "-//W3C//DTD SVG 1.1//EN"
 "http://www.w3.org/Graphics/SVG/1.1/DTD/svg11.dtd">
<!-- Generated by graphviz version 2.26.3 (20100126.1600)
 -->
<!-- Title: G Pages: 1 -->
<svg width="296pt" height="146pt"
 viewBox="0.00 0.00 296.00 146.00" xmlns="http://www.w3.org/2000/svg" xmlns:xlink="http://www.w3.org/1999/xlink">
<g id="graph1" class="graph" transform="scale(1 1) rotate(0) translate(4 142)">
<title>G</title>
<!-- Node1 -->
<g id="node1" class="node"><title>Node1</title>
<polygon fill="#bfbfbf" stroke="black" points="68.5,-116.5 68.5,-137.5 215.5,-137.5 215.5,-116.5 68.5,-116.5"/>
<text text-anchor="middle" x="142" y="-124.5" font-family="FreeSans.ttf" font-size="10.00">core/math/sse/sseInteger.h</text>
</g>
<!-- Node2 -->
<g id="node3" class="node"><title>Node2</title>
<a xlink:href="intBase16x8_8h.html" target="_top" xlink:title="core/math/sse/intBase16x8.h">
<polygon fill="none" stroke="black" points="63.5,-58.5 63.5,-79.5 220.5,-79.5 220.5,-58.5 63.5,-58.5"/>
<text text-anchor="middle" x="142" y="-66.5" font-family="FreeSans.ttf" font-size="10.00">core/math/sse/intBase16x8.h</text>
</a>
</g>
<!-- Node1&#45;&gt;Node2 -->
<g id="edge2" class="edge"><title>Node1&#45;&gt;Node2</title>
<path fill="none" stroke="midnightblue" d="M142,-106.191C142,-97.1684 142,-86.9941 142,-79.5707"/>
<polygon fill="midnightblue" stroke="midnightblue" points="138.5,-106.362 142,-116.362 145.5,-106.362 138.5,-106.362"/>
</g>
<!-- Node3 -->
<g id="node5" class="node"><title>Node3</title>
<a xlink:href="sse_2int16x8_8h.html" target="_top" xlink:title="core/math/sse/int16x8.h">
<polygon fill="none" stroke="black" points="-0.5,-0.5 -0.5,-21.5 132.5,-21.5 132.5,-0.5 -0.5,-0.5"/>
<text text-anchor="middle" x="66" y="-8.5" font-family="FreeSans.ttf" font-size="10.00">core/math/sse/int16x8.h</text>
</a>
</g>
<!-- Node2&#45;&gt;Node3 -->
<g id="edge4" class="edge"><title>Node2&#45;&gt;Node3</title>
<path fill="none" stroke="midnightblue" d="M120.063,-52.2587C107.098,-42.3641 91.0749,-30.1361 79.8512,-21.5707"/>
<polygon fill="midnightblue" stroke="midnightblue" points="117.988,-55.0775 128.06,-58.3619 122.234,-49.5128 117.988,-55.0775"/>
</g>
<!-- Node4 -->
<g id="node7" class="node"><title>Node4</title>
<a xlink:href="uInt16x8_8h.html" target="_top" xlink:title="core/math/sse/uInt16x8.h">
<polygon fill="none" stroke="black" points="149.5,-0.5 149.5,-21.5 288.5,-21.5 288.5,-0.5 149.5,-0.5"/>
<text text-anchor="middle" x="219" y="-8.5" font-family="FreeSans.ttf" font-size="10.00">core/math/sse/uInt16x8.h</text>
</a>
</g>
<!-- Node2&#45;&gt;Node4 -->
<g id="edge6" class="edge"><title>Node2&#45;&gt;Node4</title>
<path fill="none" stroke="midnightblue" d="M164.226,-52.2587C177.361,-42.3641 193.595,-30.1361 204.967,-21.5707"/>
<polygon fill="midnightblue" stroke="midnightblue" points="162.005,-49.5496 156.123,-58.3619 166.216,-55.1409 162.005,-49.5496"/>
</g>
</g>
</svg>
