<?xml version="1.0" encoding="UTF-8" standalone="no"?>
<!DOCTYPE svg PUBLIC "-//W3C//DTD SVG 1.1//EN"
 "http://www.w3.org/Graphics/SVG/1.1/DTD/svg11.dtd">
<!-- Generated by graphviz version 2.26.3 (20100126.1600)
 -->
<!-- Title: G Pages: 1 -->
<svg width="128pt" height="88pt"
 viewBox="0.00 0.00 128.00 88.00" xmlns="http://www.w3.org/2000/svg" xmlns:xlink="http://www.w3.org/1999/xlink">
<g id="graph1" class="graph" transform="scale(1 1) rotate(0) translate(4 84)">
<title>G</title>
<!-- Node1 -->
<g id="node1" class="node"><title>Node1</title>
<polygon fill="#bfbfbf" stroke="black" points="-0.5,-58.5 -0.5,-79.5 118.5,-79.5 118.5,-58.5 -0.5,-58.5"/>
<text text-anchor="middle" x="59" y="-66.5" font-family="FreeSans.ttf" font-size="10.00">core/utils/stdint_win.h</text>
</g>
<!-- Node2 -->
<g id="node3" class="node"><title>Node2</title>
<polygon fill="none" stroke="#bfbfbf" points="-0.5,-0.5 -0.5,-21.5 50.5,-21.5 50.5,-0.5 -0.5,-0.5"/>
<text text-anchor="middle" x="25" y="-8.5" font-family="FreeSans.ttf" font-size="10.00">limits.h</text>
</g>
<!-- Node1&#45;&gt;Node2 -->
<g id="edge2" class="edge"><title>Node1&#45;&gt;Node2</title>
<path fill="none" stroke="midnightblue" d="M52.7639,-58.3619C48.1629,-50.5131 41.7748,-39.6159 36.2861,-30.2527"/>
<polygon fill="midnightblue" stroke="midnightblue" points="39.2733,-28.4276 31.1966,-21.5707 33.2344,-31.9677 39.2733,-28.4276"/>
</g>
<!-- Node3 -->
<g id="node5" class="node"><title>Node3</title>
<polygon fill="none" stroke="#bfbfbf" points="67.5,-0.5 67.5,-21.5 120.5,-21.5 120.5,-0.5 67.5,-0.5"/>
<text text-anchor="middle" x="94" y="-8.5" font-family="FreeSans.ttf" font-size="10.00">wchar.h</text>
</g>
<!-- Node1&#45;&gt;Node3 -->
<g id="edge4" class="edge"><title>Node1&#45;&gt;Node3</title>
<path fill="none" stroke="midnightblue" d="M65.4195,-58.3619C70.1559,-50.5131 76.7318,-39.6159 82.382,-30.2527"/>
<polygon fill="midnightblue" stroke="midnightblue" points="85.4511,-31.9409 87.6212,-21.5707 79.4578,-28.3242 85.4511,-31.9409"/>
</g>
</g>
</svg>
