<?xml version="1.0" encoding="UTF-8" standalone="no"?>
<!DOCTYPE svg PUBLIC "-//W3C//DTD SVG 1.1//EN"
 "http://www.w3.org/Graphics/SVG/1.1/DTD/svg11.dtd">
<!-- Generated by graphviz version 2.26.3 (20100126.1600)
 -->
<!-- Title: G Pages: 1 -->
<svg width="458pt" height="88pt"
 viewBox="0.00 0.00 458.00 88.00" xmlns="http://www.w3.org/2000/svg" xmlns:xlink="http://www.w3.org/1999/xlink">
<g id="graph1" class="graph" transform="scale(1 1) rotate(0) translate(4 84)">
<title>G</title>
<!-- Node1 -->
<g id="node1" class="node"><title>Node1</title>
<polygon fill="#bfbfbf" stroke="black" points="108.5,-58.5 108.5,-79.5 327.5,-79.5 327.5,-58.5 108.5,-58.5"/>
<text text-anchor="middle" x="218" y="-66.5" font-family="FreeSans.ttf" font-size="10.00">applications/testbed/testbedMainWindow.h</text>
</g>
<!-- Node2 -->
<g id="node3" class="node"><title>Node2</title>
<a xlink:href="main__testbed_8cpp.html" target="_top" xlink:title="applications/testbed/main_testbed.cpp">
<polygon fill="none" stroke="black" points="-0.5,-0.5 -0.5,-21.5 202.5,-21.5 202.5,-0.5 -0.5,-0.5"/>
<text text-anchor="middle" x="101" y="-8.5" font-family="FreeSans.ttf" font-size="10.00">applications/testbed/main_testbed.cpp</text>
</a>
</g>
<!-- Node1&#45;&gt;Node2 -->
<g id="edge2" class="edge"><title>Node1&#45;&gt;Node2</title>
<path fill="none" stroke="midnightblue" d="M187.604,-53.9319C167.152,-43.7932 140.689,-30.6748 122.426,-21.6212"/>
<polygon fill="midnightblue" stroke="midnightblue" points="186.298,-57.1909 196.812,-58.4966 189.407,-50.9193 186.298,-57.1909"/>
</g>
<!-- Node3 -->
<g id="node5" class="node"><title>Node3</title>
<a xlink:href="testbedMainWindow_8cpp.html" target="_top" xlink:title="applications/testbed/testbedMainWindow.cpp">
<polygon fill="none" stroke="black" points="220,-0.5 220,-21.5 450,-21.5 450,-0.5 220,-0.5"/>
<text text-anchor="middle" x="335" y="-8.5" font-family="FreeSans.ttf" font-size="10.00">applications/testbed/testbedMainWindow.cpp</text>
</a>
</g>
<!-- Node1&#45;&gt;Node3 -->
<g id="edge4" class="edge"><title>Node1&#45;&gt;Node3</title>
<path fill="none" stroke="midnightblue" d="M248.396,-53.9319C268.848,-43.7932 295.311,-30.6748 313.574,-21.6212"/>
<polygon fill="midnightblue" stroke="midnightblue" points="246.593,-50.9193 239.188,-58.4966 249.702,-57.1909 246.593,-50.9193"/>
</g>
</g>
</svg>
