<?xml version="1.0" encoding="UTF-8" standalone="no"?>
<!DOCTYPE svg PUBLIC "-//W3C//DTD SVG 1.1//EN"
 "http://www.w3.org/Graphics/SVG/1.1/DTD/svg11.dtd">
<!-- Generated by graphviz version 2.26.3 (20100126.1600)
 -->
<!-- Title: G Pages: 1 -->
<svg width="262pt" height="204pt"
 viewBox="0.00 0.00 262.00 204.00" xmlns="http://www.w3.org/2000/svg" xmlns:xlink="http://www.w3.org/1999/xlink">
<g id="graph1" class="graph" transform="scale(1 1) rotate(0) translate(4 200)">
<title>G</title>
<!-- Node1 -->
<g id="node1" class="node"><title>Node1</title>
<polygon fill="#bfbfbf" stroke="black" points="4,-174.5 4,-195.5 156,-195.5 156,-174.5 4,-174.5"/>
<text text-anchor="middle" x="80" y="-182.5" font-family="FreeSans.ttf" font-size="10.00">utils/uis/textLabelWidget.cpp</text>
</g>
<!-- Node2 -->
<g id="node3" class="node"><title>Node2</title>
<a xlink:href="textLabelWidget_8h.html" target="_top" xlink:title="textLabelWidget.h">
<polygon fill="none" stroke="black" points="29,-116.5 29,-137.5 131,-137.5 131,-116.5 29,-116.5"/>
<text text-anchor="middle" x="80" y="-124.5" font-family="FreeSans.ttf" font-size="10.00">textLabelWidget.h</text>
</a>
</g>
<!-- Node1&#45;&gt;Node2 -->
<g id="edge2" class="edge"><title>Node1&#45;&gt;Node2</title>
<path fill="none" stroke="midnightblue" d="M80,-174.362C80,-166.922 80,-156.743 80,-147.728"/>
<polygon fill="midnightblue" stroke="midnightblue" points="83.5001,-147.571 80,-137.571 76.5001,-147.571 83.5001,-147.571"/>
</g>
<!-- Node3 -->
<g id="node5" class="node"><title>Node3</title>
<polygon fill="none" stroke="#bfbfbf" points="0,-0.5 0,-21.5 86,-21.5 86,-0.5 0,-0.5"/>
<text text-anchor="middle" x="43" y="-8.5" font-family="FreeSans.ttf" font-size="10.00">QtGui/QWidget</text>
</g>
<!-- Node2&#45;&gt;Node3 -->
<g id="edge4" class="edge"><title>Node2&#45;&gt;Node3</title>
<path fill="none" stroke="midnightblue" d="M54.5,-116.488C39.4622,-108.797 21.7186,-96.7659 13,-80 4.41591,-63.4928 14.6714,-43.9938 25.4594,-29.9426"/>
<polygon fill="midnightblue" stroke="midnightblue" points="28.3825,-31.9013 32.0816,-21.9732 22.9986,-27.4276 28.3825,-31.9013"/>
</g>
<!-- Node4 -->
<g id="node7" class="node"><title>Node4</title>
<polygon fill="none" stroke="#bfbfbf" points="22,-58.5 22,-79.5 138,-79.5 138,-58.5 22,-58.5"/>
<text text-anchor="middle" x="80" y="-66.5" font-family="FreeSans.ttf" font-size="10.00">ui_textLabelWidget.h</text>
</g>
<!-- Node2&#45;&gt;Node4 -->
<g id="edge6" class="edge"><title>Node2&#45;&gt;Node4</title>
<path fill="none" stroke="midnightblue" d="M80,-116.362C80,-108.922 80,-98.7427 80,-89.7276"/>
<polygon fill="midnightblue" stroke="midnightblue" points="83.5001,-89.5706 80,-79.5707 76.5001,-89.5707 83.5001,-89.5706"/>
</g>
<!-- Node5 -->
<g id="node9" class="node"><title>Node5</title>
<a xlink:href="viAreaWidget_8h.html" target="_top" xlink:title="../viAreaWidget.h">
<polygon fill="none" stroke="black" points="155.5,-58.5 155.5,-79.5 252.5,-79.5 252.5,-58.5 155.5,-58.5"/>
<text text-anchor="middle" x="204" y="-66.5" font-family="FreeSans.ttf" font-size="10.00">../viAreaWidget.h</text>
</a>
</g>
<!-- Node2&#45;&gt;Node5 -->
<g id="edge8" class="edge"><title>Node2&#45;&gt;Node5</title>
<path fill="none" stroke="midnightblue" d="M102.455,-116.497C121.91,-107.397 150.28,-94.1273 172.091,-83.9253"/>
<polygon fill="midnightblue" stroke="midnightblue" points="173.717,-87.0285 181.293,-79.6212 170.752,-80.6878 173.717,-87.0285"/>
</g>
<!-- Node5&#45;&gt;Node3 -->
<g id="edge10" class="edge"><title>Node5&#45;&gt;Node3</title>
<path fill="none" stroke="midnightblue" d="M174.844,-58.4966C148.824,-49.1229 110.521,-35.3242 81.8959,-25.0122"/>
<polygon fill="midnightblue" stroke="midnightblue" points="82.805,-21.6195 72.2106,-21.5231 80.4324,-28.2052 82.805,-21.6195"/>
</g>
<!-- Node6 -->
<g id="node12" class="node"><title>Node6</title>
<polygon fill="none" stroke="#bfbfbf" points="153.5,-0.5 153.5,-21.5 254.5,-21.5 254.5,-0.5 153.5,-0.5"/>
<text text-anchor="middle" x="204" y="-8.5" font-family="FreeSans.ttf" font-size="10.00">ui_viAreaWidget.h</text>
</g>
<!-- Node5&#45;&gt;Node6 -->
<g id="edge12" class="edge"><title>Node5&#45;&gt;Node6</title>
<path fill="none" stroke="midnightblue" d="M204,-58.3619C204,-50.9219 204,-40.7427 204,-31.7276"/>
<polygon fill="midnightblue" stroke="midnightblue" points="207.5,-31.5706 204,-21.5707 200.5,-31.5707 207.5,-31.5706"/>
</g>
</g>
</svg>
