<?xml version="1.0" encoding="UTF-8" standalone="no"?>
<!DOCTYPE svg PUBLIC "-//W3C//DTD SVG 1.1//EN"
 "http://www.w3.org/Graphics/SVG/1.1/DTD/svg11.dtd">
<!-- Generated by graphviz version 2.26.3 (20100126.1600)
 -->
<!-- Title: G Pages: 1 -->
<!--zoomable 146 -->
<svg id="main" version="1.1" xmlns="http://www.w3.org/2000/svg" xmlns:xlink="http://www.w3.org/1999/xlink" xml:space="preserve" onload="init(evt)">
        <defs>
                <circle id="rim" cx="0" cy="0" r="7"/>
                <circle id="rim2" cx="0" cy="0" r="3.5"/>
                <g id="zoomPlus">
                        <use xlink:href="#rim" fill="#404040">
                                <set attributeName="fill" to="#808080" begin="zoomplus.mouseover" end="zoomplus.mouseout"/>
                        </use>
                        <path d="M-4,0h8M0,-4v8" fill="none" stroke="white" stroke-width="1.5" pointer-events="none"/>
                </g>
                <g id="zoomMin">
                        <use xlink:href="#rim" fill="#404040">
                                <set attributeName="fill" to="#808080" begin="zoomminus.mouseover" end="zoomminus.mouseout"/>
                        </use>
                        <path d="M-4,0h8" fill="none" stroke="white" stroke-width="1.5" pointer-events="none"/>
                </g>
                <g id="dirArrow">
                        <path fill="none" stroke="white" stroke-width="1.5" d="M0,-3.0v7 M-2.5,-0.5L0,-3.0L2.5,-0.5"/>
                </g>
               <g id="resetDef">
                       <use xlink:href="#rim2" fill="#404040">
                               <set attributeName="fill" to="#808080" begin="reset.mouseover" end="reset.mouseout"/>
                       </use>
               </g>
        </defs>

<script type="text/javascript">
var viewWidth = 1140;
var viewHeight = 146;
var sectionId = 'dynsection-0';
</script>
<script xlink:href="svgpan.js"/>
<svg id="graph" class="graph">
<g id="viewport">
<title>G</title>
<!-- Node1 -->
<g id="node1" class="node"><title>Node1</title>
<polygon fill="#bfbfbf" stroke="black" points="445,-116.5 445,-137.5 627,-137.5 627,-116.5 445,-116.5"/>
<text text-anchor="middle" x="536" y="-124.5" font-family="FreeSans.ttf" font-size="10.00">utils/serializer/widgetQtIterator.cpp</text>
</g>
<!-- Node2 -->
<g id="node3" class="node"><title>Node2</title>
<a xlink:href="widgetQtIterator_8h.html" target="_top" xlink:title="widgetQtIterator.h">
<polygon fill="none" stroke="black" points="485,-58.5 485,-79.5 587,-79.5 587,-58.5 485,-58.5"/>
<text text-anchor="middle" x="536" y="-66.5" font-family="FreeSans.ttf" font-size="10.00">widgetQtIterator.h</text>
</a>
</g>
<!-- Node1&#45;&gt;Node2 -->
<g id="edge2" class="edge"><title>Node1&#45;&gt;Node2</title>
<path fill="none" stroke="midnightblue" d="M536,-116.362C536,-108.922 536,-98.7427 536,-89.7276"/>
<polygon fill="midnightblue" stroke="midnightblue" points="539.5,-89.5706 536,-79.5707 532.5,-89.5707 539.5,-89.5706"/>
</g>
<!-- Node3 -->
<g id="node5" class="node"><title>Node3</title>
<polygon fill="none" stroke="#bfbfbf" points="0,-0.5 0,-21.5 86,-21.5 86,-0.5 0,-0.5"/>
<text text-anchor="middle" x="43" y="-8.5" font-family="FreeSans.ttf" font-size="10.00">QtGui/QWidget</text>
</g>
<!-- Node2&#45;&gt;Node3 -->
<g id="edge4" class="edge"><title>Node2&#45;&gt;Node3</title>
<path fill="none" stroke="midnightblue" d="M484.847,-65.2575C404.285,-58.9888 242.769,-44.9077 96.149,-22.054"/>
<polygon fill="midnightblue" stroke="midnightblue" points="96.4902,-18.5646 86.0671,-20.4648 95.4001,-25.4792 96.4902,-18.5646"/>
</g>
<!-- Node4 -->
<g id="node7" class="node"><title>Node4</title>
<polygon fill="none" stroke="#bfbfbf" points="103.5,-0.5 103.5,-21.5 198.5,-21.5 198.5,-0.5 103.5,-0.5"/>
<text text-anchor="middle" x="151" y="-8.5" font-family="FreeSans.ttf" font-size="10.00">QtCore/qstring.h</text>
</g>
<!-- Node2&#45;&gt;Node4 -->
<g id="edge6" class="edge"><title>Node2&#45;&gt;Node4</title>
<path fill="none" stroke="midnightblue" d="M484.865,-62.5341C422.085,-54.409 312.13,-39.5752 208.623,-22.2181"/>
<polygon fill="midnightblue" stroke="midnightblue" points="209.071,-18.7443 198.628,-20.5306 207.906,-25.6466 209.071,-18.7443"/>
</g>
<!-- Node5 -->
<g id="node9" class="node"><title>Node5</title>
<polygon fill="none" stroke="#bfbfbf" points="216,-0.5 216,-21.5 296,-21.5 296,-0.5 216,-0.5"/>
<text text-anchor="middle" x="256" y="-8.5" font-family="FreeSans.ttf" font-size="10.00">QtGui/QLabel</text>
</g>
<!-- Node2&#45;&gt;Node5 -->
<g id="edge8" class="edge"><title>Node2&#45;&gt;Node5</title>
<path fill="none" stroke="midnightblue" d="M484.56,-58.8417C439.902,-49.9531 373.241,-36.5186 306.017,-22.1903"/>
<polygon fill="midnightblue" stroke="midnightblue" points="306.608,-18.7376 296.097,-20.0703 305.145,-25.583 306.608,-18.7376"/>
</g>
<!-- Node6 -->
<g id="node11" class="node"><title>Node6</title>
<polygon fill="none" stroke="#bfbfbf" points="313.5,-0.5 313.5,-21.5 414.5,-21.5 414.5,-0.5 313.5,-0.5"/>
<text text-anchor="middle" x="364" y="-8.5" font-family="FreeSans.ttf" font-size="10.00">QtGui/QCheckBox</text>
</g>
<!-- Node2&#45;&gt;Node6 -->
<g id="edge10" class="edge"><title>Node2&#45;&gt;Node6</title>
<path fill="none" stroke="midnightblue" d="M504.852,-58.4966C476.811,-49.0411 435.418,-35.0829 404.755,-24.7428"/>
<polygon fill="midnightblue" stroke="midnightblue" points="405.8,-21.4019 395.206,-21.5231 403.564,-28.035 405.8,-21.4019"/>
</g>
<!-- Node7 -->
<g id="node13" class="node"><title>Node7</title>
<polygon fill="none" stroke="#bfbfbf" points="431.5,-0.5 431.5,-21.5 524.5,-21.5 524.5,-0.5 431.5,-0.5"/>
<text text-anchor="middle" x="478" y="-8.5" font-family="FreeSans.ttf" font-size="10.00">QtGui/QSpinBox</text>
</g>
<!-- Node2&#45;&gt;Node7 -->
<g id="edge12" class="edge"><title>Node2&#45;&gt;Node7</title>
<path fill="none" stroke="midnightblue" d="M525.362,-58.3619C517.104,-50.1043 505.472,-38.4725 495.803,-28.8029"/>
<polygon fill="midnightblue" stroke="midnightblue" points="498.117,-26.1669 488.571,-21.5707 493.167,-31.1166 498.117,-26.1669"/>
</g>
<!-- Node8 -->
<g id="node15" class="node"><title>Node8</title>
<polygon fill="none" stroke="#bfbfbf" points="541.5,-0.5 541.5,-21.5 648.5,-21.5 648.5,-0.5 541.5,-0.5"/>
<text text-anchor="middle" x="595" y="-8.5" font-family="FreeSans.ttf" font-size="10.00">QtGui/QComboBox</text>
</g>
<!-- Node2&#45;&gt;Node8 -->
<g id="edge14" class="edge"><title>Node2&#45;&gt;Node8</title>
<path fill="none" stroke="midnightblue" d="M546.822,-58.3619C555.221,-50.1043 567.054,-38.4725 576.89,-28.8029"/>
<polygon fill="midnightblue" stroke="midnightblue" points="579.569,-31.077 584.247,-21.5707 574.662,-26.0851 579.569,-31.077"/>
</g>
<!-- Node9 -->
<g id="node17" class="node"><title>Node9</title>
<polygon fill="none" stroke="#bfbfbf" points="665.5,-0.5 665.5,-21.5 792.5,-21.5 792.5,-0.5 665.5,-0.5"/>
<text text-anchor="middle" x="729" y="-8.5" font-family="FreeSans.ttf" font-size="10.00">QtGui/QDoubleSpinBox</text>
</g>
<!-- Node2&#45;&gt;Node9 -->
<g id="edge16" class="edge"><title>Node2&#45;&gt;Node9</title>
<path fill="none" stroke="midnightblue" d="M570.951,-58.4966C602.687,-48.9592 649.668,-34.8408 684.161,-24.475"/>
<polygon fill="midnightblue" stroke="midnightblue" points="685.414,-27.7531 693.984,-21.5231 683.399,-21.0492 685.414,-27.7531"/>
</g>
<!-- Node10 -->
<g id="node19" class="node"><title>Node10</title>
<polygon fill="none" stroke="#bfbfbf" points="809.5,-0.5 809.5,-21.5 910.5,-21.5 910.5,-0.5 809.5,-0.5"/>
<text text-anchor="middle" x="860" y="-8.5" font-family="FreeSans.ttf" font-size="10.00">QtGui/QGroupBox</text>
</g>
<!-- Node2&#45;&gt;Node10 -->
<g id="edge18" class="edge"><title>Node2&#45;&gt;Node10</title>
<path fill="none" stroke="midnightblue" d="M587.321,-60.0355C638.532,-51.0592 719.755,-36.7391 799.282,-22.3027"/>
<polygon fill="midnightblue" stroke="midnightblue" points="800.262,-25.6821 809.475,-20.4501 799.01,-18.7949 800.262,-25.6821"/>
</g>
<!-- Node11 -->
<g id="node21" class="node"><title>Node11</title>
<polygon fill="none" stroke="#bfbfbf" points="927.5,-0.5 927.5,-21.5 1022.5,-21.5 1022.5,-0.5 927.5,-0.5"/>
<text text-anchor="middle" x="975" y="-8.5" font-family="FreeSans.ttf" font-size="10.00">QtCore/QVariant</text>
</g>
<!-- Node2&#45;&gt;Node11 -->
<g id="edge20" class="edge"><title>Node2&#45;&gt;Node11</title>
<path fill="none" stroke="midnightblue" d="M587.273,-63.8918C658.961,-56.4884 793.416,-41.6542 917.339,-22.1868"/>
<polygon fill="midnightblue" stroke="midnightblue" points="918.054,-25.6173 927.383,-20.5951 916.958,-18.7036 918.054,-25.6173"/>
</g>
<!-- Node12 -->
<g id="node23" class="node"><title>Node12</title>
<polygon fill="none" stroke="#bfbfbf" points="1040,-0.5 1040,-21.5 1132,-21.5 1132,-0.5 1040,-0.5"/>
<text text-anchor="middle" x="1086" y="-8.5" font-family="FreeSans.ttf" font-size="10.00">QtCore/QDebug</text>
</g>
<!-- Node2&#45;&gt;Node12 -->
<g id="edge22" class="edge"><title>Node2&#45;&gt;Node12</title>
<path fill="none" stroke="midnightblue" d="M587.158,-65.8823C675.456,-60.1214 862.314,-46.2645 1029.86,-22.0479"/>
<polygon fill="midnightblue" stroke="midnightblue" points="1030.46,-25.4975 1039.85,-20.5883 1029.45,-18.5711 1030.46,-25.4975"/>
</g>
</g>
</svg>
        <g id="navigator" transform="translate(0 0)" fill="#404254">
                <rect fill="#f2f5e9" fill-opacity="0.5" stroke="#606060" stroke-width=".5" x="0" y="0" width="60" height="60"/>
                <use id="zoomplus" xlink:href="#zoomPlus" x="17" y="9" onmousedown="handleZoom(evt,'in')"/>
                <use id="zoomminus" xlink:href="#zoomMin" x="42" y="9" onmousedown="handleZoom(evt,'out')"/>
                <use id="reset" xlink:href="#resetDef" x="30" y="36" onmousedown="handleReset()"/>
                <g id="arrowUp" xlink:href="#dirArrow" transform="translate(30 24)" onmousedown="handlePan(0,-1)">
                  <use xlink:href="#rim" fill="#404040">
                        <set attributeName="fill" to="#808080" begin="arrowUp.mouseover" end="arrowUp.mouseout"/>
                  </use>
                  <path fill="none" stroke="white" stroke-width="1.5" d="M0,-3.0v7 M-2.5,-0.5L0,-3.0L2.5,-0.5"/>
                </g>
                <g id="arrowRight" xlink:href="#dirArrow" transform="rotate(90) translate(36 -43)" onmousedown="handlePan(1,0)">
                  <use xlink:href="#rim" fill="#404040">
                        <set attributeName="fill" to="#808080" begin="arrowRight.mouseover" end="arrowRight.mouseout"/>
                  </use>
                  <path fill="none" stroke="white" stroke-width="1.5" d="M0,-3.0v7 M-2.5,-0.5L0,-3.0L2.5,-0.5"/>
                </g>
                <g id="arrowDown" xlink:href="#dirArrow" transform="rotate(180) translate(-30 -48)" onmousedown="handlePan(0,1)">
                  <use xlink:href="#rim" fill="#404040">
                        <set attributeName="fill" to="#808080" begin="arrowDown.mouseover" end="arrowDown.mouseout"/>
                  </use>
                  <path fill="none" stroke="white" stroke-width="1.5" d="M0,-3.0v7 M-2.5,-0.5L0,-3.0L2.5,-0.5"/>
                </g>
                <g id="arrowLeft" xlink:href="#dirArrow" transform="rotate(270) translate(-36 17)" onmousedown="handlePan(-1,0)">
                  <use xlink:href="#rim" fill="#404040">
                        <set attributeName="fill" to="#808080" begin="arrowLeft.mouseover" end="arrowLeft.mouseout"/>
                  </use>
                  <path fill="none" stroke="white" stroke-width="1.5" d="M0,-3.0v7 M-2.5,-0.5L0,-3.0L2.5,-0.5"/>
                </g>
        </g>
</svg>
