<?xml version="1.0" encoding="UTF-8" standalone="no"?>
<!DOCTYPE svg PUBLIC "-//W3C//DTD SVG 1.1//EN"
 "http://www.w3.org/Graphics/SVG/1.1/DTD/svg11.dtd">
<!-- Generated by graphviz version 2.26.3 (20100126.1600)
 -->
<!-- Title: G Pages: 1 -->
<svg width="220pt" height="146pt"
 viewBox="0.00 0.00 220.00 146.00" xmlns="http://www.w3.org/2000/svg" xmlns:xlink="http://www.w3.org/1999/xlink">
<g id="graph1" class="graph" transform="scale(1 1) rotate(0) translate(4 142)">
<title>G</title>
<!-- Node1 -->
<g id="node1" class="node"><title>Node1</title>
<polygon fill="#bfbfbf" stroke="black" points="7.5,-116.5 7.5,-137.5 192.5,-137.5 192.5,-116.5 7.5,-116.5"/>
<text text-anchor="middle" x="100" y="-124.5" font-family="FreeSans.ttf" font-size="10.00">utils/corestructs/zoomablearea.cpp</text>
</g>
<!-- Node2 -->
<g id="node3" class="node"><title>Node2</title>
<a xlink:href="zoomablearea_8h.html" target="_top" xlink:title="zoomablearea.h">
<polygon fill="none" stroke="black" points="52.5,-58.5 52.5,-79.5 147.5,-79.5 147.5,-58.5 52.5,-58.5"/>
<text text-anchor="middle" x="100" y="-66.5" font-family="FreeSans.ttf" font-size="10.00">zoomablearea.h</text>
</a>
</g>
<!-- Node1&#45;&gt;Node2 -->
<g id="edge2" class="edge"><title>Node1&#45;&gt;Node2</title>
<path fill="none" stroke="midnightblue" d="M100,-116.362C100,-108.922 100,-98.7427 100,-89.7276"/>
<polygon fill="midnightblue" stroke="midnightblue" points="103.5,-89.5706 100,-79.5707 96.5001,-89.5707 103.5,-89.5706"/>
</g>
<!-- Node3 -->
<g id="node5" class="node"><title>Node3</title>
<polygon fill="none" stroke="#bfbfbf" points="0,-0.5 0,-21.5 86,-21.5 86,-0.5 0,-0.5"/>
<text text-anchor="middle" x="43" y="-8.5" font-family="FreeSans.ttf" font-size="10.00">QtGui/QWidget</text>
</g>
<!-- Node2&#45;&gt;Node3 -->
<g id="edge4" class="edge"><title>Node2&#45;&gt;Node3</title>
<path fill="none" stroke="midnightblue" d="M89.5453,-58.3619C81.4301,-50.1043 69.9988,-38.4725 60.4959,-28.8029"/>
<polygon fill="midnightblue" stroke="midnightblue" points="62.8941,-26.2497 53.3884,-21.5707 57.9014,-31.1562 62.8941,-26.2497"/>
</g>
<!-- Node4 -->
<g id="node7" class="node"><title>Node4</title>
<polygon fill="none" stroke="#bfbfbf" points="104,-0.5 104,-21.5 212,-21.5 212,-0.5 104,-0.5"/>
<text text-anchor="middle" x="158" y="-8.5" font-family="FreeSans.ttf" font-size="10.00">ui_zoomablearea.h</text>
</g>
<!-- Node2&#45;&gt;Node4 -->
<g id="edge6" class="edge"><title>Node2&#45;&gt;Node4</title>
<path fill="none" stroke="midnightblue" d="M110.638,-58.3619C118.896,-50.1043 130.528,-38.4725 140.197,-28.8029"/>
<polygon fill="midnightblue" stroke="midnightblue" points="142.833,-31.1166 147.429,-21.5707 137.883,-26.1669 142.833,-31.1166"/>
</g>
</g>
</svg>
